<svg width="48" height="40" viewBox="0 0 48 40" fill="none" xmlns="http://www.w3.org/2000/svg">
<g clip-path="url(#clip0_1619_7353)">
<path d="M3.10559 10.3209H3.30228V12.7743H24.4679C24.281 12.2264 24.2518 11.637 24.3835 11.0733C24.5153 10.5096 24.8028 9.99419 25.2132 9.58592L28.5569 6.25258C28.8796 5.92641 29.271 5.67632 29.7026 5.52052C30.1342 5.36472 30.5951 5.30714 31.0517 5.35196V3.10559C31.0511 2.28213 30.7237 1.49259 30.1414 0.910314C29.5592 0.328042 28.7696 0.000641546 27.9462 0H3.10559C2.28267 0.00240061 1.49415 0.330366 0.912258 0.912257C0.330366 1.49415 0.00240061 2.28267 0 3.10559V7.21532C0.00240061 8.03823 0.330366 8.82676 0.912258 9.40865C1.49415 9.99054 2.28267 10.3185 3.10559 10.3209ZM13.4368 4.12008C13.7078 4.12551 13.9658 4.23696 14.1556 4.43051C14.3453 4.62407 14.4515 4.88429 14.4515 5.15531C14.4515 5.42633 14.3452 5.68654 14.1555 5.88008C13.9658 6.07362 13.7078 6.18506 13.4368 6.19047C13.1658 6.18504 12.9078 6.07359 12.7181 5.88004C12.5284 5.68649 12.4221 5.42627 12.4221 5.15525C12.4221 4.88423 12.5284 4.62401 12.7181 4.43047C12.9078 4.23693 13.1659 4.12549 13.4368 4.12008ZM9.29606 4.12008C9.56703 4.12551 9.82506 4.23696 10.0148 4.43051C10.2045 4.62407 10.3107 4.88429 10.3107 5.15531C10.3107 5.42633 10.2044 5.68654 10.0147 5.88008C9.82501 6.07362 9.56697 6.18506 9.296 6.19047C9.02503 6.18504 8.767 6.07359 8.57729 5.88004C8.38758 5.68649 8.28132 5.42627 8.28133 5.15525C8.28134 4.88423 8.38761 4.62401 8.57733 4.43047C8.76705 4.23693 9.0251 4.12549 9.29606 4.12008ZM5.15528 4.12008C5.42624 4.12551 5.68428 4.23696 5.87399 4.43051C6.0637 4.62407 6.16995 4.88429 6.16994 5.15531C6.16994 5.42633 6.06366 5.68654 5.87394 5.88008C5.68422 6.07362 5.42618 6.18506 5.15522 6.19047C4.88425 6.18504 4.62621 6.07359 4.4365 5.88004C4.2468 5.68649 4.14054 5.42627 4.14055 5.15525C4.14056 4.88423 4.24683 4.62401 4.43655 4.43047C4.62627 4.23693 4.88431 4.12549 5.15528 4.12008Z" fill="#673DE6"/>
<path d="M28.5569 33.748C28.1076 33.2212 24.8833 30.2549 24.6646 29.6797H3.10559C2.28268 29.6821 1.49416 30.0101 0.912269 30.592C0.330381 31.1739 0.00241147 31.9624 0 32.7853V36.895C0.00241147 37.7179 0.330381 38.5064 0.912269 39.0883C1.49416 39.6702 2.28268 39.9982 3.10559 40.0006H27.9462C28.7696 39.9999 29.5591 39.6725 30.1414 39.0903C30.7237 38.508 31.0511 37.7185 31.0517 36.895V34.6486C30.5951 34.6935 30.1342 34.6359 29.7026 34.4801C29.271 34.3243 28.8796 34.0742 28.5569 33.748ZM5.15528 35.8805C4.88431 35.8751 4.62628 35.7636 4.43657 35.5701C4.24686 35.3765 4.1406 35.1163 4.14061 34.8453C4.14062 34.5743 4.24689 34.3141 4.43661 34.1205C4.62633 33.927 4.88437 33.8155 5.15534 33.8101C5.4263 33.8156 5.68434 33.927 5.87405 34.1206C6.06376 34.3141 6.17001 34.5743 6.17001 34.8454C6.17 35.1164 6.06373 35.3766 5.87401 35.5701C5.68429 35.7637 5.42624 35.8751 5.15528 35.8805ZM9.29606 35.8805C9.0251 35.8751 8.76706 35.7636 8.57735 35.5701C8.38764 35.3765 8.28139 35.1163 8.28139 34.8453C8.2814 34.5743 8.38768 34.3141 8.5774 34.1205C8.76712 33.927 9.02516 33.8155 9.29612 33.8101C9.56709 33.8156 9.82513 33.927 10.0148 34.1206C10.2045 34.3141 10.3108 34.5743 10.3108 34.8454C10.3108 35.1164 10.2045 35.3766 10.0148 35.5701C9.82507 35.7637 9.56703 35.8751 9.29606 35.8805ZM13.4368 35.8805C13.1659 35.8751 12.9078 35.7636 12.7181 35.5701C12.5284 35.3765 12.4222 35.1163 12.4222 34.8453C12.4222 34.5743 12.5285 34.3141 12.7182 34.1205C12.9079 33.927 13.1659 33.8155 13.4369 33.8101C13.7079 33.8156 13.9659 33.927 14.1556 34.1206C14.3453 34.3141 14.4516 34.5743 14.4516 34.8454C14.4516 35.1164 14.3453 35.3766 14.1556 35.5701C13.9659 35.7637 13.7078 35.8751 13.4368 35.8805Z" fill="#673DE6"/>
<path d="M3.10559 25.1562H3.30228V27.6096H24.3644C24.4698 27.1087 24.6934 26.6402 25.0165 26.2432L25.5859 25.5496L24.6749 25.4564C23.9071 25.3817 23.1948 25.0229 22.6778 24.4503C22.1607 23.8777 21.8762 23.1326 21.8799 22.3612V17.6407C21.8772 17.0583 22.0389 16.487 22.3466 15.9925C22.6543 15.498 23.0954 15.1005 23.619 14.8457H3.10559C2.28214 14.8463 1.4926 15.1737 0.910326 15.756C0.328057 16.3382 0.000652497 17.1278 0 17.9512V22.0506C0.000641546 22.8741 0.328042 23.6636 0.910314 24.2459C1.49259 24.8282 2.28213 25.1556 3.10559 25.1562ZM13.4368 18.9657C13.7078 18.9712 13.9658 19.0826 14.1556 19.2762C14.3453 19.4697 14.4515 19.7299 14.4515 20.001C14.4515 20.272 14.3452 20.5322 14.1555 20.7257C13.9658 20.9193 13.7077 21.0307 13.4368 21.0361C13.1658 21.0307 12.9078 20.9192 12.7181 20.7257C12.5284 20.5321 12.4221 20.2719 12.4221 20.0009C12.4221 19.7299 12.5284 19.4697 12.7181 19.2761C12.9078 19.0826 13.1659 18.9711 13.4368 18.9657ZM9.29606 18.9657C9.56703 18.9712 9.82506 19.0826 10.0148 19.2762C10.2045 19.4697 10.3107 19.7299 10.3107 20.001C10.3107 20.272 10.2044 20.5322 10.0147 20.7257C9.82501 20.9193 9.56696 21.0307 9.296 21.0361C9.02503 21.0307 8.767 20.9192 8.57729 20.7257C8.38758 20.5321 8.28132 20.2719 8.28133 20.0009C8.28134 19.7299 8.38761 19.4697 8.57733 19.2761C8.76705 19.0826 9.02509 18.9711 9.29606 18.9657ZM5.15528 18.9657C5.42624 18.9712 5.68428 19.0826 5.87399 19.2762C6.0637 19.4697 6.16995 19.7299 6.16994 20.001C6.16994 20.272 6.06366 20.5322 5.87394 20.7257C5.68422 20.9193 5.42618 21.0307 5.15521 21.0361C4.88425 21.0307 4.62621 20.9192 4.4365 20.7257C4.2468 20.5321 4.14054 20.2719 4.14055 20.0009C4.14056 19.7299 4.24683 19.4697 4.43655 19.2761C4.62627 19.0826 4.88431 18.9711 5.15528 18.9657Z" fill="#673DE6"/>
<path d="M47.2862 17.8986L45.4621 17.7162C45.2927 17.6863 45.1336 17.6141 44.9996 17.5064C44.8655 17.3987 44.7608 17.2588 44.6952 17.0999C44.6296 16.9409 44.6051 16.768 44.6241 16.597C44.6431 16.4261 44.7049 16.2627 44.8038 16.1221L45.9617 14.7103C46.0873 14.559 46.1521 14.3663 46.1433 14.1698C46.1345 13.9733 46.0528 13.7871 45.9141 13.6476L43.3524 11.0859C43.2129 10.9472 43.0267 10.8655 42.8302 10.8567C42.6337 10.8479 42.441 10.9127 42.2896 11.0383L40.87 12.1962C40.7292 12.2925 40.5667 12.3521 40.397 12.3697C40.2274 12.3872 40.0561 12.3622 39.8985 12.2968C39.741 12.2315 39.6023 12.1278 39.495 11.9953C39.3876 11.8628 39.315 11.7056 39.2838 11.5379L39.1014 9.7138C39.0816 9.5175 38.9894 9.33559 38.8428 9.20361C38.6961 9.07163 38.5056 8.99904 38.3083 9.00001H34.6917C34.4944 8.99904 34.3039 9.07163 34.1572 9.20361C34.0106 9.33559 33.9184 9.5175 33.8986 9.7138L33.7162 11.5379C33.6849 11.7056 33.6124 11.8628 33.505 11.9953C33.3977 12.1278 33.2589 12.2314 33.1014 12.2968C32.9439 12.3621 32.7726 12.3872 32.603 12.3696C32.4333 12.352 32.2708 12.2924 32.13 12.1962L30.7104 11.0383C30.559 10.9127 30.3663 10.8479 30.1698 10.8567C29.9733 10.8655 29.7871 10.9472 29.6476 11.0859L27.0859 13.6476C26.9472 13.7871 26.8655 13.9733 26.8567 14.1698C26.8479 14.3663 26.9127 14.559 27.0383 14.7103L28.1962 16.13C28.2927 16.2707 28.3526 16.4333 28.3703 16.603C28.388 16.7727 28.363 16.9442 28.2976 17.1017C28.2322 17.2593 28.1284 17.3981 27.9958 17.5054C27.8631 17.6127 27.7057 17.6852 27.5379 17.7162L25.7138 17.8986C25.5175 17.9183 25.3356 18.0105 25.2036 18.1572C25.0716 18.3038 24.999 18.4944 25 18.6917V22.3083C24.999 22.5055 25.0716 22.6961 25.2036 22.8428C25.3356 22.9894 25.5175 23.0816 25.7138 23.1014L27.5379 23.2838C27.7063 23.3153 27.8642 23.3884 27.9972 23.4964C28.1301 23.6044 28.234 23.7439 28.2994 23.9023C28.3648 24.0606 28.3896 24.2328 28.3716 24.4032C28.3536 24.5736 28.2933 24.7367 28.1962 24.8779L27.0383 26.2896C26.9127 26.441 26.8479 26.6337 26.8567 26.8302C26.8655 27.0267 26.9472 27.2129 27.0859 27.3524L29.6476 29.9141C29.7871 30.0527 29.9733 30.1344 30.1698 30.1432C30.3663 30.152 30.559 30.0873 30.7104 29.9617L32.13 28.8038C32.2708 28.7075 32.4333 28.6479 32.603 28.6303C32.7726 28.6128 32.944 28.6378 33.1015 28.7032C33.259 28.7685 33.3977 28.8722 33.505 29.0047C33.6124 29.1372 33.685 29.2944 33.7162 29.4621L33.8986 31.2862C33.9184 31.4825 34.0106 31.6644 34.1572 31.7964C34.3039 31.9284 34.4944 32.001 34.6917 32H38.3083C38.5056 32.001 38.6961 31.9284 38.8428 31.7964C38.9894 31.6644 39.0816 31.4825 39.1014 31.2862L39.2838 29.4621C39.3099 29.2874 39.3826 29.1231 39.4943 28.9863C39.6059 28.8495 39.7524 28.7454 39.9183 28.6848C40.0734 28.6193 40.243 28.5958 40.4101 28.6167C40.5772 28.6376 40.7358 28.7021 40.87 28.8037L42.2896 29.9617C42.441 30.0873 42.6337 30.152 42.8302 30.1432C43.0267 30.1344 43.2129 30.0527 43.3524 29.9141L45.9141 27.3524C46.0528 27.2128 46.1345 27.0267 46.1433 26.8302C46.1521 26.6337 46.0873 26.441 45.9617 26.2896L44.8038 24.87C44.7073 24.7293 44.6474 24.5667 44.6297 24.3969C44.612 24.2272 44.637 24.0558 44.7024 23.8982C44.7678 23.7406 44.8716 23.6018 45.0043 23.4945C45.1369 23.3872 45.2943 23.3148 45.4621 23.2838L47.2862 23.1014C47.4825 23.0816 47.6644 22.9894 47.7964 22.8428C47.9284 22.6961 48.001 22.5055 48 22.3083V18.6917C48.001 18.4944 47.9284 18.3038 47.7964 18.1572C47.6644 18.0105 47.4825 17.9183 47.2862 17.8986ZM36.5 24.4655C31.2587 24.3021 31.2599 16.6971 36.5001 16.5345C41.7413 16.6979 41.7401 24.3029 36.5 24.4655Z" fill="#673DE6"/>
</g>
<defs>
<clipPath id="clip0_1619_7353">
<rect width="48" height="40" fill="white"/>
</clipPath>
</defs>
</svg>
