<svg width="39" height="40" viewBox="0 0 39 40" fill="none" xmlns="http://www.w3.org/2000/svg">
<mask id="mask0_1619_6638" style="mask-type:luminance" maskUnits="userSpaceOnUse" x="0" y="0" width="39" height="40">
<path d="M38.0488 0H0V40H38.0488V0Z" fill="white"/>
</mask>
<g mask="url(#mask0_1619_6638)">
<path d="M4.62109 30.601L4.85544 30.6837V30.0603L4.62109 29.9824V30.601Z" fill="#673DE6"/>
<path d="M5 30.7339L5.24028 30.8187V30.1873L5 30.1074V30.7339Z" fill="#673DE6"/>
<path d="M5.24028 9.15039L5 9.23543V9.86195L5.24028 9.78186V9.15039Z" fill="#673DE6"/>
<path d="M2.53906 20.2731L3.51501 20.2827V19.6875L2.53906 19.698V20.2731Z" fill="#673DE6"/>
<path d="M3.51501 11.7461L2.53906 12.0245V12.5996L3.51501 12.3412V11.7461Z" fill="#673DE6"/>
<path d="M4.25 24.3624L4.47857 24.396V23.7809L4.25 23.752V24.3624Z" fill="#673DE6"/>
<path d="M4.62109 21.7363V22.3551L4.85544 22.3734V21.7499L4.62109 21.7363Z" fill="#673DE6"/>
<path d="M4.25 21.7148V22.3259L4.47857 22.3438V21.728L4.25 21.7148Z" fill="#673DE6"/>
<path d="M4.25 20.2905L4.47857 20.2927V19.6777L4.25 19.6802V20.2905Z" fill="#673DE6"/>
<path d="M4.47857 13.5234L4.25 13.5729V14.1839L4.47857 14.1391V13.5234Z" fill="#673DE6"/>
<path d="M4.47857 11.4707L4.25 11.5359V12.1462L4.47857 12.0857V11.4707Z" fill="#673DE6"/>
<path d="M4.85544 27.9837L4.62109 27.9219V28.5398L4.85544 28.6064V27.9837Z" fill="#673DE6"/>
<path d="M4.62109 24.4168L4.85544 24.4512V23.8285L4.62109 23.7988V24.4168Z" fill="#673DE6"/>
<path d="M4.62109 20.2942L4.85544 20.2965V19.6738L4.62109 19.6763V20.2942Z" fill="#673DE6"/>
<path d="M4.62109 18.233L4.85544 18.2192V17.5957L4.62109 17.6143V18.233Z" fill="#673DE6"/>
<path d="M4.85544 13.4414L4.62109 13.4922V14.1108L4.85544 14.0649V13.4414Z" fill="#673DE6"/>
<path d="M4.85544 11.3652L4.62109 11.4321V12.0499L4.85544 11.9879V11.3652Z" fill="#673DE6"/>
<path d="M4.85544 9.28711L4.62109 9.37005V9.98877L4.85544 9.91066V9.28711Z" fill="#673DE6"/>
<path d="M5.24028 28.0848L5 28.0215V28.6471L5.24028 28.7154V28.0848Z" fill="#673DE6"/>
<path d="M5 21.7598V22.3864L5.24028 22.4052V21.7737L5 21.7598Z" fill="#673DE6"/>
<path d="M5 20.2983L5.24028 20.3006V19.6699L5 19.6725V20.2983Z" fill="#673DE6"/>
<path d="M5 18.212L5.24028 18.1978V17.5664L5 17.5854V18.212Z" fill="#673DE6"/>
<path d="M3.51501 13.7324L2.53906 13.9439V14.5197L3.51501 14.3283V13.7324Z" fill="#673DE6"/>
<path d="M3.51501 9.76172L2.53906 10.1071V10.683L3.51501 10.3577V9.76172Z" fill="#673DE6"/>
<path d="M1.82422 31.4813L6.11181 33.2884V6.71289L1.82422 8.51993V31.4813ZM2.35385 9.73672L3.49114 9.31634L5.43086 8.59941V10.2326L2.35387 11.2069L2.35385 9.73672ZM2.35385 11.6428L5.43086 10.7167V12.3498L3.11702 12.9237L2.35385 13.113V11.6428ZM2.35385 13.5481L3.0688 13.382L5.43085 12.8332V14.4662L2.90589 14.9193L2.35385 15.0183V13.5481ZM2.35385 17.3595L5.43086 17.0668V18.6999L2.35385 18.8296V17.3595ZM2.35385 19.2655L5.43086 19.184V20.8172L2.35385 20.7358V19.2655ZM2.35385 21.1708L5.43086 21.3005V22.9336L2.35385 22.6411V21.1708ZM2.35385 23.0768L5.43086 23.4177V25.0509L2.35385 24.5471V23.0768ZM2.35385 26.8883L5.43086 27.6514V29.2845L3.53742 28.7147L2.35385 28.3584V26.8883ZM2.35385 28.7936L5.43086 29.7679V31.4009L2.35385 30.2638V28.7936Z" fill="#673DE6"/>
<path d="M2.53906 29.8668L3.51498 30.2112L3.51501 29.6153L2.53906 29.291V29.8668Z" fill="#673DE6"/>
<path d="M4.47857 27.8845L4.25 27.8242V28.4345L4.47857 28.4994V27.8845Z" fill="#673DE6"/>
<path d="M2.53906 27.9481L3.51501 28.2255V27.6304L2.53906 27.373V27.9481Z" fill="#673DE6"/>
<path d="M2.53906 24.1103L3.51501 24.2538V23.6586L2.53906 23.5352V24.1103Z" fill="#673DE6"/>
<path d="M2.53906 22.193L3.51501 22.2696V21.6736L2.53906 21.6172V22.193Z" fill="#673DE6"/>
<path d="M2.53906 18.3565L3.51501 18.2991V17.7031L2.53906 17.7806V18.3565Z" fill="#673DE6"/>
<path d="M4.25 30.4704L4.47857 30.5511V29.9353L4.25 29.8594V30.4704Z" fill="#673DE6"/>
<path d="M4.25 18.2542L4.47857 18.2408V17.625L4.25 17.6431V18.2542Z" fill="#673DE6"/>
<path d="M4.47857 10.0357V9.41992L4.25 9.50081V10.1119L4.47857 10.0357Z" fill="#673DE6"/>
<path d="M5 24.4715L5.24028 24.5068V23.8761L5 23.8457V24.4715Z" fill="#673DE6"/>
<path d="M5.24028 13.9887V13.3574L5 13.4094V14.0359L5.24028 13.9887Z" fill="#673DE6"/>
<path d="M5.24028 11.2559L5 11.3244V11.9501L5.24028 11.8865V11.2559Z" fill="#673DE6"/>
<path d="M10.3359 32.6172L10.6684 32.7346V31.9914L10.3359 31.8809V32.6172Z" fill="#673DE6"/>
<path d="M10.875 32.8079L11.2176 32.9288V32.1743L10.875 32.0605V32.8079Z" fill="#673DE6"/>
<path d="M10.875 30.3168L11.2176 30.4142V29.6607L10.875 29.5703V30.3168Z" fill="#673DE6"/>
<path d="M10.6684 7.22852L10.3359 7.34618V8.08264L10.6684 7.97183V7.22852Z" fill="#673DE6"/>
<path d="M11.2176 7.03516L10.875 7.15642V7.90396L11.2176 7.78976V7.03516Z" fill="#673DE6"/>
<path d="M7.42578 31.5905L8.78103 32.0689V31.3645L7.42578 30.9141V31.5905Z" fill="#673DE6"/>
<path d="M7.42578 29.3376L8.78103 29.7229V29.0195L7.42578 28.6621V29.3376Z" fill="#673DE6"/>
<path d="M7.42578 27.0828L8.78103 27.375V26.6707L7.42578 26.4062V27.0828Z" fill="#673DE6"/>
<path d="M8.78103 17.2852L7.42578 17.3929V18.0694L8.78103 17.9897V17.2852Z" fill="#673DE6"/>
<path d="M8.78103 14.9375L7.42578 15.1381V15.8137L8.78103 15.6409V14.9375Z" fill="#673DE6"/>
<path d="M9.8125 32.4327L10.1354 32.5466V31.8143L9.8125 31.707V32.4327Z" fill="#673DE6"/>
<path d="M10.1354 26.936L9.8125 26.873V27.5987L10.1354 27.6683V26.936Z" fill="#673DE6"/>
<path d="M9.8125 19.6207V20.3455L10.1354 20.3487V19.6172L9.8125 19.6207Z" fill="#673DE6"/>
<path d="M10.1354 14.7363L9.8125 14.7841V15.5088L10.1354 15.4676V14.7363Z" fill="#673DE6"/>
<path d="M10.1354 12.2969L9.8125 12.3669V13.0925L10.1354 13.0292V12.2969Z" fill="#673DE6"/>
<path d="M10.3359 30.1632L10.6684 30.2577V29.5154L10.3359 29.4277V30.1632Z" fill="#673DE6"/>
<path d="M10.3359 22.0684V22.8049L10.6684 22.831V22.0876L10.3359 22.0684Z" fill="#673DE6"/>
<path d="M10.3359 19.6149V20.3505L10.6684 20.3537V19.6113L10.3359 19.6149Z" fill="#673DE6"/>
<path d="M10.6684 17.1348L10.3359 17.1612V17.8977L10.6684 17.8781V17.1348Z" fill="#673DE6"/>
<path d="M10.6684 12.1816L10.3359 12.2536V12.99L10.6684 12.9248V12.1816Z" fill="#673DE6"/>
<path d="M11.2176 27.1469L10.875 27.0801V27.8276L11.2176 27.9015V27.1469Z" fill="#673DE6"/>
<path d="M10.875 22.0996V22.8471L11.2176 22.874V22.1194L10.875 22.0996Z" fill="#673DE6"/>
<path d="M10.875 19.6092V20.3558L11.2176 20.3592V19.6055L10.875 19.6092Z" fill="#673DE6"/>
<path d="M11.2176 17.0918L10.875 17.119V17.8665L11.2176 17.8464V17.0918Z" fill="#673DE6"/>
<path d="M11.2176 12.0625L10.875 12.1367V12.8841L11.2176 12.817V12.0625Z" fill="#673DE6"/>
<path d="M9.8125 30.0157L10.1354 30.1075V29.3762L9.8125 29.291V30.0157Z" fill="#673DE6"/>
<path d="M10.1354 17.1758L9.8125 17.2015V17.9272L10.1354 17.9082V17.1758Z" fill="#673DE6"/>
<path d="M6.44141 6.74696V33.2537V33.4278L12.4672 35.9675V4.0332L6.44141 6.57282V6.74696ZM7.16832 7.9562L10.3224 6.79039L11.4883 6.3595V8.31349L7.16834 9.68146L7.16832 7.9562ZM7.16832 12.4287L11.4883 11.4249V13.3788L7.16839 14.1539L7.16832 12.4287ZM7.16832 14.6653L11.4883 13.958V15.9119L7.16838 16.3905L7.16832 14.6653ZM7.16832 16.9011L11.4883 16.4902V18.4441L7.16845 18.6263L7.16832 16.9011ZM7.16832 19.1377L11.4883 19.0233V20.9773L7.16832 20.863V19.1377ZM7.16832 21.3735L11.4883 21.5555V23.5095L7.16832 23.0987V21.3735ZM7.16832 25.8458L11.4883 26.6208V28.5748L8.89648 27.9726L7.16832 27.5711V25.8458ZM7.16832 28.0826L11.4883 29.154V31.1079L7.16832 29.8077V28.0826ZM7.16832 30.3183L11.4883 31.6862V33.6401L7.16832 32.0435V30.3183Z" fill="#673DE6"/>
<path d="M7.42578 22.5749L8.78103 22.6812V21.9768L7.42578 21.8984V22.5749Z" fill="#673DE6"/>
<path d="M7.42578 19.6455V20.3212L8.78103 20.3344V19.6309L7.42578 19.6455Z" fill="#673DE6"/>
<path d="M8.78103 12.5898L7.42578 12.8835V13.5599L8.78103 13.2942V12.5898Z" fill="#673DE6"/>
<path d="M8.78103 7.89648L7.42578 8.37612V9.05265L8.78103 8.60094V7.89648Z" fill="#673DE6"/>
<path d="M10.1354 22.0557L9.81276 22.0371L9.8125 22.7628L10.1354 22.7881V22.0557Z" fill="#673DE6"/>
<path d="M10.1354 7.41797L9.8125 7.53222V8.25794L10.1354 8.15034V7.41797Z" fill="#673DE6"/>
<path d="M10.6684 27.0395L10.3359 26.9746V27.7111L10.6684 27.7828V27.0395Z" fill="#673DE6"/>
<path d="M10.6684 14.6582L10.3359 14.7075V15.4429L10.6684 15.4005V14.6582Z" fill="#673DE6"/>
<path d="M11.2176 14.5781L10.875 14.6288V15.3753L11.2176 15.3317V14.5781Z" fill="#673DE6"/>
<path d="M16.3905 33.8939L16.2063 33.8327L14.3828 33.2266V34.0463L16.3905 34.7549V33.8939Z" fill="#673DE6"/>
<path d="M18.436 34.5733L17.9453 34.4102V35.3033L18.436 35.4765V34.5733Z" fill="#673DE6"/>
<path d="M19.2473 34.8429L18.7383 34.6738V35.5832L19.2473 35.7629V34.8429Z" fill="#673DE6"/>
<path d="M20.0906 28.8764L19.5625 28.7734V29.6999L20.0906 29.8138V28.8764Z" fill="#673DE6"/>
<path d="M18.436 4.48047L17.9453 4.65411V5.5473L18.436 5.38378V4.48047Z" fill="#673DE6"/>
<path d="M19.2473 4.19336L18.7383 4.37347V5.28301L19.2473 5.11339V4.19336Z" fill="#673DE6"/>
<path d="M20.0906 3.89453L19.5625 4.08145V5.00792L20.0906 4.83192V3.89453Z" fill="#673DE6"/>
<path d="M16.3905 5.20312L14.3828 5.91368L15.3093 5.58576L16.3905 5.20312Z" fill="#673DE6"/>
<path d="M18.436 7.49023L17.9453 7.63019V8.52213L18.436 8.39228V7.49023Z" fill="#673DE6"/>
<path d="M19.2473 7.25977L18.7383 7.40497V8.31324L19.2473 8.17852V7.25977Z" fill="#673DE6"/>
<path d="M20.0906 7.01953L19.5625 7.17019V8.09539L20.0906 7.95561V7.01953Z" fill="#673DE6"/>
<path d="M16.3905 8.07422L14.3828 8.64697V9.46568L16.3906 8.93423L16.3905 8.07422Z" fill="#673DE6"/>
<path d="M20.0906 10.1406L19.5625 10.2551V11.1814L20.0906 11.0779V10.1406Z" fill="#673DE6"/>
<path d="M18.436 22.5362L17.9457 22.5078L17.9453 23.401L18.436 23.4395V22.5362Z" fill="#673DE6"/>
<path d="M16.3906 22.4188L14.3828 22.3027V23.1225L16.3906 23.28V22.4188Z" fill="#673DE6"/>
<path d="M16.3905 19.5488L14.3828 19.5705V20.3893L16.3905 20.409V19.5488Z" fill="#673DE6"/>
<path d="M16.3905 13.8105L14.3828 14.1077V14.9264L16.3905 14.6705V13.8105Z" fill="#673DE6"/>
<path d="M16.3906 5.20312L14.3829 5.91368L14.3828 6.73353L16.3906 6.06436V5.20312Z" fill="#673DE6"/>
<path d="M20.0906 19.5098L19.5625 19.5155V20.4408L20.0906 20.446V19.5098Z" fill="#673DE6"/>
<path d="M18.436 19.5273L17.9453 19.5326V20.4247L18.436 20.4295V19.5273Z" fill="#673DE6"/>
<path d="M18.436 13.5098L17.9453 13.5824V14.4743L18.436 14.4118V13.5098Z" fill="#673DE6"/>
<path d="M19.2473 10.3242L18.7383 10.4345V11.3439L19.2473 11.2441V10.3242Z" fill="#673DE6"/>
<path d="M20.0906 25.7543L19.5625 25.6875V26.6128L20.0906 26.6905V25.7543Z" fill="#673DE6"/>
<path d="M20.0906 35.1228L19.5625 34.9473V35.8737L20.0906 36.0601V35.1228Z" fill="#673DE6"/>
<path d="M16.3906 28.1553L14.3828 27.7637V28.5835L16.3906 29.0165V28.1553Z" fill="#673DE6"/>
<path d="M16.3906 25.2871L14.3828 25.0332V25.852L16.3906 26.1473V25.2871Z" fill="#673DE6"/>
<path d="M16.3906 10.9414L14.3829 11.3763L14.3828 12.1961L16.3906 11.8025V10.9414Z" fill="#673DE6"/>
<path d="M18.436 28.5547L17.9453 28.459V29.3522L18.436 29.458V28.5547Z" fill="#673DE6"/>
<path d="M18.436 25.5464L17.9453 25.4844V26.3764L18.436 26.4486V25.5464Z" fill="#673DE6"/>
<path d="M18.436 10.5L17.9453 10.6063V11.4994L18.436 11.4032V10.5Z" fill="#673DE6"/>
<path d="M19.2473 28.7126L18.7383 28.6133V29.5228L19.2473 29.6326V28.7126Z" fill="#673DE6"/>
<path d="M19.2473 25.6483L18.7383 25.584V26.4924L19.2473 26.5672V25.6483Z" fill="#673DE6"/>
<path d="M19.2473 22.5821L18.7387 22.5527L18.7383 23.4622L19.2473 23.5022V22.5821Z" fill="#673DE6"/>
<path d="M19.2473 19.5195L18.7383 19.525V20.4333L19.2473 20.4384V19.5195Z" fill="#673DE6"/>
<path d="M19.2473 13.3887L18.7383 13.464V14.3723L19.2473 14.3074V13.3887Z" fill="#673DE6"/>
<path d="M20.0906 22.6321L19.5628 22.6016L19.5625 23.5281L20.0906 23.5695V22.6321Z" fill="#673DE6"/>
<path d="M20.0906 13.2637L19.5625 13.3419V14.2671L20.0906 14.1998V13.2637Z" fill="#673DE6"/>
<path d="M22.0381 0L12.9492 3.83064V4.0958V35.9042V36.1694L22.0381 40L34.1768 37.836V2.16403L22.0381 0ZM20.5129 36.9742L16.3949 35.4523L14.0081 34.5702V32.4831L20.5129 34.5427V36.9742ZM20.5129 30.6706L14.0081 29.1594V27.0721L20.5129 28.239V30.6706ZM20.5129 27.5194L16.7834 26.9088L14.0081 26.4545V24.3672L20.5129 25.0878V27.5194ZM20.5129 24.367L18.7158 24.1962L14.0081 23.7485V21.6613L20.5129 21.9354V24.367ZM20.5129 21.2158L14.0081 21.0436V18.9564L20.5129 18.7842V21.2158ZM20.5129 14.9121L14.0082 15.6327L14.0081 13.5455L20.5129 12.4806V14.9121ZM20.5129 11.7597L14.0082 12.9267L14.0081 10.8396L20.5129 9.32816V11.7597ZM20.5129 8.60848L14.0082 10.2218V8.13468L15.5367 7.67463L17.0178 7.22888L20.5129 6.17697V8.60848ZM20.5129 5.4561L14.0082 7.5159V5.42862L20.5129 3.02443V5.4561Z" fill="#673DE6"/>
</g>
</svg>
