<svg width="54" height="54" viewBox="0 0 54 54" fill="none" xmlns="http://www.w3.org/2000/svg">
<path d="M15.0622 16.3998C15.4969 15.4696 15.5784 14.4131 15.2916 13.4273C15.0048 12.4415 14.3692 11.5936 13.5034 11.0418C12.6376 10.49 11.6007 10.2719 10.5859 10.4283C9.57122 10.5846 8.64798 11.1046 7.98839 11.8914C7.3288 12.6782 6.97789 13.6781 7.00108 14.7045C7.02427 15.7309 7.41999 16.7139 8.11444 17.4701C8.8089 18.2263 9.75468 18.7041 10.7754 18.8144C11.7962 18.9248 12.8222 18.6601 13.6622 18.0698L19.1322 22.3098C19.4674 21.665 19.8805 21.0638 20.3622 20.5198L15.0622 16.3998ZM11.2422 16.6598C10.8467 16.6598 10.46 16.5425 10.1311 16.3227C9.80218 16.1029 9.54584 15.7906 9.39446 15.4251C9.24308 15.0597 9.20348 14.6575 9.28065 14.2696C9.35782 13.8816 9.5483 13.5252 9.82801 13.2455C10.1077 12.9658 10.4641 12.7754 10.852 12.6982C11.24 12.621 11.6421 12.6606 12.0076 12.812C12.373 12.9634 12.6854 13.2197 12.9052 13.5486C13.1249 13.8775 13.2422 14.2642 13.2422 14.6598C13.2295 15.1862 13.0147 15.6876 12.6424 16.0599C12.27 16.4323 11.7687 16.6471 11.2422 16.6598Z" fill="#673DE6"/>
<path d="M38.3019 14.1083C39.498 14.6247 40.8429 14.6798 42.0772 14.2629C43.3115 13.846 44.3476 12.9867 44.9856 11.8509C45.6236 10.715 45.8183 9.38309 45.5321 8.11214C45.2458 6.8412 44.499 5.72131 43.4357 4.96861C42.3723 4.21592 41.0679 3.88376 39.774 4.03623C38.4802 4.18871 37.2887 4.81502 36.4295 5.79429C35.5703 6.77357 35.1042 8.03639 35.1213 9.33906C35.1384 10.6417 35.6373 11.8919 36.5219 12.8483L32.4219 18.6383C33.048 19.0168 33.6256 19.4701 34.1419 19.9883L38.3019 14.1083ZM40.3819 6.18833C40.9935 6.18635 41.5919 6.36589 42.1013 6.70422C42.6108 7.04255 43.0084 7.52445 43.2438 8.08889C43.4792 8.65334 43.5419 9.27495 43.4238 9.87501C43.3057 10.4751 43.0122 11.0266 42.5804 11.4597C42.1487 11.8929 41.5981 12.1882 40.9984 12.3082C40.3988 12.4282 39.777 12.3676 39.2118 12.1341C38.6465 11.9005 38.1634 11.5044 37.8234 10.9961C37.4834 10.4877 37.3019 9.8899 37.3019 9.27833C37.3019 8.46054 37.6261 7.6761 38.2034 7.0969C38.7807 6.5177 39.5641 6.19098 40.3819 6.18833Z" fill="#673DE6"/>
<path d="M35.6514 41.5473C34.8776 42.4254 34.4536 43.5573 34.4601 44.7277C34.4666 45.8981 34.9032 47.0253 35.6868 47.8947C36.4703 48.7641 37.5462 49.315 38.7096 49.4427C39.873 49.5704 41.0428 49.2659 41.9963 48.5871C42.9498 47.9084 43.6204 46.9028 43.8806 45.7616C44.1408 44.6205 43.9724 43.4236 43.4074 42.3986C42.8425 41.3736 41.9203 40.5921 40.8166 40.2028C39.7128 39.8135 38.5045 39.8436 37.4214 40.2873L33.3014 34.1973C32.7244 34.6406 32.1007 35.0195 31.4414 35.3273L35.6514 41.5473ZM39.2314 42.0973C39.7457 42.0973 40.2484 42.2498 40.6759 42.5355C41.1035 42.8212 41.4367 43.2273 41.6335 43.7024C41.8303 44.1775 41.8818 44.7002 41.7815 45.2046C41.6812 45.7089 41.4335 46.1722 41.0699 46.5358C40.7063 46.8994 40.243 47.1471 39.7387 47.2474C39.2343 47.3477 38.7115 47.2962 38.2365 47.0994C37.7614 46.9026 37.3553 46.5694 37.0696 46.1418C36.7839 45.7143 36.6314 45.2116 36.6314 44.6973C36.6341 44.0086 36.9088 43.3488 37.3959 42.8618C37.8829 42.3747 38.5427 42.1 39.2314 42.0973Z" fill="#673DE6"/>
<path d="M18.3506 38.3483C17.1322 37.6564 15.6999 37.4429 14.3326 37.7493C12.9654 38.0556 11.7611 38.86 10.9544 40.0056C10.1477 41.1512 9.79627 42.5561 9.96863 43.9466C10.141 45.3371 10.8248 46.6137 11.8868 47.5277C12.9488 48.4417 14.313 48.9276 15.7137 48.8909C17.1144 48.8541 18.4512 48.2973 19.4639 47.3289C20.4765 46.3605 21.0924 45.0498 21.1916 43.6522C21.2909 42.2546 20.8663 40.87 20.0006 39.7683L23.2406 35.1783C22.596 34.8483 21.9891 34.4493 21.4306 33.9883L18.3506 38.3483ZM15.6306 46.6683C14.9518 46.6703 14.2877 46.4708 13.7223 46.0951C13.1569 45.7194 12.7158 45.1844 12.4546 44.5578C12.1935 43.9313 12.1241 43.2413 12.2553 42.5753C12.3865 41.9093 12.7124 41.2972 13.1917 40.8165C13.671 40.3358 14.2822 40.0081 14.9478 39.8749C15.6134 39.7418 16.3036 39.8091 16.9309 40.0684C17.5583 40.3277 18.0945 40.7674 18.4719 41.3316C18.8492 41.8959 19.0506 42.5595 19.0506 43.2383C19.0506 44.1462 18.6906 45.0172 18.0495 45.6601C17.4085 46.3031 16.5386 46.6656 15.6306 46.6683Z" fill="#673DE6"/>
<path d="M38.1502 29.617C38.2124 30.642 38.6453 31.6095 39.3683 32.3389C40.0913 33.0682 41.055 33.5095 42.0795 33.5807C43.104 33.6518 44.1194 33.3478 44.9362 32.7254C45.7531 32.1029 46.3156 31.2046 46.5188 30.1979C46.722 29.1912 46.5521 28.145 46.0407 27.2544C45.5293 26.3638 44.7113 25.6898 43.7395 25.3579C42.7676 25.026 41.7082 25.0589 40.7589 25.4507C39.8096 25.8424 39.0352 26.5662 38.5802 27.4869L37.0002 27.1569C36.97 27.8842 36.8559 28.6057 36.6602 29.3069L38.1502 29.617ZM42.3602 27.3069C42.7558 27.3069 43.1425 27.4242 43.4714 27.6439C43.8002 27.8637 44.0566 28.176 44.208 28.5415C44.3593 28.9069 44.399 29.3091 44.3218 29.697C44.2446 30.085 44.0541 30.4414 43.7744 30.7211C43.4947 31.0008 43.1384 31.1913 42.7504 31.2684C42.3624 31.3456 41.9603 31.306 41.5948 31.1546C41.2294 31.0032 40.917 30.7469 40.6973 30.418C40.4775 30.0891 40.3602 29.7024 40.3602 29.3069C40.3602 28.7764 40.5709 28.2677 40.946 27.8926C41.3211 27.5176 41.8298 27.3069 42.3602 27.3069Z" fill="#673DE6"/>
<path d="M34.1425 19.9878C33.6256 19.4731 33.048 19.0231 32.4225 18.6478C30.9437 17.7359 29.2398 17.2545 27.5025 17.2578C26.1474 17.2585 24.8083 17.5508 23.5763 18.1151C22.3443 18.6793 21.2482 19.5022 20.3625 20.5278C19.8808 21.0719 19.4677 21.6731 19.1325 22.3178C18.1191 24.2317 17.7945 26.4358 18.2133 28.5606C18.6321 30.6854 19.7686 32.6016 21.4325 33.9878C21.9941 34.4494 22.6043 34.8485 23.2525 35.1778C24.5169 35.822 25.9113 36.1703 27.3302 36.1963C28.7491 36.2223 30.1553 35.9253 31.4425 35.3278C32.1017 35.0199 32.7254 34.641 33.3025 34.1978C34.385 33.3683 35.2728 32.3117 35.9034 31.1024C36.534 29.8931 36.892 28.5603 36.9525 27.1978C36.9525 27.0578 36.9525 26.9078 36.9525 26.7578C36.9603 25.4988 36.7156 24.2511 36.233 23.0883C35.7503 21.9255 35.0395 20.8712 34.1425 19.9878ZM35.0025 26.7678C35.0043 27.4965 34.8964 28.2213 34.6825 28.9178C34.3494 29.9774 33.7869 30.9505 33.0351 31.768C32.2832 32.5855 31.3605 33.2273 30.3325 33.6478C29.3961 34.0315 28.3906 34.218 27.3789 34.1957C26.3672 34.1733 25.371 33.9425 24.4525 33.5178C23.7873 33.2175 23.1705 32.8198 22.6225 32.3378C21.3992 31.276 20.5564 29.8436 20.2225 28.2586C19.8885 26.6736 20.0816 25.0229 20.7725 23.5578C21.086 22.8983 21.4899 22.2858 21.9725 21.7378C23.1184 20.4523 24.6747 19.604 26.3761 19.3378C28.0775 19.0715 29.8186 19.4038 31.3025 20.2778C31.9307 20.6483 32.5031 21.1062 33.0025 21.6378C34.2888 23.0165 35.0036 24.8322 35.0025 26.7178C35.0025 26.7178 35.0025 26.7478 35.0025 26.7678Z" fill="#673DE6"/>
<path d="M28.5628 23.8884C28.8037 24.0366 29.0073 24.2381 29.1581 24.4773C29.309 24.7166 29.4029 24.9872 29.4328 25.2684C29.6294 25.3637 29.8444 25.4149 30.0628 25.4184C30.361 25.4204 30.6531 25.334 30.9023 25.1701C31.1515 25.0063 31.3466 24.7723 31.463 24.4977C31.5793 24.2232 31.6118 23.9203 31.5563 23.6273C31.5008 23.3343 31.3597 23.0643 31.1509 22.8513C30.9422 22.6384 30.675 22.492 30.3832 22.4307C30.0913 22.3694 29.7879 22.3959 29.511 22.5068C29.2342 22.6177 28.9964 22.8081 28.8277 23.054C28.6589 23.2999 28.5668 23.5902 28.5628 23.8884ZM27.5628 26.9684C27.8623 26.9704 28.1556 26.8833 28.4055 26.7181C28.6553 26.5529 28.8504 26.3172 28.9659 26.0409C29.0815 25.7646 29.1122 25.4601 29.0543 25.1663C28.9963 24.8725 28.8523 24.6025 28.6405 24.3907C28.4287 24.1789 28.1588 24.0349 27.8649 23.977C27.5711 23.919 27.2667 23.9498 26.9903 24.0653C26.714 24.1808 26.4783 24.3759 26.3131 24.6258C26.148 24.8756 26.0608 25.1689 26.0628 25.4684C26.0601 25.6688 26.0976 25.8676 26.173 26.0533C26.2485 26.2389 26.3603 26.4075 26.502 26.5492C26.6437 26.6909 26.8123 26.8027 26.998 26.8782C27.1836 26.9536 27.3825 26.9911 27.5828 26.9884L27.5628 26.9684ZM28.2028 27.0684H26.9428C26.689 27.0658 26.4372 27.1135 26.2019 27.2088C25.9667 27.3041 25.7526 27.4451 25.5722 27.6236C25.3918 27.8022 25.2486 28.0147 25.1509 28.249C25.0531 28.4833 25.0028 28.7346 25.0028 28.9884V30.5784H25.1128C25.956 30.8521 26.8364 30.9938 27.7228 30.9984C28.503 31.035 29.2817 30.8984 30.0028 30.5984L30.1028 30.5484V28.9884C30.1029 28.486 29.9061 28.0037 29.5547 27.6447C29.2032 27.2858 28.7251 27.0789 28.2228 27.0684H28.2028ZM30.6828 25.5184H29.4428C29.428 26.0083 29.2194 26.4722 28.8628 26.8084C29.3347 26.9464 29.7493 27.2332 30.0448 27.6261C30.3404 28.0189 30.501 28.4968 30.5028 28.9884V29.4684C31.192 29.4644 31.8729 29.318 32.5028 29.0384H32.6028V27.4384C32.6029 26.9326 32.4033 26.4473 32.0476 26.0878C31.6918 25.7283 31.2086 25.5237 30.7028 25.5184H30.6828ZM24.9228 25.4184C25.2073 25.4186 25.4855 25.3351 25.7228 25.1784C25.7923 24.7085 26.0437 24.2846 26.4228 23.9984V23.9084C26.4208 23.6122 26.3312 23.3231 26.1652 23.0778C25.9992 22.8324 25.7642 22.6417 25.49 22.5297C25.2157 22.4177 24.9144 22.3895 24.6241 22.4485C24.3338 22.5075 24.0675 22.6511 23.8587 22.8613C23.6499 23.0714 23.508 23.3387 23.451 23.6294C23.3939 23.9201 23.4242 24.2212 23.538 24.4947C23.6518 24.7682 23.8441 25.0019 24.0905 25.1663C24.337 25.3307 24.6266 25.4184 24.9228 25.4184ZM26.2728 26.8084C25.925 26.4711 25.7208 26.0126 25.7028 25.5284H24.3028C23.7936 25.5284 23.3052 25.7307 22.9452 26.0908C22.5851 26.4508 22.3828 26.9392 22.3828 27.4484V28.9884H22.4828C23.1875 29.21 23.9159 29.3477 24.6528 29.3984V28.9884C24.6546 28.4968 24.8153 28.0189 25.1108 27.6261C25.4064 27.2332 25.821 26.9464 26.2928 26.8084H26.2728Z" fill="#673DE6"/>
</svg>
