<svg width="40" height="40" viewBox="0 0 40 40" fill="none" xmlns="http://www.w3.org/2000/svg">
<path d="M35.9326 24.2422C38.0826 23.5322 39.2426 21.2222 38.5326 19.0822C38.1226 17.8522 37.1626 16.8922 35.9326 16.4822C35.4526 16.3322 35.0826 15.9522 34.9426 15.4722C34.7726 14.9522 34.8526 14.3822 35.1726 13.9422C36.2726 12.4922 36.2726 10.4922 35.1726 9.04222C34.1726 7.64222 32.3526 7.10222 30.7426 7.72222C30.3026 7.88222 29.8226 7.81222 29.4426 7.54222C29.0126 7.22222 28.7626 6.70222 28.7826 6.16222C28.8626 4.36222 27.7226 2.73222 26.0026 2.19222C24.3426 1.64222 22.5126 2.30222 21.5926 3.79222C21.1426 4.47222 20.2326 4.65222 19.5526 4.20222C19.3926 4.09222 19.2526 3.95222 19.1426 3.79222C18.2226 2.31222 16.4026 1.65222 14.7426 2.19222C13.0326 2.74222 11.9026 4.37222 11.9826 6.16222C12.0026 6.70222 11.7526 7.22222 11.3226 7.54222C10.9426 7.81222 10.4526 7.88222 10.0226 7.72222C8.41256 7.10222 6.59256 7.64222 5.58256 9.04222C4.49256 10.4922 4.49256 12.4922 5.58256 13.9422C5.89256 14.3822 5.97256 14.9522 5.79256 15.4722C5.65256 15.9422 5.27256 16.3122 4.80256 16.4622C2.66256 17.1722 1.49256 19.4822 2.21256 21.6322C2.61256 22.8522 3.57256 23.8122 4.80256 24.2222C5.29256 24.3722 5.66256 24.7722 5.79256 25.2622C5.96256 25.7822 5.88256 26.3522 5.56256 26.7922C4.46256 28.2422 4.46256 30.2422 5.56256 31.6922C6.56256 33.0822 8.39256 33.6322 9.99256 33.0122C10.4326 32.8522 10.9226 32.9222 11.2926 33.1922C11.7226 33.5122 11.9726 34.0222 11.9526 34.5622C11.8726 36.3622 13.0126 37.9922 14.7326 38.5422C15.1326 38.6622 15.5426 38.7322 15.9626 38.7222C17.2526 38.7122 18.4626 38.0422 19.1426 36.9422C19.5926 36.2622 20.5026 36.0822 21.1826 36.5222C21.3426 36.6322 21.4826 36.7722 21.5926 36.9422C22.5126 38.4222 24.3326 39.0822 25.9926 38.5422C27.7126 37.9922 28.8526 36.3622 28.7726 34.5622C28.7526 34.0222 29.0026 33.5122 29.4326 33.1922C29.8026 32.9222 30.2926 32.8522 30.7326 33.0122C32.3326 33.6322 34.1626 33.0822 35.1626 31.6922C36.2626 30.2422 36.2626 28.2422 35.1626 26.7922C34.8526 26.3422 34.7626 25.7822 34.9426 25.2622C35.0826 24.7822 35.4526 24.3922 35.9326 24.2422ZM32.6126 24.4822C32.2026 25.7522 32.4226 27.1422 33.2126 28.2222C33.6626 28.8122 33.6626 29.6322 33.2126 30.2222C32.8526 30.7322 32.1826 30.9422 31.5826 30.7222C30.3926 30.2722 29.0526 30.4522 28.0126 31.2022C26.9126 31.9922 26.2826 33.2822 26.3226 34.6422C26.3726 35.3422 25.9426 35.9922 25.2726 36.2022C24.6526 36.4022 23.9826 36.1522 23.6526 35.5922C22.4926 33.7922 20.1026 33.2722 18.3026 34.4222C17.8326 34.7222 17.4326 35.1222 17.1326 35.5922C16.8026 36.1522 16.1326 36.4022 15.5226 36.1922C14.8426 35.9822 14.4026 35.3322 14.4526 34.6222C14.4926 33.2722 13.8626 31.9822 12.7626 31.1822C12.1126 30.7122 11.3226 30.4622 10.5226 30.4622C10.0626 30.4622 9.61256 30.5522 9.18256 30.7122C8.59256 30.9222 7.92256 30.7222 7.56256 30.2022C7.11256 29.6122 7.11256 28.8022 7.56256 28.2122C8.33256 27.1322 8.54256 25.7422 8.12256 24.4822C7.73256 23.2422 6.76256 22.2822 5.52256 21.8922C4.68256 21.5922 4.24256 20.6522 4.55256 19.8122C4.71256 19.3522 5.07256 19.0022 5.52256 18.8322C6.76256 18.4522 7.73256 17.4922 8.12256 16.2522C8.54256 14.9822 8.31256 13.5822 7.52256 12.5022C7.11256 11.9222 7.11256 11.1522 7.53256 10.5722C7.90256 10.0622 8.57256 9.85222 9.16256 10.0722C10.3626 10.5122 11.7026 10.3322 12.7426 9.59222C13.8426 8.80222 14.4726 7.51222 14.4326 6.15222C14.3426 5.43222 14.7726 4.75222 15.4726 4.52222C16.0826 4.32222 16.7626 4.58222 17.0826 5.14222C18.2426 6.93222 20.6326 7.46222 22.4326 6.30222C22.9026 6.00222 23.3026 5.60222 23.6026 5.14222C23.9326 4.55222 24.6326 4.29222 25.2726 4.52222C25.9426 4.73222 26.3926 5.38222 26.3326 6.09222C26.2926 7.45222 26.9226 8.74222 28.0226 9.53222C29.0626 10.2722 30.4026 10.4522 31.6026 10.0122C32.2026 9.82222 32.8526 10.0522 33.2026 10.5722C33.6526 11.1622 33.6526 11.9822 33.2026 12.5722C32.4326 13.6322 32.2126 15.0022 32.6126 16.2522C33.0026 17.4922 33.9726 18.4522 35.2126 18.8322C36.0626 19.1422 36.4926 20.0722 36.1826 20.9222C36.0226 21.3722 35.6626 21.7322 35.2126 21.8922C33.9726 22.2822 33.0026 23.2422 32.6126 24.4822ZM20.3726 8.12222C13.6026 8.12222 8.12256 13.6022 8.12256 20.3622C8.12256 27.1222 13.6026 32.6022 20.3726 32.6022C27.1326 32.6022 32.6126 27.1222 32.6126 20.3622C32.6126 13.6022 27.1326 8.12222 20.3726 8.12222ZM20.3726 30.1622C14.9526 30.1622 10.5726 25.7722 10.5726 20.3622C10.5726 14.9522 14.9526 10.5722 20.3726 10.5722C25.7826 10.5722 30.1626 14.9522 30.1626 20.3622C30.1626 25.7722 25.7826 30.1622 20.3726 30.1622Z" fill="#2F1C6A"/>
<path d="M18.8236 22.4727L25.6236 15.6627H25.5836C26.0636 15.1827 26.8436 15.1827 27.3236 15.6627C27.8036 16.1427 27.8036 16.9227 27.3236 17.4027L19.6636 25.0627C19.4236 25.2927 19.1136 25.4227 18.7936 25.4227C18.4636 25.4227 18.1536 25.2927 17.9236 25.0627L13.4136 20.5227C12.9336 20.0427 12.9436 19.2727 13.4236 18.7927C13.9036 18.3127 14.6736 18.3227 15.1536 18.8027L18.8236 22.4727Z" fill="#673DE6"/>
</svg>
