<svg width="40" height="41" viewBox="0 0 40 41" fill="none" xmlns="http://www.w3.org/2000/svg">
<path d="M25.1412 8.14286C25.1412 5.30657 22.8346 3 19.9983 3C17.162 3 14.8555 5.30657 14.8555 8.14286C14.8555 10.9791 17.162 13.2857 19.9983 13.2857C22.8346 13.2857 25.1412 10.9791 25.1412 8.14286ZM19.9983 10.7143C18.5802 10.7143 17.4269 9.561 17.4269 8.14286C17.4269 6.72471 18.5802 5.57143 19.9983 5.57143C21.4165 5.57143 22.5698 6.72471 22.5698 8.14286C22.5698 9.561 21.4165 10.7143 19.9983 10.7143Z" fill="white"/>
<path d="M37.1921 36.5201L31.1659 34.1094L28.6999 30.0003H32.8579C35.6942 30.0003 38.0008 27.6937 38.0008 24.8574C38.0008 24.1477 37.4261 23.5717 36.7151 23.5717H35.4294V10.6606C35.4294 8.56357 33.7232 6.85742 31.6262 6.85742H27.7151C27.0041 6.85742 26.4294 7.43342 26.4294 8.14314C26.4294 8.85285 27.0041 9.42885 27.7151 9.42885H31.6262C32.3051 9.42885 32.8579 9.98171 32.8579 10.6606V23.5717H27.7151V17.0891C27.7151 14.9921 26.0051 13.286 23.9016 13.286H20.0008H16.0999C13.9965 13.286 12.2865 14.9921 12.2865 17.0891V23.5717H7.14368V10.6606C7.14368 9.98171 7.69654 9.42885 8.42939 9.42885H12.2865C12.9975 9.42885 13.5722 8.85285 13.5722 8.14314C13.5722 7.43342 12.9975 6.85742 12.2865 6.85742H8.37539C6.27839 6.85742 4.57225 8.56357 4.57225 10.6606V23.5717H3.28653C2.57553 23.5717 2.00082 24.1477 2.00082 24.8574C2.00082 27.6937 4.30739 30.0003 7.14368 30.0003H11.3016L8.83568 34.1107L2.80953 36.5214C2.14996 36.7863 1.82854 37.5333 2.09211 38.1929C2.29396 38.6943 2.77739 39.0003 3.28653 39.0003C3.44596 39.0003 3.60796 38.9707 3.76353 38.9077L10.1921 36.3363C10.4531 36.2309 10.6729 36.0444 10.8169 35.804L14.2999 30.0003H15.8608L14.9595 34.5093L12.6632 36.8056C12.1605 37.3083 12.1605 38.1209 12.6632 38.6236C12.9139 38.8743 13.2431 39.0003 13.5722 39.0003C13.9014 39.0003 14.2305 38.8743 14.4812 38.6236L17.0526 36.0521C17.2326 35.8721 17.3535 35.6446 17.4036 35.3951L18.4836 30.0003H21.5192L22.5979 35.3951C22.6481 35.6433 22.7702 35.8721 22.9489 36.0521L25.5204 38.6236C25.7711 38.8743 26.1002 39.0003 26.4294 39.0003C26.7585 39.0003 27.0876 38.8743 27.3384 38.6236C27.8411 38.1209 27.8411 37.3083 27.3384 36.8056L25.0421 34.5093L24.1408 30.0003H25.7016L29.1846 35.8053C29.3286 36.0457 29.5485 36.2334 29.8095 36.3376L36.2381 38.909C36.3936 38.9707 36.5556 39.0003 36.7151 39.0003C37.2242 39.0003 37.7077 38.6943 37.9095 38.1916C38.1731 37.532 37.8516 36.785 37.1921 36.5201ZM14.8579 17.0891C14.8579 16.4103 15.4159 15.8574 16.0999 15.8574H23.9016C24.5856 15.8574 25.1436 16.4103 25.1436 17.0891V23.5717H14.8579V17.0891ZM4.91811 26.1431H35.0848C34.6399 26.9107 33.8094 27.4289 32.8592 27.4289H7.14368C6.19354 27.4289 5.36168 26.9107 4.91811 26.1431Z" fill="white"/>
</svg>
