<svg width="50" height="50" viewBox="0 0 50 50" fill="none" xmlns="http://www.w3.org/2000/svg">
<g clip-path="url(#clip0_1619_7375)">
<mask id="mask0_1619_7375" style="mask-type:luminance" maskUnits="userSpaceOnUse" x="0" y="0" width="50" height="50">
<path d="M50 0H0V50H50V0Z" fill="white"/>
</mask>
<g mask="url(#mask0_1619_7375)">
<path fill-rule="evenodd" clip-rule="evenodd" d="M6.36909 37.5451H2.5065C2.02407 37.5451 1.5614 37.367 1.22027 37.05C0.879144 36.7331 0.6875 36.3032 0.6875 35.8549V19.6256C0.6875 19.1773 0.879144 18.7475 1.22027 18.4305C1.5614 18.1135 2.02407 17.9355 2.5065 17.9355H33.7515C34.2339 17.9355 34.6966 18.1135 35.0377 18.4305C35.3789 18.7475 35.5705 19.1773 35.5705 19.6256V35.8567C35.5705 36.3049 35.3789 36.7348 35.0377 37.0518C34.6966 37.3687 34.2339 37.5468 33.7515 37.5468H14.368C11.7286 43.5061 3.12087 44.0615 3.12087 44.0615C5.51156 41.9376 6.2373 39.4706 6.36909 37.5451Z" fill="#F9F9F8"/>
<path fill-rule="evenodd" clip-rule="evenodd" d="M33.7664 17.3033C34.804 17.3119 35.7989 17.9724 36.1256 18.908C36.2045 19.1339 36.2453 19.371 36.2472 19.609C36.2657 25.0243 36.2472 30.4395 36.2472 35.8556C36.2434 36.2295 36.1441 36.5972 35.9576 36.9285C35.7711 37.2598 35.5027 37.5452 35.1743 37.7613C34.756 38.0297 34.26 38.174 33.7516 38.1752H14.809L14.7839 38.2244C13.9394 39.8774 12.525 41.2821 10.8415 42.297C8.70325 43.587 6.18078 44.3407 3.70193 44.6373C3.52653 44.658 3.35205 44.677 3.17665 44.689C3.17665 44.689 3.09034 44.6942 3.03094 44.6865C2.57898 44.6313 2.27643 44.088 2.56042 43.7034C2.65786 43.5724 2.79707 43.4749 2.91865 43.3585C4.38575 41.9518 5.33069 40.1463 5.61559 38.2054L5.62023 38.1752H2.50473C1.47737 38.1718 0.494553 37.5345 0.150243 36.6231C0.0588338 36.3808 0.0108647 36.1262 0.00824944 35.8694C-0.0103118 30.4542 0.00824944 25.0381 0.00824944 19.6228C0.0119617 18.67 0.697798 17.7542 1.67876 17.4343C1.93862 17.3498 2.21332 17.3058 2.48988 17.3033C12.9157 17.2765 23.3415 17.2765 33.7664 17.3033ZM2.50659 18.5648C1.91727 18.5657 1.37157 19.0348 1.36507 19.6168C1.34744 25.0321 1.34744 30.4473 1.36507 35.8617C1.37157 36.4118 1.88479 36.912 2.50659 36.9137H6.36825C6.48982 36.9258 6.52416 36.9197 6.63738 36.9654C6.84898 37.0499 7.00861 37.2414 7.04016 37.4569C7.06151 37.5949 7.03552 37.7346 7.0216 37.8743C6.83785 39.78 6.10653 41.6287 4.88242 43.1602L4.87407 43.1705C6.43507 42.8601 7.94873 42.3841 9.37795 41.6443C11.2016 40.7018 12.8025 39.2902 13.6582 37.4811C13.686 37.4224 13.7138 37.3629 13.7389 37.3034L13.802 37.1948C13.855 37.1283 13.9181 37.0693 13.9895 37.0198C14.1041 36.9561 14.2338 36.9196 14.3672 36.9137C20.8302 36.9137 27.2942 36.9309 33.7581 36.9137C34.3474 36.9085 34.8848 36.4368 34.8903 35.8617C34.9089 30.4464 34.9089 25.0312 34.8903 19.6168C34.884 19.3909 34.8021 19.1724 34.6561 18.9916C34.5101 18.8108 34.3072 18.6767 34.0755 18.6079C33.9697 18.5791 33.86 18.5646 33.7497 18.5648H2.50659Z" fill="#F9F9F8"/>
<path fill-rule="evenodd" clip-rule="evenodd" d="M8.96431 26.1552C9.19317 26.1482 9.4212 26.1841 9.63484 26.2607C9.84848 26.3373 10.0434 26.453 10.2079 26.601C10.3724 26.749 10.5032 26.9262 10.5925 27.1221C10.6818 27.318 10.7278 27.5286 10.7278 27.7414C10.7277 27.9542 10.6816 28.1647 10.5922 28.3606C10.5027 28.5565 10.3718 28.7336 10.2072 28.8815C10.0426 29.0294 9.84766 29.1451 9.63397 29.2215C9.42029 29.298 9.19224 29.3338 8.96338 29.3267C8.52048 29.313 8.10065 29.1399 7.79259 28.8439C7.48453 28.5479 7.31238 28.1523 7.3125 27.7405C7.31262 27.3288 7.48501 26.9332 7.79324 26.6374C8.10147 26.3416 8.5214 26.1686 8.96431 26.1552Z" fill="white"/>
<path fill-rule="evenodd" clip-rule="evenodd" d="M8.98213 25.5234C9.41977 25.5316 9.84699 25.649 10.219 25.8634C10.5909 26.0778 10.894 26.3812 11.0963 26.7419C11.4239 27.3455 11.4322 28.0905 11.1157 28.6993C10.6675 29.5633 9.57609 30.1049 8.51625 29.9151C8.06092 29.8271 7.64213 29.6201 7.30919 29.3184C6.97624 29.0167 6.743 28.6328 6.63692 28.2121C6.40862 27.2394 6.96267 26.1486 7.9854 25.7201C8.29883 25.5894 8.63862 25.5224 8.98213 25.5234ZM8.95986 26.7841C8.73031 26.7904 8.50919 26.866 8.32988 26.9993C8.15057 27.1326 8.02282 27.3164 7.96591 27.5231C7.81463 28.1285 8.42437 28.8123 9.16774 28.6752C9.58073 28.5993 9.92504 28.263 9.98444 27.8732C10.0643 27.3438 9.59094 26.7893 8.97285 26.7841H8.95986Z" fill="#F9F9F8"/>
<path fill-rule="evenodd" clip-rule="evenodd" d="M18.127 26.1543C18.5676 26.1709 18.9842 26.3451 19.2896 26.6406C19.5951 26.9361 19.7657 27.3299 19.7657 27.7397C19.7657 28.1494 19.5951 28.5432 19.2896 28.8387C18.9842 29.1342 18.5676 29.3085 18.127 29.325C17.6864 29.3085 17.2697 29.1342 16.9643 28.8387C16.6589 28.5432 16.4883 28.1494 16.4883 27.7397C16.4883 27.3299 16.6589 26.9361 16.9643 26.6406C17.2697 26.3451 17.6864 26.1709 18.127 26.1543Z" fill="white"/>
<path fill-rule="evenodd" clip-rule="evenodd" d="M18.143 25.5235C18.5807 25.5315 19.0081 25.6489 19.3802 25.8633C19.7524 26.0777 20.0556 26.3811 20.258 26.7419C20.5856 27.3455 20.5921 28.0905 20.2766 28.6993C19.8283 29.5633 18.7369 30.1049 17.6771 29.9152C17.2192 29.8267 16.7982 29.6179 16.4644 29.3135C16.1306 29.0091 15.8979 28.622 15.794 28.1983C15.5732 27.2265 16.1309 26.146 17.1462 25.7192C17.4597 25.5889 17.7995 25.5221 18.143 25.5235ZM18.1207 26.7841C17.6632 26.7885 17.2298 27.1058 17.1267 27.5231C16.9755 28.1285 17.5852 28.8123 18.3286 28.6752C18.7416 28.5993 19.0868 28.263 19.1453 27.8732C19.2251 27.3438 18.7518 26.7893 18.1337 26.7841H18.1207Z" fill="#F9F9F8"/>
<path fill-rule="evenodd" clip-rule="evenodd" d="M27.2895 26.1551C27.5183 26.1482 27.7463 26.1841 27.96 26.2608C28.1736 26.3374 28.3684 26.4532 28.5329 26.6012C28.6974 26.7492 28.8281 26.9265 28.9174 27.1224C29.0066 27.3184 29.0526 27.529 29.0524 27.7417C29.0523 27.9545 29.0061 28.1651 28.9167 28.3609C28.8272 28.5567 28.6962 28.7339 28.5316 28.8817C28.3669 29.0296 28.1719 29.1452 27.9582 29.2216C27.7445 29.298 27.5165 29.3337 27.2876 29.3266C26.8447 29.3129 26.4249 29.1398 26.1168 28.8438C25.8088 28.5478 25.6366 28.1522 25.6367 27.7404C25.6368 27.3287 25.8092 26.9331 26.1175 26.6373C26.4257 26.3414 26.8465 26.1685 27.2895 26.1551Z" fill="white"/>
<path fill-rule="evenodd" clip-rule="evenodd" d="M27.3073 25.5238C27.9435 25.5308 28.5511 25.7706 28.9982 26.1913C29.5439 26.7112 29.7871 27.489 29.6256 28.1987C29.4029 29.1791 28.3987 29.9552 27.2915 29.9552C26.7235 29.9533 26.1746 29.7648 25.7417 29.4232C25.4498 29.1866 25.2231 28.8887 25.0804 28.5542C24.9377 28.2197 24.8831 27.8583 24.9213 27.5002C24.9701 27.118 25.1235 26.7537 25.3666 26.442C25.6098 26.1303 25.9348 25.8816 26.3106 25.7196C26.6241 25.5892 26.9639 25.5225 27.3073 25.5238ZM27.285 26.7845C26.7894 26.7888 26.3282 27.1665 26.2716 27.6296C26.201 28.197 26.7662 28.7764 27.4428 28.6842C27.8753 28.6255 28.2446 28.2823 28.3087 27.8796C28.3922 27.3528 27.931 26.7975 27.3119 26.7845H27.285ZM47.3571 5.73748C48.4532 5.7461 49.487 6.42732 49.848 7.39741C49.9418 7.65006 49.99 7.91738 49.9928 8.18641C50.0114 13.5154 49.9928 18.8445 49.9928 24.1735C49.9884 24.5711 49.8826 24.9621 49.684 25.3144C49.4854 25.6666 49.1997 25.9701 48.8504 26.1999C48.4062 26.4842 47.8798 26.6369 47.3404 26.6379H44.3966C44.7372 28.6704 45.6448 30.7011 47.3348 32.0109L47.4332 32.1049C47.5 32.2015 47.526 32.2239 47.5576 32.3377C47.5942 32.4869 47.5731 32.6433 47.4981 32.7795C47.4231 32.9157 47.299 33.023 47.1474 33.0828C47.0193 33.1293 46.9896 33.1311 46.8309 33.1233C45.5409 33.056 44.2657 32.7956 43.0351 32.4343C41.0621 31.8566 39.206 30.9512 37.6737 29.6422L37.58 29.543C37.5568 29.5051 37.529 29.4689 37.5104 29.4283C37.4484 29.2848 37.4434 29.1255 37.4963 28.9789C37.5491 28.8323 37.6565 28.7079 37.799 28.6281C37.9032 28.5748 38.0203 28.5475 38.1392 28.5487C38.2581 28.5499 38.3746 28.5796 38.4774 28.635C38.5517 28.6755 38.6129 28.7316 38.6733 28.7825C40.3577 30.1915 42.5182 31.09 44.74 31.5582C44.856 31.5824 44.972 31.6048 45.088 31.6272L45.1019 31.6298C43.9112 30.1294 43.2207 28.2582 42.9924 26.4017C42.9781 26.2875 42.9666 26.1731 42.9581 26.0585V26.0421L42.9637 25.9145C42.9934 25.8049 42.9924 25.773 43.0583 25.6756C43.1071 25.6028 43.1712 25.5399 43.2468 25.4907C43.3224 25.4415 43.4079 25.407 43.4982 25.3893C43.5428 25.3807 43.5892 25.3807 43.6356 25.3772C44.8727 25.3772 46.1107 25.3807 47.3478 25.3772C48.017 25.3712 48.6286 24.834 48.6351 24.1812C48.6536 18.8522 48.6536 13.5232 48.6351 8.19418C48.6295 7.57591 48.0597 7.0042 47.3478 6.99816C37.0312 6.96812 26.7146 6.96812 16.398 6.99816C15.7437 7.0042 15.1386 7.51468 15.1117 8.15537V15.397C15.1061 15.4401 15.1061 15.4849 15.0959 15.5281C15.0569 15.6783 14.9616 15.8107 14.8271 15.9015C14.6926 15.9924 14.5276 16.0358 14.3618 16.0239C14.2199 16.0081 14.0867 15.952 13.9804 15.8632C13.8741 15.7745 13.7999 15.6574 13.7678 15.5281C13.7585 15.4849 13.7585 15.4401 13.7539 15.397V8.20107C13.7583 7.79588 13.8681 7.39769 14.074 7.04048C14.2799 6.68326 14.5757 6.37763 14.9363 6.14966C15.3677 5.88479 15.8725 5.74163 16.3896 5.73748C26.7124 5.7073 37.0343 5.7073 47.3571 5.73748Z" fill="#F9F9F8"/>
</g>
</g>
<defs>
<clipPath id="clip0_1619_7375">
<rect width="50" height="50" fill="white"/>
</clipPath>
</defs>
</svg>
