<svg width="68" height="68" viewBox="0 0 68 68" fill="none" xmlns="http://www.w3.org/2000/svg">
<mask id="mask0_1619_7126" style="mask-type:luminance" maskUnits="userSpaceOnUse" x="0" y="1" width="68" height="67">
<path d="M67.5 1H0.5V68H67.5V1Z" fill="white"/>
</mask>
<g mask="url(#mask0_1619_7126)">
<path d="M32.4122 1.45442C33.2361 0.848526 34.3579 0.848526 35.1818 1.45442L43.4322 7.52261C49.6198 12.0737 53.2738 19.2969 53.2738 26.9781V54.7559C53.2738 56.0465 52.2272 57.0931 50.9366 57.0931H16.6575C15.3667 57.0931 14.3203 56.0465 14.3203 54.7559V26.9781C14.3203 19.2969 17.9741 12.0737 24.1618 7.52261L32.4122 1.45442ZM33.7971 6.23853L26.9314 11.2882C21.9413 14.9584 18.9947 20.7836 18.9947 26.9781V52.4187H48.5994V26.9781C48.5994 20.7836 45.6525 14.9584 40.6624 11.2882L33.7971 6.23853Z" fill="#FC5185"/>
<path d="M17.5492 21.4338C18.4225 21.7956 18.9921 22.6478 18.9921 23.5932V40.7327C18.9921 41.618 18.4918 42.4274 17.7 42.8231L8.3512 47.4975C7.62668 47.8599 6.76625 47.8209 6.07722 47.3952C5.38817 46.9693 4.96875 46.2171 4.96875 45.4071V32.9419C4.96875 32.3222 5.21499 31.7275 5.65331 31.2895L15.0021 21.9405C15.6705 21.272 16.6758 21.0721 17.5492 21.4338ZM9.64316 33.9103V41.6256L14.3176 39.2882V29.2357L9.64316 33.9103Z" fill="#FC5185"/>
<path d="M50.0404 21.4338C50.9137 21.0721 51.9189 21.272 52.5873 21.9405L61.9363 31.2895C62.3747 31.7275 62.6208 32.3222 62.6208 32.9419V45.4071C62.6208 46.2171 62.2014 46.9693 61.5124 47.3952C60.8234 47.8209 59.9629 47.8599 59.2384 47.4975L49.8897 42.8231C49.0978 42.4274 48.5977 41.618 48.5977 40.7327V23.5932C48.5977 22.6478 49.167 21.7956 50.0404 21.4338ZM53.2721 29.2357V39.2882L57.9464 41.6256V33.9103L53.2721 29.2357Z" fill="#FC5185"/>
<path d="M24.4465 55.5352C25.7374 55.5352 26.7837 56.5815 26.7837 57.8724V62.5467C26.7837 63.8376 25.7374 64.8839 24.4465 64.8839C23.1557 64.8839 22.1094 63.8376 22.1094 62.5467V57.8724C22.1094 56.5815 23.1557 55.5352 24.4465 55.5352Z" fill="#FC5185"/>
<path d="M33.7942 55.5352C35.0848 55.5352 36.1313 56.5815 36.1313 57.8724V65.6631C36.1313 66.9538 35.0848 68.0003 33.7942 68.0003C32.5033 68.0003 31.457 66.9538 31.457 65.6631V57.8724C31.457 56.5815 32.5033 55.5352 33.7942 55.5352Z" fill="#FC5185"/>
<path d="M43.1458 55.5352C44.4365 55.5352 45.483 56.5815 45.483 57.8724V62.5467C45.483 63.8376 44.4365 64.8839 43.1458 64.8839C41.8549 64.8839 40.8086 63.8376 40.8086 62.5467V57.8724C40.8086 56.5815 41.8549 55.5352 43.1458 55.5352Z" fill="#FC5185"/>
</g>
</svg>
