<svg width="40" height="40" viewBox="0 0 40 40" fill="none" xmlns="http://www.w3.org/2000/svg">
<g clip-path="url(#clip0_1619_6484)">
<mask id="mask0_1619_6484" style="mask-type:luminance" maskUnits="userSpaceOnUse" x="0" y="0" width="40" height="40">
<path d="M40 0H0V40H40V0Z" fill="white"/>
</mask>
<g mask="url(#mask0_1619_6484)">
<path d="M26.8522 13.6977H13.8344C14.3768 10.3447 15.2397 7.63262 16.4231 5.5616C17.6066 3.49059 18.9133 2.45508 20.3433 2.45508C21.7733 2.45508 23.08 3.49059 24.2634 5.5616C25.4469 7.63262 26.3098 10.3447 26.8522 13.6977ZM13.4646 25.5321C13.3166 23.9542 13.2427 22.3763 13.2427 20.7984C13.2427 19.2204 13.3166 17.6425 13.4646 16.0646H27.222C27.3699 17.6425 27.4439 19.2204 27.4439 20.7984C27.4439 22.3763 27.3699 23.9542 27.222 25.5321H13.4646ZM37.2812 13.6977H29.293C28.5534 9.16123 27.3206 5.66022 25.5948 3.19473C28.2082 3.98369 30.5258 5.31505 32.5475 7.18883C34.6185 9.0133 36.1964 11.1829 37.2812 13.6977ZM15.0918 3.19473C13.3166 5.66022 12.0839 9.16123 11.3935 13.6977H3.40533C4.49015 11.1829 6.04341 9.0133 8.06512 7.18883C10.1361 5.31505 12.4784 3.98369 15.0918 3.19473ZM38.0209 16.0646C38.4647 17.6425 38.6866 19.2204 38.6866 20.7984C38.6866 22.3763 38.4647 23.9542 38.0209 25.5321H29.5889C29.7368 23.9049 29.8108 22.327 29.8108 20.7984C29.8108 19.2697 29.7368 17.6918 29.5889 16.0646H38.0209ZM10.8758 20.7984C10.8758 22.2776 10.9497 23.8556 11.0977 25.5321H2.66568C2.22189 23.9049 2 22.327 2 20.7984C2 19.2697 2.22189 17.6918 2.66568 16.0646H11.0977C10.9497 17.6918 10.8758 19.2697 10.8758 20.7984ZM13.8344 27.899H26.8522C26.3098 31.252 25.4469 33.9641 24.2634 36.0351C23.08 38.1061 21.7733 39.1416 20.3433 39.1416C18.9133 39.1416 17.6066 38.1061 16.4231 36.0351C15.2397 33.9641 14.3768 31.252 13.8344 27.899ZM25.5948 38.402C27.3699 35.9365 28.6027 32.4355 29.293 27.899H37.2812C36.1964 30.4138 34.6185 32.6081 32.5475 34.4818C30.5258 36.3063 28.2082 37.613 25.5948 38.402ZM3.40533 27.899H11.3935C12.1332 32.4355 13.3659 35.9365 15.0918 38.402C12.4784 37.613 10.1361 36.3063 8.06512 34.4818C6.04341 32.6081 4.49015 30.4138 3.40533 27.899Z" fill="#673DE6"/>
</g>
</g>
<defs>
<clipPath id="clip0_1619_6484">
<rect width="40" height="40" fill="white"/>
</clipPath>
</defs>
</svg>
