<svg width="40" height="40" viewBox="0 0 40 40" fill="none" xmlns="http://www.w3.org/2000/svg">
<g clip-path="url(#clip0_1619_6503)">
<mask id="mask0_1619_6503" style="mask-type:luminance" maskUnits="userSpaceOnUse" x="0" y="0" width="40" height="40">
<path d="M40 0H0V40H40V0Z" fill="white"/>
</mask>
<g mask="url(#mask0_1619_6503)">
<path d="M19.7295 25.2786C17.3296 25.3653 14.9435 24.871 12.7656 23.8359V27.0596C12.7656 27.3 13.227 27.8254 14.5066 28.2974C16.1928 28.855 17.9577 29.1229 19.7295 29.09C21.5013 29.122 23.266 28.8542 24.9524 28.2974C26.2233 27.8254 26.6934 27.3 26.6934 27.0596V23.8537C24.5137 24.8817 22.128 25.3698 19.7295 25.2786ZM21.0787 27.87H18.3802C18.25 27.9113 18.112 27.9208 17.9775 27.8977C17.843 27.8745 17.7157 27.8193 17.6058 27.7365C17.496 27.6538 17.4067 27.5458 17.3452 27.4212C17.2836 27.2967 17.2516 27.1591 17.2516 27.0195C17.2516 26.88 17.2836 26.7424 17.3452 26.6178C17.4067 26.4933 17.496 26.3853 17.6058 26.3025C17.7157 26.2197 17.843 26.1645 17.9775 26.1414C18.112 26.1182 18.25 26.1277 18.3802 26.1691H21.0787C21.2561 26.2254 21.4113 26.3384 21.5214 26.4914C21.6316 26.6444 21.691 26.8295 21.691 27.0195C21.691 27.2096 21.6316 27.3946 21.5214 27.5476C21.4113 27.7006 21.2561 27.8136 21.0787 27.87Z" fill="#673DE6"/>
<path d="M19.7295 36.215C17.3306 36.2998 14.9457 35.8089 12.7656 34.7812V37.9871C12.7656 38.2276 13.227 38.753 14.5066 39.2249C16.1928 39.7826 17.9577 40.0505 19.7295 40.0176C20.8972 40.0177 22.0625 39.9103 23.2114 39.6969C25.8229 39.1893 26.6934 38.3077 26.6934 37.9871V34.7812C24.513 35.8079 22.1283 36.2988 19.7295 36.215ZM21.0787 39.0379H18.3802C18.25 39.0793 18.112 39.0889 17.9775 39.0657C17.843 39.0426 17.7157 38.9873 17.6058 38.9045C17.496 38.8217 17.4067 38.7137 17.3452 38.5892C17.2836 38.4646 17.2516 38.327 17.2516 38.1875C17.2516 38.0479 17.2836 37.9104 17.3452 37.7859C17.4067 37.6613 17.496 37.5533 17.6058 37.4706C17.7157 37.3878 17.843 37.3325 17.9775 37.3093C18.112 37.2862 18.25 37.2957 18.3802 37.3371H21.0787C21.2561 37.3935 21.4113 37.5064 21.5214 37.6595C21.6316 37.8125 21.691 37.9974 21.691 38.1875C21.691 38.3775 21.6316 38.5626 21.5214 38.7156C21.4113 38.8686 21.2561 38.9816 21.0787 39.0379Z" fill="#673DE6"/>
<path d="M19.7295 30.7571C17.3296 30.8438 14.9435 30.3495 12.7656 29.3145V32.4847C12.7656 32.7252 13.227 33.2506 14.5066 33.7225C16.1918 34.2844 17.9574 34.5523 19.7295 34.5151C21.5015 34.5516 23.267 34.2837 24.9524 33.7225C26.2233 33.2506 26.6934 32.7252 26.6934 32.4847V29.3145C24.5152 30.3486 22.1293 30.8428 19.7295 30.7571ZM21.0787 33.5177H18.3802C18.25 33.5591 18.112 33.5686 17.9775 33.5454C17.843 33.5222 17.7157 33.4671 17.6058 33.3843C17.496 33.3015 17.4067 33.1935 17.3452 33.069C17.2836 32.9444 17.2516 32.8068 17.2516 32.6673C17.2516 32.5277 17.2836 32.3901 17.3452 32.2656C17.4067 32.141 17.496 32.033 17.6058 31.9503C17.7157 31.8675 17.843 31.8123 17.9775 31.7891C18.112 31.7659 18.25 31.7754 18.3802 31.8168H21.0787C21.2561 31.8732 21.4113 31.9861 21.5214 32.1392C21.6316 32.2922 21.691 32.4772 21.691 32.6673C21.691 32.8573 21.6316 33.0424 21.5214 33.1954C21.4113 33.3484 21.2561 33.4613 21.0787 33.5177Z" fill="#673DE6"/>
<path d="M24.9524 20.3205C23.266 19.7637 21.5013 19.4959 19.7295 19.528C17.9577 19.4959 16.193 19.7637 14.5066 20.3205C13.2357 20.7925 12.7656 21.3268 12.7656 21.5673C12.7656 21.8077 13.227 22.3331 14.5066 22.8051C16.193 23.3619 17.9577 23.6297 19.7295 23.5976C21.5013 23.6297 23.266 23.3619 24.9524 22.8051C26.2233 22.3331 26.6934 21.7988 26.6934 21.5673C26.6934 21.3357 26.2233 20.8281 24.9524 20.3205Z" fill="#673DE6"/>
<path d="M35.6855 16.3746L35.1806 16.1163L35.2502 15.3772C35.3025 14.8963 35.3373 14.3976 35.346 13.9079C35.3442 11.9381 34.8216 10.0055 33.8335 8.31488C32.8454 6.62427 31.4286 5.23864 29.7332 4.30482C28.0379 3.37101 26.1272 2.92381 24.2036 3.01061C22.28 3.09741 20.4152 3.71498 18.8068 4.79787C17.1196 5.93501 15.7777 7.53305 14.9332 9.41075L14.6546 10.0163L14.0104 9.88273C13.4594 9.77605 12.8999 9.72238 12.3391 9.72243C10.5509 9.72222 8.81269 10.3264 7.39477 11.4411C5.99668 12.54 4.96577 14.0551 4.44383 15.7779L4.33938 16.1342L3.99989 16.2944C3.25553 16.6409 2.57754 17.1204 1.99778 17.7104C1.04435 18.6831 0.394756 19.9235 0.131351 21.2744C-0.132054 22.6253 0.0025999 24.0258 0.518237 25.2983C1.03387 26.5708 1.90727 27.658 3.02768 28.422C4.14808 29.186 5.46504 29.5925 6.81155 29.5899H11.1117V21.5752C11.1117 19.1174 15.4641 17.835 19.7295 17.835C23.9949 17.835 28.3473 19.1174 28.3473 21.5752V29.5899H32.6388C34.1898 29.6193 35.704 29.1044 36.9292 28.1309C38.1545 27.1575 39.0169 25.7842 39.373 24.2395C39.7291 22.6948 39.5574 21.072 38.8865 19.641C38.2156 18.2101 37.0859 17.0573 35.6855 16.3746Z" fill="#673DE6"/>
</g>
</g>
<defs>
<clipPath id="clip0_1619_6503">
<rect width="40" height="40" fill="white"/>
</clipPath>
</defs>
</svg>
