<svg width="50" height="50" viewBox="0 0 50 50" fill="none" xmlns="http://www.w3.org/2000/svg">
<g clip-path="url(#clip0_1619_7344)">
<mask id="mask0_1619_7344" style="mask-type:luminance" maskUnits="userSpaceOnUse" x="0" y="0" width="50" height="50">
<path d="M50 0H0V50H50V0Z" fill="white"/>
</mask>
<g mask="url(#mask0_1619_7344)">
<path d="M36.7188 15.625H41.4062C41.6134 15.625 41.8122 15.5427 41.9587 15.3962C42.1052 15.2497 42.1875 15.051 42.1875 14.8438V7.03125C42.1875 6.82405 42.1052 6.62534 41.9587 6.47882C41.8122 6.33231 41.6134 6.25 41.4062 6.25H8.59375C8.38655 6.25 8.18784 6.33231 8.04132 6.47882C7.89481 6.62534 7.8125 6.82405 7.8125 7.03125V14.8438C7.8125 15.051 7.89481 15.2497 8.04132 15.3962C8.18784 15.5427 8.38655 15.625 8.59375 15.625H13.2812C13.4885 15.625 13.6872 15.5427 13.8337 15.3962C13.9802 15.2497 14.0625 15.051 14.0625 14.8438V12.5H21.875V37.5H16.4062C16.199 37.5 16.0003 37.5823 15.8538 37.7288C15.7073 37.8753 15.625 38.0741 15.625 38.2812V42.9688C15.625 43.1759 15.7073 43.3747 15.8538 43.5212C16.0003 43.6677 16.199 43.75 16.4062 43.75H33.5938C33.8009 43.75 33.9997 43.6677 34.1462 43.5212C34.2927 43.3747 34.375 43.1759 34.375 42.9688V38.2812C34.375 38.0741 34.2927 37.8753 34.1462 37.7288C33.9997 37.5823 33.8009 37.5 33.5938 37.5H28.125V12.5H35.9375V14.8438C35.9375 15.051 36.0198 15.2497 36.1663 15.3962C36.3128 15.5427 36.5116 15.625 36.7188 15.625ZM27.3438 10.9375C27.1365 10.9375 26.9378 11.0198 26.7913 11.1663C26.6448 11.3128 26.5625 11.5115 26.5625 11.7188V38.2812C26.5625 38.4884 26.6448 38.6872 26.7913 38.8337C26.9378 38.9802 27.1365 39.0625 27.3438 39.0625H32.8125V42.1875H17.1875V39.0625H22.6562C22.8635 39.0625 23.0622 38.9802 23.2087 38.8337C23.3552 38.6872 23.4375 38.4884 23.4375 38.2812V11.7188C23.4375 11.5115 23.3552 11.3128 23.2087 11.1663C23.0622 11.0198 22.8635 10.9375 22.6562 10.9375H13.2812C13.074 10.9375 12.8753 11.0198 12.7288 11.1663C12.5823 11.3128 12.5 11.5115 12.5 11.7188V14.0625H9.375V7.8125H40.625V14.0625H37.5V11.7188C37.5 11.5115 37.4177 11.3128 37.2712 11.1663C37.1247 11.0198 36.9259 10.9375 36.7188 10.9375H27.3438ZM0.78125 18.9734C0.98845 18.9734 1.18716 18.8911 1.33368 18.7446C1.48019 18.5981 1.5625 18.3994 1.5625 18.1922V13.5047C1.5625 13.2975 1.48019 13.0988 1.33368 12.9523C1.18716 12.8057 0.98845 12.7234 0.78125 12.7234C0.57405 12.7234 0.375336 12.8057 0.228823 12.9523C0.08231 13.0988 0 13.2975 0 13.5047V18.1922C0 18.3994 0.08231 18.5981 0.228823 18.7446C0.375336 18.8911 0.57405 18.9734 0.78125 18.9734ZM0.78125 9.59844C0.98845 9.59844 1.18716 9.51613 1.33368 9.36961C1.48019 9.2231 1.5625 9.02439 1.5625 8.81719V4.12969C1.5625 3.92249 1.48019 3.72377 1.33368 3.57726C1.18716 3.43075 0.98845 3.34844 0.78125 3.34844C0.57405 3.34844 0.375336 3.43075 0.228823 3.57726C0.08231 3.72377 0 3.92249 0 4.12969V8.81719C0 9.02439 0.08231 9.2231 0.228823 9.36961C0.375336 9.51613 0.57405 9.59844 0.78125 9.59844ZM0.78125 37.7234C0.98845 37.7234 1.18716 37.6411 1.33368 37.4946C1.48019 37.3481 1.5625 37.1494 1.5625 36.9422V32.2547C1.5625 32.0475 1.48019 31.8488 1.33368 31.7023C1.18716 31.5557 0.98845 31.4734 0.78125 31.4734C0.57405 31.4734 0.375336 31.5557 0.228823 31.7023C0.08231 31.8488 0 32.0475 0 32.2547V36.9422C0 37.1494 0.08231 37.3481 0.228823 37.4946C0.375336 37.6411 0.57405 37.7234 0.78125 37.7234ZM0.78125 28.3484C0.98845 28.3484 1.18716 28.2661 1.33368 28.1196C1.48019 27.9731 1.5625 27.7744 1.5625 27.5672V22.8797C1.5625 22.6725 1.48019 22.4738 1.33368 22.3273C1.18716 22.1807 0.98845 22.0984 0.78125 22.0984C0.57405 22.0984 0.375336 22.1807 0.228823 22.3273C0.08231 22.4738 0 22.6725 0 22.8797V27.5672C0 27.7744 0.08231 27.9731 0.228823 28.1196C0.375336 28.2661 0.57405 28.3484 0.78125 28.3484ZM0.78125 40.8484C0.57405 40.8484 0.375336 40.9307 0.228823 41.0773C0.08231 41.2238 0 41.4225 0 41.6297V46.0781C0 46.1766 0 46.2719 0 46.3656C0.0123423 46.5643 0.10007 46.7508 0.245266 46.887C0.390463 47.0232 0.582175 47.0988 0.78125 47.0984H0.835938C1.04246 47.0844 1.23497 46.989 1.37119 46.8331C1.50742 46.6773 1.57622 46.4737 1.5625 46.2672V41.6281C1.56209 41.4212 1.47959 41.2229 1.33313 41.0767C1.18666 40.9305 0.98818 40.8484 0.78125 40.8484ZM40.9609 1.5625H45.6484C45.8556 1.5625 46.0544 1.48019 46.2009 1.33368C46.3474 1.18716 46.4297 0.98845 46.4297 0.78125C46.4297 0.57405 46.3474 0.375336 46.2009 0.228823C46.0544 0.08231 45.8556 0 45.6484 0H40.9609C40.7537 0 40.555 0.08231 40.4085 0.228823C40.262 0.375336 40.1797 0.57405 40.1797 0.78125C40.1797 0.98845 40.262 1.18716 40.4085 1.33368C40.555 1.48019 40.7537 1.5625 40.9609 1.5625ZM31.5859 1.5625H36.2734C36.4806 1.5625 36.6794 1.48019 36.8259 1.33368C36.9724 1.18716 37.0547 0.98845 37.0547 0.78125C37.0547 0.57405 36.9724 0.375336 36.8259 0.228823C36.6794 0.08231 36.4806 0 36.2734 0H31.5859C31.3787 0 31.18 0.08231 31.0335 0.228823C30.887 0.375336 30.8047 0.57405 30.8047 0.78125C30.8047 0.98845 30.887 1.18716 31.0335 1.33368C31.18 1.48019 31.3787 1.5625 31.5859 1.5625ZM12.8359 1.5625H17.5234C17.7306 1.5625 17.9294 1.48019 18.0759 1.33368C18.2224 1.18716 18.3047 0.98845 18.3047 0.78125C18.3047 0.57405 18.2224 0.375336 18.0759 0.228823C17.9294 0.08231 17.7306 0 17.5234 0H12.8359C12.6287 0 12.43 0.08231 12.2835 0.228823C12.137 0.375336 12.0547 0.57405 12.0547 0.78125C12.0547 0.98845 12.137 1.18716 12.2835 1.33368C12.43 1.48019 12.6287 1.5625 12.8359 1.5625ZM22.2109 1.5625H26.8984C27.1056 1.5625 27.3044 1.48019 27.4509 1.33368C27.5974 1.18716 27.6797 0.98845 27.6797 0.78125C27.6797 0.57405 27.5974 0.375336 27.4509 0.228823C27.3044 0.08231 27.1056 0 26.8984 0H22.2109C22.0037 0 21.805 0.08231 21.6585 0.228823C21.512 0.375336 21.4297 0.57405 21.4297 0.78125C21.4297 0.98845 21.512 1.18716 21.6585 1.33368C21.805 1.48019 22.0037 1.5625 22.2109 1.5625ZM27.3438 48.4375H22.6562C22.449 48.4375 22.2503 48.5198 22.1038 48.6663C21.9573 48.8128 21.875 49.0116 21.875 49.2188C21.875 49.4259 21.9573 49.6247 22.1038 49.7712C22.2503 49.9177 22.449 50 22.6562 50H27.3438C27.551 50 27.7497 49.9177 27.8962 49.7712C28.0427 49.6247 28.125 49.4259 28.125 49.2188C28.125 49.0116 28.0427 48.8128 27.8962 48.6663C27.7497 48.5198 27.551 48.4375 27.3438 48.4375ZM49.2188 39.9562C49.0116 39.9562 48.8128 40.0386 48.6663 40.1851C48.5198 40.3316 48.4375 40.5303 48.4375 40.7375V45.425C48.4375 45.6322 48.5198 45.8309 48.6663 45.9774C48.8128 46.1239 49.0116 46.2062 49.2188 46.2062C49.4259 46.2062 49.6247 46.1239 49.7712 45.9774C49.9177 45.8309 50 45.6322 50 45.425V40.7375C50 40.5303 49.9177 40.3316 49.7712 40.1851C49.6247 40.0386 49.4259 39.9562 49.2188 39.9562ZM49.2188 21.2062C49.0116 21.2062 48.8128 21.2886 48.6663 21.4351C48.5198 21.5816 48.4375 21.7803 48.4375 21.9875V26.675C48.4375 26.8822 48.5198 27.0809 48.6663 27.2274C48.8128 27.3739 49.0116 27.4563 49.2188 27.4563C49.4259 27.4563 49.6247 27.3739 49.7712 27.2274C49.9177 27.0809 50 26.8822 50 26.675V21.9875C50 21.7803 49.9177 21.5816 49.7712 21.4351C49.6247 21.2886 49.4259 21.2062 49.2188 21.2062ZM3.57188 1.58594C3.67969 1.5625 3.79063 1.57656 3.90625 1.5625H8.14844C8.35564 1.5625 8.55435 1.48019 8.70086 1.33368C8.84738 1.18716 8.92969 0.98845 8.92969 0.78125C8.92969 0.57405 8.84738 0.375336 8.70086 0.228823C8.55435 0.08231 8.35564 0 8.14844 0H3.90625C3.67344 0.021875 3.52969 0.0125 3.34844 0.0375C3.14402 0.0675237 2.95982 0.177299 2.83614 0.342805C2.71247 0.508311 2.65939 0.716068 2.68852 0.920615C2.71765 1.12516 2.82662 1.30984 2.99159 1.43423C3.15655 1.55863 3.36408 1.61262 3.56875 1.58438L3.57188 1.58594ZM49.2188 11.8313C49.0116 11.8313 48.8128 11.9136 48.6663 12.0601C48.5198 12.2066 48.4375 12.4053 48.4375 12.6125V17.3C48.4375 17.5072 48.5198 17.7059 48.6663 17.8524C48.8128 17.9989 49.0116 18.0812 49.2188 18.0812C49.4259 18.0812 49.6247 17.9989 49.7712 17.8524C49.9177 17.7059 50 17.5072 50 17.3V12.6125C50 12.4053 49.9177 12.2066 49.7712 12.0601C49.6247 11.9136 49.4259 11.8313 49.2188 11.8313ZM49.9109 3.08125C49.8676 2.8784 49.7455 2.70106 49.5715 2.58825C49.3974 2.47543 49.1857 2.43638 48.9828 2.47969C48.78 2.52299 48.6026 2.64511 48.4898 2.81916C48.377 2.99322 48.3379 3.20496 48.3813 3.40781C48.4165 3.57167 48.4354 3.73865 48.4375 3.90625V7.925C48.4375 8.1322 48.5198 8.33091 48.6663 8.47743C48.8128 8.62394 49.0116 8.70625 49.2188 8.70625C49.4259 8.70625 49.6247 8.62394 49.7712 8.47743C49.9177 8.33091 50 8.1322 50 7.925V3.90625C49.9984 3.62842 49.9686 3.35148 49.9109 3.07969V3.08125ZM49.2188 30.5813C49.0116 30.5813 48.8128 30.6636 48.6663 30.8101C48.5198 30.9566 48.4375 31.1553 48.4375 31.3625V36.05C48.4375 36.2572 48.5198 36.4559 48.6663 36.6024C48.8128 36.7489 49.0116 36.8312 49.2188 36.8312C49.4259 36.8312 49.6247 36.7489 49.7712 36.6024C49.9177 36.4559 50 36.2572 50 36.05V31.3625C50 31.1553 49.9177 30.9566 49.7712 30.8101C49.6247 30.6636 49.4259 30.5813 49.2188 30.5813ZM8.59375 48.4375H3.90625C3.69905 48.4375 3.50034 48.5198 3.35382 48.6663C3.20731 48.8128 3.125 49.0116 3.125 49.2188C3.125 49.4259 3.20731 49.6247 3.35382 49.7712C3.50034 49.9177 3.69905 50 3.90625 50H8.59375C8.80095 50 8.99966 49.9177 9.14618 49.7712C9.29269 49.6247 9.375 49.4259 9.375 49.2188C9.375 49.0116 9.29269 48.8128 9.14618 48.6663C8.99966 48.5198 8.80095 48.4375 8.59375 48.4375ZM17.9688 48.4375H13.2812C13.074 48.4375 12.8753 48.5198 12.7288 48.6663C12.5823 48.8128 12.5 49.0116 12.5 49.2188C12.5 49.4259 12.5823 49.6247 12.7288 49.7712C12.8753 49.9177 13.074 50 13.2812 50H17.9688C18.176 50 18.3747 49.9177 18.5212 49.7712C18.6677 49.6247 18.75 49.4259 18.75 49.2188C18.75 49.0116 18.6677 48.8128 18.5212 48.6663C18.3747 48.5198 18.176 48.4375 17.9688 48.4375ZM46.7547 48.3438C46.5401 48.4068 46.3174 48.4384 46.0938 48.4375H41.4062C41.1991 48.4375 41.0003 48.5198 40.8538 48.6663C40.7073 48.8128 40.625 49.0116 40.625 49.2188C40.625 49.4259 40.7073 49.6247 40.8538 49.7712C41.0003 49.9177 41.1991 50 41.4062 50H46.0938C46.4639 50 46.8322 49.9474 47.1875 49.8438C47.3864 49.7855 47.5541 49.6507 47.6535 49.4688C47.753 49.287 47.7762 49.0731 47.718 48.8742C47.6597 48.6753 47.5249 48.5077 47.3431 48.4082C47.1612 48.3087 46.9473 48.2855 46.7484 48.3438H46.7547ZM36.7188 48.4375H32.0312C31.824 48.4375 31.6253 48.5198 31.4788 48.6663C31.3323 48.8128 31.25 49.0116 31.25 49.2188C31.25 49.4259 31.3323 49.6247 31.4788 49.7712C31.6253 49.9177 31.824 50 32.0312 50H36.7188C36.9259 50 37.1247 49.9177 37.2712 49.7712C37.4177 49.6247 37.5 49.4259 37.5 49.2188C37.5 49.0116 37.4177 48.8128 37.2712 48.6663C37.1247 48.5198 36.9259 48.4375 36.7188 48.4375Z" fill="#673DE6"/>
</g>
</g>
<defs>
<clipPath id="clip0_1619_7344">
<rect width="50" height="50" fill="white"/>
</clipPath>
</defs>
</svg>
