<svg width="40" height="40" viewBox="0 0 40 40" fill="none" xmlns="http://www.w3.org/2000/svg">
<g clip-path="url(#clip0_1619_6495)">
<mask id="mask0_1619_6495" style="mask-type:luminance" maskUnits="userSpaceOnUse" x="0" y="0" width="40" height="40">
<path d="M40 0H0V40H40V0Z" fill="white"/>
</mask>
<g mask="url(#mask0_1619_6495)">
<path d="M36.4797 0H3.53516V9.41685H36.4797V0ZM10.5618 5.88433H8.23878V3.53252H10.5618V5.88433ZM15.2654 5.88433H12.9424V3.53252H15.2942L15.2654 5.88433ZM31.7377 5.88433H17.6556V3.53252H31.7665L31.7377 5.88433Z" fill="#673DE6"/>
<path d="M36.4797 11.7695H3.53516V18.8249H36.4797V11.7695ZM10.5618 16.4731H8.23878V14.1213H10.5618V16.4731ZM15.2654 16.4731H12.9424V14.1213H15.2942L15.2654 16.4731ZM31.7377 16.4731H17.6556V14.1213H31.7665L31.7377 16.4731Z" fill="#673DE6"/>
<path d="M36.479 32.9444C35.7488 32.9441 35.0365 33.1701 34.44 33.5912C33.8435 34.0124 33.3922 34.6081 33.1481 35.2963H25.9199V32.9444H21.2163V30.5926H36.479V21.1758H3.53442V30.5926H18.826V32.9444H14.1224V35.2963H6.85576C6.57832 34.5103 6.03193 33.8478 5.31319 33.4259C4.59445 33.0039 3.74966 32.8496 2.92818 32.9904C2.1067 33.1311 1.36144 33.5578 0.824159 34.1949C0.286879 34.8321 -0.00781251 35.6387 -0.0078125 36.4722C-0.00781251 37.3056 0.286879 38.1122 0.824159 38.7494C1.36144 39.3865 2.1067 39.8132 2.92818 39.9539C3.74966 40.0947 4.59445 39.9404 5.31319 39.5185C6.03193 39.0965 6.57832 38.434 6.85576 37.6481H14.1224V39.9999H25.9199V37.6481H33.1865C33.4019 38.2609 33.7821 38.8025 34.2854 39.2133C34.7886 39.6241 35.3953 39.8881 36.0389 39.9764C36.6825 40.0648 37.338 39.9739 37.9332 39.7139C38.5285 39.4538 39.0406 39.0347 39.4131 38.5025C39.7856 37.9703 40.0042 37.3457 40.0448 36.6974C40.0854 36.0491 39.9464 35.4021 39.6431 34.8276C39.3399 34.2531 38.8841 33.7734 38.3258 33.4412C37.7676 33.1089 37.1286 32.9371 36.479 32.9444ZM10.5611 27.0601H8.23805V24.7083H10.5611V27.0601ZM15.2647 27.0601H12.9417V24.7083H15.2935L15.2647 27.0601ZM17.6261 24.7083H31.737V27.0601H17.6549L17.6261 24.7083Z" fill="#673DE6"/>
</g>
</g>
<defs>
<clipPath id="clip0_1619_6495">
<rect width="40" height="40" fill="white"/>
</clipPath>
</defs>
</svg>
