<svg width="40" height="40" viewBox="0 0 40 40" fill="none" xmlns="http://www.w3.org/2000/svg">
<g clip-path="url(#clip0_1619_6490)">
<path d="M32.3525 1.53815C28.3221 0.4563 24.1574 -0.0596583 19.9812 0.00547877C15.8019 -0.0595438 11.6341 0.456404 7.60044 1.53815C4.72164 2.40202 3 3.53526 3 4.56633C3 5.5974 4.72164 6.72136 7.60044 7.58523C11.6341 8.66698 15.8019 9.18292 19.9812 9.1179C24.1574 9.18304 28.3221 8.66708 32.3525 7.58523C35.2313 6.72136 36.9436 5.58811 36.9436 4.56633C36.9436 3.54455 35.2313 2.40202 32.3525 1.53815Z" fill="#673DE6"/>
<path d="M19.9811 31.383C13.3297 31.383 6.36785 30.2405 3.04688 28.0762V35.4423C3.04688 36.4641 4.76852 37.5973 7.63791 38.4612C11.6739 39.5475 15.8455 40.0635 20.0281 39.9938C22.7841 40.0036 25.5366 39.7986 28.26 39.3808C33.4061 38.5634 36.9999 36.9378 36.9999 35.4423V28.0762C33.5848 30.2405 26.623 31.383 19.9811 31.383ZM22.9539 36.3805H16.9988C16.8714 36.4032 16.7405 36.3981 16.6153 36.3654C16.4902 36.3327 16.3738 36.2733 16.2745 36.1913C16.1751 36.1094 16.0952 36.0069 16.0403 35.8911C15.9855 35.7753 15.9571 35.6491 15.9571 35.5212C15.9571 35.3934 15.9855 35.2671 16.0403 35.1514C16.0952 35.0356 16.1751 34.9331 16.2745 34.8511C16.3738 34.7692 16.4902 34.7098 16.6153 34.6771C16.7405 34.6444 16.8714 34.6393 16.9988 34.662H22.9539C23.0813 34.6393 23.2122 34.6444 23.3374 34.6771C23.4626 34.7098 23.5789 34.7692 23.6783 34.8511C23.7776 34.9331 23.8575 35.0356 23.9124 35.1514C23.9672 35.2671 23.9956 35.3934 23.9956 35.5212C23.9956 35.6491 23.9672 35.7753 23.9124 35.8911C23.8575 36.0069 23.7776 36.1094 23.6783 36.1913C23.5789 36.2733 23.4626 36.3327 23.3374 36.3654C23.2122 36.3981 23.0813 36.4032 22.9539 36.3805Z" fill="#673DE6"/>
<path d="M19.9811 21.1096C13.3297 21.1096 6.36785 19.967 3.04688 17.8027V25.0852C3.04688 26.1163 4.76852 27.2495 7.63791 28.1134C11.6748 29.1952 15.8457 29.7111 20.0281 29.6461C24.2074 29.7111 28.3752 29.1951 32.4088 28.1134C35.2312 27.2495 36.9999 26.1163 36.9999 25.0852V17.8027C33.5848 19.967 26.623 21.1096 19.9811 21.1096ZM22.9539 25.9305H16.9988C16.8731 25.9487 16.745 25.9401 16.623 25.905C16.5011 25.87 16.3882 25.8094 16.2921 25.7274C16.196 25.6455 16.1188 25.544 16.066 25.43C16.0131 25.316 15.9858 25.192 15.9858 25.0666C15.9858 24.9412 16.0131 24.8173 16.066 24.7033C16.1188 24.5893 16.196 24.4878 16.2921 24.4058C16.3882 24.3239 16.5011 24.2633 16.623 24.2283C16.745 24.1932 16.8731 24.1845 16.9988 24.2028H22.9539C23.0796 24.1845 23.2078 24.1932 23.3297 24.2283C23.4517 24.2633 23.5645 24.3239 23.6606 24.4058C23.7568 24.4878 23.8339 24.5893 23.8867 24.7033C23.9396 24.8173 23.9669 24.9412 23.9669 25.0666C23.9669 25.192 23.9396 25.316 23.8867 25.43C23.8339 25.544 23.7568 25.6455 23.6606 25.7274C23.5645 25.8094 23.4517 25.87 23.3297 25.905C23.2078 25.9401 23.0796 25.9487 22.9539 25.9305Z" fill="#673DE6"/>
<path d="M19.9812 10.8459C13.3486 10.8459 6.36801 9.70338 3 7.53906V14.868C3 15.8991 4.72164 17.023 7.59103 17.8869C11.6264 18.9771 15.798 19.4962 19.9812 19.4289C24.1612 19.4953 28.3296 18.9762 32.3619 17.8869C35.1843 17.023 36.953 15.8991 36.953 14.868V7.53906C33.5849 9.70338 26.6231 10.8459 19.9812 10.8459ZM22.9541 15.7969H16.9989C16.873 15.8097 16.7459 15.7972 16.625 15.7603C16.5041 15.7234 16.392 15.6629 16.2954 15.5822C16.1988 15.5016 16.1197 15.4025 16.0627 15.291C16.0058 15.1794 15.9722 15.0577 15.964 14.933C15.9722 14.8084 16.0058 14.6866 16.0627 14.5751C16.1197 14.4636 16.1988 14.3645 16.2954 14.2839C16.392 14.2032 16.5041 14.1426 16.625 14.1057C16.7459 14.0689 16.873 14.0564 16.9989 14.0692H22.9541C23.0807 14.0551 23.2088 14.0665 23.3308 14.1028C23.4528 14.1391 23.566 14.1994 23.6637 14.2802C23.7613 14.361 23.8413 14.4605 23.8988 14.5727C23.9564 14.6849 23.9902 14.8075 23.9983 14.933C23.9902 15.0586 23.9564 15.1811 23.8988 15.2934C23.8413 15.4056 23.7613 15.5051 23.6637 15.5859C23.566 15.6667 23.4528 15.727 23.3308 15.7633C23.2088 15.7996 23.0807 15.811 22.9541 15.7969Z" fill="#673DE6"/>
</g>
<defs>
<clipPath id="clip0_1619_6490">
<rect width="40" height="40" fill="white"/>
</clipPath>
</defs>
</svg>
