<svg width="15" height="15" viewBox="0 0 15 15" fill="none" xmlns="http://www.w3.org/2000/svg">
<mask id="mask0_1619_7320" style="mask-type:luminance" maskUnits="userSpaceOnUse" x="0" y="0" width="15" height="15">
<path d="M0.582031 0.130859H14.582V14.1309H0.582031V0.130859Z" fill="white"/>
</mask>
<g mask="url(#mask0_1619_7320)">
<path d="M1.45703 7.56836C1.341 7.56836 1.22972 7.52226 1.14767 7.44022C1.06562 7.35817 1.01953 7.24689 1.01953 7.13086C1.01953 7.01482 1.06562 6.90354 1.14767 6.8215C1.22972 6.73945 1.341 6.69336 1.45703 6.69336H2.76953V4.94336H1.45703C1.341 4.94336 1.22972 4.89726 1.14767 4.81522C1.06562 4.73317 1.01953 4.62189 1.01953 4.50586C1.01953 4.38982 1.06562 4.27854 1.14767 4.1965C1.22972 4.11445 1.341 4.06836 1.45703 4.06836H2.81328C2.90391 3.63322 3.12495 3.23602 3.44696 2.92964C3.76897 2.62326 4.17667 2.42225 4.61578 2.35336V1.00586C4.61578 0.889827 4.66187 0.778547 4.74392 0.6965C4.82597 0.614453 4.93725 0.568359 5.05328 0.568359C5.16931 0.568359 5.28059 0.614453 5.36264 0.6965C5.44468 0.778547 5.49078 0.889827 5.49078 1.00586V2.31836H7.14453V1.00586C7.14453 0.889827 7.19062 0.778547 7.27267 0.6965C7.35472 0.614453 7.466 0.568359 7.58203 0.568359C7.69806 0.568359 7.80934 0.614453 7.89139 0.6965C7.97343 0.778547 8.01953 0.889827 8.01953 1.00586V2.31836H9.86578V1.00586C9.86578 0.889827 9.91187 0.778547 9.99392 0.6965C10.0759 0.614453 10.1872 0.568359 10.3033 0.568359C10.4193 0.568359 10.5306 0.614453 10.6126 0.6965C10.6947 0.778547 10.7408 0.889827 10.7408 1.00586V2.39273C11.1394 2.49259 11.5019 2.70273 11.7867 2.99909C12.0714 3.29544 12.2669 3.66602 12.3508 4.06836H13.707C13.823 4.06836 13.9343 4.11445 14.0164 4.1965C14.0984 4.27854 14.1445 4.38982 14.1445 4.50586C14.1445 4.62189 14.0984 4.73317 14.0164 4.81522C13.9343 4.89726 13.823 4.94336 13.707 4.94336H12.3945V6.69336H13.707C13.823 6.69336 13.9343 6.73945 14.0164 6.8215C14.0984 6.90354 14.1445 7.01482 14.1445 7.13086C14.1445 7.24689 14.0984 7.35817 14.0164 7.44022C13.9343 7.52226 13.823 7.56836 13.707 7.56836H12.3945V9.31836H13.707C13.823 9.31836 13.9343 9.36445 14.0164 9.4465C14.0984 9.52854 14.1445 9.63982 14.1445 9.75586C14.1445 9.87189 14.0984 9.98317 14.0164 10.0652C13.9343 10.1472 13.823 10.1933 13.707 10.1933H12.3508C12.2669 10.5957 12.0714 10.9662 11.7867 11.2626C11.5019 11.559 11.1394 11.7691 10.7408 11.869V13.2558C10.7408 13.3719 10.6947 13.4831 10.6126 13.5652C10.5306 13.6472 10.4193 13.6933 10.3033 13.6933C10.1872 13.6933 10.0759 13.6472 9.99392 13.5652C9.91187 13.4831 9.86578 13.3719 9.86578 13.2558V11.9433H8.01953V13.2558C8.01953 13.3719 7.97343 13.4831 7.89139 13.5652C7.80934 13.6472 7.69806 13.6933 7.58203 13.6933C7.466 13.6933 7.35472 13.6472 7.27267 13.5652C7.19062 13.4831 7.14453 13.3719 7.14453 13.2558V11.9433H5.49078V13.2558C5.49078 13.3719 5.44468 13.4831 5.36264 13.5652C5.28059 13.6472 5.16931 13.6933 5.05328 13.6933C4.93725 13.6933 4.82597 13.6472 4.74392 13.5652C4.66187 13.4831 4.61578 13.3719 4.61578 13.2558V11.9083C4.17667 11.8394 3.76897 11.6384 3.44696 11.332C3.12495 11.0257 2.90391 10.6285 2.81328 10.1933H1.45703C1.341 10.1933 1.22972 10.1472 1.14767 10.0652C1.06562 9.98317 1.01953 9.87189 1.01953 9.75586C1.01953 9.63982 1.06562 9.52854 1.14767 9.4465C1.22972 9.36445 1.341 9.31836 1.45703 9.31836H2.76953V7.56836H1.45703ZM4.95703 11.0683H10.207C10.5551 11.0683 10.8889 10.93 11.1351 10.6839C11.3812 10.4378 11.5195 10.1039 11.5195 9.75586V4.50586C11.5195 4.15776 11.3812 3.82392 11.1351 3.57778C10.8889 3.33164 10.5551 3.19336 10.207 3.19336H4.95703C4.60893 3.19336 4.27509 3.33164 4.02895 3.57778C3.78281 3.82392 3.64453 4.15776 3.64453 4.50586V9.75586C3.64453 10.1039 3.78281 10.4378 4.02895 10.6839C4.27509 10.93 4.60893 11.0683 4.95703 11.0683Z" fill="#673DE6"/>
<path d="M5.83203 4.06836H9.33203C9.68012 4.06836 10.0139 4.20664 10.2601 4.45278C10.5062 4.69892 10.6445 5.03276 10.6445 5.38086V8.88086C10.6445 9.22895 10.5062 9.56279 10.2601 9.80893C10.0139 10.055 9.68012 10.1933 9.33203 10.1933H5.83203C5.48393 10.1933 5.15009 10.055 4.90395 9.80893C4.65781 9.56279 4.51953 9.22895 4.51953 8.88086V5.38086C4.51953 5.03276 4.65781 4.69892 4.90395 4.45278C5.15009 4.20664 5.48393 4.06836 5.83203 4.06836ZM5.39453 8.88086C5.39453 8.99689 5.44062 9.10817 5.52267 9.19022C5.60472 9.27226 5.716 9.31836 5.83203 9.31836H9.33203C9.44806 9.31836 9.55934 9.27226 9.64139 9.19022C9.72343 9.10817 9.76953 8.99689 9.76953 8.88086V5.38086C9.76953 5.26482 9.72343 5.15354 9.64139 5.0715C9.55934 4.98945 9.44806 4.94336 9.33203 4.94336H5.83203C5.716 4.94336 5.60472 4.98945 5.52267 5.0715C5.44062 5.15354 5.39453 5.26482 5.39453 5.38086V8.88086Z" fill="#673DE6"/>
</g>
</svg>
