<svg width="25" height="16" viewBox="0 0 25 16" fill="none" xmlns="http://www.w3.org/2000/svg">
<g clip-path="url(#clip0_1607_49353)">
<path d="M0.113281 12.3444C0.15169 6.33851 4.59538 1.29322 10.606 0.430839C17.1492 -0.507896 23.3037 3.93425 24.3889 10.3674C24.6617 11.9825 24.5887 13.5789 24.2294 15.1708C24.1838 15.3717 24.122 15.4147 23.9104 15.373C22.3819 15.0739 20.8514 14.7871 19.3183 14.5093C19.0729 14.465 19.0371 14.3912 19.1269 14.1654C19.8476 12.3444 19.8808 10.5073 19.1002 8.70749C17.9349 6.02026 15.8433 4.42255 12.9418 3.88741C8.39264 3.04877 3.60262 6.03886 2.4484 11.0617C2.16978 12.2731 2.11444 13.4936 2.31495 14.721C2.35726 14.9815 2.31495 15.1208 2.01093 15.1625C1.59364 15.2196 1.18352 15.3255 0.772088 15.4185C0.597622 15.4583 0.513643 15.4435 0.46547 15.2324C0.246084 14.2809 0.130207 13.319 0.113932 12.3444H0.113281ZM23.344 12.5612C23.344 10.4515 22.8525 8.66193 21.9027 6.98787C21.7758 6.76393 21.686 6.74147 21.475 6.89418C21.0831 7.17779 20.6691 7.43317 20.257 7.68855C20.1053 7.78287 20.0585 7.8573 20.1392 8.04081C20.8891 9.73605 21.0688 11.491 20.6652 13.2991C20.6287 13.464 20.6327 13.5398 20.8351 13.5738C21.5597 13.6963 22.2823 13.8343 23.0016 13.9851C23.1872 14.0242 23.2301 13.9632 23.2484 13.8086C23.3043 13.3312 23.3564 12.8532 23.344 12.5606V12.5612Z" fill="#FC5185"/>
<path d="M10.1104 15.4317C9.18473 15.4355 8.38661 14.792 8.23753 13.9206C8.07478 12.9703 8.57279 12.1394 9.50632 11.8455C11.8649 11.1031 14.2273 10.371 16.5878 9.63629C16.6855 9.60613 16.8072 9.51566 16.8814 9.6318C16.9583 9.75307 16.817 9.81723 16.7441 9.88589C14.9792 11.5439 13.2137 13.2019 11.4443 14.8561C11.0726 15.2039 10.6397 15.4323 10.1091 15.4317H10.1104Z" fill="#FC5185"/>
<path d="M23.3459 12.5611C23.3583 12.8537 23.3062 13.331 23.2502 13.8091C23.232 13.9637 23.189 14.024 23.0035 13.9855C22.2841 13.8347 21.5615 13.6968 20.837 13.5742C20.6352 13.5402 20.6306 13.4645 20.6671 13.2996C21.0707 11.4914 20.891 9.73652 20.141 8.04128C20.0597 7.85776 20.1065 7.78333 20.2589 7.68901C20.671 7.43363 21.085 7.17826 21.4769 6.89465C21.6878 6.74193 21.7776 6.76439 21.9046 6.98833C22.8544 8.66239 23.3459 10.452 23.3459 12.5617V12.5611Z" fill="#FC5185"/>
</g>
<defs>
<clipPath id="clip0_1607_49353">
<rect width="24.441" height="15.1301" fill="white" transform="translate(0.113281 0.305664)"/>
</clipPath>
</defs>
</svg>
