<svg width="65" height="65" viewBox="0 0 65 65" fill="none" xmlns="http://www.w3.org/2000/svg">
<path d="M6.68213 37.0689C12.3167 39.3373 17.8287 41.5562 23.3383 43.7775C25.1898 44.5242 27.0271 45.311 28.8974 46.0035C29.5994 46.2626 29.8255 46.616 29.8538 47.3556C29.8915 48.4062 30.0351 49.4709 30.2801 50.4932C31.465 55.414 36.2609 55.7414 38.8591 53.5036C40.2394 52.3164 41.4549 50.7076 42.1898 49.0445C44.1379 44.6467 45.8927 40.157 47.5228 35.632C49.8807 29.0789 52.0572 22.4645 54.3704 15.6993C45.5323 13.9397 36.838 12.2084 28.0471 10.4558C27.0483 13.1812 26.066 15.8524 25.0885 18.526C23.0886 24.0026 21.0935 29.4793 19.0912 34.9536C18.957 35.3211 18.8251 35.6956 18.6319 36.0325C18.0854 36.9888 17.0513 37.3516 16.1232 36.9488C15.141 36.5224 14.6746 35.6061 15.0397 34.5249C15.9913 31.7077 16.9807 28.8998 17.9983 26.1061C20.196 20.0806 22.4173 14.0622 24.6386 8.04612C25.2816 6.30536 25.9671 5.93319 27.7879 6.29594C37.1183 8.15212 46.451 10.0012 55.7767 11.8762C59.0909 12.5429 59.4725 13.1035 58.3324 16.3636C54.5094 27.2957 50.651 38.2161 46.6913 49.0987C45.6713 51.8995 44.1991 54.5707 41.8011 56.474C38.3432 59.2205 34.3364 59.6799 30.3767 58.0545C24.0049 55.4399 17.7509 52.5261 11.504 49.6146C7.64791 47.8149 5.62213 43.5514 6.3076 39.2125C6.41596 38.527 6.54787 37.8439 6.68449 37.0713L6.68213 37.0689Z" fill="#673DE6"/>
<path d="M29.6006 35.9514C30.1636 36.1092 30.7336 36.2458 31.2872 36.4272C33.883 37.2823 36.4812 38.135 39.0699 39.0183C39.958 39.3222 40.5563 39.9629 40.5445 40.9287C40.5327 41.8143 40.071 42.4998 39.183 42.7895C38.9003 42.8814 38.5493 42.9615 38.2855 42.8767C35.0937 41.8403 31.9043 40.7967 28.7361 39.692C27.7656 39.3551 27.4405 38.42 27.7868 37.5743C28.0742 36.8747 28.7997 36.3542 29.332 35.7559C29.4216 35.8218 29.5111 35.8878 29.6006 35.9514Z" fill="#673DE6"/>
<path d="M43.8922 32.2355C43.8899 34.1105 42.6603 34.9491 41.0302 34.4638C38.4815 33.703 35.9658 32.8338 33.4383 32.0047C32.9931 31.8586 32.5243 31.7385 32.1262 31.5053C31.2076 30.9729 30.8142 30.1673 31.1675 29.1191C31.5209 28.0756 32.2841 27.555 33.3582 27.8824C36.4981 28.8411 39.6381 29.814 42.7286 30.9164C43.301 31.119 43.6496 31.9481 43.8922 32.2355Z" fill="#673DE6"/>
<path d="M36.9181 19.3842C37.8556 19.6197 39.0334 19.893 40.1994 20.2133C42.1168 20.7433 44.0389 21.2663 45.9351 21.8669C47.2754 22.2909 47.763 23.1978 47.4238 24.3567C47.1058 25.4427 46.1071 25.942 44.7974 25.5958C41.8553 24.8161 38.9156 24.0293 35.9923 23.1907C34.9441 22.8892 34.5013 21.9706 34.7109 20.8729C34.8852 19.9589 35.679 19.3535 36.9181 19.3818V19.3842Z" fill="#673DE6"/>
<path d="M29.3389 28.0082C29.3224 29.0988 28.4085 29.9868 27.2967 29.9962C26.1236 30.0057 25.0447 28.9669 25.0871 27.8692C25.1295 26.7644 26.0718 25.8717 27.1577 25.9094C28.4791 25.9541 29.3554 26.7998 29.3366 28.0105L29.3389 28.0082Z" fill="#673DE6"/>
<path d="M28.3322 19.3521C28.3464 18.2097 29.1826 17.4629 30.4216 17.4889C31.6795 17.5148 32.5628 18.3369 32.5769 19.4958C32.5887 20.544 31.6276 21.4627 30.504 21.4792C29.2956 21.498 28.3181 20.5393 28.3322 19.3497V19.3521Z" fill="#673DE6"/>
<path d="M26.0541 35.861C26.0329 37.0459 25.2296 37.802 24.0071 37.7926C22.7657 37.7808 21.8541 36.9328 21.84 35.7809C21.8282 34.6432 22.7916 33.7434 23.9882 33.7763C25.2014 33.8093 26.0753 34.6903 26.0541 35.861Z" fill="#673DE6"/>
</svg>
