<svg width="65" height="65" viewBox="0 0 65 65" fill="none" xmlns="http://www.w3.org/2000/svg">
<path fill-rule="evenodd" clip-rule="evenodd" d="M51.3129 36.6472C57.7699 36.6472 63 41.8763 63 48.323C63 54.7745 57.7664 60 51.3129 60C44.857 60 39.627 54.7721 39.627 48.323C39.627 41.8716 44.8594 36.6472 51.3129 36.6472ZM30.2965 5C33.9844 5 37.5152 5.73764 40.7367 7.07125L40.8434 7.12043C44.1375 8.50087 47.1035 10.5089 49.5879 12.9923C52.1121 15.5167 54.1406 18.5188 55.5199 21.8452C56.8559 25.0639 57.593 28.5905 57.593 32.2729C57.593 33.2318 57.5426 34.1814 57.4441 35.1145C56.1792 34.5264 54.8355 34.1249 53.4551 33.9226C53.4937 33.3781 53.5125 32.8278 53.5125 32.2729C53.5125 29.1244 52.8891 26.1282 51.7582 23.4048C50.5896 20.5876 48.8769 18.0282 46.718 15.8726C44.5969 13.7498 42.0762 12.0416 39.2777 10.8684L39.1758 10.8297C36.4488 9.69983 33.4512 9.07694 30.2965 9.07694C27.143 9.07694 24.1441 9.69983 21.4184 10.8297C18.5754 12.0029 16.0195 13.7264 13.882 15.8656C11.7574 17.9848 10.0477 20.5057 8.87344 23.3006L8.83477 23.4024C7.70391 26.1258 7.08047 29.1221 7.08047 32.2729C7.08047 35.4248 7.70391 38.421 8.83477 41.1445C9.53803 42.8444 10.4425 44.4541 11.5289 45.9391C13.9137 44.458 19.7145 43.5717 22.1109 42.8129C24.5027 42.0542 24.7348 41.8704 25.4074 39.8706C24.5438 39.1329 23.7094 37.9785 23.5699 36.4563L23.4551 36.4575C23.1926 36.4552 22.9395 36.3943 22.7027 36.2596C22.323 36.043 22.0559 35.673 21.8754 35.255C21.266 34.0537 20.5512 31.1512 22.152 31.4134L21.9527 31.0388C21.9152 30.5739 21.9059 30.0131 21.8953 29.423C21.8613 27.2557 21.8168 24.6283 20.073 24.1014L19.3242 23.8754C23.1105 19.1838 29.9742 12.3717 35.4855 19.0761C41.0508 19.617 42.8262 27.9641 39.0082 31.6488C39.2367 31.657 39.4535 31.7108 39.6445 31.8127C40.3711 32.2014 40.3945 33.0445 40.2035 33.7552C40.0148 34.3464 39.7758 35.0326 39.5484 35.6086C39.273 36.3884 38.8711 36.5336 38.093 36.4493C38.059 38.133 36.9645 38.9374 35.8887 39.8706C36.7594 41.1199 37.0512 41.6702 38.0836 42.2193C37.2246 44.0763 36.743 46.144 36.743 48.323C36.743 50.4048 37.1801 52.3847 37.9688 54.1761L37.9957 54.237L38.0109 54.2698L38.0227 54.2956L38.0508 54.3565L38.059 54.374L38.0766 54.415L38.1047 54.4747L38.107 54.4782L38.1328 54.5333L38.1551 54.5824L38.1609 54.593L38.1891 54.6515L38.2184 54.7112L38.2477 54.7709L38.2559 54.7885L38.2758 54.8283L38.3051 54.8869L38.3063 54.8915L38.3355 54.9454L38.359 54.9934L38.3648 55.0028L38.3941 55.0601L38.4129 55.0941L38.4258 55.1199L38.4562 55.1761L38.4668 55.196L38.4867 55.2334L38.5184 55.292L38.5195 55.2955L38.55 55.3493L38.5746 55.3962L38.5816 55.4055L38.6133 55.4618L38.632 55.4957C39.0762 56.2778 39.5895 57.0166 40.1695 57.7016C37.0214 58.9226 33.6735 59.5483 30.2965 59.5469C26.6109 59.5469 23.0801 58.8092 19.8574 57.4745L19.7496 57.4265C16.4543 56.046 13.4895 54.0368 11.0051 51.5546C8.48672 49.0372 6.45937 46.0351 5.07656 42.7029C3.73828 39.4854 3 35.9587 3 32.2729C3 28.5882 3.73828 25.0615 5.07305 21.8428L5.12109 21.7351C6.50391 18.4438 8.51367 15.4804 10.9992 12.9993C13.5188 10.482 16.5211 8.45638 19.8586 7.07476C23.0789 5.73764 26.6086 5 30.2965 5ZM49.3687 43.2544C49.3641 42.6806 49.3113 42.2708 50.0227 42.2814L52.3289 42.3095C53.0719 42.3048 53.2699 42.5401 53.2605 43.238V46.3794H56.3871C56.9602 46.3735 57.3703 46.322 57.3598 47.0327L57.3316 49.3358C57.3363 50.0793 57.1008 50.276 56.4035 50.2678H53.2605V53.4069C53.2699 54.1047 53.0719 54.3401 52.3289 54.3354L50.0227 54.3635C49.3113 54.374 49.3641 53.9642 49.3687 53.3905V50.2678H46.2246C45.5273 50.276 45.2918 50.0793 45.2965 49.3358L45.2684 47.0327C45.2578 46.322 45.668 46.3735 46.241 46.3794H49.3687V43.2544Z" fill="#673DE6"/>
</svg>
