<svg width="44" height="50" viewBox="0 0 44 50" fill="none" xmlns="http://www.w3.org/2000/svg">
<g clip-path="url(#clip0_1619_6552)">
<path d="M43.1687 34.6801C43.1687 32.6132 41.8158 30.8617 39.9547 30.263V19.737C41.8158 19.1383 43.1687 17.3868 43.1687 15.32C43.1687 12.7613 41.0967 10.68 38.5494 10.68C37.3563 10.68 36.2701 11.1394 35.4502 11.8871L26.3676 6.62347C26.4369 6.30719 26.4771 5.97897 26.4771 5.63992C26.4771 3.08128 24.405 1 21.8578 1C19.3105 1 17.2385 3.08128 17.2385 5.63992C17.2385 5.97897 17.2788 6.30719 17.3481 6.62347L8.26543 11.8871C7.44562 11.1394 6.35933 10.68 5.16616 10.68C2.6189 10.68 0.546875 12.7613 0.546875 15.32C0.546875 17.3868 1.89976 19.1383 3.76092 19.737V30.263C1.89976 30.8617 0.546875 32.6132 0.546875 34.6801C0.546875 37.2387 2.6189 39.3199 5.16616 39.3199C6.35933 39.3199 7.44562 38.8606 8.26543 38.1129L17.3481 43.3765C17.2788 43.6928 17.2385 44.021 17.2385 44.3601C17.2385 46.9187 19.3105 49 21.8578 49C24.405 49 26.4771 46.9187 26.4771 44.3601C26.4771 44.021 26.4369 43.6928 26.3676 43.3765L35.4502 38.1129C36.2701 38.8606 37.3563 39.3199 38.5494 39.3199C41.0967 39.3199 43.1687 37.2387 43.1687 34.6801ZM38.5494 13.5075C39.5442 13.5075 40.3539 14.3206 40.3539 15.32C40.3539 16.3193 39.5442 17.1325 38.5494 17.1325C37.5548 17.1325 36.7451 16.3193 36.7451 15.32C36.7451 14.3206 37.5548 13.5075 38.5494 13.5075ZM21.8578 3.82747C22.8524 3.82747 23.6621 4.64056 23.6621 5.63992C23.6621 6.63928 22.8524 7.45238 21.8578 7.45238C20.8631 7.45238 20.0534 6.63928 20.0534 5.63992C20.0534 4.64056 20.8631 3.82747 21.8578 3.82747ZM3.36177 15.32C3.36177 14.3206 4.17146 13.5075 5.16616 13.5075C6.16087 13.5075 6.97057 14.3206 6.97057 15.32C6.97057 16.3193 6.16087 17.1325 5.16616 17.1325C4.17146 17.1325 3.36177 16.3193 3.36177 15.32ZM5.16616 36.4925C4.17146 36.4925 3.36177 35.6794 3.36177 34.6801C3.36177 33.6807 4.17146 32.8676 5.16616 32.8676C6.16087 32.8676 6.97057 33.6807 6.97057 34.6801C6.97057 35.6794 6.16087 36.4925 5.16616 36.4925ZM21.8578 46.1726C20.8631 46.1726 20.0534 45.3595 20.0534 44.3601C20.0534 43.3606 20.8631 42.5477 21.8578 42.5477C22.8524 42.5477 23.6621 43.3606 23.6621 44.3601C23.6621 45.3595 22.8524 46.1726 21.8578 46.1726ZM33.9301 34.6801C33.9301 35.0199 33.9706 35.3489 34.0402 35.666L24.9589 40.9288C24.1389 40.1801 23.0518 39.7201 21.8578 39.7201C20.6638 39.7201 19.5767 40.1801 18.7567 40.9288L9.67541 35.666C9.74503 35.3489 9.78547 35.0199 9.78547 34.6801C9.78547 32.6148 8.43472 30.8644 6.57582 30.2643V19.7357C8.43472 19.1356 9.78547 17.3852 9.78547 15.32C9.78547 14.9801 9.74503 14.6511 9.67541 14.3341L18.7567 9.07114C19.5767 9.8199 20.6638 10.2798 21.8578 10.2798C23.0518 10.2798 24.1389 9.8199 24.9589 9.07114L34.0402 14.3341C33.9706 14.6511 33.9301 14.9801 33.9301 15.32C33.9301 17.3852 35.2809 19.1356 37.1399 19.7357V30.2643C35.2809 30.8644 33.9301 32.6148 33.9301 34.6801ZM38.5494 36.4925C37.5548 36.4925 36.7451 35.6794 36.7451 34.6801C36.7451 33.6807 37.5548 32.8676 38.5494 32.8676C39.5442 32.8676 40.3539 33.6807 40.3539 34.6801C40.3539 35.6794 39.5442 36.4925 38.5494 36.4925Z" fill="#673DE6" stroke="#673DE6" stroke-width="0.2"/>
<path d="M30.5924 16.5527H13.1175C11.8983 16.5527 10.9062 17.5493 10.9062 18.7736V24.0345C10.9062 24.3822 10.9932 24.7072 11.1357 25.0006C10.9932 25.2938 10.9062 25.619 10.9062 25.9666V31.2274C10.9062 32.4519 11.8983 33.4484 13.1175 33.4484H30.5924C31.8116 33.4484 32.8037 32.4519 32.8037 31.2274V25.9666C32.8037 25.619 32.7166 25.2938 32.5742 25.0006C32.7166 24.7072 32.8037 24.3822 32.8037 24.0345V18.7736C32.8037 17.5493 31.8116 16.5527 30.5924 16.5527ZM30.3052 30.9388H13.4047V26.2554H30.3052V30.9388ZM30.3052 23.7458H13.4047V19.0624H30.3052V23.7458Z" fill="#673DE6"/>
<path d="M26.3976 22.6579H27.3402C28.0301 22.6579 28.5893 22.0962 28.5893 21.4032C28.5893 20.7101 28.0301 20.1484 27.3402 20.1484H26.3976C25.7077 20.1484 25.1484 20.7101 25.1484 21.4032C25.1484 22.0962 25.7077 22.6579 26.3976 22.6579Z" fill="#673DE6"/>
<path d="M21.8897 22.6579H22.8323C23.5222 22.6579 24.0815 22.0962 24.0815 21.4032C24.0815 20.7101 23.5222 20.1484 22.8323 20.1484H21.8897C21.1998 20.1484 20.6406 20.7101 20.6406 21.4032C20.6406 22.0962 21.1998 22.6579 21.8897 22.6579Z" fill="#673DE6"/>
<path d="M26.3976 29.8495H27.3402C28.0301 29.8495 28.5893 29.2878 28.5893 28.5947C28.5893 27.9017 28.0301 27.3398 27.3402 27.3398H26.3976C25.7077 27.3398 25.1484 27.9017 25.1484 28.5947C25.1484 29.2878 25.7077 29.8495 26.3976 29.8495Z" fill="#673DE6"/>
<path d="M21.8897 29.8495H22.8323C23.5222 29.8495 24.0815 29.2878 24.0815 28.5947C24.0815 27.9017 23.5222 27.3398 22.8323 27.3398H21.8897C21.1998 27.3398 20.6406 27.9017 20.6406 28.5947C20.6406 29.2878 21.1998 29.8495 21.8897 29.8495Z" fill="#673DE6"/>
</g>
<defs>
<clipPath id="clip0_1619_6552">
<rect width="44" height="50" fill="white"/>
</clipPath>
</defs>
</svg>
