<svg width="54" height="54" viewBox="0 0 54 54" fill="none" xmlns="http://www.w3.org/2000/svg">
<path fill-rule="evenodd" clip-rule="evenodd" d="M51 19.4288C51 16.5126 48.2804 14.3933 45.5179 15.157L21.2067 21.8782C19.314 22.4016 18 24.1519 18 26.15V43.5713C18 46.4874 20.7197 48.6067 23.4821 47.8431L47.7934 41.1219C49.686 40.5986 51 38.8483 51 36.8501V19.4288Z" fill="#FC5185"/>
<path fill-rule="evenodd" clip-rule="evenodd" d="M31.9412 12.4097C32.1954 13.414 31.6021 14.4381 30.616 14.697L14.149 19.0203C13.8775 19.0916 13.6878 19.341 13.6878 19.6265V40.122C13.6878 41.1592 12.8623 42 11.8439 42C10.8255 42 10 41.1592 10 40.122V19.6265C10 17.6277 11.3281 15.8822 13.2285 15.3832L29.6956 11.0599C30.6817 10.801 31.687 11.4053 31.9412 12.4097Z" fill="#FC5185"/>
<path fill-rule="evenodd" clip-rule="evenodd" d="M23.9412 5.45515C24.1954 6.4919 23.6021 7.54899 22.616 7.81626L6.14902 12.279C5.87752 12.3526 5.6878 12.61 5.6878 12.9048V34.0614C5.6878 35.132 4.86225 36 3.8439 36C2.82555 36 2 35.132 2 34.0614V12.9048C2 10.8415 3.32805 9.03966 5.22847 8.52461L21.6955 4.06183C22.6817 3.79459 23.687 4.41837 23.9412 5.45515Z" fill="#FC5185"/>
</svg>
