<svg width="48" height="48" viewBox="0 0 48 48" fill="none" xmlns="http://www.w3.org/2000/svg">
<g clip-path="url(#clip0_1619_6579)">
<mask id="mask0_1619_6579" style="mask-type:luminance" maskUnits="userSpaceOnUse" x="0" y="0" width="48" height="48">
<path d="M48 0H0V48H48V0Z" fill="white"/>
</mask>
<g mask="url(#mask0_1619_6579)">
<path d="M47.1525 2.2303H37.0056C36.9887 1.41856 36.9604 0.606817 36.9153 -0.216045C36.903 -0.428716 36.8083 -0.628649 36.6506 -0.774542C36.4929 -0.920435 36.2842 -1.00114 36.0678 -0.999988H11.9322C11.716 -1.00023 11.5079 -0.919214 11.3504 -0.773506C11.1929 -0.627797 11.0979 -0.428394 11.0847 -0.216045C11.0395 0.606817 11.0113 1.41856 11 2.2303H0.847458C0.622901 2.23095 0.407729 2.31902 0.248942 2.47529C0.0901558 2.63155 0.000658787 2.8433 0 3.06428V6.18337C0.0391957 11.0532 1.7836 15.7607 4.93906 19.5121C8.09452 23.2636 12.468 25.8295 17.322 26.7772C17.565 27.0718 17.8079 27.3554 18.0621 27.6167C18.7157 28.3126 19.465 28.9152 20.2881 29.407C21.2599 30.0353 21.7345 30.9304 21.5537 31.8144C21.4875 32.152 21.3177 32.4615 21.0671 32.7011C20.8166 32.9407 20.4973 33.0989 20.1525 33.1543C19.9526 33.1912 19.7727 33.2972 19.6452 33.4532C19.5178 33.6092 19.4512 33.8049 19.4576 34.005L19.5254 35.8564C19.452 38.7587 19.1299 40.1209 16.3559 40.9715L16.322 40.9882L16.2373 41.0215C16.2135 41.0324 16.1908 41.0454 16.1695 41.0605C16.1431 41.072 16.1184 41.0869 16.096 41.1049C16.0765 41.123 16.0557 41.1397 16.0339 41.155C16.0167 41.1767 15.9978 41.1972 15.9774 41.2161C15.9591 41.2354 15.9421 41.2558 15.9266 41.2773C15.9096 41.2995 15.8983 41.3218 15.8814 41.344L15.8475 41.4107C15.8338 41.4356 15.8225 41.4617 15.8136 41.4886C15.8027 41.5135 15.7951 41.5396 15.791 41.5664C15.7853 41.5886 15.7797 41.6164 15.774 41.6387C15.7684 41.672 15.7684 41.6998 15.7627 41.7332V44.1351H14.9492C14.8378 44.135 14.7276 44.1564 14.6247 44.1983C14.5218 44.2401 14.4283 44.3016 14.3496 44.379C14.2709 44.4565 14.2084 44.5485 14.1659 44.6498C14.1234 44.751 14.1015 44.8595 14.1017 44.9691V48.166C14.1015 48.2756 14.1234 48.3841 14.1659 48.4853C14.2084 48.5866 14.2709 48.6786 14.3496 48.7561C14.4283 48.8335 14.5218 48.895 14.6247 48.9368C14.7276 48.9787 14.8378 49.0001 14.9492 49H33.0508C33.1622 49.0001 33.2724 48.9787 33.3753 48.9368C33.4782 48.895 33.5717 48.8335 33.6504 48.7561C33.7291 48.6786 33.7916 48.5866 33.8341 48.4853C33.8766 48.3841 33.8984 48.2756 33.8983 48.166V44.9691C33.8984 44.8595 33.8766 44.751 33.8341 44.6498C33.7916 44.5485 33.7291 44.4565 33.6504 44.379C33.5717 44.3016 33.4782 44.2401 33.3753 44.1983C33.2724 44.1564 33.1622 44.135 33.0508 44.1351H32.2429V41.7666C32.2429 41.7555 32.2373 41.7444 32.2373 41.7277C32.2363 41.6996 32.2325 41.6716 32.226 41.6443C32.2254 41.618 32.2216 41.5918 32.2147 41.5664C32.2034 41.5386 32.1977 41.5108 32.1864 41.4886C32.1795 41.4619 32.1701 41.4358 32.1582 41.4108C32.1469 41.3885 32.1299 41.3663 32.1186 41.3441C32.1056 41.3206 32.0904 41.2983 32.0734 41.2774L32.0226 41.2106L31.9661 41.155C31.9465 41.137 31.9258 41.1203 31.904 41.105C31.8827 41.0883 31.86 41.0734 31.8362 41.0605C31.8148 41.0455 31.7921 41.0325 31.7684 41.0216C31.7401 41.0105 31.7119 40.9994 31.678 40.9882L31.6441 40.9716C28.8701 40.1209 28.548 38.7587 28.4802 35.8509L28.5424 34.005C28.5499 33.8047 28.4837 33.6084 28.3561 33.4522C28.2285 33.296 28.0479 33.1902 27.8475 33.1544C27.503 33.0981 27.1843 32.9396 26.9339 32.7001C26.6835 32.4606 26.5134 32.1516 26.4463 31.8144C26.2712 30.9304 26.7401 30.0353 27.7119 29.407C28.535 28.9153 29.2843 28.3127 29.9378 27.6167C30.1921 27.3554 30.4407 27.0719 30.678 26.7772C35.532 25.8295 39.9055 23.2636 43.0609 19.5122C46.2164 15.7607 47.9608 11.0532 48 6.1834V3.06431C47.9994 2.84332 47.9099 2.63156 47.7511 2.47529C47.5923 2.31902 47.3771 2.23094 47.1525 2.2303ZM5.28249 7.21195H11.1243C11.3921 11.9335 12.3845 16.5879 14.0678 21.0171C11.5194 19.6553 9.37152 17.6689 7.83235 15.2503C6.29318 12.8316 5.41486 10.0628 5.28249 7.21195ZM33.9378 21.0171C35.6165 16.5868 36.6069 11.9328 36.8757 7.21195H42.7175C42.5862 10.0623 41.709 12.831 40.1708 15.2497C38.6326 17.6684 36.4856 19.6551 33.9378 21.0171Z" fill="#FC5185"/>
</g>
</g>
<defs>
<clipPath id="clip0_1619_6579">
<rect width="48" height="48" fill="white"/>
</clipPath>
</defs>
</svg>
