<svg width="40" height="40" viewBox="0 0 40 40" fill="none" xmlns="http://www.w3.org/2000/svg">
<path d="M35.2946 5.88281H5.88281V16.471H35.2946V5.88281Z" fill="#FC5185"/>
<path d="M19.9987 9.16602C19.6691 9.16602 19.3469 9.26377 19.0728 9.44691C18.7987 9.63003 18.5851 9.89034 18.4589 10.1949C18.3328 10.4994 18.2998 10.8345 18.3641 11.1578C18.4284 11.4811 18.5871 11.7781 18.8202 12.0112C19.0533 12.2443 19.3503 12.403 19.6736 12.4673C19.9969 12.5316 20.332 12.4986 20.6365 12.3725C20.9411 12.2463 21.2014 12.0327 21.3845 11.7586C21.5677 11.4845 21.6654 11.1623 21.6654 10.8327C21.6654 10.3906 21.4898 9.96674 21.1772 9.65418C20.8647 9.34162 20.4408 9.16602 19.9987 9.16602ZM14.9987 9.16602C14.6691 9.16602 14.3469 9.26377 14.0728 9.44691C13.7987 9.63003 13.5851 9.89034 13.4589 10.1949C13.3328 10.4994 13.2998 10.8345 13.3641 11.1578C13.4284 11.4811 13.5871 11.7781 13.8202 12.0112C14.0533 12.2443 14.3503 12.403 14.6736 12.4673C14.9969 12.5316 15.332 12.4986 15.6365 12.3725C15.9411 12.2463 16.2014 12.0327 16.3845 11.7586C16.5677 11.4845 16.6654 11.1623 16.6654 10.8327C16.6654 10.3906 16.4898 9.96674 16.1773 9.65418C15.8647 9.34162 15.4408 9.16602 14.9987 9.16602ZM9.99866 9.16602C9.66906 9.16602 9.34683 9.26377 9.07275 9.44691C8.79867 9.63003 8.58505 9.89034 8.4589 10.1949C8.33276 10.4994 8.29975 10.8345 8.36406 11.1578C8.42837 11.4811 8.5871 11.7781 8.82019 12.0112C9.05328 12.2443 9.35025 12.403 9.67355 12.4673C9.99685 12.5316 10.332 12.4986 10.6365 12.3725C10.9411 12.2463 11.2014 12.0327 11.3845 11.7586C11.5677 11.4845 11.6654 11.1623 11.6654 10.8327C11.6654 10.3906 11.4898 9.96674 11.1773 9.65418C10.8647 9.34162 10.4408 9.16602 9.99866 9.16602ZM9.99866 9.16602C9.66906 9.16602 9.34683 9.26377 9.07275 9.44691C8.79867 9.63003 8.58505 9.89034 8.4589 10.1949C8.33276 10.4994 8.29975 10.8345 8.36406 11.1578C8.42837 11.4811 8.5871 11.7781 8.82019 12.0112C9.05328 12.2443 9.35025 12.403 9.67355 12.4673C9.99685 12.5316 10.332 12.4986 10.6365 12.3725C10.9411 12.2463 11.2014 12.0327 11.3845 11.7586C11.5677 11.4845 11.6654 11.1623 11.6654 10.8327C11.6654 10.3906 11.4898 9.96674 11.1773 9.65418C10.8647 9.34162 10.4408 9.16602 9.99866 9.16602ZM14.9987 9.16602C14.6691 9.16602 14.3469 9.26377 14.0728 9.44691C13.7987 9.63003 13.5851 9.89034 13.4589 10.1949C13.3328 10.4994 13.2998 10.8345 13.3641 11.1578C13.4284 11.4811 13.5871 11.7781 13.8202 12.0112C14.0533 12.2443 14.3503 12.403 14.6736 12.4673C14.9969 12.5316 15.332 12.4986 15.6365 12.3725C15.9411 12.2463 16.2014 12.0327 16.3845 11.7586C16.5677 11.4845 16.6654 11.1623 16.6654 10.8327C16.6654 10.3906 16.4898 9.96674 16.1773 9.65418C15.8647 9.34162 15.4408 9.16602 14.9987 9.16602ZM19.9987 9.16602C19.6691 9.16602 19.3469 9.26377 19.0728 9.44691C18.7987 9.63003 18.5851 9.89034 18.4589 10.1949C18.3328 10.4994 18.2998 10.8345 18.3641 11.1578C18.4284 11.4811 18.5871 11.7781 18.8202 12.0112C19.0533 12.2443 19.3503 12.403 19.6736 12.4673C19.9969 12.5316 20.332 12.4986 20.6365 12.3725C20.9411 12.2463 21.2014 12.0327 21.3845 11.7586C21.5677 11.4845 21.6654 11.1623 21.6654 10.8327C21.6654 10.3906 21.4898 9.96674 21.1772 9.65418C20.8647 9.34162 20.4408 9.16602 19.9987 9.16602ZM19.9987 9.16602C19.6691 9.16602 19.3469 9.26377 19.0728 9.44691C18.7987 9.63003 18.5851 9.89034 18.4589 10.1949C18.3328 10.4994 18.2998 10.8345 18.3641 11.1578C18.4284 11.4811 18.5871 11.7781 18.8202 12.0112C19.0533 12.2443 19.3503 12.403 19.6736 12.4673C19.9969 12.5316 20.332 12.4986 20.6365 12.3725C20.9411 12.2463 21.2014 12.0327 21.3845 11.7586C21.5677 11.4845 21.6654 11.1623 21.6654 10.8327C21.6654 10.3906 21.4898 9.96674 21.1772 9.65418C20.8647 9.34162 20.4408 9.16602 19.9987 9.16602ZM14.9987 9.16602C14.6691 9.16602 14.3469 9.26377 14.0728 9.44691C13.7987 9.63003 13.5851 9.89034 13.4589 10.1949C13.3328 10.4994 13.2998 10.8345 13.3641 11.1578C13.4284 11.4811 13.5871 11.7781 13.8202 12.0112C14.0533 12.2443 14.3503 12.403 14.6736 12.4673C14.9969 12.5316 15.332 12.4986 15.6365 12.3725C15.9411 12.2463 16.2014 12.0327 16.3845 11.7586C16.5677 11.4845 16.6654 11.1623 16.6654 10.8327C16.6654 10.3906 16.4898 9.96674 16.1773 9.65418C15.8647 9.34162 15.4408 9.16602 14.9987 9.16602ZM9.99866 9.16602C9.66906 9.16602 9.34683 9.26377 9.07275 9.44691C8.79867 9.63003 8.58505 9.89034 8.4589 10.1949C8.33276 10.4994 8.29975 10.8345 8.36406 11.1578C8.42837 11.4811 8.5871 11.7781 8.82019 12.0112C9.05328 12.2443 9.35025 12.403 9.67355 12.4673C9.99685 12.5316 10.332 12.4986 10.6365 12.3725C10.9411 12.2463 11.2014 12.0327 11.3845 11.7586C11.5677 11.4845 11.6654 11.1623 11.6654 10.8327C11.6654 10.3906 11.4898 9.96674 11.1773 9.65418C10.8647 9.34162 10.4408 9.16602 9.99866 9.16602ZM33.3321 4.16602H6.66537C5.78131 4.16602 4.93347 4.51721 4.30834 5.14233C3.68322 5.76746 3.33203 6.6153 3.33203 7.49936V32.4993C3.33203 33.3834 3.68322 34.2312 4.30834 34.8564C4.93347 35.4815 5.78131 35.8327 6.66537 35.8327H33.3321C34.2161 35.8327 35.064 35.4815 35.6891 34.8564C36.3142 34.2312 36.6654 33.3834 36.6654 32.4993V7.49936C36.6654 6.6153 36.3142 5.76746 35.6891 5.14233C35.064 4.51721 34.2161 4.16602 33.3321 4.16602ZM33.3321 32.4993H6.66537V17.4993H33.3321V32.4993ZM33.3321 14.166H6.66537V7.49936H33.3321V14.166ZM19.9987 12.4993C20.3284 12.4993 20.6506 12.4016 20.9247 12.2185C21.1988 12.0353 21.4124 11.775 21.5385 11.4705C21.6647 11.1659 21.6977 10.8308 21.6334 10.5075C21.5691 10.1842 21.4103 9.88727 21.1772 9.65418C20.9442 9.42109 20.6472 9.26236 20.3239 9.19805C20.0006 9.13374 19.6655 9.16675 19.3609 9.29289C19.0564 9.41904 18.7961 9.63266 18.613 9.90674C18.4298 10.1808 18.3321 10.503 18.3321 10.8327C18.3321 11.2747 18.5077 11.6986 18.8202 12.0112C19.1328 12.3237 19.5567 12.4993 19.9987 12.4993ZM14.9987 12.4993C15.3284 12.4993 15.6506 12.4016 15.9247 12.2185C16.1988 12.0353 16.4124 11.775 16.5385 11.4705C16.6647 11.1659 16.6977 10.8308 16.6334 10.5075C16.5691 10.1842 16.4103 9.88727 16.1773 9.65418C15.9442 9.42109 15.6472 9.26236 15.3239 9.19805C15.0006 9.13374 14.6655 9.16675 14.3609 9.29289C14.0564 9.41904 13.7961 9.63266 13.613 9.90674C13.4298 10.1808 13.3321 10.503 13.3321 10.8327C13.3321 11.2747 13.5077 11.6986 13.8202 12.0112C14.1328 12.3237 14.5567 12.4993 14.9987 12.4993ZM9.99866 12.4993C10.3284 12.4993 10.6506 12.4016 10.9247 12.2185C11.1988 12.0353 11.4124 11.775 11.5385 11.4705C11.6647 11.1659 11.6977 10.8308 11.6334 10.5075C11.5691 10.1842 11.4103 9.88727 11.1773 9.65418C10.9442 9.42109 10.6472 9.26236 10.3239 9.19805C10.0006 9.13374 9.66544 9.16675 9.36089 9.29289C9.05635 9.41904 8.79605 9.63266 8.61292 9.90674C8.42978 10.1808 8.33203 10.503 8.33203 10.8327C8.33203 11.2747 8.50763 11.6986 8.82019 12.0112C9.13275 12.3237 9.55667 12.4993 9.99866 12.4993ZM9.99866 9.16602C9.66906 9.16602 9.34683 9.26377 9.07275 9.44691C8.79867 9.63003 8.58505 9.89034 8.4589 10.1949C8.33276 10.4994 8.29975 10.8345 8.36406 11.1578C8.42837 11.4811 8.5871 11.7781 8.82019 12.0112C9.05328 12.2443 9.35025 12.403 9.67355 12.4673C9.99685 12.5316 10.332 12.4986 10.6365 12.3725C10.9411 12.2463 11.2014 12.0327 11.3845 11.7586C11.5677 11.4845 11.6654 11.1623 11.6654 10.8327C11.6654 10.3906 11.4898 9.96674 11.1773 9.65418C10.8647 9.34162 10.4408 9.16602 9.99866 9.16602ZM14.9987 9.16602C14.6691 9.16602 14.3469 9.26377 14.0728 9.44691C13.7987 9.63003 13.5851 9.89034 13.4589 10.1949C13.3328 10.4994 13.2998 10.8345 13.3641 11.1578C13.4284 11.4811 13.5871 11.7781 13.8202 12.0112C14.0533 12.2443 14.3503 12.403 14.6736 12.4673C14.9969 12.5316 15.332 12.4986 15.6365 12.3725C15.9411 12.2463 16.2014 12.0327 16.3845 11.7586C16.5677 11.4845 16.6654 11.1623 16.6654 10.8327C16.6654 10.3906 16.4898 9.96674 16.1773 9.65418C15.8647 9.34162 15.4408 9.16602 14.9987 9.16602ZM19.9987 9.16602C19.6691 9.16602 19.3469 9.26377 19.0728 9.44691C18.7987 9.63003 18.5851 9.89034 18.4589 10.1949C18.3328 10.4994 18.2998 10.8345 18.3641 11.1578C18.4284 11.4811 18.5871 11.7781 18.8202 12.0112C19.0533 12.2443 19.3503 12.403 19.6736 12.4673C19.9969 12.5316 20.332 12.4986 20.6365 12.3725C20.9411 12.2463 21.2014 12.0327 21.3845 11.7586C21.5677 11.4845 21.6654 11.1623 21.6654 10.8327C21.6654 10.3906 21.4898 9.96674 21.1772 9.65418C20.8647 9.34162 20.4408 9.16602 19.9987 9.16602Z" fill="#FC5185"/>
</svg>
