<svg width="68" height="68" viewBox="0 0 68 68" fill="none" xmlns="http://www.w3.org/2000/svg">
<mask id="mask0_1619_6606" style="mask-type:luminance" maskUnits="userSpaceOnUse" x="1" y="1" width="67" height="67">
<path d="M68 1H1V68H68V1Z" fill="white"/>
</mask>
<g mask="url(#mask0_1619_6606)">
<mask id="mask1_1619_6606" style="mask-type:luminance" maskUnits="userSpaceOnUse" x="1" y="1" width="67" height="67">
<path d="M68 1H1V68H68V1Z" fill="white"/>
</mask>
<g mask="url(#mask1_1619_6606)">
<path d="M61.3822 46.2335L59.1314 43.9827C58.3647 43.2165 57.1219 43.2165 56.3552 43.9827C51.6853 48.6524 45.6932 51.2129 39.573 51.6656V47.2206C50.7156 46.095 59.4412 36.6608 59.4412 25.2265C59.4412 13.0381 49.5261 3.12187 37.3381 3.11983H37.3345H37.3314C25.1432 3.12187 15.2279 13.0381 15.2279 25.2265C15.2279 36.849 24.243 46.4048 35.6477 47.2698V51.6679C29.5197 51.2194 23.5187 48.6584 18.8435 43.9827C8.50099 33.6408 8.50099 16.8131 18.8435 6.47055C19.6097 5.70432 19.6097 4.46165 18.8435 3.6949L16.5928 1.44421C15.826 0.677451 14.5834 0.677451 13.8166 1.44421C13.0504 2.21045 13.0498 3.45312 13.8166 4.21986L14.7229 5.12669C9.82442 10.6862 7.14844 17.7506 7.14844 25.2265C7.14844 33.3601 10.3156 41.0073 16.0673 46.7585C21.3559 52.0475 28.248 55.1494 35.6473 55.6139V58.3243H24.8507C23.7666 58.3243 22.8879 59.2034 22.8879 60.2872V65.9065C22.8879 66.9901 23.7666 67.8694 24.8507 67.8694H49.8184C50.9025 67.8694 51.7813 66.9901 51.7813 65.9065V60.2872C51.7813 59.2034 50.9025 58.3243 49.8184 58.3243H39.573V55.6139C46.3132 55.1856 52.6318 52.5686 57.6996 48.1028L58.6059 49.0098C59.3726 49.776 60.6153 49.776 61.3822 49.0098C62.1482 48.243 62.1482 47.0002 61.3822 46.2335ZM34.0366 13.1919C35.1908 11.0558 36.42 9.3137 37.3345 8.13492C38.2491 9.31419 39.4783 11.0563 40.6327 13.1919H34.0366ZM42.4288 17.1177C43.1426 19.0193 43.6884 21.0911 43.9017 23.2635H30.7677C30.9807 21.0911 31.5265 19.0193 32.2396 17.1177H42.4288ZM30.7677 27.1894H43.9017C43.6884 29.3622 43.1426 31.4341 42.4288 33.3355H32.2403C31.5265 31.4341 30.9807 29.3622 30.7677 27.1894ZM40.6321 37.2615C39.4783 39.397 38.2491 41.1397 37.3345 42.318C36.42 41.1393 35.1908 39.397 34.037 37.2615H40.6321ZM53.6035 33.3355H46.5975C47.2144 31.4158 47.668 29.3526 47.8442 27.1894H55.4096C55.1733 29.3772 54.5477 31.4495 53.6035 33.3355ZM47.8442 23.2635C47.668 21.1008 47.2144 19.0377 46.598 17.1177H53.6035C54.5477 19.004 55.1733 21.0762 55.4096 23.2635H47.8442ZM21.0655 17.1177H28.0711C27.4547 19.0377 27.0011 21.1008 26.8249 23.2635H19.2596C19.4957 21.0762 20.1214 19.004 21.0655 17.1177ZM26.8249 27.1894C27.0011 29.3526 27.4547 31.4158 28.0711 33.3355H21.0655C20.1214 31.4495 19.4957 29.3772 19.2596 27.1894H26.8249ZM41.8287 42.8455C42.8685 41.338 44.0243 39.4453 45.0476 37.2615H50.9496C48.5707 39.9498 45.411 41.931 41.8287 42.8455ZM45.0476 13.1919C44.0243 11.0082 42.869 9.11535 41.8287 7.60841C45.411 8.5224 48.5711 10.5037 50.9496 13.1919H45.0476ZM32.8404 7.60841C31.8001 9.11535 30.6448 11.0082 29.6215 13.1919H23.7195C26.098 10.5037 29.2581 8.5224 32.8404 7.60841ZM29.6215 37.2615C30.6448 39.4453 31.8001 41.338 32.8404 42.8455C29.2581 41.931 26.098 39.9498 23.7195 37.2615H29.6215ZM47.8556 63.9436H26.8135V62.2501H47.8556V63.9436Z" fill="#FC5185"/>
</g>
</g>
</svg>
