<svg width="67" height="54" viewBox="0 0 67 54" fill="none" xmlns="http://www.w3.org/2000/svg">
<path d="M52.0095 50.4844H14.6707C14.4124 50.4844 14.2031 50.6937 14.2031 50.9519V53.0784C14.2031 53.3367 14.4124 53.546 14.6707 53.546H52.0095C52.2677 53.546 52.477 53.3367 52.477 53.0784V50.9519C52.477 50.6937 52.2677 50.4844 52.0095 50.4844Z" fill="#F51624"/>
<path d="M64.3777 0.460938H2.30807C1.69606 0.460937 1.1091 0.704006 0.676279 1.13669C0.243454 1.56938 0.000196472 2.15625 0 2.76826V39.8315C0 40.4436 0.243171 41.0307 0.676017 41.4635C1.10886 41.8964 1.69593 42.1395 2.30807 42.1395H30.6591V48.6844H36.0273V42.1395H64.3777C64.9898 42.1395 65.5769 41.8964 66.0097 41.4635C66.4426 41.0307 66.6857 40.4436 66.6857 39.8315V2.76826C66.6855 2.15625 66.4423 1.56938 66.0095 1.13669C65.5766 0.704006 64.9897 0.460937 64.3777 0.460938ZM63.5182 38.9712H3.16831V3.62777H63.5182V38.9712Z" fill="#F51624"/>
<path d="M50.4189 24.6555L47.1699 23.2566C47.1382 23.2426 47.1033 23.238 47.0691 23.2432L42.8775 23.9968C42.8187 22.8222 42.6125 21.6597 42.264 20.5365L47.0061 17.2445C47.0459 17.2154 47.0726 17.1717 47.0802 17.123L47.8019 13.1715C47.8297 13.0829 47.8384 12.9894 47.8273 12.8972C47.8162 12.8051 47.7857 12.7163 47.7377 12.6368C47.6897 12.5574 47.6254 12.489 47.549 12.4362C47.4726 12.3835 47.3859 12.3476 47.2945 12.331C47.2032 12.3143 47.1094 12.3172 47.0193 12.3396C46.9292 12.3619 46.8449 12.4032 46.7719 12.4606C46.6989 12.518 46.639 12.5902 46.5961 12.6726C46.5532 12.7549 46.5283 12.8454 46.523 12.9381L45.8836 16.4368L41.792 19.2762C40.1923 15.5425 37.0121 12.9959 33.3452 12.9959C29.6656 12.9959 26.4743 15.5625 24.8813 19.3206L20.9172 16.5702L20.2777 13.0714C20.2724 12.9788 20.2475 12.8882 20.2046 12.8059C20.1617 12.7236 20.1018 12.6513 20.0288 12.5939C19.9559 12.5365 19.8715 12.4953 19.7814 12.4729C19.6913 12.4506 19.5975 12.4477 19.5062 12.4643C19.4149 12.481 19.3281 12.5169 19.2517 12.5696C19.1753 12.6224 19.111 12.6907 19.063 12.7702C19.015 12.8497 18.9845 12.9384 18.9734 13.0306C18.9624 13.1228 18.971 13.2163 18.9988 13.3048L19.7205 17.2563C19.7281 17.3051 19.7548 17.3488 19.7946 17.3779L24.4152 20.584C24.0753 21.6942 23.8742 22.8423 23.8165 24.002L19.602 23.2477C19.5678 23.2424 19.5328 23.2471 19.5012 23.261L16.2521 24.6599C16.0938 24.7281 15.9691 24.8564 15.9054 25.0166C15.8417 25.1767 15.8442 25.3556 15.9124 25.5139C15.9806 25.6722 16.1089 25.7969 16.269 25.8606C16.4292 25.9243 16.6081 25.9218 16.7663 25.8536L19.7035 24.5888L23.8084 25.3238C23.8511 26.4889 24.038 27.6442 24.3648 28.7633L19.7961 31.9331C19.7563 31.9622 19.7296 32.0059 19.722 32.0546L19.0003 36.0061C18.9725 36.0947 18.9639 36.1882 18.9749 36.2804C18.986 36.3725 19.0165 36.4613 19.0645 36.5408C19.1125 36.6203 19.1768 36.6886 19.2532 36.7414C19.3296 36.7941 19.4163 36.83 19.5077 36.8467C19.599 36.8633 19.6928 36.8604 19.7829 36.838C19.873 36.8157 19.9574 36.7745 20.0303 36.717C20.1033 36.6596 20.1632 36.5874 20.2061 36.5051C20.249 36.4227 20.2739 36.3322 20.2792 36.2395L20.9186 32.7408L24.8212 30.0311C26.3906 33.8752 29.6197 36.5144 33.3511 36.5144C37.1011 36.5144 40.3449 33.847 41.9054 29.9726L45.888 32.7363L46.5275 36.2351C46.5327 36.3278 46.5577 36.4183 46.6006 36.5006C46.6435 36.5829 46.7034 36.6552 46.7763 36.7126C46.8493 36.77 46.9336 36.8113 47.0237 36.8336C47.1138 36.8559 47.2077 36.8589 47.299 36.8422C47.3903 36.8255 47.4771 36.7897 47.5535 36.7369C47.6299 36.6842 47.6942 36.6158 47.7422 36.5363C47.7901 36.4569 47.8207 36.3681 47.8317 36.2759C47.8428 36.1837 47.8341 36.0903 47.8063 36.0017L47.0846 32.0502C47.077 32.0015 47.0504 31.9578 47.0106 31.9287L42.3507 28.6952C42.6668 27.5944 42.848 26.4594 42.8901 25.3149L46.9705 24.5844L49.9077 25.8492C50.066 25.9174 50.2449 25.9199 50.405 25.8562C50.5652 25.7924 50.6934 25.6677 50.7616 25.5094C50.8298 25.3511 50.8323 25.1723 50.7686 25.0121C50.7049 24.852 50.5802 24.7237 50.4219 24.6555H50.4189Z" fill="#17494D"/>
<path d="M24.0971 5.82624H24.106C25.4593 5.94047 26.7554 6.42305 27.8539 7.22164C28.9524 8.02024 29.8113 9.10436 30.3374 10.3564C29.7882 10.7012 29.316 11.1555 28.9503 11.691C28.5845 12.2264 28.3331 12.8315 28.2116 13.4684C29.7177 12.4105 31.5133 11.8429 33.3538 11.8429C35.1943 11.8429 36.99 12.4105 38.496 13.4684C38.376 12.8357 38.1276 12.2343 37.7662 11.7012C37.4048 11.1681 36.938 10.7148 36.3947 10.369C36.9187 9.11321 37.7773 8.02532 38.877 7.22389C39.9767 6.42246 41.2753 5.93825 42.6313 5.82402H42.6402C42.7588 5.82402 42.8725 5.77691 42.9564 5.69305C43.0402 5.60919 43.0873 5.49545 43.0873 5.37685C43.0873 5.25826 43.0402 5.14452 42.9564 5.06066C42.8725 4.9768 42.7588 4.92969 42.6402 4.92969H42.6313L42.5972 4.93413C42.579 4.93526 42.561 4.93749 42.5431 4.9408C41.0427 5.07199 39.6056 5.60595 38.3836 6.48628C37.1616 7.36661 36.2 8.56063 35.6004 9.94223C34.8952 9.63749 34.1353 9.47942 33.3671 9.47764C32.5989 9.47585 31.8383 9.63039 31.1317 9.93186C30.5307 8.5529 29.5689 7.36152 28.3478 6.48317C27.1266 5.60482 25.6912 5.07199 24.1927 4.9408C24.1748 4.93749 24.1567 4.93526 24.1386 4.93413L24.1045 4.92969H24.0956C23.977 4.92969 23.8633 4.9768 23.7794 5.06066C23.6955 5.14452 23.6484 5.25826 23.6484 5.37685C23.6484 5.49545 23.6955 5.60919 23.7794 5.69305C23.8633 5.77691 23.977 5.82402 24.0956 5.82402L24.0971 5.82624Z" fill="#17494D"/>
</svg>
