<svg width="63" height="63" viewBox="0 0 63 63" fill="none" xmlns="http://www.w3.org/2000/svg">
<g clip-path="url(#clip0_4269_346759)">
<g clip-path="url(#clip1_4269_346759)">
<path d="M57.75 2.625H5.25C3.85761 2.625 2.52226 3.17812 1.53769 4.16269C0.553123 5.14726 0 6.48261 0 7.875L0 44.625C0 46.0174 0.553123 47.3527 1.53769 48.3373C2.52226 49.3219 3.85761 49.875 5.25 49.875H11.1825C10.7823 49.0273 10.4488 48.1496 10.185 47.25H5.25C4.55381 47.25 3.88613 46.9734 3.39384 46.4812C2.90156 45.9889 2.625 45.3212 2.625 44.625V13.125H60.375V44.625C60.375 45.3212 60.0984 45.9889 59.6062 46.4812C59.1139 46.9734 58.4462 47.25 57.75 47.25H52.815C52.5512 48.1496 52.2177 49.0273 51.8175 49.875H57.75C59.1424 49.875 60.4777 49.3219 61.4623 48.3373C62.4469 47.3527 63 46.0174 63 44.625V7.875C63 6.48261 62.4469 5.14726 61.4623 4.16269C60.4777 3.17812 59.1424 2.625 57.75 2.625ZM6.5625 9.1875C6.2144 9.1875 5.88056 9.04922 5.63442 8.80308C5.38828 8.55694 5.25 8.2231 5.25 7.875C5.25 7.5269 5.38828 7.19306 5.63442 6.94692C5.88056 6.70078 6.2144 6.5625 6.5625 6.5625C6.9106 6.5625 7.24444 6.70078 7.49058 6.94692C7.73672 7.19306 7.875 7.5269 7.875 7.875C7.875 8.2231 7.73672 8.55694 7.49058 8.80308C7.24444 9.04922 6.9106 9.1875 6.5625 9.1875ZM11.8125 9.1875C11.4644 9.1875 11.1306 9.04922 10.8844 8.80308C10.6383 8.55694 10.5 8.2231 10.5 7.875C10.5 7.5269 10.6383 7.19306 10.8844 6.94692C11.1306 6.70078 11.4644 6.5625 11.8125 6.5625C12.1606 6.5625 12.4944 6.70078 12.7406 6.94692C12.9867 7.19306 13.125 7.5269 13.125 7.875C13.125 8.2231 12.9867 8.55694 12.7406 8.80308C12.4944 9.04922 12.1606 9.1875 11.8125 9.1875ZM17.0625 9.1875C16.7144 9.1875 16.3806 9.04922 16.1344 8.80308C15.8883 8.55694 15.75 8.2231 15.75 7.875C15.75 7.5269 15.8883 7.19306 16.1344 6.94692C16.3806 6.70078 16.7144 6.5625 17.0625 6.5625C17.4106 6.5625 17.7444 6.70078 17.9906 6.94692C18.2367 7.19306 18.375 7.5269 18.375 7.875C18.375 8.2231 18.2367 8.55694 17.9906 8.80308C17.7444 9.04922 17.4106 9.1875 17.0625 9.1875Z" fill="#F51624"/>
<path d="M22.1681 34.8469C22.058 34.6319 21.8906 34.4515 21.6845 34.3255C21.4784 34.1995 21.2416 34.1328 21 34.1328C20.7584 34.1328 20.5216 34.1995 20.3155 34.3255C20.1094 34.4515 19.942 34.6319 19.8319 34.8469L17.2069 40.0969C17.0625 40.4775 17.0625 40.2806 17.0625 45.9375C17.0625 46.2856 17.2008 46.6194 17.4469 46.8656C17.6931 47.1117 18.0269 47.25 18.375 47.25C18.7231 47.25 19.0569 47.1117 19.3031 46.8656C19.5492 46.6194 19.6875 46.2856 19.6875 45.9375V43.3125H22.3125V45.9375C22.3125 46.2856 22.4508 46.6194 22.6969 46.8656C22.9431 47.1117 23.2769 47.25 23.625 47.25C23.9731 47.25 24.3069 47.1117 24.5531 46.8656C24.7992 46.6194 24.9375 46.2856 24.9375 45.9375V40.6875C24.9375 40.2413 25.0031 40.5169 22.1681 34.8469ZM21 38.3775L22.155 40.6875H19.845L21 38.3775ZM31.5 34.125H28.875C28.5269 34.125 28.1931 34.2633 27.9469 34.5094C27.7008 34.7556 27.5625 35.0894 27.5625 35.4375V45.9375C27.5625 46.2856 27.7008 46.6194 27.9469 46.8656C28.1931 47.1117 28.5269 47.25 28.875 47.25H31.5C32.5443 47.25 33.5458 46.8352 34.2842 46.0967C35.0227 45.3583 35.4375 44.3568 35.4375 43.3125V38.0625C35.4375 37.0182 35.0227 36.0167 34.2842 35.2783C33.5458 34.5398 32.5443 34.125 31.5 34.125ZM32.8125 43.3125C32.8125 43.6606 32.6742 43.9944 32.4281 44.2406C32.1819 44.4867 31.8481 44.625 31.5 44.625H30.1875V36.75H31.5C31.8481 36.75 32.1819 36.8883 32.4281 37.1344C32.6742 37.3806 32.8125 37.7144 32.8125 38.0625V43.3125ZM42 39.375C41.6519 39.375 41.3181 39.2367 41.0719 38.9906C40.8258 38.7444 40.6875 38.4106 40.6875 38.0625C40.6875 37.7144 40.8258 37.3806 41.0719 37.1344C41.3181 36.8883 41.6519 36.75 42 36.75H44.625C44.9731 36.75 45.3069 36.6117 45.5531 36.3656C45.7992 36.1194 45.9375 35.7856 45.9375 35.4375C45.9375 35.0894 45.7992 34.7556 45.5531 34.5094C45.3069 34.2633 44.9731 34.125 44.625 34.125H42C40.9557 34.125 39.9542 34.5398 39.2158 35.2783C38.4773 36.0167 38.0625 37.0182 38.0625 38.0625C38.0625 39.1068 38.4773 40.1083 39.2158 40.8467C39.9542 41.5852 40.9557 42 42 42C42.3481 42 42.6819 42.1383 42.9281 42.3844C43.1742 42.6306 43.3125 42.9644 43.3125 43.3125C43.3125 43.6606 43.1742 43.9944 42.9281 44.2406C42.6819 44.4867 42.3481 44.625 42 44.625H39.375C39.0269 44.625 38.6931 44.7633 38.4469 45.0094C38.2008 45.2556 38.0625 45.5894 38.0625 45.9375C38.0625 46.2856 38.2008 46.6194 38.4469 46.8656C38.6931 47.1117 39.0269 47.25 39.375 47.25H42C43.0443 47.25 44.0458 46.8352 44.7842 46.0967C45.5227 45.3583 45.9375 44.3568 45.9375 43.3125C45.9375 42.2682 45.5227 41.2667 44.7842 40.5283C44.0458 39.7898 43.0443 39.375 42 39.375Z" fill="#F51624"/>
<path d="M45.4519 26.8127C34.3481 14.6327 11.8125 22.4946 11.8125 40.6858C11.8125 45.9073 13.8867 50.9149 17.5788 54.607C21.271 58.2991 26.2786 60.3733 31.5 60.3733C48.9956 60.3733 57.75 39.1633 45.4519 26.8127ZM31.5 23.6233C35.5701 23.6303 39.5036 25.092 42.5906 27.7446L18.5588 51.7764C16.4401 49.2994 15.0752 46.2674 14.6257 43.039C14.1761 39.8106 14.6607 36.5211 16.0221 33.5595C17.3834 30.5978 19.5646 28.0882 22.3076 26.3273C25.0506 24.5664 28.2405 23.6281 31.5 23.6233ZM31.5 57.7483C27.4299 57.7413 23.4964 56.2796 20.4094 53.6271L44.4412 29.5952C46.5599 32.0722 47.9248 35.1043 48.3743 38.3326C48.8239 41.561 48.3393 44.8506 46.9779 47.8122C45.6166 50.7738 43.4354 53.2835 40.6924 55.0443C37.9494 56.8052 34.7595 57.7435 31.5 57.7483Z" fill="#0C3C40"/>
</g>
</g>
<defs>
<clipPath id="clip0_4269_346759">
<rect width="63" height="63" fill="white"/>
</clipPath>
<clipPath id="clip1_4269_346759">
<rect width="63" height="63" fill="white"/>
</clipPath>
</defs>
</svg>
