<svg width="63" height="63" viewBox="0 0 63 63" fill="none" xmlns="http://www.w3.org/2000/svg">
<rect x="10.9844" y="30.9062" width="40.2835" height="27.029" rx="1" fill="#F51624"/>
<path d="M31.0078 0.304688C29.8549 0.304688 28.6664 0.914593 27.4398 1.83286C26.2132 2.74977 24.9606 4.00915 23.8199 5.45546C21.5399 8.34808 19.6816 11.9638 19.6816 15.1771C19.6816 17.9033 20.7581 20.3279 22.3654 22.2818L16.5133 25.2085C15.6524 25.6397 14.7286 26.0408 13.9605 26.6534C13.1923 27.2661 12.5878 28.1789 12.5878 29.3673V30.3224H11.9056C10.784 30.3224 9.85895 31.2475 9.85895 32.3691V56.2468H5.76562V58.2935C5.76562 60.171 7.29926 61.7046 9.17673 61.7046H52.8389C54.7164 61.7046 56.25 60.171 56.25 58.2935V56.2468H52.1567V32.3691C52.1567 31.2475 51.2316 30.3224 50.11 30.3224H49.4278V29.3673C49.4278 28.1789 48.8233 27.2661 48.0552 26.6521C47.287 26.0394 46.3633 25.6397 45.5023 25.2085L39.6502 22.2818C41.2575 20.3279 42.334 17.9033 42.334 15.1771C42.334 11.9638 40.4757 8.34944 38.1957 5.45546C37.055 4.00915 35.8025 2.74977 34.5758 1.8315C33.3492 0.914594 32.1608 0.304688 31.0078 0.304688ZM31.0078 1.66913C31.6286 1.66913 32.6561 2.10029 33.7585 2.92442C34.8596 3.74854 36.0467 4.93424 37.1232 6.30141C39.2791 9.03303 40.9696 12.5137 40.9696 15.1771C40.9696 17.8637 39.9053 20.2897 38.1793 22.0812L37.5339 22.7511L44.8951 26.4283C45.7915 26.8772 46.6402 27.2702 47.2051 27.7218C47.7714 28.1721 48.0633 28.5923 48.0633 29.3687V30.3224H13.9523V29.3673C13.9523 28.5923 14.2443 28.1721 14.8105 27.7218C15.3754 27.2715 16.2241 26.8772 17.1205 26.4283L24.4817 22.7511L23.8363 22.0826C22.0445 20.2307 21.0441 17.7539 21.0474 15.1771C21.0474 12.5124 22.7393 9.03166 24.8937 6.30005C25.9703 4.93288 27.1574 3.74854 28.2585 2.92305C29.3609 2.09893 30.3884 1.66776 31.0092 1.66776L31.0078 1.66913ZM31.0078 7.40115C28.9458 7.40332 26.9689 8.22341 25.5108 9.68147C24.0527 11.1395 23.2327 13.1165 23.2305 15.1785C23.2305 17.3425 24.1583 20.0577 25.5473 22.3254C26.9363 24.5918 28.8029 26.502 31.0078 26.502C33.2128 26.502 35.0793 24.5918 36.4683 22.3241C37.8573 20.0564 38.7838 17.3411 38.7838 15.1757C38.7838 10.8887 35.2949 7.40115 31.0078 7.40115ZM31.0078 8.7656C34.5581 8.7656 37.4207 11.6282 37.4207 15.1785C37.4207 16.9304 36.5747 19.5392 35.3031 21.6132C34.0328 23.6871 32.3504 25.1389 31.0078 25.1389C29.6652 25.1389 27.9828 23.6871 26.7125 21.6132C25.4409 19.5392 24.5963 16.9304 24.5963 15.1771C24.5963 11.6282 27.4575 8.7656 31.0078 8.7656ZM11.9056 31.6869H50.11C50.5002 31.6869 50.7922 31.9789 50.7922 32.3691V56.9291C50.7922 57.3193 50.5002 57.6113 50.11 57.6113H11.9056C11.8154 57.6135 11.7257 57.5974 11.6419 57.5639C11.5581 57.5304 11.482 57.4803 11.4182 57.4165C11.3544 57.3527 11.3042 57.2765 11.2708 57.1928C11.2373 57.109 11.2211 57.0193 11.2234 56.9291V32.3691C11.2234 31.9789 11.5154 31.6869 11.9056 31.6869ZM7.13007 57.6113H9.98721C10.2724 58.3999 11.0242 58.9757 11.9056 58.9757H50.11C50.9914 58.9757 51.7432 58.3999 52.0284 57.6113H54.8856V58.2935C54.8856 59.4396 53.985 60.3402 52.8389 60.3402H9.17673C8.0306 60.3402 7.13007 59.4396 7.13007 58.2935V57.6113Z" fill="#17494D"/>
</svg>
