<svg width="522" height="509" viewBox="0 0 522 509" fill="none" xmlns="http://www.w3.org/2000/svg">
<g clip-path="url(#clip0_4269_346152)">
<path d="M23.4864 156.365C23.4864 156.51 23.483 156.655 23.4769 156.8H0.509554C0.503389 156.654 0.5 156.508 0.5 156.362C0.5 150.019 5.6448 144.875 11.9932 144.875C18.3415 144.875 23.4864 150.019 23.4864 156.365Z" fill="#F8E5E6" stroke="#E7D7CF"/>
<path d="M62.8848 156.365C62.8848 156.511 62.8814 156.657 62.8752 156.803H39.908C39.9018 156.657 39.8984 156.511 39.8984 156.365C39.8984 150.019 45.0433 144.875 51.3916 144.875C57.74 144.875 62.8848 150.019 62.8848 156.365Z" fill="#F8E5E6" stroke="#E7D7CF"/>
<path d="M73.0956 156.799H57.1609C57.1526 156.654 57.1484 156.508 57.1484 156.361C57.1484 151.955 60.721 148.383 65.1288 148.383C69.5366 148.383 73.1091 151.955 73.1091 156.361C73.1091 156.507 73.1043 156.653 73.0956 156.799Z" fill="#F8E5E6" stroke="#E7D7CF"/>
<path d="M49.1953 155.065C49.1953 155.651 49.1656 156.23 49.1075 156.801H15.1425C15.0844 156.23 15.0547 155.651 15.0547 155.065C15.0547 145.642 22.6984 138 32.125 138C41.5516 138 49.1953 145.642 49.1953 155.065Z" fill="#F8E5E6" stroke="#E7D7CF"/>
<path d="M319.002 19.3646C319.002 19.5113 318.999 19.6571 318.992 19.8029H296.025C296.019 19.6571 296.016 19.5113 296.016 19.3646C296.016 13.0186 301.16 7.875 307.509 7.875C313.857 7.875 319.002 13.0186 319.002 19.3646Z" fill="#F8E5E6" stroke="#E7D7CF"/>
<path d="M358.4 19.3646C358.4 19.5113 358.397 19.6571 358.391 19.8029H335.424C335.417 19.6571 335.414 19.5113 335.414 19.3646C335.414 13.0186 340.559 7.875 346.907 7.875C353.256 7.875 358.4 13.0186 358.4 19.3646Z" fill="#F8E5E6" stroke="#E7D7CF"/>
<path d="M344.711 18.0651C344.711 18.6512 344.681 19.2297 344.623 19.8007H310.658C310.6 19.2297 310.57 18.6512 310.57 18.0651C310.57 8.64166 318.214 1 327.641 1C337.067 1 344.711 8.64166 344.711 18.0651Z" fill="#F8E5E6" stroke="#E7D7CF"/>
<path d="M256.456 157.977H252.134C251.814 157.977 251.555 157.718 251.555 157.398C251.555 157.078 251.814 156.819 252.134 156.819H256.456C256.776 156.819 257.035 157.078 257.035 157.398C257.035 157.718 256.776 157.977 256.456 157.977ZM247.813 157.977H243.491C243.171 157.977 242.912 157.718 242.912 157.398C242.912 157.078 243.171 156.819 243.491 156.819H247.813C248.133 156.819 248.392 157.078 248.392 157.398C248.392 157.718 248.133 157.977 247.813 157.977ZM239.169 157.977H234.848C234.528 157.977 234.268 157.718 234.268 157.398C234.268 157.078 234.528 156.819 234.848 156.819H239.169C239.489 156.819 239.749 157.078 239.749 157.398C239.749 157.718 239.489 157.977 239.169 157.977ZM230.526 157.977H226.204C225.884 157.977 225.625 157.718 225.625 157.398C225.625 157.078 225.884 156.819 226.204 156.819H230.526C230.846 156.819 231.105 157.078 231.105 157.398C231.105 157.718 230.846 157.977 230.526 157.977ZM221.883 157.977H217.561C217.241 157.977 216.982 157.718 216.982 157.398C216.982 157.078 217.241 156.819 217.561 156.819H221.883C222.203 156.819 222.462 157.078 222.462 157.398C222.462 157.718 222.203 157.977 221.883 157.977ZM213.239 157.977H208.918C208.598 157.977 208.338 157.718 208.338 157.398C208.338 157.078 208.598 156.819 208.918 156.819H213.239C213.559 156.819 213.819 157.078 213.819 157.398C213.819 157.718 213.559 157.977 213.239 157.977ZM204.596 157.977H200.274C199.955 157.977 199.695 157.718 199.695 157.398C199.695 157.078 199.955 156.819 200.274 156.819H204.596C204.916 156.819 205.176 157.078 205.176 157.398C205.176 157.718 204.916 157.977 204.596 157.977ZM195.953 157.977H191.631C191.311 157.977 191.052 157.718 191.052 157.398C191.052 157.078 191.311 156.819 191.631 156.819H195.953C196.273 156.819 196.532 157.078 196.532 157.398C196.532 157.718 196.273 157.977 195.953 157.977ZM187.309 157.977H182.988C182.668 157.977 182.408 157.718 182.408 157.398C182.408 157.078 182.668 156.819 182.988 156.819H187.309C187.629 156.819 187.889 157.078 187.889 157.398C187.889 157.718 187.629 157.977 187.309 157.977ZM178.666 157.977H174.345C174.025 157.977 173.765 157.718 173.765 157.398C173.765 157.078 174.025 156.819 174.345 156.819H178.666C178.986 156.819 179.246 157.078 179.246 157.398C179.246 157.718 178.986 157.977 178.666 157.977ZM170.023 157.977H165.701C165.381 157.977 165.122 157.718 165.122 157.398C165.122 157.078 165.381 156.819 165.701 156.819H170.023C170.343 156.819 170.602 157.078 170.602 157.398C170.602 157.718 170.343 157.977 170.023 157.977ZM161.38 157.977H157.058C156.738 157.977 156.478 157.718 156.478 157.398C156.478 157.078 156.738 156.819 157.058 156.819H161.38C161.699 156.819 161.959 157.078 161.959 157.398C161.959 157.718 161.699 157.977 161.38 157.977ZM152.736 157.977H148.415C148.095 157.977 147.835 157.718 147.835 157.398C147.835 157.078 148.095 156.819 148.415 156.819H152.736C153.056 156.819 153.316 157.078 153.316 157.398C153.316 157.718 153.056 157.977 152.736 157.977ZM144.093 157.977H139.771C139.451 157.977 139.192 157.718 139.192 157.398C139.192 157.078 139.451 156.819 139.771 156.819H144.093C144.413 156.819 144.672 157.078 144.672 157.398C144.672 157.718 144.413 157.977 144.093 157.977ZM135.45 157.977H131.128C130.808 157.977 130.549 157.718 130.549 157.398C130.549 157.078 130.808 156.819 131.128 156.819H135.45C135.77 156.819 136.029 157.078 136.029 157.398C136.029 157.718 135.77 157.977 135.45 157.977ZM126.806 157.977H122.485C122.165 157.977 121.905 157.718 121.905 157.398C121.905 157.078 122.165 156.819 122.485 156.819H126.806C127.126 156.819 127.386 157.078 127.386 157.398C127.386 157.718 127.126 157.977 126.806 157.977ZM118.163 157.977H113.841C113.521 157.977 113.262 157.718 113.262 157.398C113.262 157.078 113.521 156.819 113.841 156.819H118.163C118.483 156.819 118.742 157.078 118.742 157.398C118.742 157.718 118.483 157.977 118.163 157.977ZM109.52 157.977H105.198C104.878 157.977 104.619 157.718 104.619 157.398C104.619 157.078 104.878 156.819 105.198 156.819H109.52C109.84 156.819 110.099 157.078 110.099 157.398C110.099 157.718 109.84 157.977 109.52 157.977ZM100.876 157.977H100.173C98.8061 157.977 97.4903 157.495 96.4732 156.623C96.2318 156.415 96.2016 156.05 96.4098 155.808C96.6181 155.567 96.9832 155.537 97.2247 155.745C98.0335 156.439 99.0807 156.822 100.173 156.822H100.876C101.196 156.822 101.456 157.081 101.456 157.401C101.456 157.721 101.196 157.981 100.876 157.981V157.977ZM260.527 156.955C260.352 156.955 260.18 156.876 260.065 156.725C259.872 156.472 259.924 156.107 260.177 155.914C261.227 155.12 261.834 153.932 261.837 152.661C261.837 152.342 262.096 152.085 262.416 152.085C262.736 152.085 262.993 152.345 262.993 152.664C262.993 154.303 262.217 155.823 260.874 156.84C260.769 156.919 260.648 156.958 260.524 156.958L260.527 156.955ZM95.1966 152.933C94.8767 152.933 94.6172 152.674 94.6172 152.354V148.033C94.6172 147.714 94.8767 147.454 95.1966 147.454C95.5165 147.454 95.7761 147.714 95.7761 148.033V152.354C95.7761 152.674 95.5165 152.933 95.1966 152.933ZM262.416 148.92C262.096 148.92 261.837 148.661 261.837 148.341V144.021C261.837 143.701 262.096 143.441 262.416 143.441C262.736 143.441 262.996 143.701 262.996 144.021V148.341C262.996 148.661 262.736 148.92 262.416 148.92ZM95.1966 144.295C94.8767 144.295 94.6172 144.036 94.6172 143.716V139.396C94.6172 139.076 94.8767 138.816 95.1966 138.816C95.5165 138.816 95.7761 139.076 95.7761 139.396V143.716C95.7761 144.036 95.5165 144.295 95.1966 144.295ZM262.416 140.283C262.096 140.283 261.837 140.023 261.837 139.703V135.383C261.837 135.063 262.096 134.804 262.416 134.804C262.736 134.804 262.996 135.063 262.996 135.383V139.703C262.996 140.023 262.736 140.283 262.416 140.283ZM95.1966 135.658C94.8767 135.658 94.6172 135.398 94.6172 135.078V130.758C94.6172 130.438 94.8767 130.179 95.1966 130.179C95.5165 130.179 95.7761 130.438 95.7761 130.758V135.078C95.7761 135.398 95.5165 135.658 95.1966 135.658ZM262.416 131.645C262.096 131.645 261.837 131.385 261.837 131.066V126.745C261.837 126.425 262.096 126.166 262.416 126.166C262.736 126.166 262.996 126.425 262.996 126.745V131.066C262.996 131.385 262.736 131.645 262.416 131.645ZM95.1966 127.02C94.8767 127.02 94.6172 126.76 94.6172 126.441V122.12C94.6172 121.8 94.8767 121.541 95.1966 121.541C95.5165 121.541 95.7761 121.8 95.7761 122.12V126.441C95.7761 126.76 95.5165 127.02 95.1966 127.02ZM262.416 123.007C262.096 123.007 261.837 122.748 261.837 122.428V118.108C261.837 117.788 262.096 117.528 262.416 117.528C262.736 117.528 262.996 117.788 262.996 118.108V122.428C262.996 122.748 262.736 123.007 262.416 123.007ZM95.1966 118.382C94.8767 118.382 94.6172 118.123 94.6172 117.803V113.482C94.6172 113.163 94.8767 112.903 95.1966 112.903C95.5165 112.903 95.7761 113.163 95.7761 113.482V117.803C95.7761 118.123 95.5165 118.382 95.1966 118.382ZM262.416 114.369C262.096 114.369 261.837 114.11 261.837 113.79V109.47C261.837 109.15 262.096 108.891 262.416 108.891C262.736 108.891 262.996 109.15 262.996 109.47V113.79C262.996 114.11 262.736 114.369 262.416 114.369ZM95.1966 109.744C94.8767 109.744 94.6172 109.485 94.6172 109.165V104.845C94.6172 104.525 94.8767 104.265 95.1966 104.265C95.5165 104.265 95.7761 104.525 95.7761 104.845V109.165C95.7761 109.485 95.5165 109.744 95.1966 109.744ZM262.416 105.732C262.096 105.732 261.837 105.472 261.837 105.152V100.832C261.837 100.512 262.096 100.253 262.416 100.253C262.736 100.253 262.996 100.512 262.996 100.832V105.152C262.996 105.472 262.736 105.732 262.416 105.732ZM95.1966 101.107C94.8767 101.107 94.6172 100.847 94.6172 100.527V96.207C94.6172 95.8872 94.8767 95.6277 95.1966 95.6277C95.5165 95.6277 95.7761 95.8872 95.7761 96.207V100.527C95.7761 100.847 95.5165 101.107 95.1966 101.107ZM262.416 97.094C262.096 97.094 261.837 96.8345 261.837 96.5147V92.1943C261.837 91.8745 262.096 91.6151 262.416 91.6151C262.736 91.6151 262.996 91.8745 262.996 92.1943V96.5147C262.996 96.8345 262.736 97.094 262.416 97.094ZM95.1966 92.4689C94.8767 92.4689 94.6172 92.2094 94.6172 91.8896V87.5693C94.6172 87.2494 94.8767 86.99 95.1966 86.99C95.5165 86.99 95.7761 87.2494 95.7761 87.5693V91.8896C95.7761 92.2094 95.5165 92.4689 95.1966 92.4689ZM262.416 88.4563C262.096 88.4563 261.837 88.1968 261.837 87.877V83.5566C261.837 83.2368 262.096 82.9773 262.416 82.9773C262.736 82.9773 262.996 83.2368 262.996 83.5566V87.877C262.996 88.1968 262.736 88.4563 262.416 88.4563ZM95.1966 83.8312C94.8767 83.8312 94.6172 83.5717 94.6172 83.2519V78.9315C94.6172 78.6117 94.8767 78.3523 95.1966 78.3523C95.5165 78.3523 95.7761 78.6117 95.7761 78.9315V83.2519C95.7761 83.5717 95.5165 83.8312 95.1966 83.8312ZM262.416 79.8185C262.096 79.8185 261.837 79.5591 261.837 79.2393V74.9189C261.837 74.5991 262.096 74.3396 262.416 74.3396C262.736 74.3396 262.996 74.5991 262.996 74.9189V79.2393C262.996 79.5591 262.736 79.8185 262.416 79.8185ZM95.1966 75.1934C94.8767 75.1934 94.6172 74.934 94.6172 74.6142V70.2938C94.6172 69.974 94.8767 69.7055 95.1966 69.7055C95.5165 69.7055 95.7761 69.9559 95.7761 70.2727V74.6112C95.7761 74.931 95.5165 75.1904 95.1966 75.1904V75.1934ZM262.416 71.1808C262.096 71.1808 261.837 70.9213 261.837 70.6015V70.2938C261.837 69.1202 261.312 67.9948 260.394 67.2074C260.153 66.9992 260.126 66.6341 260.334 66.3928C260.542 66.1514 260.907 66.1243 261.149 66.3324C262.32 67.3401 262.993 68.7853 262.993 70.2968V70.6045C262.993 70.9244 262.733 71.1838 262.413 71.1838L262.416 71.1808ZM97.0949 67.144C96.9199 67.144 96.7448 67.0656 96.6332 66.9147C96.44 66.6583 96.4913 66.2962 96.7478 66.1031C97.7347 65.361 98.9177 64.9688 100.173 64.9688H101.196C101.516 64.9688 101.776 65.2282 101.776 65.548C101.776 65.8678 101.516 66.1273 101.196 66.1273H100.173C99.1712 66.1273 98.2266 66.438 97.445 67.0294C97.3394 67.1078 97.2186 67.147 97.0979 67.147L97.0949 67.144ZM256.749 66.1273H252.427C252.107 66.1273 251.848 65.8678 251.848 65.548C251.848 65.2282 252.107 64.9688 252.427 64.9688H256.749C257.069 64.9688 257.328 65.2282 257.328 65.548C257.328 65.8678 257.069 66.1273 256.749 66.1273ZM248.105 66.1273H243.784C243.464 66.1273 243.204 65.8678 243.204 65.548C243.204 65.2282 243.464 64.9688 243.784 64.9688H248.105C248.425 64.9688 248.685 65.2282 248.685 65.548C248.685 65.8678 248.425 66.1273 248.105 66.1273ZM239.462 66.1273H235.14C234.821 66.1273 234.561 65.8678 234.561 65.548C234.561 65.2282 234.821 64.9688 235.14 64.9688H239.462C239.782 64.9688 240.042 65.2282 240.042 65.548C240.042 65.8678 239.782 66.1273 239.462 66.1273ZM230.819 66.1273H226.497C226.177 66.1273 225.918 65.8678 225.918 65.548C225.918 65.2282 226.177 64.9688 226.497 64.9688H230.819C231.139 64.9688 231.398 65.2282 231.398 65.548C231.398 65.8678 231.139 66.1273 230.819 66.1273ZM222.175 66.1273H217.854C217.534 66.1273 217.274 65.8678 217.274 65.548C217.274 65.2282 217.534 64.9688 217.854 64.9688H222.175C222.495 64.9688 222.755 65.2282 222.755 65.548C222.755 65.8678 222.495 66.1273 222.175 66.1273ZM213.532 66.1273H209.21C208.891 66.1273 208.631 65.8678 208.631 65.548C208.631 65.2282 208.891 64.9688 209.21 64.9688H213.532C213.852 64.9688 214.112 65.2282 214.112 65.548C214.112 65.8678 213.852 66.1273 213.532 66.1273ZM204.889 66.1273H200.567C200.247 66.1273 199.988 65.8678 199.988 65.548C199.988 65.2282 200.247 64.9688 200.567 64.9688H204.889C205.209 64.9688 205.468 65.2282 205.468 65.548C205.468 65.8678 205.209 66.1273 204.889 66.1273ZM196.246 66.1273H191.924C191.604 66.1273 191.344 65.8678 191.344 65.548C191.344 65.2282 191.604 64.9688 191.924 64.9688H196.246C196.565 64.9688 196.825 65.2282 196.825 65.548C196.825 65.8678 196.565 66.1273 196.246 66.1273ZM187.602 66.1273H183.281C182.961 66.1273 182.701 65.8678 182.701 65.548C182.701 65.2282 182.961 64.9688 183.281 64.9688H187.602C187.922 64.9688 188.182 65.2282 188.182 65.548C188.182 65.8678 187.922 66.1273 187.602 66.1273ZM178.959 66.1273H174.637C174.317 66.1273 174.058 65.8678 174.058 65.548C174.058 65.2282 174.317 64.9688 174.637 64.9688H178.959C179.279 64.9688 179.538 65.2282 179.538 65.548C179.538 65.8678 179.279 66.1273 178.959 66.1273ZM170.316 66.1273H165.994C165.674 66.1273 165.414 65.8678 165.414 65.548C165.414 65.2282 165.674 64.9688 165.994 64.9688H170.316C170.635 64.9688 170.895 65.2282 170.895 65.548C170.895 65.8678 170.635 66.1273 170.316 66.1273ZM161.672 66.1273H157.351C157.031 66.1273 156.771 65.8678 156.771 65.548C156.771 65.2282 157.031 64.9688 157.351 64.9688H161.672C161.992 64.9688 162.252 65.2282 162.252 65.548C162.252 65.8678 161.992 66.1273 161.672 66.1273ZM153.029 66.1273H148.707C148.387 66.1273 148.128 65.8678 148.128 65.548C148.128 65.2282 148.387 64.9688 148.707 64.9688H153.029C153.349 64.9688 153.608 65.2282 153.608 65.548C153.608 65.8678 153.349 66.1273 153.029 66.1273ZM144.386 66.1273H140.064C139.744 66.1273 139.485 65.8678 139.485 65.548C139.485 65.2282 139.744 64.9688 140.064 64.9688H144.386C144.706 64.9688 144.965 65.2282 144.965 65.548C144.965 65.8678 144.706 66.1273 144.386 66.1273ZM135.742 66.1273H131.421C131.101 66.1273 130.841 65.8678 130.841 65.548C130.841 65.2282 131.101 64.9688 131.421 64.9688H135.742C136.062 64.9688 136.322 65.2282 136.322 65.548C136.322 65.8678 136.062 66.1273 135.742 66.1273ZM127.099 66.1273H122.777C122.457 66.1273 122.198 65.8678 122.198 65.548C122.198 65.2282 122.457 64.9688 122.777 64.9688H127.099C127.419 64.9688 127.678 65.2282 127.678 65.548C127.678 65.8678 127.419 66.1273 127.099 66.1273ZM118.456 66.1273H114.134C113.814 66.1273 113.555 65.8678 113.555 65.548C113.555 65.2282 113.814 64.9688 114.134 64.9688H118.456C118.776 64.9688 119.035 65.2282 119.035 65.548C119.035 65.8678 118.776 66.1273 118.456 66.1273ZM109.812 66.1273H105.491C105.171 66.1273 104.911 65.8678 104.911 65.548C104.911 65.2282 105.171 64.9688 105.491 64.9688H109.812C110.132 64.9688 110.392 65.2282 110.392 65.548C110.392 65.8678 110.132 66.1273 109.812 66.1273Z" fill="#F8E5E6"/>
<path d="M268.463 143.964H114.839C111.604 143.964 108.984 141.342 108.984 138.111V50.9702C108.984 47.736 111.607 45.1172 114.839 45.1172H268.463C271.698 45.1172 274.318 47.739 274.318 50.9702V138.108C274.318 141.342 271.695 143.961 268.463 143.961V143.964Z" fill="#17494D"/>
<path d="M274.313 63.7812H108.977V80.8395H274.313V63.7812Z" fill="#F51624"/>
<path d="M146.849 125H122.54C120.995 125 119.742 126.252 119.742 127.797C119.742 129.341 120.995 130.594 122.54 130.594H146.849C148.394 130.594 149.647 129.341 149.647 127.797C149.647 126.252 148.394 125 146.849 125Z" fill="#D1F5FF"/>
<path d="M184.232 125H159.923C158.377 125 157.125 126.252 157.125 127.797C157.125 129.341 158.377 130.594 159.923 130.594H184.232C185.777 130.594 187.03 129.341 187.03 127.797C187.03 126.252 185.777 125 184.232 125Z" fill="#D1F5FF"/>
<path d="M221.623 125H197.313C195.768 125 194.516 126.252 194.516 127.797C194.516 129.341 195.768 130.594 197.313 130.594H221.623C223.168 130.594 224.42 129.341 224.42 127.797C224.42 126.252 223.168 125 221.623 125Z" fill="#D1F5FF"/>
<path d="M259.005 125H234.696C233.151 125 231.898 126.252 231.898 127.797C231.898 129.341 233.151 130.594 234.696 130.594H259.005C260.551 130.594 261.803 129.341 261.803 127.797C261.803 126.252 260.551 125 259.005 125Z" fill="#D1F5FF"/>
<path d="M121.423 50.1328C119.718 50.1328 118.336 51.5146 118.336 53.2192V54.3023C118.336 56.007 119.718 57.3887 121.423 57.3887C123.128 57.3887 124.511 56.007 124.511 54.3023V53.2192C124.511 51.5146 123.128 50.1328 121.423 50.1328Z" fill="#D1F5FF"/>
<path d="M128.07 53.7623C128.07 55.7656 129.697 57.3918 131.701 57.3918H144.569C146.573 57.3918 148.2 55.7656 148.2 53.7623C148.2 51.759 146.573 50.1328 144.569 50.1328H131.701C129.697 50.1328 128.07 51.759 128.07 53.7623Z" fill="#D1F5FF"/>
<path d="M143.005 90.0156H126.385C123.722 90.0156 121.562 92.1741 121.562 94.8368V109.162C121.562 111.824 123.722 113.983 126.385 113.983H143.005C145.668 113.983 147.827 111.824 147.827 109.162V94.8368C147.827 92.1741 145.668 90.0156 143.005 90.0156Z" fill="#F51624"/>
<path d="M449.315 123.832C451.255 116.181 451.572 108.451 450.465 101.084L452.806 100.734L457.43 100.043L457.487 100.031C456.232 91.5984 453.35 83.558 449.034 76.3504L442.944 79.9768C439.036 73.4571 433.884 67.6764 427.649 63.0966L431.877 57.3854C425.286 52.4646 417.611 48.7416 409.146 46.5965L407.399 53.4904C399.718 51.5444 392.014 51.2337 384.644 52.3409L383.588 45.3203C375.152 46.5724 367.104 49.4808 359.9 53.771L363.527 59.8593C357.003 63.7664 351.223 68.9164 346.639 75.1466L340.926 70.9197C336.004 77.5089 332.28 85.1812 330.134 93.6439L337.03 95.3908C335.084 103.069 334.77 110.772 335.877 118.139L330.907 118.881L328.879 119.201L328.852 119.195C330.107 127.628 333.013 135.674 337.305 142.876L343.395 139.249C347.303 145.769 352.479 151.556 358.714 156.139L354.486 161.85C361.08 166.77 368.727 170.487 377.193 172.633L378.94 165.739C386.621 167.685 394.352 168.004 401.722 166.897L402.534 172.355L402.778 173.918C411.214 172.666 419.238 169.748 426.442 165.461L422.814 159.373C429.336 155.466 435.124 150.292 439.733 144.064L445.446 148.291C450.344 141.693 454.062 134.048 456.205 125.585L449.309 123.838L449.315 123.832ZM385.45 140.088C368.601 135.819 358.418 118.73 362.688 101.886C366.953 85.0666 384.043 74.8901 400.895 79.1592C417.72 83.4223 427.9 100.508 423.638 117.328C419.368 134.172 402.277 144.351 385.453 140.088H385.45Z" stroke="#E7D7CF" stroke-width="4" stroke-linejoin="round"/>
<path d="M476.414 186.872C473.824 183.62 470.686 181.025 467.242 179.142L467.84 178.05L469.023 175.893L469.035 175.863C465.1 173.703 460.811 172.348 456.411 171.859L455.991 175.567C452.014 175.127 447.949 175.444 444.04 176.596L442.993 173.006C438.829 174.201 434.824 176.228 431.226 179.094L433.559 182.024C430.297 184.621 427.711 187.75 425.824 191.192L422.544 189.397C420.38 193.332 419.037 197.631 418.539 202.018L422.248 202.437C421.807 206.416 422.124 210.477 423.277 214.384L419.686 215.431C420.881 219.595 422.909 223.598 425.773 227.195L428.703 224.862C431.302 228.124 434.431 230.709 437.875 232.595L436.601 234.915L436.088 235.865L436.076 235.875C440.012 238.035 444.312 239.38 448.7 239.878L449.12 236.17C453.097 236.611 457.174 236.285 461.083 235.132L462.13 238.723C466.295 237.528 470.29 235.506 473.885 232.643L471.552 229.714C474.814 227.116 477.413 223.978 479.296 220.536L481.843 221.936L482.576 222.331C484.74 218.397 486.074 214.107 486.569 209.72L482.86 209.301C483.301 205.324 482.975 201.248 481.834 197.332L485.425 196.285C484.221 192.131 482.199 188.136 479.335 184.543L476.405 186.875L476.414 186.872ZM462.878 218.813C455.72 224.512 445.311 223.336 439.61 216.179C433.918 209.035 435.095 198.629 442.254 192.927C449.4 187.237 459.809 188.414 465.504 195.561C471.205 202.717 470.028 213.123 462.878 218.813Z" stroke="#E7D7CF" stroke-width="4" stroke-linejoin="round"/>
<path d="M212.027 357.566C209.04 353.816 205.415 350.817 201.444 348.645L202.135 347.383L203.502 344.894L203.517 344.861C198.975 342.366 194.026 340.803 188.949 340.242L188.464 344.52C183.873 344.013 179.18 344.379 174.672 345.709L173.465 341.564C168.66 342.942 164.037 345.284 159.887 348.587L162.579 351.966C158.813 354.965 155.828 358.577 153.655 362.547L149.87 360.477C147.375 365.018 145.823 369.978 145.25 375.041L149.529 375.526C149.019 380.118 149.388 384.807 150.718 389.314L146.572 390.521C147.951 395.324 150.293 399.946 153.598 404.094L156.978 401.403C159.977 405.169 163.59 408.152 167.561 410.325L166.092 413.001L165.5 414.099L165.488 414.108C170.03 416.603 174.992 418.154 180.056 418.727L180.542 414.449C185.132 414.959 189.837 414.582 194.345 413.251L195.553 417.396C200.357 416.018 204.969 413.686 209.118 410.382L206.426 407.003C210.193 404.004 213.189 400.384 215.362 396.413L218.302 398.027L219.147 398.483C221.643 393.942 223.182 388.991 223.755 383.932L219.476 383.446C219.983 378.857 219.608 374.154 218.29 369.637L222.436 368.43C221.045 363.636 218.712 359.026 215.408 354.878L212.027 357.569V357.566ZM196.41 394.425C188.15 401.002 176.138 399.644 169.556 391.384C162.986 383.138 164.347 371.13 172.607 364.553C180.855 357.985 192.867 359.346 199.437 367.591C206.016 375.849 204.658 387.857 196.407 394.425H196.41Z" stroke="#17494D" stroke-width="4" stroke-miterlimit="10"/>
<path d="M392.909 108.996C389.556 89.1505 358.984 80.19 359.582 93.142L219.43 93.9627C209.721 94.02 201.85 102.751 201.844 113.471L201.555 481.961C201.546 493.069 209.555 502.151 219.448 502.235L362.521 503.463C363.409 505.327 365.071 507.023 367.691 508.441C384.099 508.791 391.967 500.69 394.843 491.531C395.779 489.072 396.289 486.356 396.265 483.493C395.691 478.696 393.947 113.649 392.912 108.993L392.909 108.996Z" fill="#F8E5E6"/>
<path d="M366.158 508.502L201.932 507.443C191.683 507.377 183.396 498.048 183.414 486.62L184.03 107.661C184.048 96.6395 192.205 87.688 202.255 87.6548L363.291 87.1329C373.419 87.0997 381.703 96.0391 381.788 107.112L384.706 487.823C384.794 499.306 376.488 508.572 366.155 508.505L366.158 508.502Z" fill="white"/>
<path d="M368.423 505.743C367.741 505.833 367.043 505.878 366.346 505.872L202.169 504.629C193.362 504.563 186.165 496.384 186.18 486.41L186.747 107.867C186.762 98.2457 193.845 90.3924 202.483 90.3562L363.509 89.6562C363.76 89.6562 364.016 89.6593 364.267 89.6713C368.32 89.8584 372.108 91.7048 374.935 94.8636C377.829 98.0918 379.438 102.37 379.471 106.917L382.35 488.015C382.42 497.048 376.45 504.669 368.42 505.746L368.423 505.743Z" fill="#17494D"/>
<path d="M373.835 109.617L376.602 489.388L191.652 488.281L192.123 109.617H373.835Z" fill="#F2E8E3"/>
<path d="M309.481 299.933H259.969C255.78 299.933 252.352 296.506 252.352 292.318C252.352 288.13 255.78 284.703 259.969 284.703H309.481C313.67 284.703 317.098 288.13 317.098 292.318C317.098 296.506 313.67 299.933 309.481 299.933Z" fill="#F51624"/>
<path d="M347.151 228.164H219.125C214.918 228.164 211.508 231.573 211.508 235.779C211.508 239.985 214.918 243.394 219.125 243.394H347.151C351.358 243.394 354.768 239.985 354.768 235.779C354.768 231.573 351.358 228.164 347.151 228.164Z" fill="white"/>
<path d="M347.151 267.925H219.125C214.936 267.925 211.508 264.498 211.508 260.31C211.508 256.123 214.936 252.695 219.125 252.695H347.151C351.34 252.695 354.768 256.123 354.768 260.31C354.768 264.498 351.34 267.925 347.151 267.925Z" fill="white"/>
<path d="M243.03 260.979C243.03 262.46 241.829 263.661 240.347 263.661C238.865 263.661 237.664 262.46 237.664 260.979C237.664 259.498 238.865 258.297 240.347 258.297C241.829 258.297 243.03 259.498 243.03 260.979Z" fill="#F8E5E6"/>
<path d="M252.182 261.563C252.49 260.114 251.565 258.69 250.116 258.382C248.666 258.073 247.242 258.998 246.933 260.447C246.625 261.896 247.55 263.32 248.999 263.628C250.449 263.937 251.873 263.012 252.182 261.563Z" fill="#F8E5E6"/>
<path d="M260.637 262.881C261.684 261.833 261.684 260.135 260.637 259.088C259.589 258.04 257.89 258.04 256.842 259.088C255.795 260.135 255.795 261.833 256.842 262.881C257.89 263.928 259.589 263.928 260.637 262.881Z" fill="#F8E5E6"/>
<path d="M269.824 262.881C270.872 261.833 270.872 260.135 269.824 259.088C268.776 258.04 267.078 258.04 266.03 259.088C264.982 260.135 264.982 261.833 266.03 262.881C267.078 263.928 268.776 263.928 269.824 262.881Z" fill="#F8E5E6"/>
<path d="M278.149 263.461C279.518 262.894 280.168 261.325 279.601 259.956C279.034 258.588 277.465 257.938 276.096 258.505C274.727 259.072 274.077 260.641 274.644 262.009C275.211 263.378 276.78 264.028 278.149 263.461Z" fill="#F8E5E6"/>
<path d="M288.917 261.583C289.257 260.141 288.364 258.696 286.922 258.356C285.48 258.016 284.035 258.909 283.694 260.351C283.354 261.792 284.247 263.237 285.689 263.577C287.131 263.917 288.576 263.024 288.917 261.583Z" fill="#F8E5E6"/>
<path d="M297.41 262.881C298.458 261.833 298.458 260.135 297.41 259.088C296.362 258.04 294.664 258.04 293.616 259.088C292.568 260.135 292.568 261.833 293.616 262.881C294.664 263.928 296.362 263.928 297.41 262.881Z" fill="#F8E5E6"/>
<path d="M306.605 262.881C307.653 261.834 307.653 260.135 306.605 259.088C305.558 258.04 303.859 258.04 302.811 259.088C301.763 260.135 301.763 261.833 302.811 262.881C303.859 263.928 305.558 263.928 306.605 262.881Z" fill="#F8E5E6"/>
<path d="M314.931 263.461C316.3 262.894 316.95 261.325 316.383 259.956C315.816 258.588 314.246 257.938 312.877 258.505C311.508 259.072 310.858 260.641 311.425 262.009C311.992 263.378 313.562 264.028 314.931 263.461Z" fill="#F8E5E6"/>
<path d="M303.994 198.242C315.488 186.752 315.488 168.123 303.994 156.633C292.501 145.143 273.867 145.143 262.373 156.633C250.88 168.123 250.88 186.752 262.373 198.242C273.867 209.732 292.501 209.732 303.994 198.242Z" fill="white"/>
<path d="M283.224 176.256C286.097 176.256 288.749 174.856 290.442 172.72C291.695 171.172 292.431 169.184 292.431 166.976C292.431 161.895 288.306 157.695 283.221 157.695C278.135 157.695 273.938 161.895 273.938 166.976C273.938 169.187 274.674 171.175 275.926 172.72C277.619 174.856 280.272 176.256 283.221 176.256H283.224Z" fill="#F51624"/>
<path d="M299.535 192.798C299.535 198.654 266.82 198.654 266.82 192.798L266.829 185.974C268.121 176.642 296.876 176.253 299.541 185.974L299.535 192.798Z" fill="#F51624"/>
<path d="M225.473 258.903V258.496C225.473 256.843 224.13 255.5 222.476 255.5C220.822 255.5 219.479 256.846 219.479 258.496V258.903H219.023V264.304C219.023 265.236 225.947 265.236 225.947 264.304V258.903H225.473ZM220.547 258.496C220.547 257.458 221.187 256.517 222.476 256.517C223.765 256.517 224.426 257.398 224.426 258.496V258.903H220.547V258.496ZM222.986 261.625V263.184C222.986 263.465 222.745 263.664 222.464 263.664C222.183 263.664 221.984 263.465 221.984 263.184V261.625C221.703 261.465 221.504 261.184 221.504 260.825C221.504 260.306 221.945 259.866 222.464 259.866C222.983 259.866 223.424 260.306 223.424 260.825C223.424 261.184 223.224 261.465 222.983 261.625H222.986Z" fill="#4D4D4D"/>
<path d="M222.482 235.229C223.089 235.229 223.647 234.933 224.006 234.483C224.272 234.158 224.426 233.738 224.426 233.271C224.426 232.2 223.553 231.312 222.482 231.312C221.411 231.312 220.523 232.2 220.523 233.271C220.523 233.738 220.677 234.158 220.943 234.483C221.299 234.933 221.86 235.229 222.482 235.229Z" fill="#4D4D4D"/>
<path d="M225.923 238.721C225.923 239.958 218.984 239.958 218.984 238.721L219.021 237.282C219.292 235.312 225.361 235.23 225.923 237.282V238.721Z" fill="#4D4D4D"/>
<path d="M267.325 238.018H239.268C238.039 238.018 237.031 237.013 237.031 235.782C237.031 234.555 238.036 233.547 239.268 233.547H267.325C268.553 233.547 269.561 234.552 269.561 235.782C269.561 237.01 268.556 238.018 267.325 238.018Z" fill="#F8E5E6"/>
<path d="M304.333 238.018H276.275C275.047 238.018 274.039 237.013 274.039 235.782C274.039 234.555 275.044 233.547 276.275 233.547H304.333C305.561 233.547 306.569 234.552 306.569 235.782C306.569 237.01 305.564 238.018 304.333 238.018Z" fill="#F8E5E6"/>
<path d="M245.398 378.492V433.975C245.398 440.142 320.861 440.142 320.861 433.975V378.492H245.398Z" fill="white"/>
<path d="M292.188 401.574C293.37 396.568 290.269 391.551 285.261 390.37C280.254 389.188 275.236 392.289 274.054 397.295C272.872 402.301 275.974 407.317 280.981 408.499C285.989 409.68 291.007 406.58 292.188 401.574Z" fill="#F51624"/>
<path d="M279.312 402.32H286.951V423.684C286.951 425.79 285.24 427.5 283.133 427.5C281.027 427.5 279.316 425.79 279.316 423.684V402.32H279.312Z" fill="#F51624"/>
<path d="M314.246 374.539H306.608V370.804C306.608 357.861 296.075 347.328 283.129 347.328C270.182 347.328 259.646 357.858 259.646 370.804V374.539H252.008V370.804C252.008 353.649 265.969 339.695 283.126 339.695C300.282 339.695 314.243 353.652 314.243 370.804V374.539H314.246Z" fill="white"/>
<path d="M434.444 270.297C414.988 291.129 383.946 308.206 350.724 315.48C350.715 317.697 350.661 329.986 350.407 386.627C350.069 462.185 421.998 499.108 433.168 504.774C443.987 499.796 516.824 462.931 517.162 387.372C517.416 330.731 517.47 318.442 517.479 316.225C484.324 308.652 453.714 291.304 434.444 270.297Z" fill="white"/>
<path d="M434.27 278.492C414.213 296.884 386.427 311.342 355.873 319.222L355.571 386.616C355.433 417.453 367.688 445.349 391.995 469.536C407.966 485.427 424.757 495.283 433.28 499.712C433.645 499.525 434.049 499.317 434.445 499.112V278.649C434.387 278.598 434.327 278.546 434.27 278.492Z" fill="#F51624"/>
<path d="M434.445 278.648V499.108C443.306 494.501 459.41 484.976 474.834 469.903C499.355 445.936 511.861 418.152 511.997 387.312L512.299 319.918C481.902 311.79 454.321 297.146 434.445 278.648Z" fill="#F51624"/>
<path d="M495.669 346.198C472.406 349.786 440.733 370.992 420.749 396.495C417.945 384.469 405.363 373.493 398.781 371.092L378.836 391.134C391.288 396.746 404.899 412.639 406.7 428.913L426.625 431.999C435.024 415.412 456.719 375.732 499.879 354.399C499.049 351.152 496.001 346.66 495.666 346.195L495.669 346.198Z" fill="white"/>
<path d="M116.747 225.217L113.241 239.312L112.604 241.934C111.895 245.265 89.8939 243.847 91.4542 239.952L92.764 237.083L99.5302 222.242L116.747 225.217Z" fill="#F7A58E"/>
<path d="M129.604 204.303C129.828 219.588 122.733 232.018 111.627 231.963C100.521 231.909 89.7769 222.49 89.3876 204.11C89.1401 192.401 98.4927 182.946 109.599 183C120.705 183.055 129.432 192.594 129.604 204.303Z" fill="#F7A58E"/>
<path d="M109.933 178.797C109.933 178.797 132.063 179.889 133.904 196.646C136.36 211.351 125.324 200.541 120.818 210.409C115.658 221.714 120.918 229.987 127.624 232.231C121.66 240.555 87.5607 240.257 78.7876 225.651C72.779 207.332 81.2804 179.814 109.933 178.797Z" fill="#17494D"/>
<path d="M125.45 209.804C125.634 212.072 123.944 214.061 121.675 214.245C119.405 214.429 117.417 212.739 117.232 210.47C117.048 208.202 118.738 206.213 121.008 206.029C123.277 205.845 125.266 207.535 125.45 209.804Z" fill="#F7A58E"/>
<path d="M122.062 494.15C123.1 493.052 127.992 493.034 128.439 494.66C128.886 496.283 128.023 497.445 130.09 500.021C128.901 500.365 124.688 500.395 123.396 500.021C122.108 499.647 121.027 495.251 122.062 494.153V494.15Z" fill="white"/>
<path d="M113.976 499.705H125.9C127.014 449.26 126.802 394.348 126.401 352.99C126.256 338.18 125.849 330.689 123.163 321.797C117.736 303.843 92.22 309.37 90.4092 325.644C89.6547 334.674 89.1025 352.293 105.804 412.163C98.5727 438.523 111.188 470.126 113.979 499.708L113.976 499.705Z" fill="#17494D"/>
<path d="M132.576 500.475C130.82 500.382 126.718 498.692 125.946 497.525C124.805 498.798 122.433 499.151 119.569 498.722C116.186 498.218 115.739 496.647 113.313 496.855C112.29 499.7 109.797 506.081 112.202 507.562H137.272C139.511 505.52 139.451 501.157 132.579 500.475H132.576Z" fill="#17494D"/>
<path d="M61.3569 495.425C62.2291 494.502 66.3425 494.487 66.7167 495.853C67.0909 497.217 66.3666 498.195 68.1019 500.358C67.103 500.647 63.56 500.672 62.4765 500.358C61.3931 500.044 60.4847 496.348 61.3569 495.425Z" fill="white"/>
<path d="M100.652 325.184C98.2133 306.587 65.1188 308.497 62.9187 324.735C62.125 333.472 59.6956 346.623 65.9155 411.525C52.7967 436.292 56.5027 471.832 52.5824 497.993C52.1508 501.972 63.4288 502.929 64.304 499.381C76.3243 450.843 93.119 396.389 99.3631 356.009C101.627 341.37 101.856 334.392 100.652 325.181V325.184Z" fill="#17494D"/>
<path d="M70.2273 499.701C68.4709 499.608 65.8815 497.324 65.1089 496.156C63.9681 497.429 61.7922 499.146 58.9282 498.718C55.5451 498.214 55.0985 496.642 52.6721 496.85C51.649 499.695 49.1562 506.076 51.5615 507.558H75.9493C78.1885 505.515 77.1051 500.383 70.2303 499.701H70.2273Z" fill="#17494D"/>
<path d="M156.461 226.75L150.289 228.12C150.428 231.366 150.039 236.552 150.289 242.279L160.671 240.912C159.093 235.146 157.566 230.093 156.461 226.75Z" fill="#F7A58E"/>
<path d="M150.289 242.268C150.06 253.615 149.755 258.479 149.661 262.947L118.86 243.197C109.475 240.349 98.5288 258.922 110.398 267.3C110.398 267.3 151.418 290.456 160.647 283.785C165.638 280.177 164.343 254.294 160.674 240.898L150.292 242.265L150.289 242.268Z" fill="white"/>
<path d="M159.255 220.708C156.403 217.365 150.141 218.53 149.664 218.621L150.268 227.868C150.406 232.435 156.074 232.589 158.38 228.652C158.38 228.652 161.724 224 159.255 220.705V220.708Z" fill="#F7A58E"/>
<path d="M152.692 219.496C150.613 209.422 148.516 210.771 148.516 210.771C148.516 210.771 148.851 214.331 149.792 220.613C150.495 224.17 152.952 222.025 152.692 219.496Z" fill="#F7A58E"/>
<path d="M126.139 269.746C128.231 259.569 129.353 249.523 118.86 243.205C112.64 239.458 92.6466 236.785 83.2971 239.877C73.8782 244.086 75.9153 262.441 74.1498 291.429C67.6582 305.893 64.8365 310.647 62.9141 324.737C62.9141 324.737 66.3877 335.354 90.8539 335.366C101.963 335.372 118.326 334.385 125.768 328.719C125.026 319.11 121.006 309.854 119.331 296.25C119.331 296.25 125.986 270.91 126.136 269.743L126.139 269.746Z" fill="white"/>
<path d="M78.2768 241.926C66.7936 250.691 55.5941 264.472 50.3007 271.792C45.0073 279.111 31.2969 308.524 31.2969 308.524L40.0217 314.956L63.6248 282.807L92.458 259.162C102.462 248.953 89.4612 233.391 78.2768 241.926Z" fill="white"/>
<path d="M27.6436 315.987L33.2992 304.305C34.6301 307.817 41.1036 311.024 42.9626 310.954C42.9626 310.954 36.8815 319.704 35.3937 321.191C33.9058 322.678 27.7644 320.159 27.6406 315.987H27.6436Z" fill="#F7A58E"/>
<path d="M36.8204 319.236C36.7993 319.323 36.8204 319.441 36.7993 319.529C36.5156 323.78 33.2472 325.792 32.363 326.269C32.2935 326.326 32.2151 326.341 32.1366 326.359C35.2119 325.744 36.1323 329.862 34.569 330.812C30.0452 333.875 23.5959 329.663 23.0497 327.107C22.4944 324.513 27.649 315.935 27.649 315.935C30.2776 313.811 37.0075 314.143 36.8204 319.236Z" fill="#F7A58E"/>
<path d="M36.7996 319.523C36.6185 324.326 32.2878 326.305 32.2063 326.32C29.6713 326.251 28.7689 326.097 26.3516 326.103C27.9299 325.334 31.1682 323.285 29.9127 319.312C32.3904 317.414 36.1206 319.073 36.7966 319.523H36.7996Z" fill="#E6856A"/>
<path d="M36.8686 318.979C37.5356 322.947 37.2549 328.597 36.3103 331.083C36.3103 331.083 33.8779 331.21 34.1072 326.618C34.1676 325.424 33.9956 322.829 32.8125 321.963C29.1699 319.558 28.5844 317.35 29.9214 315.54C31.7019 313.126 36.7328 315.576 36.8716 318.976L36.8686 318.979Z" fill="#F7A58E"/>
<path d="M25.5982 329.82C27.575 331.19 32.802 333.845 33.6289 333.19C34.4528 332.535 30.273 328.085 27.575 327.497C24.877 326.909 24.5872 329.12 25.6012 329.82H25.5982Z" fill="#F7A58E"/>
</g>
<defs>
<clipPath id="clip0_4269_346152">
<rect width="522" height="508" fill="white" transform="translate(0 0.5)"/>
</clipPath>
</defs>
</svg>
