<svg width="58" height="56" viewBox="0 0 58 56" fill="none" xmlns="http://www.w3.org/2000/svg">
<path d="M57.1206 31.75C57.1206 32.9805 56.1011 34 54.8706 34H46.9956C46.9956 38.3945 46.0464 41.6992 44.6401 44.1953L51.9526 51.543C52.8315 52.4219 52.8315 53.8281 51.9526 54.707C51.5308 55.1641 50.9331 55.375 50.3706 55.375C49.8081 55.375 49.2105 55.1641 48.7886 54.707L41.8276 47.7812C41.8276 47.7812 37.2222 52 31.2456 52V20.5H26.7456V52C20.3823 52 15.7417 47.3594 15.7417 47.3594L9.30811 54.6367C8.85107 55.1289 8.25342 55.375 7.62061 55.375C7.09326 55.375 6.56592 55.1992 6.10889 54.8125C5.19482 53.9688 5.12451 52.5625 5.93311 51.6133L13.0347 43.6328C11.8042 41.207 10.9956 38.0781 10.9956 34H3.12061C1.89014 34 0.870606 32.9805 0.870606 31.75C0.870606 30.5195 1.89014 29.5 3.12061 29.5H10.9956C10.9956 25 10.9956 21.4844 10.9956 19.1641L4.91357 13.082C4.03467 12.2031 4.03467 10.7969 4.91357 9.91796C5.79248 9.03906 7.19873 9.03906 8.07764 9.91796L14.1597 16H43.8315L49.9136 9.91796C50.7925 9.03906 52.1987 9.03906 53.0776 9.91796C53.9565 10.7969 53.9565 12.2031 53.0776 13.082L46.9956 19.1641C46.9956 21.4844 46.9956 25 46.9956 29.5H54.8706C56.1011 29.5 57.1206 30.5195 57.1206 31.75ZM40.2456 11.5H17.7456C17.7456 5.27734 22.773 0.249998 28.9956 0.249998C35.2183 0.249998 40.2456 5.27734 40.2456 11.5Z" fill="#4ECF7D"/>
</svg>
