<svg width="62" height="62" viewBox="0 0 62 62" fill="none" xmlns="http://www.w3.org/2000/svg">
<path d="M31 0.859375C47.8574 0.859375 61.5156 14.5176 61.5156 31.375C61.5156 48.2324 47.8574 61.8906 31 61.8906C14.1426 61.8906 0.484375 48.2324 0.484375 31.375C0.484375 14.5176 14.1426 0.859375 31 0.859375ZM31 55.9844C44.5352 55.9844 55.6094 45.0332 55.6094 31.375C55.6094 17.8398 44.5352 6.76562 31 6.76562C17.3418 6.76562 6.39062 17.8398 6.39062 31.375C6.39062 45.0332 17.3418 55.9844 31 55.9844ZM38.5059 43.1875L28.0469 35.5586C27.6777 35.3125 27.5547 34.8203 27.5547 34.4512V14.1484C27.5547 13.4102 28.1699 12.6719 29.0312 12.6719H32.9688C33.707 12.6719 34.4453 13.4102 34.4453 14.1484V31.6211L42.5664 37.6504C43.3047 38.1426 43.4277 39.0039 42.9355 39.7422L40.5977 42.8184C40.1055 43.5566 39.2441 43.6797 38.5059 43.1875Z" fill="#4ECF7D"/>
</svg>
