<svg width="62" height="62" viewBox="0 0 62 62" fill="none" xmlns="http://www.w3.org/2000/svg">
<path d="M9.34375 9.8418C15.332 3.85352 22.5508 0.859375 31 0.859375C39.4492 0.859375 46.627 3.85352 52.5332 9.8418C58.5215 15.748 61.5156 22.9258 61.5156 31.375C61.5156 39.8242 58.5215 47.043 52.5332 53.0312C46.627 58.9375 39.4492 61.8906 31 61.8906C22.5508 61.8906 15.332 58.9375 9.34375 53.0312C3.4375 47.043 0.484375 39.8242 0.484375 31.375C0.484375 22.9258 3.4375 15.748 9.34375 9.8418ZM34.5684 15.9941C33.584 14.9277 32.3945 14.3945 31 14.3945C29.6055 14.3945 28.375 14.9277 27.3086 15.9941C26.3242 16.9785 25.832 18.168 25.832 19.5625C25.832 20.957 26.3242 22.1875 27.3086 23.2539C28.375 24.2383 29.6055 24.7305 31 24.7305C32.3945 24.7305 33.584 24.2383 34.5684 23.2539C35.6348 22.1875 36.168 20.957 36.168 19.5625C36.168 18.168 35.6348 16.9785 34.5684 15.9941ZM37.8906 45.6484V42.6953C37.8906 41.7109 37.3984 41.2188 36.4141 41.2188H34.9375V28.9141C34.9375 27.9297 34.4453 27.4375 33.4609 27.4375H25.5859C24.6016 27.4375 24.1094 27.9297 24.1094 28.9141V31.8672C24.1094 32.8516 24.6016 33.3438 25.5859 33.3438H27.0625V41.2188H25.5859C24.6016 41.2188 24.1094 41.7109 24.1094 42.6953V45.6484C24.1094 46.6328 24.6016 47.125 25.5859 47.125H36.4141C37.3984 47.125 37.8906 46.6328 37.8906 45.6484Z" fill="#4ECF7D"/>
</svg>
