<svg width="57" height="64" viewBox="0 0 57 64" fill="none" xmlns="http://www.w3.org/2000/svg">
<path d="M19.1484 36.3125H14.2266C13.3652 36.3125 12.75 35.6973 12.75 34.8359V29.9141C12.75 29.1758 13.3652 28.4375 14.2266 28.4375H19.1484C19.8867 28.4375 20.625 29.1758 20.625 29.9141V34.8359C20.625 35.6973 19.8867 36.3125 19.1484 36.3125ZM32.4375 34.8359C32.4375 35.6973 31.6992 36.3125 30.9609 36.3125H26.0391C25.1777 36.3125 24.5625 35.6973 24.5625 34.8359V29.9141C24.5625 29.1758 25.1777 28.4375 26.0391 28.4375H30.9609C31.6992 28.4375 32.4375 29.1758 32.4375 29.9141V34.8359ZM44.25 34.8359C44.25 35.6973 43.5117 36.3125 42.7734 36.3125H37.8516C36.9902 36.3125 36.375 35.6973 36.375 34.8359V29.9141C36.375 29.1758 36.9902 28.4375 37.8516 28.4375H42.7734C43.5117 28.4375 44.25 29.1758 44.25 29.9141V34.8359ZM32.4375 46.6484C32.4375 47.5098 31.6992 48.125 30.9609 48.125H26.0391C25.1777 48.125 24.5625 47.5098 24.5625 46.6484V41.7266C24.5625 40.9883 25.1777 40.25 26.0391 40.25H30.9609C31.6992 40.25 32.4375 40.9883 32.4375 41.7266V46.6484ZM20.625 46.6484C20.625 47.5098 19.8867 48.125 19.1484 48.125H14.2266C13.3652 48.125 12.75 47.5098 12.75 46.6484V41.7266C12.75 40.9883 13.3652 40.25 14.2266 40.25H19.1484C19.8867 40.25 20.625 40.9883 20.625 41.7266V46.6484ZM44.25 46.6484C44.25 47.5098 43.5117 48.125 42.7734 48.125H37.8516C36.9902 48.125 36.375 47.5098 36.375 46.6484V41.7266C36.375 40.9883 36.9902 40.25 37.8516 40.25H42.7734C43.5117 40.25 44.25 40.9883 44.25 41.7266V46.6484ZM56.0625 14.6562V57.9688C56.0625 61.291 53.3555 63.875 50.1562 63.875H6.84375C3.52148 63.875 0.9375 61.291 0.9375 57.9688V14.6562C0.9375 11.457 3.52148 8.75 6.84375 8.75H12.75V2.35156C12.75 1.61328 13.3652 0.875 14.2266 0.875H19.1484C19.8867 0.875 20.625 1.61328 20.625 2.35156V8.75H36.375V2.35156C36.375 1.61328 36.9902 0.875 37.8516 0.875H42.7734C43.5117 0.875 44.25 1.61328 44.25 2.35156V8.75H50.1562C53.3555 8.75 56.0625 11.457 56.0625 14.6562ZM50.1562 57.2305V20.5625H6.84375V57.2305C6.84375 57.7227 7.08984 57.9688 7.58203 57.9688H49.418C49.7871 57.9688 50.1562 57.7227 50.1562 57.2305Z" fill="#4ECF7D"/>
</svg>
