<svg width="72" height="56" viewBox="0 0 72 56" fill="none" xmlns="http://www.w3.org/2000/svg">
<path d="M21.2344 38.2188C22.834 38.2188 24.1875 39.5723 24.1875 41.1719C24.1875 42.8945 22.834 44.125 21.2344 44.125H15.3281C13.6055 44.125 12.375 42.8945 12.375 41.1719C12.375 39.5723 13.6055 38.2188 15.3281 38.2188H21.2344ZM44.8594 38.2188C46.459 38.2188 47.8125 39.5723 47.8125 41.1719C47.8125 42.8945 46.459 44.125 44.8594 44.125H31.0781C29.3555 44.125 28.125 42.8945 28.125 41.1719C28.125 39.5723 29.3555 38.2188 31.0781 38.2188H44.8594ZM63.5625 0.8125C67.8691 0.8125 71.4375 4.38086 71.4375 8.6875V48.0625C71.4375 52.4922 67.8691 55.9375 63.5625 55.9375H8.4375C4.00781 55.9375 0.5625 52.4922 0.5625 48.0625V8.6875C0.5625 4.38086 4.00781 0.8125 8.4375 0.8125H63.5625ZM63.5625 6.71875H8.4375C7.33008 6.71875 6.46875 7.70312 6.46875 8.6875V12.625H65.5312V8.6875C65.5312 7.70312 64.5469 6.71875 63.5625 6.71875ZM65.5312 24.4375H6.46875V48.0625C6.46875 49.1699 7.33008 50.0312 8.4375 50.0312H63.5625C64.5469 50.0312 65.5312 49.1699 65.5312 48.0625V24.4375Z" fill="#4ECF7D"/>
</svg>
