<svg width="64" height="48" viewBox="0 0 64 48" fill="none" xmlns="http://www.w3.org/2000/svg">
<path d="M0.5 8.625C0.5 4.31836 3.94531 0.75 8.375 0.75H55.625C59.9316 0.75 63.5 4.31836 63.5 8.625V40.125C63.5 44.5547 59.9316 48 55.625 48H8.375C3.94531 48 0.5 44.5547 0.5 40.125V8.625ZM6.40625 8.625V11.4551L27.5703 28.8047C30.1543 30.8965 33.7227 30.8965 36.3066 28.8047L57.5938 11.4551V8.625C57.5938 7.64062 56.6094 6.65625 55.625 6.65625H8.375C7.26758 6.65625 6.40625 7.64062 6.40625 8.625ZM6.40625 19.084V40.125C6.40625 41.2324 7.26758 42.0938 8.375 42.0938H55.625C56.6094 42.0938 57.5938 41.2324 57.5938 40.125V19.084L40.1211 33.3574C35.3223 37.2949 28.5547 37.2949 23.7559 33.3574L6.40625 19.084Z" fill="#4ECF7D"/>
</svg>
