<svg width="555" height="432" viewBox="0 0 555 432" fill="none" xmlns="http://www.w3.org/2000/svg">
<g filter="url(#filter0_d_4269_321794)">
<path d="M538.5 400.562C538.5 406.876 533.896 412 528.221 412H26.7866C21.1041 412 16.5 406.876 16.5 400.562V23.4293C16.5 17.1155 21.1041 12 26.7866 12H528.213C533.888 12 538.492 17.1155 538.492 23.4293V400.562H538.5Z" fill="white"/>
<path d="M539 400.562V400.062H538.992V23.4293C538.992 16.8904 534.213 11.5 528.213 11.5H26.7866C20.7797 11.5 16 16.8902 16 23.4293V400.562C16 407.101 20.7792 412.5 26.7866 412.5H528.221C534.221 412.5 539 407.101 539 400.562Z" stroke="#E6E6E6"/>
</g>
<path d="M48.5439 34.3571C48.5439 36.5327 46.7839 38.2924 44.6079 38.2924C42.4319 38.2924 40.6719 36.5327 40.6719 34.3571C40.6719 32.1815 42.4319 30.4219 44.6079 30.4219C46.7839 30.4219 48.5439 32.1815 48.5439 34.3571Z" fill="#FFC3D0"/>
<path d="M64.247 34.3571C64.247 36.5327 62.487 38.2924 60.311 38.2924C58.135 38.2924 56.375 36.5327 56.375 34.3571C56.375 32.1815 58.135 30.4219 60.311 30.4219C62.487 30.4219 64.247 32.1815 64.247 34.3571Z" fill="#F5D79B"/>
<path d="M79.9579 34.3571C79.9579 36.5327 78.1979 38.2924 76.0219 38.2924C73.8459 38.2924 72.0859 36.5327 72.0859 34.3571C72.0859 32.1815 73.8459 30.4219 76.0219 30.4219C78.1979 30.4219 79.9579 32.1815 79.9579 34.3571Z" fill="#6AEBE7"/>
<path d="M539.5 94H17.5V322H539.5V94Z" fill="#F9F9F8"/>
<path d="M531.769 52H16.5V385H373.408H425.436H538.5V197.36V111.019V85.3458V52H531.769Z" fill="white"/>
<path d="M184.022 131L178.984 115.6H182.68L187.058 129.24H185.21L189.786 115.6H193.086L197.486 129.24H195.704L200.192 115.6H203.602L198.564 131H194.736L190.842 119.032H191.854L187.85 131H184.022ZM208.87 121.804H216.284V124.576H208.87V121.804ZM209.134 128.14H217.516V131H205.592V115.6H217.23V118.46H209.134V128.14ZM220.351 131V115.6H227.875C229.811 115.6 231.263 115.967 232.231 116.7C233.214 117.433 233.705 118.401 233.705 119.604C233.705 120.411 233.507 121.115 233.111 121.716C232.715 122.303 232.173 122.757 231.483 123.08C230.794 123.403 230.002 123.564 229.107 123.564L229.525 122.662C230.493 122.662 231.351 122.823 232.099 123.146C232.847 123.454 233.427 123.916 233.837 124.532C234.263 125.148 234.475 125.903 234.475 126.798C234.475 128.118 233.955 129.152 232.913 129.9C231.872 130.633 230.339 131 228.315 131H220.351ZM223.893 128.316H228.051C228.975 128.316 229.672 128.169 230.141 127.876C230.625 127.568 230.867 127.084 230.867 126.424C230.867 125.779 230.625 125.302 230.141 124.994C229.672 124.671 228.975 124.51 228.051 124.51H223.629V121.914H227.435C228.301 121.914 228.961 121.767 229.415 121.474C229.885 121.166 230.119 120.704 230.119 120.088C230.119 119.487 229.885 119.039 229.415 118.746C228.961 118.438 228.301 118.284 227.435 118.284H223.893V128.316ZM242.234 131.264C241.002 131.264 239.821 131.103 238.692 130.78C237.562 130.443 236.653 130.01 235.964 129.482L237.174 126.798C237.834 127.267 238.611 127.656 239.506 127.964C240.415 128.257 241.332 128.404 242.256 128.404C242.96 128.404 243.524 128.338 243.95 128.206C244.39 128.059 244.712 127.861 244.918 127.612C245.123 127.363 245.226 127.077 245.226 126.754C245.226 126.343 245.064 126.021 244.742 125.786C244.419 125.537 243.994 125.339 243.466 125.192C242.938 125.031 242.351 124.884 241.706 124.752C241.075 124.605 240.437 124.429 239.792 124.224C239.161 124.019 238.582 123.755 238.054 123.432C237.526 123.109 237.093 122.684 236.756 122.156C236.433 121.628 236.272 120.953 236.272 120.132C236.272 119.252 236.506 118.453 236.976 117.734C237.46 117.001 238.178 116.421 239.132 115.996C240.1 115.556 241.31 115.336 242.762 115.336C243.73 115.336 244.683 115.453 245.622 115.688C246.56 115.908 247.389 116.245 248.108 116.7L247.008 119.406C246.289 118.995 245.57 118.695 244.852 118.504C244.133 118.299 243.429 118.196 242.74 118.196C242.05 118.196 241.486 118.277 241.046 118.438C240.606 118.599 240.29 118.812 240.1 119.076C239.909 119.325 239.814 119.619 239.814 119.956C239.814 120.352 239.975 120.675 240.298 120.924C240.62 121.159 241.046 121.349 241.574 121.496C242.102 121.643 242.681 121.789 243.312 121.936C243.957 122.083 244.595 122.251 245.226 122.442C245.871 122.633 246.458 122.889 246.986 123.212C247.514 123.535 247.939 123.96 248.262 124.488C248.599 125.016 248.768 125.683 248.768 126.49C248.768 127.355 248.526 128.147 248.042 128.866C247.558 129.585 246.832 130.164 245.864 130.604C244.91 131.044 243.7 131.264 242.234 131.264ZM251.203 131V115.6H254.767V131H251.203ZM261.612 131V118.504H256.684V115.6H270.104V118.504H265.176V131H261.612ZM275.299 121.804H282.713V124.576H275.299V121.804ZM275.563 128.14H283.945V131H272.021V115.6H283.659V118.46H275.563V128.14ZM298.072 131.264C296.84 131.264 295.659 131.103 294.53 130.78C293.4 130.443 292.491 130.01 291.802 129.482L293.012 126.798C293.672 127.267 294.449 127.656 295.344 127.964C296.253 128.257 297.17 128.404 298.094 128.404C298.798 128.404 299.362 128.338 299.788 128.206C300.228 128.059 300.55 127.861 300.756 127.612C300.961 127.363 301.064 127.077 301.064 126.754C301.064 126.343 300.902 126.021 300.58 125.786C300.257 125.537 299.832 125.339 299.304 125.192C298.776 125.031 298.189 124.884 297.544 124.752C296.913 124.605 296.275 124.429 295.63 124.224C294.999 124.019 294.42 123.755 293.892 123.432C293.364 123.109 292.931 122.684 292.594 122.156C292.271 121.628 292.11 120.953 292.11 120.132C292.11 119.252 292.344 118.453 292.814 117.734C293.298 117.001 294.016 116.421 294.97 115.996C295.938 115.556 297.148 115.336 298.6 115.336C299.568 115.336 300.521 115.453 301.46 115.688C302.398 115.908 303.227 116.245 303.946 116.7L302.846 119.406C302.127 118.995 301.408 118.695 300.69 118.504C299.971 118.299 299.267 118.196 298.578 118.196C297.888 118.196 297.324 118.277 296.884 118.438C296.444 118.599 296.128 118.812 295.938 119.076C295.747 119.325 295.652 119.619 295.652 119.956C295.652 120.352 295.813 120.675 296.136 120.924C296.458 121.159 296.884 121.349 297.412 121.496C297.94 121.643 298.519 121.789 299.15 121.936C299.795 122.083 300.433 122.251 301.064 122.442C301.709 122.633 302.296 122.889 302.824 123.212C303.352 123.535 303.777 123.96 304.1 124.488C304.437 125.016 304.606 125.683 304.606 126.49C304.606 127.355 304.364 128.147 303.88 128.866C303.396 129.585 302.67 130.164 301.702 130.604C300.748 131.044 299.538 131.264 298.072 131.264ZM310.319 121.804H317.733V124.576H310.319V121.804ZM310.583 128.14H318.965V131H307.041V115.6H318.679V118.46H310.583V128.14ZM329.171 131.264C327.983 131.264 326.875 131.073 325.849 130.692C324.837 130.296 323.957 129.739 323.209 129.02C322.461 128.301 321.874 127.458 321.449 126.49C321.038 125.522 320.833 124.459 320.833 123.3C320.833 122.141 321.038 121.078 321.449 120.11C321.874 119.142 322.461 118.299 323.209 117.58C323.971 116.861 324.859 116.311 325.871 115.93C326.883 115.534 327.99 115.336 329.193 115.336C330.527 115.336 331.73 115.571 332.801 116.04C333.886 116.495 334.795 117.169 335.529 118.064L333.241 120.176C332.713 119.575 332.126 119.127 331.481 118.834C330.835 118.526 330.131 118.372 329.369 118.372C328.65 118.372 327.99 118.489 327.389 118.724C326.787 118.959 326.267 119.296 325.827 119.736C325.387 120.176 325.042 120.697 324.793 121.298C324.558 121.899 324.441 122.567 324.441 123.3C324.441 124.033 324.558 124.701 324.793 125.302C325.042 125.903 325.387 126.424 325.827 126.864C326.267 127.304 326.787 127.641 327.389 127.876C327.99 128.111 328.65 128.228 329.369 128.228C330.131 128.228 330.835 128.081 331.481 127.788C332.126 127.48 332.713 127.018 333.241 126.402L335.529 128.514C334.795 129.409 333.886 130.091 332.801 130.56C331.73 131.029 330.52 131.264 329.171 131.264ZM344.691 131.264C342.506 131.264 340.797 130.655 339.565 129.438C338.333 128.221 337.717 126.483 337.717 124.224V115.6H341.281V124.092C341.281 125.559 341.582 126.615 342.183 127.26C342.785 127.905 343.628 128.228 344.713 128.228C345.799 128.228 346.642 127.905 347.243 127.26C347.845 126.615 348.145 125.559 348.145 124.092V115.6H351.665V124.224C351.665 126.483 351.049 128.221 349.817 129.438C348.585 130.655 346.877 131.264 344.691 131.264ZM355.187 131V115.6H361.853C363.232 115.6 364.42 115.827 365.417 116.282C366.415 116.722 367.185 117.36 367.727 118.196C368.27 119.032 368.541 120.029 368.541 121.188C368.541 122.332 368.27 123.322 367.727 124.158C367.185 124.979 366.415 125.61 365.417 126.05C364.42 126.49 363.232 126.71 361.853 126.71H357.167L358.751 125.148V131H355.187ZM364.977 131L361.127 125.412H364.933L368.827 131H364.977ZM358.751 125.544L357.167 123.872H361.655C362.755 123.872 363.577 123.637 364.119 123.168C364.662 122.684 364.933 122.024 364.933 121.188C364.933 120.337 364.662 119.677 364.119 119.208C363.577 118.739 362.755 118.504 361.655 118.504H357.167L358.751 116.81V125.544ZM374.643 121.804H382.057V124.576H374.643V121.804ZM374.907 128.14H383.289V131H371.365V115.6H383.003V118.46H374.907V128.14Z" fill="#4ECF7D"/>
<path opacity="0.7" d="M539.5 52H16.5V94H539.5V52Z" fill="#E6E6E6"/>
<path d="M64.5 72C64.5 77.5239 60.0256 82 54.5 82C48.9744 82 44.5 77.52 44.5 72C44.5 66.48 48.9744 62 54.5 62C60.0256 62 64.5 66.4761 64.5 72Z" fill="#CCCCCC"/>
<path d="M71.3849 78V67.8182H73.5376V76.2251H77.9027V78H71.3849ZM88.2884 72.9091C88.2884 74.0194 88.0779 74.964 87.657 75.7429C87.2393 76.5218 86.6693 77.1167 85.9467 77.5277C85.2275 77.9354 84.4188 78.1392 83.5206 78.1392C82.6158 78.1392 81.8037 77.9337 81.0845 77.5227C80.3653 77.1117 79.7969 76.5168 79.3793 75.7379C78.9616 74.959 78.7528 74.0161 78.7528 72.9091C78.7528 71.7988 78.9616 70.8542 79.3793 70.0753C79.7969 69.2964 80.3653 68.7031 81.0845 68.2955C81.8037 67.8845 82.6158 67.679 83.5206 67.679C84.4188 67.679 85.2275 67.8845 85.9467 68.2955C86.6693 68.7031 87.2393 69.2964 87.657 70.0753C88.0779 70.8542 88.2884 71.7988 88.2884 72.9091ZM86.1058 72.9091C86.1058 72.1899 85.9981 71.5833 85.7827 71.0895C85.5705 70.5956 85.2706 70.2211 84.8828 69.9659C84.495 69.7107 84.041 69.5831 83.5206 69.5831C83.0002 69.5831 82.5462 69.7107 82.1584 69.9659C81.7706 70.2211 81.469 70.5956 81.2536 71.0895C81.0414 71.5833 80.9354 72.1899 80.9354 72.9091C80.9354 73.6283 81.0414 74.2348 81.2536 74.7287C81.469 75.2225 81.7706 75.5971 82.1584 75.8523C82.5462 76.1075 83.0002 76.2351 83.5206 76.2351C84.041 76.2351 84.495 76.1075 84.8828 75.8523C85.2706 75.5971 85.5705 75.2225 85.7827 74.7287C85.9981 74.2348 86.1058 73.6283 86.1058 72.9091ZM96.6344 71.1094C96.5648 70.8674 96.467 70.6536 96.3411 70.468C96.2151 70.2791 96.061 70.12 95.8787 69.9908C95.6998 69.8582 95.4943 69.7571 95.2623 69.6875C95.0336 69.6179 94.78 69.5831 94.5016 69.5831C93.9812 69.5831 93.5239 69.7124 93.1294 69.9709C92.7383 70.2294 92.4334 70.6056 92.2147 71.0994C91.9959 71.59 91.8865 72.1899 91.8865 72.8991C91.8865 73.6084 91.9943 74.2116 92.2097 74.7088C92.4251 75.206 92.7301 75.5855 93.1245 75.8473C93.5189 76.1058 93.9846 76.2351 94.5215 76.2351C95.0087 76.2351 95.4247 76.1489 95.7694 75.9766C96.1174 75.8009 96.3825 75.554 96.5648 75.2358C96.7504 74.9176 96.8432 74.5414 96.8432 74.1072L97.2807 74.1719H94.6557V72.5511H98.9164V73.8338C98.9164 74.7287 98.7275 75.4976 98.3496 76.1406C97.9718 76.7803 97.4514 77.2741 96.7885 77.6222C96.1257 77.9669 95.3667 78.1392 94.5115 78.1392C93.557 78.1392 92.7185 77.9287 91.9959 77.5078C91.2734 77.0836 90.7099 76.482 90.3056 75.7031C89.9045 74.9209 89.704 73.9929 89.704 72.919C89.704 72.0937 89.8233 71.358 90.062 70.7116C90.3039 70.062 90.642 69.5118 91.0762 69.0611C91.5104 68.6103 92.0158 68.2673 92.5925 68.032C93.1692 67.7966 93.794 67.679 94.4668 67.679C95.0435 67.679 95.5804 67.7635 96.0776 67.9325C96.5748 68.0982 97.0156 68.3336 97.4 68.6385C97.7878 68.9434 98.1043 69.3063 98.3496 69.7273C98.5949 70.1449 98.7523 70.6056 98.8219 71.1094H96.6344ZM109.89 72.9091C109.89 74.0194 109.679 74.964 109.259 75.7429C108.841 76.5218 108.271 77.1167 107.548 77.5277C106.829 77.9354 106.02 78.1392 105.122 78.1392C104.217 78.1392 103.405 77.9337 102.686 77.5227C101.967 77.1117 101.398 76.5168 100.981 75.7379C100.563 74.959 100.354 74.0161 100.354 72.9091C100.354 71.7988 100.563 70.8542 100.981 70.0753C101.398 69.2964 101.967 68.7031 102.686 68.2955C103.405 67.8845 104.217 67.679 105.122 67.679C106.02 67.679 106.829 67.8845 107.548 68.2955C108.271 68.7031 108.841 69.2964 109.259 70.0753C109.679 70.8542 109.89 71.7988 109.89 72.9091ZM107.707 72.9091C107.707 72.1899 107.6 71.5833 107.384 71.0895C107.172 70.5956 106.872 70.2211 106.484 69.9659C106.097 69.7107 105.643 69.5831 105.122 69.5831C104.602 69.5831 104.148 69.7107 103.76 69.9659C103.372 70.2211 103.071 70.5956 102.855 71.0895C102.643 71.5833 102.537 72.1899 102.537 72.9091C102.537 73.6283 102.643 74.2348 102.855 74.7287C103.071 75.2225 103.372 75.5971 103.76 75.8523C104.148 76.1075 104.602 76.2351 105.122 76.2351C105.643 76.2351 106.097 76.1075 106.484 75.8523C106.872 75.5971 107.172 75.2225 107.384 74.7287C107.6 74.2348 107.707 73.6283 107.707 72.9091Z" fill="#CCCCCC"/>
<path d="M371.5 68H339.5C338.395 68 337.5 68.8954 337.5 70V72C337.5 73.1046 338.395 74 339.5 74H371.5C372.605 74 373.5 73.1046 373.5 72V70C373.5 68.8954 372.605 68 371.5 68Z" fill="#CCCCCC"/>
<path d="M417.5 69H385.5C384.395 69 383.5 69.8954 383.5 71V73C383.5 74.1046 384.395 75 385.5 75H417.5C418.605 75 419.5 74.1046 419.5 73V71C419.5 69.8954 418.605 69 417.5 69Z" fill="#CCCCCC"/>
<path d="M463.5 68H431.5C430.395 68 429.5 68.8954 429.5 70V72C429.5 73.1046 430.395 74 431.5 74H463.5C464.605 74 465.5 73.1046 465.5 72V70C465.5 68.8954 464.605 68 463.5 68Z" fill="#CCCCCC"/>
<path d="M509.5 68H477.5C476.395 68 475.5 68.8954 475.5 70V72C475.5 73.1046 476.395 74 477.5 74H509.5C510.605 74 511.5 73.1046 511.5 72V70C511.5 68.8954 510.605 68 509.5 68Z" fill="#CCCCCC"/>
<path d="M85.2842 199.293H54.3835C49.6054 199.293 45.7188 195.401 45.7188 190.617V159.676C45.7188 154.892 49.6054 151 54.3835 151H85.2842C90.0624 151 93.949 154.892 93.949 159.676V190.617C93.949 195.401 90.0624 199.293 85.2842 199.293ZM54.3835 155.245C51.9464 155.245 49.9581 157.236 49.9581 159.676V190.617C49.9581 193.057 51.9464 195.048 54.3835 195.048H85.2842C87.7278 195.048 89.7096 193.057 89.7096 190.617V159.676C89.7096 157.229 87.7214 155.245 85.2842 155.245H54.3835Z" fill="#E4E4E4"/>
<path d="M117.376 164.485H106.825C105.433 164.485 104.305 163.355 104.305 161.961C104.305 160.568 105.433 159.438 106.825 159.438H117.376C118.767 159.438 119.896 160.568 119.896 161.961C119.896 163.355 118.767 164.485 117.376 164.485Z" fill="#E4E4E4"/>
<path d="M155.286 173.278H106.825C105.433 173.278 104.305 172.148 104.305 170.754C104.305 169.361 105.433 168.23 106.825 168.23H155.286C156.678 168.23 157.807 169.361 157.807 170.754C157.807 172.148 156.678 173.278 155.286 173.278Z" fill="#E4E4E4"/>
<path d="M175.841 164.485H127.38C125.988 164.485 124.859 163.355 124.859 161.961C124.859 160.568 125.988 159.438 127.38 159.438H175.841C177.233 159.438 178.362 160.568 178.362 161.961C178.362 163.355 177.233 164.485 175.841 164.485Z" fill="#E4E4E4"/>
<path d="M225.511 173.274H163.786C162.394 173.274 161.266 172.144 161.266 170.75C161.266 169.357 162.394 168.227 163.786 168.227H225.511C226.902 168.227 228.031 169.357 228.031 170.75C228.031 172.144 226.902 173.274 225.511 173.274Z" fill="#E4E4E4"/>
<path d="M130.075 182.063H106.825C105.433 182.063 104.305 180.933 104.305 179.539C104.305 178.146 105.433 177.016 106.825 177.016H130.075C131.466 177.016 132.595 178.146 132.595 179.539C132.595 180.933 131.466 182.063 130.075 182.063Z" fill="#E4E4E4"/>
<path d="M192.639 182.063H139.599C138.207 182.063 137.078 180.933 137.078 179.539C137.078 178.146 138.207 177.016 139.599 177.016H192.639C194.031 177.016 195.16 178.146 195.16 179.539C195.16 180.933 194.031 182.063 192.639 182.063Z" fill="#E4E4E4"/>
<path d="M150.996 190.852H106.825C105.433 190.852 104.305 189.722 104.305 188.329C104.305 186.935 105.433 185.805 106.825 185.805H150.996C152.387 185.805 153.516 186.935 153.516 188.329C153.516 189.722 152.387 190.852 150.996 190.852Z" fill="#E4E4E4"/>
<path d="M85.2842 267.082H54.3835C49.6054 267.082 45.7188 263.19 45.7188 258.406V227.465C45.7188 222.681 49.6054 218.789 54.3835 218.789H85.2842C90.0624 218.789 93.949 222.681 93.949 227.465V258.406C93.949 263.19 90.0624 267.082 85.2842 267.082ZM54.3835 223.034C51.9464 223.034 49.9581 225.025 49.9581 227.465V258.406C49.9581 260.846 51.9464 262.837 54.3835 262.837H85.2842C87.7278 262.837 89.7096 260.846 89.7096 258.406V227.465C89.7096 225.018 87.7214 223.034 85.2842 223.034H54.3835Z" fill="#E4E4E4"/>
<path d="M198.334 232.274H106.825C105.433 232.274 104.305 231.144 104.305 229.75C104.305 228.357 105.433 227.227 106.825 227.227H198.334C199.726 227.227 200.855 228.357 200.855 229.75C200.855 231.144 199.726 232.274 198.334 232.274Z" fill="#E4E4E4"/>
<path d="M155.286 241.067H106.825C105.433 241.067 104.305 239.937 104.305 238.543C104.305 237.15 105.433 236.02 106.825 236.02H155.286C156.678 236.02 157.807 237.15 157.807 238.543C157.807 239.937 156.678 241.067 155.286 241.067Z" fill="#E4E4E4"/>
<path d="M207.802 232.274H215.017C216.409 232.274 217.538 231.144 217.538 229.75C217.538 228.357 216.409 227.227 215.017 227.227H207.802C206.41 227.227 205.281 228.357 205.281 229.75C205.281 231.144 206.41 232.274 207.802 232.274Z" fill="#E4E4E4"/>
<path d="M225.511 241.063H163.786C162.394 241.063 161.266 239.933 161.266 238.539C161.266 237.146 162.394 236.016 163.786 236.016H225.511C226.902 236.016 228.031 237.146 228.031 238.539C228.031 239.933 226.902 241.063 225.511 241.063Z" fill="#E4E4E4"/>
<path d="M132.011 244.805H104.895C104.569 244.805 104.305 245.069 104.305 245.396V249.262C104.305 249.588 104.569 249.852 104.895 249.852H132.011C132.337 249.852 132.601 249.588 132.601 249.262V245.396C132.601 245.069 132.337 244.805 132.011 244.805Z" fill="#E4E4E4"/>
<path d="M194.57 244.805H137.668C137.342 244.805 137.078 245.069 137.078 245.396V249.262C137.078 249.588 137.342 249.852 137.668 249.852H194.57C194.895 249.852 195.16 249.588 195.16 249.262V245.396C195.16 245.069 194.895 244.805 194.57 244.805Z" fill="#E4E4E4"/>
<path d="M150.996 258.641H106.825C105.433 258.641 104.305 257.511 104.305 256.118C104.305 254.724 105.433 253.594 106.825 253.594H150.996C152.387 253.594 153.516 254.724 153.516 256.118C153.516 257.511 152.387 258.641 150.996 258.641Z" fill="#E4E4E4"/>
<path d="M167.68 258.641H160.747C159.355 258.641 158.227 257.511 158.227 256.118C158.227 254.724 159.355 253.594 160.747 253.594H167.68C169.072 253.594 170.201 254.724 170.201 256.118C170.201 257.511 169.072 258.641 167.68 258.641Z" fill="#E4E4E4"/>
<path d="M85.2842 334.867H54.3835C49.6054 334.867 45.7188 330.975 45.7188 326.191V295.25C45.7188 290.466 49.6054 286.574 54.3835 286.574H85.2842C90.0624 286.574 93.949 290.466 93.949 295.25V326.191C93.949 330.975 90.0624 334.867 85.2842 334.867ZM54.3835 290.819C51.9464 290.819 49.9581 292.81 49.9581 295.25V326.191C49.9581 328.631 51.9464 330.622 54.3835 330.622H85.2842C87.7278 330.622 89.7096 328.631 89.7096 326.191V295.25C89.7096 292.803 87.7214 290.819 85.2842 290.819H54.3835Z" fill="#E4E4E4"/>
<path d="M165.195 300.067H106.825C105.433 300.067 104.305 298.937 104.305 297.543C104.305 296.15 105.433 295.02 106.825 295.02H165.195C166.587 295.02 167.716 296.15 167.716 297.543C167.716 298.937 166.587 300.067 165.195 300.067Z" fill="#E4E4E4"/>
<path d="M155.286 308.852H106.825C105.433 308.852 104.305 307.722 104.305 306.328C104.305 304.935 105.433 303.805 106.825 303.805H155.286C156.678 303.805 157.807 304.935 157.807 306.328C157.807 307.722 156.678 308.852 155.286 308.852Z" fill="#E4E4E4"/>
<path d="M180.298 300.067H174.302C172.91 300.067 171.781 298.937 171.781 297.543C171.781 296.15 172.91 295.02 174.302 295.02H180.298C181.69 295.02 182.819 296.15 182.819 297.543C182.819 298.937 181.69 300.067 180.298 300.067Z" fill="#E4E4E4"/>
<path d="M225.511 308.852H163.786C162.394 308.852 161.266 307.722 161.266 306.328C161.266 304.935 162.394 303.805 163.786 303.805H225.511C226.902 303.805 228.031 304.935 228.031 306.328C228.031 307.722 226.902 308.852 225.511 308.852Z" fill="#E4E4E4"/>
<path d="M169.262 317.645H106.825C105.433 317.645 104.305 316.515 104.305 315.121C104.305 313.728 105.433 312.598 106.825 312.598H169.262C170.653 312.598 171.782 313.728 171.782 315.121C171.782 316.515 170.653 317.645 169.262 317.645Z" fill="#E4E4E4"/>
<path d="M192.643 317.645H177.661C176.269 317.645 175.141 316.515 175.141 315.121C175.141 313.728 176.269 312.598 177.661 312.598H192.643C194.035 312.598 195.164 313.728 195.164 315.121C195.164 316.515 194.035 317.645 192.643 317.645Z" fill="#E4E4E4"/>
<path d="M216.786 326.43H106.825C105.433 326.43 104.305 325.3 104.305 323.907C104.305 322.513 105.433 321.383 106.825 321.383H216.786C218.178 321.383 219.307 322.513 219.307 323.907C219.307 325.3 218.178 326.43 216.786 326.43Z" fill="#E4E4E4"/>
<path d="M367.284 392.293H336.384C331.605 392.293 327.719 388.401 327.719 383.617V352.676C327.719 347.892 331.605 344 336.384 344H367.284C372.062 344 375.949 347.892 375.949 352.676V383.617C375.949 388.401 372.062 392.293 367.284 392.293ZM336.384 348.245C333.946 348.245 331.958 350.236 331.958 352.676V383.617C331.958 386.057 333.946 388.048 336.384 388.048H367.284C369.728 388.048 371.71 386.057 371.71 383.617V352.676C371.71 350.229 369.721 348.245 367.284 348.245H336.384Z" fill="#E4E4E4"/>
<path d="M447.195 357.493H388.825C387.433 357.493 386.305 356.363 386.305 354.969C386.305 353.576 387.433 352.445 388.825 352.445H447.195C448.587 352.445 449.716 353.576 449.716 354.969C449.716 356.363 448.587 357.493 447.195 357.493Z" fill="#E4E4E4"/>
<path d="M437.286 366.278H388.825C387.433 366.278 386.305 365.148 386.305 363.754C386.305 362.361 387.433 361.23 388.825 361.23H437.286C438.678 361.23 439.807 362.361 439.807 363.754C439.807 365.148 438.678 366.278 437.286 366.278Z" fill="#E4E4E4"/>
<path d="M462.298 357.493H456.302C454.91 357.493 453.781 356.363 453.781 354.969C453.781 353.576 454.91 352.445 456.302 352.445H462.298C463.69 352.445 464.819 353.576 464.819 354.969C464.819 356.363 463.69 357.493 462.298 357.493Z" fill="#E4E4E4"/>
<path d="M507.511 366.278H445.786C444.394 366.278 443.266 365.148 443.266 363.754C443.266 362.361 444.394 361.23 445.786 361.23H507.511C508.902 361.23 510.031 362.361 510.031 363.754C510.031 365.148 508.902 366.278 507.511 366.278Z" fill="#E4E4E4"/>
<path d="M451.262 375.071H388.825C387.433 375.071 386.305 373.941 386.305 372.547C386.305 371.154 387.433 370.023 388.825 370.023H451.262C452.653 370.023 453.782 371.154 453.782 372.547C453.782 373.941 452.653 375.071 451.262 375.071Z" fill="#E4E4E4"/>
<path d="M474.643 375.071H459.661C458.269 375.071 457.141 373.941 457.141 372.547C457.141 371.154 458.269 370.023 459.661 370.023H474.643C476.035 370.023 477.164 371.154 477.164 372.547C477.164 373.941 476.035 375.071 474.643 375.071Z" fill="#E4E4E4"/>
<path d="M498.786 383.856H388.825C387.433 383.856 386.305 382.726 386.305 381.332C386.305 379.939 387.433 378.809 388.825 378.809H498.786C500.178 378.809 501.307 379.939 501.307 381.332C501.307 382.726 500.178 383.856 498.786 383.856Z" fill="#E4E4E4"/>
<path d="M505.085 151H261.353C258.793 151 256.719 153.449 256.719 156.469V239.531C256.719 242.551 258.793 245 261.353 245H505.085C507.644 245 509.719 242.551 509.719 239.531V156.469C509.719 153.449 507.644 151 505.085 151Z" fill="#E4E4E4"/>
<path d="M505.085 255H261.353C258.793 255 256.719 255.234 256.719 255.524V263.476C256.719 263.766 258.793 264 261.353 264H505.085C507.644 264 509.719 263.766 509.719 263.476V255.524C509.719 255.234 507.644 255 505.085 255Z" fill="#E4E4E4"/>
<path d="M505.085 274H261.353C258.793 274 256.719 274.234 256.719 274.524V282.476C256.719 282.766 258.793 283 261.353 283H505.085C507.644 283 509.719 282.766 509.719 282.476V274.524C509.719 274.234 507.644 274 505.085 274Z" fill="#E4E4E4"/>
<path d="M505.085 293H261.353C258.793 293 256.719 293.234 256.719 293.524V301.476C256.719 301.766 258.793 302 261.353 302H505.085C507.644 302 509.719 301.766 509.719 301.476V293.524C509.719 293.234 507.644 293 505.085 293Z" fill="#E4E4E4"/>
<path d="M505.085 312H261.353C258.793 312 256.719 312.234 256.719 312.524V320.476C256.719 320.766 258.793 321 261.353 321H505.085C507.644 321 509.719 320.766 509.719 320.476V312.524C509.719 312.234 507.644 312 505.085 312Z" fill="#E4E4E4"/>
<path d="M294.085 346H50.3525C47.7934 346 45.7188 346.234 45.7188 346.524V354.476C45.7188 354.766 47.7934 355 50.3525 355H294.085C296.644 355 298.719 354.766 298.719 354.476V346.524C298.719 346.234 296.644 346 294.085 346Z" fill="#E4E4E4"/>
<path d="M294.085 365H50.3525C47.7934 365 45.7188 365.234 45.7188 365.524V373.476C45.7188 373.766 47.7934 374 50.3525 374H294.085C296.644 374 298.719 373.766 298.719 373.476V365.524C298.719 365.234 296.644 365 294.085 365Z" fill="#E4E4E4"/>
<path d="M294.085 384H50.3525C47.7934 384 45.7188 384.234 45.7188 384.524V392.476C45.7188 392.766 47.7934 393 50.3525 393H294.085C296.644 393 298.719 392.766 298.719 392.476V384.524C298.719 384.234 296.644 384 294.085 384Z" fill="#E4E4E4"/>
<path d="M45.5 165.666C45.5 165.666 56.9917 174.135 61.5252 184.693C61.5252 184.693 71.6691 159.821 89.7192 147.844C89.7192 147.844 74.2744 148.729 61.5252 172.996C61.5252 172.996 54.3671 166.63 45.5 165.66V165.666Z" fill="#E4E4E4"/>
<defs>
<filter id="filter0_d_4269_321794" x="0.5" y="0" width="554" height="432" filterUnits="userSpaceOnUse" color-interpolation-filters="sRGB">
<feFlood flood-opacity="0" result="BackgroundImageFix"/>
<feColorMatrix in="SourceAlpha" type="matrix" values="0 0 0 0 0 0 0 0 0 0 0 0 0 0 0 0 0 0 127 0" result="hardAlpha"/>
<feOffset dy="4"/>
<feGaussianBlur stdDeviation="7.5"/>
<feComposite in2="hardAlpha" operator="out"/>
<feColorMatrix type="matrix" values="0 0 0 0 0 0 0 0 0 0 0 0 0 0 0 0 0 0 0.1 0"/>
<feBlend mode="normal" in2="BackgroundImageFix" result="effect1_dropShadow_4269_321794"/>
<feBlend mode="normal" in="SourceGraphic" in2="effect1_dropShadow_4269_321794" result="shape"/>
</filter>
</defs>
</svg>
