<svg width="24" height="24" viewBox="0 0 24 24" fill="none" xmlns="http://www.w3.org/2000/svg">
<g clip-path="url(#clip0_303_126)">
<path d="M21.3164 0H2.68364C1.20436 0 0 1.20436 0 2.68364V21.3164C0 22.7956 1.20436 24 2.68364 24H21.3164C22.7956 24 24 22.7956 24 21.3164V2.68364C24 1.20436 22.7956 0 21.3164 0ZM22.9091 2.68364V3.27273H14.5604C13.5905 3.27273 12.7331 2.65527 12.4265 1.73455L12.2116 1.09091H21.3164C22.1945 1.09091 22.9091 1.80545 22.9091 2.68364ZM21.3164 22.9091H2.68364C1.80545 22.9091 1.09091 22.1945 1.09091 21.3164V2.68364C1.09091 1.80545 1.80545 1.09091 2.68364 1.09091H11.0607L11.3902 2.07927C11.8462 3.44509 13.1193 4.36364 14.5604 4.36364H22.9091V21.3164C22.9091 22.1945 22.1945 22.9091 21.3164 22.9091Z" fill="#2D3250"/>
<path d="M8.18217 3.27255C8.48342 3.27255 8.72763 3.02834 8.72763 2.7271C8.72763 2.42585 8.48342 2.18164 8.18217 2.18164C7.88093 2.18164 7.63672 2.42585 7.63672 2.7271C7.63672 3.02834 7.88093 3.27255 8.18217 3.27255Z" fill="#2D3250"/>
<path d="M5.99956 3.27255C6.3008 3.27255 6.54501 3.02834 6.54501 2.7271C6.54501 2.42585 6.3008 2.18164 5.99956 2.18164C5.69831 2.18164 5.4541 2.42585 5.4541 2.7271C5.4541 3.02834 5.69831 3.27255 5.99956 3.27255Z" fill="#2D3250"/>
<path d="M3.81792 3.27255C4.11916 3.27255 4.36337 3.02834 4.36337 2.7271C4.36337 2.42585 4.11916 2.18164 3.81792 2.18164C3.51667 2.18164 3.27246 2.42585 3.27246 2.7271C3.27246 3.02834 3.51667 3.27255 3.81792 3.27255Z" fill="#2D3250"/>
<g clip-path="url(#clip1_303_126)">
<path d="M16.1682 19.2827H8.23704V12.0897H16.1679L16.1682 19.2827ZM12.1288 8.40071C13.219 8.3998 14.199 9.06529 14.6004 10.0791H9.74957C10.1127 9.07647 11.0624 8.40675 12.1288 8.40071ZM16.5002 10.061C16.0722 7.98746 14.2461 6.5 12.1288 6.5C10.0118 6.5 8.18599 7.98746 7.75764 10.061H6.20825V21.1275H18.197V10.061H16.5002Z" fill="#2D3250"/>
<path d="M15.4121 11.4258L12.0182 15.8522L10.2477 14.3768L8.99341 15.9443L12.1659 18.5634L16.9243 12.4586L15.4121 11.4258Z" fill="#2D3250"/>
</g>
</g>
<defs>
<clipPath id="clip0_303_126">
<rect width="24" height="24" fill="white"/>
</clipPath>
<clipPath id="clip1_303_126">
<rect width="14.5" height="14.5" fill="white" transform="translate(5 6.5)"/>
</clipPath>
</defs>
</svg>
