<svg width="24" height="24" viewBox="0 0 24 24" fill="none" xmlns="http://www.w3.org/2000/svg">
<g clip-path="url(#clip0_303_8)">
<path d="M24 16.3636V14.1818C24 12.9785 23.0209 12 21.8182 12V2.18179C21.8182 0.978495 20.8392 0 19.6364 0H2.18184C0.979057 0 0 0.978495 0 2.18184V13.0909C0 14.2942 0.979057 15.2728 2.18184 15.2728H4.36367V16.3636C4.36367 17.0184 4.65955 17.5998 5.11773 18C4.65955 18.4002 4.36367 18.9816 4.36367 19.6364V21.8182C4.36367 23.0215 5.34273 24.0001 6.54551 24.0001H21.8183C23.021 24.0001 24.0001 23.0216 24.0001 21.8182V19.6364C24.0001 18.9816 23.7042 18.4002 23.246 18C23.7041 17.5998 24 17.0184 24 16.3636ZM19.3406 1.09089L11.4887 7.46643C11.136 7.69066 10.6268 7.65445 10.369 7.49522L2.47797 1.09089H19.3406ZM4.36362 14.1818H2.18184C1.57991 14.1818 1.09094 13.6923 1.09094 13.0909V2.18184C1.09094 1.94252 1.18396 1.7326 1.31513 1.5525L9.72768 8.3763C10.0825 8.6059 10.4905 8.72735 10.9091 8.72735C11.3118 8.72735 11.706 8.61495 12.0512 8.40135C12.082 8.38484 12.1119 8.36515 12.1407 8.34224L20.5032 1.55265C20.6343 1.73271 20.7273 1.94257 20.7273 2.18179V12H6.54546C5.34268 12 4.36362 12.9785 4.36362 14.1818ZM22.9091 21.8182C22.9091 22.4196 22.4201 22.9091 21.8182 22.9091H6.54546C5.94353 22.9091 5.45457 22.4196 5.45457 21.8182V19.6364C5.45457 19.035 5.94358 18.5455 6.54546 18.5455H21.8182C22.4201 18.5455 22.9091 19.035 22.9091 19.6364V21.8182ZM22.9091 16.3636C22.9091 16.965 22.4201 17.4545 21.8182 17.4545H6.54546C5.94353 17.4545 5.45457 16.965 5.45457 16.3636V14.1818C5.45457 13.5804 5.94358 13.0909 6.54546 13.0909H21.8182C22.4201 13.0909 22.9091 13.5804 22.9091 14.1818V16.3636Z" fill="#2D3250"/>
<path d="M7.09088 14.1816C6.78938 14.1816 6.54541 14.4256 6.54541 14.7271V15.818C6.54541 16.1195 6.78938 16.3635 7.09088 16.3635C7.39238 16.3635 7.63635 16.1195 7.63635 15.818V14.7271C7.6363 14.4256 7.39233 14.1816 7.09088 14.1816Z" fill="#2D3250"/>
<path d="M9.27277 14.1816C8.97127 14.1816 8.72729 14.4256 8.72729 14.7271V15.818C8.72729 16.1195 8.97127 16.3635 9.27277 16.3635C9.57427 16.3635 9.81824 16.1195 9.81824 15.818V14.7271C9.81824 14.4256 9.57427 14.1816 9.27277 14.1816Z" fill="#2D3250"/>
<path d="M11.4547 14.1816C11.1532 14.1816 10.9092 14.4256 10.9092 14.7271V15.818C10.9092 16.1195 11.1532 16.3635 11.4547 16.3635C11.7562 16.3635 12.0001 16.1195 12.0001 15.818V14.7271C12.0001 14.4256 11.7562 14.1816 11.4547 14.1816Z" fill="#2D3250"/>
<path d="M20.7274 16.3634C21.3299 16.3634 21.8183 15.875 21.8183 15.2725C21.8183 14.67 21.3299 14.1816 20.7274 14.1816C20.1249 14.1816 19.6365 14.67 19.6365 15.2725C19.6365 15.875 20.1249 16.3634 20.7274 16.3634Z" fill="#2D3250"/>
<path d="M17.4547 16.3634C18.0571 16.3634 18.5456 15.875 18.5456 15.2725C18.5456 14.67 18.0571 14.1816 17.4547 14.1816C16.8522 14.1816 16.3638 14.67 16.3638 15.2725C16.3638 15.875 16.8522 16.3634 17.4547 16.3634Z" fill="#2D3250"/>
<path d="M7.09088 19.6367C6.78938 19.6367 6.54541 19.8807 6.54541 20.1822V21.2731C6.54541 21.5746 6.78938 21.8186 7.09088 21.8186C7.39238 21.8186 7.63635 21.5746 7.63635 21.2731V20.1822C7.6363 19.8807 7.39233 19.6367 7.09088 19.6367Z" fill="#2D3250"/>
<path d="M9.27277 19.6367C8.97127 19.6367 8.72729 19.8807 8.72729 20.1822V21.2731C8.72729 21.5746 8.97127 21.8186 9.27277 21.8186C9.57427 21.8186 9.81824 21.5746 9.81824 21.2731V20.1822C9.81824 19.8807 9.57427 19.6367 9.27277 19.6367Z" fill="#2D3250"/>
<path d="M11.4547 19.6367C11.1532 19.6367 10.9092 19.8807 10.9092 20.1822V21.2731C10.9092 21.5746 11.1532 21.8186 11.4547 21.8186C11.7562 21.8186 12.0001 21.5746 12.0001 21.2731V20.1822C12.0001 19.8807 11.7562 19.6367 11.4547 19.6367Z" fill="#2D3250"/>
<path d="M20.7274 21.8185C21.3299 21.8185 21.8183 21.3301 21.8183 20.7276C21.8183 20.1251 21.3299 19.6367 20.7274 19.6367C20.1249 19.6367 19.6365 20.1251 19.6365 20.7276C19.6365 21.3301 20.1249 21.8185 20.7274 21.8185Z" fill="#2D3250"/>
<path d="M17.4547 21.8185C18.0571 21.8185 18.5456 21.3301 18.5456 20.7276C18.5456 20.1251 18.0571 19.6367 17.4547 19.6367C16.8522 19.6367 16.3638 20.1251 16.3638 20.7276C16.3638 21.3301 16.8522 21.8185 17.4547 21.8185Z" fill="#2D3250"/>
</g>
<defs>
<clipPath id="clip0_303_8">
<rect width="24" height="24" fill="white"/>
</clipPath>
</defs>
</svg>
