<svg width="24" height="24" viewBox="0 0 24 24" fill="none" xmlns="http://www.w3.org/2000/svg">
<path d="M20.5 18.999H12.5C12.224 18.999 12 19.223 12 19.499C12 19.775 12.224 19.9991 12.5 19.9991H20.5C20.776 19.9991 21 19.775 21 19.499C21 19.223 20.776 18.999 20.5 18.999Z" fill="#2D3250"/>
<path d="M20.5 20.999H12.5C12.224 20.999 12 21.223 12 21.499C12 21.775 12.224 21.9991 12.5 21.9991H20.5C20.776 21.9991 21 21.775 21 21.499C21 21.223 20.776 20.999 20.5 20.999Z" fill="#2D3250"/>
<path d="M3.5 18.999C2.67298 18.999 2 19.672 2 20.499C2 21.326 2.67298 21.999 3.5 21.999C4.32702 21.999 5 21.326 5 20.499C5 19.672 4.32697 18.999 3.5 18.999ZM3.5 20.999C3.224 20.999 2.99998 20.775 2.99998 20.499C2.99998 20.223 3.224 19.999 3.5 19.999C3.776 19.999 4.00002 20.223 4.00002 20.499C3.99997 20.775 3.776 20.999 3.5 20.999Z" fill="#2D3250"/>
<path d="M3.5 12.999C2.67298 12.999 2 13.672 2 14.499C2 15.326 2.67298 15.999 3.5 15.999C4.32702 15.999 5 15.326 5 14.499C5 13.672 4.32697 12.999 3.5 12.999ZM3.5 14.999C3.224 14.999 2.99998 14.775 2.99998 14.499C2.99998 14.223 3.224 13.999 3.5 13.999C3.776 13.999 4.00002 14.223 4.00002 14.499C4.00002 14.775 3.776 14.999 3.5 14.999Z" fill="#2D3250"/>
<path d="M20.5 8.99902H12.5C12.224 8.99902 12 9.22304 12 9.49904C12 9.77504 12.224 9.99905 12.5 9.99905H20.5C20.776 9.99905 21 9.77504 21 9.49904C21 9.22304 20.776 8.99902 20.5 8.99902Z" fill="#2D3250"/>
<path d="M24 9.49898V7.49897C24 7.01897 23.857 6.57398 23.621 6.19195C23.614 6.17794 23.613 6.16195 23.605 6.14897L20.513 1.179C20.054 0.441 19.26 0 18.39 0H5.613C4.74202 0 3.94898 0.441 3.48998 1.179L0.398016 6.14897C0.393 6.15698 0.393 6.16598 0.388031 6.17498C0.146016 6.55997 0 7.01198 0 7.49897V9.49898C0 10.319 0.402984 11.043 1.01602 11.499C0.402984 11.956 0 12.679 0 13.499V15.499C0 16.319 0.402984 17.043 1.01602 17.499C0.402984 17.956 0 18.679 0 19.499V21.499C0 22.877 1.122 23.999 2.49998 23.999H21.5C22.878 23.999 24 22.877 24 21.499V19.499C24 18.679 23.597 17.955 22.9839 17.499C23.597 17.043 24 16.319 24 15.499V13.499C24 12.679 23.597 11.955 22.984 11.499C23.597 11.043 24 10.32 24 9.49898ZM4.33898 1.707C4.614 1.26398 5.08997 0.999 5.61197 0.999H18.389C18.911 0.999 19.387 1.26398 19.662 1.707L21.725 5.022C21.65 5.01502 21.577 4.99898 21.5 4.99898H2.49998C2.42297 4.99898 2.35097 5.01497 2.27597 5.022L4.33898 1.707ZM23 19.499V21.499C23 22.326 22.327 22.999 21.5 22.999H2.49998C1.67297 22.999 0.999984 22.326 0.999984 21.499V19.499C0.999984 18.672 1.67297 17.999 2.49998 17.999H21.5C22.327 17.999 23 18.672 23 19.499ZM23 13.499V15.499C23 16.326 22.327 16.999 21.5 16.999H2.49998C1.67297 16.999 0.999984 16.326 0.999984 15.499V13.499C0.999984 12.672 1.67297 11.999 2.49998 11.999H21.5C22.327 11.999 23 12.672 23 13.499ZM23 9.49898C23 10.326 22.327 10.999 21.5 10.999H2.49998C1.67297 10.999 0.999984 10.326 0.999984 9.49898V7.49897C0.999984 6.67195 1.67297 5.99897 2.49998 5.99897H21.5C22.327 5.99897 23 6.67195 23 7.49897V9.49898H23Z" fill="#2D3250"/>
<path d="M20.5 6.99902H12.5C12.224 6.99902 12 7.22304 12 7.49904C12 7.77504 12.224 7.99905 12.5 7.99905H20.5C20.776 7.99905 21 7.77504 21 7.49904C21 7.22304 20.776 6.99902 20.5 6.99902Z" fill="#2D3250"/>
<path d="M20.5 14.999H12.5C12.224 14.999 12 15.223 12 15.499C12 15.775 12.224 15.9991 12.5 15.9991H20.5C20.776 15.9991 21 15.775 21 15.499C21 15.223 20.776 14.999 20.5 14.999Z" fill="#2D3250"/>
<path d="M20.5 12.999H12.5C12.224 12.999 12 13.223 12 13.499C12 13.775 12.224 13.9991 12.5 13.9991H20.5C20.776 13.9991 21 13.775 21 13.499C21 13.223 20.776 12.999 20.5 12.999Z" fill="#2D3250"/>
<path d="M3.5 6.99902C2.67298 6.99902 2 7.67201 2 8.49902C2 9.32604 2.67298 9.99902 3.5 9.99902C4.32702 9.99902 5 9.32604 5 8.49902C5 7.67201 4.32697 6.99902 3.5 6.99902ZM3.5 8.99899C3.224 8.99899 2.99998 8.77498 2.99998 8.49898C2.99998 8.22298 3.224 7.99896 3.5 7.99896C3.776 7.99896 4.00002 8.22298 4.00002 8.49898C4.00002 8.77498 3.776 8.99899 3.5 8.99899Z" fill="#2D3250"/>
</svg>
