<svg width="24" height="24" viewBox="0 0 24 24" fill="none" xmlns="http://www.w3.org/2000/svg">
<g clip-path="url(#clip0_303_75)">
<mask id="mask0_303_75" style="mask-type:luminance" maskUnits="userSpaceOnUse" x="13" y="11" width="11" height="12">
<path d="M23.9999 11.3184H13.0911V22.2272H23.9999V11.3184Z" fill="white"/>
</mask>
<g mask="url(#mask0_303_75)">
<path d="M18.5455 11.3184C17.4667 11.3184 16.4122 11.6383 15.5152 12.2376C14.6182 12.837 13.9191 13.6888 13.5063 14.6855C13.0934 15.6821 12.9854 16.7788 13.1959 17.8369C13.4063 18.895 13.9258 19.8669 14.6886 20.6297C15.4514 21.3925 16.4233 21.912 17.4814 22.1224C18.5395 22.3329 19.6362 22.2249 20.6328 21.812C21.6295 21.3992 22.4814 20.7001 23.0807 19.8031C23.68 18.9061 23.9999 17.8516 23.9999 16.7728C23.9983 15.3267 23.4231 13.9403 22.4005 12.9178C21.378 11.8952 19.9916 11.32 18.5455 11.3184ZM18.5455 21.3514C17.64 21.3514 16.7547 21.0829 16.0018 20.5798C15.2488 20.0767 14.662 19.3616 14.3154 18.525C13.9689 17.6883 13.8782 16.7677 14.0549 15.8796C14.2316 14.9914 14.6676 14.1756 15.3079 13.5352C15.9483 12.8949 16.7641 12.4588 17.6523 12.2822C18.5404 12.1055 19.461 12.1962 20.2977 12.5427C21.1343 12.8892 21.8494 13.4761 22.3525 14.229C22.8556 14.982 23.1241 15.8672 23.1241 16.7728C23.1228 17.9867 22.64 19.1505 21.7816 20.0089C20.9232 20.8673 19.7594 21.3501 18.5455 21.3514Z" fill="#2D3250"/>
<path d="M22.2257 15.2789L21.5899 14.315C21.5259 14.2181 21.426 14.1505 21.3122 14.1271C21.1984 14.1037 21.08 14.1266 20.9831 14.1905C20.8861 14.2545 20.8185 14.3544 20.7952 14.4682C20.7718 14.5819 20.7946 14.7004 20.8586 14.7974L21.3709 15.5742L20.2344 18.5695L18.676 14.841C18.6312 14.7338 18.5456 14.6489 18.4381 14.6048C18.3306 14.5607 18.2101 14.5612 18.1029 14.6061C17.9958 14.6509 17.9108 14.7365 17.8667 14.8439C17.8227 14.9514 17.8232 15.072 17.868 15.1792L18.3577 16.348L17.5154 18.5687L15.957 14.8402C15.9122 14.733 15.8266 14.6481 15.7191 14.604C15.6116 14.56 15.491 14.5604 15.3839 14.6053C15.2767 14.6501 15.1918 14.7357 15.1477 14.8432C15.1036 14.9507 15.1041 15.0712 15.149 15.1784L17.1324 19.9198C17.1658 19.9995 17.2219 20.0675 17.2938 20.1154C17.3657 20.1632 17.4501 20.1887 17.5364 20.1887H17.5438C17.6314 20.1872 17.7166 20.1595 17.7882 20.1092C17.8599 20.0588 17.9148 19.9881 17.9459 19.9062L18.8502 17.523L19.8526 19.9198C19.886 19.9995 19.9421 20.0675 20.014 20.1154C20.0859 20.1632 20.1703 20.1887 20.2567 20.1887H20.2598C20.3474 20.1872 20.4325 20.1595 20.5041 20.1092C20.5758 20.0588 20.6307 19.9881 20.6618 19.9062L22.2678 15.6747C22.2925 15.6101 22.3016 15.5406 22.2943 15.4718C22.287 15.4029 22.2635 15.3368 22.2257 15.2789Z" fill="#2D3250"/>
</g>
</g>
<path d="M20.1814 9.13622H3.81811C1.71269 9.13622 0 7.42352 0 5.31811C0 3.21269 1.71269 1.5 3.81811 1.5H20.1814C22.2868 1.5 23.9995 3.21269 23.9995 5.31811C23.9995 7.42352 22.2868 9.13622 20.1814 9.13622ZM3.81811 2.59089C2.31377 2.59089 1.09089 3.81377 1.09089 5.31811C1.09089 6.82244 2.31377 8.04533 3.81811 8.04533H20.1814C21.6858 8.04533 22.9086 6.82244 22.9086 5.31811C22.9086 3.81377 21.6858 2.59089 20.1814 2.59089H3.81811Z" fill="#2D3250"/>
<path d="M4.90953 6.95431C4.00736 6.95431 3.27319 6.22014 3.27319 5.31797C3.27319 4.41581 4.00736 3.68164 4.90953 3.68164C5.81169 3.68164 6.54586 4.41581 6.54586 5.31797C6.54586 6.22014 5.81169 6.95431 4.90953 6.95431ZM4.90953 4.77253C4.60953 4.77253 4.36408 5.01798 4.36408 5.31797C4.36408 5.61797 4.60953 5.86342 4.90953 5.86342C5.20952 5.86342 5.45497 5.61797 5.45497 5.31797C5.45497 5.01798 5.20952 4.77253 4.90953 4.77253Z" fill="#2D3250"/>
<path d="M10.3629 6.95431C9.46073 6.95431 8.72656 6.22014 8.72656 5.31797C8.72656 4.41581 9.46073 3.68164 10.3629 3.68164C11.2651 3.68164 11.9992 4.41581 11.9992 5.31797C11.9992 6.22014 11.2651 6.95431 10.3629 6.95431ZM10.3629 4.77253C10.0629 4.77253 9.81745 5.01798 9.81745 5.31797C9.81745 5.61797 10.0629 5.86342 10.3629 5.86342C10.6629 5.86342 10.9083 5.61797 10.9083 5.31797C10.9083 5.01798 10.6629 4.77253 10.3629 4.77253Z" fill="#2D3250"/>
<path d="M10.3634 15.6821H3.81811C1.71269 15.6821 0 13.9694 0 11.864C0 10.8451 0.397083 9.88732 1.11925 9.16515C1.84142 8.44298 2.79922 8.0459 3.81811 8.0459H20.1814C21.0345 8.0459 21.8385 8.31971 22.5028 8.83788C22.7407 9.02333 22.7832 9.36587 22.5977 9.60369C22.4123 9.84041 22.0698 9.88295 21.8319 9.69859C21.3607 9.33097 20.7901 9.13679 20.1814 9.13679H3.81811C3.09158 9.13679 2.4065 9.42151 1.89051 9.93641C1.37452 10.4513 1.09089 11.1375 1.09089 11.864C1.09089 13.3683 2.31377 14.5912 3.81811 14.5912H10.3634C10.6645 14.5912 10.9089 14.8356 10.9089 15.1367C10.9089 15.4378 10.6645 15.6821 10.3634 15.6821Z" fill="#2D3250"/>
<path d="M4.90953 13.5002C4.00736 13.5002 3.27319 12.766 3.27319 11.8639C3.27319 10.9617 4.00736 10.2275 4.90953 10.2275C5.81169 10.2275 6.54586 10.9617 6.54586 11.8639C6.54586 12.766 5.81169 13.5002 4.90953 13.5002ZM4.90953 11.3184C4.60953 11.3184 4.36408 11.5639 4.36408 11.8639C4.36408 12.1639 4.60953 12.4093 4.90953 12.4093C5.20952 12.4093 5.45497 12.1639 5.45497 11.8639C5.45497 11.5639 5.20952 11.3184 4.90953 11.3184Z" fill="#2D3250"/>
<path d="M10.3629 13.5002C9.46073 13.5002 8.72656 12.766 8.72656 11.8639C8.72656 10.9617 9.46073 10.2275 10.3629 10.2275C11.2651 10.2275 11.9992 10.9617 11.9992 11.8639C11.9992 12.766 11.2651 13.5002 10.3629 13.5002ZM10.3629 11.3184C10.0629 11.3184 9.81745 11.5639 9.81745 11.8639C9.81745 12.1639 10.0629 12.4093 10.3629 12.4093C10.6629 12.4093 10.9083 12.1639 10.9083 11.8639C10.9083 11.5639 10.6629 11.3184 10.3629 11.3184Z" fill="#2D3250"/>
<path d="M10.3634 22.227H3.81811C1.71269 22.227 0 20.5143 0 18.4089C0 17.39 0.397083 16.4322 1.11925 15.7101C1.84142 14.9879 2.79922 14.5908 3.81811 14.5908H10.3634C10.6645 14.5908 10.9089 14.8352 10.9089 15.1363C10.9089 15.4373 10.6645 15.6817 10.3634 15.6817H3.81811C3.09158 15.6817 2.4065 15.9664 1.89051 16.4813C1.37452 16.9962 1.09089 17.6824 1.09089 18.4089C1.09089 19.9133 2.31377 21.1361 3.81811 21.1361H10.3634C10.6645 21.1361 10.9089 21.3805 10.9089 21.6816C10.9089 21.9827 10.6645 22.227 10.3634 22.227Z" fill="#2D3250"/>
<path d="M4.90953 20.0451C4.00736 20.0451 3.27319 19.311 3.27319 18.4088C3.27319 17.5066 4.00736 16.7725 4.90953 16.7725C5.81169 16.7725 6.54586 17.5066 6.54586 18.4088C6.54586 19.311 5.81169 20.0451 4.90953 20.0451ZM4.90953 17.8633C4.60953 17.8633 4.36408 18.1088 4.36408 18.4088C4.36408 18.7088 4.60953 18.9542 4.90953 18.9542C5.20952 18.9542 5.45497 18.7088 5.45497 18.4088C5.45497 18.1088 5.20952 17.8633 4.90953 17.8633Z" fill="#2D3250"/>
<path d="M10.3629 20.0451C9.46073 20.0451 8.72656 19.311 8.72656 18.4088C8.72656 17.5066 9.46073 16.7725 10.3629 16.7725C11.2651 16.7725 11.9992 17.5066 11.9992 18.4088C11.9992 19.311 11.2651 20.0451 10.3629 20.0451ZM10.3629 17.8633C10.0629 17.8633 9.81745 18.1088 9.81745 18.4088C9.81745 18.7088 10.0629 18.9542 10.3629 18.9542C10.6629 18.9542 10.9083 18.7088 10.9083 18.4088C10.9083 18.1088 10.6629 17.8633 10.3629 17.8633Z" fill="#2D3250"/>
<defs>
<clipPath id="clip0_303_75">
<rect width="10.9089" height="10.9089" fill="white" transform="translate(13.0911 11.3184)"/>
</clipPath>
</defs>
</svg>
