<svg width="24" height="24" viewBox="0 0 24 24" fill="none" xmlns="http://www.w3.org/2000/svg">
<path d="M12.7977 0.00659835C12.352 -0.00496028 11.9061 -0.00133227 11.4606 0.0174761C4.19848 0.326235 0.189633 3.66736 0.189633 3.66736C0.189633 3.66736 -1.08557 10.5596 2.97767 16.6829C7.04091 22.8063 11.9083 23.7217 11.9083 23.7217C11.9083 23.7217 17.086 22.8121 20.9301 16.8972C24.7741 10.983 23.9189 3.5544 23.9189 3.5544C23.9189 3.5544 19.3528 0.173948 12.7977 0.00659835ZM12.704 1.40062C18.4918 1.54872 22.5257 4.53088 22.5257 4.53088C22.5257 4.53088 23.2805 11.0868 19.8858 16.3056C16.492 21.5244 11.92 22.326 11.92 22.326C11.92 22.326 7.62078 21.5193 4.03281 16.1165C0.444841 10.7136 1.57026 4.63129 1.57026 4.63129C1.57026 4.63129 5.11054 1.6826 11.5234 1.40982C11.925 1.39309 12.3183 1.39058 12.7032 1.40062H12.704Z" fill="#2D3250"/>
<path opacity="0.862" d="M11.1822 21.2679L11.1613 17.4105C10.5446 17.0307 9.51792 16.6767 7.77916 13.5649C6.52069 11.3132 6.2111 10.1903 5.92995 8.47828C5.72495 7.23487 5.96761 6.77048 5.96761 6.77048C5.96761 6.77048 6.83196 5.94545 11.1956 5.61409V2.50977C8.22347 2.66456 5.12668 3.30802 2.59217 4.93633C2.59217 4.93633 2.03574 10.4722 4.89908 15.5513C6.95999 19.2062 9.78568 20.6831 11.1822 21.2679Z" fill="#2D3250"/>
<path opacity="0.862" d="M12.8564 9.90895L12.8497 13.0886C12.8497 13.0886 13.7458 13.0342 14.3115 13.1112C15.3833 13.2074 16.4276 13.63 16.4703 13.6484C15.9624 14.8432 15.4235 15.5854 14.7784 16.2297C14.0621 16.946 13.2069 17.3903 12.6965 17.5593L12.8137 21.2996C13.796 20.9674 16.4334 19.9164 18.8792 15.9586C19.7051 14.6215 20.2348 13.2015 20.6272 11.8151C20.3653 11.7021 19.6072 11.3716 19.096 11.1791C18.542 10.9699 17.5823 10.6603 17.4334 10.6127C17.2701 11.3026 17.0744 11.9845 16.8468 12.656C16.764 12.907 16.8326 13.2066 16.7422 13.4342L17.1656 12.0552L17.5898 10.6746C17.5898 10.6746 16.3422 10.2286 15.1181 10.0688C14.4177 9.97673 12.8564 9.90895 12.8564 9.90895ZM12.7852 2.45605V5.57712C12.7819 5.57293 12.7877 5.58297 12.7852 5.57712C16.9372 5.97708 18.1831 6.72932 18.1831 6.72932C18.1831 6.72932 18.3387 7.3209 18.1161 8.48397C18.5027 8.61953 19.4432 8.91573 19.9821 9.12576C20.4615 9.31319 20.9293 9.52823 21.1711 9.64287C21.6413 6.60966 21.566 5.06754 21.566 5.06754C21.566 5.06754 17.7045 2.65102 12.7852 2.45605Z" fill="#2D3250"/>
</svg>
