<svg width="24" height="24" viewBox="0 0 24 24" fill="none" xmlns="http://www.w3.org/2000/svg">
<path d="M17.8923 24L1.94092 20.9595V7.65112L17.8923 4.61719L22.0789 6.2998V22.3174L17.8923 24ZM3.00075 20.0784L17.7862 22.9004L21.019 21.602V7.01515L17.7862 5.7168L3.00075 8.53221V20.0784Z" fill="#2D3250"/>
<path d="M6.71066 5.82936H5.65063V3.7097C5.65063 1.66087 7.31151 0 9.36033 0C11.4092 0 13.07 1.66087 13.07 3.7097V4.76953H12.01V3.7097C12.01 2.2462 10.8236 1.05983 9.36033 1.05983C7.89683 1.05983 6.71066 2.2462 6.71066 3.7097V5.82936Z" fill="#2D3250"/>
<path d="M15.7197 4.2395H14.6599V3.70968C14.6581 2.58872 13.9531 1.58964 12.8977 1.21216L13.2488 0.211914C14.729 0.738433 15.7182 2.13867 15.7197 3.70968V4.2395Z" fill="#2D3250"/>
<path d="M14.6597 19.3032L5.12061 17.7795V10.8371L14.6597 9.31348V19.3032ZM6.18044 16.8786L13.5996 18.0644V10.5522L6.18044 11.7446V16.8786Z" fill="#2D3250"/>
<path d="M9.36011 10.6123H10.4199V18.0071H9.36011V10.6123Z" fill="#2D3250"/>
<path d="M5.65063 13.7783H14.1299V14.8383H5.65063V13.7783Z" fill="#2D3250"/>
<path d="M17.3093 5.16699H18.3692V23.4502H17.3093V5.16699Z" fill="#2D3250"/>
</svg>
