<svg width="24" height="24" viewBox="0 0 24 24" fill="none" xmlns="http://www.w3.org/2000/svg">
<path d="M2.72464 22.5687H21.2754C22.7776 22.5687 24 21.3463 24 19.844V4.11624C24 2.61397 22.7776 1.3916 21.2754 1.3916H2.72464C1.22237 1.3916 0 2.61397 0 4.11624V19.844C0 21.3463 1.22237 22.5687 2.72464 22.5687ZM21.2754 2.2032C22.3302 2.2032 23.1884 3.06144 23.1884 4.11624V19.844C23.1884 20.8988 22.3302 21.7571 21.2754 21.7571H2.72464C1.66984 21.7571 0.811594 20.8988 0.811594 19.844V4.11624C0.811594 3.06144 1.66984 2.2032 2.72464 2.2032H21.2754Z" fill="#2D3250"/>
<path d="M0.405796 6.82527H23.5942C23.8184 6.82527 24 6.64365 24 6.41947C24 6.19528 23.8184 6.01367 23.5942 6.01367H0.405796C0.181612 6.01367 0 6.19528 0 6.41947C0 6.64365 0.181612 6.82527 0.405796 6.82527Z" fill="#2D3250"/>
<path d="M18.1499 5.37888C18.8463 5.37888 19.4128 4.81253 19.4128 4.1162C19.4128 3.41987 18.8463 2.85352 18.1499 2.85352C17.4536 2.85352 16.8873 3.41987 16.8873 4.1162C16.8873 4.81253 17.4536 5.37888 18.1499 5.37888ZM18.1499 3.66511C18.3988 3.66511 18.6012 3.86756 18.6012 4.1162C18.6012 4.36484 18.3988 4.56728 18.1499 4.56728C17.9013 4.56728 17.6988 4.36484 17.6988 4.1162C17.6988 3.86756 17.9013 3.66511 18.1499 3.66511Z" fill="#2D3250"/>
<path d="M21.0737 5.37888C21.7698 5.37888 22.3364 4.81253 22.3364 4.1162C22.3364 3.41987 21.7698 2.85352 21.0737 2.85352C20.3774 2.85352 19.8108 3.41987 19.8108 4.1162C19.8108 4.81253 20.3774 5.37888 21.0737 5.37888ZM21.0737 3.66511C21.3224 3.66511 21.5248 3.86756 21.5248 4.1162C21.5248 4.36484 21.3224 4.56728 21.0737 4.56728C20.8249 4.56728 20.6224 4.36484 20.6224 4.1162C20.6224 3.86756 20.8249 3.66511 21.0737 3.66511Z" fill="#2D3250"/>
<path d="M15.2263 5.37888C15.9227 5.37888 16.489 4.81253 16.489 4.1162C16.489 3.41987 15.9227 2.85352 15.2263 2.85352C14.53 2.85352 13.9634 3.41987 13.9634 4.1162C13.9634 4.81253 14.53 5.37888 15.2263 5.37888ZM15.2263 3.66511C15.4752 3.66511 15.6774 3.86756 15.6774 4.1162C15.6774 4.36484 15.475 4.56728 15.2263 4.56728C14.9775 4.56728 14.775 4.36484 14.775 4.1162C14.775 3.86756 14.9775 3.66511 15.2263 3.66511Z" fill="#2D3250"/>
<g clip-path="url(#clip0_303_173)">
<path d="M6.96137 8.8125C8.09056 8.8125 9.03669 9.54838 9.33092 10.6516C9.84506 8.99133 11.1857 8.8125 11.7367 8.8125C12.2968 8.8125 13.6284 8.99194 14.1516 10.6516C14.4458 9.54838 15.3822 8.8125 16.5211 8.8125C17.9077 8.8125 19 9.78158 19 11.0201C19 11.8478 18.8816 11.9717 16.8147 17.6956C16.181 19.4271 14.8953 19.6784 14.1884 19.6784C13.0774 19.6784 12.2049 19.122 11.7548 18.1354C11.3047 19.1311 10.4323 19.6875 9.32125 19.6875C8.61437 19.6875 7.32871 19.4271 6.69494 17.6956C4.52719 11.73 4.5 11.817 4.5 11.1996C4.48187 9.81783 5.51983 8.8125 6.96137 8.8125ZM6.21462 12.0949L8.07244 17.1391C8.29658 17.7536 8.67358 18.2037 9.38167 18.2037C10.0456 18.2037 10.4402 17.8484 10.6287 17.2346L11.7409 13.8772H11.7681L12.8804 17.2346C13.0774 17.849 13.4725 18.1952 14.1268 18.1952C14.8355 18.1952 15.2125 17.7451 15.4366 17.1307L17.2757 12.1209C17.428 11.6968 17.4999 11.437 17.4999 11.1349C17.4999 10.6679 17.0516 10.2957 16.4142 10.2957C15.8849 10.2957 15.5079 10.6329 15.3913 11.1265L14.1443 15.1242H14.1171L12.8526 11.2135C12.6822 10.651 12.3862 10.2957 11.7494 10.2957C11.1126 10.2957 10.8166 10.6425 10.6462 11.2135L9.38167 15.1242H9.35448L8.10748 11.1265C7.99088 10.6329 7.61387 10.2957 7.08462 10.2957C6.45689 10.2957 5.99894 10.6764 5.99894 11.3168C6.008 11.5415 6.11554 11.7747 6.21462 12.0949Z" fill="#2D3250"/>
</g>
<defs>
<clipPath id="clip0_303_173">
<rect width="14.5" height="14.5" fill="white" transform="matrix(-1 0 0 1 19 7)"/>
</clipPath>
</defs>
</svg>
