<svg width="24" height="24" viewBox="0 0 24 24" fill="none" xmlns="http://www.w3.org/2000/svg">
<g clip-path="url(#clip0_303_31)">
<path d="M18 24.0002C17.934 24.0002 17.868 23.9873 17.806 23.9613C17.568 23.8603 12 21.4542 12 16.5362V12.3573C12 12.1423 12.137 11.9523 12.34 11.8833L17.84 10.0263C17.944 9.99125 18.057 9.99125 18.16 10.0263L23.66 11.8833C23.863 11.9513 24 12.1423 24 12.3573V16.5362C24 21.4542 18.432 23.8603 18.194 23.9613C18.132 23.9873 18.066 24.0002 18 24.0002ZM13 12.7172V16.5362C13 20.3202 17.055 22.4942 18 22.9492C18.944 22.4932 23 20.3102 23 16.5362V12.7172L18 11.0282L13 12.7172Z" fill="#2D3250"/>
<path d="M17.5 19.0002C17.491 19.0002 17.481 19.0003 17.473 18.9993C17.33 18.9913 17.199 18.9243 17.11 18.8123L15.11 16.3123C14.938 16.0963 14.972 15.7823 15.188 15.6093C15.405 15.4393 15.718 15.4733 15.891 15.6873L17.541 17.7503L20.646 14.6462C20.841 14.4513 21.158 14.4513 21.353 14.6462C21.548 14.8413 21.548 15.1582 21.353 15.3532L17.853 18.8533C17.76 18.9473 17.632 19.0002 17.5 19.0002Z" fill="#2D3250"/>
<path d="M18.5 8H3.5C1.57 8 0 6.43 0 4.5C0 2.57 1.57 1 3.5 1H18.5C20.43 1 22 2.57 22 4.5C22 6.43 20.43 8 18.5 8ZM3.5 2C2.121 2 1 3.121 1 4.5C1 5.879 2.121 7 3.5 7H18.5C19.879 7 21 5.879 21 4.5C21 3.121 19.879 2 18.5 2H3.5Z" fill="#2D3250"/>
<path d="M4.5 6C3.673 6 3 5.327 3 4.5C3 3.673 3.673 3 4.5 3C5.327 3 6 3.673 6 4.5C6 5.327 5.327 6 4.5 6ZM4.5 4C4.225 4 4 4.225 4 4.5C4 4.775 4.225 5 4.5 5C4.775 5 5 4.775 5 4.5C5 4.225 4.775 4 4.5 4Z" fill="#2D3250"/>
<path d="M9.5 6C8.673 6 8 5.327 8 4.5C8 3.673 8.673 3 9.5 3C10.327 3 11 3.673 11 4.5C11 5.327 10.327 6 9.5 6ZM9.5 4C9.225 4 9 4.225 9 4.5C9 4.775 9.225 5 9.5 5C9.775 5 10 4.775 10 4.5C10 4.225 9.775 4 9.5 4Z" fill="#2D3250"/>
<path d="M9.5 14H3.5C1.57 14 0 12.43 0 10.5C0 9.566 0.364 8.688 1.026 8.026C1.688 7.364 2.566 7 3.5 7H18.5C19.282 7 20.019 7.251 20.628 7.726C20.846 7.896 20.885 8.21 20.715 8.428C20.545 8.645 20.231 8.684 20.013 8.515C19.581 8.178 19.058 8 18.5 8H3.5C2.834 8 2.206 8.261 1.733 8.733C1.26 9.205 1 9.834 1 10.5C1 11.879 2.121 13 3.5 13H9.5C9.776 13 10 13.224 10 13.5C10 13.776 9.776 14 9.5 14Z" fill="#2D3250"/>
<path d="M4.5 12C3.673 12 3 11.327 3 10.5C3 9.673 3.673 9 4.5 9C5.327 9 6 9.673 6 10.5C6 11.327 5.327 12 4.5 12ZM4.5 10C4.225 10 4 10.225 4 10.5C4 10.775 4.225 11 4.5 11C4.775 11 5 10.775 5 10.5C5 10.225 4.775 10 4.5 10Z" fill="#2D3250"/>
<path d="M9.5 12C8.673 12 8 11.327 8 10.5C8 9.673 8.673 9 9.5 9C10.327 9 11 9.673 11 10.5C11 11.327 10.327 12 9.5 12ZM9.5 10C9.225 10 9 10.225 9 10.5C9 10.775 9.225 11 9.5 11C9.775 11 10 10.775 10 10.5C10 10.225 9.775 10 9.5 10Z" fill="#2D3250"/>
<path d="M9.5 20H3.5C1.57 20 0 18.43 0 16.5C0 15.566 0.364 14.688 1.026 14.026C1.688 13.364 2.566 13 3.5 13H9.5C9.776 13 10 13.224 10 13.5C10 13.776 9.776 14 9.5 14H3.5C2.834 14 2.206 14.261 1.733 14.733C1.26 15.205 1 15.834 1 16.5C1 17.879 2.121 19 3.5 19H9.5C9.776 19 10 19.224 10 19.5C10 19.776 9.776 20 9.5 20Z" fill="#2D3250"/>
<path d="M4.5 18C3.673 18 3 17.327 3 16.5C3 15.673 3.673 15 4.5 15C5.327 15 6 15.673 6 16.5C6 17.327 5.327 18 4.5 18ZM4.5 16C4.225 16 4 16.225 4 16.5C4 16.775 4.225 17 4.5 17C4.775 17 5 16.775 5 16.5C5 16.225 4.775 16 4.5 16Z" fill="#2D3250"/>
<path d="M9.5 18C8.673 18 8 17.327 8 16.5C8 15.673 8.673 15 9.5 15C10.327 15 11 15.673 11 16.5C11 17.327 10.327 18 9.5 18ZM9.5 16C9.225 16 9 16.225 9 16.5C9 16.775 9.225 17 9.5 17C9.775 17 10 16.775 10 16.5C10 16.225 9.775 16 9.5 16Z" fill="#2D3250"/>
</g>
<defs>
<clipPath id="clip0_303_31">
<rect width="24" height="24" fill="white"/>
</clipPath>
</defs>
</svg>
