<svg width="24" height="24" viewBox="0 0 24 24" fill="none" xmlns="http://www.w3.org/2000/svg">
<g clip-path="url(#clip0_303_148)">
<path d="M4.38583 2.59082C3.51142 2.59082 2.80005 3.30196 2.80005 4.17599C2.80005 5.05002 3.51142 5.76116 4.38583 5.76116C5.26094 5.76116 5.97292 5.05002 5.97292 4.17599C5.97292 3.30196 5.26094 2.59082 4.38583 2.59082ZM4.38583 4.81579C4.03272 4.81579 3.74547 4.52877 3.74547 4.17599C3.74547 3.82321 4.03272 3.53624 4.38583 3.53624C4.73964 3.53624 5.02755 3.82326 5.02755 4.17604C5.02755 4.52882 4.73964 4.81579 4.38583 4.81579Z" fill="#2D3250"/>
<path d="M18.2514 2.59082H14.0594C13.185 2.59082 12.4736 3.30196 12.4736 4.17599C12.4736 5.05002 13.185 5.76116 14.0594 5.76116H18.2514C19.1258 5.76116 19.8372 5.05002 19.8372 4.17599C19.8372 3.30196 19.1258 2.59082 18.2514 2.59082ZM18.2514 4.81579H14.0594C13.7063 4.81579 13.4191 4.52877 13.4191 4.17599C13.4191 3.82321 13.7064 3.5362 14.0594 3.5362H18.2514C18.6045 3.5362 18.8918 3.82321 18.8918 4.17599C18.8918 4.52877 18.6045 4.81579 18.2514 4.81579Z" fill="#2D3250"/>
<path d="M8.49545 2.59082C7.62104 2.59082 6.90967 3.30196 6.90967 4.17599C6.90967 5.05002 7.62104 5.76116 8.49545 5.76116C9.37056 5.76116 10.0825 5.05002 10.0825 4.17599C10.0825 3.30196 9.37056 2.59082 8.49545 2.59082ZM8.49545 4.81579C8.14234 4.81579 7.85509 4.52877 7.85509 4.17599C7.85509 3.82321 8.14239 3.5362 8.49545 3.5362C8.84926 3.5362 9.13717 3.82321 9.13717 4.17599C9.13717 4.52877 8.84926 4.81579 8.49545 4.81579Z" fill="#2D3250"/>
<path d="M7.72456 10.4272C7.47073 10.3664 7.21559 10.5231 7.15493 10.777L6.21715 14.7013C6.15649 14.9552 6.3131 15.2103 6.56702 15.2709C6.60396 15.2798 6.64095 15.284 6.67732 15.284C6.89102 15.284 7.0848 15.138 7.13665 14.9211L8.07443 10.9968C8.13513 10.7429 7.97848 10.4879 7.72456 10.4272Z" fill="#2D3250"/>
<path d="M9.46009 14.8096C9.55018 14.8899 9.6625 14.9294 9.77434 14.9294C9.90451 14.9294 10.0341 14.8759 10.1275 14.7711L11.4531 13.2831C11.6718 13.0396 11.6718 12.6583 11.4544 12.4164L10.1275 10.9268C9.95378 10.7318 9.65495 10.7147 9.46009 10.8883C9.26509 11.0619 9.24784 11.3608 9.42151 11.5557L10.5736 12.8489L9.42151 14.1422C9.24789 14.3372 9.26514 14.636 9.46009 14.8096Z" fill="#2D3250"/>
<path d="M4.8318 10.8883C4.6368 10.7146 4.33806 10.732 4.16439 10.9268L2.839 12.4147C2.62 12.6582 2.62 13.0397 2.8375 13.2815L4.16444 14.7711C4.25786 14.876 4.38742 14.9294 4.51764 14.9294C4.62948 14.9294 4.74184 14.8899 4.83189 14.8096C5.02689 14.636 5.04414 14.3371 4.87047 14.1422L3.71842 12.849L4.87047 11.5557C5.04405 11.3607 5.0268 11.0619 4.8318 10.8883Z" fill="#2D3250"/>
<path d="M22.9402 15.9158H22.7647C22.6728 15.618 22.5537 15.3306 22.4084 15.0559L22.5336 14.9302C22.7336 14.7314 22.844 14.466 22.8444 14.1827C22.8449 13.8989 22.7348 13.6323 22.5346 13.4321L22.2906 13.1882V3.11948C22.2906 1.70953 21.2956 0.5625 20.0725 0.5625H2.21803C0.994969 0.5625 0 1.70953 0 3.11948V16.3313C0 17.7413 0.994969 18.8883 2.21803 18.8883H4.99144C5.25248 18.8883 5.46412 18.6767 5.46412 18.4156C5.46412 18.1546 5.25248 17.943 4.99144 17.943H2.21803C1.52822 17.943 0.945422 17.2049 0.945422 16.3314V7.75542H21.3451V12.5322C21.2912 12.5239 21.2367 12.5185 21.1811 12.5185C21.1806 12.5185 21.18 12.5185 21.1795 12.5185C20.8963 12.519 20.6308 12.6292 20.4336 12.8275L20.3058 12.9548C20.0253 12.8066 19.7332 12.6861 19.4321 12.594V12.4257C19.4321 11.8414 18.9567 11.3662 18.3723 11.3662H17.5169C16.9332 11.3662 16.4584 11.8414 16.4584 12.4257V12.6056C16.1629 12.6984 15.8776 12.8179 15.6049 12.963L15.4824 12.841C15.2836 12.6412 15.0181 12.5308 14.7349 12.5304C14.7344 12.5304 14.7338 12.5304 14.7333 12.5304C14.45 12.5304 14.184 12.6403 13.9842 12.84L13.3799 13.4441C13.1796 13.6442 13.0696 13.9108 13.07 14.1946C13.0704 14.4779 13.1808 14.7433 13.3793 14.9406L13.5098 15.0715C13.3681 15.342 13.2517 15.6241 13.1617 15.9157H12.9822C12.3985 15.9157 11.9237 16.3903 11.9237 16.9738V17.8301C11.9237 17.8681 11.9258 17.9057 11.9297 17.9428H9.17934C8.9183 17.9428 8.70666 18.1544 8.70666 18.4155C8.70666 18.6765 8.9183 18.8881 9.17934 18.8881H12.9821H13.1635C13.2549 19.1825 13.3731 19.4669 13.5172 19.7391L13.3895 19.8663C12.9782 20.2797 12.9786 20.9509 13.3905 21.3624L13.9951 21.9669C14.194 22.1667 14.4595 22.2771 14.7427 22.2775H14.7442C15.0276 22.2775 15.2935 22.1676 15.4934 21.9678L15.62 21.8413C15.8947 21.9861 16.1803 22.1044 16.4743 22.1953V22.3783C16.4743 22.9625 16.9491 23.4378 17.5327 23.4378H18.3895C18.9731 23.4378 19.4479 22.9625 19.4479 22.3783V22.1964C19.7447 22.1049 20.0315 21.9861 20.3058 21.8413L20.4319 21.9668C20.6307 22.1667 20.8961 22.277 21.1793 22.2775H21.181C21.4642 22.2775 21.7302 22.1676 21.9304 21.9675L22.5335 21.3634C22.7335 21.1646 22.8439 20.8992 22.8443 20.616C22.8447 20.3321 22.7347 20.0655 22.5344 19.8653L22.4083 19.7393C22.5521 19.4668 22.6702 19.1822 22.7615 18.8882H22.9401C23.5245 18.8882 23.9999 18.4135 23.9999 17.8301V16.9738C24 16.3904 23.5246 15.9158 22.9402 15.9158ZM0.945422 6.81V3.11948C0.945422 2.24597 1.52822 1.50792 2.21803 1.50792H20.0725C20.7623 1.50792 21.3451 2.24597 21.3451 3.11948V6.81005L0.945422 6.81ZM23.0546 17.8302C23.0546 17.8902 23.0011 17.9429 22.9402 17.9429H22.3996C22.1792 17.9429 21.988 18.0952 21.9388 18.31C21.8367 18.7555 21.6614 19.1781 21.4176 19.566C21.3001 19.7528 21.3276 19.9959 21.4837 20.1519L21.8662 20.5342C21.8947 20.5627 21.899 20.5969 21.899 20.6147C21.8989 20.636 21.8934 20.6669 21.8658 20.6942L21.2618 21.2992C21.2332 21.3278 21.199 21.3322 21.181 21.3322C21.181 21.3322 21.1809 21.3322 21.1809 21.3322C21.1595 21.3322 21.1285 21.3266 21.1008 21.2987L20.7169 20.9164C20.5607 20.7609 20.318 20.7339 20.1316 20.8511C19.7431 21.0955 19.3188 21.2711 18.8704 21.3732C18.6553 21.4222 18.5026 21.6135 18.5026 21.8341V22.3784C18.5026 22.4392 18.4498 22.4925 18.3896 22.4925H17.5328C17.4726 22.4925 17.4198 22.4392 17.4198 22.3784V21.8328C17.4198 21.6119 17.2668 21.4204 17.0513 21.3717C16.6086 21.2716 16.185 21.0962 15.7925 20.8506C15.7152 20.8022 15.6283 20.7786 15.5419 20.7786C15.4198 20.7786 15.2987 20.8258 15.2076 20.917L14.8251 21.2992C14.7965 21.3278 14.7623 21.3322 14.7443 21.3322C14.7442 21.3322 14.7442 21.3322 14.7442 21.3322C14.7227 21.3322 14.6917 21.3266 14.6646 21.2993L14.0589 20.6939C14.0165 20.6515 14.0169 20.5764 14.0583 20.5348L14.4422 20.1525C14.599 19.9963 14.6265 19.7523 14.5083 19.5652C14.2641 19.1785 14.0885 18.7563 13.9863 18.3101C13.9371 18.0953 13.746 17.943 13.5255 17.943H12.9822C12.921 17.943 12.8692 17.8913 12.8692 17.8303V16.974C12.8692 16.9129 12.921 16.8613 12.9822 16.8613H13.5241C13.7448 16.8613 13.9361 16.7086 13.9851 16.4935C14.086 16.0502 14.2593 15.6297 14.5003 15.2435C14.6167 15.0571 14.5892 14.8151 14.434 14.6595L14.0473 14.2716C14.021 14.2455 14.0155 14.2147 14.0154 14.1934C14.0154 14.1756 14.0197 14.1414 14.0482 14.1129L14.6526 13.5089C14.6812 13.4803 14.7154 13.476 14.7334 13.476H14.7335C14.7549 13.476 14.786 13.4815 14.8137 13.5094L15.1949 13.8891C15.3515 14.0451 15.5951 14.0718 15.7815 13.9535C16.1678 13.7086 16.5908 13.5312 17.0389 13.4264C17.2526 13.3763 17.4038 13.1857 17.4038 12.9661V12.4258C17.4038 12.364 17.4555 12.3117 17.5168 12.3117H18.3722C18.4342 12.3117 18.4867 12.364 18.4867 12.4258V12.9581C18.4867 13.1796 18.6404 13.3714 18.8566 13.4195C19.3064 13.5197 19.7355 13.6966 20.132 13.9454C20.3183 14.0622 20.5608 14.0352 20.7168 13.8798L21.1023 13.4959C21.1284 13.4696 21.1594 13.4641 21.1808 13.464H21.181C21.199 13.464 21.2332 13.4684 21.2617 13.497L21.8661 14.1009C21.8947 14.1295 21.8989 14.1637 21.8989 14.1815C21.8989 14.2028 21.8933 14.2336 21.8655 14.2612L21.483 14.6449C21.3272 14.8012 21.3002 15.0443 21.4179 15.2309C21.6627 15.6189 21.8387 16.0438 21.9413 16.4937C21.9903 16.7087 22.1816 16.8613 22.4022 16.8613H22.9402C23.0011 16.8613 23.0546 16.914 23.0546 16.974V17.8302Z" fill="#2D3250"/>
<path d="M17.9618 14.5146C16.3689 14.5146 15.073 15.81 15.073 17.4022C15.073 18.9936 16.3689 20.2884 17.9618 20.2884C19.554 20.2884 20.8493 18.9937 20.8493 17.4022C20.8493 15.81 19.554 14.5146 17.9618 14.5146ZM17.9618 19.343C16.8902 19.343 16.0184 18.4724 16.0184 17.4022C16.0184 16.3313 16.8902 15.4601 17.9618 15.4601C19.0327 15.4601 19.9039 16.3313 19.9039 17.4022C19.9039 18.4724 19.0326 19.343 17.9618 19.343Z" fill="#2D3250"/>
<path d="M7.0994 17.9424H7.09012C6.82907 17.9424 6.61743 18.154 6.61743 18.4151C6.61743 18.6761 6.82907 18.8878 7.09012 18.8878H7.0994C7.36045 18.8878 7.57209 18.6761 7.57209 18.4151C7.57209 18.154 7.36045 17.9424 7.0994 17.9424Z" fill="#2D3250"/>
</g>
<defs>
<clipPath id="clip0_303_148">
<rect width="24" height="24" fill="white"/>
</clipPath>
</defs>
</svg>
