<svg width="24" height="24" viewBox="0 0 24 24" fill="none" xmlns="http://www.w3.org/2000/svg">
<g clip-path="url(#clip0_303_113)">
<g clip-path="url(#clip1_303_113)">
<path fill-rule="evenodd" clip-rule="evenodd" d="M16.5664 16.8456C16.5664 16.8456 16.5614 16.8506 16.5614 16.8556H16.5814V16.8506H16.5664V16.8456ZM22.083 16.4905C22.0529 16.3255 22.0279 16.1904 21.9879 16.0704C21.9029 15.7953 21.7629 15.5503 21.5978 15.3352C21.2977 14.9551 20.8576 14.665 20.2675 14.535C20.0524 14.49 19.7673 14.5 19.3822 14.5H17.8718C17.8718 14.5 17.8468 14.505 17.8368 14.51C17.8218 14.51 17.8068 14.51 17.7968 14.515C17.7318 14.535 17.6867 14.575 17.6617 14.605C17.6467 14.625 17.6217 14.665 17.5967 14.755C17.5817 14.8001 17.5667 14.8501 17.5517 14.9101C17.5367 14.9601 17.5217 15.0251 17.5017 15.0901C17.5017 15.0951 17.4967 15.1001 17.4967 15.1051C17.4467 15.2852 17.4017 15.4652 17.3566 15.6403C17.3066 15.8253 17.2566 16.0104 17.2066 16.1904C16.9715 17.0757 16.7315 17.9609 16.4914 18.8412C16.3064 19.5364 16.1213 20.2266 15.9363 20.9217H16.1663C16.3514 20.9217 16.4814 20.9217 16.6064 20.9167C16.6665 20.9167 16.7115 20.9067 16.7415 20.9017C16.7665 20.8917 16.7765 20.8867 16.7765 20.8867C16.8415 20.8517 16.9115 20.7567 16.9865 20.5216C17.0216 20.4116 17.0466 20.2916 17.0816 20.1515C17.1116 20.0215 17.1466 19.8765 17.1866 19.7364C17.1866 19.7314 17.1916 19.7264 17.1916 19.7214C17.5517 18.391 17.9068 17.0607 18.2719 15.7303L18.3619 15.4002H18.702C19.1171 15.3952 19.5973 15.3652 19.9724 15.4302C20.1774 15.4652 20.3875 15.5303 20.5775 15.6653C20.7676 15.8003 20.9176 15.9854 21.0227 16.2204C21.1027 16.4055 21.2177 16.7556 21.1227 17.1257C21.0877 17.2757 21.0277 17.4408 20.9326 17.5908C20.7126 17.9359 20.3625 18.146 19.9474 18.221H19.9124L19.8773 18.226C19.8323 18.231 19.7923 18.231 19.7473 18.231H19.6123C19.4472 18.231 19.3272 18.226 19.2122 18.236C19.0921 18.236 19.0571 18.261 19.0571 18.261C18.9921 18.296 18.9421 18.346 18.9171 18.396C18.9121 18.4011 18.9021 18.4261 18.8821 18.4911C18.8721 18.5311 18.8421 18.6511 18.8221 18.7311C18.8221 18.7311 18.8221 18.7345 18.8221 18.7411C18.787 18.8712 18.752 19.0062 18.712 19.1363C18.9771 19.1413 19.2472 19.1463 19.5172 19.1413C19.9724 19.1313 20.3375 19.0912 20.5825 18.9962C21.2977 18.7161 21.7529 18.221 21.9829 17.4408C22.073 17.1457 22.143 16.7956 22.088 16.4955L22.083 16.4905ZM15.7912 16.2955H14.2358C14.2358 16.2955 14.2108 16.3005 14.2008 16.2955H14.1958C14.1608 16.3005 14.1358 16.3055 14.1007 16.3055C14.0707 16.3105 14.0357 16.3105 14.0057 16.3155C13.9907 16.3155 13.9807 16.3205 13.9657 16.3205C13.8007 16.3505 13.6806 16.3755 13.5856 16.4105C12.9854 16.6406 12.5953 16.9707 12.3002 17.4758C12.2002 17.6458 12.1252 17.8759 12.0552 18.161C11.9501 18.5661 12.0052 19.1213 12.1352 19.4513C12.4303 20.2016 12.9754 20.7017 13.8457 20.8917C14.0357 20.9318 14.2758 20.9318 14.5559 20.9268C14.6359 20.6417 14.7109 20.3566 14.7909 20.0715V20.0565C14.7909 20.0565 14.7959 20.0415 14.8009 20.0315H14.7559C14.7059 20.0315 14.5759 20.0415 14.5009 20.0415C14.4058 20.0415 14.2908 20.0415 14.1758 20.0265C13.9007 19.9815 13.6456 19.8865 13.4356 19.7114C13.2205 19.5364 13.0755 19.3113 12.9954 19.0462C12.9254 18.8412 12.8954 18.5411 12.9654 18.271C13.0354 17.9859 13.1805 17.7359 13.4056 17.5458C13.6206 17.3608 13.8907 17.2507 14.1808 17.2007H14.2158H14.2508H14.5309C14.6259 17.2007 14.7309 17.2007 14.8259 17.2107C14.926 17.2107 15.021 17.2157 15.111 17.2157C15.3061 17.2107 15.4061 17.1957 15.4461 17.1757C15.5261 17.1457 15.5461 17.1107 15.5762 17.0607C15.5912 17.0207 15.6112 16.9657 15.6362 16.8906C15.6462 16.8506 15.6612 16.8056 15.6712 16.7606C15.6862 16.7156 15.7012 16.6656 15.7112 16.6156C15.7112 16.6156 15.7129 16.6122 15.7162 16.6056C15.7412 16.5055 15.7712 16.4005 15.7962 16.3005H15.7912V16.2955Z" fill="#2D3250"/>
</g>
<path d="M18.5 8H3.5C1.57 8 0 6.43 0 4.5C0 2.57 1.57 1 3.5 1H18.5C20.43 1 22 2.57 22 4.5C22 6.43 20.43 8 18.5 8ZM3.5 2C2.121 2 1 3.121 1 4.5C1 5.879 2.121 7 3.5 7H18.5C19.879 7 21 5.879 21 4.5C21 3.121 19.879 2 18.5 2H3.5Z" fill="#2D3250"/>
<path d="M4.5 6C3.673 6 3 5.327 3 4.5C3 3.673 3.673 3 4.5 3C5.327 3 6 3.673 6 4.5C6 5.327 5.327 6 4.5 6ZM4.5 4C4.225 4 4 4.225 4 4.5C4 4.775 4.225 5 4.5 5C4.775 5 5 4.775 5 4.5C5 4.225 4.775 4 4.5 4Z" fill="#2D3250"/>
<path d="M9.5 6C8.673 6 8 5.327 8 4.5C8 3.673 8.673 3 9.5 3C10.327 3 11 3.673 11 4.5C11 5.327 10.327 6 9.5 6ZM9.5 4C9.225 4 9 4.225 9 4.5C9 4.775 9.225 5 9.5 5C9.775 5 10 4.775 10 4.5C10 4.225 9.775 4 9.5 4Z" fill="#2D3250"/>
<path d="M12.5 14H3.5C1.57 14 0 12.43 0 10.5C0 9.566 0.364 8.688 1.026 8.026C1.688 7.364 2.566 7 3.5 7H18.5C20.43 7 22 8.57 22 10.5C22 11.251 21.77 11.962 21.333 12.556C21.168 12.781 20.854 12.827 20.634 12.663C20.411 12.499 20.363 12.186 20.527 11.964C20.836 11.543 21 11.036 21 10.5C21 9.121 19.879 8 18.5 8H3.5C2.834 8 2.206 8.261 1.733 8.733C1.26 9.205 1 9.834 1 10.5C1 11.879 2.121 13 3.5 13H12.5C12.776 13 13 13.224 13 13.5C13 13.776 12.776 14 12.5 14Z" fill="#2D3250"/>
<path d="M4.5 12C3.673 12 3 11.327 3 10.5C3 9.673 3.673 9 4.5 9C5.327 9 6 9.673 6 10.5C6 11.327 5.327 12 4.5 12ZM4.5 10C4.225 10 4 10.225 4 10.5C4 10.775 4.225 11 4.5 11C4.775 11 5 10.775 5 10.5C5 10.225 4.775 10 4.5 10Z" fill="#2D3250"/>
<path d="M9.5 12C8.673 12 8 11.327 8 10.5C8 9.673 8.673 9 9.5 9C10.327 9 11 9.673 11 10.5C11 11.327 10.327 12 9.5 12ZM9.5 10C9.225 10 9 10.225 9 10.5C9 10.775 9.225 11 9.5 11C9.775 11 10 10.775 10 10.5C10 10.225 9.775 10 9.5 10Z" fill="#2D3250"/>
<path d="M8.5 20H3.5C1.57 20 0 18.43 0 16.5C0 15.566 0.364 14.688 1.026 14.026C1.688 13.364 2.566 13 3.5 13H12.5C12.776 13 13 13.224 13 13.5C13 13.776 12.776 14 12.5 14H3.5C2.834 14 2.206 14.261 1.733 14.733C1.26 15.205 1 15.834 1 16.5C1 17.879 2.121 19 3.5 19H8.5C8.776 19 9 19.224 9 19.5C9 19.776 8.776 20 8.5 20Z" fill="#2D3250"/>
<path d="M4.5 18C3.673 18 3 17.327 3 16.5C3 15.673 3.673 15 4.5 15C5.327 15 6 15.673 6 16.5C6 17.327 5.327 18 4.5 18ZM4.5 16C4.225 16 4 16.225 4 16.5C4 16.775 4.225 17 4.5 17C4.775 17 5 16.775 5 16.5C5 16.225 4.775 16 4.5 16Z" fill="#2D3250"/>
<path d="M9.5 18C8.673 18 8 17.327 8 16.5C8 15.673 8.673 15 9.5 15C10.327 15 11 15.673 11 16.5C11 17.327 10.327 18 9.5 18ZM9.5 16C9.225 16 9 16.225 9 16.5C9 16.775 9.225 17 9.5 17C9.775 17 10 16.775 10 16.5C10 16.225 9.775 16 9.5 16Z" fill="#2D3250"/>
</g>
<defs>
<clipPath id="clip0_303_113">
<rect width="24" height="24" fill="white"/>
</clipPath>
<clipPath id="clip1_303_113">
<rect width="10.1" height="6.435" fill="white" transform="translate(12 14.5)"/>
</clipPath>
</defs>
</svg>
