<svg width="24" height="24" viewBox="0 0 24 24" fill="none" xmlns="http://www.w3.org/2000/svg">
<path d="M6.42733 19.335H5.64526C5.38637 19.335 5.17651 19.5449 5.17651 19.8037C5.17651 20.0626 5.38637 20.2725 5.64526 20.2725H6.42733C6.68622 20.2725 6.89608 20.0626 6.89608 19.8037C6.89608 19.5449 6.68622 19.335 6.42733 19.335Z" fill="#2D3250"/>
<path d="M12.9422 19.335H8.71533C8.45644 19.335 8.24658 19.5449 8.24658 19.8037C8.24658 20.0626 8.45644 20.2725 8.71533 20.2725H12.9422C13.2011 20.2725 13.411 20.0626 13.411 19.8037C13.411 19.5449 13.2011 19.335 12.9422 19.335Z" fill="#2D3250"/>
<path d="M6.42733 12.5811H5.64526C5.38637 12.5811 5.17651 12.791 5.17651 13.0498C5.17651 13.3086 5.38637 13.5186 5.64526 13.5186H6.42733C6.68622 13.5186 6.89608 13.3086 6.89608 13.0498C6.89608 12.791 6.68622 12.5811 6.42733 12.5811Z" fill="#2D3250"/>
<path d="M3.7373 19.59C3.64037 19.3537 3.36048 19.2392 3.12512 19.3364C2.88896 19.434 2.77379 19.7126 2.87152 19.9487C2.96921 20.1846 3.24779 20.2999 3.48371 20.2022C3.71916 20.1047 3.83532 19.8255 3.7373 19.59Z" fill="#2D3250"/>
<path d="M3.7373 12.8703C3.64046 12.6338 3.36038 12.5195 3.12512 12.6167C2.88896 12.7142 2.77379 12.9929 2.87152 13.2289C2.9693 13.465 3.24783 13.5796 3.48371 13.482C3.71912 13.3846 3.83555 13.1059 3.7373 12.8703Z" fill="#2D3250"/>
<path d="M21.7581 6.97917C21.6355 6.02878 21.2757 5.12479 20.7079 4.34732C20.0872 3.49729 19.2471 2.83551 18.2784 2.43342C18.0393 2.33413 17.765 2.44752 17.6657 2.68659C17.5665 2.92565 17.6798 3.19996 17.919 3.2992C18.7289 3.63543 19.4315 4.18898 19.9508 4.90017C20.4798 5.62457 20.7927 6.48018 20.8557 7.3746C20.8702 7.58034 21.0173 7.75242 21.2183 7.79854C22.3042 8.04787 23.0625 9.00098 23.0625 10.1163C23.0625 11.428 21.9953 12.4952 20.6836 12.4952H20.4116C20.2967 12.4952 20.1857 12.5375 20.0999 12.6139L18.316 14.2023V12.964C18.316 12.7051 18.1062 12.4952 17.8473 12.4952L10.8399 12.495C9.05897 12.495 7.5697 11.0042 7.5697 9.22523C7.5697 7.42213 9.03661 5.95518 10.8397 5.95518C10.9804 5.95518 11.1223 5.96423 11.2614 5.98213C11.4642 6.00843 11.661 5.89968 11.7468 5.71378C12.2515 4.62103 13.1412 3.76438 14.252 3.30154C14.491 3.20198 14.604 2.92752 14.5044 2.6886C14.4048 2.44954 14.1304 2.33648 13.8915 2.43618C12.6659 2.94684 11.6654 3.85832 11.0439 5.0226C10.9758 5.01932 10.9077 5.01768 10.8398 5.01768C8.51972 5.01768 6.63225 6.9052 6.63225 9.22523C6.63225 9.6022 6.68236 9.96759 6.77578 10.3154H1.53863C0.690234 10.3154 0 11.0059 0 11.8545V14.1777C0 15.0261 0.690234 15.7163 1.53863 15.7163H1.67255V17.0697H1.53886C0.690328 17.0697 0 17.76 0 18.6085V20.9315C0 21.78 0.690328 22.4703 1.53886 22.4703H14.4906C15.3391 22.4703 16.0295 21.7799 16.0295 20.9315V18.6085C16.0295 17.7599 15.3391 17.0697 14.4906 17.0697H14.2775V15.7163H14.4908C15.3392 15.7163 16.0295 15.0261 16.0295 14.1777V13.4327H17.3786V15.2474C17.3786 15.432 17.487 15.5995 17.6555 15.675C17.822 15.7498 18.0227 15.7189 18.159 15.5975L20.5901 13.4327H20.6836C22.5123 13.4327 24 11.945 24 10.1163C24 9.3614 23.7395 8.62279 23.2664 8.03629C22.8729 7.54865 22.3459 7.1811 21.7581 6.97917ZM15.092 18.6085V20.9315C15.092 21.2631 14.8222 21.5328 14.4906 21.5328H1.53886C1.20727 21.5328 0.9375 21.2631 0.9375 20.9315V18.6085C0.9375 18.2769 1.20727 18.0072 1.53886 18.0072H2.1413H13.8088H14.4906C14.8222 18.0072 15.092 18.2769 15.092 18.6085ZM13.34 17.0697H2.61005V15.7163H13.34V17.0697ZM15.0919 14.1777C15.0919 14.5091 14.8222 14.7788 14.4907 14.7788H1.53863C1.20717 14.7788 0.9375 14.5091 0.9375 14.1777V11.8545C0.9375 11.5229 1.20717 11.2529 1.53863 11.2529H7.15223C7.88527 12.5826 9.32142 13.4327 10.8397 13.4327H15.0919V14.1777Z" fill="#2D3250"/>
<path d="M18.328 7.35055C17.8994 7.47969 17.5959 7.81944 17.536 8.23719C17.4799 8.62818 17.6705 9.09571 18.0481 9.26423C18.0644 9.2714 18.4494 9.44287 18.8829 9.60276C19.067 9.67068 19.1815 9.76748 19.168 9.84355C19.1519 9.93332 19.0167 10.0576 18.8046 10.0576C18.5688 10.0576 18.3428 9.96604 18.1967 9.81201C18.0334 9.63979 17.7711 9.59333 17.5755 9.72787C17.3362 9.89249 17.3036 10.2227 17.4918 10.4304C17.817 10.7893 18.2955 10.9951 18.8046 10.9951C19.4478 10.9951 19.9888 10.5801 20.0909 10.0083C20.1686 9.57327 19.9773 9.00716 19.2074 8.72319C18.8893 8.60582 18.5917 8.47851 18.4783 8.42919C18.4686 8.4179 18.4598 8.39952 18.464 8.37041C18.4718 8.31618 18.5208 8.27165 18.5985 8.24826C18.928 8.14907 19.2456 8.40008 19.2488 8.40266L19.2849 8.42901C19.4763 8.56874 19.7419 8.54324 19.9031 8.36966C20.091 8.16374 20.0546 7.8583 19.8483 7.68182C19.5915 7.4661 18.9824 7.15363 18.328 7.35055Z" fill="#2D3250"/>
<path d="M12.5635 7.61338L12.0362 9.20089L11.4813 7.60231C11.3964 7.35777 11.1294 7.2282 10.8847 7.31319C10.6402 7.39813 10.5107 7.66517 10.5956 7.90977L11.544 10.6419C11.6192 10.8537 11.8201 10.9952 12.0446 10.9952H12.0482C12.2741 10.9937 12.4748 10.8489 12.5487 10.6318L13.4533 7.90888C13.5349 7.6632 13.4019 7.39789 13.1562 7.31624C12.9105 7.23472 12.6452 7.36761 12.5635 7.61338Z" fill="#2D3250"/>
<path d="M14.7666 7.28711C14.5112 7.28711 14.2979 7.50053 14.2979 7.75586V10.5264C14.2979 10.7852 14.5077 10.9951 14.7666 10.9951C15.0255 10.9951 15.2354 10.7852 15.2354 10.5264V9.7892C15.352 9.78869 15.4648 9.78827 15.538 9.78827C16.236 9.78827 16.8039 9.22727 16.8039 8.53769C16.8039 7.84811 16.236 7.28711 15.538 7.28711H14.7666ZM15.8664 8.53769C15.8664 8.70738 15.716 8.85077 15.538 8.85077C15.4654 8.85077 15.3539 8.85119 15.2382 8.8517C15.2376 8.73053 15.237 8.3522 15.2367 8.22466H15.538C15.716 8.22461 15.8664 8.368 15.8664 8.53769Z" fill="#2D3250"/>
<path d="M15.6985 2.72676C15.8383 2.94027 16.1375 2.99718 16.3487 2.85665C16.5617 2.7149 16.6188 2.41879 16.478 2.20649C16.3366 1.99331 16.0402 1.93645 15.8279 2.07707C15.6151 2.21798 15.5575 2.51502 15.6985 2.72676Z" fill="#2D3250"/>
</svg>
