<svg width="24" height="24" viewBox="0 0 24 24" fill="none" xmlns="http://www.w3.org/2000/svg">
<g clip-path="url(#clip0_303_136)">
<path d="M21.3164 0H2.68364C1.20436 0 0 1.20436 0 2.68364V21.3164C0 22.7956 1.20436 24 2.68364 24H21.3164C22.7956 24 24 22.7956 24 21.3164V2.68364C24 1.20436 22.7956 0 21.3164 0ZM22.9091 2.68364V3.27273H14.5604C13.5905 3.27273 12.7331 2.65527 12.4265 1.73455L12.2116 1.09091H21.3164C22.1945 1.09091 22.9091 1.80545 22.9091 2.68364ZM21.3164 22.9091H2.68364C1.80545 22.9091 1.09091 22.1945 1.09091 21.3164V2.68364C1.09091 1.80545 1.80545 1.09091 2.68364 1.09091H11.0607L11.3902 2.07927C11.8462 3.44509 13.1193 4.36364 14.5604 4.36364H22.9091V21.3164C22.9091 22.1945 22.1945 22.9091 21.3164 22.9091Z" fill="#2D3250"/>
<path d="M8.18217 3.27255C8.48342 3.27255 8.72763 3.02834 8.72763 2.7271C8.72763 2.42585 8.48342 2.18164 8.18217 2.18164C7.88093 2.18164 7.63672 2.42585 7.63672 2.7271C7.63672 3.02834 7.88093 3.27255 8.18217 3.27255Z" fill="#2D3250"/>
<path d="M5.99956 3.27255C6.3008 3.27255 6.54501 3.02834 6.54501 2.7271C6.54501 2.42585 6.3008 2.18164 5.99956 2.18164C5.69831 2.18164 5.4541 2.42585 5.4541 2.7271C5.4541 3.02834 5.69831 3.27255 5.99956 3.27255Z" fill="#2D3250"/>
<path d="M3.81792 3.27255C4.11916 3.27255 4.36337 3.02834 4.36337 2.7271C4.36337 2.42585 4.11916 2.18164 3.81792 2.18164C3.51667 2.18164 3.27246 2.42585 3.27246 2.7271C3.27246 3.02834 3.51667 3.27255 3.81792 3.27255Z" fill="#2D3250"/>
<path d="M13.0906 12.0001C13.3916 12.0001 13.636 11.7557 13.636 11.4546C13.636 11.1535 13.3916 10.9092 13.0906 10.9092H10.9087C10.6076 10.9092 10.3633 11.1535 10.3633 11.4546V13.6365C10.3633 13.9375 10.6076 14.1819 10.9087 14.1819H12.5451V15.2728H10.9087C10.6076 15.2728 10.3633 15.5172 10.3633 15.8183C10.3633 16.1194 10.6076 16.3637 10.9087 16.3637H13.0906C13.3916 16.3637 13.636 16.1194 13.636 15.8183V13.6365C13.636 13.3354 13.3916 13.091 13.0906 13.091H11.4542V12.0001H13.0906Z" fill="#2D3250"/>
<path d="M8.72727 12.0001C9.02836 12.0001 9.27273 11.7557 9.27273 11.4546C9.27273 11.1535 9.02836 10.9092 8.72727 10.9092H6.54545C6.24436 10.9092 6 11.1535 6 11.4546V13.6365C6 13.9375 6.24436 14.1819 6.54545 14.1819H8.18182V15.2728H6.54545C6.24436 15.2728 6 15.5172 6 15.8183C6 16.1194 6.24436 16.3637 6.54545 16.3637H8.72727C9.02836 16.3637 9.27273 16.1194 9.27273 15.8183V13.6365C9.27273 13.3354 9.02836 13.091 8.72727 13.091H7.09091V12.0001H8.72727Z" fill="#2D3250"/>
<path d="M17.4548 15.2728H15.8184V11.4546C15.8184 11.1535 15.5741 10.9092 15.273 10.9092C14.9719 10.9092 14.7275 11.1535 14.7275 11.4546V15.8183C14.7275 16.1194 14.9719 16.3637 15.273 16.3637H17.4548C17.7537 16.3637 18.0003 16.1172 18.0003 15.8183C18.0003 15.5194 17.7537 15.2728 17.4548 15.2728Z" fill="#2D3250"/>
<path d="M18.8456 8.72754H5.15472C4.41836 8.72754 3.81836 9.32754 3.81836 10.0639V17.2104C3.81836 17.9457 4.41836 18.5457 5.15472 18.5457H18.8467C19.5831 18.5457 20.1831 17.9457 20.1831 17.2094V10.0628C20.182 9.32754 19.582 8.72754 18.8456 8.72754ZM19.0911 17.2094C19.0911 17.3446 18.9809 17.4548 18.8456 17.4548H5.15472C5.01945 17.4548 4.90927 17.3446 4.90927 17.2094V10.0628C4.90927 9.92863 5.01945 9.81845 5.15472 9.81845H18.8467C18.982 9.81845 19.0922 9.92863 19.0922 10.0639L19.0911 17.2094Z" fill="#2D3250"/>
</g>
<defs>
<clipPath id="clip0_303_136">
<rect width="24" height="24" fill="white"/>
</clipPath>
</defs>
</svg>
