<svg width="24" height="24" viewBox="0 0 24 24" fill="none" xmlns="http://www.w3.org/2000/svg">
<path d="M21.7989 7.56043C20.0873 3.78978 16.3216 1.31431 12.1778 1.24564C7.8793 1.17442 3.97313 3.65019 2.19997 7.56058C0.96 7.72583 0 8.78977 0 10.0742V13.9263C0 15.2109 0.960196 16.2749 2.20036 16.44C3.94369 20.286 7.76077 22.7565 12 22.7565C16.2396 22.7565 20.0566 20.2862 21.7997 16.4399C23.0398 16.2748 24 15.2108 24 13.9263V10.0742C24 8.78938 23.0394 7.7252 21.7989 7.56043ZM12.1626 2.16097C15.8049 2.22131 19.1284 4.31396 20.7725 7.53756H3.22633C4.9273 4.19264 8.37884 2.09827 12.1626 2.16097ZM12 21.8411C8.27079 21.8411 4.89864 19.7516 3.22678 16.463H20.7732C19.1015 19.7516 15.7295 21.8411 12 21.8411ZM23.0846 13.9263C23.0846 14.8203 22.3573 15.5475 21.4633 15.5475H2.53665C1.64268 15.5475 0.915429 14.8203 0.915429 13.9263V10.0742C0.915429 9.18023 1.64268 8.45298 2.53665 8.45298H21.4633C22.3573 8.45298 23.0846 9.18023 23.0846 10.0742V13.9263Z" fill="#2D3250"/>
<path d="M6.65796 12.6391L5.88423 10.2441H4.81594L4.04221 12.6391L3.26847 10.2441H2.12598L3.47453 14.2086H4.61654L5.35368 12.0495L6.08314 14.2086H7.23279L8.58134 10.2441H7.43169L6.65796 12.6391Z" fill="#2D3250"/>
<path d="M13.3044 12.6391L12.5307 10.2441H11.4624L10.6886 12.6391L9.91496 10.2441H8.77246L10.121 14.2086H11.263L12.0002 12.0495L12.7296 14.2086H13.8792L15.2278 10.2441H14.0782L13.3044 12.6391Z" fill="#2D3250"/>
<path d="M19.9512 12.6391L19.1774 10.2441H18.1091L17.3354 12.6391L16.5617 10.2441H15.4192L16.7677 14.2086H17.9098L18.6469 12.0495L19.3763 14.2086H20.5259L21.8745 10.2441H20.7249L19.9512 12.6391Z" fill="#2D3250"/>
</svg>
