<svg width="24" height="24" viewBox="0 0 24 24" fill="none" xmlns="http://www.w3.org/2000/svg">
<path fill-rule="evenodd" clip-rule="evenodd" d="M17.8169 23C18.0729 23 18.3143 22.8806 18.4691 22.6768C18.6243 22.4731 18.6749 22.2085 18.6064 21.9617C18.6061 21.9611 18.6061 21.9604 18.6057 21.9597C18.3262 20.9724 17.4196 20.2464 16.344 20.2464C14.0114 20.2464 10.107 20.2464 7.77448 20.2464C6.69784 20.2464 5.79088 20.9737 5.51833 21.9637C5.45019 22.2085 5.50047 22.4708 5.65427 22.6729C5.80808 22.875 6.04722 22.9937 6.30125 22.9937C8.24549 23 15.8716 23 17.8169 23ZM17.8066 22.1731C15.8508 22.1731 8.28982 22.1731 6.3201 22.1671C6.50169 21.535 7.08417 21.0733 7.77448 21.0733H16.344C17.0373 21.0733 17.6214 21.539 17.8066 22.1731Z" fill="#2D3250"/>
<path fill-rule="evenodd" clip-rule="evenodd" d="M10.541 1H1.98593C1.45902 1 0.954141 1.20408 0.581843 1.56726C0.209206 1.93078 0 2.42329 0 2.93697V16.4276C0 16.9413 0.209206 17.4341 0.581843 17.7973C0.954141 18.1605 1.45902 18.3646 1.98593 18.3646H15.5762C15.8098 18.3646 16 18.1793 16 17.9511C16 17.7229 15.8098 17.5376 15.5762 17.5376C15.5762 17.5376 5.85539 17.5376 1.98593 17.5376C1.68382 17.5376 1.39459 17.4209 1.18098 17.2125C0.967704 17.0044 0.847673 16.722 0.847673 16.4276C0.847673 13.2787 0.847673 6.08586 0.847673 2.93697C0.847673 2.64258 0.967704 2.36011 1.18098 2.15206C1.39459 1.94401 1.68416 1.82692 1.98593 1.82692H10.1127C10.3854 1.82692 10.7749 1 10.541 1Z" fill="#2D3250"/>
<path fill-rule="evenodd" clip-rule="evenodd" d="M17.4282 18.3646H21.9454C23.0754 18.3646 23.9915 17.4973 23.9915 16.4276V2.93697C23.9915 1.86727 23.0754 1 21.9454 1C20.2932 1 17.9624 1 17.9624 1C17.7213 1 17.5257 1.18523 17.5257 1.41346C17.5257 1.64169 17.7213 1.82692 17.9624 1.82692H21.9454C22.5929 1.82692 23.118 2.32406 23.118 2.93697V16.4276C23.118 17.0408 22.5929 17.5376 21.9454 17.5376H17.4282C17.1871 17.5376 16.9915 17.7229 16.9915 17.9511C16.9915 18.1793 17.1871 18.3646 17.4282 18.3646Z" fill="#2D3250"/>
<path d="M19.7735 6.12861C19.7735 6.47573 20.0552 6.75711 20.403 6.75711C20.7508 6.75711 21.0326 6.47573 21.0326 6.12861C21.0326 5.78149 20.7508 5.50012 20.403 5.50012C20.0552 5.50012 19.7735 5.78149 19.7735 6.12861Z" fill="#2D3250"/>
<path d="M21.0323 8.83736V12.3661C21.0323 12.7119 20.7506 12.9922 20.4052 12.9922C20.0598 12.9922 19.7781 12.7119 19.7781 12.3661V8.83736C19.7781 8.69463 19.6609 8.57745 19.5171 8.57745C19.4221 8.57745 19.3345 8.62957 19.2892 8.71269L18.0673 12.0667C18.0609 12.0841 18.054 12.1004 18.0466 12.1161C17.7127 12.8345 17.275 12.9888 16.966 12.9922H16.9561C16.6506 12.9922 16.2152 12.8454 15.8715 12.1451C15.865 12.1311 15.8582 12.1161 15.8524 12.1021L14.2844 8.18332C14.1557 7.86311 14.3124 7.49794 14.6339 7.36985C14.9552 7.24211 15.3203 7.39779 15.4495 7.71868L16.9507 11.4685L18.1229 8.25077C18.1287 8.23339 18.1361 8.21704 18.1436 8.20137C18.3906 7.66928 18.9302 7.32523 19.5175 7.32523C20.3527 7.32523 21.0323 8.00312 21.0323 8.83736Z" fill="#2D3250"/>
<path d="M11.4203 7.25422C9.81689 7.25422 8.51221 8.55686 8.51221 10.1576C8.51221 11.7583 9.81689 13.0602 11.4203 13.0602C13.0237 13.0602 14.3281 11.7579 14.3281 10.1576C14.3281 8.5572 13.0241 7.25422 11.4203 7.25422ZM11.4203 11.7934C10.5159 11.7934 9.78078 11.0593 9.78078 10.1576C9.78078 9.25587 10.5156 8.52109 11.4203 8.52109C12.3251 8.52109 13.0592 9.25519 13.0592 10.1576C13.0592 11.0599 12.3244 11.7934 11.4203 11.7934Z" fill="#2D3250"/>
<path d="M8.48892 11.9172C8.73487 12.1628 8.73487 12.5603 8.48892 12.8056C8.36629 12.9282 8.20516 12.9895 8.04437 12.9895C7.88359 12.9895 7.72212 12.9282 7.59949 12.8056L5.83663 11.0455L4.07378 12.8056C3.95115 12.9282 3.79002 12.9895 3.6289 12.9895C3.46777 12.9895 3.30698 12.9282 3.18401 12.8056C2.93874 12.56 2.93874 12.1624 3.18401 11.9172L4.94686 10.1577L3.18401 8.3976C2.93874 8.15199 2.93874 7.75445 3.18401 7.50919C3.42996 7.26358 3.82852 7.26358 4.07378 7.50919L5.83663 9.26932L7.59949 7.50919C7.84475 7.26358 8.24365 7.26358 8.48892 7.50919C8.73487 7.7548 8.73487 8.15233 8.48892 8.3976L6.72675 10.1577L8.48892 11.9172Z" fill="#2D3250"/>
</svg>
