<svg width="24" height="24" viewBox="0 0 24 24" fill="none" xmlns="http://www.w3.org/2000/svg">
<g clip-path="url(#clip0_303_158)">
<path d="M8.67658 17.9219C8.8747 18.6628 9.55185 19.2101 10.3544 19.2101H23.5047C23.7522 19.2101 23.9529 19.0094 23.9529 18.7619C23.9529 18.5143 23.7522 18.3136 23.5047 18.3136H10.3544C9.89124 18.3136 9.51441 17.9368 9.51441 17.4736C9.51441 17.2261 9.31372 17.0254 9.06616 17.0254H2.81924V7.12608H23.1035V21.3518C23.1035 21.5994 23.3042 21.2582 23.5518 21.2582C23.7993 21.2582 24 21.5994 24 21.3518V16.6596V4.38149C24 3.34402 23.156 2.5 22.1185 2.5H19.3744H3.80423C2.76676 2.5 1.92274 3.34402 1.92274 4.38149V17.0254H0.448244C0.200688 17.0254 0 17.2261 0 17.4736V18.121C0 20.0026 1.53086 21.5335 3.41251 21.5335H23.3966C23.6442 21.5335 23.8449 21.3328 23.8449 21.0852C23.8449 20.8377 23.6442 20.637 23.3966 20.637H3.41251C2.02518 20.637 0.896487 19.5083 0.896487 18.121V17.9219L8.67658 17.9219ZM3.80423 3.39649H19.3744H22.1185C22.6616 3.39649 23.1035 3.83838 23.1035 4.38149V6.2296H2.81924V4.38149C2.81924 3.83834 3.26112 3.39649 3.80423 3.39649Z" fill="#2D3250"/>
<path d="M4.46281 5.35573C4.48671 5.37186 4.513 5.38623 4.53989 5.39696C4.56679 5.40831 4.5949 5.41669 4.62358 5.42267C4.65285 5.42865 4.68215 5.43163 4.71142 5.43163C4.74072 5.43163 4.76999 5.42865 4.79868 5.42267C4.82737 5.41669 4.85547 5.40832 4.88296 5.39696C4.90987 5.38622 4.93616 5.37186 4.96006 5.35573C4.98458 5.33959 5.00786 5.32106 5.0282 5.30013C5.11186 5.21708 5.15966 5.10114 5.15966 4.98339C5.15966 4.95412 5.15669 4.92482 5.15071 4.89555C5.14534 4.86683 5.13635 4.83876 5.12499 4.81185C5.11425 4.78498 5.0999 4.75868 5.08376 4.73417C5.06763 4.70965 5.04909 4.68695 5.0282 4.66603C5.00786 4.64572 4.98457 4.62719 4.96006 4.61047C4.93616 4.59433 4.90987 4.58058 4.88296 4.5692C4.85547 4.55846 4.82737 4.5495 4.79868 4.54411C4.7413 4.53217 4.68154 4.53217 4.62358 4.54411C4.5949 4.5495 4.56679 4.55846 4.53989 4.5692C4.51301 4.58058 4.48672 4.59433 4.46281 4.61047C4.4383 4.62719 4.41498 4.64572 4.39467 4.66603C4.37375 4.68695 4.35522 4.70966 4.3385 4.73417C4.32236 4.75868 4.30862 4.78498 4.29727 4.81185C4.2865 4.83876 4.27754 4.86683 4.27214 4.89555C4.26619 4.92482 4.26318 4.95412 4.26318 4.98339C4.26318 5.10114 4.31101 5.21708 4.39468 5.30013C4.41498 5.32106 4.4383 5.33959 4.46281 5.35573Z" fill="#2D3250"/>
<path d="M6.17053 5.15475C6.18188 5.18163 6.19563 5.20795 6.21176 5.23185C6.22848 5.25634 6.24701 5.27965 6.26794 5.29996C6.28824 5.32089 6.31156 5.33942 6.33607 5.35556C6.35998 5.37169 6.38627 5.38605 6.41317 5.39679C6.44005 5.40814 6.46874 5.41713 6.49684 5.4225C6.52611 5.42848 6.55541 5.43146 6.58471 5.43146C6.61397 5.43146 6.64328 5.42848 6.67196 5.4225C6.70065 5.41713 6.72934 5.40814 6.75622 5.39679C6.78312 5.38605 6.80941 5.37169 6.83331 5.35556C6.85783 5.33942 6.88115 5.32089 6.90145 5.29996C6.92238 5.27965 6.94091 5.25633 6.95705 5.23185C6.97318 5.20795 6.98752 5.18163 6.99828 5.15475C7.00963 5.12726 7.01859 5.09916 7.02396 5.07047C7.02994 5.04178 7.03295 5.01252 7.03295 4.98321C7.03295 4.86488 6.98512 4.74952 6.90145 4.66647C6.79745 4.56188 6.64266 4.51405 6.49684 4.54393C6.46874 4.54933 6.44005 4.55829 6.41317 4.56903C6.38627 4.5804 6.35998 4.59415 6.33607 4.61029C6.31156 4.62701 6.28824 4.64554 6.26794 4.66646C6.24701 4.68677 6.22848 4.70947 6.21176 4.73457C6.19563 4.7585 6.18188 4.78479 6.17053 4.81167C6.15976 4.83858 6.1508 4.86665 6.14543 4.89536C6.13945 4.92463 6.13647 4.95394 6.13647 4.9832C6.13647 5.0125 6.13945 5.04177 6.14543 5.07046C6.1508 5.09917 6.15976 5.12727 6.17053 5.15475Z" fill="#2D3250"/>
<path d="M8.00793 5.15493C8.01931 5.1818 8.03306 5.20751 8.04919 5.23202C8.06592 5.25651 8.08444 5.27982 8.10537 5.30013C8.12568 5.32106 8.14838 5.33959 8.17348 5.35573C8.19741 5.37186 8.2237 5.38623 8.25057 5.39696C8.27748 5.40831 8.30555 5.4173 8.33424 5.42267C8.36354 5.42865 8.39284 5.43163 8.42211 5.43163C8.45141 5.43163 8.48068 5.42865 8.50937 5.42267C8.53805 5.4173 8.56616 5.40832 8.59365 5.39696C8.62053 5.38622 8.64624 5.37186 8.67075 5.35573C8.69523 5.33959 8.71855 5.32106 8.73886 5.30013C8.75978 5.27982 8.77831 5.2565 8.79445 5.23202C8.81059 5.20751 8.82495 5.1818 8.83568 5.15493C8.84703 5.12743 8.85602 5.09933 8.86139 5.07064C8.86738 5.04196 8.87035 5.01269 8.87035 4.98339C8.87035 4.95412 8.86738 4.92482 8.86139 4.89555C8.85603 4.86683 8.84704 4.83876 8.83568 4.81185C8.82494 4.78498 8.81059 4.75868 8.79445 4.73417C8.77831 4.70965 8.75978 4.68695 8.73886 4.66664C8.71855 4.64572 8.69523 4.62718 8.67075 4.61047C8.64623 4.59433 8.62053 4.58058 8.59365 4.5692C8.56616 4.55846 8.53805 4.5495 8.50937 4.54411C8.45199 4.53217 8.39223 4.53217 8.33424 4.54411C8.30555 4.5495 8.27748 4.55846 8.25057 4.5692C8.2237 4.58058 8.19741 4.59433 8.17348 4.61047C8.14838 4.62719 8.12568 4.64572 8.10537 4.66664C8.08444 4.68695 8.06591 4.70965 8.04919 4.73417C8.03306 4.75868 8.01931 4.78498 8.00793 4.81185C7.99719 4.83876 7.98823 4.86683 7.98284 4.89555C7.97685 4.92482 7.97388 4.95412 7.97388 4.98339C7.97388 5.01268 7.97685 5.04196 7.98284 5.07064C7.98824 5.09934 7.9972 5.12744 8.00793 5.15493Z" fill="#2D3250"/>
<path d="M11.4116 5.3125H20.1049C20.3524 5.3125 20.5531 5.11182 20.5531 4.86426C20.5531 4.6167 20.3524 4.41602 20.1049 4.41602H11.4116C11.1641 4.41602 10.9634 4.6167 10.9634 4.86426C10.9634 5.11182 11.1641 5.3125 11.4116 5.3125Z" fill="#2D3250"/>
<path fill-rule="evenodd" clip-rule="evenodd" d="M9.31893 10.1072C9.75389 9.46132 10.3866 9 11.3092 9C12.3768 9 13.0622 9.50087 13.3654 10.3181C13.8004 9.57995 14.4726 9 15.5402 9C17.1746 9 17.86 10.0413 17.86 11.557V14.7468C17.86 15.419 17.5173 15.6299 17.0296 15.6299H16.8451C16.3442 15.6299 16.0015 15.4322 16.0015 14.7468V11.8602C16.0015 11.0035 15.6193 10.5553 14.8812 10.5553C14.3408 10.5553 13.8663 10.8848 13.6026 11.3462V14.7468C13.6026 15.419 13.2599 15.6299 12.7854 15.6299H12.5877C12.1001 15.6299 11.7442 15.4322 11.7442 14.7468V11.8997C11.7442 11.0035 11.3751 10.5553 10.637 10.5553C10.0966 10.5553 9.62209 10.8848 9.35847 11.3462V14.7468C9.35847 15.419 9.01578 15.6299 8.54127 15.6299H8.34356C7.8427 15.6299 7.5 15.4322 7.5 14.7468V9.28997C7.5 9.23725 7.82952 9.07908 8.19857 9.07908C8.67308 9.07908 9.18712 9.28997 9.31893 10.1072Z" fill="#2D3250"/>
</g>
<defs>
<clipPath id="clip0_303_158">
<rect width="24" height="24" fill="white"/>
</clipPath>
</defs>
</svg>
