<svg width="24" height="24" viewBox="0 0 24 24" fill="none" xmlns="http://www.w3.org/2000/svg">
<g clip-path="url(#clip0_303_23)">
<path d="M21.3396 22.5H2.66038C1.19354 22.5 0 21.3165 0 19.8616V4.13843C0 2.6837 1.19354 1.5 2.66038 1.5H21.3396C22.8065 1.5 24 2.6837 24 4.13843V19.8616C24 21.3165 22.8065 22.5 21.3396 22.5ZM2.66038 2.28592C1.63045 2.28592 0.792453 3.117 0.792453 4.13843V19.8616C0.792453 20.883 1.63045 21.7141 2.66038 21.7141H21.3396C22.3695 21.7141 23.2075 20.883 23.2075 19.8616V4.13843C23.2075 3.117 22.3695 2.28592 21.3396 2.28592H2.66038Z" fill="#2D3250"/>
<path d="M23.6038 7.79275H0.396226C0.177329 7.79275 0 7.61689 0 7.39979C0 7.18292 0.177329 7.00684 0.396226 7.00684H23.6038C23.8227 7.00684 24 7.18292 24 7.39979C24 7.61689 23.8227 7.79275 23.6038 7.79275Z" fill="#2D3250"/>
<path d="M6.77002 5.91193C6.07883 5.91193 5.51611 5.35385 5.51611 4.66837C5.51611 3.98266 6.07883 3.4248 6.77002 3.4248C7.46143 3.4248 8.02393 3.98266 8.02393 4.66837C8.02393 5.35385 7.46143 5.91193 6.77002 5.91193ZM6.77002 4.21072C6.51574 4.21072 6.30857 4.41597 6.30857 4.66837C6.30857 4.92076 6.51574 5.12601 6.77002 5.12601C7.02452 5.12601 7.23147 4.92076 7.23147 4.66837C7.23147 4.41597 7.02452 4.21072 6.77002 4.21072Z" fill="#2D3250"/>
<path d="M2.91724 5.90021C2.22583 5.90021 1.66333 5.34235 1.66333 4.65665C1.66333 3.97095 2.22583 3.41309 2.91724 3.41309C3.60864 3.41309 4.17114 3.97095 4.17114 4.65665C4.17114 5.34235 3.60864 5.90021 2.91724 5.90021ZM2.91724 4.199C2.66296 4.199 2.45578 4.40447 2.45578 4.65665C2.45578 4.90904 2.66296 5.1143 2.91724 5.1143C3.17173 5.1143 3.37869 4.90904 3.37869 4.65665C3.37869 4.40447 3.17173 4.199 2.91724 4.199Z" fill="#2D3250"/>
<path d="M10.6226 5.92441C9.9314 5.92441 9.3689 5.36655 9.3689 4.68084C9.3689 3.99536 9.9314 3.4375 10.6226 3.4375C11.314 3.4375 11.8765 3.99536 11.8765 4.68084C11.8765 5.36655 11.314 5.92441 10.6226 5.92441ZM10.6226 4.2232C10.3683 4.2232 10.1613 4.42845 10.1613 4.68084C10.1613 4.93324 10.3683 5.13849 10.6226 5.13849C10.8771 5.13849 11.084 4.93324 11.084 4.68084C11.084 4.42845 10.8771 4.2232 10.6226 4.2232Z" fill="#2D3250"/>
<path d="M10.8859 14.6974L11.9161 12.2172L13.5279 16.1485L14.1881 14.9611L16.2228 19.4994C17.1476 18.4441 17.6756 17.0986 17.6756 15.6737C17.7288 12.613 15.2715 10.0536 12.1802 10.0008C9.0897 9.94808 6.55286 12.4017 6.5 15.4895V15.7002C6.5 17.0988 7.00191 18.4444 7.95315 19.5L10.4101 13.9326L10.8859 14.6974Z" fill="#2D3250"/>
</g>
<defs>
<clipPath id="clip0_303_23">
<rect width="24" height="24" fill="white"/>
</clipPath>
</defs>
</svg>
