<svg width="24" height="24" viewBox="0 0 24 24" fill="none" xmlns="http://www.w3.org/2000/svg">
<path d="M11.645 23.8993C11.1357 23.8993 10.6258 23.8993 10.1166 23.7718C7.05967 23.39 4.32148 21.7978 2.41061 19.314C0.500376 16.8301 -0.327583 13.8369 0.117944 10.717C0.499733 7.59633 2.09191 4.85815 4.51205 2.94792C6.99593 1.03704 10.0528 0.209084 13.1097 0.590872C15.1474 0.845827 17.0583 1.61005 18.6498 2.88353C18.9685 3.07475 18.9685 3.52028 18.7773 3.83897C18.5861 4.15766 18.1405 4.22076 17.8218 3.96645C16.4209 2.88353 14.7012 2.18305 12.9185 1.92874C10.1803 1.54695 7.5052 2.31053 5.34001 3.96645C3.17483 5.62237 1.77386 8.1056 1.45517 10.8444C0.754688 16.512 4.76701 21.7341 10.3709 22.4346C13.1091 22.7533 15.7841 22.0528 17.9493 20.3969C20.1145 18.741 21.5155 16.2577 21.8342 13.5189C21.9616 12.4997 21.9616 11.4174 21.7704 10.3983C21.7067 10.0165 21.9616 9.69778 22.2797 9.63404C22.5977 9.5703 22.9802 9.82526 23.0439 10.207C23.2351 11.3531 23.2351 12.4997 23.1077 13.7095C22.7259 16.8301 21.1337 19.5683 18.6498 21.4785C16.6758 23.1344 14.192 23.8986 11.645 23.8986V23.8993Z" fill="#2D3250"/>
<path d="M11.645 23.8993C11.1357 23.8993 10.6258 23.8993 10.1166 23.7718C7.05967 23.39 4.32148 21.7978 2.41061 19.314C0.500376 16.8301 -0.327583 13.8369 0.117944 10.717C0.499733 7.59633 2.09191 4.85815 4.51205 2.94792C6.99593 1.03704 10.0528 0.209084 13.1097 0.590872C15.1474 0.845827 17.0583 1.61005 18.6498 2.88353C18.9685 3.07475 18.9685 3.52028 18.7773 3.83897C18.5861 4.15766 18.1405 4.22076 17.8218 3.96645C16.4209 2.88353 14.7012 2.18305 12.9185 1.92874C10.1803 1.54695 7.5052 2.31053 5.34001 3.96645C3.17483 5.62237 1.77386 8.1056 1.45517 10.8444C0.754688 16.512 4.76701 21.7341 10.3709 22.4346C13.1091 22.7533 15.7841 22.0528 17.9493 20.3969C20.1145 18.741 21.5155 16.2577 21.8342 13.5189C21.9616 12.4997 21.9616 11.4174 21.7704 10.3983C21.7067 10.0165 21.9616 9.69778 22.2797 9.63404C22.5977 9.5703 22.9802 9.82526 23.0439 10.207C23.2351 11.3531 23.2351 12.4997 23.1077 13.7095C22.7259 16.8301 21.1337 19.5683 18.6498 21.4785C16.6758 23.1344 14.192 23.8986 11.645 23.8986V23.8993Z" fill="#2D3250"/>
<path d="M21.9621 10.5894H21.8346C21.3254 10.5894 20.8155 10.3344 20.4337 9.88889C20.115 9.50711 19.8607 8.93346 19.9244 8.42419C19.9881 7.34128 20.9436 6.45022 22.0896 6.51396C23.1725 6.5777 23.9998 7.53314 23.9998 8.67915C23.9998 9.25215 23.7449 9.69832 23.2993 10.0801C22.9175 10.3988 22.4714 10.5256 21.9621 10.5894ZM21.3254 8.48793C21.3254 8.67915 21.3891 8.86972 21.5166 8.9972C21.6441 9.12467 21.7715 9.18841 21.9621 9.18841C22.1527 9.18841 22.2808 9.12467 22.4714 8.9972C22.5989 8.86972 22.6626 8.74224 22.6626 8.55167C22.6626 8.16988 22.4076 7.85119 22.0258 7.85119C21.6441 7.78745 21.3254 8.10614 21.3254 8.48793Z" fill="#2D3250"/>
<path d="M19.3516 10.6535C19.1604 10.1443 18.9698 9.6981 18.6511 9.31631C18.3324 8.93452 17.9506 8.67957 17.5682 8.48835C17.1227 8.29714 16.6765 8.2334 16.1672 8.2334C15.658 8.2334 15.148 8.29714 14.7025 8.48835C14.257 8.67957 13.9383 8.93388 13.5565 9.31631C13.2378 9.6981 12.9835 10.1443 12.856 10.6535C12.6648 11.1628 12.6011 11.7995 12.6011 12.5C12.6011 13.1368 12.6648 13.7098 12.856 14.2834C13.0472 14.7927 13.2378 15.3026 13.5565 15.6207C13.8752 16.0024 14.257 16.2574 14.7025 16.4486C15.148 16.6398 15.5942 16.7036 16.1035 16.7036C16.6127 16.7036 17.1227 16.6398 17.5044 16.4486C17.95 16.2574 18.2687 16.0031 18.6505 15.6207C18.9691 15.302 19.2235 14.7927 19.3509 14.2834C19.5422 13.7742 19.6059 13.1374 19.6059 12.5C19.6696 11.7358 19.5422 11.0991 19.3509 10.6535H19.3516ZM16.1672 9.38005C16.6127 9.38005 17.0589 9.50753 17.3132 9.76184C17.6319 10.0168 17.8862 10.3986 18.0137 10.781C18.1412 11.2265 18.2687 11.7365 18.2687 12.3095C18.2687 12.9462 18.1412 13.4555 18.0137 13.9016C17.8862 14.3472 17.6319 14.7296 17.3132 14.9846C16.9945 15.2395 16.6127 15.3663 16.1672 15.3663C15.7217 15.3663 15.3393 15.2389 15.0212 14.9846C14.7025 14.7296 14.4482 14.3478 14.3207 13.9654C14.1295 13.5198 14.0658 12.9462 14.0658 12.3732C14.0658 11.7365 14.1295 11.2272 14.3207 10.781C14.5119 10.3348 14.7025 9.95306 15.0212 9.76184C15.2762 9.50689 15.658 9.38005 16.1672 9.38005Z" fill="#2D3250"/>
<path d="M12.5996 11.6723C12.2178 11.4811 11.8354 11.3536 11.3899 11.3536C10.8806 11.3536 10.4982 11.4811 10.1164 11.6723L12.0903 8.16992H10.5619C9.98889 9.25284 8.7785 11.4818 8.52419 11.991C7.95119 13.3283 8.1424 14.4749 8.46045 15.2391C8.65167 15.7484 9.03346 16.0671 9.47963 16.3851C9.92515 16.6401 10.4351 16.7669 10.9443 16.7669C11.4536 16.7669 11.8998 16.6394 12.3453 16.4482C12.7908 16.257 13.1095 15.8752 13.3645 15.4928C13.6194 15.111 13.7463 14.6011 13.7463 14.0281C13.7463 13.5188 13.6188 13.0727 13.4276 12.6909C13.3001 12.2453 12.982 11.9266 12.5996 11.6717V11.6723ZM12.3446 14.793C12.2172 15.0479 12.026 15.1747 11.7716 15.366C11.5167 15.4934 11.2624 15.5572 11.0074 15.5572C10.6887 15.5572 10.4344 15.4934 10.2432 15.366C9.98825 15.2385 9.79768 15.0473 9.6702 14.793C9.54272 14.6017 9.47898 14.2837 9.47898 14.0287V13.8375C9.47898 13.5826 9.54272 13.3283 9.6702 13.137C9.79768 12.9458 9.98889 12.7552 10.2432 12.6278C10.4982 12.5003 10.7525 12.4366 11.0074 12.4366C11.2624 12.4366 11.5804 12.5003 11.7716 12.6278C12.0266 12.7552 12.2172 12.9465 12.3446 13.137C12.4721 13.3283 12.5359 13.6463 12.5359 13.965C12.5996 14.2837 12.4721 14.538 12.3446 14.793Z" fill="#2D3250"/>
<path d="M8.39688 11.7358C8.14192 11.5446 7.88761 11.4171 7.56892 11.354C7.3777 11.2903 7.18713 11.2903 6.99591 11.2903L8.8424 8.2334H4.38456V9.50688H6.86844L5.08504 12.2451L5.21252 12.3088C5.34 12.2451 5.46747 12.2451 5.65805 12.1813C5.84926 12.1813 5.97674 12.1176 6.23105 12.1176C6.67658 12.1176 7.05901 12.2451 7.37706 12.4994C7.63201 12.7543 7.75885 13.1361 7.75885 13.5823C7.75885 13.901 7.69511 14.219 7.56763 14.474C7.44015 14.729 7.24894 14.9195 6.99463 15.1107C6.73967 15.2382 6.48536 15.302 6.16667 15.302C5.84797 15.302 5.52992 15.302 5.27497 15.1745C5.02001 15.047 4.7657 14.8558 4.63823 14.6652V14.6015L3.93774 15.6844C4.1927 15.9393 4.51075 16.1937 4.95692 16.3211C5.33871 16.5123 5.78488 16.5761 6.16667 16.5761C6.73967 16.5761 7.18584 16.4486 7.63137 16.2574C8.0769 16.0024 8.45933 15.6844 8.71428 15.2382C8.96924 14.7927 9.09607 14.2828 9.09607 13.7098C9.09607 13.2642 9.03233 12.8181 8.90486 12.5C8.77738 12.1813 8.58616 11.927 8.39559 11.7358H8.39688Z" fill="#2D3250"/>
</svg>
