<svg width="447" height="378" viewBox="0 0 447 378" fill="none" xmlns="http://www.w3.org/2000/svg">
<g clip-path="url(#clip0_4269_350614)">
<mask id="mask0_4269_350614" style="mask-type:luminance" maskUnits="userSpaceOnUse" x="0" y="0" width="447" height="378">
<path d="M447 0H0V378H447V0Z" fill="white"/>
</mask>
<g mask="url(#mask0_4269_350614)">
<path d="M101.133 359.562C101.133 359.562 101.785 370.077 103.819 370.228C104.09 370.248 114.137 370.248 114.137 370.248L126.963 370.174C126.963 370.174 126.879 367.083 123.13 366.43C119.381 365.777 113.106 363.142 110.835 358.187C108.446 352.974 101.133 359.562 101.133 359.562Z" fill="#17494D"/>
<path d="M96.5091 236.852C96.5091 236.852 102.097 238.287 105.649 237.217C109.201 236.147 115.314 237.904 116.298 239.199C117.283 240.494 116.921 241.009 115.164 241.456C113.408 241.903 107.184 244.558 103.094 243.021C99.0032 241.485 93.668 241.429 93.668 241.429L96.5091 236.852Z" fill="white"/>
<path d="M48.2188 188.314C48.2188 188.314 54.4959 232.926 64.8895 236.922C70.0182 238.894 92.6835 243.363 99.3881 243.812C99.3881 243.812 101.031 242.48 100.63 237.056C100.63 237.056 76.8836 228.338 73.5103 223.597C68.4895 216.541 76.6272 194.771 70.3271 188.144C64.0268 181.517 53.4162 178.669 48.2188 188.314Z" fill="white"/>
<path d="M49.0218 360.21V350.483H33.7081C33.2945 350.483 32.9566 350.145 32.9566 349.732V348.173C32.9566 347.76 33.2945 347.422 33.7081 347.422H49.0218V292.051C49.0218 290.498 50.2929 289.227 51.8466 289.227H54.877C56.4308 289.227 57.7019 290.498 57.7019 292.051V347.422H73.0156C73.4289 347.422 73.7673 347.76 73.7673 348.173V349.732C73.7673 350.145 73.4289 350.483 73.0156 350.483H57.7019V360.21C68.7819 361.047 77.6591 365.036 80.1495 370.19H26.5742C29.0645 365.036 37.9417 361.047 49.0218 360.21Z" fill="#F2E6DC"/>
<path d="M50.3344 282.304C52.1653 285.41 54.283 288.32 56.4659 291.077C63.2122 299.594 70.5559 306.616 71.8352 313.254C72.0894 314.576 72.4933 316.001 73.0212 317.502C73.5553 319.023 74.2157 320.621 74.9782 322.274C77.8409 328.493 82.1222 335.461 86.3968 341.794C93.786 352.744 100.734 361.88 100.734 361.88L113.477 361.337C112.967 360.06 107.409 344.942 99.9741 326.466C96.9549 318.966 93.7446 310.988 90.6473 303.295C90.2346 302.267 89.822 301.244 89.4137 300.23C88.4667 297.876 87.5347 295.558 86.6247 293.301C79.6436 275.953 74.0834 262.139 74.0834 262.139C74.0834 262.139 46.1814 251.569 43.2839 258.418C40.8945 264.065 42.8407 269.598 50.3344 282.304Z" fill="#171A2D"/>
<path d="M71.6244 329.523C71.6244 329.523 62.7612 335.219 63.6213 337.068C63.7356 337.315 68.6338 346.087 68.6338 346.087L74.9514 357.25C74.9514 357.25 77.6089 355.67 76.3517 352.078C75.0944 348.486 74.3356 341.722 77.5551 337.324C80.9416 332.696 71.6244 329.523 71.6244 329.523Z" fill="#17494D"/>
<path d="M83.617 257.117C83.617 257.117 118.639 278.933 122.549 293.593C126.458 308.254 75.9607 339.53 75.9607 339.53C75.9607 339.53 70.4222 334.643 69.4449 331.059C69.4449 331.059 92.2704 303.712 97.222 297.582C100.263 293.818 52.26 284.55 46.396 275.428C40.5318 266.305 42.6311 258.63 42.6311 258.63L83.617 257.117Z" fill="#17494D"/>
<path d="M17.5206 285.133H89.1983C90.6318 285.133 91.8046 286.306 91.8046 287.739V302.075C91.8046 303.508 90.6318 304.681 89.1983 304.681H17.5206C16.0871 304.681 14.9141 303.508 14.9141 302.075V287.739C14.9141 286.306 16.0869 285.133 17.5206 285.133Z" fill="#17494D"/>
<path d="M67.4211 180.663C70.861 182.793 72.7563 185.497 72.7563 185.497C64.366 187.667 50.457 179.893 50.457 179.893C50.457 179.893 55.8576 176.264 57.8585 168.29C57.9597 167.888 58.0521 167.475 58.1333 167.053C58.3956 165.71 58.5584 164.258 58.5876 162.688L62.442 166.141L68.8509 171.882C68.8509 171.882 68.7055 174.265 67.9037 178.363C67.7643 179.079 67.6044 179.846 67.4211 180.663Z" fill="white"/>
<path d="M41.6153 220.252C42.8171 236.416 40.7957 260.99 42.159 265.247C43.3358 268.921 57.1825 266.747 62.5338 265.52C64.5144 265.066 66.9137 264.418 69.3914 263.651C76.3027 261.511 83.8336 258.455 84.6417 256.187C84.673 256.098 84.6996 256.01 84.7162 255.926C84.7907 255.596 84.7742 255.288 84.7017 254.975C84.4321 253.819 83.3943 252.567 83.2721 249.704C83.1353 246.507 83.156 242.743 83.0359 238.695C83.0297 238.239 83.0235 237.742 82.9738 237.288L82.9715 237.122C82.9695 237.035 82.9674 236.95 82.9655 236.863C82.8494 232.349 82.6134 227.602 82.3397 222.895C82.1656 219.939 81.9647 217.011 81.7327 214.206C81.1298 206.966 80.3176 200.526 79.2425 196.455C77.4854 189.819 73.6115 185.491 70.0849 182.32L67.5345 180.132C64.6881 180.753 61.3234 180.341 58.2801 178.899C54.9861 177.335 53.8486 176.214 53.2747 176.637C45.6677 182.506 40.1961 200.491 41.6153 220.252Z" fill="#F51624"/>
<path d="M69.3527 263.683C76.264 261.543 83.7949 258.487 84.6029 256.218C84.6342 256.129 84.6609 256.042 84.6775 255.957C84.6733 255.64 84.6694 255.323 84.663 255.006C84.3936 253.85 83.3556 252.599 83.2334 249.736C83.0966 246.539 83.1173 242.774 82.9972 238.726C82.991 238.271 82.9848 237.773 82.9349 237.32L82.9328 237.154C82.9307 237.067 82.9287 236.982 82.9268 236.895L56.8203 225.055C56.8203 225.055 55.3163 246.096 69.3527 263.683Z" fill="white"/>
<path d="M68.8556 171.882C68.8556 171.882 68.7103 174.265 67.9084 178.363C61.6504 176.341 58.8111 170.688 57.8632 168.29C57.5936 167.613 57.4766 167.194 57.4766 167.194C57.4766 167.194 57.7195 167.142 58.1381 167.054C59.0177 166.866 60.6742 166.515 62.4465 166.141L68.8556 171.882Z" fill="#F2E6DC"/>
<path d="M71.3865 171.821C71.3865 171.821 57.6373 173.371 56.8033 164.794C55.9695 156.217 53.6332 150.641 62.3765 149.288C71.1199 147.935 73.1463 151.042 74.1211 153.837C75.0954 156.632 74.9416 171.196 71.3865 171.821Z" fill="white"/>
<path d="M56.8611 165.388C56.8611 165.388 57.7329 154.003 70.2485 152.824C78.8211 152.016 74.0416 144.638 73.1278 143.461C73.1278 143.461 66.5597 144.361 59.8276 145.474C45.6971 147.808 55.4734 163.616 56.8611 165.388Z" fill="#17494D"/>
<path d="M123.395 248.032L124.599 248.423L134.838 216.907L133.634 216.516L123.395 248.032Z" fill="#17494D"/>
<path d="M89.8633 247.658L124.629 248.402L124.674 246.322L89.9078 245.578L89.8633 247.658Z" fill="#17494D"/>
<path d="M93.633 243.711C93.633 243.711 99.0285 245.753 102.677 245.081C106.325 244.409 112.207 246.83 113.043 248.226C113.878 249.622 113.463 250.093 111.667 250.344C109.872 250.595 103.393 252.547 99.4972 250.569C95.601 248.591 90.3047 247.947 90.3047 247.947L93.633 243.711Z" fill="white"/>
<path d="M50.9883 190.148C50.9883 190.148 52.3086 235.18 62.1985 240.298C67.0783 242.823 89.113 249.764 95.7271 250.949C95.7271 250.949 97.5065 249.806 97.7066 244.372C97.7066 244.372 75.0658 233.089 72.2357 228.004C68.0234 220.438 78.5117 199.698 72.9805 192.416C67.4495 185.135 57.2173 181.134 50.9883 190.148Z" fill="#F51624"/>
<path d="M177.01 297.7H356.415C368.935 297.7 379.085 287.55 379.085 275.03V29.7321C379.085 17.2119 368.935 7.0625 356.415 7.0625H177.01C164.49 7.0625 154.34 17.2121 154.34 29.7321V275.03C154.34 287.55 164.49 297.7 177.01 297.7Z" fill="#F2E6DC"/>
<path d="M176.422 268.281H357.368V37.5234H176.422V268.281Z" fill="white"/>
<path d="M331.707 258.154C326.435 258.154 322.16 253.878 322.16 248.605V116.61C322.16 111.337 326.435 107.062 331.707 107.062C336.98 107.062 341.254 111.337 341.254 116.61V248.605C341.254 253.878 336.98 258.154 331.707 258.154Z" fill="#F51624"/>
<path d="M300.43 258.151C295.157 258.151 290.883 253.877 290.883 248.604V74.4923C290.883 69.2197 295.157 64.9453 300.43 64.9453C305.703 64.9453 309.977 69.2197 309.977 74.4923V248.604C309.977 253.877 305.703 258.151 300.43 258.151Z" fill="#F51624"/>
<path d="M266.293 258.154C261.02 258.154 256.746 253.88 256.746 248.607V153.149C256.746 147.876 261.02 143.602 266.293 143.602C271.566 143.602 275.84 147.876 275.84 153.149V248.607C275.84 253.88 271.566 258.154 266.293 258.154Z" fill="#F51624"/>
<path d="M233.082 258.154C227.81 258.154 223.535 253.879 223.535 248.607V100.289C223.535 95.0166 227.81 90.7422 233.082 90.7422C238.355 90.7422 242.629 95.0166 242.629 100.289V248.607C242.629 253.879 238.355 258.154 233.082 258.154Z" fill="#F51624"/>
<path d="M209.242 175.57V248.607C209.242 253.88 204.968 258.154 199.695 258.154C194.423 258.154 190.148 253.88 190.148 248.607V175.57C190.148 170.297 194.423 166.023 199.695 166.023C204.968 166.023 209.242 170.297 209.242 175.57Z" fill="#F51624"/>
<path d="M224.443 78.9141H240.613C241.533 78.9141 242.285 79.667 242.285 80.587C242.285 81.5071 241.533 82.2597 240.613 82.2597H224.443C223.522 82.2597 222.77 81.5071 222.77 80.587C222.77 79.667 223.522 78.9141 224.443 78.9141Z" fill="#F2E6DC"/>
<path d="M236.931 85H240.614C241.534 85 242.286 85.7526 242.286 86.6726C242.286 87.5927 241.534 88.3453 240.614 88.3453H236.931C236.011 88.3453 235.258 87.5927 235.258 86.6726C235.258 85.7526 236.011 85 236.931 85Z" fill="#F2E6DC"/>
<path d="M291.071 53.2422H307.241C308.161 53.2422 308.914 53.9948 308.914 54.9149C308.914 55.835 308.161 56.5876 307.241 56.5876H291.071C290.151 56.5876 289.398 55.835 289.398 54.9149C289.398 53.9948 290.151 53.2422 291.071 53.2422Z" fill="#F2E6DC"/>
<path d="M303.564 59.3281H307.246C308.166 59.3281 308.919 60.0808 308.919 61.0008C308.919 61.9209 308.166 62.6735 307.246 62.6735H303.564C302.644 62.6735 301.891 61.9209 301.891 61.0008C301.891 60.0808 302.644 59.3281 303.564 59.3281Z" fill="#F2E6DC"/>
<path d="M323.415 95.3281H339.585C340.505 95.3281 341.258 96.081 341.258 97.0011C341.258 97.9211 340.505 98.6737 339.585 98.6737H323.415C322.495 98.6737 321.742 97.9211 321.742 97.0011C321.742 96.081 322.495 95.3281 323.415 95.3281Z" fill="#F2E6DC"/>
<path d="M335.902 101.414H339.585C340.505 101.414 341.258 102.167 341.258 103.087C341.258 104.007 340.505 104.759 339.585 104.759H335.902C334.982 104.759 334.23 104.007 334.23 103.087C334.229 102.167 334.982 101.414 335.902 101.414Z" fill="#F2E6DC"/>
<path d="M258.208 131.883H274.378C275.298 131.883 276.051 132.635 276.051 133.555C276.051 134.476 275.298 135.228 274.378 135.228H258.208C257.288 135.228 256.535 134.476 256.535 133.555C256.535 132.635 257.288 131.883 258.208 131.883Z" fill="#F2E6DC"/>
<path d="M270.696 137.969H274.379C275.299 137.969 276.052 138.722 276.052 139.642C276.052 140.562 275.299 141.314 274.379 141.314H270.696C269.776 141.314 269.023 140.562 269.023 139.642C269.023 138.721 269.776 137.969 270.696 137.969Z" fill="#F2E6DC"/>
<path d="M191.609 154.234H207.781C208.701 154.234 209.452 154.987 209.452 155.907C209.452 156.827 208.701 157.58 207.781 157.58H191.609C190.689 157.58 189.938 156.827 189.938 155.907C189.938 154.987 190.689 154.234 191.609 154.234Z" fill="#F2E6DC"/>
<path d="M204.098 160.32H207.782C208.701 160.32 209.454 161.073 209.454 161.993C209.454 162.913 208.701 163.666 207.782 163.666H204.098C203.178 163.666 202.426 162.913 202.426 161.993C202.426 161.073 203.178 160.32 204.098 160.32Z" fill="#F2E6DC"/>
<path d="M199.692 149.478C196.415 149.478 193.75 146.812 193.75 143.536C193.75 140.259 196.416 137.594 199.692 137.594C202.968 137.594 205.634 140.259 205.634 143.536C205.634 146.812 202.968 149.478 199.692 149.478ZM199.692 139.894C197.684 139.894 196.05 141.528 196.05 143.536C196.05 145.544 197.684 147.178 199.692 147.178C201.7 147.178 203.334 145.544 203.334 143.536C203.334 141.528 201.7 139.894 199.692 139.894Z" fill="#17494D"/>
<path d="M197.165 139.892C196.87 139.892 196.576 139.78 196.351 139.555L178.494 121.699H33.4235C32.7882 121.699 32.2734 121.184 32.2734 120.548C32.2734 119.913 32.7882 119.398 33.4235 119.398H179.447L197.977 137.929C198.427 138.378 198.427 139.106 197.977 139.555C197.753 139.78 197.459 139.892 197.165 139.892Z" fill="#17494D"/>
<path d="M233.868 274.775C230.591 274.775 227.926 272.109 227.926 268.833C227.926 265.556 230.591 262.891 233.868 262.891C237.144 262.891 239.81 265.556 239.81 268.833C239.81 272.109 237.144 274.775 233.868 274.775ZM233.868 265.191C231.86 265.191 230.226 266.825 230.226 268.833C230.226 270.841 231.86 272.474 233.868 272.474C235.876 272.474 237.51 270.841 237.51 268.833C237.51 266.825 235.876 265.191 233.868 265.191Z" fill="#17494D"/>
<path d="M397.841 292.963H254.117L235.587 274.433C235.138 273.984 235.138 273.255 235.587 272.806C236.036 272.356 236.764 272.356 237.213 272.806L255.07 290.662H397.841C398.476 290.662 398.991 291.178 398.991 291.813C398.991 292.449 398.476 292.963 397.841 292.963Z" fill="#17494D"/>
<path d="M299.595 48.6418C296.318 48.6418 293.652 45.9761 293.652 42.6998C293.652 39.4232 296.318 36.7578 299.595 36.7578C302.871 36.7578 305.537 39.4235 305.537 42.6998C305.537 45.9761 302.871 48.6418 299.595 48.6418ZM299.595 39.0577C297.587 39.0577 295.953 40.6915 295.953 42.6996C295.953 44.7076 297.587 46.3414 299.595 46.3414C301.603 46.3414 303.236 44.7076 303.236 42.6996C303.236 40.6915 301.603 39.0577 299.595 39.0577Z" fill="#17494D"/>
<path d="M297.067 39.0561C296.773 39.0561 296.478 38.9439 296.254 38.7194L278.397 20.8626H133.326C132.691 20.8626 132.176 20.3476 132.176 19.7125C132.176 19.0775 132.691 18.5625 133.326 18.5625H279.349L297.88 37.0927C298.329 37.5419 298.329 38.2701 297.88 38.7191C297.656 38.9439 297.361 39.0561 297.067 39.0561Z" fill="#17494D"/>
<path d="M130.379 116.741H35.0738C33.4648 116.741 32.1602 115.437 32.1602 113.828C32.1602 112.219 33.4646 110.914 35.0738 110.914H130.379C131.988 110.914 133.292 112.219 133.292 113.828C133.292 115.437 131.988 116.741 130.379 116.741Z" fill="#F51624"/>
<path d="M130.377 107.538H71.8745C70.2655 107.538 68.9609 106.234 68.9609 104.625C68.9609 103.015 70.2653 101.711 71.8745 101.711H130.377C131.986 101.711 133.291 103.015 133.291 104.625C133.29 106.234 131.986 107.538 130.377 107.538Z" fill="#F51624"/>
<path d="M130.377 98.335H71.8745C70.2655 98.335 68.9609 97.0306 68.9609 95.4214C68.9609 93.8122 70.2653 92.5078 71.8745 92.5078H130.377C131.986 92.5078 133.291 93.8122 133.291 95.4214C133.29 97.0306 131.986 98.335 130.377 98.335Z" fill="#F51624"/>
<path d="M229.613 15.3038H134.308C132.699 15.3038 131.395 13.9994 131.395 12.3902C131.395 10.781 132.699 9.47656 134.308 9.47656H229.613C231.222 9.47656 232.526 10.781 232.526 12.3902C232.526 13.9994 231.222 15.3038 229.613 15.3038Z" fill="#F51624"/>
<path d="M314.815 336.421C322.914 328.322 322.914 315.19 314.815 307.091C306.715 298.991 293.584 298.991 285.484 307.091C277.385 315.19 277.385 328.322 285.484 336.421C293.584 344.52 306.715 344.52 314.815 336.421Z" fill="#C1AEAE"/>
<path d="M300.155 304.227C309.839 304.227 317.687 312.077 317.687 321.759C317.687 326.551 315.766 330.892 312.65 334.056L300.155 321.759L283.773 328.012C283.032 326.07 282.625 323.962 282.625 321.759C282.625 312.077 290.473 304.227 300.155 304.227Z" fill="white"/>
<path d="M302.721 312.852H310.182C310.475 312.852 310.716 313.092 310.716 313.386C310.716 313.679 310.475 313.918 310.182 313.918H302.721C302.428 313.918 302.188 313.679 302.188 313.386C302.188 313.092 302.428 312.852 302.721 312.852Z" fill="#C1AEAE"/>
<path d="M302.721 314.547H310.182C310.475 314.547 310.716 314.787 310.716 315.08C310.716 315.373 310.475 315.613 310.182 315.613H302.721C302.428 315.613 302.188 315.373 302.188 315.08C302.188 314.787 302.428 314.547 302.721 314.547Z" fill="#C1AEAE"/>
<path d="M307.099 316.234H310.181C310.474 316.234 310.714 316.474 310.714 316.767C310.714 317.06 310.474 317.3 310.181 317.3H307.099C306.806 317.3 306.566 317.06 306.566 316.767C306.566 316.474 306.806 316.234 307.099 316.234Z" fill="#C1AEAE"/>
<path d="M281.992 312.024L290.196 303.82H281.992V312.024Z" fill="#C1AEAE"/>
<path d="M390.917 322.759C391.487 311.318 382.675 301.582 371.235 301.011C359.794 300.441 350.057 309.253 349.487 320.693C348.917 332.134 357.729 341.871 369.169 342.441C380.61 343.011 390.346 334.199 390.917 322.759Z" fill="#C1AEAE"/>
<path d="M352.664 321.759C352.664 312.077 360.512 304.227 370.194 304.227C379.878 304.227 387.727 312.077 387.727 321.759C387.727 331.441 379.878 339.291 370.194 339.291C366.194 339.291 362.51 337.953 359.562 335.698L370.194 321.759L353.812 328.012C353.071 326.07 352.664 323.962 352.664 321.759Z" fill="white"/>
<path d="M372.896 312.852H380.359C380.652 312.852 380.892 313.092 380.892 313.386C380.892 313.679 380.652 313.918 380.359 313.918H372.896C372.603 313.918 372.363 313.679 372.363 313.386C372.363 313.092 372.603 312.852 372.896 312.852Z" fill="#C1AEAE"/>
<path d="M372.896 314.547H380.359C380.652 314.547 380.892 314.787 380.892 315.08C380.892 315.373 380.652 315.613 380.359 315.613H372.896C372.603 315.613 372.363 315.373 372.363 315.08C372.363 314.787 372.603 314.547 372.896 314.547Z" fill="#C1AEAE"/>
<path d="M377.279 316.234H380.361C380.654 316.234 380.894 316.474 380.894 316.767C380.894 317.06 380.654 317.3 380.361 317.3H377.279C376.986 317.3 376.746 317.06 376.746 316.767C376.746 316.474 376.986 316.234 377.279 316.234Z" fill="#C1AEAE"/>
<path d="M352.148 312.024L360.352 303.82H352.148V312.024Z" fill="#C1AEAE"/>
<path d="M446.123 370.938H-33.3709C-33.749 370.938 -34.0586 370.627 -34.0586 370.249C-34.0586 369.871 -33.749 369.562 -33.3709 369.562H446.123C446.501 369.562 446.811 369.871 446.811 370.249C446.811 370.627 446.501 370.938 446.123 370.938Z" fill="#202F4E"/>
</g>
</g>
<defs>
<clipPath id="clip0_4269_350614">
<rect width="447" height="378" fill="white"/>
</clipPath>
</defs>
</svg>
