<svg width="495" height="358" viewBox="0 0 495 358" fill="none" xmlns="http://www.w3.org/2000/svg">
<g clip-path="url(#clip0_4269_350839)">
<mask id="mask0_4269_350839" style="mask-type:luminance" maskUnits="userSpaceOnUse" x="0" y="0" width="495" height="358">
<path d="M495 0H0V358H495V0Z" fill="white"/>
</mask>
<g mask="url(#mask0_4269_350839)">
<path d="M426.5 0.5H219C210.44 0.5 203.5 7.43959 203.5 16V297.5C203.5 306.06 210.44 313 219 313H426.5C435.06 313 442 306.06 442 297.5V16C442 7.43959 435.06 0.5 426.5 0.5Z" fill="#F2E8E3" stroke="#17494D"/>
<path d="M428.941 83.9254L428.955 94.316C428.962 100.055 433.617 104.701 439.351 104.693C445.086 104.686 449.729 100.028 449.721 94.2892L449.708 83.8984L428.941 83.9254Z" fill="#17494D"/>
<path d="M439.296 88.7495C454.143 88.7495 466.179 76.705 466.179 61.8474C466.179 46.9898 454.143 34.9453 439.296 34.9453C424.45 34.9453 412.414 46.9898 412.414 61.8474C412.414 76.705 424.45 88.7495 439.296 88.7495Z" fill="#F51624"/>
<path d="M439.276 98.0804C435.737 98.0804 429.166 97.7407 429.164 96.4467C429.164 96.3232 429.264 96.2228 429.387 96.2226C429.511 96.2226 429.611 96.3226 429.611 96.4458C429.713 96.8724 433.02 97.6329 439.247 97.6332C439.28 97.6332 439.312 97.6332 439.346 97.6332C445.638 97.6249 448.976 96.8498 449.077 96.4181C449.077 96.2946 449.177 96.1956 449.301 96.1953C449.424 96.1953 449.524 96.2964 449.524 96.4198C449.526 97.7226 442.867 98.0755 439.346 98.0802C439.323 98.0804 439.299 98.0804 439.276 98.0804Z" fill="white"/>
<path d="M439.268 93.5252C435.729 93.5252 429.158 93.1855 429.156 91.8914C429.156 91.768 429.256 91.6678 429.38 91.6676C429.503 91.6676 429.603 91.7676 429.603 91.891C429.706 92.3199 433.048 93.0779 439.338 93.0782C445.63 93.0701 448.968 92.2949 449.07 91.8633C449.069 91.7396 449.169 91.6408 449.293 91.6406C449.417 91.6406 449.516 91.7416 449.517 91.8651C449.518 93.1678 442.859 93.5207 439.338 93.5252C439.315 93.5252 439.292 93.5252 439.268 93.5252Z" fill="white"/>
<path d="M435.733 82.4287C435.646 82.4287 435.563 82.3777 435.527 82.2927L427.053 62.4366C427.005 62.323 427.058 62.1915 427.171 62.143C427.284 62.0947 427.416 62.1471 427.465 62.2609L435.938 82.1169C435.987 82.2305 435.934 82.362 435.821 82.4105C435.792 82.4231 435.762 82.4287 435.733 82.4287Z" fill="#17494D"/>
<path d="M442.911 82.4191C442.882 82.4191 442.852 82.4132 442.824 82.4012C442.71 82.3529 442.657 82.2216 442.705 82.108L451.127 62.23C451.176 62.116 451.308 62.0637 451.421 62.1113C451.534 62.1596 451.587 62.2908 451.539 62.4044L443.117 82.2822C443.081 82.3678 442.998 82.4191 442.911 82.4191Z" fill="#17494D"/>
<path d="M434.468 64.974C433.418 64.974 432.371 64.7205 431.457 64.1997C431.35 64.1386 431.312 64.002 431.373 63.8947C431.434 63.7871 431.571 63.7498 431.678 63.8108C433.601 64.9058 436.157 64.7274 437.933 63.4211C436.329 62.5588 435.034 61.1089 434.486 59.3598C434.092 58.1042 434.125 56.8771 434.58 55.9041C435.13 54.7259 436.322 53.9829 437.483 54.0976C438.83 54.2306 439.778 55.4131 440.216 56.4752C441.161 58.7699 440.543 61.6107 438.75 63.3189C439.724 63.7263 440.787 63.9088 441.845 63.8012C444.834 63.4984 447.415 60.9191 447.721 57.9287C447.734 57.8059 447.846 57.7165 447.967 57.729C448.09 57.7415 448.179 57.8513 448.167 57.9743C447.839 61.1679 445.082 63.9228 441.89 64.2462C440.687 64.3678 439.475 64.1389 438.38 63.6418C437.281 64.5197 435.873 64.974 434.468 64.974ZM437.253 54.5338C436.35 54.5338 435.419 55.1644 434.985 56.0935C434.578 56.9649 434.552 58.0776 434.912 59.2261C435.445 60.9247 436.73 62.322 438.31 63.1165C440.075 61.5479 440.703 58.8301 439.802 56.6458C439.414 55.7035 438.589 54.6564 437.439 54.5428C437.377 54.537 437.315 54.5338 437.253 54.5338Z" fill="white"/>
<path d="M494.106 249.536L489.303 247.857C489.691 245.366 489.873 242.874 489.862 240.403L492.894 239.828C493.978 239.623 494.69 238.577 494.485 237.493L492.021 224.501C491.815 223.417 490.77 222.705 489.686 222.911L486.642 223.488C485.739 221.164 484.654 218.914 483.398 216.759L487.26 213.434L476.022 200.387L472.17 203.705C470.244 202.157 468.182 200.748 465.991 199.5L467.669 194.697L451.414 189.017L449.735 193.82C447.243 193.432 444.752 193.249 442.281 193.261L441.334 188.266L424.416 191.474L425.366 196.481C423.042 197.384 420.792 198.469 418.637 199.724L416.616 197.377C415.895 196.541 414.634 196.447 413.798 197.167L403.779 205.797C402.943 206.517 402.849 207.778 403.569 208.614L405.583 210.953C404.035 212.879 402.626 214.941 401.378 217.132L396.575 215.454L390.895 231.709L395.698 233.388C395.31 235.879 395.128 238.37 395.139 240.841L392.106 241.417C391.022 241.622 390.31 242.668 390.516 243.752L392.98 256.744C393.185 257.828 394.231 258.54 395.315 258.334L398.359 257.757C399.262 260.081 400.347 262.331 401.602 264.485L397.741 267.811L408.978 280.858L412.831 277.54C414.757 279.088 416.82 280.497 419.01 281.745L417.332 286.548L433.587 292.228L435.266 287.425C437.757 287.813 440.249 287.996 442.719 287.984L443.667 292.979L460.584 289.771L459.635 284.764C461.959 283.861 464.209 282.776 466.363 281.52L468.385 283.868C469.105 284.704 470.367 284.798 471.203 284.078L481.222 275.448C482.058 274.728 482.152 273.467 481.432 272.631L479.418 270.292C480.965 268.366 482.374 266.303 483.623 264.112L488.426 265.791L494.106 249.536ZM473.276 252.521C467.057 268.648 449.132 277.289 432.641 272.111C414.431 266.393 404.856 246.532 411.724 228.724C417.944 212.597 435.869 203.955 452.36 209.134C470.57 214.852 480.144 234.713 473.276 252.521Z" fill="white"/>
<path d="M442.504 278.71C438.31 278.71 434.067 278.016 429.936 276.572C420.334 273.217 412.613 266.324 408.196 257.161C403.779 247.999 403.195 237.666 406.55 228.063C409.576 219.403 415.623 212.128 423.577 207.579C431.452 203.075 440.671 201.519 449.536 203.197C449.759 203.24 449.906 203.455 449.864 203.679C449.822 203.903 449.609 204.051 449.382 204.007C431.443 200.61 413.361 211.069 407.328 228.335C404.045 237.729 404.617 247.839 408.939 256.803C413.26 265.767 420.813 272.512 430.207 275.794C446.231 281.393 464.01 275.467 473.443 261.384C473.57 261.195 473.826 261.144 474.015 261.271C474.204 261.397 474.255 261.653 474.128 261.842C466.919 272.607 454.936 278.71 442.504 278.71Z" fill="#F2E6DC"/>
<path d="M388.535 283.854L385.881 282.927C386.095 281.55 386.196 280.174 386.19 278.808L387.865 278.491C388.464 278.377 388.858 277.799 388.744 277.2L387.383 270.022C387.269 269.423 386.692 269.029 386.093 269.143L384.411 269.462C383.912 268.178 383.312 266.935 382.618 265.744L384.752 263.907L378.543 256.698L376.414 258.531C375.35 257.676 374.21 256.897 373 256.208L373.927 253.554L364.945 250.415L364.018 253.069C362.641 252.855 361.265 252.754 359.899 252.76L359.376 250L350.028 251.773L350.553 254.539C349.269 255.038 348.026 255.638 346.835 256.332L345.718 255.034C345.32 254.573 344.623 254.521 344.161 254.918L338.625 259.687C338.163 260.085 338.111 260.782 338.509 261.244L339.622 262.536C338.767 263.6 337.988 264.74 337.299 265.95L334.645 265.023L331.506 274.004L334.16 274.932C333.946 276.309 333.845 277.685 333.851 279.05L332.176 279.368C331.577 279.482 331.183 280.059 331.297 280.658L332.658 287.837C332.772 288.436 333.349 288.83 333.948 288.716L335.63 288.397C336.13 289.681 336.729 290.924 337.423 292.115L335.289 293.952L341.498 301.161L343.627 299.328C344.691 300.183 345.831 300.962 347.041 301.651L346.114 304.305L355.096 307.444L356.023 304.79C357.4 305.004 358.776 305.105 360.142 305.099L360.665 307.859L370.013 306.086L369.488 303.32C370.772 302.82 372.015 302.221 373.206 301.527L374.323 302.824C374.721 303.286 375.418 303.338 375.88 302.94L381.416 298.172C381.878 297.774 381.93 297.077 381.532 296.615L380.419 295.323C381.274 294.259 382.053 293.119 382.742 291.909L385.396 292.836L388.535 283.854ZM377.026 285.504C373.589 294.415 363.685 299.189 354.573 296.328C344.511 293.169 339.221 282.195 343.015 272.355C346.452 263.444 356.356 258.669 365.468 261.531C375.53 264.69 380.82 275.664 377.026 285.504Z" fill="white"/>
<path d="M360.024 299.97C357.706 299.97 355.362 299.587 353.079 298.789C347.774 296.935 343.508 293.126 341.067 288.064C338.627 283.001 338.304 277.292 340.157 271.986C341.83 267.201 345.171 263.181 349.566 260.667C353.917 258.179 359.011 257.319 363.909 258.246C364.033 258.27 364.114 258.389 364.09 258.513C364.067 258.636 363.949 258.718 363.824 258.694C353.912 256.817 343.921 262.596 340.588 272.136C338.774 277.327 339.09 282.913 341.478 287.866C343.865 292.819 348.039 296.545 353.229 298.359C362.083 301.453 371.907 298.179 377.119 290.397C377.189 290.292 377.331 290.265 377.435 290.334C377.539 290.404 377.567 290.546 377.497 290.65C373.514 296.598 366.893 299.97 360.024 299.97Z" fill="#F2E6DC"/>
<path d="M377.5 174.253H199.516V57.0547H201.823V171.946H377.5V174.253Z" fill="white"/>
<path d="M334.546 81.25L313.539 93.7979L314.722 95.7784L335.729 83.2305L334.546 81.25Z" fill="white"/>
<path d="M273.319 47.5234L271.391 48.7899L299.848 92.1131L301.776 90.8466L273.319 47.5234Z" fill="white"/>
<path d="M259.297 45.3047L237.188 62.3828L238.597 64.2089L260.707 47.1309L259.297 45.3047Z" fill="white"/>
<path d="M239.563 71.2129C240.72 66.313 237.686 61.403 232.786 60.246C227.887 59.089 222.977 62.1232 221.82 67.023C220.663 71.9229 223.697 76.8329 228.597 77.9899C233.496 79.1469 238.406 76.1127 239.563 71.2129Z" fill="white"/>
<path d="M276.59 41.1757C276.869 36.1484 273.019 31.8473 267.992 31.5689C262.964 31.2905 258.663 35.1402 258.385 40.1674C258.107 45.1947 261.956 49.4957 266.983 49.7741C272.011 50.0526 276.312 46.2029 276.59 41.1757Z" fill="white"/>
<path d="M315.217 99.1866C315.217 104.221 311.136 108.303 306.101 108.303C301.066 108.303 296.984 104.221 296.984 99.1866C296.984 94.1519 301.066 90.0703 306.101 90.0703C311.136 90.0703 315.217 94.1519 315.217 99.1866Z" fill="white"/>
<path d="M346.679 86.3539C351.33 84.4271 353.539 79.0942 351.612 74.4426C349.685 69.791 344.353 67.582 339.701 69.5088C335.049 71.4356 332.84 76.7686 334.767 81.4202C336.694 86.0718 342.027 88.2807 346.679 86.3539Z" fill="white"/>
<path d="M242.606 92.6484H219.934V154.815H242.606V92.6484Z" fill="#C1AEAE"/>
<path d="M280.024 80.2734H257.352V154.825H280.024V80.2734Z" fill="#C1AEAE"/>
<path d="M317.438 114.648H294.766V154.823H317.438V114.648Z" fill="#C1AEAE"/>
<path d="M354.852 103.109H332.18V154.82H354.852V103.109Z" fill="#C1AEAE"/>
<path d="M125.809 216.514C143.08 220.657 192.192 235.664 198.265 214.976C203.289 197.863 154.814 185.358 137.931 180.133C133.89 192.26 129.849 204.387 125.809 216.514Z" fill="white"/>
<path d="M166.145 203.142C166.145 203.141 166.144 203.14 166.145 203.14C183.511 175.952 195.31 156.331 199.191 150.416C199.597 149.797 200.309 148.7 201.587 147.58C206.32 143.426 211.226 145.593 218.196 143.496C226.104 141.118 229.21 135.301 230.976 136.454C232.204 137.256 231.65 139.78 228.737 144.098L228.738 144.099C231.328 141.073 235.02 137.122 236.688 138.558C238.525 140.32 234.733 145.471 232.286 148.474C235.248 144.839 237.91 143.791 238.641 144.824C239.79 146.449 238.151 149.803 234.05 154.457C237.778 152.035 239.045 152.003 239.468 153.073C240.241 155.027 236.798 158.789 233.244 161.649C229.244 164.868 225.025 165.976 222.348 166.612C222.347 166.612 222.346 166.613 222.346 166.613C212.158 186.916 204.715 199.578 197.738 216.549C193.292 227.365 167.593 220.775 166.145 203.142Z" fill="white"/>
<path d="M165.83 203.702C165.754 203.702 165.677 203.681 165.608 203.637C165.416 203.515 165.361 203.26 165.483 203.068C167.875 199.321 170.303 195.496 172.7 191.7C172.822 191.508 173.076 191.45 173.269 191.571C173.461 191.693 173.519 191.947 173.397 192.14C171 195.937 168.571 199.763 166.178 203.512C166.099 203.635 165.966 203.702 165.83 203.702Z" fill="#17494D"/>
<path d="M212.251 146.915C216.2 139.761 216.109 136.344 214.955 135.755C213.015 134.763 207.144 139.49 200.055 149.217C203.51 148.881 208.795 147.252 212.251 146.915Z" fill="white"/>
<path d="M210.709 160.854C210.641 160.854 210.573 160.837 210.51 160.803C210.311 160.693 210.238 160.442 210.348 160.243C211.075 158.922 212.438 157.085 214.808 155.838C218.159 154.072 221.438 154.634 222.692 154.958C222.912 155.015 223.045 155.239 222.987 155.46C222.931 155.68 222.705 155.812 222.486 155.756C221.324 155.456 218.289 154.935 215.192 156.567C213.004 157.719 211.743 159.418 211.07 160.64C210.995 160.777 210.854 160.854 210.709 160.854Z" fill="#17494D"/>
<path d="M205.319 146.143C205.144 146.143 204.981 146.031 204.926 145.855C204.857 145.638 204.977 145.406 205.194 145.338C206.944 144.784 208.773 144.66 210.711 144.53C211.608 144.469 212.536 144.407 213.501 144.299C213.73 144.274 213.932 144.438 213.957 144.664C213.982 144.89 213.819 145.094 213.592 145.119C212.609 145.228 211.672 145.291 210.767 145.352C208.88 145.479 207.098 145.599 205.443 146.124C205.402 146.137 205.36 146.143 205.319 146.143Z" fill="#17494D"/>
<path d="M222.358 148.329C222.187 148.329 222.027 148.222 221.968 148.051C221.894 147.836 222.008 147.601 222.223 147.527C223.14 147.211 224.03 146.808 224.87 146.331C226.088 145.638 227.212 144.781 228.211 143.784C228.373 143.623 228.633 143.624 228.794 143.785C228.955 143.946 228.955 144.207 228.793 144.368C227.742 145.416 226.559 146.318 225.277 147.047C224.394 147.55 223.457 147.973 222.492 148.306C222.448 148.322 222.402 148.329 222.358 148.329Z" fill="#17494D"/>
<path d="M226.275 152.22C226.104 152.22 225.945 152.113 225.886 151.942C225.812 151.727 225.926 151.492 226.141 151.418C227.057 151.102 227.947 150.699 228.788 150.221C230.005 149.528 231.13 148.671 232.129 147.675C232.29 147.514 232.551 147.515 232.712 147.676C232.872 147.837 232.872 148.098 232.711 148.259C231.66 149.307 230.477 150.208 229.195 150.938C228.311 151.441 227.374 151.864 226.41 152.197C226.365 152.212 226.32 152.22 226.275 152.22Z" fill="#17494D"/>
<path d="M227.795 158.767C227.624 158.767 227.464 158.66 227.406 158.489C227.331 158.274 227.445 158.039 227.661 157.965C228.577 157.648 229.467 157.246 230.307 156.768C231.525 156.075 232.65 155.218 233.649 154.222C233.81 154.061 234.071 154.062 234.231 154.223C234.392 154.384 234.392 154.645 234.231 154.806C233.18 155.854 231.997 156.755 230.715 157.485C229.831 157.987 228.894 158.411 227.93 158.744C227.885 158.76 227.84 158.767 227.795 158.767Z" fill="#17494D"/>
<path d="M72.9074 349.075L68.2326 363.1C59.825 362.848 51.4195 362.98 43.0273 363.111H43.0214C34.6702 363.241 26.3321 363.372 17.9961 363.127C18.9517 345.705 22.1383 320.047 31.7852 292.956C41.0293 266.996 53.1022 246.997 62.9543 233.164L126.264 244.771C129.796 254.086 133.081 264.466 135.73 275.861C143.689 310.106 142.873 340.49 140.037 363.102C131.838 362.937 123.638 363.024 115.449 363.111H115.444C107.252 363.198 99.0701 363.285 90.8889 363.12C90.2783 354.389 89.6677 345.404 89.0571 336.419C88.4359 327.278 87.8146 318.136 87.1933 309.261L86.2202 309.138C84.8125 313.36 83.4051 317.582 81.9977 321.805C80.5652 326.102 79.1327 330.4 77.6999 334.698L72.9074 349.075Z" fill="white" stroke="#17494D"/>
<path d="M34.5547 187.406C22.636 197.003 -12.6972 219.748 4.59836 242.887C11.1232 251.617 40.5301 223.591 52.9832 214.829C46.8406 205.688 40.6977 196.547 34.5547 187.406Z" fill="white"/>
<path d="M23.9102 192.497C28.2875 188.45 61.1055 159.102 105.738 166.404C131.476 170.615 147.829 178.003 157.285 184C147.845 201.082 144.788 204.862 139.463 211.489C142.185 225.334 144.906 239.179 147.628 253.024C127.393 252.847 62.0726 250.894 41.4827 250.184C45.151 238.469 48.8192 232.203 52.4874 220.487C49.6476 222.854 46.8074 225.221 43.9676 227.587C37.4002 216.637 29.7677 202.792 23.9102 192.497Z" fill="#F51624"/>
<path d="M73.1115 242.177C73.0657 242.177 73.019 242.17 72.973 242.153C72.7588 242.077 72.6469 241.841 72.7231 241.627L91.7257 188.273H133.462C133.69 188.273 133.874 188.458 133.874 188.686C133.874 188.913 133.69 189.098 133.462 189.098H92.307L73.4998 241.904C73.4395 242.072 73.2809 242.177 73.1115 242.177Z" fill="#D87355"/>
<path d="M116.547 244.337H75.1016L94.0066 191.258H135.452L116.547 244.337Z" fill="white"/>
<path d="M13.7576 214.703C27.9371 215.652 61.4399 216.232 64.7081 216.418C70.8173 216.768 103.555 219.494 103.674 224.26C103.731 226.538 97.3999 226.298 95.2623 226.155C96.9317 227.122 103.745 230.141 103.145 232.623C102.439 235.54 93.7691 233.185 93.6108 233.234C95.4059 234.044 102.687 236.981 102.308 238.86C101.817 241.304 94.2239 240.602 91.9604 240.287C92.1548 240.629 99.4713 242.41 99.0087 245.35C98.6691 247.508 91.7042 246.853 88.6818 246.578C83.2536 246.272 19.9296 246.127 8.16435 244.598C3.55886 243.999 7.52843 219.144 13.7576 214.703Z" fill="white"/>
<path d="M44.2992 216.137C44.2943 216.137 44.29 216.137 44.2855 216.137C37.0817 215.901 18.2691 215.064 13.69 214.808C13.4625 214.796 13.2886 214.601 13.3015 214.374C13.3141 214.147 13.5063 213.969 13.7358 213.985C18.3121 214.24 37.1132 215.077 44.3121 215.313C44.54 215.32 44.7182 215.511 44.7107 215.738C44.7034 215.961 44.5207 216.137 44.2992 216.137Z" fill="#17494D"/>
<path d="M95.3517 226.344C95.2968 226.344 95.2418 226.333 95.1886 226.31C94.0291 225.811 92.8256 225.389 91.6118 225.055C89.4303 224.455 87.1678 224.125 84.8874 224.074C84.6599 224.069 84.4797 223.881 84.4845 223.653C84.4898 223.428 84.6732 223.25 84.8967 223.25C84.8996 223.25 84.9027 223.25 84.9059 223.25C87.254 223.302 89.5837 223.642 91.8308 224.26C93.0809 224.604 94.3206 225.039 95.5147 225.553C95.7236 225.643 95.8202 225.886 95.7306 226.095C95.6632 226.251 95.511 226.344 95.3517 226.344Z" fill="#17494D"/>
<path d="M93.7432 233.495C93.7029 233.495 93.6623 233.489 93.622 233.476C93.369 233.398 93.1101 233.323 92.8461 233.25C90.6654 232.65 88.4031 232.32 86.1217 232.269C85.8942 232.264 85.714 232.076 85.7188 231.848C85.7241 231.624 85.9075 231.445 86.1311 231.445C86.1339 231.445 86.137 231.445 86.1402 231.445C88.4888 231.498 90.8187 231.838 93.0651 232.456C93.3371 232.531 93.6041 232.608 93.8645 232.689C94.0822 232.756 94.2042 232.986 94.1374 233.204C94.0826 233.381 93.9195 233.495 93.7432 233.495Z" fill="#17494D"/>
<path d="M91.8187 240.623C91.7938 240.623 91.7687 240.621 91.7434 240.616C90.2896 240.347 88.7976 240.194 87.3092 240.161C87.0817 240.156 86.9015 239.967 86.9063 239.74C86.9116 239.512 87.0838 239.32 87.3277 239.337C88.8603 239.371 90.3963 239.529 91.8932 239.806C92.1169 239.847 92.2651 240.062 92.2236 240.286C92.1869 240.485 92.0134 240.623 91.8187 240.623Z" fill="#17494D"/>
<path d="M61.6095 144.188C48.6905 144.188 38.1797 133.677 38.1797 120.758C38.1797 107.839 48.6903 97.3281 61.6095 97.3281C74.5287 97.3281 85.0393 107.839 85.0393 120.758C85.0393 133.677 74.5287 144.188 61.6095 144.188ZM61.6095 98.1526C49.1448 98.1526 39.004 108.293 39.004 120.758C39.004 133.223 49.1448 143.363 61.6095 143.363C74.0742 143.363 84.2148 133.222 84.2148 120.758C84.215 108.293 74.0742 98.1526 61.6095 98.1526Z" fill="#17494D"/>
<path d="M65.7269 139.61C81.5664 139.61 94.4069 126.769 94.4069 110.93C94.4069 95.0905 81.5664 82.25 65.7269 82.25C49.8874 82.25 37.0469 95.0905 37.0469 110.93C37.0469 126.769 49.8874 139.61 65.7269 139.61Z" fill="#17494D"/>
<path d="M95.9228 152.603C106.609 152.603 115.271 143.941 115.271 133.255C115.271 122.569 106.609 113.906 95.9228 113.906C85.2369 113.906 76.5742 122.569 76.5742 133.255C76.5742 143.941 85.2369 152.603 95.9228 152.603Z" fill="#17494D"/>
<path d="M111.742 156.963C107.467 159.999 95.3903 151.756 95.3903 151.756L88.4805 137.302C88.4805 129.925 94.4606 123.945 101.837 123.945C109.214 123.945 115.194 129.925 115.194 137.302C115.194 137.302 116.097 153.87 111.742 156.963Z" fill="white"/>
<path d="M97.3303 178.003C105.873 178.003 112.797 175.164 112.797 171.662C112.797 168.159 105.873 165.32 97.3303 165.32C88.7881 165.32 81.8633 168.159 81.8633 171.662C81.8633 175.164 88.7881 178.003 97.3303 178.003Z" fill="white"/>
<path d="M104.989 137.148H88.4805V170.916H104.989V137.148Z" fill="white"/>
<path d="M113.665 140.812C113.665 140.812 117.411 144.739 117.212 145.775C116.974 147.012 112.801 147.766 112.801 147.766C112.801 147.766 113.765 140.822 113.665 140.812Z" fill="white"/>
<path d="M107.644 158.117C107.62 158.117 107.595 158.115 107.571 158.111C102.314 157.175 95.4498 152.521 95.1604 152.323C94.9725 152.194 94.9238 151.938 95.0522 151.75C95.181 151.562 95.4379 151.514 95.6251 151.642C95.6947 151.69 102.634 156.395 107.715 157.3C107.94 157.339 108.089 157.553 108.049 157.777C108.014 157.977 107.84 158.117 107.644 158.117Z" fill="#17494D"/>
<path d="M100.281 139.31C100.281 139.31 102.732 137.992 105.686 137.992C106.315 137.992 105.129 143.022 104.532 142.737C101.909 141.485 100.281 139.31 100.281 139.31Z" fill="white"/>
<mask id="mask1_4269_350839" style="mask-type:luminance" maskUnits="userSpaceOnUse" x="100" y="137" width="14" height="7">
<path d="M100.285 139.31C100.285 139.31 103.89 137.371 107.625 138.197C111.361 139.022 113.814 142.299 113.814 142.299C113.814 142.299 110.209 144.237 106.473 143.412C102.737 142.587 100.285 139.31 100.285 139.31Z" fill="white"/>
</mask>
<g mask="url(#mask1_4269_350839)">
<path d="M109.351 146.405C112.114 146.405 114.354 144.165 114.354 141.402C114.354 138.638 112.114 136.398 109.351 136.398C106.588 136.398 104.348 138.638 104.348 141.402C104.348 144.165 106.588 146.405 109.351 146.405Z" fill="#17494D"/>
</g>
<path d="M108.924 150.505C108.457 150.505 107.991 150.373 107.585 150.11C106.805 149.603 106.372 148.675 106.482 147.746C106.509 147.52 106.713 147.36 106.94 147.385C107.166 147.412 107.327 147.617 107.301 147.844C107.227 148.463 107.515 149.081 108.034 149.419C108.574 149.769 109.275 149.768 109.82 149.418C110.012 149.295 110.266 149.35 110.389 149.542C110.512 149.733 110.457 149.988 110.266 150.111C109.857 150.374 109.39 150.505 108.924 150.505Z" fill="#17494D"/>
<path d="M85.2283 140.816C85.2283 140.816 89.4871 139.107 93.8835 143.619L96.7333 142.059C96.7333 142.059 95.0827 123.883 115.003 131.027C115.003 131.027 108.171 115.765 94.8452 121.37C81.519 126.974 85.2283 140.816 85.2283 140.816Z" fill="#17494D"/>
<path d="M85.0648 144.009C85.8441 146.619 88.3154 148.185 90.5848 147.507C92.8542 146.83 94.0622 144.165 93.2829 141.555C92.5038 138.945 90.0322 137.379 87.7629 138.056C85.4935 138.734 84.2855 141.399 85.0648 144.009Z" fill="white"/>
<path d="M91.5128 142.408C91.3353 142.408 91.1711 142.292 91.118 142.114C90.738 140.841 89.5526 140.068 88.4736 140.389C87.8345 140.58 87.3446 141.131 87.1639 141.862C87.1093 142.083 86.8846 142.217 86.6649 142.163C86.444 142.109 86.309 141.885 86.3638 141.664C86.6154 140.647 87.3161 139.875 88.2379 139.599C89.7522 139.146 91.3978 140.17 91.9078 141.878C91.9729 142.096 91.849 142.325 91.6309 142.39C91.5912 142.402 91.5517 142.408 91.5128 142.408Z" fill="#17494D"/>
<path d="M89.3622 154.483C86.9397 154.483 84.9688 152.512 84.9688 150.089C84.9688 147.666 86.9397 145.695 89.3622 145.695C91.7852 145.695 93.7562 147.666 93.7562 150.089C93.7562 152.512 91.7852 154.483 89.3622 154.483ZM89.3622 146.52C87.394 146.52 85.7929 148.121 85.7929 150.089C85.7929 152.057 87.394 153.659 89.3622 153.659C91.3304 153.659 92.932 152.057 92.932 150.089C92.932 148.121 91.3303 146.52 89.3622 146.52Z" fill="#F51624"/>
<path opacity="0.5" d="M301.243 237.091H230.12C224.358 237.091 219.645 232.377 219.645 226.616C219.645 220.855 224.358 216.141 230.12 216.141H301.243C307.004 216.141 311.718 220.855 311.718 226.616C311.718 232.377 307.004 237.091 301.243 237.091Z" fill="white"/>
<path d="M303.324 243.282H236.242C229.684 243.282 224.348 237.946 224.348 231.387C224.348 224.828 229.684 219.492 236.242 219.492H303.324C309.883 219.492 315.219 224.828 315.219 231.387C315.219 237.945 309.883 243.282 303.324 243.282ZM236.242 220.577C230.281 220.577 225.433 225.426 225.433 231.387C225.433 237.348 230.282 242.197 236.242 242.197H303.324C309.285 242.197 314.134 237.347 314.134 231.387C314.134 225.426 309.284 220.577 303.324 220.577H236.242Z" fill="white"/>
<path d="M240.369 231.128C240.369 233.408 238.521 235.256 236.241 235.256C233.961 235.256 232.113 233.408 232.113 231.128C232.113 228.848 233.961 227 236.241 227C238.521 227 240.369 228.848 240.369 231.128Z" fill="#D87355"/>
<path d="M253.568 231.128C253.568 233.408 251.719 235.256 249.44 235.256C247.16 235.256 245.312 233.408 245.312 231.128C245.312 228.848 247.16 227 249.44 227C251.719 227 253.568 228.848 253.568 231.128Z" fill="#D87355"/>
<path d="M266.768 231.128C266.768 233.408 264.919 235.256 262.64 235.256C260.36 235.256 258.512 233.408 258.512 231.128C258.512 228.848 260.36 227 262.64 227C264.919 227 266.768 228.848 266.768 231.128Z" fill="#D87355"/>
<path d="M279.963 231.128C279.963 233.408 278.115 235.256 275.835 235.256C273.555 235.256 271.707 233.408 271.707 231.128C271.707 228.848 273.555 227 275.835 227C278.115 227 279.963 228.848 279.963 231.128Z" fill="#D87355"/>
</g>
</g>
<defs>
<clipPath id="clip0_4269_350839">
<rect width="495" height="358" fill="white"/>
</clipPath>
</defs>
</svg>
