<svg width="56" height="64" viewBox="0 0 56 64" fill="none" xmlns="http://www.w3.org/2000/svg">
<path d="M18.6484 36.3125H13.7266C12.8652 36.3125 12.25 35.6973 12.25 34.8359V29.9141C12.25 29.1758 12.8652 28.4375 13.7266 28.4375H18.6484C19.3867 28.4375 20.125 29.1758 20.125 29.9141V34.8359C20.125 35.6973 19.3867 36.3125 18.6484 36.3125ZM31.9375 34.8359C31.9375 35.6973 31.1992 36.3125 30.4609 36.3125H25.5391C24.6777 36.3125 24.0625 35.6973 24.0625 34.8359V29.9141C24.0625 29.1758 24.6777 28.4375 25.5391 28.4375H30.4609C31.1992 28.4375 31.9375 29.1758 31.9375 29.9141V34.8359ZM43.75 34.8359C43.75 35.6973 43.0117 36.3125 42.2734 36.3125H37.3516C36.4902 36.3125 35.875 35.6973 35.875 34.8359V29.9141C35.875 29.1758 36.4902 28.4375 37.3516 28.4375H42.2734C43.0117 28.4375 43.75 29.1758 43.75 29.9141V34.8359ZM31.9375 46.6484C31.9375 47.5098 31.1992 48.125 30.4609 48.125H25.5391C24.6777 48.125 24.0625 47.5098 24.0625 46.6484V41.7266C24.0625 40.9883 24.6777 40.25 25.5391 40.25H30.4609C31.1992 40.25 31.9375 40.9883 31.9375 41.7266V46.6484ZM20.125 46.6484C20.125 47.5098 19.3867 48.125 18.6484 48.125H13.7266C12.8652 48.125 12.25 47.5098 12.25 46.6484V41.7266C12.25 40.9883 12.8652 40.25 13.7266 40.25H18.6484C19.3867 40.25 20.125 40.9883 20.125 41.7266V46.6484ZM43.75 46.6484C43.75 47.5098 43.0117 48.125 42.2734 48.125H37.3516C36.4902 48.125 35.875 47.5098 35.875 46.6484V41.7266C35.875 40.9883 36.4902 40.25 37.3516 40.25H42.2734C43.0117 40.25 43.75 40.9883 43.75 41.7266V46.6484ZM55.5625 14.6562V57.9688C55.5625 61.291 52.8555 63.875 49.6562 63.875H6.34375C3.02148 63.875 0.4375 61.291 0.4375 57.9688V14.6562C0.4375 11.457 3.02148 8.75 6.34375 8.75H12.25V2.35156C12.25 1.61328 12.8652 0.875 13.7266 0.875H18.6484C19.3867 0.875 20.125 1.61328 20.125 2.35156V8.75H35.875V2.35156C35.875 1.61328 36.4902 0.875 37.3516 0.875H42.2734C43.0117 0.875 43.75 1.61328 43.75 2.35156V8.75H49.6562C52.8555 8.75 55.5625 11.457 55.5625 14.6562ZM49.6562 57.2305V20.5625H6.34375V57.2305C6.34375 57.7227 6.58984 57.9688 7.08203 57.9688H48.918C49.2871 57.9688 49.6562 57.7227 49.6562 57.2305Z" fill="#2A2A2A"/>
</svg>
