<svg width="57" height="56" viewBox="0 0 57 56" fill="none" xmlns="http://www.w3.org/2000/svg">
<path d="M56.6206 31.75C56.6206 32.9805 55.6011 34 54.3706 34H46.4956C46.4956 38.3945 45.5464 41.6992 44.1401 44.1953L51.4526 51.543C52.3315 52.4219 52.3315 53.8281 51.4526 54.707C51.0308 55.1641 50.4331 55.375 49.8706 55.375C49.3081 55.375 48.7105 55.1641 48.2886 54.707L41.3276 47.7812C41.3276 47.7812 36.7222 52 30.7456 52V20.5H26.2456V52C19.8823 52 15.2417 47.3594 15.2417 47.3594L8.80811 54.6367C8.35107 55.1289 7.75342 55.375 7.12061 55.375C6.59326 55.375 6.06592 55.1992 5.60889 54.8125C4.69482 53.9688 4.62451 52.5625 5.43311 51.6133L12.5347 43.6328C11.3042 41.207 10.4956 38.0781 10.4956 34H2.62061C1.39014 34 0.370606 32.9805 0.370606 31.75C0.370606 30.5195 1.39014 29.5 2.62061 29.5H10.4956C10.4956 25 10.4956 21.4844 10.4956 19.1641L4.41357 13.082C3.53467 12.2031 3.53467 10.7969 4.41357 9.91796C5.29248 9.03906 6.69873 9.03906 7.57764 9.91796L13.6597 16H43.3315L49.4136 9.91796C50.2925 9.03906 51.6987 9.03906 52.5776 9.91796C53.4565 10.7969 53.4565 12.2031 52.5776 13.082L46.4956 19.1641C46.4956 21.4844 46.4956 25 46.4956 29.5H54.3706C55.6011 29.5 56.6206 30.5195 56.6206 31.75ZM39.7456 11.5H17.2456C17.2456 5.27734 22.273 0.249998 28.4956 0.249998C34.7183 0.249998 39.7456 5.27734 39.7456 11.5Z" fill="#2A2A2A"/>
</svg>
