<svg width="64" height="64" viewBox="0 0 64 64" fill="none" xmlns="http://www.w3.org/2000/svg">
<g clip-path="url(#clip0_4269_324085)">
<path d="M51.1212 35.2079C51.1212 36.2931 50.3218 36.9315 49.4855 36.9315H49.2013V33.5723H49.4855C50.3875 33.5722 51.1212 34.306 51.1212 35.2079ZM0 14.4554V10.3264C0 6.90572 2.7729 4.13281 6.19355 4.13281H57.8064C61.2271 4.13281 64 6.90572 64 10.3264V14.4554C64 15.5957 63.0757 16.5199 61.9355 16.5199H2.06452C0.924258 16.5199 0 15.5957 0 14.4554ZM18.5806 11.1006C18.5806 13.0482 21.0457 13.8959 22.2413 12.4089C22.952 11.5479 22.8485 10.2421 21.9548 9.50443C20.5803 8.39823 18.5806 9.37978 18.5806 11.1006ZM12.3871 11.1006C12.3871 13.0555 14.8312 13.8861 16.0477 12.4102C16.7832 11.4968 16.6246 10.2171 15.7613 9.50443C14.3854 8.3972 12.3871 9.3821 12.3871 11.1006ZM6.19355 11.1006C6.19355 12.9709 8.47419 13.8368 9.71742 12.5599C10.5319 11.7449 10.5146 10.4173 9.71742 9.6412C8.4671 8.35694 6.19355 9.2381 6.19355 11.1006ZM64 22.7135V53.6812C64 57.1018 61.2271 59.8747 57.8064 59.8747H6.19355C2.7729 59.8747 0 57.1018 0 53.6812V22.7135C0 21.5732 0.924258 20.6489 2.06452 20.6489H61.9355C63.0757 20.6489 64 21.5732 64 22.7135ZM18.8387 31.5077C18.8387 30.3674 17.9143 29.4431 16.7742 29.4431C15.6341 29.4431 14.7097 30.3674 14.7097 31.5077V35.2296H12.9032V31.5077C12.9032 30.3674 11.9788 29.4431 10.8387 29.4431C9.69858 29.4431 8.77419 30.3674 8.77419 31.5077V43.0804C8.77419 44.2207 9.69858 45.1449 10.8387 45.1449C11.9788 45.1449 12.9032 44.2207 12.9032 43.0804V39.3586H14.7097V43.0806C14.7097 44.2208 15.6341 45.1451 16.7742 45.1451C17.9143 45.1451 18.8387 44.2208 18.8387 43.0806V31.5077ZM31.0968 31.4876C31.0968 30.3475 30.1724 29.4231 29.0323 29.4231H22.8387C21.6986 29.4231 20.7742 30.3475 20.7742 31.4876C20.7742 32.6278 21.6986 33.5522 22.8387 33.5522H23.871V43.1006C23.871 44.2408 24.7954 45.1651 25.9355 45.1651C27.0756 45.1651 28 44.2408 28 43.1006V33.5522H29.0323C30.1724 33.5522 31.0968 32.6278 31.0968 31.4876ZM43.2258 31.4876C43.2258 30.3475 42.3014 29.4231 41.1613 29.4231H34.9677C33.8276 29.4231 32.9032 30.3475 32.9032 31.4876C32.9032 32.6278 33.8276 33.5522 34.9677 33.5522H36V43.1006C36 44.2408 36.9244 45.1651 38.0645 45.1651C39.2046 45.1651 40.129 44.2408 40.129 43.1006V33.5522H41.1613C42.3014 33.5522 43.2258 32.6278 43.2258 31.4876ZM55.2502 35.2079C55.2502 32.0292 52.6641 29.4431 49.4855 29.4431H47.1368C45.9966 29.4431 45.0723 30.3674 45.0723 31.5077V43.0804C45.0723 44.2207 45.9966 45.1449 47.1368 45.1449C48.2769 45.1449 49.2013 44.2207 49.2013 43.0804V41.0606C52.9615 41.0606 55.2502 38.312 55.2502 35.2079Z" fill="#17494D"/>
</g>
<defs>
<clipPath id="clip0_4269_324085">
<rect width="64" height="64" fill="white"/>
</clipPath>
</defs>
</svg>
