<svg width="451" height="301" viewBox="0 0 451 301" fill="none" xmlns="http://www.w3.org/2000/svg">
<g clip-path="url(#clip0_4269_237926)">
<path d="M439.725 0.361019H223.293C217.286 0.361019 212.414 5.23411 212.414 11.2449V166.173C212.414 172.184 217.284 177.057 223.293 177.057H450.604V11.2433C450.604 5.23247 445.734 0.359375 439.725 0.359375V0.361019Z" fill="white"/>
<path d="M450.606 177.421H223.295C217.097 177.421 212.055 172.375 212.055 166.173V11.2456C212.055 5.04408 217.097 0 223.295 0H439.729C445.927 0 450.969 5.04572 450.969 11.2456V177.057C450.969 177.258 450.807 177.419 450.608 177.419L450.606 177.421ZM223.295 0.725045C217.497 0.725045 212.78 5.44524 212.78 11.2472V166.175C212.78 171.977 217.497 176.697 223.295 176.697H450.244V11.2456C450.244 5.44359 445.528 0.723401 439.729 0.723401H223.295V0.725045Z" fill="#2D324F"/>
<path d="M436.062 170.817H226.11C222.439 170.817 219.453 167.83 219.453 164.157V13.2618C219.453 9.58888 222.44 6.60156 226.11 6.60156H436.908C440.579 6.60156 443.564 9.58888 443.564 13.2618V163.31C443.564 167.45 440.199 170.817 436.061 170.817H436.062ZM226.11 7.32661C222.838 7.32661 220.178 9.99004 220.178 13.2618V164.157C220.178 167.43 222.84 170.092 226.11 170.092H436.062C439.799 170.092 442.841 167.05 442.841 163.31V13.2618C442.841 9.9884 440.179 7.32661 436.909 7.32661H226.11Z" fill="#2D324F"/>
<path d="M433.125 194.305H185.805C176.148 194.305 168.32 186.476 168.32 176.82H450.611C450.611 186.478 442.782 194.305 433.126 194.305H433.125Z" fill="white"/>
<path d="M433.121 194.671H185.801C175.96 194.671 167.953 186.664 167.953 176.823C167.953 176.622 168.116 176.461 168.315 176.461H450.606C450.806 176.461 450.967 176.624 450.967 176.823C450.967 186.664 442.961 194.671 433.119 194.671H433.121ZM168.681 177.186C168.875 186.462 176.479 193.946 185.801 193.946H433.121C442.441 193.946 450.047 186.46 450.241 177.186H168.681Z" fill="#2D324F"/>
<path d="M425.945 154.434V21.3906L236.233 21.3906V154.434H425.945Z" fill="#F4ECE8"/>
<path d="M387.238 59.0078H275.18V76.6802H387.238V59.0078Z" fill="white"/>
<path d="M292.844 59.0078H275.18V76.6802H292.844V59.0078Z" fill="#00A63F"/>
<path d="M287.309 64.8506C287.311 62.9556 285.777 61.4175 283.883 61.4152C281.989 61.4129 280.452 62.9472 280.45 64.8422C280.447 66.7372 281.981 68.2753 283.875 68.2776C285.769 68.2799 287.306 66.7456 287.309 64.8506Z" fill="white"/>
<path d="M288.064 74.1179V72.7994C288.064 70.5042 286.187 68.625 283.891 68.625C281.596 68.625 279.719 70.5042 279.719 72.7994V74.1179H288.064Z" fill="white"/>
<path d="M304.18 72.0039C306.044 72.0039 307.555 70.492 307.555 68.627C307.555 66.7619 306.044 65.25 304.18 65.25C302.316 65.25 300.805 66.7619 300.805 68.627C300.805 70.492 302.316 72.0039 304.18 72.0039Z" fill="#E2EAFF"/>
<path d="M313.024 72.0039C314.888 72.0039 316.399 70.492 316.399 68.627C316.399 66.7619 314.888 65.25 313.024 65.25C311.16 65.25 309.648 66.7619 309.648 68.627C309.648 70.492 311.16 72.0039 313.024 72.0039Z" fill="#E2EAFF"/>
<path d="M321.953 72.0039C323.818 72.0039 325.329 70.492 325.329 68.627C325.329 66.7619 323.818 65.25 321.953 65.25C320.089 65.25 318.578 66.7619 318.578 68.627C318.578 70.492 320.089 72.0039 321.953 72.0039Z" fill="#E2EAFF"/>
<path d="M331.055 72.0039C332.919 72.0039 334.43 70.492 334.43 68.627C334.43 66.7619 332.919 65.25 331.055 65.25C329.191 65.25 327.68 66.7619 327.68 68.627C327.68 70.492 329.191 72.0039 331.055 72.0039Z" fill="#E2EAFF"/>
<path d="M340.422 72.0039C342.286 72.0039 343.798 70.492 343.798 68.627C343.798 66.7619 342.286 65.25 340.422 65.25C338.558 65.25 337.047 66.7619 337.047 68.627C337.047 70.492 338.558 72.0039 340.422 72.0039Z" fill="#E2EAFF"/>
<path d="M387.238 83.2734H275.18V100.946H387.238V83.2734Z" fill="white"/>
<path d="M292.844 83.2734H275.18V100.946H292.844V83.2734Z" fill="#00A63F"/>
<path d="M304.524 95.5274C306.388 95.5274 307.899 94.0155 307.899 92.1504C307.899 90.2854 306.388 88.7734 304.524 88.7734C302.66 88.7734 301.148 90.2854 301.148 92.1504C301.148 94.0155 302.66 95.5274 304.524 95.5274Z" fill="#E2EAFF"/>
<path d="M313.368 95.5274C315.232 95.5274 316.743 94.0155 316.743 92.1504C316.743 90.2854 315.232 88.7734 313.368 88.7734C311.503 88.7734 309.992 90.2854 309.992 92.1504C309.992 94.0155 311.503 95.5274 313.368 95.5274Z" fill="#E2EAFF"/>
<path d="M322.297 95.5274C324.161 95.5274 325.673 94.0155 325.673 92.1504C325.673 90.2854 324.161 88.7734 322.297 88.7734C320.433 88.7734 318.922 90.2854 318.922 92.1504C318.922 94.0155 320.433 95.5274 322.297 95.5274Z" fill="#E2EAFF"/>
<path d="M331.399 95.5274C333.263 95.5274 334.774 94.0155 334.774 92.1504C334.774 90.2854 333.263 88.7734 331.399 88.7734C329.535 88.7734 328.023 90.2854 328.023 92.1504C328.023 94.0155 329.535 95.5274 331.399 95.5274Z" fill="#E2EAFF"/>
<path d="M340.766 95.5274C342.63 95.5274 344.141 94.0155 344.141 92.1504C344.141 90.2854 342.63 88.7734 340.766 88.7734C338.902 88.7734 337.391 90.2854 337.391 92.1504C337.391 94.0155 338.902 95.5274 340.766 95.5274Z" fill="#E2EAFF"/>
<path d="M350.453 95.5274C352.318 95.5274 353.829 94.0155 353.829 92.1504C353.829 90.2854 352.318 88.7734 350.453 88.7734C348.589 88.7734 347.078 90.2854 347.078 92.1504C347.078 94.0155 348.589 95.5274 350.453 95.5274Z" fill="#E2EAFF"/>
<path d="M359.297 95.5274C361.161 95.5274 362.672 94.0155 362.672 92.1504C362.672 90.2854 361.161 88.7734 359.297 88.7734C357.433 88.7734 355.922 90.2854 355.922 92.1504C355.922 94.0155 357.433 95.5274 359.297 95.5274Z" fill="#E2EAFF"/>
<path d="M368.227 95.5274C370.091 95.5274 371.602 94.0155 371.602 92.1504C371.602 90.2854 370.091 88.7734 368.227 88.7734C366.363 88.7734 364.852 90.2854 364.852 92.1504C364.852 94.0155 366.363 95.5274 368.227 95.5274Z" fill="#E2EAFF"/>
<path d="M281.896 91.6123L281.955 88.9916C281.981 88.1449 282.737 87.4478 283.686 87.4051C284.732 87.3574 285.596 88.117 285.567 89.0492V91.7241C285.559 92.0086 286.724 92.0924 286.729 91.831L286.66 89.1018C286.706 87.6024 285.366 86.3775 283.632 86.4482C282.198 86.5058 280.881 87.6386 280.838 89.0081L280.789 91.6551L281.896 91.6107V91.6123Z" fill="white"/>
<path d="M283.684 98.1464C285.841 98.1464 287.844 96.7867 287.632 94.1117L287.602 91.1376C287.6 90.9058 287.421 90.7266 287.193 90.7266H280.712C280.394 90.7266 280.13 90.9978 280.133 91.3184L280.166 94.6214C280.185 96.6058 281.724 98.1464 283.686 98.1464H283.684Z" fill="white"/>
<path d="M283.89 96.0082C284.066 96.0082 284.214 95.8569 284.212 95.6794L284.196 93.0472C284.196 92.8844 284.069 92.7578 283.908 92.7578C283.732 92.7578 283.584 92.9091 283.586 93.0866L283.602 95.7188C283.602 95.8816 283.729 96.0082 283.89 96.0082Z" fill="#00A63F"/>
<path d="M284.803 93.9912C285.207 93.4921 285.153 92.7788 284.682 92.3979C284.211 92.017 283.502 92.1128 283.098 92.6119C282.694 93.111 282.749 93.8244 283.22 94.2053C283.691 94.5862 284.4 94.4904 284.803 93.9912Z" fill="#00A63F"/>
<path d="M402.382 187.406H344.569C339.957 187.406 336.219 191.147 336.219 195.762V251.051C336.219 259.883 341.166 267.972 349.026 271.992L374.498 285.016L398.395 272.107C405.996 268.001 410.732 260.055 410.732 251.414V195.762C410.732 191.147 406.994 187.406 402.382 187.406Z" fill="#00A63F"/>
<path d="M352.293 265.594C346.807 262.789 343.398 257.216 343.398 251.052V195.763C343.398 195.118 343.923 194.594 344.566 194.594H402.379C403.023 194.594 403.546 195.118 403.546 195.763V251.415C403.546 257.424 400.263 262.931 394.979 265.785L374.404 276.899L352.295 265.592L352.293 265.594Z" fill="white"/>
<path d="M389.766 228.977H357.193C355.968 228.977 354.977 229.97 354.977 231.194V240.977C354.977 249.329 361.744 256.099 370.092 256.099H376.868C385.215 256.099 391.983 249.329 391.983 240.977V231.194C391.983 229.97 390.99 228.977 389.767 228.977H389.766Z" fill="#2D324F"/>
<path d="M386.683 226.382C385.931 226.382 385.323 225.772 385.323 225.021V220.426C385.323 215.044 380.948 210.668 375.57 210.668H371.386C366.008 210.668 361.633 215.044 361.633 220.426V225.021C361.633 225.772 361.025 226.382 360.274 226.382C359.522 226.382 358.914 225.772 358.914 225.021V220.426C358.914 213.545 364.511 207.945 371.388 207.945H375.572C382.451 207.945 388.046 213.543 388.046 220.426V225.021C388.046 225.772 387.437 226.382 386.686 226.382H386.683Z" fill="#2D324F"/>
<path d="M376.819 238.075C376.819 236.231 375.324 234.734 373.48 234.734C371.635 234.734 370.141 236.231 370.141 238.075C370.141 239.339 370.843 240.439 371.878 241.007V247.445C371.878 248.329 372.595 249.046 373.48 249.046C374.364 249.046 375.081 248.329 375.081 247.445V241.007C376.117 240.439 376.819 239.339 376.819 238.075Z" fill="white"/>
<path d="M442.282 282.988H398.12C397.919 282.988 397.758 282.825 397.758 282.626C397.758 282.427 397.921 282.264 398.12 282.264H441.92V258.659C441.92 258.458 442.083 258.297 442.282 258.297C442.48 258.297 442.643 258.46 442.643 258.659V282.626C442.643 282.827 442.48 282.988 442.282 282.988Z" fill="#00A63F"/>
<path d="M442.286 235.641C444.024 235.641 445.431 234.232 445.431 232.492C445.431 230.753 444.024 229.344 442.286 229.344C440.548 229.344 439.141 230.753 439.141 232.492C439.141 234.232 440.55 235.641 442.286 235.641Z" fill="white"/>
<path d="M442.282 236.005C440.348 236.005 438.773 234.43 438.773 232.495C438.773 230.559 440.347 228.984 442.282 228.984C444.217 228.984 445.789 230.559 445.789 232.495C445.789 234.43 444.215 236.005 442.282 236.005ZM442.282 229.709C440.748 229.709 439.498 230.959 439.498 232.495C439.498 234.03 440.746 235.28 442.282 235.28C443.818 235.28 445.065 234.03 445.065 232.495C445.065 230.959 443.818 229.709 442.282 229.709Z" fill="#2D324F"/>
<path d="M442.286 244.828C444.024 244.828 445.431 243.419 445.431 241.68C445.431 239.94 444.024 238.531 442.286 238.531C440.548 238.531 439.141 239.94 439.141 241.68C439.141 243.419 440.55 244.828 442.286 244.828Z" fill="white"/>
<path d="M442.282 245.192C440.348 245.192 438.773 243.617 438.773 241.682C438.773 239.747 440.347 238.172 442.282 238.172C444.217 238.172 445.789 239.747 445.789 241.682C445.789 243.617 444.215 245.192 442.282 245.192ZM442.282 238.897C440.748 238.897 439.498 240.146 439.498 241.682C439.498 243.218 440.746 244.467 442.282 244.467C443.818 244.467 445.065 243.218 445.065 241.682C445.065 240.146 443.818 238.897 442.282 238.897Z" fill="#2D324F"/>
<path d="M442.286 254.016C444.024 254.016 445.431 252.607 445.431 250.867C445.431 249.128 444.024 247.719 442.286 247.719C440.548 247.719 439.141 249.128 439.141 250.867C439.141 252.607 440.55 254.016 442.286 254.016Z" fill="white"/>
<path d="M442.282 254.38C440.348 254.38 438.773 252.805 438.773 250.87C438.773 248.934 440.347 247.359 442.282 247.359C444.217 247.359 445.789 248.934 445.789 250.87C445.789 252.805 444.215 254.38 442.282 254.38ZM442.282 248.083C440.748 248.083 439.498 249.332 439.498 250.868C439.498 252.403 440.746 253.653 442.282 253.653C443.818 253.653 445.065 252.403 445.065 250.868C445.065 249.332 443.818 248.083 442.282 248.083Z" fill="#2D324F"/>
<path d="M442.283 225.665C442.084 225.665 441.921 225.504 441.921 225.305L441.742 197.677C441.742 197.477 441.902 197.314 442.102 197.312H442.104C442.303 197.312 442.466 197.474 442.466 197.673L442.645 225.3C442.645 225.5 442.485 225.663 442.285 225.665H442.283Z" fill="#00A63F"/>
<path d="M349.399 283.02H255.354C255.153 283.02 254.992 282.858 254.992 282.659C254.992 282.46 255.155 282.297 255.354 282.297H349.399C349.6 282.297 349.761 282.46 349.761 282.659C349.761 282.858 349.598 283.02 349.399 283.02Z" fill="#00A63F"/>
<path d="M109.414 118.97L98.0471 152.217C97.3205 154.341 95.5152 155.916 93.3105 156.345L88.25 157.33C88.25 157.33 101.408 185.906 123.583 181.12C145.759 176.333 140.881 157.33 140.881 157.33L136.19 156.95C133.382 156.724 131.457 154.017 132.16 151.288L137.433 130.857C137.433 130.857 115.946 113.53 109.413 118.972L109.414 118.97Z" fill="white"/>
<path d="M118.678 182.014C111.201 182.014 103.908 178.362 97.3379 171.268C91.3073 164.756 87.9567 157.556 87.9238 157.484C87.8777 157.384 87.8794 157.267 87.9304 157.167C87.9813 157.068 88.075 156.997 88.1835 156.976L93.2441 155.991C95.314 155.588 97.0238 154.099 97.7061 152.103L109.073 118.856C109.095 118.793 109.133 118.737 109.184 118.695C115.868 113.128 136.776 129.861 137.663 130.577C137.773 130.665 137.822 130.812 137.786 130.95L132.513 151.381C132.204 152.578 132.438 153.844 133.156 154.85C133.873 155.856 134.991 156.491 136.222 156.591L140.913 156.971C141.067 156.984 141.196 157.093 141.235 157.242C141.317 157.559 143.183 165.101 138.943 171.96C136.002 176.72 130.861 179.922 123.661 181.476C121.996 181.836 120.332 182.014 118.678 182.014ZM88.7836 157.597C89.586 159.215 92.7525 165.254 97.8804 170.788C103.344 176.685 112.227 183.201 123.509 180.766C130.507 179.255 135.492 176.164 138.327 171.577C141.985 165.657 140.87 159.026 140.589 157.67L136.165 157.311C134.72 157.194 133.408 156.45 132.567 155.268C131.726 154.085 131.451 152.601 131.814 151.197L137.028 130.994C134.945 129.348 115.739 114.446 109.726 119.188L98.3934 152.336C97.6272 154.577 95.7069 156.251 93.3838 156.703L88.7853 157.597H88.7836Z" fill="#2D324F"/>
<path d="M153.891 79.7522C155.832 89.3438 150.629 94.9502 144.172 96.5532C143.944 96.6091 143.714 96.6601 143.49 96.7094C143.352 97.1845 144.339 98.633 144.123 99.1015C141.583 104.66 134.316 107.365 128.213 106.811C126.444 108.705 124.139 111.342 121.696 114.676C113.892 125.323 108.353 120.536 100.244 109.994C99.1638 108.59 97.6085 106.799 96.7996 103.827C95.1966 97.9244 97.9702 92.6106 98.3236 91.9579C100.969 87.0618 103.632 85.9044 111.859 82.2134C122.096 77.6215 124.596 68.4704 134.627 66.024C144.388 63.6417 152.358 72.1779 153.892 79.7555L153.891 79.7522Z" fill="#2D324F"/>
<path d="M117.161 124.137C117.161 124.137 122.667 136.858 137.09 134.508C151.514 132.159 152.238 112.002 150.95 92.5C149.508 94.343 146.21 96.0216 143.662 97.1051C133.288 101.518 123.671 97.2745 122.299 96.533C124.77 99.5713 124.775 103.695 122.693 106.488C121.544 108.028 119.89 109.142 116.061 109.207C116.061 109.207 113.721 103.098 108.281 106.644C102.839 110.19 104.863 125.153 117.162 124.137H117.161Z" fill="white"/>
<path d="M133.651 135.159C122.675 135.159 117.723 126.108 116.939 124.518C111.599 124.869 107.422 122.179 105.746 117.288C104.267 112.969 105.292 108.16 108.081 106.343C109.774 105.24 111.366 104.916 112.809 105.384C114.874 106.055 115.972 108.13 116.296 108.842C120.056 108.73 121.456 107.545 122.401 106.274C124.471 103.497 124.313 99.5857 122.016 96.7644C121.908 96.6296 121.908 96.4389 122.018 96.3041C122.128 96.1709 122.317 96.1331 122.468 96.217C125.212 97.695 134.342 100.677 143.519 96.7743C147.026 95.2831 149.563 93.6867 150.664 92.2794C150.757 92.161 150.913 92.1133 151.057 92.1561C151.2 92.2004 151.302 92.3287 151.312 92.4783C152.606 112.087 151.937 132.459 137.148 134.868C135.92 135.069 134.756 135.159 133.651 135.159ZM117.159 123.775C117.303 123.775 117.434 123.861 117.492 123.994C117.546 124.119 123.062 136.427 137.032 134.151C151.036 131.869 151.84 112.398 150.643 93.3809C148.963 95.0332 146.066 96.4767 143.804 97.4385C134.725 101.301 126.394 98.6601 123.348 97.4073C125.091 100.349 124.99 104.01 122.981 106.705C121.955 108.081 120.333 109.496 116.065 109.57C115.903 109.567 115.775 109.48 115.719 109.338C115.709 109.314 114.703 106.759 112.581 106.072C111.356 105.677 109.975 105.971 108.475 106.95C105.952 108.594 105.054 113.031 106.432 117.053C108.018 121.686 112.02 124.201 117.13 123.779C117.14 123.779 117.15 123.779 117.159 123.779V123.775Z" fill="#2D324F"/>
<path d="M116.311 118.755C116.16 118.755 116.02 118.662 115.967 118.51C115.65 117.581 115.321 116.621 114.752 115.829C114.146 114.984 113.328 114.467 112.51 114.412C112.311 114.398 112.16 114.224 112.173 114.025C112.186 113.825 112.36 113.677 112.559 113.688C113.595 113.759 114.608 114.387 115.341 115.406C115.972 116.286 116.317 117.297 116.653 118.275C116.717 118.464 116.617 118.67 116.428 118.735C116.388 118.749 116.349 118.755 116.311 118.755Z" fill="#2D324F"/>
<path d="M119.799 103.859C119.799 103.859 122.148 114.066 127.235 118.342C132.322 122.617 139.633 114.054 151.078 115.269C151.078 115.269 151.678 131.275 149.093 135.23C145.832 140.225 119.954 141.933 116.922 124.57C116.922 124.57 119.676 116.215 115.82 109.64L119.799 103.859Z" fill="#2D324F"/>
<path d="M145.044 105.494C145.559 108.858 148.117 111.258 150.759 110.854C153.401 110.449 155.126 107.395 154.611 104.029C154.096 100.665 151.538 98.265 148.896 98.6695C146.254 99.0739 144.529 102.129 145.044 105.494Z" fill="white"/>
<path d="M150.173 111.263C148.999 111.263 147.842 110.775 146.858 109.854C145.721 108.786 144.95 107.258 144.688 105.552C144.144 101.996 146.008 98.7485 148.843 98.3145C150.234 98.1024 151.638 98.5857 152.8 99.6758C153.938 100.743 154.709 102.272 154.97 103.978C155.515 107.535 153.65 110.782 150.816 111.216C150.602 111.249 150.387 111.265 150.171 111.265L150.173 111.263ZM145.405 105.442C145.642 106.989 146.334 108.368 147.355 109.325C148.351 110.259 149.542 110.675 150.707 110.497C153.147 110.124 154.738 107.248 154.255 104.087C154.018 102.54 153.326 101.16 152.305 100.204C151.309 99.268 150.117 98.8521 148.953 99.0313C146.513 99.4045 144.922 102.282 145.405 105.442Z" fill="#2D324F"/>
<path d="M134.544 114.466C133.324 114.466 132.124 114.069 131.079 113.307C129.725 112.32 128.795 110.839 128.456 109.135C127.754 105.607 129.842 102.207 133.109 101.556C134.697 101.237 136.322 101.612 137.683 102.605C139.036 103.592 139.966 105.073 140.305 106.776C141.007 110.304 138.919 113.704 135.652 114.355C135.284 114.429 134.913 114.466 134.544 114.466ZM134.214 102.173C133.893 102.173 133.569 102.204 133.25 102.268C130.375 102.84 128.543 105.857 129.166 108.994C129.469 110.52 130.299 111.843 131.506 112.721C132.703 113.593 134.125 113.921 135.513 113.645C138.388 113.073 140.22 110.056 139.597 106.919C139.294 105.394 138.462 104.07 137.257 103.192C136.338 102.521 135.284 102.173 134.215 102.173H134.214Z" fill="#2D324F"/>
<path d="M139.947 107.212C139.883 107.212 139.819 107.196 139.761 107.161C139.59 107.058 139.534 106.836 139.638 106.665C140.414 105.373 141.35 104.648 142.417 104.508C144.024 104.302 145.295 105.516 145.348 105.567C145.491 105.706 145.494 105.935 145.356 106.08C145.216 106.223 144.988 106.226 144.845 106.088C144.835 106.078 143.763 105.062 142.505 105.228C141.67 105.338 140.914 105.948 140.259 107.038C140.192 107.151 140.072 107.214 139.949 107.214L139.947 107.212Z" fill="#2D324F"/>
<path d="M128.81 109.428C128.797 109.428 128.784 109.428 128.771 109.426L118.426 108.318C118.227 108.297 118.082 108.117 118.104 107.918C118.125 107.719 118.299 107.573 118.503 107.596L128.848 108.704C129.047 108.726 129.191 108.905 129.17 109.104C129.15 109.29 128.992 109.428 128.81 109.428Z" fill="#2D324F"/>
<path d="M188.37 172.439C181.81 163.574 171.785 157.94 160.807 156.927C154.555 156.35 146.716 155.737 137.971 155.289C137.489 156.865 136.817 158.389 135.944 159.827C133.41 164 129.439 167.212 125.017 169.207C120.591 171.201 115.637 172.105 110.802 171.52C106.065 170.948 101.561 168.931 98.2872 165.402C95.6188 162.527 92.4178 159.051 91.599 155.281C83.6663 155.73 77.4154 156.388 69.9693 157.555C55.7594 159.781 43.5224 168.391 35.7607 180.508C18.8282 206.939 0 234.842 0 267.032C0 303.63 19.3691 301.438 87.8176 300.451C163.066 299.366 173.437 300.451 173.437 300.451L187.435 300.586H198.424L227.709 300.547C227.709 300.547 211.144 203.212 188.37 172.439Z" fill="#00A63F"/>
<path d="M80.0124 294.503C79.3662 298.87 87.6771 298.858 87.6771 298.858H114.323L152.915 296.757C152.915 296.757 156.071 245.149 100.919 251.224C100.919 251.224 84.2755 265.71 80.0124 294.503Z" fill="white"/>
<path d="M124.298 295.997C124.28 295.997 124.264 295.997 124.246 295.994C124.047 295.966 123.91 295.782 123.94 295.583C124.351 292.766 123.69 289.638 122.082 286.772C120.734 284.371 118.743 282.109 115.992 279.855C115.468 279.424 114.902 278.982 114.264 278.703C114.08 278.622 113.998 278.408 114.077 278.226C114.157 278.042 114.371 277.958 114.554 278.038C115.275 278.354 115.887 278.831 116.451 279.295C119.272 281.606 121.321 283.936 122.713 286.417C124.4 289.421 125.089 292.714 124.657 295.686C124.63 295.867 124.476 295.997 124.298 295.997Z" fill="#2D324F"/>
<path d="M136.906 295.27C136.728 295.27 136.574 295.14 136.548 294.96C136.074 291.619 135.393 287.711 133.935 284.054C132.426 280.271 130.21 277.18 127.525 275.119C127.365 274.997 127.336 274.77 127.459 274.611C127.581 274.451 127.809 274.422 127.967 274.545C130.754 276.687 133.051 279.883 134.609 283.788C136.095 287.515 136.786 291.476 137.266 294.859C137.294 295.058 137.156 295.241 136.959 295.269C136.942 295.27 136.924 295.272 136.908 295.272L136.906 295.27Z" fill="#2D324F"/>
<path d="M147.008 295.271C146.993 295.271 146.978 295.271 146.965 295.268C146.766 295.245 146.625 295.064 146.648 294.865C148.349 280.601 139.006 271.701 138.912 271.613C138.766 271.476 138.758 271.248 138.894 271.1C139.031 270.953 139.259 270.945 139.407 271.082C139.504 271.172 149.115 280.308 147.369 294.951C147.348 295.135 147.19 295.27 147.009 295.27L147.008 295.271Z" fill="#2D324F"/>
<path d="M34.4399 252.496C34.2426 252.496 34.0815 252.338 34.0782 252.141C34.0749 251.94 34.2344 251.776 34.4333 251.771L98.0548 250.562C98.2521 250.574 98.4198 250.719 98.4247 250.918C98.428 251.118 98.2685 251.283 98.0696 251.288L34.4481 252.496H34.4415H34.4399Z" fill="#2D324F"/>
<path d="M54.9811 251.648C54.9466 251.648 54.9121 251.643 54.8759 251.633C54.6836 251.576 54.5751 251.373 54.6326 251.183C56.6894 244.33 60.5941 233.691 64.8276 226.255C65.625 224.854 66.8992 223.008 68.7932 223.008C68.8261 223.008 68.8573 223.008 68.8902 223.009C69.0908 223.016 69.247 223.184 69.2404 223.384C69.2338 223.585 69.0677 223.751 68.8655 223.734C67.3118 223.693 66.1758 225.354 65.4573 226.615C61.2534 233.999 57.3733 244.577 55.328 251.391C55.2804 251.549 55.1373 251.65 54.9811 251.65V251.648Z" fill="#2D324F"/>
<path d="M227.053 294.503C227.699 298.87 219.388 298.858 219.388 298.858H192.742L154.15 296.757C154.15 296.757 150.994 245.149 206.147 251.224C206.147 251.224 222.79 265.71 227.053 294.503Z" fill="white"/>
<path d="M182.774 295.998C182.596 295.998 182.442 295.868 182.416 295.687C181.982 292.713 182.672 289.421 184.359 286.417C185.752 283.937 187.8 281.607 190.621 279.295C191.185 278.833 191.795 278.356 192.519 278.039C192.703 277.957 192.916 278.042 192.995 278.225C193.076 278.409 192.992 278.623 192.808 278.702C192.17 278.981 191.604 279.423 191.08 279.854C188.329 282.108 186.338 284.371 184.99 286.771C183.382 289.637 182.723 292.765 183.132 295.582C183.162 295.781 183.024 295.965 182.827 295.993C182.809 295.996 182.792 295.996 182.774 295.996V295.998Z" fill="#2D324F"/>
<path d="M170.159 295.271C170.142 295.271 170.124 295.271 170.108 295.268C169.909 295.24 169.773 295.055 169.801 294.858C170.281 291.476 170.971 287.516 172.457 283.787C174.014 279.882 176.311 276.686 179.1 274.544C179.257 274.422 179.486 274.452 179.608 274.609C179.729 274.769 179.7 274.996 179.542 275.118C176.857 277.179 174.641 280.27 173.131 284.053C171.673 287.71 170.992 291.618 170.519 294.958C170.493 295.139 170.338 295.269 170.161 295.269L170.159 295.271Z" fill="#2D324F"/>
<path d="M160.056 295.27C159.876 295.27 159.719 295.135 159.696 294.951C157.95 280.31 167.56 271.172 167.659 271.082C167.805 270.945 168.034 270.953 168.172 271.1C168.308 271.246 168.3 271.475 168.154 271.613C168.06 271.701 158.717 280.601 160.418 294.865C160.441 295.064 160.3 295.245 160.101 295.268C160.086 295.27 160.071 295.271 160.058 295.271L160.056 295.27Z" fill="#2D324F"/>
<path d="M272.624 252.496H272.617L208.996 251.288C208.795 251.284 208.636 251.118 208.641 250.918C208.644 250.72 208.807 250.562 209.002 250.562H209.009L272.631 251.771C272.831 251.774 272.991 251.94 272.986 252.141C272.982 252.338 272.82 252.496 272.624 252.496Z" fill="#2D324F"/>
<path d="M252.081 251.649C251.925 251.649 251.782 251.547 251.734 251.391C249.689 244.576 245.808 233.998 241.604 226.615C240.885 225.354 239.746 223.693 238.195 223.734C238 223.752 237.827 223.585 237.821 223.384C237.814 223.184 237.97 223.016 238.171 223.009C240.119 222.948 241.421 224.831 242.233 226.255C246.467 233.691 250.372 244.331 252.428 251.182C252.486 251.373 252.377 251.575 252.185 251.633C252.15 251.643 252.114 251.648 252.08 251.648L252.081 251.649Z" fill="#2D324F"/>
<path d="M200.763 300.365H52.6563C51.5778 300.365 50.7031 299.49 50.7031 298.41V298.463C50.7031 297.384 51.5778 296.508 52.6563 296.508H200.763C201.841 296.508 202.716 297.382 202.716 298.463V298.41C202.716 299.489 201.841 300.365 200.763 300.365Z" fill="white"/>
<path d="M200.764 300.729H52.657C51.4091 300.729 50.3881 299.736 50.3438 298.499C50.3438 298.488 50.3438 298.476 50.3438 298.465V298.412C50.3438 298.401 50.3438 298.389 50.3438 298.378C50.3898 297.141 51.4091 296.148 52.657 296.148H200.764C202.011 296.148 203.032 297.141 203.077 298.378C203.077 298.389 203.077 298.401 203.077 298.412V298.465C203.077 298.476 203.077 298.488 203.077 298.499C203.031 299.736 202.011 300.729 200.764 300.729ZM51.0655 298.439C51.0787 299.303 51.7873 300.004 52.6553 300.004H200.762C201.63 300.004 202.339 299.303 202.352 298.439C202.339 297.574 201.63 296.873 200.762 296.873H52.657C51.7889 296.873 51.0803 297.574 51.0672 298.439H51.0655Z" fill="#2D324F"/>
<path d="M197.884 294H184.102V296.364H197.884V294Z" fill="#2D324F"/>
<path d="M179.509 294H165.727V296.364H179.509V294Z" fill="#2D324F"/>
<path d="M161.134 294H147.352V296.364H161.134V294Z" fill="#2D324F"/>
<path d="M142.751 294H128.969V296.364H142.751V294Z" fill="#2D324F"/>
<path d="M124.376 294H110.594V296.364H124.376V294Z" fill="#2D324F"/>
<path d="M106.001 294H92.2188V296.364H106.001V294Z" fill="#2D324F"/>
<path d="M87.6262 294H73.8438V296.364H87.6262V294Z" fill="#2D324F"/>
<path d="M69.2512 294H55.4688V296.364H69.2512V294Z" fill="#2D324F"/>
<path d="M244.943 255.556V287.756C244.943 292.137 242.597 296.184 238.796 298.359L234.727 300.687H198.172L204.046 298.068C208.449 296.105 211.287 291.735 211.287 286.911V255.555H244.945L244.943 255.556Z" fill="#2D324F"/>
<path d="M302.506 161.32H151.554C147.567 161.32 144.336 164.552 144.336 168.538V249.051C144.336 253.037 147.567 256.268 151.554 256.268H302.506C306.492 256.268 309.724 253.037 309.724 249.051V168.538C309.724 164.552 306.492 161.32 302.506 161.32Z" fill="#2D324F"/>
<path d="M249.112 255.512H220.807C220.606 255.512 220.445 255.35 220.445 255.151C220.445 254.952 220.608 254.789 220.807 254.789H249.112C249.312 254.789 249.473 254.952 249.473 255.151C249.473 255.35 249.311 255.512 249.112 255.512Z" fill="white"/>
<path d="M152.838 249.605C152.638 249.605 152.477 249.443 152.477 249.244V168.346C152.477 168.145 152.639 167.984 152.838 167.984C153.037 167.984 153.2 168.147 153.2 168.346V249.244C153.2 249.444 153.037 249.605 152.838 249.605Z" fill="white"/>
<path d="M301.22 226.137H274.58C274.38 226.137 274.219 225.975 274.219 225.776C274.219 225.577 274.382 225.414 274.58 225.414H301.22C301.42 225.414 301.581 225.577 301.581 225.776C301.581 225.975 301.419 226.137 301.22 226.137Z" fill="white"/>
<path d="M301.22 230.239H274.58C274.38 230.239 274.219 230.076 274.219 229.877C274.219 229.678 274.382 229.516 274.58 229.516H301.22C301.42 229.516 301.581 229.678 301.581 229.877C301.581 230.076 301.419 230.239 301.22 230.239Z" fill="white"/>
<path d="M301.22 234.341H274.58C274.38 234.341 274.219 234.178 274.219 233.979C274.219 233.78 274.382 233.617 274.58 233.617H301.22C301.42 233.617 301.581 233.78 301.581 233.979C301.581 234.178 301.419 234.341 301.22 234.341Z" fill="white"/>
<path d="M301.22 238.442H274.58C274.38 238.442 274.219 238.279 274.219 238.08C274.219 237.882 274.382 237.719 274.58 237.719H301.22C301.42 237.719 301.581 237.882 301.581 238.08C301.581 238.279 301.419 238.442 301.22 238.442Z" fill="white"/>
<path d="M185.342 44.2026C185.142 44.2026 184.981 44.0398 184.981 43.8409L184.961 19.0743C184.961 18.9773 184.999 18.8852 185.066 18.8178C185.134 18.7504 185.227 18.7109 185.323 18.7109H223.959C224.159 18.7109 224.321 18.8737 224.321 19.0726C224.321 19.2716 224.158 19.4343 223.959 19.4343H185.686L185.706 43.8393C185.706 44.0398 185.545 44.2026 185.344 44.2026H185.342Z" fill="#2D324F"/>
<path d="M185.32 57.0021C188.443 57.0021 190.975 54.4693 190.975 51.3448C190.975 48.2204 188.443 45.6875 185.32 45.6875C182.196 45.6875 179.664 48.2204 179.664 51.3448C179.664 54.4693 182.196 57.0021 185.32 57.0021Z" fill="#E2EAFF"/>
<path d="M185.32 73.51C188.443 73.51 190.975 70.9771 190.975 67.8526C190.975 64.7282 188.443 62.1953 185.32 62.1953C182.196 62.1953 179.664 64.7282 179.664 67.8526C179.664 70.9771 182.196 73.51 185.32 73.51Z" fill="#E2EAFF"/>
<path d="M185.32 90.0256C188.443 90.0256 190.975 87.4927 190.975 84.3683C190.975 81.2438 188.443 78.7109 185.32 78.7109C182.196 78.7109 179.664 81.2438 179.664 84.3683C179.664 87.4927 182.196 90.0256 185.32 90.0256Z" fill="#E2EAFF"/>
</g>
<defs>
<clipPath id="clip0_4269_237926">
<rect width="450.97" height="300.869" fill="white"/>
</clipPath>
</defs>
</svg>
