<svg width="44" height="48" viewBox="0 0 44 48" fill="none" xmlns="http://www.w3.org/2000/svg">
<path d="M10.3368 15.9268L9.71875 22.3609L22.8694 36.0279L41.1048 1.86719L37.6756 3.84442L22.0308 27.147L10.3368 15.9268Z" fill="#00A63F"/>
<path d="M42.3236 11.3495C40.3696 11.3332 38.5981 11.1349 36.9858 10.818L35.3771 13.8316C36.9556 14.2004 38.673 14.4659 40.5504 14.5767C40.0132 20.2661 37.1385 39.1351 22.4883 44.2035C7.83803 39.1351 4.96341 20.2661 4.42621 14.5767C14.3912 13.9888 20.073 9.18639 22.4883 6.51844C23.9899 8.17676 26.7562 10.6598 31.0271 12.4427L32.8993 9.65412C26.7167 7.28233 24.0277 3.2369 23.8762 3.00254L22.4972 0.835938L21.1039 2.9966C20.8871 3.33282 15.6387 11.2422 2.65293 11.3495L0.976562 11.3634L1.02428 13.039C1.05715 14.1836 2.05319 41.1445 21.9894 47.4994L22.4883 47.6586L22.9872 47.4994C42.9234 41.1445 43.9194 14.1836 43.9523 13.039L44 11.3634L42.3236 11.3495Z" fill="#2D324F"/>
</svg>
