<svg width="627" height="378" viewBox="0 0 627 378" fill="none" xmlns="http://www.w3.org/2000/svg">
<path d="M252.214 1.23828H612.849C617.351 1.23828 621 4.8876 621 9.38927V282.924C621 287.426 617.351 291.075 612.849 291.075H252.214C247.712 291.075 244.062 287.426 244.062 282.924V9.38927C244.062 4.8876 247.712 1.23828 252.214 1.23828Z" stroke="#D9D2D2" stroke-width="1.95535"/>
<path d="M606.547 8.59707C606.547 10.9659 608.464 12.8817 610.833 12.8817C613.202 12.8817 615.118 10.9659 615.118 8.59707C615.118 6.22836 613.202 4.3125 610.833 4.3125C608.464 4.3125 606.547 6.22836 606.547 8.59707Z" fill="#FFC3D0"/>
<path d="M589.441 8.59707C589.441 10.9659 591.357 12.8817 593.726 12.8817C596.095 12.8817 598.012 10.9659 598.012 8.59707C598.012 6.22836 596.095 4.3125 593.726 4.3125C591.357 4.3125 589.441 6.22836 589.441 8.59707Z" fill="#F5D79B"/>
<mask id="mask0_4269_294526" style="mask-type:luminance" maskUnits="userSpaceOnUse" x="200" y="37" width="393" height="333">
<path d="M200.598 37.3008H592.557V369.377H200.598V37.3008Z" fill="white"/>
</mask>
<g mask="url(#mask0_4269_294526)">
<path d="M564.253 37.793H228.904C213.545 37.793 201.094 50.2657 201.094 65.6534V341.028C201.094 356.415 213.545 368.887 228.904 368.887H564.253C579.611 368.887 592.062 356.415 592.062 341.028V65.6534C592.062 50.2657 579.611 37.793 564.253 37.793Z" fill="#F1F1F1" stroke="#F1F1F1" stroke-width="0.977675"/>
<path d="M200.59 65.65V101.388H217.885C222.217 101.388 226.226 99.0134 228.275 95.1738L236.265 80.1929C238.314 76.3528 242.323 73.9487 246.655 73.9487H295.001C299.361 73.9487 303.341 76.3528 305.39 80.1929L313.409 95.1738C315.458 99.0134 319.439 101.388 323.799 101.388H334.569C338.9 101.388 342.91 99.0134 344.959 95.1738L352.948 80.1929C354.998 76.3528 359.007 73.9487 363.338 73.9487H411.684C416.045 73.9487 420.026 76.3528 422.074 80.1929L430.093 95.1738C432.142 99.0134 436.122 101.388 440.483 101.388H592.536V65.65C592.536 49.9954 579.864 37.3008 564.238 37.3008H228.89C213.264 37.3008 200.592 49.9954 200.592 65.65H200.59Z" fill="white"/>
<path d="M543.551 68.8677C543.551 71.8805 545.988 74.3174 549.001 74.3174C552.013 74.3174 554.438 71.8805 554.438 68.8677C554.438 65.8549 552.002 63.4297 549.001 63.4297C545.999 63.4297 543.551 65.8667 543.551 68.8677Z" fill="#FFC3D0"/>
<path d="M521.777 68.8677C521.777 71.8805 524.457 74.3174 527.771 74.3174C531.085 74.3174 533.753 71.8805 533.753 68.8677C533.753 65.8549 531.072 63.4297 527.771 63.4297C524.47 63.4297 521.777 65.8667 521.777 68.8677Z" fill="#F5D79B"/>
<path d="M501.09 68.8677C501.09 71.8805 503.526 74.3174 506.54 74.3174C509.553 74.3174 511.978 71.8805 511.978 68.8677C511.978 65.8549 509.541 63.4297 506.54 63.4297C503.539 63.4297 501.09 65.8667 501.09 68.8677Z" fill="#6AEBE7"/>
<path d="M279.091 248.77H561.768C565.088 248.77 567.78 251.466 567.78 254.793C567.78 258.119 565.088 260.816 561.768 260.816H279.091C275.77 260.816 273.078 258.119 273.078 254.793C273.078 251.466 275.77 248.77 279.091 248.77Z" fill="#EBEAE9"/>
<path d="M475.54 221.984H561.768C565.088 221.984 567.78 224.681 567.78 228.007C567.78 231.334 565.088 234.03 561.768 234.03H475.54C472.219 234.03 469.527 231.334 469.527 228.007C469.527 224.681 472.219 221.984 475.54 221.984Z" fill="#EBEAE9"/>
<path d="M231.38 221.984H447.562C450.883 221.984 453.575 224.681 453.575 228.007C453.575 231.334 450.883 234.03 447.562 234.03H231.38C228.06 234.03 225.367 231.334 225.367 228.007C225.367 224.681 228.06 221.984 231.38 221.984Z" fill="#EBEAE9"/>
<path d="M328.04 195.203H449.849C453.169 195.203 455.861 197.9 455.861 201.226C455.861 204.553 453.169 207.249 449.849 207.249H328.04C324.719 207.249 322.027 204.553 322.027 201.226C322.027 197.9 324.719 195.203 328.04 195.203Z" fill="#F1F1F1"/>
<path d="M477.826 195.203H561.771C565.091 195.203 567.784 197.9 567.784 201.226C567.784 204.553 565.091 207.249 561.771 207.249H477.826C474.506 207.249 471.812 204.553 471.812 201.226C471.812 197.9 474.506 195.203 477.826 195.203Z" fill="#F1F1F1"/>
<path d="M567.782 340.773C567.782 344.1 565.09 346.797 561.77 346.797H279.095C275.774 346.797 273.082 344.1 273.082 340.773C273.082 337.447 275.774 334.75 279.095 334.75H561.77C565.09 334.75 567.782 337.447 567.782 340.773Z" fill="#EBEAE9"/>
<path d="M475.54 307.969H561.768C565.088 307.969 567.78 310.665 567.78 313.992C567.78 317.318 565.088 320.016 561.768 320.016H475.54C472.219 320.016 469.527 317.318 469.527 313.992C469.527 310.665 472.219 307.969 475.54 307.969Z" fill="#EBEAE9"/>
<path d="M231.38 307.969H447.562C450.883 307.969 453.575 310.665 453.575 313.992C453.575 317.318 450.883 320.016 447.562 320.016H231.38C228.06 320.016 225.367 317.318 225.367 313.992C225.367 310.665 228.06 307.969 231.38 307.969Z" fill="#EBEAE9"/>
<path d="M328.04 281.184H449.849C453.169 281.184 455.861 283.88 455.861 287.207C455.861 290.533 453.169 293.23 449.849 293.23H328.04C324.719 293.23 322.027 290.533 322.027 287.207C322.027 283.88 324.719 281.184 328.04 281.184Z" fill="#F1F1F1"/>
<path d="M477.826 281.184H561.771C565.091 281.184 567.784 283.88 567.784 287.207C567.784 290.533 565.091 293.23 561.771 293.23H477.826C474.506 293.23 471.812 290.533 471.812 287.207C471.812 283.88 474.506 281.184 477.826 281.184Z" fill="#F1F1F1"/>
</g>
<path d="M258.873 178.08C259.907 168.299 262.929 157.058 258.238 146.788C253.47 136.35 244.603 126.255 233.429 123.674C215.884 119.622 204.487 132.379 195.489 143.893C186.91 154.873 181.106 164.239 168.097 169.322C158.884 172.922 149.221 173.671 139.96 177.143C130.698 180.615 121.418 184.943 114.747 192.251C108.077 199.558 104.545 210.475 108.296 219.634C91.435 225.27 77.2198 239.542 73.5926 256.959C69.9656 274.377 78.2161 294.145 94.0769 302.179C105.301 307.865 118.588 307.478 131.054 305.791C143.521 304.105 156.021 301.246 168.544 302.444C180.194 303.558 191.507 308.167 203.194 307.548C222.718 306.515 238.456 291.332 250.043 275.569C255.875 267.637 261.372 258.639 261.164 248.793C260.986 240.364 277.08 233.328 271.27 227.037C270.995 217.947 255.428 210.647 258.873 178.08Z" fill="#2F1C6A"/>
<path d="M306.069 244.773L346.446 291.971L323.725 341.701L265.691 283.746L306.069 244.773Z" fill="white"/>
<path d="M347.223 293.311C347.102 293.311 346.983 293.26 346.899 293.161L307.883 247.228C307.73 247.049 307.752 246.781 307.931 246.628C308.111 246.477 308.379 246.498 308.531 246.677L347.547 292.611C347.699 292.79 347.677 293.058 347.498 293.21C347.418 293.278 347.32 293.311 347.223 293.311Z" fill="#2F1C6A"/>
<path d="M327.717 346.153C327.607 346.153 327.498 346.111 327.415 346.027L267.014 285.072C266.849 284.905 266.85 284.636 267.016 284.471C267.183 284.306 267.452 284.307 267.618 284.474L328.019 345.429C328.184 345.596 328.183 345.865 328.016 346.03C327.933 346.112 327.825 346.153 327.717 346.153Z" fill="#2F1C6A"/>
<path d="M297.855 236.395L308.211 246.952L270.441 285.745L274.126 331.201L281.177 364.558L147.934 358.612L144.797 319.039L93.8398 320.202C93.8398 320.202 98.0006 297.892 103.416 274.499C109.945 246.29 133.456 225.143 162.195 221.819C172.308 220.649 183.963 219.706 197.05 219.277C217.809 218.595 234.707 217.754 247.514 216.99C266.309 215.87 284.664 222.948 297.855 236.395Z" fill="white"/>
<path d="M281.177 364.983C281.171 364.983 281.164 364.983 281.158 364.982L147.915 359.036C147.701 359.027 147.527 358.859 147.51 358.645L144.405 319.473L93.8489 320.626C93.7368 320.632 93.5985 320.574 93.5154 320.476C93.4323 320.379 93.3979 320.249 93.4211 320.123C93.4629 319.9 97.6459 297.537 103.001 274.402C109.569 246.029 133.337 224.728 162.146 221.396C173.353 220.099 185.092 219.243 197.035 218.851C214.94 218.263 231.914 217.494 247.489 216.566C266.409 215.437 284.876 222.556 298.159 236.097L308.514 246.654C308.677 246.819 308.677 247.083 308.516 247.248L270.88 285.903L274.548 331.139L281.593 364.469C281.62 364.598 281.587 364.732 281.501 364.832C281.42 364.928 281.301 364.983 281.177 364.983ZM148.328 358.203L280.647 364.108L273.71 331.289C273.706 331.271 273.704 331.253 273.702 331.235L270.017 285.779C270.007 285.657 270.05 285.536 270.136 285.448L307.616 246.953L297.551 236.692C284.442 223.327 266.215 216.3 247.539 217.414C231.958 218.344 214.975 219.113 197.064 219.701C185.143 220.092 173.428 220.947 162.244 222.24C133.791 225.531 110.316 246.57 103.83 274.594C98.9297 295.761 95.0117 316.283 94.3544 319.763L144.787 318.613C144.79 318.613 144.794 318.613 144.797 318.613C145.018 318.613 145.203 318.783 145.221 319.004L148.328 358.203Z" fill="#2F1C6A"/>
<path d="M149.887 280.915L182.198 258.999L218.319 272.025L251.197 249.609L270.689 265.262C270.689 265.262 280.407 306.042 281.173 328.865C281.173 328.865 231.704 348.355 149.887 339.299V280.915Z" fill="#FC5185"/>
<path d="M181.348 256.926C181.12 256.926 180.931 256.745 180.923 256.516C180.486 244.157 178.161 231.984 174.013 220.334C173.934 220.112 174.05 219.869 174.271 219.79C174.491 219.712 174.735 219.827 174.814 220.048C178.992 231.781 181.333 244.04 181.773 256.486C181.781 256.721 181.598 256.917 181.363 256.926C181.358 256.926 181.353 256.926 181.348 256.926Z" fill="#FC5185"/>
<path d="M250.649 248.595C250.638 248.595 250.627 248.594 250.616 248.594C250.382 248.576 250.206 248.372 250.224 248.138C251.03 237.426 249.48 226.441 245.742 216.37C245.66 216.15 245.772 215.905 245.992 215.824C246.212 215.742 246.457 215.854 246.539 216.074C250.32 226.259 251.887 237.368 251.072 248.201C251.056 248.425 250.869 248.595 250.649 248.595Z" fill="#FC5185"/>
<path d="M93.8326 320.198L89.9731 346.456C88.0266 359.698 98.436 371.517 111.807 371.246H274.119C274.119 371.246 270.625 328.49 237.249 326.787C202.765 325.027 149.884 328.714 149.884 328.714L149.812 319.035L93.8326 320.198Z" fill="white"/>
<path d="M93.8316 320.627C93.6007 320.627 93.4113 320.442 93.4063 320.21C93.4013 319.975 93.5878 319.781 93.8228 319.776L149.802 318.613C150.027 318.61 150.231 318.795 150.236 319.03C150.241 319.265 150.054 319.459 149.819 319.464L93.8403 320.626C93.8374 320.627 93.8345 320.627 93.8316 320.627Z" fill="#2F1C6A"/>
<path d="M111.357 371.676C105.036 371.677 99.0326 368.971 94.8344 364.209C90.5311 359.328 88.6062 352.835 89.5527 346.395L93.412 320.137C93.4461 319.905 93.6562 319.743 93.8946 319.778C94.1267 319.812 94.2875 320.028 94.2534 320.261L90.3941 346.518C89.4842 352.71 91.3353 358.953 95.4723 363.646C99.6045 368.333 105.569 370.945 111.798 370.822H273.652C273.313 367.497 270.763 346.944 258.862 336.002C258.689 335.843 258.677 335.574 258.836 335.401C258.996 335.228 259.265 335.217 259.437 335.376C272.595 347.474 274.525 370.979 274.543 371.215C274.552 371.333 274.511 371.449 274.431 371.536C274.35 371.623 274.238 371.672 274.119 371.672H111.807C111.657 371.675 111.507 371.676 111.357 371.676Z" fill="#2F1C6A"/>
<path d="M135.757 330.124C135.536 330.124 135.349 329.952 135.333 329.728C135.317 329.494 135.494 329.291 135.728 329.274L149.855 328.29C150.086 328.272 150.292 328.451 150.308 328.685C150.325 328.919 150.148 329.122 149.913 329.139L135.787 330.123C135.777 330.123 135.767 330.124 135.757 330.124Z" fill="#2F1C6A"/>
<path d="M248.877 367.108C248.87 367.108 248.862 367.108 248.855 367.108C248.62 367.096 248.44 366.895 248.452 366.661C248.736 361.334 245.812 355.985 241.177 353.35C237.821 351.443 233.893 350.959 230.158 350.626C223.376 350.023 216.487 349.851 209.688 350.116C209.451 350.126 209.255 349.942 209.246 349.707C209.237 349.473 209.42 349.275 209.655 349.266C216.492 349 223.415 349.173 230.233 349.779C233.894 350.105 238.093 350.619 241.597 352.611C246.506 355.401 249.602 361.065 249.302 366.706C249.29 366.933 249.101 367.108 248.877 367.108Z" fill="#2F1C6A"/>
<path d="M260.34 365.733C260.337 365.733 260.333 365.733 260.329 365.733C260.095 365.727 259.909 365.532 259.915 365.297C260.078 358.783 257.82 352.145 253.72 347.084C249.62 342.023 243.597 338.44 237.196 337.254C236.965 337.211 236.812 336.989 236.855 336.758C236.898 336.527 237.117 336.374 237.351 336.417C243.948 337.64 250.155 341.333 254.381 346.549C258.606 351.764 260.933 358.606 260.765 365.319C260.76 365.55 260.57 365.733 260.34 365.733Z" fill="#2F1C6A"/>
<path d="M207.783 180.441L191.654 218.195L180.941 220.212C180.941 220.212 194.937 247.137 217.68 245.098C240.423 243.059 238.025 217.355 238.025 217.355L227.095 216.535L232.417 194.129L207.783 180.441Z" fill="white"/>
<path d="M215.282 245.634C206.672 245.634 198.145 241.551 190.478 233.721C184.165 227.274 180.599 220.48 180.564 220.412C180.502 220.293 180.499 220.151 180.559 220.03C180.618 219.909 180.73 219.823 180.862 219.798L191.352 217.823L207.391 180.278C207.438 180.167 207.53 180.082 207.644 180.043C207.758 180.004 207.883 180.015 207.989 180.073L232.623 193.761C232.79 193.854 232.874 194.046 232.83 194.231L227.623 216.152L238.057 216.934C238.264 216.95 238.429 217.112 238.449 217.319C238.46 217.444 239.538 229.948 232.63 238.246C229.083 242.507 224.066 244.956 217.718 245.525C216.906 245.598 216.093 245.634 215.282 245.634ZM181.597 220.525C183.67 224.197 197.163 246.516 217.642 244.678C223.757 244.13 228.58 241.783 231.977 237.702C238.015 230.447 237.743 219.828 237.626 217.755L227.062 216.963C226.938 216.954 226.824 216.89 226.751 216.79C226.677 216.689 226.651 216.562 226.68 216.44L231.928 194.348L207.988 181.046L192.044 218.366C191.988 218.496 191.871 218.59 191.732 218.616L181.597 220.525Z" fill="#2F1C6A"/>
<path d="M209.177 181.868C209.177 181.868 210.739 189.677 216.027 195.571C218.403 198.22 223.51 201.723 227.873 202.625C241.67 205.477 248.157 190.745 250.068 182.363C253.067 169.205 250.467 155.997 250.467 155.997C250.467 155.997 234.328 149.46 227.423 155.797C220.519 162.133 222.925 169.605 218.482 170.957C211.167 173.183 218.088 158.583 208.045 161.087C199.588 163.196 197.404 176.738 209.177 181.868Z" fill="white"/>
<path d="M231.227 203.401C230.126 203.401 228.981 203.284 227.788 203.038C223.461 202.143 218.25 198.681 215.711 195.851C210.836 190.416 209.106 183.5 208.808 182.165C202.267 179.224 200.293 173.83 200.635 169.734C201.004 165.311 203.941 161.669 207.943 160.671C209.952 160.17 211.46 160.287 212.554 161.03C214.212 162.154 214.528 164.498 214.807 166.565C215.041 168.295 215.261 169.929 216.17 170.512C216.669 170.832 217.386 170.843 218.36 170.546C220.233 169.976 220.759 168.141 221.485 165.601C222.339 162.619 223.4 158.909 227.137 155.479C234.159 149.035 249.959 155.328 250.628 155.599C250.761 155.652 250.858 155.77 250.886 155.911C250.912 156.044 253.468 169.359 250.483 182.453C248.184 192.542 241.837 203.4 231.227 203.401ZM210.138 161.217C209.557 161.217 208.895 161.31 208.149 161.496C204.5 162.406 201.821 165.745 201.482 169.805C201.161 173.649 203.059 178.734 209.348 181.474C209.476 181.53 209.568 181.644 209.595 181.781C209.611 181.858 211.2 189.548 216.344 195.283C218.791 198.011 223.805 201.346 227.961 202.205C229.12 202.444 230.223 202.556 231.272 202.556C244.617 202.557 249.15 184.478 249.654 182.264C252.386 170.28 250.414 158.108 250.093 156.303C248.167 155.568 233.916 150.413 227.712 156.106C224.152 159.373 223.127 162.956 222.303 165.835C221.533 168.528 220.924 170.655 218.607 171.36C217.38 171.733 216.432 171.69 215.71 171.227C214.471 170.432 214.225 168.609 213.964 166.679C213.697 164.696 213.42 162.645 212.077 161.734C211.569 161.389 210.927 161.217 210.138 161.217Z" fill="#2F1C6A"/>
<path d="M211.628 177.288C211.411 177.288 211.227 177.124 211.205 176.904C211.045 175.28 210.879 173.6 210.288 172.075C209.652 170.434 208.543 169.192 207.246 168.667C207.029 168.579 206.924 168.331 207.012 168.114C207.1 167.896 207.348 167.791 207.565 167.879C209.078 168.491 210.36 169.908 211.081 171.768C211.714 173.4 211.885 175.139 212.051 176.821C212.074 177.055 211.903 177.263 211.669 177.286C211.655 177.287 211.641 177.288 211.628 177.288Z" fill="#2F1C6A"/>
<path d="M207.409 193.369C207.347 193.369 207.286 193.356 207.228 193.329L194.284 187.258C194.154 187.197 194.064 187.075 194.044 186.934C194.023 186.792 194.075 186.65 194.182 186.555L203.327 178.418C203.502 178.261 203.771 178.277 203.928 178.453C204.084 178.628 204.068 178.897 203.893 179.053L195.229 186.761L206.972 192.27L206.734 177.992C206.73 177.757 206.917 177.564 207.152 177.56C207.403 177.542 207.58 177.743 207.584 177.978L207.834 192.937C207.837 193.084 207.763 193.221 207.64 193.301C207.57 193.346 207.49 193.369 207.409 193.369Z" fill="#FC5185"/>
<path d="M245.37 170.974C245.37 170.974 253.345 168.523 259.06 171.97L255.222 180.025C254.898 180.705 254.182 181.107 253.433 181.03L246.545 180.316C245.756 180.234 245.163 179.564 245.18 178.771C245.232 176.451 245.334 171.965 245.37 170.974Z" fill="white"/>
<path d="M253.615 181.463C253.54 181.463 253.465 181.459 253.389 181.451L246.5 180.737C245.482 180.632 244.732 179.782 244.754 178.76C244.853 174.369 244.918 171.67 244.945 170.957C244.952 170.776 245.072 170.619 245.245 170.566C245.578 170.464 253.467 168.099 259.279 171.605C259.466 171.718 259.537 171.954 259.443 172.152L255.606 180.207C255.238 180.978 254.457 181.463 253.615 181.463ZM245.785 171.299C245.754 172.319 245.692 174.88 245.605 178.779C245.592 179.354 246.014 179.832 246.588 179.891L253.477 180.605C254.039 180.663 254.592 180.357 254.838 179.841L258.506 172.14C253.658 169.456 247.218 170.921 245.785 171.299Z" fill="#2F1C6A"/>
<path d="M236.581 178.497C236.365 178.497 236.146 178.468 235.929 178.407L227.032 175.903C225.893 175.582 225.067 174.574 224.977 173.393L224.271 164.133C224.262 164.012 224.304 163.893 224.389 163.805C224.474 163.718 224.593 163.671 224.713 163.676C235.037 164.113 241.23 169.08 241.488 169.292C241.627 169.405 241.68 169.594 241.62 169.763C241.3 170.663 239.712 174.678 238.795 176.99C238.426 177.921 237.537 178.497 236.581 178.497ZM225.155 164.55L225.825 173.328C225.888 174.154 226.466 174.86 227.262 175.084L236.159 177.588C236.919 177.802 237.713 177.411 238.004 176.676C238.682 174.97 240.214 171.101 240.712 169.769C239.507 168.884 233.813 165.045 225.155 164.55Z" fill="#2F1C6A"/>
<path d="M245.37 171.396C245.201 171.396 245.042 171.295 244.975 171.129C244.312 169.475 241.329 170.033 241.299 170.038C241.065 170.083 240.845 169.932 240.801 169.702C240.756 169.471 240.907 169.248 241.137 169.204C241.289 169.174 244.843 168.514 245.764 170.813C245.852 171.031 245.746 171.278 245.528 171.366C245.476 171.386 245.423 171.396 245.37 171.396Z" fill="#2F1C6A"/>
<path d="M217.14 165.058C216.918 165.058 216.731 164.887 216.716 164.662C216.699 164.428 216.876 164.225 217.11 164.208L224.663 163.677C224.902 163.659 225.1 163.837 225.117 164.072C225.133 164.306 224.957 164.509 224.722 164.526L217.17 165.057C217.159 165.057 217.149 165.058 217.14 165.058Z" fill="#2F1C6A"/>
<path d="M421.599 371.92H238.376C235.847 371.92 233.797 369.861 233.797 367.322V366.24C233.797 361.245 237.83 357.195 242.805 357.195H434.803L433.262 362.945C431.843 368.24 427.061 371.92 421.599 371.92Z" fill="#2F1C6A"/>
<path d="M426.957 365.253H313.654C308.815 365.253 305.261 360.691 306.426 355.977L327.839 269.242C328.663 265.906 331.645 263.562 335.068 263.562H448.371C453.21 263.562 456.764 268.124 455.6 272.84L434.186 359.574C433.363 362.91 430.381 365.253 426.957 365.253Z" fill="#2F1C6A"/>
<path d="M426.955 365.467H313.652C311.287 365.467 309.092 364.396 307.63 362.53C306.159 360.652 305.644 358.245 306.217 355.926L327.63 269.191C328.48 265.753 331.537 263.352 335.065 263.352H448.369C450.734 263.352 452.929 264.422 454.391 266.289C455.861 268.167 456.376 270.573 455.804 272.892L434.39 359.627C433.541 363.065 430.484 365.467 426.955 365.467ZM335.066 263.777C331.733 263.777 328.846 266.045 328.043 269.293L306.63 356.028C306.089 358.219 306.576 360.493 307.965 362.268C309.346 364.03 311.418 365.041 313.652 365.041H426.955C430.288 365.041 433.175 362.773 433.977 359.525L455.391 272.79C455.932 270.6 455.445 268.326 454.056 266.551C452.676 264.788 450.602 263.777 448.369 263.777H335.066Z" fill="#2F1C6A"/>
<path d="M392.237 297.034C392.237 299.108 390.562 300.79 388.495 300.79C386.429 300.79 384.754 299.108 384.754 297.034C384.754 294.959 386.429 293.277 388.495 293.277C390.562 293.277 392.237 294.959 392.237 297.034Z" fill="#FC5185"/>
<path d="M479.156 336.211C479.156 336.211 485.597 343.449 479.74 350.384L554.801 350.073C554.801 350.073 558.368 347.721 558.655 343.635C558.943 339.548 552.351 336.725 552.351 336.725L479.156 336.211Z" fill="white"/>
<path d="M479.739 350.809C479.574 350.809 479.424 350.713 479.354 350.563C479.284 350.413 479.307 350.236 479.414 350.109C484.969 343.532 478.9 336.563 478.838 336.493C478.726 336.368 478.699 336.188 478.768 336.035C478.838 335.882 479.005 335.782 479.159 335.785L552.353 336.299C552.41 336.3 552.466 336.311 552.518 336.334C552.798 336.454 559.385 339.325 559.079 343.664C558.78 347.911 555.187 350.327 555.034 350.427C554.965 350.473 554.884 350.497 554.802 350.498L479.741 350.809H479.739ZM480.025 336.642C481.427 338.607 484.73 344.321 480.617 349.955L554.664 349.648C555.226 349.238 557.988 347.052 558.231 343.604C558.478 340.087 552.974 337.473 552.259 337.149L480.025 336.642Z" fill="#2F1C6A"/>
<path d="M577.397 334.341C577.397 334.341 583.517 335.976 584.334 342.346C585.17 348.866 579.037 352.053 579.037 352.053H477.093C476.172 352.053 475.436 351.6 475.471 351.055L475.575 349.47C475.609 348.954 476.324 348.547 477.196 348.547H550.32C552.435 348.547 554.449 347.439 555.423 345.56C555.837 344.762 556.081 343.812 555.946 342.722C555.708 340.807 554.543 339.578 553.456 338.832C552.501 338.177 551.361 337.846 550.202 337.846H477.029C476.133 337.846 475.406 337.416 475.406 336.885V335.285C475.406 334.754 476.133 334.324 477.029 334.324L577.397 334.341Z" fill="white"/>
<path d="M579.036 352.478H477.092C476.378 352.478 475.731 352.242 475.362 351.848C475.136 351.607 475.027 351.323 475.046 351.027L475.15 349.442C475.199 348.689 476.078 348.122 477.195 348.122H550.32C552.322 348.122 554.177 347.039 555.045 345.364C555.473 344.538 555.635 343.667 555.524 342.774C555.343 341.318 554.566 340.109 553.215 339.183C552.345 338.586 551.303 338.271 550.202 338.271H477.028C475.88 338.271 474.98 337.662 474.98 336.885V335.284C474.98 334.877 475.23 334.496 475.664 334.239C476.036 334.019 476.52 333.898 477.028 333.898L577.397 333.916C577.434 333.916 577.471 333.921 577.506 333.93C577.57 333.947 583.911 335.715 584.755 342.292C585.62 349.028 579.296 352.397 579.232 352.43C579.172 352.461 579.104 352.478 579.036 352.478ZM477.195 348.972C476.486 348.972 476.013 349.283 475.999 349.498L475.895 351.083C475.892 351.139 475.921 351.201 475.983 351.266C476.138 351.433 476.522 351.627 477.092 351.627H578.928C579.688 351.204 584.655 348.197 583.911 342.4C583.178 336.68 577.906 334.938 577.337 334.766L477.029 334.749C476.676 334.749 476.336 334.83 476.098 334.971C475.933 335.068 475.831 335.188 475.831 335.284V336.885C475.831 337.098 476.309 337.42 477.028 337.42H550.202C551.476 337.42 552.684 337.787 553.696 338.481C555.235 339.537 556.158 340.985 556.368 342.67C556.5 343.736 556.309 344.774 555.8 345.756C554.772 347.74 552.672 348.972 550.32 348.972H477.195Z" fill="#2F1C6A"/>
<path d="M465.008 353.746C465.008 353.746 471.449 362.031 465.591 369.97L540.652 369.613C540.652 369.613 544.219 366.922 544.507 362.244C544.795 357.566 538.202 354.335 538.202 354.335L465.008 353.746Z" fill="white"/>
<path d="M465.591 370.394C465.431 370.394 465.284 370.304 465.212 370.162C465.139 370.018 465.153 369.846 465.249 369.717C470.85 362.125 464.734 354.087 464.672 354.007C464.572 353.878 464.554 353.703 464.626 353.557C464.698 353.411 464.856 353.321 465.011 353.32L538.205 353.909C538.269 353.909 538.332 353.924 538.389 353.952C538.669 354.089 545.232 357.365 544.931 362.269C544.634 367.087 541.06 369.837 540.908 369.952C540.835 370.007 540.746 370.037 540.654 370.038L465.593 370.394H465.591ZM465.816 354.177C467.168 356.303 470.68 362.985 466.406 369.54L540.5 369.188C541.078 368.704 543.838 366.19 544.082 362.217C544.332 358.148 538.846 355.148 538.098 354.759L465.816 354.177Z" fill="#2F1C6A"/>
<path d="M563.249 351.61C563.249 351.61 569.368 353.481 570.186 360.773C571.022 368.236 564.889 371.884 564.889 371.884H462.944C462.024 371.884 461.288 371.366 461.323 370.742L461.426 368.928C461.46 368.337 462.176 367.871 463.048 367.871H535.729C538.23 367.871 540.563 366.393 541.442 364.049C541.751 363.224 541.914 362.272 541.798 361.203C541.621 359.568 540.927 358.37 540.136 357.513C538.996 356.279 537.363 355.621 535.685 355.621H462.88C461.984 355.621 461.258 355.129 461.258 354.522V352.689C461.258 352.082 461.984 351.59 462.881 351.59L563.249 351.61Z" fill="#FC5185"/>
<path d="M49.8547 254.629C33.8192 254.629 20.8203 266.292 20.8203 280.678V317.257C20.8203 331.644 33.8192 343.307 49.8547 343.307C65.8898 343.307 78.8891 331.644 78.8891 317.257V280.678C78.8891 266.291 65.8902 254.629 49.8547 254.629Z" fill="white"/>
<path d="M49.8587 344.198C33.3581 344.198 19.9336 332.113 19.9336 317.258V280.679C19.9336 265.824 33.3581 253.738 49.8587 253.738C66.3593 253.738 79.7842 265.824 79.7842 280.679V317.258C79.7838 332.113 66.3589 344.198 49.8587 344.198ZM49.8587 255.52C34.3405 255.52 21.7158 266.806 21.7158 280.679V317.258C21.7158 331.13 34.3405 342.416 49.8587 342.416C65.3769 342.416 78.002 331.131 78.002 317.258V280.679C78.002 266.806 65.3769 255.52 49.8587 255.52Z" fill="#2F1C6A"/>
<path d="M49.8597 376.762C49.3671 376.762 48.9688 376.363 48.9688 375.871V298.965C48.9688 298.473 49.3671 298.074 49.8597 298.074C50.3524 298.074 50.7509 298.473 50.7509 298.965V375.871C50.7505 376.362 50.3519 376.762 49.8597 376.762Z" fill="#2F1C6A"/>
<path d="M24.5063 302.289C14.7751 302.289 6.88672 309.367 6.88672 318.097V340.296C6.88672 349.027 14.7751 356.104 24.5063 356.104C34.2376 356.104 42.126 349.027 42.126 340.296V318.097C42.126 309.367 34.2376 302.289 24.5063 302.289Z" fill="white"/>
<path d="M24.5111 356.996C14.3043 356.996 6 349.504 6 340.296V318.098C6 308.89 14.3043 301.398 24.5111 301.398C34.7176 301.398 43.0214 308.89 43.0214 318.098V340.296C43.0214 349.504 34.7176 356.996 24.5111 356.996ZM24.5111 303.181C15.2863 303.181 7.78176 309.873 7.78176 318.098V340.297C7.78176 348.522 15.2863 355.214 24.5111 355.214C33.7356 355.214 41.2397 348.522 41.2397 340.297V318.098C41.2393 309.872 33.7352 303.181 24.5111 303.181Z" fill="#2F1C6A"/>
<path d="M24.5122 376.762C24.0196 376.762 23.6211 376.363 23.6211 375.871V329.2C23.6211 328.708 24.0196 328.309 24.5122 328.309C25.0048 328.309 25.4033 328.707 25.4033 329.2V375.871C25.4029 376.362 25.0044 376.762 24.5122 376.762Z" fill="#2F1C6A"/>
</svg>
