<svg width="574" height="378" viewBox="0 0 574 378" fill="none" xmlns="http://www.w3.org/2000/svg">
<path d="M172.129 296.229H437.433V111.703H172.129V296.229Z" fill="#2F1C6A"/>
<path d="M429.109 271.789V120.023H180.453V271.789H429.109Z" fill="#D8D8D8"/>
<path d="M304.796 288.011C307.554 288.004 309.785 285.763 309.777 283.006C309.77 280.249 307.528 278.02 304.77 278.027C302.012 278.034 299.782 280.275 299.789 283.032C299.796 285.789 302.038 288.018 304.796 288.011Z" fill="#D8D8D8"/>
<path d="M340.567 345.622H269.004C268.896 345.622 268.809 345.534 268.809 345.426V341.937C268.809 341.924 268.81 341.912 268.812 341.9L276.667 300.175C276.684 300.083 276.765 300.016 276.859 300.016H332.712C332.806 300.016 332.887 300.083 332.904 300.175L340.759 341.9C340.761 341.912 340.763 341.924 340.763 341.937V345.426C340.762 345.534 340.675 345.622 340.567 345.622ZM269.2 345.23H340.371V341.955L332.55 300.407H277.021L269.2 341.955V345.23Z" fill="#BC8271"/>
<path d="M340.567 349.985H269.004C268.896 349.985 268.809 349.897 268.809 349.789C268.809 349.681 268.896 349.594 269.004 349.594H340.567C340.675 349.594 340.762 349.681 340.762 349.789C340.762 349.897 340.675 349.985 340.567 349.985Z" fill="#BC8271"/>
<path d="M291.89 263.33L285.301 261.444C285.632 258.063 285.686 254.7 285.481 251.379L292.127 249.72L286.514 227.22L279.852 228.883C278.459 225.828 276.827 222.886 274.973 220.086L279.911 215.317L263.796 198.64L258.869 203.399C256.159 201.466 253.277 199.73 250.234 198.221L252.123 191.633L229.824 185.249L227.935 191.836C224.553 191.506 221.189 191.453 217.866 191.659L216.208 185.016L193.7 190.633L195.361 197.292C192.304 198.686 189.361 200.318 186.56 202.172L181.79 197.237L165.104 213.352L169.862 218.276C167.928 220.985 166.191 223.866 164.68 226.909L158.091 225.022L151.698 247.316L158.287 249.203C157.956 252.583 157.902 255.947 158.107 259.268L151.461 260.927L157.074 283.426L163.735 281.764C165.129 284.819 166.761 287.761 168.615 290.561L163.676 295.33L179.792 312.007L184.719 307.248C187.428 309.181 190.311 310.916 193.353 312.426L191.464 319.013L213.764 325.398L215.653 318.811C219.034 319.14 222.399 319.193 225.722 318.988L227.379 325.631L249.888 320.014L248.227 313.355C251.283 311.961 254.227 310.329 257.028 308.475L261.797 313.41L278.484 297.295L273.725 292.371C275.659 289.662 277.396 286.78 278.907 283.738L285.496 285.625L291.89 263.33ZM260.782 267.88C254.213 288.305 232.606 300.285 211.799 295.04C188.824 289.248 175.551 265.319 182.805 242.766C189.374 222.341 210.981 210.361 231.788 215.606C254.764 221.398 268.036 245.327 260.782 267.88Z" fill="white"/>
<path d="M221.792 306.305C217.123 306.305 212.398 305.663 207.736 304.328C194.643 300.579 183.796 291.957 177.192 280.051C170.587 268.144 169.018 254.378 172.771 241.288C176.157 229.481 183.687 219.295 193.974 212.605C204.158 205.983 216.365 203.197 228.345 204.761C228.48 204.779 228.576 204.902 228.558 205.037C228.54 205.172 228.417 205.268 228.281 205.25C203.74 202.047 180.078 217.597 173.245 241.423C169.528 254.387 171.083 268.02 177.623 279.811C184.163 291.603 194.906 300.141 207.872 303.853C229.989 310.186 253.593 300.79 265.272 281.005C265.341 280.888 265.492 280.849 265.61 280.918C265.727 280.987 265.766 281.139 265.697 281.256C256.365 297.064 239.492 306.305 221.792 306.305Z" fill="#D8D8D8"/>
<path d="M374.116 80.7852H158.02V151.337H374.116V80.7852Z" fill="white"/>
<path d="M379.369 155.632H163.274C163.151 155.632 163.051 155.532 163.051 155.409V85.4697C163.051 85.3462 163.151 85.2461 163.274 85.2461H379.369C379.493 85.2461 379.593 85.3462 379.593 85.4697V155.409C379.593 155.532 379.493 155.632 379.369 155.632ZM163.498 155.185H379.146V85.6933H163.498V155.185Z" fill="#E2A18D"/>
<path d="M314.543 99.5058H278.645C278.522 99.5058 278.422 99.4057 278.422 99.2822C278.422 99.1588 278.522 99.0586 278.645 99.0586H314.543C314.666 99.0586 314.766 99.1588 314.766 99.2822C314.766 99.4057 314.666 99.5058 314.543 99.5058Z" fill="#2F1C6A"/>
<path d="M257.634 99.5058H177.661C177.537 99.5058 177.438 99.4057 177.438 99.2822C177.438 99.1588 177.537 99.0586 177.661 99.0586H257.634C257.758 99.0586 257.858 99.1588 257.858 99.2822C257.858 99.4057 257.757 99.5058 257.634 99.5058Z" fill="#2F1C6A"/>
<path d="M314.541 106.998H220.583C220.459 106.998 220.359 106.898 220.359 106.774C220.359 106.651 220.459 106.551 220.583 106.551H314.541C314.665 106.551 314.765 106.651 314.765 106.774C314.765 106.898 314.665 106.998 314.541 106.998Z" fill="#2F1C6A"/>
<path d="M209.408 106.998H177.661C177.537 106.998 177.438 106.898 177.438 106.774C177.438 106.651 177.537 106.551 177.661 106.551H209.408C209.532 106.551 209.632 106.651 209.632 106.774C209.631 106.898 209.531 106.998 209.408 106.998Z" fill="#2F1C6A"/>
<path d="M314.543 114.025H278.645C278.522 114.025 278.422 113.925 278.422 113.802C278.422 113.678 278.522 113.578 278.645 113.578H314.543C314.666 113.578 314.766 113.678 314.766 113.802C314.766 113.925 314.666 114.025 314.543 114.025Z" fill="#2F1C6A"/>
<path d="M257.634 114.025H177.661C177.537 114.025 177.438 113.925 177.438 113.802C177.438 113.678 177.537 113.578 177.661 113.578H257.634C257.758 113.578 257.858 113.678 257.858 113.802C257.858 113.925 257.757 114.025 257.634 114.025Z" fill="#2F1C6A"/>
<path d="M314.542 121.518H246.845C246.721 121.518 246.621 121.417 246.621 121.294C246.621 121.17 246.721 121.07 246.845 121.07H314.542C314.666 121.07 314.766 121.17 314.766 121.294C314.766 121.417 314.666 121.518 314.542 121.518Z" fill="#2F1C6A"/>
<path d="M230.417 121.518H177.661C177.537 121.518 177.438 121.417 177.438 121.294C177.438 121.17 177.537 121.07 177.661 121.07H230.417C230.54 121.07 230.64 121.17 230.64 121.294C230.64 121.417 230.54 121.518 230.417 121.518Z" fill="#2F1C6A"/>
<path d="M314.542 132.291H231.747C231.623 132.291 231.523 132.191 231.523 132.067C231.523 131.944 231.623 131.844 231.747 131.844H314.542C314.665 131.844 314.765 131.944 314.765 132.067C314.765 132.191 314.665 132.291 314.542 132.291Z" fill="#2F1C6A"/>
<path d="M314.541 139.783H281.88C281.756 139.783 281.656 139.683 281.656 139.56C281.656 139.436 281.756 139.336 281.88 139.336H314.541C314.665 139.336 314.765 139.436 314.765 139.56C314.765 139.683 314.665 139.783 314.541 139.783Z" fill="#2F1C6A"/>
<path d="M269.055 139.783H223.567C223.444 139.783 223.344 139.683 223.344 139.56C223.344 139.436 223.444 139.336 223.567 139.336H269.055C269.179 139.336 269.279 139.436 269.279 139.56C269.279 139.683 269.179 139.783 269.055 139.783Z" fill="#2F1C6A"/>
<path d="M333.949 103.851L333.963 114.242C333.97 119.981 338.625 124.627 344.359 124.619C350.094 124.612 354.736 119.954 354.729 114.215L354.715 103.824L333.949 103.851Z" fill="#2F1C6A"/>
<path d="M344.304 108.675C359.151 108.675 371.187 96.6308 371.187 81.7732C371.187 66.9156 359.151 54.8711 344.304 54.8711C329.458 54.8711 317.422 66.9156 317.422 81.7732C317.422 96.6308 329.458 108.675 344.304 108.675Z" fill="#2F1C6A"/>
<path d="M344.284 118.01C340.745 118.01 334.174 117.67 334.172 116.376C334.172 116.253 334.272 116.152 334.395 116.152C334.519 116.152 334.619 116.252 334.619 116.375C334.721 116.802 338.027 117.563 344.255 117.563C344.288 117.563 344.32 117.563 344.354 117.563C350.646 117.555 353.984 116.779 354.085 116.348C354.085 116.224 354.185 116.125 354.308 116.125H354.309C354.432 116.125 354.532 116.226 354.532 116.349C354.534 117.652 347.875 118.005 344.354 118.01C344.331 118.01 344.307 118.01 344.284 118.01Z" fill="white"/>
<path d="M344.276 113.455C340.737 113.455 334.166 113.115 334.164 111.821C334.164 111.698 334.264 111.598 334.387 111.597C334.511 111.597 334.611 111.697 334.611 111.821C334.714 112.25 338.056 113.008 344.346 113.008C350.638 113 353.976 112.225 354.077 111.793C354.077 111.669 354.177 111.571 354.301 111.57C354.424 111.57 354.524 111.671 354.524 111.795C354.526 113.098 347.867 113.45 344.346 113.455C344.323 113.455 344.299 113.455 344.276 113.455Z" fill="white"/>
<path d="M340.737 102.358C340.65 102.358 340.567 102.307 340.531 102.222L332.057 82.3663C332.009 82.2527 332.062 82.1212 332.175 82.0727C332.287 82.0244 332.42 82.0767 332.469 82.1905L340.942 102.047C340.991 102.16 340.938 102.292 340.824 102.34C340.796 102.353 340.766 102.358 340.737 102.358Z" fill="#2F1C6A"/>
<path d="M347.915 102.349C347.886 102.349 347.856 102.343 347.828 102.331C347.714 102.283 347.661 102.151 347.709 102.038L356.131 82.1598C356.18 82.0457 356.312 81.9934 356.424 82.041C356.538 82.0893 356.591 82.2206 356.543 82.3342L348.121 102.212C348.085 102.298 348.002 102.349 347.915 102.349Z" fill="#2F1C6A"/>
<path d="M339.472 84.8959C338.422 84.8959 337.375 84.6423 336.461 84.1215C336.353 84.0605 336.316 83.9238 336.377 83.8165C336.438 83.7089 336.574 83.6716 336.682 83.7326C338.605 84.8277 341.161 84.6492 342.937 83.3429C341.333 82.4806 340.037 81.0308 339.489 79.2817C339.096 78.0261 339.129 76.7989 339.584 75.826C340.134 74.6477 341.326 73.9047 342.487 74.0194C343.833 74.1525 344.782 75.3349 345.22 76.3971C346.165 78.6918 345.547 81.5325 343.754 83.2407C344.728 83.6481 345.791 83.8306 346.849 83.723C349.837 83.4203 352.419 80.8409 352.725 77.8505C352.738 77.7278 352.85 77.6383 352.971 77.6509C353.093 77.6634 353.183 77.7732 353.17 77.8962C352.843 81.0898 350.086 83.8447 346.894 84.168C345.691 84.2897 344.479 84.0607 343.384 83.5636C342.285 84.4415 340.876 84.8959 339.472 84.8959ZM342.257 74.4557C341.354 74.4557 340.423 75.0863 339.989 76.0154C339.582 76.8868 339.556 77.9995 339.916 79.1479C340.448 80.8465 341.734 82.2438 343.314 83.0383C345.079 81.4697 345.706 78.7519 344.806 76.5677C344.418 75.6254 343.593 74.5782 342.443 74.4646C342.381 74.4588 342.319 74.4557 342.257 74.4557Z" fill="white"/>
<path d="M20.69 357.815L3.60547 357.559L8.69594 335.539L26.106 338.44L20.69 357.815Z" fill="white"/>
<path d="M44.5616 369.156H0.320312L4.39393 352.25H21.726L34.2594 356.072C40.4019 357.735 44.6181 363.09 44.5616 369.156Z" fill="#2F1C6A"/>
<path d="M24.4536 356.722C24.4035 356.722 24.3534 356.703 24.3152 356.665C24.2387 356.589 24.2387 356.465 24.3152 356.388L27.0846 353.62C27.1611 353.543 27.2848 353.543 27.3613 353.62C27.4378 353.696 27.4378 353.82 27.3613 353.897L24.5919 356.665C24.5538 356.703 24.5037 356.722 24.4536 356.722Z" fill="#2F1C6A"/>
<path d="M27.6058 357.668C27.5557 357.668 27.5056 357.649 27.4675 357.61C27.391 357.534 27.391 357.41 27.4675 357.334L30.237 354.565C30.3135 354.489 30.4372 354.489 30.5137 354.565C30.5902 354.642 30.5902 354.766 30.5137 354.842L27.7441 357.61C27.7058 357.649 27.6559 357.668 27.6058 357.668Z" fill="#2F1C6A"/>
<path d="M100.436 361.11L83.3516 360.854L83.8793 335.539L101.289 338.44L100.436 361.11Z" fill="white"/>
<path d="M123.964 369.156H79.7227L83.5326 352.25H101.128L113.662 356.072C119.804 357.735 124.02 363.09 123.964 369.156Z" fill="#2F1C6A"/>
<path d="M103.875 357.004C103.825 357.004 103.775 356.985 103.737 356.946C103.661 356.87 103.661 356.746 103.737 356.67L106.507 353.901C106.583 353.825 106.707 353.825 106.783 353.901C106.86 353.978 106.86 354.101 106.783 354.178L104.014 356.946C103.976 356.985 103.926 357.004 103.875 357.004Z" fill="#2F1C6A"/>
<path d="M107.024 357.949C106.974 357.949 106.924 357.93 106.886 357.892C106.809 357.815 106.809 357.691 106.886 357.615L109.655 354.846C109.732 354.77 109.855 354.77 109.932 354.846C110.008 354.923 110.008 355.047 109.932 355.123L107.162 357.892C107.124 357.93 107.074 357.949 107.024 357.949Z" fill="#2F1C6A"/>
<path d="M78.4911 191.016L66.776 238.12L66.7646 238.165L66.762 238.212C65.0528 268.308 54.5991 294.341 44.5641 312.858C39.5475 322.115 34.6382 329.488 30.9843 334.546C29.1575 337.075 27.6448 339.024 26.5898 340.34C26.0623 340.998 25.6492 341.498 25.3686 341.832C25.2522 341.971 25.1585 342.082 25.089 342.163H6.39453L6.434 341.941C6.52845 341.411 6.66791 340.63 6.84795 339.625C7.20803 337.616 7.73039 334.713 8.37949 331.142C9.67769 323.998 11.4828 314.177 13.5104 303.466C17.5666 282.038 22.5102 257.068 26.0673 242.845C29.6226 228.629 34.0346 215.661 37.5585 206.245C39.3202 201.538 40.8595 197.72 41.958 195.08C42.5072 193.76 42.9463 192.734 43.2478 192.039C43.3916 191.707 43.5041 191.451 43.5824 191.273L78.4911 191.016Z" fill="white" stroke="#2F1C6A"/>
<path d="M62.4605 187.582H85.639C85.6546 187.625 85.6716 187.672 85.6902 187.723C85.8024 188.034 85.9682 188.494 86.1826 189.093C86.6113 190.291 87.2343 192.046 88.0108 194.272C89.5638 198.723 91.7307 205.057 94.186 212.585C99.0972 227.642 105.16 247.471 109.772 266.571C114.365 285.592 112.595 304.167 109.67 318.001C108.207 324.916 106.458 330.639 105.074 334.632C104.382 336.628 103.782 338.192 103.356 339.254C103.143 339.786 102.973 340.192 102.857 340.465C102.839 340.506 102.823 340.544 102.808 340.579H81.2009C80.3663 308.346 74.9778 284.986 69.7778 269.655C67.1649 261.951 64.5999 256.276 62.685 252.523C61.7276 250.646 60.9328 249.249 60.3758 248.32C60.0973 247.855 59.8783 247.507 59.7281 247.275C59.6723 247.188 59.6261 247.118 59.5898 247.063L62.4605 187.582Z" fill="white" stroke="#2F1C6A"/>
<path d="M65.5122 254.472C65.4991 254.472 65.4856 254.471 65.4723 254.468C65.3666 254.446 65.2985 254.343 65.3205 254.237L69.3348 234.854C69.3452 234.804 69.3745 234.76 69.4168 234.732L75.2576 230.78C75.3476 230.719 75.4689 230.743 75.5294 230.832C75.59 230.922 75.5665 231.043 75.4769 231.104L69.7016 235.011L65.7036 254.316C65.6846 254.409 65.603 254.472 65.5122 254.472Z" fill="#D8D8D8"/>
<path d="M84.8599 138.479C79.4767 137.328 70.7992 135.817 62.9146 136.666C53.7245 137.657 39.8289 142.145 33.8369 145.719C20.4411 153.711 15.125 160.626 15.125 160.626L35.4387 165.194L25.9097 192.896C22.6033 202.509 24.0296 213.459 29.6042 221.961L43.9658 221.759L41.7421 206.39L48.6667 220.268L88.5091 193.487L90.0018 168.837L115.742 161.679C115.742 161.679 94.304 140.498 84.8599 138.479Z" fill="#2F1C6A"/>
<path d="M89.2276 177.447C89.2276 177.447 100.609 185.829 109.304 183.119C117.999 180.408 119.7 174.171 119.166 170.395C118.633 166.618 104.481 142.282 82.7313 137.777C82.7313 137.777 80.6804 165.458 89.2276 177.447Z" fill="#2F1C6A"/>
<path d="M89.4614 177.492H89.458C89.3498 177.49 89.2639 177.401 89.2657 177.293L89.3252 173.77C89.3273 173.662 89.4261 173.577 89.5242 173.578C89.6324 173.58 89.7183 173.669 89.7165 173.777L89.6569 177.299C89.655 177.406 89.568 177.492 89.4614 177.492Z" fill="#2F1C6A"/>
<path d="M35.7743 225.541L48.4339 211.863L44.055 195.254L30.6479 195.378L17.9883 209.056L24.7476 223.208L35.7743 225.541Z" fill="white"/>
<path d="M138.641 114.395L48.4344 211.863L30.6484 195.378L120.855 97.9102L132.777 102.88L138.641 114.395Z" fill="#FC5185"/>
<path d="M7.60185 220.283C-0.786839 229.347 -1.95669 239.204 2.95495 243.756C7.86638 248.308 16.9992 245.832 25.3879 236.768L36.04 225.258L18.254 208.773L7.60185 220.283Z" fill="#2F1C6A"/>
<path d="M120.855 97.9099L138.641 114.395L144.064 100.984L142.274 94.237L133.802 91.4727L120.855 97.9099Z" fill="#D8D8D8"/>
<path d="M133.805 91.472L144.067 100.984L151.464 82.6914L133.805 91.472Z" fill="#40484C"/>
<path d="M71.4544 172.428C69.4669 173.03 60.8066 174.212 59.4487 178.049C58.0813 181.914 59.6385 186.154 62.2028 189.334C62.2193 189.337 62.2376 189.339 62.2539 189.341C63.2697 189.841 64.8671 190.434 66.7333 190.214C68.8607 189.963 69.2998 188.897 71.505 188.283C75.2275 187.247 77.6752 189.363 78.3024 188.148C78.7331 187.313 77.3605 186.018 75.7992 185.164C74.1963 184.286 72.7866 184.395 72.7872 184.095C72.788 183.766 74.2333 183.842 76.04 183.77C76.8794 183.737 79.2338 185.063 79.9898 184.008C80.5926 183.168 78.4936 181.176 76.016 180.667C74.2633 180.306 72.7373 181.146 72.6406 180.834C72.5681 180.601 73.4896 180.123 74.4057 179.946C75.9172 179.655 78.3404 180.986 79.0176 180.002C79.6809 179.038 77.817 177.331 75.5685 176.718C73.6727 176.201 72.0157 177.218 71.8932 176.832C71.8071 176.56 72.455 175.951 74.1279 175.134C75.5243 174.451 78.6763 174.021 78.1864 172.459C77.7745 171.146 74.4542 171.519 71.4544 172.428Z" fill="white"/>
<path d="M28.915 181.191C24.5436 182.573 21.5027 186.632 21.604 191.193C21.6704 194.184 23.0973 197.287 27.7485 199.206C39.0733 203.88 64.7369 187.944 64.7369 187.944L67.8978 173.27C53.1253 175.719 40.9473 177.39 28.915 181.191Z" fill="white"/>
<path d="M43.92 177.395L46.041 199.299L26.6146 202.302C14.1389 204.23 0.0622425 191.783 2.98284 179.507C5.53854 168.764 11.855 162.749 24.5443 151.973L41.1268 156.9L34.0048 177.789L43.92 177.395Z" fill="#2F1C6A"/>
<path d="M34.0043 177.982C33.9833 177.982 33.962 177.979 33.9413 177.972C33.8389 177.937 33.7842 177.826 33.8192 177.723L37.0372 168.285C37.072 168.183 37.1839 168.128 37.2855 168.163C37.3878 168.198 37.4426 168.309 37.4076 168.411L34.1896 177.85C34.1618 177.931 34.0857 177.982 34.0043 177.982Z" fill="#2F1C6A"/>
<path d="M23.8288 202.713C22.6513 202.713 21.483 202.597 20.3331 202.367C20.2271 202.346 20.1584 202.243 20.1797 202.137C20.2008 202.031 20.3038 201.962 20.41 201.984C22.4278 202.388 24.5048 202.43 26.5834 202.108L45.8273 199.133L45.337 194.07C45.3264 193.962 45.4053 193.867 45.5127 193.856C45.6217 193.846 45.7158 193.925 45.7264 194.032L46.2347 199.28C46.2449 199.383 46.1725 199.476 46.0697 199.492L26.6431 202.495C25.7032 202.64 24.763 202.713 23.8288 202.713Z" fill="#2F1C6A"/>
<path d="M31.0665 178.101C30.962 178.101 30.8754 178.019 30.8713 177.914C30.8669 177.806 30.9509 177.715 31.0589 177.71L43.9123 177.199C44.0227 177.196 44.1115 177.279 44.1156 177.387C44.1201 177.495 44.036 177.586 43.928 177.59L31.0745 178.101C31.0718 178.101 31.0691 178.101 31.0665 178.101Z" fill="#2F1C6A"/>
<path d="M89.1289 161.383L102.922 176.656C106.655 180.789 113.06 181.04 117.106 177.211C121.496 173.055 121.178 165.973 116.432 162.228L100.507 149.66L89.1289 161.383Z" fill="white"/>
<path d="M98.1323 157.45C100.405 157.816 101.098 158.98 100.894 160.245C100.69 161.51 99.6653 162.396 97.3925 162.03C95.1197 161.663 92.4592 160.181 92.6634 158.917C92.8677 157.652 95.8595 157.083 98.1323 157.45Z" fill="white"/>
<path d="M98.3395 152.994C100.974 153.419 101.777 154.768 101.54 156.234C101.304 157.7 100.116 158.728 97.4821 158.303C94.848 157.877 91.7644 156.16 92.0011 154.695C92.2379 153.229 95.7051 152.569 98.3395 152.994Z" fill="white"/>
<path d="M99.3182 150.116C101.591 150.482 102.616 149.596 102.82 148.331C103.024 147.066 102.331 145.902 100.058 145.536C97.7853 145.169 94.7936 145.738 94.5892 147.003C94.3847 148.267 97.0453 149.749 99.3182 150.116Z" fill="white"/>
<path d="M98.1149 154.408C100.749 154.833 101.937 153.806 102.173 152.34C102.41 150.874 101.607 149.525 98.9723 149.1C96.3381 148.675 92.8706 149.334 92.6339 150.8C92.3971 152.266 95.4807 153.983 98.1149 154.408Z" fill="white"/>
<path d="M49.3029 146.909L48.2853 146.893C45.2645 146.845 42.8548 144.357 42.9031 141.336L43.2103 122.125C43.2586 119.104 45.7464 116.695 48.7672 116.743L49.7848 116.759C52.8056 116.807 55.2154 119.295 55.167 122.316L54.8599 141.527C54.8115 144.548 52.3235 146.958 49.3029 146.909Z" fill="white"/>
<path d="M63.3465 128.605C62.5864 132.323 51.8144 132.847 51.8144 132.847L41.3276 129.706C37.6815 125.806 37.8881 119.69 41.7892 116.045C45.6902 112.401 51.8085 112.607 55.4546 116.507C55.4546 116.507 64.1207 124.819 63.3465 128.605Z" fill="white"/>
<path d="M56.3789 119.121C56.3789 119.121 60.3001 119.345 60.7069 119.992C61.1925 120.763 59.3584 123.224 59.3584 123.224C59.3584 123.224 56.4362 119.077 56.3789 119.121Z" fill="white"/>
<path d="M48.8867 123.001C48.8867 123.001 49.684 121.607 51.1309 120.705C51.4387 120.513 52.3951 123.337 52.0159 123.38C50.3485 123.569 48.8867 123.001 48.8867 123.001Z" fill="white"/>
<mask id="mask0_4269_294430" style="mask-type:luminance" maskUnits="userSpaceOnUse" x="48" y="119" width="9" height="5">
<path d="M48.8867 123.001C48.8867 123.001 50.0594 120.951 52.1411 120.214C54.2227 119.477 56.4252 120.331 56.4252 120.331C56.4252 120.331 55.2524 122.381 53.1708 123.119C51.089 123.856 48.8867 123.001 48.8867 123.001Z" fill="white"/>
</mask>
<g mask="url(#mask0_4269_294430)">
<path d="M51.1493 120.604C51.5091 119.051 53.0605 118.083 54.6144 118.442C56.1684 118.802 57.1365 120.353 56.7767 121.906C56.4168 123.46 54.8655 124.427 53.3115 124.068C51.7576 123.708 50.7895 122.157 51.1493 120.604Z" fill="#2F1C6A"/>
</g>
<path d="M33.1211 122.876C33.1211 122.876 36.7293 133.485 44.4279 131.808L44.8458 129.441L49.3037 128.119L44.7093 125.251C43.1047 124.003 43.0428 121.6 44.5809 120.271L51.2957 114.472L47.9834 111.066C41.1618 112.311 35.942 115.864 33.1211 122.876Z" fill="#2F1C6A"/>
<path d="M39.5792 115.314C38.9947 116.147 37.8454 116.349 37.0119 115.765C36.1784 115.181 35.5404 113.726 36.1246 112.893C36.7091 112.06 38.2947 112.164 39.128 112.748C39.9615 113.332 40.1634 114.481 39.5792 115.314Z" fill="#2F1C6A"/>
<path d="M40.9542 114.782C40.0385 115.226 38.9357 114.844 38.4912 113.929C38.0467 113.014 38.1959 111.432 39.1118 110.988C40.0275 110.543 41.3629 111.404 41.8074 112.32C42.2518 113.235 41.8698 114.337 40.9542 114.782Z" fill="#2F1C6A"/>
<path d="M43.9256 113.668C42.5984 114.045 41.217 113.275 40.8402 111.948C40.4634 110.621 41.0365 108.546 42.3636 108.169C43.6908 107.793 45.2693 109.257 45.6462 110.584C46.023 111.911 45.2527 113.291 43.9256 113.668Z" fill="#2F1C6A"/>
<path d="M37.5336 117.405C36.9763 118.257 35.8341 118.496 34.9822 117.939C34.1303 117.382 33.4454 115.949 34.0027 115.097C34.5599 114.245 36.1479 114.298 37 114.855C37.8517 115.412 38.0908 116.554 37.5336 117.405Z" fill="#2F1C6A"/>
<path d="M45.945 112.488C44.8241 111.987 44.3218 110.672 44.8233 109.552C45.3248 108.431 46.9024 107.343 48.0233 107.844C49.1442 108.346 49.3839 110.247 48.8824 111.367C48.3812 112.488 47.0659 112.99 45.945 112.488Z" fill="#2F1C6A"/>
<path d="M36.2557 119.452C35.7685 120.622 34.4243 121.176 33.2533 120.689C32.0825 120.202 30.9154 118.603 31.4026 117.433C31.8898 116.262 33.8467 115.963 35.0178 116.45C36.1888 116.938 36.7429 118.281 36.2557 119.452Z" fill="#2F1C6A"/>
<path d="M34.7724 121.23C34.8364 122.218 34.0876 123.07 33.0997 123.134C32.1118 123.198 30.7422 122.483 30.6781 121.496C30.6141 120.508 31.8798 119.623 32.8677 119.559C33.8556 119.494 34.7083 120.243 34.7724 121.23Z" fill="#2F1C6A"/>
<path d="M48.2074 114.178C47.1017 113.169 47.0236 111.455 48.0329 110.35C49.0421 109.245 51.2849 108.588 52.3904 109.597C53.4961 110.606 53.0458 112.898 52.0366 114.004C51.0274 115.109 49.3131 115.187 48.2074 114.178Z" fill="#2F1C6A"/>
<path d="M39.9839 131.015C40.6147 132.745 42.5288 133.636 44.2592 133.005C45.9896 132.375 46.8811 130.461 46.2501 128.732C45.6192 127.002 43.7051 126.111 41.9749 126.742C40.2443 127.372 39.3531 129.286 39.9839 131.015Z" fill="white"/>
<path d="M60.2496 121.84L64.9933 128.426C65.6539 129.343 65.4154 130.623 64.4709 131.243C64.2334 131.4 63.9745 131.566 63.6967 131.739C58.8903 134.731 52.8769 135.032 47.7992 132.527C46.0981 131.687 45.092 129.885 45.2703 127.998L45.329 127.375L47.0821 126.952C47.0821 126.952 50.9195 129.401 52.3612 128.533C53.8028 127.665 55.1722 124.625 60.2496 121.84Z" fill="#2F1C6A"/>
<path d="M57.8392 126.641C57.3505 126.641 56.8762 126.407 56.5809 126.005C56.517 125.918 56.5356 125.796 56.6228 125.732C56.7097 125.667 56.8322 125.686 56.8961 125.773C57.1574 126.129 57.6044 126.309 58.0361 126.232C58.4835 126.153 58.8453 125.814 58.9576 125.37C58.9842 125.266 59.0905 125.202 59.1953 125.229C59.3002 125.255 59.3634 125.362 59.3372 125.467C59.1869 126.059 58.7033 126.511 58.1045 126.618C58.0163 126.633 57.9275 126.641 57.8392 126.641Z" fill="white"/>
<path d="M38.1056 122.566C38.0031 122.566 37.9168 122.486 37.9105 122.383C37.9039 122.275 37.9861 122.182 38.0937 122.175L42.9767 121.875C43.0898 121.869 43.1773 121.951 43.1841 122.059C43.1908 122.166 43.1086 122.259 43.001 122.266L38.1179 122.566C38.1136 122.566 38.1095 122.566 38.1056 122.566Z" fill="white"/>
<path d="M564.325 118.242H382.285V219.607H564.325V118.242Z" fill="white"/>
<path d="M568.755 224.12H386.715C386.607 224.12 386.52 224.032 386.52 223.924V122.559C386.52 122.451 386.607 122.363 386.715 122.363H568.755C568.863 122.363 568.95 122.451 568.95 122.559V223.924C568.95 224.032 568.863 224.12 568.755 224.12ZM386.911 223.728H568.559V122.755H386.911V223.728Z" fill="#E2A18D"/>
<path d="M493.792 136.688H397.355V205.973H493.792V136.688Z" fill="#F7F1EB"/>
<path d="M445.918 183.161C455.212 183.161 462.746 175.622 462.746 166.321C462.746 157.02 455.212 149.48 445.918 149.48C436.624 149.48 429.09 157.02 429.09 166.321C429.09 175.622 436.624 183.161 445.918 183.161Z" fill="#2F1C6A"/>
<path d="M455.831 166.32L439.984 157.164V175.475L455.831 166.32Z" fill="white"/>
<path d="M489.535 195.141H402.297V199.659H489.535V195.141Z" fill="#2F1C6A"/>
<path d="M542.049 160.14H508.426C503.539 160.14 499.562 156.164 499.562 151.276C499.562 146.372 503.539 142.395 508.426 142.395H542.049C546.936 142.395 550.913 146.372 550.913 151.259C550.913 156.163 546.936 160.14 542.049 160.14ZM508.426 142.787C503.755 142.787 499.953 146.587 499.953 151.259C499.953 155.948 503.755 159.748 508.426 159.748H542.049C546.721 159.748 550.522 155.948 550.522 151.276C550.522 146.588 546.721 142.787 542.049 142.787H508.426Z" fill="#2F1C6A"/>
<path d="M542.045 188.72H508.422C503.635 188.72 499.754 184.839 499.754 180.052V180.035C499.754 175.248 503.635 171.367 508.422 171.367H542.045C546.833 171.367 550.714 175.248 550.714 180.035V180.052C550.714 184.839 546.833 188.72 542.045 188.72Z" fill="#2F1C6A"/>
<path d="M536.174 205.814C536.154 205.814 536.133 205.811 536.113 205.805C536.037 205.78 535.983 205.711 535.979 205.63L534.36 178.289C534.355 178.21 534.399 178.135 534.471 178.101C534.542 178.067 534.628 178.08 534.687 178.134L554.875 196.627C554.934 196.681 554.954 196.766 554.926 196.841C554.897 196.916 554.825 196.966 554.744 196.967L543.489 197.055L536.325 205.743C536.287 205.789 536.231 205.814 536.174 205.814ZM534.779 178.748L536.34 205.11L543.246 196.736C543.282 196.691 543.337 196.665 543.395 196.665L554.244 196.579L534.779 178.748Z" fill="#D3D3D3"/>
<path opacity="0.5" d="M189.945 8.84375H286.82V35.3963H277.69V54.8718L258.207 35.3963H189.945V8.84375Z" fill="white"/>
<path d="M274.694 58.096C274.635 58.096 274.577 58.0728 274.534 58.0294L255.118 38.6206H186.95C186.824 38.6206 186.723 38.5187 186.723 38.3932V11.8406C186.723 11.7151 186.824 11.6133 186.95 11.6133H283.825C283.951 11.6133 284.052 11.7151 284.052 11.8406V38.3932C284.052 38.5187 283.951 38.6206 283.825 38.6206H274.922V57.8687C274.922 57.9605 274.866 58.0435 274.781 58.0788C274.753 58.0906 274.723 58.096 274.694 58.096ZM187.177 38.1659H255.212C255.272 38.1659 255.33 38.1898 255.373 38.2325L274.467 57.3199V38.3932C274.467 38.2677 274.569 38.1659 274.694 38.1659H283.598V12.0679H187.177V38.1659Z" fill="#2F1C6A"/>
<path d="M272.526 21.8233L268.211 22.3691L271.269 25.4602L270.455 29.7306L274.341 27.779L278.152 29.8723L277.496 25.5748L280.666 22.5983L276.374 21.894L274.522 17.9609L272.526 21.8233Z" fill="#FC5185"/>
<path d="M254.537 21.8233L250.223 22.3691L253.281 25.4602L252.466 29.7306L256.352 27.779L260.164 29.8723L259.508 25.5748L262.677 22.5983L258.386 21.894L256.533 17.9609L254.537 21.8233Z" fill="#FC5185"/>
<path d="M236.553 21.8233L232.238 22.3691L235.296 25.4602L234.482 29.7306L238.368 27.779L242.18 29.8723L241.523 25.5748L244.693 22.5983L240.401 21.894L238.549 17.9609L236.553 21.8233Z" fill="#FC5185"/>
<path d="M218.568 21.8233L214.254 22.3691L217.312 25.4602L216.498 29.7306L220.384 27.779L224.195 29.8723L223.539 25.5748L226.708 22.5983L222.417 21.894L220.564 17.9609L218.568 21.8233Z" fill="#FC5185"/>
<path d="M200.584 21.8233L196.27 22.3691L199.327 25.4602L198.513 29.7306L202.399 27.779L206.211 29.8723L205.555 25.5748L208.724 22.5983L204.433 21.894L202.58 17.9609L200.584 21.8233Z" fill="#FC5185"/>
</svg>
