<svg width="475" height="351" viewBox="0 0 475 351" fill="none" xmlns="http://www.w3.org/2000/svg">
<g clip-path="url(#clip0_254_16498)">
<mask id="mask0_254_16498" style="mask-type:luminance" maskUnits="userSpaceOnUse" x="0" y="0" width="475" height="351">
<path d="M475 0H0V351H475V0Z" fill="white"/>
</mask>
<g mask="url(#mask0_254_16498)">
<path opacity="0.08" d="M237.5 335.256C278.154 335.256 311.111 330.695 311.111 325.069C311.111 319.442 278.154 314.881 237.5 314.881C196.845 314.881 163.889 319.442 163.889 325.069C163.889 330.695 196.845 335.256 237.5 335.256Z" fill="url(#paint0_radial_254_16498)"/>
<g opacity="0.1">
<path d="M455.409 285.504C453.415 285.504 451.413 285.198 449.437 284.577C310.771 241.041 164.184 241.041 25.5185 284.577C19.4596 286.484 13.0596 285.416 7.94486 281.664C2.84763 277.92 -0.0725708 272.138 -0.0725708 265.813V46.4546C-0.0725708 40.1214 2.84763 34.3481 7.94486 30.6042C13.0509 26.8516 19.4596 25.7844 25.5185 27.6914C164.184 71.2273 310.771 71.2273 449.437 27.6914C455.496 25.7932 461.896 26.8516 467.011 30.6042C472.108 34.3481 475.028 40.1302 475.028 46.4546V265.813C475.028 272.147 472.108 277.92 467.011 281.664C463.566 284.192 459.527 285.504 455.409 285.504ZM237.478 248.607C309.853 248.607 381.521 259.585 450.486 281.235C455.47 282.801 460.733 281.926 464.939 278.838C469.127 275.759 471.531 271.009 471.531 265.805V46.4546C471.531 41.2499 469.127 36.5 464.939 33.4209C460.733 30.3331 455.47 29.4583 450.486 31.0241C381.521 52.674 309.862 63.652 237.478 63.652C165.094 63.652 93.4351 52.674 24.4694 31.0241C19.4858 29.4583 14.2224 30.3331 10.017 33.4209C5.82903 36.5 3.42467 41.2499 3.42467 46.4546V265.813C3.42467 271.018 5.82903 275.768 10.017 278.847C14.2224 281.935 19.4858 282.81 24.4694 281.244C93.4351 259.594 165.094 248.616 237.478 248.616V248.607Z" fill="url(#paint1_linear_254_16498)"/>
<path d="M473.279 247.584C473.148 247.584 473.008 247.566 472.877 247.54C321.079 211.859 153.876 211.859 2.07801 247.54C1.13375 247.759 0.198235 247.181 -0.0203428 246.237C-0.23892 245.292 0.346873 244.356 1.28239 244.137C153.596 208.334 321.368 208.334 473.682 244.137C474.626 244.356 475.203 245.301 474.984 246.237C474.792 247.042 474.075 247.584 473.279 247.584Z" fill="url(#paint2_linear_254_16498)"/>
<path d="M473.28 202.736C473.21 202.736 473.14 202.736 473.07 202.727C321.141 184.874 153.806 184.874 1.87704 202.727C0.924045 202.841 0.0497324 202.15 -0.0639281 201.196C-0.177588 200.234 0.513117 199.368 1.46612 199.254C153.658 181.366 321.281 181.366 473.472 199.254C474.434 199.368 475.116 200.234 475.002 201.196C474.897 202.088 474.145 202.745 473.271 202.745L473.28 202.736Z" fill="url(#paint3_linear_254_16498)"/>
<path d="M473.28 157.879H1.67593C0.714187 157.879 -0.0726929 157.092 -0.0726929 156.13C-0.0726929 155.167 0.714187 154.38 1.67593 154.38H473.28C474.241 154.38 475.028 155.167 475.028 156.13C475.028 157.092 474.241 157.879 473.28 157.879Z" fill="url(#paint4_linear_254_16498)"/>
<path d="M237.478 126.432C157.522 126.432 77.5662 121.962 1.47485 113.013C0.51311 112.9 -0.168853 112.034 -0.0551932 111.072C0.0584673 110.109 0.932773 109.427 1.88577 109.541C153.815 127.394 321.149 127.394 473.078 109.541C474.031 109.427 474.906 110.118 475.019 111.072C475.133 112.025 474.442 112.9 473.489 113.013C397.398 121.953 317.442 126.432 237.487 126.432H237.478Z" fill="url(#paint5_linear_254_16498)"/>
<path d="M237.478 94.9853C157.461 94.9853 77.4352 86.0366 1.27392 68.1307C0.329667 67.912 -0.247377 66.9673 -0.0287984 66.0313C0.189779 65.0866 1.13404 64.5092 2.06955 64.7279C153.867 100.408 321.071 100.408 472.869 64.7279C473.804 64.5092 474.748 65.0866 474.967 66.0313C475.186 66.976 474.609 67.912 473.664 68.1307C397.503 86.0279 317.486 94.9853 237.46 94.9853H237.478Z" fill="url(#paint6_linear_254_16498)"/>
<path d="M395.99 270.03C395.029 270.03 394.242 269.242 394.242 268.28V43.9878C394.242 43.0256 395.029 42.2383 395.99 42.2383C396.952 42.2383 397.739 43.0256 397.739 43.9878V268.28C397.739 269.242 396.952 270.03 395.99 270.03Z" fill="url(#paint7_linear_254_16498)"/>
<path d="M317.128 256.595C316.166 256.595 315.379 255.807 315.379 254.845V57.4242C315.379 56.462 316.166 55.6748 317.128 55.6748C318.089 55.6748 318.876 56.462 318.876 57.4242V254.836C318.876 255.799 318.089 256.586 317.128 256.586V256.595Z" fill="url(#paint8_linear_254_16498)"/>
<path d="M237.478 252.107C236.516 252.107 235.729 251.32 235.729 250.358V61.9028C235.729 60.9406 236.516 60.1533 237.478 60.1533C238.439 60.1533 239.226 60.9406 239.226 61.9028V250.358C239.226 251.32 238.439 252.107 237.478 252.107Z" fill="url(#paint9_linear_254_16498)"/>
<path d="M157.837 256.595C156.875 256.595 156.088 255.807 156.088 254.845V57.4242C156.088 56.462 156.875 55.6748 157.837 55.6748C158.798 55.6748 159.585 56.462 159.585 57.4242V254.836C159.585 255.799 158.798 256.586 157.837 256.586V256.595Z" fill="url(#paint10_linear_254_16498)"/>
<path d="M78.9738 270.03C78.0121 270.03 77.2252 269.242 77.2252 268.28V43.9878C77.2252 43.0256 78.0121 42.2383 78.9738 42.2383C79.9356 42.2383 80.7224 43.0256 80.7224 43.9878V268.28C80.7224 269.242 79.9356 270.03 78.9738 270.03Z" fill="url(#paint11_linear_254_16498)"/>
</g>
<path d="M389.774 249.377H357.731C353.771 249.377 350.562 252.588 350.562 256.55V264.764C350.562 268.725 353.771 271.937 357.731 271.937H389.774C393.734 271.937 396.944 268.725 396.944 264.764V256.55C396.944 252.588 393.734 249.377 389.774 249.377Z" fill="#2B2635"/>
<path d="M373.565 259.261H363.204C362.478 259.261 361.893 258.675 361.893 257.949C361.893 257.223 362.478 256.637 363.204 256.637H373.565C374.29 256.637 374.876 257.223 374.876 257.949C374.876 258.675 374.29 259.261 373.565 259.261Z" fill="#F4F4F4"/>
<path d="M384.083 259.261H379.562C378.837 259.261 378.251 258.675 378.251 257.949C378.251 257.223 378.837 256.637 379.562 256.637H384.083C384.808 256.637 385.394 257.223 385.394 257.949C385.394 258.675 384.808 259.261 384.083 259.261Z" fill="#F4F4F4"/>
<path d="M384.083 264.676H370.697C369.972 264.676 369.386 264.09 369.386 263.364C369.386 262.638 369.972 262.052 370.697 262.052H384.083C384.809 262.052 385.394 262.638 385.394 263.364C385.394 264.09 384.809 264.676 384.083 264.676Z" fill="#F4F4F4"/>
<path d="M75.3808 199.587H43.3373C39.3778 199.587 36.168 202.798 36.168 206.76V214.973C36.168 218.935 39.3778 222.146 43.3373 222.146H75.3808C79.3404 222.146 82.5502 218.935 82.5502 214.973V206.76C82.5502 202.798 79.3404 199.587 75.3808 199.587Z" fill="#2B2635"/>
<path d="M51.1885 208.124H47.123C46.3973 208.124 45.8115 207.538 45.8115 206.812C45.8115 206.086 46.3973 205.5 47.123 205.5H51.1885C51.9142 205.5 52.5 206.086 52.5 206.812C52.5 207.538 51.9142 208.124 51.1885 208.124Z" fill="#F4F4F4"/>
<path d="M60.1152 208.124H57.8857C57.16 208.124 56.5742 207.538 56.5742 206.812C56.5742 206.086 57.16 205.5 57.8857 205.5H60.1152C60.8409 205.5 61.4266 206.086 61.4266 206.812C61.4266 207.538 60.8409 208.124 60.1152 208.124Z" fill="#F4F4F4"/>
<path d="M66.9695 214.081H57.0898C56.3641 214.081 55.7783 213.495 55.7783 212.769C55.7783 212.043 56.3641 211.457 57.0898 211.457H66.9695C67.6952 211.457 68.281 212.043 68.281 212.769C68.281 213.495 67.6952 214.081 66.9695 214.081Z" fill="#F4F4F4"/>
<path d="M75.897 214.081H73.0292C72.3036 214.081 71.7178 213.495 71.7178 212.769C71.7178 212.043 72.3036 211.457 73.0292 211.457H75.897C76.6227 211.457 77.2084 212.043 77.2084 212.769C77.2084 213.495 76.6227 214.081 75.897 214.081Z" fill="#F4F4F4"/>
<path opacity="0.1" d="M228.009 130.876V105.508L154.986 178.567C157.443 184.419 160.232 190.087 163.327 195.589L228.009 130.876Z" fill="white" fill-opacity="0.37"/>
<path opacity="0.1" d="M178.103 217.535C180.473 220.518 182.938 223.44 185.526 226.291C200.232 242.465 215.848 253.54 228 260.651V167.605L178.095 217.535H178.103Z" fill="white" fill-opacity="0.37"/>
<path d="M207.279 242.108H204.656V205.482L185.604 186.413L187.458 184.559L207.279 204.389V242.108Z" fill="white" fill-opacity="0.37"/>
<path d="M238.937 158.789H236.314V262.935H238.937V158.789Z" fill="white" fill-opacity="0.37"/>
<path d="M224.144 254.458H221.521V197.224L199.017 174.699V157.694H201.64V173.614L224.144 196.139V254.458Z" fill="white" fill-opacity="0.37"/>
<path d="M182.178 188.425C177.657 188.425 173.977 184.742 173.977 180.22C173.977 175.697 177.657 172.015 182.178 172.015C186.698 172.015 190.379 175.697 190.379 180.22C190.379 184.742 186.698 188.425 182.178 188.425ZM182.178 174.648C179.1 174.648 176.599 177.149 176.599 180.228C176.599 183.308 179.1 185.809 182.178 185.809C185.255 185.809 187.756 183.308 187.756 180.228C187.756 177.149 185.255 174.648 182.178 174.648Z" fill="white" fill-opacity="0.37"/>
<path d="M200.328 158.745C195.808 158.745 192.127 155.062 192.127 150.54C192.127 146.017 195.808 142.335 200.328 142.335C204.848 142.335 208.529 146.017 208.529 150.54C208.529 155.062 204.848 158.745 200.328 158.745ZM200.328 144.968C197.25 144.968 194.75 147.469 194.75 150.549C194.75 153.628 197.25 156.129 200.328 156.129C203.406 156.129 205.906 153.628 205.906 150.549C205.906 147.469 203.406 144.968 200.328 144.968Z" fill="white" fill-opacity="0.37"/>
<path d="M270.667 242.108H268.044V204.389L287.865 184.559L289.718 186.413L270.667 205.482V242.108Z" fill="white" fill-opacity="0.37"/>
<path d="M253.802 254.458H251.179V196.139L273.692 173.615V157.694H276.315V174.699L253.802 197.224V254.458Z" fill="white" fill-opacity="0.37"/>
<path d="M293.145 188.425C288.625 188.425 284.944 184.742 284.944 180.22C284.944 175.697 288.625 172.015 293.145 172.015C297.666 172.015 301.346 175.697 301.346 180.22C301.346 184.742 297.666 188.425 293.145 188.425ZM293.145 174.648C290.068 174.648 287.567 177.149 287.567 180.228C287.567 183.308 290.068 185.809 293.145 185.809C296.223 185.809 298.723 183.308 298.723 180.228C298.723 177.149 296.223 174.648 293.145 174.648Z" fill="white" fill-opacity="0.37"/>
<path d="M275.004 158.745C270.484 158.745 266.803 155.062 266.803 150.54C266.803 146.017 270.484 142.335 275.004 142.335C279.524 142.335 283.205 146.017 283.205 150.54C283.205 155.062 279.524 158.745 275.004 158.745ZM275.004 144.968C271.926 144.968 269.426 147.469 269.426 150.549C269.426 153.628 271.926 156.129 275.004 156.129C278.081 156.129 280.582 153.628 280.582 150.549C280.582 147.469 278.081 144.968 275.004 144.968Z" fill="white" fill-opacity="0.37"/>
<path d="M237.627 160.1C233.107 160.1 229.426 156.417 229.426 151.895C229.426 147.372 233.107 143.69 237.627 143.69C242.147 143.69 245.828 147.372 245.828 151.895C245.828 156.417 242.147 160.1 237.627 160.1ZM237.627 146.323C234.549 146.323 232.049 148.824 232.049 151.904C232.049 154.983 234.549 157.484 237.627 157.484C240.704 157.484 243.205 154.983 243.205 151.904C243.205 148.824 240.704 146.323 237.627 146.323Z" fill="white" fill-opacity="0.37"/>
<path d="M398.605 90.0945C385.927 90.0945 375.619 79.7813 375.619 67.0975C375.619 54.4138 385.927 44.1006 398.605 44.1006C411.282 44.1006 421.59 54.4138 421.59 67.0975C421.59 79.7813 411.282 90.0945 398.605 90.0945ZM398.605 46.7248C387.379 46.7248 378.242 55.8659 378.242 67.0975C378.242 78.3292 387.379 87.4703 398.605 87.4703C409.831 87.4703 418.968 78.3292 418.968 67.0975C418.968 55.8659 409.831 46.7248 398.605 46.7248Z" fill="#F0E6E1"/>
<path d="M414.391 70.816C416.451 62.0846 411.046 53.3358 402.319 51.275C393.591 49.2142 384.847 54.6218 382.787 63.3532C380.727 72.0846 386.132 80.8334 394.859 82.8942C403.587 84.955 412.331 79.5474 414.391 70.816Z" fill="#FFFDFE"/>
<path d="M397.906 75.6357L386.295 64.0191L391.707 58.6044L397.906 64.8064L414.15 48.5537L419.562 53.9683L397.906 75.6357Z" fill="#F51322"/>
<path d="M140.741 22.6773L151.536 11.3848L162.553 22.6773L152.22 31.6762L140.741 22.6773Z" fill="#F25D40"/>
<path d="M160.653 11.1133H142.783V32.4158H160.653V11.1133Z" fill="white"/>
<path d="M154.956 13.3613H144.246V14.6541H154.956V13.3613Z" fill="#2D5970"/>
<path d="M159.205 16.3193H144.246V17.5416H159.205V16.3193Z" fill="#2D5970"/>
<path d="M159.205 19.5137H144.246V20.736H159.205V19.5137Z" fill="#2D5970"/>
<path d="M159.205 22.708H144.246V23.9303H159.205V22.708Z" fill="#2D5970"/>
<path d="M159.205 25.8965H144.246V27.1188H159.205V25.8965Z" fill="#2D5970"/>
<path d="M162.553 35.8868H140.741V22.6777L151.572 28.6133L162.553 22.6777V35.8868Z" fill="#FFAF00"/>
<path d="M140.741 35.8872L151.868 24.9014L162.553 35.8872H140.741Z" fill="#FCC149"/>
<g style="mix-blend-mode:multiply" opacity="0.51">
<path d="M160.029 33.3617L140.741 35.8868H162.553V22.6777L160.029 33.3617Z" fill="#FFAF00"/>
</g>
<g style="mix-blend-mode:overlay" opacity="0.47">
<path d="M141.672 24.8252V32.4408L142.904 27.627L147.716 27.7376L141.672 24.8252Z" fill="white"/>
</g>
<path d="M172.015 31.1026C171.03 30.6046 169.894 29.8149 169.949 28.8491C169.989 28.0996 170.482 27.6671 171.015 27.4155C171.513 27.1842 171.558 26.495 171.1 26.1882L163.513 21.1279L155.926 26.1882C155.468 26.495 155.513 27.1842 156.011 27.4155C156.549 27.6671 157.042 28.0996 157.077 28.8491C157.127 29.8099 155.991 30.5996 155.011 31.1026C154.161 31.5352 153.723 32.4909 153.919 33.4215C156.001 43.2604 163.508 45.9163 163.508 45.9163C163.508 45.9163 171.02 43.2604 173.096 33.4215C173.292 32.4909 172.855 31.5302 172.005 31.1026H172.015Z" fill="#2D5970"/>
<path d="M163.513 44.3474C161.914 43.5979 156.941 40.6905 155.337 33.1252C155.272 32.8284 155.413 32.5266 155.669 32.3959C157.64 31.3949 158.6 30.1776 158.525 28.7792C158.485 27.9995 158.173 27.3255 157.635 26.7974L163.513 22.8789L169.391 26.7974C168.848 27.3255 168.541 28.0046 168.501 28.7792C168.425 30.1776 169.391 31.3949 171.357 32.3959C171.613 32.5266 171.754 32.8284 171.688 33.1252C170.095 40.6603 165.087 43.5979 163.508 44.3474H163.513Z" fill="white"/>
<path d="M163.518 22.8742L157.64 26.7926C158.183 27.3208 158.49 27.9998 158.53 28.7745C158.606 30.1729 157.64 31.3901 155.674 32.3911C155.418 32.5219 155.282 32.8237 155.342 33.1205H163.518V22.8691V22.8742Z" fill="#00B5CA"/>
<path d="M155.342 33.125C156.941 40.6903 161.918 43.5927 163.517 44.3472V33.125H155.342Z" fill="white"/>
<path d="M171.694 33.1252C171.76 32.8284 171.624 32.5266 171.362 32.3959C169.391 31.3949 168.431 30.1776 168.506 28.7792C168.547 27.9995 168.858 27.3255 169.396 26.7974L163.519 22.8789V33.1303H171.694V33.1252Z" fill="white"/>
<path d="M163.519 33.125V44.3472C165.097 43.5927 170.1 40.6601 171.694 33.125H163.519Z" fill="#00B5CA"/>
<g style="mix-blend-mode:multiply" opacity="0.33">
<path d="M172.016 31.1026C171.03 30.6046 169.894 29.8149 169.949 28.8491C169.99 28.0996 170.482 27.667 171.015 27.4155C171.513 27.1842 171.558 26.495 171.101 26.1882L163.514 21.1279L168.195 26.7566C168.195 26.7566 167.32 29.1258 169.16 30.7002C170.92 32.2092 169.23 42.2242 162.402 45.3931C163.086 45.7603 163.519 45.9112 163.519 45.9112C163.519 45.9112 171.03 43.2553 173.107 33.4165C173.303 32.4859 172.866 31.5251 172.016 31.0976V31.1026Z" fill="#2D5970"/>
</g>
<g style="mix-blend-mode:overlay" opacity="0.47">
<path d="M163.085 24.1064L158.917 27.0993C158.917 27.0993 160.807 30.2482 157.972 32.3709C157.972 32.3709 160.566 32.054 161.039 28.0399L163.085 24.1064Z" fill="white"/>
</g>
<mask id="mask1_254_16498" style="mask-type:luminance" maskUnits="userSpaceOnUse" x="349" y="245" width="49" height="35">
<path d="M353.831 245.877H393.642C395.794 245.877 397.55 247.626 397.55 249.787V275.78C397.55 277.934 395.802 279.691 393.642 279.691H353.831C351.678 279.691 349.923 277.941 349.923 275.78V249.787C349.923 247.634 351.671 245.877 353.831 245.877Z" fill="white"/>
</mask>
<g mask="url(#mask1_254_16498)">
<path d="M353.832 245.877H393.643C395.795 245.877 397.551 247.626 397.551 249.787V275.78C397.551 277.934 395.803 279.691 393.643 279.691H353.832C351.679 279.691 349.924 277.941 349.924 275.78V249.787C349.924 247.634 351.672 245.877 353.832 245.877Z" fill="#FFAF00"/>
<path d="M401.025 253.786H348.586C347.837 253.786 347.228 254.139 347.228 254.565C347.228 254.992 347.837 255.345 348.586 255.345H401.025C401.774 255.345 402.384 254.992 402.384 254.565C402.384 254.139 401.774 253.786 401.025 253.786Z" fill="white"/>
<path d="M401.025 267.047H348.586C347.837 267.047 347.228 267.4 347.228 267.826C347.228 268.253 347.837 268.606 348.586 268.606H401.025C401.774 268.606 402.384 268.253 402.384 267.826C402.384 267.4 401.774 267.047 401.025 267.047Z" fill="white"/>
<path d="M375.588 267.818V255.005C375.184 255.005 374.773 254.998 374.361 254.983C374.251 254.983 374.141 254.983 374.023 254.983V267.855C374.538 267.833 375.059 267.825 375.588 267.825V267.818Z" fill="white"/>
<path d="M359.928 254.756V241.944C359.524 241.944 359.112 241.937 358.701 241.922C358.591 241.922 358.481 241.922 358.363 241.922V254.793C358.877 254.771 359.399 254.764 359.928 254.764V254.756Z" fill="white"/>
<path d="M390.441 254.756V241.944C390.037 241.944 389.625 241.937 389.214 241.922C389.104 241.922 388.994 241.922 388.876 241.922V254.793C389.397 254.771 389.912 254.764 390.441 254.764V254.756Z" fill="white"/>
<path d="M359.928 280.874V268.062C359.524 268.062 359.112 268.054 358.701 268.04C358.591 268.04 358.481 268.04 358.363 268.04V280.911C358.877 280.889 359.399 280.881 359.928 280.881V280.874Z" fill="white"/>
<path d="M390.441 280.874V268.062C390.037 268.062 389.625 268.054 389.214 268.04C389.104 268.04 388.994 268.04 388.876 268.04V280.911C389.397 280.889 389.912 280.881 390.441 280.881V280.874Z" fill="white"/>
<g style="mix-blend-mode:multiply" opacity="0.6">
<path d="M393.65 245.877H393.342V271.553C393.342 273.7 391.586 275.464 389.434 275.464H349.931V275.773C349.931 277.919 351.686 279.683 353.838 279.683H393.65C395.795 279.683 397.558 277.926 397.558 275.773V249.78C397.558 247.634 395.802 245.869 393.65 245.869V245.877Z" fill="#FFAF00"/>
</g>
</g>
<path d="M392.401 286.255C392.401 286.255 395.031 287.497 397.756 286.255C397.756 286.255 402.662 284.079 402.251 279.198C401.84 274.325 396.338 264.879 396.338 264.879L388.456 272.553L386.282 279.61L392.401 286.248V286.255Z" fill="white"/>
<path d="M392.401 286.254C388.89 285.041 385.342 281.623 384.247 278.072C383.16 274.522 383.858 270.472 386.084 267.494C387.413 265.708 389.227 264.334 390.55 262.54C392.636 259.725 393.363 255.954 392.467 252.565C396.617 256.446 399.232 262.378 399.254 268.061C400.304 266.127 400.436 263.841 400.348 261.643C402.721 266.362 405.916 271.148 405.461 276.411C405.079 280.807 401.927 284.828 397.755 286.247C399.452 284.651 400.958 282.578 400.752 280.256C400.495 277.426 397.395 275.779 396.22 273.191C395.39 271.368 395.596 269.259 395.816 267.259C394.656 268.854 393.613 270.567 393.032 272.449C392.452 274.331 392.349 276.418 393.054 278.264C391.828 277.624 390.968 276.33 390.858 274.948C388.669 278.66 389.294 282.608 392.401 286.239V286.254Z" fill="#F25D40"/>
<g style="mix-blend-mode:multiply">
<path d="M400.348 261.652C400.436 263.849 400.304 266.136 399.254 268.069C399.224 262.379 396.617 256.454 392.467 252.573C392.474 252.61 392.481 252.639 392.489 252.676C395.647 258.491 397.55 264.981 398.027 271.583C399.695 270.252 400.84 268.275 401.156 266.165C401.156 266.165 408.296 279.102 397.755 286.262C401.928 284.843 405.079 280.815 405.461 276.427C405.916 271.164 402.721 266.378 400.348 261.659V261.652Z" fill="#F25D40"/>
</g>
<path d="M401.156 266.165C400.84 268.275 399.701 270.252 398.027 271.583C397.549 264.982 395.639 258.491 392.488 252.676C393.34 256.036 392.613 259.762 390.549 262.548C389.227 264.335 387.413 265.717 386.083 267.503C383.865 270.48 383.16 274.53 384.247 278.081C385.334 281.631 388.889 285.049 392.4 286.262C389.293 282.631 388.669 278.691 390.858 274.971C390.968 276.346 391.827 277.647 393.054 278.287C392.356 276.442 392.452 274.361 393.032 272.472C393.612 270.59 394.655 268.878 395.816 267.282C395.595 269.274 395.382 271.384 396.22 273.215C397.395 275.795 400.495 277.449 400.752 280.279C400.957 282.602 399.452 284.675 397.755 286.27C408.295 279.11 401.156 266.172 401.156 266.172V266.165Z" fill="#F25D40"/>
<path opacity="0.71" d="M389.506 266.576C388.742 267.2 387.89 267.722 387.178 268.413C384.702 270.81 384.46 274.786 385.422 278.094C385.51 275.904 385.841 273.588 387.244 271.905C387.883 271.14 388.705 270.56 389.433 269.891C391.732 267.788 393.972 263.613 393.164 260.401C392.62 262.805 391.423 264.995 389.499 266.576H389.506Z" fill="#FCE8C5"/>
</g>
<path d="M352.554 72.7415L346.64 39.8377C309.196 62.287 286.495 81.1132 237.932 35.3389C180.787 89.1934 149.299 50.542 129.513 38.1294L123.308 72.7415C123.016 74.3249 119.059 96.9407 120.684 126.763C120.767 128.596 120.892 130.469 121.017 132.385H166.167C165.834 128.804 165.624 125.304 165.501 121.931C165.251 116.35 165.251 111.102 165.376 106.311C174.79 107.687 186.202 108.145 199.322 106.519C216.856 104.312 229.269 100.48 237.932 96.4812C246.595 100.48 259.007 104.312 276.542 106.519C289.703 108.145 301.115 107.687 310.569 106.311C310.694 111.06 310.694 116.35 310.444 121.931C310.319 125.304 310.07 128.804 309.737 132.385H354.845C354.97 130.469 355.095 128.596 355.178 126.763C356.801 96.9407 352.844 74.3249 352.554 72.7415ZM332.81 124.347C334.101 97.1488 330.436 76.7392 330.436 76.7392C330.436 76.7392 312.151 88.276 279.33 84.1951C246.51 80.0709 237.93 69.9926 237.93 69.9926C237.93 69.9926 229.35 80.0725 196.528 84.1951C163.707 88.276 145.422 76.7392 145.422 76.7392C145.422 76.7392 141.756 97.1472 143.048 124.347L133.677 125.346C132.261 97.5651 135.927 76.5311 136.218 75.0725L138.676 61.3695C172.997 82.2787 210.691 82.3619 238.43 53.2893C266.462 84.0686 304.988 80.945 337.143 61.6609L339.642 75.0725C339.892 76.5311 343.598 97.6067 342.224 125.346L332.81 124.347ZM292.284 191.405C289.577 196.153 286.537 200.611 283.286 204.816C269.916 222.227 253.09 234.721 237.928 243.426C222.767 234.721 205.94 222.226 192.57 204.816C189.322 200.609 186.282 196.153 183.573 191.405H133.757C134.465 193.196 135.216 194.988 135.965 196.778C136.257 197.485 136.548 198.151 136.881 198.819C158.206 246.593 198.025 274.249 227.93 289.077L237.927 294.034L247.922 289.077C277.827 274.249 317.645 246.593 338.971 198.819C339.304 198.153 339.595 197.485 339.887 196.778C340.636 194.986 341.387 193.196 342.094 191.405H292.284ZM242.094 277.331L237.93 279.414L233.764 277.331C207.357 264.21 172.62 240.469 152.211 200.484L163.539 201.693C184.49 238.554 218.27 259.17 237.928 268.917C257.587 259.17 291.367 238.554 312.317 201.693L323.646 200.484C303.238 240.471 268.501 264.212 242.094 277.331Z" fill="#2D3250"/>
<path d="M163.541 201.692C184.492 238.554 218.271 259.17 237.93 268.917C257.589 259.17 291.368 238.554 312.319 201.692C314.235 198.402 315.984 194.987 317.609 191.404H158.251C159.874 194.987 161.624 198.402 163.541 201.692Z" fill="#FFA054"/>
<path d="M330.436 76.7407C330.436 76.7407 312.151 88.2776 279.33 84.1966C246.509 80.0724 237.93 69.9941 237.93 69.9941C237.93 69.9941 229.35 80.0741 196.528 84.1966C163.707 88.2776 145.422 76.7407 145.422 76.7407C145.422 76.7407 141.756 97.1487 143.048 124.348C143.173 126.972 143.339 129.638 143.547 132.387H332.309C332.517 129.638 332.683 126.972 332.81 124.348C334.102 97.1487 330.436 76.7407 330.436 76.7407Z" fill="#FFA054"/>
<g opacity="0.3">
<path d="M238.58 191.405V268.587C258.324 258.715 291.589 238.164 312.317 201.693C314.233 198.403 315.981 194.988 317.606 191.405H238.58Z" fill="#F3F9FF"/>
<path d="M330.435 76.7414C330.435 76.7414 312.15 88.2782 279.33 84.1973C251.389 80.6875 241.048 72.8819 238.58 70.6309V132.386H332.31C332.518 129.637 332.685 126.971 332.811 124.347C334.102 97.1494 330.435 76.7414 330.435 76.7414Z" fill="#F3F9FF"/>
</g>
<path d="M381 191.405V194.279L338.975 198.82L323.647 200.486L312.317 201.693L300.697 202.944L283.286 204.817L237.929 209.732L192.571 204.817L175.16 202.944L163.54 201.693L152.21 200.486L136.884 198.82L94.8572 194.279V191.405H381Z" fill="#434C7E"/>
<path d="M381 129.554V132.386H94.8573V129.554L120.682 126.763L133.677 125.348L152.42 123.348L165.498 121.933L237.929 114.101L310.444 121.933L323.481 123.348L332.81 124.347L342.224 125.348L355.176 126.763L381 129.554Z" fill="#434C7E"/>
<path d="M125.068 141.789H137.273C143.921 141.789 147.246 145.478 147.246 152.853C147.246 156.748 146.296 159.509 144.396 161.141C142.496 162.773 139.853 163.587 136.465 163.587H132.856V180.254H125.068V141.789ZM135.659 158.078C137.336 158.078 138.46 157.682 139.029 156.892C139.601 156.101 139.884 154.708 139.884 152.711C139.884 151.415 139.79 150.394 139.599 149.649C139.408 148.906 139.005 148.328 138.387 147.916C137.77 147.506 136.843 147.3 135.608 147.3H132.852V158.08H135.659V158.078Z" fill="#2D3250"/>
<path d="M151.235 141.789H161.208C165.354 141.789 168.474 142.55 170.563 144.069C172.652 145.589 173.697 148.218 173.697 151.953C173.697 154.454 173.348 156.472 172.652 158.007C171.955 159.542 170.721 160.707 168.949 161.497L174.269 180.256H166.243L161.874 162.828H159.024V180.256H151.235V141.789ZM161.35 158.173C163.186 158.173 164.475 157.721 165.22 156.819C165.963 155.916 166.336 154.499 166.336 152.568C166.336 150.668 166.003 149.276 165.339 148.389C164.674 147.503 163.47 147.059 161.73 147.059H159.022V158.171H161.35V158.173Z" fill="#2D3250"/>
<path d="M180.676 177.572C178.934 175.434 178.065 172.294 178.065 168.145V153.804C178.065 149.657 178.934 146.539 180.676 144.448C182.416 142.357 185.329 141.314 189.415 141.314C193.467 141.314 196.372 142.367 198.13 144.472C199.886 146.579 200.765 149.689 200.765 153.804V168.193C200.765 172.308 199.886 175.434 198.13 177.572C196.372 179.708 193.467 180.777 189.415 180.777C185.331 180.777 182.418 179.708 180.676 177.572ZM192.097 173.819C192.556 172.917 192.787 171.675 192.787 170.093V151.904C192.787 150.321 192.556 149.095 192.097 148.224C191.638 147.353 190.743 146.918 189.415 146.918C188.084 146.918 187.192 147.353 186.732 148.224C186.273 149.095 186.043 150.323 186.043 151.904V170.093C186.043 171.707 186.263 172.958 186.707 173.843C187.15 174.73 188.053 175.173 189.415 175.173C190.743 175.173 191.638 174.722 192.097 173.819Z" fill="#2D3250"/>
<path d="M209.314 147.581H203.378V141.787H223.039V147.581H217.197V180.254H209.316L209.314 147.581Z" fill="#2D3250"/>
<path d="M226.503 141.789H243.267V147.203H234.291V157.414H241.225V162.875H234.291V174.937H243.363V180.256H226.505V141.789H226.503Z" fill="#2D3250"/>
<path d="M249.344 177.475C247.634 175.276 246.78 172.101 246.78 167.954V154.182C246.78 149.941 247.628 146.734 249.321 144.566C251.014 142.398 253.919 141.314 258.034 141.314C261.96 141.314 264.737 142.272 266.368 144.188C267.998 146.104 268.814 148.851 268.814 152.428V155.658H261.217V152.097C261.217 150.956 261.161 150.039 261.049 149.342C260.937 148.644 260.653 148.069 260.194 147.607C259.735 147.15 259.031 146.92 258.081 146.92C256.656 146.92 255.738 147.379 255.328 148.297C254.916 149.216 254.709 150.56 254.709 152.333V169.809C254.709 171.614 254.947 172.96 255.42 173.845C255.895 174.732 256.782 175.175 258.081 175.175C259.411 175.175 260.265 174.724 260.645 173.821C261.023 172.919 261.215 171.583 261.215 169.809V166.058H268.812V169.239C268.812 172.913 268.006 175.753 266.39 177.763C264.776 179.775 261.989 180.779 258.032 180.779C253.95 180.777 251.053 179.677 249.344 177.475Z" fill="#2D3250"/>
<path d="M277.221 147.581H271.285V141.787H290.946V147.581H285.105V180.254H277.223L277.221 147.581Z" fill="#2D3250"/>
<path d="M294.503 141.789H302.292V180.256H294.503V141.789Z" fill="#2D3250"/>
<path d="M310.174 177.572C308.432 175.434 307.562 172.294 307.562 168.145V153.804C307.562 149.657 308.432 146.539 310.174 144.448C311.914 142.357 314.827 141.314 318.913 141.314C322.965 141.314 325.87 142.367 327.628 144.472C329.384 146.579 330.263 149.689 330.263 153.804V168.193C330.263 172.308 329.384 175.434 327.628 177.572C325.87 179.708 322.965 180.777 318.913 180.777C314.829 180.777 311.916 179.708 310.174 177.572ZM321.595 173.819C322.054 172.917 322.285 171.675 322.285 170.093V151.904C322.285 150.321 322.054 149.095 321.595 148.224C321.136 147.353 320.243 146.918 318.913 146.918C317.582 146.918 316.689 147.353 316.23 148.224C315.771 149.095 315.54 150.323 315.54 151.904V170.093C315.54 171.707 315.761 172.958 316.205 173.843C316.648 174.73 317.551 175.173 318.913 175.173C320.243 175.173 321.136 174.722 321.595 173.819Z" fill="#2D3250"/>
<path d="M335.485 141.789H340.947L349.494 161.783V141.789H356V180.256H350.73L342.182 158.981V180.256H335.487L335.485 141.789Z" fill="#2D3250"/>
</g>
<defs>
<radialGradient id="paint0_radial_254_16498" cx="0" cy="0" r="1" gradientUnits="userSpaceOnUse" gradientTransform="translate(237.5 325.068) rotate(90) scale(10.1875 73.611)">
<stop offset="0.455" stop-color="#38225B"/>
<stop offset="1" stop-color="#524763" stop-opacity="0"/>
</radialGradient>
<linearGradient id="paint1_linear_254_16498" x1="475" y1="144.475" x2="-0.000265877" y2="150.03" gradientUnits="userSpaceOnUse">
<stop stop-color="#222222"/>
<stop offset="0.307292" stop-color="#070707" stop-opacity="0"/>
<stop offset="0.697917" stop-color="#070707" stop-opacity="0.265957"/>
<stop offset="0.984375" stop-color="#070707"/>
</linearGradient>
<linearGradient id="paint2_linear_254_16498" x1="475" y1="144.475" x2="-0.000199597" y2="150.03" gradientUnits="userSpaceOnUse">
<stop stop-color="#222222"/>
<stop offset="0.307292" stop-color="#070707" stop-opacity="0"/>
<stop offset="0.697917" stop-color="#070707" stop-opacity="0.265957"/>
<stop offset="0.984375" stop-color="#070707"/>
</linearGradient>
<linearGradient id="paint3_linear_254_16498" x1="475" y1="144.475" x2="-0.000254689" y2="150.03" gradientUnits="userSpaceOnUse">
<stop stop-color="#222222"/>
<stop offset="0.307292" stop-color="#070707" stop-opacity="0"/>
<stop offset="0.697917" stop-color="#070707" stop-opacity="0.265957"/>
<stop offset="0.984375" stop-color="#070707"/>
</linearGradient>
<linearGradient id="paint4_linear_254_16498" x1="475" y1="144.475" x2="-0.000276414" y2="150.03" gradientUnits="userSpaceOnUse">
<stop stop-color="#222222"/>
<stop offset="0.307292" stop-color="#070707" stop-opacity="0"/>
<stop offset="0.697917" stop-color="#070707" stop-opacity="0.265957"/>
<stop offset="0.984375" stop-color="#070707"/>
</linearGradient>
<linearGradient id="paint5_linear_254_16498" x1="475" y1="144.475" x2="-0.000248275" y2="150.03" gradientUnits="userSpaceOnUse">
<stop stop-color="#222222"/>
<stop offset="0.307292" stop-color="#070707" stop-opacity="0"/>
<stop offset="0.697917" stop-color="#070707" stop-opacity="0.265957"/>
<stop offset="0.984375" stop-color="#070707"/>
</linearGradient>
<linearGradient id="paint6_linear_254_16498" x1="475" y1="144.475" x2="-0.000215227" y2="150.03" gradientUnits="userSpaceOnUse">
<stop stop-color="#222222"/>
<stop offset="0.307292" stop-color="#070707" stop-opacity="0"/>
<stop offset="0.697917" stop-color="#070707" stop-opacity="0.265957"/>
<stop offset="0.984375" stop-color="#070707"/>
</linearGradient>
<linearGradient id="paint7_linear_254_16498" x1="475" y1="144.475" x2="-0.00127414" y2="150.03" gradientUnits="userSpaceOnUse">
<stop stop-color="#222222"/>
<stop offset="0.307292" stop-color="#070707" stop-opacity="0"/>
<stop offset="0.697917" stop-color="#070707" stop-opacity="0.265957"/>
<stop offset="0.984375" stop-color="#070707"/>
</linearGradient>
<linearGradient id="paint8_linear_254_16498" x1="475" y1="144.476" x2="-0.00107733" y2="150.031" gradientUnits="userSpaceOnUse">
<stop stop-color="#222222"/>
<stop offset="0.307292" stop-color="#070707" stop-opacity="0"/>
<stop offset="0.697917" stop-color="#070707" stop-opacity="0.265957"/>
<stop offset="0.984375" stop-color="#070707"/>
</linearGradient>
<linearGradient id="paint9_linear_254_16498" x1="475" y1="144.476" x2="0.000172535" y2="150.03" gradientUnits="userSpaceOnUse">
<stop stop-color="#222222"/>
<stop offset="0.307292" stop-color="#070707" stop-opacity="0"/>
<stop offset="0.697917" stop-color="#070707" stop-opacity="0.265957"/>
<stop offset="0.984375" stop-color="#070707"/>
</linearGradient>
<linearGradient id="paint10_linear_254_16498" x1="475.001" y1="144.476" x2="-0.000624244" y2="150.031" gradientUnits="userSpaceOnUse">
<stop stop-color="#222222"/>
<stop offset="0.307292" stop-color="#070707" stop-opacity="0"/>
<stop offset="0.697917" stop-color="#070707" stop-opacity="0.265957"/>
<stop offset="0.984375" stop-color="#070707"/>
</linearGradient>
<linearGradient id="paint11_linear_254_16498" x1="475" y1="144.475" x2="-0.000218252" y2="150.03" gradientUnits="userSpaceOnUse">
<stop stop-color="#222222"/>
<stop offset="0.307292" stop-color="#070707" stop-opacity="0"/>
<stop offset="0.697917" stop-color="#070707" stop-opacity="0.265957"/>
<stop offset="0.984375" stop-color="#070707"/>
</linearGradient>
<clipPath id="clip0_254_16498">
<rect width="475" height="351" fill="white"/>
</clipPath>
</defs>
</svg>
