<svg width="60" height="60" viewBox="0 0 60 60" fill="none" xmlns="http://www.w3.org/2000/svg">
<g clip-path="url(#clip0_309_528)">
<path d="M45 30.0602C42.2849 30.0616 39.6225 30.8104 37.3046 32.2245L35.6964 30.6013C35.4328 30.34 35.0977 30.1626 34.7334 30.0915C34.3691 30.0205 33.9919 30.0589 33.6494 30.202C33.307 30.3451 33.0146 30.5865 32.8091 30.8956C32.6036 31.2047 32.4944 31.5678 32.495 31.9389V38.1764C32.495 38.6747 32.693 39.1526 33.0453 39.5049C33.3976 39.8572 33.8755 40.0552 34.3738 40.0552H40.5812C40.9511 40.0529 41.3121 39.9415 41.6189 39.7349C41.9257 39.5283 42.1647 39.2357 42.306 38.8938C42.4472 38.552 42.4844 38.176 42.4129 37.8131C42.3413 37.4502 42.1643 37.1165 41.9038 36.8538L40.9569 35.9069C42.8492 35.0761 44.9524 34.8523 46.9771 35.2662C49.0018 35.6801 50.8484 36.7115 52.2627 38.2183C53.677 39.7251 54.5895 41.6333 54.8745 43.6801C55.1596 45.7269 54.8031 47.8118 53.8543 49.6476C52.9055 51.4835 51.4109 52.9801 49.5763 53.9315C47.7418 54.8829 45.6574 55.2422 43.6102 54.96C41.563 54.6778 39.6536 53.768 38.1448 52.3557C36.6361 50.9435 35.6021 49.0983 35.1854 47.0742C35.0205 46.4602 34.6289 45.9317 34.0894 45.5953C33.55 45.2589 32.903 45.1397 32.2791 45.2618C31.6553 45.3839 31.1009 45.7382 30.7281 46.2532C30.3553 46.7681 30.1918 47.4053 30.2706 48.0361C30.8397 50.8243 32.1887 53.3937 34.1607 55.4453C36.1326 57.497 38.6465 58.9467 41.41 59.6258C44.1734 60.305 47.0729 60.1856 49.7712 59.2817C52.4695 58.3778 54.8558 56.7264 56.6525 54.5196C58.4492 52.3128 59.5825 49.6413 59.9206 46.8158C60.2586 43.9903 59.7877 41.1268 58.5624 38.5584C57.3371 35.99 55.4078 33.8223 52.999 32.3072C50.5901 30.7922 47.8006 29.9921 44.9549 30.0001L45 30.0602Z" fill="#FFA054"/>
<path d="M0 22.5452V37.5752H27.505V31.8788C27.5014 30.6304 27.8388 29.4047 28.4809 28.334C29.123 27.2633 30.0454 26.3884 31.1484 25.8036C32.2514 25.2188 33.4932 24.9464 34.7398 25.0159C35.9863 25.0853 37.1902 25.4938 38.2214 26.1975C40.3931 25.4029 42.6875 24.9959 45 24.9951V22.5452H0Z" fill="#FFA054"/>
<path d="M25.4158 48.9522C25.1952 47.8088 25.2433 46.6298 25.5563 45.5083C25.8693 44.3867 26.4386 43.3531 27.2194 42.4893H0V53.1155C-4.34555e-06 54.9386 0.723184 56.6872 2.01089 57.9778C3.2986 59.2683 5.04565 59.9953 6.86874 59.9993H31.8186C28.5218 57.126 26.2702 53.2411 25.4158 48.9522Z" fill="#FFA054"/>
<path d="M38.1162 0H6.86874C5.04826 0.00397053 3.30347 0.728914 2.01619 2.01619C0.728914 3.30347 0.00397053 5.04826 0 6.86874L0 17.495H45V6.86874C44.996 5.04565 44.269 3.2986 42.9785 2.01089C41.688 0.723184 39.9393 -4.34555e-06 38.1162 0ZM8.7475 12.505C8.00433 12.505 7.27785 12.2846 6.65993 11.8718C6.04201 11.4589 5.5604 10.872 5.276 10.1854C4.99161 9.49884 4.9172 8.74333 5.06218 8.01444C5.20716 7.28555 5.56503 6.61603 6.09053 6.09053C6.61603 5.56503 7.28555 5.20716 8.01444 5.06218C8.74333 4.9172 9.49884 4.99161 10.1854 5.276C10.872 5.5604 11.4589 6.04201 11.8718 6.65993C12.2846 7.27785 12.505 8.00433 12.505 8.7475C12.507 9.2415 12.4112 9.731 12.223 10.1878C12.0349 10.6446 11.7582 11.0596 11.4089 11.4089C11.0596 11.7582 10.6446 12.0349 10.1878 12.223C9.731 12.4112 9.2415 12.507 8.7475 12.505ZM21.2525 12.505C20.5087 12.508 19.7808 12.2901 19.1609 11.8791C18.541 11.468 18.057 10.8822 17.7703 10.1959C17.4836 9.50955 17.4071 8.75357 17.5503 8.0237C17.6936 7.29382 18.0503 6.62289 18.5752 6.09589C19.1001 5.56889 19.7696 5.20952 20.4989 5.06332C21.2282 4.91711 21.9844 4.99064 22.6719 5.27459C23.3594 5.55854 23.9471 6.04014 24.3607 6.65838C24.7742 7.27662 24.995 8.00369 24.995 8.7475C24.995 9.74145 24.6012 10.6949 23.8998 11.3992C23.1983 12.1034 22.2465 12.501 21.2525 12.505ZM33.7425 12.505C33.0027 12.4902 32.2837 12.2573 31.6758 11.8355C31.0678 11.4138 30.5979 10.8219 30.325 10.1341C30.0521 9.44636 29.9884 8.69332 30.1417 7.96946C30.2951 7.24559 30.6587 6.58311 31.1871 6.06511C31.7155 5.5471 32.385 5.19662 33.1118 5.05763C33.8385 4.91863 34.5902 4.9973 35.2724 5.28377C35.9546 5.57024 36.5371 6.05177 36.9467 6.66795C37.3564 7.28414 37.575 8.00756 37.5752 8.7475C37.5773 9.24791 37.4791 9.74368 37.2863 10.2055C37.0935 10.6673 36.81 11.0857 36.4527 11.436C36.0954 11.7864 35.6714 12.0615 35.2059 12.2451C34.7404 12.4287 34.2428 12.5171 33.7425 12.505Z" fill="#FFA054"/>
</g>
<defs>
<clipPath id="clip0_309_528">
<rect width="60" height="60" fill="white"/>
</clipPath>
</defs>
</svg>
