<svg width="40" height="40" viewBox="0 0 40 40" fill="none" xmlns="http://www.w3.org/2000/svg">
<g clip-path="url(#clip0_254_12301)">
<path d="M37.9099 26.4304C37.809 26.125 37.6259 25.8533 37.3807 25.6451C37.1355 25.4369 36.8377 25.3004 36.5199 25.2504L34.5199 24.9404L33.5699 23.0004C33.4312 22.7008 33.2097 22.4471 32.9315 22.2693C32.6533 22.0915 32.33 21.9971 31.9999 21.9971C31.6697 21.9971 31.3465 22.0915 31.0683 22.2693C30.7901 22.4471 30.5686 22.7008 30.4299 23.0004L29.5199 24.9404L27.5199 25.2504C27.2021 25.3004 26.9043 25.4369 26.6591 25.6451C26.4139 25.8533 26.2308 26.125 26.1299 26.4304C26.0256 26.7431 26.0096 27.0784 26.0837 27.3996C26.1578 27.7207 26.3191 28.0151 26.5499 28.2504L27.9999 29.7804L27.6399 31.9404C27.5838 32.2698 27.6227 32.6084 27.752 32.9165C27.8813 33.2247 28.0956 33.4896 28.3699 33.6804C28.6608 33.8906 29.011 34.0026 29.3699 34.0004C29.6565 33.9998 29.9383 33.9277 30.1899 33.7904L31.9999 32.7904L33.8099 33.7904C34.0919 33.9425 34.4108 34.0128 34.7306 33.9933C35.0504 33.9739 35.3584 33.8655 35.6199 33.6804C35.8942 33.4896 36.1085 33.2247 36.2378 32.9165C36.3671 32.6084 36.4059 32.2698 36.3499 31.9404L35.9999 29.7804L37.4999 28.2504C37.728 28.0135 37.8868 27.7186 37.9591 27.3977C38.0314 27.0768 38.0144 26.7423 37.9099 26.4304ZM34.4899 28.4304C34.29 28.6348 34.1414 28.8837 34.0563 29.1566C33.9711 29.4295 33.9518 29.7186 33.9999 30.0004L34.2899 31.7704L32.8199 31.0004C32.5684 30.863 32.2865 30.791 31.9999 30.791C31.7133 30.791 31.4314 30.863 31.1799 31.0004L29.7099 31.8104L29.9999 30.0004C30.0447 29.7218 30.0238 29.4365 29.9387 29.1673C29.8536 28.8982 29.7068 28.6527 29.5099 28.4504L28.2399 27.1604L29.9999 26.9004C30.2833 26.8533 30.5508 26.7376 30.7792 26.5632C31.0075 26.3889 31.1897 26.1614 31.3099 25.9004L31.9999 24.3704L32.7299 25.9104C32.8493 26.1719 33.0313 26.3999 33.2598 26.5743C33.4883 26.7487 33.7562 26.8642 34.0399 26.9104L35.7599 27.1704L34.4899 28.4304Z" fill="white"/>
<path d="M34.49 28.45C34.2931 28.6523 34.1463 28.8978 34.0612 29.1669C33.9761 29.436 33.9552 29.7213 34 30L34.29 31.77L32.82 31C32.5685 30.8626 32.2866 30.7906 32 30.7906C31.7134 30.7906 31.4315 30.8626 31.18 31L29.71 31.81L30 30C30.0448 29.7213 30.0239 29.436 29.9388 29.1669C29.8537 28.8978 29.7069 28.6523 29.51 28.45L28.24 27.16L30 26.9C30.2834 26.8529 30.5509 26.7371 30.7793 26.5628C31.0076 26.3885 31.1898 26.1609 31.31 25.9L32 24.37L32.73 25.91C32.8494 26.1714 33.0314 26.3994 33.2599 26.5739C33.4884 26.7483 33.7563 26.8637 34.04 26.91L35.76 27.17L34.49 28.45Z" fill="white"/>
<path fill-rule="evenodd" clip-rule="evenodd" d="M37.9166 4.99998C37.9166 4.22665 37.6099 3.48498 37.0616 2.93831C36.5149 2.38998 35.7733 2.08331 34.9999 2.08331C29.3099 2.08331 10.6899 2.08331 4.99992 2.08331C4.22659 2.08331 3.48492 2.38998 2.93825 2.93831C2.38992 3.48498 2.08325 4.22665 2.08325 4.99998V9.99998C2.08325 10.7733 2.38992 11.515 2.93825 12.0616C3.48492 12.61 4.22659 12.9166 4.99992 12.9166H34.9999C35.7733 12.9166 36.5149 12.61 37.0616 12.0616C37.6099 11.515 37.9166 10.7733 37.9166 9.99998V4.99998ZM9.16659 5.83331C10.0866 5.83331 10.8333 6.57998 10.8333 7.49998C10.8333 8.41998 10.0866 9.16665 9.16659 9.16665C8.24659 9.16665 7.49992 8.41998 7.49992 7.49998C7.49992 6.57998 8.24659 5.83331 9.16659 5.83331ZM14.9999 5.83331C15.9199 5.83331 16.6666 6.57998 16.6666 7.49998C16.6666 8.41998 15.9199 9.16665 14.9999 9.16665C14.0799 9.16665 13.3333 8.41998 13.3333 7.49998C13.3333 6.57998 14.0799 5.83331 14.9999 5.83331ZM32.4999 6.24998H27.4999C26.8099 6.24998 26.2499 6.80998 26.2499 7.49998C26.2499 8.18998 26.8099 8.74998 27.4999 8.74998H32.4999C33.1899 8.74998 33.7499 8.18998 33.7499 7.49998C33.7499 6.80998 33.1899 6.24998 32.4999 6.24998Z" fill="#FFA054"/>
<path fill-rule="evenodd" clip-rule="evenodd" d="M37.9166 17.5C37.9166 16.7266 37.6099 15.985 37.0616 15.4383C36.5149 14.89 35.7733 14.5833 34.9999 14.5833C29.3099 14.5833 10.6899 14.5833 4.99992 14.5833C4.22659 14.5833 3.48492 14.89 2.93825 15.4383C2.38992 15.985 2.08325 16.7266 2.08325 17.5V22.5C2.08325 23.2733 2.38992 24.015 2.93825 24.5616C3.48492 25.11 4.22659 25.4166 4.99992 25.4166H34.9999C35.7733 25.4166 36.5149 25.11 37.0616 24.5616C37.6099 24.015 37.9166 23.2733 37.9166 22.5V17.5ZM9.16659 18.3333C10.0866 18.3333 10.8333 19.08 10.8333 20C10.8333 20.92 10.0866 21.6666 9.16659 21.6666C8.24659 21.6666 7.49992 20.92 7.49992 20C7.49992 19.08 8.24659 18.3333 9.16659 18.3333ZM14.9999 18.3333C15.9199 18.3333 16.6666 19.08 16.6666 20C16.6666 20.92 15.9199 21.6666 14.9999 21.6666C14.0799 21.6666 13.3333 20.92 13.3333 20C13.3333 19.08 14.0799 18.3333 14.9999 18.3333ZM32.4999 18.75H27.4999C26.8099 18.75 26.2499 19.31 26.2499 20C26.2499 20.69 26.8099 21.25 27.4999 21.25H32.4999C33.1899 21.25 33.7499 20.69 33.7499 20C33.7499 19.31 33.1899 18.75 32.4999 18.75Z" fill="#FFA054"/>
<path fill-rule="evenodd" clip-rule="evenodd" d="M37.9166 30C37.9166 29.2266 37.6099 28.485 37.0616 27.9383C36.5149 27.39 35.7733 27.0833 34.9999 27.0833C29.3099 27.0833 10.6899 27.0833 4.99992 27.0833C4.22659 27.0833 3.48492 27.39 2.93825 27.9383C2.38992 28.485 2.08325 29.2266 2.08325 30V35C2.08325 35.7733 2.38992 36.515 2.93825 37.0616C3.48492 37.61 4.22659 37.9166 4.99992 37.9166H34.9999C35.7733 37.9166 36.5149 37.61 37.0616 37.0616C37.6099 36.515 37.9166 35.7733 37.9166 35V30ZM9.16659 30.8333C10.0866 30.8333 10.8333 31.58 10.8333 32.5C10.8333 33.42 10.0866 34.1666 9.16659 34.1666C8.24659 34.1666 7.49992 33.42 7.49992 32.5C7.49992 31.58 8.24659 30.8333 9.16659 30.8333ZM14.9999 30.8333C15.9199 30.8333 16.6666 31.58 16.6666 32.5C16.6666 33.42 15.9199 34.1666 14.9999 34.1666C14.0799 34.1666 13.3333 33.42 13.3333 32.5C13.3333 31.58 14.0799 30.8333 14.9999 30.8333ZM32.4999 31.25H27.4999C26.8099 31.25 26.2499 31.81 26.2499 32.5C26.2499 33.19 26.8099 33.75 27.4999 33.75H32.4999C33.1899 33.75 33.7499 33.19 33.7499 32.5C33.7499 31.81 33.1899 31.25 32.4999 31.25Z" fill="#FFA054"/>
</g>
<defs>
<clipPath id="clip0_254_12301">
<rect width="40" height="40" fill="white"/>
</clipPath>
</defs>
</svg>
