<svg width="52" height="61" viewBox="0 0 52 61" fill="none" xmlns="http://www.w3.org/2000/svg">
<g clip-path="url(#clip0_309_511)">
<path d="M11.7721 20.6694H10.9639V26.1845H11.5556C11.8863 26.2137 12.2191 26.1648 12.5274 26.0416C12.8358 25.9184 13.111 25.7244 13.331 25.4752C13.7527 24.8445 13.951 24.09 13.8939 23.3328C13.9527 22.6204 13.764 21.9096 13.3598 21.3208C13.1609 21.0996 12.9149 20.9262 12.6401 20.8134C12.3652 20.7007 12.0686 20.6514 11.7721 20.6694Z" fill="#FFA054"/>
<path d="M31.8058 22.5641C31.6297 22.5547 31.4545 22.596 31.301 22.6832C31.1476 22.7704 31.0222 22.8999 30.9398 23.0563C30.7452 23.5129 30.6564 24.0078 30.68 24.5038C30.6626 24.9994 30.7512 25.493 30.9398 25.9513C31.0226 26.1116 31.1497 26.2446 31.3058 26.3344C31.4619 26.4242 31.6405 26.4671 31.8202 26.458C31.9988 26.4719 32.1774 26.4309 32.3322 26.3403C32.4869 26.2498 32.6104 26.1141 32.6862 25.9513C32.8749 25.493 32.9634 24.9994 32.946 24.5038C32.9696 24.0078 32.8808 23.5129 32.6862 23.0563C32.6042 22.8963 32.4769 22.7642 32.3202 22.6767C32.1636 22.5891 31.9846 22.5499 31.8058 22.5641Z" fill="#FFA054"/>
<path d="M23.42 25.4747C23.8417 24.8441 24.04 24.0896 23.9829 23.3324C24.0417 22.62 23.853 21.9091 23.4488 21.3203C23.2521 21.1003 23.0086 20.9275 22.7363 20.8147C22.4639 20.702 22.1697 20.6522 21.8756 20.669H21.1106V26.184H21.6879C22.0115 26.2064 22.3359 26.1541 22.6361 26.0312C22.9364 25.9082 23.2045 25.7179 23.42 25.4747Z" fill="#FFA054"/>
<path d="M51.1179 16.3262C51.1179 15.7617 51.1179 15.1392 51.1179 14.4734C51.088 12.87 50.4561 11.337 49.3484 10.1804C48.2407 9.02391 46.7387 8.32901 45.1425 8.23453C38.8358 8.10996 32.8192 5.55433 28.3419 1.09822C27.6381 0.435677 26.7091 0.0668945 25.7438 0.0668945C24.7786 0.0668945 23.8496 0.435677 23.1458 1.09822C18.6521 5.53996 12.6249 8.07494 6.31631 8.17663C4.71889 8.26779 3.215 8.96165 2.10661 10.1189C0.998221 11.2761 0.367408 12.8111 0.340835 14.4155C0.340835 15.0813 0.340835 15.6893 0.340835 16.2683V16.3841C0.225367 23.4191 -0.0200028 32.1766 2.91 40.1236C4.44391 44.3808 6.90997 48.2389 10.1268 51.4143C14.1763 55.2085 19.0039 58.069 24.2716 59.7954C24.4645 59.8637 24.6623 59.917 24.8634 59.9547C25.1386 60.013 25.4192 60.0421 25.7005 60.0415C25.9818 60.0413 26.2623 60.0122 26.5377 59.9547C26.7383 59.9152 26.936 59.862 27.1294 59.7954C32.3936 58.073 37.2136 55.2063 41.2454 51.3998C44.4645 48.2263 46.9309 44.3676 48.4622 40.1091C51.4066 32.1332 51.2478 23.3757 51.1179 16.3262ZM18.4116 18.5264H21.8756C23.2024 18.4351 24.5124 18.8661 25.5273 19.7279C25.9561 20.1927 26.285 20.7409 26.4936 21.3385C26.7022 21.9362 26.7859 22.5705 26.7397 23.202C26.7854 23.8959 26.6886 24.5918 26.4552 25.2466C26.2218 25.9015 25.8569 26.5013 25.383 27.009C24.8702 27.4728 24.2704 27.8294 23.6186 28.0581C22.9669 28.2867 22.2762 28.3828 21.587 28.3407H18.4116V18.5264ZM15.294 27.0379C14.779 27.5028 14.1768 27.8601 13.5225 28.0887C12.8682 28.3174 12.175 28.4129 11.4835 28.3696H8.30813V18.5264H11.7722C13.0985 18.4381 14.4074 18.8688 15.4239 19.7279C15.8552 20.1915 16.1868 20.7392 16.3979 21.3369C16.6089 21.9346 16.695 22.5694 16.6507 23.202C16.7004 23.9006 16.6055 24.602 16.3721 25.2621C16.1386 25.9223 15.7715 26.5268 15.294 27.0379ZM33.9565 36.6784L24.1561 46.4927C23.9687 46.6872 23.7445 46.8424 23.4968 46.9492C23.249 47.0561 22.9825 47.1125 22.7128 47.1151C22.1693 47.1035 21.6517 46.8803 21.2694 46.4927L17.4445 42.7436C17.2493 42.5468 17.0946 42.3134 16.9893 42.0568C16.8841 41.8001 16.8302 41.5251 16.8309 41.2475C16.8315 40.9699 16.8867 40.6952 16.9933 40.439C17.0998 40.1829 17.2556 39.9502 17.4518 39.7544C17.6479 39.5586 17.8807 39.4035 18.1366 39.2979C18.3926 39.1923 18.6668 39.1383 18.9435 39.139C19.2203 39.1397 19.4942 39.195 19.7497 39.3018C20.0051 39.4087 20.2371 39.5649 20.4323 39.7617L22.6695 42.0198L30.9687 33.6965C31.164 33.4998 31.3959 33.3435 31.6514 33.2367C31.9068 33.1299 32.1808 33.0745 32.4575 33.0738C32.7343 33.0732 33.0085 33.1272 33.2644 33.2328C33.5204 33.3384 33.7531 33.4935 33.9493 33.6893C34.1454 33.8851 34.3013 34.1177 34.4078 34.3739C34.5143 34.6301 34.5695 34.9048 34.5702 35.1824C34.5708 35.4599 34.517 35.7349 34.4117 35.9916C34.3064 36.2483 34.1517 36.4817 33.9565 36.6784ZM34.606 27.4577C34.2368 27.8165 33.7972 28.0945 33.3152 28.2739C32.8331 28.4533 32.3192 28.5303 31.8059 28.4999C31.3045 28.5179 30.8048 28.4321 30.3379 28.2478C29.871 28.0635 29.4471 27.7847 29.0924 27.4287C28.7375 27.0392 28.464 26.5824 28.288 26.0852C28.112 25.588 28.0371 25.0604 28.0676 24.5337C28.0348 24.0091 28.1059 23.4832 28.2769 22.9863C28.4478 22.4894 28.7152 22.0313 29.0635 21.6386C29.436 21.2801 29.8781 21.0025 30.3624 20.8232C30.8467 20.6438 31.3627 20.5666 31.8781 20.5964C32.5717 20.5828 33.2574 20.7472 33.8699 21.0741C34.4455 21.4143 34.9077 21.918 35.1978 22.5216C35.5156 23.1694 35.674 23.8842 35.6596 24.6061C35.6954 25.6585 35.317 26.6828 34.606 27.4577ZM39.8021 21.6676C40.322 21.9916 40.8674 22.2724 41.433 22.5071C42.1095 22.7705 42.7133 23.1924 43.1939 23.7375C43.5372 24.2169 43.71 24.7981 43.6847 25.3877C43.6951 25.9732 43.5283 26.5482 43.2062 27.0366C42.8841 27.5251 42.4218 27.904 41.8805 28.1236C41.2375 28.3972 40.5437 28.5304 39.8454 28.5144C39.294 28.5236 38.743 28.48 38.1999 28.3841C37.701 28.2784 37.2164 28.1131 36.7566 27.8919V25.518C37.2573 25.7777 37.7848 25.9816 38.3298 26.126C38.8003 26.2572 39.285 26.3301 39.7732 26.3431C40.0759 26.3686 40.379 26.2977 40.6392 26.1404C40.7254 26.0808 40.7956 26.0006 40.8434 25.9072C40.8913 25.8138 40.9153 25.7099 40.9134 25.6049C40.9176 25.4812 40.8822 25.3595 40.8124 25.2575C40.7665 25.1452 40.7084 25.0384 40.6392 24.939C40.4804 24.8377 40.0474 24.635 39.3402 24.3166C38.8211 24.102 38.3351 23.8144 37.8968 23.4625C37.5919 23.2044 37.3457 22.8835 37.1752 22.5216C37.0187 22.1205 36.9403 21.693 36.9442 21.2623C36.9252 20.8531 37.0059 20.4455 37.1795 20.0747C37.353 19.7039 37.6141 19.3811 37.9401 19.1344C38.7318 18.5905 39.6812 18.3257 40.6392 18.3817C41.7123 18.3929 42.7705 18.6348 43.7424 19.091L42.9341 21.1465C42.1953 20.7647 41.3829 20.5475 40.5526 20.5096C40.2906 20.4891 40.0286 20.5497 39.8021 20.6833C39.7295 20.7364 39.6707 20.8062 39.6305 20.8867C39.5903 20.9673 39.57 21.0564 39.5711 21.1465C39.5699 21.2428 39.5899 21.3382 39.6299 21.4258C39.6698 21.5134 39.7286 21.591 39.8021 21.6531V21.6676Z" fill="#FFA054"/>
</g>
<defs>
<clipPath id="clip0_309_511">
<rect width="50.9503" height="60" fill="white" transform="translate(0.225342 0.0412598)"/>
</clipPath>
</defs>
</svg>
