<svg width="60" height="60" viewBox="0 0 60 60" fill="none" xmlns="http://www.w3.org/2000/svg">
<path d="M5.00835 25.0795H49.9833C51.3116 25.0795 52.5855 24.5535 53.5247 23.6173C54.464 22.681 54.9916 21.4111 54.9916 20.087V12.5982C54.9916 11.2741 54.464 10.0043 53.5247 9.06799C52.5855 8.13171 51.3116 7.60571 49.9833 7.60571H5.00835C3.68005 7.60571 2.40616 8.13171 1.46691 9.06799C0.527664 10.0043 0 11.2741 0 12.5982L0 20.087C0 21.4111 0.527664 22.681 1.46691 23.6173C2.40616 24.5535 3.68005 25.0795 5.00835 25.0795ZM44.975 13.8464C45.4702 13.8464 45.9544 13.9928 46.3662 14.2671C46.778 14.5414 47.099 14.9312 47.2885 15.3873C47.478 15.8435 47.5276 16.3454 47.431 16.8296C47.3344 17.3138 47.0959 17.7586 46.7457 18.1077C46.3955 18.4569 45.9493 18.6946 45.4635 18.7909C44.9777 18.8872 44.4742 18.8378 44.0166 18.6489C43.5591 18.4599 43.168 18.14 42.8928 17.7295C42.6177 17.319 42.4708 16.8363 42.4708 16.3426C42.4708 15.6806 42.7346 15.0456 43.2042 14.5775C43.6739 14.1094 44.3108 13.8464 44.975 13.8464ZM37.4624 13.8464C37.9577 13.8464 38.4419 13.9928 38.8537 14.2671C39.2655 14.5414 39.5865 14.9312 39.776 15.3873C39.9655 15.8435 40.0151 16.3454 39.9185 16.8296C39.8219 17.3138 39.5834 17.7586 39.2332 18.1077C38.8829 18.4569 38.4367 18.6946 37.951 18.7909C37.4652 18.8872 36.9617 18.8378 36.5041 18.6489C36.0466 18.4599 35.6555 18.14 35.3803 17.7295C35.1051 17.319 34.9583 16.8363 34.9583 16.3426C34.9582 16.0127 35.0238 15.686 35.1512 15.3815C35.2787 15.077 35.4654 14.8007 35.7005 14.5686C35.9357 14.3365 36.2148 14.1531 36.5215 14.0292C36.8282 13.9052 37.1565 13.8431 37.4875 13.8464H37.4624ZM17.5292 13.8464C17.5292 13.5153 17.6611 13.1979 17.8959 12.9638C18.1308 12.7297 18.4492 12.5982 18.7813 12.5982C19.1134 12.5982 19.4318 12.7297 19.6667 12.9638C19.9015 13.1979 20.0334 13.5153 20.0334 13.8464V18.8389C20.0334 19.1699 19.9015 19.4874 19.6667 19.7214C19.4318 19.9555 19.1134 20.087 18.7813 20.087C18.4492 20.087 18.1308 19.9555 17.8959 19.7214C17.6611 19.4874 17.5292 19.1699 17.5292 18.8389V13.8464ZM12.5209 13.8464C12.5209 13.5153 12.6528 13.1979 12.8876 12.9638C13.1224 12.7297 13.4409 12.5982 13.773 12.5982C14.105 12.5982 14.4235 12.7297 14.6583 12.9638C14.8931 13.1979 15.025 13.5153 15.025 13.8464V18.8389C15.025 19.1699 14.8931 19.4874 14.6583 19.7214C14.4235 19.9555 14.105 20.087 13.773 20.087C13.4409 20.087 13.1224 19.9555 12.8876 19.7214C12.6528 19.4874 12.5209 19.1699 12.5209 18.8389V13.8464ZM7.51252 13.8464C7.51252 13.5153 7.64444 13.1979 7.87925 12.9638C8.11406 12.7297 8.43253 12.5982 8.76461 12.5982C9.09668 12.5982 9.41515 12.7297 9.64997 12.9638C9.88478 13.1979 10.0167 13.5153 10.0167 13.8464V18.8389C10.0167 19.1699 9.88478 19.4874 9.64997 19.7214C9.41515 19.9555 9.09668 20.087 8.76461 20.087C8.43253 20.087 8.11406 19.9555 7.87925 19.7214C7.64444 19.4874 7.51252 19.1699 7.51252 18.8389V13.8464Z" fill="#FFA054"/>
<path d="M37.9007 29.8475C38.1152 29.6989 38.2778 29.4871 38.3656 29.2418C38.4534 28.9965 38.462 28.73 38.3902 28.4796C38.3185 28.2291 38.1699 28.0074 37.9653 27.8453C37.7608 27.6833 37.5105 27.5891 37.2496 27.5759H5.00835C3.68005 27.5759 2.40616 28.1019 1.46691 29.0382C0.527664 29.9745 0 31.2443 0 32.5684L0 40.0572C0 41.3813 0.527664 42.6512 1.46691 43.5875C2.40616 44.5238 3.68005 45.0497 5.00835 45.0497H28.798C29.1301 45.0497 29.4485 44.9183 29.6834 44.6842C29.9182 44.4501 30.0501 44.1326 30.0501 43.8016C30.0202 40.9945 30.7294 38.2286 32.107 35.7801C33.4845 33.3315 35.4822 31.286 37.9007 29.8475ZM10.0167 38.8091C10.0167 39.1401 9.88478 39.4576 9.64997 39.6917C9.41516 39.9257 9.09668 40.0572 8.76461 40.0572C8.43253 40.0572 8.11406 39.9257 7.87925 39.6917C7.64444 39.4576 7.51252 39.1401 7.51252 38.8091V33.8166C7.51252 33.4856 7.64444 33.1681 7.87925 32.934C8.11406 32.6999 8.43253 32.5684 8.76461 32.5684C9.09668 32.5684 9.41516 32.6999 9.64997 32.934C9.88478 33.1681 10.0167 33.4856 10.0167 33.8166V38.8091ZM15.025 38.8091C15.025 39.1401 14.8931 39.4576 14.6583 39.6917C14.4235 39.9257 14.105 40.0572 13.773 40.0572C13.4409 40.0572 13.1224 39.9257 12.8876 39.6917C12.6528 39.4576 12.5209 39.1401 12.5209 38.8091V33.8166C12.5209 33.4856 12.6528 33.1681 12.8876 32.934C13.1224 32.6999 13.4409 32.5684 13.773 32.5684C14.105 32.5684 14.4235 32.6999 14.6583 32.934C14.8931 33.1681 15.025 33.4856 15.025 33.8166V38.8091ZM20.0334 38.8091C20.0334 39.1401 19.9015 39.4576 19.6667 39.6917C19.4319 39.9257 19.1134 40.0572 18.7813 40.0572C18.4492 40.0572 18.1308 39.9257 17.8959 39.6917C17.6611 39.4576 17.5292 39.1401 17.5292 38.8091V33.8166C17.5292 33.4856 17.6611 33.1681 17.8959 32.934C18.1308 32.6999 18.4492 32.5684 18.7813 32.5684C19.1134 32.5684 19.4319 32.6999 19.6667 32.934C19.9015 33.1681 20.0334 33.4856 20.0334 33.8166V38.8091Z" fill="#FFA054"/>
<path d="M46.2269 30.072C43.5029 30.072 40.84 30.8772 38.5751 32.3858C36.3101 33.8945 34.5448 36.0387 33.5024 38.5474C32.4599 41.0562 32.1872 43.8167 32.7186 46.4799C33.2501 49.1432 34.5618 51.5895 36.488 53.5096C38.4142 55.4297 40.8683 56.7373 43.54 57.2671C46.2117 57.7968 48.9809 57.5249 51.4976 56.4858C54.0143 55.4466 56.1653 53.6869 57.6787 51.4291C59.1921 49.1713 59.9999 46.5169 59.9999 43.8015C59.9999 40.1602 58.5488 36.668 55.9659 34.0933C53.383 31.5185 49.8798 30.072 46.2269 30.072ZM52.1117 42.1664C51.8772 42.3989 51.5598 42.5293 51.229 42.5293C50.8982 42.5293 50.5809 42.3989 50.3463 42.1664L47.479 39.3082V51.2528C47.479 51.5838 47.3471 51.9013 47.1123 52.1353C46.8775 52.3694 46.559 52.5009 46.2269 52.5009C45.8949 52.5009 45.5764 52.3694 45.3416 52.1353C45.1068 51.9013 44.9749 51.5838 44.9749 51.2528V39.2583L42.1201 42.1165C41.8806 42.321 41.5725 42.4278 41.2573 42.4157C40.9422 42.4035 40.6433 42.2733 40.4203 42.051C40.1973 41.8287 40.0667 41.5308 40.0545 41.2166C40.0423 40.9025 40.1495 40.5954 40.3547 40.3566L45.363 35.3641C45.5976 35.1316 45.9149 35.0011 46.2457 35.0011C46.5765 35.0011 46.8938 35.1316 47.1284 35.3641L52.1368 40.3566C52.3667 40.5937 52.4931 40.9119 52.4884 41.2417C52.4837 41.5714 52.3483 41.8859 52.1117 42.1165V42.1664Z" fill="#FFA054"/>
</svg>
