<svg width="40" height="40" viewBox="0 0 40 40" fill="none" xmlns="http://www.w3.org/2000/svg">
<g clip-path="url(#clip0_254_12286)">
<path d="M2.85718 2.85712H4.28575V4.28569H2.85718V2.85712Z" fill="#FFA054"/>
<path d="M2.85718 25.7143H4.28575V27.1429H2.85718V25.7143Z" fill="#FFA054"/>
<path d="M0 23.5714V29.2857C0 29.4751 0.075255 29.6568 0.20921 29.7908C0.343164 29.9247 0.524845 30 0.714286 30H14.2857V22.8571H0.714286C0.524845 22.8571 0.343164 22.9324 0.20921 23.0663C0.075255 23.2003 0 23.382 0 23.5714ZM7.14286 25C7.14286 24.8105 7.21811 24.6289 7.35207 24.4949C7.48602 24.3609 7.6677 24.2857 7.85714 24.2857H10.7143C10.9037 24.2857 11.0854 24.3609 11.2194 24.4949C11.3533 24.6289 11.4286 24.8105 11.4286 25V27.8571C11.4286 28.0466 11.3533 28.2282 11.2194 28.3622C11.0854 28.4961 10.9037 28.5714 10.7143 28.5714H7.85714C7.6677 28.5714 7.48602 28.4961 7.35207 28.3622C7.21811 28.2282 7.14286 28.0466 7.14286 27.8571V25ZM1.42857 25C1.42857 24.8105 1.50383 24.6289 1.63778 24.4949C1.77174 24.3609 1.95342 24.2857 2.14286 24.2857H5C5.18944 24.2857 5.37112 24.3609 5.50508 24.4949C5.63903 24.6289 5.71429 24.8105 5.71429 25V27.8571C5.71429 28.0466 5.63903 28.2282 5.50508 28.3622C5.37112 28.4961 5.18944 28.5714 5 28.5714H2.14286C1.95342 28.5714 1.77174 28.4961 1.63778 28.3622C1.50383 28.2282 1.42857 28.0466 1.42857 27.8571V25Z" fill="#FFA054"/>
<path d="M7.14282 20H14.2857V21.4286H7.14282V20Z" fill="#FFA054"/>
<path d="M8.57141 25.7143H9.99998V27.1429H8.57141V25.7143Z" fill="#FFA054"/>
<path d="M2.85718 20H5.71432V21.4286H2.85718V20Z" fill="#FFA054"/>
<path d="M21.4286 8.57141H24.2857V9.99998H21.4286V8.57141Z" fill="#FFA054"/>
<path d="M27.1429 6.42857V0.714286C27.1429 0.524845 27.0676 0.343164 26.9336 0.20921C26.7997 0.075255 26.618 0 26.4286 0H0.714286C0.524845 0 0.343164 0.075255 0.20921 0.20921C0.075255 0.343164 0 0.524845 0 0.714286V6.42857C0 6.61801 0.075255 6.79969 0.20921 6.93365C0.343164 7.0676 0.524845 7.14286 0.714286 7.14286H26.4286C26.618 7.14286 26.7997 7.0676 26.9336 6.93365C27.0676 6.79969 27.1429 6.61801 27.1429 6.42857ZM5.71429 5C5.71429 5.18944 5.63903 5.37112 5.50508 5.50508C5.37112 5.63903 5.18944 5.71429 5 5.71429H2.14286C1.95342 5.71429 1.77174 5.63903 1.63778 5.50508C1.50383 5.37112 1.42857 5.18944 1.42857 5V2.14286C1.42857 1.95342 1.50383 1.77174 1.63778 1.63778C1.77174 1.50383 1.95342 1.42857 2.14286 1.42857H5C5.18944 1.42857 5.37112 1.50383 5.50508 1.63778C5.63903 1.77174 5.71429 1.95342 5.71429 2.14286V5ZM11.4286 5C11.4286 5.18944 11.3533 5.37112 11.2194 5.50508C11.0854 5.63903 10.9037 5.71429 10.7143 5.71429H7.85714C7.6677 5.71429 7.48602 5.63903 7.35207 5.50508C7.21811 5.37112 7.14286 5.18944 7.14286 5V2.14286C7.14286 1.95342 7.21811 1.77174 7.35207 1.63778C7.48602 1.50383 7.6677 1.42857 7.85714 1.42857H10.7143C10.9037 1.42857 11.0854 1.50383 11.2194 1.63778C11.3533 1.77174 11.4286 1.95342 11.4286 2.14286V5ZM22.8571 5.71429H12.8571V4.28571H22.8571V5.71429ZM22.8571 2.85714H12.8571V1.42857H22.8571V2.85714ZM25.7143 5.71429H24.2857V4.28571H25.7143V5.71429ZM25.7143 2.85714H24.2857V1.42857H25.7143V2.85714Z" fill="#FFA054"/>
<path d="M8.57141 2.85712H9.99998V4.28569H8.57141V2.85712Z" fill="#FFA054"/>
<path d="M7.14282 8.57141H20V9.99998H7.14282V8.57141Z" fill="#FFA054"/>
<path d="M2.85718 8.57141H5.71432V9.99998H2.85718V8.57141Z" fill="#FFA054"/>
<path d="M2.85718 14.2857H4.28575V15.7143H2.85718V14.2857Z" fill="#FFA054"/>
<path d="M27.8571 18.5714C34.5634 18.5714 39.9999 17.2922 39.9999 15.7143C39.9999 14.1363 34.5634 12.8571 27.8571 12.8571C21.1508 12.8571 15.7142 14.1363 15.7142 15.7143C15.7142 17.2922 21.1508 18.5714 27.8571 18.5714Z" fill="#FFA054"/>
<path d="M26.4286 11.4286H0.714286C0.524845 11.4286 0.343164 11.5038 0.20921 11.6378C0.075255 11.7718 0 11.9534 0 12.1429V17.8572C0 18.0466 0.075255 18.2283 0.20921 18.3622C0.343164 18.4962 0.524845 18.5714 0.714286 18.5714H14.2857V15.7143C14.2857 13.0857 20.2429 11.6286 26.5286 11.45C26.4961 11.4395 26.4625 11.4323 26.4286 11.4286ZM5.71429 16.4286C5.71429 16.618 5.63903 16.7997 5.50508 16.9337C5.37112 17.0676 5.18944 17.1429 5 17.1429H2.14286C1.95342 17.1429 1.77174 17.0676 1.63778 16.9337C1.50383 16.7997 1.42857 16.618 1.42857 16.4286V13.5714C1.42857 13.382 1.50383 13.2003 1.63778 13.0664C1.77174 12.9324 1.95342 12.8572 2.14286 12.8572H5C5.18944 12.8572 5.37112 12.9324 5.50508 13.0664C5.63903 13.2003 5.71429 13.382 5.71429 13.5714V16.4286ZM11.4286 16.4286C11.4286 16.618 11.3533 16.7997 11.2194 16.9337C11.0854 17.0676 10.9037 17.1429 10.7143 17.1429H7.85714C7.6677 17.1429 7.48602 17.0676 7.35207 16.9337C7.21811 16.7997 7.14286 16.618 7.14286 16.4286V13.5714C7.14286 13.382 7.21811 13.2003 7.35207 13.0664C7.48602 12.9324 7.6677 12.8572 7.85714 12.8572H10.7143C10.9037 12.8572 11.0854 12.9324 11.2194 13.0664C11.3533 13.2003 11.4286 13.382 11.4286 13.5714V16.4286Z" fill="#FFA054"/>
<path d="M15.7142 24.8715V30C15.7142 30.9715 19.9999 32.8572 27.8571 32.8572C35.7142 32.8572 39.9999 30.9715 39.9999 30V24.8715C37.6499 26.3643 32.7428 27.1429 27.8571 27.1429C22.9714 27.1429 18.0642 26.3643 15.7142 24.8715ZM28.5714 31.4286H27.1428V30H28.5714V31.4286Z" fill="#FFA054"/>
<path d="M15.7142 32.0143V37.1429C15.7142 38.1143 19.9999 40 27.8571 40C35.7142 40 39.9999 38.1143 39.9999 37.1429V32.0143C37.6499 33.5071 32.7428 34.2857 27.8571 34.2857C22.9714 34.2857 18.0642 33.5071 15.7142 32.0143ZM28.5714 37.8571H27.1428V36.4286H28.5714V37.8571Z" fill="#FFA054"/>
<path d="M15.7142 17.7286V22.8571C15.7142 23.8286 19.9999 25.7143 27.8571 25.7143C35.7142 25.7143 39.9999 23.8286 39.9999 22.8571V17.7286C37.6499 19.2214 32.7428 20 27.8571 20C22.9714 20 18.0642 19.2214 15.7142 17.7286ZM28.5714 23.5714H27.1428V22.1429H28.5714V23.5714Z" fill="#FFA054"/>
<path d="M8.57141 14.2857H9.99998V15.7143H8.57141V14.2857Z" fill="#FFA054"/>
</g>
<defs>
<clipPath id="clip0_254_12286">
<rect width="40" height="40" fill="white"/>
</clipPath>
</defs>
</svg>
