<svg width="39" height="40" viewBox="0 0 39 40" fill="none" xmlns="http://www.w3.org/2000/svg">
<g clip-path="url(#clip0_254_12239)">
<path d="M4.61987 30.6006L4.85422 30.6833V30.0599L4.61987 29.982V30.6006Z" fill="#FFA054"/>
<path d="M4.99854 30.7343L5.23882 30.8191V30.1877L4.99854 30.1078V30.7343Z" fill="#FFA054"/>
<path d="M5.23882 9.15076L4.99854 9.2358V9.86232L5.23882 9.78223V9.15076Z" fill="#FFA054"/>
<path d="M2.53931 20.2738L3.51526 20.2834V19.6882L2.53931 19.6987V20.2738Z" fill="#FFA054"/>
<path d="M3.51526 11.7466L2.53931 12.025V12.6001L3.51526 12.3417V11.7466Z" fill="#FFA054"/>
<path d="M4.25049 24.3624L4.47906 24.396V23.7809L4.25049 23.752V24.3624Z" fill="#FFA054"/>
<path d="M4.61987 21.7371V22.3559L4.85422 22.3742V21.7507L4.62015 21.7371L4.61987 21.7371Z" fill="#FFA054"/>
<path d="M4.25049 21.7158V22.3269L4.47906 22.3448V21.729L4.25065 21.7158H4.25049Z" fill="#FFA054"/>
<path d="M4.25049 20.2906L4.47906 20.2928V19.6778L4.25049 19.6803V20.2906Z" fill="#FFA054"/>
<path d="M4.47906 13.5228L4.25049 13.5723V14.1833L4.47906 14.1385V13.5228Z" fill="#FFA054"/>
<path d="M4.47906 11.4716L4.25049 11.5368V12.1471L4.47906 12.0866V11.4716Z" fill="#FFA054"/>
<path d="M4.85422 27.983L4.61987 27.9212V28.5391L4.85422 28.6057V27.983Z" fill="#FFA054"/>
<path d="M4.61987 24.4167L4.85422 24.4511V23.8284L4.61987 23.7987V24.4167Z" fill="#FFA054"/>
<path d="M4.61987 20.2942L4.85422 20.2965V19.6738L4.61987 19.6763V20.2942Z" fill="#FFA054"/>
<path d="M4.61987 18.2334L4.85422 18.2196V17.5961L4.61987 17.6147V18.2334Z" fill="#FFA054"/>
<path d="M4.85422 13.4415L4.61987 13.4923V14.1109L4.85422 14.065V13.4415Z" fill="#FFA054"/>
<path d="M4.85422 11.3646L4.61987 11.4315V12.0493L4.85422 11.9873V11.3646Z" fill="#FFA054"/>
<path d="M4.85422 9.28687L4.61987 9.36981V9.98853L4.85422 9.91042V9.28687Z" fill="#FFA054"/>
<path d="M5.23882 28.0844L4.99854 28.0211V28.6467L5.23882 28.715V28.0844Z" fill="#FFA054"/>
<path d="M4.99854 21.759V22.3856L5.23882 22.4044V21.7729L4.9988 21.759H4.99854Z" fill="#FFA054"/>
<path d="M4.99854 20.298L5.23882 20.3003V19.6696L4.99854 19.6722V20.298Z" fill="#FFA054"/>
<path d="M4.99854 18.2112L5.23882 18.197V17.5656L4.99854 17.5846V18.2112Z" fill="#FFA054"/>
<path d="M3.51526 13.7316L2.53931 13.9431V14.5189L3.51526 14.3275V13.7316Z" fill="#FFA054"/>
<path d="M3.51526 9.76075L2.53931 10.1061V10.682L3.51526 10.3567V9.76075Z" fill="#FFA054"/>
<path d="M1.82373 31.4807L6.11132 33.2878V6.71228L1.82373 8.51932V31.4807ZM2.35336 9.73611L3.49065 9.31573L5.43037 8.5988V10.232L2.35338 11.2063L2.35336 9.73611ZM2.35336 11.6422L5.43037 10.7161V12.3492L3.11653 12.9231L2.35336 13.1124V11.6422ZM2.35336 13.5475L3.06831 13.3814L5.43036 12.8326V14.4656L2.9054 14.9187L2.35336 15.0177V13.5475ZM2.35336 17.3589L5.43037 17.0662V18.6993L2.35336 18.829V17.3589ZM2.35336 19.2649L5.43037 19.1834V20.8166L2.35336 20.7352V19.2649ZM2.35336 21.1702L5.43037 21.2999V22.933L2.35336 22.6405V21.1702ZM2.35336 23.0762L5.43037 23.4171V25.0503L2.35336 24.5465V23.0762ZM2.35336 26.8877L5.43037 27.6508V29.2839L3.53693 28.7141L2.35336 28.3578V26.8877ZM2.35336 28.793L5.43037 29.7673V31.4003L2.35336 30.2632V28.793Z" fill="#FFA054"/>
<path d="M2.53931 29.8664L3.51523 30.2108L3.51526 29.6149L2.53931 29.2906V29.8664Z" fill="#FFA054"/>
<path d="M4.47906 27.8841L4.25049 27.8238V28.4341L4.47906 28.499V27.8841Z" fill="#FFA054"/>
<path d="M2.53931 27.9476L3.51526 28.225V27.6299L2.53931 27.3725V27.9476Z" fill="#FFA054"/>
<path d="M2.53931 24.1107L3.51526 24.2542V23.659L2.53931 23.5356V24.1107Z" fill="#FFA054"/>
<path d="M2.53931 22.1926L3.51526 22.2692V21.6732L2.53931 21.6168V22.1926Z" fill="#FFA054"/>
<path d="M2.53931 18.3558L3.51526 18.2984V17.7024L2.53931 17.7799V18.3558Z" fill="#FFA054"/>
<path d="M4.25049 30.4703L4.47906 30.551V29.9352L4.25049 29.8593V30.4703Z" fill="#FFA054"/>
<path d="M4.25049 18.2551L4.47906 18.2417V17.6259L4.25049 17.644V18.2551Z" fill="#FFA054"/>
<path d="M4.47906 10.0354V9.41962L4.25049 9.50051V10.1116L4.47906 10.0354Z" fill="#FFA054"/>
<path d="M4.99854 24.4724L5.23882 24.5077V23.877L4.99854 23.8466V24.4724Z" fill="#FFA054"/>
<path d="M5.23882 13.9895V13.3582L4.99854 13.4102V14.0367L5.23882 13.9895Z" fill="#FFA054"/>
<path d="M5.23882 11.2549L4.99854 11.3234V11.9491L5.23882 11.8855V11.2549Z" fill="#FFA054"/>
<path d="M10.3354 32.6178L10.6679 32.7352V31.992L10.3354 31.8815V32.6178Z" fill="#FFA054"/>
<path d="M10.8733 32.8076L11.2159 32.9285V32.174L10.8733 32.0602V32.8076Z" fill="#FFA054"/>
<path d="M10.8733 30.3168L11.2159 30.4142V29.6607L10.8733 29.5703V30.3168Z" fill="#FFA054"/>
<path d="M10.6679 7.22931L10.3354 7.34697V8.08343L10.6679 7.97262V7.22931Z" fill="#FFA054"/>
<path d="M11.2159 7.0354L10.8733 7.15666V7.9042L11.2159 7.79V7.0354Z" fill="#FFA054"/>
<path d="M7.42603 31.591L8.78128 32.0694V31.365L7.42603 30.9146V31.591Z" fill="#FFA054"/>
<path d="M7.42604 29.3368L8.78129 29.7221V29.0187L7.42604 28.6613V29.3368Z" fill="#FFA054"/>
<path d="M7.42603 27.0835L8.78128 27.3758V26.6714L7.42603 26.407V27.0835Z" fill="#FFA054"/>
<path d="M8.78128 17.2842L7.42603 17.3919V18.0684L8.78128 17.9887V17.2842Z" fill="#FFA054"/>
<path d="M8.78128 14.9379L7.42603 15.1385V15.8141L8.78128 15.6413V14.9379Z" fill="#FFA054"/>
<path d="M9.81323 32.4336L10.1361 32.5475V31.8152L9.81323 31.7079V32.4336Z" fill="#FFA054"/>
<path d="M10.1361 26.9357L9.81323 26.8727V27.5984L10.1361 27.668V26.9357Z" fill="#FFA054"/>
<path d="M9.81323 19.6203V20.3451L10.1361 20.3483V19.6168L9.81323 19.6203Z" fill="#FFA054"/>
<path d="M10.1361 14.7373L9.81323 14.7851V15.5098L10.1361 15.4686V14.7373Z" fill="#FFA054"/>
<path d="M10.1361 12.2971L9.81323 12.3671V13.0927L10.1361 13.0294V12.2971Z" fill="#FFA054"/>
<path d="M10.3354 30.164L10.6679 30.2585V29.5162L10.3354 29.4285V30.164Z" fill="#FFA054"/>
<path d="M10.3354 22.0676V22.8041L10.6679 22.8302V22.0868L10.3358 22.0676L10.3354 22.0676Z" fill="#FFA054"/>
<path d="M10.3354 19.6147V20.3503L10.6679 20.3535V19.6111L10.3354 19.6147Z" fill="#FFA054"/>
<path d="M10.6679 17.1344L10.3354 17.1608V17.8973L10.6679 17.8777V17.1344Z" fill="#FFA054"/>
<path d="M10.6679 12.1819L10.3354 12.2539V12.9903L10.6679 12.9251V12.1819Z" fill="#FFA054"/>
<path d="M11.2159 27.1463L10.8733 27.0795V27.827L11.2159 27.9009V27.1463Z" fill="#FFA054"/>
<path d="M10.8733 22.0988V22.8463L11.2159 22.8732V22.1186L10.8736 22.0988L10.8733 22.0988Z" fill="#FFA054"/>
<path d="M10.8733 19.6089V20.3555L11.2159 20.3589V19.6052L10.8733 19.6089Z" fill="#FFA054"/>
<path d="M11.2159 17.0909L10.8733 17.1181V17.8656L11.2159 17.8455V17.0909Z" fill="#FFA054"/>
<path d="M11.2159 12.0632L10.8733 12.1374V12.8848L11.2159 12.8177V12.0632Z" fill="#FFA054"/>
<path d="M9.81323 30.0155L10.1361 30.1073V29.376L9.81323 29.2908V30.0155Z" fill="#FFA054"/>
<path d="M10.1361 17.1766L9.81323 17.2023V17.928L10.1361 17.909V17.1766Z" fill="#FFA054"/>
<path d="M6.44287 6.74666V33.2534V33.4275L12.4687 35.9672V4.0329L6.44287 6.57252V6.74666ZM7.16978 7.9559L10.3239 6.79009L11.4898 6.3592V8.31319L7.1698 9.68116L7.16978 7.9559ZM7.16978 12.4284L11.4898 11.4246V13.3785L7.16985 14.1536L7.16978 12.4284ZM7.16978 14.665L11.4898 13.9577V15.9116L7.16984 16.3902L7.16978 14.665ZM7.16978 16.9008L11.4898 16.4899V18.4438L7.16991 18.626H7.16978V16.9008ZM7.16978 19.1374L11.4898 19.023V20.977L7.16978 20.8627V19.1374ZM7.16978 21.3732L11.4898 21.5552V23.5092L7.16978 23.0984V21.3732ZM7.16978 25.8455L11.4898 26.6205V28.5745L8.89794 27.9723L7.16978 27.5708V25.8455ZM7.16978 28.0823L11.4898 29.1537V31.1076L7.16978 29.8074V28.0823ZM7.16978 30.318L11.4898 31.6859V33.6398L7.16978 32.0432V30.318Z" fill="#FFA054"/>
<path d="M7.42603 22.5759L8.78128 22.6822V21.9778L7.42603 21.8994V22.5759Z" fill="#FFA054"/>
<path d="M7.42603 19.6461V20.3218L8.78128 20.335V19.6315L7.42603 19.6461Z" fill="#FFA054"/>
<path d="M8.78128 12.5906L7.42603 12.8843V13.5607L8.78128 13.295V12.5906Z" fill="#FFA054"/>
<path d="M8.78128 7.89698L7.42603 8.37662V9.05315L8.78128 8.60144V7.89698Z" fill="#FFA054"/>
<path d="M10.1361 22.0561L9.81349 22.0375L9.81323 22.0375V22.7632L10.1361 22.7885V22.0561Z" fill="#FFA054"/>
<path d="M10.1361 7.41748L9.81323 7.53173V8.25745L10.1361 8.14985V7.41748Z" fill="#FFA054"/>
<path d="M10.6679 27.0394L10.3354 26.9745V27.711L10.6679 27.7827V27.0394Z" fill="#FFA054"/>
<path d="M10.6679 14.6586L10.3354 14.7079V15.4433L10.6679 15.4009V14.6586Z" fill="#FFA054"/>
<path d="M11.2159 14.5775L10.8733 14.6282V15.3747L11.2159 15.3311V14.5775Z" fill="#FFA054"/>
<path d="M16.391 33.894L16.2068 33.8328L14.3833 33.2267V34.0464L16.391 34.755V33.894Z" fill="#FFA054"/>
<path d="M18.4345 34.5731L17.9438 34.41V35.3031L18.4345 35.4763V34.5731Z" fill="#FFA054"/>
<path d="M19.2465 34.8428L18.7375 34.6737V35.5831L19.2465 35.7628V34.8428Z" fill="#FFA054"/>
<path d="M20.0889 28.8772L19.5608 28.7742V29.7007L20.0889 29.8146V28.8772Z" fill="#FFA054"/>
<path d="M18.4345 4.48059L17.9438 4.65423V5.54742L18.4345 5.3839V4.48059Z" fill="#FFA054"/>
<path d="M19.2465 4.1933L18.7375 4.37341V5.28295L19.2465 5.11333V4.1933Z" fill="#FFA054"/>
<path d="M20.0889 3.89514L19.5608 4.08206V5.00853L20.0889 4.83253V3.89514Z" fill="#FFA054"/>
<path d="M16.391 5.2038L14.3833 5.91436L15.3098 5.58644L16.391 5.2038Z" fill="#FFA054"/>
<path d="M18.4345 7.49054L17.9438 7.6305V8.52244L18.4345 8.39259V7.49054Z" fill="#FFA054"/>
<path d="M19.2465 7.25891L18.7375 7.40411V8.31238L19.2465 8.17767V7.25891Z" fill="#FFA054"/>
<path d="M20.0889 7.01862L19.5608 7.16928V8.09448L20.0889 7.9547V7.01862Z" fill="#FFA054"/>
<path d="M16.391 8.07349L14.3833 8.64624V9.46495L16.3911 8.9335L16.391 8.07349Z" fill="#FFA054"/>
<path d="M20.0889 10.1407L19.5608 10.2552V11.1815L20.0889 11.078V10.1407Z" fill="#FFA054"/>
<path d="M18.4345 22.5361L17.9442 22.5077L17.9438 22.5077V23.4009L18.4345 23.4394V22.5361Z" fill="#FFA054"/>
<path d="M16.3911 22.4179L14.3833 22.3018V23.1216L16.3911 23.2791V22.4179Z" fill="#FFA054"/>
<path d="M16.391 19.5494L14.3833 19.5711V20.3899L16.391 20.4096V19.5494Z" fill="#FFA054"/>
<path d="M16.391 13.8115L14.3833 14.1087V14.9274L16.391 14.6715V13.8115Z" fill="#FFA054"/>
<path d="M16.3911 5.20386L14.3834 5.91441L14.3833 6.73426L16.3911 6.06509V5.20386Z" fill="#FFA054"/>
<path d="M20.0889 19.5096L19.5608 19.5153V20.4406L20.0889 20.4458V19.5096Z" fill="#FFA054"/>
<path d="M18.4345 19.5274L17.9438 19.5327V20.4248L18.4345 20.4296V19.5274Z" fill="#FFA054"/>
<path d="M18.4345 13.509L17.9438 13.5816V14.4735L18.4345 14.411V13.509Z" fill="#FFA054"/>
<path d="M19.2465 10.3233L18.7375 10.4336V11.343L19.2465 11.2432V10.3233Z" fill="#FFA054"/>
<path d="M20.0889 25.7551L19.5608 25.6883V26.6136L20.0889 26.6913V25.7551Z" fill="#FFA054"/>
<path d="M20.0889 35.1228L19.5608 34.9473V35.8737L20.0889 36.0601V35.1228Z" fill="#FFA054"/>
<path d="M16.2573 33.7966L16.2574 33.7966L16.3294 33.9768L16.3293 33.9768L16.2573 33.7966Z" fill="#FFA054"/>
<path d="M16.3911 28.1558L14.3833 27.7642V28.584L16.3911 29.017V28.1558Z" fill="#FFA054"/>
<path d="M16.3911 25.2874L14.3833 25.0335V25.8523L16.3911 26.1476V25.2874Z" fill="#FFA054"/>
<path d="M16.3911 10.942L14.3834 11.3769L14.3833 12.1967L16.3911 11.8031V10.942Z" fill="#FFA054"/>
<path d="M18.4345 28.5545L17.9438 28.4588V29.352L18.4345 29.4578V28.5545Z" fill="#FFA054"/>
<path d="M18.4345 25.5458L17.9438 25.4838V26.3758L18.4345 26.448V25.5458Z" fill="#FFA054"/>
<path d="M18.4345 10.4992L17.9438 10.6055V11.4986L18.4345 11.4024V10.4992Z" fill="#FFA054"/>
<path d="M19.2465 28.7129L18.7375 28.6136V29.5231L19.2465 29.6329V28.7129Z" fill="#FFA054"/>
<path d="M19.2465 25.6485L18.7375 25.5842V26.4926L19.2465 26.5674V25.6485Z" fill="#FFA054"/>
<path d="M19.2465 22.583L18.7379 22.5536H18.7375V23.4631L19.2465 23.5031V22.583Z" fill="#FFA054"/>
<path d="M19.2465 19.5187L18.7375 19.5242V20.4325L19.2465 20.4376V19.5187Z" fill="#FFA054"/>
<path d="M19.2465 13.3888L18.7375 13.4641V14.3724L19.2465 14.3075V13.3888Z" fill="#FFA054"/>
<path d="M20.0889 22.6317L19.5611 22.6012H19.5608V23.5277L20.0889 23.5691V22.6317Z" fill="#FFA054"/>
<path d="M20.0889 13.2641L19.5608 13.3423V14.2675L20.0889 14.2002V13.2641Z" fill="#FFA054"/>
<path d="M22.0374 0L12.9485 3.83064V4.0958V35.9042V36.1694L22.0374 40L34.1761 37.836V2.16403L22.0374 0ZM20.5122 36.9742L16.3942 35.4523L14.0074 34.5702V32.4831L20.5122 34.5427V36.9742ZM20.5122 30.6706L14.0074 29.1594V27.0721L20.5122 28.239V30.6706ZM20.5122 27.5194L16.7827 26.9088L14.0074 26.4545V24.3672L20.5122 25.0878V27.5194ZM20.5122 24.367L18.7151 24.1962L14.0074 23.7485V21.6613L20.5122 21.9354V24.367ZM20.5122 21.2158L14.0074 21.0436V18.9564L20.5122 18.7842V21.2158ZM20.5122 14.9121L14.0075 15.6327L14.0074 13.5455L20.5122 12.4806V14.9121ZM20.5122 11.7597L14.0075 12.9267L14.0074 10.8396L20.5122 9.32816V11.7597ZM20.5122 8.60848L14.0075 10.2218L14.0075 8.13468L15.536 7.67463L17.0171 7.22888L20.5122 6.17697V8.60848ZM20.5122 5.4561L14.0075 7.5159L14.0075 5.42862L20.5122 3.02443L20.5122 5.4561Z" fill="#FFA054"/>
</g>
<defs>
<clipPath id="clip0_254_12239">
<rect width="38.0488" height="40" fill="white"/>
</clipPath>
</defs>
</svg>
