<svg width="54" height="54" viewBox="0 0 54 54" fill="none" xmlns="http://www.w3.org/2000/svg">
<g clip-path="url(#clip0_254_11809)">
<path d="M40.11 22.5097C39.9673 20.9258 39.3261 19.4278 38.2786 18.2311C37.2311 17.0345 35.8311 16.2007 34.28 15.8497C34.1239 13.9941 33.2822 12.263 31.919 10.9944C30.5558 9.72568 28.7688 9.01033 26.9067 8.98785C25.0446 8.96537 23.2409 9.63737 21.8475 10.8728C20.454 12.1082 19.5708 13.8184 19.37 15.6697C17.4963 15.6702 15.6909 16.3728 14.3099 17.6391C12.9288 18.9053 12.0726 20.6432 11.91 22.5097C10.1102 22.9116 8.52187 23.9633 7.4493 25.4634C6.37673 26.9636 5.89528 28.8067 6.09716 30.6397C6.29904 32.4727 7.17006 34.1669 8.5434 35.3976C9.91674 36.6284 11.6958 37.3092 13.54 37.3097H16V35.6497H13.49C11.9451 35.7452 10.4255 35.2231 9.26563 34.1982C8.10572 33.1733 7.40044 31.7296 7.30497 30.1847C7.20949 28.6399 7.73162 27.1203 8.75651 25.9604C9.7814 24.8005 11.2251 24.0952 12.77 23.9997C12.9747 23.9619 13.1593 23.8528 13.2912 23.6916C13.423 23.5305 13.4934 23.3279 13.49 23.1197C13.4926 21.5743 14.1077 20.093 15.2005 19.0002C16.2932 17.9075 17.7746 17.2924 19.32 17.2897H20.15C20.3661 17.2927 20.575 17.2122 20.7333 17.0651C20.8916 16.918 20.9871 16.7155 21 16.4997C20.9674 15.7145 21.094 14.9308 21.3721 14.1957C21.6501 13.4606 22.0739 12.7893 22.618 12.2222C23.1622 11.655 23.8153 11.2038 24.5383 10.8955C25.2612 10.5872 26.039 10.4283 26.825 10.4283C27.6109 10.4283 28.3887 10.5872 29.1117 10.8955C29.8346 11.2038 30.4878 11.655 31.0319 12.2222C31.576 12.7893 31.9998 13.4606 32.2779 14.1957C32.5559 14.9308 32.6825 15.7145 32.65 16.4997V16.5997C32.6509 16.8019 32.7256 16.9967 32.86 17.1477C32.9944 17.2986 33.1793 17.3954 33.38 17.4197C34.7828 17.5968 36.0734 18.2775 37.0116 19.3353C37.9499 20.3931 38.4717 21.7558 38.48 23.1697V23.2597C38.4787 23.4625 38.5527 23.6585 38.6875 23.8099C38.8223 23.9614 39.0084 24.0575 39.21 24.0797C40.6748 24.2727 42.0117 25.0146 42.9505 26.1554C43.8893 27.2963 44.3599 28.7511 44.2672 30.2257C44.1745 31.7002 43.5254 33.0846 42.4511 34.0989C41.3768 35.1132 39.9574 35.6818 38.48 35.6897H37.65V37.3497H38.48C40.325 37.3517 42.1057 36.6726 43.481 35.4426C44.8562 34.2127 45.729 32.5184 45.9322 30.6847C46.1354 28.8509 45.6547 27.0067 44.5821 25.5055C43.5095 24.0043 41.9206 22.9518 40.12 22.5497L40.11 22.5097Z" fill="#FFA054"/>
<path d="M22.65 16.4998H24.32C24.3187 16.172 24.3821 15.8471 24.5067 15.5439C24.6312 15.2406 24.8144 14.965 25.0458 14.7327C25.2771 14.5004 25.5521 14.3161 25.8548 14.1903C26.1576 14.0646 26.4822 13.9998 26.81 13.9998V12.3398C25.7067 12.3398 24.6486 12.7781 23.8685 13.5583C23.0883 14.3384 22.65 15.3965 22.65 16.4998Z" fill="#FFA054"/>
<path d="M35.9999 28.1502H33.8999C33.8099 27.9102 33.7099 27.6602 33.5999 27.4302L35.0899 25.9402C35.2444 25.7847 35.3312 25.5744 35.3312 25.3552C35.3312 25.136 35.2444 24.9257 35.0899 24.7702L32.6999 22.4102C32.6228 22.3322 32.5309 22.2702 32.4296 22.228C32.3283 22.1857 32.2197 22.1639 32.1099 22.1639C32.0002 22.1639 31.8916 22.1857 31.7903 22.228C31.689 22.2702 31.5971 22.3322 31.5199 22.4102L29.9999 23.9002C29.763 23.7824 29.5192 23.6789 29.2699 23.5902V21.4902C29.2699 21.3812 29.2485 21.2732 29.2068 21.1725C29.1651 21.0718 29.1039 20.9803 29.0268 20.9033C28.9498 20.8262 28.8583 20.765 28.7576 20.7233C28.6569 20.6816 28.5489 20.6602 28.4399 20.6602H25.1499C25.0409 20.6602 24.933 20.6816 24.8323 20.7233C24.7316 20.765 24.6401 20.8262 24.563 20.9033C24.486 20.9803 24.4248 21.0718 24.3831 21.1725C24.3414 21.2732 24.3199 21.3812 24.3199 21.4902V23.5902C24.0699 23.6802 23.8299 23.7802 23.5899 23.8902L22.0999 22.4102C22.0236 22.3325 21.9326 22.2707 21.8321 22.2286C21.7317 22.1865 21.6239 22.1648 21.5149 22.1648C21.406 22.1648 21.2982 22.1865 21.1978 22.2286C21.0973 22.2707 21.0063 22.3325 20.9299 22.4102L18.5699 24.7702C18.4154 24.9257 18.3287 25.136 18.3287 25.3552C18.3287 25.5744 18.4154 25.7847 18.5699 25.9402L20.0599 27.4302C19.9422 27.6637 19.8387 27.9041 19.7499 28.1502H17.6599C17.438 28.1528 17.2258 28.2421 17.0688 28.3991C16.9119 28.556 16.8225 28.7682 16.8199 28.9902V32.3202C16.8226 32.5412 16.9122 32.7523 17.0695 32.9077C17.2267 33.063 17.4389 33.1502 17.6599 33.1502H19.7499C19.8387 33.3994 19.9422 33.6432 20.0599 33.8802L18.5699 35.3602C18.4172 35.5186 18.3318 35.7301 18.3318 35.9502C18.3318 36.1702 18.4172 36.3817 18.5699 36.5402L20.9299 38.8902C21.0063 38.9679 21.0973 39.0296 21.1978 39.0717C21.2982 39.1138 21.406 39.1355 21.5149 39.1355C21.6239 39.1355 21.7317 39.1138 21.8321 39.0717C21.9326 39.0296 22.0236 38.9679 22.0999 38.8902L23.5899 37.4102C23.8299 37.5202 24.0699 37.6202 24.3199 37.7102V39.8102C24.3199 40.0303 24.4074 40.2414 24.563 40.3971C24.7187 40.5527 24.9298 40.6402 25.1499 40.6402H28.4799C28.7001 40.6402 28.9112 40.5527 29.0668 40.3971C29.2225 40.2414 29.3099 40.0303 29.3099 39.8102V37.7102C29.5599 37.6202 29.7999 37.5202 30.0399 37.4102L31.5199 38.8902C31.5971 38.9682 31.689 39.0301 31.7903 39.0724C31.8916 39.1146 32.0002 39.1364 32.1099 39.1364C32.2197 39.1364 32.3283 39.1146 32.4296 39.0724C32.5309 39.0301 32.6228 38.9682 32.6999 38.8902L35.0599 36.5402C35.2127 36.3817 35.2981 36.1702 35.2981 35.9502C35.2981 35.7301 35.2127 35.5186 35.0599 35.3602L33.5699 33.8802C33.6799 33.6402 33.7799 33.4002 33.8699 33.1502H35.9999C36.2201 33.1502 36.4312 33.0627 36.5868 32.9071C36.7425 32.7514 36.8299 32.5403 36.8299 32.3202V29.0002C36.8313 28.8898 36.8108 28.7804 36.7698 28.6779C36.7288 28.5755 36.6681 28.4822 36.591 28.4032C36.5139 28.3243 36.4221 28.2613 36.3206 28.2179C36.2192 28.1745 36.1103 28.1515 35.9999 28.1502Z" fill="#FFA054"/>
<path d="M26.81 27.3193C26.1514 27.3193 25.5075 27.5146 24.9599 27.8805C24.4123 28.2464 23.9855 28.7665 23.7335 29.375C23.4814 29.9835 23.4155 30.653 23.544 31.299C23.6725 31.9449 23.9896 32.5383 24.4553 33.004C24.921 33.4697 25.5144 33.7869 26.1603 33.9154C26.8063 34.0438 27.4758 33.9779 28.0843 33.7259C28.6928 33.4738 29.2129 33.047 29.5788 32.4994C29.9447 31.9518 30.14 31.3079 30.14 30.6493C30.14 30.212 30.0538 29.779 29.8865 29.375C29.7192 28.971 29.4739 28.6039 29.1646 28.2947C28.8554 27.9855 28.4883 27.7402 28.0843 27.5728C27.6803 27.4055 27.2473 27.3193 26.81 27.3193ZM26.81 32.3193C26.4797 32.3193 26.1568 32.2214 25.8822 32.0379C25.6076 31.8544 25.3935 31.5936 25.2671 31.2884C25.1407 30.9833 25.1076 30.6475 25.1721 30.3235C25.2365 29.9996 25.3956 29.702 25.6291 29.4685C25.8627 29.2349 26.1602 29.0759 26.4842 29.0114C26.8081 28.947 27.1439 28.9801 27.4491 29.1065C27.7542 29.2329 28.015 29.4469 28.1985 29.7215C28.382 29.9962 28.48 30.319 28.48 30.6493C28.4813 30.869 28.439 31.0868 28.3556 31.29C28.2721 31.4932 28.1491 31.6778 27.9938 31.8332C27.8385 31.9885 27.6538 32.1115 27.4506 32.1949C27.2474 32.2784 27.0297 32.3207 26.81 32.3193Z" fill="white"/>
<path d="M26 39.8098V43.9998H9.32996V45.6698H26.05C26.4823 45.6567 26.8923 45.4744 27.1915 45.1621C27.4908 44.8497 27.6554 44.4323 27.65 43.9998V39.8098H26Z" fill="#FFA054"/>
<path d="M42.6301 43.9697H29.3101V45.6397H42.6301V43.9697Z" fill="#FFA054"/>
<path d="M7.67 43.9697H6V45.6397H7.67V43.9697Z" fill="#FFA054"/>
<path d="M48.69 43.8594H46.91V45.6394H48.69V43.8594Z" fill="#FFA054"/>
</g>
<defs>
<clipPath id="clip0_254_11809">
<rect width="42.69" height="36.64" fill="white" transform="translate(6 9)"/>
</clipPath>
</defs>
</svg>
