<svg width="54" height="54" viewBox="0 0 54 54" fill="none" xmlns="http://www.w3.org/2000/svg">
<g clip-path="url(#clip0_254_11779)">
<path d="M41.8701 18.07C41.7135 18.0602 41.5566 18.0602 41.4001 18.07C40.8361 16.2769 39.6989 14.7186 38.1633 13.6346C36.6276 12.5506 34.7785 12.0009 32.9001 12.07C31.8602 10.2404 30.3574 8.71644 28.5425 7.65103C26.7276 6.58563 24.6645 6.01624 22.5601 6C19.9502 6.02139 17.4185 6.89305 15.3487 8.48287C13.2789 10.0727 11.7838 12.294 11.0901 14.81C9.61191 15.4682 8.35003 16.531 7.45004 17.8757C6.55005 19.2204 6.04864 20.7921 6.00368 22.4096C5.95872 24.027 6.37205 25.6242 7.19595 27.0168C8.01986 28.4094 9.22076 29.5407 10.6601 30.28V34.71H43.7901V30.93C45.301 30.4742 46.5975 29.4897 47.4422 28.1566C48.287 26.8234 48.6236 25.2308 48.3906 23.6698C48.1575 22.1089 47.3704 20.684 46.1731 19.6557C44.9757 18.6275 43.4483 18.0646 41.8701 18.07ZM27.5501 30.78H15.0001C14.5094 30.78 14.0388 30.5851 13.6919 30.2381C13.345 29.8912 13.1501 29.4207 13.1501 28.93C13.1501 28.4394 13.345 27.9688 13.6919 27.6219C14.0388 27.2749 14.5094 27.08 15.0001 27.08H27.5501C28.0407 27.08 28.5113 27.2749 28.8582 27.6219C29.2051 27.9688 29.4001 28.4394 29.4001 28.93C29.4001 29.4207 29.2051 29.8912 28.8582 30.2381C28.5113 30.5851 28.0407 30.78 27.5501 30.78ZM33.5501 30.78C33.1842 30.78 32.8265 30.6715 32.5223 30.4682C32.218 30.2649 31.9809 29.976 31.8409 29.638C31.7009 29.2999 31.6642 28.9279 31.7356 28.5691C31.807 28.2102 31.9832 27.8806 32.2419 27.6219C32.5006 27.3631 32.8303 27.1869 33.1891 27.1155C33.548 27.0442 33.92 27.0808 34.258 27.2208C34.5961 27.3608 34.885 27.598 35.0883 27.9022C35.2916 28.2064 35.4001 28.5641 35.4001 28.93C35.4001 29.4155 35.2093 29.8816 34.8689 30.2277C34.5284 30.5737 34.0655 30.7721 33.5801 30.78H33.5501ZM39.1101 30.78C38.746 30.7721 38.3923 30.657 38.0934 30.449C37.7945 30.241 37.5636 29.9493 37.4297 29.6107C37.2958 29.272 37.2648 28.9014 37.3406 28.5452C37.4164 28.189 37.5957 27.8631 37.856 27.6084C38.1162 27.3536 38.4459 27.1814 38.8036 27.1132C39.1613 27.045 39.5312 27.0839 39.8669 27.225C40.2027 27.3661 40.4893 27.6032 40.6908 27.9065C40.8924 28.2098 41 28.5658 41.0001 28.93C41.0001 29.1738 40.9519 29.4152 40.8583 29.6403C40.7647 29.8654 40.6275 30.0698 40.4547 30.2417C40.2818 30.4136 40.0767 30.5497 39.8511 30.6421C39.6255 30.7344 39.3838 30.7813 39.1401 30.78H39.1101ZM43.7601 28.25V24.64C43.7574 24.3102 43.6246 23.9948 43.3904 23.7626C43.1563 23.5303 42.8398 23.4 42.5101 23.4H11.9101C11.5803 23.4 11.2638 23.5303 11.0297 23.7626C10.7956 23.9948 10.6627 24.3102 10.6601 24.64V27.3C9.84207 26.608 9.22113 25.7125 8.8599 24.7038C8.49867 23.6951 8.40994 22.609 8.60268 21.555C8.79541 20.5011 9.26278 19.5167 9.9576 18.7011C10.6524 17.8855 11.5501 17.2677 12.5601 16.91C12.762 16.8408 12.9426 16.7208 13.0845 16.5613C13.2264 16.4019 13.3248 16.2086 13.3701 16C13.8204 13.891 14.9763 11.9986 16.6471 10.6351C18.3179 9.27155 20.4036 8.51843 22.5601 8.5C24.3446 8.51788 26.088 9.03752 27.5912 9.99952C29.0943 10.9615 30.2964 12.327 31.0601 13.94C31.1734 14.1798 31.3612 14.3765 31.5955 14.5009C31.8297 14.6252 32.0979 14.6705 32.3601 14.63C32.645 14.5898 32.9323 14.5697 33.2201 14.57C34.6715 14.5547 36.0793 15.066 37.1825 16.0093C38.2858 16.9526 39.0097 18.2638 39.2201 19.7C39.2484 19.8744 39.3129 20.041 39.4093 20.1891C39.5057 20.3372 39.632 20.4635 39.7801 20.56C39.9268 20.6539 40.0918 20.7157 40.2641 20.7416C40.4364 20.7674 40.6122 20.7567 40.7801 20.71C41.1327 20.618 41.4956 20.5709 41.8601 20.57C42.77 20.57 43.6537 20.8742 44.3709 21.4341C45.0881 21.9941 45.5975 22.7777 45.8182 23.6605C46.0389 24.5432 45.9582 25.4744 45.5889 26.3059C45.2196 27.1375 44.5829 27.8218 43.7801 28.25H43.7601Z" fill="#FFA054"/>
<path d="M13.16 37.2197H10.66V47.3697C10.66 47.7012 10.7917 48.0192 11.0262 48.2536C11.2606 48.488 11.5785 48.6197 11.91 48.6197H42.54C42.8716 48.6197 43.1895 48.488 43.4239 48.2536C43.6583 48.0192 43.79 47.7012 43.79 47.3697V37.2197H13.16ZM27.55 44.7697H15C14.5094 44.7697 14.0388 44.5748 13.6919 44.2279C13.3449 43.8809 13.15 43.4104 13.15 42.9197C13.15 42.4291 13.3449 41.9585 13.6919 41.6116C14.0388 41.2646 14.5094 41.0697 15 41.0697H27.55C28.0407 41.0697 28.5112 41.2646 28.8582 41.6116C29.2051 41.9585 29.4 42.4291 29.4 42.9197C29.4 43.4104 29.2051 43.8809 28.8582 44.2279C28.5112 44.5748 28.0407 44.7697 27.55 44.7697ZM33.55 44.7697C33.1841 44.7697 32.8265 44.6612 32.5222 44.4579C32.218 44.2547 31.9809 43.9657 31.8409 43.6277C31.7008 43.2896 31.6642 42.9177 31.7356 42.5588C31.807 42.1999 31.9832 41.8703 32.2419 41.6116C32.5006 41.3529 32.8303 41.1767 33.1891 41.1053C33.548 41.0339 33.92 41.0705 34.258 41.2106C34.596 41.3506 34.885 41.5877 35.0883 41.8919C35.2915 42.1962 35.4 42.5538 35.4 42.9197C35.4001 43.4052 35.2093 43.8713 34.8688 44.2174C34.5284 44.5635 34.0655 44.7619 33.58 44.7697H33.55ZM39.11 44.7697C38.7459 44.7619 38.3923 44.6467 38.0934 44.4387C37.7944 44.2307 37.5636 43.9391 37.4296 43.6004C37.2957 43.2618 37.2648 42.8911 37.3406 42.5349C37.4164 42.1787 37.5957 41.8528 37.856 41.5981C38.1162 41.3434 38.4458 41.1711 38.8036 41.1029C39.1613 41.0347 39.5312 41.0736 39.8669 41.2147C40.2026 41.3558 40.4892 41.5929 40.6908 41.8962C40.8924 42.1995 40.9999 42.5556 41 42.9197C41 43.1635 40.9519 43.4049 40.8583 43.63C40.7647 43.8551 40.6275 44.0595 40.4547 44.2314C40.2818 44.4033 40.0767 44.5394 39.8511 44.6318C39.6255 44.7242 39.3838 44.771 39.14 44.7697H39.11Z" fill="#FFA054"/>
</g>
<defs>
<clipPath id="clip0_254_11779">
<rect width="42.45" height="42.62" fill="white" transform="translate(6 6)"/>
</clipPath>
</defs>
</svg>
