<svg width="54" height="54" viewBox="0 0 54 54" fill="none" xmlns="http://www.w3.org/2000/svg">
<g clip-path="url(#clip0_254_11791)">
<path d="M37 33.1697C34.596 37.2431 31.1425 40.5965 27 42.8797C22.876 40.5894 19.4404 37.2366 17.05 33.1697H37Z" fill="#FFA054"/>
<path d="M40.68 18.8897V15.0997L27.08 10.9197L13.48 15.0997V18.8897H40.68Z" fill="#FFA054"/>
<path d="M27.0801 42.1003C30.6004 40.0779 33.592 37.2508 35.8101 33.8503H18.3501C20.5682 37.2508 23.5597 40.0779 27.0801 42.1003Z" fill="#FFA054"/>
<path d="M14.1599 15.6003V18.2103H39.9999V15.6003L27.0799 11.6003L14.1599 15.6003ZM24.9999 16.8503H23.6799V15.4903H24.9999V16.8503ZM29.0799 15.4903H30.4399V16.8503H29.1199L29.0799 15.4903ZM27.7199 16.8503H26.3999V15.4903H27.7599L27.7199 16.8503Z" fill="#FFA054"/>
<path d="M23.6799 15.49H24.9999V16.85H23.6799V15.49Z" fill="#FFA054"/>
<path d="M26.3999 15.49H27.7599V16.85H26.3999V15.49Z" fill="#FFA054"/>
<path d="M29.1201 15.49H30.4801V16.85H29.1201V15.49Z" fill="#FFA054"/>
<path d="M46.12 18.1999H41.36V15.0799C41.36 14.9345 41.3134 14.7929 41.227 14.6759C41.1406 14.5589 41.019 14.4727 40.88 14.4299L27.28 10.2399C27.1497 10.1998 27.0103 10.1998 26.88 10.2399L13.28 14.4299C13.141 14.4727 13.0194 14.5589 12.933 14.6759C12.8466 14.7929 12.8 14.9345 12.8 15.0799V19.5599H46.12C46.2097 19.5586 46.2987 19.5752 46.3818 19.6089C46.4649 19.6426 46.5404 19.6927 46.6038 19.7561C46.6673 19.8195 46.7173 19.895 46.751 19.9781C46.7847 20.0612 46.8013 20.1503 46.8 20.2399V31.8199C46.8 32.0003 46.7284 32.1732 46.6008 32.3008C46.4733 32.4283 46.3003 32.4999 46.12 32.4999H8C7.81965 32.4999 7.64669 32.4283 7.51917 32.3008C7.39164 32.1732 7.32 32.0003 7.32 31.8199V20.2399C7.31865 20.1503 7.33532 20.0612 7.36901 19.9781C7.40271 19.895 7.45275 19.8195 7.51616 19.7561C7.57958 19.6927 7.65508 19.6426 7.73819 19.6089C7.8213 19.5752 7.91033 19.5586 8 19.5599H11.4V18.1999H10.08V13.0699C10.0784 12.9241 10.1244 12.7817 10.211 12.6644C10.2976 12.5471 10.4202 12.4613 10.56 12.4199L26.88 7.41992C27.0103 7.37982 27.1497 7.37982 27.28 7.41992L43.6 12.4199C43.7398 12.4613 43.8624 12.5471 43.949 12.6644C44.0356 12.7817 44.0816 12.9241 44.08 13.0699V16.8299H45.44V13.0699C45.4466 12.6321 45.3092 12.2042 45.0491 11.8519C44.789 11.4996 44.4204 11.2425 44 11.1199L27.68 6.08992C27.2894 5.9671 26.8706 5.9671 26.48 6.08992L10.16 11.0899C9.73112 11.2146 9.35632 11.4793 9.09535 11.8418C8.83437 12.2042 8.70224 12.6436 8.72 13.0899V18.1999H8C7.46957 18.1999 6.96086 18.4106 6.58579 18.7857C6.21071 19.1608 6 19.6695 6 20.1999V31.8199C6 32.3504 6.21071 32.8591 6.58579 33.2341C6.96086 33.6092 7.46957 33.8199 8 33.8199H16.72C19.1556 37.8503 22.603 41.1736 26.72 43.4599C26.8215 43.5142 26.9349 43.5426 27.05 43.5426C27.1651 43.5426 27.2785 43.5142 27.38 43.4599C31.497 41.1736 34.9444 37.8503 37.38 33.8199H40.54C37.5434 39.4474 32.8276 43.9706 27.08 46.7299C21.6727 44.1699 17.1681 40.0314 14.16 34.8599L13 35.5499C14.0732 37.3768 15.326 39.092 16.74 40.6699H10.74V41.9999H18C18.9929 42.9784 20.0521 43.8872 21.17 44.7199H10.76V46.0899H23.17C24.3329 46.8387 25.5458 47.5069 26.8 48.0899C26.888 48.1297 26.9834 48.1502 27.08 48.1502C27.1766 48.1502 27.272 48.1297 27.36 48.0899C28.6121 47.5026 29.8246 46.8345 30.99 46.0899H43.4V44.7499H33C34.1019 43.906 35.1444 42.9872 36.12 41.9999H43.4V40.6699H37.4C39.2518 38.6171 40.8222 36.327 42.07 33.8599H46.07C46.6004 33.8599 47.1091 33.6492 47.4842 33.2741C47.8593 32.8991 48.07 32.3904 48.07 31.8599V20.2399C48.07 19.7095 47.8593 19.2008 47.4842 18.8257C47.1091 18.4506 46.6004 18.2399 46.07 18.2399L46.12 18.1999ZM40 18.1999H14.16V15.5999L27.08 11.5999L40 15.5999V18.1999ZM27.08 42.0999C23.5596 40.0775 20.5681 37.2504 18.35 33.8499H35.81C33.5919 37.2504 30.6004 40.0775 27.08 42.0999Z" fill="#FFA054"/>
</g>
<defs>
<clipPath id="clip0_254_11791">
<rect width="42.16" height="42.16" fill="white" transform="translate(6 6)"/>
</clipPath>
</defs>
</svg>
