<svg width="54" height="54" viewBox="0 0 54 54" fill="none" xmlns="http://www.w3.org/2000/svg">
<path d="M15.0622 16.3988C15.4969 15.4686 15.5784 14.4121 15.2916 13.4263C15.0048 12.4405 14.3692 11.5926 13.5034 11.0408C12.6376 10.489 11.6007 10.2709 10.5859 10.4273C9.57122 10.5836 8.64798 11.1036 7.98839 11.8904C7.3288 12.6772 6.97789 13.6771 7.00108 14.7035C7.02427 15.7299 7.41999 16.7129 8.11444 17.4691C8.8089 18.2253 9.75468 18.7031 10.7754 18.8134C11.7962 18.9238 12.8222 18.6591 13.6622 18.0688L19.1322 22.3088C19.4674 21.664 19.8805 21.0628 20.3622 20.5188L15.0622 16.3988ZM11.2422 16.6588C10.8467 16.6588 10.46 16.5415 10.1311 16.3217C9.80218 16.1019 9.54584 15.7896 9.39446 15.4241C9.24308 15.0587 9.20348 14.6565 9.28065 14.2686C9.35782 13.8806 9.5483 13.5242 9.82801 13.2445C10.1077 12.9648 10.4641 12.7744 10.852 12.6972C11.24 12.62 11.6421 12.6596 12.0076 12.811C12.373 12.9624 12.6854 13.2187 12.9052 13.5476C13.1249 13.8765 13.2422 14.2632 13.2422 14.6588C13.2295 15.1852 13.0147 15.6866 12.6424 16.0589C12.27 16.4313 11.7687 16.6461 11.2422 16.6588Z" fill="#FFA054"/>
<path d="M38.3021 14.1083C39.4982 14.6247 40.8431 14.6798 42.0774 14.2629C43.3117 13.846 44.3478 12.9867 44.9858 11.8509C45.6238 10.715 45.8185 9.38309 45.5323 8.11214C45.246 6.8412 44.4992 5.72131 43.4359 4.96861C42.3725 4.21592 41.0681 3.88376 39.7742 4.03623C38.4804 4.18871 37.2889 4.81502 36.4297 5.79429C35.5705 6.77357 35.1044 8.03639 35.1215 9.33906C35.1386 10.6417 35.6375 11.8919 36.5221 12.8483L32.4221 18.6383C33.0482 19.0168 33.6258 19.4701 34.1421 19.9883L38.3021 14.1083ZM40.3821 6.18833C40.9937 6.18635 41.5921 6.36589 42.1015 6.70422C42.611 7.04255 43.0086 7.52445 43.244 8.08889C43.4794 8.65334 43.5421 9.27495 43.424 9.87501C43.3059 10.4751 43.0124 11.0266 42.5806 11.4597C42.1489 11.8929 41.5983 12.1882 40.9986 12.3082C40.399 12.4282 39.7772 12.3676 39.212 12.1341C38.6467 11.9005 38.1636 11.5044 37.8236 10.9961C37.4836 10.4877 37.3021 9.8899 37.3021 9.27833C37.3021 8.46054 37.6263 7.6761 38.2036 7.0969C38.7809 6.5177 39.5643 6.19098 40.3821 6.18833Z" fill="#FFA054"/>
<path d="M35.6521 41.5482C34.8783 42.4263 34.4543 43.5582 34.4608 44.7286C34.4673 45.899 34.9039 47.0262 35.6875 47.8956C36.471 48.765 37.5469 49.3159 38.7103 49.4436C39.8737 49.5713 41.0435 49.2668 41.997 48.588C42.9505 47.9093 43.6211 46.9037 43.8813 45.7625C44.1415 44.6214 43.9731 43.4245 43.4081 42.3995C42.8432 41.3745 41.921 40.593 40.8173 40.2037C39.7135 39.8144 38.5052 39.8445 37.4221 40.2882L33.3021 34.1982C32.7251 34.6415 32.1014 35.0204 31.4421 35.3282L35.6521 41.5482ZM39.2321 42.0982C39.7464 42.0982 40.2491 42.2507 40.6766 42.5364C41.1042 42.8221 41.4374 43.2282 41.6342 43.7033C41.831 44.1784 41.8825 44.7011 41.7822 45.2055C41.6819 45.7098 41.4342 46.1731 41.0706 46.5367C40.707 46.9003 40.2437 47.148 39.7394 47.2483C39.235 47.3486 38.7122 47.2971 38.2372 47.1003C37.7621 46.9035 37.356 46.5703 37.0703 46.1427C36.7846 45.7152 36.6321 45.2125 36.6321 44.6982C36.6348 44.0095 36.9095 43.3497 37.3966 42.8627C37.8836 42.3756 38.5434 42.1009 39.2321 42.0982Z" fill="#FFA054"/>
<path d="M18.3523 38.3483C17.1339 37.6564 15.7016 37.4429 14.3343 37.7493C12.9671 38.0556 11.7628 38.86 10.9561 40.0056C10.1494 41.1512 9.79798 42.5561 9.97034 43.9466C10.1427 45.3371 10.8265 46.6137 11.8885 47.5277C12.9505 48.4417 14.3147 48.9276 15.7154 48.8909C17.1161 48.8541 18.4529 48.2973 19.4656 47.3289C20.4782 46.3605 21.0941 45.0498 21.1933 43.6522C21.2926 42.2546 20.868 40.87 20.0023 39.7683L23.2423 35.1783C22.5977 34.8483 21.9908 34.4493 21.4323 33.9883L18.3523 38.3483ZM15.6323 46.6683C14.9535 46.6703 14.2894 46.4708 13.724 46.0951C13.1586 45.7194 12.7175 45.1844 12.4563 44.5578C12.1952 43.9313 12.1258 43.2413 12.257 42.5753C12.3882 41.9093 12.7141 41.2972 13.1934 40.8165C13.6727 40.3358 14.2839 40.0081 14.9495 39.8749C15.6151 39.7418 16.3053 39.8091 16.9326 40.0684C17.56 40.3277 18.0962 40.7674 18.4736 41.3316C18.8509 41.8959 19.0523 42.5595 19.0523 43.2383C19.0523 44.1462 18.6923 45.0172 18.0512 45.6601C17.4102 46.3031 16.5403 46.6656 15.6323 46.6683Z" fill="#FFA054"/>
<path d="M38.1521 29.6179C38.2143 30.643 38.6472 31.6104 39.3702 32.3398C40.0932 33.0691 41.0569 33.5105 42.0814 33.5817C43.1059 33.6528 44.1213 33.3488 44.9381 32.7264C45.755 32.1039 46.3175 31.2056 46.5207 30.1989C46.7239 29.1922 46.554 28.146 46.0426 27.2554C45.5312 26.3648 44.7132 25.6907 43.7414 25.3588C42.7695 25.0269 41.7101 25.0599 40.7608 25.4517C39.8115 25.8434 39.0371 26.5672 38.5821 27.4879L37.0021 27.1579C36.9719 27.8852 36.8578 28.6067 36.6621 29.3079L38.1521 29.6179ZM42.3621 27.3079C42.7577 27.3079 43.1444 27.4252 43.4733 27.6449C43.8021 27.8647 44.0585 28.177 44.2099 28.5425C44.3612 28.9079 44.4009 29.3101 44.3237 29.698C44.2465 30.086 44.056 30.4424 43.7763 30.7221C43.4966 31.0018 43.1403 31.1923 42.7523 31.2694C42.3643 31.3466 41.9622 31.307 41.5967 31.1556C41.2313 31.0042 40.9189 30.7479 40.6992 30.419C40.4794 30.0901 40.3621 29.7034 40.3621 29.3079C40.3621 28.7774 40.5728 28.2687 40.9479 27.8936C41.323 27.5186 41.8317 27.3079 42.3621 27.3079Z" fill="#FFA054"/>
<path d="M34.1423 19.9888C33.6254 19.4741 33.0478 19.0241 32.4223 18.6488C30.9435 17.7369 29.2396 17.2555 27.5023 17.2588C26.1472 17.2595 24.8081 17.5518 23.5761 18.1161C22.3441 18.6803 21.248 19.5032 20.3623 20.5288C19.8806 21.0729 19.4675 21.6741 19.1323 22.3188C18.1189 24.2327 17.7943 26.4368 18.2131 28.5616C18.6319 30.6864 19.7684 32.6026 21.4323 33.9888C21.9939 34.4504 22.6041 34.8495 23.2523 35.1788C24.5167 35.823 25.9111 36.1713 27.33 36.1973C28.7489 36.2233 30.1551 35.9263 31.4423 35.3288C32.1015 35.0209 32.7252 34.642 33.3023 34.1988C34.3848 33.3693 35.2726 32.3127 35.9032 31.1034C36.5338 29.8941 36.8918 28.5613 36.9523 27.1988C36.9523 27.0588 36.9523 26.9088 36.9523 26.7588C36.9601 25.4998 36.7154 24.2521 36.2328 23.0893C35.7501 21.9265 35.0393 20.8722 34.1423 19.9888ZM35.0023 26.7688C35.0041 27.4975 34.8962 28.2223 34.6823 28.9188C34.3492 29.9784 33.7867 30.9515 33.0349 31.769C32.283 32.5865 31.3603 33.2283 30.3323 33.6488C29.3959 34.0325 28.3904 34.219 27.3787 34.1967C26.367 34.1743 25.3708 33.9435 24.4523 33.5188C23.7871 33.2185 23.1703 32.8208 22.6223 32.3388C21.399 31.277 20.5562 29.8446 20.2223 28.2596C19.8883 26.6746 20.0814 25.0239 20.7723 23.5588C21.0858 22.8993 21.4897 22.2868 21.9723 21.7388C23.1182 20.4533 24.6745 19.605 26.3759 19.3388C28.0773 19.0725 29.8184 19.4048 31.3023 20.2788C31.9305 20.6493 32.5029 21.1072 33.0023 21.6388C34.2886 23.0175 35.0034 24.8332 35.0023 26.7188C35.0023 26.7188 35.0023 26.7488 35.0023 26.7688Z" fill="#FFA054"/>
<path d="M28.5623 23.8884C28.8032 24.0366 29.0068 24.2381 29.1576 24.4773C29.3085 24.7166 29.4024 24.9872 29.4323 25.2684C29.6289 25.3637 29.8439 25.4149 30.0623 25.4184C30.3605 25.4204 30.6526 25.334 30.9018 25.1701C31.151 25.0063 31.3461 24.7723 31.4625 24.4977C31.5788 24.2232 31.6113 23.9203 31.5558 23.6273C31.5003 23.3343 31.3592 23.0643 31.1504 22.8513C30.9417 22.6384 30.6745 22.492 30.3827 22.4307C30.0908 22.3694 29.7874 22.3959 29.5105 22.5068C29.2337 22.6177 28.9959 22.8081 28.8272 23.054C28.6584 23.2999 28.5663 23.5902 28.5623 23.8884ZM27.5623 26.9684C27.8618 26.9704 28.1551 26.8833 28.405 26.7181C28.6548 26.5529 28.8499 26.3172 28.9654 26.0409C29.081 25.7646 29.1117 25.4601 29.0538 25.1663C28.9958 24.8725 28.8518 24.6025 28.64 24.3907C28.4282 24.1789 28.1583 24.0349 27.8644 23.977C27.5706 23.919 27.2662 23.9498 26.9898 24.0653C26.7135 24.1808 26.4778 24.3759 26.3126 24.6258C26.1475 24.8756 26.0603 25.1689 26.0623 25.4684C26.0596 25.6688 26.0971 25.8676 26.1725 26.0533C26.248 26.2389 26.3598 26.4075 26.5015 26.5492C26.6432 26.6909 26.8118 26.8027 26.9975 26.8782C27.1831 26.9536 27.382 26.9911 27.5823 26.9884L27.5623 26.9684ZM28.2023 27.0684H26.9423C26.6885 27.0658 26.4367 27.1135 26.2014 27.2088C25.9662 27.3041 25.7521 27.4451 25.5717 27.6236C25.3913 27.8022 25.2481 28.0147 25.1504 28.249C25.0526 28.4833 25.0023 28.7346 25.0023 28.9884V30.5784H25.1123C25.9555 30.8521 26.8359 30.9938 27.7223 30.9984C28.5025 31.035 29.2812 30.8984 30.0023 30.5984L30.1023 30.5484V28.9884C30.1024 28.486 29.9056 28.0037 29.5542 27.6447C29.2027 27.2858 28.7246 27.0789 28.2223 27.0684H28.2023ZM30.6823 25.5184H29.4423C29.4275 26.0083 29.2189 26.4722 28.8623 26.8084C29.3342 26.9464 29.7488 27.2332 30.0443 27.6261C30.3399 28.0189 30.5005 28.4968 30.5023 28.9884V29.4684C31.1915 29.4644 31.8724 29.318 32.5023 29.0384H32.6023V27.4384C32.6024 26.9326 32.4028 26.4473 32.0471 26.0878C31.6913 25.7283 31.2081 25.5237 30.7023 25.5184H30.6823ZM24.9223 25.4184C25.2068 25.4186 25.485 25.3351 25.7223 25.1784C25.7918 24.7085 26.0432 24.2846 26.4223 23.9984V23.9084C26.4203 23.6122 26.3307 23.3231 26.1647 23.0778C25.9987 22.8324 25.7637 22.6417 25.4895 22.5297C25.2152 22.4177 24.9139 22.3895 24.6236 22.4485C24.3333 22.5075 24.067 22.6511 23.8582 22.8613C23.6494 23.0714 23.5075 23.3387 23.4505 23.6294C23.3934 23.9201 23.4237 24.2212 23.5375 24.4947C23.6513 24.7682 23.8436 25.0019 24.09 25.1663C24.3365 25.3307 24.6261 25.4184 24.9223 25.4184ZM26.2723 26.8084C25.9245 26.4711 25.7203 26.0126 25.7023 25.5284H24.3023C23.7931 25.5284 23.3047 25.7307 22.9447 26.0908C22.5846 26.4508 22.3823 26.9392 22.3823 27.4484V28.9884H22.4823C23.187 29.21 23.9154 29.3477 24.6523 29.3984V28.9884C24.6541 28.4968 24.8148 28.0189 25.1103 27.6261C25.4059 27.2332 25.8205 26.9464 26.2923 26.8084H26.2723Z" fill="#FFA054"/>
</svg>
