<svg width="40" height="40" viewBox="0 0 40 40" fill="none" xmlns="http://www.w3.org/2000/svg">
<path d="M19.75 2C9.96 2 2 9.96 2 19.75C2 29.54 9.96 37.5 19.75 37.5C29.54 37.5 37.5 29.54 37.5 19.75C37.5 9.96 29.53 2 19.75 2ZM10.16 31.94C12.89 29.8 16.24 28.62 19.75 28.62C23.26 28.62 26.6 29.8 29.33 31.94C26.69 34.03 23.36 35.28 19.75 35.28C16.14 35.28 12.8 34.03 10.16 31.94ZM30.98 30.44C27.82 27.84 23.87 26.41 19.75 26.41C15.63 26.41 11.68 27.84 8.51 30.44C5.85 27.65 4.21 23.89 4.21 19.75C4.21 11.19 11.18 4.22 19.75 4.22C28.32 4.22 35.28 11.19 35.28 19.75C35.28 23.89 33.64 27.65 30.98 30.44Z" fill="#282E4D"/>
<path d="M24.9601 13.1602C23.8201 13.4802 18.0601 15.1502 16.6301 16.5802C15.7901 17.4202 15.3301 18.5302 15.3301 19.7202C15.3301 20.9102 15.7901 22.0202 16.6301 22.8602C17.4701 23.7002 18.5801 24.1602 19.7701 24.1602C20.9601 24.1602 22.0701 23.7002 22.9001 22.8602C24.3401 21.4202 26.0001 15.6702 26.3301 14.5302C26.4301 14.1402 26.3301 13.7302 26.0401 13.4402C25.7601 13.1602 25.3501 13.0502 24.9601 13.1602Z" fill="#FFA054"/>
<path d="M18.6599 7.52016C18.6599 6.90016 19.1499 6.41016 19.7699 6.41016C20.3899 6.41016 20.8699 6.90016 20.8699 7.52016C20.8699 8.14016 20.3799 8.63016 19.7699 8.63016C19.1599 8.63016 18.6599 8.13016 18.6599 7.52016Z" fill="#FFA054"/>
<path d="M11.9201 10.3097C12.3501 10.7397 12.3501 11.4397 11.9201 11.8797C11.4901 12.3097 10.7901 12.3097 10.3501 11.8797C9.92009 11.4397 9.92009 10.7397 10.3501 10.3097C10.7801 9.87966 11.4901 9.86966 11.9201 10.3097Z" fill="#FFA054"/>
<path d="M7.55995 20.8304C8.17299 20.8304 8.66995 20.3334 8.66995 19.7204C8.66995 19.1073 8.17299 18.6104 7.55995 18.6104C6.94692 18.6104 6.44995 19.1073 6.44995 19.7204C6.44995 20.3334 6.94692 20.8304 7.55995 20.8304Z" fill="#FFA054"/>
<path d="M31.9701 20.8304C32.5831 20.8304 33.0801 20.3334 33.0801 19.7204C33.0801 19.1073 32.5831 18.6104 31.9701 18.6104C31.3571 18.6104 30.8601 19.1073 30.8601 19.7204C30.8601 20.3334 31.3571 20.8304 31.9701 20.8304Z" fill="#FFA054"/>
<path d="M29.1801 10.3105C29.6101 10.7405 29.6101 11.4405 29.1801 11.8805C28.7501 12.3105 28.0401 12.3105 27.6101 11.8805C27.1801 11.4405 27.1801 10.7405 27.6101 10.3105C28.0401 9.87047 28.7501 9.87047 29.1801 10.3105Z" fill="#FFA054"/>
</svg>
