<svg width="48" height="48" viewBox="0 0 48 48" fill="none" xmlns="http://www.w3.org/2000/svg">
<g clip-path="url(#clip0_747_42061)">
<path d="M44.6263 16.8751L35.9029 14.3254L35.8673 14.3155C35.6033 14.2458 35.3241 14.2458 35.0601 14.3155L32.9858 14.9216V6.58566C32.9859 2.26219 25.1347 0 17.3789 0C9.62325 0 1.77197 2.26219 1.77197 6.58566V41.4144C1.77197 45.738 9.62325 48 17.3789 48C25.1347 48 32.9859 45.7378 32.9859 41.4144V39.1591L33.1151 39.2351L33.194 39.2782C33.9046 39.6368 34.6841 39.8162 35.4638 39.8162C36.2434 39.8162 37.0229 39.6368 37.7335 39.2782L37.7738 39.2579L43.5115 35.8854C45.1884 35.0191 46.2281 33.3138 46.2281 31.4231V18.9772C46.2279 17.996 45.5705 17.135 44.6263 16.8751ZM7.81857 4.24294C10.3504 3.3195 13.7456 2.81081 17.3789 2.81081C21.0121 2.81081 24.4073 3.3195 26.9393 4.24294C29.1625 5.05387 30.175 6.02578 30.175 6.58566C30.175 7.14544 29.1623 8.11734 26.9393 8.92828C24.4074 9.85172 21.0122 10.3604 17.3789 10.3604C13.7456 10.3604 10.3504 9.85172 7.81847 8.92828C5.59538 8.11734 4.58288 7.14544 4.58288 6.58566C4.58279 6.02578 5.59538 5.05387 7.81857 4.24294ZM4.58269 10.5204C7.55625 12.2706 12.4862 13.1711 17.3788 13.1711C22.2715 13.1711 27.2014 12.2706 30.175 10.5204V15.743L26.3011 16.8751C25.4497 17.1095 24.8332 17.8331 24.72 18.6924C22.5412 19.2112 20.0434 19.4838 17.4258 19.4838C13.7925 19.4838 10.3973 18.9751 7.86535 18.0517C5.64216 17.2407 4.62966 16.2689 4.62966 15.709C4.62966 15.5865 4.61232 15.4682 4.58279 15.3547L4.58269 10.5204ZM4.58269 19.6162C7.55119 21.3845 12.5072 22.2946 17.4256 22.2946C19.9964 22.2946 22.4743 22.0477 24.6994 21.5767V27.4482C22.5355 27.9516 19.9801 28.2255 17.3789 28.2255C13.7457 28.2255 10.3504 27.7168 7.81847 26.7934C5.59529 25.9824 4.58279 25.0105 4.58279 24.4508L4.58269 19.6162ZM4.58269 28.3856C7.55635 30.1357 12.4863 31.0363 17.3789 31.0363C19.9797 31.0363 22.4737 30.7925 24.6995 30.3273V31.4231C24.6995 33.1692 25.5866 34.7567 27.0432 35.6717C24.618 36.6214 21.1644 37.1782 17.4257 37.1782C13.7924 37.1782 10.3972 36.6695 7.86535 35.746C5.64216 34.9351 4.62966 33.9632 4.62966 33.4033C4.62966 33.2808 4.61232 33.1625 4.58279 33.049L4.58269 28.3856ZM26.9393 43.7571C24.4074 44.6805 21.0122 45.1892 17.3789 45.1892C13.7456 45.1892 10.3504 44.6805 7.81847 43.7571C5.59529 42.9461 4.58279 41.9742 4.58279 41.4144V37.3104C7.55129 39.0788 12.5073 39.989 17.4257 39.989C22.5518 39.989 27.1413 39.0237 29.9609 37.3812L30.175 37.507V41.4144H30.1751C30.1751 41.9742 29.1624 42.9461 26.9393 43.7571ZM42.2016 33.3982L42.1613 33.4184L36.4313 36.7863C35.8223 37.08 35.1048 37.08 34.4958 36.7863L28.8045 33.4412L28.7257 33.3982C27.9759 33.0197 27.5102 32.2628 27.5102 31.4231V19.8146C27.5102 19.8144 27.5102 19.8143 27.5102 19.8141V19.4501L31.9939 18.1396C31.996 18.1389 31.9983 18.1384 32.0004 18.1376L35.4636 17.1253L43.4169 19.45V31.4229C43.417 32.2628 42.9514 33.0197 42.2016 33.3982Z" fill="#FFA054"/>
<path d="M40.6186 23.4309C40.0914 22.8612 39.2022 22.8267 38.6326 23.3538L33.8859 27.7462L32.3342 26.1947C31.7854 25.6458 30.8956 25.6458 30.3467 26.1947C29.7978 26.7434 29.7978 27.6333 30.3467 28.1822L32.8543 30.6898C32.8663 30.7018 32.8793 30.7121 32.8916 30.7236C32.9088 30.7396 32.926 30.7557 32.9438 30.7707C32.9633 30.7872 32.9834 30.8023 33.0035 30.8175C33.0218 30.8313 33.04 30.8454 33.0588 30.8582C33.0801 30.8727 33.1021 30.8859 33.124 30.8991C33.1426 30.9103 33.161 30.9219 33.1801 30.9322C33.2036 30.9449 33.2276 30.956 33.2517 30.9673C33.2701 30.976 33.2881 30.9852 33.3068 30.9929C33.3327 31.0037 33.359 31.0127 33.3853 31.0219C33.4029 31.0281 33.4202 31.0349 33.4381 31.0404C33.4666 31.0491 33.4954 31.0557 33.5243 31.0625C33.5405 31.0663 33.5565 31.0711 33.5729 31.0743C33.6055 31.0808 33.6385 31.0851 33.6713 31.0892C33.6842 31.0908 33.6971 31.0935 33.71 31.0948C33.7561 31.0993 33.8022 31.1018 33.8484 31.1018H33.8486H33.8488C33.8927 31.1018 33.9365 31.0995 33.9803 31.0955C33.9927 31.0944 34.0049 31.0919 34.0172 31.0904C34.0486 31.0867 34.08 31.0827 34.111 31.0768C34.1265 31.0739 34.1416 31.0696 34.1569 31.0662C34.1847 31.06 34.2124 31.0539 34.2397 31.0459C34.2566 31.041 34.2732 31.0348 34.2899 31.0293C34.3152 31.021 34.3406 31.0127 34.3655 31.0029C34.3832 30.9958 34.4006 30.9876 34.418 30.9798C34.4414 30.9695 34.4646 30.9593 34.4874 30.9476C34.5055 30.9383 34.5231 30.9279 34.5409 30.9177C34.5623 30.9056 34.5837 30.8935 34.6046 30.8802C34.6226 30.8686 34.64 30.8561 34.6576 30.8437C34.6775 30.8296 34.6973 30.8155 34.7167 30.8002C34.7338 30.7868 34.7503 30.7724 34.7668 30.7581C34.7788 30.7477 34.7913 30.7384 34.8031 30.7275L40.5421 25.4169C41.1114 24.8897 41.1458 24.0005 40.6186 23.4309Z" fill="#FFA054"/>
</g>
<defs>
<clipPath id="clip0_747_42061">
<rect width="48" height="48" fill="white"/>
</clipPath>
</defs>
</svg>
