<svg width="70" height="70" viewBox="0 0 70 70" fill="none" xmlns="http://www.w3.org/2000/svg">
<path fill-rule="evenodd" clip-rule="evenodd" d="M8.91552 52.5608H3.5079C2.8325 52.5608 2.18476 52.3115 1.70719 51.8678C1.22961 51.4241 0.961304 50.8222 0.961304 50.1947V27.4736C0.961304 26.846 1.22961 26.2442 1.70719 25.8005C2.18476 25.3567 2.8325 25.1074 3.5079 25.1074H47.2509C47.9263 25.1074 48.574 25.3567 49.0516 25.8005C49.5292 26.2442 49.7975 26.846 49.7975 27.4736V50.1971C49.7975 50.8246 49.5292 51.4265 49.0516 51.8702C48.574 52.314 47.9263 52.5632 47.2509 52.5632H20.1141C16.4189 60.9063 4.36803 61.6838 4.36803 61.6838C7.71498 58.7104 8.73103 55.2566 8.91552 52.5608Z" fill="#FFA054"/>
<path fill-rule="evenodd" clip-rule="evenodd" d="M47.273 24.2244C48.7256 24.2364 50.1185 25.1612 50.5758 26.471C50.6862 26.7873 50.7434 27.1193 50.746 27.4525C50.772 35.0338 50.746 42.6152 50.746 50.1977C50.7407 50.7211 50.6018 51.2359 50.3407 51.6997C50.0796 52.1635 49.7037 52.5631 49.244 52.8657C48.6584 53.2414 47.9639 53.4435 47.2522 53.4451H20.7325L20.6975 53.5139C19.5151 55.8282 17.535 57.7948 15.1781 59.2156C12.1845 61.0217 8.65309 62.0768 5.1827 62.492C4.93714 62.521 4.69287 62.5476 4.44731 62.5645C4.44731 62.5645 4.32647 62.5717 4.24332 62.5609C3.61057 62.4836 3.187 61.723 3.58458 61.1846C3.72101 61.0011 3.9159 60.8647 4.08611 60.7017C6.14006 58.7323 7.46296 56.2046 7.86183 53.4874L7.86832 53.4451H3.50662C2.06832 53.4403 0.692374 52.5482 0.21034 51.2721C0.0823673 50.9329 0.0152106 50.5765 0.0115492 50.217C-0.0144365 42.6357 0.0115492 35.0531 0.0115492 27.4718C0.0167463 26.1378 0.976918 24.8557 2.35026 24.4079C2.71406 24.2895 3.09865 24.228 3.48584 24.2244C18.082 24.1869 32.6782 24.1869 47.273 24.2244ZM3.50922 25.9905C2.68418 25.9917 1.9202 26.6485 1.9111 27.4633C1.88642 35.0447 1.88642 42.626 1.9111 50.2062C1.9202 50.9764 2.6387 51.6766 3.50922 51.679H8.91555C9.08575 51.6959 9.13383 51.6874 9.29234 51.7514C9.58858 51.8697 9.81205 52.1377 9.85623 52.4395C9.88611 52.6327 9.84973 52.8282 9.83024 53.0238C9.57298 55.6918 8.54915 58.2801 6.83539 60.4241L6.8237 60.4386C9.00909 60.004 11.1282 59.3376 13.1291 58.3018C15.6822 56.9823 17.9235 55.0061 19.1214 52.4733C19.1604 52.3912 19.1994 52.3079 19.2345 52.2246L19.3228 52.0725C19.3969 51.9794 19.4854 51.8968 19.5853 51.8275C19.7457 51.7383 19.9274 51.6873 20.1141 51.679C29.1623 51.679 38.2118 51.7031 47.2613 51.679C48.0864 51.6717 48.8387 51.0114 48.8465 50.2062C48.8724 42.6248 48.8724 35.0435 48.8465 27.4633C48.8376 27.147 48.723 26.8411 48.5186 26.588C48.3141 26.335 48.0301 26.1472 47.7057 26.0509C47.5576 26.0106 47.404 25.9903 47.2496 25.9905H3.50922Z" fill="#FFA054"/>
<path fill-rule="evenodd" clip-rule="evenodd" d="M12.5509 36.6151C12.8713 36.6053 13.1906 36.6556 13.4897 36.7628C13.7888 36.87 14.0616 37.0321 14.2919 37.2392C14.5223 37.4464 14.7054 37.6945 14.8304 37.9688C14.9555 38.2431 15.0199 38.5379 15.0198 38.8358C15.0197 39.1336 14.9551 39.4285 14.8299 39.7027C14.7047 39.9769 14.5214 40.2249 14.291 40.432C14.0605 40.639 13.7876 40.8009 13.4885 40.908C13.1893 41.0151 12.87 41.0651 12.5496 41.0552C11.9296 41.0361 11.3418 40.7937 10.9105 40.3793C10.4793 39.9649 10.2382 39.411 10.2384 38.8346C10.2386 38.2581 10.4799 37.7043 10.9114 37.2902C11.343 36.876 11.9309 36.6339 12.5509 36.6151Z" fill="white"/>
<path fill-rule="evenodd" clip-rule="evenodd" d="M12.5731 35.7328C13.1857 35.7442 13.7839 35.9086 14.3046 36.2087C14.8254 36.5088 15.2496 36.9337 15.5328 37.4386C15.9915 38.2837 16.0032 39.3267 15.5601 40.179C14.9326 41.3886 13.4046 42.1468 11.9208 41.8812C11.2834 41.758 10.6971 41.4681 10.2309 41.0457C9.76481 40.6233 9.43827 40.0859 9.28976 39.4969C8.97014 38.1352 9.74581 36.608 11.1776 36.0081C11.6164 35.8252 12.0921 35.7314 12.5731 35.7328ZM12.5419 37.4978C12.2205 37.5065 11.9109 37.6122 11.6599 37.7988C11.4089 37.9855 11.23 38.2429 11.1503 38.5324C10.9386 39.3798 11.7922 40.3371 12.8329 40.1452C13.4111 40.039 13.8931 39.5681 13.9763 39.0225C14.088 38.2812 13.4254 37.505 12.5601 37.4978H12.5419Z" fill="#FFA054"/>
<path fill-rule="evenodd" clip-rule="evenodd" d="M25.3788 36.6146C25.9956 36.6378 26.5789 36.8817 27.0065 37.2954C27.4341 37.7091 27.6729 38.2605 27.6729 38.8341C27.6729 39.4077 27.4341 39.9591 27.0065 40.3728C26.5789 40.7865 25.9956 41.0304 25.3788 41.0536C24.7619 41.0304 24.1786 40.7865 23.751 40.3728C23.3234 39.9591 23.0846 39.4077 23.0846 38.8341C23.0846 38.2605 23.3234 37.7091 23.751 37.2954C24.1786 36.8817 24.7619 36.6378 25.3788 36.6146Z" fill="white"/>
<path fill-rule="evenodd" clip-rule="evenodd" d="M25.4008 35.7328C26.0137 35.7441 26.612 35.9084 27.133 36.2086C27.654 36.5087 28.0784 36.9336 28.3619 37.4386C28.8205 38.2837 28.8296 39.3267 28.3878 40.179C27.7603 41.3886 26.2323 42.1468 24.7485 41.8812C24.1075 41.7573 23.5182 41.465 23.0508 41.0389C22.5834 40.6127 22.2577 40.0708 22.1123 39.4776C21.8031 38.1171 22.5839 36.6044 24.0054 36.0069C24.4442 35.8244 24.92 35.731 25.4008 35.7328ZM25.3696 37.4978C24.7291 37.5038 24.1223 37.9481 23.9781 38.5324C23.7663 39.3798 24.6199 40.3372 25.6606 40.1452C26.2388 40.039 26.7222 39.5682 26.804 39.0225C26.9158 38.2813 26.2531 37.505 25.3878 37.4978H25.3696Z" fill="#FFA054"/>
<path fill-rule="evenodd" clip-rule="evenodd" d="M38.2079 36.6151C38.5283 36.6054 38.8475 36.6557 39.1466 36.763C39.4456 36.8703 39.7184 37.0324 39.9487 37.2397C40.179 37.4469 40.362 37.695 40.487 37.9694C40.6119 38.2437 40.6762 38.5385 40.6761 38.8364C40.6759 39.1343 40.6112 39.429 40.4859 39.7032C40.3607 39.9774 40.1773 40.2254 39.9468 40.4324C39.7163 40.6394 39.4433 40.8012 39.1441 40.9082C38.845 41.0152 38.5257 41.0652 38.2053 41.0552C37.5852 41.0361 36.9975 40.7937 36.5662 40.3793C36.1349 39.9649 35.8939 39.411 35.894 38.8346C35.8942 38.2581 36.1356 37.7043 36.5671 37.2901C36.9986 36.876 37.5878 36.6339 38.2079 36.6151Z" fill="white"/>
<path fill-rule="evenodd" clip-rule="evenodd" d="M38.2288 35.7326C39.1195 35.7423 39.9701 36.0781 40.5961 36.667C41.3601 37.3949 41.7005 38.4838 41.4744 39.4774C41.1626 40.85 39.7567 41.9365 38.2067 41.9365C37.4115 41.9338 36.6429 41.67 36.0369 41.1916C35.6283 40.8605 35.3109 40.4434 35.1111 39.9751C34.9113 39.5067 34.8349 39.0008 34.8883 38.4995C34.9568 37.9644 35.1714 37.4543 35.5119 37.018C35.8523 36.5817 36.3072 36.2335 36.8333 36.0066C37.2722 35.8241 37.748 35.7307 38.2288 35.7326ZM38.1976 37.4975C37.5038 37.5036 36.858 38.0323 36.7788 38.6806C36.68 39.475 37.4713 40.2862 38.4185 40.157C39.0239 40.075 39.5411 39.5945 39.6307 39.0307C39.7476 38.2931 39.1019 37.5156 38.2353 37.4975H38.1976ZM66.2985 8.03169C67.833 8.04376 69.2804 8.99747 69.7858 10.3556C69.917 10.7093 69.9846 11.0835 69.9885 11.4602C70.0145 18.9208 69.9885 26.3814 69.9885 33.8421C69.9823 34.3988 69.8341 34.9462 69.5561 35.4393C69.2781 35.9325 68.8781 36.3574 68.3891 36.679C67.7672 37.077 67.0302 37.2908 66.2751 37.2923H62.1538C62.6306 40.1377 63.9013 42.9807 66.2673 44.8145L66.4051 44.9461C66.4986 45.0813 66.535 45.1127 66.5792 45.272C66.6304 45.4809 66.6009 45.6998 66.4959 45.8905C66.3909 46.0812 66.2171 46.2315 66.0049 46.3151C65.8256 46.3803 65.784 46.3827 65.5618 46.3718C63.7558 46.2777 61.9706 45.9131 60.2478 45.4072C57.4855 44.5984 54.8869 43.3308 52.7418 41.4983L52.6106 41.3594C52.5781 41.3063 52.5391 41.2556 52.5131 41.1989C52.4263 40.998 52.4193 40.7749 52.4933 40.5696C52.5674 40.3644 52.7176 40.1903 52.9172 40.0786C53.063 40.004 53.227 39.9657 53.3934 39.9674C53.5599 39.9691 53.723 40.0107 53.867 40.0882C53.9709 40.145 54.0567 40.2234 54.1411 40.2947C56.4993 42.2673 59.5241 43.5252 62.6345 44.1807C62.7969 44.2145 62.9594 44.2459 63.1218 44.2773L63.1413 44.2809C61.4743 42.1803 60.5076 39.5607 60.188 36.9615C60.1679 36.8017 60.1519 36.6415 60.1399 36.4811V36.4581L60.1477 36.2794C60.1893 36.1261 60.188 36.0815 60.2802 35.945C60.3485 35.8431 60.4383 35.7551 60.5441 35.6862C60.65 35.6173 60.7697 35.5691 60.8961 35.5442C60.9585 35.5322 61.0234 35.5322 61.0884 35.5273C62.8203 35.5273 64.5536 35.5322 66.2855 35.5273C67.2223 35.5189 68.0785 34.7668 68.0876 33.8529C68.1136 26.3923 68.1136 18.9317 68.0876 11.4711C68.0798 10.6055 67.2821 9.8051 66.2855 9.79665C51.8423 9.75459 37.3989 9.75459 22.9557 9.79665C22.0397 9.8051 21.1926 10.5198 21.1549 11.4167V21.555C21.1471 21.6153 21.1471 21.6781 21.1328 21.7385C21.0782 21.9488 20.9448 22.1341 20.7565 22.2613C20.5681 22.3885 20.3372 22.4493 20.1051 22.4326C19.9064 22.4105 19.7199 22.332 19.5711 22.2078C19.4223 22.0835 19.3184 21.9196 19.2735 21.7385C19.2605 21.6781 19.2605 21.6153 19.254 21.555V11.4807C19.2602 10.9135 19.4139 10.356 19.7021 9.85589C19.9904 9.35579 20.4046 8.9279 20.9093 8.60874C21.5134 8.23792 22.22 8.0375 22.944 8.03169C37.3959 7.98944 51.8466 7.98944 66.2985 8.03169Z" fill="#FFA054"/>
</svg>
