<svg width="512" height="512" viewBox="0 0 512 512" fill="none" xmlns="http://www.w3.org/2000/svg">
<g clip-path="url(#clip0_1438_1323)">
<path d="M5.90769 275.692C1.96923 271.754 0 265.846 0 261.908C0 257.969 1.96923 252.062 5.90769 248.123L33.4769 220.554C41.3538 212.677 53.1692 212.677 61.0462 220.554L63.0154 222.523L171.323 338.708C175.262 342.646 181.169 342.646 185.108 338.708L448.985 64.9846H450.954C458.831 57.1077 470.646 57.1077 478.523 64.9846L506.092 92.5538C513.969 100.431 513.969 112.246 506.092 120.123L191.015 447.015C187.077 450.954 183.138 452.923 177.231 452.923C171.323 452.923 167.385 450.954 163.446 447.015L9.84615 281.6L5.90769 275.692Z" fill="#FFA054"/>
</g>
<defs>
<clipPath id="clip0_1438_1323">
<rect width="512" height="512" fill="white"/>
</clipPath>
</defs>
</svg>
