<svg width="48" height="48" viewBox="0 0 48 48" fill="none" xmlns="http://www.w3.org/2000/svg">
<path d="M11.4526 33.3581H17.6702C17.8219 33.3581 17.8977 33.5099 17.8977 33.5858V37.7619C17.8977 37.9137 17.746 37.9896 17.6702 37.9896H15.4713C15.2438 37.9896 15.0922 38.2174 15.2438 38.4452L20.7032 45.8861C20.779 46.038 21.0065 46.038 21.1581 45.8861L26.6175 38.4452C26.7692 38.2934 26.6175 37.9896 26.39 37.9896H24.1911C24.0395 37.9896 23.9637 37.8378 23.9637 37.7619V28.9543C23.9637 28.8024 23.812 28.7265 23.7362 28.7265H21.5373C21.3098 28.7265 21.1581 28.4987 21.3098 28.2709L26.7692 20.83C26.845 20.6782 27.0725 20.6782 27.2241 20.83L32.6835 28.2709C32.8351 28.4228 32.6835 28.7265 32.456 28.7265H30.2571C30.1054 28.7265 30.0296 28.8783 30.0296 28.9543V33.1303C30.0296 33.2821 30.1813 33.3581 30.2571 33.3581H36.778C42.9198 33.3581 48 28.3468 48 22.1208C48 18.7041 46.4077 15.4392 43.7538 13.3132C43.7538 13.0854 43.7538 12.9336 43.7538 12.7058C43.7538 7.54271 39.5835 3.36669 34.4274 3.36669C32.7593 3.36669 31.167 3.82226 29.7263 4.65746C27.2241 2.91113 24.267 2 21.234 2C15.0164 2 9.55701 5.79637 7.3581 11.5669C2.96028 13.1613 0.0789527 17.1855 0.00312826 21.893C-0.148521 28.2709 5.23502 33.3581 11.4526 33.3581Z" fill="#2D3250"/>
</svg>
