<svg width="279" height="220" viewBox="0 0 279 220" fill="none" xmlns="http://www.w3.org/2000/svg">
<path d="M3.08606 0.379402C1.86386 0.886228 0.88623 1.86386 0.379403 3.08606L1.30313 3.46911C1.10813 3.93935 1 4.45579 1 5V7.5H0V12.5H1V17.5H0V22.5H1V27.5H0V32.5H1V37.5H0V42.5H1V47.5H0V52.5H1V57.5H0V62.5H1V67.5H0V72.5H1V77.5H0V82.5H1V87.5H0V92.5H1V97.5H0V102.5H1V107.5H0V112.5H1V117.5H0V122.5H1V127.5H0V132.5H1V137.5H0V142.5H1V147.5H0V152.5H1V157.5H0V162.5H1V167.5H0V172.5H1V177.5H0V182.5H1V187.5H0V192.5H1V197.5H0V202.5H1V207.5H0V212.5H1V215C1 215.544 1.10813 216.061 1.30313 216.531L0.379402 216.914C0.886229 218.136 1.86386 219.114 3.08606 219.621L3.46911 218.697C3.93936 218.892 4.45579 219 5 219H7.51976V220H12.5593V219H17.5988V220H22.6383V219H27.6778V220H32.7173V219H37.7568V220H42.7964V219H47.8359V220H52.8754V219H57.9149V220H62.9544V219H67.9939V220H73.0334V219H78.0729V220H83.1125V219H88.152V220H93.1915V219H98.231V220H103.271V219H108.31V220H113.35V219H118.389V220H123.429V219H128.468V220H133.508V219H138.547V220H143.587V219H148.626V220H153.666V219H158.705V220H163.745V219H168.784V220H173.824V219H178.863V220H183.903V219H188.942V220H193.982V219H199.021V220H204.061V219H209.1V220H214.14V219H216.66C217.714 219 218.725 218.584 219.474 217.842L221.266 216.068L221.969 216.779L225.553 213.231L224.85 212.52L228.433 208.972L229.137 209.683L232.721 206.134L232.017 205.424L235.601 201.875L236.304 202.586L239.888 199.038L239.185 198.327L242.768 194.779L243.472 195.49L247.056 191.941L246.352 191.231L249.936 187.682L250.64 188.393L254.223 184.845L253.52 184.134L257.104 180.586L257.807 181.297L261.391 177.748L260.687 177.038L264.271 173.49L264.975 174.2L268.558 170.652L267.855 169.941L271.439 166.393L272.142 167.104L275.726 163.555L275.022 162.845L276.814 161.071C277.573 160.319 278 159.296 278 158.228V155.674H279V150.567H278V145.459H279V140.352H278V135.244H279V130.136H278V125.029H279V119.921H278V114.814H279V109.706H278V104.598H279V99.4907H278V94.3831H279V89.2755H278V84.1679H279V79.0603H278V73.9527H279V68.8451H278V63.7375H279V58.6299H278V53.5223H279V48.4147H278V43.3071H279V38.1995H278V33.0919H279V27.9842H278V22.8766H279V17.769H278V12.6614H279V7.55382H278V5C278 4.45579 277.892 3.93936 277.697 3.46911L278.621 3.08606C278.114 1.86386 277.136 0.886231 275.914 0.379404L275.531 1.30313C275.061 1.10813 274.544 1 274 1H271.509V0H266.528V1H261.546V0H256.565V1H251.583V0H246.602V1H241.62V0H236.639V1H231.657V0H226.676V1H221.694V0H216.713V1H211.731V0H206.75V1H201.768V0H196.787V1H191.806V0H186.824V1H181.843V0H176.861V1H171.88V0H166.898V1H161.917V0H156.935V1H151.954V0H146.972V1H141.991V0H137.009V1H132.028V0H127.046V1H122.065V0H117.083V1H112.102V0H107.12V1H102.139V0H97.1574V1H92.1759V0H87.1945V1H82.213V0H77.2315V1H72.25V0H67.2686V1H62.2871V0H57.3056V1H52.3242V0H47.3427V1H42.3612V0H37.3797V1H32.3982V0H27.4168V1H22.4353V0H17.4538V1H12.4723V0H7.49084V1H5C4.45579 1 3.93936 1.10813 3.46911 1.30313L3.08606 0.379402Z" fill="#F9F9F8" stroke="#C7C9D9" stroke-width="2" stroke-dasharray="5 5"/>
<path d="M253.473 181.227C252.921 180.914 252.415 180.489 252.014 179.943C250.501 177.881 250.946 174.985 253.008 173.472C255.07 171.959 257.966 172.404 259.479 174.466C260.992 176.528 260.547 179.424 258.485 180.937C257.939 181.337 257.329 181.591 256.708 181.724L256.122 185.541L259.94 186.128C260.252 185.576 260.678 185.07 261.223 184.669C263.286 183.156 266.181 183.601 267.694 185.663C269.207 187.725 268.762 190.621 266.7 192.134C264.638 193.647 261.742 193.202 260.229 191.14C259.829 190.594 259.575 189.984 259.443 189.363L255.625 188.777L253.885 200.101L251.086 202.154L250.402 201.221L253.473 181.227ZM257.116 179.071C258.147 178.314 258.369 176.866 257.613 175.835C256.856 174.804 255.409 174.582 254.377 175.338C253.346 176.095 253.124 177.543 253.88 178.574C254.637 179.605 256.085 179.827 257.116 179.071ZM265.331 190.268C266.362 189.511 266.584 188.063 265.828 187.032C265.071 186.001 263.624 185.779 262.593 186.535C261.562 187.292 261.339 188.74 262.096 189.771C262.852 190.802 264.3 191.024 265.331 190.268ZM254.598 187.377C254.855 187.189 254.911 186.825 254.722 186.568C254.534 186.312 254.17 186.256 253.913 186.444C253.657 186.632 253.601 186.996 253.789 187.253C253.977 187.509 254.341 187.565 254.598 187.377ZM241.563 183.305L251.269 184.796L250.772 188.031L239.448 186.292L238.763 185.359L241.563 183.305Z" fill="#FFA054"/>
</svg>
