<svg width="48" height="48" viewBox="0 0 48 48" fill="none" xmlns="http://www.w3.org/2000/svg">
<path d="M46.5939 39.5792H45.1876V21.2401C45.1876 18.8562 43.2557 16.8425 40.9688 16.8425H33.8438V15.4389C33.8438 13.302 32.2402 11.533 30.171 11.2649L33.4318 8.01035C33.8599 7.58323 33.966 6.9306 33.6954 6.39034L30.8828 0.776329C30.5354 0.0829985 29.6907 -0.198076 28.9961 0.148682L23.9999 2.64186L19.0039 0.148495C18.3094 -0.19817 17.4646 0.0828112 17.1172 0.776142L14.3047 6.39015C14.0341 6.93041 14.1402 7.58303 14.5682 8.01017L17.8291 11.2647C15.76 11.5329 14.1562 13.3018 14.1562 15.4387V16.8423H7.03125C4.7444 16.8423 2.8125 18.8561 2.8125 21.2399V39.579H1.40625C0.629624 39.579 0 40.2073 0 40.9825V42.3859C0 45.4816 2.52337 48 5.62499 48H42.3749C45.4767 48 48 45.4816 48 42.3859V40.9825C48 40.2075 47.3704 39.5792 46.5939 39.5792ZM31.0313 23.5914C31.0313 24.2554 30.971 24.9078 30.8583 25.5441H17.1419C17.0292 24.9078 16.9689 24.2554 16.9689 23.5914V19.6493H31.0313V23.5914ZM29.9633 28.3511C28.7776 30.8526 26.6735 32.8591 24.0001 33.8785C21.3267 32.8591 19.2226 30.8526 18.0369 28.3511H29.9633ZM30.7265 6.74074L26.23 11.2284H25.4064V5.07826L28.9963 3.28683L30.7265 6.74074ZM19.0039 3.28683L22.5938 5.07826V11.2283H21.7701L17.2736 6.74065L19.0039 3.28683ZM18.3752 14.0354H29.625C30.4004 14.0354 31.0313 14.665 31.0313 15.4389V16.8425H16.9689V15.4389C16.9689 14.665 17.5997 14.0354 18.3752 14.0354ZM5.62509 21.2401C5.62509 20.4225 6.30854 19.6493 7.03134 19.6493H14.1563V23.5916C14.1563 29.4494 17.8907 34.8156 23.5554 36.7001C23.6997 36.7481 23.8499 36.7723 24.0001 36.7723C24.1503 36.7723 24.3005 36.7483 24.4448 36.7001C30.0688 34.8292 33.8438 29.4959 33.8438 23.5916V19.6493H40.9688C41.6917 19.6493 42.3751 20.4225 42.3751 21.2401V39.5792H5.62509V21.2401ZM42.3751 45.1931H5.62509C4.07428 45.1931 2.81259 43.9339 2.81259 42.3853H45.1876C45.1876 43.9339 43.9259 45.1931 42.3751 45.1931Z" fill="#FFA054"/>
<path d="M10.2858 22.5308C9.47429 22.5308 8.81641 23.1844 8.81641 23.9904V35.765C8.81641 36.571 9.47429 37.2246 10.2858 37.2246C11.0973 37.2246 11.7552 36.571 11.7552 35.765V23.9904C11.7552 23.1842 11.0973 22.5308 10.2858 22.5308Z" fill="#FFA054"/>
<path d="M37.7143 22.5308C36.9028 22.5308 36.2449 23.1844 36.2449 23.9904V35.765C36.2449 36.571 36.9028 37.2246 37.7143 37.2246C38.5258 37.2246 39.1836 36.571 39.1836 35.765V23.9904C39.1836 23.1842 38.5258 22.5308 37.7143 22.5308Z" fill="#FFA054"/>
</svg>
