<svg width="14" height="14" viewBox="0 0 14 14" fill="none" xmlns="http://www.w3.org/2000/svg">
<g clip-path="url(#clip0_2888_2254)">
<path d="M6.49014 0C4.96597 0.102774 3.5176 0.70272 2.36719 1.70781L4.01451 3.35979C4.71868 2.777 5.58058 2.41733 6.49014 2.32672V0Z" fill="#FFA054"/>
<path d="M2.32672 6.49209C2.41733 5.58254 2.777 4.72063 3.35979 4.01646L1.71247 2.36914C0.703306 3.51745 0.10135 4.96673 0 6.49209H2.32672Z" fill="#FFA054"/>
<path d="M13.9377 6.49209C13.8364 4.96673 13.2344 3.51745 12.2253 2.36914L10.5547 4.01646C11.1459 4.71782 11.5138 5.57998 11.611 6.49209H13.9377Z" fill="#FFA054"/>
<path d="M11.5448 1.70781C10.3944 0.70272 8.94605 0.102774 7.42188 0V2.32672C8.33143 2.41733 9.19334 2.777 9.89751 3.35979L11.5448 1.70781Z" fill="#FFA054"/>
<path d="M11.145 7.42248C11.0216 7.42248 10.9032 7.37345 10.816 7.28618C10.7287 7.19891 10.6797 7.08055 10.6797 6.95713C10.6797 5.9698 10.2874 5.0229 9.58929 4.32475C8.89114 3.62659 7.94424 3.23438 6.9569 3.23438C5.96957 3.23438 5.02267 3.62659 4.32452 4.32475C3.62636 5.0229 3.23415 5.9698 3.23415 6.95713C3.23415 7.08055 3.18512 7.19891 3.09785 7.28618C3.01058 7.37345 2.89222 7.42248 2.7688 7.42248H0C0.102813 9.20103 0.881784 10.873 2.17735 12.0958C3.47292 13.3186 5.18702 13.9998 6.96854 13.9998C8.75006 13.9998 10.4642 13.3186 11.7597 12.0958C13.0553 10.873 13.8343 9.20103 13.9371 7.42248H11.145ZM6.9569 10.6799C6.52494 10.6799 6.11068 10.5083 5.80523 10.2029C5.49979 9.89741 5.3282 9.48314 5.3282 9.05118C5.3282 8.33455 6.25889 6.72446 6.56136 6.25912C6.60309 6.19178 6.66133 6.1362 6.73055 6.09767C6.79977 6.05913 6.87768 6.03891 6.9569 6.03891C7.03613 6.03891 7.11404 6.05913 7.18326 6.09767C7.25248 6.1362 7.31071 6.19178 7.35245 6.25912C7.64561 6.72446 8.58561 8.34386 8.58561 9.05118C8.58561 9.48314 8.41402 9.89741 8.10857 10.2029C7.80313 10.5083 7.38886 10.6799 6.9569 10.6799Z" fill="#FFA054"/>
<path d="M6.25781 9.05058C6.25781 9.23571 6.33135 9.41325 6.46226 9.54415C6.59316 9.67506 6.7707 9.7486 6.95583 9.7486C7.14096 9.7486 7.3185 9.67506 7.4494 9.54415C7.58031 9.41325 7.65385 9.23571 7.65385 9.05058C7.50362 8.47594 7.26834 7.92697 6.95583 7.42188C6.64331 7.92697 6.40804 8.47594 6.25781 9.05058Z" fill="#FFA054"/>
</g>
<defs>
<clipPath id="clip0_2888_2254">
<rect width="14" height="14" fill="white"/>
</clipPath>
</defs>
</svg>
