<svg width="14" height="14" viewBox="0 0 14 14" fill="none" xmlns="http://www.w3.org/2000/svg">
<g clip-path="url(#clip0_2888_2270)">
<path d="M13.4428 7.45274C13.7214 7.45274 14 7.31343 14 6.96517C14 6.68657 13.791 6.40796 13.4428 6.40796H12.5373V4.94527H13.4428C13.7214 4.94527 14 4.73632 14 4.38806C14 4.10945 13.791 3.83085 13.4428 3.83085H12.398C12.0498 2.78607 11.1443 1.8806 10.0995 1.53234V0.557214C10.0995 0.278607 9.89055 0 9.54229 0C9.26368 0 8.98508 0.208955 8.98508 0.557214V1.39303H7.45274V0.557214C7.45274 0.139303 7.24378 0 6.96517 0C6.68657 0 6.40796 0.208955 6.40796 0.557214V1.39303H4.94527V0.557214C4.94527 0.208955 4.66667 0 4.38806 0C4.10945 0 3.9005 0.208955 3.9005 0.557214V1.60199C2.78607 1.8806 1.8806 2.78607 1.53234 3.9005H0.557214C0.208955 3.9005 0 4.10945 0 4.38806C0 4.66667 0.208955 4.94527 0.557214 4.94527H1.39303V6.47761H0.557214C0.208955 6.47761 0 6.68657 0 6.96517C0 7.24378 0.208955 7.52239 0.557214 7.52239H1.39303V9.05473H0.557214C0.278607 9.05473 0 9.26368 0 9.61194C0 9.89055 0.208955 10.1692 0.557214 10.1692H1.60199C1.8806 11.1443 2.78607 12.0498 3.9005 12.398V13.4428C3.9005 13.7214 4.10945 14 4.45771 14C4.73632 14 5.01493 13.791 5.01493 13.4428V12.5373H6.54726V13.4428C6.54726 13.7214 6.75622 14 7.10448 14C7.38309 14 7.66169 13.791 7.66169 13.4428V12.5373H9.19403V13.4428C9.19403 13.7214 9.40299 14 9.75124 14C10.0299 14 10.3085 13.791 10.3085 13.4428V12.398C11.4229 12.0498 12.2587 11.2139 12.607 10.0995H13.6517C13.9303 10.0995 14.209 9.89055 14.209 9.54229C14.209 9.26368 14 8.98507 13.6517 8.98507H12.5373V7.45274H13.4428ZM10.5871 8.56716C10.5871 9.68159 9.68159 10.6567 8.56716 10.6567H5.36318C4.24876 10.6567 3.27363 9.68159 3.27363 8.56716V5.36318C3.27363 4.24876 4.24876 3.27363 5.36318 3.27363H8.49751C9.61194 3.27363 10.5871 4.24876 10.5871 5.36318V8.56716Z" fill="#FFA054"/>
<path d="M5.57855 9.89239H8.36462C9.27009 9.89239 9.96661 9.19588 9.96661 8.2904V5.50433C9.96661 4.59886 9.27009 3.90234 8.36462 3.90234H5.57855C4.67308 3.90234 3.97656 4.59886 3.97656 5.50433V8.2904C4.04621 9.19588 4.74273 9.89239 5.57855 9.89239Z" fill="#FFA054"/>
</g>
<defs>
<clipPath id="clip0_2888_2270">
<rect width="14" height="14" fill="white"/>
</clipPath>
</defs>
</svg>
