<svg width="14" height="14" viewBox="0 0 14 14" fill="none" xmlns="http://www.w3.org/2000/svg">
<g clip-path="url(#clip0_2882_2195)">
<path d="M4.10156 4.10156H9.89844V9.89844H4.10156V4.10156Z" fill="#FFA054"/>
<path d="M13.5898 5.76953C13.8164 5.76953 14 5.58592 14 5.35938C14 5.13283 13.8164 4.94922 13.5898 4.94922H12.3594V4.12891H13.5898C13.8164 4.12891 14 3.9453 14 3.71875C14 3.4922 13.8164 3.30859 13.5898 3.30859H12.3594V2.59766C12.3594 2.0699 11.9301 1.64062 11.4023 1.64062H10.6914V0.410156C10.6914 0.183609 10.5078 0 10.2812 0C10.0547 0 9.87109 0.183609 9.87109 0.410156V1.64062H9.05078V0.410156C9.05078 0.183609 8.86717 0 8.64062 0C8.41408 0 8.23047 0.183609 8.23047 0.410156V1.64062H7.41016V0.410156C7.41016 0.183609 7.22655 0 7 0C6.77345 0 6.58984 0.183609 6.58984 0.410156V1.64062H5.76953V0.410156C5.76953 0.183609 5.58592 0 5.35938 0C5.13283 0 4.94922 0.183609 4.94922 0.410156V1.64062H4.12891V0.410156C4.12891 0.183609 3.9453 0 3.71875 0C3.4922 0 3.30859 0.183609 3.30859 0.410156V1.64062H2.59766C2.0699 1.64062 1.64062 2.0699 1.64062 2.59766V3.30859H0.410156C0.183609 3.30859 0 3.4922 0 3.71875C0 3.9453 0.183609 4.12891 0.410156 4.12891H1.64062V4.94922H0.410156C0.183609 4.94922 0 5.13283 0 5.35938C0 5.58592 0.183609 5.76953 0.410156 5.76953H1.64062V6.58984H0.410156C0.183609 6.58984 0 6.77345 0 7C0 7.22655 0.183609 7.41016 0.410156 7.41016H1.64062V8.23047H0.410156C0.183609 8.23047 0 8.41408 0 8.64062C0 8.86717 0.183609 9.05078 0.410156 9.05078H1.64062V9.87109H0.410156C0.183609 9.87109 0 10.0547 0 10.2812C0 10.5078 0.183609 10.6914 0.410156 10.6914H1.64062V11.4023C1.64062 11.9301 2.0699 12.3594 2.59766 12.3594H3.30859V13.5898C3.30859 13.8164 3.4922 14 3.71875 14C3.9453 14 4.12891 13.8164 4.12891 13.5898V12.3594H4.94922V13.5898C4.94922 13.8164 5.13283 14 5.35938 14C5.58592 14 5.76953 13.8164 5.76953 13.5898V12.3594H6.58984V13.5898C6.58984 13.8164 6.77345 14 7 14C7.22655 14 7.41016 13.8164 7.41016 13.5898V12.3594H8.23047V13.5898C8.23047 13.8164 8.41408 14 8.64062 14C8.86717 14 9.05078 13.8164 9.05078 13.5898V12.3594H9.87109V13.5898C9.87109 13.8164 10.0547 14 10.2812 14C10.5078 14 10.6914 13.8164 10.6914 13.5898V12.3594H11.4023C11.9301 12.3594 12.3594 11.9301 12.3594 11.4023V10.6914H13.5898C13.8164 10.6914 14 10.5078 14 10.2812C14 10.0547 13.8164 9.87109 13.5898 9.87109H12.3594V9.05078H13.5898C13.8164 9.05078 14 8.86717 14 8.64062C14 8.41408 13.8164 8.23047 13.5898 8.23047H12.3594V7.41016H13.5898C13.8164 7.41016 14 7.22655 14 7C14 6.77345 13.8164 6.58984 13.5898 6.58984H12.3594V5.76953H13.5898ZM10.7188 10.3086C10.7188 10.5351 10.5351 10.7188 10.3086 10.7188H3.69141C3.46486 10.7188 3.28125 10.5351 3.28125 10.3086V3.69141C3.28125 3.46486 3.46486 3.28125 3.69141 3.28125H10.3086C10.5351 3.28125 10.7188 3.46486 10.7188 3.69141V10.3086Z" fill="#FFA054"/>
</g>
<defs>
<clipPath id="clip0_2882_2195">
<rect width="14" height="14" fill="white"/>
</clipPath>
</defs>
</svg>
