<svg width="14" height="14" viewBox="0 0 14 14" fill="none" xmlns="http://www.w3.org/2000/svg">
<path d="M9.74844 13.3C9.74844 13.72 9.46844 14 9.04844 14H4.84844C4.49844 14 4.14844 13.72 4.14844 13.3V11.9C4.14844 11.13 4.77844 10.5 5.54844 10.5H8.34844C9.11844 10.5 9.74844 11.13 9.74844 11.9V13.3Z" fill="#FFA054"/>
<path d="M11.5 5.59873V7.13873C11.5 7.48873 11.64 7.83873 11.92 8.11873L12.48 8.67873C12.76 8.95873 12.9 9.30873 12.9 9.65873V10.4987C12.9 12.1087 12.27 13.2987 10.87 13.7887C10.66 13.8587 10.45 13.7187 10.45 13.4387V11.8987C10.45 10.7787 9.47 9.79873 8.35 9.79873H5.55C4.36 9.79873 3.45 10.7087 3.45 11.8987V13.4387C3.45 13.6487 3.24 13.8587 3.03 13.7887C1.63 13.2987 1 12.1087 1 10.4987V3.49873C1 1.81873 1.7 0.558731 3.17 0.138731C3.38 0.0687307 3.59 0.278731 3.59 0.488731V2.02873C3.59 2.37873 3.73 2.65873 3.94 2.93873C4.15 3.14873 4.43 3.28873 4.78 3.28873C5.13 3.28873 5.48 3.14873 5.69 2.86873C5.76 2.79873 5.9 2.79873 5.97 2.86873C6.18 3.07873 6.53 3.21873 6.88 3.21873C7.23 3.21873 7.58 3.07873 7.79 2.79873C7.86 2.72873 8 2.72873 8.07 2.79873C8.28 3.00873 8.63 3.14873 8.98 3.21873C9.68 3.21873 10.17 2.65873 10.24 2.02873V0.488731C10.24 0.278731 10.45 0.138731 10.66 0.138731C12.2 0.558731 12.9 1.81873 12.9 3.49873V4.19873C12.9 4.61873 12.55 4.89873 12.2 4.89873C11.85 4.89873 11.5 5.17873 11.5 5.59873Z" fill="#FFA054"/>
<path d="M4.98432 0C5.19432 0 5.33432 0.14 5.33432 0.35V2.03C5.33432 2.31 5.12432 2.52 4.77432 2.52C4.49432 2.52 4.21432 2.31 4.28432 1.96V0.35C4.28432 0.14 4.42432 0 4.63432 0H4.98432Z" fill="#FFA054"/>
<path d="M7.08588 0C7.29588 0 7.43588 0.14 7.43588 0.35V2.03C7.43588 2.31 7.22588 2.52 6.87588 2.52C6.59588 2.52 6.31588 2.31 6.38588 1.96V0.35C6.38588 0.14 6.52588 0 6.73588 0H7.08588Z" fill="#FFA054"/>
<path d="M9.18744 0C9.39744 0 9.53744 0.14 9.53744 0.35V2.03C9.53744 2.31 9.32744 2.52 8.97744 2.52C8.69744 2.52 8.41744 2.31 8.48744 1.96V0.35C8.48744 0.14 8.62744 0 8.83744 0H9.18744Z" fill="#FFA054"/>
</svg>
