<svg width="14" height="14" viewBox="0 0 14 14" fill="none" xmlns="http://www.w3.org/2000/svg">
<g clip-path="url(#clip0_2882_2239)">
<path d="M13.3163 1.76047L12.2395 0.683701C11.802 0.24556 11.2088 0 10.5898 0H1.6042C0.718094 0 0 0.718094 0 1.6042V12.3958C0 13.2819 0.718094 14 1.6042 14H12.3958C13.2819 14 14 13.2819 14 12.3958V3.41017C14 2.7912 13.7544 2.19797 13.3163 1.76047ZM2.3333 3.6458V2.1875C2.3333 1.946 2.5293 1.75 2.7708 1.75H8.8958C9.1373 1.75 9.3333 1.946 9.3333 2.1875V3.6458C9.3333 3.8873 9.1373 4.0833 8.8958 4.0833H2.7708C2.5293 4.0833 2.3333 3.8873 2.3333 3.6458ZM7 11.6667C5.55046 11.6667 4.375 10.4912 4.375 9.0417C4.375 7.59206 5.55046 6.4167 7 6.4167C8.44954 6.4167 9.625 7.59206 9.625 9.0417C9.625 10.4912 8.44954 11.6667 7 11.6667Z" fill="#FFA054"/>
</g>
<defs>
<clipPath id="clip0_2882_2239">
<rect width="14" height="14" fill="white"/>
</clipPath>
</defs>
</svg>
