<svg width="52" height="52" viewBox="0 0 52 52" fill="none" xmlns="http://www.w3.org/2000/svg">
<path d="M36.3657 32.3604C33.8557 36.6134 30.2499 40.1145 25.9249 42.4983C21.6191 40.1071 18.032 36.6065 15.5364 32.3604H36.3657Z" fill="#2D3250"/>
<path d="M40.208 17.4513V13.4943L26.0085 9.13005L11.8091 13.4943V17.4513H40.208Z" fill="#2D3250"/>
<path d="M26.0086 41.6833C29.6841 39.5717 32.8075 36.62 35.1234 33.0696H16.8938C19.2096 36.62 22.3331 39.5717 26.0086 41.6833Z" fill="#2D3250"/>
<path d="M12.519 14.0153V16.7403H39.498V14.0153L26.0085 9.83897L12.519 14.0153ZM23.8368 15.3204H22.4586V13.9004H23.8368V15.3204ZM28.0967 13.9004H29.5166V15.3204H28.1384L28.0967 13.9004ZM26.6767 15.3204H25.2985V13.9004H26.7185L26.6767 15.3204Z" fill="#2D3250"/>
<path d="M22.4585 13.9015H23.8367V15.3215H22.4585V13.9015Z" fill="#2D3250"/>
<path d="M25.2986 13.9015H26.7185V15.3215H25.2986V13.9015Z" fill="#2D3250"/>
<path d="M28.1384 13.9015H29.5584V15.3215H28.1384V13.9015Z" fill="#2D3250"/>
<path d="M45.8876 16.7303H40.9178V13.4728C40.9178 13.321 40.8692 13.1731 40.779 13.051C40.6888 12.9288 40.5618 12.8388 40.4166 12.7942L26.2172 8.4195C26.0811 8.37763 25.9356 8.37763 25.7996 8.4195L11.6001 12.7942C11.455 12.8388 11.328 12.9288 11.2378 13.051C11.1476 13.1731 11.099 13.321 11.099 13.4728V18.1503H45.8876C45.9812 18.1489 46.0742 18.1663 46.161 18.2015C46.2477 18.2366 46.3266 18.2889 46.3928 18.3551C46.459 18.4213 46.5112 18.5001 46.5464 18.5869C46.5816 18.6737 46.599 18.7666 46.5976 18.8603V30.9507C46.5976 31.139 46.5228 31.3195 46.3896 31.4527C46.2565 31.5858 46.0759 31.6606 45.8876 31.6606H6.08742C5.89912 31.6606 5.71854 31.5858 5.58539 31.4527C5.45225 31.3195 5.37745 31.139 5.37745 30.9507V18.8603C5.37604 18.7666 5.39344 18.6737 5.42862 18.5869C5.4638 18.5001 5.51605 18.4213 5.58226 18.3551C5.64847 18.2889 5.72729 18.2366 5.81407 18.2015C5.90084 18.1663 5.9938 18.1489 6.08742 18.1503H9.63728V16.7303H8.2591V11.3742C8.2574 11.222 8.30541 11.0733 8.39586 10.9509C8.48631 10.8284 8.61425 10.7388 8.76025 10.6956L25.7996 5.47521C25.9356 5.43334 26.0811 5.43334 26.2172 5.47521L43.2565 10.6956C43.4025 10.7388 43.5305 10.8284 43.6209 10.9509C43.7114 11.0733 43.7594 11.222 43.7577 11.3742V15.3H45.1776V11.3742C45.1845 10.9171 45.0411 10.4703 44.7695 10.1025C44.4979 9.73474 44.1131 9.46625 43.6742 9.33829L26.6348 4.08658C26.2271 3.95834 25.7897 3.95834 25.3819 4.08658L8.34262 9.30697C7.89484 9.43717 7.50353 9.71351 7.23105 10.092C6.95857 10.4704 6.82061 10.9292 6.83915 11.3951V16.7303H6.08742C5.53361 16.7303 5.00248 16.9503 4.61087 17.342C4.21927 17.7336 3.99927 18.2647 3.99927 18.8185L3.99927 30.9507C3.99927 31.5045 4.21927 32.0356 4.61087 32.4272C5.00248 32.8188 5.53361 33.0388 6.08742 33.0388H15.1918C17.7347 37.2469 21.3341 40.7167 25.6325 43.1037C25.7385 43.1604 25.8569 43.19 25.9771 43.19C26.0973 43.19 26.2156 43.1604 26.3216 43.1037C30.6201 40.7167 34.2194 37.2469 36.7624 33.0388H40.0617C36.933 38.9144 32.0093 43.6369 26.0084 46.5178C20.3628 43.8449 15.6597 39.524 12.5189 34.1247L11.3078 34.8451C12.4283 36.7525 13.7364 38.5433 15.2126 40.1907H8.94819V41.5794H16.5282C17.5648 42.6009 18.6707 43.5498 19.8379 44.4193H8.96907V45.8496H21.9261C23.1402 46.6314 24.4065 47.3291 25.7161 47.9378C25.8079 47.9793 25.9076 48.0008 26.0084 48.0008C26.1092 48.0008 26.2089 47.9793 26.3007 47.9378C27.608 47.3246 28.874 46.6271 30.0907 45.8496H43.0477V44.4506H32.1893C33.3398 43.5694 34.4282 42.6101 35.4468 41.5794H43.0477V40.1907H36.7833C38.7167 38.0474 40.3563 35.6564 41.6591 33.0806H45.8354C46.3892 33.0806 46.9203 32.8606 47.312 32.469C47.7036 32.0774 47.9236 31.5462 47.9236 30.9924V18.8603C47.9236 18.3064 47.7036 17.7753 47.312 17.3837C46.9203 16.9921 46.3892 16.7721 45.8354 16.7721L45.8876 16.7303ZM39.4979 16.7303H12.5189V14.0157L26.0084 9.83944L39.4979 14.0157V16.7303ZM26.0084 41.6838C22.3329 39.5722 19.2094 36.6205 16.8936 33.0701H35.1232C32.8073 36.6205 29.6839 39.5722 26.0084 41.6838Z" fill="#2D3250"/>
<path d="M18.3866 27.2234C17.8761 27.4008 17.3206 27.4008 16.8101 27.2234C16.5335 27.102 16.2767 26.9402 16.0479 26.7431C15.8955 26.6243 15.7046 26.5661 15.5118 26.5796C15.3191 26.5931 15.1382 26.6773 15.0038 26.8162C14.8562 26.9825 14.7792 27.1997 14.7889 27.4219C14.7987 27.644 14.8944 27.8536 15.056 28.0064C15.0758 28.0295 15.1009 28.0474 15.1291 28.0586C15.4729 28.375 15.8832 28.6104 16.3298 28.7477C17.2484 29.0391 18.2387 29.0097 19.1383 28.6642C19.5703 28.5084 19.9451 28.2256 20.2135 27.853C20.4818 27.4803 20.6311 27.0351 20.6418 26.576C20.671 26.0988 20.5294 25.6267 20.2425 25.2441C19.9556 24.8616 19.5421 24.5935 19.0757 24.4879C18.2718 24.2269 17.7602 24.2164 17.1128 23.9972C16.7578 23.8719 16.5073 23.6839 16.5073 23.3081C16.5123 23.1621 16.5651 23.0218 16.6575 22.9087C16.7499 22.7955 16.8768 22.7158 17.0189 22.6816C17.4291 22.5462 17.872 22.5462 18.2822 22.6816C18.6606 22.7651 19.0167 22.9289 19.3263 23.1619C19.4995 23.261 19.704 23.2903 19.898 23.2437C20.0921 23.1972 20.261 23.0783 20.3703 22.9113C20.4494 22.7867 20.4893 22.6412 20.4852 22.4937C20.4824 22.3568 20.4479 22.2224 20.3845 22.1011C20.3211 21.9797 20.2305 21.8747 20.1198 21.7942C19.8108 21.5414 19.4565 21.3501 19.0757 21.2304C18.1785 20.9285 17.2044 20.9469 16.3193 21.2826C15.896 21.4427 15.532 21.7287 15.2762 22.102C15.0205 22.4754 14.8853 22.9182 14.8889 23.3707C14.8665 23.8287 14.9955 24.2813 15.2559 24.6587C15.5163 25.0361 15.8937 25.3173 16.3298 25.4589C17.1442 25.7825 17.6453 25.6886 18.3344 25.96C18.7207 26.1062 19.0026 26.3046 19.0026 26.7118C19.0026 27.119 18.6789 27.2442 18.3866 27.3487V27.2234Z" fill="#2D3250"/>
<path d="M26.8748 27.2237C26.3643 27.4011 25.8088 27.4011 25.2982 27.2237C25.0217 27.1023 24.7649 26.9405 24.5361 26.7434C24.3837 26.6246 24.1928 26.5664 24 26.5799C23.8073 26.5934 23.6264 26.6776 23.492 26.8165C23.4128 26.8951 23.3499 26.9886 23.307 27.0917C23.264 27.1947 23.2419 27.3052 23.2419 27.4168C23.2419 27.5284 23.264 27.639 23.307 27.742C23.3499 27.845 23.4128 27.9385 23.492 28.0172C23.5118 28.0402 23.5369 28.0581 23.5651 28.0694C23.9089 28.3857 24.3192 28.6212 24.7658 28.7585C25.6843 29.0499 26.6747 29.0204 27.5743 28.6749C28.0063 28.5192 28.3811 28.2364 28.6495 27.8637C28.9178 27.491 29.0671 27.0459 29.0778 26.5868C29.107 26.1095 28.9654 25.6374 28.6785 25.2549C28.3916 24.8723 27.978 24.6043 27.5117 24.4986C26.6973 24.2272 26.2066 24.2376 25.5488 24.0079C25.1938 23.8826 24.9433 23.6947 24.9433 23.3188C24.9483 23.1728 25.0011 23.0325 25.0935 22.9194C25.1859 22.8063 25.3128 22.7265 25.4549 22.6924C25.8651 22.557 26.308 22.557 26.7182 22.6924C27.0958 22.7782 27.4514 22.9418 27.7623 23.1727C27.9072 23.2731 28.084 23.317 28.2591 23.2958C28.4343 23.2746 28.5955 23.1899 28.7124 23.0578C28.8641 22.9052 28.9493 22.6988 28.9493 22.4836C28.9493 22.2684 28.8641 22.0619 28.7124 21.9093L28.5871 21.8049C28.2782 21.5522 27.9238 21.3608 27.543 21.2411C26.6458 20.9392 25.6718 20.9577 24.7866 21.2933C24.3633 21.4534 23.9993 21.7394 23.7435 22.1128C23.4878 22.4861 23.3526 22.9289 23.3563 23.3815C23.3339 23.8394 23.4628 24.292 23.7232 24.6694C23.9836 25.0468 24.361 25.328 24.7971 25.4696C25.6115 25.7933 26.1126 25.6993 26.8017 25.9708C27.1776 26.1169 27.4699 26.3153 27.4699 26.7225C27.4699 27.1297 27.1463 27.255 26.8539 27.3594L26.8748 27.2237Z" fill="#2D3250"/>
<path d="M33.5572 21.2299C33.3975 21.0755 33.1841 20.9892 32.962 20.9892C32.7399 20.9892 32.5266 21.0755 32.3669 21.2299C32.2874 21.3045 32.2248 21.3953 32.1834 21.4961C32.1419 21.597 32.1226 21.7056 32.1268 21.8146V28.0059C32.124 28.1124 32.1424 28.2183 32.1809 28.3176C32.2194 28.4169 32.2772 28.5075 32.3511 28.5842C32.4249 28.661 32.5132 28.7223 32.6109 28.7646C32.7086 28.8069 32.8138 28.8294 32.9203 28.8307H36.4179C36.6287 28.8337 36.8323 28.7549 36.9862 28.6108C37.14 28.4667 37.232 28.2686 37.2427 28.0581C37.2469 27.9531 37.2302 27.8482 37.1935 27.7497C37.1568 27.6511 37.1009 27.5608 37.029 27.4841C36.9571 27.4073 36.8707 27.3457 36.7747 27.3026C36.6788 27.2595 36.5752 27.236 36.4701 27.2333H33.8077V21.825C33.8114 21.7136 33.7908 21.6027 33.7476 21.5C33.7043 21.3973 33.6394 21.3051 33.5572 21.2299Z" fill="#2D3250"/>
</svg>
