<svg width="52" height="52" viewBox="0 0 52 52" fill="none" xmlns="http://www.w3.org/2000/svg">
<path d="M13.6948 26C13.6982 24.4671 13.9943 22.949 14.5673 21.5272L8.16905 15.1289C6.12571 18.3889 5.02854 22.1527 5 26C5.03012 29.8471 6.12717 33.6104 8.16905 36.8711L14.5673 30.4728C13.9955 29.0507 13.6994 27.5328 13.6948 26Z" fill="#2D3250"/>
<path d="M15.7407 32.7693L9.59314 38.9269C10.6111 40.2207 11.7793 41.3889 13.0731 42.4069L19.2206 36.2493C17.8414 35.3315 16.6585 34.1485 15.7407 32.7693Z" fill="#2D3250"/>
<path d="M36.2492 32.7693C35.3369 34.1531 34.153 35.337 32.7693 36.2493L38.9269 42.4069C40.2183 41.3863 41.3862 40.2184 42.4068 38.9269L36.2492 32.7693Z" fill="#2D3250"/>
<path d="M38.3051 26C38.2955 27.5323 37.9996 29.0492 37.4326 30.4728L43.8309 36.8711C45.8728 33.6104 46.9698 29.8471 47 26C46.9714 22.1527 45.8742 18.3889 43.8309 15.1289L37.4326 21.5272C38.0008 22.9504 38.2967 24.4676 38.3051 26Z" fill="#2D3250"/>
<path d="M30.4727 37.4327C27.6043 38.5957 24.3956 38.5957 21.5272 37.4327L15.1289 43.8309C18.3889 45.8743 22.1526 46.9715 26 47C29.8471 46.9699 33.6104 45.8728 36.871 43.8309L30.4727 37.4327Z" fill="#2D3250"/>
<path d="M21.5272 14.5673C24.3956 13.4043 27.6043 13.4043 30.4727 14.5673L36.871 8.16905C33.6104 6.12717 29.8471 5.03012 26 5C22.1526 5.02854 18.3889 6.12571 15.1289 8.16905L21.5272 14.5673Z" fill="#2D3250"/>
<path d="M15.7407 19.2203C16.664 17.8456 17.8459 16.6636 19.2206 15.7403L13.0731 9.59277C11.777 10.6081 10.6085 11.7766 9.59314 13.0727L15.7407 19.2203Z" fill="#2D3250"/>
<path d="M36.2492 19.2203L42.4068 13.0727C41.3889 11.7789 40.2207 10.6107 38.9269 9.59277L32.7693 15.7403C34.1485 16.6582 35.3314 17.8411 36.2492 19.2203Z" fill="#2D3250"/>
<path d="M30.2421 22.8506V21.9781C30.2701 21.403 30.181 20.8282 29.9801 20.2886C29.7793 19.749 29.471 19.2558 29.0739 18.8389C28.6767 18.4219 28.1991 18.09 27.6698 17.8633C27.1406 17.6365 26.5708 17.5195 25.995 17.5195C25.4192 17.5195 24.8494 17.6365 24.3202 17.8633C23.791 18.09 23.3133 18.4219 22.9162 18.8389C22.519 19.2558 22.2107 19.749 22.0099 20.2886C21.8091 20.8282 21.7199 21.403 21.7479 21.9781V22.8506H20.1533V28.4265C20.2158 29.934 20.8586 31.3589 21.9473 32.4034C23.036 33.4479 24.4863 34.0312 25.995 34.0312C27.5037 34.0312 28.9541 33.4479 30.0428 32.4034C31.1315 31.3589 31.7742 29.934 31.8367 28.4265V22.8506H30.2421ZM23.3424 21.9781C23.3424 21.2733 23.6224 20.5973 24.1208 20.0989C24.6192 19.6005 25.2952 19.3205 26 19.3205C26.7049 19.3205 27.3808 19.6005 27.8792 20.0989C28.3776 20.5973 28.6576 21.2733 28.6576 21.9781V22.8506H23.3424V21.9781ZM25.4384 30.322L23.3123 28.1959L24.4356 27.0626L25.4986 28.1257L27.5846 26.2403L28.6576 27.4237L25.4384 30.322Z" fill="#2D3250"/>
</svg>
