<svg width="52" height="52" viewBox="0 0 52 52" fill="none" xmlns="http://www.w3.org/2000/svg">
<g clip-path="url(#clip0_254_12143)">
<path d="M38.2501 27.5391C36.4852 27.54 34.7546 28.0267 33.2481 28.9459L32.2027 27.8908C32.0314 27.7209 31.8136 27.6056 31.5768 27.5595C31.34 27.5133 31.0948 27.5383 30.8722 27.6313C30.6496 27.7243 30.4595 27.8812 30.3259 28.0821C30.1924 28.283 30.1214 28.519 30.1218 28.7603V32.8146C30.1218 33.1385 30.2505 33.4491 30.4795 33.6781C30.7085 33.9072 31.0191 34.0358 31.343 34.0358H35.3778C35.6182 34.0343 35.8529 33.9619 36.0523 33.8276C36.2518 33.6933 36.4071 33.5032 36.4989 33.281C36.5907 33.0587 36.6149 32.8144 36.5684 32.5785C36.5219 32.3426 36.4068 32.1257 36.2375 31.9549L35.6221 31.3394C36.852 30.7994 38.2191 30.6539 39.5351 30.923C40.8512 31.1921 42.0515 31.8624 42.9708 32.8419C43.8901 33.8213 44.4832 35.0616 44.6685 36.392C44.8537 37.7224 44.6221 39.0776 44.0053 40.2709C43.3886 41.4642 42.4171 42.4371 41.2247 43.0554C40.0322 43.6738 38.6774 43.9074 37.3467 43.724C36.016 43.5405 34.7749 42.9491 33.7942 42.0312C32.8135 41.1132 32.1414 39.9139 31.8705 38.5982C31.7634 38.1991 31.5088 37.8556 31.1582 37.6369C30.8075 37.4183 30.387 37.3408 29.9815 37.4202C29.576 37.4995 29.2157 37.7298 28.9733 38.0645C28.731 38.3992 28.6247 38.8134 28.6759 39.2234C29.0459 41.0358 29.9227 42.7058 31.2045 44.0394C32.4862 45.373 34.1203 46.3153 35.9165 46.7567C37.7128 47.1982 39.5974 47.1206 41.3513 46.5331C43.1052 45.9455 44.6563 44.8721 45.8241 43.4377C46.992 42.0033 47.7286 40.2668 47.9484 38.4302C48.1682 36.5936 47.862 34.7324 47.0656 33.0629C46.2691 31.3935 45.0151 29.9844 43.4494 28.9997C41.8836 28.0149 40.0704 27.4948 38.2207 27.5L38.2501 27.5391Z" fill="#2D3250"/>
<path d="M9 22.6543V32.4239H26.8783V28.7212C26.8759 27.9097 27.0952 27.113 27.5126 26.417C27.93 25.7211 28.5295 25.1524 29.2465 24.7723C29.9634 24.3922 30.7706 24.2151 31.5808 24.2603C32.3911 24.3054 33.1736 24.571 33.8439 25.0283C35.2555 24.5118 36.7469 24.2473 38.25 24.2467V22.6543H9Z" fill="#2D3250"/>
<path d="M25.5203 39.8199C25.3769 39.0767 25.4081 38.3104 25.6116 37.5814C25.815 36.8523 26.1851 36.1806 26.6926 35.619H9V42.5261C9 43.7111 9.47007 44.8477 10.3071 45.6866C11.1441 46.5254 12.2797 46.998 13.4647 47.0005H29.6821C27.5392 45.1329 26.0756 42.6077 25.5203 39.8199Z" fill="#2D3250"/>
<path d="M33.7756 8H13.4647C12.2814 8.00258 11.1473 8.47379 10.3105 9.31053C9.47379 10.1473 9.00258 11.2814 9 12.4647V19.3717H38.25V12.4647C38.2474 11.2797 37.7749 10.1441 36.936 9.30708C36.0972 8.47007 34.9606 8 33.7756 8ZM14.6859 16.1283C14.2028 16.1283 13.7306 15.985 13.329 15.7166C12.9273 15.4483 12.6143 15.0668 12.4294 14.6205C12.2445 14.1742 12.1962 13.6832 12.2904 13.2094C12.3847 12.7356 12.6173 12.3004 12.9588 11.9588C13.3004 11.6173 13.7356 11.3847 14.2094 11.2904C14.6832 11.1962 15.1742 11.2445 15.6205 11.4294C16.0668 11.6143 16.4483 11.9273 16.7166 12.329C16.985 12.7306 17.1283 13.2028 17.1283 13.6859C17.1295 14.007 17.0673 14.3252 16.945 14.6221C16.8227 14.919 16.6428 15.1887 16.4158 15.4158C16.1887 15.6428 15.919 15.8227 15.6221 15.945C15.3252 16.0673 15.007 16.1295 14.6859 16.1283ZM22.8141 16.1283C22.3307 16.1302 21.8575 15.9886 21.4546 15.7214C21.0516 15.4542 20.7371 15.0734 20.5507 14.6273C20.3643 14.1812 20.3146 13.6898 20.4077 13.2154C20.5009 12.741 20.7327 12.3049 21.0739 11.9623C21.4151 11.6198 21.8502 11.3862 22.3243 11.2912C22.7983 11.1961 23.2899 11.2439 23.7367 11.4285C24.1836 11.6131 24.5656 11.9261 24.8344 12.3279C25.1032 12.7298 25.2467 13.2024 25.2467 13.6859C25.2467 14.3319 24.9908 14.9517 24.5348 15.4095C24.0789 15.8672 23.4602 16.1257 22.8141 16.1283ZM30.9326 16.1283C30.4518 16.1186 29.9844 15.9673 29.5893 15.6931C29.1941 15.419 28.8887 15.0342 28.7113 14.5872C28.5339 14.1401 28.4924 13.6507 28.5921 13.1801C28.6918 12.7096 28.9282 12.279 29.2716 11.9423C29.6151 11.6056 30.0503 11.3778 30.5227 11.2875C30.9951 11.1971 31.4836 11.2482 31.9271 11.4345C32.3705 11.6207 32.7491 11.9336 33.0154 12.3342C33.2817 12.7347 33.4238 13.2049 33.4238 13.6859C33.4253 14.0111 33.3614 14.3334 33.2361 14.6336C33.1108 14.9337 32.9265 15.2057 32.6943 15.4334C32.462 15.6611 32.1864 15.8399 31.8838 15.9593C31.5812 16.0786 31.2578 16.1361 30.9326 16.1283Z" fill="#2D3250"/>
</g>
<defs>
<clipPath id="clip0_254_12143">
<rect width="39" height="39" fill="white" transform="translate(9 8)"/>
</clipPath>
</defs>
</svg>
