<svg width="52" height="52" viewBox="0 0 52 52" fill="none" xmlns="http://www.w3.org/2000/svg">
<g clip-path="url(#clip0_254_12215)">
<path d="M21.6 42.27L17 37.63V39.72C16.9999 39.898 16.9364 40.0703 16.821 40.2058C16.7056 40.3414 16.5457 40.4315 16.37 40.46C15.22 40.64 11.51 40.87 8.44995 36.83C8.49132 37.951 8.77035 39.0504 9.26857 40.0555C9.76679 41.0606 10.4728 41.9483 11.34 42.66C12.7197 43.6628 14.4084 44.1478 16.11 44.03H16.21C16.4081 44.0326 16.5973 44.1124 16.7374 44.2525C16.8775 44.3926 16.9574 44.5819 16.96 44.78V46.78L21.6 42.27Z" fill="#2D3250"/>
<path d="M28.85 13.29H13.85C13.2302 13.2926 12.6365 13.54 12.1982 13.9783C11.76 14.4165 11.5126 15.0102 11.51 15.63V28.63C11.5176 29.4875 11.2357 30.3225 10.71 31H18.62V23.5C18.62 22.4816 19.0245 21.5048 19.7447 20.7847C20.4648 20.0646 21.4415 19.66 22.46 19.66H29.4C30.0236 19.6583 30.6382 19.8094 31.19 20.1V15.63C31.19 15.0094 30.9434 14.4142 30.5046 13.9754C30.0658 13.5365 29.4706 13.29 28.85 13.29Z" fill="#2D3250"/>
<path d="M44 28.4004H29C28.3785 28.403 27.7833 28.6518 27.3447 29.0922C26.9062 29.5326 26.66 30.1289 26.66 30.7504V43.9104C26.6546 43.9435 26.6546 43.9773 26.66 44.0104V44.0804C26.6654 44.1135 26.6654 44.1473 26.66 44.1804C26.6657 44.2068 26.6657 44.234 26.66 44.2604C26.66 44.2604 26.66 44.3304 26.66 44.3604V44.4304C26.6562 44.4636 26.6562 44.4972 26.66 44.5304V44.6004C26.648 44.6616 26.6313 44.7218 26.61 44.7804C26.6159 44.8033 26.6159 44.8274 26.61 44.8504V44.9404C26.6159 44.9633 26.6159 44.9874 26.61 45.0104V45.1004V45.1804V45.2604V45.3304V45.4204V45.4804L26.52 45.6404V45.7004L26.47 45.7804L26.42 45.8504V45.9204V45.9904L26.36 46.0604H44C44.6232 46.0604 45.221 45.8128 45.6617 45.3721C46.1024 44.9314 46.35 44.3336 46.35 43.7104V30.7104C46.3395 30.0941 46.0873 29.5066 45.6477 29.0745C45.2081 28.6424 44.6164 28.4003 44 28.4004Z" fill="#2D3250"/>
<path d="M7.66998 31C8.29415 30.9921 8.88977 30.7372 9.32645 30.2912C9.76314 29.8451 10.0053 29.2442 9.99998 28.62V15.62C10.0013 15.1149 10.1022 14.615 10.2971 14.1489C10.4919 13.6829 10.7767 13.2599 11.1353 12.9041C11.4939 12.5483 11.9191 12.2668 12.3866 12.0756C12.8542 11.8844 13.3549 11.7874 13.86 11.79H27.4C27.3668 11.1886 27.1049 10.6227 26.668 10.2081C26.2311 9.79349 25.6523 9.56164 25.05 9.56H19.25C19.0381 9.55988 18.8286 9.51634 18.6342 9.43206C18.4399 9.34778 18.2648 9.22456 18.12 9.07L16 6.76C15.7807 6.52481 15.5163 6.33627 15.2224 6.20569C14.9286 6.0751 14.6115 6.00514 14.29 6L7.33998 6C6.71937 6 6.12418 6.24654 5.68535 6.68537C5.24651 7.12421 4.99998 7.71939 4.99998 8.34V28.62C4.99466 28.9306 5.05127 29.2392 5.16648 29.5278C5.2817 29.8163 5.45322 30.079 5.67104 30.3005C5.88886 30.5221 6.14862 30.698 6.43516 30.8181C6.7217 30.9382 7.02929 31 7.33998 31H7.66998Z" fill="#2D3250"/>
<path d="M29.4 21.12H22.46C21.8393 21.1226 21.2446 21.3697 20.8047 21.8077C20.3648 22.2456 20.1152 22.8393 20.11 23.46V38.65L23.19 41.74C23.3304 41.8806 23.4093 42.0712 23.4093 42.27C23.4093 42.4688 23.3304 42.6594 23.19 42.8L20.7 45.28C20.9186 45.5321 21.189 45.734 21.4927 45.8721C21.7964 46.0101 22.1264 46.081 22.46 46.08H22.79C23.4115 46.0774 24.0067 45.8286 24.4452 45.3882C24.8838 44.9478 25.13 44.3515 25.13 43.73V30.73C25.1379 29.7097 25.5495 28.7341 26.2747 28.0164C26.9998 27.2987 27.9797 26.8973 29 26.9H42.51C42.4792 26.3004 42.2191 25.7356 41.7836 25.3224C41.348 24.9092 40.7703 24.6792 40.17 24.68H34.36C34.1488 24.679 33.9401 24.6341 33.7473 24.548C33.5545 24.4619 33.3817 24.3366 33.24 24.18L31.13 21.88C30.9111 21.639 30.6439 21.4468 30.3459 21.3159C30.0478 21.185 29.7255 21.1182 29.4 21.12Z" fill="#2D3250"/>
</g>
<defs>
<clipPath id="clip0_254_12215">
<rect width="41.31" height="40.86" fill="white" transform="translate(5 6)"/>
</clipPath>
</defs>
</svg>
