<svg width="52" height="52" viewBox="0 0 52 52" fill="none" xmlns="http://www.w3.org/2000/svg">
<g clip-path="url(#clip0_254_12156)">
<path d="M46.9999 46.6783V36.269C46.9999 35.9267 46.8615 35.5984 46.615 35.3563C46.3686 35.1143 46.0343 34.9783 45.6858 34.9783H25.9946V48.0003H45.6858C45.8615 48.0018 46.0357 47.9684 46.1979 47.9021C46.3601 47.8357 46.507 47.7379 46.6298 47.6144C46.7525 47.4909 46.8486 47.3444 46.9122 47.1835C46.9758 47.0226 47.0056 46.8508 46.9999 46.6783ZM36.4973 41.4737C36.3247 41.4737 36.1538 41.4403 35.9944 41.3754C35.8349 41.3105 35.6901 41.2155 35.568 41.0956C35.446 40.9758 35.3492 40.8335 35.2832 40.6769C35.2171 40.5203 35.1831 40.3524 35.1831 40.1829C35.1831 40.0134 35.2171 39.8456 35.2832 39.689C35.3492 39.5324 35.446 39.3901 35.568 39.2702C35.6901 39.1504 35.8349 39.0553 35.9944 38.9904C36.1538 38.9255 36.3247 38.8922 36.4973 38.8922C36.8458 38.8922 37.1801 39.0281 37.4265 39.2702C37.673 39.5123 37.8114 39.8406 37.8114 40.1829C37.8114 40.5252 37.673 40.8535 37.4265 41.0956C37.1801 41.3377 36.8458 41.4737 36.4973 41.4737Z" fill="#2D3250"/>
<path d="M41.7538 23.4237C41.7374 23.6022 41.7591 23.7822 41.8174 23.952C41.8758 24.1219 41.9695 24.278 42.0926 24.4103C42.2158 24.5426 42.3656 24.6483 42.5326 24.7206C42.6996 24.7929 42.8801 24.8302 43.0627 24.8302C43.2452 24.8302 43.4257 24.7929 43.5927 24.7206C43.7597 24.6483 43.9096 24.5426 44.0327 24.4103C44.1558 24.278 44.2495 24.1219 44.3079 23.952C44.3662 23.7822 44.3879 23.6022 44.3715 23.4237V19.5515H45.6857C45.8577 19.5528 46.0284 19.5207 46.1878 19.457C46.3472 19.3933 46.4921 19.2992 46.6143 19.1801C46.7365 19.0611 46.8334 18.9195 46.8996 18.7635C46.9658 18.6075 46.9998 18.4401 46.9998 18.2711V5.29075C47.0012 5.12086 46.9682 4.95239 46.9027 4.79516C46.8371 4.63793 46.7404 4.49509 46.6181 4.37496C46.4958 4.25482 46.3503 4.1598 46.1902 4.09542C46.0302 4.03105 45.8586 3.99861 45.6857 4H44.149C42.3827 4.01093 40.6503 4.47758 39.1255 5.3532V21.4459C39.8957 20.793 40.7886 20.2944 41.7538 19.9782V23.4237Z" fill="#2D3250"/>
<path d="M29.9372 19.5515H31.4951C33.3468 19.5704 35.1298 20.2428 36.5186 21.4459V5.35321C34.9937 4.47758 33.2614 4.01093 31.4951 4H29.9372C29.5887 4 29.2544 4.13599 29.008 4.37805C28.7615 4.62011 28.623 4.94842 28.623 5.29075V18.2711C28.6258 18.6116 28.7655 18.9373 29.0117 19.1771C29.2578 19.4169 29.5905 19.5515 29.9372 19.5515Z" fill="#2D3250"/>
<path d="M6.31411 48H23.3769V46.678C23.3771 45.6442 22.9641 44.6516 22.2268 43.9138C21.4895 43.176 20.4869 42.752 19.4345 42.7329H11.5601C11.2271 42.7173 10.9123 42.579 10.6786 42.3456C10.4448 42.1121 10.3093 41.8007 10.299 41.4734V33.7393C10.299 33.397 10.4374 33.0686 10.6839 32.8266C10.9303 32.5845 11.2646 32.4485 11.6131 32.4485C11.9617 32.4485 12.2959 32.5845 12.5424 32.8266C12.7888 33.0686 12.9273 33.397 12.9273 33.7393V40.1826H19.4875C20.8913 40.1923 22.2548 40.6448 23.3769 41.4734V33.7393C23.3755 33.5694 23.4086 33.4009 23.4741 33.2437C23.5396 33.0865 23.6364 32.9436 23.7587 32.8235C23.881 32.7034 24.0265 32.6083 24.1865 32.544C24.3466 32.4796 24.5181 32.4471 24.6911 32.4485H33.7418C33.444 30.986 32.6412 29.6693 31.469 28.721C30.2969 27.7726 28.8274 27.2509 27.3088 27.2439H25.8145C25.7959 27.2794 25.7707 27.3111 25.7403 27.3376C25.5257 27.8856 25.1847 28.3773 24.7441 28.7741L22.2112 31.2619C21.854 31.6308 21.4228 31.923 20.9449 32.12C20.467 32.3171 19.9527 32.4148 19.4345 32.4069C18.8958 32.4087 18.3627 32.2994 17.8698 32.086C17.3769 31.8726 16.9351 31.5599 16.573 31.1682L14.0401 28.722C13.628 28.3511 13.315 27.8864 13.1286 27.3688C13.0985 27.3462 13.0733 27.3178 13.0545 27.2855H11.5601C9.8193 27.2883 8.15072 27.9695 6.92075 29.1795C5.69078 30.3895 4.99996 32.0294 4.99996 33.7393V46.678C4.99424 46.8505 5.02408 47.0223 5.08769 47.1832C5.1513 47.3441 5.24737 47.4907 5.37012 47.6141C5.49287 47.7376 5.63977 47.8355 5.80199 47.9018C5.96422 47.9681 6.13841 48.0015 6.31411 48Z" fill="#2D3250"/>
<path d="M15.5025 25.9743C15.4997 26.1423 15.5331 26.3089 15.6007 26.4632C15.6683 26.6176 15.7685 26.756 15.8947 26.8695C16.1596 27.1297 18.7773 29.7112 18.523 29.451C18.6385 29.5749 18.7795 29.6733 18.9366 29.7397C19.0937 29.8061 19.2634 29.8389 19.4344 29.8361C19.607 29.8391 19.7783 29.8064 19.9372 29.74C20.096 29.6736 20.2389 29.5752 20.3564 29.451L23.0165 26.9007C23.1411 26.786 23.2403 26.6474 23.3077 26.4933C23.3752 26.3393 23.4096 26.1732 23.4087 26.0055C24.2197 25.4076 24.8783 24.6328 25.3326 23.7423C25.7868 22.8517 26.0243 21.8698 26.0264 20.8737V18.2714C26.0264 16.5625 25.3352 14.9237 24.1049 13.7153C22.8747 12.5069 21.2061 11.8281 19.4662 11.8281C17.7263 11.8281 16.0577 12.5069 14.8275 13.7153C13.5972 14.9237 12.906 16.5625 12.906 18.2714V20.8425C12.904 21.8371 13.1375 22.8185 13.5881 23.7091C14.0388 24.5998 14.6942 25.3753 15.5025 25.9743Z" fill="#2D3250"/>
</g>
<defs>
<clipPath id="clip0_254_12156">
<rect width="42" height="44" fill="white" transform="translate(5 4)"/>
</clipPath>
</defs>
</svg>
