<svg width="52" height="52" viewBox="0 0 52 52" fill="none" xmlns="http://www.w3.org/2000/svg">
<g clip-path="url(#clip0_254_12200)">
<path d="M24.7687 7C20.0463 7.28094 15.5541 9.23241 12.0255 12.5358L17.5141 18.2919C19.5712 16.4948 22.102 15.3982 24.7687 15.1486V7Z" fill="#2D3250"/>
<path d="M15.7768 20.1245L10.2882 14.3584C7.13152 18.0554 5.26681 22.7678 5 27.7225H12.77C13.0097 24.9274 14.0589 22.2761 15.7768 20.1245Z" fill="#2D3250"/>
<path d="M39.23 27.7225H47C46.7332 22.7678 44.8684 18.0554 41.7118 14.3584L36.2231 20.1245C37.9374 22.2785 38.9861 24.9285 39.23 27.7225Z" fill="#2D3250"/>
<path d="M39.23 30.3045C39.0869 32.0484 38.6268 33.7474 37.8746 35.3098C38.5046 36.3109 39.02 37.1718 39.3637 37.7424C39.8206 38.4834 40.0199 39.3671 39.9277 40.2443C39.8355 41.1215 39.4576 41.9385 38.8578 42.5574C38.5625 42.8648 38.2206 43.1185 37.8459 43.3082L39.125 44.6496C39.3598 44.8909 39.6746 45.0272 40.0032 45.03C40.3294 45.0289 40.6418 44.8921 40.8719 44.6496C44.5359 40.8273 46.7192 35.7165 47 30.3045H39.23Z" fill="#2D3250"/>
<path d="M12.77 30.3045H5C5.28776 35.7059 7.47055 40.8048 11.1282 44.6196C11.3583 44.862 11.6707 44.9989 11.9968 45C12.3255 44.9972 12.6403 44.8608 12.875 44.6196L16.6073 40.7055C16.8375 40.4618 16.9667 40.1326 16.9667 39.7895C16.9667 39.4464 16.8375 39.1173 16.6073 38.8736C14.4168 36.5744 13.0655 33.5417 12.7891 30.3045H12.77Z" fill="#2D3250"/>
<path d="M39.9745 12.5358C36.4459 9.23241 31.9538 7.28094 27.2313 7V15.1486C29.8956 15.3965 32.4238 16.4933 34.4763 18.2919L39.9745 12.5358Z" fill="#2D3250"/>
<path d="M28.73 26.1697C28.0047 25.4104 27.0215 24.9844 25.9967 24.9853C24.9718 24.9862 23.9893 25.4141 23.2653 26.1747C22.5412 26.9354 22.135 27.9665 22.1359 29.0413C22.1363 29.5735 22.2367 30.1003 22.4313 30.5918C22.6259 31.0833 22.9109 31.5298 23.27 31.9058C25.1791 33.9079 34.5337 40.1645 35.5932 40.9152C35.8295 41.0722 36.1097 41.14 36.3877 41.1077C36.6657 41.0754 36.9249 40.9448 37.1227 40.7374C37.3205 40.5299 37.445 40.2581 37.4758 39.9666C37.5067 39.675 37.4419 39.3812 37.2923 39.1334C36.6146 38.0322 30.6391 28.1618 28.73 26.1697Z" fill="#2D3250"/>
</g>
<defs>
<clipPath id="clip0_254_12200">
<rect width="42" height="38" fill="white" transform="translate(5 7)"/>
</clipPath>
</defs>
</svg>
