<svg width="52" height="52" viewBox="0 0 52 52" fill="none" xmlns="http://www.w3.org/2000/svg">
<path d="M30.56 21.8704C31.3 21.8704 31.9 21.2705 31.9 20.5304C31.9 19.7903 31.3 19.1904 30.56 19.1904C29.8199 19.1904 29.22 19.7903 29.22 20.5304C29.22 21.2705 29.8199 21.8704 30.56 21.8704Z" fill="#2D3250"/>
<path d="M38.14 33.2395C38.8801 33.2395 39.48 32.6396 39.48 31.8995C39.48 31.1595 38.8801 30.5595 38.14 30.5595C37.4 30.5595 36.8 31.1595 36.8 31.8995C36.8 32.6396 37.4 33.2395 38.14 33.2395Z" fill="#2D3250"/>
<path d="M45.25 6.00001H23.05C22.8942 5.99869 22.7397 6.02824 22.5953 6.08695C22.451 6.14566 22.3198 6.23237 22.2091 6.34207C22.0985 6.45178 22.0107 6.5823 21.9508 6.72612C21.8908 6.86994 21.86 7.02421 21.86 7.18001V46.44H45.25C45.5656 46.44 45.8683 46.3146 46.0914 46.0915C46.3146 45.8683 46.44 45.5656 46.44 45.25V7.18001C46.44 7.02421 46.4091 6.86994 46.3492 6.72612C46.2893 6.5823 46.2015 6.45178 46.0908 6.34207C45.9802 6.23237 45.8489 6.14566 45.7046 6.08695C45.5603 6.02824 45.4058 5.99869 45.25 6.00001ZM31.75 24.05V39.49C31.7228 39.7855 31.5862 40.0602 31.367 40.2602C31.1478 40.4602 30.8617 40.571 30.565 40.571C30.2682 40.571 29.9822 40.4602 29.763 40.2602C29.5438 40.0602 29.4072 39.7855 29.38 39.49V24.05C28.6551 23.7952 28.0273 23.3216 27.5832 22.6947C27.139 22.0677 26.9005 21.3183 26.9005 20.55C26.9005 19.7817 27.139 19.0323 27.5832 18.4054C28.0273 17.7784 28.6551 17.3048 29.38 17.05V13C29.4072 12.7045 29.5438 12.4298 29.763 12.2298C29.9822 12.0299 30.2682 11.919 30.565 11.919C30.8617 11.919 31.1478 12.0299 31.367 12.2298C31.5862 12.4298 31.7228 12.7045 31.75 13V17C32.4748 17.2548 33.1027 17.7284 33.5468 18.3554C33.991 18.9823 34.2295 19.7317 34.2295 20.5C34.2295 21.2683 33.991 22.0177 33.5468 22.6447C33.1027 23.2716 32.4748 23.7452 31.75 24V24.05ZM39.33 35.42V39.49C39.3028 39.7855 39.1662 40.0602 38.947 40.2602C38.7278 40.4602 38.4417 40.571 38.145 40.571C37.8482 40.571 37.5622 40.4602 37.343 40.2602C37.1238 40.0602 36.9872 39.7855 36.96 39.49V35.42C36.2351 35.1652 35.6073 34.6916 35.1632 34.0647C34.719 33.4377 34.4805 32.6883 34.4805 31.92C34.4805 31.1517 34.719 30.4023 35.1632 29.7754C35.6073 29.1484 36.2351 28.6748 36.96 28.42V13C36.9872 12.7045 37.1238 12.4298 37.343 12.2298C37.5622 12.0299 37.8482 11.919 38.145 11.919C38.4417 11.919 38.7278 12.0299 38.947 12.2298C39.1662 12.4298 39.3028 12.7045 39.33 13V28.39C40.0548 28.6448 40.6827 29.1184 41.1268 29.7454C41.571 30.3723 41.8095 31.1217 41.8095 31.89C41.8095 32.6583 41.571 33.4077 41.1268 34.0347C40.6827 34.6616 40.0548 35.1352 39.33 35.39V35.42Z" fill="#2D3250"/>
<path d="M15.57 20.91V22.91L15.18 23.07L13.76 21.66C13.5638 21.469 13.3087 21.3501 13.0362 21.3229C12.7638 21.2956 12.4901 21.3616 12.26 21.51C11.4484 22.0668 10.6916 22.6997 10 23.4C9.29703 24.1109 8.66411 24.8878 8.11001 25.72C7.95874 25.9474 7.89101 26.2202 7.91836 26.4919C7.94572 26.7636 8.06646 27.0174 8.26001 27.21L9.69001 28.63C9.63001 28.76 9.58001 28.89 9.52001 29.03H7.52001C7.2335 29.0158 6.95161 29.1064 6.72707 29.2849C6.50253 29.4635 6.35071 29.7177 6.30001 30C5.89316 31.9793 5.89316 34.0207 6.30001 36C6.35535 36.2664 6.50105 36.5055 6.71244 36.6768C6.92383 36.8481 7.18793 36.9411 7.46001 36.94H9.46001C9.52001 37.08 9.57001 37.21 9.63001 37.34L8.21001 38.68C8.01646 38.8727 7.89572 39.1265 7.86836 39.3982C7.84101 39.6699 7.90874 39.9427 8.06001 40.17C8.62991 41.0044 9.27964 41.7814 10 42.49C10.7094 43.1906 11.4828 43.8234 12.31 44.38C12.5406 44.529 12.8153 44.5943 13.0883 44.5652C13.3613 44.5361 13.616 44.4142 13.81 44.22L15.18 42.8L15.57 42.96V44.96C15.5713 45.233 15.6664 45.4973 15.8393 45.7085C16.0123 45.9197 16.2526 46.065 16.52 46.12C17.5071 46.3223 18.5124 46.4228 19.52 46.42V35.86C19.1228 35.8833 18.7251 35.8252 18.3512 35.6892C17.9773 35.5532 17.6352 35.3423 17.3458 35.0693C17.0563 34.7963 16.8257 34.4671 16.6681 34.1018C16.5105 33.7365 16.4292 33.3429 16.4292 32.945C16.4292 32.5472 16.5105 32.1535 16.6681 31.7882C16.8257 31.4229 17.0563 31.0937 17.3458 30.8207C17.6352 30.5478 17.9773 30.3368 18.3512 30.2009C18.7251 30.0649 19.1228 30.0068 19.52 30.03V19.46C18.5127 19.4539 17.5075 19.551 16.52 19.75C16.2526 19.8051 16.0123 19.9504 15.8393 20.1616C15.6664 20.3728 15.5713 20.637 15.57 20.91Z" fill="#2D3250"/>
</svg>
