<svg width="68" height="68" viewBox="0 0 68 68" fill="none" xmlns="http://www.w3.org/2000/svg">
<path opacity="0.9" d="M35.3373 8.37109C25.9773 8.37109 17.687 13.4968 13.4082 21.3203L7.25732 15.1155V32.6508H24.6402L17.1522 25.0971C20.6288 18.3527 27.3145 13.7666 35.3373 13.7666C46.3019 13.7666 55.3945 22.9389 55.3945 33.9997C55.3945 45.0604 46.3019 54.2327 35.3373 54.2327C26.5122 54.2327 19.2916 48.5675 16.3499 40.744H10.7339C13.6756 51.535 23.5705 59.6282 35.3373 59.6282C49.511 59.6282 60.743 48.0279 60.743 33.9997C60.743 19.9714 49.2436 8.37109 35.3373 8.37109ZM31.3259 21.8598V35.6183L43.895 43.172L46.0345 39.6649L35.3373 33.1903V21.8598H31.3259Z" fill="#2D3250"/>
</svg>
