<svg width="40" height="40" viewBox="0 0 40 40" fill="none" xmlns="http://www.w3.org/2000/svg">
<path d="M19.75 2C9.96 2 2 9.96 2 19.75C2 29.54 9.96 37.5 19.75 37.5C29.54 37.5 37.5 29.54 37.5 19.75C37.5 9.96 29.53 2 19.75 2ZM10.16 31.94C12.89 29.8 16.24 28.62 19.75 28.62C23.26 28.62 26.6 29.8 29.33 31.94C26.69 34.03 23.36 35.28 19.75 35.28C16.14 35.28 12.8 34.03 10.16 31.94ZM30.98 30.44C27.82 27.84 23.87 26.41 19.75 26.41C15.63 26.41 11.68 27.84 8.51 30.44C5.85 27.65 4.21 23.89 4.21 19.75C4.21 11.19 11.18 4.22 19.75 4.22C28.32 4.22 35.28 11.19 35.28 19.75C35.28 23.89 33.64 27.65 30.98 30.44Z" fill="white"/>
<path d="M24.96 13.1602C23.82 13.4802 18.06 15.1502 16.63 16.5802C15.79 17.4202 15.33 18.5302 15.33 19.7202C15.33 20.9102 15.79 22.0202 16.63 22.8602C17.47 23.7002 18.58 24.1602 19.77 24.1602C20.96 24.1602 22.07 23.7002 22.9 22.8602C24.34 21.4202 26 15.6702 26.33 14.5302C26.43 14.1402 26.33 13.7302 26.04 13.4402C25.76 13.1602 25.35 13.0502 24.96 13.1602Z" fill="#434C7E"/>
<path d="M18.66 7.52016C18.66 6.90016 19.15 6.41016 19.77 6.41016C20.39 6.41016 20.87 6.90016 20.87 7.52016C20.87 8.14016 20.38 8.63016 19.77 8.63016C19.16 8.63016 18.66 8.13016 18.66 7.52016Z" fill="#434C7E"/>
<path d="M11.92 10.3097C12.35 10.7397 12.35 11.4397 11.92 11.8797C11.49 12.3097 10.79 12.3097 10.35 11.8797C9.91997 11.4397 9.91997 10.7397 10.35 10.3097C10.78 9.87966 11.49 9.86966 11.92 10.3097Z" fill="#434C7E"/>
<path d="M7.55995 20.8304C8.17299 20.8304 8.66995 20.3334 8.66995 19.7204C8.66995 19.1073 8.17299 18.6104 7.55995 18.6104C6.94692 18.6104 6.44995 19.1073 6.44995 19.7204C6.44995 20.3334 6.94692 20.8304 7.55995 20.8304Z" fill="#434C7E"/>
<path d="M31.97 20.8304C32.583 20.8304 33.08 20.3334 33.08 19.7204C33.08 19.1073 32.583 18.6104 31.97 18.6104C31.3569 18.6104 30.86 19.1073 30.86 19.7204C30.86 20.3334 31.3569 20.8304 31.97 20.8304Z" fill="#434C7E"/>
<path d="M29.18 10.3105C29.61 10.7405 29.61 11.4405 29.18 11.8805C28.75 12.3105 28.04 12.3105 27.61 11.8805C27.18 11.4405 27.18 10.7405 27.61 10.3105C28.04 9.87047 28.75 9.87047 29.18 10.3105Z" fill="#434C7E"/>
</svg>
