<svg width="40" height="40" viewBox="0 0 40 40" fill="none" xmlns="http://www.w3.org/2000/svg">
<path d="M20.18 18.52C23.63 18.52 26.44 15.71 26.44 12.26C26.44 8.81 23.63 6 20.18 6C16.73 6 13.92 8.81 13.92 12.26C13.92 15.71 16.73 18.52 20.18 18.52ZM20.18 8.18C22.43 8.18 24.26 10.02 24.26 12.26C24.26 14.5 22.43 16.34 20.18 16.34C17.93 16.34 16.1 14.51 16.1 12.26C16.1 10.01 17.94 8.18 20.18 8.18ZM38.27 15.05H34.19V10.97C34.19 10.37 33.7 9.88 33.1 9.88C32.5 9.88 32.01 10.37 32.01 10.97V15.05H27.93C27.33 15.05 26.84 15.54 26.84 16.14C26.84 16.74 27.33 17.23 27.93 17.23H32.01V21.31C32.01 21.91 32.5 22.4 33.1 22.4C33.7 22.4 34.19 21.91 34.19 21.31V17.23H38.27C38.87 17.23 39.37 16.74 39.37 16.14C39.37 15.54 38.88 15.05 38.27 15.05ZM27.93 21.51H12.43C10.41 21.51 8.76001 23.15 8.76001 25.18V32.93C8.76001 33.53 9.25001 34.02 9.86001 34.02H30.52C31.12 34.02 31.61 33.53 31.61 32.93V25.18C31.61 23.15 29.96 21.51 27.93 21.51ZM29.43 31.84H10.93V25.18C10.93 24.36 11.6 23.69 12.42 23.69H27.93C28.76 23.69 29.43 24.36 29.43 25.18V31.84Z" fill="white"/>
<path d="M8.55 20.0298C11.29 20.0298 13.52 17.7998 13.52 15.0598C13.52 12.3198 11.29 10.0898 8.55 10.0898C5.81 10.0898 3.59 12.3198 3.59 15.0598C3.59 17.7998 5.82 20.0298 8.55 20.0298ZM8.55 12.2698C10.09 12.2698 11.34 13.5198 11.34 15.0598C11.34 16.5998 10.09 17.8498 8.55 17.8498C7.01 17.8498 5.77 16.5998 5.77 15.0598C5.77 13.5198 7.02 12.2698 8.55 12.2698ZM4.67 25.1998H6.09C6.69 25.1998 7.18 24.7098 7.18 24.1098C7.18 23.5098 6.69 23.0198 6.09 23.0198H4.67C2.65 23.0198 1 24.6698 1 26.6898V31.8598C1 32.4598 1.49 32.9498 2.09 32.9498H5.98C6.58 32.9498 7.07 32.4598 7.07 31.8598C7.07 31.2598 6.58 30.7598 5.98 30.7598H3.18V26.6798C3.18 25.8598 3.85 25.1898 4.67 25.1898V25.1998Z" fill="#434C7E"/>
</svg>
