<svg width="40" height="41" viewBox="0 0 40 41" fill="none" xmlns="http://www.w3.org/2000/svg">
<path d="M25.1429 8.14286C25.1429 5.30657 22.8363 3 20 3C17.1637 3 14.8572 5.30657 14.8572 8.14286C14.8572 10.9791 17.1637 13.2857 20 13.2857C22.8363 13.2857 25.1429 10.9791 25.1429 8.14286ZM20 10.7143C18.5819 10.7143 17.4286 9.561 17.4286 8.14286C17.4286 6.72471 18.5819 5.57143 20 5.57143C21.4182 5.57143 22.5715 6.72471 22.5715 8.14286C22.5715 9.561 21.4182 10.7143 20 10.7143Z" fill="white"/>
<path d="M37.1914 36.5196L31.1652 34.1089L28.6992 29.9998H32.8572C35.6935 29.9998 38.0001 27.6932 38.0001 24.8569C38.0001 24.1472 37.4254 23.5712 36.7144 23.5712H35.4287V10.6601C35.4287 8.56308 33.7225 6.85693 31.6255 6.85693H27.7144C27.0034 6.85693 26.4287 7.43293 26.4287 8.14265C26.4287 8.85236 27.0034 9.42836 27.7144 9.42836H31.6255C32.3044 9.42836 32.8572 9.98122 32.8572 10.6601V23.5712H27.7144V17.0886C27.7144 14.9916 26.0044 13.2855 23.9009 13.2855H20.0001H16.0992C13.9958 13.2855 12.2858 14.9916 12.2858 17.0886V23.5712H7.14295V10.6601C7.14295 9.98122 7.69581 9.42836 8.42866 9.42836H12.2858C12.9968 9.42836 13.5715 8.85236 13.5715 8.14265C13.5715 7.43293 12.9968 6.85693 12.2858 6.85693H8.37466C6.27766 6.85693 4.57152 8.56308 4.57152 10.6601V23.5712H3.2858C2.5748 23.5712 2.00009 24.1472 2.00009 24.8569C2.00009 27.6932 4.30666 29.9998 7.14295 29.9998H11.3009L8.83495 34.1102L2.8088 36.5209C2.14923 36.7858 1.82781 37.5328 2.09138 38.1924C2.29323 38.6938 2.77666 38.9998 3.2858 38.9998C3.44523 38.9998 3.60723 38.9702 3.7628 38.9072L10.1914 36.3358C10.4524 36.2304 10.6722 36.0439 10.8162 35.8035L14.2992 29.9998H15.8601L14.9588 34.5088L12.6625 36.8051C12.1598 37.3078 12.1598 38.1204 12.6625 38.6231C12.9132 38.8738 13.2424 38.9998 13.5715 38.9998C13.9007 38.9998 14.2298 38.8738 14.4805 38.6231L17.0519 36.0516C17.2319 35.8716 17.3528 35.6441 17.4029 35.3946L18.4829 29.9998H21.5185L22.5972 35.3946C22.6474 35.6428 22.7695 35.8716 22.9482 36.0516L25.5197 38.6231C25.7704 38.8738 26.0995 38.9998 26.4287 38.9998C26.7578 38.9998 27.0869 38.8738 27.3377 38.6231C27.8404 38.1204 27.8404 37.3078 27.3377 36.8051L25.0414 34.5088L24.1401 29.9998H25.7009L29.1839 35.8048C29.3279 36.0452 29.5478 36.2329 29.8088 36.3371L36.2374 38.9085C36.3929 38.9702 36.5549 38.9998 36.7144 38.9998C37.2235 38.9998 37.707 38.6938 37.9088 38.1911C38.1724 37.5315 37.8509 36.7845 37.1914 36.5196ZM14.8572 17.0886C14.8572 16.4098 15.4152 15.8569 16.0992 15.8569H23.9009C24.5849 15.8569 25.1429 16.4098 25.1429 17.0886V23.5712H14.8572V17.0886ZM4.91738 26.1426H35.0841C34.6392 26.9102 33.8087 27.4284 32.8585 27.4284H7.14295C6.19281 27.4284 5.36095 26.9102 4.91738 26.1426Z" fill="#2D3250"/>
</svg>
