<svg width="41" height="41" viewBox="0 0 41 41" fill="none" xmlns="http://www.w3.org/2000/svg">
<g clip-path="url(#clip0_477_135430)">
<path d="M20.8582 19.4013C24.3082 19.4013 27.1182 16.5913 27.1182 13.1413C27.1182 9.69135 24.3082 6.88135 20.8582 6.88135C17.4082 6.88135 14.5982 9.69135 14.5982 13.1413C14.5982 16.5913 17.4082 19.4013 20.8582 19.4013ZM20.8582 9.06135C23.1082 9.06135 24.9382 10.9013 24.9382 13.1413C24.9382 15.3813 23.1082 17.2213 20.8582 17.2213C18.6082 17.2213 16.7782 15.3913 16.7782 13.1413C16.7782 10.8913 18.6182 9.06135 20.8582 9.06135ZM38.9482 15.9313H34.8682V11.8513C34.8682 11.2513 34.3782 10.7613 33.7782 10.7613C33.1782 10.7613 32.6882 11.2513 32.6882 11.8513V15.9313H28.6082C28.0082 15.9313 27.5182 16.4213 27.5182 17.0213C27.5182 17.6213 28.0082 18.1113 28.6082 18.1113H32.6882V22.1913C32.6882 22.7913 33.1782 23.2813 33.7782 23.2813C34.3782 23.2813 34.8682 22.7913 34.8682 22.1913V18.1113H38.9482C39.5482 18.1113 40.0482 17.6213 40.0482 17.0213C40.0482 16.4213 39.5582 15.9313 38.9482 15.9313ZM28.6082 22.3913H13.1082C11.0882 22.3913 9.43823 24.0313 9.43823 26.0613V33.8113C9.43823 34.4113 9.92823 34.9013 10.5382 34.9013H31.1982C31.7982 34.9013 32.2882 34.4113 32.2882 33.8113V26.0613C32.2882 24.0313 30.6382 22.3913 28.6082 22.3913ZM30.1082 32.7213H11.6082V26.0613C11.6082 25.2413 12.2782 24.5713 13.0982 24.5713H28.6082C29.4382 24.5713 30.1082 25.2413 30.1082 26.0613V32.7213Z" fill="white"/>
<path d="M9.22822 20.9112C11.9682 20.9112 14.1982 18.6812 14.1982 15.9412C14.1982 13.2012 11.9682 10.9712 9.22822 10.9712C6.48822 10.9712 4.26822 13.2012 4.26822 15.9412C4.26822 18.6812 6.49822 20.9112 9.22822 20.9112ZM9.22822 13.1512C10.7682 13.1512 12.0182 14.4012 12.0182 15.9412C12.0182 17.4812 10.7682 18.7312 9.22822 18.7312C7.68822 18.7312 6.44822 17.4812 6.44822 15.9412C6.44822 14.4012 7.69822 13.1512 9.22822 13.1512ZM5.34822 26.0812H6.76822C7.36822 26.0812 7.85822 25.5912 7.85822 24.9912C7.85822 24.3912 7.36822 23.9012 6.76822 23.9012H5.34822C3.32822 23.9012 1.67822 25.5512 1.67822 27.5712V32.7412C1.67822 33.3412 2.16822 33.8312 2.76822 33.8312H6.65822C7.25822 33.8312 7.74822 33.3412 7.74822 32.7412C7.74822 32.1412 7.25822 31.6412 6.65822 31.6412H3.85822V27.5612C3.85822 26.7412 4.52822 26.0712 5.34822 26.0712V26.0812Z" fill="#2D3250"/>
</g>
<defs>
<clipPath id="clip0_477_135430">
<rect width="40" height="40" fill="white" transform="translate(0.678223 0.881348)"/>
</clipPath>
</defs>
</svg>
