<svg width="41" height="41" viewBox="0 0 41 41" fill="none" xmlns="http://www.w3.org/2000/svg">
<path d="M20.6841 2.9834C10.8941 2.9834 2.93408 10.9434 2.93408 20.7334C2.93408 30.5234 10.8941 38.4834 20.6841 38.4834C30.4741 38.4834 38.4341 30.5234 38.4341 20.7334C38.4341 10.9434 30.4641 2.9834 20.6841 2.9834ZM11.0941 32.9234C13.8241 30.7834 17.1741 29.6034 20.6841 29.6034C24.1941 29.6034 27.5341 30.7834 30.2641 32.9234C27.6241 35.0134 24.2941 36.2634 20.6841 36.2634C17.0741 36.2634 13.7341 35.0134 11.0941 32.9234ZM31.9141 31.4234C28.7541 28.8234 24.8041 27.3934 20.6841 27.3934C16.5641 27.3934 12.6141 28.8234 9.44408 31.4234C6.78408 28.6334 5.14408 24.8734 5.14408 20.7334C5.14408 12.1734 12.1141 5.2034 20.6841 5.2034C29.2541 5.2034 36.2141 12.1734 36.2141 20.7334C36.2141 24.8734 34.5741 28.6334 31.9141 31.4234Z" fill="#2D3250"/>
<path d="M25.894 14.1436C24.754 14.4636 18.994 16.1336 17.564 17.5636C16.724 18.4036 16.264 19.5136 16.264 20.7036C16.264 21.8936 16.724 23.0036 17.564 23.8436C18.404 24.6836 19.514 25.1436 20.704 25.1436C21.894 25.1436 23.004 24.6836 23.834 23.8436C25.274 22.4036 26.934 16.6536 27.264 15.5136C27.364 15.1236 27.264 14.7136 26.974 14.4236C26.694 14.1436 26.284 14.0336 25.894 14.1436Z" fill="white"/>
<path d="M19.5941 8.50355C19.5941 7.88355 20.0841 7.39355 20.7041 7.39355C21.3241 7.39355 21.8041 7.88355 21.8041 8.50355C21.8041 9.12355 21.3141 9.61355 20.7041 9.61355C20.0941 9.61355 19.5941 9.11355 19.5941 8.50355Z" fill="white"/>
<path d="M12.854 11.2931C13.284 11.7231 13.284 12.4231 12.854 12.8631C12.424 13.2931 11.724 13.2931 11.284 12.8631C10.854 12.4231 10.854 11.7231 11.284 11.2931C11.714 10.8631 12.424 10.8531 12.854 11.2931Z" fill="white"/>
<path d="M8.49403 21.8137C9.10707 21.8137 9.60403 21.3168 9.60403 20.7037C9.60403 20.0907 9.10707 19.5938 8.49403 19.5938C7.881 19.5938 7.38403 20.0907 7.38403 20.7037C7.38403 21.3168 7.881 21.8137 8.49403 21.8137Z" fill="white"/>
<path d="M32.9041 21.8137C33.5171 21.8137 34.0141 21.3168 34.0141 20.7037C34.0141 20.0907 33.5171 19.5938 32.9041 19.5938C32.291 19.5938 31.7941 20.0907 31.7941 20.7037C31.7941 21.3168 32.291 21.8137 32.9041 21.8137Z" fill="white"/>
<path d="M30.1141 11.2939C30.5441 11.7239 30.5441 12.4239 30.1141 12.8639C29.6841 13.2939 28.9741 13.2939 28.5441 12.8639C28.1141 12.4239 28.1141 11.7239 28.5441 11.2939C28.9741 10.8539 29.6841 10.8539 30.1141 11.2939Z" fill="white"/>
</svg>
