<svg width="40" height="41" viewBox="0 0 40 41" fill="none" xmlns="http://www.w3.org/2000/svg">
<path d="M35.9326 24.919C38.0826 24.209 39.2426 21.899 38.5326 19.759C38.1226 18.529 37.1626 17.569 35.9326 17.159C35.4526 17.009 35.0826 16.629 34.9426 16.149C34.7726 15.629 34.8526 15.059 35.1726 14.619C36.2726 13.169 36.2726 11.169 35.1726 9.71898C34.1726 8.31898 32.3526 7.77898 30.7426 8.39898C30.3026 8.55898 29.8226 8.48898 29.4426 8.21898C29.0126 7.89898 28.7626 7.37898 28.7826 6.83898C28.8626 5.03898 27.7226 3.40898 26.0026 2.86898C24.3426 2.31898 22.5126 2.97898 21.5926 4.46898C21.1426 5.14898 20.2326 5.32898 19.5526 4.87898C19.3926 4.76898 19.2526 4.62898 19.1426 4.46898C18.2226 2.98898 16.4026 2.32898 14.7426 2.86898C13.0326 3.41898 11.9026 5.04898 11.9826 6.83898C12.0026 7.37898 11.7526 7.89898 11.3226 8.21898C10.9426 8.48898 10.4526 8.55898 10.0226 8.39898C8.41256 7.77898 6.59256 8.31898 5.58256 9.71898C4.49256 11.169 4.49256 13.169 5.58256 14.619C5.89256 15.059 5.97256 15.629 5.79256 16.149C5.65256 16.619 5.27256 16.989 4.80256 17.139C2.66256 17.849 1.49256 20.159 2.21256 22.309C2.61256 23.529 3.57256 24.489 4.80256 24.899C5.29256 25.049 5.66256 25.449 5.79256 25.939C5.96256 26.459 5.88256 27.029 5.56256 27.469C4.46256 28.919 4.46256 30.919 5.56256 32.369C6.56256 33.759 8.39256 34.309 9.99256 33.689C10.4326 33.529 10.9226 33.599 11.2926 33.869C11.7226 34.189 11.9726 34.699 11.9526 35.239C11.8726 37.039 13.0126 38.669 14.7326 39.219C15.1326 39.339 15.5426 39.409 15.9626 39.399C17.2526 39.389 18.4626 38.719 19.1426 37.619C19.5926 36.939 20.5026 36.759 21.1826 37.199C21.3426 37.309 21.4826 37.449 21.5926 37.619C22.5126 39.099 24.3326 39.759 25.9926 39.219C27.7126 38.669 28.8526 37.039 28.7726 35.239C28.7526 34.699 29.0026 34.189 29.4326 33.869C29.8026 33.599 30.2926 33.529 30.7326 33.689C32.3326 34.309 34.1626 33.759 35.1626 32.369C36.2626 30.919 36.2626 28.919 35.1626 27.469C34.8526 27.019 34.7626 26.459 34.9426 25.939C35.0826 25.459 35.4526 25.069 35.9326 24.919ZM32.6126 25.159C32.2026 26.429 32.4226 27.819 33.2126 28.899C33.6626 29.489 33.6626 30.309 33.2126 30.899C32.8526 31.409 32.1826 31.619 31.5826 31.399C30.3926 30.949 29.0526 31.129 28.0126 31.879C26.9126 32.669 26.2826 33.959 26.3226 35.319C26.3726 36.019 25.9426 36.669 25.2726 36.879C24.6526 37.079 23.9826 36.829 23.6526 36.269C22.4926 34.469 20.1026 33.949 18.3026 35.099C17.8326 35.399 17.4326 35.799 17.1326 36.269C16.8026 36.829 16.1326 37.079 15.5226 36.869C14.8426 36.659 14.4026 36.009 14.4526 35.299C14.4926 33.949 13.8626 32.659 12.7626 31.859C12.1126 31.389 11.3226 31.139 10.5226 31.139C10.0626 31.139 9.61256 31.229 9.18256 31.389C8.59256 31.599 7.92256 31.399 7.56256 30.879C7.11256 30.289 7.11256 29.479 7.56256 28.889C8.33256 27.809 8.54256 26.419 8.12256 25.159C7.73256 23.919 6.76256 22.959 5.52256 22.569C4.68256 22.269 4.24256 21.329 4.55256 20.489C4.71256 20.029 5.07256 19.679 5.52256 19.509C6.76256 19.129 7.73256 18.169 8.12256 16.929C8.54256 15.659 8.31256 14.259 7.52256 13.179C7.11256 12.599 7.11256 11.829 7.53256 11.249C7.90256 10.739 8.57256 10.529 9.16256 10.749C10.3626 11.189 11.7026 11.009 12.7426 10.269C13.8426 9.47898 14.4726 8.18898 14.4326 6.82898C14.3426 6.10898 14.7726 5.42898 15.4726 5.19898C16.0826 4.99898 16.7626 5.25898 17.0826 5.81898C18.2426 7.60898 20.6326 8.13898 22.4326 6.97898C22.9026 6.67898 23.3026 6.27898 23.6026 5.81898C23.9326 5.22898 24.6326 4.96898 25.2726 5.19898C25.9426 5.40898 26.3926 6.05898 26.3326 6.76898C26.2926 8.12898 26.9226 9.41898 28.0226 10.209C29.0626 10.949 30.4026 11.129 31.6026 10.689C32.2026 10.499 32.8526 10.729 33.2026 11.249C33.6526 11.839 33.6526 12.659 33.2026 13.249C32.4326 14.309 32.2126 15.679 32.6126 16.929C33.0026 18.169 33.9726 19.129 35.2126 19.509C36.0626 19.819 36.4926 20.749 36.1826 21.599C36.0226 22.049 35.6626 22.409 35.2126 22.569C33.9726 22.959 33.0026 23.919 32.6126 25.159ZM20.3726 8.79898C13.6026 8.79898 8.12256 14.279 8.12256 21.039C8.12256 27.799 13.6026 33.279 20.3726 33.279C27.1326 33.279 32.6126 27.799 32.6126 21.039C32.6126 14.279 27.1326 8.79898 20.3726 8.79898ZM20.3726 30.839C14.9526 30.839 10.5726 26.449 10.5726 21.039C10.5726 15.629 14.9526 11.249 20.3726 11.249C25.7826 11.249 30.1626 15.629 30.1626 21.039C30.1626 26.449 25.7826 30.839 20.3726 30.839Z" fill="white"/>
<path d="M18.8227 23.1495L25.6227 16.3395H25.5827C26.0627 15.8595 26.8427 15.8595 27.3227 16.3395C27.8027 16.8195 27.8027 17.5995 27.3227 18.0795L19.6627 25.7395C19.4227 25.9695 19.1127 26.0995 18.7927 26.0995C18.4627 26.0995 18.1527 25.9695 17.9227 25.7395L13.4127 21.1995C12.9327 20.7195 12.9427 19.9495 13.4227 19.4695C13.9027 18.9895 14.6727 18.9995 15.1527 19.4795L18.8227 23.1495Z" fill="#2D3250"/>
</svg>
