<svg width="20" height="20" viewBox="0 0 20 20" fill="none" xmlns="http://www.w3.org/2000/svg">
<path d="M16.4302 7.57115H7.85882C7.66938 7.57115 7.4877 7.49589 7.35374 7.36194C7.21979 7.22799 7.14453 7.0463 7.14453 6.85686C7.14453 6.66742 7.21979 6.48574 7.35374 6.35179C7.4877 6.21783 7.66938 6.14258 7.85882 6.14258H16.4302C16.6197 6.14258 16.8014 6.21783 16.9353 6.35179C17.0693 6.48574 17.1445 6.66742 17.1445 6.85686C17.1445 7.0463 17.0693 7.22799 16.9353 7.36194C16.8014 7.49589 16.6197 7.57115 16.4302 7.57115Z" fill="#FFA054"/>
<path d="M4.99832 7.57115H3.56975C3.38031 7.57115 3.19863 7.49589 3.06468 7.36194C2.93072 7.22799 2.85547 7.0463 2.85547 6.85686C2.85547 6.66742 2.93072 6.48574 3.06468 6.35179C3.19863 6.21783 3.38031 6.14258 3.56975 6.14258H4.99832C5.18777 6.14258 5.36945 6.21783 5.5034 6.35179C5.63736 6.48574 5.71261 6.66742 5.71261 6.85686C5.71261 7.0463 5.63736 7.22799 5.5034 7.36194C5.36945 7.49589 5.18777 7.57115 4.99832 7.57115Z" fill="#FFA054"/>
<path d="M19.2857 9.71429C19.4752 9.71429 19.6568 9.63903 19.7908 9.50508C19.9247 9.37112 20 9.18944 20 9V4.71429C20 4.52485 19.9247 4.34316 19.7908 4.20921C19.6568 4.07526 19.4752 4 19.2857 4H0.714286C0.524845 4 0.343164 4.07526 0.209209 4.20921C0.0752549 4.34316 0 4.52485 0 4.71429V9C0 9.18944 0.0752549 9.37112 0.209209 9.50508C0.343164 9.63903 0.524845 9.71429 0.714286 9.71429H7.14286V13.2857H5.71429V12.5714C5.71429 12.382 5.63903 12.2003 5.50508 12.0664C5.37112 11.9324 5.18944 11.8571 5 11.8571H0.714286C0.524845 11.8571 0.343164 11.9324 0.209209 12.0664C0.0752549 12.2003 0 12.382 0 12.5714V15.4286C0 15.618 0.0752549 15.7997 0.209209 15.9336C0.343164 16.0676 0.524845 16.1429 0.714286 16.1429H5C5.18944 16.1429 5.37112 16.0676 5.50508 15.9336C5.63903 15.7997 5.71429 15.618 5.71429 15.4286V14.7143H7.85714C8.04658 14.7143 8.22826 14.639 8.36222 14.5051C8.49617 14.3711 8.57143 14.1894 8.57143 14V9.71429H11.4286V14C11.4286 14.1894 11.5038 14.3711 11.6378 14.5051C11.7717 14.639 11.9534 14.7143 12.1429 14.7143H14.2857V15.4286C14.2857 15.618 14.361 15.7997 14.4949 15.9336C14.6289 16.0676 14.8106 16.1429 15 16.1429H19.2857C19.4752 16.1429 19.6568 16.0676 19.7908 15.9336C19.9247 15.7997 20 15.618 20 15.4286V12.5714C20 12.382 19.9247 12.2003 19.7908 12.0664C19.6568 11.9324 19.4752 11.8571 19.2857 11.8571H15C14.8106 11.8571 14.6289 11.9324 14.4949 12.0664C14.361 12.2003 14.2857 12.382 14.2857 12.5714V13.2857H12.8571V9.71429H19.2857ZM4.28571 14.7143H1.42857V13.2857H4.28571V14.7143ZM15.7143 13.2857H18.5714V14.7143H15.7143V13.2857ZM1.42857 5.42857H18.5714V8.28571H1.42857V5.42857Z" fill="#FFA054"/>
</svg>
