<svg width="50" height="50" viewBox="0 0 50 50" fill="none" xmlns="http://www.w3.org/2000/svg">
<path d="M11.3416 19.3462C10.9074 18.4364 9.83539 18.0205 8.83125 18.4493C7.82711 18.8783 7.46074 19.9441 7.90853 20.8539L12.1151 29.6141C12.78 30.9919 13.472 31.7067 14.7883 31.7067C16.1859 31.7067 16.7965 30.9268 17.4614 29.6141C17.4614 29.6141 21.1251 21.9587 21.1659 21.8808C21.2067 21.8026 21.3152 21.5557 21.6952 21.5557C22.0072 21.5557 22.2785 21.8026 22.2785 22.1277V29.6141C22.2785 30.7709 22.9435 31.7198 24.2326 31.7198C25.5217 31.7198 26.2137 30.7709 26.2137 29.6141V23.4924C26.2137 22.3096 27.0957 21.5428 28.3034 21.5428C29.5111 21.5428 30.3117 22.3356 30.3117 23.4924V29.6141C30.3117 30.7709 30.9766 31.7198 32.2657 31.7198C33.5548 31.7198 34.2468 30.7709 34.2468 29.6141V23.4924C34.2468 22.3096 35.1288 21.5428 36.3365 21.5428C37.5442 21.5428 38.3448 22.3356 38.3448 23.4924V29.6141C38.3448 30.7709 39.0097 31.7198 40.2988 31.7198C41.5879 31.7198 42.28 30.7709 42.28 29.6141V22.6476C42.28 20.0871 40.136 18.2934 37.5442 18.2934C34.966 18.2934 33.3377 20.0091 33.3377 20.0091C32.4829 18.9303 31.2887 18.2805 29.2804 18.2805C27.1636 18.2805 25.3046 19.996 25.3046 19.996C24.4498 18.9303 22.9843 18.2805 21.7629 18.2805C19.8903 18.2934 18.3978 19.0862 17.4885 21.0749L14.8018 27.1446L11.3416 19.3462Z" fill="#FFA054"/>
<path d="M25 49C38.2548 49 49 38.2548 49 25C49 11.7452 38.2548 1 25 1C11.7452 1 1 11.7452 1 25C1 38.2548 11.7452 49 25 49Z" stroke="#FFA054" stroke-width="2"/>
</svg>
