<svg width="31" height="32" viewBox="0 0 31 32" fill="none" xmlns="http://www.w3.org/2000/svg">
<path d="M20.8232 10.1515H9.91583C10.3703 7.34203 11.0933 5.06965 12.0849 3.33438C13.0765 1.59912 14.1714 0.731481 15.3695 0.731481C16.5677 0.731481 17.6626 1.59912 18.6541 3.33438C19.6457 5.06965 20.3688 7.34203 20.8232 10.1515ZM9.60596 20.0673C9.48201 18.7452 9.42003 17.4231 9.42003 16.101C9.42003 14.7789 9.48201 13.4568 9.60596 12.1347H21.1331C21.2571 13.4568 21.319 14.7789 21.319 16.101C21.319 17.4231 21.2571 18.7452 21.1331 20.0673H9.60596ZM29.5616 10.1515H22.8684C22.2486 6.35045 21.2157 3.41702 19.7697 1.35122C21.9594 2.01227 23.9013 3.12781 25.5952 4.69781C27.3305 6.2265 28.6526 8.0444 29.5616 10.1515ZM10.9694 1.35122C9.48201 3.41702 8.44911 6.35045 7.87069 10.1515H1.1775C2.08645 8.0444 3.38791 6.2265 5.08186 4.69781C6.81713 3.12781 8.77964 2.01227 10.9694 1.35122ZM30.1813 12.1347C30.5531 13.4568 30.7391 14.7789 30.7391 16.101C30.7391 17.4231 30.5531 18.7452 30.1813 20.0673H23.1163C23.2402 18.7039 23.3022 17.3818 23.3022 16.101C23.3022 14.8202 23.2402 13.4981 23.1163 12.1347H30.1813ZM7.43687 16.101C7.43687 17.3405 7.49884 18.6626 7.62279 20.0673H0.557765C0.185922 18.7039 0 17.3818 0 16.101C0 14.8202 0.185922 13.4981 0.557765 12.1347H7.62279C7.49884 13.4981 7.43687 14.8202 7.43687 16.101ZM9.91583 22.0505H20.8232C20.3688 24.86 19.6457 27.1324 18.6541 28.8676C17.6626 30.6029 16.5677 31.4705 15.3695 31.4705C14.1714 31.4705 13.0765 30.6029 12.0849 28.8676C11.0933 27.1324 10.3703 24.86 9.91583 22.0505ZM19.7697 30.8508C21.2571 28.785 22.2899 25.8516 22.8684 22.0505H29.5616C28.6526 24.1576 27.3305 25.9962 25.5952 27.5662C23.9013 29.0949 21.9594 30.1897 19.7697 30.8508ZM1.1775 22.0505H7.87069C8.49043 25.8516 9.52332 28.785 10.9694 30.8508C8.77964 30.1897 6.81713 29.0949 5.08186 27.5662C3.38791 25.9962 2.08645 24.1576 1.1775 22.0505Z" fill="#2D3250"/>
</svg>
