<svg width="34" height="36" viewBox="0 0 34 36" fill="none" xmlns="http://www.w3.org/2000/svg">
<g clip-path="url(#clip0_477_135864)">
<path d="M24.1564 12.4814H8.84437C8.35457 12.4814 7.95508 12.8775 7.95508 13.3682V16.3873C7.95508 16.878 8.35457 17.2741 8.84437 17.2741H24.1564C24.6452 17.2741 25.0444 16.878 25.0444 16.3873V13.3682C25.0444 12.8775 24.6446 12.4814 24.1564 12.4814ZM9.55649 14.5843C9.25389 14.5843 9.00868 14.3397 9.00868 14.0368C9.00868 13.7348 9.25389 13.4896 9.55649 13.4896C9.85971 13.4896 10.104 13.7348 10.104 14.0368C10.104 14.34 9.85971 14.5843 9.55649 14.5843ZM22.7089 16.1628H18.8407V14.8781H22.7092L22.7089 16.1628Z" fill="#2D3250"/>
<path d="M24.1564 17.7617H8.84437C8.35457 17.7617 7.95508 18.1584 7.95508 18.6491V21.6679C7.95508 22.158 8.35457 22.555 8.84437 22.555H24.1564C24.6452 22.555 25.0444 22.158 25.0444 21.6679V18.6491C25.0444 18.1584 24.6446 17.7617 24.1564 17.7617ZM9.55649 19.8652C9.25389 19.8652 9.00868 19.6215 9.00868 19.3177C9.00868 19.016 9.25389 18.7695 9.55649 18.7695C9.85971 18.7695 10.104 19.0157 10.104 19.3177C10.104 19.6212 9.85971 19.8652 9.55649 19.8652ZM22.7089 21.4434H18.8407V20.1583H22.7092L22.7089 21.4434Z" fill="#2D3250"/>
<path d="M24.1564 23.043H8.84437C8.35457 23.043 7.95508 23.4396 7.95508 23.9301V26.9488C7.95508 27.4392 8.35457 27.8362 8.84437 27.8362H24.1564C24.6452 27.8362 25.0444 27.4392 25.0444 26.9488V23.9301C25.0444 23.4396 24.6446 23.043 24.1564 23.043ZM9.55649 25.1458C9.25389 25.1458 9.00868 24.9028 9.00868 24.5983C9.00868 24.296 9.25389 24.0514 9.55649 24.0514C9.85971 24.0514 10.104 24.2957 10.104 24.5983C10.104 24.9028 9.85971 25.1458 9.55649 25.1458ZM22.7089 26.724H18.8407V25.439H22.7092L22.7089 26.724Z" fill="#2D3250"/>
<path d="M19.1446 30.7217H17.5127V28.3477H15.4883V30.7217H13.8546V31.3473H8.14258V33.3726H13.8546V33.9992H19.1446V33.3726H24.8563V31.3473H19.1446V30.7217Z" fill="#2D3250"/>
<path d="M25.538 7.61138C25.3188 7.59288 25.1175 7.48094 24.9871 7.3044C23.7594 5.64654 21.7912 4.62399 19.6965 4.62399C19.5654 4.62399 19.434 4.62806 19.3027 4.6359C19.1208 4.64688 18.942 4.59263 18.7969 4.48288C17.5216 3.52116 15.9763 3 14.3589 3C11.4609 3 8.88863 4.67886 7.68639 7.22099C7.57601 7.45397 7.35589 7.61577 7.10064 7.65152C3.9066 8.10087 1.44067 10.8515 1.44067 14.1672C1.44067 17.3283 3.68177 19.9743 6.65882 20.6036V18.6488C6.65882 18.4051 6.70397 18.1728 6.77892 17.9542C5.18691 17.4309 4.03297 15.9323 4.03297 14.1675C4.03297 11.9691 5.82158 10.1805 8.02035 10.1805C8.13135 10.1805 8.24047 10.1893 8.34928 10.198C8.98301 10.2473 9.55622 9.83617 9.71081 9.22157C10.2467 7.0849 12.1586 5.59261 14.3586 5.59261C15.616 5.59261 16.806 6.07802 17.7091 6.95978C18.0176 7.26081 18.4563 7.38906 18.8784 7.30095C19.1477 7.24482 19.4228 7.21628 19.6965 7.21628C21.2358 7.21628 22.6105 8.08174 23.2838 9.47463C23.5205 9.96443 24.0379 10.256 24.5794 10.2002C24.7143 10.1867 24.8488 10.1802 24.9792 10.1802C27.178 10.1802 28.9669 11.9688 28.9669 14.1672C28.9669 15.9323 27.8124 17.4306 26.2207 17.9539C26.2953 18.1728 26.3405 18.4048 26.3405 18.6485V20.603C29.3172 19.9739 31.5595 17.3283 31.5595 14.1669C31.5592 10.7273 28.9052 7.89548 25.538 7.61138Z" fill="#2D3250"/>
</g>
<defs>
<clipPath id="clip0_477_135864">
<rect width="31" height="31" fill="white" transform="translate(1 3)"/>
</clipPath>
</defs>
</svg>
