<svg width="68" height="68" viewBox="0 0 68 68" fill="none" xmlns="http://www.w3.org/2000/svg">
<mask id="mask0_254_11332" style="mask-type:luminance" maskUnits="userSpaceOnUse" x="0" y="1" width="68" height="67">
<path d="M67.5 1H0.5V68H67.5V1Z" fill="white"/>
</mask>
<g mask="url(#mask0_254_11332)">
<path d="M32.4086 1.45442C33.2325 0.848526 34.3543 0.848526 35.1782 1.45442L43.4286 7.52261C49.6162 12.0737 53.2702 19.2969 53.2702 26.9781V54.7559C53.2702 56.0465 52.2236 57.0931 50.933 57.0931H16.6539C15.3631 57.0931 14.3167 56.0465 14.3167 54.7559V26.9781C14.3167 19.2969 17.9705 12.0737 24.1582 7.52261L32.4086 1.45442ZM33.7935 6.23853L26.9278 11.2882C21.9377 14.9584 18.9911 20.7836 18.9911 26.9781V52.4187H48.5958V26.9781C48.5958 20.7836 45.6489 14.9584 40.6588 11.2882L33.7935 6.23853Z" fill="#2D3250"/>
<path d="M17.5473 21.4338C18.4206 21.7956 18.9901 22.6478 18.9901 23.5932V40.7327C18.9901 41.618 18.4899 42.4274 17.6981 42.8231L8.34925 47.4975C7.62473 47.8599 6.7643 47.8209 6.07527 47.3952C5.38622 46.9693 4.9668 46.2171 4.9668 45.4071V32.9419C4.9668 32.3222 5.21304 31.7275 5.65136 31.2895L15.0002 21.9405C15.6686 21.272 16.6739 21.0721 17.5473 21.4338ZM9.64121 33.9103V41.6256L14.3156 39.2882V29.2357L9.64121 33.9103Z" fill="#2D3250"/>
<path d="M50.0379 21.4338C50.9112 21.0721 51.9164 21.272 52.5848 21.9405L61.9338 31.2895C62.3722 31.7275 62.6183 32.3222 62.6183 32.9419V45.4071C62.6183 46.2171 62.1989 46.9693 61.5099 47.3952C60.8209 47.8209 59.9604 47.8599 59.2359 47.4975L49.8872 42.8231C49.0953 42.4274 48.5952 41.618 48.5952 40.7327V23.5932C48.5952 22.6478 49.1645 21.7956 50.0379 21.4338ZM53.2696 29.2357V39.2882L57.9439 41.6256V33.9103L53.2696 29.2357Z" fill="#2D3250"/>
<path d="M24.4442 55.5342C25.7351 55.5342 26.7814 56.5805 26.7814 57.8714V62.5457C26.7814 63.8366 25.7351 64.8829 24.4442 64.8829C23.1534 64.8829 22.1071 63.8366 22.1071 62.5457V57.8714C22.1071 56.5805 23.1534 55.5342 24.4442 55.5342Z" fill="#2D3250"/>
<path d="M33.7923 55.5342C35.0829 55.5342 36.1294 56.5805 36.1294 57.8714V65.6621C36.1294 66.9528 35.0829 67.9993 33.7923 67.9993C32.5014 67.9993 31.4551 66.9528 31.4551 65.6621V57.8714C31.4551 56.5805 32.5014 55.5342 33.7923 55.5342Z" fill="#2D3250"/>
<path d="M43.1421 55.5342C44.4328 55.5342 45.4793 56.5805 45.4793 57.8714V62.5457C45.4793 63.8366 44.4328 64.8829 43.1421 64.8829C41.8512 64.8829 40.8049 63.8366 40.8049 62.5457V57.8714C40.8049 56.5805 41.8512 55.5342 43.1421 55.5342Z" fill="#2D3250"/>
</g>
</svg>
