<svg width="50" height="50" viewBox="0 0 50 50" fill="none" xmlns="http://www.w3.org/2000/svg">
<g clip-path="url(#clip0_1507_4942)">
<path fill-rule="evenodd" clip-rule="evenodd" d="M6.36909 37.5437H2.5065C2.02407 37.5437 1.5614 37.3656 1.22027 37.0486C0.879144 36.7317 0.6875 36.3018 0.6875 35.8535V19.6242C0.6875 19.1759 0.879144 18.7461 1.22027 18.4291C1.5614 18.1121 2.02407 17.9341 2.5065 17.9341H33.7515C34.2339 17.9341 34.6966 18.1121 35.0377 18.4291C35.3789 18.7461 35.5705 19.1759 35.5705 19.6242V35.8553C35.5705 36.3035 35.3789 36.7334 35.0377 37.0504C34.6966 37.3673 34.2339 37.5454 33.7515 37.5454H14.368C11.7286 43.5047 3.12087 44.0601 3.12087 44.0601C5.51156 41.9362 6.2373 39.4692 6.36909 37.5437Z" fill="#F9F9F8"/>
<path fill-rule="evenodd" clip-rule="evenodd" d="M33.7664 17.3033C34.804 17.3119 35.7989 17.9724 36.1256 18.908C36.2045 19.1339 36.2453 19.371 36.2472 19.609C36.2657 25.0243 36.2472 30.4395 36.2472 35.8556C36.2434 36.2295 36.1441 36.5972 35.9576 36.9285C35.7711 37.2598 35.5027 37.5452 35.1743 37.7613C34.756 38.0297 34.26 38.174 33.7516 38.1752H14.809L14.7839 38.2244C13.9394 39.8774 12.525 41.2821 10.8415 42.297C8.70325 43.587 6.18078 44.3407 3.70193 44.6373C3.52653 44.658 3.35205 44.677 3.17665 44.689C3.17665 44.689 3.09034 44.6942 3.03094 44.6865C2.57898 44.6313 2.27643 44.088 2.56042 43.7034C2.65786 43.5724 2.79707 43.4749 2.91865 43.3585C4.38575 41.9518 5.33069 40.1463 5.61559 38.2054L5.62023 38.1752H2.50473C1.47737 38.1718 0.494553 37.5345 0.150243 36.6231C0.0588338 36.3808 0.0108647 36.1262 0.00824943 35.8694C-0.0103118 30.4542 0.00824943 25.0381 0.00824943 19.6228C0.0119617 18.67 0.697798 17.7542 1.67876 17.4343C1.93862 17.3498 2.21332 17.3058 2.48988 17.3033C12.9157 17.2765 23.3415 17.2765 33.7664 17.3033ZM2.50659 18.5648C1.91727 18.5657 1.37157 19.0348 1.36507 19.6168C1.34744 25.0321 1.34744 30.4473 1.36507 35.8617C1.37157 36.4118 1.88479 36.912 2.50659 36.9137H6.36825C6.48982 36.9258 6.52416 36.9197 6.63738 36.9654C6.84898 37.0499 7.00861 37.2414 7.04016 37.4569C7.06151 37.5949 7.03552 37.7346 7.0216 37.8743C6.83785 39.78 6.10653 41.6287 4.88242 43.1602L4.87407 43.1705C6.43507 42.8601 7.94873 42.3841 9.37795 41.6443C11.2016 40.7018 12.8025 39.2902 13.6582 37.4811C13.686 37.4224 13.7138 37.3629 13.7389 37.3034L13.802 37.1948C13.855 37.1283 13.9181 37.0693 13.9895 37.0198C14.1041 36.9561 14.2338 36.9196 14.3672 36.9137C20.8302 36.9137 27.2942 36.9309 33.7581 36.9137C34.3474 36.9085 34.8848 36.4368 34.8903 35.8617C34.9089 30.4464 34.9089 25.0312 34.8903 19.6168C34.884 19.3909 34.8021 19.1724 34.6561 18.9916C34.5101 18.8108 34.3072 18.6767 34.0755 18.6079C33.9697 18.5791 33.86 18.5646 33.7497 18.5648H2.50659Z" fill="#F9F9F8"/>
<path fill-rule="evenodd" clip-rule="evenodd" d="M8.96431 26.1537C9.19317 26.1467 9.4212 26.1826 9.63484 26.2592C9.84848 26.3358 10.0434 26.4515 10.2079 26.5995C10.3724 26.7475 10.5032 26.9247 10.5925 27.1206C10.6818 27.3165 10.7278 27.5271 10.7278 27.7399C10.7277 27.9527 10.6816 28.1632 10.5922 28.3591C10.5027 28.555 10.3718 28.7321 10.2072 28.88C10.0426 29.0279 9.84766 29.1436 9.63397 29.22C9.42029 29.2965 9.19224 29.3323 8.96338 29.3252C8.52048 29.3115 8.10065 29.1384 7.79259 28.8424C7.48453 28.5464 7.31238 28.1508 7.3125 27.739C7.31262 27.3273 7.48501 26.9317 7.79324 26.6359C8.10147 26.3401 8.5214 26.1671 8.96431 26.1537Z" fill="white"/>
<path fill-rule="evenodd" clip-rule="evenodd" d="M8.98213 25.5234C9.41977 25.5316 9.84699 25.649 10.219 25.8634C10.5909 26.0778 10.894 26.3812 11.0963 26.7419C11.4239 27.3455 11.4322 28.0905 11.1157 28.6993C10.6675 29.5633 9.57609 30.1049 8.51625 29.9151C8.06092 29.8271 7.64213 29.6201 7.30919 29.3184C6.97624 29.0167 6.743 28.6328 6.63692 28.2121C6.40862 27.2394 6.96267 26.1486 7.9854 25.7201C8.29883 25.5894 8.63862 25.5224 8.98213 25.5234ZM8.95986 26.7841C8.73031 26.7904 8.50919 26.8659 8.32988 26.9992C8.15057 27.1325 8.02282 27.3164 7.96591 27.5231C7.81463 28.1285 8.42437 28.8123 9.16774 28.6752C9.58073 28.5993 9.92504 28.263 9.98444 27.8732C10.0643 27.3438 9.59094 26.7893 8.97285 26.7841H8.95986Z" fill="#F9F9F8"/>
<path fill-rule="evenodd" clip-rule="evenodd" d="M18.127 26.1533C18.5676 26.1699 18.9842 26.3441 19.2896 26.6396C19.5951 26.9351 19.7657 27.3289 19.7657 27.7387C19.7657 28.1484 19.5951 28.5422 19.2896 28.8377C18.9842 29.1332 18.5676 29.3075 18.127 29.324C17.6864 29.3075 17.2697 29.1332 16.9643 28.8377C16.6589 28.5422 16.4883 28.1484 16.4883 27.7387C16.4883 27.3289 16.6589 26.9351 16.9643 26.6396C17.2697 26.3441 17.6864 26.1699 18.127 26.1533Z" fill="white"/>
<path fill-rule="evenodd" clip-rule="evenodd" d="M18.143 25.5235C18.5807 25.5315 19.0081 25.6489 19.3802 25.8633C19.7524 26.0777 20.0556 26.3811 20.258 26.7419C20.5856 27.3455 20.5921 28.0905 20.2766 28.6993C19.8283 29.5633 18.7369 30.1049 17.6771 29.9152C17.2192 29.8267 16.7982 29.6179 16.4644 29.3135C16.1306 29.0091 15.8979 28.622 15.794 28.1983C15.5732 27.2265 16.1309 26.146 17.1462 25.7192C17.4597 25.5889 17.7995 25.5221 18.143 25.5235ZM18.1207 26.7841C17.6632 26.7885 17.2298 27.1058 17.1267 27.5231C16.9755 28.1285 17.5852 28.8123 18.3286 28.6752C18.7416 28.5993 19.0868 28.263 19.1453 27.8732C19.2251 27.3438 18.7518 26.7893 18.1337 26.7841H18.1207Z" fill="#F9F9F8"/>
<path fill-rule="evenodd" clip-rule="evenodd" d="M27.2895 26.1537C27.5183 26.1468 27.7463 26.1827 27.96 26.2594C28.1736 26.336 28.3684 26.4518 28.5329 26.5998C28.6974 26.7478 28.8281 26.9251 28.9174 27.121C29.0066 27.317 29.0526 27.5276 29.0524 27.7403C29.0523 27.9531 29.0061 28.1637 28.9167 28.3595C28.8272 28.5553 28.6962 28.7325 28.5316 28.8803C28.3669 29.0282 28.1719 29.1438 27.9582 29.2202C27.7445 29.2966 27.5165 29.3323 27.2876 29.3252C26.8447 29.3115 26.4249 29.1384 26.1168 28.8424C25.8088 28.5464 25.6366 28.1508 25.6367 27.739C25.6368 27.3273 25.8092 26.9317 26.1175 26.6359C26.4257 26.34 26.8465 26.1671 27.2895 26.1537Z" fill="white"/>
<path fill-rule="evenodd" clip-rule="evenodd" d="M27.3073 25.5233C27.9435 25.5303 28.5511 25.7701 28.9982 26.1908C29.5439 26.7107 29.7871 27.4885 29.6256 28.1982C29.4029 29.1786 28.3987 29.9547 27.2915 29.9547C26.7235 29.9528 26.1746 29.7643 25.7417 29.4227C25.4498 29.1861 25.2231 28.8882 25.0804 28.5537C24.9377 28.2192 24.8831 27.8578 24.9213 27.4997C24.9701 27.1175 25.1235 26.7532 25.3666 26.4415C25.6098 26.1298 25.9348 25.8811 26.3106 25.7191C26.6241 25.5887 26.9639 25.522 27.3073 25.5233ZM27.285 26.784C26.7894 26.7883 26.3282 27.166 26.2716 27.6291C26.201 28.1965 26.7662 28.7759 27.4428 28.6837C27.8753 28.625 28.2446 28.2818 28.3087 27.8791C28.3922 27.3523 27.931 26.797 27.3119 26.784H27.285ZM47.3571 5.73699C48.4532 5.74561 49.487 6.42683 49.848 7.39692C49.9418 7.64957 49.99 7.91689 49.9928 8.18592C50.0114 13.5149 49.9928 18.844 49.9928 24.173C49.9884 24.5706 49.8826 24.9616 49.684 25.3139C49.4854 25.6661 49.1997 25.9696 48.8504 26.1994C48.4062 26.4837 47.8798 26.6364 47.3404 26.6374H44.3966C44.7372 28.6699 45.6448 30.7006 47.3348 32.0104L47.4332 32.1044C47.5 32.201 47.526 32.2234 47.5576 32.3372C47.5942 32.4864 47.5731 32.6428 47.4981 32.779C47.4231 32.9152 47.299 33.0225 47.1474 33.0823C47.0193 33.1288 46.9896 33.1306 46.8309 33.1228C45.5409 33.0555 44.2657 32.7951 43.0351 32.4338C41.0621 31.8561 39.206 30.9507 37.6737 29.6417L37.58 29.5425C37.5568 29.5046 37.529 29.4684 37.5104 29.4278C37.4484 29.2843 37.4434 29.125 37.4963 28.9784C37.5491 28.8318 37.6565 28.7074 37.799 28.6276C37.9032 28.5743 38.0203 28.547 38.1392 28.5482C38.2581 28.5494 38.3746 28.5791 38.4774 28.6345C38.5517 28.675 38.6129 28.7311 38.6733 28.782C40.3577 30.191 42.5182 31.0895 44.74 31.5577C44.856 31.5819 44.972 31.6043 45.088 31.6267L45.1019 31.6293C43.9112 30.1289 43.2207 28.2577 42.9924 26.4012C42.9781 26.287 42.9666 26.1726 42.9581 26.058V26.0416L42.9637 25.914C42.9934 25.8044 42.9924 25.7725 43.0583 25.6751C43.1071 25.6023 43.1712 25.5394 43.2468 25.4902C43.3224 25.441 43.4079 25.4065 43.4982 25.3888C43.5428 25.3802 43.5892 25.3802 43.6356 25.3767C44.8727 25.3767 46.1107 25.3802 47.3478 25.3767C48.017 25.3707 48.6286 24.8335 48.6351 24.1807C48.6536 18.8517 48.6536 13.5227 48.6351 8.19369C48.6295 7.57542 48.0597 7.00371 47.3478 6.99767C37.0312 6.96763 26.7146 6.96763 16.398 6.99767C15.7437 7.00371 15.1386 7.51419 15.1117 8.15488V15.3965C15.1061 15.4396 15.1061 15.4844 15.0959 15.5276C15.0569 15.6778 14.9616 15.8102 14.8271 15.901C14.6926 15.9919 14.5276 16.0353 14.3618 16.0234C14.2199 16.0076 14.0867 15.9515 13.9804 15.8627C13.8741 15.774 13.7999 15.6569 13.7678 15.5276C13.7585 15.4844 13.7585 15.4396 13.7539 15.3965V8.20058C13.7583 7.79539 13.8681 7.3972 14.074 7.03999C14.2799 6.68277 14.5757 6.37714 14.9363 6.14917C15.3677 5.8843 15.8725 5.74114 16.3896 5.73699C26.7124 5.70681 37.0343 5.70681 47.3571 5.73699Z" fill="#F9F9F8"/>
</g>
<defs>
<clipPath id="clip0_1507_4942">
<rect width="50" height="50" fill="white"/>
</clipPath>
</defs>
</svg>
