<svg width="130" height="130" viewBox="0 0 130 130" fill="none" xmlns="http://www.w3.org/2000/svg">
<path d="M70.791 52.2353L64.6627 46.107C65.8774 38.6341 63.6268 30.7081 57.8641 24.9455C48.3457 15.427 32.9122 15.427 23.3918 24.9455C13.8733 34.4639 13.8733 49.8973 23.3918 59.4178C29.1544 65.1805 37.0804 67.4311 44.5533 66.2164L50.6816 72.3447L70.791 52.2353Z" fill="#FFA054"/>
<path d="M62.6315 42.0451L64.8537 44.2673C65.3211 38.9907 64.053 33.7057 61.2422 29.2157C62.8448 33.2908 63.3247 37.7213 62.6315 42.0451ZM67.7462 49.189L55.8004 61.1348C55.2519 61.683 54.5082 61.991 53.7326 61.991C52.9571 61.991 52.2133 61.683 51.6648 61.1348L51.6608 61.1307C51.3436 60.8213 50.961 60.587 50.5413 60.445C50.1216 60.3029 49.6753 60.2569 49.2354 60.3101C42.189 61.0393 34.8887 58.7237 29.4897 53.3246C21.0112 44.8462 20.1053 31.6898 26.7272 22.1855C25.537 23.0057 24.4222 23.9302 23.3959 24.948C16.3617 31.9823 14.5417 42.2421 17.9034 50.9623C18.4823 52.4654 19.2136 53.9218 20.1033 55.3091C20.1276 55.3477 20.1479 55.3904 20.1744 55.429C20.5725 56.0424 21.0092 56.6376 21.4683 57.2226C21.5414 57.316 21.6023 57.4135 21.6775 57.5049C22.2117 58.1651 22.7825 58.8049 23.3979 59.4204C29.1606 65.183 37.0865 67.4337 44.5595 66.219L50.6878 72.3473L56.7815 66.2535L70.7951 52.2399L67.7462 49.189Z" fill="#FFA054"/>
<path d="M35.6241 29.9956C34.6643 29.0792 33.3841 28.5748 32.0572 28.5902C30.7303 28.6055 29.4621 29.1395 28.5238 30.0778C27.5855 31.0161 27.0516 32.2843 27.0362 33.6112C27.0209 34.9381 27.5253 36.2183 28.4416 37.1781C29.0705 37.8046 29.8533 38.2544 30.7112 38.4823C31.5691 38.7101 32.472 38.708 33.3288 38.476L40.6433 49.3798L47.8258 42.1973L36.9221 34.8828C37.154 34.0259 37.1562 33.1231 36.9283 32.2652C36.7004 31.4072 36.2506 30.6244 35.6241 29.9956Z" fill="#282E4D"/>
<path d="M42.6521 46.9973L36.0424 37.1437C35.8485 36.8555 35.5832 36.6224 35.2724 36.4672C34.9617 36.312 34.616 36.2399 34.2691 36.258C33.5656 36.2961 32.8619 36.1855 32.204 35.9335C31.546 35.6815 30.9485 35.2938 30.4503 34.7955C29.7444 34.0898 29.2621 33.1916 29.0638 32.2133C28.8655 31.235 28.9599 30.2199 29.3352 29.2949C28.2952 29.951 27.4014 30.924 27.1536 32.8476C26.9505 34.4279 27.3547 36.1179 28.4963 37.227C29.1256 37.8356 29.902 38.2706 30.7498 38.4892C31.5976 38.7078 32.4875 38.7026 33.3327 38.4741L40.6472 49.3779L47.8297 42.1954L47.6022 42.0471L42.6521 46.9973Z" fill="#282E4D"/>
<path d="M95.6007 111.515L91.2254 107.14L90.2139 102.539L85.7248 101.641L82.6333 98.5497L81.835 94.5583L77.8456 93.76L77.0473 89.7706L73.0579 88.9723L69.8668 85.7812L69.0686 78.6008L61.687 77.6014L53.5559 69.4723L67.9189 55.1094L111.759 98.9478L109.964 107.924L95.6007 111.515Z" fill="#FFA054"/>
<path d="M98.8486 106.64L95.7063 103.498C95.4315 103.223 95.2412 102.876 95.1579 102.496L94.5586 99.7704C94.4742 99.3849 94.2791 99.0323 93.9973 98.756C93.7156 98.4796 93.3593 98.2914 92.9722 98.2145L90.3905 97.6985C89.9976 97.6195 89.6367 97.4266 89.3525 97.144L87.1304 94.9218C86.8463 94.6388 86.6532 94.2773 86.5758 93.8838L86.1635 91.8241C86.0847 91.4312 85.8915 91.0703 85.6081 90.787C85.3248 90.5036 84.9639 90.3104 84.571 90.2316L83.2365 89.9655C82.8435 89.8868 82.4827 89.6936 82.1993 89.4102C81.9159 89.1268 81.7227 88.766 81.644 88.373L81.3779 87.0385C81.2991 86.6456 81.1059 86.2847 80.8225 86.0014C80.5392 85.718 80.1783 85.5248 79.7854 85.446L77.7257 85.0337C77.3328 84.9546 76.9718 84.7618 76.6877 84.4791L74.435 82.2265C74.1085 81.9003 73.9028 81.4726 73.8521 81.0138L73.4824 77.6927C73.3823 76.7923 72.9841 75.9512 72.351 75.303C71.718 74.6549 70.8865 74.237 69.9886 74.1157L66.4299 73.6343C65.9891 73.575 65.5801 73.3723 65.266 73.0574C64.5853 72.3764 64.2029 71.4528 64.2029 70.4899C64.2029 69.527 64.5853 68.6035 65.266 67.9224L72.999 60.1895L67.9208 55.1113L57.6204 65.4118L53.5579 69.4743L61.689 77.6054L64.0371 77.9223L69.0685 78.6027L69.8668 85.7852L73.0579 88.9763L77.0472 89.7746L77.8455 93.764L81.8349 94.5623L82.6332 98.5516L85.7247 101.643L90.2138 102.541L91.2254 107.144L95.6007 111.519L109.964 107.928L110.606 104.721L100.778 107.176C100.438 107.26 100.081 107.255 99.7432 107.161C99.4052 107.067 99.0971 106.888 98.8486 106.64Z" fill="#FFA054"/>
<path d="M108.136 108.254L61.4556 61.5734L64.3298 58.6992L111.008 105.379" fill="#FFA054"/>
<path d="M61.4556 61.5734L64.3278 58.7012L69.4059 63.7793L66.5337 66.6515L61.4556 61.5734ZM110.561 104.932L110.399 104.77L105.802 105.918L108.136 108.254L110.338 106.052L110.561 104.932Z" fill="#FFA054"/>
<path d="M111.008 106.395C110.738 106.395 110.48 106.289 110.289 106.099L63.6107 59.4185C63.4256 59.2269 63.3233 58.9704 63.3256 58.7041C63.3279 58.4378 63.4347 58.183 63.623 57.9947C63.8113 57.8064 64.0661 57.6996 64.3324 57.6973C64.5986 57.695 64.8552 57.7974 65.0467 57.9824L111.727 104.663C111.869 104.805 111.965 104.986 112.004 105.183C112.043 105.379 112.023 105.583 111.946 105.769C111.869 105.954 111.739 106.113 111.572 106.224C111.405 106.336 111.209 106.395 111.008 106.395ZM108.136 109.267C107.866 109.267 107.608 109.161 107.417 108.971L60.7385 62.2906C60.5535 62.0991 60.4511 61.8425 60.4534 61.5763C60.4557 61.31 60.5625 61.0552 60.7508 60.8669C60.9391 60.6786 61.1939 60.5718 61.4602 60.5695C61.7265 60.5672 61.983 60.6695 62.1746 60.8546L108.855 107.535C108.996 107.677 109.093 107.858 109.132 108.055C109.171 108.252 109.15 108.456 109.073 108.641C108.997 108.826 108.866 108.985 108.699 109.096C108.533 109.208 108.336 109.267 108.136 109.267Z" fill="#2D3250"/>
<path d="M50.6838 74.3772C50.4171 74.3774 50.1529 74.325 49.9064 74.2229C49.66 74.1207 49.4361 73.9709 49.2477 73.782L43.8365 68.3708C39.8586 68.8564 35.8225 68.4322 32.0325 67.1303C28.2425 65.8284 24.7976 63.6827 21.9579 60.8551C11.6615 50.5587 11.6615 33.807 21.9579 23.5106C32.2523 13.2162 49.006 13.2142 59.3004 23.5106C62.1271 26.351 64.2722 29.7958 65.574 33.5857C66.8759 37.3755 67.3006 41.4114 66.816 45.3892L72.2273 50.8004C72.4161 50.9889 72.5658 51.2128 72.668 51.4592C72.7702 51.7056 72.8228 51.9698 72.8228 52.2365C72.8228 52.5033 72.7702 52.7675 72.668 53.0139C72.5658 53.2603 72.4161 53.4842 72.2273 53.6726L52.1199 73.78C51.9319 73.9695 51.7082 74.1199 51.4617 74.2224C51.2152 74.3249 50.9508 74.3775 50.6838 74.3772ZM44.5556 64.1864C45.0942 64.1865 45.6108 64.4006 45.9916 64.7815L50.6838 69.4737L67.919 52.2386L63.2268 47.5464C62.9987 47.3192 62.8282 47.041 62.7293 46.7347C62.6303 46.4284 62.6059 46.1029 62.6581 45.7853C63.2266 42.2893 62.9584 38.7084 61.8755 35.3361C60.7926 31.9638 58.9258 28.8962 56.4282 26.3848C47.7162 17.6728 33.5421 17.6708 24.8301 26.3848C16.1181 35.0969 16.1181 49.2729 24.8301 57.985C27.3411 60.483 30.4087 62.35 33.7812 63.4326C37.1536 64.5152 40.7347 64.7826 44.2306 64.2128C44.338 64.1949 44.4467 64.1861 44.5556 64.1864Z" fill="#2D3250"/>
</svg>
