<svg width="40" height="40" viewBox="0 0 40 40" fill="none" xmlns="http://www.w3.org/2000/svg">
<g clip-path="url(#clip0_305_14)">
<path d="M20.5 21.6201L15.72 35.5201C17.1846 35.9508 18.7033 36.1697 20.23 36.1701C22.0324 36.1715 23.8216 35.8637 25.52 35.2601C25.4754 35.191 25.4385 35.1172 25.41 35.0401L20.5 21.6201Z" fill="#FFA054"/>
<path d="M4.28004 20.2302C4.28072 23.2248 5.12544 26.1585 6.71731 28.6948C8.30917 31.2312 10.5837 33.2675 13.28 34.5702L5.67004 13.7402C4.75155 15.7805 4.27772 17.9928 4.28004 20.2302Z" fill="#FFA054"/>
<path d="M30.9999 19.4201C30.978 17.8515 30.5173 16.3203 29.6699 15.0001C28.8599 13.6901 28.1099 12.5801 28.1099 11.2701C28.0911 10.5414 28.3612 9.83482 28.8615 9.30462C29.3617 8.77441 30.0514 8.46362 30.7799 8.44009H30.9999C29.2994 6.87906 27.2797 5.70652 25.0809 5.00375C22.882 4.30098 20.5567 4.08479 18.266 4.37018C15.9753 4.65556 13.7741 5.43569 11.8149 6.65648C9.85573 7.87728 8.18547 9.50953 6.91992 11.4401H7.91992C9.58992 11.4401 12.1699 11.2401 12.1699 11.2401C12.3339 11.2435 12.4907 11.3078 12.6098 11.4205C12.729 11.5332 12.8019 11.6862 12.8144 11.8497C12.8268 12.0132 12.778 12.1755 12.6774 12.305C12.5767 12.4345 12.4315 12.5219 12.2699 12.5501C12.2699 12.5501 11.4099 12.6501 10.4499 12.7001L16.2599 30.0001L19.7499 19.5401L17.2699 12.7301C16.4099 12.6801 15.5999 12.5801 15.5999 12.5801C15.4384 12.5519 15.2931 12.4645 15.1925 12.335C15.0918 12.2055 15.043 12.0432 15.0555 11.8797C15.068 11.7162 15.1409 11.5632 15.26 11.4505C15.3791 11.3378 15.536 11.2735 15.6999 11.2701C15.6999 11.2701 18.3299 11.4701 19.8999 11.4701C21.4699 11.4701 24.1499 11.2701 24.1499 11.2701C24.3139 11.2735 24.4707 11.3378 24.5898 11.4505C24.709 11.5632 24.7819 11.7162 24.7944 11.8797C24.8068 12.0432 24.758 12.2055 24.6574 12.335C24.5567 12.4645 24.4115 12.5519 24.2499 12.5801C24.2499 12.5801 23.3799 12.6801 22.4199 12.7301L28.1799 29.8701L29.7699 24.5501C30.4143 22.9049 30.8282 21.1786 30.9999 19.4201Z" fill="#FFA054"/>
<path d="M34.21 12.5801C34.2845 13.1235 34.3213 13.6715 34.32 14.2201C34.2924 16.184 33.8813 18.1237 33.11 19.9301L28.24 34.0001C31.8384 31.9196 34.4805 28.5143 35.6017 24.5118C36.7228 20.5093 36.2341 16.2271 34.24 12.5801H34.21Z" fill="#FFA054"/>
<path d="M20.23 2.47272e-06C16.2285 -0.00197555 12.3162 1.18281 8.98809 3.40451C5.65997 5.62621 3.06548 8.78501 1.53279 12.4814C9.38177e-05 16.1778 -0.401955 20.2457 0.377495 24.1705C1.15694 28.0954 3.08288 31.701 5.91169 34.5312C8.74051 37.3615 12.3451 39.2892 16.2696 40.0706C20.1942 40.8519 24.2622 40.4519 27.9594 38.921C31.6565 37.3902 34.8166 34.7972 37.0399 31.4702C39.2633 28.1432 40.45 24.2315 40.45 20.23C40.45 14.8664 38.32 9.72234 34.5283 5.92877C30.7366 2.13519 25.5936 0.00265378 20.23 2.47272e-06ZM20.23 38C16.7268 37.9921 13.3044 36.9465 10.3948 34.9953C7.48528 33.0441 5.21899 30.2746 3.88201 27.0365C2.54503 23.7984 2.19729 20.2368 2.88268 16.8013C3.56807 13.3657 5.25587 10.2102 7.73304 7.73304C10.2102 5.25587 13.3657 3.56807 16.8013 2.88268C20.2368 2.19729 23.7984 2.54503 27.0365 3.88201C30.2746 5.21899 33.0441 7.48528 34.9953 10.3948C36.9465 13.3044 37.9921 16.7268 38 20.23C38.0026 22.5643 37.5448 24.8763 36.6527 27.0334C35.7606 29.1905 34.4518 31.1505 32.8012 32.8012C31.1505 34.4518 29.1905 35.7606 27.0334 36.6527C24.8763 37.5448 22.5643 38.0026 20.23 38Z" fill="#FFA054"/>
</g>
<defs>
<clipPath id="clip0_305_14">
<rect width="40" height="40" fill="white"/>
</clipPath>
</defs>
</svg>
