<svg width="106" height="106" viewBox="0 0 106 106" fill="none" xmlns="http://www.w3.org/2000/svg">
<path d="M44.8052 8.10156V19.5197C41.1648 20.3744 37.6834 21.8054 34.4934 23.7531L26.4838 15.7435L14.8801 27.3439L22.893 35.3568C20.9514 38.5191 19.5205 41.9678 18.653 45.5759H7.33423V62.0589H18.6597C19.5242 65.6695 20.9552 69.1145 22.8964 72.2779L14.8834 80.2909L26.4871 91.8912L34.4967 83.8816C37.69 85.8294 41.1681 87.2604 44.8085 88.1183V99.4437H61.1988V88.115C64.8094 87.2537 68.2544 85.8227 71.4212 83.8816L79.4308 91.8912L91.0345 80.2909L83.0215 72.2779C84.962 69.1154 86.3918 65.6667 87.2582 62.0589H98.6764V45.5759H87.2516C86.3852 41.968 84.9554 38.5193 83.0149 35.3568L91.0278 27.3439L79.4242 15.7435L71.4178 23.7531C68.2541 21.8135 64.8042 20.3848 61.1955 19.5197V8.10156H44.8052ZM47.4552 75.925C44.8833 75.2797 42.4447 74.1876 40.2505 72.6986C36.5795 70.2127 33.7031 66.721 31.966 62.6419C30.7746 59.8352 30.1627 56.8167 30.1673 53.7677C30.1673 41.1934 40.4261 31.0241 53.0004 31.0241C55.9878 31.0214 58.9465 31.6079 61.707 32.75C64.4676 33.892 66.9759 35.5672 69.0883 37.6797C71.2008 39.7921 72.876 42.3004 74.018 45.061C75.1601 47.8215 75.7466 50.7802 75.744 53.7677C75.7433 56.8149 75.1364 59.8315 73.9585 62.6419C72.8179 65.3531 71.1645 67.8185 69.0892 69.9029C67.0166 71.9855 64.5627 73.65 61.8613 74.8054C60.4998 75.3818 59.0722 75.8322 57.5882 76.137" fill="#FFA054"/>
<path d="M47.4552 75.925C44.8833 75.2797 42.4447 74.1876 40.2505 72.6986C36.5795 70.2127 33.7031 66.721 31.966 62.6419C30.7746 59.8352 30.1627 56.8167 30.1673 53.7677C30.1673 41.1934 40.4261 31.0241 53.0004 31.0241C55.9878 31.0214 58.9465 31.6079 61.707 32.75C64.4676 33.892 66.9759 35.5672 69.0883 37.6797C71.2008 39.7921 72.876 42.3004 74.018 45.061C75.1601 47.8215 75.7466 50.7802 75.744 53.7677C75.7433 56.8149 75.1364 59.8315 73.9585 62.6419C72.8179 65.3531 71.1645 67.8185 69.0892 69.9029C67.0166 71.9855 64.5627 73.65 61.8613 74.8054C60.4998 75.3817 59.0722 75.8322 57.5882 76.137M44.8052 8.10156V19.5198C41.1648 20.3744 37.6834 21.8054 34.4934 23.7531L26.4838 15.7435L14.8801 27.3439L22.893 35.3568C20.9514 38.5191 19.5205 41.9678 18.653 45.5759H7.33423V62.0589H18.6597C19.5242 65.6695 20.9552 69.1145 22.8964 72.2779L14.8834 80.2909L26.4871 91.8912L34.4967 83.8816C37.69 85.8294 41.1681 87.2604 44.8085 88.1183V99.4437H61.1988V88.115C64.8094 87.2537 68.2544 85.8227 71.4212 83.8816L79.4308 91.8912L91.0345 80.2909L83.0215 72.2779C84.962 69.1154 86.3918 65.6667 87.2582 62.0589H98.6764V45.5759H87.2516C86.3852 41.968 84.9554 38.5193 83.0149 35.3568L91.0278 27.3439L79.4242 15.7435L71.4178 23.7531C68.2541 21.8135 64.8042 20.3848 61.1955 19.5198V8.10156H44.8052Z" stroke="#1C1616" stroke-width="2.94813" stroke-linecap="round" stroke-linejoin="round"/>
<path d="M18.8948 101.058V95.1825C18.8948 92.4165 21.0479 89.9554 23.5058 88.7264C33.6487 83.1945 45.0702 77.5335 45.0702 77.5335L47.6903 76.2416C49.2373 76.8047 50.7378 77.5434 52.9042 77.613C55.372 77.4275 56.5215 76.6789 58.2705 76.1621L60.6886 77.3447C61.6128 77.9608 70.5267 81.9557 83.7436 89.3359C86.2048 90.8696 87.129 96.3308 87.129 99.4048V101.227" fill="white"/>
<path d="M18.8948 101.058V95.1825C18.8948 92.4165 21.0479 89.9554 23.5058 88.7264C33.6487 83.1945 45.0702 77.5335 45.0702 77.5335L47.6903 76.2416C49.2373 76.8047 50.7378 77.5434 52.9042 77.613C55.372 77.4275 56.5215 76.6789 58.2705 76.1621L60.6886 77.3447C61.6128 77.9608 70.5267 81.9557 83.7436 89.3359C86.2048 90.8696 87.129 96.3308 87.129 99.4048V101.227" stroke="#1C1616" stroke-width="3.3125" stroke-linecap="round" stroke-linejoin="round"/>
<path d="M45.0702 77.533L47.6904 76.2412C49.2374 76.8043 50.7379 77.543 52.9043 77.6125C55.3721 77.427 56.5215 76.6784 58.2705 76.1617L60.6887 77.3442M52.8347 42.5C51.286 42.4965 49.7518 42.799 48.3203 43.3901C46.8888 43.9811 45.5882 44.8491 44.4931 45.9442C43.398 47.0394 42.5299 48.34 41.9389 49.7715C41.3478 51.203 41.0454 52.7372 41.0489 54.2859V65.8233C41.0489 72.3523 47.7699 77.6092 52.8314 77.6092C57.8995 77.6092 64.6173 72.3523 64.6173 65.8233V54.2859C64.6208 52.7372 64.3183 51.203 63.7273 49.7715C63.1362 48.34 62.2682 47.0394 61.1731 45.9442C60.078 44.8491 58.7773 43.9811 57.3458 43.3901C55.9143 42.799 54.3835 42.4965 52.8347 42.5Z" stroke="#1C1616" stroke-width="3.3125" stroke-linecap="round" stroke-linejoin="round"/>
</svg>
