<svg width="132" height="132" viewBox="0 0 132 132" fill="none" xmlns="http://www.w3.org/2000/svg">
<path d="M38.5439 24.8164H93.1919V36.6964H38.5439V24.8164ZM64.6799 44.8804H67.3199V73.1284H64.6799V44.8804Z" fill="#2D3250"/>
<path d="M101.64 95.8319H99.0001V82.3679C99.0001 78.4079 95.5681 74.9759 91.6081 74.9759H40.3921C36.4321 74.9759 33.0001 78.4079 33.0001 82.3679V95.8319H30.3601V82.3679C30.3601 76.8239 34.8481 72.3359 40.3921 72.3359H91.3441C96.8881 72.3359 101.376 76.8239 101.376 82.3679V95.8319H101.64Z" fill="#2D3250"/>
<path d="M65.9999 81.0477C70.0824 81.0477 73.3919 77.7382 73.3919 73.6557C73.3919 69.5732 70.0824 66.2637 65.9999 66.2637C61.9174 66.2637 58.6079 69.5732 58.6079 73.6557C58.6079 77.7382 61.9174 81.0477 65.9999 81.0477Z" fill="white"/>
<path d="M17.688 120.912H40.656V124.872H17.688V120.912Z" fill="#2D3250"/>
<path d="M42.7679 124.608H15.5759C14.2559 124.608 13.1999 125.664 13.1999 126.984C13.1999 128.304 14.2559 129.36 15.5759 129.36H42.7679C44.0879 129.36 45.1439 128.304 45.1439 126.984C45.1439 125.664 44.0879 124.608 42.7679 124.608ZM50.6879 85.0078H7.65589C5.01589 85.0078 2.63989 87.1198 2.63989 90.0238V116.424C2.63989 119.328 5.01589 121.44 7.65589 121.44H50.6879C53.5919 121.44 55.7039 119.064 55.7039 116.424V90.0238C55.7039 87.1198 53.3279 85.0078 50.6879 85.0078Z" fill="#282E4D"/>
<path d="M7.65611 115.103C6.33611 115.103 5.01611 114.047 5.01611 112.463V89.7591C5.01611 88.4391 6.07211 87.1191 7.65611 87.1191H50.6881C52.0081 87.1191 53.3281 88.1751 53.3281 89.7591V112.463C53.3281 113.783 52.2721 115.103 50.6881 115.103H7.65611Z" fill="#F9F9F8"/>
<path d="M53.3281 91.3431V89.7591C53.3281 88.4391 52.2721 87.1191 50.6881 87.1191H7.65611C6.33611 87.1191 5.01611 88.1751 5.01611 89.7591V91.3431H53.3281Z" fill="white"/>
<path d="M7.65601 93.4551H22.44V112.727H7.65601V93.4551Z" fill="#FFA054"/>
<path d="M25.0801 93.4551H50.4241V100.847H25.0801V93.4551Z" fill="#FFA054"/>
<path d="M25.0801 102.961H50.4241V105.073H25.0801V102.961ZM25.0801 106.921H50.4241V109.033H25.0801V106.921ZM25.0801 110.617H50.4241V112.729H25.0801V110.617Z" fill="white"/>
<path d="M91.344 120.912H114.312V124.872H91.344V120.912Z" fill="#2D3250"/>
<path d="M116.424 124.608H89.2319C87.9119 124.608 86.8559 125.664 86.8559 126.984C86.8559 128.304 87.9119 129.36 89.2319 129.36H116.424C117.744 129.36 118.8 128.304 118.8 126.984C118.8 125.664 117.744 124.608 116.424 124.608ZM124.344 85.0078H81.3119C78.4079 85.0078 76.2959 87.3838 76.2959 90.0238V116.424C76.2959 119.328 78.6719 121.44 81.3119 121.44H124.344C127.248 121.44 129.36 119.064 129.36 116.424V90.0238C129.36 87.1198 126.984 85.0078 124.344 85.0078Z" fill="#282E4D"/>
<path d="M81.3119 115.103C79.9919 115.103 78.6719 114.047 78.6719 112.463V89.7591C78.6719 88.4391 79.7279 87.1191 81.3119 87.1191H124.344C125.664 87.1191 126.984 88.1751 126.984 89.7591V112.463C126.984 113.783 125.928 115.103 124.344 115.103H81.3119Z" fill="#F9F9F8"/>
<path d="M126.984 91.3431V89.7591C126.984 88.4391 125.928 87.1191 124.344 87.1191H81.3119C79.9919 87.1191 78.6719 88.1751 78.6719 89.7591V91.3431H126.984Z" fill="white"/>
<path d="M81.312 93.4551H96.096V112.727H81.312V93.4551Z" fill="white"/>
<path d="M99 93.4551H124.344V100.847H99V93.4551Z" fill="#6BB25F"/>
<path d="M99 102.961H124.344V105.073H99V102.961ZM99 106.921H124.344V109.033H99V106.921ZM99 110.617H124.344V112.729H99V110.617Z" fill="white"/>
<path d="M96.624 2.64062H35.376C31.944 2.64062 29.04 5.54463 29.04 8.97663V20.0646C29.04 23.4966 31.944 26.4006 35.376 26.4006H96.36C99.792 26.4006 102.696 23.4966 102.696 20.0646V8.97663C102.696 5.54463 100.056 2.64062 96.624 2.64062Z" fill="#282E4D"/>
<path d="M40.656 19.0072C43.1346 19.0072 45.144 16.9979 45.144 14.5193C45.144 12.0406 43.1346 10.0312 40.656 10.0312C38.1773 10.0312 36.168 12.0406 36.168 14.5193C36.168 16.9979 38.1773 19.0072 40.656 19.0072Z" fill="white"/>
<path d="M52.2719 19.0072C54.7506 19.0072 56.7599 16.9979 56.7599 14.5193C56.7599 12.0406 54.7506 10.0312 52.2719 10.0312C49.7933 10.0312 47.7839 12.0406 47.7839 14.5193C47.7839 16.9979 49.7933 19.0072 52.2719 19.0072Z" fill="#6BB25F"/>
<path d="M63.8879 19.0072C66.3666 19.0072 68.3759 16.9979 68.3759 14.5193C68.3759 12.0406 66.3666 10.0312 63.8879 10.0312C61.4093 10.0312 59.3999 12.0406 59.3999 14.5193C59.3999 16.9979 61.4093 19.0072 63.8879 19.0072Z" fill="white"/>
<path d="M96.624 33.5273H35.376C31.944 33.5273 29.04 36.4313 29.04 39.8633V50.9513C29.04 54.3833 31.944 57.2873 35.376 57.2873H96.36C99.792 57.2873 102.696 54.3833 102.696 50.9513V39.5993C102.696 36.1673 100.056 33.5273 96.624 33.5273Z" fill="#282E4D"/>
<path d="M40.656 49.6322C43.1346 49.6322 45.144 47.6229 45.144 45.1443C45.144 42.6656 43.1346 40.6562 40.656 40.6562C38.1773 40.6562 36.168 42.6656 36.168 45.1443C36.168 47.6229 38.1773 49.6322 40.656 49.6322Z" fill="white"/>
<path d="M52.2719 49.6322C54.7506 49.6322 56.7599 47.6229 56.7599 45.1443C56.7599 42.6656 54.7506 40.6562 52.2719 40.6562C49.7933 40.6562 47.7839 42.6656 47.7839 45.1443C47.7839 47.6229 49.7933 49.6322 52.2719 49.6322Z" fill="#6BB25F"/>
<path d="M63.8879 49.6322C66.3666 49.6322 68.3759 47.6229 68.3759 45.1443C68.3759 42.6656 66.3666 40.6562 63.8879 40.6562C61.4093 40.6562 59.3999 42.6656 59.3999 45.1443C59.3999 47.6229 61.4093 49.6322 63.8879 49.6322Z" fill="white"/>
</svg>
