<svg width="40" height="40" viewBox="0 0 40 40" fill="none" xmlns="http://www.w3.org/2000/svg">
<g clip-path="url(#clip0_309_61)">
<path d="M26.8522 13.6981H13.8344C14.3768 10.3451 15.2397 7.63301 16.4231 5.56199C17.6066 3.49098 18.9133 2.45547 20.3433 2.45547C21.7733 2.45547 23.08 3.49098 24.2634 5.56199C25.4469 7.63301 26.3098 10.3451 26.8522 13.6981ZM13.4646 25.5325C13.3166 23.9546 13.2427 22.3767 13.2427 20.7988C13.2427 19.2208 13.3166 17.6429 13.4646 16.065H27.222C27.3699 17.6429 27.4439 19.2208 27.4439 20.7988C27.4439 22.3767 27.3699 23.9546 27.222 25.5325H13.4646ZM37.2812 13.6981H29.293C28.5534 9.16162 27.3206 5.66061 25.5948 3.19512C28.2082 3.98408 30.5258 5.31544 32.5475 7.18922C34.6185 9.01369 36.1964 11.1833 37.2812 13.6981ZM15.0918 3.19512C13.3166 5.66061 12.0839 9.16162 11.3935 13.6981H3.40533C4.49015 11.1833 6.04341 9.01369 8.06512 7.18922C10.1361 5.31544 12.4784 3.98408 15.0918 3.19512ZM38.0209 16.065C38.4647 17.6429 38.6866 19.2208 38.6866 20.7988C38.6866 22.3767 38.4647 23.9546 38.0209 25.5325H29.5889C29.7368 23.9053 29.8108 22.3274 29.8108 20.7988C29.8108 19.2701 29.7368 17.6922 29.5889 16.065H38.0209ZM10.8758 20.7988C10.8758 22.278 10.9497 23.856 11.0977 25.5325H2.66568C2.22189 23.9053 2 22.3274 2 20.7988C2 19.2701 2.22189 17.6922 2.66568 16.065H11.0977C10.9497 17.6922 10.8758 19.2701 10.8758 20.7988ZM13.8344 27.8994H26.8522C26.3098 31.2524 25.4469 33.9645 24.2634 36.0355C23.08 38.1065 21.7733 39.142 20.3433 39.142C18.9133 39.142 17.6066 38.1065 16.4231 36.0355C15.2397 33.9645 14.3768 31.2524 13.8344 27.8994ZM25.5948 38.4024C27.3699 35.9369 28.6027 32.4359 29.293 27.8994H37.2812C36.1964 30.4142 34.6185 32.6085 32.5475 34.4822C30.5258 36.3067 28.2082 37.6134 25.5948 38.4024ZM3.40533 27.8994H11.3935C12.1332 32.4359 13.3659 35.9369 15.0918 38.4024C12.4784 37.6134 10.1361 36.3067 8.06512 34.4822C6.04341 32.6085 4.49015 30.4142 3.40533 27.8994Z" fill="#FFA054"/>
</g>
<defs>
<clipPath id="clip0_309_61">
<rect width="40" height="40" fill="white"/>
</clipPath>
</defs>
</svg>
