<svg width="34" height="36" viewBox="0 0 34 36" fill="none" xmlns="http://www.w3.org/2000/svg">
<g clip-path="url(#clip0_477_135853)">
<path d="M24.5 18C23.1175 18 21.81 18.385 20.6575 19.0812L19.85 18.275C19.5825 18.0063 19.1788 17.9275 18.8288 18.0713C18.4788 18.2163 18.25 18.5587 18.25 18.9375V22.0625C18.25 22.58 18.67 23 19.1875 23H22.3125C22.6925 23 23.0338 22.7712 23.1788 22.4212C23.3225 22.0712 23.2438 21.6675 22.975 21.4L22.5025 20.9275C23.125 20.6562 23.7963 20.5 24.5 20.5C27.2575 20.5 29.5 22.7425 29.5 25.5C29.5 28.2575 27.2575 30.5 24.5 30.5C22.1238 30.5 20.0675 28.8213 19.615 26.51C19.4825 25.8325 18.8225 25.39 18.1475 25.5237C17.47 25.6562 17.0275 26.3138 17.1613 26.9913C17.845 30.4725 20.9313 33 24.5 33C28.6363 33 32 29.6362 32 25.5C32 21.3637 28.6363 18 24.5 18Z" fill="#2D3250"/>
<path d="M2 14.25V21.75H15.75V18.9375C15.75 17.5375 16.5875 16.3 17.875 15.7625C18.9625 15.3125 20.175 15.4625 21.1125 16.1C22.1875 15.7125 23.325 15.5 24.5 15.5V14.25H2Z" fill="#2D3250"/>
<path d="M14.7125 27.475C14.475 26.275 14.85 25.1 15.6125 24.25H2V29.5625C2 31.4625 3.5375 33 5.4375 33H17.9125C16.3 31.6 15.15 29.6875 14.7125 27.475Z" fill="#2D3250"/>
<path d="M21.0625 3H5.4375C3.5375 3 2 4.5375 2 6.4375V11.75H24.5V6.4375C24.5 4.5375 22.9625 3 21.0625 3ZM6.375 9.25C5.3375 9.25 4.5 8.4125 4.5 7.375C4.5 6.3375 5.3375 5.5 6.375 5.5C7.4125 5.5 8.25 6.3375 8.25 7.375C8.25 8.4125 7.4125 9.25 6.375 9.25ZM12.625 9.25C11.5875 9.25 10.75 8.4125 10.75 7.375C10.75 6.3375 11.5875 5.5 12.625 5.5C13.6625 5.5 14.5 6.3375 14.5 7.375C14.5 8.4125 13.6625 9.25 12.625 9.25ZM18.875 9.25C17.8375 9.25 17 8.4125 17 7.375C17 6.3375 17.8375 5.5 18.875 5.5C19.9125 5.5 20.75 6.3375 20.75 7.375C20.75 8.4125 19.9125 9.25 18.875 9.25Z" fill="#2D3250"/>
</g>
<defs>
<clipPath id="clip0_477_135853">
<rect width="30" height="30" fill="white" transform="translate(2 3)"/>
</clipPath>
</defs>
</svg>
