<svg width="40" height="40" viewBox="0 0 40 40" fill="none" xmlns="http://www.w3.org/2000/svg">
<path d="M33.6588 12.2965C33.4597 10.6417 32.7647 9.08527 31.6646 7.8308C30.5645 6.57633 29.1106 5.68218 27.4929 5.26525C25.8752 4.84832 24.169 4.92801 22.5974 5.49392C21.0259 6.05982 19.6621 7.08559 18.6843 8.43711H19.2169C22.2042 8.43687 25.109 9.41527 27.4846 11.2219C29.8603 13.0286 31.5755 15.5635 32.3665 18.4371C34.1501 18.838 35.781 19.7409 37.0656 21.0387L37.4102 21.3902C38.155 20.6465 38.6627 19.6996 38.8692 18.6688C39.0757 17.6379 38.972 16.5691 38.5709 15.5969C38.1699 14.6248 37.4895 13.7927 36.6154 13.2054C35.7413 12.6181 34.7126 12.3019 33.6588 12.2965Z" fill="#FFA054"/>
<path d="M30.2597 20.7105C29.93 18.0195 28.6245 15.5419 26.5895 13.745C24.5545 11.9481 21.9307 10.9561 19.213 10.9561C16.4952 10.9561 13.8714 11.9481 11.8364 13.745C9.80144 15.5419 8.49595 18.0195 8.16617 20.7105C7.20569 20.6789 6.24863 20.8402 5.35193 21.185C4.45523 21.5298 3.63722 22.0509 2.94654 22.7175C2.25587 23.3841 1.70665 24.1824 1.33156 25.065C0.956477 25.9476 0.763184 26.8964 0.763184 27.8551C0.763184 28.8137 0.956477 29.7625 1.33156 30.6451C1.70665 31.5278 2.25587 32.3261 2.94654 32.9926C3.63722 33.6592 4.45523 34.1804 5.35193 34.5252C6.24863 34.8699 7.20569 35.0313 8.16617 34.9996H30.2597C31.2202 35.0313 32.1773 34.8699 33.074 34.5252C33.9707 34.1804 34.7887 33.6592 35.4794 32.9926C36.17 32.3261 36.7193 31.5278 37.0944 30.6451C37.4694 29.7625 37.6627 28.8137 37.6627 27.8551C37.6627 26.8964 37.4694 25.9476 37.0944 25.065C36.7193 24.1824 36.17 23.3841 35.4794 22.7175C34.7887 22.0509 33.9707 21.5298 33.074 21.185C32.1773 20.8402 31.2202 20.6789 30.2597 20.7105Z" fill="#FFA054"/>
</svg>
