<svg width="40" height="40" viewBox="0 0 40 40" fill="none" xmlns="http://www.w3.org/2000/svg">
<g clip-path="url(#clip0_309_83)">
<path d="M36.477 0H3.53247V9.41685H36.477V0ZM10.5591 5.88433H8.23609V3.53252H10.5591V5.88433ZM15.2627 5.88433H12.9397V3.53252H15.2915L15.2627 5.88433ZM31.735 5.88433H17.6529V3.53252H31.7638L31.735 5.88433Z" fill="#FFA054"/>
<path d="M36.477 11.7686H3.53247V18.824H36.477V11.7686ZM10.5591 16.4722H8.23609V14.1204H10.5591V16.4722ZM15.2627 16.4722H12.9397V14.1204H15.2915L15.2627 16.4722ZM31.735 16.4722H17.6529V14.1204H31.7638L31.735 16.4722Z" fill="#FFA054"/>
<path d="M36.477 32.9444C35.7468 32.9441 35.0345 33.1701 34.438 33.5912C33.8415 34.0124 33.3902 34.6081 33.1461 35.2963H25.9179V32.9444H21.2143V30.5926H36.477V21.1758H3.53247V30.5926H18.824V32.9444H14.1204V35.2963H6.85381C6.57637 34.5103 6.02998 33.8478 5.31124 33.4259C4.5925 33.0039 3.74771 32.8496 2.92623 32.9904C2.10475 33.1311 1.35949 33.5578 0.822206 34.1949C0.284926 34.8321 -0.00976563 35.6387 -0.00976562 36.4722C-0.00976563 37.3056 0.284926 38.1122 0.822206 38.7494C1.35949 39.3865 2.10475 39.8132 2.92623 39.9539C3.74771 40.0947 4.5925 39.9404 5.31124 39.5185C6.02998 39.0965 6.57637 38.434 6.85381 37.6481H14.1204V39.9999H25.9179V37.6481H33.1845C33.3999 38.2609 33.7801 38.8025 34.2834 39.2133C34.7866 39.6241 35.3933 39.8881 36.0369 39.9764C36.6805 40.0648 37.336 39.9739 37.9312 39.7139C38.5265 39.4538 39.0386 39.0347 39.4111 38.5025C39.7836 37.9703 40.0022 37.3457 40.0428 36.6974C40.0834 36.0491 39.9444 35.4021 39.6411 34.8276C39.3379 34.2531 38.8821 33.7734 38.3238 33.4412C37.7656 33.1089 37.1266 32.9371 36.477 32.9444ZM10.5591 27.0601H8.2361V24.7083H10.5591V27.0601ZM15.2627 27.0601H12.9397V24.7083H15.2915L15.2627 27.0601ZM17.6241 24.7083H31.735V27.0601H17.6529L17.6241 24.7083Z" fill="#FFA054"/>
</g>
<defs>
<clipPath id="clip0_309_83">
<rect width="40" height="40" fill="white"/>
</clipPath>
</defs>
</svg>
