<svg width="40" height="40" viewBox="0 0 40 40" fill="none" xmlns="http://www.w3.org/2000/svg">
<g clip-path="url(#clip0_305_30)">
<path d="M19.7295 25.2796C17.3296 25.3663 14.9435 24.872 12.7656 23.8369V27.0606C12.7656 27.301 13.227 27.8264 14.5066 28.2984C16.1928 28.856 17.9577 29.1239 19.7295 29.091C21.5013 29.123 23.266 28.8552 24.9524 28.2984C26.2233 27.8264 26.6934 27.301 26.6934 27.0606V23.8547C24.5137 24.8827 22.128 25.3708 19.7295 25.2796ZM21.0787 27.871H18.3802C18.25 27.9123 18.112 27.9218 17.9775 27.8987C17.843 27.8755 17.7157 27.8203 17.6058 27.7375C17.496 27.6548 17.4067 27.5468 17.3452 27.4222C17.2836 27.2977 17.2516 27.1601 17.2516 27.0205C17.2516 26.881 17.2836 26.7434 17.3452 26.6188C17.4067 26.4943 17.496 26.3863 17.6058 26.3035C17.7157 26.2207 17.843 26.1655 17.9775 26.1424C18.112 26.1192 18.25 26.1287 18.3802 26.1701H21.0787C21.2561 26.2264 21.4113 26.3394 21.5214 26.4924C21.6316 26.6454 21.691 26.8305 21.691 27.0205C21.691 27.2106 21.6316 27.3956 21.5214 27.5486C21.4113 27.7016 21.2561 27.8146 21.0787 27.871Z" fill="#FFA054"/>
<path d="M19.7295 36.215C17.3306 36.2998 14.9457 35.8088 12.7656 34.7812V37.9871C12.7656 38.2276 13.227 38.753 14.5066 39.2249C16.1928 39.7826 17.9577 40.0504 19.7295 40.0175C20.8972 40.0176 22.0625 39.9103 23.2114 39.6969C25.8229 39.1893 26.6934 38.3077 26.6934 37.9871V34.7812C24.513 35.8078 22.1283 36.2988 19.7295 36.215ZM21.0787 39.0379H18.3802C18.25 39.0793 18.112 39.0888 17.9775 39.0656C17.843 39.0425 17.7157 38.9873 17.6058 38.9045C17.496 38.8217 17.4067 38.7137 17.3452 38.5892C17.2836 38.4646 17.2516 38.327 17.2516 38.1875C17.2516 38.0479 17.2836 37.9103 17.3452 37.7858C17.4067 37.6612 17.496 37.5532 17.6058 37.4705C17.7157 37.3877 17.843 37.3325 17.9775 37.3093C18.112 37.2862 18.25 37.2956 18.3802 37.337H21.0787C21.2561 37.3934 21.4113 37.5063 21.5214 37.6594C21.6316 37.8124 21.691 37.9974 21.691 38.1875C21.691 38.3775 21.6316 38.5626 21.5214 38.7156C21.4113 38.8686 21.2561 38.9816 21.0787 39.0379Z" fill="#FFA054"/>
<path d="M19.7295 30.7561C17.3296 30.8428 14.9435 30.3485 12.7656 29.3135V32.4837C12.7656 32.7242 13.227 33.2496 14.5066 33.7215C16.1918 34.2834 17.9574 34.5513 19.7295 34.5141C21.5015 34.5506 23.267 34.2827 24.9524 33.7215C26.2233 33.2496 26.6934 32.7242 26.6934 32.4837V29.3135C24.5152 30.3476 22.1293 30.8418 19.7295 30.7561ZM21.0787 33.5167H18.3802C18.25 33.5581 18.112 33.5676 17.9775 33.5444C17.843 33.5212 17.7157 33.4661 17.6058 33.3833C17.496 33.3005 17.4067 33.1925 17.3452 33.068C17.2836 32.9434 17.2516 32.8058 17.2516 32.6663C17.2516 32.5267 17.2836 32.3891 17.3452 32.2646C17.4067 32.14 17.496 32.032 17.6058 31.9493C17.7157 31.8665 17.843 31.8113 17.9775 31.7881C18.112 31.7649 18.25 31.7744 18.3802 31.8158H21.0787C21.2561 31.8722 21.4113 31.9851 21.5214 32.1382C21.6316 32.2912 21.691 32.4762 21.691 32.6663C21.691 32.8563 21.6316 33.0414 21.5214 33.1944C21.4113 33.3474 21.2561 33.4603 21.0787 33.5167Z" fill="#FFA054"/>
<path d="M24.9524 20.3195C23.266 19.7627 21.5013 19.4949 19.7295 19.527C17.9577 19.4949 16.193 19.7627 14.5066 20.3195C13.2357 20.7915 12.7656 21.3258 12.7656 21.5663C12.7656 21.8067 13.227 22.3321 14.5066 22.8041C16.193 23.3609 17.9577 23.6287 19.7295 23.5966C21.5013 23.6287 23.266 23.3609 24.9524 22.8041C26.2233 22.3321 26.6934 21.7978 26.6934 21.5663C26.6934 21.3347 26.2233 20.8271 24.9524 20.3195Z" fill="#FFA054"/>
<path d="M35.6855 16.3746L35.1806 16.1163L35.2502 15.3772C35.3025 14.8963 35.3373 14.3976 35.346 13.9079C35.3442 11.9381 34.8216 10.0055 33.8335 8.31488C32.8454 6.62427 31.4286 5.23864 29.7332 4.30482C28.0379 3.37101 26.1272 2.92381 24.2036 3.01061C22.28 3.09741 20.4152 3.71498 18.8068 4.79787C17.1196 5.93501 15.7777 7.53305 14.9332 9.41075L14.6546 10.0163L14.0104 9.88273C13.4594 9.77605 12.8999 9.72238 12.3391 9.72243C10.5509 9.72222 8.81269 10.3264 7.39477 11.4411C5.99668 12.54 4.96577 14.0551 4.44383 15.7779L4.33938 16.1342L3.99989 16.2944C3.25553 16.6409 2.57754 17.1204 1.99778 17.7104C1.04435 18.6831 0.394756 19.9235 0.131351 21.2744C-0.132054 22.6253 0.00259974 24.0258 0.518237 25.2983C1.03387 26.5708 1.90727 27.658 3.02768 28.422C4.14808 29.186 5.46504 29.5925 6.81155 29.5899H11.1117V21.5752C11.1117 19.1174 15.4641 17.835 19.7295 17.835C23.9949 17.835 28.3473 19.1174 28.3473 21.5752V29.5899H32.6388C34.1898 29.6193 35.704 29.1044 36.9292 28.1309C38.1545 27.1575 39.0169 25.7842 39.373 24.2395C39.7291 22.6948 39.5574 21.072 38.8865 19.641C38.2156 18.2101 37.0859 17.0573 35.6855 16.3746Z" fill="#FFA054"/>
</g>
<defs>
<clipPath id="clip0_305_30">
<rect width="40" height="40" fill="white"/>
</clipPath>
</defs>
</svg>
