<svg width="23" height="24" viewBox="0 0 23 24" fill="none" xmlns="http://www.w3.org/2000/svg">
<path d="M11.5805 17.7571C11.0684 17.7571 10.6523 17.341 10.6523 16.8289C10.6523 16.3168 11.0684 15.9007 11.5805 15.9007C13.0088 15.9007 14.373 15.7567 15.6453 15.4766C15.6693 15.4686 15.6933 15.4646 15.7173 15.4566C18.7019 14.7845 20.7822 13.3722 20.7822 12.02C20.7822 11.5079 21.1983 11.0918 21.7104 11.0918C22.2225 11.0918 22.6386 11.5079 22.6386 12.02C22.6386 14.3404 20.1741 16.3408 16.2014 17.253C16.1774 17.261 16.1534 17.269 16.1254 17.273C14.7011 17.593 13.1728 17.7571 11.5805 17.7571Z" fill="#FFA054"/>
<path d="M21.7105 12.9485C21.1984 12.9485 20.7823 12.5324 20.7823 12.0203C20.7823 10.668 18.702 9.25576 15.7174 8.58364C14.4171 8.28758 13.0249 8.13955 11.5766 8.13955C11.0645 8.13955 10.6484 7.72347 10.6484 7.21138C10.6484 6.69928 11.0645 6.2832 11.5766 6.2832C13.1609 6.2832 14.6932 6.44723 16.1255 6.77129C20.1422 7.67546 22.6347 9.68384 22.6347 12.0163C22.6358 12.1383 22.6127 12.2594 22.5668 12.3725C22.5208 12.4855 22.4529 12.5884 22.367 12.6751C22.281 12.7617 22.1788 12.8305 22.0661 12.8775C21.9534 12.9244 21.8326 12.9485 21.7105 12.9485Z" fill="#FFA054"/>
<path d="M11.5815 23.0781C5.48437 23.0781 0.523438 18.1171 0.523438 12.02C0.523438 5.92285 5.48437 0.961914 11.5815 0.961914C17.6787 0.961914 22.6396 5.92285 22.6396 12.02C22.6396 18.1171 17.6787 23.0781 11.5815 23.0781ZM11.5815 2.81426C6.50856 2.81426 2.37979 6.94304 2.37979 12.016C2.37979 17.0889 6.50856 21.2177 11.5815 21.2177C16.6545 21.2177 20.7832 17.0889 20.7832 12.016C20.7832 6.94304 16.6585 2.81426 11.5815 2.81426Z" fill="#FFA054"/>
<path d="M15.9264 8.60735C15.5023 8.60735 15.1183 8.3153 15.0222 7.88322C14.3501 4.89865 12.9338 2.81426 11.5816 2.81426C10.2293 2.81426 8.81307 4.89865 8.14094 7.88322C8.08652 8.12284 7.9393 8.33111 7.73156 8.46236C7.52381 8.5936 7.2725 8.63711 7.03273 8.58335C6.91395 8.55664 6.80159 8.50678 6.7021 8.43661C6.6026 8.36644 6.51792 8.27734 6.45289 8.17441C6.38786 8.07148 6.34377 7.95674 6.32313 7.83675C6.30248 7.71676 6.3057 7.59388 6.3326 7.47514C7.24077 3.45838 9.25315 0.961914 11.5856 0.961914C13.918 0.961914 15.9264 3.45838 16.8346 7.47514C16.9466 7.97523 16.6345 8.47133 16.1344 8.58335C16.0624 8.59935 15.9904 8.60735 15.9264 8.60735ZM11.5816 23.0781C9.24915 23.0781 7.23677 20.5856 6.3326 16.5689C6.31673 16.502 6.30868 16.4335 6.30859 16.3648C6.30859 15.8527 6.72467 15.4366 7.23677 15.4366C7.69285 15.4366 8.07293 15.7647 8.14894 16.1968C8.82107 19.1573 10.2293 21.2217 11.5776 21.2217C12.9258 21.2217 14.3381 19.1493 15.0102 16.1808C15.053 15.9712 15.1667 15.7829 15.3321 15.6473C15.4975 15.5118 15.7046 15.4374 15.9184 15.4366C16.0581 15.4363 16.196 15.4676 16.3219 15.5281C16.4477 15.5886 16.5583 15.6768 16.6452 15.7861C16.7322 15.8954 16.7933 16.0229 16.824 16.1592C16.8547 16.2954 16.8542 16.4368 16.8226 16.5729C15.9224 20.5856 13.914 23.0781 11.5816 23.0781Z" fill="#FFA054"/>
<path d="M11.5805 8.13926C11.0684 8.13926 10.6523 7.72319 10.6523 7.21109V1.89009C10.6523 1.37799 11.0684 0.961914 11.5805 0.961914C12.0926 0.961914 12.5087 1.37799 12.5087 1.89009V7.21509C12.5087 7.72719 12.0926 8.13926 11.5805 8.13926ZM11.5805 23.0781C11.0684 23.0781 10.6523 22.662 10.6523 22.1499V16.8289C10.6523 16.3168 11.0684 15.9007 11.5805 15.9007C12.0926 15.9007 12.5087 16.3168 12.5087 16.8289V22.1499C12.5087 22.662 12.0926 23.0781 11.5805 23.0781Z" fill="#FFA054"/>
<path d="M11.5815 17.7573C9.98922 17.7573 8.45693 17.5932 7.03266 17.2732C7.00866 17.2692 6.98065 17.2612 6.95665 17.2532C2.9879 16.341 0.523438 14.3406 0.523438 12.0202C0.523438 9.68775 3.01591 7.67937 7.03266 6.7752C8.46493 6.45114 9.99722 6.28711 11.5815 6.28711C12.0936 6.28711 12.5097 6.70319 12.5097 7.21528C12.5097 7.72738 12.0936 8.14346 11.5815 8.14346C10.1332 8.14346 8.73698 8.29149 7.44074 8.58754C4.46018 9.25567 2.37979 10.6679 2.37979 12.0202C2.37979 13.3724 4.46018 14.7887 7.44074 15.4568C7.46474 15.4608 7.48875 15.4688 7.51275 15.4768C8.78099 15.7569 10.1492 15.9009 11.5775 15.9009C12.0896 15.9009 12.5057 16.317 12.5057 16.8291C12.5064 16.9508 12.483 17.0715 12.4368 17.1842C12.3907 17.2968 12.3227 17.3993 12.2368 17.4855C12.1509 17.5718 12.0488 17.6402 11.9363 17.6869C11.8238 17.7335 11.7033 17.7574 11.5815 17.7573Z" fill="#FFA054"/>
<path d="M9.12015 10.6559C9.12015 10.6799 9.11614 10.7039 9.11214 10.7399C9.10414 10.7719 9.09614 10.8199 9.08014 10.8799L8.356 13.3324C8.344 13.3684 8.332 13.3964 8.31599 13.4164C8.2963 13.4408 8.26987 13.4589 8.23998 13.4684C8.20797 13.4804 8.15996 13.4884 8.09595 13.4924C7.93477 13.5031 7.77305 13.5031 7.61186 13.4924C7.54785 13.4884 7.49984 13.4804 7.46383 13.4684C7.43323 13.4604 7.40636 13.442 7.38782 13.4164C7.37035 13.3925 7.35808 13.3653 7.35181 13.3364L6.89573 11.6881L6.88773 11.6601L6.87972 11.6881L6.45964 13.3364C6.45164 13.3724 6.43964 13.4004 6.42364 13.4204C6.40394 13.4448 6.37751 13.4629 6.34762 13.4724C6.31162 13.4844 6.25961 13.4924 6.1996 13.4964C6.03707 13.5069 5.87403 13.5069 5.7115 13.4964C5.65149 13.4924 5.59948 13.4844 5.56748 13.4724C5.53688 13.4644 5.51001 13.446 5.49146 13.4204C5.47399 13.3965 5.46172 13.3693 5.45546 13.3404L4.73932 10.8879C4.71932 10.8279 4.71132 10.7839 4.70331 10.7479C4.69931 10.7159 4.69531 10.6879 4.69531 10.6639C4.69531 10.6439 4.69931 10.6239 4.71132 10.6119C4.72332 10.5959 4.74332 10.5839 4.77133 10.5759C4.79933 10.5679 4.83934 10.5599 4.89135 10.5559C4.93936 10.5519 5.00337 10.5519 5.07938 10.5519C5.1594 10.5519 5.22741 10.5519 5.27542 10.5559C5.32743 10.5599 5.36744 10.5679 5.39544 10.5759C5.42345 10.5879 5.44345 10.5999 5.45546 10.6159C5.46746 10.6319 5.47546 10.6559 5.47946 10.6799L6.01556 12.6723L6.02356 12.7083L6.03156 12.6723L6.53566 10.6799C6.54366 10.6559 6.55166 10.6359 6.56366 10.6159C6.57567 10.5999 6.59567 10.5839 6.62368 10.5759C6.65168 10.5639 6.68769 10.5599 6.7357 10.5559C6.78371 10.5519 6.84372 10.5519 6.91973 10.5519C6.99575 10.5519 7.05576 10.5559 7.10377 10.5599C7.15178 10.5639 7.18778 10.5719 7.21579 10.5799C7.24379 10.5879 7.2638 10.5999 7.2718 10.6159C7.2838 10.6319 7.2918 10.6479 7.2958 10.6679L7.8359 12.6723L7.8439 12.7043L7.85191 12.6683L8.368 10.6759C8.372 10.6519 8.38001 10.6319 8.39201 10.6119C8.40401 10.5959 8.42401 10.5799 8.45202 10.5719C8.48002 10.5599 8.52003 10.5559 8.56804 10.5519C8.61605 10.5479 8.68006 10.5479 8.75208 10.5479C8.82409 10.5479 8.8881 10.5479 8.93611 10.5519C8.98412 10.5559 9.02013 10.5639 9.04813 10.5719C9.07614 10.5799 9.09614 10.5919 9.10414 10.6079C9.11615 10.6199 9.12015 10.6359 9.12015 10.6559Z" fill="#FFA054"/>
<path d="M9.12015 10.656C9.12015 10.68 9.11614 10.704 9.11214 10.74C9.10414 10.772 9.09614 10.82 9.08014 10.88L8.356 13.3325C8.344 13.3685 8.332 13.3965 8.31599 13.4165C8.2963 13.4409 8.26987 13.459 8.23998 13.4685C8.20797 13.4805 8.15996 13.4885 8.09595 13.4925C7.93477 13.5032 7.77305 13.5032 7.61186 13.4925C7.54785 13.4885 7.49984 13.4805 7.46383 13.4685C7.43323 13.4605 7.40636 13.4421 7.38782 13.4165C7.37035 13.3926 7.35808 13.3654 7.35181 13.3365L6.89573 11.6882L6.88773 11.6602L6.87972 11.6882L6.45964 13.3365C6.45164 13.3725 6.43964 13.4005 6.42364 13.4205C6.40394 13.4449 6.37751 13.463 6.34762 13.4725C6.31162 13.4845 6.25961 13.4925 6.1996 13.4965C6.03707 13.507 5.87403 13.507 5.7115 13.4965C5.65149 13.4925 5.59948 13.4845 5.56748 13.4725C5.53688 13.4645 5.51001 13.4461 5.49146 13.4205C5.47399 13.3966 5.46172 13.3694 5.45546 13.3405L4.73932 10.888C4.71932 10.828 4.71132 10.784 4.70331 10.748C4.69931 10.716 4.69531 10.688 4.69531 10.664C4.69531 10.644 4.69931 10.624 4.71132 10.612C4.72332 10.596 4.74332 10.584 4.77133 10.576C4.79933 10.5679 4.83934 10.5599 4.89135 10.5559C4.93936 10.5519 5.00337 10.5519 5.07938 10.5519C5.1594 10.5519 5.22741 10.5519 5.27542 10.5559C5.32743 10.5599 5.36744 10.5679 5.39544 10.576C5.42345 10.588 5.44345 10.6 5.45546 10.616C5.46746 10.632 5.47546 10.656 5.47946 10.68L6.01556 12.6723L6.02356 12.7084L6.03156 12.6723L6.53566 10.68C6.54366 10.656 6.55166 10.636 6.56366 10.616C6.57567 10.6 6.59567 10.584 6.62368 10.576C6.65168 10.5639 6.68769 10.5599 6.7357 10.5559C6.78371 10.5519 6.84372 10.5519 6.91973 10.5519C6.99575 10.5519 7.05576 10.5559 7.10377 10.5599C7.15178 10.5639 7.18778 10.572 7.21579 10.58C7.24379 10.588 7.2638 10.6 7.2718 10.616C7.2838 10.632 7.2918 10.648 7.2958 10.668L7.8359 12.6723L7.8439 12.7044L7.85191 12.6683L8.368 10.676C8.372 10.652 8.38001 10.632 8.39201 10.612C8.40401 10.596 8.42401 10.58 8.45202 10.572C8.48002 10.5599 8.52003 10.5559 8.56804 10.5519C8.61605 10.5479 8.68006 10.5479 8.75208 10.5479C8.82409 10.5479 8.8881 10.5479 8.93611 10.5519C8.98412 10.5559 9.02013 10.5639 9.04813 10.572C9.07614 10.58 9.09614 10.592 9.10414 10.608C9.11615 10.62 9.12015 10.636 9.12015 10.656ZM13.793 10.656C13.793 10.68 13.789 10.704 13.785 10.74C13.777 10.772 13.769 10.82 13.753 10.88L13.0289 13.3325C13.0169 13.3685 13.0049 13.3965 12.9889 13.4165C12.9692 13.4409 12.9427 13.459 12.9129 13.4685C12.8809 13.4805 12.8328 13.4885 12.7688 13.4925C12.6076 13.5032 12.4459 13.5032 12.2847 13.4925C12.2207 13.4885 12.1727 13.4805 12.1367 13.4685C12.1061 13.4605 12.0792 13.4421 12.0607 13.4165C12.0432 13.3926 12.031 13.3654 12.0247 13.3365L11.5686 11.6882L11.5606 11.6602L11.5526 11.6882L11.1325 13.3365C11.1245 13.3725 11.1125 13.4005 11.0965 13.4205C11.0768 13.4449 11.0504 13.463 11.0205 13.4725C10.9845 13.4845 10.9325 13.4925 10.8725 13.4965C10.7099 13.507 10.5469 13.507 10.3844 13.4965C10.3244 13.4925 10.2724 13.4845 10.2404 13.4725C10.2098 13.4645 10.1829 13.4461 10.1643 13.4205C10.1469 13.3966 10.1346 13.3694 10.1283 13.3405L9.4122 10.888C9.3922 10.828 9.38419 10.784 9.37619 10.748C9.37219 10.716 9.36819 10.688 9.36819 10.664C9.36819 10.644 9.37219 10.624 9.38419 10.612C9.3962 10.596 9.4162 10.584 9.44421 10.576C9.47221 10.5679 9.51222 10.5599 9.56423 10.5559C9.61224 10.5519 9.67625 10.5519 9.75226 10.5519C9.83228 10.5519 9.90029 10.5519 9.9483 10.5559C10.0003 10.5599 10.0403 10.5679 10.0683 10.576C10.0963 10.588 10.1163 10.6 10.1283 10.616C10.1403 10.632 10.1483 10.656 10.1523 10.68L10.6884 12.6723L10.6964 12.7084L10.7044 12.6723L11.2085 10.68C11.2165 10.656 11.2245 10.636 11.2365 10.616C11.2485 10.6 11.2685 10.584 11.2966 10.576C11.3246 10.5639 11.3606 10.5599 11.4086 10.5559C11.4566 10.5519 11.5166 10.5519 11.5926 10.5519C11.6686 10.5519 11.7286 10.5559 11.7766 10.5599C11.8247 10.5639 11.8607 10.572 11.8887 10.58C11.9167 10.588 11.9367 10.6 11.9447 10.616C11.9567 10.632 11.9647 10.648 11.9687 10.668L12.5088 12.6723L12.5168 12.7044L12.5248 12.6643L13.0409 10.672C13.0449 10.648 13.0529 10.628 13.0649 10.608C13.0769 10.592 13.0969 10.576 13.1249 10.568C13.1529 10.5559 13.1929 10.5519 13.2409 10.5479C13.2889 10.5439 13.3529 10.5439 13.425 10.5439C13.497 10.5439 13.561 10.5439 13.609 10.5479C13.657 10.5519 13.693 10.5599 13.721 10.568C13.749 10.576 13.769 10.588 13.777 10.604C13.789 10.62 13.793 10.636 13.793 10.656Z" fill="#FFA054"/>
<path d="M13.792 10.656C13.792 10.68 13.788 10.704 13.784 10.74C13.776 10.772 13.768 10.82 13.752 10.88L13.0279 13.3325C13.0159 13.3685 13.0039 13.3965 12.9879 13.4165C12.9682 13.4409 12.9417 13.459 12.9119 13.4685C12.8798 13.4805 12.8318 13.4885 12.7678 13.4925C12.6066 13.5032 12.4449 13.5032 12.2837 13.4925C12.2197 13.4885 12.1717 13.4805 12.1357 13.4685C12.1051 13.4605 12.0782 13.4421 12.0597 13.4165C12.0422 13.3926 12.03 13.3654 12.0237 13.3365L11.5676 11.6882L11.5596 11.6602L11.5516 11.6882L11.1315 13.3365C11.1235 13.3725 11.1115 13.4005 11.0955 13.4205C11.0758 13.4449 11.0494 13.463 11.0195 13.4725C10.9835 13.4845 10.9315 13.4925 10.8715 13.4965C10.7089 13.507 10.5459 13.507 10.3834 13.4965C10.3234 13.4925 10.2714 13.4845 10.2394 13.4725C10.2088 13.4645 10.1819 13.4461 10.1633 13.4205C10.1459 13.3966 10.1336 13.3694 10.1273 13.3405L9.4112 10.888C9.39119 10.828 9.38319 10.784 9.37519 10.748C9.37119 10.716 9.36719 10.688 9.36719 10.664C9.36719 10.644 9.37119 10.624 9.38319 10.612C9.39519 10.596 9.4152 10.584 9.4432 10.576C9.47121 10.5679 9.51121 10.5599 9.56322 10.5559C9.61123 10.5519 9.67525 10.5519 9.75126 10.5519C9.83127 10.5519 9.89929 10.5519 9.9473 10.5559C9.99931 10.5599 10.0393 10.5679 10.0673 10.576C10.0953 10.588 10.1153 10.6 10.1273 10.616C10.1393 10.632 10.1473 10.656 10.1513 10.68L10.6874 12.6723L10.6954 12.7084L10.7034 12.6723L11.2075 10.68C11.2155 10.656 11.2235 10.636 11.2355 10.616C11.2475 10.6 11.2675 10.584 11.2956 10.576C11.3236 10.5639 11.3596 10.5599 11.4076 10.5559C11.4556 10.5519 11.5156 10.5519 11.5916 10.5519C11.6676 10.5519 11.7276 10.5559 11.7756 10.5599C11.8236 10.5639 11.8597 10.572 11.8877 10.58C11.9157 10.588 11.9357 10.6 11.9437 10.616C11.9557 10.632 11.9637 10.648 11.9677 10.668L12.5078 12.6723L12.5158 12.7044L12.5238 12.6643L13.0399 10.672C13.0439 10.648 13.0519 10.628 13.0639 10.608C13.0759 10.592 13.0959 10.576 13.1239 10.568C13.1519 10.5559 13.1919 10.5519 13.2399 10.5479C13.2879 10.5439 13.3519 10.5439 13.424 10.5439C13.496 10.5439 13.56 10.5439 13.608 10.5479C13.656 10.5519 13.692 10.5599 13.72 10.568C13.748 10.576 13.768 10.588 13.776 10.604C13.788 10.62 13.792 10.636 13.792 10.656ZM18.4649 10.656C18.4649 10.68 18.4609 10.704 18.4569 10.74C18.4489 10.772 18.4409 10.82 18.4249 10.88L17.7008 13.3325C17.6888 13.3685 17.6768 13.3965 17.6607 13.4165C17.6411 13.4409 17.6146 13.459 17.5847 13.4685C17.5527 13.4805 17.5047 13.4885 17.4407 13.4925C17.2795 13.5032 17.1178 13.5032 16.9566 13.4925C16.8926 13.4885 16.8446 13.4805 16.8086 13.4685C16.778 13.4605 16.7511 13.4421 16.7326 13.4165C16.7151 13.3926 16.7028 13.3654 16.6966 13.3365L16.2405 11.6882L16.2325 11.6602L16.2245 11.6882L15.8044 13.3365C15.7964 13.3725 15.7844 13.4005 15.7684 13.4205C15.7487 13.4449 15.7223 13.463 15.6924 13.4725C15.6564 13.4845 15.6044 13.4925 15.5443 13.4965C15.3818 13.507 15.2188 13.507 15.0563 13.4965C14.9962 13.4925 14.9442 13.4845 14.9122 13.4725C14.8816 13.4645 14.8548 13.4461 14.8362 13.4205C14.8187 13.3966 14.8065 13.3694 14.8002 13.3405L14.0841 10.888C14.0641 10.828 14.0561 10.784 14.0481 10.748C14.0441 10.716 14.0401 10.688 14.0401 10.664C14.0401 10.644 14.0441 10.624 14.0561 10.612C14.0681 10.596 14.0881 10.584 14.1161 10.576C14.1441 10.5679 14.1841 10.5599 14.2361 10.5559C14.2841 10.5519 14.3481 10.5519 14.4241 10.5519C14.5042 10.5519 14.5722 10.5519 14.6202 10.5559C14.6722 10.5599 14.7122 10.5679 14.7402 10.576C14.7682 10.588 14.7882 10.6 14.8002 10.616C14.8122 10.632 14.8202 10.656 14.8242 10.68L15.3603 12.6723L15.3683 12.7084L15.3763 12.6723L15.8804 10.68C15.8884 10.656 15.8964 10.636 15.9084 10.616C15.9204 10.6 15.9404 10.584 15.9684 10.576C15.9964 10.5639 16.0324 10.5599 16.0805 10.5559C16.1285 10.5519 16.1885 10.5519 16.2645 10.5519C16.3405 10.5519 16.4005 10.5559 16.4485 10.5599C16.4965 10.5639 16.5325 10.572 16.5605 10.58C16.5885 10.588 16.6086 10.6 16.6166 10.616C16.6286 10.632 16.6366 10.648 16.6406 10.668L17.1807 12.6723L17.1887 12.7044L17.1967 12.6683L17.7128 10.676C17.7168 10.652 17.7248 10.632 17.7368 10.612C17.7488 10.596 17.7688 10.58 17.7968 10.572C17.8248 10.5599 17.8648 10.5559 17.9128 10.5519C17.9608 10.5479 18.0248 10.5479 18.0968 10.5479C18.1688 10.5479 18.2329 10.5479 18.2809 10.5519C18.3289 10.5559 18.3649 10.5639 18.3929 10.572C18.4209 10.58 18.4409 10.592 18.4489 10.608C18.4609 10.62 18.4649 10.636 18.4649 10.656Z" fill="#FFA054"/>
</svg>
