<svg width="40" height="40" viewBox="0 0 40 40" fill="none" xmlns="http://www.w3.org/2000/svg">
<path d="M32.3525 1.53815C28.3221 0.4563 24.1574 -0.0596583 19.9812 0.00547878C15.8019 -0.0595438 11.6341 0.456404 7.60044 1.53815C4.72164 2.40202 3 3.53526 3 4.56633C3 5.5974 4.72164 6.72136 7.60044 7.58523C11.6341 8.66698 15.8019 9.18292 19.9812 9.1179C24.1574 9.18304 28.3221 8.66708 32.3525 7.58523C35.2313 6.72136 36.9436 5.58811 36.9436 4.56633C36.9436 3.54455 35.2313 2.40202 32.3525 1.53815Z" fill="#FFA054"/>
<path d="M19.9813 31.383C13.3299 31.383 6.36809 30.2405 3.04712 28.0762V35.4423C3.04712 36.4641 4.76876 37.5973 7.63815 38.4612C11.6741 39.5475 15.8457 40.0635 20.0283 39.9938C22.7843 40.0036 25.5368 39.7986 28.2602 39.3808C33.4063 38.5634 37.0001 36.9378 37.0001 35.4423V28.0762C33.585 30.2405 26.6232 31.383 19.9813 31.383ZM22.9541 36.3805H16.999C16.8716 36.4032 16.7407 36.3981 16.6155 36.3654C16.4904 36.3327 16.374 36.2733 16.2747 36.1913C16.1753 36.1094 16.0954 36.0069 16.0405 35.8911C15.9857 35.7753 15.9573 35.6491 15.9573 35.5212C15.9573 35.3934 15.9857 35.2671 16.0405 35.1514C16.0954 35.0356 16.1753 34.9331 16.2747 34.8511C16.374 34.7692 16.4904 34.7098 16.6155 34.6771C16.7407 34.6444 16.8716 34.6393 16.999 34.662H22.9541C23.0815 34.6393 23.2124 34.6444 23.3376 34.6771C23.4628 34.7098 23.5791 34.7692 23.6785 34.8511C23.7778 34.9331 23.8577 35.0356 23.9126 35.1514C23.9674 35.2671 23.9958 35.3934 23.9958 35.5212C23.9958 35.6491 23.9674 35.7753 23.9126 35.8911C23.8577 36.0069 23.7778 36.1094 23.6785 36.1913C23.5791 36.2733 23.4628 36.3327 23.3376 36.3654C23.2124 36.3981 23.0815 36.4032 22.9541 36.3805Z" fill="#FFA054"/>
<path d="M19.9813 21.1106C13.3299 21.1106 6.36809 19.968 3.04712 17.8037V25.0862C3.04712 26.1173 4.76876 27.2505 7.63815 28.1144C11.675 29.1962 15.8459 29.7121 20.0283 29.6471C24.2076 29.7121 28.3754 29.1961 32.409 28.1144C35.2314 27.2505 37.0001 26.1173 37.0001 25.0862V17.8037C33.585 19.968 26.6232 21.1106 19.9813 21.1106ZM22.9541 25.9315H16.999C16.8733 25.9497 16.7452 25.9411 16.6232 25.906C16.5013 25.871 16.3884 25.8104 16.2923 25.7284C16.1962 25.6465 16.119 25.545 16.0662 25.431C16.0133 25.317 15.986 25.193 15.986 25.0676C15.986 24.9422 16.0133 24.8183 16.0662 24.7043C16.119 24.5903 16.1962 24.4888 16.2923 24.4068C16.3884 24.3249 16.5013 24.2643 16.6232 24.2293C16.7452 24.1942 16.8733 24.1855 16.999 24.2038H22.9541C23.0798 24.1855 23.208 24.1942 23.3299 24.2293C23.4519 24.2643 23.5647 24.3249 23.6608 24.4068C23.757 24.4888 23.8341 24.5903 23.8869 24.7043C23.9398 24.8183 23.9671 24.9422 23.9671 25.0676C23.9671 25.193 23.9398 25.317 23.8869 25.431C23.8341 25.545 23.757 25.6465 23.6608 25.7284C23.5647 25.8104 23.4519 25.871 23.3299 25.906C23.208 25.9411 23.0798 25.9497 22.9541 25.9315Z" fill="#FFA054"/>
<path d="M19.9812 10.8459C13.3486 10.8459 6.36801 9.70338 3 7.53906V14.868C3 15.8991 4.72164 17.023 7.59103 17.8869C11.6264 18.9771 15.798 19.4962 19.9812 19.4289C24.1612 19.4953 28.3296 18.9762 32.3619 17.8869C35.1843 17.023 36.953 15.8991 36.953 14.868V7.53906C33.5849 9.70338 26.6231 10.8459 19.9812 10.8459ZM22.9541 15.7969H16.9989C16.873 15.8097 16.7459 15.7972 16.625 15.7603C16.5041 15.7234 16.392 15.6629 16.2954 15.5822C16.1988 15.5016 16.1197 15.4025 16.0627 15.291C16.0058 15.1794 15.9722 15.0577 15.964 14.933C15.9722 14.8084 16.0058 14.6866 16.0627 14.5751C16.1197 14.4636 16.1988 14.3645 16.2954 14.2839C16.392 14.2032 16.5041 14.1426 16.625 14.1057C16.7459 14.0689 16.873 14.0564 16.9989 14.0692H22.9541C23.0807 14.0551 23.2088 14.0665 23.3308 14.1028C23.4528 14.1391 23.566 14.1994 23.6637 14.2802C23.7613 14.361 23.8413 14.4605 23.8988 14.5727C23.9564 14.6849 23.9902 14.8075 23.9983 14.933C23.9902 15.0586 23.9564 15.1811 23.8988 15.2934C23.8413 15.4056 23.7613 15.5051 23.6637 15.5859C23.566 15.6667 23.4528 15.727 23.3308 15.7633C23.2088 15.7996 23.0807 15.811 22.9541 15.7969Z" fill="#FFA054"/>
</svg>
