<svg width="486" height="124" viewBox="0 0 486 124" fill="none" xmlns="http://www.w3.org/2000/svg">
<rect x="341.402" y="0.708231" width="143.063" height="121.816" rx="9.207" fill="white" stroke="#EFEFEF" stroke-width="1.41646"/>
<path d="M380.349 35.5162H380.033V35.8316V38.893C378.488 38.7337 377.271 37.4171 377.271 35.8316C377.271 34.1396 378.657 32.7539 380.349 32.7539H439.162C440.853 32.7539 442.239 34.1396 442.239 35.8316C442.239 37.4171 441.023 38.7337 439.477 38.893V35.8316V35.5162H439.162H380.349Z" fill="#F0E6E1" stroke="#F0E6E1" stroke-width="1.07898"/>
<path d="M382.834 89.8971L382.611 89.6738L382.388 89.8971L380.664 91.6203V36.1465H438.846V91.6203L437.123 89.8971L436.899 89.6738L436.677 89.8971L430.114 96.4601L423.551 89.8971L423.327 89.6738L423.105 89.8971L416.542 96.4601L409.979 89.8971L409.755 89.6738L409.532 89.8971L402.969 96.4601L396.406 89.8971L396.183 89.6738L395.96 89.8971L389.397 96.4601L382.834 89.8971Z" fill="#FDFDFE" stroke="#F0E6E1" stroke-width="1.07898"/>
<path d="M425.589 78.8106H408.624C408 78.8106 407.493 78.3051 407.493 77.6796C407.493 77.0541 408 76.5486 408.624 76.5486H425.589C426.214 76.5486 426.721 77.0541 426.721 77.6796C426.721 78.3051 426.214 78.8106 425.589 78.8106Z" fill="#F0E6E1"/>
<path d="M431.244 78.8065C430.951 78.8065 430.657 78.6821 430.442 78.4785C430.238 78.2636 430.114 77.9696 430.114 77.6754C430.114 77.369 430.238 77.0862 430.442 76.8724C430.871 76.454 431.618 76.454 432.047 76.8724C432.251 77.0862 432.375 77.369 432.375 77.6754C432.375 77.9696 432.251 78.2636 432.047 78.4785C431.832 78.6821 431.538 78.8065 431.244 78.8065Z" fill="#F0E6E1"/>
<path d="M431.245 62.9727H414.279C413.655 62.9727 413.148 62.4672 413.148 61.8417C413.148 61.2162 413.655 60.7107 414.279 60.7107H431.245C431.869 60.7107 432.376 61.2162 432.376 61.8417C432.376 62.4672 431.869 62.9727 431.245 62.9727Z" fill="#F0E6E1"/>
<path d="M431.245 70.8909H419.934C419.31 70.8909 418.803 70.3854 418.803 69.7599C418.803 69.1345 419.31 68.6289 419.934 68.6289H431.245C431.869 68.6289 432.375 69.1345 432.375 69.7599C432.375 70.3854 431.869 70.8909 431.245 70.8909Z" fill="#F0E6E1"/>
<path d="M410.886 70.8909H408.624C408 70.8909 407.493 70.3854 407.493 69.7599C407.493 69.1345 408 68.6289 408.624 68.6289H410.886C411.511 68.6289 412.017 69.1345 412.017 69.7599C412.017 70.3854 411.511 70.8909 410.886 70.8909Z" fill="#F0E6E1"/>
<path d="M425.589 55.059H408.624C408 55.059 407.493 54.5533 407.493 53.9279C407.493 53.3025 408 52.7969 408.624 52.7969H425.589C426.214 52.7969 426.721 53.3025 426.721 53.9279C426.721 54.5533 426.214 55.059 425.589 55.059Z" fill="#F0E6E1"/>
<path d="M431.244 55.0565C430.951 55.0565 430.657 54.9321 430.442 54.7285C430.238 54.5136 430.114 54.2196 430.114 53.9255C430.114 53.6189 430.238 53.3362 430.442 53.1225C430.86 52.704 431.629 52.704 432.047 53.1225C432.251 53.3362 432.375 53.6314 432.375 53.9255C432.375 54.2196 432.251 54.5136 432.047 54.7285C431.832 54.9321 431.55 55.0565 431.244 55.0565Z" fill="#F0E6E1"/>
<path d="M409.755 62.9744C409.461 62.9744 409.167 62.85 408.952 62.6464C408.749 62.4315 408.624 62.1488 408.624 61.8434C408.624 61.5369 408.749 61.2542 408.952 61.0404C409.382 60.622 410.14 60.622 410.558 61.0404C410.762 61.2542 410.886 61.5369 410.886 61.8434C410.886 62.1488 410.762 62.4315 410.558 62.6464C410.343 62.85 410.049 62.9744 409.755 62.9744Z" fill="#F0E6E1"/>
<path d="M415.411 70.8902C415.116 70.8902 414.822 70.7658 414.607 70.5623C414.404 70.3474 414.279 70.0533 414.279 69.7592C414.279 69.4652 414.404 69.17 414.607 68.9562C415.037 68.5377 415.795 68.5377 416.214 68.9562C416.417 69.1598 416.542 69.4527 416.542 69.7592C416.542 70.0646 416.417 70.3474 416.214 70.5623C415.999 70.7658 415.705 70.8902 415.411 70.8902Z" fill="#F0E6E1"/>
<path d="M397.314 60.714C397.314 61.3395 397.821 61.845 398.445 61.845C399.07 61.845 399.576 61.3395 399.576 60.714C399.576 57.9837 397.63 55.6991 395.052 55.1732V53.9279C395.052 53.3025 394.545 52.7969 393.921 52.7969C393.297 52.7969 392.79 53.3025 392.79 53.9279V55.1765C391.556 55.4276 390.432 56.0825 389.603 57.0631C388.912 57.8797 388.592 58.9247 388.705 60.0071C388.821 61.1144 389.39 62.1414 390.269 62.8245L392.79 64.7856V70.9361C391.477 70.4679 390.528 69.2238 390.528 67.7512C390.528 67.1257 390.022 66.6202 389.397 66.6202C388.773 66.6202 388.266 67.1257 388.266 67.7512C388.266 70.4814 390.213 72.7661 392.79 73.292V74.2861C392.79 74.9116 393.297 75.4172 393.921 75.4172C394.545 75.4172 395.052 74.9116 395.052 74.2861V73.2886C396.286 73.0375 397.41 72.3826 398.24 71.4021C398.932 70.5832 399.251 69.5382 399.137 68.4558C399.021 67.3496 398.452 66.3238 397.573 65.6418L395.052 63.6807V57.5302C396.365 57.9973 397.314 59.2414 397.314 60.714ZM396.185 67.4265C396.579 67.7331 396.836 68.1957 396.888 68.691C396.937 69.1548 396.803 69.5992 396.513 69.9408C396.12 70.4057 395.611 70.7314 395.052 70.9305V66.5444L396.185 67.4265ZM391.658 61.0397C391.262 60.7321 391.007 60.2695 390.954 59.773C390.907 59.3104 391.04 58.867 391.329 58.5243C391.723 58.0595 392.232 57.7338 392.79 57.5347V61.9196L391.658 61.0397Z" fill="#FFA054"/>
<path d="M383.742 44.8788C383.448 44.8788 383.154 44.7543 382.939 44.5508C382.736 44.3359 382.611 44.0418 382.611 43.7478C382.611 43.4536 382.736 43.1584 382.939 42.9447C383.369 42.5262 384.126 42.5262 384.545 42.9447C384.748 43.1584 384.873 43.4536 384.873 43.7478C384.873 44.0418 384.748 44.3359 384.545 44.5508C384.33 44.7543 384.036 44.8788 383.742 44.8788Z" fill="#F0E6E1"/>
<path d="M430.306 43.7462C430.306 43.1242 430.804 42.6152 431.437 42.6152C432.059 42.6152 432.568 43.1242 432.568 43.7462C432.568 44.3683 432.059 44.8773 431.437 44.8773C430.804 44.8773 430.306 44.3683 430.306 43.7462ZM425.963 43.7462C425.963 43.1242 426.472 42.6152 427.093 42.6152C427.727 42.6152 428.224 43.1242 428.224 43.7462C428.224 44.3683 427.727 44.8773 427.093 44.8773C426.472 44.8773 425.963 44.3683 425.963 43.7462ZM421.631 43.7462C421.631 43.1242 422.139 42.6152 422.762 42.6152C423.384 42.6152 423.893 43.1242 423.893 43.7462C423.893 44.3683 423.384 44.8773 422.762 44.8773C422.139 44.8773 421.631 44.3683 421.631 43.7462ZM417.299 43.7462C417.299 43.1242 417.797 42.6152 418.43 42.6152C419.052 42.6152 419.561 43.1242 419.561 43.7462C419.561 44.3683 419.052 44.8773 418.43 44.8773C417.797 44.8773 417.299 44.3683 417.299 43.7462ZM412.956 43.7462C412.956 43.1242 413.465 42.6152 414.087 42.6152C414.721 42.6152 415.218 43.1242 415.218 43.7462C415.218 44.3683 414.721 44.8773 414.087 44.8773C413.465 44.8773 412.956 44.3683 412.956 43.7462ZM408.624 43.7462C408.624 43.1242 409.133 42.6152 409.755 42.6152C410.377 42.6152 410.886 43.1242 410.886 43.7462C410.886 44.3683 410.377 44.8773 409.755 44.8773C409.133 44.8773 408.624 44.3683 408.624 43.7462ZM404.292 43.7462C404.292 43.1242 404.79 42.6152 405.423 42.6152C406.046 42.6152 406.555 43.1242 406.555 43.7462C406.555 44.3683 406.046 44.8773 405.423 44.8773C404.79 44.8773 404.292 44.3683 404.292 43.7462ZM399.949 43.7462C399.949 43.1242 400.458 42.6152 401.08 42.6152C401.714 42.6152 402.211 43.1242 402.211 43.7462C402.211 44.3683 401.714 44.8773 401.08 44.8773C400.458 44.8773 399.949 44.3683 399.949 43.7462ZM395.617 43.7462C395.617 43.1242 396.126 42.6152 396.748 42.6152C397.371 42.6152 397.879 43.1242 397.879 43.7462C397.879 44.3683 397.371 44.8773 396.748 44.8773C396.126 44.8773 395.617 44.3683 395.617 43.7462ZM391.286 43.7462C391.286 43.1242 391.784 42.6152 392.417 42.6152C393.039 42.6152 393.548 43.1242 393.548 43.7462C393.548 44.3683 393.039 44.8773 392.417 44.8773C391.784 44.8773 391.286 44.3683 391.286 43.7462ZM386.943 43.7462C386.943 43.1242 387.452 42.6152 388.074 42.6152C388.707 42.6152 389.205 43.1242 389.205 43.7462C389.205 44.3683 388.707 44.8773 388.074 44.8773C387.452 44.8773 386.943 44.3683 386.943 43.7462Z" fill="#F0E6E1"/>
<path d="M435.768 44.8788C435.463 44.8788 435.181 44.7543 434.965 44.5394C434.762 44.3359 434.637 44.0418 434.637 43.7478C434.637 43.4536 434.762 43.1584 434.965 42.9447C435.373 42.5262 436.142 42.5262 436.571 42.9447C436.775 43.1584 436.899 43.4536 436.899 43.7478C436.899 44.0418 436.775 44.3359 436.571 44.5508C436.357 44.7543 436.063 44.8788 435.768 44.8788Z" fill="#F0E6E1"/>
<path d="M379.59 22.9535C378.433 21.768 376.535 21.7442 375.349 22.9005C374.164 24.0568 374.14 25.9552 375.297 27.1407L445.782 99.4096C446.938 100.595 448.837 100.619 450.022 99.4626C451.208 98.3063 451.231 96.4079 450.075 95.2224L379.59 22.9535Z" fill="#FFA054"/>
<rect x="0.708231" y="0.708231" width="143.063" height="121.816" rx="9.207" fill="white" stroke="#EFEFEF" stroke-width="1.41646"/>
<path d="M115.941 24.082H28.9754C25.4893 24.082 22.6633 26.908 22.6633 30.3941V93.5145C22.6633 97.0006 25.4893 99.8266 28.9754 99.8266H115.941C119.427 99.8266 122.253 97.0006 122.253 93.5145V30.3941C122.253 26.908 119.427 24.082 115.941 24.082Z" fill="white" stroke="#F0E6E1" stroke-width="1.07898"/>
<path d="M22.6633 30.3941C22.6633 26.908 25.4893 24.082 28.9754 24.082H115.941C119.427 24.082 122.253 26.908 122.253 30.3941V39.5115H22.6633V30.3941Z" fill="white" stroke="#F0E6E1" stroke-width="1.07898"/>
<path d="M30.3267 29.5547C31.3336 29.5547 32.1501 30.371 32.1501 31.3782C32.1501 32.3853 31.3336 33.2016 30.3267 33.2016C29.3195 33.2016 28.5032 32.3853 28.5032 31.3782C28.5032 30.371 29.3195 29.5547 30.3267 29.5547Z" fill="#FFA054"/>
<path d="M35.3762 29.5547C36.3832 29.5547 37.1997 30.371 37.1997 31.3782C37.1997 32.3853 36.3832 33.2016 35.3762 33.2016C34.3691 33.2016 33.5527 32.3853 33.5527 31.3782C33.5527 30.371 34.3691 29.5547 35.3762 29.5547Z" fill="#1C1616"/>
<path d="M40.4258 29.5547C41.4328 29.5547 42.2493 30.371 42.2493 31.3782C42.2493 32.3853 41.4328 33.2016 40.4258 33.2016C39.4187 33.2016 38.6023 32.3853 38.6023 31.3782C38.6023 30.371 39.4187 29.5547 40.4258 29.5547Z" fill="#8F90A6"/>
<path d="M105.421 49.332H39.4956V81.5936H105.421V49.332Z" fill="#FFA054" stroke="#F0E6E1" stroke-width="1.07898"/>
<path d="M68.9517 65.4623V66.7277L70.0247 66.0571L75.6354 62.5504L76.587 61.9556L75.6354 61.3609L70.0247 57.8542L68.9517 57.1836V58.4489V65.4623Z" fill="white"/>
<path d="M105.421 71.7737H39.4954V81.5924H105.421V71.7737Z" fill="white" stroke="#F0E6E1" stroke-width="1.07898"/>
<path d="M54.9248 71.7737H39.4954V81.5924H54.9248V71.7737Z" fill="white" stroke="#F0E6E1" stroke-width="1.07898"/>
<path d="M52.821 73.8792H41.5996V79.4899H52.821V73.8792Z" fill="#F0E6E1"/>
<path d="M101.915 78.0879H58.4316V76.6852H101.915V78.0879Z" fill="#F0E6E1"/>
<path d="M100.512 87.9062H45.8076V86.5036H100.512V87.9062Z" fill="#F0E6E1"/>
<path d="M93.4985 92.1152H51.4182V90.7126H93.4985V92.1152Z" fill="#F0E6E1"/>
<rect x="171.055" y="0.708231" width="143.063" height="121.816" rx="9.207" fill="white" stroke="#EFEFEF" stroke-width="1.41646"/>
<path d="M277.607 101.987H271.335C270.576 101.987 269.903 101.501 269.663 100.782L268.302 96.6986L274.471 94.4255L280.641 96.6986L279.279 100.782C279.039 101.501 278.366 101.987 277.607 101.987Z" fill="#FFA054"/>
<path d="M213.638 101.238H207.365C206.607 101.238 205.933 100.752 205.693 100.033L204.332 95.9499L210.501 93.6775L216.671 95.9499L215.31 100.033C215.07 100.752 214.396 101.238 213.638 101.238Z" fill="#FFA054"/>
<path d="M211.227 56.9633L206.019 57.8815L200.356 25.7674C200.103 24.3293 201.063 22.958 202.501 22.7044C203.94 22.4509 205.311 23.4111 205.564 24.8492L211.227 56.9633Z" fill="#FFA054"/>
<path d="M215.66 77.6869L208.717 78.9112L204.982 57.7333C204.847 56.9663 205.359 56.2349 206.126 56.0997L210.292 55.3651C211.059 55.23 211.791 55.742 211.926 56.509L215.66 77.6869Z" fill="#FFA054"/>
<path d="M270.964 56.9634L276.171 57.8816L281.834 25.7674C282.088 24.3293 281.127 22.958 279.689 22.7044C278.251 22.4509 276.88 23.4111 276.626 24.8491L270.964 56.9634Z" fill="#FFA054"/>
<path d="M266.422 77.6402L273.366 78.8645L277.1 57.6864C277.236 56.9194 276.724 56.1881 275.956 56.0529L271.79 55.3183C271.024 55.1831 270.292 55.6952 270.157 56.4621L266.422 77.6402Z" fill="#FFA054"/>
<path d="M282.172 95.7435L277.641 96.6497L276.587 96.6968H202.202C200.254 96.6968 198.676 95.1188 198.676 93.1713V79.07C198.676 77.123 200.254 75.5447 202.202 75.5447H276.586L276.895 75.5474L279.055 75.7611L283.888 81.6113L282.839 92.8822L282.172 95.7435Z" fill="#F0E6E1"/>
<path d="M281.874 75.5447H276.586C278.534 75.5447 280.112 77.123 280.112 79.07V93.1713C280.112 95.1188 278.534 96.6968 276.586 96.6968H281.874C283.822 96.6968 285.4 95.1188 285.4 93.1713V79.07C285.4 77.123 283.822 75.5447 281.874 75.5447Z" fill="#FAFCFC"/>
<path opacity="0.4" d="M282.886 75.7673H201.19C199.975 75.7673 198.99 76.7521 198.99 77.9669V94.3061C198.99 95.5209 199.975 96.5057 201.19 96.5057H282.886C284.101 96.5057 285.086 95.5209 285.086 94.3061V77.9669C285.086 76.7521 284.101 75.7673 282.886 75.7673Z" fill="white" stroke="#F0E6E1" stroke-width="1.07898"/>
<path d="M209.605 88.7646C211.065 88.7646 212.249 87.5806 212.249 86.1208C212.249 84.6603 211.065 83.4763 209.605 83.4763C208.144 83.4763 206.961 84.6603 206.961 86.1208C206.961 87.5806 208.144 88.7646 209.605 88.7646Z" fill="#FFA054"/>
<path d="M220.18 88.7646C221.641 88.7646 222.825 87.5806 222.825 86.1208C222.825 84.6603 221.641 83.4763 220.18 83.4763C218.721 83.4763 217.537 84.6603 217.537 86.1208C217.537 87.5806 218.721 88.7646 220.18 88.7646Z" fill="#FFA054"/>
<path d="M230.757 88.7646C232.217 88.7646 233.401 87.5806 233.401 86.1208C233.401 84.6603 232.217 83.4763 230.757 83.4763C229.297 83.4763 228.113 84.6603 228.113 86.1208C228.113 87.5806 229.297 88.7646 230.757 88.7646Z" fill="#FFA054"/>
<path d="M271.827 89.1533C271.126 89.1533 270.557 88.5846 270.557 87.8832V84.3577C270.557 83.6557 271.126 83.0876 271.827 83.0876C272.529 83.0876 273.098 83.6557 273.098 84.3577V87.8832C273.098 88.5846 272.529 89.1533 271.827 89.1533Z" fill="#F0E6E1"/>
<path d="M277.115 89.1533C276.414 89.1533 275.845 88.5846 275.845 87.8832V84.3577C275.845 83.6557 276.414 83.0876 277.115 83.0876C277.817 83.0876 278.386 83.6557 278.386 84.3577V87.8832C278.386 88.5846 277.817 89.1533 277.115 89.1533Z" fill="#F0E6E1"/>
<path d="M261.251 89.1533C260.55 89.1533 259.981 88.5846 259.981 87.8832V84.3577C259.981 83.6557 260.55 83.0876 261.251 83.0876C261.953 83.0876 262.522 83.6557 262.522 84.3577V87.8832C262.522 88.5846 261.953 89.1533 261.251 89.1533Z" fill="#F0E6E1"/>
<path d="M266.539 89.1533C265.837 89.1533 265.269 88.5846 265.269 87.8832V84.3577C265.269 83.6557 265.837 83.0876 266.539 83.0876C267.241 83.0876 267.809 83.6557 267.809 84.3577V87.8832C267.809 88.5846 267.241 89.1533 266.539 89.1533Z" fill="#F0E6E1"/>
<path d="M250.675 89.1533C249.973 89.1533 249.405 88.5846 249.405 87.8832V84.3577C249.405 83.6557 249.973 83.0876 250.675 83.0876C251.377 83.0876 251.945 83.6557 251.945 84.3577V87.8832C251.945 88.5846 251.377 89.1533 250.675 89.1533Z" fill="#F0E6E1"/>
<path d="M255.963 89.1533C255.261 89.1533 254.693 88.5846 254.693 87.8832V84.3577C254.693 83.6557 255.261 83.0876 255.963 83.0876C256.665 83.0876 257.233 83.6557 257.233 84.3577V87.8832C257.233 88.5846 256.665 89.1533 255.963 89.1533Z" fill="#F0E6E1"/>
<path d="M249.067 64.3303C248.742 64.3303 248.416 64.2063 248.168 63.9583C247.672 63.4623 247.672 62.6579 248.168 62.1619C251.549 58.7814 251.549 53.281 248.168 49.9008C247.672 49.4045 247.672 48.6003 248.168 48.1041C248.665 47.6082 249.469 47.6082 249.965 48.1041C254.336 52.4752 254.336 59.5873 249.965 63.9583C249.717 64.2062 249.392 64.3303 249.067 64.3303Z" fill="#FFA054"/>
<path d="M245.462 60.7246C245.137 60.7246 244.812 60.6006 244.564 60.3526C244.068 59.8563 244.068 59.0521 244.564 58.556C245.957 57.1633 245.957 54.897 244.564 53.5042C244.068 53.008 244.068 52.2036 244.564 51.7077C245.06 51.2116 245.864 51.2117 246.36 51.7079C248.744 54.0913 248.744 57.9694 246.36 60.3528C246.113 60.6005 245.787 60.7246 245.462 60.7246Z" fill="#FFA054"/>
<path d="M235.009 64.3304C234.684 64.3304 234.359 64.2065 234.111 63.9583C229.739 59.5873 229.739 52.4752 234.111 48.1041C234.607 47.6082 235.411 47.6082 235.908 48.1041C236.403 48.6004 236.403 49.4046 235.908 49.9008C232.527 53.2809 232.527 58.7813 235.908 62.1618C236.403 62.658 236.403 63.4624 235.907 63.9583C235.659 64.2063 235.334 64.3304 235.009 64.3304Z" fill="#FFA054"/>
<path d="M238.613 60.7248C238.289 60.7248 237.963 60.6008 237.715 60.3528C235.332 57.9694 235.332 54.0912 237.715 51.7078C238.212 51.2114 239.016 51.2119 239.512 51.7077C240.008 52.2038 240.008 53.0082 239.512 53.5042C238.119 54.8971 238.119 57.1635 239.512 58.556C240.008 59.0523 240.008 59.8565 239.512 60.3526C239.264 60.6006 238.938 60.7248 238.613 60.7248Z" fill="#FFA054"/>
<path d="M242.038 57.3003C242.739 57.3003 243.308 56.7315 243.308 56.0299C243.308 55.3283 242.739 54.7595 242.038 54.7595C241.337 54.7595 240.768 55.3283 240.768 56.0299C240.768 56.7315 241.337 57.3003 242.038 57.3003Z" fill="#FFA054"/>
</svg>
