<svg width="40" height="40" viewBox="0 0 40 40" fill="none" xmlns="http://www.w3.org/2000/svg">
<path d="M38.75 0H33.75C33.4475 0 33.155 0.11 32.925 0.31L15.67 15.4375C14.7775 15.25 13.3975 15 12.5 15C5.6075 15 0 20.6075 0 27.5C0 34.3925 5.6075 40 12.5 40C19.3925 40 25 34.3925 25 27.5C25 25.4525 24.61 24.08 24.1675 22.94L28.4225 21.495C28.6744 21.4094 28.8924 21.2457 29.0449 21.0276C29.1973 20.8095 29.2762 20.5485 29.27 20.2825L29.165 15.5375L33.94 15.205C34.2489 15.1835 34.5389 15.0481 34.7536 14.825C34.9684 14.6019 35.0927 14.307 35.1025 13.9975L35.28 8.3L39.02 7.47C39.2978 7.40854 39.5463 7.25415 39.7245 7.03232C39.9027 6.8105 39.9999 6.53453 40 6.25V1.25C40 0.918479 39.8683 0.600537 39.6339 0.366117C39.3995 0.131696 39.0815 0 38.75 0ZM8.75 27.5C9.74426 27.501 10.6975 27.8964 11.4006 28.5994C12.1036 29.3025 12.499 30.2557 12.5 31.25C12.4748 32.2278 12.0686 33.1571 11.3681 33.8397C10.6676 34.5224 9.72812 34.9044 8.75 34.9044C7.77188 34.9044 6.83243 34.5224 6.13192 33.8397C5.43142 33.1571 5.02525 32.2278 5 31.25C5 29.18 6.68 27.5 8.75 27.5Z" fill="#2D3250"/>
</svg>
