<svg width="31" height="48" viewBox="0 0 31 48" fill="none" xmlns="http://www.w3.org/2000/svg">
<g clip-path="url(#clip0_747_42050)">
<path d="M9.84363 11.25H12.6563V22.5H9.84363V11.25Z" fill="#FFA054"/>
<path d="M18.2812 18.2813H20.3905C22.3291 18.2813 23.9062 16.7042 23.9062 14.7656C23.9062 12.8272 22.3291 11.25 20.3905 11.25H15.4688V16.875V18.2813V22.5H18.2812V18.2813ZM18.2812 14.0625H20.3905C20.7784 14.0625 21.0937 14.378 21.0937 14.7656C21.0937 15.1533 20.7784 15.4688 20.3905 15.4688H18.2812V14.0625Z" fill="#FFA054"/>
<path d="M22.6794 37.4658L22.0813 40.214C25.8635 41.0373 26.7187 42.1957 26.7187 42.3746C26.7187 42.4953 26.2414 43.2676 23.9734 44.0236C21.7226 44.774 18.7022 45.1871 15.4688 45.1871C12.2354 45.1871 9.21503 44.774 6.96412 44.0236C4.69593 43.2676 4.21875 42.4953 4.21875 42.3746C4.21875 42.1957 5.07393 41.0373 8.85631 40.214L8.25791 37.4658C3.83963 38.4277 1.40625 40.1709 1.40625 42.3746C1.40625 46.2393 8.69583 47.9996 15.4688 47.9996C22.2416 47.9996 29.5312 46.2393 29.5312 42.3746C29.5312 40.1709 27.0979 38.4277 22.6794 37.4658Z" fill="#FFA054"/>
<path d="M15.4688 40.425L27.5496 25.1304C29.7342 22.4021 30.9374 18.9707 30.9374 15.4688C30.9374 6.93928 23.9982 0 15.4688 0C6.93928 0 0 6.93928 0 15.4688C0 18.9707 1.20309 22.4021 3.38194 25.1232L15.4688 40.425ZM15.4688 2.8125C22.4474 2.8125 28.125 8.4901 28.125 15.4688C28.125 18.3757 27.1669 21.1088 25.3485 23.3798L15.4688 35.8875L5.58318 23.3726C3.77062 21.1088 2.8125 18.3757 2.8125 15.4688C2.8125 8.4901 8.49008 2.8125 15.4688 2.8125Z" fill="#FFA054"/>
</g>
<defs>
<clipPath id="clip0_747_42050">
<rect width="31" height="48" fill="white"/>
</clipPath>
</defs>
</svg>
