<svg width="65" height="65" viewBox="0 0 65 65" fill="none" xmlns="http://www.w3.org/2000/svg">
<path d="M6.68066 37.0699C12.3152 39.3383 17.8272 41.5572 23.3368 43.7785C25.1883 44.5252 27.0256 45.312 28.8959 46.0045C29.5979 46.2636 29.824 46.617 29.8523 47.3566C29.89 48.4072 30.0336 49.4719 30.2786 50.4942C31.4635 55.415 36.2594 55.7424 38.8576 53.5046C40.2379 52.3174 41.4534 50.7086 42.1883 49.0455C44.1364 44.6477 45.8912 40.158 47.5213 35.633C49.8792 29.0799 52.0557 22.4655 54.3689 15.7003C45.5308 13.9407 36.8365 12.2094 28.0456 10.4568C27.0468 13.1822 26.0645 15.8534 25.087 18.527C23.0871 24.0036 21.092 29.4803 19.0897 34.9546C18.9555 35.3221 18.8236 35.6966 18.6304 36.0335C18.0839 36.9898 17.0498 37.3526 16.1217 36.9498C15.1395 36.5234 14.6731 35.6071 15.0382 34.5259C15.9898 31.7087 16.9792 28.9008 17.9968 26.1071C20.1945 20.0816 22.4158 14.0632 24.6371 8.0471C25.2801 6.30634 25.9656 5.93417 27.7864 6.29692C37.1168 8.1531 46.4495 10.0022 55.7752 11.8772C59.0894 12.5439 59.471 13.1045 58.3309 16.3646C54.5079 27.2967 50.6495 38.2171 46.6898 49.0997C45.6698 51.9005 44.1976 54.5717 41.7996 56.475C38.3417 59.2215 34.3349 59.6809 30.3752 58.0555C24.0034 55.4409 17.7494 52.5271 11.5025 49.6156C7.64644 47.8159 5.62066 43.5524 6.30613 39.2135C6.41449 38.528 6.5464 37.8449 6.68302 37.0723L6.68066 37.0699Z" fill="#FFA054"/>
<path d="M29.6003 35.9514C30.1633 36.1092 30.7333 36.2458 31.2869 36.4272C33.8827 37.2823 36.4809 38.135 39.0696 39.0183C39.9577 39.3222 40.556 39.9629 40.5442 40.9287C40.5324 41.8143 40.0707 42.4998 39.1827 42.7895C38.9 42.8814 38.549 42.9615 38.2852 42.8767C35.0934 41.8403 31.904 40.7967 28.7358 39.692C27.7653 39.3551 27.4402 38.42 27.7865 37.5743C28.0739 36.8747 28.7994 36.3542 29.3317 35.7559C29.4213 35.8218 29.5108 35.8878 29.6003 35.9514Z" fill="#FFA054"/>
<path d="M43.8937 32.2365C43.8914 34.1115 42.6618 34.9501 41.0317 34.4648C38.483 33.704 35.9673 32.8348 33.4398 32.0057C32.9946 31.8596 32.5258 31.7395 32.1277 31.5063C31.2091 30.9739 30.8157 30.1683 31.169 29.1201C31.5224 28.0766 32.2856 27.556 33.3597 27.8834C36.4996 28.8421 39.6396 29.815 42.7301 30.9174C43.3025 31.12 43.6511 31.9491 43.8937 32.2365Z" fill="#FFA054"/>
<path d="M36.9166 19.3842C37.8541 19.6197 39.0319 19.893 40.1979 20.2133C42.1153 20.7433 44.0374 21.2663 45.9336 21.8669C47.2739 22.2909 47.7615 23.1978 47.4223 24.3567C47.1043 25.4427 46.1056 25.942 44.7959 25.5958C41.8538 24.8161 38.9141 24.0293 35.9908 23.1907C34.9426 22.8892 34.4998 21.9706 34.7094 20.8729C34.8837 19.9589 35.6775 19.3535 36.9166 19.3818V19.3842Z" fill="#FFA054"/>
<path d="M29.3389 28.0082C29.3224 29.0988 28.4085 29.9868 27.2967 29.9962C26.1236 30.0057 25.0447 28.9669 25.0871 27.8692C25.1295 26.7644 26.0718 25.8717 27.1577 25.9094C28.4791 25.9541 29.3554 26.7998 29.3366 28.0105L29.3389 28.0082Z" fill="#FFA054"/>
<path d="M28.3307 19.3512C28.3449 18.2088 29.1811 17.462 30.4201 17.488C31.678 17.5139 32.5613 18.336 32.5754 19.4949C32.5872 20.5431 31.6261 21.4618 30.5025 21.4783C29.2941 21.4971 28.3166 20.5384 28.3307 19.3488V19.3512Z" fill="#FFA054"/>
<path d="M26.0553 35.8619C26.0341 37.0468 25.2308 37.8029 24.0083 37.7935C22.7669 37.7817 21.8553 36.9337 21.8412 35.7818C21.8294 34.6441 22.7928 33.7443 23.9894 33.7772C25.2026 33.8102 26.0765 34.6912 26.0553 35.8619Z" fill="#FFA054"/>
</svg>
