<svg width="65" height="65" viewBox="0 0 65 65" fill="none" xmlns="http://www.w3.org/2000/svg">
<g clip-path="url(#clip0_254_11586)">
<path d="M56.8637 28.5729C56.7421 35.5243 54.4444 41.0137 49.8015 45.5534C49.6243 45.726 49.3105 45.8561 49.0592 45.8561C39.2279 45.8886 29.3967 45.9054 19.5655 45.9189C18.6101 45.92 17.6535 45.8998 16.6992 45.8583C16.4965 45.8494 16.2521 45.7462 16.1074 45.6072C12.3447 41.9712 10.0435 37.6019 9.26178 32.515C7.77129 22.8178 12.7454 13.2989 21.7126 8.66054C24.6508 7.1402 27.7916 6.24997 31.1281 6.05264C39.2859 5.57165 46.0342 8.35781 51.3325 14.3551C54.1074 17.4967 55.8225 21.1585 56.4815 25.2542C56.6888 26.5413 56.7815 27.8453 56.8637 28.5729ZM18.2464 45.6251C18.2094 45.272 18.163 45.0343 18.163 44.7966C18.1584 42.2739 18.1387 39.7512 18.1653 37.2285C18.2105 32.9568 20.8742 29.4261 24.9716 28.1121C26.5443 27.6076 28.1622 27.6883 29.7777 27.6457C30.3765 27.63 30.7865 27.7533 30.9254 28.3509C31.2103 29.5685 31.9955 29.8993 33.2312 29.7793C33.9145 29.7132 34.3882 29.6358 34.599 28.9395C34.6997 28.6043 34.8827 28.2814 35.0877 27.9921C35.1954 27.8397 35.4259 27.6883 35.6088 27.6793C36.3408 27.6423 37.075 27.6513 37.8081 27.6614C43.2049 27.7354 47.5281 31.701 47.6636 36.7868C47.7412 39.7142 47.6775 42.6461 47.6775 45.5489C54.4085 40.0584 57.437 30.4408 54.0043 21.561C50.5462 12.6094 41.2222 6.40358 30.4599 7.52365C20.968 8.51142 12.4929 15.5962 10.787 25.6152C9.99602 30.2626 10.7083 34.7215 12.8844 38.9428C14.1953 41.4868 15.9591 43.6933 18.2464 45.624V45.6251ZM31.6562 30.5361C31.6273 30.5967 31.6006 30.6281 31.5971 30.6606C31.3041 33.9333 31.0077 37.205 30.7332 40.4789C30.717 40.6683 30.8328 40.9172 30.9718 41.0608C31.4871 41.59 32.0488 42.0777 32.5723 42.6002C32.8259 42.8535 33.0181 42.8872 33.2857 42.6136C33.8022 42.0844 34.3627 41.5945 34.8677 41.0563C35.0159 40.8982 35.1201 40.6224 35.1016 40.4116C34.863 37.7162 34.599 35.022 34.3372 32.3278C34.2782 31.7257 34.2029 31.1248 34.1369 30.535H31.655L31.6562 30.5361Z" fill="#FFA054"/>
<path d="M32.9371 59.9998C26.2605 59.9998 19.584 59.9998 12.9063 59.9998C11.5757 59.9998 10.853 59.3304 10.8484 58.0534C10.8391 54.8961 10.8391 51.7377 10.8484 48.5804C10.8519 47.3807 11.5965 46.6632 12.8322 46.6632C26.2432 46.6598 39.6553 46.6598 53.0662 46.6632C54.2371 46.6632 54.991 47.3639 54.998 48.5087C55.0165 51.7411 55.0165 54.9734 55.0014 58.2058C54.9968 59.3113 54.2359 59.9986 53.0824 59.9986C46.3677 60.0009 39.6518 59.9986 32.9371 59.9986V59.9998ZM42.9837 56.1978C42.8714 55.5632 42.7521 55.0396 42.7 54.5093C42.6803 54.3097 42.7636 54.0485 42.8991 53.8982C43.264 53.4968 43.682 53.1414 44.1638 52.6862C43.4898 52.5853 42.9212 52.527 42.3699 52.4026C42.1649 52.3555 41.9356 52.1862 41.8267 52.0101C41.5465 51.5549 41.3264 51.065 41.0334 50.4943C40.7404 51.0627 40.5285 51.5437 40.2494 51.9843C40.1289 52.1738 39.8869 52.3566 39.6669 52.4093C39.1353 52.536 38.584 52.5842 37.9436 52.6784C38.3964 53.1201 38.8064 53.4767 39.155 53.8825C39.2997 54.0507 39.3935 54.3276 39.3762 54.5452C39.3333 55.0777 39.2129 55.6047 39.1121 56.2045C39.6726 55.9276 40.1544 55.6506 40.6686 55.4544C40.8979 55.367 41.2234 55.3703 41.4538 55.4578C41.9472 55.645 42.4081 55.913 42.9825 56.1989L42.9837 56.1978ZM19.9743 52.6851C19.2957 52.5887 18.7444 52.5461 18.2163 52.4171C17.98 52.3588 17.7206 52.1671 17.5921 51.9642C17.3141 51.528 17.1126 51.0459 16.8335 50.4909C16.5926 50.9562 16.3645 51.306 16.2255 51.6872C16.017 52.2579 15.6291 52.4855 15.0211 52.499C14.6134 52.5079 14.2092 52.6122 13.8421 52.6683C14.2382 53.0921 14.6296 53.4755 14.9724 53.8971C15.1033 54.0574 15.1971 54.3108 15.1786 54.5104C15.1299 55.0553 15.0118 55.5935 14.9099 56.209C15.4137 55.9579 15.8607 55.7785 16.2591 55.5262C16.6922 55.2526 17.0617 55.3008 17.4763 55.5453C17.8608 55.7729 18.2777 55.95 18.778 56.1989C18.6633 55.5621 18.5417 55.0385 18.4896 54.5082C18.4699 54.3086 18.5591 54.0462 18.6958 53.8971C19.0617 53.4991 19.4798 53.147 19.9743 52.6862V52.6851ZM24.7423 50.5055C24.455 51.0538 24.191 51.5 23.986 51.9709C23.8586 52.2635 23.6791 52.4014 23.3606 52.4373C22.8186 52.4979 22.279 52.5864 21.6246 52.6784C22.096 53.1246 22.5083 53.4632 22.8476 53.859C23.0062 54.044 23.1047 54.3478 23.0873 54.5889C23.0526 55.1001 22.9252 55.6069 22.8175 56.2157C23.4035 55.9197 23.8806 55.6417 24.3913 55.4376C24.6056 55.3524 24.916 55.3547 25.1314 55.4399C25.6479 55.6428 26.1343 55.9164 26.7029 56.1967C26.6045 55.6708 26.5651 55.2392 26.4366 54.8344C26.2768 54.3366 26.4076 53.9868 26.8141 53.665C27.1592 53.3914 27.4569 53.0629 27.8587 52.6795C27.165 52.5786 26.6126 52.5259 26.0764 52.4048C25.8737 52.3588 25.6479 52.1873 25.539 52.0113C25.2576 51.5561 25.0341 51.0672 24.7423 50.5044V50.5055ZM52.0645 52.6761C51.3777 52.5797 50.8253 52.5304 50.2902 52.4115C50.0864 52.3656 49.8582 52.1951 49.7494 52.0191C49.4668 51.5639 49.2456 51.0739 48.9514 50.5044C48.699 50.9865 48.4442 51.3587 48.3041 51.7691C48.1199 52.3061 47.7238 52.4373 47.2212 52.4878C46.7974 52.5304 46.3758 52.6066 45.8384 52.6851C46.2762 53.1011 46.5982 53.4464 46.9618 53.7435C47.2965 54.0171 47.3984 54.303 47.2872 54.7201C47.1656 55.1775 47.1239 55.6551 47.0348 56.2056C47.5304 55.9567 47.9543 55.7773 48.3411 55.5408C48.7604 55.284 49.1298 55.2549 49.5618 55.5251C49.9636 55.7762 50.4118 55.959 50.9249 56.2135C50.8033 55.6204 50.7152 55.1461 50.6075 54.6775C50.5265 54.3209 50.5879 54.0406 50.8936 53.7872C51.27 53.4755 51.6058 53.1168 52.0656 52.6772L52.0645 52.6761ZM34.6233 56.2079C34.4994 55.5823 34.3662 55.0766 34.3141 54.562C34.2921 54.3433 34.3743 54.0496 34.5237 53.8915C34.8931 53.5013 35.3274 53.1706 35.7362 52.8163C35.7015 52.7625 35.6667 52.7098 35.632 52.6559C35.1062 52.5842 34.5804 52.5057 34.0535 52.4418C33.7466 52.4048 33.5462 52.2893 33.4154 51.9855C33.2115 51.5112 32.9394 51.065 32.6487 50.5145C32.4171 50.9551 32.1866 51.3004 32.0476 51.6771C31.8392 52.2433 31.4593 52.4799 30.8501 52.4956C30.4471 52.5057 30.0464 52.6133 29.5658 52.6896C29.9549 53.0708 30.234 53.4139 30.5826 53.6673C31.0412 54.0014 31.0771 54.4028 30.9706 54.886C30.8814 55.2874 30.8258 55.6944 30.7355 56.2079C31.3064 55.922 31.7593 55.7168 32.1901 55.4746C32.5225 55.2874 32.805 55.265 33.1502 55.4724C33.5891 55.7359 34.0685 55.9354 34.6233 56.2079Z" fill="#FFA054"/>
<path d="M42.9824 56.1983C42.408 55.9135 41.9471 55.6444 41.4537 55.4572C41.2233 55.3697 40.8978 55.3664 40.6685 55.4538C40.1543 55.65 39.6725 55.9281 39.112 56.2039C39.2128 55.6029 39.3332 55.0771 39.3761 54.5445C39.3934 54.327 39.2996 54.0501 39.1549 53.8819C38.8051 53.4771 38.3963 53.1206 37.9435 52.6777C38.5828 52.5836 39.1352 52.5353 39.6668 52.4087C39.8868 52.356 40.1288 52.1732 40.2493 51.9837C40.5284 51.5431 40.7403 51.0621 41.0333 50.4937C41.3263 51.0643 41.5464 51.5543 41.8266 52.0095C41.9355 52.1867 42.1648 52.356 42.3698 52.4019C42.9211 52.5275 43.4897 52.5847 44.1637 52.6856C43.6819 53.1408 43.2639 53.4962 42.899 53.8976C42.7635 54.0467 42.6802 54.3091 42.6998 54.5086C42.7508 55.039 42.8713 55.5626 42.9836 56.1972L42.9824 56.1983Z" fill="white"/>
<path d="M19.9731 52.6855C19.4786 53.1463 19.0606 53.4984 18.6946 53.8964C18.5579 54.0455 18.4688 54.3079 18.4884 54.5075C18.5406 55.0378 18.6633 55.5614 18.7768 56.1982C18.2754 55.9493 17.8596 55.7722 17.4751 55.5446C17.0605 55.299 16.6911 55.2508 16.2579 55.5255C15.8595 55.7778 15.4125 55.9572 14.9087 56.2083C15.0118 55.5928 15.1288 55.0535 15.1774 54.5097C15.1959 54.3101 15.1021 54.0579 14.9713 53.8964C14.6285 53.4748 14.237 53.0914 13.8409 52.6676C14.2069 52.6115 14.6122 52.5073 15.0199 52.4983C15.6279 52.4848 16.0159 52.2572 16.2243 51.6865C16.3633 51.3053 16.5915 50.9555 16.8323 50.4902C17.1115 51.0452 17.313 51.5273 17.5909 51.9635C17.7206 52.1664 17.9789 52.3593 18.2151 52.4164C18.7432 52.5454 19.2945 52.5869 19.9731 52.6844V52.6855Z" fill="white"/>
<path d="M24.7411 50.5063C25.0329 51.0692 25.2553 51.558 25.5378 52.0132C25.6467 52.1893 25.8725 52.3608 26.0752 52.4068C26.6102 52.529 27.1627 52.5806 27.8575 52.6815C27.4557 53.0649 27.158 53.3934 26.8129 53.667C26.4064 53.9888 26.2756 54.3386 26.4354 54.8364C26.5651 55.24 26.6033 55.6717 26.7017 56.1986C26.1331 55.9183 25.6467 55.6448 25.1302 55.4418C24.9148 55.3577 24.6044 55.3544 24.3901 55.4396C23.8806 55.6437 23.4023 55.9217 22.8163 56.2177C22.924 55.6078 23.0514 55.1021 23.0861 54.5909C23.1023 54.3498 23.0039 54.046 22.8464 53.861C22.5071 53.4652 22.0959 53.1266 21.6234 52.6803C22.2777 52.5873 22.8174 52.4998 23.3594 52.4393C23.6779 52.4034 23.8574 52.2655 23.9848 51.9729C24.1898 51.502 24.4538 51.0557 24.7411 50.5075V50.5063Z" fill="white"/>
<path d="M52.0632 52.6768C51.6046 53.1163 51.2688 53.4751 50.8912 53.7868C50.5855 54.0401 50.5241 54.3204 50.6052 54.677C50.7129 55.1468 50.8009 55.6199 50.9225 56.213C50.4106 55.9585 49.9624 55.7758 49.5594 55.5246C49.1274 55.2544 48.7591 55.2836 48.3387 55.5403C47.9519 55.7769 47.5281 55.9563 47.0324 56.2052C47.1216 55.6547 47.1633 55.177 47.2849 54.7196C47.396 54.3025 47.2941 54.0155 46.9594 53.743C46.5958 53.4459 46.2727 53.1006 45.8361 52.6846C46.3734 52.6061 46.7938 52.5299 47.2188 52.4873C47.7215 52.4368 48.1175 52.3057 48.3017 51.7686C48.4418 51.3583 48.6978 50.9849 48.9491 50.5039C49.2432 51.0735 49.4656 51.5634 49.747 52.0186C49.8559 52.1947 50.084 52.3662 50.2878 52.4111C50.8229 52.5299 51.3753 52.5792 52.0621 52.6757L52.0632 52.6768Z" fill="white"/>
<path d="M34.6233 56.2086C34.0685 55.9361 33.5879 55.7365 33.1502 55.4731C32.805 55.2656 32.5225 55.2881 32.1901 55.4753C31.7593 55.7175 31.3076 55.9226 30.7355 56.2086C30.8247 55.6962 30.8814 55.2881 30.9706 54.8867C31.0783 54.4034 31.0412 54.002 30.5826 53.6679C30.234 53.4145 29.9561 53.0715 29.5658 52.6902C30.0464 52.614 30.4471 52.5064 30.8501 52.4963C31.4593 52.4806 31.8392 52.244 32.0476 51.6778C32.1866 51.3011 32.4171 50.9558 32.6487 50.5151C32.9405 51.0645 33.2115 51.5119 33.4154 51.9861C33.5451 52.29 33.7454 52.4055 34.0535 52.4425C34.5804 52.5064 35.1062 52.5849 35.632 52.6566C35.6667 52.7104 35.7015 52.7631 35.7362 52.8169C35.3274 53.1712 34.892 53.5031 34.5237 53.8922C34.3743 54.0503 34.2909 54.344 34.3141 54.5626C34.3662 55.0773 34.5005 55.5829 34.6233 56.2086Z" fill="white"/>
<path d="M41.111 19.1965C41.1156 23.5479 37.4247 27.1357 32.9521 27.129C28.4169 27.1223 24.7526 23.5748 24.7468 19.1842C24.741 14.7981 28.4319 11.2103 32.9347 11.2271C37.4687 11.2439 41.1075 14.7891 41.1121 19.1977L41.111 19.1965Z" fill="#FFA054"/>
</g>
<defs>
<clipPath id="clip0_254_11586">
<rect width="47.8636" height="54" fill="white" transform="translate(9 6)"/>
</clipPath>
</defs>
</svg>
