<svg width="362" height="272" viewBox="0 0 362 272" fill="none" xmlns="http://www.w3.org/2000/svg">
<g clip-path="url(#clip0_508_155)">
<g opacity="0.2" filter="url(#filter0_f_508_155)">
</g>
<path d="M223.939 148.951L342.54 145.68C352.779 145.397 361.23 153.61 361.23 163.838V252.567C361.23 262.792 352.782 271.004 342.546 270.725L222.691 267.458C212.736 267.186 204.851 258.968 205.002 249.023L206.255 166.832C206.403 157.104 214.2 149.219 223.939 148.951Z" fill="#282E4D"/>
<path d="M342.54 145.68L223.939 148.951C214.2 149.219 206.403 157.104 206.255 166.832L205.002 249.023C204.851 258.968 212.736 267.186 222.691 267.458L342.546 270.725C352.782 271.004 361.23 262.792 361.23 252.567V163.838C361.23 153.61 352.779 145.397 342.54 145.68ZM342.54 145.68L342.526 145.18" stroke="url(#paint0_linear_508_155)"/>
<path d="M307.209 200.171H306.988C306.044 197.124 304.561 194.344 302.65 191.93C302.646 191.925 302.643 191.919 302.639 191.915C297.879 185.911 290.529 182.158 282.53 182.158C274.532 182.158 267.182 185.911 262.422 191.915C262.417 191.919 262.416 191.925 262.411 191.93C260.5 194.344 259.018 197.124 258.073 200.171H257.851C255.757 200.171 254.054 201.873 254.054 203.964V211.548C254.054 213.639 255.757 215.34 257.851 215.34H258.073C259.017 218.387 260.5 221.167 262.411 223.582C262.415 223.587 262.417 223.592 262.422 223.597C267.182 229.601 274.532 233.353 282.53 233.353C290.529 233.353 297.879 229.601 302.639 223.597C302.643 223.592 302.645 223.587 302.65 223.582C304.561 221.167 306.043 218.387 306.988 215.34H307.209C309.303 215.34 311.007 213.639 311.007 211.548V203.964C311.007 201.873 309.303 200.171 307.209 200.171ZM301.485 193.535C302.982 195.517 304.175 197.746 304.994 200.171H294.312C293.964 197.769 293.466 195.541 292.834 193.535H301.485ZM299.904 191.639H292.18C291.048 188.686 289.605 186.333 287.962 184.7C292.572 185.79 296.723 188.23 299.904 191.639ZM283.48 184.169C286.004 184.729 288.367 187.487 290.101 191.639H283.48V184.169ZM283.48 193.535H290.811C291.486 195.526 292.026 197.758 292.393 200.171H283.48V193.535ZM281.581 184.169V191.639H274.96C276.694 187.487 279.056 184.729 281.581 184.169ZM281.581 193.535V200.171H272.668C273.035 197.758 273.575 195.526 274.25 193.535H281.581ZM277.099 184.7C275.456 186.333 274.012 188.686 272.881 191.639H265.157C268.338 188.23 272.489 185.79 277.099 184.7ZM263.576 193.535H272.226C271.595 195.541 271.097 197.769 270.749 200.171H260.066C260.886 197.746 262.079 195.517 263.576 193.535ZM263.576 221.976C262.079 219.995 260.886 217.765 260.066 215.34H270.749C271.097 217.742 271.595 219.97 272.226 221.976H263.576ZM265.157 223.873H272.881C274.012 226.826 275.456 229.179 277.099 230.812C272.489 229.722 268.338 227.281 265.157 223.873ZM281.581 231.342C279.056 230.782 276.694 228.024 274.96 223.872H281.581V231.342ZM281.581 221.976H274.25C273.575 219.985 273.034 217.754 272.668 215.34H281.581V221.976ZM283.48 231.342V223.872H290.101C288.367 228.024 286.004 230.782 283.48 231.342ZM283.48 221.976V215.34H292.393C292.026 217.754 291.486 219.985 290.811 221.976H283.48ZM287.962 230.812C289.605 229.179 291.048 226.826 292.18 223.872H299.904C296.723 227.281 292.572 229.722 287.962 230.812ZM301.485 221.976H292.834C293.466 219.97 293.964 217.742 294.312 215.34H304.994C304.175 217.765 302.981 219.995 301.485 221.976ZM309.108 211.548C309.108 212.593 308.257 213.444 307.209 213.444H257.851C256.804 213.444 255.952 212.593 255.952 211.548V203.963C255.952 202.918 256.804 202.067 257.851 202.067H306.296L306.298 202.068C306.298 202.068 306.3 202.067 306.302 202.067H307.209C308.257 202.067 309.108 202.918 309.108 203.963V211.548Z" fill="#CF95FB"/>
<path d="M273.339 204.011C272.841 203.844 272.303 204.114 272.138 204.611L270.892 208.344L269.107 205.371C268.763 204.8 267.822 204.8 267.479 205.371L265.693 208.344L264.447 204.611C264.282 204.114 263.746 203.844 263.246 204.011C262.748 204.178 262.48 204.714 262.646 205.211L264.544 210.9C264.662 211.251 264.973 211.501 265.342 211.542C265.705 211.58 266.068 211.404 266.259 211.087L268.292 207.702L270.326 211.087C270.499 211.375 270.809 211.547 271.14 211.547C271.175 211.547 271.209 211.546 271.243 211.542C271.612 211.501 271.923 211.251 272.041 210.9L273.939 205.211C274.105 204.714 273.836 204.178 273.339 204.011Z" fill="#CF95FB"/>
<path d="M287.577 204.011C287.077 203.844 286.541 204.114 286.376 204.611L285.13 208.344L283.345 205.371C283.001 204.8 282.06 204.8 281.717 205.371L279.931 208.344L278.685 204.611C278.519 204.114 277.983 203.844 277.484 204.011C276.987 204.178 276.718 204.714 276.884 205.211L278.782 210.9C278.9 211.251 279.211 211.501 279.58 211.542C279.944 211.58 280.306 211.404 280.497 211.087L282.531 207.702L284.564 211.087C284.737 211.375 285.047 211.547 285.378 211.547C285.413 211.547 285.448 211.546 285.481 211.542C285.85 211.501 286.161 211.251 286.279 210.9L288.177 205.211C288.343 204.714 288.074 204.178 287.577 204.011Z" fill="#CF95FB"/>
<path d="M301.815 204.011C301.317 203.844 300.779 204.114 300.614 204.611L299.368 208.344L297.583 205.371C297.239 204.8 296.298 204.8 295.955 205.371L294.169 208.344L292.923 204.611C292.758 204.114 292.222 203.844 291.722 204.011C291.225 204.178 290.956 204.714 291.122 205.211L293.02 210.9C293.138 211.251 293.449 211.501 293.818 211.542C294.182 211.58 294.544 211.404 294.735 211.087L296.769 207.702L298.802 211.087C298.975 211.375 299.285 211.547 299.616 211.547C299.651 211.547 299.686 211.546 299.719 211.542C300.088 211.501 300.399 211.251 300.517 210.9L302.415 205.211C302.581 204.714 302.313 204.178 301.815 204.011Z" fill="#CF95FB"/>
<path d="M223.939 13.854L342.54 10.583C352.779 10.3 361.23 18.513 361.23 28.741V117.47C361.23 127.696 352.782 135.908 342.546 135.628L222.691 132.361C212.736 132.089 204.851 123.871 205.002 113.926L206.255 31.735C206.403 22.007 214.2 14.122 223.939 13.854Z" fill="#282E4D"/>
<path d="M342.54 10.583L223.939 13.854C214.2 14.122 206.403 22.007 206.255 31.735L205.002 113.926C204.851 123.871 212.736 132.089 222.691 132.361L342.546 135.628C352.782 135.908 361.23 127.696 361.23 117.47V28.741C361.23 18.513 352.779 10.3 342.54 10.583ZM342.54 10.583L342.526 10.083" stroke="url(#paint1_linear_508_155)"/>
<mask id="mask0_508_155" style="mask-type:luminance" maskUnits="userSpaceOnUse" x="228" y="61" width="109" height="24">
<path d="M336.996 61.1035H228.248V84.9985H336.996V61.1035Z" fill="white"/>
</mask>
<g mask="url(#mask0_508_155)">
<path d="M237.238 66.9485H244.034L242.981 70.9255C242.82 71.4795 242.52 71.9245 242.079 72.2605C241.638 72.5975 241.127 72.7655 240.546 72.7655H237.389C236.667 72.7655 236.03 72.9725 235.479 73.3885C234.927 73.8035 234.542 74.3685 234.321 75.0805C234.181 75.6145 234.165 76.1195 234.276 76.5935C234.386 77.0685 234.581 77.4885 234.862 77.8555C235.143 78.2215 235.504 78.5125 235.945 78.7305C236.386 78.9485 236.867 79.0565 237.389 79.0565H239.312C239.674 79.0565 239.969 79.2005 240.2 79.4865C240.43 79.7735 240.495 80.0955 240.395 80.4515L239.192 84.8435H237.088C235.644 84.8435 234.316 84.5315 233.103 83.9085C231.89 83.2855 230.883 82.4595 230.081 81.4305C229.279 80.4025 228.733 79.2295 228.443 77.9145C228.152 76.5995 228.186 75.2485 228.548 73.8635L228.668 73.4185C228.928 72.4685 229.334 71.5935 229.886 70.7915C230.437 69.9905 231.088 69.3085 231.84 68.7445C232.592 68.1805 233.429 67.7405 234.351 67.4245C235.273 67.1075 236.235 66.9485 237.238 66.9485ZM240.666 84.8435L246.59 62.9425C246.75 62.3895 247.051 61.9435 247.491 61.6075C247.933 61.2705 248.444 61.1035 249.026 61.1035H255.31C256.753 61.1035 258.081 61.4145 259.295 62.0385C260.507 62.6615 261.514 63.4875 262.317 64.5155C263.118 65.5445 263.669 66.7165 263.97 68.0325C264.271 69.3485 264.231 70.6985 263.85 72.0835L263.73 72.5285C263.469 73.4775 263.069 74.3535 262.527 75.1535C261.986 75.9555 261.34 76.6435 260.588 77.2165C259.836 77.7915 258.998 78.2365 258.077 78.5515C257.155 78.8695 256.192 79.0275 255.19 79.0275H249.747L250.829 75.0205C250.989 74.4865 251.29 74.0515 251.732 73.7155C252.172 73.3795 252.684 73.2115 253.265 73.2115H255.009C255.731 73.2115 256.378 72.9935 256.949 72.5575C257.52 72.1235 257.896 71.5585 258.077 70.8665C258.216 70.3725 258.231 69.8865 258.122 69.4125C258.012 68.9375 257.816 68.5175 257.535 68.1515C257.254 67.7845 256.894 67.4885 256.452 67.2605C256.012 67.0335 255.531 66.9195 255.009 66.9195H251.642L247.251 83.0335C247.09 83.5675 246.79 84.0025 246.349 84.3385C245.908 84.6755 245.406 84.8435 244.846 84.8435H240.666ZM278.163 73.1515L278.254 72.8245C278.294 72.6675 278.269 72.5325 278.178 72.4245C278.088 72.3165 277.963 72.2605 277.803 72.2605H268.03C267.609 72.2605 267.227 72.1725 266.887 71.9945C266.546 71.8155 266.265 71.5835 266.045 71.2965C265.824 71.0105 265.673 70.6785 265.594 70.3025C265.513 69.9265 265.523 69.5415 265.624 69.1445L266.225 66.8895H279.457C280.278 66.8895 281.03 67.0675 281.712 67.4245C282.393 67.7795 282.959 68.2455 283.411 68.8185C283.862 69.3925 284.172 70.0505 284.343 70.7915C284.513 71.5335 284.498 72.3005 284.298 73.0915L281.922 81.8165C281.681 82.7065 281.196 83.4295 280.464 83.9835C279.732 84.5375 278.895 84.8145 277.953 84.8145L268.18 84.7845C267.318 84.7845 266.526 84.6005 265.804 84.2345C265.083 83.8695 264.492 83.3855 264.03 82.7805C263.569 82.1785 263.249 81.4855 263.068 80.7035C262.888 79.9225 262.908 79.1265 263.128 78.3145L263.248 77.8705C263.388 77.3165 263.624 76.8015 263.955 76.3265C264.286 75.8515 264.671 75.4465 265.113 75.1095C265.553 74.7735 266.045 74.5115 266.586 74.3235C267.128 74.1355 267.699 74.0415 268.3 74.0415H276.51L275.908 76.2675C275.748 76.8015 275.447 77.2365 275.006 77.5735C274.565 77.9095 274.063 78.0775 273.503 78.0775H269.834C269.493 78.0775 269.272 78.2465 269.172 78.5825C269.112 78.7995 269.152 78.9925 269.293 79.1605C269.432 79.3285 269.613 79.4135 269.834 79.4135H275.758C275.978 79.4135 276.169 79.3535 276.329 79.2345C276.489 79.1165 276.59 78.9585 276.63 78.7595L276.69 78.5225L278.163 73.1515ZM295.664 66.9485C297.127 66.9485 298.466 67.2605 299.678 67.8835C300.891 68.5065 301.899 69.3335 302.701 70.3615C303.502 71.3905 304.049 72.5685 304.34 73.8925C304.63 75.2185 304.585 76.5745 304.204 77.9595L302.701 83.5385C302.6 83.9335 302.385 84.2495 302.054 84.4875C301.723 84.7245 301.358 84.8435 300.956 84.8435H297.709C297.328 84.8435 297.028 84.7005 296.807 84.4135C296.586 84.1265 296.526 83.8045 296.627 83.4495L298.431 76.7125C298.571 76.2175 298.586 75.7335 298.476 75.2575C298.365 74.7835 298.17 74.3625 297.89 73.9965C297.609 73.6315 297.248 73.3345 296.807 73.1075C296.365 72.8795 295.885 72.7655 295.363 72.7655H291.996L289.079 83.5385C288.979 83.9335 288.763 84.2495 288.432 84.4875C288.101 84.7245 287.726 84.8435 287.305 84.8435H284.087C283.726 84.8435 283.43 84.7005 283.201 84.4135C282.97 84.1265 282.904 83.8045 283.005 83.4495L287.455 66.9485H295.664ZM313.375 72.6025C313.135 72.7905 312.964 73.0325 312.865 73.3295L311.511 78.3745C311.431 78.6515 311.482 78.9085 311.662 79.1455C311.842 79.3825 312.082 79.5015 312.383 79.5015H324.833L323.871 83.0335C323.71 83.5675 323.409 84.0025 322.968 84.3385C322.527 84.6755 322.026 84.8435 321.465 84.8435H310.128C309.306 84.8435 308.554 84.6705 307.873 84.3245C307.191 83.9775 306.625 83.5135 306.174 82.9295C305.722 82.3465 305.412 81.6835 305.242 80.9405C305.071 80.1995 305.096 79.4425 305.317 78.6705L307.151 71.9345C307.351 71.2035 307.662 70.5305 308.083 69.9165C308.504 69.3035 309.001 68.7795 309.572 68.3445C310.143 67.9085 310.784 67.5685 311.496 67.3205C312.208 67.0735 312.944 66.9495 313.707 66.9495H321.735C322.557 66.9495 323.309 67.1275 323.991 67.4835C324.672 67.8395 325.239 68.3045 325.69 68.8785C326.141 69.4525 326.446 70.1145 326.607 70.8665C326.767 71.6185 326.747 72.3805 326.547 73.1515L326.006 75.1695C325.765 76.0595 325.279 76.7765 324.547 77.3205C323.815 77.8645 322.988 78.1365 322.066 78.1365H312.985L313.586 75.9405C313.726 75.4065 314.017 74.9715 314.459 74.6345C314.899 74.2985 315.41 74.1305 315.992 74.1305H319.661C320.002 74.1305 320.221 73.9625 320.322 73.6265L320.442 73.1805C320.503 72.9635 320.462 72.7655 320.322 72.5875C320.181 72.4095 320.002 72.3205 319.781 72.3205H314.188C313.887 72.3205 313.617 72.4145 313.375 72.6025ZM324.802 84.8435L330.847 62.4375C330.946 62.0435 331.162 61.7215 331.493 61.4735C331.824 61.2265 332.199 61.1035 332.62 61.1035H335.838C336.219 61.1035 336.524 61.2465 336.755 61.5335C336.985 61.8205 337.051 62.1425 336.95 62.4975L332.44 79.0275C332.219 79.8985 331.864 80.6885 331.372 81.4015C330.881 82.1135 330.3 82.7225 329.628 83.2265C328.956 83.7305 328.21 84.1265 327.388 84.4135C326.566 84.7005 325.704 84.8435 324.802 84.8435Z" fill="#EE6741"/>
</g>
<path d="M27.3891 33.5123C27.5371 23.7843 35.3341 15.9003 45.0721 15.6313L163.674 12.3613C173.912 12.0783 182.364 20.2913 182.364 30.5183V112.985C182.364 122.89 174.419 130.969 164.502 131.147L44.6601 133.289C34.3801 133.474 25.9931 125.117 26.1491 114.851L27.3891 33.5123Z" fill="#282E4D"/>
<path d="M163.674 12.3613L45.0721 15.6313C35.3341 15.9003 27.5371 23.7843 27.3891 33.5123L26.1491 114.851C25.9931 125.117 34.3801 133.474 44.6601 133.289M163.674 12.3613L163.66 11.8613M163.674 12.3613C173.912 12.0783 182.364 20.2913 182.364 30.5183V112.985C182.364 122.89 174.419 130.969 164.502 131.147L44.6601 133.289M44.6601 133.289L44.6691 133.789" stroke="url(#paint2_linear_508_155)"/>
<mask id="mask1_508_155" style="mask-type:luminance" maskUnits="userSpaceOnUse" x="75" y="44" width="59" height="59">
<path d="M133.912 44.2168H75.188V102.006H133.912V44.2168Z" fill="white"/>
</mask>
<g mask="url(#mask1_508_155)">
<path d="M79.583 73.1946C79.583 82.9316 85.333 91.3456 93.671 95.3336L81.747 63.1836C80.36 66.2426 79.583 69.6286 79.583 73.1946Z" fill="#1284C4"/>
<path d="M121.455 71.9527C121.455 68.9127 120.345 66.8077 119.394 65.1687C118.127 63.1427 116.939 61.4257 116.939 59.4007C116.939 57.1387 118.682 55.0337 121.136 55.0337C121.248 55.0337 121.353 55.0477 121.46 55.0537C117.014 51.0437 111.088 48.5967 104.58 48.5967C95.8478 48.5967 88.1648 53.0057 83.6958 59.6837C84.2818 59.7007 84.8348 59.7137 85.3038 59.7137C87.9178 59.7137 91.9648 59.4017 91.9648 59.4017C93.3128 59.3237 93.4718 61.2707 92.1258 61.4267C92.1258 61.4267 90.7718 61.5847 89.2648 61.6617L98.3678 88.3067L103.838 72.1617L99.9438 61.6607C98.5978 61.5837 97.3218 61.4257 97.3218 61.4257C95.9748 61.3487 96.1328 59.3227 97.4798 59.4007C97.4798 59.4007 101.608 59.7127 104.064 59.7127C106.679 59.7127 110.727 59.4007 110.727 59.4007C112.075 59.3227 112.233 61.2697 110.887 61.4257C110.887 61.4257 109.53 61.5837 108.026 61.6607L117.059 88.1047L119.552 79.9047C120.633 76.5027 121.455 74.0587 121.455 71.9527Z" fill="#1284C4"/>
<path d="M105.018 75.3467L97.5181 96.7927C99.7571 97.4407 102.125 97.7957 104.579 97.7957C107.49 97.7957 110.282 97.2997 112.88 96.4007C112.812 96.2957 112.752 96.1837 112.702 96.0617L105.018 75.3467Z" fill="#1284C4"/>
<path d="M126.512 61.3936C126.62 62.1766 126.681 63.0176 126.681 63.9226C126.681 66.4186 126.207 69.2246 124.78 72.7336L117.144 94.4586C124.576 90.1936 129.574 82.2696 129.574 73.1956C129.575 68.9186 128.465 64.8966 126.512 61.3936Z" fill="#1284C4"/>
<path d="M104.579 44.5205C88.5119 44.5205 75.4399 57.3835 75.4399 73.1945C75.4399 89.0075 88.5119 101.871 104.579 101.871C120.645 101.871 133.719 89.0075 133.719 73.1945C133.718 57.3835 120.645 44.5205 104.579 44.5205ZM104.579 100.556C89.2489 100.556 76.7769 88.2815 76.7769 73.1945C76.7769 58.1085 89.2479 45.8355 104.579 45.8355C119.908 45.8355 132.38 58.1085 132.38 73.1945C132.38 88.2815 119.908 100.556 104.579 100.556Z" fill="#1284C4"/>
</g>
<path d="M27.3811 167.5C27.5321 157.571 35.6391 149.603 45.5841 149.612L164.194 149.727C174.232 149.736 182.364 157.867 182.364 167.892V246.455C182.364 256.359 174.419 264.439 164.502 264.616L44.6601 266.759C34.3801 266.943 25.9931 258.587 26.1491 248.321L27.3811 167.5Z" fill="#282E4D"/>
<path d="M44.6601 266.759L164.502 264.616C174.419 264.439 182.364 256.359 182.364 246.455V167.892C182.364 157.867 174.232 149.736 164.194 149.727L45.5841 149.612C35.6391 149.603 27.5321 157.571 27.3811 167.5L26.1491 248.321C25.9931 258.587 34.3801 266.943 44.6601 266.759ZM44.6601 266.759L44.6691 267.259" stroke="url(#paint3_linear_508_155)"/>
<path d="M74.2789 201.474L75.7499 204.538C76.6549 206.521 77.3389 208.616 77.6249 210.777C77.9089 212.937 77.7839 215.18 77.1079 217.239C76.3419 219.577 74.8929 221.658 73.1169 223.361C71.0159 225.377 68.316 226.93 65.407 227.043C63.509 227.117 61.6209 226.576 59.9429 225.693C58.5309 224.952 57.2419 223.962 56.2139 222.744C55.1859 221.527 54.4219 220.077 54.0689 218.522C53.6329 216.611 53.829 214.579 54.489 212.73C54.959 211.409 55.6579 210.177 56.1549 208.865C56.6979 207.431 57.0029 205.899 57.7219 204.546C58.3749 203.318 59.3519 202.269 59.8719 200.98C60.1829 200.21 60.3169 199.381 60.5179 198.577C60.7189 197.773 60.999 196.959 61.545 196.334C62.204 195.581 63.1929 195.171 64.1899 195.056C65.1879 194.942 66.1919 195.096 67.1689 195.319C67.9459 195.496 68.7139 195.717 69.4659 195.983C70.1079 196.211 70.742 196.477 71.299 196.87C72.053 197.408 72.6299 198.164 73.0889 198.967C73.5479 199.771 73.8989 200.632 74.2829 201.474H74.2789Z" fill="#FFA054"/>
<path d="M65.9248 227.06L68.3148 227.291L70.3858 227.699C71.4578 227.959 72.5268 228.279 73.6278 228.321C73.9178 228.329 74.2108 228.317 74.4948 228.255C74.7808 228.196 75.0488 228.073 75.2798 227.896C75.6188 227.626 75.8328 227.218 75.9128 226.795C75.9938 226.371 75.9438 225.926 75.8208 225.514C75.5718 224.685 75.0378 223.978 74.5948 223.236L73.8408 221.955C73.5658 221.543 73.2378 221.156 72.8198 220.889C72.2438 220.519 71.5288 220.397 70.8458 220.465C70.1618 220.534 69.5088 220.778 68.8988 221.095C68.0448 221.535 67.2408 222.142 66.7758 222.983C66.6138 223.275 66.4978 223.59 66.3588 223.895C66.2198 224.199 66.0608 224.5 65.8278 224.741C65.5678 225.007 65.2298 225.188 64.9608 225.447C64.8258 225.575 64.7088 225.725 64.6398 225.9C64.5698 226.073 64.5538 226.27 64.6158 226.446C64.6618 226.566 64.7368 226.673 64.8348 226.755C64.9338 226.837 65.0468 226.9 65.1688 226.941C65.4098 227.026 65.6698 227.038 65.9248 227.053V227.06Z" fill="#FFA054"/>
<path d="M63.5613 227.01C62.8953 227.025 62.2373 227.144 61.5843 227.278L59.7232 227.712C58.6842 227.984 57.6432 228.311 56.5682 228.334C56.2852 228.344 56.0023 228.32 55.7253 228.261C55.4503 228.197 55.1823 228.083 54.9613 227.907C54.6133 227.639 54.4103 227.233 54.3293 226.809C54.2493 226.385 54.2973 225.944 54.4223 225.53C54.6683 224.703 55.1973 223.995 55.6303 223.247L56.3612 221.97C56.6282 221.558 56.9483 221.159 57.3593 220.902C57.9183 220.535 58.6153 220.41 59.2813 220.475C59.9473 220.54 60.5843 220.785 61.1723 221.106C62.0013 221.57 62.7582 222.182 63.2362 222.995C63.5842 223.565 63.7673 224.217 64.1603 224.75C64.3713 225.037 64.6383 225.285 64.8143 225.596C64.9063 225.75 64.9632 225.922 64.9812 226.1C64.9972 226.28 64.9583 226.463 64.8593 226.61C64.7923 226.707 64.7023 226.787 64.5993 226.845C64.4953 226.902 64.3823 226.943 64.2673 226.965C64.0343 227.014 63.7973 227.006 63.5613 227.012V227.01ZM59.8293 199.32L59.6102 192.683C59.6542 191.579 59.8343 190.462 60.3253 189.472C60.8193 188.473 61.6102 187.651 62.5892 187.118C63.5172 186.624 64.5612 186.413 65.6022 186.425C67.0142 186.44 68.4303 186.865 69.5733 187.694C70.2903 188.213 70.8942 188.88 71.3692 189.626C71.7762 190.263 72.0912 190.958 72.2882 191.686C72.6942 193.192 72.5983 194.756 72.6763 196.301C72.7523 197.765 72.9863 199.226 72.9063 200.703C72.8893 201.02 72.8543 201.346 72.7133 201.633C72.5673 201.909 72.3433 202.137 72.0703 202.288C71.7963 202.437 71.4983 202.535 71.1893 202.577C70.5743 202.672 69.9493 202.609 69.3283 202.665C68.4313 202.749 67.5742 203.083 66.6842 203.219C65.6212 203.382 64.5383 203.266 63.4663 203.224L62.1913 203.149C61.7643 203.096 61.3373 202.992 60.9573 202.801C60.7253 202.676 60.5083 202.514 60.3343 202.314C60.1603 202.115 60.0263 201.878 59.9593 201.623C59.8563 201.238 59.9032 200.833 59.9122 200.435C59.9212 200.071 59.8973 199.707 59.8413 199.347L59.8293 199.32Z" fill="#FFA054"/>
<path d="M61.5192 198.873C61.5622 199.839 61.3832 200.815 60.9992 201.704C60.7942 202.178 60.5312 202.631 60.2502 203.065C59.7632 203.822 59.2062 204.557 58.9392 205.417C58.7772 205.938 58.7242 206.494 58.7892 207.038C58.2012 207.9 57.6952 208.812 57.2732 209.763C56.6352 211.206 56.1992 212.741 56.0442 214.312C55.8562 216.236 56.1022 218.21 56.8622 219.985C57.4112 221.27 58.2312 222.444 59.2982 223.359C59.8352 223.823 60.4312 224.221 61.0692 224.534C63.2802 225.62 66.0112 225.621 68.1842 224.465C69.3212 223.86 70.2802 222.976 71.2032 222.081C71.7602 221.543 72.3142 220.992 72.7392 220.344C73.5572 219.098 73.8422 217.582 74.0192 216.101C74.3292 213.513 74.3382 210.78 73.2022 208.431C72.8102 207.621 72.2922 206.88 71.6652 206.234C71.4932 205.105 71.1672 204.001 70.6932 202.961L69.6082 200.743C69.3382 200.124 69.1162 199.46 68.6452 198.975C68.1572 198.47 67.4502 198.22 66.7502 198.156C66.0512 198.093 65.3592 198.197 64.6532 198.31L61.5332 198.872L61.5192 198.873Z" fill="#FDFDFB"/>
<g filter="url(#filter1_f_508_155)">
<path d="M61.1788 201.455C61.4258 202.171 61.9238 202.783 62.5138 203.261C62.7088 203.419 62.9179 203.566 63.1479 203.669C63.3779 203.773 63.6318 203.831 63.8828 203.81C64.1298 203.79 64.3639 203.693 64.5789 203.571C64.7939 203.45 64.9948 203.303 65.2028 203.171C65.5608 202.945 65.9438 202.762 66.3148 202.559C66.7638 202.314 67.1978 202.036 67.5738 201.694C67.7468 201.536 67.9078 201.365 68.0988 201.23C68.2898 201.094 68.5178 200.996 68.7508 201.012C68.9258 201.025 69.0898 201.098 69.2618 201.136C69.3488 201.153 69.4358 201.163 69.5218 201.15C69.6098 201.137 69.6938 201.099 69.7548 201.036C69.8288 200.959 69.8608 200.848 69.8558 200.74C69.8508 200.633 69.8148 200.529 69.7638 200.434C69.6648 200.245 69.5128 200.082 69.4448 199.877C69.3848 199.696 69.3968 199.5 69.4018 199.309C69.4078 199.119 69.4028 198.919 69.3148 198.75C69.2478 198.62 69.1348 198.518 69.0068 198.451C68.8778 198.382 68.7338 198.348 68.5888 198.333C68.2988 198.307 68.0088 198.363 67.7178 198.379C67.3318 198.401 66.9438 198.353 66.5588 198.376C66.0778 198.404 65.6058 198.544 65.1248 198.545C64.5748 198.546 64.0248 198.366 63.4808 198.452C63.2478 198.489 63.0248 198.574 62.8018 198.648C62.5778 198.723 62.3458 198.788 62.1108 198.786C61.8428 198.781 61.5829 198.689 61.3159 198.669C61.1819 198.66 61.0449 198.669 60.9199 198.716C60.7939 198.763 60.6808 198.851 60.6188 198.97C60.5838 199.038 60.5668 199.115 60.5628 199.191C60.5588 199.267 60.5698 199.344 60.5888 199.418C60.6258 199.568 60.6938 199.706 60.7488 199.85C60.9508 200.365 60.9948 200.93 61.1748 201.454L61.1788 201.455Z" fill="black" fill-opacity="0.26"/>
</g>
<g opacity="0.3" filter="url(#filter2_f_508_155)">
<path d="M60.4881 199.411C60.9701 199.708 61.4001 200.073 61.7631 200.488C62.0991 200.873 62.3851 201.311 62.8231 201.596C63.1341 201.798 63.5061 201.911 63.8831 201.946C64.3271 201.986 64.7761 201.92 65.2031 201.805C65.5991 201.698 65.9821 201.547 66.3341 201.348C67.0021 200.968 67.5601 200.413 68.2951 200.164C68.4561 200.11 68.6241 200.071 68.7781 200.003C68.9341 199.937 69.0791 199.836 69.1541 199.694C69.2261 199.557 69.2221 199.4 69.2461 199.25C69.2701 199.089 69.3261 198.933 69.3561 198.774C69.3871 198.614 69.3911 198.443 69.3161 198.297C69.2541 198.175 69.1411 198.079 69.0111 198.018C68.8811 197.957 68.7341 197.929 68.5881 197.923C68.2971 197.909 68.0091 197.978 67.7191 198.003C67.3331 198.035 66.9451 197.989 66.5591 198C66.0791 198.013 65.6051 198.114 65.1251 198.134C64.5761 198.158 64.0301 198.078 63.4821 198.06C63.2441 198.053 63.0061 198.057 62.7721 198.094C62.5381 198.132 62.3091 198.204 62.1111 198.325C61.9191 198.443 61.7631 198.602 61.5861 198.739C61.4991 198.807 61.4061 198.87 61.3031 198.918C61.2001 198.966 61.0881 198.999 60.9731 199.004C60.9141 199.007 60.8541 199.002 60.7951 199.01C60.7461 199.018 60.7001 199.034 60.6571 199.058C60.6161 199.083 60.5791 199.114 60.5511 199.152C60.5221 199.189 60.5021 199.232 60.4911 199.276C60.4801 199.321 60.4781 199.367 60.4871 199.412L60.4881 199.411Z" fill="#2D3250"/>
</g>
<path d="M61.7408 192.857C61.4798 192.877 61.2338 192.987 61.0448 193.169C60.8558 193.345 60.7218 193.576 60.6388 193.822C60.4738 194.313 60.5228 194.845 60.5498 195.362C60.5838 195.83 60.6188 196.307 60.7818 196.753C60.8658 196.972 60.9938 197.173 61.1568 197.342C61.3188 197.513 61.5268 197.635 61.7548 197.696C61.9698 197.748 62.1958 197.74 62.4068 197.673C62.6158 197.606 62.8078 197.487 62.9658 197.333C63.1948 197.109 63.3478 196.815 63.4388 196.507C63.5218 196.197 63.5578 195.876 63.5488 195.555C63.5418 195.154 63.4898 194.751 63.3628 194.369C63.2348 193.989 63.0378 193.628 62.7558 193.341C62.6198 193.201 62.4658 193.079 62.2918 192.993C62.1178 192.907 61.9208 192.859 61.7278 192.869L61.7408 192.857Z" fill="url(#paint4_radial_508_155)"/>
<path d="M66.3199 192.857C65.8959 193.11 65.5699 193.515 65.4119 193.981C65.2139 194.565 65.2869 195.211 65.4849 195.795C65.6859 196.396 66.0319 196.965 66.5549 197.325C66.8149 197.507 67.1159 197.623 67.4319 197.663C67.7489 197.702 68.0699 197.645 68.3549 197.5C68.6959 197.322 68.9569 197.011 69.1179 196.661C69.2779 196.31 69.3499 195.925 69.3729 195.542C69.4019 195.052 69.3539 194.553 69.1899 194.09C69.0139 193.589 68.6919 193.129 68.2459 192.842C68.0229 192.698 67.7709 192.599 67.5069 192.561C67.2419 192.525 66.9699 192.548 66.7209 192.638C66.5789 192.69 66.4419 192.763 66.3219 192.856L66.3199 192.857Z" fill="url(#paint5_radial_508_155)"/>
<g opacity="0.3" filter="url(#filter3_f_508_155)">
<path d="M61.6541 197.037L60.9081 197.717C60.7771 197.848 60.6451 197.99 60.5861 198.166C60.5341 198.323 60.5431 198.493 60.5181 198.657C60.5091 198.713 60.4961 198.769 60.4951 198.825C60.4951 198.853 60.4991 198.882 60.5071 198.909C60.5151 198.936 60.5291 198.962 60.5491 198.982C60.5811 199.017 60.6261 199.036 60.6721 199.045C60.7191 199.054 60.7671 199.055 60.8131 199.061C61.0251 199.084 61.2201 199.186 61.3951 199.307L61.9111 199.682C62.3081 199.933 62.7811 200.045 63.2511 200.063C63.7211 200.081 64.1901 200.009 64.6511 199.917C65.0171 199.844 65.3831 199.757 65.7301 199.62C66.2621 199.411 66.7411 199.088 67.2001 198.747C67.4081 198.591 67.6141 198.431 67.8001 198.251C67.8641 198.19 67.9251 198.126 67.9931 198.07C68.0611 198.014 68.1371 197.966 68.2201 197.938C68.3491 197.897 68.4871 197.909 68.6201 197.931C68.7201 197.948 68.8201 197.97 68.9211 197.966C68.9711 197.964 69.0221 197.955 69.0691 197.936C69.1171 197.918 69.1601 197.888 69.1921 197.849C69.2341 197.797 69.2561 197.732 69.2561 197.664C69.2561 197.598 69.2361 197.533 69.2021 197.475C69.1341 197.36 69.0181 197.283 68.8971 197.23C68.7301 197.155 68.5501 197.119 68.3731 197.076C67.8281 196.945 67.2991 196.751 66.7981 196.503C66.5481 196.378 66.3061 196.241 66.0611 196.111C65.8091 195.976 65.5521 195.846 65.2781 195.763C64.6651 195.577 63.9961 195.639 63.3921 195.848C62.7211 196.08 62.1141 196.496 61.6541 197.037Z" fill="#2D3250"/>
</g>
<path d="M62.9548 196.269C63.2098 195.979 63.3878 195.629 63.6328 195.33C63.7558 195.182 63.8998 195.046 64.0658 194.95C64.2328 194.85 64.4258 194.803 64.6198 194.815C64.8348 194.834 65.0358 194.941 65.1918 195.087C65.3488 195.235 65.4648 195.421 65.5578 195.614C65.6468 195.799 65.7178 195.996 65.8448 196.158C65.9818 196.33 66.1738 196.448 66.3458 196.582C66.4338 196.648 66.5138 196.724 66.5838 196.808C66.6538 196.894 66.7058 196.994 66.7278 197.101C66.7498 197.209 66.7398 197.326 66.7008 197.43C66.6628 197.534 66.5968 197.629 66.5178 197.708C66.3558 197.862 66.1388 197.946 65.9168 197.977C65.4758 198.04 65.0278 197.908 64.5838 197.919C64.1378 197.931 63.6898 198.091 63.2398 198.075C63.0128 198.073 62.7898 198.006 62.5998 197.883C62.5068 197.818 62.4268 197.735 62.3678 197.639C62.3098 197.543 62.2748 197.43 62.2708 197.319C62.2678 197.211 62.2898 197.104 62.3358 197.005C62.3778 196.907 62.4398 196.816 62.5068 196.733C62.6438 196.566 62.8078 196.427 62.9528 196.266L62.9548 196.269Z" fill="url(#paint6_radial_508_155)"/>
<g filter="url(#filter4_f_508_155)">
<path d="M67.9891 188.285C67.6161 188.548 67.7791 188.876 67.9391 189.205C68.1001 189.534 67.5871 190.482 67.5821 190.523C67.5761 190.564 68.5911 190.042 68.8671 189.704C69.1941 189.303 70.0191 190.245 69.9741 190.102C69.9741 189.845 68.3621 188.022 67.9891 188.285Z" fill="#7C7C7C"/>
</g>
<path d="M67.2511 194.075C67.0991 194.086 66.9511 194.138 66.8231 194.221C66.6931 194.302 66.5831 194.411 66.4971 194.537C66.3241 194.788 66.2491 195.095 66.2361 195.399C66.2271 195.627 66.2521 195.858 66.3291 196.074C66.4041 196.289 66.5321 196.489 66.7081 196.635C66.8881 196.783 67.1171 196.873 67.3511 196.883C67.5851 196.895 67.8221 196.827 68.0131 196.694C68.1661 196.587 68.2901 196.442 68.3781 196.277C68.4661 196.113 68.5191 195.932 68.5431 195.747C68.5851 195.42 68.5371 195.08 68.3861 194.788C68.2361 194.495 67.9791 194.255 67.6711 194.142C67.5371 194.092 67.3931 194.066 67.2511 194.077V194.075Z" fill="#FFA054"/>
<g filter="url(#filter5_f_508_155)">
<path d="M67.614 195.071C67.488 195.12 67.289 195.089 67.234 195.213C67.201 195.286 67.247 195.407 67.321 195.437C67.471 195.497 67.704 195.387 67.764 195.237C67.791 195.172 67.751 195.069 67.686 195.041C67.662 195.031 67.638 195.062 67.614 195.071Z" fill="#2D3250"/>
</g>
<g filter="url(#filter6_f_508_155)">
<path d="M68.1911 195.397C68.3601 195.228 68.0701 194.781 67.8451 194.599C67.6821 194.466 67.2081 194.327 67.2271 194.472C67.2481 194.616 67.4611 194.801 67.6051 194.941C67.7811 195.115 68.1101 195.477 68.1911 195.397Z" fill="url(#paint7_linear_508_155)"/>
</g>
<mask id="mask2_508_155" style="mask-type:luminance" maskUnits="userSpaceOnUse" x="65" y="192" width="5" height="6">
<path d="M66.3179 192.857C65.9489 193.166 65.5609 193.525 65.4099 193.983C65.2199 194.557 65.1729 195.277 65.4829 195.797C66.0529 196.751 67.2819 197.806 68.3519 197.501C69.0599 197.3 69.2399 196.268 69.3689 195.542C69.4559 195.063 69.4559 194.498 69.1879 194.091C68.6629 193.294 67.6729 192.656 66.7169 192.64C66.5659 192.637 66.4339 192.761 66.3179 192.857Z" fill="white"/>
</mask>
<g mask="url(#mask2_508_155)">
<path d="M64.7937 194.328C65.1417 194.04 65.5427 193.823 65.9737 193.689C66.8587 193.416 67.8637 193.525 68.6447 194.02C68.9147 194.19 69.1557 194.403 69.4067 194.601C69.6577 194.798 69.9237 194.984 70.2247 195.09C70.3877 195.147 70.5617 195.18 70.7327 195.162C70.8887 195.146 71.0387 195.088 71.1677 195C71.2957 194.911 71.4037 194.794 71.4847 194.66C71.6457 194.394 71.6977 194.07 71.6697 193.76C71.6137 193.14 71.2637 192.591 70.9697 192.042C70.8777 191.87 70.7897 191.694 70.6787 191.534C70.3377 191.041 69.7957 190.716 69.2287 190.526C68.6597 190.336 68.0587 190.266 67.4637 190.192C67.1987 190.159 66.9307 190.123 66.6647 190.155C66.3607 190.192 66.0727 190.315 65.7747 190.392C65.6337 190.427 65.4897 190.453 65.3497 190.494C65.2097 190.534 65.0717 190.591 64.9577 190.681C64.7917 190.815 64.6867 191.014 64.6407 191.222C64.5957 191.43 64.6067 191.647 64.6397 191.856C64.7057 192.277 64.8637 192.687 64.8487 193.112C64.8387 193.405 64.7467 193.691 64.7577 193.983C64.7607 194.07 64.7737 194.154 64.7937 194.236" fill="url(#paint8_linear_508_155)"/>
</g>
<g filter="url(#filter7_f_508_155)">
<path d="M67.722 191.662C67.653 191.749 67.59 191.843 67.541 191.948C67.853 192.015 68.151 192.143 68.417 192.32C68.933 192.661 69.324 193.161 69.598 193.717C69.662 193.647 69.721 193.57 69.771 193.486C69.495 192.907 69.096 192.383 68.562 192.029C68.307 191.859 68.021 191.731 67.723 191.662H67.722Z" fill="url(#paint9_linear_508_155)"/>
</g>
<g filter="url(#filter8_f_508_155)">
<path d="M61.7101 191.945C61.6751 191.945 61.6421 191.948 61.6061 191.95L61.5371 191.953C61.7431 191.972 61.9471 192.027 62.1331 192.111C62.3861 192.224 62.6081 192.386 62.8051 192.57C63.1691 192.909 63.4401 193.33 63.6221 193.775C63.5781 193.439 63.4761 193.112 63.3231 192.809C63.2511 192.726 63.1761 192.645 63.0961 192.57C62.9001 192.386 62.6761 192.224 62.4231 192.111C62.2021 192.011 61.9571 191.95 61.7101 191.945Z" fill="url(#paint10_linear_508_155)"/>
</g>
<path d="M61.1159 194.999C61.0609 195.323 61.0599 195.666 61.1719 195.977C61.2479 196.183 61.3649 196.37 61.5159 196.529C61.6129 196.645 61.724 196.729 61.864 196.791C61.993 196.856 62.14 196.875 62.281 196.844C62.41 196.808 62.523 196.732 62.604 196.626C62.685 196.522 62.743 196.4 62.782 196.275C62.897 195.905 62.879 195.497 62.764 195.125C62.681 194.854 62.5409 194.592 62.3229 194.41C62.2189 194.323 62.098 194.255 61.967 194.225C61.836 194.194 61.692 194.202 61.57 194.258C61.433 194.324 61.3239 194.435 61.2569 194.571C61.1879 194.705 61.153 194.853 61.127 195L61.1159 194.999Z" fill="#FFA054"/>
<g filter="url(#filter9_f_508_155)">
<path d="M61.8058 194.761C61.8418 194.854 61.9588 194.887 62.0238 194.961C62.0868 195.034 62.1528 195.108 62.1878 195.197C62.2538 195.368 62.1219 195.621 62.2599 195.742C62.3039 195.78 62.3899 195.78 62.4329 195.742C62.5989 195.59 62.5629 195.285 62.4969 195.07C62.4369 194.875 62.2898 194.69 62.1068 194.598C62.0228 194.555 61.8959 194.52 61.8239 194.58C61.7779 194.619 61.7848 194.705 61.8058 194.761Z" fill="url(#paint11_linear_508_155)"/>
</g>
<path d="M60.5078 199.05C60.5168 199.092 60.5328 199.133 60.5548 199.172C60.5938 199.236 60.6498 199.288 60.7118 199.332C60.7718 199.377 60.8378 199.413 60.9018 199.453C61.2408 199.667 61.5168 199.966 61.7628 200.282C62.0928 200.706 62.3838 201.177 62.8228 201.485C63.1338 201.703 63.5058 201.826 63.8828 201.865C64.3258 201.909 64.7758 201.838 65.2028 201.712C65.5988 201.595 65.9818 201.432 66.3338 201.216C67.0018 200.804 67.5598 200.201 68.2948 199.931C68.4558 199.871 68.6238 199.829 68.7778 199.756C68.9328 199.684 69.0788 199.574 69.1528 199.42C69.2258 199.271 69.2218 199.1 69.2448 198.937C69.2698 198.763 69.3258 198.595 69.3558 198.421C69.3858 198.248 69.3898 198.062 69.3148 197.903C69.2528 197.771 69.1408 197.667 69.0098 197.6C68.8798 197.534 68.7338 197.504 68.5878 197.497C68.2968 197.482 68.0088 197.557 67.7188 197.583C67.3328 197.619 66.9448 197.569 66.5588 197.581C66.0778 197.595 65.6048 197.703 65.1248 197.726C64.5758 197.753 64.0298 197.669 63.4808 197.646C63.2438 197.638 63.0048 197.639 62.7708 197.679C62.5358 197.719 62.3058 197.799 62.1098 197.934C61.9208 198.065 61.7688 198.245 61.5928 198.396C61.5058 198.471 61.4118 198.541 61.3078 198.591C61.2038 198.642 61.0888 198.673 60.9728 198.67C60.9148 198.669 60.8518 198.66 60.7958 198.677C60.7608 198.689 60.7288 198.71 60.7028 198.736C60.6758 198.763 60.6538 198.793 60.6328 198.823C60.5838 198.895 60.5428 198.971 60.5078 199.05Z" fill="url(#paint12_radial_508_155)"/>
<g filter="url(#filter10_f_508_155)">
<path d="M62.6602 199.64C62.6052 199.874 62.6402 200.12 62.7572 200.331C62.8732 200.541 63.0642 200.701 63.2912 200.779C63.5782 200.875 63.9022 200.828 64.1712 200.688C64.3272 200.607 64.4692 200.493 64.5592 200.342C64.6052 200.267 64.6352 200.183 64.6472 200.095C64.6592 200.008 64.6512 199.918 64.6212 199.837C64.5872 199.747 64.5272 199.667 64.4542 199.605C64.3802 199.542 64.2932 199.498 64.2022 199.468C64.0192 199.407 63.8222 199.406 63.6302 199.415C63.3392 199.429 63.0492 199.466 62.7632 199.525" fill="#D9B30D"/>
</g>
<g filter="url(#filter11_f_508_155)">
<path d="M61.7162 197.837L61.1502 198.21C61.0542 198.277 60.9562 198.35 60.9062 198.456C60.8702 198.531 60.8622 198.615 60.8622 198.698C60.8632 198.78 60.8662 198.864 60.8562 198.945C60.8492 199.001 60.8342 199.056 60.8312 199.113C60.8292 199.14 60.8322 199.169 60.8392 199.196C60.8462 199.224 60.8592 199.25 60.8792 199.27C60.9042 199.297 60.9382 199.314 60.9732 199.324C61.0082 199.335 61.0442 199.34 61.0802 199.349C61.2512 199.389 61.3992 199.493 61.5292 199.611L61.9132 199.97C62.2822 200.269 62.7712 200.394 63.2442 200.402C63.7182 200.409 64.1892 200.31 64.6532 200.205L65.7312 199.909C66.2702 199.711 66.7692 199.411 67.2022 199.035C67.3982 198.865 67.5822 198.677 67.8022 198.54C67.9972 198.417 68.2152 198.336 68.4142 198.22C68.4312 198.209 68.4492 198.198 68.4642 198.185C68.4802 198.172 68.4952 198.157 68.5042 198.138C68.5202 198.106 68.5202 198.069 68.5102 198.034C68.5002 198 68.4792 197.97 68.4572 197.942C68.4332 197.912 68.4052 197.884 68.3742 197.858C68.1682 197.681 67.8872 197.617 67.6152 197.596C67.3442 197.574 67.0692 197.589 66.8022 197.544C66.5482 197.501 66.3092 197.408 66.0642 197.33C65.8092 197.247 65.5472 197.184 65.2812 197.14C64.6572 197.038 64.0152 197.058 63.3962 197.187C62.8062 197.31 62.2382 197.531 61.7192 197.837H61.7162Z" fill="#604405"/>
</g>
<path d="M61.6541 197.181C61.3741 197.369 61.1212 197.598 60.9072 197.861C60.7852 198.01 60.6742 198.173 60.6132 198.356C60.5652 198.5 60.5482 198.652 60.5182 198.8C60.5062 198.856 60.4932 198.912 60.4932 198.969C60.4932 198.997 60.4972 199.026 60.5052 199.053C60.5142 199.08 60.5282 199.106 60.5482 199.126C60.5812 199.16 60.6271 199.178 60.6721 199.188C60.7191 199.197 60.7671 199.198 60.8131 199.205C61.0251 199.228 61.2192 199.331 61.3942 199.451L61.9112 199.825C62.3082 200.076 62.7812 200.188 63.2512 200.206C63.7212 200.224 64.1902 200.153 64.6512 200.06C65.0172 199.988 65.3832 199.901 65.7302 199.764C66.2622 199.555 66.7412 199.232 67.2002 198.89C67.4082 198.735 67.6141 198.575 67.8001 198.395C67.8641 198.333 67.9252 198.27 67.9932 198.214C68.0612 198.158 68.1372 198.109 68.2202 198.082C68.3492 198.041 68.4871 198.053 68.6201 198.075C68.7201 198.092 68.8201 198.114 68.9211 198.11C68.9711 198.108 69.0222 198.099 69.0692 198.08C69.1172 198.062 69.1601 198.032 69.1921 197.993C69.2341 197.941 69.2562 197.876 69.2562 197.808C69.2562 197.742 69.2361 197.676 69.2021 197.619C69.1341 197.504 69.0182 197.427 68.8972 197.373C68.7302 197.299 68.5501 197.262 68.3731 197.22C67.8281 197.088 67.2992 196.895 66.7982 196.646C66.5482 196.522 66.3062 196.385 66.0612 196.254C65.8092 196.119 65.5522 195.99 65.2782 195.906C64.6652 195.721 63.9962 195.782 63.3922 195.992C62.7212 196.224 62.1141 196.639 61.6541 197.18V197.181Z" fill="url(#paint13_linear_508_155)"/>
<g filter="url(#filter12_f_508_155)">
<path d="M65.956 197.316C65.923 197.274 65.8751 197.244 65.8251 197.23C65.7741 197.215 65.72 197.215 65.667 197.223C65.563 197.241 65.4691 197.295 65.3811 197.357C65.1331 197.528 64.914 197.739 64.723 197.971C64.469 198.279 64.259 198.635 64.189 199.027C64.178 199.093 64.17 199.161 64.178 199.227C64.186 199.295 64.212 199.361 64.259 199.408C64.301 199.449 64.358 199.475 64.415 199.484C64.474 199.492 64.535 199.484 64.59 199.465C64.702 199.427 64.795 199.349 64.883 199.271C65.368 198.838 65.806 198.317 65.982 197.691C65.999 197.629 66.014 197.564 66.013 197.499C66.013 197.434 65.996 197.366 65.956 197.316Z" fill="#F6DA4A"/>
</g>
<g opacity="0.8" filter="url(#filter13_f_508_155)">
<path d="M64.7941 196.419C64.8271 196.526 65.001 196.509 65.102 196.56C65.19 196.605 65.261 196.705 65.36 196.708C65.454 196.71 65.6021 196.675 65.6141 196.581C65.6301 196.458 65.4501 196.379 65.3331 196.333C65.1831 196.276 64.9911 196.245 64.8511 196.324C64.8181 196.341 64.7831 196.383 64.7941 196.419Z" fill="url(#paint14_radial_508_155)"/>
</g>
<g opacity="0.8" filter="url(#filter14_f_508_155)">
<path d="M63.1349 196.356C63.0059 196.314 62.7919 196.541 62.8619 196.658C62.8809 196.69 62.9389 196.73 62.9789 196.709C63.0389 196.676 63.0869 196.559 63.1519 196.513C63.1949 196.483 63.1849 196.373 63.1349 196.356Z" fill="url(#paint15_radial_508_155)"/>
</g>
<g filter="url(#filter15_f_508_155)">
<path d="M68.825 198.569C69.055 198.569 69.266 198.34 69.298 198.056C69.33 197.773 69.169 197.543 68.94 197.543C68.711 197.543 68.499 197.773 68.467 198.056C68.435 198.34 68.595 198.569 68.825 198.569Z" fill="url(#paint16_linear_508_155)"/>
</g>
<mask id="mask3_508_155" style="mask-type:luminance" maskUnits="userSpaceOnUse" x="60" y="192" width="4" height="6">
<path d="M61.7412 192.857C61.1902 193.553 60.5032 194.553 60.5512 195.36C60.5982 196.167 61.1122 197.382 61.7682 197.683C62.4242 197.982 62.6042 197.685 62.9782 197.319C63.3532 196.955 63.5392 196.254 63.5602 195.542C63.5822 194.831 63.1202 193.812 62.7702 193.329C62.4202 192.845 62.2922 192.162 61.7412 192.857Z" fill="white"/>
</mask>
<g mask="url(#mask3_508_155)">
<path d="M61.1834 193.896C61.5734 193.664 62.0484 193.61 62.5014 193.653C62.9534 193.695 63.3904 193.828 63.8294 193.948C64.1504 194.035 64.4754 194.116 64.7774 194.258C65.0784 194.4 65.3584 194.608 65.5244 194.897L65.6034 195.036C65.6304 195.082 65.6644 195.125 65.7074 195.156C65.7494 195.188 65.8024 195.21 65.8554 195.207C65.8824 195.205 65.9094 195.198 65.9314 195.185C65.9544 195.171 65.9744 195.151 65.9864 195.128C66.0004 195.1 66.0054 195.069 66.0034 195.038C66.0004 195.007 65.9954 194.977 65.9864 194.947C65.8774 194.548 65.6184 194.21 65.4214 193.844L65.0874 193.178C64.6784 192.429 64.0054 191.84 63.2424 191.459C62.4784 191.077 61.6254 190.893 60.7724 190.843C59.7844 190.785 58.7934 190.903 57.8184 191.074C57.3954 191.149 56.9664 191.236 56.5934 191.446C56.4064 191.551 56.2344 191.686 56.1004 191.854C55.9664 192.021 55.8714 192.222 55.8414 192.434C55.8104 192.638 55.8424 192.849 55.9134 193.043C55.9844 193.237 56.0964 193.413 56.2274 193.574C56.4884 193.894 56.8224 194.145 57.1304 194.42C57.4394 194.695 57.7264 194.999 58.0704 195.227C58.2424 195.341 58.4294 195.435 58.6284 195.491C58.8274 195.547 59.0394 195.563 59.2424 195.521C59.4524 195.478 59.6464 195.375 59.8174 195.244C59.9874 195.115 60.1334 194.957 60.2744 194.796C60.5534 194.471 60.8144 194.115 61.1834 193.896Z" fill="url(#paint17_radial_508_155)"/>
</g>
<path d="M74.9441 207.817C75.8281 208.527 76.3901 209.602 76.5631 210.721C76.6991 211.594 76.6101 212.491 76.4131 213.351C76.2151 214.21 75.9121 215.045 75.6091 215.876C75.4881 216.207 75.3671 216.542 75.3191 216.891C75.2701 217.24 75.3011 217.61 75.4691 217.92C75.6631 218.274 76.0241 218.519 76.4121 218.634C76.7981 218.745 77.2061 218.75 77.5961 218.65C77.9831 218.554 78.3451 218.365 78.6611 218.12C79.4611 217.498 79.9461 216.533 80.1341 215.537C80.3221 214.541 80.2351 213.512 80.0601 212.512C79.8231 211.152 79.4231 209.82 78.9161 208.535C78.5421 207.59 78.1031 206.661 77.4941 205.847C76.8951 205.053 76.1411 204.383 75.5571 203.579C75.1511 203.021 74.8231 202.397 74.3351 201.906C74.0951 201.656 73.8041 201.458 73.4841 201.327C73.1611 201.195 72.8041 201.171 72.4661 201.258C72.0281 201.382 71.6681 201.728 71.4781 202.141C71.2881 202.555 71.2541 203.03 71.3271 203.48C71.4231 204.059 71.6861 204.598 71.9881 205.103C72.3251 205.675 72.7191 206.225 73.2301 206.651C73.7631 207.094 74.4071 207.386 74.9461 207.809L74.9441 207.817Z" fill="#FFA054"/>
<mask id="mask4_508_155" style="mask-type:luminance" maskUnits="userSpaceOnUse" x="71" y="201" width="10" height="18">
<path d="M74.9422 207.819C75.8322 208.533 76.3882 209.607 76.5602 210.722C76.8302 212.468 76.2132 214.216 75.6062 215.878C75.4852 216.21 75.3642 216.546 75.3162 216.894C75.2682 217.241 75.2992 217.612 75.4692 217.922C75.6612 218.274 76.0202 218.52 76.4102 218.636C76.7942 218.75 77.2082 218.747 77.5962 218.649C77.9832 218.552 78.3452 218.364 78.6592 218.121C79.4692 217.497 79.9542 216.527 80.1392 215.532C80.3222 214.537 80.2332 213.51 80.0572 212.514C79.8162 211.154 79.4202 209.823 78.9122 208.536C78.5392 207.592 78.1032 206.662 77.4892 205.848C76.8912 205.054 76.1342 204.382 75.5512 203.58C75.1462 203.022 74.8262 202.399 74.3392 201.91C74.0952 201.664 73.8102 201.455 73.4862 201.328C73.1612 201.203 72.7952 201.166 72.4602 201.259C72.2372 201.32 72.0322 201.439 71.8632 201.592C71.6932 201.747 71.5592 201.937 71.4642 202.144C71.2752 202.559 71.2462 203.031 71.3222 203.479C71.4202 204.057 71.6832 204.596 71.9822 205.103C72.3182 205.674 72.7102 206.224 73.2222 206.65C73.7552 207.091 74.4002 207.386 74.9402 207.819" fill="white"/>
</mask>
<g mask="url(#mask4_508_155)">
<g filter="url(#filter16_f_508_155)">
<path d="M72.8623 206.45L73.0843 206.649C73.6263 207.093 73.9153 207.59 74.4653 208.025C75.3653 208.735 76.2783 209.961 76.4553 211.081C76.5933 211.954 76.4113 212.429 76.1883 213.459C75.9663 214.489 75.3353 215.948 74.9943 216.942C74.8583 217.337 75.2693 217.173 75.2153 217.591C75.1883 217.797 75.1863 218.004 75.2103 218.21L75.2203 218.09C75.2863 217.521 75.4613 216.974 75.6513 216.437C76.0173 215.403 76.4373 214.39 76.7273 213.329C77.0163 212.269 76.9843 211.507 76.8333 210.595C76.6433 209.449 75.9763 208.391 75.0313 207.693C74.3623 207.199 73.5743 206.882 72.8623 206.45Z" fill="#838384"/>
</g>
</g>
<g opacity="0.25" filter="url(#filter17_f_508_155)">
<path d="M59.0788 205.808C59.2258 206.029 58.9858 206.792 62.4258 206.303C62.4258 206.303 61.8218 206.369 61.2268 206.507C60.3008 206.817 59.4938 207.162 58.8718 207.621C58.2558 208.074 57.8038 208.665 57.2378 209.174C57.2378 209.174 58.1548 207.502 58.3828 206.998C58.6108 206.495 58.3448 206.52 58.5248 205.777C58.7058 205.035 59.1478 204.325 59.1478 204.325C59.1478 204.325 58.7868 205.371 59.0788 205.808Z" fill="url(#paint18_radial_508_155)"/>
</g>
<g opacity="0.42" filter="url(#filter18_f_508_155)">
<path d="M70.1409 205.607C69.4399 206.095 69.0289 206.037 68.1789 206.132C67.3279 206.227 65.0259 206.194 65.0259 206.194C65.0259 206.194 65.3589 206.188 66.0979 206.324C66.8369 206.462 68.3429 206.594 69.1909 206.916C70.0399 207.239 70.3489 207.33 70.8649 207.656C71.5979 208.12 72.1379 208.846 72.8389 209.353C72.8389 209.353 72.8739 208.68 72.5899 208.177C72.3069 207.673 71.5439 206.88 71.3209 206.139C71.0979 205.398 70.9909 203.942 70.9909 203.942C70.9909 203.942 70.8429 205.119 70.1419 205.607H70.1409Z" fill="url(#paint19_radial_508_155)"/>
</g>
<g opacity="0.2" filter="url(#filter19_f_508_155)">
<path d="M63.5478 204.565L63.4458 205.196C63.4258 205.299 63.4038 205.402 63.3638 205.5C63.3258 205.597 63.2708 205.691 63.1928 205.761C63.1248 205.822 63.0408 205.864 62.9578 205.903C62.6308 206.052 62.2808 206.151 61.9248 206.195L62.3518 206.235C62.4408 206.244 62.5308 206.255 62.6178 206.278C62.7048 206.3 62.7898 206.336 62.8618 206.387C62.9428 206.445 63.0048 206.525 63.0508 206.611C63.1448 206.785 63.1758 206.984 63.1928 207.178C63.2148 207.427 63.2168 207.68 63.1978 207.93C63.2138 207.762 63.2498 207.597 63.3018 207.437C63.3968 207.148 63.5488 206.878 63.7558 206.655C63.8368 206.567 63.9268 206.485 64.0258 206.416C64.3318 206.203 64.7068 206.112 65.0768 206.161C64.7018 206.176 64.3328 206.061 64.0318 205.836C63.8798 205.723 63.7488 205.58 63.6568 205.415C63.5148 205.155 63.4758 204.853 63.5478 204.565Z" fill="url(#paint20_radial_508_155)"/>
</g>
<g opacity="0.1" filter="url(#filter20_f_508_155)">
<path d="M62.6512 209.506C62.4722 210.185 62.3491 210.878 62.2841 211.578C62.1911 212.566 62.2142 213.561 62.1602 214.553C62.1172 215.395 62.0161 216.245 62.1621 217.075C62.2321 217.47 62.3581 217.856 62.5341 218.218C62.5621 218.079 62.5822 217.941 62.5952 217.8C62.6572 217.127 62.5442 216.453 62.5062 215.778C62.4382 214.595 62.6022 213.412 62.6682 212.231C62.7202 211.323 62.7142 210.413 62.6512 209.506Z" fill="#2D3250"/>
</g>
<g filter="url(#filter21_f_508_155)">
<path d="M70.8151 199.315C70.5011 199.601 70.9631 200.031 71.1821 200.536C71.3171 200.849 71.695 201.291 72.059 201.221C72.332 201.167 72.5021 200.773 72.4761 200.496C72.4271 199.961 71.9741 199.835 71.6461 199.651C71.3851 199.505 71.0361 199.115 70.8151 199.316V199.315Z" fill="#838384"/>
</g>
<mask id="mask5_508_155" style="mask-type:luminance" maskUnits="userSpaceOnUse" x="71" y="216" width="13" height="14">
<path d="M83.7929 223.26C83.9249 223.492 83.5649 223.752 83.3829 223.948C82.9849 224.379 82.4459 224.659 81.9459 224.966C81.0859 225.494 80.1119 225.823 79.2689 226.377C78.7049 226.747 78.2038 227.207 77.6918 227.645C77.2518 228.02 76.8949 228.498 76.4079 228.808C75.9219 229.119 75.3839 229.412 74.8109 229.484C74.1159 229.571 73.3769 229.447 72.7329 229.169C72.2839 228.976 71.8378 228.679 71.5758 228.265C71.3128 227.849 71.2769 227.317 71.2509 226.826C71.2069 225.946 71.4499 225.075 71.5679 224.203C71.6669 223.477 71.8379 222.759 71.8969 222.03C72.0039 220.703 71.7839 219.358 71.9429 218.036C71.9949 217.61 71.9169 217.07 72.2359 216.782C72.5319 216.515 73.0239 216.619 73.4239 216.627C73.9099 216.638 74.3869 216.765 74.8609 216.877C75.1599 216.947 75.4418 217.082 75.7438 217.139C76.2428 217.235 76.7549 217.294 77.2639 217.278C77.8139 217.259 78.3448 217.017 78.8948 217.021C79.1208 217.024 79.3489 217.062 79.5609 217.138C79.7769 217.214 79.9949 217.313 80.1599 217.471C80.2859 217.591 80.3679 217.754 80.4329 217.916C80.5309 218.157 80.5629 218.421 80.6029 218.678C80.6379 218.906 80.5809 219.153 80.6639 219.369C80.9289 220.065 81.4739 220.635 82.0039 221.16C82.2569 221.441 82.5889 221.673 82.8999 221.861C83.2289 222.061 83.5349 222.216 83.6939 222.56C83.7899 222.775 83.6149 223.104 83.7929 223.26Z" fill="white"/>
</mask>
<g mask="url(#mask5_508_155)">
<path d="M83.7929 223.259C83.6959 223.509 83.5569 223.743 83.3839 223.947C83.0029 224.4 82.474 224.698 81.946 224.966C81.047 225.424 80.1159 225.825 79.2699 226.376C78.7029 226.745 78.181 227.178 77.691 227.645C77.274 228.044 76.8769 228.47 76.4079 228.808C75.9359 229.149 75.388 229.397 74.812 229.484C74.11 229.589 73.384 229.453 72.734 229.169C72.278 228.971 71.8399 228.687 71.5769 228.265C71.3139 227.842 71.253 227.324 71.252 226.825C71.251 225.943 71.4149 225.069 71.5689 224.202C71.6959 223.481 71.8189 222.757 71.8969 222.029C72.0399 220.704 72.0389 219.366 71.9439 218.036C71.9299 217.814 71.9089 217.589 71.9429 217.368C71.9759 217.147 72.0669 216.928 72.2369 216.782C72.3919 216.647 72.6019 216.588 72.8089 216.577C73.0149 216.565 73.2209 216.598 73.4249 216.627C73.9059 216.697 74.3909 216.753 74.8619 216.877C75.1589 216.954 75.4479 217.059 75.7439 217.139C76.2379 217.273 76.756 217.337 77.265 217.278C77.813 217.214 78.3449 217.009 78.8959 217.022C79.1219 217.027 79.346 217.07 79.562 217.137C79.782 217.207 79.999 217.306 80.161 217.471C80.284 217.595 80.3699 217.752 80.4339 217.916C80.5299 218.159 80.5819 218.418 80.6039 218.678C80.6239 218.909 80.6199 219.142 80.6639 219.369C80.7359 219.742 80.9319 220.083 81.1759 220.375C81.4209 220.667 81.7149 220.915 82.0039 221.16C82.2949 221.404 82.5869 221.647 82.8999 221.86C83.0479 221.961 83.1989 222.055 83.3389 222.165C83.4779 222.276 83.6069 222.404 83.6939 222.559C83.8119 222.77 83.8489 223.025 83.7929 223.259Z" fill="url(#paint21_linear_508_155)"/>
</g>
<mask id="mask6_508_155" style="mask-type:luminance" maskUnits="userSpaceOnUse" x="71" y="216" width="13" height="14">
<path d="M83.7929 223.26C83.9249 223.492 83.5649 223.752 83.3829 223.948C82.9849 224.379 82.4459 224.659 81.9459 224.966C81.0859 225.494 80.1119 225.823 79.2689 226.377C78.7049 226.747 78.2038 227.207 77.6918 227.645C77.2518 228.02 76.8949 228.498 76.4079 228.808C75.9219 229.119 75.3839 229.412 74.8109 229.484C74.1159 229.571 73.3769 229.447 72.7329 229.169C72.2839 228.976 71.8378 228.679 71.5758 228.265C71.3128 227.849 71.2769 227.317 71.2509 226.826C71.2069 225.946 71.4499 225.075 71.5679 224.203C71.6669 223.477 71.8379 222.759 71.8969 222.03C72.0039 220.703 71.7839 219.358 71.9429 218.036C71.9949 217.61 71.9169 217.07 72.2359 216.782C72.5319 216.515 73.0239 216.619 73.4239 216.627C73.9099 216.638 74.3869 216.765 74.8609 216.877C75.1599 216.947 75.4418 217.082 75.7438 217.139C76.2428 217.235 76.7549 217.294 77.2639 217.278C77.8139 217.259 78.3448 217.017 78.8948 217.021C79.1208 217.024 79.3489 217.062 79.5609 217.138C79.7769 217.214 79.9949 217.313 80.1599 217.471C80.2859 217.591 80.3679 217.754 80.4329 217.916C80.5309 218.157 80.5629 218.421 80.6029 218.678C80.6379 218.906 80.5809 219.153 80.6639 219.369C80.9289 220.065 81.4739 220.635 82.0039 221.16C82.2569 221.441 82.5889 221.673 82.8999 221.861C83.2289 222.061 83.5349 222.216 83.6939 222.56C83.7899 222.775 83.6149 223.104 83.7929 223.26Z" fill="white"/>
</mask>
<g mask="url(#mask6_508_155)">
<g filter="url(#filter22_f_508_155)">
<path d="M83.3407 222.803C83.2507 223.028 83.1237 223.237 82.9667 223.421C82.6177 223.829 82.1337 224.096 81.6527 224.337C80.8317 224.748 79.9817 225.108 79.2097 225.604C78.6937 225.936 78.2157 226.325 77.7677 226.745C77.3857 227.104 77.0237 227.488 76.5957 227.791C76.1637 228.098 75.6637 228.321 75.1377 228.398C74.4977 228.492 73.8367 228.369 73.2407 228.115C72.8257 227.937 72.4237 227.684 72.1837 227.303C71.9447 226.922 71.8887 226.457 71.8877 226.008C71.8857 225.214 72.0347 224.43 72.1767 223.65C72.2937 223.001 72.4057 222.351 72.4767 221.696C72.6057 220.504 72.5997 219.302 72.5197 218.106C72.5047 217.906 72.4897 217.704 72.5207 217.506C72.5517 217.307 72.6337 217.11 72.7857 216.979C72.9287 216.856 73.1207 216.802 73.3097 216.792C73.4977 216.782 73.6847 216.812 73.8707 216.84C74.3107 216.905 74.7537 216.953 75.1837 217.064C75.4537 217.134 75.7187 217.228 75.9887 217.3C76.4407 217.42 76.9137 217.478 77.3777 217.425C77.8777 217.367 78.3637 217.182 78.8677 217.194C79.0737 217.199 79.2787 217.237 79.4767 217.299C79.6777 217.361 79.8757 217.449 80.0237 217.598C80.1347 217.71 80.2117 217.852 80.2727 217.999C80.3637 218.216 80.4227 218.448 80.4277 218.683C80.4327 218.929 80.3787 219.177 80.4127 219.42C80.4387 219.617 80.5227 219.804 80.6307 219.973C80.7377 220.141 80.8677 220.293 80.9967 220.446C81.2467 220.74 81.4967 221.04 81.8097 221.266C82.1657 221.524 82.5887 221.674 82.9567 221.915C83.0657 221.986 83.1727 222.067 83.2497 222.173C83.3147 222.263 83.3567 222.367 83.3727 222.477C83.3887 222.586 83.3767 222.698 83.3407 222.803Z" fill="#CD8907"/>
</g>
</g>
<mask id="mask7_508_155" style="mask-type:luminance" maskUnits="userSpaceOnUse" x="71" y="216" width="13" height="14">
<path d="M83.7918 223.263C83.9238 223.495 83.5638 223.754 83.3828 223.95C82.9838 224.382 82.4458 224.662 81.9448 224.969C81.0848 225.496 80.1108 225.828 79.2678 226.379C78.7038 226.749 78.2038 227.21 77.6908 227.648C77.2508 228.023 76.8938 228.5 76.4068 228.811C75.9198 229.121 75.3828 229.414 74.8098 229.486C74.1148 229.573 73.3748 229.449 72.7338 229.172C72.2838 228.978 71.8368 228.682 71.5768 228.268C71.3138 227.852 71.2768 227.319 71.2518 226.828C71.2078 225.948 71.4508 225.077 71.5688 224.205C71.6678 223.479 71.8378 222.762 71.8968 222.032C72.0048 220.705 71.7838 219.361 71.9438 218.039C71.9928 217.612 71.9178 217.072 72.2358 216.785C72.5328 216.517 73.0248 216.623 73.4238 216.63C73.9108 216.641 74.3878 216.768 74.8618 216.879C75.1608 216.949 75.4428 217.085 75.7438 217.142C76.2418 217.238 76.7558 217.297 77.2648 217.28C77.8148 217.262 78.3448 217.02 78.8948 217.024C79.1208 217.026 79.3488 217.066 79.5618 217.141C79.7768 217.217 79.9958 217.316 80.1608 217.474C80.2868 217.594 80.3688 217.757 80.4338 217.921C80.5318 218.162 80.5638 218.426 80.6038 218.683C80.6388 218.911 80.5818 219.157 80.6638 219.373C80.9298 220.07 81.4738 220.64 82.0038 221.164C82.2568 221.445 82.5888 221.677 82.8998 221.865C83.2298 222.064 83.5338 222.221 83.6938 222.564C83.7898 222.78 83.6148 223.11 83.7928 223.264L83.7918 223.263Z" fill="white"/>
</mask>
<g mask="url(#mask7_508_155)">
<g filter="url(#filter23_f_508_155)">
<path d="M83.289 222.551C83.189 222.777 83.059 222.988 82.905 223.176C82.547 223.609 82.064 223.909 81.556 224.1C80.719 224.416 79.805 224.459 78.983 224.818C78.482 225.038 78.031 225.368 77.575 225.68C77.206 225.933 76.828 226.176 76.423 226.352C75.966 226.551 75.479 226.663 74.991 226.742C74.68 226.792 74.366 226.829 74.052 226.812C73.739 226.794 73.424 226.72 73.147 226.561C72.937 226.439 72.7479 226.265 72.6359 226.039C72.5109 225.788 72.49 225.493 72.493 225.207C72.501 224.448 72.6639 223.697 72.6579 222.937C72.6539 222.277 72.5229 221.624 72.4859 220.964C72.4129 219.696 72.685 218.405 72.446 217.16C72.407 216.961 72.3559 216.762 72.3569 216.559C72.3589 216.456 72.374 216.354 72.41 216.26C72.446 216.166 72.5029 216.08 72.5809 216.021C72.6449 215.971 72.7209 215.94 72.7999 215.927C72.8789 215.912 72.9589 215.915 73.0379 215.927C73.1959 215.952 73.3449 216.014 73.4989 216.06C73.9379 216.191 74.401 216.187 74.846 216.286C75.127 216.348 75.3969 216.448 75.6749 216.525C76.1389 216.649 76.624 216.705 77.101 216.649C77.615 216.59 78.116 216.404 78.631 216.417C78.843 216.423 79.0529 216.462 79.2569 216.523C79.4599 216.583 79.664 216.67 79.819 216.825C79.93 216.937 80.01 217.08 80.075 217.229C80.17 217.446 80.236 217.681 80.234 217.921C80.233 218.045 80.214 218.169 80.203 218.293C80.192 218.416 80.1879 218.544 80.2179 218.664C80.2469 218.785 80.309 218.894 80.381 218.993C80.453 219.092 80.5329 219.183 80.6069 219.28C80.8129 219.551 80.96 219.868 81.121 220.172C81.281 220.477 81.4619 220.779 81.7149 220.998C82.0609 221.298 82.509 221.417 82.894 221.653C83.007 221.722 83.116 221.803 83.195 221.914C83.258 222.003 83.2999 222.108 83.3169 222.219C83.3329 222.33 83.323 222.444 83.289 222.55V222.551Z" fill="#F5C021"/>
</g>
</g>
<g filter="url(#filter24_f_508_155)">
<path d="M72.359 217.279C72.835 217.15 73.24 217.511 73.586 217.783C73.809 217.973 74.131 217.925 74.404 217.934C74.858 217.918 75.309 218.009 75.763 217.953C76.656 217.878 77.53 217.659 78.428 217.62C78.856 217.593 79.338 217.568 79.708 217.818C79.857 217.921 80.078 218.361 80.226 218.196C80.164 217.735 79.823 217.288 79.363 217.165C79.003 217.109 78.636 217.208 78.274 217.176C77.196 217.15 76.125 216.95 75.044 217.007C74.292 217.014 73.54 216.978 72.789 216.949C72.495 216.89 72.39 217.151 72.23 217.251" fill="url(#paint22_linear_508_155)"/>
</g>
<g opacity="0.75" filter="url(#filter25_f_508_155)">
<path d="M74.4919 208.51C74.6639 208.484 75.7299 209.388 75.5839 209.726C75.4389 210.064 75.1649 209.859 74.9689 209.862C74.7739 209.864 74.2379 210.106 74.1479 209.953C74.0589 209.8 74.3849 209.442 74.5559 209.143C74.6939 208.902 74.3189 208.539 74.4919 208.512V208.51Z" fill="#7C7C7C"/>
</g>
<g opacity="0.25" filter="url(#filter26_f_508_155)">
<path d="M59.464 202.82C59.447 202.611 59.149 202.58 59.016 202.684C58.904 202.772 58.798 203.071 58.895 203.189C59.053 203.379 59.488 203.105 59.464 202.82Z" fill="#7C7C7C"/>
</g>
<g opacity="0.35" filter="url(#filter27_f_508_155)">
<path d="M78.7758 218.004C78.6938 217.844 78.5458 217.725 78.3798 217.655C78.2138 217.586 78.0308 217.564 77.8518 217.565C77.4918 217.568 77.1338 217.662 76.7768 217.63C76.4738 217.604 76.1868 217.491 75.8898 217.419C75.5858 217.346 75.2618 217.318 74.9598 217.398C74.6358 217.486 74.3508 217.702 74.1718 217.985C74.0138 218.235 73.9398 218.53 73.9168 218.824C73.8928 219.118 73.9178 219.414 73.9478 219.708C73.9698 219.92 73.9938 220.133 74.0448 220.34C74.0958 220.548 74.1758 220.75 74.3018 220.923C74.4818 221.172 74.7488 221.35 75.0388 221.457C75.5158 221.631 76.0398 221.621 76.5108 221.431C77.3328 221.075 78.0288 220.435 78.4528 219.646C78.6048 219.364 78.7228 219.062 78.7988 218.751C78.8298 218.628 78.8538 218.501 78.8548 218.373C78.8548 218.246 78.8328 218.117 78.7748 218.004H78.7758Z" fill="url(#paint23_radial_508_155)"/>
</g>
<g opacity="0.35" filter="url(#filter28_f_508_155)">
<path d="M78.7758 217.837C78.6938 217.722 78.5458 217.635 78.3798 217.586C78.2138 217.535 78.0308 217.519 77.8518 217.52C77.4918 217.522 77.1338 217.59 76.7768 217.567C76.4738 217.548 76.1868 217.466 75.8898 217.414C75.5858 217.362 75.2618 217.341 74.9598 217.4C74.6358 217.463 74.3508 217.619 74.1718 217.824C74.0138 218.004 73.9398 218.217 73.9168 218.43C73.8928 218.643 73.9178 218.857 73.9478 219.069C73.9698 219.223 73.9938 219.376 74.0448 219.527C74.0958 219.677 74.1758 219.823 74.3018 219.948C74.4818 220.127 74.7488 220.256 75.0388 220.334C75.5158 220.459 76.0398 220.453 76.5108 220.315C77.3328 220.057 78.0288 219.594 78.4528 219.024C78.6048 218.82 78.7228 218.602 78.7988 218.377C78.8298 218.288 78.8538 218.197 78.8548 218.105C78.8548 218.013 78.8328 217.919 78.7748 217.837H78.7758Z" fill="url(#paint24_radial_508_155)"/>
</g>
<path d="M79.4608 216.508C79.4018 216.347 79.2988 216.206 79.1718 216.091C79.0448 215.976 78.8948 215.889 78.7388 215.822C78.4238 215.688 78.0818 215.639 77.7458 215.576L76.7968 215.391C76.4678 215.335 76.1258 215.299 75.7998 215.373C75.5138 215.437 75.2498 215.584 75.0328 215.782C74.8168 215.979 74.6488 216.225 74.5268 216.493C74.3128 216.962 74.2458 217.489 74.2868 218.003C74.3178 218.385 74.4138 218.779 74.6658 219.068C74.8698 219.301 75.1588 219.447 75.4558 219.535C75.9678 219.686 76.5268 219.678 77.0338 219.513C77.8768 219.227 78.6078 218.679 79.1158 217.949C79.2818 217.709 79.4228 217.448 79.4868 217.165C79.5358 216.947 79.5368 216.718 79.4608 216.509V216.508Z" fill="#FFA054"/>
<mask id="mask8_508_155" style="mask-type:luminance" maskUnits="userSpaceOnUse" x="74" y="215" width="6" height="5">
<path d="M79.4589 216.508C79.3999 216.347 79.2959 216.206 79.1699 216.091C79.0419 215.976 78.8929 215.889 78.7359 215.822C78.4209 215.688 78.0789 215.639 77.7429 215.576L76.7939 215.391C76.4649 215.335 76.1229 215.299 75.7969 215.373C75.5109 215.437 75.2469 215.584 75.0309 215.782C74.8149 215.979 74.6459 216.225 74.5239 216.493C74.3109 216.962 74.2439 217.489 74.2839 218.003C74.3149 218.385 74.4109 218.779 74.6639 219.068C74.8669 219.301 75.1559 219.447 75.4529 219.535C75.9649 219.686 76.5239 219.678 77.0309 219.513C77.8759 219.227 78.6049 218.679 79.1129 217.949C79.2789 217.709 79.4199 217.448 79.4849 217.165C79.5329 216.947 79.5349 216.718 79.4589 216.509" fill="white"/>
</mask>
<g mask="url(#mask8_508_155)">
<g filter="url(#filter29_f_508_155)">
<path d="M75.9767 215.22C75.8967 215.224 75.8177 215.233 75.7397 215.247C75.2357 215.336 74.7737 215.655 74.5137 216.095C74.3297 216.409 74.2467 216.771 74.2727 217.133C74.2837 216.881 74.3507 216.634 74.4737 216.412C74.6817 216.037 75.0587 215.755 75.4817 215.677C75.7427 215.63 76.0087 215.659 76.2717 215.692C76.5237 215.723 76.7767 215.756 77.0257 215.809C77.4087 215.892 77.7887 216.02 78.1097 216.244C78.1857 216.297 78.2557 216.356 78.3147 216.426C78.3737 216.496 78.4197 216.577 78.4377 216.667C78.4637 216.797 78.4257 216.935 78.3607 217.051C78.2957 217.169 78.2057 217.27 78.1097 217.364C78.0337 217.441 77.9517 217.514 77.8697 217.586C78.2417 217.514 78.6187 217.413 78.9277 217.197C79.0587 217.106 79.1767 216.995 79.2547 216.857C79.3317 216.717 79.3647 216.549 79.3277 216.394C79.3017 216.29 79.2447 216.194 79.1727 216.113C79.1017 216.033 79.0157 215.966 78.9277 215.905C78.5387 215.632 78.0827 215.458 77.6107 215.401C77.3097 215.345 77.0037 215.299 76.6987 215.26C76.4607 215.23 76.2167 215.206 75.9767 215.22Z" fill="url(#paint25_radial_508_155)"/>
</g>
</g>
<mask id="mask9_508_155" style="mask-type:luminance" maskUnits="userSpaceOnUse" x="74" y="215" width="6" height="5">
<path d="M79.4589 216.508C79.3999 216.347 79.2959 216.206 79.1699 216.091C79.0419 215.976 78.8929 215.889 78.7359 215.822C78.4209 215.688 78.0789 215.639 77.7429 215.576L76.7939 215.391C76.4649 215.335 76.1229 215.299 75.7969 215.373C75.5109 215.437 75.2469 215.584 75.0309 215.782C74.8149 215.979 74.6459 216.225 74.5239 216.493C74.3109 216.962 74.2439 217.489 74.2839 218.003C74.3149 218.385 74.4109 218.779 74.6639 219.068C74.8669 219.301 75.1559 219.447 75.4529 219.535C75.9649 219.686 76.5239 219.678 77.0309 219.513C77.8759 219.227 78.6049 218.679 79.1129 217.949C79.2789 217.709 79.4199 217.448 79.4849 217.165C79.5329 216.947 79.5349 216.718 79.4589 216.509" fill="white"/>
</mask>
<g mask="url(#mask9_508_155)">
<g filter="url(#filter30_f_508_155)">
<path d="M75.9767 215.22C75.8967 215.224 75.8177 215.233 75.7397 215.247C75.2357 215.336 74.7737 215.655 74.5137 216.095C74.3297 216.409 74.2467 216.771 74.2727 217.133C74.2837 216.881 74.3507 216.634 74.4737 216.412C74.6817 216.037 75.0587 215.755 75.4817 215.677C75.7427 215.63 76.0087 215.659 76.2717 215.692C76.5237 215.723 76.7767 215.756 77.0257 215.809C77.4087 215.892 77.7887 216.02 78.1097 216.244C78.1857 216.297 78.2557 216.356 78.3147 216.426C78.3737 216.496 78.4197 216.577 78.4377 216.667C78.4637 216.797 78.4257 216.935 78.3607 217.051C78.2957 217.169 78.2057 217.27 78.1097 217.364C78.0337 217.441 77.9517 217.514 77.8697 217.586C78.2417 217.514 78.6187 217.413 78.9277 217.197C79.0587 217.106 79.1767 216.995 79.2547 216.857C79.3317 216.717 79.3647 216.549 79.3277 216.394C79.3017 216.29 79.2447 216.194 79.1727 216.113C79.1017 216.033 79.0157 215.966 78.9277 215.905C78.5387 215.632 78.0827 215.458 77.6107 215.401C77.3097 215.345 77.0037 215.299 76.6987 215.26C76.4607 215.23 76.2167 215.206 75.9767 215.22Z" fill="url(#paint26_linear_508_155)"/>
</g>
</g>
<path d="M59.4549 201.865L56.9959 204.94C56.4819 205.578 55.9569 206.217 55.6219 206.962C55.3349 207.602 55.1999 208.297 55.0029 208.972C54.7799 209.736 54.4759 210.478 54.1349 211.197L53.1259 213.16C52.8739 213.633 52.6159 214.115 52.5289 214.643C52.4599 215.06 52.4999 215.491 52.6069 215.901C52.7129 216.312 52.8849 216.713 53.0769 217.077C53.8899 218.684 55.1369 220.07 56.5999 221.13C57.2649 221.611 57.9759 222.027 58.7239 222.367C59.1289 222.553 59.5539 222.715 59.9999 222.724C60.2219 222.728 60.4459 222.691 60.6479 222.603C60.8519 222.513 61.0339 222.371 61.1549 222.183C61.3029 221.954 61.3539 221.67 61.3239 221.398C61.2879 221.127 61.1929 220.867 61.0449 220.635C60.6969 220.068 60.1499 219.654 59.6219 219.245L56.3279 216.465C56.0299 216.186 55.7329 215.901 55.5249 215.553C55.3209 215.212 55.2109 214.825 55.1369 214.435C54.9339 213.37 54.9869 212.246 55.3499 211.224C55.4919 210.823 55.6789 210.442 55.8609 210.057C56.1729 209.392 56.4719 208.713 56.8849 208.103C57.3989 207.344 58.0859 206.713 58.5059 205.885C58.8589 205.197 59.0009 204.423 59.1379 203.662L59.4559 201.873L59.4549 201.865Z" fill="#FFA054"/>
<mask id="mask10_508_155" style="mask-type:luminance" maskUnits="userSpaceOnUse" x="52" y="201" width="10" height="22">
<path d="M59.3901 201.891C59.3901 201.891 58.6491 202.811 58.2431 203.378C57.8371 203.945 57.4091 204.343 56.9951 204.938C56.5821 205.533 55.9251 206.307 55.6221 206.959C55.3191 207.613 55.2851 208.271 55.0031 208.97C54.7201 209.668 54.4651 210.514 54.1351 211.195C53.8051 211.876 53.3551 212.601 53.1271 213.16C52.8981 213.719 52.5731 213.991 52.5301 214.643C52.4861 215.295 52.4461 215.85 53.0781 217.077C53.7101 218.304 55.5821 220.271 56.6001 221.129C57.6181 221.988 57.9651 222.178 58.7221 222.367C59.4791 222.555 60.7361 222.801 61.1531 222.183C61.5701 221.563 61.4831 221.317 61.0441 220.634C60.6051 219.952 60.3431 219.865 59.6211 219.245C58.8981 218.626 56.9131 217.086 56.3241 216.453C55.7371 215.819 55.2921 215.958 55.5211 215.541C55.7501 215.124 55.2011 214.959 55.1351 214.424C55.0241 213.519 55.2731 211.711 55.3471 211.212C55.4221 210.715 55.5251 210.788 55.8581 210.046C56.1921 209.303 56.4581 208.794 56.8821 208.092C57.3081 207.389 58.1361 206.622 58.5031 205.874C58.8701 205.127 59.0121 204.319 59.1371 203.651C59.2611 202.984 59.3901 201.891 59.3901 201.891Z" fill="white"/>
</mask>
<g mask="url(#mask10_508_155)">
<g opacity="0.95" filter="url(#filter31_f_508_155)">
<path d="M57.1053 207.648C56.7683 207.959 56.4763 208.316 56.2403 208.71C55.8533 209.357 55.6243 210.084 55.3433 210.783C55.1333 211.304 54.8883 211.828 54.8593 212.388C54.8453 212.676 54.8863 212.964 54.8963 213.252C54.9063 213.54 54.8793 213.839 54.7373 214.091C54.6193 214.301 54.4223 214.467 54.1943 214.547C54.5043 214.651 54.7743 214.847 54.9693 215.108C55.1313 215.326 55.2353 215.58 55.3763 215.812C55.4903 216.001 55.6303 216.175 55.8033 216.312C55.9773 216.449 56.1833 216.547 56.4023 216.575C56.5523 216.593 56.7053 216.579 56.8503 216.533C56.9953 216.487 57.1273 216.41 57.2393 216.308C56.9603 213.691 57.2153 211.017 57.9883 208.5C58.0373 208.341 58.0873 208.181 58.1003 208.016C58.1113 207.849 58.0803 207.674 57.9803 207.543C57.9263 207.473 57.8533 207.417 57.7713 207.382C57.6903 207.347 57.6003 207.335 57.5123 207.346C57.4243 207.356 57.3393 207.39 57.2683 207.442C57.1973 207.496 57.1403 207.567 57.1053 207.648Z" fill="#7C7C7C"/>
</g>
</g>
<mask id="mask11_508_155" style="mask-type:luminance" maskUnits="userSpaceOnUse" x="47" y="215" width="15" height="15">
<path d="M53.5082 215.883C54.4272 215.686 55.2512 216.59 55.9592 217.208C56.8922 218.023 54.7162 220.984 57.8842 220.086C58.7352 219.844 58.8862 221.728 59.3602 222.474C59.9562 223.409 61.0432 224.459 61.3432 225.527C61.5742 226.345 61.5392 227.109 61.1082 227.842C60.5892 228.724 59.3952 229.355 58.3772 229.469C57.5452 229.562 56.6512 228.913 55.8512 228.664C54.0612 228.108 52.3972 227.819 50.6062 227.263L49.0122 226.766C48.3582 226.574 48.0732 226.622 47.7452 226.074C47.3552 225.423 47.8442 224.662 48.2052 223.927C48.7972 222.721 48.4832 221.339 48.2722 220.225C48.1382 219.516 48.1772 219.074 48.6712 218.659C49.3972 218.049 50.7822 218.437 51.6292 218.066C52.4742 217.696 52.5972 216.079 53.5082 215.884V215.883Z" fill="white"/>
</mask>
<g mask="url(#mask11_508_155)">
<path d="M53.508 215.882C53.741 215.786 54.002 215.769 54.249 215.814C54.497 215.859 54.731 215.966 54.939 216.107C55.354 216.39 55.663 216.801 55.959 217.208C56.638 218.141 57.292 219.095 57.883 220.086C58.364 220.889 58.805 221.719 59.361 222.473C59.723 222.965 60.131 223.422 60.495 223.913C60.859 224.403 61.182 224.937 61.344 225.526C61.554 226.292 61.472 227.136 61.108 227.841C60.851 228.338 60.457 228.763 59.978 229.052C59.5 229.341 58.936 229.489 58.377 229.469C57.489 229.435 56.678 228.991 55.852 228.662C54.169 227.993 52.341 227.783 50.607 227.262C50.074 227.102 49.55 226.912 49.013 226.765C48.775 226.7 48.532 226.642 48.307 226.54C48.081 226.438 47.871 226.286 47.746 226.073C47.649 225.908 47.608 225.714 47.611 225.523C47.613 225.333 47.658 225.144 47.723 224.965C47.854 224.606 48.064 224.281 48.205 223.926C48.437 223.347 48.479 222.708 48.448 222.086C48.416 221.463 48.315 220.845 48.273 220.224C48.254 219.946 48.246 219.664 48.299 219.391C48.353 219.119 48.47 218.851 48.671 218.658C48.857 218.48 49.102 218.374 49.353 218.321C49.605 218.269 49.864 218.267 50.121 218.272C50.378 218.279 50.635 218.292 50.892 218.272C51.148 218.25 51.405 218.192 51.629 218.065C51.84 217.944 52.014 217.764 52.158 217.567C52.302 217.369 52.418 217.154 52.537 216.941C52.656 216.728 52.78 216.515 52.936 216.328C53.091 216.14 53.283 215.976 53.509 215.882H53.508Z" fill="url(#paint27_linear_508_155)"/>
<g filter="url(#filter32_f_508_155)">
<path d="M53.8737 216.283C54.0847 216.198 54.3237 216.189 54.5457 216.238C54.7677 216.289 54.9737 216.398 55.1537 216.535C55.5147 216.813 55.7648 217.205 56.0048 217.591C56.5818 218.524 57.1458 219.467 57.6778 220.43C58.0818 221.155 58.4658 221.895 58.9618 222.56C59.2908 223.002 59.6668 223.407 60.0018 223.843C60.3378 224.279 60.6368 224.755 60.7858 225.285C60.9768 225.968 60.8987 226.722 60.5677 227.35C60.3287 227.803 59.9677 228.181 59.5237 228.441C59.0797 228.698 58.5717 228.824 58.0587 228.802C57.2447 228.764 56.5018 228.358 55.7368 228.083C54.2688 227.551 52.6778 227.48 51.1718 227.065C50.6328 226.918 50.1057 226.723 49.5637 226.587C49.3237 226.526 49.0788 226.476 48.8508 226.38C48.6228 226.284 48.4088 226.135 48.2848 225.921C48.1928 225.762 48.1558 225.574 48.1618 225.391C48.1678 225.207 48.2138 225.028 48.2778 224.854C48.4088 224.511 48.6148 224.202 48.7478 223.857C48.9478 223.338 48.9728 222.768 48.9358 222.213C48.8978 221.658 48.8018 221.109 48.7678 220.554C48.7528 220.306 48.7508 220.055 48.7998 219.811C48.8508 219.569 48.9568 219.332 49.1338 219.156C49.3258 218.967 49.5908 218.863 49.8578 218.822C50.1248 218.782 50.3958 218.799 50.6648 218.823C50.9328 218.847 51.2027 218.877 51.4727 218.861C51.7417 218.845 52.0158 218.78 52.2378 218.628C52.4408 218.492 52.5937 218.291 52.7097 218.077C52.8247 217.863 52.9078 217.634 52.9968 217.407C53.0848 217.181 53.1798 216.954 53.3188 216.754C53.4578 216.554 53.6437 216.376 53.8727 216.285" fill="#D99A03"/>
</g>
<g filter="url(#filter33_f_508_155)">
<path d="M53.6802 215.755C53.8842 215.653 54.1262 215.633 54.3502 215.678C54.5752 215.724 54.7832 215.834 54.9592 215.977C55.3142 216.262 55.5382 216.672 55.7472 217.072C56.2272 217.993 56.6752 218.932 57.2492 219.799C57.6662 220.425 58.1482 221.012 58.5692 221.637C59.1412 222.485 59.6062 223.419 59.7982 224.418C59.9272 225.09 59.9232 225.814 59.5982 226.421C59.3852 226.819 59.0392 227.148 58.6302 227.351C58.2222 227.554 57.7522 227.639 57.2952 227.598C56.5752 227.535 55.9212 227.181 55.2442 226.935C54.0412 226.497 52.7422 226.393 51.5052 226.063C50.9822 225.923 50.4732 225.744 49.9422 225.635C49.7092 225.586 49.4712 225.551 49.2482 225.466C49.0262 225.383 48.8152 225.243 48.7012 225.038C48.6212 224.893 48.5942 224.723 48.6062 224.559C48.6182 224.395 48.6672 224.235 48.7312 224.083C48.8602 223.779 49.0512 223.5 49.1532 223.186C49.3002 222.724 49.2392 222.222 49.1292 221.751C49.0192 221.279 48.8592 220.816 48.8102 220.335C48.7882 220.119 48.7892 219.901 48.8382 219.691C48.8872 219.48 48.9872 219.279 49.1442 219.128C49.3472 218.934 49.6302 218.837 49.9122 218.81C50.1942 218.783 50.4772 218.82 50.7572 218.86C51.0382 218.9 51.3202 218.945 51.6032 218.931C51.8862 218.917 52.1732 218.844 52.3952 218.672C52.6142 218.5 52.7522 218.246 52.8312 217.982C52.9102 217.719 52.9362 217.443 52.9682 217.17C53.0002 216.898 53.0412 216.622 53.1472 216.368C53.2532 216.114 53.4312 215.879 53.6812 215.755H53.6802Z" fill="#F5BD0C"/>
</g>
<g filter="url(#filter34_f_508_155)">
<path d="M56.2432 218.052C56.6212 218.735 56.8521 219.521 57.2281 220.211C57.5731 220.845 57.9661 221.499 58.3181 222.083C58.4731 222.344 58.8382 222.745 59.2072 223.366C59.5402 223.928 59.8782 224.715 60.0662 224.979C59.9582 224.67 59.7351 223.84 59.4691 223.249C59.2221 222.696 58.9321 222.38 58.7531 222.083C58.4021 221.499 58.0242 220.972 57.6642 220.414C57.1662 219.645 56.7862 218.784 56.2432 218.052Z" fill="url(#paint28_linear_508_155)"/>
</g>
</g>
<path d="M90.5449 200.98H95.0689V211.872H101.561V215.622H90.5449V200.98ZM104.519 200.98H109.043V215.635H104.519V200.98ZM112.41 200.98H117.035L121.307 208.825H121.352V200.98H125.624V215.635H121.216L116.717 207.635H116.674V215.635H112.401L112.41 200.98ZM142.338 209.971C142.338 214.057 140.181 215.997 135.657 215.997C131.132 215.997 128.957 214.067 128.957 209.971V200.979H133.48V208.966C133.48 210.443 133.48 212.334 135.682 212.334C137.884 212.334 137.821 210.45 137.821 208.966V200.979H142.345V209.971H142.338ZM149.53 207.836L144.704 200.98H150.008L152.212 204.967L154.395 200.98H159.409L154.704 207.881L159.939 215.635H154.495L151.986 211.267L149.399 215.635H144.221L149.53 207.836Z" fill="white"/>
</g>
<defs>
<filter id="filter0_f_508_155" x="-194.109" y="-54.1094" width="272.494" height="285.099" filterUnits="userSpaceOnUse" color-interpolation-filters="sRGB">
<feFlood flood-opacity="0" result="BackgroundImageFix"/>
<feBlend mode="normal" in="SourceGraphic" in2="BackgroundImageFix" result="shape"/>
<feGaussianBlur stdDeviation="49.0547" result="effect1_foregroundBlur_508_155"/>
</filter>
<filter id="filter1_f_508_155" x="60.0536" y="197.818" width="10.3112" height="6.50501" filterUnits="userSpaceOnUse" color-interpolation-filters="sRGB">
<feFlood flood-opacity="0" result="BackgroundImageFix"/>
<feBlend mode="normal" in="SourceGraphic" in2="BackgroundImageFix" result="shape"/>
<feGaussianBlur stdDeviation="0.254181" result="effect1_foregroundBlur_508_155"/>
</filter>
<filter id="filter2_f_508_155" x="60.2581" y="197.698" width="9.34219" height="4.48281" filterUnits="userSpaceOnUse" color-interpolation-filters="sRGB">
<feFlood flood-opacity="0" result="BackgroundImageFix"/>
<feBlend mode="normal" in="SourceGraphic" in2="BackgroundImageFix" result="shape"/>
<feGaussianBlur stdDeviation="0.11167" result="effect1_foregroundBlur_508_155"/>
</filter>
<filter id="filter3_f_508_155" x="60.1553" y="195.313" width="9.44088" height="5.09273" filterUnits="userSpaceOnUse" color-interpolation-filters="sRGB">
<feFlood flood-opacity="0" result="BackgroundImageFix"/>
<feBlend mode="normal" in="SourceGraphic" in2="BackgroundImageFix" result="shape"/>
<feGaussianBlur stdDeviation="0.169912" result="effect1_foregroundBlur_508_155"/>
</filter>
<filter id="filter4_f_508_155" x="67.0814" y="187.758" width="3.39473" height="3.26778" filterUnits="userSpaceOnUse" color-interpolation-filters="sRGB">
<feFlood flood-opacity="0" result="BackgroundImageFix"/>
<feBlend mode="normal" in="SourceGraphic" in2="BackgroundImageFix" result="shape"/>
<feGaussianBlur stdDeviation="0.250294" result="effect1_foregroundBlur_508_155"/>
</filter>
<filter id="filter5_f_508_155" x="67.161" y="194.977" width="0.67366" height="0.539383" filterUnits="userSpaceOnUse" color-interpolation-filters="sRGB">
<feFlood flood-opacity="0" result="BackgroundImageFix"/>
<feBlend mode="normal" in="SourceGraphic" in2="BackgroundImageFix" result="shape"/>
<feGaussianBlur stdDeviation="0.031086" result="effect1_foregroundBlur_508_155"/>
</filter>
<filter id="filter6_f_508_155" x="67.097" y="194.281" width="1.27431" height="1.25722" filterUnits="userSpaceOnUse" color-interpolation-filters="sRGB">
<feFlood flood-opacity="0" result="BackgroundImageFix"/>
<feBlend mode="normal" in="SourceGraphic" in2="BackgroundImageFix" result="shape"/>
<feGaussianBlur stdDeviation="0.0647938" result="effect1_foregroundBlur_508_155"/>
</filter>
<filter id="filter7_f_508_155" x="67.5041" y="191.625" width="2.30389" height="2.12859" filterUnits="userSpaceOnUse" color-interpolation-filters="sRGB">
<feFlood flood-opacity="0" result="BackgroundImageFix"/>
<feBlend mode="normal" in="SourceGraphic" in2="BackgroundImageFix" result="shape"/>
<feGaussianBlur stdDeviation="0.0184768" result="effect1_foregroundBlur_508_155"/>
</filter>
<filter id="filter8_f_508_155" x="61.5034" y="191.912" width="2.15238" height="1.89749" filterUnits="userSpaceOnUse" color-interpolation-filters="sRGB">
<feFlood flood-opacity="0" result="BackgroundImageFix"/>
<feBlend mode="normal" in="SourceGraphic" in2="BackgroundImageFix" result="shape"/>
<feGaussianBlur stdDeviation="0.0168539" result="effect1_foregroundBlur_508_155"/>
</filter>
<filter id="filter9_f_508_155" x="61.6615" y="194.42" width="1.01887" height="1.47884" filterUnits="userSpaceOnUse" color-interpolation-filters="sRGB">
<feFlood flood-opacity="0" result="BackgroundImageFix"/>
<feBlend mode="normal" in="SourceGraphic" in2="BackgroundImageFix" result="shape"/>
<feGaussianBlur stdDeviation="0.0640447" result="effect1_foregroundBlur_508_155"/>
</filter>
<filter id="filter10_f_508_155" x="62.4103" y="199.187" width="2.46651" height="1.86788" filterUnits="userSpaceOnUse" color-interpolation-filters="sRGB">
<feFlood flood-opacity="0" result="BackgroundImageFix"/>
<feBlend mode="normal" in="SourceGraphic" in2="BackgroundImageFix" result="shape"/>
<feGaussianBlur stdDeviation="0.112234" result="effect1_foregroundBlur_508_155"/>
</filter>
<filter id="filter11_f_508_155" x="60.6413" y="196.886" width="8.06505" height="3.70567" filterUnits="userSpaceOnUse" color-interpolation-filters="sRGB">
<feFlood flood-opacity="0" result="BackgroundImageFix"/>
<feBlend mode="normal" in="SourceGraphic" in2="BackgroundImageFix" result="shape"/>
<feGaussianBlur stdDeviation="0.0946316" result="effect1_foregroundBlur_508_155"/>
</filter>
<filter id="filter12_f_508_155" x="63.9628" y="197.006" width="2.26235" height="2.6935" filterUnits="userSpaceOnUse" color-interpolation-filters="sRGB">
<feFlood flood-opacity="0" result="BackgroundImageFix"/>
<feBlend mode="normal" in="SourceGraphic" in2="BackgroundImageFix" result="shape"/>
<feGaussianBlur stdDeviation="0.105992" result="effect1_foregroundBlur_508_155"/>
</filter>
<filter id="filter13_f_508_155" x="64.7645" y="196.249" width="0.878173" height="0.486572" filterUnits="userSpaceOnUse" color-interpolation-filters="sRGB">
<feFlood flood-opacity="0" result="BackgroundImageFix"/>
<feBlend mode="normal" in="SourceGraphic" in2="BackgroundImageFix" result="shape"/>
<feGaussianBlur stdDeviation="0.0137328" result="effect1_foregroundBlur_508_155"/>
</filter>
<filter id="filter14_f_508_155" x="62.8207" y="196.323" width="0.385986" height="0.419189" filterUnits="userSpaceOnUse" color-interpolation-filters="sRGB">
<feFlood flood-opacity="0" result="BackgroundImageFix"/>
<feBlend mode="normal" in="SourceGraphic" in2="BackgroundImageFix" result="shape"/>
<feGaussianBlur stdDeviation="0.0137328" result="effect1_foregroundBlur_508_155"/>
</filter>
<filter id="filter15_f_508_155" x="68.3776" y="197.458" width="1.00991" height="1.19692" filterUnits="userSpaceOnUse" color-interpolation-filters="sRGB">
<feFlood flood-opacity="0" result="BackgroundImageFix"/>
<feBlend mode="normal" in="SourceGraphic" in2="BackgroundImageFix" result="shape"/>
<feGaussianBlur stdDeviation="0.0426394" result="effect1_foregroundBlur_508_155"/>
</filter>
<filter id="filter16_f_508_155" x="72.5217" y="206.11" width="4.76521" height="12.441" filterUnits="userSpaceOnUse" color-interpolation-filters="sRGB">
<feFlood flood-opacity="0" result="BackgroundImageFix"/>
<feBlend mode="normal" in="SourceGraphic" in2="BackgroundImageFix" result="shape"/>
<feGaussianBlur stdDeviation="0.170307" result="effect1_foregroundBlur_508_155"/>
</filter>
<filter id="filter17_f_508_155" x="57.0653" y="204.153" width="5.53297" height="5.19362" filterUnits="userSpaceOnUse" color-interpolation-filters="sRGB">
<feFlood flood-opacity="0" result="BackgroundImageFix"/>
<feBlend mode="normal" in="SourceGraphic" in2="BackgroundImageFix" result="shape"/>
<feGaussianBlur stdDeviation="0.0862458" result="effect1_foregroundBlur_508_155"/>
</filter>
<filter id="filter18_f_508_155" x="64.7417" y="203.658" width="8.38274" height="5.97942" filterUnits="userSpaceOnUse" color-interpolation-filters="sRGB">
<feFlood flood-opacity="0" result="BackgroundImageFix"/>
<feBlend mode="normal" in="SourceGraphic" in2="BackgroundImageFix" result="shape"/>
<feGaussianBlur stdDeviation="0.142072" result="effect1_foregroundBlur_508_155"/>
</filter>
<filter id="filter19_f_508_155" x="61.7288" y="204.369" width="3.54386" height="3.75724" filterUnits="userSpaceOnUse" color-interpolation-filters="sRGB">
<feFlood flood-opacity="0" result="BackgroundImageFix"/>
<feBlend mode="normal" in="SourceGraphic" in2="BackgroundImageFix" result="shape"/>
<feGaussianBlur stdDeviation="0.0980019" result="effect1_foregroundBlur_508_155"/>
</filter>
<filter id="filter20_f_508_155" x="61.7249" y="209.145" width="1.33928" height="9.43401" filterUnits="userSpaceOnUse" color-interpolation-filters="sRGB">
<feFlood flood-opacity="0" result="BackgroundImageFix"/>
<feBlend mode="normal" in="SourceGraphic" in2="BackgroundImageFix" result="shape"/>
<feGaussianBlur stdDeviation="0.180524" result="effect1_foregroundBlur_508_155"/>
</filter>
<filter id="filter21_f_508_155" x="70.484" y="199.035" width="2.21947" height="2.41869" filterUnits="userSpaceOnUse" color-interpolation-filters="sRGB">
<feFlood flood-opacity="0" result="BackgroundImageFix"/>
<feBlend mode="normal" in="SourceGraphic" in2="BackgroundImageFix" result="shape"/>
<feGaussianBlur stdDeviation="0.112484" result="effect1_foregroundBlur_508_155"/>
</filter>
<filter id="filter22_f_508_155" x="70.6944" y="215.597" width="13.8787" height="14.0262" filterUnits="userSpaceOnUse" color-interpolation-filters="sRGB">
<feFlood flood-opacity="0" result="BackgroundImageFix"/>
<feBlend mode="normal" in="SourceGraphic" in2="BackgroundImageFix" result="shape"/>
<feGaussianBlur stdDeviation="0.596626" result="effect1_foregroundBlur_508_155"/>
</filter>
<filter id="filter23_f_508_155" x="71.4167" y="214.977" width="12.8478" height="12.7799" filterUnits="userSpaceOnUse" color-interpolation-filters="sRGB">
<feFlood flood-opacity="0" result="BackgroundImageFix"/>
<feBlend mode="normal" in="SourceGraphic" in2="BackgroundImageFix" result="shape"/>
<feGaussianBlur stdDeviation="0.470124" result="effect1_foregroundBlur_508_155"/>
</filter>
<filter id="filter24_f_508_155" x="72.1104" y="216.821" width="8.23529" height="1.53119" filterUnits="userSpaceOnUse" color-interpolation-filters="sRGB">
<feFlood flood-opacity="0" result="BackgroundImageFix"/>
<feBlend mode="normal" in="SourceGraphic" in2="BackgroundImageFix" result="shape"/>
<feGaussianBlur stdDeviation="0.0598" result="effect1_foregroundBlur_508_155"/>
</filter>
<filter id="filter25_f_508_155" x="73.5605" y="207.937" width="2.60949" height="2.63879" filterUnits="userSpaceOnUse" color-interpolation-filters="sRGB">
<feFlood flood-opacity="0" result="BackgroundImageFix"/>
<feBlend mode="normal" in="SourceGraphic" in2="BackgroundImageFix" result="shape"/>
<feGaussianBlur stdDeviation="0.286162" result="effect1_foregroundBlur_508_155"/>
</filter>
<filter id="filter26_f_508_155" x="58.6972" y="202.466" width="0.927417" height="0.945484" filterUnits="userSpaceOnUse" color-interpolation-filters="sRGB">
<feFlood flood-opacity="0" result="BackgroundImageFix"/>
<feBlend mode="normal" in="SourceGraphic" in2="BackgroundImageFix" result="shape"/>
<feGaussianBlur stdDeviation="0.0798768" result="effect1_foregroundBlur_508_155"/>
</filter>
<filter id="filter27_f_508_155" x="73.1971" y="216.639" width="6.36797" height="5.65167" filterUnits="userSpaceOnUse" color-interpolation-filters="sRGB">
<feFlood flood-opacity="0" result="BackgroundImageFix"/>
<feBlend mode="normal" in="SourceGraphic" in2="BackgroundImageFix" result="shape"/>
<feGaussianBlur stdDeviation="0.355055" result="effect1_foregroundBlur_508_155"/>
</filter>
<filter id="filter28_f_508_155" x="73.6319" y="217.089" width="5.49845" height="3.60929" filterUnits="userSpaceOnUse" color-interpolation-filters="sRGB">
<feFlood flood-opacity="0" result="BackgroundImageFix"/>
<feBlend mode="normal" in="SourceGraphic" in2="BackgroundImageFix" result="shape"/>
<feGaussianBlur stdDeviation="0.137675" result="effect1_foregroundBlur_508_155"/>
</filter>
<filter id="filter29_f_508_155" x="74.0121" y="214.96" width="5.58657" height="2.88198" filterUnits="userSpaceOnUse" color-interpolation-filters="sRGB">
<feFlood flood-opacity="0" result="BackgroundImageFix"/>
<feBlend mode="normal" in="SourceGraphic" in2="BackgroundImageFix" result="shape"/>
<feGaussianBlur stdDeviation="0.127965" result="effect1_foregroundBlur_508_155"/>
</filter>
<filter id="filter30_f_508_155" x="74.0121" y="214.96" width="5.58657" height="2.88198" filterUnits="userSpaceOnUse" color-interpolation-filters="sRGB">
<feFlood flood-opacity="0" result="BackgroundImageFix"/>
<feBlend mode="normal" in="SourceGraphic" in2="BackgroundImageFix" result="shape"/>
<feGaussianBlur stdDeviation="0.127965" result="effect1_foregroundBlur_508_155"/>
</filter>
<filter id="filter31_f_508_155" x="53.9117" y="207.059" width="4.47349" height="9.80552" filterUnits="userSpaceOnUse" color-interpolation-filters="sRGB">
<feFlood flood-opacity="0" result="BackgroundImageFix"/>
<feBlend mode="normal" in="SourceGraphic" in2="BackgroundImageFix" result="shape"/>
<feGaussianBlur stdDeviation="0.141322" result="effect1_foregroundBlur_508_155"/>
</filter>
<filter id="filter32_f_508_155" x="47.1814" y="215.228" width="14.6866" height="14.5562" filterUnits="userSpaceOnUse" color-interpolation-filters="sRGB">
<feFlood flood-opacity="0" result="BackgroundImageFix"/>
<feBlend mode="normal" in="SourceGraphic" in2="BackgroundImageFix" result="shape"/>
<feGaussianBlur stdDeviation="0.489885" result="effect1_foregroundBlur_508_155"/>
</filter>
<filter id="filter33_f_508_155" x="48.0005" y="215.052" width="12.4799" height="13.1591" filterUnits="userSpaceOnUse" color-interpolation-filters="sRGB">
<feFlood flood-opacity="0" result="BackgroundImageFix"/>
<feBlend mode="normal" in="SourceGraphic" in2="BackgroundImageFix" result="shape"/>
<feGaussianBlur stdDeviation="0.3015" result="effect1_foregroundBlur_508_155"/>
</filter>
<filter id="filter34_f_508_155" x="56.1508" y="217.959" width="4.00801" height="7.11153" filterUnits="userSpaceOnUse" color-interpolation-filters="sRGB">
<feFlood flood-opacity="0" result="BackgroundImageFix"/>
<feBlend mode="normal" in="SourceGraphic" in2="BackgroundImageFix" result="shape"/>
<feGaussianBlur stdDeviation="0.046192" result="effect1_foregroundBlur_508_155"/>
</filter>
<linearGradient id="paint0_linear_508_155" x1="283.115" y1="145.173" x2="283.115" y2="271.232" gradientUnits="userSpaceOnUse">
<stop stop-color="white"/>
<stop offset="1" stop-color="white" stop-opacity="0"/>
</linearGradient>
<linearGradient id="paint1_linear_508_155" x1="283.115" y1="10.076" x2="283.115" y2="136.135" gradientUnits="userSpaceOnUse">
<stop stop-color="white"/>
<stop offset="1" stop-color="white" stop-opacity="0"/>
</linearGradient>
<linearGradient id="paint2_linear_508_155" x1="104.255" y1="11.8543" x2="104.255" y2="133.792" gradientUnits="userSpaceOnUse">
<stop stop-color="white"/>
<stop offset="1" stop-color="white" stop-opacity="0"/>
</linearGradient>
<linearGradient id="paint3_linear_508_155" x1="104.255" y1="149.112" x2="104.255" y2="267.262" gradientUnits="userSpaceOnUse">
<stop stop-color="white"/>
<stop offset="1" stop-color="white" stop-opacity="0"/>
</linearGradient>
<radialGradient id="paint4_radial_508_155" cx="0" cy="0" r="1" gradientUnits="userSpaceOnUse" gradientTransform="translate(91.602 336.168) rotate(-2.40705) scale(4.51036 11.0999)">
<stop stop-color="#FEFEFC"/>
<stop offset="0.757" stop-color="#FEFEFC"/>
<stop offset="1" stop-color="#D4D4D4"/>
</radialGradient>
<radialGradient id="paint5_radial_508_155" cx="0" cy="0" r="1" gradientUnits="userSpaceOnUse" gradientTransform="translate(139.64 340.634) rotate(-1.80781) scale(8.10124 11.6919)">
<stop stop-color="#FEFEFC"/>
<stop offset="0.757" stop-color="#FEFEFC"/>
<stop offset="1" stop-color="#D4D4D4"/>
</radialGradient>
<radialGradient id="paint6_radial_508_155" cx="0" cy="0" r="1" gradientUnits="userSpaceOnUse" gradientTransform="translate(171.157 205.692) rotate(-35.9757) scale(7.42575 4.92363)">
<stop stop-color="#020204"/>
<stop offset="0.734" stop-color="#020204"/>
<stop offset="1" stop-color="#5C5C5C"/>
</radialGradient>
<linearGradient id="paint7_linear_508_155" x1="374.543" y1="326.954" x2="381.23" y2="335" gradientUnits="userSpaceOnUse">
<stop stop-color="#949494" stop-opacity="0.392"/>
<stop offset="0.5" stop-color="#949494"/>
<stop offset="1" stop-color="#949494" stop-opacity="0.392"/>
</linearGradient>
<linearGradient id="paint8_linear_508_155" x1="681.094" y1="792.981" x2="801.99" y2="892.409" gradientUnits="userSpaceOnUse">
<stop stop-color="#747474"/>
<stop offset="0.125" stop-color="#8C8C8C"/>
<stop offset="0.25" stop-color="#A4A4A4"/>
<stop offset="0.5" stop-color="#D4D4D4"/>
<stop offset="0.619" stop-color="#D4D4D4"/>
<stop offset="1" stop-color="#7C7C7C"/>
</linearGradient>
<linearGradient id="paint9_linear_508_155" x1="102.131" y1="408.633" x2="131.423" y2="438.637" gradientUnits="userSpaceOnUse">
<stop stop-color="#646464" stop-opacity="0"/>
<stop offset="0.306" stop-color="#646464" stop-opacity="0.583"/>
<stop offset="0.47" stop-color="#646464"/>
<stop offset="0.728" stop-color="#646464" stop-opacity="0.257"/>
<stop offset="1" stop-color="#646464" stop-opacity="0"/>
</linearGradient>
<linearGradient id="paint10_linear_508_155" x1="7.80055" y1="387.167" x2="32.2373" y2="413.977" gradientUnits="userSpaceOnUse">
<stop stop-color="#646464" stop-opacity="0"/>
<stop offset="0.306" stop-color="#646464" stop-opacity="0.583"/>
<stop offset="0.47" stop-color="#646464"/>
<stop offset="0.728" stop-color="#646464" stop-opacity="0.257"/>
<stop offset="1" stop-color="#646464" stop-opacity="0"/>
</linearGradient>
<linearGradient id="paint11_linear_508_155" x1="186.917" y1="356.021" x2="195.239" y2="365.302" gradientUnits="userSpaceOnUse">
<stop stop-color="#757574" stop-opacity="0"/>
<stop offset="0.263" stop-color="#757574"/>
<stop offset="0.5" stop-color="#757574"/>
<stop offset="1" stop-color="#757574" stop-opacity="0"/>
</linearGradient>
<radialGradient id="paint12_radial_508_155" cx="0" cy="0" r="1" gradientUnits="userSpaceOnUse" gradientTransform="translate(2705.82 -243.101) rotate(-22.4029) scale(279.42 96.9894)">
<stop stop-color="#D2940A"/>
<stop offset="0.751" stop-color="#D89C08"/>
<stop offset="0.866" stop-color="#B67E07"/>
<stop offset="1" stop-color="#946106"/>
</radialGradient>
<linearGradient id="paint13_linear_508_155" x1="471.107" y1="894.398" x2="965.95" y2="886.709" gradientUnits="userSpaceOnUse">
<stop stop-color="#AD780A"/>
<stop offset="0.12" stop-color="#D89E08"/>
<stop offset="0.255" stop-color="#EDB80B"/>
<stop offset="0.392" stop-color="#EBC80D"/>
<stop offset="0.527" stop-color="#F5D838"/>
<stop offset="0.769" stop-color="#F6D811"/>
<stop offset="1" stop-color="#F5CD31"/>
</linearGradient>
<radialGradient id="paint14_radial_508_155" cx="0" cy="0" r="1" gradientUnits="userSpaceOnUse" gradientTransform="translate(128.741 233.4) scale(2.65934 0.813239)">
<stop stop-color="#3A2903"/>
<stop offset="0.555" stop-color="#735208"/>
<stop offset="1" stop-color="#AC8C04"/>
</radialGradient>
<radialGradient id="paint15_radial_508_155" cx="0" cy="0" r="1" gradientUnits="userSpaceOnUse" gradientTransform="translate(83.7134 254.052) scale(0.507389 0.60086)">
<stop stop-color="#3A2903"/>
<stop offset="0.555" stop-color="#735208"/>
<stop offset="1" stop-color="#AC8C04"/>
</radialGradient>
<linearGradient id="paint16_linear_508_155" x1="252.327" y1="358.669" x2="252.853" y2="361.399" gradientUnits="userSpaceOnUse">
<stop stop-color="#F5CE2D"/>
<stop offset="1" stop-color="#D79B08"/>
</linearGradient>
<radialGradient id="paint17_radial_508_155" cx="0" cy="0" r="1" gradientUnits="userSpaceOnUse" gradientTransform="translate(621.939 215.264) rotate(-9.33822) scale(73.7478 31.5964)">
<stop stop-color="#C8C8C8"/>
<stop offset="1" stop-color="#797978"/>
</radialGradient>
<radialGradient id="paint18_radial_508_155" cx="0" cy="0" r="1" gradientUnits="userSpaceOnUse" gradientTransform="translate(-1112.71 1020.91) rotate(180) scale(99.2542 101.374)">
<stop/>
<stop offset="1" stop-opacity="0.25"/>
</radialGradient>
<radialGradient id="paint19_radial_508_155" cx="0" cy="0" r="1" gradientUnits="userSpaceOnUse" gradientTransform="translate(2462.34 1179.68) scale(214.051 113.135)">
<stop/>
<stop offset="1" stop-opacity="0.25"/>
</radialGradient>
<radialGradient id="paint20_radial_508_155" cx="0" cy="0" r="1" gradientUnits="userSpaceOnUse" gradientTransform="translate(888.482 1013.25) scale(34.1833 39.0278)">
<stop/>
<stop offset="1" stop-opacity="0.25"/>
</radialGradient>
<linearGradient id="paint21_linear_508_155" x1="5625.98" y1="5026.05" x2="6256.51" y2="4033.63" gradientUnits="userSpaceOnUse">
<stop stop-color="#3E2A06"/>
<stop offset="1" stop-color="#AD780A"/>
</linearGradient>
<linearGradient id="paint22_linear_508_155" x1="433.352" y1="591.084" x2="433.053" y2="607.725" gradientUnits="userSpaceOnUse">
<stop stop-color="#F3CD0C"/>
<stop offset="1" stop-color="#F3CD0C" stop-opacity="0"/>
</linearGradient>
<radialGradient id="paint23_radial_508_155" cx="0" cy="0" r="1" gradientUnits="userSpaceOnUse" gradientTransform="translate(1893.54 2592.45) rotate(14.9824) scale(112.867 101.343)">
<stop stop-color="#110800"/>
<stop offset="0.591" stop-color="#A65A00" stop-opacity="0.8"/>
<stop offset="1" stop-color="#FF921E" stop-opacity="0"/>
</radialGradient>
<radialGradient id="paint24_radial_508_155" cx="0" cy="0" r="1" gradientUnits="userSpaceOnUse" gradientTransform="translate(1893.54 1934.41) rotate(10.9498) scale(111.051 74.4616)">
<stop stop-color="#110800"/>
<stop offset="0.591" stop-color="#A65A00" stop-opacity="0.8"/>
<stop offset="1" stop-color="#FF921E" stop-opacity="0"/>
</radialGradient>
<radialGradient id="paint25_radial_508_155" cx="0" cy="0" r="1" gradientUnits="userSpaceOnUse" gradientTransform="translate(732.972 617.407) rotate(23.4964) scale(40.9422 8.84435)">
<stop stop-color="#7C7C7C"/>
<stop offset="1" stop-color="#7C7C7C" stop-opacity="0.33"/>
</radialGradient>
<linearGradient id="paint26_linear_508_155" x1="1893.58" y1="877.627" x2="1908.71" y2="876.282" gradientUnits="userSpaceOnUse">
<stop stop-color="#7C7C7C"/>
<stop offset="1" stop-color="#7C7C7C" stop-opacity="0.33"/>
</linearGradient>
<linearGradient id="paint27_linear_508_155" x1="1752.69" y1="4340.9" x2="2401.85" y2="5443.34" gradientUnits="userSpaceOnUse">
<stop stop-color="#B98309"/>
<stop offset="1" stop-color="#382605"/>
</linearGradient>
<linearGradient id="paint28_linear_508_155" x1="710.278" y1="2450.2" x2="835.81" y2="2580.62" gradientUnits="userSpaceOnUse">
<stop stop-color="#EBC40C"/>
<stop offset="1" stop-color="#EBC40C" stop-opacity="0"/>
</linearGradient>
<clipPath id="clip0_508_155">
<rect width="362" height="272" fill="white"/>
</clipPath>
</defs>
</svg>
