<svg width="44" height="50" viewBox="0 0 44 50" fill="none" xmlns="http://www.w3.org/2000/svg">
<path d="M43.1685 34.6801C43.1685 32.6132 41.8156 30.8617 39.9545 30.263V19.737C41.8156 19.1383 43.1685 17.3868 43.1685 15.32C43.1685 12.7613 41.0965 10.68 38.5492 10.68C37.3561 10.68 36.2699 11.1394 35.45 11.8871L26.3674 6.62347C26.4367 6.30719 26.4769 5.97897 26.4769 5.63992C26.4769 3.08128 24.4048 1 21.8576 1C19.3103 1 17.2383 3.08128 17.2383 5.63992C17.2383 5.97897 17.2786 6.30719 17.3479 6.62347L8.26519 11.8871C7.44538 11.1394 6.35909 10.68 5.16592 10.68C2.61866 10.68 0.546631 12.7613 0.546631 15.32C0.546631 17.3868 1.89952 19.1383 3.76068 19.737V30.263C1.89952 30.8617 0.546631 32.6132 0.546631 34.6801C0.546631 37.2387 2.61866 39.3199 5.16592 39.3199C6.35909 39.3199 7.44538 38.8606 8.26519 38.1129L17.3479 43.3765C17.2786 43.6928 17.2383 44.021 17.2383 44.3601C17.2383 46.9187 19.3103 49 21.8576 49C24.4048 49 26.4769 46.9187 26.4769 44.3601C26.4769 44.021 26.4367 43.6928 26.3674 43.3765L35.45 38.1129C36.2699 38.8606 37.3561 39.3199 38.5492 39.3199C41.0965 39.3199 43.1685 37.2387 43.1685 34.6801ZM38.5492 13.5075C39.544 13.5075 40.3537 14.3206 40.3537 15.32C40.3537 16.3193 39.544 17.1325 38.5492 17.1325C37.5546 17.1325 36.7449 16.3193 36.7449 15.32C36.7449 14.3206 37.5546 13.5075 38.5492 13.5075ZM21.8576 3.82747C22.8522 3.82747 23.6619 4.64056 23.6619 5.63992C23.6619 6.63928 22.8522 7.45238 21.8576 7.45238C20.8629 7.45238 20.0532 6.63928 20.0532 5.63992C20.0532 4.64056 20.8629 3.82747 21.8576 3.82747ZM3.36153 15.32C3.36153 14.3206 4.17122 13.5075 5.16592 13.5075C6.16063 13.5075 6.97033 14.3206 6.97033 15.32C6.97033 16.3193 6.16063 17.1325 5.16592 17.1325C4.17122 17.1325 3.36153 16.3193 3.36153 15.32ZM5.16592 36.4925C4.17122 36.4925 3.36153 35.6794 3.36153 34.6801C3.36153 33.6807 4.17122 32.8676 5.16592 32.8676C6.16063 32.8676 6.97033 33.6807 6.97033 34.6801C6.97033 35.6794 6.16063 36.4925 5.16592 36.4925ZM21.8576 46.1726C20.8629 46.1726 20.0532 45.3595 20.0532 44.3601C20.0532 43.3606 20.8629 42.5477 21.8576 42.5477C22.8522 42.5477 23.6619 43.3606 23.6619 44.3601C23.6619 45.3595 22.8522 46.1726 21.8576 46.1726ZM33.9299 34.6801C33.9299 35.0199 33.9704 35.3489 34.04 35.666L24.9587 40.9288C24.1387 40.1801 23.0516 39.7201 21.8576 39.7201C20.6636 39.7201 19.5765 40.1801 18.7565 40.9288L9.67517 35.666C9.74479 35.3489 9.78523 35.0199 9.78523 34.6801C9.78523 32.6148 8.43448 30.8644 6.57558 30.2643V19.7357C8.43448 19.1356 9.78523 17.3852 9.78523 15.32C9.78523 14.9801 9.74479 14.6511 9.67517 14.3341L18.7565 9.07114C19.5765 9.8199 20.6636 10.2798 21.8576 10.2798C23.0516 10.2798 24.1387 9.8199 24.9587 9.07114L34.04 14.3341C33.9704 14.6511 33.9299 14.9801 33.9299 15.32C33.9299 17.3852 35.2807 19.1356 37.1397 19.7357V30.2643C35.2807 30.8644 33.9299 32.6148 33.9299 34.6801ZM38.5492 36.4925C37.5546 36.4925 36.7449 35.6794 36.7449 34.6801C36.7449 33.6807 37.5546 32.8676 38.5492 32.8676C39.544 32.8676 40.3537 33.6807 40.3537 34.6801C40.3537 35.6794 39.544 36.4925 38.5492 36.4925Z" fill="#FFA054" stroke="#FFA054" stroke-width="0.2"/>
<path d="M30.5943 16.5522H13.1195C11.9003 16.5522 10.9082 17.5488 10.9082 18.7731V24.034C10.9082 24.3817 10.9952 24.7067 11.1377 25.0001C10.9952 25.2933 10.9082 25.6185 10.9082 25.9661V31.2269C10.9082 32.4514 11.9003 33.4479 13.1195 33.4479H30.5943C31.8135 33.4479 32.8057 32.4514 32.8057 31.2269V25.9661C32.8057 25.6185 32.7185 25.2933 32.5761 25.0001C32.7185 24.7067 32.8057 24.3817 32.8057 24.034V18.7731C32.8057 17.5488 31.8135 16.5522 30.5943 16.5522ZM30.3072 30.9383H13.4067V26.2549H30.3072V30.9383ZM30.3072 23.7453H13.4067V19.0619H30.3072V23.7453Z" fill="#FFA054"/>
<path d="M26.3984 22.657H27.341C28.0309 22.657 28.5901 22.0953 28.5901 21.4023C28.5901 20.7092 28.0309 20.1475 27.341 20.1475H26.3984C25.7085 20.1475 25.1492 20.7092 25.1492 21.4023C25.1492 22.0953 25.7085 22.657 26.3984 22.657Z" fill="#FFA054"/>
<path d="M21.8878 22.657H22.8304C23.5203 22.657 24.0796 22.0953 24.0796 21.4023C24.0796 20.7092 23.5203 20.1475 22.8304 20.1475H21.8878C21.1979 20.1475 20.6387 20.7092 20.6387 21.4023C20.6387 22.0953 21.1979 22.657 21.8878 22.657Z" fill="#FFA054"/>
<path d="M26.3984 29.85H27.341C28.0309 29.85 28.5901 29.2883 28.5901 28.5952C28.5901 27.9022 28.0309 27.3403 27.341 27.3403H26.3984C25.7085 27.3403 25.1492 27.9022 25.1492 28.5952C25.1492 29.2883 25.7085 29.85 26.3984 29.85Z" fill="#FFA054"/>
<path d="M21.8878 29.85H22.8304C23.5203 29.85 24.0796 29.2883 24.0796 28.5952C24.0796 27.9022 23.5203 27.3403 22.8304 27.3403H21.8878C21.1979 27.3403 20.6387 27.9022 20.6387 28.5952C20.6387 29.2883 21.1979 29.85 21.8878 29.85Z" fill="#FFA054"/>
</svg>
