<svg width="48" height="48" viewBox="0 0 48 48" fill="none" xmlns="http://www.w3.org/2000/svg">
<g clip-path="url(#clip0_747_41997)">
<path d="M14.8368 0.0667776C7.32634 0.639787 1.84181 2.8909 0.347898 6.04245L0 6.77917V24.0309V41.2826L0.368363 42.0192C1.84181 45.048 6.97843 47.2378 14.182 47.8925C15.7168 48.0358 19.8507 48.0358 21.3854 47.8925C25.3147 47.5446 28.9779 46.6442 31.3722 45.4573C32.3546 44.9661 33.6438 44.0453 34.2578 43.3904C34.8922 42.6946 35.4856 41.6509 35.588 40.996L35.6493 40.6072H33.9712H32.2931L31.7202 41.1802C30.083 42.8173 25.9696 44.1475 21.099 44.5773C19.5027 44.7205 16.0238 44.7205 14.4276 44.5773C9.22954 44.1066 4.64547 42.5309 3.49944 40.8323C3.25387 40.4843 3.25387 40.423 3.25387 37.3533V34.2222L4.19525 34.693C4.72733 34.9589 5.64822 35.3477 6.26218 35.5728C7.28539 35.9208 9.33186 36.4938 9.57744 36.4938C9.6593 36.4938 9.70022 35.9208 9.70022 34.7952V33.0966L9.14768 32.9739C7.32634 32.5442 4.95243 31.48 4.07246 30.7022C3.25387 29.9861 3.27434 30.0474 3.27434 26.6094V23.5397L4.05198 23.949C5.07522 24.5014 6.67146 25.095 8.32909 25.5248L9.70022 25.8726L9.74115 24.3378C9.78208 23.5192 9.84347 22.7416 9.86394 22.6392C9.92533 22.496 9.84347 22.4346 9.4751 22.3528C7.28539 21.8002 5.01382 20.8179 4.11339 20.0198C3.23341 19.2421 3.27434 19.324 3.27434 15.9064C3.27434 14.2488 3.2948 12.8981 3.33573 12.8981C3.37666 12.8981 3.76549 13.0823 4.23618 13.3074C6.77378 14.5762 10.2732 15.4152 14.5708 15.8041C16.4331 15.9678 21.0376 15.8655 22.8386 15.6403C26.1742 15.1901 29.2235 14.392 31.229 13.3892C31.7816 13.1232 32.2317 12.8981 32.2522 12.8981C32.3546 12.8981 32.2931 19.0579 32.1909 19.2421C32.0885 19.4262 32.1294 19.4467 33.9099 19.4467H35.7312V13.7371C35.7312 7.96611 35.6698 7.00427 35.3219 6.1857C34.0326 3.21832 29.3258 1.04908 22.4088 0.230494C20.6283 0.0258483 16.5763 -0.0764745 14.8368 0.0667776ZM20.0349 3.40251C25.4374 3.72994 30.0421 5.10107 31.7611 6.90195C32.2114 7.3931 32.2931 7.53635 32.2931 7.88426C32.2931 8.68237 31.495 9.4805 29.8784 10.2581C23.6366 13.3074 11.7467 13.2869 5.64822 10.2172C4.17478 9.4805 3.27434 8.64144 3.27434 7.98658C3.27434 6.32894 7.24446 4.44621 12.3197 3.70947C15.0006 3.32066 17.2722 3.23878 20.0349 3.40251Z" fill="#FFA054"/>
<path d="M13.2609 21.5747C12.753 21.7589 12.2655 22.1681 12.042 22.6184C11.8389 23.0277 11.8389 23.2528 11.8389 29.9446C11.8389 36.4525 11.8592 36.8822 12.042 37.2915C12.2858 37.8235 12.7937 38.2328 13.3828 38.3966C13.9719 38.5603 45.8456 38.5603 46.455 38.3966C47.0238 38.2328 47.5317 37.844 47.7957 37.3325C47.9989 36.9232 47.9989 36.6981 47.9989 29.9651C47.9989 23.2528 47.9785 23.0072 47.7957 22.5979C47.5317 22.0862 47.0441 21.6974 46.455 21.5337C45.8456 21.3905 13.7281 21.411 13.2609 21.5747ZM28.8422 25.2174C29.2078 25.5448 32.052 33.7307 31.9504 34.1605C31.8691 34.4673 31.4019 34.7539 30.9955 34.7539C30.5486 34.7539 30.3049 34.4264 30.0205 33.4237L29.736 32.4824H28.1515H26.567L26.2825 33.4237C26.12 33.9558 25.8966 34.4469 25.7747 34.5493C25.3075 34.9585 24.312 34.6107 24.312 34.0376C24.312 33.8944 24.9011 32.1344 25.6121 30.1085C27.3185 25.2379 27.2781 25.3197 27.5624 25.1355C27.8672 24.9104 28.4969 24.9513 28.8422 25.2174ZM35.16 25.2582C35.3632 25.5448 35.3835 25.6472 35.3835 29.8833V34.2217L35.1195 34.4878C34.9569 34.672 34.7537 34.7539 34.4694 34.7539C34.1849 34.7539 34.0021 34.672 33.8397 34.4878L33.5755 34.2217V29.8424C33.5755 25.4833 33.5755 25.463 33.8193 25.2174C34.1646 24.8694 34.8757 24.8899 35.16 25.2582ZM21.4273 25.4016C22.5446 25.8518 23.0526 26.6499 23.0526 27.9392C23.0729 29.0648 22.8088 29.5763 22.0571 30.0061L21.5289 30.3131L22.3619 31.9912C22.8291 32.9325 23.1947 33.8125 23.1947 33.9558C23.1947 34.5697 22.2603 34.9995 21.7931 34.631C21.7118 34.5697 21.2649 33.6897 20.7976 32.7073L19.9648 30.9065H19.0709H18.1771V32.6665C18.1771 34.3651 18.1568 34.4469 17.9333 34.6107C17.6083 34.8561 17.08 34.8153 16.7347 34.5493L16.4502 34.3446V29.9243V25.5243L16.755 25.2992C17.0395 25.0741 17.1206 25.0536 18.9083 25.115C20.5539 25.156 20.9195 25.1969 21.4273 25.4016ZM41.6608 25.2992C42.9203 25.7085 43.7328 26.5475 44.0782 27.8368C44.2813 28.6758 44.3016 31.1521 44.0782 32.0117C43.7328 33.3827 42.8187 34.2422 41.3763 34.5493C41.0717 34.6107 40.1981 34.672 39.4261 34.672C38.0854 34.672 38.0245 34.6515 37.7806 34.4059L37.5166 34.14V29.8424V25.5448L37.8009 25.3401C38.0651 25.1355 38.2275 25.115 39.548 25.115C40.6856 25.0945 41.1731 25.1355 41.6608 25.2992Z" fill="#FFA054"/>
<path d="M28.0923 27.6928C27.8485 28.3885 27.0767 30.8853 27.0767 30.9466C27.0767 30.9875 27.5642 31.0285 28.1533 31.0285C28.7424 31.0285 29.2299 30.9875 29.2299 30.9466C29.2299 30.8443 28.2549 27.6518 28.2143 27.5904C28.1736 27.5494 28.1127 27.5904 28.0923 27.6928Z" fill="#FFA054"/>
<path d="M18.2389 28.0209L18.2795 29.4534L19.3155 29.4124C20.8798 29.3716 21.3064 29.0646 21.3064 28.0414C21.3064 26.9977 20.6766 26.6089 19.0109 26.6089H18.1982L18.2389 28.0209Z" fill="#FFA054"/>
<path d="M39.3452 29.8844V33.0769L40.2391 33.0156C41.2955 32.9542 41.8846 32.6881 42.2299 32.0742C42.4331 31.7058 42.4534 31.5012 42.4534 29.9663C42.4534 28.5338 42.4127 28.1858 42.2502 27.838C41.8846 27.0399 41.2751 26.7124 40.0766 26.7124H39.3452V29.8844Z" fill="#FFA054"/>
</g>
<defs>
<clipPath id="clip0_747_41997">
<rect width="48" height="48" fill="white"/>
</clipPath>
</defs>
</svg>
