<svg width="40" height="40" viewBox="0 0 40 40" fill="none" xmlns="http://www.w3.org/2000/svg">
<path d="M23.0179 12.8333C23.0179 11.2605 21.731 9.97363 20.1582 9.97363C18.5853 9.97363 17.2985 11.2605 17.2985 12.8333V15.693H23.0179V12.8333Z" fill="#2D3250"/>
<path d="M3 7.11349V18.5523C3 30.42 9.29133 33.9946 17.8704 38.8561L19.4433 39.714C19.7292 40 19.8722 40 20.1582 40C20.4441 40 20.5871 40 20.8731 39.857L22.4459 38.9991C31.025 33.9946 37.3164 30.42 37.3164 18.5523V7.11349C37.3164 6.54155 36.8874 5.96962 36.3155 5.82663L20.5871 0.107239C20.3012 -0.0357462 19.8722 -0.0357462 19.5862 0.107239L3.85791 5.82663C3.42895 5.96962 3 6.54155 3 7.11349ZM11.5791 19.9821C11.5791 18.1233 12.723 16.5505 14.4388 15.9786V12.8329C14.4388 9.68722 17.0125 7.11349 20.1582 7.11349C23.3038 7.11349 25.8776 9.68722 25.8776 12.8329V15.9786C27.5934 16.5505 28.7373 18.1233 28.7373 19.9821V24.2717C28.7373 28.9902 24.8767 32.8508 20.1582 32.8508C15.4397 32.8508 11.5791 28.9902 11.5791 24.2717V19.9821Z" fill="#2D3250"/>
<path d="M20.1581 19.9824C19.3002 19.9824 18.7283 20.5544 18.7283 21.4123V24.272C18.7283 25.1299 19.3002 25.7018 20.1581 25.7018C21.016 25.7018 21.588 25.1299 21.588 24.272V21.4123C21.588 20.5544 21.016 19.9824 20.1581 19.9824Z" fill="#2D3250"/>
</svg>
