<svg width="54" height="54" viewBox="0 0 54 54" fill="none" xmlns="http://www.w3.org/2000/svg">
<path d="M27.7031 35.1641C28.1719 35.9844 28.875 36.6484 29.6563 37.1172C30.125 37.3906 30.6328 37.625 31.1797 37.7422C31.6094 37.8594 32.0781 37.8984 32.5859 37.8984C33.0547 37.8984 33.5234 37.8203 33.9922 37.7422C34.5391 37.625 35.0469 37.3906 35.5156 37.1172C36.3359 36.6484 37 35.9453 37.4688 35.1641C37.7422 34.6953 37.9766 34.1875 38.0938 33.6406C38.2109 33.2109 38.25 32.7422 38.25 32.2344C38.25 31.7656 38.1719 31.2969 38.0938 30.8281C37.9766 30.2813 37.7422 29.7734 37.4688 29.3047C37 28.4844 36.2969 27.8203 35.5156 27.3516C35.0469 27.0781 34.5391 26.8437 33.9922 26.7266C33.5625 26.6094 33.0938 26.5703 32.5859 26.5703C32.1172 26.5703 31.6484 26.6484 31.1797 26.7266C30.6328 26.8437 30.125 27.0781 29.6563 27.3516C28.8359 27.8203 28.1719 28.5234 27.7031 29.3047C27.4297 29.7734 27.1953 30.2813 27.0781 30.8281C26.9609 31.2578 26.9219 31.7266 26.9219 32.2344C26.9219 32.7031 27 33.1719 27.0781 33.6406C27.1953 34.1875 27.4297 34.6953 27.7031 35.1641Z" fill="#2D3250"/>
<path d="M48.7187 29.7344H47.5859C47.1953 27.4297 46.2969 25.2813 44.9687 23.4453L45.75 22.6641C46.7266 21.6875 46.7266 20.0859 45.75 19.0703C44.7734 18.0938 43.1328 18.0938 42.1562 19.0703L41.375 19.8516C39.5781 18.5234 37.4297 17.625 35.125 17.2344V16.1016C35.125 14.6953 33.9922 13.5625 32.5859 13.5625C31.8437 13.5625 31.1797 13.875 30.7109 14.4219C31.0234 14.9687 31.1797 15.5938 31.1797 16.2578C31.1797 18.0547 29.8906 19.5781 28.2109 19.9688C27.9766 20.7891 27.6641 21.5703 27.2344 22.2734C27.4297 22.5469 27.5469 22.8594 27.6641 23.1719C28.4062 22.7813 29.2266 22.4297 30.0469 22.2344C30.8672 22.0391 31.7266 21.9219 32.5859 21.9219C33.4453 21.9219 34.3047 22.0391 35.125 22.2344C36.1016 22.4688 37.0391 22.8594 37.8594 23.3672C39.3437 24.2266 40.5547 25.4766 41.4531 26.9609C41.9609 27.8203 42.3516 28.7188 42.5859 29.6953C42.7812 30.5156 42.8984 31.375 42.8984 32.2344C42.8984 33.0938 42.7812 33.9531 42.5859 34.7734C42.3516 35.75 41.9609 36.6875 41.4531 37.5078C40.5937 38.9922 39.3437 40.2031 37.8594 41.1016C37 41.6094 36.1016 42 35.125 42.2344C34.3047 42.4297 33.4453 42.5469 32.5859 42.5469C31.7266 42.5469 30.8672 42.4297 30.0469 42.2344C29.0703 42 28.1328 41.6094 27.3125 41.1016C25.8281 40.2422 24.6172 38.9922 23.7187 37.5078C23.2109 36.6484 22.8203 35.75 22.5859 34.7734C22.3906 33.9531 22.2734 33.0938 22.2734 32.2344C22.2734 31.375 22.3906 30.5156 22.5859 29.6953C22.7422 29.1094 22.9375 28.5234 23.1719 27.9766C22.7422 27.8594 22.3516 27.7031 22 27.4688C21.2578 27.8594 20.4766 28.1719 19.6953 28.4453C19.3437 30.1641 17.8203 31.4141 15.9844 31.4141C15.3594 31.4141 14.7734 31.2578 14.2266 30.9844C14.0312 31.3359 13.9141 31.7656 13.9141 32.1953C13.9141 33.6016 15.0469 34.7344 16.4531 34.7344H17.5859C17.9766 37.0391 18.875 39.1875 20.2031 41.0234L19.4219 41.8047C18.4453 42.7813 18.4453 44.3828 19.4219 45.3984C19.9297 45.9063 20.5547 46.1406 21.2187 46.1406C21.8828 46.1406 22.5078 45.9063 23.0156 45.3984L23.7969 44.6172C25.6328 45.9063 27.7812 46.8438 30.0859 47.2344V48.3672C30.0859 49.7734 31.2187 50.9063 32.625 50.9063C34.0312 50.9063 35.1641 49.7734 35.1641 48.3672V47.2344C37.4687 46.8438 39.6172 45.9453 41.4531 44.6172L42.2344 45.3984C42.7422 45.9063 43.3672 46.1406 44.0312 46.1406C44.6953 46.1406 45.3203 45.9063 45.8281 45.3984C46.8047 44.4219 46.8047 42.7813 45.8281 41.8047L45.0469 41.0234C46.3359 39.1875 47.2734 37.0391 47.6641 34.7344H48.7969C50.2031 34.7344 51.3359 33.6016 51.3359 32.1953C51.2578 30.8672 50.125 29.7344 48.7187 29.7344Z" fill="#2D3250"/>
<path d="M14.1484 27.6641C14.1484 28.6406 14.9687 29.4609 15.9453 29.4609C16.9219 29.4609 17.7422 28.6406 17.7422 27.6641V26.8828C19.3828 26.6094 20.9062 25.9844 22.1953 25.0469L22.7422 25.5938C23.0937 25.9453 23.5625 26.1016 23.9922 26.1016C24.4609 26.1016 24.8906 25.9453 25.2422 25.5938C25.9453 24.8906 25.9453 23.7578 25.2422 23.0547L24.6953 22.5078C25.6328 21.2188 26.2578 19.6953 26.5312 18.0547H27.3125C28.2891 18.0547 29.1094 17.2344 29.1094 16.2578C29.1094 15.2813 28.2891 14.4609 27.3125 14.4609H26.5312C26.2578 12.8203 25.5937 11.2969 24.6953 10.0078L25.2422 9.46094C25.9453 8.75781 25.9453 7.625 25.2422 6.92188C24.5391 6.21875 23.4062 6.21875 22.7031 6.92188L22.1953 7.46875C20.9062 6.53125 19.3828 5.90625 17.7422 5.63281V4.85156C17.7422 3.875 16.9219 3.05469 15.9453 3.05469C14.9687 3.05469 14.1484 3.875 14.1484 4.85156V5.63281C12.5469 5.90625 11.0234 6.57031 9.73437 7.46875L9.1875 6.92188C8.48437 6.21875 7.35156 6.21875 6.64844 6.92188C5.94531 7.625 5.94531 8.75781 6.64844 9.46094L7.19531 10.0078C6.25781 11.2969 5.63281 12.8203 5.35937 14.4609H4.57812C3.60156 14.4609 2.78125 15.2813 2.78125 16.2578C2.78125 17.2344 3.60156 18.0547 4.57812 18.0547H5.35937C5.63281 19.6953 6.25781 21.2188 7.19531 22.5078L6.64844 23.0547C5.94531 23.7578 5.94531 24.8906 6.64844 25.5938C7 25.9453 7.46875 26.1016 7.89844 26.1016C8.36719 26.1016 8.83594 25.9453 9.14844 25.5938L9.69531 25.0469C10.9844 25.9844 12.5078 26.6094 14.1484 26.8828V27.6641ZM12.9766 21.2578C12.1562 20.75 11.4531 20.0859 10.9453 19.2266C10.6719 18.7578 10.4375 18.25 10.3203 17.6641C10.2031 17.1953 10.125 16.7266 10.125 16.2578C10.125 15.75 10.2031 15.2813 10.3203 14.8516C10.4766 14.3047 10.6719 13.7969 10.9453 13.2891C11.4531 12.4688 12.1172 11.7656 12.9766 11.2578C13.4453 10.9844 13.9531 10.75 14.5391 10.6328C15.0078 10.5156 15.4766 10.4375 15.9453 10.4375C16.4531 10.4375 16.9219 10.5156 17.3516 10.6328C17.8984 10.7891 18.4062 10.9844 18.9141 11.2578C19.7344 11.7656 20.4375 12.4297 20.9453 13.2891C21.2187 13.7578 21.4531 14.2656 21.5703 14.8516C21.6875 15.3203 21.7656 15.7891 21.7656 16.2578C21.7656 16.7656 21.6875 17.2344 21.5703 17.6641C21.4141 18.2109 21.2187 18.7188 20.9453 19.2266C20.4375 20.0469 19.7734 20.75 18.9141 21.2578C18.4453 21.5313 17.9375 21.7656 17.3516 21.8828C16.8828 22 16.4141 22.0781 15.9453 22.0781C15.4375 22.0781 14.9687 22 14.5391 21.8828C13.9922 21.7656 13.4844 21.5313 12.9766 21.2578Z" fill="#2D3250"/>
</svg>
