<svg width="70" height="70" viewBox="0 0 70 70" fill="none" xmlns="http://www.w3.org/2000/svg">
<g clip-path="url(#clip0_254_12339)">
<path fill-rule="evenodd" clip-rule="evenodd" d="M24.563 56.0466L24.5117 56.1423L22.2787 60.4729L22.2273 60.4496C16.6374 57.8387 12.1534 53.3316 9.57133 47.7283H9.55967L14.0257 45.4416L13.944 45.3016C12.3614 42.9616 11.581 40.1711 11.7203 37.3496H0C0.319667 55.2463 14.77 69.6686 32.6667 69.9626L32.6643 69.9859V58.3566H32.641C29.8274 58.4906 27.0459 57.7106 24.7123 56.1329L24.563 56.0466Z" fill="#FFA054"/>
<path d="M26.5534 31.8527C26.5534 37.553 20.405 38.512 20.405 44.322V46.7487H29.3744V43.9278H23.5084C23.4804 43.7878 23.4804 43.6477 23.4804 43.5054C23.4804 40.262 29.6567 37.9474 29.6567 31.7407C29.6567 28.5814 28.077 26.7753 25.032 26.7753C21.9847 26.7753 20.405 28.5814 20.405 31.7407V33.6588H23.338V31.5425C23.338 30.1331 23.9587 29.5962 24.948 29.5962C25.9327 29.5962 26.5534 30.077 26.5534 31.8527ZM30.856 43.167H36.8364V46.7487H39.8837V43.167H41.3514V40.3438H39.8837V27.0017H36.5004L30.856 40.346V43.167ZM33.705 40.3438L36.8364 32.9236V40.3438H33.705Z" fill="#FFA054"/>
<path fill-rule="evenodd" clip-rule="evenodd" d="M33.8916 4.66663V9.33785H36.2249V4.66663H33.8916ZM60.6666 33.8333V36.1666H65.3333V33.8333H60.6666ZM33.8916 11.6527V20.9698H36.2249V11.6527H33.8916ZM44.5666 33.8333V36.1666H58.3333V33.8333H44.5666Z" fill="#FFA054"/>
<path d="M35.0327 0C15.7337 0 0.0629883 15.6708 0.0629883 34.9698H2.39632C2.39632 16.9331 16.9937 2.33333 35.0327 2.33333C53.0693 2.33333 67.6666 16.9308 67.6666 34.9698C67.6666 53.0065 53.0693 67.6037 35.0327 67.6037V69.937C54.3293 69.937 70 54.2665 70 34.9698C70 15.6708 54.3317 0 35.0327 0Z" fill="#FFA054"/>
</g>
<defs>
<clipPath id="clip0_254_12339">
<rect width="70" height="70" fill="white"/>
</clipPath>
</defs>
</svg>
