<svg width="39" height="40" viewBox="0 0 39 40" fill="none" xmlns="http://www.w3.org/2000/svg">
<path d="M32.625 14.71C32.625 7.70413 26.8773 2 19.8125 2C12.7477 2 7 7.70156 7 14.71C7 18.8612 9.04231 22.5179 12.1532 24.837V35.2612C12.1532 36.8987 13.0526 37.5009 13.4396 37.6854C13.8239 37.8622 14.8669 38.1748 16.1481 37.1498L18.6824 35.1101C19.2898 34.6232 20.3942 34.6232 20.9964 35.1101L23.5332 37.1472C24.2328 37.7136 24.8657 37.875 25.3526 37.875C25.6584 37.8763 25.9608 37.8116 26.2393 37.6854C26.6236 37.5009 27.5256 36.8987 27.5256 35.2612V24.796C30.6032 22.4744 32.625 18.8356 32.625 14.71ZM25.0169 35.1383L22.5774 33.1805C21.0425 31.9403 18.6389 31.9377 17.0988 33.1779L14.6593 35.1383V26.3309C16.2404 27.0228 17.9777 27.4226 19.8125 27.4226C21.6067 27.4193 23.3801 27.0377 25.0169 26.3027V35.1383Z" fill="#2D3250"/>
</svg>
