<svg width="40" height="40" viewBox="0 0 40 40" fill="none" xmlns="http://www.w3.org/2000/svg">
<path fill-rule="evenodd" clip-rule="evenodd" d="M36.864 18.7905L18.7882 36.8661C17.8389 37.8155 16.2902 37.8155 15.3408 36.8661L3.13396 24.6593C2.18451 23.71 2.18451 22.1613 3.13396 21.2118L21.2096 3.136C21.6971 2.64858 22.2956 2.40811 22.985 2.42248L32.8806 2.63155C34.0599 2.65631 35.1148 3.12045 35.997 4.00295C36.8795 4.88545 37.3437 5.94006 37.3684 7.11944L37.5775 17.0151C37.5921 17.7044 37.3514 18.303 36.864 18.7905ZM30.2581 9.74194C29.0991 8.58295 27.2201 8.58295 26.0611 9.74194C24.9021 10.9009 24.9021 12.78 26.0611 13.9389C27.2201 15.0979 29.0991 15.0979 30.2583 13.9389C31.4173 12.78 31.4173 10.9009 30.2581 9.74194Z" fill="#2D3250"/>
</svg>
