<svg width="40" height="40" viewBox="0 0 40 40" fill="none" xmlns="http://www.w3.org/2000/svg">
<path d="M33.2229 18.9371C32.844 18.9371 32.4806 18.7866 32.2127 18.5187C31.9448 18.2507 31.7943 17.8874 31.7943 17.5085V13.4742C31.7943 7.75993 26.5143 3.1885 20.0229 3.1885C13.5314 3.1885 8.25143 7.81707 8.25143 13.4742V17.5085C8.25143 17.8874 8.10092 18.2507 7.83301 18.5187C7.5651 18.7866 7.20174 18.9371 6.82286 18.9371C6.44398 18.9371 6.08062 18.7866 5.81271 18.5187C5.5448 18.2507 5.39429 17.8874 5.39429 17.5085V13.4742C5.39429 6.20564 11.9657 0.285645 20.0229 0.285645C28.08 0.285645 34.6514 6.20564 34.6514 13.4742V17.5085C34.653 17.6965 34.617 17.883 34.5458 18.057C34.4745 18.231 34.3694 18.3891 34.2364 18.522C34.1034 18.655 33.9454 18.7602 33.7713 18.8314C33.5973 18.9027 33.4109 18.9386 33.2229 18.9371Z" fill="#2D3250"/>
<path d="M29.36 32.3771C28.9811 32.3771 28.6178 32.2266 28.3499 31.9587C28.082 31.6908 27.9315 31.3275 27.9315 30.9486V17.3829C27.9433 17.012 28.0991 16.6602 28.3657 16.4021C28.6323 16.144 28.9889 15.9998 29.36 16C34.2857 16 38.2972 19.6914 38.2972 24.2171C38.2972 28.7429 34.2857 32.3771 29.36 32.3771ZM30.7886 18.96V29.3714C32.0393 29.1644 33.1816 28.5356 34.0256 27.5897C34.8697 26.6438 35.3648 25.4376 35.4286 24.1714C35.3673 22.9033 34.8734 21.6944 34.0291 20.7461C33.1848 19.7979 32.0412 19.1675 30.7886 18.96ZM10.64 32.3771C5.71431 32.3771 1.70288 28.6971 1.70288 24.1714C1.70288 19.6457 5.71431 16 10.64 16C11.0189 16 11.3823 16.1505 11.6502 16.4184C11.9181 16.6863 12.0686 17.0497 12.0686 17.4286V30.9486C12.0686 31.3275 11.9181 31.6908 11.6502 31.9587C11.3823 32.2266 11.0189 32.3771 10.64 32.3771ZM9.21145 18.96C7.95889 19.1675 6.81522 19.7979 5.97095 20.7461C5.12667 21.6944 4.63275 22.9033 4.57145 24.1714C4.63529 25.4376 5.13035 26.6438 5.97441 27.5897C6.81847 28.5356 7.96072 29.1644 9.21145 29.3714V18.96Z" fill="#2D3250"/>
<path d="M28.8914 37.0285H24.16C23.7811 37.0285 23.4178 36.878 23.1499 36.6101C22.882 36.3422 22.7314 35.9788 22.7314 35.6C22.7314 35.2211 22.882 34.8577 23.1499 34.5898C23.4178 34.3219 23.7811 34.1714 24.16 34.1714H28.8914C29.631 34.1714 30.3403 33.8776 30.8633 33.3546C31.3862 32.8317 31.68 32.1224 31.68 31.3828V30.7543C31.68 30.3754 31.8305 30.012 32.0984 29.7441C32.3663 29.4762 32.7297 29.3257 33.1086 29.3257C33.4875 29.3257 33.8508 29.4762 34.1187 29.7441C34.3867 30.012 34.5372 30.3754 34.5372 30.7543V31.3828C34.5372 32.8802 33.9423 34.3162 32.8836 35.3749C31.8248 36.4337 30.3888 37.0285 28.8914 37.0285Z" fill="#2D3250"/>
<path d="M21.7143 39.7142H18.8915C17.8549 39.7142 16.8607 39.3025 16.1277 38.5695C15.3947 37.8365 14.9829 36.8423 14.9829 35.8057V35.6457C14.9859 34.611 15.3991 33.6198 16.1317 32.8893C16.8644 32.1588 17.8568 31.7485 18.8915 31.7485H21.7143C22.7479 31.7485 23.7392 32.1591 24.47 32.89C25.2009 33.6208 25.6115 34.6121 25.6115 35.6457V35.8057C25.6115 36.8403 25.2013 37.8328 24.4707 38.5654C23.7402 39.2981 22.749 39.7112 21.7143 39.7142ZM18.9143 34.6057C18.6375 34.6057 18.3717 34.7149 18.1749 34.9096C17.978 35.1043 17.8659 35.3688 17.8629 35.6457V35.8057C17.8629 36.0845 17.9737 36.352 18.1709 36.5491C18.368 36.7463 18.6355 36.8571 18.9143 36.8571H21.7143C21.9912 36.8541 22.2557 36.742 22.4504 36.5451C22.6452 36.3483 22.7544 36.0826 22.7543 35.8057V35.6457C22.7543 35.3699 22.6448 35.1053 22.4497 34.9103C22.2547 34.7152 21.9902 34.6057 21.7143 34.6057H18.9143Z" fill="#2D3250"/>
<path d="M9.71434 17.1429C7.74416 17.1429 5.85467 17.9255 4.46154 19.3186C3.06842 20.7118 2.28577 22.6012 2.28577 24.5714C2.28577 26.5416 3.06842 28.4311 4.46154 29.8242C5.85467 31.2173 7.74416 32 9.71434 32L9.71434 24.5714L9.71434 17.1429Z" fill="#2D3250"/>
<path d="M30.2857 17.1429C32.2558 17.1429 34.1453 17.9255 35.5385 19.3186C36.9316 20.7118 37.7142 22.6012 37.7142 24.5714C37.7142 26.5416 36.9316 28.4311 35.5385 29.8242C34.1453 31.2173 32.2558 32 30.2857 32L30.2857 24.5714L30.2857 17.1429Z" fill="#2D3250"/>
</svg>
