<svg width="40" height="40" viewBox="0 0 40 40" fill="none" xmlns="http://www.w3.org/2000/svg">
<rect x="5.88232" y="5.88232" width="29.4118" height="10.5882" fill="#2D3250"/>
<path d="M20 9.1665C19.6704 9.1665 19.3482 9.26425 19.0741 9.44739C18.8 9.63052 18.5864 9.89082 18.4602 10.1954C18.3341 10.4999 18.3011 10.835 18.3654 11.1583C18.4297 11.4816 18.5884 11.7786 18.8215 12.0117C19.0546 12.2448 19.3516 12.4035 19.6749 12.4678C19.9982 12.5321 20.3333 12.4991 20.6378 12.373C20.9424 12.2468 21.2027 12.0332 21.3858 11.7591C21.569 11.485 21.6667 11.1628 21.6667 10.8332C21.6667 10.3911 21.4911 9.96722 21.1785 9.65466C20.866 9.3421 20.4421 9.1665 20 9.1665ZM15 9.1665C14.6704 9.1665 14.3482 9.26425 14.0741 9.44739C13.8 9.63052 13.5864 9.89082 13.4602 10.1954C13.3341 10.4999 13.3011 10.835 13.3654 11.1583C13.4297 11.4816 13.5884 11.7786 13.8215 12.0117C14.0546 12.2448 14.3516 12.4035 14.6749 12.4678C14.9982 12.5321 15.3333 12.4991 15.6378 12.373C15.9424 12.2468 16.2027 12.0332 16.3858 11.7591C16.569 11.485 16.6667 11.1628 16.6667 10.8332C16.6667 10.3911 16.4911 9.96722 16.1786 9.65466C15.866 9.3421 15.4421 9.1665 15 9.1665ZM10 9.1665C9.6704 9.1665 9.34817 9.26425 9.07409 9.44739C8.80001 9.63052 8.58639 9.89082 8.46024 10.1954C8.3341 10.4999 8.30109 10.835 8.3654 11.1583C8.42971 11.4816 8.58844 11.7786 8.82153 12.0117C9.05462 12.2448 9.35159 12.4035 9.67489 12.4678C9.99819 12.5321 10.3333 12.4991 10.6378 12.373C10.9424 12.2468 11.2027 12.0332 11.3858 11.7591C11.569 11.485 11.6667 11.1628 11.6667 10.8332C11.6667 10.3911 11.4911 9.96722 11.1786 9.65466C10.866 9.3421 10.4421 9.1665 10 9.1665ZM10 9.1665C9.6704 9.1665 9.34817 9.26425 9.07409 9.44739C8.80001 9.63052 8.58639 9.89082 8.46024 10.1954C8.3341 10.4999 8.30109 10.835 8.3654 11.1583C8.42971 11.4816 8.58844 11.7786 8.82153 12.0117C9.05462 12.2448 9.35159 12.4035 9.67489 12.4678C9.99819 12.5321 10.3333 12.4991 10.6378 12.373C10.9424 12.2468 11.2027 12.0332 11.3858 11.7591C11.569 11.485 11.6667 11.1628 11.6667 10.8332C11.6667 10.3911 11.4911 9.96722 11.1786 9.65466C10.866 9.3421 10.4421 9.1665 10 9.1665ZM15 9.1665C14.6704 9.1665 14.3482 9.26425 14.0741 9.44739C13.8 9.63052 13.5864 9.89082 13.4602 10.1954C13.3341 10.4999 13.3011 10.835 13.3654 11.1583C13.4297 11.4816 13.5884 11.7786 13.8215 12.0117C14.0546 12.2448 14.3516 12.4035 14.6749 12.4678C14.9982 12.5321 15.3333 12.4991 15.6378 12.373C15.9424 12.2468 16.2027 12.0332 16.3858 11.7591C16.569 11.485 16.6667 11.1628 16.6667 10.8332C16.6667 10.3911 16.4911 9.96722 16.1786 9.65466C15.866 9.3421 15.4421 9.1665 15 9.1665ZM20 9.1665C19.6704 9.1665 19.3482 9.26425 19.0741 9.44739C18.8 9.63052 18.5864 9.89082 18.4602 10.1954C18.3341 10.4999 18.3011 10.835 18.3654 11.1583C18.4297 11.4816 18.5884 11.7786 18.8215 12.0117C19.0546 12.2448 19.3516 12.4035 19.6749 12.4678C19.9982 12.5321 20.3333 12.4991 20.6378 12.373C20.9424 12.2468 21.2027 12.0332 21.3858 11.7591C21.569 11.485 21.6667 11.1628 21.6667 10.8332C21.6667 10.3911 21.4911 9.96722 21.1785 9.65466C20.866 9.3421 20.4421 9.1665 20 9.1665ZM20 9.1665C19.6704 9.1665 19.3482 9.26425 19.0741 9.44739C18.8 9.63052 18.5864 9.89082 18.4602 10.1954C18.3341 10.4999 18.3011 10.835 18.3654 11.1583C18.4297 11.4816 18.5884 11.7786 18.8215 12.0117C19.0546 12.2448 19.3516 12.4035 19.6749 12.4678C19.9982 12.5321 20.3333 12.4991 20.6378 12.373C20.9424 12.2468 21.2027 12.0332 21.3858 11.7591C21.569 11.485 21.6667 11.1628 21.6667 10.8332C21.6667 10.3911 21.4911 9.96722 21.1785 9.65466C20.866 9.3421 20.4421 9.1665 20 9.1665ZM15 9.1665C14.6704 9.1665 14.3482 9.26425 14.0741 9.44739C13.8 9.63052 13.5864 9.89082 13.4602 10.1954C13.3341 10.4999 13.3011 10.835 13.3654 11.1583C13.4297 11.4816 13.5884 11.7786 13.8215 12.0117C14.0546 12.2448 14.3516 12.4035 14.6749 12.4678C14.9982 12.5321 15.3333 12.4991 15.6378 12.373C15.9424 12.2468 16.2027 12.0332 16.3858 11.7591C16.569 11.485 16.6667 11.1628 16.6667 10.8332C16.6667 10.3911 16.4911 9.96722 16.1786 9.65466C15.866 9.3421 15.4421 9.1665 15 9.1665ZM10 9.1665C9.6704 9.1665 9.34817 9.26425 9.07409 9.44739C8.80001 9.63052 8.58639 9.89082 8.46024 10.1954C8.3341 10.4999 8.30109 10.835 8.3654 11.1583C8.42971 11.4816 8.58844 11.7786 8.82153 12.0117C9.05462 12.2448 9.35159 12.4035 9.67489 12.4678C9.99819 12.5321 10.3333 12.4991 10.6378 12.373C10.9424 12.2468 11.2027 12.0332 11.3858 11.7591C11.569 11.485 11.6667 11.1628 11.6667 10.8332C11.6667 10.3911 11.4911 9.96722 11.1786 9.65466C10.866 9.3421 10.4421 9.1665 10 9.1665ZM33.3334 4.1665H6.66671C5.78265 4.1665 4.93481 4.51769 4.30968 5.14281C3.68456 5.76794 3.33337 6.61578 3.33337 7.49984V32.4998C3.33337 33.3839 3.68456 34.2317 4.30968 34.8569C4.93481 35.482 5.78265 35.8332 6.66671 35.8332H33.3334C34.2174 35.8332 35.0653 35.482 35.6904 34.8569C36.3155 34.2317 36.6667 33.3839 36.6667 32.4998V7.49984C36.6667 6.61578 36.3155 5.76794 35.6904 5.14281C35.0653 4.51769 34.2174 4.1665 33.3334 4.1665ZM33.3334 32.4998H6.66671V17.4998H33.3334V32.4998ZM33.3334 14.1665H6.66671V7.49984H33.3334V14.1665ZM20 12.4998C20.3297 12.4998 20.6519 12.4021 20.926 12.219C21.2001 12.0358 21.4137 11.7755 21.5398 11.471C21.666 11.1664 21.699 10.8313 21.6347 10.508C21.5704 10.1847 21.4116 9.88775 21.1785 9.65466C20.9455 9.42157 20.6485 9.26284 20.3252 9.19853C20.0019 9.13422 19.6668 9.16723 19.3622 9.29337C19.0577 9.41952 18.7974 9.63314 18.6143 9.90722C18.4311 10.1813 18.3334 10.5035 18.3334 10.8332C18.3334 11.2752 18.509 11.6991 18.8215 12.0117C19.1341 12.3242 19.558 12.4998 20 12.4998ZM15 12.4998C15.3297 12.4998 15.6519 12.4021 15.926 12.219C16.2001 12.0358 16.4137 11.7755 16.5398 11.471C16.666 11.1664 16.699 10.8313 16.6347 10.508C16.5704 10.1847 16.4116 9.88775 16.1786 9.65466C15.9455 9.42157 15.6485 9.26284 15.3252 9.19853C15.0019 9.13422 14.6668 9.16723 14.3622 9.29337C14.0577 9.41952 13.7974 9.63314 13.6143 9.90722C13.4311 10.1813 13.3334 10.5035 13.3334 10.8332C13.3334 11.2752 13.509 11.6991 13.8215 12.0117C14.1341 12.3242 14.558 12.4998 15 12.4998ZM10 12.4998C10.3297 12.4998 10.6519 12.4021 10.926 12.219C11.2001 12.0358 11.4137 11.7755 11.5398 11.471C11.666 11.1664 11.699 10.8313 11.6347 10.508C11.5704 10.1847 11.4116 9.88775 11.1786 9.65466C10.9455 9.42157 10.6485 9.26284 10.3252 9.19853C10.0019 9.13422 9.66678 9.16723 9.36223 9.29337C9.05769 9.41952 8.79739 9.63314 8.61426 9.90722C8.43112 10.1813 8.33337 10.5035 8.33337 10.8332C8.33337 11.2752 8.50897 11.6991 8.82153 12.0117C9.13409 12.3242 9.55801 12.4998 10 12.4998ZM10 9.1665C9.6704 9.1665 9.34817 9.26425 9.07409 9.44739C8.80001 9.63052 8.58639 9.89082 8.46024 10.1954C8.3341 10.4999 8.30109 10.835 8.3654 11.1583C8.42971 11.4816 8.58844 11.7786 8.82153 12.0117C9.05462 12.2448 9.35159 12.4035 9.67489 12.4678C9.99819 12.5321 10.3333 12.4991 10.6378 12.373C10.9424 12.2468 11.2027 12.0332 11.3858 11.7591C11.569 11.485 11.6667 11.1628 11.6667 10.8332C11.6667 10.3911 11.4911 9.96722 11.1786 9.65466C10.866 9.3421 10.4421 9.1665 10 9.1665ZM15 9.1665C14.6704 9.1665 14.3482 9.26425 14.0741 9.44739C13.8 9.63052 13.5864 9.89082 13.4602 10.1954C13.3341 10.4999 13.3011 10.835 13.3654 11.1583C13.4297 11.4816 13.5884 11.7786 13.8215 12.0117C14.0546 12.2448 14.3516 12.4035 14.6749 12.4678C14.9982 12.5321 15.3333 12.4991 15.6378 12.373C15.9424 12.2468 16.2027 12.0332 16.3858 11.7591C16.569 11.485 16.6667 11.1628 16.6667 10.8332C16.6667 10.3911 16.4911 9.96722 16.1786 9.65466C15.866 9.3421 15.4421 9.1665 15 9.1665ZM20 9.1665C19.6704 9.1665 19.3482 9.26425 19.0741 9.44739C18.8 9.63052 18.5864 9.89082 18.4602 10.1954C18.3341 10.4999 18.3011 10.835 18.3654 11.1583C18.4297 11.4816 18.5884 11.7786 18.8215 12.0117C19.0546 12.2448 19.3516 12.4035 19.6749 12.4678C19.9982 12.5321 20.3333 12.4991 20.6378 12.373C20.9424 12.2468 21.2027 12.0332 21.3858 11.7591C21.569 11.485 21.6667 11.1628 21.6667 10.8332C21.6667 10.3911 21.4911 9.96722 21.1785 9.65466C20.866 9.3421 20.4421 9.1665 20 9.1665Z" fill="#2D3250"/>
</svg>
