<svg width="68" height="68" viewBox="0 0 68 68" fill="none" xmlns="http://www.w3.org/2000/svg">
<mask id="mask0_254_11371" style="mask-type:luminance" maskUnits="userSpaceOnUse" x="3" y="3" width="61" height="61">
<path d="M64 3H3V64H64V3Z" fill="white"/>
</mask>
<g mask="url(#mask0_254_11371)">
<path d="M33.4996 3C16.6823 3 3 16.6823 3 33.5C3 50.3177 16.6823 63.9996 33.4996 63.9996C50.3177 63.9996 64 50.3175 64 33.5C64 16.6823 50.3177 3 33.4996 3ZM33.4996 59.1029C19.3825 59.1029 7.89714 47.6174 7.89714 33.5C7.89714 19.3825 19.3825 7.89714 33.4996 7.89714C47.6174 7.89714 59.1029 19.3825 59.1029 33.5C59.1029 47.6174 47.6174 59.1029 33.4996 59.1029Z" fill="#2D3250"/>
<path d="M54.0789 25.1433L50.5236 19.7538C49.7788 18.6249 48.2601 18.3138 47.1312 19.0581C46.0021 19.8028 45.6908 21.3216 46.4354 22.4505L49.3009 26.7944L42.9449 43.5431L34.224 22.6941C33.7022 21.4466 32.2671 20.8586 31.0203 21.3803C29.7724 21.902 29.1842 23.3365 29.7061 24.5841L32.4446 31.1303L27.7342 43.5431L19.0124 22.6941C18.4904 21.4466 17.0565 20.8586 15.8087 21.3803C14.5613 21.9024 13.9729 23.3365 14.495 24.5841L25.5864 51.0978C25.968 52.0095 26.8592 52.6012 27.8448 52.6012C27.8586 52.6012 27.8727 52.6008 27.8863 52.6008C28.8883 52.5842 29.7789 51.9583 30.1347 51.0213L35.1916 37.6959L40.7975 51.0978C41.1788 52.0095 42.0704 52.6012 43.056 52.6012C43.0698 52.6012 43.0834 52.6008 43.0972 52.6008C44.0991 52.5842 44.9897 51.9583 45.3457 51.0213L54.3247 27.36C54.6035 26.6248 54.512 25.7999 54.0789 25.1433Z" fill="#2D3250"/>
</g>
</svg>
