<svg width="68" height="68" viewBox="0 0 68 68" fill="none" xmlns="http://www.w3.org/2000/svg">
<g clip-path="url(#clip0_254_11319)">
<mask id="mask0_254_11319" style="mask-type:luminance" maskUnits="userSpaceOnUse" x="1" y="1" width="67" height="67">
<path d="M68 1H1V68H68V1Z" fill="white"/>
</mask>
<g mask="url(#mask0_254_11319)">
<path d="M61.3842 46.2335L59.1334 43.9827C58.3667 43.2165 57.1239 43.2165 56.3572 43.9827C51.6873 48.6524 45.6952 51.2129 39.575 51.6656V47.2206C50.7176 46.095 59.4432 36.6608 59.4432 25.2265C59.4432 13.0381 49.5281 3.12187 37.3401 3.11983H37.3365H37.3334C25.1452 3.12187 15.2299 13.0381 15.2299 25.2265C15.2299 36.849 24.245 46.4048 35.6497 47.2698V51.6679C29.5217 51.2194 23.5207 48.6584 18.8455 43.9827C8.50294 33.6408 8.50294 16.8131 18.8455 6.47055C19.6117 5.70432 19.6117 4.46165 18.8455 3.6949L16.5948 1.44421C15.828 0.677451 14.5854 0.677451 13.8186 1.44421C13.0524 2.21045 13.0518 3.45312 13.8186 4.21986L14.7249 5.12669C9.82637 10.6862 7.15039 17.7506 7.15039 25.2265C7.15039 33.3601 10.3176 41.0073 16.0693 46.7585C21.3579 52.0475 28.25 55.1494 35.6493 55.6139V58.3243H24.8527C23.7686 58.3243 22.8899 59.2034 22.8899 60.2872V65.9065C22.8899 66.9901 23.7686 67.8694 24.8527 67.8694H49.8204C50.9045 67.8694 51.7833 66.9901 51.7833 65.9065V60.2872C51.7833 59.2034 50.9045 58.3243 49.8204 58.3243H39.575V55.6139C46.3152 55.1856 52.6338 52.5686 57.7016 48.1028L58.6079 49.0098C59.3746 49.776 60.6173 49.776 61.3842 49.0098C62.1502 48.243 62.1502 47.0002 61.3842 46.2335ZM34.0386 13.1919C35.1928 11.0558 36.422 9.3137 37.3365 8.13492C38.2511 9.31419 39.4803 11.0563 40.6347 13.1919H34.0386ZM42.4308 17.1177C43.1446 19.0193 43.6904 21.0911 43.9037 23.2635H30.7697C30.9827 21.0911 31.5285 19.0193 32.2416 17.1177H42.4308ZM30.7697 27.1894H43.9037C43.6904 29.3622 43.1446 31.4341 42.4308 33.3355H32.2423C31.5285 31.4341 30.9827 29.3622 30.7697 27.1894ZM40.6341 37.2615C39.4803 39.397 38.2511 41.1397 37.3365 42.318C36.422 41.1393 35.1928 39.397 34.039 37.2615H40.6341ZM53.6055 33.3355H46.5995C47.2164 31.4158 47.67 29.3526 47.8462 27.1894H55.4116C55.1753 29.3772 54.5497 31.4495 53.6055 33.3355ZM47.8462 23.2635C47.67 21.1008 47.2164 19.0377 46.6 17.1177H53.6055C54.5497 19.004 55.1753 21.0762 55.4116 23.2635H47.8462ZM21.0675 17.1177H28.0731C27.4567 19.0377 27.0031 21.1008 26.8269 23.2635H19.2616C19.4977 21.0762 20.1234 19.004 21.0675 17.1177ZM26.8269 27.1894C27.0031 29.3526 27.4567 31.4158 28.0731 33.3355H21.0675C20.1234 31.4495 19.4977 29.3772 19.2616 27.1894H26.8269ZM41.8307 42.8455C42.8705 41.338 44.0263 39.4453 45.0496 37.2615H50.9516C48.5727 39.9498 45.413 41.931 41.8307 42.8455ZM45.0496 13.1919C44.0263 11.0082 42.871 9.11535 41.8307 7.60841C45.413 8.5224 48.5731 10.5037 50.9516 13.1919H45.0496ZM32.8424 7.60841C31.8021 9.11535 30.6468 11.0082 29.6235 13.1919H23.7215C26.1 10.5037 29.2601 8.5224 32.8424 7.60841ZM29.6235 37.2615C30.6468 39.4453 31.8021 41.338 32.8424 42.8455C29.2601 41.931 26.1 39.9498 23.7215 37.2615H29.6235ZM47.8576 63.9436H26.8155V62.2501H47.8576V63.9436Z" fill="#2D3250"/>
</g>
</g>
<defs>
<clipPath id="clip0_254_11319">
<rect width="67" height="67" fill="white" transform="translate(1 1)"/>
</clipPath>
</defs>
</svg>
