<svg width="475" height="351" viewBox="0 0 475 351" fill="none" xmlns="http://www.w3.org/2000/svg">
<g clip-path="url(#clip0_1675_115435)">
<mask id="mask0_1675_115435" style="mask-type:luminance" maskUnits="userSpaceOnUse" x="0" y="0" width="475" height="351">
<path d="M475 0H0V351H475V0Z" fill="white"/>
</mask>
<g mask="url(#mask0_1675_115435)">
<mask id="mask1_1675_115435" style="mask-type:luminance" maskUnits="userSpaceOnUse" x="0" y="0" width="475" height="351">
<path d="M475 0H0V351H475V0Z" fill="white"/>
</mask>
<g mask="url(#mask1_1675_115435)">
<path opacity="0.08" d="M237.498 335.256C278.152 335.256 311.109 330.695 311.109 325.069C311.109 319.442 278.152 314.881 237.498 314.881C196.843 314.881 163.887 319.442 163.887 325.069C163.887 330.695 196.843 335.256 237.498 335.256Z" fill="url(#paint0_radial_1675_115435)"/>
<g opacity="0.1">
<path d="M455.407 285.503C453.413 285.503 451.411 285.197 449.435 284.576C310.769 241.04 164.182 241.04 25.5169 284.576C19.458 286.483 13.058 285.415 7.94321 281.663C2.84598 277.919 -0.0742188 272.137 -0.0742188 265.812V46.4537C-0.0742188 40.1205 2.84598 34.3472 7.94321 30.6033C13.0493 26.8507 19.458 25.7835 25.5169 27.6905C164.182 71.2264 310.769 71.2264 449.435 27.6905C455.494 25.7923 461.894 26.8507 467.009 30.6033C472.106 34.3472 475.026 40.1293 475.026 46.4537V265.812C475.026 272.146 472.106 277.919 467.009 281.663C463.564 284.191 459.525 285.503 455.407 285.503ZM237.476 248.606C309.851 248.606 381.519 259.584 450.484 281.234C455.468 282.8 460.731 281.925 464.937 278.837C469.125 275.758 471.529 271.008 471.529 265.804V46.4537C471.529 41.249 469.125 36.4991 464.937 33.42C460.731 30.3322 455.468 29.4574 450.484 31.0232C381.519 52.6731 309.86 63.6511 237.476 63.6511C165.092 63.6511 93.4335 52.6731 24.4678 31.0232C19.4842 29.4574 14.2208 30.3322 10.0154 33.42C5.82738 36.4991 3.42302 41.249 3.42302 46.4537V265.812C3.42302 271.017 5.82738 275.767 10.0154 278.846C14.2208 281.934 19.4842 282.809 24.4678 281.243C93.4335 259.593 165.092 248.615 237.476 248.615V248.606Z" fill="url(#paint1_linear_1675_115435)"/>
<path d="M473.279 247.583C473.148 247.583 473.008 247.565 472.877 247.539C321.079 211.858 153.876 211.858 2.0777 247.539C1.13344 247.758 0.19793 247.18 -0.020648 246.236C-0.239225 245.291 0.346568 244.355 1.28208 244.136C153.596 208.333 321.368 208.333 473.682 244.136C474.626 244.355 475.203 245.3 474.984 246.236C474.792 247.041 474.075 247.583 473.279 247.583Z" fill="url(#paint2_linear_1675_115435)"/>
<path d="M473.278 202.735C473.208 202.735 473.138 202.735 473.068 202.726C321.139 184.873 153.804 184.873 1.87509 202.726C0.922092 202.84 0.0477793 202.149 -0.0658812 201.195C-0.179541 200.233 0.511164 199.367 1.46417 199.253C153.656 181.365 321.279 181.365 473.47 199.253C474.432 199.367 475.114 200.233 475 201.195C474.895 202.087 474.143 202.744 473.269 202.744L473.278 202.735Z" fill="url(#paint3_linear_1675_115435)"/>
<path d="M473.278 157.878H1.6744C0.712661 157.878 -0.0742188 157.091 -0.0742188 156.129C-0.0742188 155.166 0.712661 154.379 1.6744 154.379H473.278C474.239 154.379 475.026 155.166 475.026 156.129C475.026 157.091 474.239 157.878 473.278 157.878Z" fill="url(#paint4_linear_1675_115435)"/>
<path d="M237.475 126.431C157.519 126.431 77.5635 121.961 1.4721 113.012C0.510363 112.899 -0.1716 112.033 -0.0579399 111.071C0.0557206 110.108 0.930026 109.426 1.88302 109.54C153.812 127.393 321.146 127.393 473.075 109.54C474.028 109.426 474.903 110.117 475.016 111.071C475.13 112.024 474.439 112.899 473.486 113.012C397.395 121.952 317.439 126.431 237.484 126.431H237.475Z" fill="url(#paint5_linear_1675_115435)"/>
<path d="M237.475 94.9853C157.458 94.9853 77.4321 86.0366 1.27081 68.1307C0.326554 67.912 -0.25049 66.9673 -0.031911 66.0313C0.186666 65.0866 1.13093 64.5092 2.06644 64.7279C153.864 100.408 321.068 100.408 472.866 64.7279C473.801 64.5092 474.745 65.0866 474.964 66.0313C475.183 66.976 474.606 67.912 473.661 68.1307C397.5 86.0279 317.483 94.9853 237.457 94.9853H237.475Z" fill="url(#paint6_linear_1675_115435)"/>
<path d="M395.986 270.03C395.025 270.03 394.238 269.242 394.238 268.28V43.9878C394.238 43.0256 395.025 42.2383 395.986 42.2383C396.948 42.2383 397.735 43.0256 397.735 43.9878V268.28C397.735 269.242 396.948 270.03 395.986 270.03Z" fill="url(#paint7_linear_1675_115435)"/>
<path d="M317.128 256.594C316.166 256.594 315.379 255.806 315.379 254.844V57.4232C315.379 56.461 316.166 55.6738 317.128 55.6738C318.089 55.6738 318.876 56.461 318.876 57.4232V254.835C318.876 255.798 318.089 256.585 317.128 256.585V256.594Z" fill="url(#paint8_linear_1675_115435)"/>
<path d="M237.476 252.106C236.514 252.106 235.727 251.319 235.727 250.357V61.9018C235.727 60.9396 236.514 60.1523 237.476 60.1523C238.437 60.1523 239.224 60.9396 239.224 61.9018V250.357C239.224 251.319 238.437 252.106 237.476 252.106Z" fill="url(#paint9_linear_1675_115435)"/>
<path d="M157.835 256.594C156.873 256.594 156.086 255.806 156.086 254.844V57.4232C156.086 56.461 156.873 55.6738 157.835 55.6738C158.796 55.6738 159.583 56.461 159.583 57.4232V254.835C159.583 255.798 158.796 256.585 157.835 256.585V256.594Z" fill="url(#paint10_linear_1675_115435)"/>
<path d="M78.9713 270.03C78.0096 270.03 77.2227 269.242 77.2227 268.28V43.9878C77.2227 43.0256 78.0096 42.2383 78.9713 42.2383C79.9331 42.2383 80.7199 43.0256 80.7199 43.9878V268.28C80.7199 269.242 79.9331 270.03 78.9713 270.03Z" fill="url(#paint11_linear_1675_115435)"/>
</g>
<path d="M389.771 249.377H357.728C353.768 249.377 350.559 252.588 350.559 256.55V264.764C350.559 268.725 353.768 271.937 357.728 271.937H389.771C393.731 271.937 396.941 268.725 396.941 264.764V256.55C396.941 252.588 393.731 249.377 389.771 249.377Z" fill="#2B2635"/>
<path d="M373.563 259.261H363.202C362.476 259.261 361.891 258.675 361.891 257.949C361.891 257.223 362.476 256.637 363.202 256.637H373.563C374.288 256.637 374.874 257.223 374.874 257.949C374.874 258.675 374.288 259.261 373.563 259.261Z" fill="#F4F4F4"/>
<path d="M384.082 259.261H379.561C378.836 259.261 378.25 258.675 378.25 257.949C378.25 257.223 378.836 256.637 379.561 256.637H384.082C384.807 256.637 385.393 257.223 385.393 257.949C385.393 258.675 384.807 259.261 384.082 259.261Z" fill="#F4F4F4"/>
<path d="M384.08 264.676H370.694C369.969 264.676 369.383 264.09 369.383 263.364C369.383 262.638 369.969 262.052 370.694 262.052H384.08C384.806 262.052 385.391 262.638 385.391 263.364C385.391 264.09 384.806 264.676 384.08 264.676Z" fill="#F4F4F4"/>
<path d="M75.3808 199.587H43.3373C39.3778 199.587 36.168 202.798 36.168 206.76V214.973C36.168 218.935 39.3778 222.146 43.3373 222.146H75.3808C79.3404 222.146 82.5502 218.935 82.5502 214.973V206.76C82.5502 202.798 79.3404 199.587 75.3808 199.587Z" fill="#2B2635"/>
<path d="M51.1856 208.124H47.1201C46.3944 208.124 45.8086 207.538 45.8086 206.812C45.8086 206.086 46.3944 205.5 47.1201 205.5H51.1856C51.9113 205.5 52.4971 206.086 52.4971 206.812C52.4971 207.538 51.9113 208.124 51.1856 208.124Z" fill="#F4F4F4"/>
<path d="M60.1113 208.124H57.8818C57.1561 208.124 56.5703 207.538 56.5703 206.812C56.5703 206.086 57.1561 205.5 57.8818 205.5H60.1113C60.837 205.5 61.4227 206.086 61.4227 206.812C61.4227 207.538 60.837 208.124 60.1113 208.124Z" fill="#F4F4F4"/>
<path d="M66.9685 214.081H57.0888C56.3631 214.081 55.7773 213.495 55.7773 212.769C55.7773 212.043 56.3631 211.457 57.0888 211.457H66.9685C67.6942 211.457 68.28 212.043 68.28 212.769C68.28 213.495 67.6942 214.081 66.9685 214.081Z" fill="#F4F4F4"/>
<path d="M75.8941 214.081H73.0262C72.3006 214.081 71.7148 213.495 71.7148 212.769C71.7148 212.043 72.3006 211.457 73.0262 211.457H75.8941C76.6198 211.457 77.2054 212.043 77.2054 212.769C77.2054 213.495 76.6198 214.081 75.8941 214.081Z" fill="#F4F4F4"/>
<path opacity="0.1" d="M228.007 130.876V105.508L154.984 178.567C157.441 184.419 160.23 190.087 163.325 195.589L228.007 130.876Z" fill="white" fill-opacity="0.37"/>
<path opacity="0.1" d="M178.102 217.535C180.472 220.518 182.937 223.44 185.525 226.291C200.231 242.465 215.847 253.54 227.999 260.651V167.605L178.094 217.535H178.102Z" fill="white" fill-opacity="0.37"/>
<path d="M207.277 242.108H204.654V205.482L185.602 186.413L187.456 184.559L207.277 204.389V242.108Z" fill="white" fill-opacity="0.37"/>
<path d="M238.936 158.789H236.312V262.935H238.936V158.789Z" fill="white" fill-opacity="0.37"/>
<path d="M224.143 254.458H221.52V197.224L199.016 174.699V157.694H201.639V173.614L224.143 196.139V254.458Z" fill="white" fill-opacity="0.37"/>
<path d="M182.178 188.425C177.657 188.425 173.977 184.742 173.977 180.22C173.977 175.697 177.657 172.015 182.178 172.015C186.698 172.015 190.379 175.697 190.379 180.22C190.379 184.742 186.698 188.425 182.178 188.425ZM182.178 174.648C179.1 174.648 176.599 177.149 176.599 180.228C176.599 183.308 179.1 185.809 182.178 185.809C185.255 185.809 187.756 183.308 187.756 180.228C187.756 177.149 185.255 174.648 182.178 174.648Z" fill="white" fill-opacity="0.37"/>
<path d="M200.326 158.745C195.806 158.745 192.125 155.062 192.125 150.54C192.125 146.017 195.806 142.335 200.326 142.335C204.846 142.335 208.527 146.017 208.527 150.54C208.527 155.062 204.846 158.745 200.326 158.745ZM200.326 144.968C197.248 144.968 194.748 147.469 194.748 150.549C194.748 153.628 197.248 156.129 200.326 156.129C203.404 156.129 205.904 153.628 205.904 150.549C205.904 147.469 203.404 144.968 200.326 144.968Z" fill="white" fill-opacity="0.37"/>
<path d="M270.666 242.108H268.043V204.389L287.864 184.559L289.717 186.413L270.666 205.482V242.108Z" fill="white" fill-opacity="0.37"/>
<path d="M253.799 254.458H251.176V196.139L273.689 173.615V157.694H276.312V174.699L253.799 197.224V254.458Z" fill="white" fill-opacity="0.37"/>
<path d="M293.142 188.425C288.622 188.425 284.941 184.742 284.941 180.22C284.941 175.697 288.622 172.015 293.142 172.015C297.663 172.015 301.343 175.697 301.343 180.22C301.343 184.742 297.663 188.425 293.142 188.425ZM293.142 174.648C290.065 174.648 287.564 177.149 287.564 180.228C287.564 183.308 290.065 185.809 293.142 185.809C296.22 185.809 298.72 183.308 298.72 180.228C298.72 177.149 296.22 174.648 293.142 174.648Z" fill="white" fill-opacity="0.37"/>
<path d="M275.002 158.745C270.482 158.745 266.801 155.062 266.801 150.54C266.801 146.017 270.482 142.335 275.002 142.335C279.522 142.335 283.203 146.017 283.203 150.54C283.203 155.062 279.522 158.745 275.002 158.745ZM275.002 144.968C271.924 144.968 269.424 147.469 269.424 150.549C269.424 153.628 271.924 156.129 275.002 156.129C278.079 156.129 280.58 153.628 280.58 150.549C280.58 147.469 278.079 144.968 275.002 144.968Z" fill="white" fill-opacity="0.37"/>
<path d="M237.627 160.1C233.107 160.1 229.426 156.417 229.426 151.895C229.426 147.372 233.107 143.69 237.627 143.69C242.147 143.69 245.828 147.372 245.828 151.895C245.828 156.417 242.147 160.1 237.627 160.1ZM237.627 146.323C234.549 146.323 232.049 148.824 232.049 151.904C232.049 154.983 234.549 157.484 237.627 157.484C240.704 157.484 243.205 154.983 243.205 151.904C243.205 148.824 240.704 146.323 237.627 146.323Z" fill="white" fill-opacity="0.37"/>
<path d="M398.603 90.0935C385.925 90.0935 375.617 79.7803 375.617 67.0965C375.617 54.4128 385.925 44.0996 398.603 44.0996C411.28 44.0996 421.588 54.4128 421.588 67.0965C421.588 79.7803 411.28 90.0935 398.603 90.0935ZM398.603 46.7238C387.377 46.7238 378.24 55.8649 378.24 67.0965C378.24 78.3282 387.377 87.4693 398.603 87.4693C409.829 87.4693 418.966 78.3282 418.966 67.0965C418.966 55.8649 409.829 46.7238 398.603 46.7238Z" fill="#F0E6E1"/>
<path d="M414.39 70.8169C416.45 62.0855 411.045 53.3367 402.318 51.2759C393.59 49.2151 384.846 54.6227 382.786 63.3541C380.726 72.0855 386.131 80.8343 394.858 82.8951C403.586 84.9559 412.33 79.5483 414.39 70.8169Z" fill="#FFFDFE"/>
<path d="M397.904 75.6347L386.293 64.0181L391.705 58.6034L397.904 64.8054L414.148 48.5527L419.56 53.9673L397.904 75.6347Z" fill="#F51322"/>
<path d="M140.738 22.6773L151.533 11.3848L162.55 22.6773L152.217 31.6762L140.738 22.6773Z" fill="#F25D40"/>
<path d="M160.651 11.1133H142.781V32.4158H160.651V11.1133Z" fill="white"/>
<path d="M154.952 13.3613H144.242V14.6541H154.952V13.3613Z" fill="#00A63F"/>
<path d="M159.201 16.3184H144.242V17.5407H159.201V16.3184Z" fill="#00A63F"/>
<path d="M159.201 19.5137H144.242V20.736H159.201V19.5137Z" fill="#00A63F"/>
<path d="M159.201 22.707H144.242V23.9293H159.201V22.707Z" fill="#00A63F"/>
<path d="M159.201 25.8965H144.242V27.1188H159.201V25.8965Z" fill="#00A63F"/>
<path d="M162.55 35.8868H140.738V22.6777L151.569 28.6133L162.55 22.6777V35.8868Z" fill="#FFAF00"/>
<path d="M140.738 35.8881L151.865 24.9023L162.55 35.8881H140.738Z" fill="#FCC149"/>
<g style="mix-blend-mode:multiply" opacity="0.51">
<path d="M160.026 33.3617L140.738 35.8868H162.55V22.6777L160.026 33.3617Z" fill="#FFAF00"/>
</g>
<g style="mix-blend-mode:overlay" opacity="0.47">
<path d="M141.672 24.8242V32.4398L142.904 27.626L147.716 27.7366L141.672 24.8242Z" fill="white"/>
</g>
<path d="M172.013 31.1017C171.028 30.6037 169.892 29.814 169.947 28.8482C169.987 28.0987 170.48 27.6662 171.013 27.4146C171.511 27.1833 171.556 26.4941 171.098 26.1873L163.511 21.127L155.924 26.1873C155.466 26.4941 155.511 27.1833 156.009 27.4146C156.547 27.6662 157.04 28.0987 157.075 28.8482C157.125 29.809 155.989 30.5987 155.009 31.1017C154.159 31.5343 153.721 32.49 153.917 33.4206C155.999 43.2595 163.506 45.9154 163.506 45.9154C163.506 45.9154 171.018 43.2595 173.094 33.4206C173.29 32.49 172.853 31.5293 172.003 31.1017H172.013Z" fill="#00A63F"/>
<path d="M163.512 44.3474C161.913 43.5979 156.94 40.6905 155.336 33.1252C155.271 32.8284 155.412 32.5266 155.668 32.3959C157.639 31.3949 158.599 30.1776 158.524 28.7792C158.484 27.9995 158.172 27.3255 157.634 26.7974L163.512 22.8789L169.39 26.7974C168.847 27.3255 168.54 28.0046 168.5 28.7792C168.424 30.1776 169.39 31.3949 171.356 32.3959C171.612 32.5266 171.753 32.8284 171.687 33.1252C170.094 40.6603 165.086 43.5979 163.507 44.3474H163.512Z" fill="white"/>
<path d="M163.514 22.8742L157.636 26.7926C158.179 27.3208 158.486 27.9998 158.526 28.7745C158.602 30.1729 157.636 31.3901 155.67 32.3911C155.414 32.5219 155.278 32.8237 155.338 33.1205H163.514V22.8691V22.8742Z" fill="#00B5CA"/>
<path d="M155.34 33.125C156.939 40.6903 161.916 43.5927 163.515 44.3472V33.125H155.34Z" fill="white"/>
<path d="M171.691 33.1252C171.757 32.8284 171.621 32.5266 171.359 32.3959C169.388 31.3949 168.428 30.1776 168.503 28.7792C168.544 27.9995 168.855 27.3255 169.393 26.7974L163.516 22.8789V33.1303H171.691V33.1252Z" fill="white"/>
<path d="M163.516 33.125V44.3472C165.094 43.5927 170.097 40.6601 171.691 33.125H163.516Z" fill="#00B5CA"/>
<g style="mix-blend-mode:multiply" opacity="0.33">
<path d="M172.012 31.1017C171.026 30.6037 169.89 29.814 169.945 28.8482C169.986 28.0987 170.478 27.6661 171.011 27.4146C171.509 27.1833 171.554 26.4941 171.097 26.1873L163.51 21.127L168.191 26.7557C168.191 26.7557 167.316 29.1249 169.156 30.6993C170.916 32.2083 169.226 42.2233 162.398 45.3922C163.082 45.7594 163.515 45.9103 163.515 45.9103C163.515 45.9103 171.026 43.2544 173.103 33.4156C173.299 32.485 172.862 31.5242 172.012 31.0967V31.1017Z" fill="#00A63F"/>
</g>
<g style="mix-blend-mode:overlay" opacity="0.47">
<path d="M163.082 24.1055L158.914 27.0984C158.914 27.0984 160.804 30.2473 157.969 32.37C157.969 32.37 160.563 32.0531 161.036 28.039L163.082 24.1055Z" fill="white"/>
</g>
<mask id="mask2_1675_115435" style="mask-type:luminance" maskUnits="userSpaceOnUse" x="349" y="245" width="49" height="35">
<path d="M353.83 245.877H393.641C395.793 245.877 397.549 247.626 397.549 249.787V275.78C397.549 277.934 395.801 279.691 393.641 279.691H353.83C351.677 279.691 349.922 277.941 349.922 275.78V249.787C349.922 247.634 351.67 245.877 353.83 245.877Z" fill="white"/>
</mask>
<g mask="url(#mask2_1675_115435)">
<path d="M353.83 245.877H393.641C395.793 245.877 397.549 247.626 397.549 249.787V275.78C397.549 277.934 395.801 279.691 393.641 279.691H353.83C351.677 279.691 349.922 277.941 349.922 275.78V249.787C349.922 247.634 351.67 245.877 353.83 245.877Z" fill="#FFAF00"/>
<path d="M401.024 253.786H348.585C347.836 253.786 347.227 254.139 347.227 254.565C347.227 254.992 347.836 255.345 348.585 255.345H401.024C401.773 255.345 402.383 254.992 402.383 254.565C402.383 254.139 401.773 253.786 401.024 253.786Z" fill="white"/>
<path d="M401.024 267.047H348.585C347.836 267.047 347.227 267.4 347.227 267.826C347.227 268.253 347.836 268.606 348.585 268.606H401.024C401.773 268.606 402.383 268.253 402.383 267.826C402.383 267.4 401.773 267.047 401.024 267.047Z" fill="white"/>
<path d="M375.588 267.817V255.004C375.184 255.004 374.773 254.997 374.361 254.982C374.251 254.982 374.141 254.982 374.023 254.982V267.854C374.538 267.832 375.059 267.824 375.588 267.824V267.817Z" fill="white"/>
<path d="M359.928 254.756V241.944C359.524 241.944 359.112 241.937 358.701 241.922C358.591 241.922 358.481 241.922 358.363 241.922V254.793C358.877 254.771 359.399 254.764 359.928 254.764V254.756Z" fill="white"/>
<path d="M390.44 254.756V241.944C390.036 241.944 389.624 241.937 389.213 241.922C389.103 241.922 388.993 241.922 388.875 241.922V254.793C389.396 254.771 389.911 254.764 390.44 254.764V254.756Z" fill="white"/>
<path d="M359.928 280.874V268.062C359.524 268.062 359.112 268.054 358.701 268.04C358.591 268.04 358.481 268.04 358.363 268.04V280.911C358.877 280.889 359.399 280.881 359.928 280.881V280.874Z" fill="white"/>
<path d="M390.44 280.874V268.062C390.036 268.062 389.624 268.054 389.213 268.04C389.103 268.04 388.993 268.04 388.875 268.04V280.911C389.396 280.889 389.911 280.881 390.44 280.881V280.874Z" fill="white"/>
<g style="mix-blend-mode:multiply" opacity="0.6">
<path d="M393.649 245.877H393.341V271.553C393.341 273.7 391.585 275.464 389.433 275.464H349.93V275.773C349.93 277.919 351.685 279.683 353.837 279.683H393.649C395.794 279.683 397.557 277.926 397.557 275.773V249.78C397.557 247.634 395.801 245.869 393.649 245.869V245.877Z" fill="#FFAF00"/>
</g>
</g>
<path d="M392.4 286.255C392.4 286.255 395.03 287.497 397.755 286.255C397.755 286.255 402.661 284.079 402.25 279.198C401.839 274.325 396.337 264.879 396.337 264.879L388.455 272.553L386.281 279.61L392.4 286.248V286.255Z" fill="white"/>
<path d="M392.4 286.254C388.889 285.041 385.341 281.623 384.246 278.072C383.159 274.522 383.857 270.472 386.083 267.494C387.412 265.708 389.226 264.334 390.549 262.54C392.635 259.725 393.362 255.954 392.466 252.565C396.616 256.446 399.231 262.378 399.253 268.061C400.303 266.127 400.435 263.841 400.347 261.643C402.72 266.362 405.915 271.148 405.46 276.411C405.078 280.807 401.926 284.828 397.754 286.247C399.451 284.651 400.957 282.578 400.751 280.256C400.494 277.426 397.394 275.779 396.219 273.191C395.389 271.368 395.595 269.259 395.815 267.259C394.655 268.854 393.612 270.567 393.031 272.449C392.451 274.331 392.348 276.418 393.053 278.264C391.827 277.624 390.967 276.33 390.857 274.948C388.668 278.66 389.293 282.608 392.4 286.239V286.254Z" fill="#F25D40"/>
<g style="mix-blend-mode:multiply">
<path d="M400.346 261.652C400.434 263.849 400.302 266.136 399.252 268.069C399.222 262.379 396.615 256.454 392.465 252.573C392.472 252.61 392.479 252.639 392.487 252.676C395.645 258.491 397.548 264.981 398.025 271.583C399.693 270.252 400.838 268.275 401.154 266.165C401.154 266.165 408.294 279.102 397.753 286.262C401.926 284.843 405.077 280.815 405.459 276.427C405.914 271.164 402.719 266.378 400.346 261.659V261.652Z" fill="#F25D40"/>
</g>
<path d="M401.154 266.165C400.838 268.275 399.699 270.252 398.025 271.583C397.547 264.982 395.637 258.491 392.486 252.676C393.338 256.036 392.611 259.762 390.547 262.548C389.225 264.335 387.411 265.717 386.081 267.503C383.863 270.48 383.158 274.53 384.245 278.081C385.332 281.631 388.887 285.049 392.398 286.262C389.291 282.631 388.667 278.691 390.856 274.971C390.966 276.346 391.825 277.647 393.052 278.287C392.354 276.442 392.45 274.361 393.03 272.472C393.61 270.59 394.653 268.878 395.814 267.282C395.593 269.274 395.38 271.384 396.218 273.215C397.393 275.795 400.493 277.449 400.75 280.279C400.955 282.602 399.45 284.675 397.753 286.27C408.293 279.11 401.154 266.172 401.154 266.172V266.165Z" fill="#F25D40"/>
<path opacity="0.71" d="M389.506 266.576C388.742 267.2 387.89 267.722 387.178 268.413C384.702 270.81 384.46 274.786 385.422 278.094C385.51 275.904 385.841 273.588 387.244 271.905C387.883 271.14 388.705 270.56 389.433 269.891C391.732 267.788 393.972 263.613 393.164 260.401C392.62 262.805 391.423 264.995 389.499 266.576H389.506Z" fill="#FCE8C5"/>
</g>
<path d="M352.553 72.7424L346.639 39.8386C309.195 62.2879 286.494 81.1141 237.931 35.3398C180.786 89.1943 149.298 50.5429 129.512 38.1303L123.307 72.7424C123.015 74.3258 119.058 96.9416 120.683 126.764C120.766 128.597 120.891 130.47 121.016 132.386H166.166C165.833 128.805 165.623 125.305 165.5 121.932C165.25 116.351 165.25 111.103 165.375 106.312C174.789 107.688 186.201 108.146 199.321 106.52C216.855 104.313 229.268 100.481 237.931 96.4821C246.594 100.481 259.006 104.313 276.541 106.52C289.702 108.146 301.114 107.688 310.568 106.312C310.693 111.061 310.693 116.351 310.443 121.932C310.318 125.305 310.069 128.805 309.736 132.386H354.844C354.969 130.47 355.094 128.597 355.177 126.764C356.8 96.9416 352.843 74.3258 352.553 72.7424ZM332.809 124.348C334.1 97.1497 330.435 76.7401 330.435 76.7401C330.435 76.7401 312.15 88.2769 279.329 84.196C246.509 80.0718 237.929 69.9935 237.929 69.9935C237.929 69.9935 229.349 80.0734 196.527 84.196C163.706 88.2769 145.421 76.7401 145.421 76.7401C145.421 76.7401 141.755 97.1481 143.047 124.348L133.676 125.347C132.26 97.566 135.926 76.532 136.217 75.0734L138.675 61.3704C172.996 82.2796 210.69 82.3628 238.429 53.2902C266.461 84.0695 304.987 80.9459 337.142 61.6618L339.641 75.0734C339.891 76.532 343.597 97.6076 342.223 125.347L332.809 124.348ZM292.283 191.406C289.576 196.154 286.536 200.612 283.285 204.817C269.915 222.228 253.089 234.722 237.927 243.427C222.766 234.722 205.939 222.227 192.569 204.817C189.321 200.61 186.281 196.154 183.572 191.406H133.756C134.464 193.197 135.215 194.989 135.964 196.779C136.256 197.486 136.547 198.152 136.88 198.82C158.205 246.594 198.024 274.25 227.929 289.078L237.926 294.035L247.921 289.078C277.826 274.25 317.644 246.594 338.97 198.82C339.303 198.154 339.594 197.486 339.886 196.779C340.635 194.987 341.386 193.197 342.093 191.406H292.283ZM242.093 277.332L237.929 279.415L233.763 277.332C207.356 264.211 172.619 240.47 152.21 200.485L163.538 201.694C184.489 238.555 218.269 259.171 237.927 268.918C257.586 259.171 291.366 238.555 312.316 201.694L323.645 200.485C303.237 240.472 268.5 264.213 242.093 277.332Z" fill="#2A2A2A"/>
<path d="M163.54 201.692C184.491 238.554 218.27 259.17 237.929 268.917C257.588 259.17 291.367 238.554 312.318 201.692C314.234 198.402 315.983 194.987 317.608 191.404H158.25C159.873 194.987 161.623 198.402 163.54 201.692Z" fill="#00A63F"/>
<path d="M330.437 76.7407C330.437 76.7407 312.152 88.2776 279.331 84.1966C246.51 80.0724 237.931 69.9941 237.931 69.9941C237.931 69.9941 229.351 80.0741 196.529 84.1966C163.708 88.2776 145.423 76.7407 145.423 76.7407C145.423 76.7407 141.757 97.1487 143.049 124.348C143.174 126.972 143.34 129.638 143.548 132.387H332.31C332.518 129.638 332.684 126.972 332.811 124.348C334.103 97.1487 330.437 76.7407 330.437 76.7407Z" fill="#00A63F"/>
<g opacity="0.3">
<path d="M238.578 191.405V268.587C258.322 258.715 291.587 238.164 312.315 201.693C314.231 198.403 315.979 194.988 317.604 191.405H238.578Z" fill="#F3F9FF"/>
<path d="M330.433 76.7414C330.433 76.7414 312.148 88.2782 279.328 84.1973C251.387 80.6875 241.046 72.8819 238.578 70.6309V132.386H332.308C332.516 129.637 332.683 126.971 332.809 124.347C334.1 97.1494 330.433 76.7414 330.433 76.7414Z" fill="#F3F9FF"/>
</g>
<path d="M380.998 191.405V194.279L338.973 198.82L323.645 200.486L312.315 201.693L300.695 202.944L283.284 204.817L237.927 209.732L192.569 204.817L175.158 202.944L163.538 201.693L152.208 200.486L136.882 198.82L94.8555 194.279V191.405H380.998Z" fill="#2A2A2A"/>
<path d="M380.998 129.554V132.386H94.8555V129.554L120.68 126.763L133.675 125.348L152.418 123.348L165.496 121.933L237.927 114.101L310.442 121.933L323.479 123.348L332.808 124.347L342.222 125.348L355.174 126.763L380.998 129.554Z" fill="#2A2A2A"/>
<path d="M125.066 141.789H137.271C143.919 141.789 147.244 145.478 147.244 152.853C147.244 156.748 146.294 159.509 144.394 161.141C142.494 162.773 139.851 163.587 136.463 163.587H132.854V180.254H125.066V141.789ZM135.657 158.078C137.334 158.078 138.458 157.682 139.027 156.892C139.599 156.101 139.882 154.708 139.882 152.711C139.882 151.415 139.788 150.394 139.597 149.649C139.406 148.906 139.003 148.328 138.385 147.916C137.768 147.506 136.841 147.3 135.606 147.3H132.85V158.08H135.657V158.078Z" fill="#2A2A2A"/>
<path d="M151.234 141.789H161.207C165.353 141.789 168.473 142.55 170.562 144.069C172.651 145.589 173.696 148.218 173.696 151.953C173.696 154.454 173.347 156.472 172.651 158.007C171.954 159.542 170.72 160.707 168.948 161.497L174.268 180.256H166.242L161.873 162.828H159.023V180.256H151.234V141.789ZM161.349 158.173C163.185 158.173 164.474 157.721 165.219 156.819C165.962 155.916 166.335 154.499 166.335 152.568C166.335 150.668 166.002 149.276 165.338 148.389C164.673 147.503 163.469 147.059 161.729 147.059H159.021V158.171H161.349V158.173Z" fill="#2A2A2A"/>
<path d="M180.677 177.572C178.935 175.434 178.066 172.294 178.066 168.145V153.804C178.066 149.657 178.935 146.539 180.677 144.448C182.417 142.357 185.33 141.314 189.416 141.314C193.468 141.314 196.373 142.367 198.131 144.472C199.887 146.579 200.766 149.689 200.766 153.804V168.193C200.766 172.308 199.887 175.434 198.131 177.572C196.373 179.708 193.468 180.777 189.416 180.777C185.332 180.777 182.419 179.708 180.677 177.572ZM192.098 173.819C192.557 172.917 192.788 171.675 192.788 170.093V151.904C192.788 150.321 192.557 149.095 192.098 148.224C191.639 147.353 190.744 146.918 189.416 146.918C188.085 146.918 187.193 147.353 186.733 148.224C186.274 149.095 186.044 150.323 186.044 151.904V170.093C186.044 171.707 186.264 172.958 186.708 173.843C187.151 174.73 188.054 175.173 189.416 175.173C190.744 175.173 191.639 174.722 192.098 173.819Z" fill="#2A2A2A"/>
<path d="M209.315 147.581H203.379V141.787H223.04V147.581H217.198V180.254H209.317L209.315 147.581Z" fill="#2A2A2A"/>
<path d="M226.504 141.789H243.268V147.203H234.292V157.414H241.226V162.875H234.292V174.937H243.364V180.256H226.506V141.789H226.504Z" fill="#2A2A2A"/>
<path d="M249.345 177.475C247.635 175.276 246.781 172.101 246.781 167.954V154.182C246.781 149.941 247.629 146.734 249.322 144.566C251.015 142.398 253.92 141.314 258.035 141.314C261.961 141.314 264.738 142.272 266.369 144.188C267.999 146.104 268.815 148.851 268.815 152.428V155.658H261.218V152.097C261.218 150.956 261.162 150.039 261.05 149.342C260.938 148.644 260.654 148.069 260.195 147.607C259.736 147.15 259.032 146.92 258.082 146.92C256.657 146.92 255.739 147.379 255.329 148.297C254.917 149.216 254.71 150.56 254.71 152.333V169.809C254.71 171.614 254.948 172.96 255.421 173.845C255.896 174.732 256.783 175.175 258.082 175.175C259.412 175.175 260.266 174.724 260.646 173.821C261.024 172.919 261.216 171.583 261.216 169.809V166.058H268.813V169.239C268.813 172.913 268.007 175.753 266.391 177.763C264.777 179.775 261.99 180.779 258.033 180.779C253.951 180.777 251.054 179.677 249.345 177.475Z" fill="#2A2A2A"/>
<path d="M277.221 147.581H271.285V141.787H290.946V147.581H285.105V180.254H277.223L277.221 147.581Z" fill="#2A2A2A"/>
<path d="M294.504 141.789H302.293V180.256H294.504V141.789Z" fill="#2A2A2A"/>
<path d="M310.174 177.572C308.432 175.434 307.562 172.294 307.562 168.145V153.804C307.562 149.657 308.432 146.539 310.174 144.448C311.914 142.357 314.827 141.314 318.913 141.314C322.965 141.314 325.87 142.367 327.628 144.472C329.384 146.579 330.263 149.689 330.263 153.804V168.193C330.263 172.308 329.384 175.434 327.628 177.572C325.87 179.708 322.965 180.777 318.913 180.777C314.829 180.777 311.916 179.708 310.174 177.572ZM321.595 173.819C322.054 172.917 322.285 171.675 322.285 170.093V151.904C322.285 150.321 322.054 149.095 321.595 148.224C321.136 147.353 320.243 146.918 318.913 146.918C317.582 146.918 316.689 147.353 316.23 148.224C315.771 149.095 315.54 150.323 315.54 151.904V170.093C315.54 171.707 315.761 172.958 316.205 173.843C316.648 174.73 317.551 175.173 318.913 175.173C320.243 175.173 321.136 174.722 321.595 173.819Z" fill="#2A2A2A"/>
<path d="M335.484 141.789H340.946L349.493 161.783V141.789H355.999V180.256H350.729L342.181 158.981V180.256H335.486L335.484 141.789Z" fill="#2A2A2A"/>
</g>
</g>
<defs>
<radialGradient id="paint0_radial_1675_115435" cx="0" cy="0" r="1" gradientUnits="userSpaceOnUse" gradientTransform="translate(237.498 325.068) rotate(90) scale(10.1875 73.611)">
<stop offset="0.455" stop-color="#38225B"/>
<stop offset="1" stop-color="#524763" stop-opacity="0"/>
</radialGradient>
<linearGradient id="paint1_linear_1675_115435" x1="474.998" y1="144.474" x2="-0.00191613" y2="150.029" gradientUnits="userSpaceOnUse">
<stop stop-color="#222222"/>
<stop offset="0.307292" stop-color="#070707" stop-opacity="0"/>
<stop offset="0.697917" stop-color="#070707" stop-opacity="0.265957"/>
<stop offset="0.984375" stop-color="#070707"/>
</linearGradient>
<linearGradient id="paint2_linear_1675_115435" x1="475" y1="144.474" x2="-0.000504972" y2="150.029" gradientUnits="userSpaceOnUse">
<stop stop-color="#222222"/>
<stop offset="0.307292" stop-color="#070707" stop-opacity="0"/>
<stop offset="0.697917" stop-color="#070707" stop-opacity="0.265957"/>
<stop offset="0.984375" stop-color="#070707"/>
</linearGradient>
<linearGradient id="paint3_linear_1675_115435" x1="474.998" y1="144.474" x2="-0.00220777" y2="150.029" gradientUnits="userSpaceOnUse">
<stop stop-color="#222222"/>
<stop offset="0.307292" stop-color="#070707" stop-opacity="0"/>
<stop offset="0.697917" stop-color="#070707" stop-opacity="0.265957"/>
<stop offset="0.984375" stop-color="#070707"/>
</linearGradient>
<linearGradient id="paint4_linear_1675_115435" x1="474.998" y1="144.474" x2="-0.00180229" y2="150.029" gradientUnits="userSpaceOnUse">
<stop stop-color="#222222"/>
<stop offset="0.307292" stop-color="#070707" stop-opacity="0"/>
<stop offset="0.697917" stop-color="#070707" stop-opacity="0.265957"/>
<stop offset="0.984375" stop-color="#070707"/>
</linearGradient>
<linearGradient id="paint5_linear_1675_115435" x1="474.997" y1="144.474" x2="-0.00299489" y2="150.029" gradientUnits="userSpaceOnUse">
<stop stop-color="#222222"/>
<stop offset="0.307292" stop-color="#070707" stop-opacity="0"/>
<stop offset="0.697917" stop-color="#070707" stop-opacity="0.265957"/>
<stop offset="0.984375" stop-color="#070707"/>
</linearGradient>
<linearGradient id="paint6_linear_1675_115435" x1="474.997" y1="144.475" x2="-0.00333029" y2="150.03" gradientUnits="userSpaceOnUse">
<stop stop-color="#222222"/>
<stop offset="0.307292" stop-color="#070707" stop-opacity="0"/>
<stop offset="0.697917" stop-color="#070707" stop-opacity="0.265957"/>
<stop offset="0.984375" stop-color="#070707"/>
</linearGradient>
<linearGradient id="paint7_linear_1675_115435" x1="474.996" y1="144.475" x2="-0.00604789" y2="150.03" gradientUnits="userSpaceOnUse">
<stop stop-color="#222222"/>
<stop offset="0.307292" stop-color="#070707" stop-opacity="0"/>
<stop offset="0.697917" stop-color="#070707" stop-opacity="0.265957"/>
<stop offset="0.984375" stop-color="#070707"/>
</linearGradient>
<linearGradient id="paint8_linear_1675_115435" x1="475" y1="144.475" x2="-0.00201003" y2="150.03" gradientUnits="userSpaceOnUse">
<stop stop-color="#222222"/>
<stop offset="0.307292" stop-color="#070707" stop-opacity="0"/>
<stop offset="0.697917" stop-color="#070707" stop-opacity="0.265957"/>
<stop offset="0.984375" stop-color="#070707"/>
</linearGradient>
<linearGradient id="paint9_linear_1675_115435" x1="474.997" y1="144.475" x2="-0.0018567" y2="150.029" gradientUnits="userSpaceOnUse">
<stop stop-color="#222222"/>
<stop offset="0.307292" stop-color="#070707" stop-opacity="0"/>
<stop offset="0.697917" stop-color="#070707" stop-opacity="0.265957"/>
<stop offset="0.984375" stop-color="#070707"/>
</linearGradient>
<linearGradient id="paint10_linear_1675_115435" x1="475" y1="144.475" x2="-0.00309868" y2="150.03" gradientUnits="userSpaceOnUse">
<stop stop-color="#222222"/>
<stop offset="0.307292" stop-color="#070707" stop-opacity="0"/>
<stop offset="0.697917" stop-color="#070707" stop-opacity="0.265957"/>
<stop offset="0.984375" stop-color="#070707"/>
</linearGradient>
<linearGradient id="paint11_linear_1675_115435" x1="474.997" y1="144.475" x2="-0.00275565" y2="150.03" gradientUnits="userSpaceOnUse">
<stop stop-color="#222222"/>
<stop offset="0.307292" stop-color="#070707" stop-opacity="0"/>
<stop offset="0.697917" stop-color="#070707" stop-opacity="0.265957"/>
<stop offset="0.984375" stop-color="#070707"/>
</linearGradient>
<clipPath id="clip0_1675_115435">
<rect width="475" height="351" fill="white"/>
</clipPath>
</defs>
</svg>
