<svg width="40" height="42" viewBox="0 0 40 42" fill="none" xmlns="http://www.w3.org/2000/svg">
<g clip-path="url(#clip0_1640_2247)">
<mask id="mask0_1640_2247" style="mask-type:luminance" maskUnits="userSpaceOnUse" x="0" y="0" width="40" height="42">
<path d="M40 0H0V42H40V0Z" fill="white"/>
</mask>
<g mask="url(#mask0_1640_2247)">
<path d="M34.0445 12.722H36.8626C38.2341 12.722 39.3484 11.6078 39.3484 10.2295V3.50454C39.3484 2.1211 38.2341 1 36.8498 1H3.28762C1.90418 1 0.789062 2.1211 0.789062 3.50454V10.2235C0.789062 11.6009 1.90333 12.722 3.28762 12.722H6.09294V14.1995C6.09294 14.2371 6.09893 14.2747 6.11174 14.3123H3.28762C1.90418 14.3123 0.789062 15.4265 0.789062 16.8108V23.5297C0.789062 24.9072 1.90333 26.0283 3.28762 26.0283H6.09294V27.4374H3.28762C1.90418 27.4374 0.789062 28.5585 0.789062 29.9419V36.6609C0.789062 38.0383 1.90333 39.1594 3.28762 39.1594H6.09294V40.6368C6.09294 40.8376 6.26214 41 6.46209 41H9.123C9.32296 41 9.48616 40.8376 9.48616 40.6368V39.1594H30.6496V40.6368C30.6496 40.8376 30.8119 41 31.0127 41H33.6736C33.8745 41 34.0428 40.8376 34.0428 40.6368V39.1594H36.8609C38.2324 39.1594 39.3467 38.0451 39.3467 36.6668V29.9419C39.3467 28.5585 38.2324 27.4374 36.8481 27.4374H34.0428V26.0283H36.8609C38.2324 26.0283 39.3467 24.9132 39.3467 23.5366V16.8117C39.3467 15.4282 38.2324 14.3131 36.8481 14.3131H34.024C34.0368 14.2755 34.0428 14.2379 34.0428 14.2003V12.722H34.0445ZM5.799 9.89791C5.799 10.1107 5.62981 10.2867 5.41704 10.2867H3.58242C3.36965 10.2867 3.18764 10.1115 3.18764 9.89791V8.0633C3.18764 7.85053 3.3688 7.66937 3.58242 7.66937H5.41704C5.62981 7.66937 5.799 7.85053 5.799 8.0633V9.89791ZM5.799 5.81596C5.799 6.02275 5.62981 6.20391 5.41704 6.20391H3.58242C3.36965 6.20391 3.18764 6.02275 3.18764 5.81596V3.97537C3.18764 3.7626 3.3688 3.58743 3.58242 3.58743H5.41704C5.62981 3.58743 5.799 3.7626 5.799 3.97537V5.81596ZM5.799 23.0786C5.799 23.2913 5.62981 23.4725 5.41704 23.4725H3.58242C3.36965 23.4725 3.18764 23.2913 3.18764 23.0786V21.244C3.18764 21.0312 3.3688 20.856 3.58242 20.856H5.41704C5.62981 20.856 5.799 21.0312 5.799 21.244V23.0786ZM5.799 18.9958C5.799 19.2085 5.62981 19.3837 5.41704 19.3837H3.58242C3.36965 19.3837 3.18764 19.2085 3.18764 18.9958V17.1552C3.18764 16.9424 3.3688 16.7672 3.58242 16.7672H5.41704C5.62981 16.7672 5.799 16.9424 5.799 17.1552V18.9958ZM5.799 36.3344C5.799 36.5472 5.62981 36.7224 5.41704 36.7224H3.58242C3.36965 36.7224 3.18764 36.5472 3.18764 36.3344V34.4998C3.18764 34.2871 3.3688 34.105 3.58242 34.105H5.41704C5.62981 34.105 5.799 34.2862 5.799 34.4998V36.3344ZM5.799 32.2457C5.799 32.4584 5.62981 32.6396 5.41704 32.6396H3.58242C3.36965 32.6396 3.18764 32.4584 3.18764 32.2457V30.411C3.18764 30.1983 3.3688 30.0231 3.58242 30.0231H5.41704C5.62981 30.0231 5.799 30.1983 5.799 30.411V32.2457ZM9.97494 36.3344C9.97494 36.5472 9.80575 36.7224 9.59298 36.7224H7.75238C7.54559 36.7224 7.36444 36.5472 7.36444 36.3344V34.4998C7.36444 34.2871 7.54559 34.105 7.75238 34.105H9.59298C9.80575 34.105 9.97494 34.2862 9.97494 34.4998V36.3344ZM9.97494 32.2457C9.97494 32.4584 9.80575 32.6396 9.59298 32.6396H7.75238C7.54559 32.6396 7.36444 32.4584 7.36444 32.2457V30.411C7.36444 30.1983 7.54559 30.0231 7.75238 30.0231H9.59298C9.80575 30.0231 9.97494 30.1983 9.97494 30.411V32.2457ZM9.97494 23.0786C9.97494 23.2913 9.80575 23.4725 9.59298 23.4725H7.75238C7.54559 23.4725 7.36444 23.2913 7.36444 23.0786V21.244C7.36444 21.0312 7.54559 20.856 7.75238 20.856H9.59298C9.80575 20.856 9.97494 21.0312 9.97494 21.244V23.0786ZM9.97494 18.9958C9.97494 19.2085 9.80575 19.3837 9.59298 19.3837H7.75238C7.54559 19.3837 7.36444 19.2085 7.36444 18.9958V17.1552C7.36444 16.9424 7.54559 16.7672 7.75238 16.7672H9.59298C9.80575 16.7672 9.97494 16.9424 9.97494 17.1552V18.9958ZM9.97494 9.89791C9.97494 10.1107 9.80575 10.2867 9.59298 10.2867H7.75238C7.54559 10.2867 7.36444 10.1115 7.36444 9.89791V8.0633C7.36444 7.85053 7.54559 7.66937 7.75238 7.66937H9.59298C9.80575 7.66937 9.97494 7.85053 9.97494 8.0633V9.89791ZM9.97494 5.81596C9.97494 6.02275 9.80575 6.20391 9.59298 6.20391H7.75238C7.54559 6.20391 7.36444 6.02275 7.36444 5.81596V3.97537C7.36444 3.7626 7.54559 3.58743 7.75238 3.58743H9.59298C9.80575 3.58743 9.97494 3.7626 9.97494 3.97537V5.81596ZM14.1449 36.3344C14.1449 36.5472 13.9757 36.7224 13.7689 36.7224H11.9283C11.7156 36.7224 11.5404 36.5472 11.5404 36.3344V34.4998C11.5404 34.2871 11.7156 34.105 11.9283 34.105H13.7689C13.9757 34.105 14.1449 34.2862 14.1449 34.4998V36.3344ZM14.1449 32.2457C14.1449 32.4584 13.9757 32.6396 13.7689 32.6396H11.9283C11.7156 32.6396 11.5404 32.4584 11.5404 32.2457V30.411C11.5404 30.1983 11.7156 30.0231 11.9283 30.0231H13.7689C13.9757 30.0231 14.1449 30.1983 14.1449 30.411V32.2457ZM14.1449 23.0786C14.1449 23.2913 13.9757 23.4725 13.7689 23.4725H11.9283C11.7156 23.4725 11.5404 23.2913 11.5404 23.0786V21.244C11.5404 21.0312 11.7156 20.856 11.9283 20.856H13.7689C13.9757 20.856 14.1449 21.0312 14.1449 21.244V23.0786ZM14.1449 18.9958C14.1449 19.2085 13.9757 19.3837 13.7689 19.3837H11.9283C11.7156 19.3837 11.5404 19.2085 11.5404 18.9958V17.1552C11.5404 16.9424 11.7156 16.7672 11.9283 16.7672H13.7689C13.9757 16.7672 14.1449 16.9424 14.1449 17.1552V18.9958ZM14.1449 9.89791C14.1449 10.1107 13.9757 10.2867 13.7689 10.2867H11.9283C11.7156 10.2867 11.5404 10.1115 11.5404 9.89791V8.0633C11.5404 7.85053 11.7156 7.66937 11.9283 7.66937H13.7689C13.9757 7.66937 14.1449 7.85053 14.1449 8.0633V9.89791ZM14.1449 5.81596C14.1449 6.02275 13.9757 6.20391 13.7689 6.20391H11.9283C11.7156 6.20391 11.5404 6.02275 11.5404 5.81596V3.97537C11.5404 3.7626 11.7156 3.58743 11.9283 3.58743H13.7689C13.9757 3.58743 14.1449 3.7626 14.1449 3.97537V5.81596ZM18.3217 36.3344C18.3217 36.5472 18.1525 36.7224 17.9397 36.7224H16.1051C15.8923 36.7224 15.7103 36.5472 15.7103 36.3344V34.4998C15.7103 34.2871 15.8915 34.105 16.1051 34.105H17.9397C18.1525 34.105 18.3217 34.2862 18.3217 34.4998V36.3344ZM18.3217 32.2457C18.3217 32.4584 18.1525 32.6396 17.9397 32.6396H16.1051C15.8923 32.6396 15.7103 32.4584 15.7103 32.2457V30.411C15.7103 30.1983 15.8915 30.0231 16.1051 30.0231H17.9397C18.1525 30.0231 18.3217 30.1983 18.3217 30.411V32.2457ZM18.3217 23.0786C18.3217 23.2913 18.1525 23.4725 17.9397 23.4725H16.1051C15.8923 23.4725 15.7103 23.2913 15.7103 23.0786V21.244C15.7103 21.0312 15.8915 20.856 16.1051 20.856H17.9397C18.1525 20.856 18.3217 21.0312 18.3217 21.244V23.0786ZM18.3217 18.9958C18.3217 19.2085 18.1525 19.3837 17.9397 19.3837H16.1051C15.8923 19.3837 15.7103 19.2085 15.7103 18.9958V17.1552C15.7103 16.9424 15.8915 16.7672 16.1051 16.7672H17.9397C18.1525 16.7672 18.3217 16.9424 18.3217 17.1552V18.9958ZM18.3217 9.89791C18.3217 10.1107 18.1525 10.2867 17.9397 10.2867H16.1051C15.8923 10.2867 15.7103 10.1115 15.7103 9.89791V8.0633C15.7103 7.85053 15.8915 7.66937 16.1051 7.66937H17.9397C18.1525 7.66937 18.3217 7.85053 18.3217 8.0633V9.89791ZM18.3217 5.81596C18.3217 6.02275 18.1525 6.20391 17.9397 6.20391H16.1051C15.8923 6.20391 15.7103 6.02275 15.7103 5.81596V3.97537C15.7103 3.7626 15.8915 3.58743 16.1051 3.58743H17.9397C18.1525 3.58743 18.3217 3.7626 18.3217 3.97537V5.81596ZM26.4864 34.3366C25.7541 34.3366 25.1594 33.735 25.1594 33.0027C25.1594 32.2704 25.7541 31.6757 26.4864 31.6757C27.2256 31.6757 27.8203 32.2704 27.8203 33.0027C27.8203 33.7359 27.2256 34.3366 26.4864 34.3366ZM26.4864 21.0807C25.7541 21.0807 25.1594 20.486 25.1594 19.7469C25.1594 19.0146 25.7541 18.4198 26.4864 18.4198C27.2256 18.4198 27.8203 19.0146 27.8203 19.7469C27.8203 20.486 27.2256 21.0807 26.4864 21.0807ZM26.4864 7.90094C25.7541 7.90094 25.1594 7.30023 25.1594 6.56707C25.1594 5.83476 25.7541 5.23917 26.4864 5.23917C27.2256 5.23917 27.8203 5.83391 27.8203 6.56707C27.8203 7.29937 27.2256 7.90094 26.4864 7.90094ZM29.9865 34.3366C29.2473 34.3366 28.6526 33.735 28.6526 33.0027C28.6526 32.2704 29.2473 31.6757 29.9865 31.6757C30.7188 31.6757 31.3144 32.2704 31.3144 33.0027C31.3144 33.7359 30.7196 34.3366 29.9865 34.3366ZM29.9865 21.0807C29.2473 21.0807 28.6526 20.486 28.6526 19.7469C28.6526 19.0146 29.2473 18.4198 29.9865 18.4198C30.7188 18.4198 31.3144 19.0146 31.3144 19.7469C31.3144 20.486 30.7196 21.0807 29.9865 21.0807ZM29.9865 7.90094C29.2473 7.90094 28.6526 7.30023 28.6526 6.56707C28.6526 5.83476 29.2473 5.23917 29.9865 5.23917C30.7188 5.23917 31.3144 5.83391 31.3144 6.56707C31.3144 7.29937 30.7196 7.90094 29.9865 7.90094ZM34.8332 30.7862C36.0603 30.7862 37.0498 31.7757 37.0498 33.0027C37.0498 34.2298 36.0603 35.2193 34.8332 35.2193C33.6061 35.2193 32.6166 34.2298 32.6166 33.0027C32.6166 31.7757 33.6061 30.7862 34.8332 30.7862ZM34.8332 17.5312C36.0603 17.5312 37.0498 18.5267 37.0498 19.7477C37.0498 20.9748 36.0603 21.9703 34.8332 21.9703C33.6061 21.9703 32.6166 20.9748 32.6166 19.7477C32.6166 18.5267 33.6061 17.5312 34.8332 17.5312ZM32.6166 6.56707C32.6166 5.34599 33.6061 4.35049 34.8332 4.35049C36.0603 4.35049 37.0498 5.34599 37.0498 6.56707C37.0498 7.79413 36.0603 8.78364 34.8332 8.78364C33.6061 8.78364 32.6166 7.79413 32.6166 6.56707Z" fill="#2A2A2A"/>
<mask id="mask1_1640_2247" style="mask-type:luminance" maskUnits="userSpaceOnUse" x="-1" y="0" width="42" height="42">
<path d="M40.7891 0H-0.210938V42H40.7891V0Z" fill="white"/>
<path d="M34.0445 12.722H36.8626C38.2341 12.722 39.3484 11.6078 39.3484 10.2295V3.50454C39.3484 2.1211 38.2341 1 36.8498 1H3.28762C1.90418 1 0.789062 2.1211 0.789062 3.50454V10.2235C0.789062 11.6009 1.90333 12.722 3.28762 12.722H6.09294V14.1995C6.09294 14.2371 6.09893 14.2747 6.11174 14.3123H3.28762C1.90418 14.3123 0.789062 15.4265 0.789062 16.8108V23.5297C0.789062 24.9072 1.90333 26.0283 3.28762 26.0283H6.09294V27.4374H3.28762C1.90418 27.4374 0.789062 28.5585 0.789062 29.9419V36.6609C0.789062 38.0383 1.90333 39.1594 3.28762 39.1594H6.09294V40.6368C6.09294 40.8376 6.26214 41 6.46209 41H9.123C9.32296 41 9.48616 40.8376 9.48616 40.6368V39.1594H30.6496V40.6368C30.6496 40.8376 30.8119 41 31.0127 41H33.6736C33.8745 41 34.0428 40.8376 34.0428 40.6368V39.1594H36.8609C38.2324 39.1594 39.3467 38.0451 39.3467 36.6668V29.9419C39.3467 28.5585 38.2324 27.4374 36.8481 27.4374H34.0428V26.0283H36.8609C38.2324 26.0283 39.3467 24.9132 39.3467 23.5366V16.8117C39.3467 15.4282 38.2324 14.3131 36.8481 14.3131H34.024C34.0368 14.2755 34.0428 14.2379 34.0428 14.2003V12.722H34.0445ZM5.799 9.89791C5.799 10.1107 5.62981 10.2867 5.41704 10.2867H3.58242C3.36965 10.2867 3.18764 10.1115 3.18764 9.89791V8.0633C3.18764 7.85053 3.3688 7.66937 3.58242 7.66937H5.41704C5.62981 7.66937 5.799 7.85053 5.799 8.0633V9.89791ZM5.799 5.81596C5.799 6.02275 5.62981 6.20391 5.41704 6.20391H3.58242C3.36965 6.20391 3.18764 6.02275 3.18764 5.81596V3.97537C3.18764 3.7626 3.3688 3.58743 3.58242 3.58743H5.41704C5.62981 3.58743 5.799 3.7626 5.799 3.97537V5.81596ZM5.799 23.0786C5.799 23.2913 5.62981 23.4725 5.41704 23.4725H3.58242C3.36965 23.4725 3.18764 23.2913 3.18764 23.0786V21.244C3.18764 21.0312 3.3688 20.856 3.58242 20.856H5.41704C5.62981 20.856 5.799 21.0312 5.799 21.244V23.0786ZM5.799 18.9958C5.799 19.2085 5.62981 19.3837 5.41704 19.3837H3.58242C3.36965 19.3837 3.18764 19.2085 3.18764 18.9958V17.1552C3.18764 16.9424 3.3688 16.7672 3.58242 16.7672H5.41704C5.62981 16.7672 5.799 16.9424 5.799 17.1552V18.9958ZM5.799 36.3344C5.799 36.5472 5.62981 36.7224 5.41704 36.7224H3.58242C3.36965 36.7224 3.18764 36.5472 3.18764 36.3344V34.4998C3.18764 34.2871 3.3688 34.105 3.58242 34.105H5.41704C5.62981 34.105 5.799 34.2862 5.799 34.4998V36.3344ZM5.799 32.2457C5.799 32.4584 5.62981 32.6396 5.41704 32.6396H3.58242C3.36965 32.6396 3.18764 32.4584 3.18764 32.2457V30.411C3.18764 30.1983 3.3688 30.0231 3.58242 30.0231H5.41704C5.62981 30.0231 5.799 30.1983 5.799 30.411V32.2457ZM9.97494 36.3344C9.97494 36.5472 9.80575 36.7224 9.59298 36.7224H7.75238C7.54559 36.7224 7.36444 36.5472 7.36444 36.3344V34.4998C7.36444 34.2871 7.54559 34.105 7.75238 34.105H9.59298C9.80575 34.105 9.97494 34.2862 9.97494 34.4998V36.3344ZM9.97494 32.2457C9.97494 32.4584 9.80575 32.6396 9.59298 32.6396H7.75238C7.54559 32.6396 7.36444 32.4584 7.36444 32.2457V30.411C7.36444 30.1983 7.54559 30.0231 7.75238 30.0231H9.59298C9.80575 30.0231 9.97494 30.1983 9.97494 30.411V32.2457ZM9.97494 23.0786C9.97494 23.2913 9.80575 23.4725 9.59298 23.4725H7.75238C7.54559 23.4725 7.36444 23.2913 7.36444 23.0786V21.244C7.36444 21.0312 7.54559 20.856 7.75238 20.856H9.59298C9.80575 20.856 9.97494 21.0312 9.97494 21.244V23.0786ZM9.97494 18.9958C9.97494 19.2085 9.80575 19.3837 9.59298 19.3837H7.75238C7.54559 19.3837 7.36444 19.2085 7.36444 18.9958V17.1552C7.36444 16.9424 7.54559 16.7672 7.75238 16.7672H9.59298C9.80575 16.7672 9.97494 16.9424 9.97494 17.1552V18.9958ZM9.97494 9.89791C9.97494 10.1107 9.80575 10.2867 9.59298 10.2867H7.75238C7.54559 10.2867 7.36444 10.1115 7.36444 9.89791V8.0633C7.36444 7.85053 7.54559 7.66937 7.75238 7.66937H9.59298C9.80575 7.66937 9.97494 7.85053 9.97494 8.0633V9.89791ZM9.97494 5.81596C9.97494 6.02275 9.80575 6.20391 9.59298 6.20391H7.75238C7.54559 6.20391 7.36444 6.02275 7.36444 5.81596V3.97537C7.36444 3.7626 7.54559 3.58743 7.75238 3.58743H9.59298C9.80575 3.58743 9.97494 3.7626 9.97494 3.97537V5.81596ZM14.1449 36.3344C14.1449 36.5472 13.9757 36.7224 13.7689 36.7224H11.9283C11.7156 36.7224 11.5404 36.5472 11.5404 36.3344V34.4998C11.5404 34.2871 11.7156 34.105 11.9283 34.105H13.7689C13.9757 34.105 14.1449 34.2862 14.1449 34.4998V36.3344ZM14.1449 32.2457C14.1449 32.4584 13.9757 32.6396 13.7689 32.6396H11.9283C11.7156 32.6396 11.5404 32.4584 11.5404 32.2457V30.411C11.5404 30.1983 11.7156 30.0231 11.9283 30.0231H13.7689C13.9757 30.0231 14.1449 30.1983 14.1449 30.411V32.2457ZM14.1449 23.0786C14.1449 23.2913 13.9757 23.4725 13.7689 23.4725H11.9283C11.7156 23.4725 11.5404 23.2913 11.5404 23.0786V21.244C11.5404 21.0312 11.7156 20.856 11.9283 20.856H13.7689C13.9757 20.856 14.1449 21.0312 14.1449 21.244V23.0786ZM14.1449 18.9958C14.1449 19.2085 13.9757 19.3837 13.7689 19.3837H11.9283C11.7156 19.3837 11.5404 19.2085 11.5404 18.9958V17.1552C11.5404 16.9424 11.7156 16.7672 11.9283 16.7672H13.7689C13.9757 16.7672 14.1449 16.9424 14.1449 17.1552V18.9958ZM14.1449 9.89791C14.1449 10.1107 13.9757 10.2867 13.7689 10.2867H11.9283C11.7156 10.2867 11.5404 10.1115 11.5404 9.89791V8.0633C11.5404 7.85053 11.7156 7.66937 11.9283 7.66937H13.7689C13.9757 7.66937 14.1449 7.85053 14.1449 8.0633V9.89791ZM14.1449 5.81596C14.1449 6.02275 13.9757 6.20391 13.7689 6.20391H11.9283C11.7156 6.20391 11.5404 6.02275 11.5404 5.81596V3.97537C11.5404 3.7626 11.7156 3.58743 11.9283 3.58743H13.7689C13.9757 3.58743 14.1449 3.7626 14.1449 3.97537V5.81596ZM18.3217 36.3344C18.3217 36.5472 18.1525 36.7224 17.9397 36.7224H16.1051C15.8923 36.7224 15.7103 36.5472 15.7103 36.3344V34.4998C15.7103 34.2871 15.8915 34.105 16.1051 34.105H17.9397C18.1525 34.105 18.3217 34.2862 18.3217 34.4998V36.3344ZM18.3217 32.2457C18.3217 32.4584 18.1525 32.6396 17.9397 32.6396H16.1051C15.8923 32.6396 15.7103 32.4584 15.7103 32.2457V30.411C15.7103 30.1983 15.8915 30.0231 16.1051 30.0231H17.9397C18.1525 30.0231 18.3217 30.1983 18.3217 30.411V32.2457ZM18.3217 23.0786C18.3217 23.2913 18.1525 23.4725 17.9397 23.4725H16.1051C15.8923 23.4725 15.7103 23.2913 15.7103 23.0786V21.244C15.7103 21.0312 15.8915 20.856 16.1051 20.856H17.9397C18.1525 20.856 18.3217 21.0312 18.3217 21.244V23.0786ZM18.3217 18.9958C18.3217 19.2085 18.1525 19.3837 17.9397 19.3837H16.1051C15.8923 19.3837 15.7103 19.2085 15.7103 18.9958V17.1552C15.7103 16.9424 15.8915 16.7672 16.1051 16.7672H17.9397C18.1525 16.7672 18.3217 16.9424 18.3217 17.1552V18.9958ZM18.3217 9.89791C18.3217 10.1107 18.1525 10.2867 17.9397 10.2867H16.1051C15.8923 10.2867 15.7103 10.1115 15.7103 9.89791V8.0633C15.7103 7.85053 15.8915 7.66937 16.1051 7.66937H17.9397C18.1525 7.66937 18.3217 7.85053 18.3217 8.0633V9.89791ZM18.3217 5.81596C18.3217 6.02275 18.1525 6.20391 17.9397 6.20391H16.1051C15.8923 6.20391 15.7103 6.02275 15.7103 5.81596V3.97537C15.7103 3.7626 15.8915 3.58743 16.1051 3.58743H17.9397C18.1525 3.58743 18.3217 3.7626 18.3217 3.97537V5.81596ZM26.4864 34.3366C25.7541 34.3366 25.1594 33.735 25.1594 33.0027C25.1594 32.2704 25.7541 31.6757 26.4864 31.6757C27.2256 31.6757 27.8203 32.2704 27.8203 33.0027C27.8203 33.7359 27.2256 34.3366 26.4864 34.3366ZM26.4864 21.0807C25.7541 21.0807 25.1594 20.486 25.1594 19.7469C25.1594 19.0146 25.7541 18.4198 26.4864 18.4198C27.2256 18.4198 27.8203 19.0146 27.8203 19.7469C27.8203 20.486 27.2256 21.0807 26.4864 21.0807ZM26.4864 7.90094C25.7541 7.90094 25.1594 7.30023 25.1594 6.56707C25.1594 5.83476 25.7541 5.23917 26.4864 5.23917C27.2256 5.23917 27.8203 5.83391 27.8203 6.56707C27.8203 7.29937 27.2256 7.90094 26.4864 7.90094ZM29.9865 34.3366C29.2473 34.3366 28.6526 33.735 28.6526 33.0027C28.6526 32.2704 29.2473 31.6757 29.9865 31.6757C30.7188 31.6757 31.3144 32.2704 31.3144 33.0027C31.3144 33.7359 30.7196 34.3366 29.9865 34.3366ZM29.9865 21.0807C29.2473 21.0807 28.6526 20.486 28.6526 19.7469C28.6526 19.0146 29.2473 18.4198 29.9865 18.4198C30.7188 18.4198 31.3144 19.0146 31.3144 19.7469C31.3144 20.486 30.7196 21.0807 29.9865 21.0807ZM29.9865 7.90094C29.2473 7.90094 28.6526 7.30023 28.6526 6.56707C28.6526 5.83476 29.2473 5.23917 29.9865 5.23917C30.7188 5.23917 31.3144 5.83391 31.3144 6.56707C31.3144 7.29937 30.7196 7.90094 29.9865 7.90094ZM34.8332 30.7862C36.0603 30.7862 37.0498 31.7757 37.0498 33.0027C37.0498 34.2298 36.0603 35.2193 34.8332 35.2193C33.6061 35.2193 32.6166 34.2298 32.6166 33.0027C32.6166 31.7757 33.6061 30.7862 34.8332 30.7862ZM34.8332 17.5312C36.0603 17.5312 37.0498 18.5267 37.0498 19.7477C37.0498 20.9748 36.0603 21.9703 34.8332 21.9703C33.6061 21.9703 32.6166 20.9748 32.6166 19.7477C32.6166 18.5267 33.6061 17.5312 34.8332 17.5312ZM32.6166 6.56707C32.6166 5.34599 33.6061 4.35049 34.8332 4.35049C36.0603 4.35049 37.0498 5.34599 37.0498 6.56707C37.0498 7.79413 36.0603 8.78364 34.8332 8.78364C33.6061 8.78364 32.6166 7.79413 32.6166 6.56707Z" fill="black"/>
</mask>
<g mask="url(#mask1_1640_2247)">
<path d="M34.0445 12.722H36.8626C38.2341 12.722 39.3484 11.6078 39.3484 10.2295V3.50454C39.3484 2.1211 38.2341 1 36.8498 1H3.28762C1.90418 1 0.789062 2.1211 0.789062 3.50454V10.2235C0.789062 11.6009 1.90333 12.722 3.28762 12.722H6.09294V14.1995C6.09294 14.2371 6.09893 14.2747 6.11174 14.3123H3.28762C1.90418 14.3123 0.789062 15.4265 0.789062 16.8108V23.5297C0.789062 24.9072 1.90333 26.0283 3.28762 26.0283H6.09294V27.4374H3.28762C1.90418 27.4374 0.789062 28.5585 0.789062 29.9419V36.6609C0.789062 38.0383 1.90333 39.1594 3.28762 39.1594H6.09294V40.6368C6.09294 40.8376 6.26214 41 6.46209 41H9.123C9.32296 41 9.48616 40.8376 9.48616 40.6368V39.1594H30.6496V40.6368C30.6496 40.8376 30.8119 41 31.0127 41H33.6736C33.8745 41 34.0428 40.8376 34.0428 40.6368V39.1594H36.8609C38.2324 39.1594 39.3467 38.0451 39.3467 36.6668V29.9419C39.3467 28.5585 38.2324 27.4374 36.8481 27.4374H34.0428V26.0283H36.8609C38.2324 26.0283 39.3467 24.9132 39.3467 23.5366V16.8117C39.3467 15.4282 38.2324 14.3131 36.8481 14.3131H34.024C34.0368 14.2755 34.0428 14.2379 34.0428 14.2003V12.722H34.0445ZM5.799 9.89791C5.799 10.1107 5.62981 10.2867 5.41704 10.2867H3.58242C3.36965 10.2867 3.18764 10.1115 3.18764 9.89791V8.0633C3.18764 7.85053 3.3688 7.66937 3.58242 7.66937H5.41704C5.62981 7.66937 5.799 7.85053 5.799 8.0633V9.89791ZM5.799 5.81596C5.799 6.02275 5.62981 6.20391 5.41704 6.20391H3.58242C3.36965 6.20391 3.18764 6.02275 3.18764 5.81596V3.97537C3.18764 3.7626 3.3688 3.58743 3.58242 3.58743H5.41704C5.62981 3.58743 5.799 3.7626 5.799 3.97537V5.81596ZM5.799 23.0786C5.799 23.2913 5.62981 23.4725 5.41704 23.4725H3.58242C3.36965 23.4725 3.18764 23.2913 3.18764 23.0786V21.244C3.18764 21.0312 3.3688 20.856 3.58242 20.856H5.41704C5.62981 20.856 5.799 21.0312 5.799 21.244V23.0786ZM5.799 18.9958C5.799 19.2085 5.62981 19.3837 5.41704 19.3837H3.58242C3.36965 19.3837 3.18764 19.2085 3.18764 18.9958V17.1552C3.18764 16.9424 3.3688 16.7672 3.58242 16.7672H5.41704C5.62981 16.7672 5.799 16.9424 5.799 17.1552V18.9958ZM5.799 36.3344C5.799 36.5472 5.62981 36.7224 5.41704 36.7224H3.58242C3.36965 36.7224 3.18764 36.5472 3.18764 36.3344V34.4998C3.18764 34.2871 3.3688 34.105 3.58242 34.105H5.41704C5.62981 34.105 5.799 34.2862 5.799 34.4998V36.3344ZM5.799 32.2457C5.799 32.4584 5.62981 32.6396 5.41704 32.6396H3.58242C3.36965 32.6396 3.18764 32.4584 3.18764 32.2457V30.411C3.18764 30.1983 3.3688 30.0231 3.58242 30.0231H5.41704C5.62981 30.0231 5.799 30.1983 5.799 30.411V32.2457ZM9.97494 36.3344C9.97494 36.5472 9.80575 36.7224 9.59298 36.7224H7.75238C7.54559 36.7224 7.36444 36.5472 7.36444 36.3344V34.4998C7.36444 34.2871 7.54559 34.105 7.75238 34.105H9.59298C9.80575 34.105 9.97494 34.2862 9.97494 34.4998V36.3344ZM9.97494 32.2457C9.97494 32.4584 9.80575 32.6396 9.59298 32.6396H7.75238C7.54559 32.6396 7.36444 32.4584 7.36444 32.2457V30.411C7.36444 30.1983 7.54559 30.0231 7.75238 30.0231H9.59298C9.80575 30.0231 9.97494 30.1983 9.97494 30.411V32.2457ZM9.97494 23.0786C9.97494 23.2913 9.80575 23.4725 9.59298 23.4725H7.75238C7.54559 23.4725 7.36444 23.2913 7.36444 23.0786V21.244C7.36444 21.0312 7.54559 20.856 7.75238 20.856H9.59298C9.80575 20.856 9.97494 21.0312 9.97494 21.244V23.0786ZM9.97494 18.9958C9.97494 19.2085 9.80575 19.3837 9.59298 19.3837H7.75238C7.54559 19.3837 7.36444 19.2085 7.36444 18.9958V17.1552C7.36444 16.9424 7.54559 16.7672 7.75238 16.7672H9.59298C9.80575 16.7672 9.97494 16.9424 9.97494 17.1552V18.9958ZM9.97494 9.89791C9.97494 10.1107 9.80575 10.2867 9.59298 10.2867H7.75238C7.54559 10.2867 7.36444 10.1115 7.36444 9.89791V8.0633C7.36444 7.85053 7.54559 7.66937 7.75238 7.66937H9.59298C9.80575 7.66937 9.97494 7.85053 9.97494 8.0633V9.89791ZM9.97494 5.81596C9.97494 6.02275 9.80575 6.20391 9.59298 6.20391H7.75238C7.54559 6.20391 7.36444 6.02275 7.36444 5.81596V3.97537C7.36444 3.7626 7.54559 3.58743 7.75238 3.58743H9.59298C9.80575 3.58743 9.97494 3.7626 9.97494 3.97537V5.81596ZM14.1449 36.3344C14.1449 36.5472 13.9757 36.7224 13.7689 36.7224H11.9283C11.7156 36.7224 11.5404 36.5472 11.5404 36.3344V34.4998C11.5404 34.2871 11.7156 34.105 11.9283 34.105H13.7689C13.9757 34.105 14.1449 34.2862 14.1449 34.4998V36.3344ZM14.1449 32.2457C14.1449 32.4584 13.9757 32.6396 13.7689 32.6396H11.9283C11.7156 32.6396 11.5404 32.4584 11.5404 32.2457V30.411C11.5404 30.1983 11.7156 30.0231 11.9283 30.0231H13.7689C13.9757 30.0231 14.1449 30.1983 14.1449 30.411V32.2457ZM14.1449 23.0786C14.1449 23.2913 13.9757 23.4725 13.7689 23.4725H11.9283C11.7156 23.4725 11.5404 23.2913 11.5404 23.0786V21.244C11.5404 21.0312 11.7156 20.856 11.9283 20.856H13.7689C13.9757 20.856 14.1449 21.0312 14.1449 21.244V23.0786ZM14.1449 18.9958C14.1449 19.2085 13.9757 19.3837 13.7689 19.3837H11.9283C11.7156 19.3837 11.5404 19.2085 11.5404 18.9958V17.1552C11.5404 16.9424 11.7156 16.7672 11.9283 16.7672H13.7689C13.9757 16.7672 14.1449 16.9424 14.1449 17.1552V18.9958ZM14.1449 9.89791C14.1449 10.1107 13.9757 10.2867 13.7689 10.2867H11.9283C11.7156 10.2867 11.5404 10.1115 11.5404 9.89791V8.0633C11.5404 7.85053 11.7156 7.66937 11.9283 7.66937H13.7689C13.9757 7.66937 14.1449 7.85053 14.1449 8.0633V9.89791ZM14.1449 5.81596C14.1449 6.02275 13.9757 6.20391 13.7689 6.20391H11.9283C11.7156 6.20391 11.5404 6.02275 11.5404 5.81596V3.97537C11.5404 3.7626 11.7156 3.58743 11.9283 3.58743H13.7689C13.9757 3.58743 14.1449 3.7626 14.1449 3.97537V5.81596ZM18.3217 36.3344C18.3217 36.5472 18.1525 36.7224 17.9397 36.7224H16.1051C15.8923 36.7224 15.7103 36.5472 15.7103 36.3344V34.4998C15.7103 34.2871 15.8915 34.105 16.1051 34.105H17.9397C18.1525 34.105 18.3217 34.2862 18.3217 34.4998V36.3344ZM18.3217 32.2457C18.3217 32.4584 18.1525 32.6396 17.9397 32.6396H16.1051C15.8923 32.6396 15.7103 32.4584 15.7103 32.2457V30.411C15.7103 30.1983 15.8915 30.0231 16.1051 30.0231H17.9397C18.1525 30.0231 18.3217 30.1983 18.3217 30.411V32.2457ZM18.3217 23.0786C18.3217 23.2913 18.1525 23.4725 17.9397 23.4725H16.1051C15.8923 23.4725 15.7103 23.2913 15.7103 23.0786V21.244C15.7103 21.0312 15.8915 20.856 16.1051 20.856H17.9397C18.1525 20.856 18.3217 21.0312 18.3217 21.244V23.0786ZM18.3217 18.9958C18.3217 19.2085 18.1525 19.3837 17.9397 19.3837H16.1051C15.8923 19.3837 15.7103 19.2085 15.7103 18.9958V17.1552C15.7103 16.9424 15.8915 16.7672 16.1051 16.7672H17.9397C18.1525 16.7672 18.3217 16.9424 18.3217 17.1552V18.9958ZM18.3217 9.89791C18.3217 10.1107 18.1525 10.2867 17.9397 10.2867H16.1051C15.8923 10.2867 15.7103 10.1115 15.7103 9.89791V8.0633C15.7103 7.85053 15.8915 7.66937 16.1051 7.66937H17.9397C18.1525 7.66937 18.3217 7.85053 18.3217 8.0633V9.89791ZM18.3217 5.81596C18.3217 6.02275 18.1525 6.20391 17.9397 6.20391H16.1051C15.8923 6.20391 15.7103 6.02275 15.7103 5.81596V3.97537C15.7103 3.7626 15.8915 3.58743 16.1051 3.58743H17.9397C18.1525 3.58743 18.3217 3.7626 18.3217 3.97537V5.81596ZM26.4864 34.3366C25.7541 34.3366 25.1594 33.735 25.1594 33.0027C25.1594 32.2704 25.7541 31.6757 26.4864 31.6757C27.2256 31.6757 27.8203 32.2704 27.8203 33.0027C27.8203 33.7359 27.2256 34.3366 26.4864 34.3366ZM26.4864 21.0807C25.7541 21.0807 25.1594 20.486 25.1594 19.7469C25.1594 19.0146 25.7541 18.4198 26.4864 18.4198C27.2256 18.4198 27.8203 19.0146 27.8203 19.7469C27.8203 20.486 27.2256 21.0807 26.4864 21.0807ZM26.4864 7.90094C25.7541 7.90094 25.1594 7.30023 25.1594 6.56707C25.1594 5.83476 25.7541 5.23917 26.4864 5.23917C27.2256 5.23917 27.8203 5.83391 27.8203 6.56707C27.8203 7.29937 27.2256 7.90094 26.4864 7.90094ZM29.9865 34.3366C29.2473 34.3366 28.6526 33.735 28.6526 33.0027C28.6526 32.2704 29.2473 31.6757 29.9865 31.6757C30.7188 31.6757 31.3144 32.2704 31.3144 33.0027C31.3144 33.7359 30.7196 34.3366 29.9865 34.3366ZM29.9865 21.0807C29.2473 21.0807 28.6526 20.486 28.6526 19.7469C28.6526 19.0146 29.2473 18.4198 29.9865 18.4198C30.7188 18.4198 31.3144 19.0146 31.3144 19.7469C31.3144 20.486 30.7196 21.0807 29.9865 21.0807ZM29.9865 7.90094C29.2473 7.90094 28.6526 7.30023 28.6526 6.56707C28.6526 5.83476 29.2473 5.23917 29.9865 5.23917C30.7188 5.23917 31.3144 5.83391 31.3144 6.56707C31.3144 7.29937 30.7196 7.90094 29.9865 7.90094ZM34.8332 30.7862C36.0603 30.7862 37.0498 31.7757 37.0498 33.0027C37.0498 34.2298 36.0603 35.2193 34.8332 35.2193C33.6061 35.2193 32.6166 34.2298 32.6166 33.0027C32.6166 31.7757 33.6061 30.7862 34.8332 30.7862ZM34.8332 17.5312C36.0603 17.5312 37.0498 18.5267 37.0498 19.7477C37.0498 20.9748 36.0603 21.9703 34.8332 21.9703C33.6061 21.9703 32.6166 20.9748 32.6166 19.7477C32.6166 18.5267 33.6061 17.5312 34.8332 17.5312ZM32.6166 6.56707C32.6166 5.34599 33.6061 4.35049 34.8332 4.35049C36.0603 4.35049 37.0498 5.34599 37.0498 6.56707C37.0498 7.79413 36.0603 8.78364 34.8332 8.78364C33.6061 8.78364 32.6166 7.79413 32.6166 6.56707Z" stroke="#2A2A2A"/>
</g>
<path d="M19.1203 2.11914H3.17578C2.6235 2.11914 2.17578 2.56686 2.17578 3.11914V10.5186C2.17578 11.0709 2.6235 11.5186 3.17578 11.5186H19.1203C19.6726 11.5186 20.1203 11.0709 20.1203 10.5186V3.11914C20.1203 2.56686 19.6726 2.11914 19.1203 2.11914Z" fill="white"/>
<path d="M19.1203 15.791H3.17578C2.6235 15.791 2.17578 16.2387 2.17578 16.791V24.1905C2.17578 24.7428 2.6235 25.1905 3.17578 25.1905H19.1203C19.6726 25.1905 20.1203 24.7428 20.1203 24.1905V16.791C20.1203 16.2387 19.6726 15.791 19.1203 15.791Z" fill="white"/>
<path d="M19.1203 28.6094H3.17578C2.6235 28.6094 2.17578 29.0571 2.17578 29.6094V37.0089C2.17578 37.5612 2.6235 38.0089 3.17578 38.0089H19.1203C19.6726 38.0089 20.1203 37.5612 20.1203 37.0089V29.6094C20.1203 29.0571 19.6726 28.6094 19.1203 28.6094Z" fill="white"/>
</g>
</g>
<defs>
<clipPath id="clip0_1640_2247">
<rect width="40" height="42" fill="white"/>
</clipPath>
</defs>
</svg>
