<svg width="54" height="40" viewBox="0 0 54 40" fill="none" xmlns="http://www.w3.org/2000/svg">
<g clip-path="url(#clip0_1640_2262)">
<mask id="mask0_1640_2262" style="mask-type:luminance" maskUnits="userSpaceOnUse" x="0" y="0" width="54" height="40">
<path d="M54 0H0V40H54V0Z" fill="white"/>
</mask>
<g mask="url(#mask0_1640_2262)">
<path d="M46.4909 15.0847C46.5657 14.5052 46.6667 13.9323 46.6667 13.3333C46.6667 5.97 40.6999 0 33.3333 0C28.9778 0 25.1465 2.11917 22.7148 5.35156C21.8392 5.14 20.9375 5 20 5C13.5547 5 8.33333 10.2214 8.33333 16.6667C8.33333 16.849 8.37896 17.0118 8.38542 17.1941C3.55146 18.6166 0 23.0371 0 28.3333C0 34.7786 5.22135 40 11.6667 40H40C47.3666 40 53.3333 34.0332 53.3333 26.6667C53.3333 21.6732 50.5567 17.3698 46.4909 15.0847ZM36.6667 26.6667H16.6667V20H36.6667V26.6667Z" fill="#2A2A2A"/>
</g>
</g>
<defs>
<clipPath id="clip0_1640_2262">
<rect width="54" height="40" fill="white"/>
</clipPath>
</defs>
</svg>
