<svg width="52" height="61" viewBox="0 0 52 61" fill="none" xmlns="http://www.w3.org/2000/svg">
<g clip-path="url(#clip0_1640_2304)">
<mask id="mask0_1640_2304" style="mask-type:luminance" maskUnits="userSpaceOnUse" x="0" y="0" width="52" height="61">
<path d="M52 0H0V61H52V0Z" fill="white"/>
</mask>
<g mask="url(#mask0_1640_2304)">
<mask id="mask1_1640_2304" style="mask-type:luminance" maskUnits="userSpaceOnUse" x="0" y="0" width="52" height="61">
<path d="M51.1769 0.0410156H0.226562V60.041H51.1769V0.0410156Z" fill="white"/>
</mask>
<g mask="url(#mask1_1640_2304)">
<path d="M11.773 20.6696H10.9648V26.1847H11.5565C11.8872 26.2139 12.22 26.165 12.5283 26.0418C12.8367 25.9186 13.1119 25.7246 13.3319 25.4754C13.7536 24.8447 13.9519 24.0902 13.8948 23.333C13.9536 22.6206 13.7649 21.9098 13.3607 21.321C13.1618 21.0998 12.9158 20.9264 12.641 20.8136C12.3661 20.7009 12.0695 20.6516 11.773 20.6696Z" fill="#2A2A2A"/>
<path d="M31.8053 22.5634C31.6292 22.554 31.454 22.5953 31.3005 22.6825C31.1471 22.7697 31.0217 22.8992 30.9393 23.0556C30.7447 23.5122 30.6559 24.0071 30.6795 24.5031C30.6621 24.9987 30.7507 25.4923 30.9393 25.9506C31.0221 26.1109 31.1492 26.2439 31.3053 26.3337C31.4614 26.4235 31.64 26.4664 31.8197 26.4573C31.9983 26.4712 32.1769 26.4302 32.3317 26.3396C32.4864 26.2491 32.6099 26.1134 32.6857 25.9506C32.8744 25.4923 32.9629 24.9987 32.9455 24.5031C32.9691 24.0071 32.8803 23.5122 32.6857 23.0556C32.6037 22.8956 32.4764 22.7635 32.3197 22.676C32.1631 22.5884 31.9841 22.5492 31.8053 22.5634Z" fill="#2A2A2A"/>
<path d="M23.4188 25.4749C23.8405 24.8443 24.0388 24.0898 23.9817 23.3326C24.0405 22.6202 23.8518 21.9093 23.4476 21.3205C23.2509 21.1005 23.0074 20.9277 22.7351 20.8149C22.4627 20.7022 22.1685 20.6524 21.8744 20.6692H21.1094V26.1842H21.6867C22.0103 26.2066 22.3347 26.1543 22.6349 26.0314C22.9352 25.9084 23.2033 25.7181 23.4188 25.4749Z" fill="#2A2A2A"/>
<path d="M51.1184 16.3257C51.1184 15.7612 51.1184 15.1387 51.1184 14.4729C51.0885 12.8695 50.4566 11.3365 49.3489 10.1799C48.2412 9.02342 46.7392 8.32852 45.143 8.23404C38.8363 8.10947 32.8197 5.55384 28.3424 1.09773C27.6386 0.435189 26.7096 0.0664062 25.7443 0.0664062C24.7791 0.0664062 23.8501 0.435189 23.1463 1.09773C18.6526 5.53947 12.6254 8.07445 6.3168 8.17614C4.71938 8.2673 3.21549 8.96116 2.1071 10.1184C0.998709 11.2756 0.367896 12.8106 0.341323 14.415C0.341323 15.0808 0.341323 15.6888 0.341323 16.2678V16.3836C0.225855 23.4186 -0.0195141 32.1761 2.91049 40.1231C4.4444 44.3803 6.91046 48.2384 10.1273 51.4138C14.1768 55.208 19.0044 58.0685 24.2721 59.7949C24.465 59.8632 24.6628 59.9165 24.8639 59.9542C25.1391 60.0125 25.4197 60.0416 25.701 60.041C25.9823 60.0408 26.2628 60.0117 26.5382 59.9542C26.7388 59.9147 26.9365 59.8615 27.1299 59.7949C32.3941 58.0725 37.2141 55.2058 41.2459 51.3993C44.465 48.2258 46.9314 44.3671 48.4627 40.1086C51.4071 32.1327 51.2483 23.3752 51.1184 16.3257ZM18.4121 18.5259H21.8761C23.2029 18.4346 24.5129 18.8656 25.5278 19.7274C25.9566 20.1922 26.2855 20.7404 26.4941 21.338C26.7027 21.9357 26.7864 22.57 26.7402 23.2015C26.7859 23.8954 26.6891 24.5913 26.4557 25.2461C26.2223 25.901 25.8574 26.5008 25.3835 27.0085C24.8707 27.4723 24.2709 27.8289 23.6191 28.0576C22.9674 28.2862 22.2767 28.3823 21.5875 28.3402H18.4121V18.5259ZM15.2945 27.0374C14.7795 27.5023 14.1773 27.8596 13.523 28.0882C12.8687 28.3169 12.1755 28.4124 11.484 28.3691H8.30862V18.5259H11.7727C13.099 18.4376 14.4079 18.8683 15.4244 19.7274C15.8557 20.191 16.1873 20.7387 16.3984 21.3364C16.6094 21.9341 16.6955 22.5689 16.6512 23.2015C16.7009 23.9001 16.606 24.6015 16.3726 25.2616C16.1391 25.9218 15.772 26.5263 15.2945 27.0374ZM33.957 36.6779L24.1566 46.4922C23.9692 46.6867 23.745 46.8419 23.4973 46.9487C23.2495 47.0556 22.983 47.112 22.7133 47.1146C22.1698 47.103 21.6522 46.8798 21.2699 46.4922L17.445 42.7431C17.2498 42.5463 17.0951 42.3129 16.9898 42.0563C16.8846 41.7996 16.8307 41.5246 16.8314 41.247C16.832 40.9694 16.8872 40.6947 16.9938 40.4385C17.1003 40.1824 17.2561 39.9497 17.4523 39.7539C17.6484 39.5581 17.8812 39.403 18.1371 39.2974C18.3931 39.1918 18.6673 39.1378 18.944 39.1385C19.2208 39.1392 19.4947 39.1945 19.7502 39.3013C20.0056 39.4082 20.2376 39.5644 20.4328 39.7612L22.67 42.0193L30.9692 33.696C31.1645 33.4993 31.3964 33.343 31.6519 33.2362C31.9073 33.1294 32.1813 33.074 32.458 33.0733C32.7348 33.0727 33.009 33.1267 33.2649 33.2323C33.5209 33.3379 33.7536 33.493 33.9498 33.6888C34.1459 33.8846 34.3018 34.1172 34.4083 34.3734C34.5148 34.6296 34.57 34.9043 34.5707 35.1819C34.5713 35.4594 34.5175 35.7344 34.4122 35.9911C34.3069 36.2478 34.1522 36.4812 33.957 36.6779ZM34.6065 27.4572C34.2373 27.816 33.7977 28.094 33.3157 28.2734C32.8336 28.4528 32.3197 28.5298 31.8064 28.4994C31.305 28.5174 30.8053 28.4316 30.3384 28.2473C29.8715 28.063 29.4476 27.7842 29.0929 27.4282C28.738 27.0387 28.4645 26.5819 28.2885 26.0847C28.1125 25.5875 28.0376 25.0599 28.0681 24.5332C28.0353 24.0086 28.1064 23.4827 28.2774 22.9858C28.4483 22.4889 28.7157 22.0308 29.064 21.6381C29.4365 21.2796 29.8786 21.002 30.3629 20.8227C30.8472 20.6433 31.3632 20.5661 31.8786 20.5959C32.5722 20.5823 33.2579 20.7467 33.8704 21.0736C34.446 21.4138 34.9082 21.9175 35.1983 22.5211C35.5161 23.1689 35.6745 23.8837 35.6601 24.6056C35.6959 25.658 35.3175 26.6823 34.6065 27.4572ZM39.8026 21.6671C40.3225 21.9911 40.8679 22.2719 41.4335 22.5066C42.11 22.77 42.7138 23.1919 43.1944 23.737C43.5377 24.2164 43.7105 24.7976 43.6852 25.3872C43.6956 25.9727 43.5288 26.5477 43.2067 27.0361C42.8846 27.5246 42.4223 27.9035 41.881 28.1231C41.238 28.3967 40.5442 28.5299 39.8459 28.5139C39.2945 28.5231 38.7435 28.4795 38.2004 28.3836C37.7015 28.2779 37.2169 28.1126 36.7571 27.8914V25.5175C37.2578 25.7772 37.7853 25.9811 38.3303 26.1255C38.8008 26.2567 39.2855 26.3296 39.7737 26.3426C40.0764 26.3681 40.3795 26.2972 40.6397 26.1399C40.7259 26.0803 40.7961 26.0001 40.8439 25.9067C40.8918 25.8133 40.9158 25.7094 40.9139 25.6044C40.9181 25.4807 40.8827 25.359 40.8129 25.257C40.767 25.1447 40.7089 25.0379 40.6397 24.9385C40.4809 24.8372 40.0479 24.6345 39.3407 24.3161C38.8216 24.1015 38.3356 23.8139 37.8973 23.462C37.5924 23.2039 37.3462 22.883 37.1757 22.5211C37.0192 22.12 36.9408 21.6925 36.9447 21.2618C36.9257 20.8526 37.0064 20.445 37.18 20.0742C37.3535 19.7034 37.6146 19.3806 37.9406 19.1339C38.7323 18.59 39.6817 18.3252 40.6397 18.3812C41.7128 18.3924 42.771 18.6343 43.7429 19.0905L42.9346 21.146C42.1958 20.7642 41.3834 20.547 40.5531 20.5091C40.2911 20.4886 40.0291 20.5492 39.8026 20.6828C39.73 20.7359 39.6712 20.8057 39.631 20.8862C39.5908 20.9668 39.5705 21.0559 39.5716 21.146C39.5704 21.2423 39.5904 21.3377 39.6304 21.4253C39.6703 21.5129 39.7291 21.5905 39.8026 21.6526V21.6671Z" fill="#2A2A2A"/>
</g>
</g>
</g>
<defs>
<clipPath id="clip0_1640_2304">
<rect width="52" height="61" fill="white"/>
</clipPath>
</defs>
</svg>
