<svg width="15" height="15" viewBox="0 0 15 15" fill="none" xmlns="http://www.w3.org/2000/svg">
<g clip-path="url(#clip0_1259_911)">
<path d="M7.58203 0.567627C6.28409 0.567627 5.0153 0.952511 3.9361 1.67361C2.85691 2.3947 2.01577 3.41963 1.51907 4.61877C1.02237 5.81791 0.892415 7.13741 1.14563 8.41041C1.39885 9.68341 2.02386 10.8527 2.94165 11.7705C3.85943 12.6883 5.02875 13.3133 6.30175 13.5665C7.57475 13.8197 8.89425 13.6898 10.0934 13.1931C11.2925 12.6964 12.3175 11.8553 13.0386 10.7761C13.7596 9.69686 14.1445 8.42807 14.1445 7.13013C14.1445 5.38964 13.4531 3.72045 12.2224 2.48974C10.9917 1.25903 9.32252 0.567627 7.58203 0.567627ZM7.58203 12.8176C6.45715 12.8176 5.35753 12.4841 4.42223 11.8591C3.48692 11.2342 2.75794 10.3459 2.32747 9.30664C1.897 8.26738 1.78436 7.12382 2.00382 6.02055C2.22327 4.91728 2.76495 3.90387 3.56036 3.10846C4.35578 2.31305 5.36919 1.77136 6.47246 1.55191C7.57572 1.33246 8.71929 1.44509 9.75855 1.87556C10.7978 2.30604 11.6861 3.03502 12.311 3.97032C12.936 4.90563 13.2695 6.00525 13.2695 7.13013C13.2695 8.63855 12.6703 10.0852 11.6037 11.1518C10.5371 12.2184 9.09045 12.8176 7.58203 12.8176Z" fill="#FFA054"/>
<path d="M12.0356 5.30568C11.7994 4.71758 11.4484 4.1825 11.0029 3.73176C10.5574 3.28103 10.0265 2.92369 9.44119 2.68068C9.38755 2.65345 9.32887 2.63758 9.26882 2.63405C9.20876 2.63053 9.14863 2.63942 9.09217 2.66018C9.03571 2.68094 8.98414 2.71313 8.94068 2.75472C8.89722 2.79631 8.8628 2.84642 8.83958 2.90191C8.81635 2.9574 8.80483 3.01709 8.80571 3.07724C8.8066 3.13739 8.81988 3.19671 8.84472 3.25149C8.86956 3.30628 8.90544 3.35535 8.95011 3.39565C8.99477 3.43594 9.04727 3.46659 9.10431 3.48568C9.58188 3.68427 10.0153 3.97561 10.3795 4.34284C10.7438 4.71006 11.0315 5.14588 11.2262 5.62506C11.2699 5.73224 11.3543 5.81775 11.4609 5.86285C11.5675 5.90795 11.6876 5.90897 11.7949 5.86568C11.9 5.82196 11.9839 5.73903 12.0288 5.63448C12.0737 5.52993 12.0762 5.41199 12.0356 5.30568Z" fill="#FFA054"/>
<path d="M7.58203 4.94263C7.14939 4.94263 6.72645 5.07092 6.36672 5.31129C6.00699 5.55165 5.72661 5.89329 5.56105 6.29301C5.39548 6.69272 5.35216 7.13255 5.43656 7.55689C5.52097 7.98122 5.72931 8.371 6.03524 8.67692C6.34116 8.98285 6.73094 9.19119 7.15527 9.27559C7.57961 9.36 8.01944 9.31668 8.41915 9.15111C8.81887 8.98555 9.16051 8.70517 9.40087 8.34544C9.64124 7.9857 9.76953 7.56277 9.76953 7.13013C9.76953 6.54997 9.53906 5.99357 9.12883 5.58333C8.71859 5.1731 8.16219 4.94263 7.58203 4.94263ZM7.58203 8.44263C7.32244 8.44263 7.06869 8.36565 6.85285 8.22143C6.63701 8.07721 6.46878 7.87223 6.36944 7.6324C6.2701 7.39257 6.24411 7.12867 6.29475 6.87407C6.34539 6.61947 6.4704 6.38561 6.65395 6.20205C6.83751 6.01849 7.07138 5.89349 7.32598 5.84285C7.58058 5.7922 7.84448 5.81819 8.0843 5.91753C8.32413 6.01687 8.52912 6.1851 8.67334 6.40094C8.81756 6.61678 8.89453 6.87054 8.89453 7.13013C8.89453 7.47822 8.75625 7.81206 8.51011 8.0582C8.26397 8.30435 7.93013 8.44263 7.58203 8.44263Z" fill="#FFA054"/>
</g>
<defs>
<clipPath id="clip0_1259_911">
<rect width="14" height="14" fill="white" transform="translate(0.582031 0.130127)"/>
</clipPath>
</defs>
</svg>
