<svg width="52" height="52" viewBox="0 0 52 52" fill="none" xmlns="http://www.w3.org/2000/svg">
<path d="M30.5588 21.8695C31.2988 21.8695 31.8988 21.2696 31.8988 20.5295C31.8988 19.7894 31.2988 19.1895 30.5588 19.1895C29.8187 19.1895 29.2188 19.7894 29.2188 20.5295C29.2188 21.2696 29.8187 21.8695 30.5588 21.8695Z" fill="#2BAD5C"/>
<path d="M38.1408 33.2386C38.8809 33.2386 39.4808 32.6387 39.4808 31.8986C39.4808 31.1586 38.8809 30.5586 38.1408 30.5586C37.4008 30.5586 36.8008 31.1586 36.8008 31.8986C36.8008 32.6387 37.4008 33.2386 38.1408 33.2386Z" fill="#2BAD5C"/>
<path d="M45.2494 6.00004H23.0494C22.8936 5.99872 22.7391 6.02827 22.5947 6.08698C22.4504 6.14569 22.3192 6.2324 22.2085 6.3421C22.0979 6.45181 22.0101 6.58233 21.9502 6.72615C21.8902 6.86997 21.8594 7.02424 21.8594 7.18004V46.44H45.2494C45.565 46.44 45.8677 46.3146 46.0908 46.0915C46.314 45.8683 46.4394 45.5656 46.4394 45.25V7.18004C46.4394 7.02424 46.4085 6.86997 46.3486 6.72615C46.2887 6.58233 46.2009 6.45181 46.0902 6.3421C45.9796 6.2324 45.8483 6.14569 45.704 6.08698C45.5597 6.02827 45.4052 5.99872 45.2494 6.00004ZM31.7494 24.05V39.49C31.7222 39.7855 31.5856 40.0602 31.3664 40.2602C31.1472 40.4602 30.8611 40.571 30.5644 40.571C30.2676 40.571 29.9816 40.4602 29.7624 40.2602C29.5432 40.0602 29.4066 39.7855 29.3794 39.49V24.05C28.6545 23.7952 28.0267 23.3216 27.5826 22.6947C27.1384 22.0677 26.8999 21.3183 26.8999 20.55C26.8999 19.7817 27.1384 19.0323 27.5826 18.4054C28.0267 17.7784 28.6545 17.3048 29.3794 17.05V13C29.4066 12.7045 29.5432 12.4298 29.7624 12.2298C29.9816 12.0299 30.2676 11.919 30.5644 11.919C30.8611 11.919 31.1472 12.0299 31.3664 12.2298C31.5856 12.4298 31.7222 12.7045 31.7494 13V17C32.4742 17.2548 33.1021 17.7284 33.5462 18.3554C33.9904 18.9823 34.2289 19.7317 34.2289 20.5C34.2289 21.2683 33.9904 22.0177 33.5462 22.6447C33.1021 23.2716 32.4742 23.7452 31.7494 24V24.05ZM39.3294 35.42V39.49C39.3022 39.7855 39.1656 40.0602 38.9464 40.2602C38.7272 40.4602 38.4411 40.571 38.1444 40.571C37.8476 40.571 37.5616 40.4602 37.3424 40.2602C37.1232 40.0602 36.9866 39.7855 36.9594 39.49V35.42C36.2345 35.1652 35.6067 34.6916 35.1626 34.0647C34.7184 33.4377 34.4799 32.6883 34.4799 31.92C34.4799 31.1517 34.7184 30.4023 35.1626 29.7754C35.6067 29.1484 36.2345 28.6748 36.9594 28.42V13C36.9866 12.7045 37.1232 12.4298 37.3424 12.2298C37.5616 12.0299 37.8476 11.919 38.1444 11.919C38.4411 11.919 38.7272 12.0299 38.9464 12.2298C39.1656 12.4298 39.3022 12.7045 39.3294 13V28.39C40.0542 28.6448 40.6821 29.1184 41.1262 29.7454C41.5704 30.3723 41.8089 31.1217 41.8089 31.89C41.8089 32.6583 41.5704 33.4077 41.1262 34.0347C40.6821 34.6616 40.0542 35.1352 39.3294 35.39V35.42Z" fill="#2BAD5C"/>
<path d="M15.5712 20.9093V22.9093L15.1812 23.0693L13.7612 21.6593C13.565 21.4683 13.3099 21.3494 13.0374 21.3222C12.765 21.2949 12.4913 21.3609 12.2612 21.5093C11.4496 22.0661 10.6928 22.699 10.0012 23.3993C9.29825 24.1102 8.66533 24.8871 8.11123 25.7193C7.95996 25.9467 7.89223 26.2195 7.91958 26.4912C7.94694 26.7629 8.06768 27.0167 8.26123 27.2093L9.69123 28.6293C9.63123 28.7593 9.58123 28.8893 9.52123 29.0293H7.52123C7.23472 29.0151 6.95283 29.1057 6.72829 29.2842C6.50375 29.4628 6.35193 29.717 6.30123 29.9993C5.89438 31.9786 5.89438 34.02 6.30123 35.9993C6.35657 36.2657 6.50227 36.5048 6.71366 36.6761C6.92505 36.8474 7.18915 36.9404 7.46123 36.9393H9.46123C9.52123 37.0793 9.57123 37.2093 9.63123 37.3393L8.21123 38.6793C8.01768 38.872 7.89694 39.1258 7.86958 39.3975C7.84223 39.6692 7.90996 39.942 8.06123 40.1693C8.63113 41.0037 9.28086 41.7807 10.0012 42.4893C10.7106 43.1899 11.484 43.8227 12.3112 44.3793C12.5418 44.5283 12.8165 44.5936 13.0895 44.5645C13.3625 44.5354 13.6172 44.4135 13.8112 44.2193L15.1812 42.7993L15.5712 42.9593V44.9593C15.5725 45.2323 15.6676 45.4966 15.8405 45.7078C16.0135 45.919 16.2538 46.0643 16.5212 46.1193C17.5083 46.3216 18.5136 46.4221 19.5212 46.4193V35.8593C19.124 35.8826 18.7263 35.8245 18.3524 35.6885C17.9785 35.5525 17.6364 35.3416 17.347 35.0686C17.0575 34.7956 16.8269 34.4664 16.6693 34.1011C16.5117 33.7358 16.4304 33.3422 16.4304 32.9443C16.4304 32.5465 16.5117 32.1528 16.6693 31.7875C16.8269 31.4222 17.0575 31.093 17.347 30.82C17.6364 30.5471 17.9785 30.3361 18.3524 30.2002C18.7263 30.0642 19.124 30.0061 19.5212 30.0293V19.4593C18.5139 19.4532 17.5087 19.5503 16.5212 19.7493C16.2538 19.8044 16.0135 19.9497 15.8405 20.1609C15.6676 20.3721 15.5725 20.6363 15.5712 20.9093Z" fill="#2BAD5C"/>
</svg>
