<svg width="20" height="20" viewBox="0 0 20 20" fill="none" xmlns="http://www.w3.org/2000/svg">
<path d="M18 11.18V9C18 6.87827 17.1571 4.84344 15.6569 3.34315C14.1566 1.84285 12.1217 1 10 1C7.87827 1 5.84344 1.84285 4.34315 3.34315C2.84285 4.84344 2 6.87827 2 9V11.18C1.41645 11.3863 0.910998 11.7681 0.552938 12.2729C0.194879 12.7778 0.00173951 13.3811 0 14V16C0 16.7956 0.316071 17.5587 0.87868 18.1213C1.44129 18.6839 2.20435 19 3 19H6C6.26522 19 6.51957 18.8946 6.70711 18.7071C6.89464 18.5196 7 18.2652 7 18V12C7 11.7348 6.89464 11.4804 6.70711 11.2929C6.51957 11.1054 6.26522 11 6 11H4V9C4 7.4087 4.63214 5.88258 5.75736 4.75736C6.88258 3.63214 8.4087 3 10 3C11.5913 3 13.1174 3.63214 14.2426 4.75736C15.3679 5.88258 16 7.4087 16 9V11H14C13.7348 11 13.4804 11.1054 13.2929 11.2929C13.1054 11.4804 13 11.7348 13 12V18C13 18.2652 13.1054 18.5196 13.2929 18.7071C13.4804 18.8946 13.7348 19 14 19H17C17.7956 19 18.5587 18.6839 19.1213 18.1213C19.6839 17.5587 20 16.7956 20 16V14C19.9983 13.3811 19.8051 12.7778 19.4471 12.2729C19.089 11.7681 18.5835 11.3863 18 11.18ZM5 13V17H3C2.73478 17 2.48043 16.8946 2.29289 16.7071C2.10536 16.5196 2 16.2652 2 16V14C2 13.7348 2.10536 13.4804 2.29289 13.2929C2.48043 13.1054 2.73478 13 3 13H5ZM18 16C18 16.2652 17.8946 16.5196 17.7071 16.7071C17.5196 16.8946 17.2652 17 17 17H15V13H17C17.2652 13 17.5196 13.1054 17.7071 13.2929C17.8946 13.4804 18 13.7348 18 14V16Z" fill="#00A63F"/>
</svg>
