<svg width="23" height="23" viewBox="0 0 23 23" fill="none" xmlns="http://www.w3.org/2000/svg">
<g clip-path="url(#clip0_1607_59407)">
<path d="M18.9521 3.82715H4.20996C3.19643 3.82715 2.3764 4.6564 2.3764 5.66992L2.36719 16.7265C2.36719 17.7401 3.19643 18.5693 4.20996 18.5693H18.9521C19.9657 18.5693 20.7949 17.7401 20.7949 16.7265V5.66992C20.7949 4.6564 19.9657 3.82715 18.9521 3.82715ZM18.5836 7.74304L12.0694 11.8156C11.7745 11.9998 11.3876 11.9998 11.0927 11.8156L4.57851 7.74304C4.34817 7.59562 4.20996 7.34684 4.20996 7.07964C4.20996 6.46231 4.88257 6.09376 5.40776 6.41624L11.581 10.2768L17.7543 6.41624C18.2795 6.09376 18.9521 6.46231 18.9521 7.07964C18.9521 7.34684 18.8139 7.59562 18.5836 7.74304Z" fill="#00A63F"/>
</g>
<defs>
<clipPath id="clip0_1607_59407">
<rect width="22.1133" height="22.1133" fill="white" transform="translate(0.523438 0.141602)"/>
</clipPath>
</defs>
</svg>
