<svg width="23" height="24" viewBox="0 0 23 24" fill="none" xmlns="http://www.w3.org/2000/svg">
<path d="M18.706 4.63477H3.96386C2.95034 4.63477 2.13031 5.46401 2.13031 6.47754L2.12109 17.5342C2.12109 18.5477 2.95034 19.3769 3.96386 19.3769H18.706C19.7196 19.3769 20.5488 18.5477 20.5488 17.5342V6.47754C20.5488 5.46401 19.7196 4.63477 18.706 4.63477ZM3.96386 9.24169H13.6384V12.4665H3.96386V9.24169ZM3.96386 14.3093H13.6384V17.5342H4.88525C4.37849 17.5342 3.96386 17.1195 3.96386 16.6128V14.3093ZM17.7846 17.5342H15.4812V9.24169H18.706V16.6128C18.706 17.1195 18.2914 17.5342 17.7846 17.5342Z" fill="#00A63F"/>
</svg>
