<svg width="60" height="60" viewBox="0 0 60 60" fill="none" xmlns="http://www.w3.org/2000/svg">
<path fill-rule="evenodd" clip-rule="evenodd" d="M48.045 33.542C47.2297 33.5446 46.4353 33.7995 45.7707 34.2716C45.1061 34.7438 44.6039 35.4101 44.333 36.179H33.367V38.816H44.333C44.576 39.4976 45.0017 40.0993 45.5636 40.5553C46.1254 41.0114 46.8018 41.3042 47.5188 41.4019C48.2358 41.4995 48.9659 41.3983 49.6292 41.1091C50.2926 40.82 50.8637 40.3541 51.2802 39.7623C51.6967 39.1706 51.9425 38.4757 51.9908 37.7537C52.0392 37.0317 51.8881 36.3103 51.5543 35.6683C51.2204 35.0263 50.7164 34.4884 50.0976 34.1135C49.4787 33.7385 48.7686 33.5408 48.045 33.542ZM45.408 44.089C45.2475 44.0951 45.0875 44.1111 44.929 44.137L43.586 41.452H33.367V38.816H28.094V41.452H26.775C26.4255 41.4523 26.0904 41.5912 25.8433 41.8383C25.5962 42.0854 25.4573 42.4205 25.457 42.77V44.089H14.91V42.77C14.9097 42.4205 14.7708 42.0854 14.5237 41.8383C14.2766 41.5912 13.9415 41.4523 13.592 41.452H12.273V33.542H13.592C13.9415 33.5417 14.2766 33.4028 14.5237 33.1557C14.7708 32.9086 14.9097 32.5735 14.91 32.224V30.905H25.457V32.223C25.4573 32.5725 25.5962 32.9076 25.8433 33.1547C26.0904 33.4018 26.4255 33.5407 26.775 33.541H28.093V36.178H33.366V33.542H43.586L44.929 30.857C45.0875 30.8832 45.2475 30.8996 45.408 30.906C46.3253 30.9105 47.2159 30.5976 47.9288 30.0204C48.6418 29.4432 49.1331 28.6372 49.3196 27.739C49.506 26.8409 49.3761 25.9059 48.9519 25.0926C48.5276 24.2793 47.8351 23.6378 46.9919 23.2768C46.1486 22.9158 45.2064 22.8576 44.3251 23.112C43.4438 23.3664 42.6776 23.9178 42.1564 24.6727C41.6353 25.4276 41.3912 26.3395 41.4657 27.2538C41.5402 28.168 41.9286 29.0284 42.565 29.689L41.956 30.906H33.366V25.631H7V49.362H33.367V44.089H41.957L42.566 45.307C41.9369 45.9643 41.5543 46.8188 41.4828 47.7259C41.4113 48.6329 41.6553 49.5368 42.1737 50.2845C42.692 51.0323 43.4528 51.578 44.3272 51.8294C45.2017 52.0807 46.1361 52.0223 46.9724 51.6639C47.8087 51.3054 48.4954 50.6691 48.9165 49.8626C49.3375 49.056 49.467 48.1287 49.283 47.2377C49.099 46.3467 48.6128 45.5465 47.9066 44.9728C47.2005 44.399 46.3178 44.0868 45.408 44.089ZM23.046 33.542H17.321C17.1234 34.0978 16.8045 34.6026 16.3875 35.0199C15.9704 35.4371 15.4657 35.7562 14.91 35.954V39.042C15.4657 39.2397 15.9703 39.5586 16.3874 39.9756C16.8044 40.3927 17.1233 40.8973 17.321 41.453H23.045C23.2427 40.8974 23.5617 40.3927 23.9787 39.9757C24.3957 39.5587 24.9004 39.2397 25.456 39.042V35.954C24.9005 35.7559 24.3961 35.4367 23.9792 35.0195C23.5624 34.6023 23.2436 34.0976 23.046 33.542ZM20.184 7C17.3879 7.00318 14.7072 8.11526 12.73 10.0923C10.7528 12.0693 9.64044 14.7499 9.637 17.546V23H14.91V17.546C14.91 16.1474 15.4656 14.806 16.4546 13.8171C17.4435 12.8281 18.7849 12.2725 20.1835 12.2725C21.5821 12.2725 22.9235 12.8281 23.9124 13.8171C24.9014 14.806 25.457 16.1474 25.457 17.546V23H30.73V17.546C30.7266 14.7501 29.6144 12.0697 27.6373 10.0927C25.6603 8.11564 22.9799 7.00344 20.184 7Z" fill="#2BAD5C"/>
</svg>
