<svg width="106" height="106" viewBox="0 0 106 106" fill="none" xmlns="http://www.w3.org/2000/svg">
<path d="M44.8069 8.10156V19.5197C41.1665 20.3744 37.6851 21.8054 34.4951 23.7531L26.4855 15.7435L14.8818 27.3439L22.8947 35.3568C20.9531 38.5191 19.5222 41.9678 18.6547 45.5759H7.33594V62.0589H18.6614C19.5259 65.6695 20.9569 69.1145 22.8981 72.2779L14.8851 80.2909L26.4888 91.8912L34.4984 83.8816C37.6917 85.8294 41.1698 87.2604 44.8102 88.1183V99.4437H61.2005V88.115C64.8111 87.2537 68.2561 85.8227 71.4229 83.8816L79.4325 91.8912L91.0362 80.2909L83.0232 72.2779C84.9637 69.1154 86.3935 65.6667 87.2599 62.0589H98.6781V45.5759H87.2533C86.3869 41.968 84.9571 38.5193 83.0166 35.3568L91.0295 27.3439L79.4259 15.7435L71.4195 23.7531C68.2558 21.8135 64.8059 20.3848 61.1972 19.5197V8.10156H44.8069ZM47.4569 75.925C44.885 75.2797 42.4464 74.1876 40.2522 72.6986C36.5812 70.2127 33.7048 66.721 31.9677 62.6419C30.7763 59.8352 30.1644 56.8167 30.169 53.7677C30.169 41.1934 40.4278 31.0241 53.0021 31.0241C55.9895 31.0214 58.9482 31.6079 61.7087 32.75C64.4693 33.892 66.9776 35.5672 69.09 37.6797C71.2025 39.7921 72.8777 42.3004 74.0197 45.061C75.1618 47.8215 75.7483 50.7802 75.7457 53.7677C75.745 56.8149 75.1381 59.8315 73.9602 62.6419C72.8196 65.3531 71.1662 67.8185 69.0909 69.9029C67.0183 71.9855 64.5644 73.65 61.863 74.8054C60.5015 75.3818 59.0739 75.8322 57.5899 76.137" fill="#2A2A2A"/>
<path d="M47.4569 75.925C44.885 75.2797 42.4464 74.1876 40.2522 72.6986C36.5812 70.2127 33.7048 66.721 31.9677 62.6419C30.7763 59.8352 30.1644 56.8167 30.169 53.7677C30.169 41.1934 40.4278 31.0241 53.0021 31.0241C55.9895 31.0214 58.9482 31.6079 61.7087 32.75C64.4693 33.892 66.9776 35.5672 69.09 37.6797C71.2025 39.7921 72.8777 42.3004 74.0197 45.061C75.1618 47.8215 75.7483 50.7802 75.7457 53.7677C75.745 56.8149 75.1381 59.8315 73.9602 62.6419C72.8196 65.3531 71.1662 67.8185 69.0909 69.9029C67.0183 71.9855 64.5644 73.65 61.863 74.8054C60.5015 75.3817 59.0739 75.8322 57.5899 76.137M44.8069 8.10156V19.5198C41.1665 20.3744 37.6851 21.8054 34.4951 23.7531L26.4855 15.7435L14.8818 27.3439L22.8947 35.3568C20.9531 38.5191 19.5222 41.9678 18.6547 45.5759H7.33594V62.0589H18.6614C19.5259 65.6695 20.9569 69.1145 22.8981 72.2779L14.8851 80.2909L26.4888 91.8912L34.4984 83.8816C37.6917 85.8294 41.1698 87.2604 44.8102 88.1183V99.4437H61.2005V88.115C64.8111 87.2537 68.2561 85.8227 71.4229 83.8816L79.4325 91.8912L91.0362 80.2909L83.0232 72.2779C84.9637 69.1154 86.3935 65.6667 87.2599 62.0589H98.6781V45.5759H87.2533C86.3869 41.968 84.9571 38.5193 83.0166 35.3568L91.0295 27.3439L79.4259 15.7435L71.4195 23.7531C68.2558 21.8135 64.8059 20.3848 61.1972 19.5198V8.10156H44.8069Z" stroke="#1C1616" stroke-width="2.94813" stroke-linecap="round" stroke-linejoin="round"/>
<path d="M18.8945 101.058V95.1825C18.8945 92.4165 21.0476 89.9554 23.5055 88.7264C33.6484 83.1945 45.0699 77.5335 45.0699 77.5335L47.69 76.2416C49.237 76.8047 50.7375 77.5434 52.9039 77.613C55.3717 77.4275 56.5212 76.6789 58.2702 76.1621L60.6883 77.3447C61.6125 77.9608 70.5264 81.9557 83.7433 89.3359C86.2045 90.8696 87.1287 96.3308 87.1287 99.4048V101.227" fill="white"/>
<path d="M18.8945 101.058V95.1825C18.8945 92.4165 21.0476 89.9554 23.5055 88.7264C33.6484 83.1945 45.0699 77.5335 45.0699 77.5335L47.69 76.2416C49.237 76.8047 50.7375 77.5434 52.9039 77.613C55.3717 77.4275 56.5212 76.6789 58.2702 76.1621L60.6883 77.3447C61.6125 77.9608 70.5264 81.9557 83.7433 89.3359C86.2045 90.8696 87.1287 96.3308 87.1287 99.4048V101.227" stroke="#1C1616" stroke-width="3.3125" stroke-linecap="round" stroke-linejoin="round"/>
<path d="M45.0721 77.533L47.6923 76.2412C49.2393 76.8043 50.7398 77.543 52.9062 77.6125C55.374 77.427 56.5234 76.6784 58.2724 76.1617L60.6906 77.3442M52.8366 42.5C51.2879 42.4965 49.7537 42.799 48.3222 43.3901C46.8907 43.9811 45.5901 44.8491 44.495 45.9442C43.3999 47.0394 42.5318 48.34 41.9408 49.7715C41.3497 51.203 41.0473 52.7372 41.0508 54.2859V65.8233C41.0508 72.3523 47.7718 77.6092 52.8333 77.6092C57.9014 77.6092 64.6192 72.3523 64.6192 65.8233V54.2859C64.6227 52.7372 64.3202 51.203 63.7292 49.7715C63.1381 48.34 62.2701 47.0394 61.175 45.9442C60.0799 44.8491 58.7792 43.9811 57.3477 43.3901C55.9162 42.799 54.3854 42.4965 52.8366 42.5Z" stroke="#1C1616" stroke-width="3.3125" stroke-linecap="round" stroke-linejoin="round"/>
</svg>
