<svg width="50" height="50" viewBox="0 0 50 50" fill="none" xmlns="http://www.w3.org/2000/svg">
<g clip-path="url(#clip0_1640_2744)">
<mask id="mask0_1640_2744" style="mask-type:luminance" maskUnits="userSpaceOnUse" x="0" y="0" width="50" height="50">
<path d="M50 0H0V50H50V0Z" fill="white"/>
</mask>
<g mask="url(#mask0_1640_2744)">
<path d="M11.3404 19.3467C10.9062 18.4369 9.83417 18.021 8.83003 18.4498C7.82589 18.8788 7.45952 19.9446 7.90731 20.8544L12.1139 29.6146C12.7788 30.9924 13.4708 31.7072 14.7871 31.7072C16.1847 31.7072 16.7953 30.9273 17.4602 29.6146C17.4602 29.6146 21.1239 21.9592 21.1647 21.8813C21.2055 21.8031 21.314 21.5562 21.694 21.5562C22.006 21.5562 22.2773 21.8031 22.2773 22.1282V29.6146C22.2773 30.7714 22.9423 31.7203 24.2314 31.7203C25.5205 31.7203 26.2125 30.7714 26.2125 29.6146V23.4929C26.2125 22.3101 27.0945 21.5433 28.3022 21.5433C29.5099 21.5433 30.3105 22.3361 30.3105 23.4929V29.6146C30.3105 30.7714 30.9754 31.7203 32.2645 31.7203C33.5536 31.7203 34.2456 30.7714 34.2456 29.6146V23.4929C34.2456 22.3101 35.1276 21.5433 36.3353 21.5433C37.543 21.5433 38.3436 22.3361 38.3436 23.4929V29.6146C38.3436 30.7714 39.0085 31.7203 40.2976 31.7203C41.5867 31.7203 42.2788 30.7714 42.2788 29.6146V22.6481C42.2788 20.0876 40.1348 18.2939 37.543 18.2939C34.9648 18.2939 33.3365 20.0096 33.3365 20.0096C32.4817 18.9308 31.2875 18.281 29.2792 18.281C27.1624 18.281 25.3034 19.9965 25.3034 19.9965C24.4486 18.9308 22.9831 18.281 21.7617 18.281C19.8891 18.2939 18.3966 19.0867 17.4873 21.0754L14.8006 27.1451L11.3404 19.3467Z" fill="#2A2A2A"/>
<path d="M25 49C38.2548 49 49 38.2548 49 25C49 11.7452 38.2548 1 25 1C11.7452 1 1 11.7452 1 25C1 38.2548 11.7452 49 25 49Z" stroke="#2A2A2A" stroke-width="2"/>
</g>
</g>
<defs>
<clipPath id="clip0_1640_2744">
<rect width="50" height="50" fill="white"/>
</clipPath>
</defs>
</svg>
