<svg width="34" height="36" viewBox="0 0 34 36" fill="none" xmlns="http://www.w3.org/2000/svg">
<g clip-path="url(#clip0_1640_2682)">
<mask id="mask0_1640_2682" style="mask-type:luminance" maskUnits="userSpaceOnUse" x="0" y="0" width="34" height="36">
<path d="M34 0H0V36H34V0Z" fill="white"/>
</mask>
<g mask="url(#mask0_1640_2682)">
<mask id="mask1_1640_2682" style="mask-type:luminance" maskUnits="userSpaceOnUse" x="0" y="0" width="34" height="36">
<path d="M34 0H0V36H34V0Z" fill="white"/>
</mask>
<g mask="url(#mask1_1640_2682)">
<path d="M31.9862 14.3355C31.9815 14.2957 31.9746 14.2594 31.9619 14.2208C31.9504 14.1856 31.9342 14.1549 31.9158 14.1243C31.8973 14.0936 31.88 14.0641 31.8558 14.0357C31.8315 14.0062 31.8015 13.9824 31.7692 13.9585C31.7508 13.9438 31.7415 13.9256 31.7208 13.9142L19.2765 6.56546C18.0015 5.81151 16.0008 5.81151 14.7258 6.56546L2.28154 13.9142C2.26192 13.9256 2.25038 13.9438 2.23308 13.9585C2.20077 13.9824 2.17077 14.0062 2.14538 14.0357C2.12115 14.0641 2.10269 14.0936 2.08538 14.1254C2.06692 14.1561 2.05077 14.189 2.03923 14.2219C2.02654 14.2594 2.02077 14.2957 2.01615 14.3366C2.01038 14.3582 2 14.3775 2 14.4002V29.1613C2 30.726 3.29462 32 4.88462 32H29.1154C30.7054 32 32 30.726 32 29.1613V14.4002C32 14.3775 31.9896 14.3582 31.9862 14.3355ZM15.3177 7.5397C16.2292 7.00035 17.7696 7.00035 18.6812 7.5397L30.8462 14.7215V14.7409L19.5385 21.4174L27.4908 26.1546C27.7631 26.3181 27.8508 26.6656 27.6869 26.9358C27.5773 27.1118 27.3869 27.2094 27.1919 27.2094C27.0904 27.2094 26.9877 27.1833 26.8942 27.1277L18.3073 22.0124C17.4846 22.2724 16.5188 22.2724 15.695 22.0124L7.10923 27.1277C7.01577 27.1833 6.91308 27.2094 6.81154 27.2094C6.61654 27.2094 6.42615 27.1118 6.31769 26.9358C6.15269 26.6678 6.24038 26.3192 6.51269 26.1546L14.465 21.4174L3.15731 14.7409V14.7215L15.3177 7.5397Z" fill="#2BAD5C"/>
</g>
</g>
</g>
<defs>
<clipPath id="clip0_1640_2682">
<rect width="34" height="36" fill="white"/>
</clipPath>
</defs>
</svg>
