<svg width="40" height="40" viewBox="0 0 40 40" fill="none" xmlns="http://www.w3.org/2000/svg">
<g clip-path="url(#clip0_1640_1785)">
<mask id="mask0_1640_1785" style="mask-type:luminance" maskUnits="userSpaceOnUse" x="0" y="0" width="40" height="40">
<path d="M40 0H0V40H40V0Z" fill="white"/>
</mask>
<g mask="url(#mask0_1640_1785)">
<path d="M36.6719 24.1758C36.7002 23.7807 36.7152 23.3773 36.7152 22.968C36.7152 16.4941 33.052 10.7121 27.2899 7.92398C27.0882 4.07316 23.9008 1 20.0008 1C16.1008 1 12.9135 4.07316 12.7118 7.92398C6.95054 10.7121 3.28642 16.495 3.28642 22.968C3.28642 23.3773 3.30143 23.7807 3.32977 24.1758C0.0940733 26.2754 -0.974488 30.5738 0.975929 33.9521C2.32789 36.2942 4.78925 37.6045 7.31729 37.6045C8.43669 37.6045 9.56443 37.3319 10.6188 36.7935C13.3878 38.6814 16.6051 39.6816 20 39.6816C23.3949 39.6816 26.6122 38.6822 29.3812 36.7935C30.4356 37.3319 31.5641 37.6045 32.6827 37.6045C35.2108 37.6045 37.6721 36.2934 39.0241 33.9521C40.9745 30.5738 39.9059 26.2754 36.6702 24.1758H36.6719ZM13.2644 34.5213C13.7587 33.8229 14.1371 33.0402 14.3655 32.1892C14.8706 30.3038 14.6113 28.3342 13.6353 26.643C12.1642 24.0941 9.37773 22.7747 6.6238 23.028C6.6238 23.0072 6.6213 22.988 6.6213 22.9672C6.6213 18.0928 9.21769 13.7111 13.3636 11.348C14.5205 13.8628 17.0569 15.6156 20.0008 15.6156C22.9448 15.6156 25.482 13.8619 26.6381 11.348C30.784 13.7102 33.3804 18.0928 33.3804 22.9672C33.3804 22.988 33.3787 23.0072 33.3779 23.028C30.6231 22.7738 27.8375 24.0941 26.3664 26.643C25.3903 28.3333 25.1311 30.3038 25.6362 32.1892C25.8646 33.0402 26.243 33.8237 26.7373 34.5213C24.7035 35.7141 22.4088 36.3476 20.0008 36.3476C17.5928 36.3476 15.2982 35.7141 13.2644 34.5213Z" fill="#2BAD5C"/>
</g>
</g>
<defs>
<clipPath id="clip0_1640_1785">
<rect width="40" height="40" fill="white"/>
</clipPath>
</defs>
</svg>
