<svg width="362" height="272" viewBox="0 0 362 272" fill="none" xmlns="http://www.w3.org/2000/svg">
<g clip-path="url(#clip0_1640_1814)">
<mask id="mask0_1640_1814" style="mask-type:luminance" maskUnits="userSpaceOnUse" x="0" y="0" width="362" height="272">
<path d="M362 0H0V272H362V0Z" fill="white"/>
</mask>
<g mask="url(#mask0_1640_1814)">
<mask id="mask1_1640_1814" style="mask-type:luminance" maskUnits="userSpaceOnUse" x="0" y="0" width="362" height="272">
<path d="M362 0H0V272H362V0Z" fill="white"/>
</mask>
<g mask="url(#mask1_1640_1814)">
<path d="M223.939 148.95L342.54 145.679C352.779 145.396 361.23 153.609 361.23 163.837V252.566C361.23 262.791 352.782 271.003 342.546 270.724L222.691 267.457C212.736 267.185 204.851 258.967 205.002 249.022L206.255 166.831C206.403 157.103 214.2 149.218 223.939 148.95Z" fill="#1D1D1D"/>
<path d="M342.54 145.68L223.939 148.951C214.2 149.219 206.403 157.104 206.255 166.832L205.002 249.023C204.851 258.968 212.736 267.186 222.691 267.458L342.546 270.725C352.782 271.004 361.23 262.792 361.23 252.567V163.838C361.23 153.61 352.779 145.397 342.54 145.68ZM342.54 145.68L342.526 145.18" stroke="url(#paint0_linear_1640_1814)"/>
<path d="M307.21 200.169H306.989C306.045 197.122 304.562 194.342 302.651 191.928C302.647 191.923 302.644 191.917 302.64 191.913C297.88 185.909 290.53 182.156 282.531 182.156C274.533 182.156 267.183 185.909 262.423 191.913C262.418 191.917 262.417 191.923 262.412 191.928C260.501 194.342 259.019 197.122 258.074 200.169H257.852C255.758 200.169 254.055 201.871 254.055 203.962V211.546C254.055 213.637 255.758 215.338 257.852 215.338H258.074C259.018 218.385 260.501 221.165 262.412 223.58C262.416 223.585 262.418 223.59 262.423 223.595C267.183 229.599 274.533 233.351 282.531 233.351C290.53 233.351 297.88 229.599 302.64 223.595C302.644 223.59 302.646 223.585 302.651 223.58C304.562 221.165 306.044 218.385 306.989 215.338H307.21C309.304 215.338 311.008 213.637 311.008 211.546V203.962C311.008 201.871 309.304 200.169 307.21 200.169ZM301.486 193.533C302.983 195.515 304.176 197.744 304.995 200.169H294.313C293.965 197.767 293.467 195.539 292.835 193.533H301.486ZM299.905 191.637H292.181C291.049 188.684 289.606 186.331 287.963 184.698C292.573 185.788 296.724 188.228 299.905 191.637ZM283.481 184.167C286.005 184.727 288.368 187.485 290.102 191.637H283.481V184.167ZM283.481 193.533H290.812C291.487 195.524 292.027 197.756 292.394 200.169H283.481V193.533ZM281.582 184.167V191.637H274.961C276.695 187.485 279.057 184.727 281.582 184.167ZM281.582 193.533V200.169H272.669C273.036 197.756 273.576 195.524 274.251 193.533H281.582ZM277.1 184.698C275.457 186.331 274.013 188.684 272.882 191.637H265.158C268.339 188.228 272.49 185.788 277.1 184.698ZM263.577 193.533H272.227C271.596 195.539 271.098 197.767 270.75 200.169H260.067C260.887 197.744 262.08 195.515 263.577 193.533ZM263.577 221.974C262.08 219.993 260.887 217.763 260.067 215.338H270.75C271.098 217.74 271.596 219.968 272.227 221.974H263.577ZM265.158 223.871H272.882C274.013 226.824 275.457 229.177 277.1 230.81C272.49 229.72 268.339 227.279 265.158 223.871ZM281.582 231.34C279.057 230.78 276.695 228.022 274.961 223.87H281.582V231.34ZM281.582 221.974H274.251C273.576 219.983 273.035 217.752 272.669 215.338H281.582V221.974ZM283.481 231.34V223.87H290.102C288.368 228.022 286.005 230.78 283.481 231.34ZM283.481 221.974V215.338H292.394C292.027 217.752 291.487 219.983 290.812 221.974H283.481ZM287.963 230.81C289.606 229.177 291.049 226.824 292.181 223.87H299.905C296.724 227.279 292.573 229.72 287.963 230.81ZM301.486 221.974H292.835C293.467 219.968 293.965 217.74 294.313 215.338H304.995C304.176 217.763 302.982 219.993 301.486 221.974ZM309.109 211.546C309.109 212.591 308.258 213.442 307.21 213.442H257.852C256.805 213.442 255.953 212.591 255.953 211.546V203.961C255.953 202.916 256.805 202.065 257.852 202.065H306.297L306.299 202.066C306.299 202.066 306.301 202.065 306.303 202.065H307.21C308.258 202.065 309.109 202.916 309.109 203.961V211.546Z" fill="#CF95FB"/>
<path d="M273.34 204.01C272.842 203.843 272.304 204.113 272.139 204.61L270.893 208.343L269.108 205.37C268.764 204.799 267.823 204.799 267.48 205.37L265.694 208.343L264.448 204.61C264.283 204.113 263.747 203.843 263.247 204.01C262.749 204.177 262.481 204.713 262.647 205.21L264.545 210.899C264.663 211.25 264.974 211.5 265.343 211.541C265.706 211.579 266.069 211.403 266.26 211.086L268.293 207.701L270.327 211.086C270.5 211.374 270.81 211.546 271.141 211.546C271.176 211.546 271.21 211.545 271.244 211.541C271.613 211.5 271.924 211.25 272.042 210.899L273.94 205.21C274.106 204.713 273.837 204.177 273.34 204.01Z" fill="#CF95FB"/>
<path d="M287.578 204.01C287.078 203.843 286.542 204.113 286.377 204.61L285.131 208.343L283.346 205.37C283.002 204.799 282.061 204.799 281.718 205.37L279.932 208.343L278.686 204.61C278.52 204.113 277.984 203.843 277.485 204.01C276.988 204.177 276.719 204.713 276.885 205.21L278.783 210.899C278.901 211.25 279.212 211.5 279.581 211.541C279.945 211.579 280.307 211.403 280.498 211.086L282.532 207.701L284.565 211.086C284.738 211.374 285.048 211.546 285.379 211.546C285.414 211.546 285.449 211.545 285.482 211.541C285.851 211.5 286.162 211.25 286.28 210.899L288.178 205.21C288.344 204.713 288.075 204.177 287.578 204.01Z" fill="#CF95FB"/>
<path d="M301.816 204.01C301.318 203.843 300.78 204.113 300.615 204.61L299.369 208.343L297.584 205.37C297.24 204.799 296.299 204.799 295.956 205.37L294.17 208.343L292.924 204.61C292.759 204.113 292.223 203.843 291.723 204.01C291.226 204.177 290.957 204.713 291.123 205.21L293.021 210.899C293.139 211.25 293.45 211.5 293.819 211.541C294.183 211.579 294.545 211.403 294.736 211.086L296.77 207.701L298.803 211.086C298.976 211.374 299.286 211.546 299.617 211.546C299.652 211.546 299.687 211.545 299.72 211.541C300.089 211.5 300.4 211.25 300.518 210.899L302.416 205.21C302.582 204.713 302.314 204.177 301.816 204.01Z" fill="#CF95FB"/>
<path d="M223.939 13.8523L342.54 10.5813C352.779 10.2983 361.23 18.5113 361.23 28.7393V117.468C361.23 127.694 352.782 135.906 342.546 135.626L222.691 132.359C212.736 132.087 204.851 123.869 205.002 113.924L206.255 31.7333C206.403 22.0053 214.2 14.1203 223.939 13.8523Z" fill="#1D1D1D"/>
<path d="M342.54 10.582L223.939 13.853C214.2 14.121 206.403 22.006 206.255 31.734L205.002 113.925C204.851 123.87 212.736 132.088 222.691 132.36L342.546 135.627C352.782 135.907 361.23 127.695 361.23 117.469V28.74C361.23 18.512 352.779 10.299 342.54 10.582ZM342.54 10.582L342.526 10.082" stroke="url(#paint1_linear_1640_1814)"/>
<mask id="mask2_1640_1814" style="mask-type:luminance" maskUnits="userSpaceOnUse" x="228" y="61" width="109" height="24">
<path d="M336.998 61.1016H228.25V84.9966H336.998V61.1016Z" fill="white"/>
</mask>
<g mask="url(#mask2_1640_1814)">
<path d="M237.24 66.9466H244.036L242.983 70.9236C242.822 71.4776 242.522 71.9226 242.081 72.2586C241.64 72.5956 241.129 72.7636 240.548 72.7636H237.391C236.669 72.7636 236.032 72.9706 235.481 73.3866C234.929 73.8016 234.544 74.3666 234.323 75.0786C234.183 75.6126 234.167 76.1176 234.278 76.5916C234.388 77.0666 234.583 77.4866 234.864 77.8536C235.145 78.2196 235.506 78.5106 235.947 78.7286C236.388 78.9466 236.869 79.0546 237.391 79.0546H239.314C239.676 79.0546 239.971 79.1986 240.202 79.4846C240.432 79.7716 240.497 80.0936 240.397 80.4496L239.194 84.8416H237.09C235.646 84.8416 234.318 84.5296 233.105 83.9066C231.892 83.2836 230.885 82.4576 230.083 81.4286C229.281 80.4006 228.735 79.2276 228.445 77.9126C228.154 76.5976 228.188 75.2466 228.55 73.8616L228.67 73.4166C228.93 72.4666 229.336 71.5916 229.888 70.7896C230.439 69.9886 231.09 69.3066 231.842 68.7426C232.594 68.1786 233.431 67.7386 234.353 67.4226C235.275 67.1056 236.237 66.9466 237.24 66.9466ZM240.668 84.8416L246.592 62.9406C246.752 62.3876 247.053 61.9416 247.493 61.6056C247.935 61.2686 248.446 61.1016 249.028 61.1016H255.312C256.755 61.1016 258.083 61.4126 259.297 62.0366C260.509 62.6596 261.516 63.4856 262.319 64.5136C263.12 65.5426 263.671 66.7146 263.972 68.0306C264.273 69.3466 264.233 70.6966 263.852 72.0816L263.732 72.5266C263.471 73.4756 263.071 74.3516 262.529 75.1516C261.988 75.9536 261.342 76.6416 260.59 77.2146C259.838 77.7896 259 78.2346 258.079 78.5496C257.157 78.8676 256.194 79.0256 255.192 79.0256H249.749L250.831 75.0186C250.991 74.4846 251.292 74.0496 251.734 73.7136C252.174 73.3776 252.686 73.2096 253.267 73.2096H255.011C255.733 73.2096 256.38 72.9916 256.951 72.5556C257.522 72.1216 257.898 71.5566 258.079 70.8646C258.218 70.3706 258.233 69.8846 258.124 69.4106C258.014 68.9356 257.818 68.5156 257.537 68.1496C257.256 67.7826 256.896 67.4866 256.454 67.2586C256.014 67.0316 255.533 66.9176 255.011 66.9176H251.644L247.253 83.0316C247.092 83.5656 246.792 84.0006 246.351 84.3366C245.91 84.6736 245.408 84.8416 244.848 84.8416H240.668ZM278.165 73.1496L278.256 72.8226C278.296 72.6656 278.271 72.5306 278.18 72.4226C278.09 72.3146 277.965 72.2586 277.805 72.2586H268.032C267.611 72.2586 267.229 72.1706 266.889 71.9926C266.548 71.8136 266.267 71.5816 266.047 71.2946C265.826 71.0086 265.675 70.6766 265.596 70.3006C265.515 69.9246 265.525 69.5396 265.626 69.1426L266.227 66.8876H279.459C280.28 66.8876 281.032 67.0656 281.714 67.4226C282.395 67.7776 282.961 68.2436 283.413 68.8166C283.864 69.3906 284.174 70.0486 284.345 70.7896C284.515 71.5316 284.5 72.2986 284.3 73.0896L281.924 81.8146C281.683 82.7046 281.198 83.4276 280.466 83.9816C279.734 84.5356 278.897 84.8126 277.955 84.8126L268.182 84.7826C267.32 84.7826 266.528 84.5986 265.806 84.2326C265.085 83.8676 264.494 83.3836 264.032 82.7786C263.571 82.1766 263.251 81.4836 263.07 80.7016C262.89 79.9206 262.91 79.1246 263.13 78.3126L263.25 77.8686C263.39 77.3146 263.626 76.7996 263.957 76.3246C264.288 75.8496 264.673 75.4446 265.115 75.1076C265.555 74.7716 266.047 74.5096 266.588 74.3216C267.13 74.1336 267.701 74.0396 268.302 74.0396H276.512L275.91 76.2656C275.75 76.7996 275.449 77.2346 275.008 77.5716C274.567 77.9076 274.065 78.0756 273.505 78.0756H269.836C269.495 78.0756 269.274 78.2446 269.174 78.5806C269.114 78.7976 269.154 78.9906 269.295 79.1586C269.434 79.3266 269.615 79.4116 269.836 79.4116H275.76C275.98 79.4116 276.171 79.3516 276.331 79.2326C276.491 79.1146 276.592 78.9566 276.632 78.7576L276.692 78.5206L278.165 73.1496ZM295.666 66.9466C297.129 66.9466 298.468 67.2586 299.68 67.8816C300.893 68.5046 301.901 69.3316 302.703 70.3596C303.504 71.3886 304.051 72.5666 304.342 73.8906C304.632 75.2166 304.587 76.5726 304.206 77.9576L302.703 83.5366C302.602 83.9316 302.387 84.2476 302.056 84.4856C301.725 84.7226 301.36 84.8416 300.958 84.8416H297.711C297.33 84.8416 297.03 84.6986 296.809 84.4116C296.588 84.1246 296.528 83.8026 296.629 83.4476L298.433 76.7106C298.573 76.2156 298.588 75.7316 298.478 75.2556C298.367 74.7816 298.172 74.3606 297.892 73.9946C297.611 73.6296 297.25 73.3326 296.809 73.1056C296.367 72.8776 295.887 72.7636 295.365 72.7636H291.998L289.081 83.5366C288.981 83.9316 288.765 84.2476 288.434 84.4856C288.103 84.7226 287.728 84.8416 287.307 84.8416H284.089C283.728 84.8416 283.432 84.6986 283.203 84.4116C282.972 84.1246 282.906 83.8026 283.007 83.4476L287.457 66.9466H295.666ZM313.377 72.6006C313.137 72.7886 312.966 73.0306 312.867 73.3276L311.513 78.3726C311.433 78.6496 311.484 78.9066 311.664 79.1436C311.844 79.3806 312.084 79.4996 312.385 79.4996H324.835L323.873 83.0316C323.712 83.5656 323.411 84.0006 322.97 84.3366C322.529 84.6736 322.028 84.8416 321.467 84.8416H310.13C309.308 84.8416 308.556 84.6686 307.875 84.3226C307.193 83.9756 306.627 83.5116 306.176 82.9276C305.724 82.3446 305.414 81.6816 305.244 80.9386C305.073 80.1976 305.098 79.4406 305.319 78.6686L307.153 71.9326C307.353 71.2016 307.664 70.5286 308.085 69.9146C308.506 69.3016 309.003 68.7776 309.574 68.3426C310.145 67.9066 310.786 67.5666 311.498 67.3186C312.21 67.0716 312.946 66.9476 313.709 66.9476H321.737C322.559 66.9476 323.311 67.1256 323.993 67.4816C324.674 67.8376 325.241 68.3026 325.692 68.8766C326.143 69.4506 326.448 70.1126 326.609 70.8646C326.769 71.6166 326.749 72.3786 326.549 73.1496L326.008 75.1676C325.767 76.0576 325.281 76.7746 324.549 77.3186C323.817 77.8626 322.99 78.1346 322.068 78.1346H312.987L313.588 75.9386C313.728 75.4046 314.019 74.9696 314.461 74.6326C314.901 74.2966 315.412 74.1286 315.994 74.1286H319.663C320.004 74.1286 320.223 73.9606 320.324 73.6246L320.444 73.1786C320.505 72.9616 320.464 72.7636 320.324 72.5856C320.183 72.4076 320.004 72.3186 319.783 72.3186H314.19C313.889 72.3186 313.619 72.4126 313.377 72.6006ZM324.804 84.8416L330.849 62.4356C330.948 62.0416 331.164 61.7196 331.495 61.4716C331.826 61.2246 332.201 61.1016 332.622 61.1016H335.84C336.221 61.1016 336.526 61.2446 336.757 61.5316C336.987 61.8186 337.053 62.1406 336.952 62.4956L332.442 79.0256C332.221 79.8966 331.866 80.6866 331.374 81.3996C330.883 82.1116 330.302 82.7206 329.63 83.2246C328.958 83.7286 328.212 84.1246 327.39 84.4116C326.568 84.6986 325.706 84.8416 324.804 84.8416Z" fill="#EE6741"/>
</g>
<path d="M27.3906 33.5116C27.5386 23.7836 35.3356 15.8996 45.0736 15.6306L163.675 12.3606C173.913 12.0776 182.365 20.2906 182.365 30.5176V112.984C182.365 122.889 174.42 130.968 164.503 131.146L44.6616 133.288C34.3816 133.473 25.9946 125.116 26.1506 114.85L27.3906 33.5116Z" fill="#1D1D1D"/>
<path d="M163.675 12.3594L45.0736 15.6294C35.3356 15.8984 27.5386 23.7824 27.3906 33.5104L26.1506 114.849C25.9946 125.115 34.3816 133.472 44.6616 133.287M163.675 12.3594L163.661 11.8594M163.675 12.3594C173.913 12.0764 182.365 20.2894 182.365 30.5164V112.983C182.365 122.888 174.42 130.967 164.503 131.145L44.6616 133.287M44.6616 133.287L44.6706 133.787" stroke="url(#paint2_linear_1640_1814)"/>
<mask id="mask3_1640_1814" style="mask-type:luminance" maskUnits="userSpaceOnUse" x="75" y="44" width="59" height="59">
<path d="M133.915 44.2168H75.1914V102.006H133.915V44.2168Z" fill="white"/>
</mask>
<g mask="url(#mask3_1640_1814)">
<path d="M79.5859 73.1946C79.5859 82.9316 85.3359 91.3456 93.6739 95.3336L81.7499 63.1836C80.3629 66.2426 79.5859 69.6286 79.5859 73.1946Z" fill="#1284C4"/>
<path d="M121.458 71.9517C121.458 68.9117 120.348 66.8067 119.397 65.1677C118.13 63.1417 116.942 61.4247 116.942 59.3997C116.942 57.1377 118.685 55.0327 121.139 55.0327C121.251 55.0327 121.356 55.0467 121.463 55.0527C117.017 51.0427 111.091 48.5957 104.583 48.5957C95.8512 48.5957 88.1682 53.0047 83.6992 59.6827C84.2852 59.6997 84.8382 59.7127 85.3072 59.7127C87.9212 59.7127 91.9682 59.4007 91.9682 59.4007C93.3162 59.3227 93.4752 61.2697 92.1292 61.4257C92.1292 61.4257 90.7752 61.5837 89.2682 61.6607L98.3712 88.3057L103.841 72.1607L99.9472 61.6597C98.6012 61.5827 97.3252 61.4247 97.3252 61.4247C95.9782 61.3477 96.1362 59.3217 97.4832 59.3997C97.4832 59.3997 101.611 59.7117 104.067 59.7117C106.682 59.7117 110.73 59.3997 110.73 59.3997C112.078 59.3217 112.236 61.2687 110.89 61.4247C110.89 61.4247 109.533 61.5827 108.029 61.6597L117.062 88.1037L119.555 79.9037C120.636 76.5017 121.458 74.0577 121.458 71.9517Z" fill="#1284C4"/>
<path d="M105.019 75.3457L97.5195 96.7917C99.7585 97.4397 102.126 97.7947 104.58 97.7947C107.491 97.7947 110.283 97.2987 112.881 96.3997C112.813 96.2947 112.753 96.1827 112.703 96.0607L105.019 75.3457Z" fill="#1284C4"/>
<path d="M126.513 61.3926C126.621 62.1756 126.682 63.0166 126.682 63.9216C126.682 66.4176 126.208 69.2236 124.781 72.7326L117.145 94.4576C124.577 90.1926 129.575 82.2686 129.575 73.1946C129.576 68.9176 128.466 64.8956 126.513 61.3926Z" fill="#1284C4"/>
<path d="M104.581 44.5195C88.5134 44.5195 75.4414 57.3825 75.4414 73.1935C75.4414 89.0065 88.5134 101.87 104.581 101.87C120.647 101.87 133.72 89.0065 133.72 73.1935C133.719 57.3825 120.647 44.5195 104.581 44.5195ZM104.581 100.555C89.2504 100.555 76.7784 88.2805 76.7784 73.1935C76.7784 58.1075 89.2494 45.8345 104.581 45.8345C119.91 45.8345 132.382 58.1075 132.382 73.1935C132.382 88.2805 119.91 100.555 104.581 100.555Z" fill="#1284C4"/>
</g>
<path d="M27.3826 167.499C27.5336 157.57 35.6406 149.602 45.5856 149.611L164.195 149.726C174.233 149.735 182.365 157.866 182.365 167.891V246.454C182.365 256.358 174.42 264.438 164.503 264.615L44.6616 266.758C34.3816 266.942 25.9946 258.586 26.1506 248.32L27.3826 167.499Z" fill="#1D1D1D"/>
<path d="M44.6616 266.758L164.503 264.615C174.42 264.438 182.365 256.358 182.365 246.454V167.891C182.365 157.866 174.233 149.735 164.195 149.726L45.5856 149.611C35.6406 149.602 27.5336 157.57 27.3826 167.499L26.1506 248.32C25.9946 258.586 34.3816 266.942 44.6616 266.758ZM44.6616 266.758L44.6706 267.258" stroke="url(#paint3_linear_1640_1814)"/>
<path d="M74.2789 201.472L75.7499 204.536C76.6549 206.519 77.3389 208.614 77.6249 210.775C77.9089 212.935 77.7839 215.178 77.1079 217.237C76.3419 219.575 74.8929 221.656 73.1169 223.359C71.0159 225.375 68.316 226.928 65.407 227.041C63.509 227.115 61.6209 226.574 59.9429 225.691C58.5309 224.95 57.2419 223.96 56.2139 222.742C55.1859 221.525 54.4219 220.075 54.0689 218.52C53.6329 216.609 53.829 214.577 54.489 212.728C54.959 211.407 55.6579 210.175 56.1549 208.863C56.6979 207.429 57.0029 205.897 57.7219 204.544C58.3749 203.316 59.3519 202.267 59.8719 200.978C60.1829 200.208 60.3169 199.379 60.5179 198.575C60.7189 197.771 60.999 196.957 61.545 196.332C62.204 195.579 63.1929 195.169 64.1899 195.054C65.1879 194.94 66.1919 195.094 67.1689 195.317C67.9459 195.494 68.7139 195.715 69.4659 195.981C70.1079 196.209 70.742 196.475 71.299 196.868C72.053 197.406 72.6299 198.162 73.0889 198.965C73.5479 199.769 73.8989 200.63 74.2829 201.472H74.2789Z" fill="#2A2A2A"/>
<path d="M65.9256 227.058L68.3156 227.289L70.3868 227.697C71.4588 227.957 72.5278 228.277 73.6288 228.319C73.9188 228.327 74.2116 228.315 74.4956 228.253C74.7816 228.194 75.0498 228.071 75.2808 227.894C75.6198 227.624 75.8338 227.216 75.9138 226.793C75.9948 226.369 75.9448 225.924 75.8218 225.512C75.5728 224.683 75.0388 223.976 74.5958 223.234L73.8417 221.953C73.5667 221.541 73.2388 221.154 72.8208 220.887C72.2448 220.517 71.5298 220.395 70.8468 220.463C70.1628 220.532 69.5098 220.776 68.8998 221.093C68.0458 221.533 67.2418 222.14 66.7768 222.981C66.6148 223.273 66.4988 223.588 66.3598 223.893C66.2208 224.197 66.0616 224.498 65.8286 224.739C65.5686 225.005 65.2308 225.186 64.9618 225.445C64.8268 225.573 64.7098 225.723 64.6408 225.898C64.5708 226.071 64.5548 226.268 64.6168 226.444C64.6628 226.564 64.7378 226.671 64.8358 226.753C64.9348 226.835 65.0478 226.898 65.1698 226.939C65.4108 227.024 65.6706 227.036 65.9256 227.051V227.058Z" fill="#2A2A2A"/>
<path d="M63.5642 227.009C62.8982 227.024 62.2402 227.143 61.5872 227.277L59.7261 227.711C58.6871 227.983 57.6461 228.31 56.5711 228.333C56.2881 228.343 56.0052 228.319 55.7282 228.26C55.4532 228.196 55.1852 228.082 54.9642 227.906C54.6162 227.638 54.4132 227.232 54.3322 226.808C54.2522 226.384 54.3002 225.943 54.4252 225.529C54.6712 224.702 55.2002 223.994 55.6332 223.246L56.3641 221.969C56.6311 221.557 56.9512 221.158 57.3622 220.901C57.9212 220.534 58.6182 220.409 59.2842 220.474C59.9502 220.539 60.5872 220.784 61.1752 221.105C62.0042 221.569 62.7611 222.181 63.2391 222.994C63.5871 223.564 63.7702 224.216 64.1632 224.749C64.3742 225.036 64.6412 225.284 64.8172 225.595C64.9092 225.749 64.9661 225.921 64.9841 226.099C65.0001 226.279 64.9612 226.462 64.8622 226.609C64.7952 226.706 64.7052 226.786 64.6022 226.844C64.4982 226.901 64.3852 226.942 64.2702 226.964C64.0372 227.013 63.8002 227.005 63.5642 227.011V227.009ZM59.8322 199.319L59.6131 192.682C59.6571 191.578 59.8372 190.461 60.3282 189.471C60.8222 188.472 61.6131 187.65 62.5921 187.117C63.5201 186.623 64.5641 186.412 65.6051 186.424C67.0171 186.439 68.4332 186.864 69.5762 187.693C70.2932 188.212 70.8971 188.879 71.3721 189.625C71.7791 190.262 72.0941 190.957 72.2911 191.685C72.6971 193.191 72.6012 194.755 72.6792 196.3C72.7552 197.764 72.9892 199.225 72.9092 200.702C72.8922 201.019 72.8572 201.345 72.7162 201.632C72.5702 201.908 72.3462 202.136 72.0732 202.287C71.7992 202.436 71.5012 202.534 71.1922 202.576C70.5772 202.671 69.9522 202.608 69.3312 202.664C68.4342 202.748 67.5771 203.082 66.6871 203.218C65.6241 203.381 64.5412 203.265 63.4692 203.223L62.1942 203.148C61.7672 203.095 61.3402 202.991 60.9602 202.8C60.7282 202.675 60.5112 202.513 60.3372 202.313C60.1632 202.114 60.0292 201.877 59.9622 201.622C59.8592 201.237 59.9061 200.832 59.9151 200.434C59.9241 200.07 59.9002 199.706 59.8442 199.346L59.8322 199.319Z" fill="#2A2A2A"/>
<path d="M61.5197 198.873C61.5627 199.839 61.3837 200.815 60.9997 201.704C60.7947 202.178 60.5317 202.631 60.2507 203.065C59.7637 203.822 59.2067 204.557 58.9397 205.417C58.7777 205.938 58.7247 206.494 58.7897 207.038C58.2017 207.9 57.6957 208.812 57.2737 209.763C56.6357 211.206 56.1997 212.741 56.0447 214.312C55.8567 216.236 56.1027 218.21 56.8627 219.985C57.4117 221.27 58.2317 222.444 59.2987 223.359C59.8357 223.823 60.4317 224.221 61.0697 224.534C63.2807 225.62 66.0117 225.621 68.1847 224.465C69.3217 223.86 70.2807 222.976 71.2037 222.081C71.7607 221.543 72.3147 220.992 72.7397 220.344C73.5577 219.098 73.8427 217.582 74.0197 216.101C74.3297 213.513 74.3387 210.78 73.2027 208.431C72.8107 207.621 72.2927 206.88 71.6657 206.234C71.4937 205.105 71.1677 204.001 70.6937 202.961L69.6087 200.743C69.3387 200.124 69.1167 199.46 68.6457 198.975C68.1577 198.47 67.4507 198.22 66.7507 198.156C66.0517 198.093 65.3597 198.197 64.6537 198.31L61.5337 198.872L61.5197 198.873Z" fill="#FDFDFB"/>
<g filter="url(#filter0_f_1640_1814)">
<path d="M61.1793 201.455C61.4263 202.171 61.9243 202.783 62.5143 203.261C62.7093 203.419 62.9184 203.566 63.1484 203.669C63.3784 203.773 63.6323 203.831 63.8833 203.81C64.1303 203.79 64.3644 203.693 64.5794 203.571C64.7944 203.45 64.9953 203.303 65.2033 203.171C65.5613 202.945 65.9443 202.762 66.3153 202.559C66.7643 202.314 67.1983 202.036 67.5743 201.694C67.7473 201.536 67.9083 201.365 68.0993 201.23C68.2903 201.094 68.5183 200.996 68.7513 201.012C68.9263 201.025 69.0903 201.098 69.2623 201.136C69.3493 201.153 69.4363 201.163 69.5223 201.15C69.6103 201.137 69.6943 201.099 69.7553 201.036C69.8293 200.959 69.8613 200.848 69.8563 200.74C69.8513 200.633 69.8153 200.529 69.7643 200.434C69.6653 200.245 69.5133 200.082 69.4453 199.877C69.3853 199.696 69.3973 199.5 69.4023 199.309C69.4083 199.119 69.4033 198.919 69.3153 198.75C69.2483 198.62 69.1353 198.518 69.0073 198.451C68.8783 198.382 68.7343 198.348 68.5893 198.333C68.2993 198.307 68.0093 198.363 67.7183 198.379C67.3323 198.401 66.9443 198.353 66.5593 198.376C66.0783 198.404 65.6063 198.544 65.1253 198.545C64.5753 198.546 64.0253 198.366 63.4813 198.452C63.2483 198.489 63.0253 198.574 62.8023 198.648C62.5783 198.723 62.3463 198.788 62.1113 198.786C61.8433 198.781 61.5834 198.689 61.3164 198.669C61.1824 198.66 61.0454 198.669 60.9204 198.716C60.7944 198.763 60.6813 198.851 60.6193 198.97C60.5843 199.038 60.5673 199.115 60.5633 199.191C60.5593 199.267 60.5703 199.344 60.5893 199.418C60.6263 199.568 60.6943 199.706 60.7493 199.85C60.9513 200.365 60.9953 200.93 61.1753 201.454L61.1793 201.455Z" fill="black" fill-opacity="0.26"/>
</g>
<g opacity="0.3" filter="url(#filter1_f_1640_1814)">
<path d="M60.491 199.41C60.973 199.707 61.403 200.072 61.766 200.487C62.102 200.872 62.388 201.31 62.826 201.595C63.137 201.797 63.509 201.91 63.886 201.945C64.33 201.985 64.779 201.919 65.206 201.804C65.602 201.697 65.985 201.546 66.337 201.347C67.005 200.967 67.563 200.412 68.298 200.163C68.459 200.109 68.627 200.07 68.781 200.002C68.937 199.936 69.082 199.835 69.157 199.693C69.229 199.556 69.225 199.399 69.249 199.249C69.273 199.088 69.329 198.932 69.359 198.773C69.39 198.613 69.394 198.442 69.319 198.296C69.257 198.174 69.144 198.078 69.014 198.017C68.884 197.956 68.737 197.928 68.591 197.922C68.3 197.908 68.012 197.977 67.722 198.002C67.336 198.034 66.948 197.988 66.562 197.999C66.082 198.012 65.608 198.113 65.128 198.133C64.579 198.157 64.033 198.077 63.485 198.059C63.247 198.052 63.009 198.056 62.775 198.093C62.541 198.131 62.312 198.203 62.114 198.324C61.922 198.442 61.766 198.601 61.589 198.738C61.502 198.806 61.409 198.869 61.306 198.917C61.203 198.965 61.091 198.998 60.976 199.003C60.917 199.006 60.857 199.001 60.798 199.009C60.749 199.017 60.703 199.033 60.66 199.057C60.619 199.082 60.582 199.113 60.554 199.151C60.525 199.188 60.505 199.231 60.494 199.275C60.483 199.32 60.481 199.366 60.49 199.411L60.491 199.41Z" fill="#1D1D1D"/>
</g>
<path d="M61.7428 192.855C61.4818 192.875 61.2358 192.985 61.0468 193.167C60.8578 193.343 60.7238 193.574 60.6408 193.82C60.4758 194.311 60.5248 194.843 60.5518 195.36C60.5858 195.828 60.6208 196.305 60.7838 196.751C60.8678 196.97 60.9958 197.171 61.1588 197.34C61.3208 197.511 61.5288 197.633 61.7568 197.694C61.9718 197.746 62.1978 197.738 62.4088 197.671C62.6178 197.604 62.8098 197.485 62.9678 197.331C63.1968 197.107 63.3498 196.813 63.4408 196.505C63.5238 196.195 63.5598 195.874 63.5508 195.553C63.5438 195.152 63.4918 194.749 63.3648 194.367C63.2368 193.987 63.0398 193.626 62.7578 193.339C62.6218 193.199 62.4678 193.077 62.2938 192.991C62.1198 192.905 61.9228 192.857 61.7298 192.867L61.7428 192.855Z" fill="url(#paint4_radial_1640_1814)"/>
<path d="M66.3218 192.855C65.8978 193.108 65.5718 193.513 65.4138 193.979C65.2158 194.563 65.2888 195.209 65.4868 195.793C65.6878 196.394 66.0338 196.963 66.5568 197.323C66.8168 197.505 67.1178 197.621 67.4338 197.661C67.7508 197.7 68.0718 197.643 68.3568 197.498C68.6978 197.32 68.9588 197.009 69.1198 196.659C69.2798 196.308 69.3518 195.923 69.3748 195.54C69.4038 195.05 69.3558 194.551 69.1918 194.088C69.0158 193.587 68.6938 193.127 68.2478 192.84C68.0248 192.696 67.7728 192.597 67.5088 192.559C67.2438 192.523 66.9718 192.546 66.7228 192.636C66.5808 192.688 66.4438 192.761 66.3238 192.854L66.3218 192.855Z" fill="url(#paint5_radial_1640_1814)"/>
<g opacity="0.3" filter="url(#filter2_f_1640_1814)">
<path d="M61.6551 197.037L60.9091 197.717C60.7781 197.848 60.6461 197.99 60.5871 198.166C60.5351 198.323 60.5441 198.493 60.5191 198.657C60.5101 198.713 60.4971 198.769 60.4961 198.825C60.4961 198.853 60.5001 198.882 60.5081 198.909C60.5161 198.936 60.5301 198.962 60.5501 198.982C60.5821 199.017 60.6271 199.036 60.6731 199.045C60.7201 199.054 60.7681 199.055 60.8141 199.061C61.0261 199.084 61.2211 199.186 61.3961 199.307L61.9121 199.682C62.3091 199.933 62.7821 200.045 63.2521 200.063C63.7221 200.081 64.1911 200.009 64.6521 199.917C65.0181 199.844 65.3841 199.757 65.7311 199.62C66.2631 199.411 66.7421 199.088 67.2011 198.747C67.4091 198.591 67.6151 198.431 67.8011 198.251C67.8651 198.19 67.9261 198.126 67.9941 198.07C68.0621 198.014 68.1381 197.966 68.2211 197.938C68.3501 197.897 68.4881 197.909 68.6211 197.931C68.7211 197.948 68.8211 197.97 68.9221 197.966C68.9721 197.964 69.0231 197.955 69.0701 197.936C69.1181 197.918 69.1611 197.888 69.1931 197.849C69.2351 197.797 69.2571 197.732 69.2571 197.664C69.2571 197.598 69.2371 197.533 69.2031 197.475C69.1351 197.36 69.0191 197.283 68.8981 197.23C68.7311 197.155 68.5511 197.119 68.3741 197.076C67.8291 196.945 67.3001 196.751 66.7991 196.503C66.5491 196.378 66.3071 196.241 66.0621 196.111C65.8101 195.976 65.5531 195.846 65.2791 195.763C64.6661 195.577 63.9971 195.639 63.3931 195.848C62.7221 196.08 62.1151 196.496 61.6551 197.037Z" fill="#1D1D1D"/>
</g>
<path d="M62.9577 196.268C63.2127 195.978 63.3907 195.628 63.6357 195.329C63.7587 195.181 63.9027 195.045 64.0687 194.949C64.2357 194.849 64.4287 194.802 64.6227 194.814C64.8377 194.833 65.0387 194.94 65.1947 195.086C65.3517 195.234 65.4677 195.42 65.5607 195.613C65.6497 195.798 65.7207 195.995 65.8477 196.157C65.9847 196.329 66.1767 196.447 66.3487 196.581C66.4367 196.647 66.5167 196.723 66.5867 196.807C66.6567 196.893 66.7087 196.993 66.7307 197.1C66.7527 197.208 66.7427 197.325 66.7037 197.429C66.6657 197.533 66.5997 197.628 66.5207 197.707C66.3587 197.861 66.1417 197.945 65.9197 197.976C65.4787 198.039 65.0307 197.907 64.5867 197.918C64.1407 197.93 63.6927 198.09 63.2427 198.074C63.0157 198.072 62.7927 198.005 62.6027 197.882C62.5097 197.817 62.4297 197.734 62.3707 197.638C62.3127 197.542 62.2777 197.429 62.2737 197.318C62.2707 197.21 62.2927 197.103 62.3387 197.004C62.3807 196.906 62.4427 196.815 62.5097 196.732C62.6467 196.565 62.8107 196.426 62.9557 196.265L62.9577 196.268Z" fill="url(#paint6_radial_1640_1814)"/>
<g filter="url(#filter3_f_1640_1814)">
<path d="M67.9891 188.284C67.6161 188.547 67.7791 188.875 67.9391 189.204C68.1001 189.533 67.5871 190.481 67.5821 190.522C67.5761 190.563 68.5911 190.041 68.8671 189.703C69.1941 189.302 70.0191 190.244 69.9741 190.101C69.9741 189.844 68.3621 188.021 67.9891 188.284Z" fill="#7C7C7C"/>
</g>
<path d="M67.2511 194.075C67.0991 194.086 66.9511 194.138 66.8231 194.221C66.6931 194.302 66.5831 194.411 66.4971 194.537C66.3241 194.788 66.2491 195.095 66.2361 195.399C66.2271 195.627 66.2521 195.858 66.3291 196.074C66.4041 196.289 66.5321 196.489 66.7081 196.635C66.8881 196.783 67.1171 196.873 67.3511 196.883C67.5851 196.895 67.8221 196.827 68.0131 196.694C68.1661 196.587 68.2901 196.442 68.3781 196.277C68.4661 196.113 68.5191 195.932 68.5431 195.747C68.5851 195.42 68.5371 195.08 68.3861 194.788C68.2361 194.495 67.9791 194.255 67.6711 194.142C67.5371 194.092 67.3931 194.066 67.2511 194.077V194.075Z" fill="#2A2A2A"/>
<g filter="url(#filter4_f_1640_1814)">
<path d="M67.6174 195.069C67.4914 195.118 67.2924 195.087 67.2374 195.211C67.2044 195.284 67.2504 195.405 67.3244 195.435C67.4744 195.495 67.7074 195.385 67.7674 195.235C67.7944 195.17 67.7544 195.067 67.6894 195.039C67.6654 195.029 67.6414 195.06 67.6174 195.069Z" fill="#1D1D1D"/>
</g>
<g filter="url(#filter5_f_1640_1814)">
<path d="M68.1911 195.397C68.3601 195.228 68.0701 194.781 67.8451 194.599C67.6821 194.466 67.2081 194.327 67.2271 194.472C67.2481 194.616 67.4611 194.801 67.6051 194.941C67.7811 195.115 68.1101 195.477 68.1911 195.397Z" fill="url(#paint7_linear_1640_1814)"/>
</g>
<mask id="mask4_1640_1814" style="mask-type:luminance" maskUnits="userSpaceOnUse" x="65" y="192" width="5" height="6">
<path d="M66.3208 192.856C65.9518 193.165 65.5638 193.524 65.4128 193.982C65.2228 194.556 65.1758 195.276 65.4858 195.796C66.0558 196.75 67.2848 197.805 68.3548 197.5C69.0628 197.299 69.2428 196.267 69.3718 195.541C69.4588 195.062 69.4588 194.497 69.1908 194.09C68.6658 193.293 67.6759 192.655 66.7199 192.639C66.5689 192.636 66.4368 192.76 66.3208 192.856Z" fill="white"/>
</mask>
<g mask="url(#mask4_1640_1814)">
<path d="M64.796 194.326C65.144 194.038 65.5451 193.821 65.9761 193.687C66.8611 193.414 67.8661 193.523 68.6471 194.018C68.9171 194.188 69.1581 194.401 69.4091 194.599C69.6601 194.796 69.926 194.982 70.227 195.088C70.39 195.145 70.564 195.178 70.735 195.16C70.891 195.144 71.0411 195.086 71.1701 194.998C71.2981 194.909 71.4061 194.792 71.4871 194.658C71.6481 194.392 71.7 194.068 71.672 193.758C71.616 193.138 71.2661 192.589 70.9721 192.04C70.8801 191.868 70.7921 191.692 70.6811 191.532C70.3401 191.039 69.7981 190.714 69.2311 190.524C68.6621 190.334 68.0611 190.264 67.4661 190.19C67.2011 190.157 66.9331 190.121 66.6671 190.153C66.3631 190.19 66.075 190.313 65.777 190.39C65.636 190.425 65.492 190.451 65.352 190.492C65.212 190.532 65.0741 190.589 64.9601 190.679C64.7941 190.813 64.6892 191.012 64.6432 191.22C64.5982 191.428 64.6091 191.645 64.6421 191.854C64.7081 192.275 64.8661 192.685 64.8511 193.11C64.8411 193.403 64.7491 193.689 64.7601 193.981C64.7631 194.068 64.776 194.152 64.796 194.234" fill="url(#paint8_linear_1640_1814)"/>
</g>
<g filter="url(#filter6_f_1640_1814)">
<path d="M67.724 191.66C67.655 191.747 67.592 191.841 67.543 191.946C67.855 192.013 68.153 192.141 68.419 192.318C68.935 192.659 69.326 193.159 69.6 193.715C69.664 193.645 69.723 193.568 69.773 193.484C69.497 192.905 69.098 192.381 68.564 192.027C68.309 191.857 68.022 191.729 67.724 191.66Z" fill="url(#paint9_linear_1640_1814)"/>
</g>
<g filter="url(#filter7_f_1640_1814)">
<path d="M61.7121 191.943C61.6771 191.943 61.6441 191.946 61.6081 191.948L61.5391 191.951C61.7451 191.97 61.9491 192.025 62.1351 192.109C62.3881 192.222 62.6101 192.384 62.8071 192.568C63.1711 192.907 63.4421 193.328 63.6241 193.773C63.5801 193.437 63.4781 193.11 63.3251 192.807C63.2531 192.724 63.1781 192.643 63.0981 192.568C62.9021 192.384 62.6781 192.222 62.4251 192.109C62.2041 192.009 61.9591 191.948 61.7121 191.943Z" fill="url(#paint10_linear_1640_1814)"/>
</g>
<path d="M61.1184 194.999C61.0634 195.323 61.0624 195.666 61.1744 195.977C61.2504 196.183 61.3674 196.37 61.5184 196.529C61.6154 196.645 61.7265 196.729 61.8665 196.791C61.9955 196.856 62.1425 196.875 62.2835 196.844C62.4125 196.808 62.5255 196.732 62.6065 196.626C62.6875 196.522 62.7455 196.4 62.7845 196.275C62.8995 195.905 62.8815 195.497 62.7665 195.125C62.6835 194.854 62.5434 194.592 62.3254 194.41C62.2214 194.323 62.1005 194.255 61.9695 194.225C61.8385 194.194 61.6945 194.202 61.5725 194.258C61.4355 194.324 61.3264 194.435 61.2594 194.571C61.1904 194.705 61.1555 194.853 61.1295 195L61.1184 194.999Z" fill="#2A2A2A"/>
<g filter="url(#filter8_f_1640_1814)">
<path d="M61.8092 194.76C61.8452 194.853 61.9622 194.886 62.0272 194.96C62.0902 195.033 62.1562 195.107 62.1912 195.196C62.2572 195.367 62.1253 195.62 62.2633 195.741C62.3073 195.779 62.3933 195.779 62.4363 195.741C62.6023 195.589 62.5663 195.284 62.5003 195.069C62.4403 194.874 62.2932 194.689 62.1102 194.597C62.0262 194.554 61.8993 194.519 61.8273 194.579C61.7813 194.618 61.7882 194.704 61.8092 194.76Z" fill="url(#paint11_linear_1640_1814)"/>
</g>
<path d="M60.5078 199.049C60.5168 199.091 60.5328 199.132 60.5548 199.171C60.5938 199.235 60.6498 199.287 60.7118 199.331C60.7718 199.376 60.8378 199.412 60.9018 199.452C61.2408 199.666 61.5168 199.965 61.7628 200.281C62.0928 200.705 62.3838 201.176 62.8228 201.484C63.1338 201.702 63.5058 201.825 63.8828 201.864C64.3258 201.908 64.7758 201.837 65.2028 201.711C65.5988 201.594 65.9818 201.431 66.3338 201.215C67.0018 200.803 67.5598 200.2 68.2948 199.93C68.4558 199.87 68.6238 199.828 68.7778 199.755C68.9328 199.683 69.0788 199.573 69.1528 199.419C69.2258 199.27 69.2218 199.099 69.2448 198.936C69.2698 198.762 69.3258 198.594 69.3558 198.42C69.3858 198.247 69.3898 198.061 69.3148 197.902C69.2528 197.77 69.1408 197.666 69.0098 197.599C68.8798 197.533 68.7338 197.503 68.5878 197.496C68.2968 197.481 68.0088 197.556 67.7188 197.582C67.3328 197.618 66.9448 197.568 66.5588 197.58C66.0778 197.594 65.6048 197.702 65.1248 197.725C64.5758 197.752 64.0298 197.668 63.4808 197.645C63.2438 197.637 63.0048 197.638 62.7708 197.678C62.5358 197.718 62.3058 197.798 62.1098 197.933C61.9208 198.064 61.7688 198.244 61.5928 198.395C61.5058 198.47 61.4118 198.54 61.3078 198.59C61.2038 198.641 61.0888 198.672 60.9728 198.669C60.9148 198.668 60.8518 198.659 60.7958 198.676C60.7608 198.688 60.7288 198.709 60.7028 198.735C60.6758 198.762 60.6538 198.792 60.6328 198.822C60.5838 198.894 60.5428 198.97 60.5078 199.049Z" fill="url(#paint12_radial_1640_1814)"/>
<g filter="url(#filter9_f_1640_1814)">
<path d="M62.6622 199.639C62.6072 199.873 62.6422 200.119 62.7592 200.33C62.8752 200.54 63.0662 200.7 63.2932 200.778C63.5802 200.874 63.9042 200.827 64.1732 200.687C64.3292 200.606 64.4712 200.492 64.5612 200.341C64.6072 200.266 64.6372 200.182 64.6492 200.094C64.6612 200.007 64.6532 199.917 64.6232 199.836C64.5892 199.746 64.5292 199.666 64.4562 199.604C64.3822 199.541 64.2952 199.497 64.2042 199.467C64.0212 199.406 63.8242 199.405 63.6322 199.414C63.3412 199.428 63.0512 199.465 62.7652 199.524" fill="#D9B30D"/>
</g>
<g filter="url(#filter10_f_1640_1814)">
<path d="M61.7176 197.836L61.1516 198.209C61.0556 198.276 60.9576 198.349 60.9076 198.455C60.8716 198.53 60.8636 198.614 60.8636 198.697C60.8646 198.779 60.8676 198.863 60.8576 198.944C60.8506 199 60.8356 199.055 60.8326 199.112C60.8306 199.139 60.8336 199.168 60.8406 199.195C60.8476 199.223 60.8606 199.249 60.8806 199.269C60.9056 199.296 60.9396 199.313 60.9746 199.323C61.0096 199.334 61.0456 199.339 61.0816 199.348C61.2526 199.388 61.4006 199.492 61.5306 199.61L61.9146 199.969C62.2836 200.268 62.7726 200.393 63.2456 200.401C63.7196 200.408 64.1906 200.309 64.6546 200.204L65.7326 199.908C66.2716 199.71 66.7706 199.41 67.2036 199.034C67.3996 198.864 67.5836 198.676 67.8036 198.539C67.9986 198.416 68.2166 198.335 68.4156 198.219C68.4326 198.208 68.4506 198.197 68.4656 198.184C68.4816 198.171 68.4966 198.156 68.5056 198.137C68.5216 198.105 68.5216 198.068 68.5116 198.033C68.5016 197.999 68.4806 197.969 68.4586 197.941C68.4346 197.911 68.4066 197.883 68.3756 197.857C68.1696 197.68 67.8886 197.616 67.6166 197.595C67.3456 197.573 67.0706 197.588 66.8036 197.543C66.5496 197.5 66.3106 197.407 66.0656 197.329C65.8106 197.246 65.5486 197.183 65.2826 197.139C64.6586 197.037 64.0166 197.057 63.3976 197.186C62.8076 197.309 62.2396 197.53 61.7206 197.836H61.7176Z" fill="#604405"/>
</g>
<path d="M61.657 197.18C61.377 197.368 61.1241 197.597 60.9101 197.86C60.7881 198.009 60.6771 198.172 60.6161 198.355C60.5681 198.499 60.5511 198.651 60.5211 198.799C60.5091 198.855 60.4961 198.911 60.4961 198.968C60.4961 198.996 60.5001 199.025 60.5081 199.052C60.5171 199.079 60.5311 199.105 60.5511 199.125C60.5841 199.159 60.63 199.177 60.675 199.187C60.722 199.196 60.77 199.197 60.816 199.204C61.028 199.227 61.2221 199.33 61.3971 199.45L61.9141 199.824C62.3111 200.075 62.7841 200.187 63.2541 200.205C63.7241 200.223 64.1931 200.152 64.6541 200.059C65.0201 199.987 65.3861 199.9 65.7331 199.763C66.2651 199.554 66.7441 199.231 67.2031 198.889C67.4111 198.734 67.617 198.574 67.803 198.394C67.867 198.332 67.9281 198.269 67.9961 198.213C68.0641 198.157 68.1401 198.108 68.2231 198.081C68.3521 198.04 68.49 198.052 68.623 198.074C68.723 198.091 68.823 198.113 68.924 198.109C68.974 198.107 69.0251 198.098 69.0721 198.079C69.1201 198.061 69.163 198.031 69.195 197.992C69.237 197.94 69.2591 197.875 69.2591 197.807C69.2591 197.741 69.239 197.675 69.205 197.618C69.137 197.503 69.0211 197.426 68.9001 197.372C68.7331 197.298 68.553 197.261 68.376 197.219C67.831 197.087 67.3021 196.894 66.8011 196.645C66.5511 196.521 66.3091 196.384 66.0641 196.253C65.8121 196.118 65.5551 195.989 65.2811 195.905C64.6681 195.72 63.9991 195.781 63.3951 195.991C62.7241 196.223 62.117 196.639 61.657 197.18Z" fill="url(#paint13_linear_1640_1814)"/>
<g filter="url(#filter11_f_1640_1814)">
<path d="M65.957 197.315C65.924 197.273 65.8761 197.243 65.8261 197.229C65.7751 197.214 65.721 197.214 65.668 197.222C65.564 197.24 65.4701 197.294 65.3821 197.356C65.1341 197.527 64.915 197.738 64.724 197.97C64.47 198.278 64.26 198.634 64.19 199.026C64.179 199.092 64.171 199.16 64.179 199.226C64.187 199.294 64.213 199.36 64.26 199.407C64.302 199.448 64.359 199.474 64.416 199.483C64.475 199.491 64.536 199.483 64.591 199.464C64.703 199.426 64.796 199.348 64.884 199.27C65.369 198.837 65.807 198.316 65.983 197.69C66 197.628 66.015 197.563 66.014 197.498C66.014 197.433 65.997 197.365 65.957 197.315Z" fill="#F6DA4A"/>
</g>
<g opacity="0.8" filter="url(#filter12_f_1640_1814)">
<path d="M64.795 196.418C64.828 196.525 65.0019 196.508 65.1029 196.559C65.1909 196.604 65.2619 196.704 65.3609 196.707C65.4549 196.709 65.603 196.674 65.615 196.58C65.631 196.457 65.451 196.378 65.334 196.332C65.184 196.275 64.992 196.244 64.852 196.323C64.819 196.34 64.784 196.382 64.795 196.418Z" fill="url(#paint14_radial_1640_1814)"/>
</g>
<g opacity="0.8" filter="url(#filter13_f_1640_1814)">
<path d="M63.1383 196.355C63.0093 196.313 62.7953 196.54 62.8653 196.657C62.8843 196.689 62.9423 196.729 62.9823 196.708C63.0423 196.675 63.0903 196.558 63.1553 196.512C63.1983 196.482 63.1883 196.372 63.1383 196.355Z" fill="url(#paint15_radial_1640_1814)"/>
</g>
<g filter="url(#filter14_f_1640_1814)">
<path d="M68.8269 198.569C69.0569 198.569 69.2679 198.34 69.2999 198.056C69.3319 197.773 69.1709 197.543 68.9419 197.543C68.7129 197.543 68.5009 197.773 68.4689 198.056C68.4369 198.34 68.5969 198.569 68.8269 198.569Z" fill="url(#paint16_linear_1640_1814)"/>
</g>
<mask id="mask5_1640_1814" style="mask-type:luminance" maskUnits="userSpaceOnUse" x="60" y="192" width="4" height="6">
<path d="M61.7432 192.857C61.1922 193.553 60.5052 194.553 60.5532 195.36C60.6002 196.167 61.1142 197.382 61.7702 197.683C62.4262 197.982 62.6062 197.685 62.9802 197.319C63.3552 196.955 63.5412 196.254 63.5622 195.542C63.5842 194.831 63.1222 193.812 62.7722 193.329C62.4222 192.845 62.2942 192.162 61.7432 192.857Z" fill="white"/>
</mask>
<g mask="url(#mask5_1640_1814)">
<path d="M61.1859 193.896C61.5759 193.664 62.0509 193.61 62.5039 193.653C62.9559 193.695 63.3929 193.828 63.8319 193.948C64.1529 194.035 64.4779 194.116 64.7799 194.258C65.0809 194.4 65.3609 194.608 65.5269 194.897L65.6059 195.036C65.6329 195.082 65.6669 195.125 65.7099 195.156C65.7519 195.188 65.8049 195.21 65.8579 195.207C65.8849 195.205 65.9119 195.198 65.9339 195.185C65.9569 195.171 65.9769 195.151 65.9889 195.128C66.0029 195.1 66.0079 195.069 66.0059 195.038C66.0029 195.007 65.9979 194.977 65.9889 194.947C65.8799 194.548 65.6209 194.21 65.4239 193.844L65.0899 193.178C64.6809 192.429 64.0079 191.84 63.2449 191.459C62.4809 191.077 61.6279 190.893 60.7749 190.843C59.7869 190.785 58.7959 190.903 57.8209 191.074C57.3979 191.149 56.9689 191.236 56.5959 191.446C56.4089 191.551 56.2369 191.686 56.1029 191.854C55.9689 192.021 55.8739 192.222 55.8439 192.434C55.8129 192.638 55.8449 192.849 55.9159 193.043C55.9869 193.237 56.0989 193.413 56.2299 193.574C56.4909 193.894 56.8249 194.145 57.1329 194.42C57.4419 194.695 57.7289 194.999 58.0729 195.227C58.2449 195.341 58.4319 195.435 58.6309 195.491C58.8299 195.547 59.0419 195.563 59.2449 195.521C59.4549 195.478 59.6489 195.375 59.8199 195.244C59.9899 195.115 60.1359 194.957 60.2769 194.796C60.5559 194.471 60.8169 194.115 61.1859 193.896Z" fill="url(#paint17_radial_1640_1814)"/>
</g>
<path d="M74.9456 207.815C75.8296 208.525 76.3916 209.6 76.5646 210.719C76.7006 211.592 76.6116 212.489 76.4146 213.349C76.2166 214.208 75.9136 215.043 75.6106 215.874C75.4896 216.205 75.3686 216.54 75.3206 216.889C75.2716 217.238 75.3026 217.608 75.4706 217.918C75.6646 218.272 76.0256 218.517 76.4136 218.632C76.7996 218.743 77.2076 218.748 77.5976 218.648C77.9846 218.552 78.3466 218.363 78.6626 218.118C79.4626 217.496 79.9476 216.531 80.1356 215.535C80.3236 214.539 80.2366 213.51 80.0616 212.51C79.8246 211.15 79.4246 209.818 78.9176 208.533C78.5436 207.588 78.1046 206.659 77.4956 205.845C76.8966 205.051 76.1426 204.381 75.5586 203.577C75.1526 203.019 74.8246 202.395 74.3366 201.904C74.0966 201.654 73.8056 201.456 73.4856 201.325C73.1626 201.193 72.8056 201.169 72.4676 201.256C72.0296 201.38 71.6696 201.726 71.4796 202.139C71.2896 202.553 71.2556 203.028 71.3286 203.478C71.4246 204.057 71.6876 204.596 71.9896 205.101C72.3266 205.673 72.7206 206.223 73.2316 206.649C73.7646 207.092 74.4086 207.384 74.9476 207.807L74.9456 207.815Z" fill="#2A2A2A"/>
<mask id="mask6_1640_1814" style="mask-type:luminance" maskUnits="userSpaceOnUse" x="71" y="201" width="10" height="18">
<path d="M74.9441 207.817C75.8341 208.531 76.3901 209.605 76.5621 210.72C76.8321 212.466 76.2151 214.214 75.6081 215.876C75.4871 216.208 75.3661 216.544 75.3181 216.892C75.2701 217.239 75.3011 217.61 75.4711 217.92C75.6631 218.272 76.0221 218.518 76.4121 218.634C76.7961 218.748 77.2101 218.745 77.5981 218.647C77.9851 218.55 78.3471 218.362 78.6611 218.119C79.4711 217.495 79.9561 216.525 80.1411 215.53C80.3241 214.535 80.2351 213.508 80.0591 212.512C79.8181 211.152 79.4221 209.821 78.9141 208.534C78.5411 207.59 78.1051 206.66 77.4911 205.846C76.8931 205.052 76.1361 204.38 75.5531 203.578C75.1481 203.02 74.8281 202.397 74.3411 201.908C74.0971 201.662 73.8121 201.453 73.4881 201.326C73.1631 201.201 72.7971 201.164 72.4621 201.257C72.2391 201.318 72.0341 201.437 71.8651 201.59C71.6951 201.745 71.5611 201.935 71.4661 202.142C71.2771 202.557 71.2481 203.029 71.3241 203.477C71.4221 204.055 71.6851 204.594 71.9841 205.101C72.3201 205.672 72.7121 206.222 73.2241 206.648C73.7571 207.089 74.4021 207.384 74.9421 207.817" fill="white"/>
</mask>
<g mask="url(#mask6_1640_1814)">
<g filter="url(#filter15_f_1640_1814)">
<path d="M72.8633 206.447L73.0853 206.646C73.6273 207.09 73.9163 207.587 74.4663 208.022C75.3663 208.732 76.2793 209.958 76.4563 211.078C76.5943 211.951 76.4123 212.426 76.1893 213.456C75.9673 214.486 75.3363 215.945 74.9953 216.939C74.8593 217.334 75.2703 217.17 75.2163 217.588C75.1893 217.794 75.1873 218.001 75.2113 218.207L75.2213 218.087C75.2873 217.518 75.4623 216.971 75.6523 216.434C76.0183 215.4 76.4383 214.387 76.7283 213.326C77.0173 212.266 76.9853 211.504 76.8343 210.592C76.6443 209.446 75.9773 208.388 75.0323 207.69C74.3633 207.196 73.5753 206.879 72.8633 206.447Z" fill="#838384"/>
</g>
</g>
<g opacity="0.25" filter="url(#filter16_f_1640_1814)">
<path d="M59.0793 205.807C59.2263 206.028 58.9863 206.791 62.4263 206.302C62.4263 206.302 61.8223 206.368 61.2273 206.506C60.3013 206.816 59.4943 207.161 58.8723 207.62C58.2563 208.073 57.8043 208.664 57.2383 209.173C57.2383 209.173 58.1553 207.501 58.3833 206.997C58.6113 206.494 58.3453 206.519 58.5253 205.776C58.7063 205.034 59.1483 204.324 59.1483 204.324C59.1483 204.324 58.7873 205.37 59.0793 205.807Z" fill="url(#paint18_radial_1640_1814)"/>
</g>
<g opacity="0.42" filter="url(#filter17_f_1640_1814)">
<path d="M70.1423 205.606C69.4413 206.094 69.0303 206.036 68.1803 206.131C67.3293 206.226 65.0273 206.193 65.0273 206.193C65.0273 206.193 65.3603 206.187 66.0993 206.323C66.8383 206.461 68.3443 206.593 69.1923 206.915C70.0413 207.238 70.3503 207.329 70.8663 207.655C71.5993 208.119 72.1393 208.845 72.8403 209.352C72.8403 209.352 72.8753 208.679 72.5913 208.176C72.3083 207.672 71.5453 206.879 71.3223 206.138C71.0993 205.397 70.9923 203.941 70.9923 203.941C70.9923 203.941 70.8433 205.118 70.1423 205.606Z" fill="url(#paint19_radial_1640_1814)"/>
</g>
<g opacity="0.2" filter="url(#filter18_f_1640_1814)">
<path d="M63.5488 204.564L63.4468 205.195C63.4268 205.298 63.4048 205.401 63.3648 205.499C63.3268 205.596 63.2718 205.69 63.1938 205.76C63.1258 205.821 63.0418 205.863 62.9588 205.902C62.6318 206.051 62.2818 206.15 61.9258 206.194L62.3528 206.234C62.4418 206.243 62.5318 206.254 62.6188 206.277C62.7058 206.299 62.7908 206.335 62.8628 206.386C62.9438 206.444 63.0058 206.524 63.0518 206.61C63.1458 206.784 63.1768 206.983 63.1938 207.177C63.2158 207.426 63.2178 207.679 63.1988 207.929C63.2148 207.761 63.2508 207.596 63.3028 207.436C63.3978 207.147 63.5498 206.877 63.7568 206.654C63.8378 206.566 63.9278 206.484 64.0268 206.415C64.3328 206.202 64.7078 206.111 65.0778 206.16C64.7028 206.175 64.3338 206.06 64.0328 205.835C63.8808 205.722 63.7498 205.579 63.6578 205.414C63.5158 205.154 63.4768 204.852 63.5488 204.564Z" fill="url(#paint20_radial_1640_1814)"/>
</g>
<g opacity="0.1" filter="url(#filter19_f_1640_1814)">
<path d="M62.6512 209.506C62.4722 210.185 62.3491 210.878 62.2841 211.578C62.1911 212.566 62.2142 213.561 62.1602 214.553C62.1172 215.395 62.0161 216.245 62.1621 217.075C62.2321 217.47 62.3581 217.856 62.5341 218.218C62.5621 218.079 62.5822 217.941 62.5952 217.8C62.6572 217.127 62.5442 216.453 62.5062 215.778C62.4382 214.595 62.6022 213.412 62.6682 212.231C62.7202 211.323 62.7142 210.413 62.6512 209.506Z" fill="#1D1D1D"/>
</g>
<g filter="url(#filter20_f_1640_1814)">
<path d="M70.817 199.312C70.503 199.598 70.965 200.028 71.184 200.533C71.319 200.846 71.6969 201.288 72.0609 201.218C72.3339 201.164 72.504 200.77 72.478 200.493C72.429 199.958 71.976 199.832 71.648 199.648C71.387 199.502 71.038 199.111 70.817 199.312Z" fill="#838384"/>
</g>
<mask id="mask7_1640_1814" style="mask-type:luminance" maskUnits="userSpaceOnUse" x="71" y="216" width="13" height="14">
<path d="M83.7934 223.259C83.9254 223.491 83.5654 223.751 83.3834 223.947C82.9854 224.378 82.4464 224.658 81.9464 224.965C81.0864 225.493 80.1124 225.822 79.2694 226.376C78.7054 226.746 78.2043 227.206 77.6923 227.644C77.2523 228.019 76.8954 228.497 76.4084 228.807C75.9224 229.118 75.3844 229.411 74.8114 229.483C74.1164 229.57 73.3774 229.446 72.7334 229.168C72.2844 228.975 71.8383 228.678 71.5763 228.264C71.3133 227.848 71.2774 227.316 71.2514 226.825C71.2074 225.945 71.4503 225.074 71.5683 224.202C71.6673 223.476 71.8384 222.758 71.8974 222.029C72.0044 220.702 71.7843 219.357 71.9433 218.035C71.9953 217.609 71.9173 217.069 72.2363 216.781C72.5323 216.514 73.0244 216.618 73.4244 216.626C73.9104 216.637 74.3873 216.764 74.8613 216.876C75.1603 216.946 75.4423 217.081 75.7443 217.138C76.2433 217.234 76.7553 217.293 77.2643 217.277C77.8143 217.258 78.3453 217.016 78.8953 217.02C79.1213 217.023 79.3494 217.061 79.5614 217.137C79.7774 217.213 79.9954 217.312 80.1604 217.47C80.2864 217.59 80.3684 217.753 80.4334 217.915C80.5314 218.156 80.5634 218.42 80.6034 218.677C80.6384 218.905 80.5814 219.152 80.6644 219.368C80.9294 220.064 81.4744 220.634 82.0044 221.159C82.2574 221.44 82.5894 221.672 82.9004 221.86C83.2294 222.06 83.5353 222.215 83.6943 222.559C83.7903 222.774 83.6154 223.103 83.7934 223.259Z" fill="white"/>
</mask>
<g mask="url(#mask7_1640_1814)">
<path d="M83.7948 223.259C83.6978 223.509 83.5588 223.743 83.3858 223.947C83.0048 224.4 82.4759 224.698 81.9479 224.966C81.0489 225.424 80.1178 225.825 79.2718 226.376C78.7048 226.745 78.1829 227.178 77.6929 227.645C77.2759 228.044 76.8788 228.47 76.4098 228.808C75.9378 229.149 75.3899 229.397 74.8139 229.484C74.1119 229.589 73.3859 229.453 72.7359 229.169C72.2799 228.971 71.8418 228.687 71.5788 228.265C71.3158 227.842 71.2549 227.324 71.2539 226.825C71.2529 225.943 71.4168 225.069 71.5708 224.202C71.6978 223.481 71.8208 222.757 71.8988 222.029C72.0418 220.704 72.0408 219.366 71.9458 218.036C71.9318 217.814 71.9108 217.589 71.9448 217.368C71.9778 217.147 72.0688 216.928 72.2388 216.782C72.3938 216.647 72.6038 216.588 72.8108 216.577C73.0168 216.565 73.2228 216.598 73.4268 216.627C73.9078 216.697 74.3928 216.753 74.8638 216.877C75.1608 216.954 75.4498 217.059 75.7458 217.139C76.2398 217.273 76.7579 217.337 77.2669 217.278C77.8149 217.214 78.3468 217.009 78.8978 217.022C79.1238 217.027 79.3479 217.07 79.5639 217.137C79.7839 217.207 80.0009 217.306 80.1629 217.471C80.2859 217.595 80.3718 217.752 80.4358 217.916C80.5318 218.159 80.5838 218.418 80.6058 218.678C80.6258 218.909 80.6218 219.142 80.6658 219.369C80.7378 219.742 80.9338 220.083 81.1778 220.375C81.4228 220.667 81.7168 220.915 82.0058 221.16C82.2968 221.404 82.5888 221.647 82.9018 221.86C83.0498 221.961 83.2008 222.055 83.3408 222.165C83.4798 222.276 83.6088 222.404 83.6958 222.559C83.8138 222.77 83.8508 223.025 83.7948 223.259Z" fill="url(#paint21_linear_1640_1814)"/>
</g>
<mask id="mask8_1640_1814" style="mask-type:luminance" maskUnits="userSpaceOnUse" x="71" y="216" width="13" height="14">
<path d="M83.7934 223.259C83.9254 223.491 83.5654 223.751 83.3834 223.947C82.9854 224.378 82.4464 224.658 81.9464 224.965C81.0864 225.493 80.1124 225.822 79.2694 226.376C78.7054 226.746 78.2043 227.206 77.6923 227.644C77.2523 228.019 76.8954 228.497 76.4084 228.807C75.9224 229.118 75.3844 229.411 74.8114 229.483C74.1164 229.57 73.3774 229.446 72.7334 229.168C72.2844 228.975 71.8383 228.678 71.5763 228.264C71.3133 227.848 71.2774 227.316 71.2514 226.825C71.2074 225.945 71.4503 225.074 71.5683 224.202C71.6673 223.476 71.8384 222.758 71.8974 222.029C72.0044 220.702 71.7843 219.357 71.9433 218.035C71.9953 217.609 71.9173 217.069 72.2363 216.781C72.5323 216.514 73.0244 216.618 73.4244 216.626C73.9104 216.637 74.3873 216.764 74.8613 216.876C75.1603 216.946 75.4423 217.081 75.7443 217.138C76.2433 217.234 76.7553 217.293 77.2643 217.277C77.8143 217.258 78.3453 217.016 78.8953 217.02C79.1213 217.023 79.3494 217.061 79.5614 217.137C79.7774 217.213 79.9954 217.312 80.1604 217.47C80.2864 217.59 80.3684 217.753 80.4334 217.915C80.5314 218.156 80.5634 218.42 80.6034 218.677C80.6384 218.905 80.5814 219.152 80.6644 219.368C80.9294 220.064 81.4744 220.634 82.0044 221.159C82.2574 221.44 82.5894 221.672 82.9004 221.86C83.2294 222.06 83.5353 222.215 83.6943 222.559C83.7903 222.774 83.6154 223.103 83.7934 223.259Z" fill="white"/>
</mask>
<g mask="url(#mask8_1640_1814)">
<g filter="url(#filter21_f_1640_1814)">
<path d="M83.3397 222.802C83.2497 223.027 83.1227 223.236 82.9657 223.42C82.6167 223.828 82.1327 224.095 81.6517 224.336C80.8307 224.747 79.9807 225.107 79.2087 225.603C78.6927 225.935 78.2147 226.324 77.7667 226.744C77.3847 227.103 77.0227 227.487 76.5947 227.79C76.1627 228.097 75.6627 228.32 75.1367 228.397C74.4967 228.491 73.8357 228.368 73.2397 228.114C72.8247 227.936 72.4227 227.683 72.1827 227.302C71.9437 226.921 71.8877 226.456 71.8867 226.007C71.8847 225.213 72.0337 224.429 72.1757 223.649C72.2927 223 72.4047 222.35 72.4757 221.695C72.6047 220.503 72.5987 219.301 72.5187 218.105C72.5037 217.905 72.4887 217.703 72.5197 217.505C72.5507 217.306 72.6327 217.109 72.7847 216.978C72.9277 216.855 73.1197 216.801 73.3087 216.791C73.4967 216.781 73.6837 216.811 73.8697 216.839C74.3097 216.904 74.7527 216.952 75.1827 217.063C75.4527 217.133 75.7177 217.227 75.9877 217.299C76.4397 217.419 76.9127 217.477 77.3767 217.424C77.8767 217.366 78.3627 217.181 78.8667 217.193C79.0727 217.198 79.2777 217.236 79.4757 217.298C79.6767 217.36 79.8747 217.448 80.0227 217.597C80.1337 217.709 80.2107 217.851 80.2717 217.998C80.3627 218.215 80.4217 218.447 80.4267 218.682C80.4317 218.928 80.3777 219.176 80.4117 219.419C80.4377 219.616 80.5217 219.803 80.6297 219.972C80.7367 220.14 80.8667 220.292 80.9957 220.445C81.2457 220.739 81.4957 221.039 81.8087 221.265C82.1647 221.523 82.5877 221.673 82.9557 221.914C83.0647 221.985 83.1717 222.066 83.2487 222.172C83.3137 222.262 83.3557 222.366 83.3717 222.476C83.3877 222.585 83.3757 222.697 83.3397 222.802Z" fill="#CD8907"/>
</g>
</g>
<mask id="mask9_1640_1814" style="mask-type:luminance" maskUnits="userSpaceOnUse" x="71" y="216" width="13" height="14">
<path d="M83.7913 223.261C83.9233 223.493 83.5634 223.752 83.3824 223.948C82.9834 224.38 82.4453 224.66 81.9443 224.967C81.0843 225.494 80.1104 225.826 79.2674 226.377C78.7034 226.747 78.2034 227.208 77.6904 227.646C77.2504 228.021 76.8934 228.498 76.4064 228.809C75.9194 229.119 75.3824 229.412 74.8094 229.484C74.1144 229.571 73.3744 229.447 72.7334 229.17C72.2834 228.976 71.8364 228.68 71.5764 228.266C71.3134 227.85 71.2764 227.317 71.2514 226.826C71.2074 225.946 71.4503 225.075 71.5683 224.203C71.6673 223.477 71.8374 222.76 71.8964 222.03C72.0044 220.703 71.7833 219.359 71.9433 218.037C71.9923 217.61 71.9173 217.07 72.2353 216.783C72.5323 216.515 73.0244 216.621 73.4234 216.628C73.9104 216.639 74.3873 216.766 74.8613 216.877C75.1603 216.947 75.4424 217.083 75.7434 217.14C76.2414 217.236 76.7553 217.295 77.2643 217.278C77.8143 217.26 78.3444 217.018 78.8944 217.022C79.1204 217.024 79.3484 217.064 79.5614 217.139C79.7764 217.215 79.9954 217.314 80.1604 217.472C80.2864 217.592 80.3684 217.755 80.4334 217.919C80.5314 218.16 80.5634 218.424 80.6034 218.681C80.6384 218.909 80.5814 219.155 80.6634 219.371C80.9294 220.068 81.4734 220.638 82.0034 221.162C82.2564 221.443 82.5884 221.675 82.8994 221.863C83.2294 222.062 83.5333 222.219 83.6933 222.562C83.7893 222.778 83.6143 223.108 83.7923 223.262L83.7913 223.261Z" fill="white"/>
</mask>
<g mask="url(#mask9_1640_1814)">
<g filter="url(#filter22_f_1640_1814)">
<path d="M83.2876 222.548C83.1876 222.774 83.0576 222.985 82.9036 223.173C82.5456 223.606 82.0626 223.906 81.5546 224.097C80.7176 224.413 79.8036 224.456 78.9816 224.815C78.4806 225.035 78.0296 225.365 77.5736 225.677C77.2046 225.93 76.8266 226.173 76.4216 226.349C75.9646 226.548 75.4776 226.66 74.9896 226.739C74.6786 226.789 74.3646 226.826 74.0506 226.809C73.7376 226.791 73.4226 226.717 73.1456 226.558C72.9356 226.436 72.7465 226.262 72.6345 226.036C72.5095 225.785 72.4886 225.49 72.4916 225.204C72.4996 224.445 72.6625 223.694 72.6565 222.934C72.6525 222.274 72.5215 221.621 72.4845 220.961C72.4115 219.693 72.6836 218.402 72.4446 217.157C72.4056 216.958 72.3545 216.759 72.3555 216.556C72.3575 216.453 72.3726 216.351 72.4086 216.257C72.4446 216.163 72.5015 216.077 72.5795 216.018C72.6435 215.968 72.7195 215.937 72.7985 215.924C72.8775 215.909 72.9575 215.912 73.0365 215.924C73.1945 215.949 73.3435 216.011 73.4975 216.057C73.9365 216.188 74.3996 216.184 74.8446 216.283C75.1256 216.345 75.3955 216.445 75.6735 216.522C76.1375 216.646 76.6226 216.702 77.0996 216.646C77.6136 216.587 78.1146 216.401 78.6296 216.414C78.8416 216.42 79.0515 216.459 79.2555 216.52C79.4585 216.58 79.6626 216.667 79.8176 216.822C79.9286 216.934 80.0086 217.077 80.0736 217.226C80.1686 217.443 80.2346 217.678 80.2326 217.918C80.2316 218.042 80.2126 218.166 80.2016 218.29C80.1906 218.413 80.1865 218.541 80.2165 218.661C80.2455 218.782 80.3076 218.891 80.3796 218.99C80.4516 219.089 80.5315 219.18 80.6055 219.277C80.8115 219.548 80.9586 219.865 81.1196 220.169C81.2796 220.474 81.4605 220.776 81.7135 220.995C82.0595 221.295 82.5076 221.414 82.8926 221.65C83.0056 221.719 83.1146 221.8 83.1936 221.911C83.2566 222 83.2985 222.105 83.3155 222.216C83.3315 222.327 83.3216 222.442 83.2876 222.548Z" fill="#F5C021"/>
</g>
</g>
<g filter="url(#filter23_f_1640_1814)">
<path d="M72.3595 217.278C72.8355 217.149 73.2405 217.51 73.5865 217.782C73.8095 217.972 74.1315 217.924 74.4045 217.933C74.8585 217.917 75.3095 218.008 75.7635 217.952C76.6565 217.877 77.5305 217.658 78.4285 217.619C78.8565 217.592 79.3385 217.567 79.7085 217.817C79.8575 217.92 80.0785 218.36 80.2265 218.195C80.1645 217.734 79.8235 217.287 79.3635 217.164C79.0035 217.108 78.6365 217.207 78.2745 217.175C77.1965 217.149 76.1255 216.949 75.0445 217.006C74.2925 217.013 73.5405 216.977 72.7895 216.948C72.4955 216.889 72.3905 217.15 72.2305 217.25" fill="url(#paint22_linear_1640_1814)"/>
</g>
<g opacity="0.75" filter="url(#filter24_f_1640_1814)">
<path d="M74.4919 208.508C74.6639 208.482 75.7299 209.386 75.5839 209.724C75.4389 210.062 75.1649 209.857 74.9689 209.86C74.7739 209.862 74.2379 210.104 74.1479 209.951C74.0589 209.798 74.3849 209.44 74.5559 209.141C74.6939 208.9 74.3189 208.537 74.4919 208.51V208.508Z" fill="#7C7C7C"/>
</g>
<g opacity="0.25" filter="url(#filter25_f_1640_1814)">
<path d="M59.4664 202.819C59.4494 202.61 59.1514 202.579 59.0184 202.683C58.9064 202.771 58.8004 203.07 58.8974 203.188C59.0554 203.378 59.4904 203.104 59.4664 202.819Z" fill="#7C7C7C"/>
</g>
<g opacity="0.35" filter="url(#filter26_f_1640_1814)">
<path d="M78.7788 218.004C78.6968 217.844 78.5488 217.725 78.3828 217.655C78.2168 217.586 78.0338 217.564 77.8548 217.565C77.4948 217.568 77.1368 217.662 76.7798 217.63C76.4768 217.604 76.1898 217.491 75.8928 217.419C75.5888 217.346 75.2648 217.318 74.9628 217.398C74.6388 217.486 74.3538 217.702 74.1748 217.985C74.0168 218.235 73.9428 218.53 73.9198 218.824C73.8958 219.118 73.9208 219.414 73.9508 219.708C73.9728 219.92 73.9968 220.133 74.0478 220.34C74.0988 220.548 74.1788 220.75 74.3048 220.923C74.4848 221.172 74.7518 221.35 75.0418 221.457C75.5188 221.631 76.0428 221.621 76.5138 221.431C77.3358 221.075 78.0318 220.435 78.4558 219.646C78.6078 219.364 78.7258 219.062 78.8018 218.751C78.8328 218.628 78.8568 218.501 78.8578 218.373C78.8578 218.246 78.8368 218.117 78.7788 218.004Z" fill="url(#paint23_radial_1640_1814)"/>
</g>
<g opacity="0.35" filter="url(#filter27_f_1640_1814)">
<path d="M78.7788 217.836C78.6968 217.721 78.5488 217.634 78.3828 217.585C78.2168 217.534 78.0338 217.518 77.8548 217.519C77.4948 217.521 77.1368 217.589 76.7798 217.566C76.4768 217.547 76.1898 217.465 75.8928 217.413C75.5888 217.361 75.2648 217.34 74.9628 217.399C74.6388 217.462 74.3538 217.618 74.1748 217.823C74.0168 218.003 73.9428 218.216 73.9198 218.429C73.8958 218.642 73.9208 218.856 73.9508 219.068C73.9728 219.222 73.9968 219.375 74.0478 219.526C74.0988 219.676 74.1788 219.822 74.3048 219.947C74.4848 220.126 74.7518 220.255 75.0418 220.333C75.5188 220.458 76.0428 220.452 76.5138 220.314C77.3358 220.056 78.0318 219.593 78.4558 219.023C78.6078 218.819 78.7258 218.601 78.8018 218.376C78.8328 218.287 78.8568 218.196 78.8578 218.104C78.8578 218.012 78.8368 217.918 78.7788 217.836Z" fill="url(#paint24_radial_1640_1814)"/>
</g>
<path d="M79.4628 216.507C79.4038 216.346 79.3008 216.205 79.1738 216.09C79.0468 215.975 78.8968 215.888 78.7408 215.821C78.4258 215.687 78.0838 215.638 77.7478 215.575L76.7988 215.39C76.4698 215.334 76.1278 215.298 75.8018 215.372C75.5158 215.436 75.2518 215.583 75.0348 215.781C74.8188 215.978 74.6508 216.224 74.5288 216.492C74.3148 216.961 74.2478 217.488 74.2888 218.002C74.3198 218.384 74.4158 218.778 74.6678 219.067C74.8718 219.3 75.1608 219.446 75.4578 219.534C75.9698 219.685 76.5288 219.677 77.0358 219.512C77.8788 219.226 78.6098 218.678 79.1178 217.948C79.2838 217.708 79.4248 217.447 79.4888 217.164C79.5378 216.946 79.5388 216.716 79.4628 216.507Z" fill="#2A2A2A"/>
<mask id="mask10_1640_1814" style="mask-type:luminance" maskUnits="userSpaceOnUse" x="74" y="215" width="6" height="5">
<path d="M79.4594 216.507C79.4004 216.346 79.2964 216.205 79.1704 216.09C79.0424 215.975 78.8934 215.888 78.7364 215.821C78.4214 215.687 78.0794 215.638 77.7434 215.575L76.7944 215.39C76.4654 215.334 76.1234 215.298 75.7974 215.372C75.5114 215.436 75.2474 215.583 75.0314 215.781C74.8154 215.978 74.6464 216.224 74.5244 216.492C74.3114 216.961 74.2444 217.488 74.2844 218.002C74.3154 218.384 74.4114 218.778 74.6644 219.067C74.8674 219.3 75.1564 219.446 75.4534 219.534C75.9654 219.685 76.5244 219.677 77.0314 219.512C77.8764 219.226 78.6054 218.678 79.1134 217.948C79.2794 217.708 79.4204 217.447 79.4854 217.164C79.5334 216.946 79.5354 216.716 79.4594 216.507Z" fill="white"/>
</mask>
<g mask="url(#mask10_1640_1814)">
<g filter="url(#filter28_f_1640_1814)">
<path d="M75.9782 215.219C75.8982 215.223 75.8192 215.232 75.7412 215.246C75.2372 215.335 74.7752 215.654 74.5152 216.094C74.3312 216.408 74.2482 216.77 74.2742 217.132C74.2852 216.88 74.3522 216.633 74.4752 216.411C74.6832 216.036 75.0602 215.754 75.4832 215.676C75.7442 215.629 76.0102 215.658 76.2732 215.691C76.5252 215.722 76.7782 215.755 77.0272 215.808C77.4102 215.891 77.7902 216.019 78.1112 216.243C78.1872 216.296 78.2572 216.355 78.3162 216.425C78.3752 216.495 78.4212 216.576 78.4392 216.666C78.4652 216.796 78.4272 216.934 78.3622 217.05C78.2972 217.168 78.2072 217.269 78.1112 217.363C78.0352 217.44 77.9532 217.513 77.8712 217.585C78.2432 217.513 78.6202 217.412 78.9292 217.196C79.0602 217.105 79.1782 216.994 79.2562 216.856C79.3332 216.716 79.3662 216.548 79.3292 216.393C79.3032 216.289 79.2462 216.193 79.1742 216.112C79.1032 216.032 79.0172 215.965 78.9292 215.904C78.5402 215.631 78.0842 215.457 77.6122 215.4C77.3112 215.344 77.0052 215.298 76.7002 215.259C76.4622 215.229 76.2182 215.205 75.9782 215.219Z" fill="url(#paint25_radial_1640_1814)"/>
</g>
</g>
<mask id="mask11_1640_1814" style="mask-type:luminance" maskUnits="userSpaceOnUse" x="74" y="215" width="6" height="5">
<path d="M79.4594 216.507C79.4004 216.346 79.2964 216.205 79.1704 216.09C79.0424 215.975 78.8934 215.888 78.7364 215.821C78.4214 215.687 78.0794 215.638 77.7434 215.575L76.7944 215.39C76.4654 215.334 76.1234 215.298 75.7974 215.372C75.5114 215.436 75.2474 215.583 75.0314 215.781C74.8154 215.978 74.6464 216.224 74.5244 216.492C74.3114 216.961 74.2444 217.488 74.2844 218.002C74.3154 218.384 74.4114 218.778 74.6644 219.067C74.8674 219.3 75.1564 219.446 75.4534 219.534C75.9654 219.685 76.5244 219.677 77.0314 219.512C77.8764 219.226 78.6054 218.678 79.1134 217.948C79.2794 217.708 79.4204 217.447 79.4854 217.164C79.5334 216.946 79.5354 216.716 79.4594 216.507Z" fill="white"/>
</mask>
<g mask="url(#mask11_1640_1814)">
<g filter="url(#filter29_f_1640_1814)">
<path d="M75.9782 215.219C75.8982 215.223 75.8192 215.232 75.7412 215.246C75.2372 215.335 74.7752 215.654 74.5152 216.094C74.3312 216.408 74.2482 216.77 74.2742 217.132C74.2852 216.88 74.3522 216.633 74.4752 216.411C74.6832 216.036 75.0602 215.754 75.4832 215.676C75.7442 215.629 76.0102 215.658 76.2732 215.691C76.5252 215.722 76.7782 215.755 77.0272 215.808C77.4102 215.891 77.7902 216.019 78.1112 216.243C78.1872 216.296 78.2572 216.355 78.3162 216.425C78.3752 216.495 78.4212 216.576 78.4392 216.666C78.4652 216.796 78.4272 216.934 78.3622 217.05C78.2972 217.168 78.2072 217.269 78.1112 217.363C78.0352 217.44 77.9532 217.513 77.8712 217.585C78.2432 217.513 78.6202 217.412 78.9292 217.196C79.0602 217.105 79.1782 216.994 79.2562 216.856C79.3332 216.716 79.3662 216.548 79.3292 216.393C79.3032 216.289 79.2462 216.193 79.1742 216.112C79.1032 216.032 79.0172 215.965 78.9292 215.904C78.5402 215.631 78.0842 215.457 77.6122 215.4C77.3112 215.344 77.0052 215.298 76.7002 215.259C76.4622 215.229 76.2182 215.205 75.9782 215.219Z" fill="url(#paint26_linear_1640_1814)"/>
</g>
</g>
<path d="M59.4563 201.863L56.9973 204.938C56.4833 205.576 55.9583 206.215 55.6233 206.96C55.3363 207.6 55.2013 208.295 55.0043 208.97C54.7813 209.734 54.4773 210.476 54.1363 211.195L53.1273 213.158C52.8753 213.631 52.6173 214.113 52.5303 214.641C52.4613 215.058 52.5013 215.489 52.6083 215.899C52.7143 216.31 52.8863 216.711 53.0783 217.075C53.8913 218.682 55.1383 220.068 56.6013 221.128C57.2663 221.609 57.9773 222.025 58.7253 222.365C59.1303 222.551 59.5553 222.713 60.0013 222.722C60.2233 222.726 60.4473 222.689 60.6493 222.601C60.8533 222.511 61.0353 222.369 61.1563 222.181C61.3043 221.952 61.3553 221.668 61.3253 221.396C61.2893 221.125 61.1943 220.865 61.0463 220.633C60.6983 220.066 60.1513 219.652 59.6233 219.243L56.3293 216.463C56.0313 216.184 55.7343 215.899 55.5263 215.551C55.3223 215.21 55.2123 214.823 55.1383 214.433C54.9353 213.368 54.9883 212.244 55.3513 211.222C55.4933 210.821 55.6803 210.44 55.8623 210.055C56.1743 209.39 56.4733 208.711 56.8863 208.101C57.4003 207.342 58.0873 206.711 58.5073 205.883C58.8603 205.195 59.0023 204.421 59.1393 203.66L59.4573 201.871L59.4563 201.863Z" fill="#2A2A2A"/>
<mask id="mask12_1640_1814" style="mask-type:luminance" maskUnits="userSpaceOnUse" x="52" y="201" width="10" height="22">
<path d="M59.3935 201.891C59.3935 201.891 58.6525 202.811 58.2465 203.378C57.8405 203.945 57.4125 204.343 56.9985 204.938C56.5855 205.533 55.9285 206.307 55.6255 206.959C55.3225 207.613 55.2885 208.271 55.0065 208.97C54.7235 209.668 54.4685 210.514 54.1385 211.195C53.8085 211.876 53.3585 212.601 53.1305 213.16C52.9015 213.719 52.5765 213.991 52.5335 214.643C52.4895 215.295 52.4495 215.85 53.0815 217.077C53.7135 218.304 55.5855 220.271 56.6035 221.129C57.6215 221.988 57.9685 222.178 58.7255 222.367C59.4825 222.555 60.7395 222.801 61.1565 222.183C61.5735 221.563 61.4865 221.317 61.0475 220.634C60.6085 219.952 60.3465 219.865 59.6245 219.245C58.9015 218.626 56.9165 217.086 56.3275 216.453C55.7405 215.819 55.2955 215.958 55.5245 215.541C55.7535 215.124 55.2045 214.959 55.1385 214.424C55.0275 213.519 55.2765 211.711 55.3505 211.212C55.4255 210.715 55.5285 210.788 55.8615 210.046C56.1955 209.303 56.4615 208.794 56.8855 208.092C57.3115 207.389 58.1395 206.622 58.5065 205.874C58.8735 205.127 59.0155 204.319 59.1405 203.651C59.2645 202.984 59.3935 201.891 59.3935 201.891Z" fill="white"/>
</mask>
<g mask="url(#mask12_1640_1814)">
<g opacity="0.95" filter="url(#filter30_f_1640_1814)">
<path d="M57.1102 207.648C56.7732 207.959 56.4812 208.316 56.2452 208.71C55.8582 209.357 55.6292 210.084 55.3482 210.783C55.1382 211.304 54.8932 211.828 54.8642 212.388C54.8502 212.676 54.8912 212.964 54.9012 213.252C54.9112 213.54 54.8842 213.839 54.7422 214.091C54.6242 214.301 54.4272 214.467 54.1992 214.547C54.5092 214.651 54.7792 214.847 54.9742 215.108C55.1362 215.326 55.2402 215.58 55.3812 215.812C55.4952 216.001 55.6352 216.175 55.8082 216.312C55.9822 216.449 56.1882 216.547 56.4072 216.575C56.5572 216.593 56.7102 216.579 56.8552 216.533C57.0002 216.487 57.1322 216.41 57.2442 216.308C56.9652 213.691 57.2202 211.017 57.9932 208.5C58.0422 208.341 58.0922 208.181 58.1052 208.016C58.1162 207.849 58.0852 207.674 57.9852 207.543C57.9312 207.473 57.8582 207.417 57.7762 207.382C57.6952 207.347 57.6052 207.335 57.5172 207.346C57.4292 207.356 57.3442 207.39 57.2732 207.442C57.2022 207.496 57.1452 207.567 57.1102 207.648Z" fill="#7C7C7C"/>
</g>
</g>
<mask id="mask13_1640_1814" style="mask-type:luminance" maskUnits="userSpaceOnUse" x="47" y="215" width="15" height="15">
<path d="M53.5082 215.883C54.4272 215.686 55.2512 216.59 55.9592 217.208C56.8922 218.023 54.7162 220.984 57.8842 220.086C58.7352 219.844 58.8862 221.728 59.3602 222.474C59.9562 223.409 61.0432 224.459 61.3432 225.527C61.5742 226.345 61.5392 227.109 61.1082 227.842C60.5892 228.724 59.3952 229.355 58.3772 229.469C57.5452 229.562 56.6512 228.913 55.8512 228.664C54.0612 228.108 52.3972 227.819 50.6062 227.263L49.0122 226.766C48.3582 226.574 48.0732 226.622 47.7452 226.074C47.3552 225.423 47.8442 224.662 48.2052 223.927C48.7972 222.721 48.4832 221.339 48.2722 220.225C48.1382 219.516 48.1772 219.074 48.6712 218.659C49.3972 218.049 50.7822 218.437 51.6292 218.066C52.4742 217.696 52.5972 216.079 53.5082 215.884V215.883Z" fill="white"/>
</mask>
<g mask="url(#mask13_1640_1814)">
<path d="M53.5065 215.883C53.7395 215.787 54.0005 215.77 54.2475 215.815C54.4955 215.86 54.7295 215.967 54.9375 216.108C55.3525 216.391 55.6615 216.802 55.9575 217.209C56.6365 218.142 57.2905 219.096 57.8815 220.087C58.3625 220.89 58.8035 221.72 59.3595 222.474C59.7215 222.966 60.1295 223.423 60.4935 223.914C60.8575 224.404 61.1805 224.938 61.3425 225.527C61.5525 226.293 61.4705 227.137 61.1065 227.842C60.8495 228.339 60.4555 228.764 59.9765 229.053C59.4985 229.342 58.9345 229.49 58.3755 229.47C57.4875 229.436 56.6765 228.992 55.8505 228.663C54.1675 227.994 52.3395 227.784 50.6055 227.263C50.0725 227.103 49.5485 226.913 49.0115 226.766C48.7735 226.701 48.5305 226.643 48.3055 226.541C48.0795 226.439 47.8695 226.287 47.7445 226.074C47.6475 225.909 47.6065 225.715 47.6095 225.524C47.6115 225.334 47.6565 225.145 47.7215 224.966C47.8525 224.607 48.0625 224.282 48.2035 223.927C48.4355 223.348 48.4775 222.709 48.4465 222.087C48.4145 221.464 48.3135 220.846 48.2715 220.225C48.2525 219.947 48.2445 219.665 48.2975 219.392C48.3515 219.12 48.4685 218.852 48.6695 218.659C48.8555 218.481 49.1005 218.375 49.3515 218.322C49.6035 218.27 49.8625 218.268 50.1195 218.273C50.3765 218.28 50.6335 218.293 50.8905 218.273C51.1465 218.251 51.4035 218.193 51.6275 218.066C51.8385 217.945 52.0125 217.765 52.1565 217.568C52.3005 217.37 52.4165 217.155 52.5355 216.942C52.6545 216.729 52.7785 216.516 52.9345 216.329C53.0895 216.141 53.2805 215.977 53.5065 215.883Z" fill="url(#paint27_linear_1640_1814)"/>
<g filter="url(#filter31_f_1640_1814)">
<path d="M53.8727 216.284C54.0837 216.199 54.3227 216.19 54.5447 216.239C54.7667 216.29 54.9727 216.399 55.1527 216.536C55.5137 216.814 55.7638 217.206 56.0038 217.592C56.5808 218.525 57.1448 219.468 57.6768 220.431C58.0808 221.156 58.4648 221.896 58.9608 222.561C59.2898 223.003 59.6658 223.408 60.0008 223.844C60.3368 224.28 60.6358 224.756 60.7848 225.286C60.9758 225.969 60.8977 226.723 60.5667 227.351C60.3277 227.804 59.9667 228.182 59.5227 228.442C59.0787 228.699 58.5707 228.825 58.0577 228.803C57.2437 228.765 56.5008 228.359 55.7358 228.084C54.2678 227.552 52.6768 227.481 51.1708 227.066C50.6318 226.919 50.1047 226.724 49.5627 226.588C49.3227 226.527 49.0778 226.477 48.8498 226.381C48.6218 226.285 48.4078 226.136 48.2838 225.922C48.1918 225.763 48.1548 225.575 48.1608 225.392C48.1668 225.208 48.2128 225.029 48.2768 224.855C48.4078 224.512 48.6138 224.203 48.7468 223.858C48.9468 223.339 48.9718 222.769 48.9348 222.214C48.8968 221.659 48.8008 221.11 48.7668 220.555C48.7518 220.307 48.7498 220.056 48.7988 219.812C48.8498 219.57 48.9558 219.333 49.1328 219.157C49.3248 218.968 49.5898 218.864 49.8568 218.823C50.1238 218.783 50.3948 218.8 50.6638 218.824C50.9318 218.848 51.2017 218.878 51.4717 218.862C51.7407 218.846 52.0148 218.781 52.2368 218.629C52.4398 218.493 52.5927 218.292 52.7087 218.078C52.8237 217.864 52.9068 217.635 52.9958 217.408C53.0838 217.182 53.1788 216.955 53.3178 216.755C53.4568 216.555 53.6427 216.377 53.8717 216.286" fill="#D99A03"/>
</g>
<g filter="url(#filter32_f_1640_1814)">
<path d="M53.6783 215.756C53.8823 215.654 54.1243 215.634 54.3483 215.679C54.5733 215.725 54.7813 215.835 54.9573 215.978C55.3123 216.263 55.5363 216.673 55.7453 217.073C56.2253 217.994 56.6733 218.933 57.2473 219.8C57.6643 220.426 58.1463 221.013 58.5673 221.638C59.1393 222.486 59.6043 223.42 59.7963 224.419C59.9253 225.091 59.9213 225.815 59.5963 226.422C59.3833 226.82 59.0373 227.149 58.6283 227.352C58.2203 227.555 57.7503 227.64 57.2933 227.599C56.5733 227.536 55.9193 227.182 55.2423 226.936C54.0393 226.498 52.7403 226.394 51.5033 226.064C50.9803 225.924 50.4713 225.745 49.9403 225.636C49.7073 225.587 49.4693 225.552 49.2463 225.467C49.0243 225.384 48.8133 225.244 48.6993 225.039C48.6193 224.894 48.5923 224.724 48.6043 224.56C48.6163 224.396 48.6653 224.236 48.7293 224.084C48.8583 223.78 49.0493 223.501 49.1513 223.187C49.2983 222.725 49.2373 222.223 49.1273 221.752C49.0173 221.28 48.8573 220.817 48.8083 220.336C48.7863 220.12 48.7873 219.902 48.8363 219.692C48.8853 219.481 48.9853 219.28 49.1423 219.129C49.3453 218.935 49.6283 218.838 49.9103 218.811C50.1923 218.784 50.4753 218.821 50.7553 218.861C51.0363 218.901 51.3183 218.946 51.6013 218.932C51.8843 218.918 52.1713 218.845 52.3933 218.673C52.6123 218.501 52.7503 218.247 52.8293 217.983C52.9083 217.72 52.9343 217.444 52.9663 217.171C52.9983 216.899 53.0393 216.623 53.1453 216.369C53.2513 216.115 53.4283 215.88 53.6783 215.756Z" fill="#F5BD0C"/>
</g>
<g filter="url(#filter33_f_1640_1814)">
<path d="M56.2422 218.053C56.6202 218.736 56.8511 219.522 57.2271 220.212C57.5721 220.846 57.9651 221.5 58.3171 222.084C58.4721 222.345 58.8372 222.746 59.2062 223.367C59.5392 223.929 59.8772 224.716 60.0652 224.98C59.9572 224.671 59.7341 223.841 59.4681 223.25C59.2211 222.697 58.9311 222.381 58.7521 222.084C58.4011 221.5 58.0232 220.973 57.6632 220.415C57.1652 219.646 56.7852 218.785 56.2422 218.053Z" fill="url(#paint28_linear_1640_1814)"/>
</g>
</g>
<path d="M90.5469 200.98H95.0709V211.872H101.563V215.622H90.5469V200.98ZM104.521 200.98H109.045V215.635H104.521V200.98ZM112.412 200.98H117.037L121.309 208.825H121.354V200.98H125.626V215.635H121.218L116.719 207.635H116.676V215.635H112.403L112.412 200.98ZM142.34 209.971C142.34 214.057 140.183 215.997 135.659 215.997C131.134 215.997 128.959 214.067 128.959 209.971V200.979H133.482V208.966C133.482 210.443 133.482 212.334 135.684 212.334C137.886 212.334 137.823 210.45 137.823 208.966V200.979H142.347V209.971H142.34ZM149.532 207.836L144.706 200.98H150.01L152.214 204.967L154.397 200.98H159.411L154.706 207.881L159.941 215.635H154.497L151.988 211.267L149.401 215.635H144.223L149.532 207.836Z" fill="white"/>
</g>
</g>
</g>
<defs>
<filter id="filter0_f_1640_1814" x="60.0541" y="197.818" width="10.3097" height="6.50501" filterUnits="userSpaceOnUse" color-interpolation-filters="sRGB">
<feFlood flood-opacity="0" result="BackgroundImageFix"/>
<feBlend mode="normal" in="SourceGraphic" in2="BackgroundImageFix" result="shape"/>
<feGaussianBlur stdDeviation="0.254181" result="effect1_foregroundBlur_1640_1814"/>
</filter>
<filter id="filter1_f_1640_1814" x="60.261" y="197.697" width="9.34121" height="4.48379" filterUnits="userSpaceOnUse" color-interpolation-filters="sRGB">
<feFlood flood-opacity="0" result="BackgroundImageFix"/>
<feBlend mode="normal" in="SourceGraphic" in2="BackgroundImageFix" result="shape"/>
<feGaussianBlur stdDeviation="0.11167" result="effect1_foregroundBlur_1640_1814"/>
</filter>
<filter id="filter2_f_1640_1814" x="60.1563" y="195.313" width="9.44137" height="5.09371" filterUnits="userSpaceOnUse" color-interpolation-filters="sRGB">
<feFlood flood-opacity="0" result="BackgroundImageFix"/>
<feBlend mode="normal" in="SourceGraphic" in2="BackgroundImageFix" result="shape"/>
<feGaussianBlur stdDeviation="0.169912" result="effect1_foregroundBlur_1640_1814"/>
</filter>
<filter id="filter3_f_1640_1814" x="67.0814" y="187.757" width="3.39571" height="3.2668" filterUnits="userSpaceOnUse" color-interpolation-filters="sRGB">
<feFlood flood-opacity="0" result="BackgroundImageFix"/>
<feBlend mode="normal" in="SourceGraphic" in2="BackgroundImageFix" result="shape"/>
<feGaussianBlur stdDeviation="0.250294" result="effect1_foregroundBlur_1640_1814"/>
</filter>
<filter id="filter4_f_1640_1814" x="67.1644" y="194.975" width="0.675125" height="0.538406" filterUnits="userSpaceOnUse" color-interpolation-filters="sRGB">
<feFlood flood-opacity="0" result="BackgroundImageFix"/>
<feBlend mode="normal" in="SourceGraphic" in2="BackgroundImageFix" result="shape"/>
<feGaussianBlur stdDeviation="0.031086" result="effect1_foregroundBlur_1640_1814"/>
</filter>
<filter id="filter5_f_1640_1814" x="67.097" y="194.281" width="1.2748" height="1.25722" filterUnits="userSpaceOnUse" color-interpolation-filters="sRGB">
<feFlood flood-opacity="0" result="BackgroundImageFix"/>
<feBlend mode="normal" in="SourceGraphic" in2="BackgroundImageFix" result="shape"/>
<feGaussianBlur stdDeviation="0.0647938" result="effect1_foregroundBlur_1640_1814"/>
</filter>
<filter id="filter6_f_1640_1814" x="67.506" y="191.623" width="2.30438" height="2.12859" filterUnits="userSpaceOnUse" color-interpolation-filters="sRGB">
<feFlood flood-opacity="0" result="BackgroundImageFix"/>
<feBlend mode="normal" in="SourceGraphic" in2="BackgroundImageFix" result="shape"/>
<feGaussianBlur stdDeviation="0.0184768" result="effect1_foregroundBlur_1640_1814"/>
</filter>
<filter id="filter7_f_1640_1814" x="61.5054" y="191.91" width="2.15335" height="1.89749" filterUnits="userSpaceOnUse" color-interpolation-filters="sRGB">
<feFlood flood-opacity="0" result="BackgroundImageFix"/>
<feBlend mode="normal" in="SourceGraphic" in2="BackgroundImageFix" result="shape"/>
<feGaussianBlur stdDeviation="0.0168539" result="effect1_foregroundBlur_1640_1814"/>
</filter>
<filter id="filter8_f_1640_1814" x="61.6649" y="194.419" width="1.0179" height="1.47884" filterUnits="userSpaceOnUse" color-interpolation-filters="sRGB">
<feFlood flood-opacity="0" result="BackgroundImageFix"/>
<feBlend mode="normal" in="SourceGraphic" in2="BackgroundImageFix" result="shape"/>
<feGaussianBlur stdDeviation="0.0640447" result="effect1_foregroundBlur_1640_1814"/>
</filter>
<filter id="filter9_f_1640_1814" x="62.4123" y="199.186" width="2.46847" height="1.8669" filterUnits="userSpaceOnUse" color-interpolation-filters="sRGB">
<feFlood flood-opacity="0" result="BackgroundImageFix"/>
<feBlend mode="normal" in="SourceGraphic" in2="BackgroundImageFix" result="shape"/>
<feGaussianBlur stdDeviation="0.112234" result="effect1_foregroundBlur_1640_1814"/>
</filter>
<filter id="filter10_f_1640_1814" x="60.6428" y="196.885" width="8.06603" height="3.70665" filterUnits="userSpaceOnUse" color-interpolation-filters="sRGB">
<feFlood flood-opacity="0" result="BackgroundImageFix"/>
<feBlend mode="normal" in="SourceGraphic" in2="BackgroundImageFix" result="shape"/>
<feGaussianBlur stdDeviation="0.0946316" result="effect1_foregroundBlur_1640_1814"/>
</filter>
<filter id="filter11_f_1640_1814" x="63.9638" y="197.005" width="2.26381" height="2.6935" filterUnits="userSpaceOnUse" color-interpolation-filters="sRGB">
<feFlood flood-opacity="0" result="BackgroundImageFix"/>
<feBlend mode="normal" in="SourceGraphic" in2="BackgroundImageFix" result="shape"/>
<feGaussianBlur stdDeviation="0.105992" result="effect1_foregroundBlur_1640_1814"/>
</filter>
<filter id="filter12_f_1640_1814" x="64.7655" y="196.248" width="0.87915" height="0.486572" filterUnits="userSpaceOnUse" color-interpolation-filters="sRGB">
<feFlood flood-opacity="0" result="BackgroundImageFix"/>
<feBlend mode="normal" in="SourceGraphic" in2="BackgroundImageFix" result="shape"/>
<feGaussianBlur stdDeviation="0.0137328" result="effect1_foregroundBlur_1640_1814"/>
</filter>
<filter id="filter13_f_1640_1814" x="62.8241" y="196.322" width="0.386962" height="0.418212" filterUnits="userSpaceOnUse" color-interpolation-filters="sRGB">
<feFlood flood-opacity="0" result="BackgroundImageFix"/>
<feBlend mode="normal" in="SourceGraphic" in2="BackgroundImageFix" result="shape"/>
<feGaussianBlur stdDeviation="0.0137328" result="effect1_foregroundBlur_1640_1814"/>
</filter>
<filter id="filter14_f_1640_1814" x="68.3796" y="197.458" width="1.0104" height="1.19595" filterUnits="userSpaceOnUse" color-interpolation-filters="sRGB">
<feFlood flood-opacity="0" result="BackgroundImageFix"/>
<feBlend mode="normal" in="SourceGraphic" in2="BackgroundImageFix" result="shape"/>
<feGaussianBlur stdDeviation="0.0426394" result="effect1_foregroundBlur_1640_1814"/>
</filter>
<filter id="filter15_f_1640_1814" x="72.5227" y="206.107" width="4.76717" height="12.441" filterUnits="userSpaceOnUse" color-interpolation-filters="sRGB">
<feFlood flood-opacity="0" result="BackgroundImageFix"/>
<feBlend mode="normal" in="SourceGraphic" in2="BackgroundImageFix" result="shape"/>
<feGaussianBlur stdDeviation="0.170307" result="effect1_foregroundBlur_1640_1814"/>
</filter>
<filter id="filter16_f_1640_1814" x="57.0658" y="204.152" width="5.53248" height="5.19459" filterUnits="userSpaceOnUse" color-interpolation-filters="sRGB">
<feFlood flood-opacity="0" result="BackgroundImageFix"/>
<feBlend mode="normal" in="SourceGraphic" in2="BackgroundImageFix" result="shape"/>
<feGaussianBlur stdDeviation="0.0862458" result="effect1_foregroundBlur_1640_1814"/>
</filter>
<filter id="filter17_f_1640_1814" x="64.7432" y="203.657" width="8.38079" height="5.97844" filterUnits="userSpaceOnUse" color-interpolation-filters="sRGB">
<feFlood flood-opacity="0" result="BackgroundImageFix"/>
<feBlend mode="normal" in="SourceGraphic" in2="BackgroundImageFix" result="shape"/>
<feGaussianBlur stdDeviation="0.142072" result="effect1_foregroundBlur_1640_1814"/>
</filter>
<filter id="filter18_f_1640_1814" x="61.7298" y="204.368" width="3.54435" height="3.75724" filterUnits="userSpaceOnUse" color-interpolation-filters="sRGB">
<feFlood flood-opacity="0" result="BackgroundImageFix"/>
<feBlend mode="normal" in="SourceGraphic" in2="BackgroundImageFix" result="shape"/>
<feGaussianBlur stdDeviation="0.0980019" result="effect1_foregroundBlur_1640_1814"/>
</filter>
<filter id="filter19_f_1640_1814" x="61.7249" y="209.145" width="1.33928" height="9.43499" filterUnits="userSpaceOnUse" color-interpolation-filters="sRGB">
<feFlood flood-opacity="0" result="BackgroundImageFix"/>
<feBlend mode="normal" in="SourceGraphic" in2="BackgroundImageFix" result="shape"/>
<feGaussianBlur stdDeviation="0.180524" result="effect1_foregroundBlur_1640_1814"/>
</filter>
<filter id="filter20_f_1640_1814" x="70.486" y="199.031" width="2.21947" height="2.41869" filterUnits="userSpaceOnUse" color-interpolation-filters="sRGB">
<feFlood flood-opacity="0" result="BackgroundImageFix"/>
<feBlend mode="normal" in="SourceGraphic" in2="BackgroundImageFix" result="shape"/>
<feGaussianBlur stdDeviation="0.112484" result="effect1_foregroundBlur_1640_1814"/>
</filter>
<filter id="filter21_f_1640_1814" x="70.6935" y="215.596" width="13.8787" height="14.0252" filterUnits="userSpaceOnUse" color-interpolation-filters="sRGB">
<feFlood flood-opacity="0" result="BackgroundImageFix"/>
<feBlend mode="normal" in="SourceGraphic" in2="BackgroundImageFix" result="shape"/>
<feGaussianBlur stdDeviation="0.596626" result="effect1_foregroundBlur_1640_1814"/>
</filter>
<filter id="filter22_f_1640_1814" x="71.4152" y="214.974" width="12.8492" height="12.7789" filterUnits="userSpaceOnUse" color-interpolation-filters="sRGB">
<feFlood flood-opacity="0" result="BackgroundImageFix"/>
<feBlend mode="normal" in="SourceGraphic" in2="BackgroundImageFix" result="shape"/>
<feGaussianBlur stdDeviation="0.470124" result="effect1_foregroundBlur_1640_1814"/>
</filter>
<filter id="filter23_f_1640_1814" x="72.1109" y="216.82" width="8.23529" height="1.53217" filterUnits="userSpaceOnUse" color-interpolation-filters="sRGB">
<feFlood flood-opacity="0" result="BackgroundImageFix"/>
<feBlend mode="normal" in="SourceGraphic" in2="BackgroundImageFix" result="shape"/>
<feGaussianBlur stdDeviation="0.0598" result="effect1_foregroundBlur_1640_1814"/>
</filter>
<filter id="filter24_f_1640_1814" x="73.5605" y="207.935" width="2.60949" height="2.63879" filterUnits="userSpaceOnUse" color-interpolation-filters="sRGB">
<feFlood flood-opacity="0" result="BackgroundImageFix"/>
<feBlend mode="normal" in="SourceGraphic" in2="BackgroundImageFix" result="shape"/>
<feGaussianBlur stdDeviation="0.286162" result="effect1_foregroundBlur_1640_1814"/>
</filter>
<filter id="filter25_f_1640_1814" x="58.6996" y="202.465" width="0.928882" height="0.944507" filterUnits="userSpaceOnUse" color-interpolation-filters="sRGB">
<feFlood flood-opacity="0" result="BackgroundImageFix"/>
<feBlend mode="normal" in="SourceGraphic" in2="BackgroundImageFix" result="shape"/>
<feGaussianBlur stdDeviation="0.0798768" result="effect1_foregroundBlur_1640_1814"/>
</filter>
<filter id="filter26_f_1640_1814" x="73.2" y="216.639" width="6.36944" height="5.65069" filterUnits="userSpaceOnUse" color-interpolation-filters="sRGB">
<feFlood flood-opacity="0" result="BackgroundImageFix"/>
<feBlend mode="normal" in="SourceGraphic" in2="BackgroundImageFix" result="shape"/>
<feGaussianBlur stdDeviation="0.355055" result="effect1_foregroundBlur_1640_1814"/>
</filter>
<filter id="filter27_f_1640_1814" x="73.6348" y="217.088" width="5.49992" height="3.60929" filterUnits="userSpaceOnUse" color-interpolation-filters="sRGB">
<feFlood flood-opacity="0" result="BackgroundImageFix"/>
<feBlend mode="normal" in="SourceGraphic" in2="BackgroundImageFix" result="shape"/>
<feGaussianBlur stdDeviation="0.137675" result="effect1_foregroundBlur_1640_1814"/>
</filter>
<filter id="filter28_f_1640_1814" x="74.0136" y="214.959" width="5.58608" height="2.881" filterUnits="userSpaceOnUse" color-interpolation-filters="sRGB">
<feFlood flood-opacity="0" result="BackgroundImageFix"/>
<feBlend mode="normal" in="SourceGraphic" in2="BackgroundImageFix" result="shape"/>
<feGaussianBlur stdDeviation="0.127965" result="effect1_foregroundBlur_1640_1814"/>
</filter>
<filter id="filter29_f_1640_1814" x="74.0136" y="214.959" width="5.58608" height="2.881" filterUnits="userSpaceOnUse" color-interpolation-filters="sRGB">
<feFlood flood-opacity="0" result="BackgroundImageFix"/>
<feBlend mode="normal" in="SourceGraphic" in2="BackgroundImageFix" result="shape"/>
<feGaussianBlur stdDeviation="0.127965" result="effect1_foregroundBlur_1640_1814"/>
</filter>
<filter id="filter30_f_1640_1814" x="53.9166" y="207.059" width="4.47154" height="9.80552" filterUnits="userSpaceOnUse" color-interpolation-filters="sRGB">
<feFlood flood-opacity="0" result="BackgroundImageFix"/>
<feBlend mode="normal" in="SourceGraphic" in2="BackgroundImageFix" result="shape"/>
<feGaussianBlur stdDeviation="0.141322" result="effect1_foregroundBlur_1640_1814"/>
</filter>
<filter id="filter31_f_1640_1814" x="47.1804" y="215.229" width="14.6861" height="14.5552" filterUnits="userSpaceOnUse" color-interpolation-filters="sRGB">
<feFlood flood-opacity="0" result="BackgroundImageFix"/>
<feBlend mode="normal" in="SourceGraphic" in2="BackgroundImageFix" result="shape"/>
<feGaussianBlur stdDeviation="0.489885" result="effect1_foregroundBlur_1640_1814"/>
</filter>
<filter id="filter32_f_1640_1814" x="47.9986" y="215.053" width="12.4794" height="13.1591" filterUnits="userSpaceOnUse" color-interpolation-filters="sRGB">
<feFlood flood-opacity="0" result="BackgroundImageFix"/>
<feBlend mode="normal" in="SourceGraphic" in2="BackgroundImageFix" result="shape"/>
<feGaussianBlur stdDeviation="0.3015" result="effect1_foregroundBlur_1640_1814"/>
</filter>
<filter id="filter33_f_1640_1814" x="56.1498" y="217.96" width="4.00899" height="7.1125" filterUnits="userSpaceOnUse" color-interpolation-filters="sRGB">
<feFlood flood-opacity="0" result="BackgroundImageFix"/>
<feBlend mode="normal" in="SourceGraphic" in2="BackgroundImageFix" result="shape"/>
<feGaussianBlur stdDeviation="0.046192" result="effect1_foregroundBlur_1640_1814"/>
</filter>
<linearGradient id="paint0_linear_1640_1814" x1="283.115" y1="145.173" x2="283.115" y2="271.232" gradientUnits="userSpaceOnUse">
<stop stop-color="white"/>
<stop offset="1" stop-color="white" stop-opacity="0"/>
</linearGradient>
<linearGradient id="paint1_linear_1640_1814" x1="283.115" y1="10.075" x2="283.115" y2="136.134" gradientUnits="userSpaceOnUse">
<stop stop-color="white"/>
<stop offset="1" stop-color="white" stop-opacity="0"/>
</linearGradient>
<linearGradient id="paint2_linear_1640_1814" x1="104.256" y1="11.8524" x2="104.256" y2="133.79" gradientUnits="userSpaceOnUse">
<stop stop-color="white"/>
<stop offset="1" stop-color="white" stop-opacity="0"/>
</linearGradient>
<linearGradient id="paint3_linear_1640_1814" x1="104.256" y1="149.111" x2="104.256" y2="267.261" gradientUnits="userSpaceOnUse">
<stop stop-color="white"/>
<stop offset="1" stop-color="white" stop-opacity="0"/>
</linearGradient>
<radialGradient id="paint4_radial_1640_1814" cx="0" cy="0" r="1" gradientUnits="userSpaceOnUse" gradientTransform="translate(91.604 336.168) rotate(-2.40705) scale(4.51036 11.0999)">
<stop stop-color="#FEFEFC"/>
<stop offset="0.757" stop-color="#FEFEFC"/>
<stop offset="1" stop-color="#D4D4D4"/>
</radialGradient>
<radialGradient id="paint5_radial_1640_1814" cx="0" cy="0" r="1" gradientUnits="userSpaceOnUse" gradientTransform="translate(139.642 340.632) rotate(-1.80781) scale(8.10124 11.6919)">
<stop stop-color="#FEFEFC"/>
<stop offset="0.757" stop-color="#FEFEFC"/>
<stop offset="1" stop-color="#D4D4D4"/>
</radialGradient>
<radialGradient id="paint6_radial_1640_1814" cx="0" cy="0" r="1" gradientUnits="userSpaceOnUse" gradientTransform="translate(171.16 205.691) rotate(-35.9758) scale(7.42574 4.92363)">
<stop stop-color="#020204"/>
<stop offset="0.734" stop-color="#020204"/>
<stop offset="1" stop-color="#5C5C5C"/>
</radialGradient>
<linearGradient id="paint7_linear_1640_1814" x1="374.545" y1="326.954" x2="381.232" y2="335" gradientUnits="userSpaceOnUse">
<stop stop-color="#949494" stop-opacity="0.392"/>
<stop offset="0.5" stop-color="#949494"/>
<stop offset="1" stop-color="#949494" stop-opacity="0.392"/>
</linearGradient>
<linearGradient id="paint8_linear_1640_1814" x1="681.096" y1="792.979" x2="801.992" y2="892.407" gradientUnits="userSpaceOnUse">
<stop stop-color="#747474"/>
<stop offset="0.125" stop-color="#8C8C8C"/>
<stop offset="0.25" stop-color="#A4A4A4"/>
<stop offset="0.5" stop-color="#D4D4D4"/>
<stop offset="0.619" stop-color="#D4D4D4"/>
<stop offset="1" stop-color="#7C7C7C"/>
</linearGradient>
<linearGradient id="paint9_linear_1640_1814" x1="102.133" y1="408.629" x2="131.425" y2="438.633" gradientUnits="userSpaceOnUse">
<stop stop-color="#646464" stop-opacity="0"/>
<stop offset="0.306" stop-color="#646464" stop-opacity="0.583"/>
<stop offset="0.47" stop-color="#646464"/>
<stop offset="0.728" stop-color="#646464" stop-opacity="0.257"/>
<stop offset="1" stop-color="#646464" stop-opacity="0"/>
</linearGradient>
<linearGradient id="paint10_linear_1640_1814" x1="7.80253" y1="387.165" x2="32.2391" y2="413.975" gradientUnits="userSpaceOnUse">
<stop stop-color="#646464" stop-opacity="0"/>
<stop offset="0.306" stop-color="#646464" stop-opacity="0.583"/>
<stop offset="0.47" stop-color="#646464"/>
<stop offset="0.728" stop-color="#646464" stop-opacity="0.257"/>
<stop offset="1" stop-color="#646464" stop-opacity="0"/>
</linearGradient>
<linearGradient id="paint11_linear_1640_1814" x1="186.92" y1="356.02" x2="195.242" y2="365.301" gradientUnits="userSpaceOnUse">
<stop stop-color="#757574" stop-opacity="0"/>
<stop offset="0.263" stop-color="#757574"/>
<stop offset="0.5" stop-color="#757574"/>
<stop offset="1" stop-color="#757574" stop-opacity="0"/>
</linearGradient>
<radialGradient id="paint12_radial_1640_1814" cx="0" cy="0" r="1" gradientUnits="userSpaceOnUse" gradientTransform="translate(2705.82 -243.103) rotate(-22.403) scale(279.42 96.9895)">
<stop stop-color="#D2940A"/>
<stop offset="0.751" stop-color="#D89C08"/>
<stop offset="0.866" stop-color="#B67E07"/>
<stop offset="1" stop-color="#946106"/>
</radialGradient>
<linearGradient id="paint13_linear_1640_1814" x1="471.11" y1="894.396" x2="965.953" y2="886.707" gradientUnits="userSpaceOnUse">
<stop stop-color="#AD780A"/>
<stop offset="0.12" stop-color="#D89E08"/>
<stop offset="0.255" stop-color="#EDB80B"/>
<stop offset="0.392" stop-color="#EBC80D"/>
<stop offset="0.527" stop-color="#F5D838"/>
<stop offset="0.769" stop-color="#F6D811"/>
<stop offset="1" stop-color="#F5CD31"/>
</linearGradient>
<radialGradient id="paint14_radial_1640_1814" cx="0" cy="0" r="1" gradientUnits="userSpaceOnUse" gradientTransform="translate(128.742 233.398) scale(2.65934 0.813228)">
<stop stop-color="#3A2903"/>
<stop offset="0.555" stop-color="#735208"/>
<stop offset="1" stop-color="#AC8C04"/>
</radialGradient>
<radialGradient id="paint15_radial_1640_1814" cx="0" cy="0" r="1" gradientUnits="userSpaceOnUse" gradientTransform="translate(83.7169 254.049) scale(0.507391 0.600852)">
<stop stop-color="#3A2903"/>
<stop offset="0.555" stop-color="#735208"/>
<stop offset="1" stop-color="#AC8C04"/>
</radialGradient>
<linearGradient id="paint16_linear_1640_1814" x1="252.327" y1="358.669" x2="252.853" y2="361.399" gradientUnits="userSpaceOnUse">
<stop stop-color="#F5CE2D"/>
<stop offset="1" stop-color="#D79B08"/>
</linearGradient>
<radialGradient id="paint17_radial_1640_1814" cx="0" cy="0" r="1" gradientUnits="userSpaceOnUse" gradientTransform="translate(621.942 215.264) rotate(-9.3382) scale(73.7478 31.5964)">
<stop stop-color="#C8C8C8"/>
<stop offset="1" stop-color="#797978"/>
</radialGradient>
<radialGradient id="paint18_radial_1640_1814" cx="0" cy="0" r="1" gradientUnits="userSpaceOnUse" gradientTransform="translate(-1112.71 1020.91) rotate(180) scale(99.2542 101.374)">
<stop/>
<stop offset="1" stop-opacity="0.25"/>
</radialGradient>
<radialGradient id="paint19_radial_1640_1814" cx="0" cy="0" r="1" gradientUnits="userSpaceOnUse" gradientTransform="translate(2462.34 1179.68) scale(214.051 113.135)">
<stop/>
<stop offset="1" stop-opacity="0.25"/>
</radialGradient>
<radialGradient id="paint20_radial_1640_1814" cx="0" cy="0" r="1" gradientUnits="userSpaceOnUse" gradientTransform="translate(888.481 1013.25) scale(34.1833 39.0278)">
<stop/>
<stop offset="1" stop-opacity="0.25"/>
</radialGradient>
<linearGradient id="paint21_linear_1640_1814" x1="5625.98" y1="5026.05" x2="6256.51" y2="4033.63" gradientUnits="userSpaceOnUse">
<stop stop-color="#3E2A06"/>
<stop offset="1" stop-color="#AD780A"/>
</linearGradient>
<linearGradient id="paint22_linear_1640_1814" x1="433.352" y1="591.084" x2="433.053" y2="607.725" gradientUnits="userSpaceOnUse">
<stop stop-color="#F3CD0C"/>
<stop offset="1" stop-color="#F3CD0C" stop-opacity="0"/>
</linearGradient>
<radialGradient id="paint23_radial_1640_1814" cx="0" cy="0" r="1" gradientUnits="userSpaceOnUse" gradientTransform="translate(1893.54 2592.45) rotate(14.9824) scale(112.867 101.343)">
<stop stop-color="#110800"/>
<stop offset="0.591" stop-color="#A65A00" stop-opacity="0.8"/>
<stop offset="1" stop-color="#FF921E" stop-opacity="0"/>
</radialGradient>
<radialGradient id="paint24_radial_1640_1814" cx="0" cy="0" r="1" gradientUnits="userSpaceOnUse" gradientTransform="translate(1893.54 1934.41) rotate(10.9498) scale(111.051 74.4616)">
<stop stop-color="#110800"/>
<stop offset="0.591" stop-color="#A65A00" stop-opacity="0.8"/>
<stop offset="1" stop-color="#FF921E" stop-opacity="0"/>
</radialGradient>
<radialGradient id="paint25_radial_1640_1814" cx="0" cy="0" r="1" gradientUnits="userSpaceOnUse" gradientTransform="translate(732.974 617.408) rotate(23.4965) scale(40.9422 8.84438)">
<stop stop-color="#7C7C7C"/>
<stop offset="1" stop-color="#7C7C7C" stop-opacity="0.33"/>
</radialGradient>
<linearGradient id="paint26_linear_1640_1814" x1="1893.58" y1="877.628" x2="1908.71" y2="876.283" gradientUnits="userSpaceOnUse">
<stop stop-color="#7C7C7C"/>
<stop offset="1" stop-color="#7C7C7C" stop-opacity="0.33"/>
</linearGradient>
<linearGradient id="paint27_linear_1640_1814" x1="1752.69" y1="4340.9" x2="2401.85" y2="5443.34" gradientUnits="userSpaceOnUse">
<stop stop-color="#B98309"/>
<stop offset="1" stop-color="#382605"/>
</linearGradient>
<linearGradient id="paint28_linear_1640_1814" x1="710.277" y1="2450.2" x2="835.809" y2="2580.62" gradientUnits="userSpaceOnUse">
<stop stop-color="#EBC40C"/>
<stop offset="1" stop-color="#EBC40C" stop-opacity="0"/>
</linearGradient>
<clipPath id="clip0_1640_1814">
<rect width="362" height="272" fill="white"/>
</clipPath>
</defs>
</svg>
