<svg width="68" height="68" viewBox="0 0 68 68" fill="none" xmlns="http://www.w3.org/2000/svg">
<path d="M19.4336 32.3243C20.8574 32.3243 22.0117 31.17 22.0117 29.7461C22.0117 28.3223 20.8574 27.168 19.4336 27.168C18.0097 27.168 16.8555 28.3223 16.8555 29.7461C16.8555 31.17 18.0097 32.3243 19.4336 32.3243Z" fill="#2BAD5C"/>
<path d="M29.1013 32.3243C30.5252 32.3243 31.6795 31.17 31.6795 29.7461C31.6795 28.3223 30.5252 27.168 29.1013 27.168C27.6775 27.168 26.5234 28.3223 26.5234 29.7461C26.5234 31.17 27.6775 32.3243 29.1013 32.3243Z" fill="#2BAD5C"/>
<path d="M41.291 56.6875C40.5129 54.4939 38.772 52.7528 36.5782 51.9747V47.664H55.2696C59.5343 47.664 63.0039 44.1944 63.0039 39.9297V14.2665C63.0039 12.2005 62.1994 10.2582 60.7386 8.79742C59.2778 7.3369 57.3358 6.53265 55.2707 6.53265C55.2709 6.53265 55.2705 6.53265 55.2707 6.53265L34.2961 6.53214C34.2944 6.53214 34.2928 6.53214 34.2908 6.53214C33.5937 6.53214 32.9535 6.19647 32.5781 5.63329L32.5137 5.53673L28.8604 1H12.7296C8.46484 1 4.9952 4.46964 4.9952 8.73436V39.9297C4.9952 44.1944 8.46484 47.664 12.7296 47.664H31.4218V51.9747C29.2282 52.7528 27.4871 54.4937 26.709 56.6875H1V61.8436H26.709C27.7733 64.8444 30.6391 67 34 67C37.3609 67 40.2267 64.8444 41.291 61.8436H67V56.6875H41.291ZM10.1515 8.73436C10.1515 7.31279 11.308 6.15625 12.7296 6.15625H26.3924L28.3603 8.60005C28.4872 8.78323 28.6219 8.95918 28.7636 9.12805C28.6256 9.29215 28.4945 9.46296 28.3711 9.63982L26.3431 12.0895L12.7309 12.0751C11.8402 12.0791 10.969 12.225 10.1515 12.5131V8.73436ZM12.7296 42.5078C11.308 42.5078 10.1515 41.3513 10.1515 39.9297V19.8095C10.1515 19.1207 10.4197 18.4734 10.9067 17.9862C11.3937 17.4995 12.0409 17.2314 12.7274 17.2314L28.7662 17.2483L32.5036 12.7338L32.5777 12.6227C32.9444 12.0727 33.6355 11.6885 34.2578 11.6885C34.2728 11.6884 34.2878 11.6884 34.3025 11.6885L55.27 11.689C55.9586 11.6889 56.6061 11.957 57.093 12.4438C57.5798 12.9305 57.848 13.578 57.848 14.2666V39.9297C57.848 41.3513 56.6915 42.5078 55.2698 42.5078H12.7296ZM34 61.8436C32.5784 61.8436 31.4218 60.6871 31.4218 59.2657C31.4218 57.844 32.5784 56.6875 34 56.6875C35.4216 56.6875 36.5782 57.844 36.5782 59.2657C36.5782 60.6871 35.4216 61.8436 34 61.8436Z" fill="#2BAD5C"/>
<path d="M48.5665 32.3243C49.9903 32.3243 51.1446 31.17 51.1446 29.7461C51.1446 28.3223 49.9903 27.168 48.5665 27.168C47.1426 27.168 45.9883 28.3223 45.9883 29.7461C45.9883 31.17 47.1426 32.3243 48.5665 32.3243Z" fill="#2BAD5C"/>
<path d="M38.7696 32.3243C40.1934 32.3243 41.3475 31.17 41.3475 29.7461C41.3475 28.3223 40.1934 27.168 38.7696 27.168C37.3457 27.168 36.1914 28.3223 36.1914 29.7461C36.1914 31.17 37.3457 32.3243 38.7696 32.3243Z" fill="#2BAD5C"/>
</svg>
