<svg width="54" height="54" viewBox="0 0 54 54" fill="none" xmlns="http://www.w3.org/2000/svg">
<path d="M39.2667 17.9993C39.2667 20.3993 37.6667 22.266 35.2667 23.066L27.8 25.1993L26.7333 25.466V26.5327L25.4 35.866C25.1333 38.266 23.2667 40.1327 20.8667 40.3993C20.6 40.3993 20.3333 40.3993 20.0667 40.3993C17.9333 40.3993 16.3333 39.3327 15.2667 37.466C15.2667 37.466 15.2667 37.466 15.2667 37.1994L3.26666 11.3327C2.19999 9.46602 2.73332 7.33268 4.06666 5.46602C5.39999 3.86602 7.79999 3.33268 9.66666 3.86602L35.8 12.666C36.8667 12.9327 37.9333 13.7327 38.4667 14.5327C39 15.5993 39.2667 16.666 39.2667 17.9993Z" fill="#2A2A2A"/>
<path d="M45.6653 31.3327C45.6653 32.666 44.332 33.9993 42.9986 33.9993H34.9986C33.6653 33.9993 32.332 32.666 32.332 31.3327C32.332 29.9993 33.6653 28.666 34.9986 28.666H42.9986C44.332 28.666 45.6653 29.9993 45.6653 31.3327Z" fill="#2A2A2A"/>
<path d="M48.332 39.3327C48.332 40.666 46.9986 41.9993 45.6653 41.9993H34.9986C33.6653 41.9993 32.332 40.666 32.332 39.3327C32.332 37.9993 33.6653 36.666 34.9986 36.666H45.6653C46.9986 36.666 48.332 37.9993 48.332 39.3327Z" fill="#2A2A2A"/>
<path d="M50.9986 47.3327C50.9986 48.666 49.6653 49.9993 48.332 49.9993H34.9986C33.6653 49.9993 32.332 48.666 32.332 47.3327C32.332 45.9993 33.6653 44.666 34.9986 44.666H48.332C49.6653 44.666 50.9986 45.9993 50.9986 47.3327Z" fill="#2A2A2A"/>
<path opacity="0.1" d="M15.5312 37.4665L26.7312 26.2665L25.398 35.5999C25.1313 37.9999 23.2646 39.8665 20.8646 40.1332C20.598 40.1332 20.3312 40.1332 20.0645 40.1332C18.1979 40.3999 16.3313 39.3332 15.5312 37.4665ZM35.5312 22.7999L28.0645 24.9332L38.4646 14.5332C38.998 15.3332 39.5312 16.6665 39.5312 17.7332C39.2646 20.1332 37.6646 22.2665 35.5312 22.7999ZM34.998 28.6665H42.998C44.3313 28.6665 45.6646 29.9999 45.6646 31.3332C45.6646 32.6665 44.3313 33.9999 42.998 33.9999H34.998C33.6646 33.9999 32.3312 32.6665 32.3312 31.3332C32.3312 29.9999 33.6646 28.6665 34.998 28.6665ZM45.6646 36.6665C46.998 36.6665 48.3312 37.9999 48.3312 39.3332C48.3312 40.6665 46.998 41.9999 45.6646 41.9999H34.998C33.6646 41.9999 32.3312 40.6665 32.3312 39.3332C32.3312 37.9999 33.6646 36.6665 34.998 36.6665H45.6646ZM50.998 47.3332C50.998 48.6665 49.6645 49.9999 48.3312 49.9999H34.998C33.6646 49.9999 32.3312 48.6665 32.3312 47.3332C32.3312 45.9999 33.6646 44.6665 34.998 44.6665H48.3312C49.6645 44.6665 50.998 45.9999 50.998 47.3332Z" fill="#2A2A2A"/>
</svg>
