<svg width="54" height="54" viewBox="0 0 54 54" fill="none" xmlns="http://www.w3.org/2000/svg">
<path d="M18.5637 52.4127C15.8908 52.4155 13.2772 51.6248 11.0541 50.1407C8.83106 48.6567 7.09856 46.5461 6.07618 44.0765C5.98724 43.8525 5.9473 43.6121 5.95904 43.3714C5.97078 43.1307 6.03394 42.8953 6.14425 42.6811C6.25457 42.4669 6.40949 42.2787 6.59859 42.1294C6.78769 41.98 7.00659 41.8729 7.24055 41.8152C7.63196 41.7203 8.04443 41.7684 8.40342 41.951C8.76242 42.1336 9.04427 42.4386 9.19805 42.8108C9.96874 44.6583 11.2698 46.2359 12.9368 47.3443C14.6038 48.4526 16.5619 49.0419 18.5637 49.0377H19.1712C21.8565 49.0511 24.4372 47.9973 26.3455 46.108C28.2538 44.2187 29.3334 41.6487 29.3468 38.9633C29.3602 36.278 28.3064 33.6974 26.4171 31.7891C24.5278 29.8808 21.9578 28.8011 19.2724 28.7877H18.5637C16.63 28.7862 14.7363 29.3384 13.1065 30.379C11.4767 31.4197 10.179 32.9053 9.3668 34.6602C9.19703 35.0277 8.90081 35.3219 8.53217 35.4892C8.16353 35.6565 7.74704 35.6857 7.35868 35.5715C7.12799 35.505 6.91414 35.3901 6.73142 35.2343C6.54869 35.0786 6.4013 34.8857 6.29907 34.6685C6.19685 34.4513 6.14215 34.2147 6.13864 33.9747C6.13512 33.7346 6.18286 33.4966 6.27868 33.2765C7.3683 30.9344 9.10233 28.9511 11.2779 27.5585C13.4535 26.1659 15.9806 25.4216 18.5637 25.4127C18.9065 25.3911 19.2503 25.3911 19.5931 25.4127C22.9583 25.7092 26.09 27.2566 28.37 29.7494C30.65 32.2423 31.9125 35.4993 31.9083 38.8776C31.904 42.2558 30.6334 45.5097 28.3471 47.9968C26.0609 50.4839 22.9253 52.0234 19.5593 52.3115C19.2302 52.368 18.8975 52.4018 18.5637 52.4127Z" fill="#2A2A2A"/>
<path d="M23.2527 41.7484C23.284 42.8975 22.8733 44.0149 22.1052 44.8702C21.5254 45.4786 20.7594 45.8765 19.9283 46.0009V47.1315C19.9283 47.5388 19.7665 47.9294 19.4785 48.2173C19.1905 48.5053 18.7999 48.6671 18.3927 48.6671C17.9854 48.6671 17.5948 48.5053 17.3068 48.2173C17.0188 47.9294 16.857 47.5388 16.857 47.1315V45.8996C16.1161 45.6557 15.4573 45.2111 14.9539 44.6153C14.4504 44.0195 14.122 43.2958 14.0052 42.5246C13.9631 42.3599 13.9567 42.1881 13.9861 42.0207C14.0156 41.8532 14.0804 41.694 14.1762 41.5536C14.272 41.4131 14.3965 41.2946 14.5416 41.206C14.6867 41.1174 14.849 41.0607 15.0177 41.0396C15.2881 41.0025 15.563 41.0615 15.7944 41.2065C16.0257 41.3515 16.1988 41.5731 16.2833 41.8327C16.3997 42.2227 16.595 42.5845 16.857 42.8959C17.0676 43.1347 17.3276 43.3248 17.619 43.453C17.9104 43.5812 18.2262 43.6445 18.5445 43.6384C19.0023 43.6541 19.4562 43.5494 19.8608 43.3346C19.9883 43.2642 20.1072 43.1792 20.2152 43.0815C20.3872 42.9398 20.5294 42.7655 20.6337 42.5685C20.738 42.3715 20.8022 42.1559 20.8227 41.934C20.8737 41.567 20.8025 41.1934 20.6202 40.8709C20.4616 40.6298 20.2398 40.4371 19.9789 40.314H19.8608C19.5233 40.1621 18.8483 39.9427 17.8527 39.639L16.8739 39.2677C16.472 39.1157 16.0918 38.9115 15.7433 38.6602C15.2653 38.2892 14.8833 37.8089 14.6295 37.2596C14.3648 36.6884 14.2267 36.0667 14.2245 35.4371C14.2099 34.7055 14.3904 33.9832 14.7476 33.3446C15.0818 32.7382 15.5943 32.2492 16.2158 31.944C16.4261 31.8333 16.6465 31.7429 16.8739 31.674V30.7627C16.8739 30.3555 17.0357 29.9649 17.3237 29.6769C17.6117 29.3889 18.0023 29.2271 18.4095 29.2271C18.8168 29.2271 19.2074 29.3889 19.4954 29.6769C19.7834 29.9649 19.9452 30.3555 19.9452 30.7627V31.6234C20.609 31.776 21.2205 32.1021 21.717 32.5684C22.1963 33.0326 22.5455 33.6145 22.7295 34.2559C22.7719 34.4257 22.7765 34.6027 22.743 34.7745C22.7096 34.9463 22.6389 35.1087 22.5359 35.2503C22.433 35.3918 22.3003 35.5091 22.1471 35.5939C21.994 35.6786 21.8241 35.7288 21.6495 35.7409C21.3942 35.7619 21.1393 35.6969 20.9252 35.5562C20.7111 35.4155 20.5503 35.2073 20.4683 34.9646C20.3835 34.6856 20.2331 34.4309 20.0295 34.2221C19.6133 33.8939 19.0903 33.7316 18.5614 33.7665C18.0426 33.7308 17.5266 33.8672 17.0933 34.1546L16.9752 34.2559C16.8457 34.3657 16.7422 34.5029 16.6722 34.6575C16.6021 34.8122 16.5673 34.9805 16.5702 35.1502C16.5714 35.3218 16.6081 35.4913 16.6777 35.648C16.7474 35.8048 16.8487 35.9456 16.9752 36.0615C17.6332 36.4724 18.3588 36.7638 19.1183 36.9221L19.9789 37.1921C20.5772 37.3801 21.1455 37.6529 21.6664 38.0021C22.1944 38.3751 22.6138 38.8818 22.8814 39.4702C23.176 40.1917 23.303 40.9707 23.2527 41.7484ZM31.0151 27.1009C30.6025 27.0996 30.1906 27.0657 29.7833 26.9996C28.7816 26.8427 27.869 26.3331 27.2099 25.5626C26.5509 24.7922 26.1888 23.8116 26.1889 22.7977C26.1889 22.1351 26.345 21.4819 26.6445 20.8909C26.7243 20.7461 26.7661 20.5836 26.7661 20.4184C26.7661 20.2531 26.7243 20.0906 26.6445 19.9459C26.5575 19.8052 26.4357 19.6894 26.2908 19.6096C26.146 19.5298 25.983 19.4887 25.8177 19.4902H25.5814L7.01888 25.5315C6.58494 25.707 6.12003 25.7931 5.65201 25.7846C4.77502 25.7869 3.91966 25.5125 3.20767 25.0004C2.49567 24.4884 1.96332 23.7648 1.68638 22.9327C1.36109 22.1334 1.2919 21.2529 1.48837 20.4126C1.68484 19.5723 2.13729 18.8137 2.78326 18.2415L6.74888 14.8327C6.91835 14.6897 7.11436 14.5814 7.3257 14.5142C7.53704 14.4469 7.75956 14.422 7.98054 14.4408C8.20153 14.4596 8.41664 14.5218 8.61357 14.6238C8.81051 14.7258 8.9854 14.8656 9.12826 15.0352C9.27132 15.2047 9.37958 15.4007 9.44684 15.6121C9.5141 15.8234 9.53903 16.0459 9.52023 16.2669C9.50142 16.4879 9.43924 16.703 9.33723 16.8999C9.23523 17.0969 9.0954 17.2718 8.92576 17.4146L4.89263 20.7896C4.78718 20.9243 4.72177 21.0859 4.70386 21.256C4.68596 21.4261 4.71629 21.5978 4.79138 21.7515C4.92638 22.1227 5.24701 22.5615 5.63513 22.3927L24.4677 16.3177C24.8815 16.182 25.3146 16.1136 25.7502 16.1152C26.4906 16.1154 27.2188 16.3036 27.8666 16.6623C28.5143 17.021 29.0603 17.5384 29.4534 18.1659C29.8464 18.7934 30.0736 19.5104 30.1136 20.2498C30.1536 20.9891 30.0051 21.7265 29.682 22.3927C29.6255 22.518 29.5991 22.6549 29.6052 22.7922C29.6112 22.9296 29.6494 23.0636 29.7167 23.1835C29.7841 23.3033 29.8786 23.4057 29.9928 23.4823C30.1069 23.559 30.2375 23.6077 30.3739 23.6246C31.3939 23.7822 32.4365 23.5665 33.3102 23.0171C33.5206 22.8836 33.7183 22.7311 33.9008 22.5615L38.4233 17.1952C38.7187 16.8422 39.0878 16.558 39.5046 16.3627C39.9215 16.1674 40.3761 16.0656 40.8364 16.0646H43.1145V8.11648H20.9577C20.3393 8.13561 19.7452 8.36138 19.2702 8.75773L15.4733 11.8965C15.3038 12.0396 15.1078 12.1478 14.8965 12.2151C14.6851 12.2823 14.4626 12.3073 14.2416 12.2885C14.0206 12.2696 13.8055 12.2075 13.6086 12.1055C13.4117 12.0035 13.2368 11.8636 13.0939 11.694C12.9508 11.5245 12.8426 11.3285 12.7753 11.1172C12.7081 10.9058 12.6831 10.6833 12.7019 10.4623C12.7207 10.2413 12.7829 10.0262 12.8849 9.82929C12.9869 9.63236 13.1268 9.45746 13.2964 9.31461L17.0258 6.15898C18.1288 5.23658 19.5198 4.72914 20.9577 4.72461H46.4558V19.4902H40.8195L36.2295 25.0084C34.8219 26.3454 32.9565 27.094 31.0151 27.1009Z" fill="#2A2A2A"/>
<path d="M17 6L3 18L2 23.5L7 24.5C8.83333 23.6667 12.6 21.9 13 21.5C13.5 21 20 20 23 19C25.4 18.2 26.6667 19 27 19.5L28.5 25L32.5 23.5L38.5 19.5L43.5 18V6.5L21.5 5.5L17 6Z" fill="#2A2A2A"/>
<path d="M50.0345 21.8359H46.2545C45.8379 21.8359 45.4254 21.7539 45.0405 21.5944C44.6556 21.435 44.3058 21.2013 44.0112 20.9067C43.7166 20.6121 43.483 20.2624 43.3235 19.8775C43.1641 19.4926 43.082 19.0801 43.082 18.6634V4.74156C43.0865 3.90309 43.4227 3.10048 44.0172 2.50917C44.6117 1.91785 45.416 1.58593 46.2545 1.58594H50.0345C50.8759 1.58594 51.6829 1.92018 52.2778 2.51514C52.8728 3.1101 53.207 3.91704 53.207 4.75844V18.6634C53.207 19.5048 52.8728 20.3118 52.2778 20.9067C51.6829 21.5017 50.8759 21.8359 50.0345 21.8359ZM46.457 18.4609H49.832V4.96094H46.457V18.4609Z" fill="#2A2A2A"/>
</svg>
