<svg width="53" height="54" viewBox="0 0 53 54" fill="none" xmlns="http://www.w3.org/2000/svg">
<g clip-path="url(#clip0_4269_254441)">
<path d="M32.4267 14.6094C31.2868 14.6094 30.3516 15.5446 30.3516 16.6845V17.836L33.3561 14.8315C33.0755 14.6912 32.7599 14.6094 32.4267 14.6094Z" fill="#104B7A"/>
<path d="M28.8087 32.3381V30L27.2188 31.5899C27.7741 31.8296 28.3001 32.0751 28.8087 32.3381Z" fill="#104B7A"/>
<path d="M9.21875 25.2081C9.21875 27.6573 11.2237 29.6623 13.6729 29.6623H17.7062V20.7539H13.6729C11.2237 20.7539 9.21875 22.7589 9.21875 25.2081Z" fill="#104B7A"/>
<path d="M19.2578 28.9388L28.8092 19.3875V18.0781C26.2021 19.4343 22.9053 20.4513 19.2578 20.9833V28.9388Z" fill="#104B7A"/>
<path d="M14.9018 33.286L16.9827 31.2109H14.6562L14.9018 33.286Z" fill="#104B7A"/>
<path d="M30.3574 33.7235C30.3574 34.8634 31.2927 35.7986 32.4325 35.7986C33.5724 35.7986 34.5076 34.8634 34.5076 33.7235V24.3008L30.3516 28.4568V33.7294L30.3574 33.7235Z" fill="#104B7A"/>
<path d="M41.9257 30.5991L39.2076 29.0267C38.8218 28.8045 38.3308 28.9331 38.1087 29.3189C37.8866 29.7047 38.0152 30.1957 38.401 30.4179L41.119 31.9903C41.5048 32.2124 41.9959 32.0838 42.218 31.698C42.4401 31.3122 42.3115 30.8212 41.9257 30.5991Z" fill="#104B7A"/>
<path d="M26.5029 0.5C11.8661 0.5 0 12.3661 0 27.0029C0 41.6397 11.8661 53.5059 26.5029 53.5059C41.1397 53.5059 53.0059 41.6397 53.0059 27.0029C53.0059 12.3661 41.1339 0.5 26.5029 0.5ZM4.4191 27.0029C4.4191 14.8036 14.3036 4.9191 26.5029 4.9191C31.8047 4.9191 36.6739 6.78962 40.4792 9.90521L9.39936 40.9734C6.28378 37.168 4.41326 32.2988 4.41326 26.9971L4.4191 27.0029ZM26.5029 49.0868C21.2012 49.0868 16.332 47.2162 12.5266 44.1006L43.6006 13.0266C46.7162 16.832 48.5868 21.7012 48.5868 27.0029C48.5868 39.2022 38.7022 49.0868 26.5029 49.0868Z" fill="#F19620"/>
<path d="M43.7429 24.4023H40.7676C40.3233 24.4023 39.9609 24.7648 39.9609 25.209C39.9609 25.6533 40.3233 26.0157 40.7676 26.0157H43.7429C44.1871 26.0157 44.5496 25.6533 44.5496 25.209C44.5496 24.7648 44.1871 24.4023 43.7429 24.4023Z" fill="#104B7A"/>
<path d="M39.1998 21.3926L41.9179 19.8202C42.3037 19.5981 42.4323 19.1071 42.2102 18.7213C41.988 18.3355 41.497 18.2069 41.1112 18.429L38.3931 20.0014C38.0073 20.2235 37.8787 20.7145 38.1009 21.1003C38.323 21.4861 38.814 21.6147 39.1998 21.3926Z" fill="#104B7A"/>
<path d="M36.0547 23.0273V27.3821C36.873 26.9964 37.44 26.1663 37.44 25.2018C37.44 24.2373 36.873 23.4073 36.0547 23.0273Z" fill="#104B7A"/>
</g>
<defs>
<clipPath id="clip0_4269_254441">
<rect width="53" height="53" fill="white" transform="translate(0 0.5)"/>
</clipPath>
</defs>
</svg>
