<svg width="63" height="63" viewBox="0 0 63 63" fill="none" xmlns="http://www.w3.org/2000/svg">
<rect x="10.9844" y="30.9102" width="40.2835" height="27.029" rx="1" fill="#F19620"/>
<path d="M31.0078 0.308594C29.8549 0.308594 28.6664 0.918499 27.4398 1.83677C26.2132 2.75367 24.9606 4.01305 23.8199 5.45936C21.5399 8.35198 19.6816 11.9678 19.6816 15.181C19.6816 17.9072 20.7581 20.3318 22.3654 22.2857L16.5133 25.2124C15.6524 25.6436 14.7286 26.0447 13.9605 26.6573C13.1923 27.27 12.5878 28.1828 12.5878 29.3712V30.3263H11.9056C10.784 30.3263 9.85895 31.2514 9.85895 32.373V56.2507H5.76562V58.2974C5.76562 60.1749 7.29926 61.7085 9.17673 61.7085H52.8389C54.7164 61.7085 56.25 60.1749 56.25 58.2974V56.2507H52.1567V32.373C52.1567 31.2514 51.2316 30.3263 50.11 30.3263H49.4278V29.3712C49.4278 28.1828 48.8233 27.27 48.0552 26.656C47.287 26.0433 46.3633 25.6436 45.5023 25.2124L39.6502 22.2857C41.2575 20.3318 42.334 17.9072 42.334 15.181C42.334 11.9678 40.4757 8.35335 38.1957 5.45936C37.055 4.01305 35.8025 2.75368 34.5758 1.83541C33.3492 0.9185 32.1608 0.308594 31.0078 0.308594ZM31.0078 1.67304C31.6286 1.67304 32.6561 2.1042 33.7585 2.92832C34.8596 3.75245 36.0467 4.93815 37.1232 6.30532C39.2791 9.03693 40.9696 12.5176 40.9696 15.181C40.9696 17.8676 39.9053 20.2936 38.1793 22.0851L37.5339 22.755L44.8951 26.4322C45.7915 26.8811 46.6402 27.2741 47.2051 27.7257C47.7714 28.176 48.0633 28.5962 48.0633 29.3726V30.3263H13.9523V29.3712C13.9523 28.5962 14.2443 28.176 14.8105 27.7257C15.3754 27.2754 16.2241 26.8811 17.1205 26.4322L24.4817 22.755L23.8363 22.0865C22.0445 20.2346 21.0441 17.7578 21.0474 15.181C21.0474 12.5163 22.7393 9.03557 24.8937 6.30395C25.9703 4.93678 27.1574 3.75245 28.2585 2.92696C29.3609 2.10284 30.3884 1.67167 31.0092 1.67167L31.0078 1.67304ZM31.0078 7.40506C28.9458 7.40723 26.9689 8.22732 25.5108 9.68538C24.0527 11.1434 23.2327 13.1204 23.2305 15.1824C23.2305 17.3464 24.1583 20.0616 25.5473 22.3293C26.9363 24.5957 28.8029 26.5059 31.0078 26.5059C33.2128 26.5059 35.0793 24.5957 36.4683 22.328C37.8573 20.0603 38.7838 17.345 38.7838 15.1797C38.7838 10.8926 35.2949 7.40506 31.0078 7.40506ZM31.0078 8.7695C34.5581 8.7695 37.4207 11.6321 37.4207 15.1824C37.4207 16.9343 36.5747 19.5431 35.3031 21.6171C34.0328 23.691 32.3504 25.1428 31.0078 25.1428C29.6652 25.1428 27.9828 23.691 26.7125 21.6171C25.4409 19.5431 24.5963 16.9343 24.5963 15.181C24.5963 11.6321 27.4575 8.7695 31.0078 8.7695ZM11.9056 31.6908H50.11C50.5002 31.6908 50.7922 31.9828 50.7922 32.373V56.933C50.7922 57.3232 50.5002 57.6152 50.11 57.6152H11.9056C11.8154 57.6174 11.7257 57.6013 11.6419 57.5678C11.5581 57.5343 11.482 57.4842 11.4182 57.4204C11.3544 57.3566 11.3042 57.2804 11.2708 57.1967C11.2373 57.1129 11.2211 57.0232 11.2234 56.933V32.373C11.2234 31.9828 11.5154 31.6908 11.9056 31.6908ZM7.13007 57.6152H9.98721C10.2724 58.4038 11.0242 58.9796 11.9056 58.9796H50.11C50.9914 58.9796 51.7432 58.4038 52.0284 57.6152H54.8856V58.2974C54.8856 59.4435 53.985 60.3441 52.8389 60.3441H9.17673C8.0306 60.3441 7.13007 59.4435 7.13007 58.2974V57.6152Z" fill="#104B7A"/>
</svg>
