<svg width="605" height="515" viewBox="0 0 605 515" fill="none" xmlns="http://www.w3.org/2000/svg">
<path d="M298.929 386.177C277.716 373.877 260.209 360.105 245.738 345.539C224.667 324.326 210.103 301.467 200.066 279.115C170.288 212.753 180.689 151.029 180.689 151.029C180.689 151.029 193.479 163.346 235.81 157.867C280.057 152.168 298.927 132.586 298.927 132.586C298.927 132.586 317.798 152.168 362.044 157.867C404.376 163.346 417.166 151.029 417.166 151.029C417.166 151.029 442.733 302.782 298.927 386.177H298.929Z" fill="#F19620"/>
<g style="mix-blend-mode:overlay">
<path d="M364.028 220.731C364.028 224.752 362.493 228.788 359.422 231.859L303.38 287.916L294.5 296.797L245.742 345.539C224.671 324.326 210.107 301.467 200.07 279.115L238.443 240.742C244.585 234.6 254.543 234.6 260.668 240.742L283.369 263.443L337.192 209.619C343.32 203.492 353.277 203.492 359.417 209.619C359.798 209.999 360.161 210.395 360.494 210.805C362.852 213.688 364.025 217.217 364.025 220.731H364.028Z" fill="#4D4D4D"/>
</g>
<path d="M359.426 209.625C353.286 203.484 343.331 203.484 337.19 209.625L283.38 263.435L260.677 240.733C254.537 234.593 244.582 234.593 238.441 240.733C232.301 246.873 232.301 256.829 238.441 262.969L272.262 296.79C275.211 299.738 279.21 301.395 283.38 301.395C287.549 301.395 291.549 299.738 294.498 296.79L359.426 231.859C365.567 225.718 365.567 215.763 359.426 209.623V209.625Z" fill="white"/>
<path d="M298.94 372.964L297.687 372.188C258.928 348.138 230.1 316.409 212.001 277.884C191.381 233.994 189.595 191.865 190.367 170.658L190.47 167.81L193.253 168.427C205.353 171.107 220.166 171.348 237.274 169.139C266.257 165.401 286.09 155.472 297.625 147.797L298.94 146.922L300.255 147.797C311.788 155.472 331.619 165.401 360.593 169.139C377.706 171.348 392.52 171.107 404.618 168.427L407.402 167.81L407.505 170.658C408.276 191.865 406.49 233.996 385.871 277.89C367.772 316.416 338.946 348.143 300.191 372.191L298.938 372.966L298.94 372.964ZM195.031 173.631C194.543 195.17 196.978 234.734 216.299 275.861C233.805 313.125 261.608 343.907 298.94 367.368C336.268 343.909 364.066 313.129 381.574 275.866C400.896 234.736 403.331 195.17 402.843 173.631C390.76 175.885 376.36 175.958 359.987 173.843C331.172 170.127 311.06 160.426 298.942 152.607C286.82 160.426 266.706 170.127 237.884 173.843C221.511 175.956 207.116 175.885 195.033 173.631H195.031Z" fill="white"/>
<mask id="mask0_4269_254219" style="mask-type:luminance" maskUnits="userSpaceOnUse" x="74" y="26" width="457" height="457">
<path d="M530.462 26.543H74.5391V482.466H530.462V26.543Z" fill="white"/>
</mask>
<g mask="url(#mask0_4269_254219)">
<g opacity="0.2">
<path d="M298.928 387.095L298.53 386.865C278.405 375.195 260.454 361.48 245.175 346.1C225.92 326.714 210.499 304.287 199.343 279.441C183.909 245.047 179.447 211.942 178.42 190.226C177.306 166.688 179.881 151.056 179.907 150.902L180.154 149.434L181.235 150.461C181.362 150.581 194.38 162.437 235.71 157.087C279.125 151.495 298.171 132.235 298.358 132.042L298.928 131.453L299.497 132.042C299.684 132.235 318.731 151.497 362.146 157.087C403.469 162.432 416.491 150.581 416.618 150.461L417.697 149.436L417.947 150.902C418.011 151.282 424.231 189.554 412.743 237.518C405.995 265.693 394.548 291.662 378.723 314.706C358.941 343.506 332.228 367.786 299.323 386.867L298.926 387.097L298.928 387.095ZM181.272 152.505C180.691 156.745 179.082 170.724 180.002 190.151C181.022 211.73 185.456 244.624 200.787 278.792C211.866 303.464 227.178 325.734 246.299 344.985C261.378 360.165 279.084 373.714 298.928 385.264C331.446 366.335 357.852 342.296 377.418 313.806C393.134 290.923 404.503 265.132 411.204 237.146C421.411 194.54 417.555 159.662 416.582 152.505C412.636 155.314 397.842 163.296 361.944 158.654C322.077 153.519 302.42 136.914 298.928 133.682C295.435 136.914 275.778 153.519 235.912 158.654C199.998 163.303 185.216 155.312 181.272 152.505Z" fill="#F19620"/>
<path d="M299.306 404.037L299.014 403.919C272.277 393.134 248.898 377.795 229.52 358.329C207.196 335.889 190.331 308.491 179.387 276.892C165.907 237.961 164.144 203.135 165.038 180.774C165.909 159.069 168.866 141.593 170.977 139.483C172.043 138.419 174.057 138.78 178.067 139.5C185.693 140.871 201.565 143.721 229.731 139.339C261.26 134.357 280.794 123.391 291.289 117.502C295.384 115.205 297.853 113.816 299.287 113.816C300.72 113.816 303.19 115.203 307.282 117.5C317.777 123.391 337.311 134.355 368.843 139.339C397.008 143.721 412.878 140.871 420.504 139.502C424.517 138.782 426.53 138.421 427.596 139.485C433.225 145.116 441.734 187.024 431.979 239.184C425.778 272.338 412.12 303.775 392.478 330.095C369.081 361.446 337.831 386.28 299.594 403.908L299.306 404.042V404.037ZM173.053 140.271C172.543 140.271 172.187 140.345 172.013 140.516C170.596 141.933 167.456 157.025 166.502 180.832C165.612 203.066 167.364 237.699 180.771 276.413C191.64 307.801 208.391 335.014 230.558 357.296C249.723 376.549 272.838 391.737 299.269 402.443C337.154 384.926 368.116 360.292 391.306 329.216C410.815 303.072 424.381 271.846 430.541 238.911C440.204 187.243 432.032 145.988 426.56 140.516C426.034 139.99 423.824 140.39 420.764 140.938C413.059 142.322 397.026 145.202 368.617 140.781C336.825 135.756 317.142 124.709 306.568 118.773C302.951 116.744 300.338 115.276 299.289 115.276C298.24 115.276 295.626 116.744 292.007 118.773C281.433 124.707 261.75 135.756 229.961 140.779C201.552 145.198 185.516 142.32 177.811 140.936C175.761 140.568 174.091 140.267 173.055 140.267L173.053 140.271Z" fill="#F19620"/>
<path d="M299.665 421.01L299.452 420.948C266.798 411.406 237.201 393.979 213.858 370.559C188.059 344.654 169.749 312.289 159.439 274.368C147.926 232.019 148.854 194.966 151.659 171.339C154.376 148.463 158.268 132.045 161.821 128.494C164.305 126.01 168.931 125.967 177.33 125.887C187.081 125.797 201.818 125.659 223.751 121.589C250.72 116.585 270.113 107.724 282.946 101.859C290.887 98.2284 296.136 95.832 299.641 95.832C303.146 95.832 308.395 98.2284 316.339 101.859C329.172 107.722 348.564 116.583 375.533 121.589C397.464 125.659 412.201 125.795 421.955 125.887C430.352 125.964 434.979 126.007 437.464 128.492C448.554 139.582 459.5 184.8 451.208 240.859C445.5 279.47 429.948 315.644 406.237 345.471C379.488 379.122 342.708 405.216 299.875 420.931L299.667 421.008L299.665 421.01ZM162.773 129.444C159.476 132.741 155.64 149.249 152.996 171.498C150.204 195.005 149.282 231.873 160.738 274.015C170.985 311.709 189.176 343.872 214.813 369.609C237.945 392.819 267.265 410.101 299.617 419.594C342.127 403.956 378.63 378.039 405.182 344.635C428.744 314.993 444.199 279.04 449.873 240.663C458.098 185.041 447.397 140.332 436.509 129.444C434.414 127.349 429.718 127.303 421.94 127.232C412.141 127.142 397.333 127.005 375.286 122.913C348.156 117.879 328.671 108.975 315.78 103.084C308.277 99.6555 302.856 97.1775 299.641 97.1775C296.426 97.1775 291.005 99.6555 283.505 103.084C270.613 108.975 251.128 117.877 223.998 122.913C201.952 127.003 187.143 127.14 177.345 127.232C169.567 127.306 164.871 127.349 162.775 129.446L162.773 129.444Z" fill="#F19620"/>
<path d="M300.019 438.002L299.869 437.97C260.993 429.579 225.838 410.5 198.201 382.794C169.094 353.592 148.794 315.233 139.503 271.863C131.82 236.005 131.401 197.989 138.287 161.927C141.521 144.993 146.641 123.542 152.669 117.513C157.183 113 165.264 111.974 178.654 110.279C188.697 109.006 201.197 107.42 217.779 103.85C240.939 98.8639 258.833 91.7435 273.212 86.0244C285.125 81.2853 293.733 77.8594 300 77.8594C306.267 77.8594 314.875 81.2831 326.79 86.0244C341.169 91.7435 359.063 98.8639 382.222 103.85C398.803 107.42 411.301 109.004 421.346 110.279C434.736 111.974 442.817 113 447.331 117.513C463.71 133.894 477.375 183.286 470.435 242.558C465.275 286.635 447.834 327.541 420.001 360.857C389.484 397.385 348.046 424.047 300.172 437.963L300.024 438.006L300.019 438.002ZM299.998 79.0844C293.965 79.0844 285.45 82.4716 273.663 87.1613C260.003 92.5967 241.296 100.037 218.034 105.047C201.401 108.628 188.343 110.285 178.806 111.493C165.677 113.156 157.75 114.16 153.536 118.377C148.938 122.974 144.081 138.111 139.49 162.155C132.632 198.058 133.051 235.904 140.7 271.605C149.944 314.745 170.128 352.894 199.067 381.928C226.5 409.43 261.389 428.38 299.974 436.738C347.552 422.88 388.725 396.369 419.055 360.066C446.735 326.935 464.08 286.25 469.212 242.412C476.107 183.523 462.636 134.554 446.46 118.377C442.244 114.16 434.319 113.156 421.187 111.493C411.651 110.285 398.592 108.628 381.959 105.047C358.7 100.037 339.991 92.5967 326.333 87.1613C314.546 82.4716 306.029 79.0844 299.998 79.0844Z" fill="#F19620"/>
<path d="M300.378 454.996L300.273 454.979C255.852 447.871 214.043 426.579 182.548 395.023C149.598 361.99 127.821 318.538 119.573 269.364C113.082 230.664 114.881 191.352 124.916 152.518C131.338 127.664 137.422 112.619 143.52 106.522C150.715 99.3261 162.641 96.8266 182.399 92.685C190.852 90.9118 200.434 88.9044 211.812 86.1018C231.194 81.3284 247.347 75.491 261.599 70.3436C277.783 64.4976 290.564 59.8789 300.363 59.8789C310.161 59.8789 322.941 64.4976 339.124 70.3436C353.376 75.4932 369.53 81.3284 388.912 86.1018C400.29 88.9044 409.871 90.914 418.322 92.685C438.08 96.8287 450.008 99.3283 457.202 106.522C468.438 117.758 477.905 136.811 483.859 160.176C490.367 185.702 492.372 214.775 489.664 244.25C485.112 293.781 465.784 339.416 433.771 376.222C399.424 415.712 353.333 442.943 300.485 454.97L300.38 454.994L300.378 454.996ZM300.358 60.9858C290.756 60.9858 278.054 65.5744 261.973 71.3838C247.696 76.542 231.514 82.3879 212.074 87.1765C200.677 89.9834 191.087 91.9951 182.625 93.7682C163.067 97.8689 151.263 100.345 144.302 107.306C138.348 113.26 132.359 128.139 125.988 152.795C115.992 191.477 114.202 230.636 120.664 269.181C128.872 318.128 150.543 361.373 183.33 394.243C214.638 425.607 256.189 446.782 300.341 453.87C352.916 441.881 398.764 414.784 432.932 375.5C464.793 338.87 484.026 293.45 488.559 244.153C494.616 178.272 476.143 127.036 456.417 107.311C449.456 100.349 437.652 97.8732 418.094 93.7725C409.632 91.9994 400.043 89.9877 388.645 87.1807C369.205 82.3922 353.024 76.5463 338.746 71.3881C322.665 65.5787 309.963 60.9901 300.361 60.9901L300.358 60.9858Z" fill="#F19620"/>
<path d="M300.726 471.994L300.655 471.986C250.152 466.052 202.645 443.063 166.886 407.253C129.964 370.26 106.709 321.719 99.6381 266.873C94.3316 225.715 98.3356 184.077 111.538 143.121C119.574 118.192 126.828 103.07 134.363 95.535C145.077 84.8231 161.811 80.3011 189.539 72.8089C194.6 71.4398 200.025 69.9762 205.841 68.3556C220.984 64.1388 234.877 59.4105 247.134 55.2388C269.035 47.7852 286.334 41.8984 300.715 41.8984C315.095 41.8984 332.393 47.7852 354.296 55.2388C366.553 59.4105 380.445 64.1388 395.591 68.3556C401.407 69.9762 406.834 71.4419 411.895 72.8089C439.621 80.3011 456.355 84.8231 467.069 95.535C496.836 125.302 513.249 184.344 508.886 245.952C505.05 300.141 483.261 351.865 447.536 391.591C409.314 434.099 358.573 461.897 300.801 471.981L300.73 471.994H300.726ZM300.713 42.8849C286.498 42.8849 269.267 48.7481 247.45 56.1737C235.18 60.3497 221.275 65.0823 206.103 69.3077C200.285 70.9283 194.856 72.3941 189.792 73.7631C162.226 81.2124 145.587 85.7086 135.06 96.2356C127.638 103.657 120.462 118.652 112.476 143.424C99.3178 184.241 95.3267 225.734 100.616 266.746C107.659 321.373 130.817 369.718 167.584 406.554C203.171 442.189 250.444 465.074 300.698 470.993C358.22 460.936 408.74 433.25 446.797 390.929C482.375 351.364 504.074 299.851 507.896 245.881C512.239 184.546 495.935 125.807 466.364 96.2335C455.839 85.7065 439.199 81.2103 411.633 73.761C406.569 72.3919 401.14 70.9261 395.32 69.3056C380.149 65.0802 366.243 60.3475 353.971 56.1716C332.156 48.7481 314.926 42.8828 300.711 42.8828L300.713 42.8849Z" fill="#F19620"/>
<path d="M301.123 488.991C244.459 484.241 191.256 459.555 151.224 419.484C110.814 379.018 85.4146 323.94 79.704 264.39C75.5001 220.55 81.7093 176.592 98.1574 133.736C107.565 109.226 116.159 93.5965 125.206 84.5481C140.682 69.0714 164.229 61.7275 199.87 50.6073C209.662 47.5532 218.96 44.4476 227.95 41.4451C256.108 32.04 280.424 23.918 301.068 23.918C321.711 23.918 346.025 32.04 374.183 41.4451C383.173 44.4497 392.473 47.5532 402.265 50.6094C437.906 61.7275 461.453 69.0736 476.929 84.5503C511.956 119.577 531.565 182.077 528.105 247.659C524.965 307.197 501.242 363.771 461.302 406.958C419.772 451.867 362.888 481 301.123 488.991ZM125.82 85.165C116.864 94.123 108.332 109.656 98.9698 134.047C82.569 176.779 76.3791 220.604 80.5702 264.307C86.2614 323.656 111.573 378.548 151.839 418.869C191.725 458.794 244.734 483.39 301.102 488.125C362.57 480.164 419.27 451.128 460.66 406.367C500.461 363.329 524.103 306.948 527.232 247.611C530.678 182.268 511.167 120.021 476.31 85.1628C460.984 69.8387 437.521 62.5184 402 51.439C392.2 48.3807 382.898 45.275 373.901 42.2682C345.817 32.8889 321.563 24.7863 301.063 24.7863C280.564 24.7863 256.307 32.8889 228.223 42.2682C219.229 45.2729 209.927 48.3807 200.126 51.4369C164.61 62.5162 141.142 69.8387 125.816 85.1607L125.82 85.165Z" fill="#F19620"/>
<path d="M301.466 505.996C238.775 502.43 179.879 476.05 135.574 431.716C91.0701 387.166 64.1529 326.865 59.7835 261.912C56.637 215.151 65.0513 168.87 84.7878 124.354C95.2525 100.754 105.481 84.1399 116.059 73.5613C133.599 56.0213 157.888 45.3568 193.916 32.8611L199.962 30.7613C238.283 17.4402 271.379 5.9375 301.432 5.9375C331.484 5.9375 364.579 17.4402 402.902 30.7613L408.948 32.8611C444.975 45.3568 469.264 56.0213 486.804 73.5613C527.285 114.042 549.914 179.764 547.337 249.365C544.934 314.238 519.275 375.661 475.082 422.321C429.675 470.267 368.015 499.982 301.466 505.996ZM301.432 6.68974C271.508 6.68974 238.467 18.1753 200.209 31.4727L194.163 33.5725C158.238 46.0316 134.029 56.6554 116.592 74.0943C106.078 84.6063 95.9016 101.147 85.4756 124.66C65.7885 169.063 57.3957 215.224 60.5336 261.863C64.8923 326.633 91.7299 386.766 136.107 431.185C180.281 475.388 239.003 501.691 301.455 505.246C367.768 499.249 429.256 469.615 474.538 421.805C518.604 375.276 544.191 314.027 546.587 249.337C549.158 179.94 526.61 114.427 486.273 74.0922C468.836 56.6554 444.627 46.0295 408.703 33.5703L402.657 31.4705C364.398 18.1731 331.358 6.68758 301.434 6.68758L301.432 6.68974Z" fill="#F19620"/>
<path d="M301.799 523.004C233.075 520.625 168.488 492.549 119.909 443.951C71.2433 395.255 42.811 329.731 39.8472 259.444C37.7431 209.53 48.3582 160.927 71.4002 114.987C82.8514 92.1581 94.4637 75.0135 106.897 62.5801C125.54 43.9398 149.779 29.744 187.949 15.1205C224.757 1.0172 264.024 -12.0352 301.78 -12.0352C339.536 -12.0352 378.802 1.0172 415.61 15.1205C453.781 29.7461 478.02 43.9398 496.662 62.5801C518.669 84.5863 536.666 112.937 548.711 144.563C561.417 177.926 567.418 213.764 566.552 251.084C564.92 321.276 537.324 387.55 488.846 437.692C439.544 488.687 373.113 518.987 301.797 523.008L301.799 523.004ZM107.346 63.025C94.9602 75.4111 83.3866 92.4998 71.9655 115.269C48.9729 161.112 38.3771 209.61 40.4769 259.414C43.4343 329.542 71.8021 394.918 120.356 443.499C168.821 491.986 233.258 519.995 301.791 522.37C372.92 518.357 439.2 488.128 488.392 437.247C536.759 387.219 564.291 321.098 565.918 251.065C567.624 177.567 542.218 109.03 496.213 63.025C477.64 44.4491 453.465 30.2985 415.382 15.7073C378.632 1.62544 339.432 -11.4054 301.78 -11.4054C264.127 -11.4054 224.927 1.62544 188.177 15.7073C150.095 30.3007 125.922 44.4513 107.346 63.025Z" fill="#F19620"/>
<path d="M302.145 540.005C227.384 538.815 157.108 509.044 104.249 456.176C51.3712 403.284 21.4215 332.537 19.917 256.969C18.8725 204.435 32.0473 152.097 58.0166 105.615C70.0352 84.1079 83.4014 65.9296 97.7454 51.5855C119.653 29.6761 147.212 11.9406 181.996 -2.63777C225.546 -21.0654 264.845 -30.0234 302.136 -30.0234C339.428 -30.0234 378.727 -21.0654 422.277 -2.63777C457.06 11.9384 484.62 29.6761 506.527 51.5855C531.572 76.6306 551.234 106.6 564.961 140.654C579.2 175.975 586.202 213.703 585.772 252.789C584.943 328.292 555.412 399.411 502.618 453.045C449.403 507.107 378.207 537.99 302.141 540.003L302.145 540.005ZM302.139 -29.5076C264.918 -29.5076 225.683 -20.5625 182.198 -2.16279C147.475 12.3876 119.971 30.0888 98.1108 51.9487C83.8011 66.2605 70.4629 84.4001 58.468 105.865C32.5417 152.267 19.3904 204.515 20.4328 256.957C21.933 332.391 51.8311 403.011 104.614 455.811C157.378 508.584 227.528 538.301 302.143 539.49C378.065 537.48 449.136 506.651 502.257 452.686C554.956 399.146 584.435 328.152 585.263 252.783C586.103 176.257 557.275 103.056 506.168 51.9487C484.308 30.0888 456.802 12.3876 422.079 -2.16279C378.591 -20.5646 339.359 -29.5076 302.139 -29.5076Z" fill="#F19620"/>
<path d="M302.498 557.01C261.66 557.01 222.043 549.013 184.75 533.237C148.726 518.001 116.376 496.189 88.5948 468.407C60.8136 440.626 39.001 408.276 23.765 372.252C7.98952 334.961 -0.0078125 295.344 -0.0078125 254.506C-0.0078125 213.668 7.98952 174.051 23.765 136.758C39.001 100.736 60.8115 68.3837 88.5948 40.6026C116.376 12.8215 148.728 -8.99123 184.75 -24.2272C222.043 -40.0027 261.66 -48 302.498 -48C343.336 -48 382.953 -40.0027 420.247 -24.2272C456.268 -8.99123 488.621 12.8215 516.402 40.6026C544.183 68.3837 565.996 100.734 581.232 136.758C597.005 174.053 605.004 213.668 605.004 254.506C605.004 295.344 597.007 334.961 581.232 372.255C565.996 408.278 544.183 440.628 516.402 468.41C488.621 496.191 456.268 518.003 420.247 533.239C382.953 549.013 343.336 557.012 302.498 557.012V557.01ZM302.498 -47.6045C221.803 -47.6045 145.937 -16.1804 88.8742 40.882C31.8117 97.9422 0.387648 173.808 0.387648 254.506C0.387648 335.204 31.8117 411.07 88.8742 468.13C145.937 525.19 221.803 556.617 302.498 556.617C383.194 556.617 459.06 525.193 516.122 468.13C573.183 411.07 604.609 335.202 604.609 254.506C604.609 173.811 573.185 97.9422 516.122 40.882C459.06 -16.1804 383.194 -47.6045 302.498 -47.6045Z" fill="white"/>
</g>
</g>
</svg>
