<svg width="48" height="36" viewBox="0 0 48 36" fill="none" xmlns="http://www.w3.org/2000/svg">
<g clip-path="url(#clip0_4419_3665)">
<path d="M14.0073 0.839859C13.7434 0.838821 13.482 0.88972 13.238 0.989531C12.994 1.08934 12.7723 1.23605 12.5857 1.42137C12.3991 1.60669 12.2512 1.82686 12.1507 2.06919C12.0502 2.31151 11.999 2.57127 12 2.83335C12.0009 3.0942 12.0535 3.35229 12.1549 3.59293C12.2563 3.83358 12.4045 4.05205 12.5909 4.23582C12.7773 4.4196 12.9983 4.56509 13.2413 4.664C13.4844 4.7629 13.7447 4.81321 14.0073 4.81218H39.9993C42.2315 4.81218 43.9992 6.5677 43.9992 8.7845V27.5174C43.9992 29.7342 42.2315 31.4751 39.9993 31.4751H20.6788C20.4149 31.4741 20.1534 31.525 19.9094 31.6248C19.6654 31.7246 19.4437 31.8713 19.2571 32.0566C19.0705 32.2419 18.9227 32.4621 18.8222 32.7044C18.7216 32.9468 18.6704 33.2065 18.6714 33.4686C18.6723 33.7295 18.7249 33.9875 18.8263 34.2282C18.9277 34.4688 19.0759 34.6873 19.2623 34.8711C19.4487 35.0548 19.6697 35.2003 19.9128 35.2992C20.1558 35.3981 20.4161 35.4485 20.6788 35.4474H39.9993C44.3928 35.4474 47.9991 31.8805 47.9991 27.5174V8.7845C47.9991 4.42145 44.3928 0.839859 39.9993 0.839859H14.0073Z" fill="#2D324F"/>
<path d="M7.26366 21.2468C3.25852 21.3488 0 24.6461 0 28.6466V31.4776C0 33.6475 1.81783 35.4491 4.00279 35.4491H21.342C23.5269 35.4491 25.3447 33.6475 25.3447 31.4776V28.6466C25.3447 24.5826 21.982 21.2468 17.8898 21.2468H7.45496C7.39103 21.2468 7.32721 21.2451 7.26366 21.2468Z" fill="#FC5185"/>
<path d="M12.8338 0.766392C8.39484 0.878065 4.74992 4.48638 4.75 8.89919C4.75 13.3819 8.51045 17.0201 13.0447 17.0201C17.5789 17.0201 21.3275 13.3819 21.3275 8.89919C21.3275 4.41636 17.5789 0.766392 13.0447 0.766392C12.9738 0.766392 12.9043 0.764666 12.8338 0.766392Z" fill="#FC5185"/>
<path d="M26.0073 16.1563C25.7434 16.1553 25.482 16.2061 25.238 16.3059C24.994 16.4057 24.7722 16.5525 24.5856 16.7378C24.399 16.9232 24.2512 17.1433 24.1507 17.3856C24.0502 17.628 23.999 17.8877 24 18.1498C24.0009 18.4107 24.0536 18.6688 24.155 18.9094C24.2564 19.15 24.4045 19.3685 24.5909 19.5523C24.7773 19.736 24.9983 19.8814 25.2413 19.9803C25.4844 20.0792 25.7447 20.1297 26.0073 20.1286H37.9923C38.255 20.1297 38.5153 20.0792 38.7583 19.9803C39.0014 19.8814 39.2224 19.736 39.4088 19.5523C39.5952 19.3685 39.7433 19.15 39.8446 18.9094C39.946 18.6688 39.9987 18.4107 39.9996 18.1498C40.0007 17.8877 39.9494 17.628 39.8489 17.3856C39.7484 17.1433 39.6006 16.9232 39.414 16.7378C39.2274 16.5525 39.0057 16.4057 38.7616 16.3059C38.5176 16.2061 38.2562 16.1553 37.9923 16.1563H26.0073Z" fill="#FC5185"/>
<path d="M26.0073 8.84377C25.7447 8.84273 25.4844 8.89305 25.2413 8.99195C24.9983 9.09085 24.7773 9.23635 24.5909 9.42012C24.4045 9.60389 24.2563 9.82237 24.1549 10.063C24.0535 10.3037 24.0009 10.5617 24 10.8226C23.999 11.0847 24.0502 11.3444 24.1507 11.5868C24.2512 11.8291 24.3991 12.0493 24.5857 12.2346C24.7723 12.4199 24.994 12.5666 25.238 12.6664C25.482 12.7662 25.7434 12.8171 26.0073 12.8161H37.9923C38.2562 12.8171 38.5176 12.7662 38.7616 12.6664C39.0057 12.5666 39.2274 12.4199 39.414 12.2346C39.6006 12.0493 39.7484 11.8291 39.8489 11.5868C39.9494 11.3444 40.0007 11.0847 39.9996 10.8226C39.9987 10.5617 39.9461 10.3037 39.8448 10.063C39.7434 9.82237 39.5952 9.60389 39.4088 9.42012C39.2224 9.23635 39.0014 9.09085 38.7583 8.99195C38.5152 8.89305 38.255 8.84273 37.9923 8.84377H26.0073Z" fill="#FC5185"/>
<path d="M31.5707 23.4883C31.0428 23.4901 30.537 23.6992 30.1637 24.0699C29.7904 24.4406 29.58 24.9429 29.5781 25.4671C29.5771 25.728 29.6278 25.9865 29.7274 26.2279C29.8269 26.4692 29.9735 26.6887 30.1585 26.8738C30.3435 27.059 30.5636 27.206 30.8059 27.3067C31.0482 27.4074 31.3081 27.4597 31.5707 27.4606H37.9912C38.2551 27.4617 38.5166 27.4108 38.7606 27.3109C39.0046 27.2111 39.2263 27.0643 39.4129 26.879C39.5995 26.6937 39.7473 26.4735 39.8478 26.2312C39.9484 25.9889 39.9996 25.7292 39.9986 25.4671C39.9976 25.2063 39.945 24.9482 39.8436 24.7075C39.7422 24.4669 39.5941 24.2484 39.4077 24.0647C39.2213 23.8809 39.0003 23.7355 38.7572 23.6366C38.5142 23.5377 38.2539 23.4873 37.9912 23.4883H31.5707Z" fill="#FC5185"/>
</g>
<defs>
<clipPath id="clip0_4419_3665">
<rect width="48" height="36" fill="white"/>
</clipPath>
</defs>
</svg>
