<svg width="67" height="54" viewBox="0 0 67 54" fill="none" xmlns="http://www.w3.org/2000/svg">
<path d="M52.0095 50.4805H14.6707C14.4124 50.4805 14.2031 50.6898 14.2031 50.948V53.0745C14.2031 53.3328 14.4124 53.5421 14.6707 53.5421H52.0095C52.2677 53.5421 52.477 53.3328 52.477 53.0745V50.948C52.477 50.6898 52.2677 50.4805 52.0095 50.4805Z" fill="#FC5185"/>
<path d="M64.3777 0.457031H2.30807C1.69606 0.457031 1.1091 0.7001 0.676279 1.13279C0.243454 1.56547 0.000196472 2.15235 0 2.76436V39.8276C0 40.4397 0.243171 41.0268 0.676017 41.4596C1.10886 41.8924 1.69593 42.1356 2.30807 42.1356H30.6591V48.6805H36.0273V42.1356H64.3777C64.9898 42.1356 65.5769 41.8924 66.0097 41.4596C66.4426 41.0268 66.6857 40.4397 66.6857 39.8276V2.76436C66.6855 2.15235 66.4423 1.56547 66.0095 1.13279C65.5766 0.7001 64.9897 0.457031 64.3777 0.457031ZM63.5182 38.9673H3.16831V3.62386H63.5182V38.9673Z" fill="#FC5185"/>
<path d="M50.4189 24.6516L47.1699 23.2527C47.1382 23.2387 47.1033 23.2341 47.0691 23.2393L42.8775 23.9929C42.8187 22.8183 42.6125 21.6558 42.264 20.5326L47.0061 17.2406C47.0459 17.2115 47.0726 17.1678 47.0802 17.1191L47.8019 13.1676C47.8297 13.079 47.8384 12.9855 47.8273 12.8933C47.8162 12.8012 47.7857 12.7124 47.7377 12.6329C47.6897 12.5534 47.6254 12.4851 47.549 12.4323C47.4726 12.3796 47.3859 12.3437 47.2945 12.327C47.2032 12.3104 47.1094 12.3133 47.0193 12.3357C46.9292 12.358 46.8449 12.3993 46.7719 12.4567C46.6989 12.5141 46.639 12.5863 46.5961 12.6687C46.5532 12.751 46.5283 12.8415 46.523 12.9342L45.8836 16.4329L41.792 19.2723C40.1923 15.5386 37.0121 12.992 33.3452 12.992C29.6656 12.992 26.4743 15.5586 24.8813 19.3167L20.9172 16.5663L20.2777 13.0675C20.2724 12.9748 20.2475 12.8843 20.2046 12.802C20.1617 12.7197 20.1018 12.6474 20.0288 12.59C19.9559 12.5326 19.8715 12.4914 19.7814 12.469C19.6913 12.4467 19.5975 12.4438 19.5062 12.4604C19.4149 12.4771 19.3281 12.513 19.2517 12.5657C19.1753 12.6184 19.111 12.6868 19.063 12.7663C19.015 12.8458 18.9845 12.9345 18.9734 13.0267C18.9624 13.1189 18.971 13.2124 18.9988 13.3009L19.7205 17.2524C19.7281 17.3012 19.7548 17.3449 19.7946 17.3739L24.4152 20.58C24.0753 21.6903 23.8742 22.8384 23.8165 23.9981L19.602 23.2438C19.5678 23.2385 19.5328 23.2432 19.5012 23.2571L16.2521 24.656C16.0938 24.7242 15.9691 24.8525 15.9054 25.0126C15.8417 25.1728 15.8442 25.3517 15.9124 25.51C15.9806 25.6683 16.1089 25.793 16.269 25.8567C16.4292 25.9204 16.6081 25.9179 16.7663 25.8497L19.7035 24.5849L23.8084 25.3199C23.8511 26.485 24.038 27.6403 24.3648 28.7594L19.7961 31.9292C19.7563 31.9583 19.7296 32.002 19.722 32.0507L19.0003 36.0022C18.9725 36.0908 18.9639 36.1843 18.9749 36.2765C18.986 36.3686 19.0165 36.4574 19.0645 36.5369C19.1125 36.6164 19.1768 36.6847 19.2532 36.7375C19.3296 36.7902 19.4163 36.8261 19.5077 36.8428C19.599 36.8594 19.6928 36.8565 19.7829 36.8341C19.873 36.8118 19.9574 36.7705 20.0303 36.7131C20.1033 36.6557 20.1632 36.5835 20.2061 36.5011C20.249 36.4188 20.2739 36.3283 20.2792 36.2356L20.9186 32.7369L24.8212 30.0272C26.3906 33.8713 29.6197 36.5105 33.3511 36.5105C37.1011 36.5105 40.3449 33.8431 41.9054 29.9687L45.888 32.7324L46.5275 36.2312C46.5327 36.3239 46.5577 36.4144 46.6006 36.4967C46.6435 36.579 46.7034 36.6513 46.7763 36.7087C46.8493 36.7661 46.9336 36.8073 47.0237 36.8297C47.1138 36.852 47.2077 36.855 47.299 36.8383C47.3903 36.8216 47.4771 36.7857 47.5535 36.733C47.6299 36.6803 47.6942 36.6119 47.7422 36.5324C47.7901 36.453 47.8207 36.3642 47.8317 36.272C47.8428 36.1798 47.8341 36.0864 47.8063 35.9978L47.0846 32.0463C47.077 31.9976 47.0504 31.9539 47.0106 31.9248L42.3507 28.6913C42.6668 27.5905 42.848 26.4555 42.8901 25.311L46.9705 24.5805L49.9077 25.8453C50.066 25.9134 50.2449 25.916 50.405 25.8523C50.5652 25.7885 50.6934 25.6638 50.7616 25.5055C50.8298 25.3472 50.8323 25.1683 50.7686 25.0082C50.7049 24.8481 50.5802 24.7198 50.4219 24.6516H50.4189Z" fill="#2D324F"/>
<path d="M24.0971 5.81843H24.106C25.4593 5.93265 26.7554 6.41524 27.8539 7.21383C28.9524 8.01242 29.8113 9.09655 30.3374 10.3486C29.7882 10.6934 29.316 11.1477 28.9503 11.6832C28.5845 12.2186 28.3331 12.8237 28.2116 13.4606C29.7177 12.4027 31.5133 11.8351 33.3538 11.8351C35.1943 11.8351 36.99 12.4027 38.496 13.4606C38.376 12.8279 38.1276 12.2264 37.7662 11.6934C37.4048 11.1603 36.938 10.7069 36.3947 10.3612C36.9187 9.1054 37.7773 8.0175 38.877 7.21608C39.9767 6.41465 41.2753 5.93044 42.6313 5.81621H42.6402C42.7588 5.81621 42.8725 5.76909 42.9564 5.68523C43.0402 5.60137 43.0873 5.48764 43.0873 5.36904C43.0873 5.25044 43.0402 5.13671 42.9564 5.05285C42.8725 4.96899 42.7588 4.92188 42.6402 4.92188H42.6313L42.5972 4.92632C42.579 4.92745 42.561 4.92968 42.5431 4.93299C41.0427 5.06418 39.6056 5.59813 38.3836 6.47847C37.1616 7.3588 36.2 8.55282 35.6004 9.93442C34.8952 9.62968 34.1353 9.47161 33.3671 9.46982C32.5989 9.46804 31.8383 9.62258 31.1317 9.92405C30.5307 8.54509 29.5689 7.35371 28.3478 6.47536C27.1266 5.59701 25.6912 5.06418 24.1927 4.93299C24.1748 4.92968 24.1567 4.92745 24.1386 4.92632L24.1045 4.92188H24.0956C23.977 4.92188 23.8633 4.96899 23.7794 5.05285C23.6955 5.13671 23.6484 5.25044 23.6484 5.36904C23.6484 5.48764 23.6955 5.60137 23.7794 5.68523C23.8633 5.76909 23.977 5.81621 24.0956 5.81621L24.0971 5.81843Z" fill="#2D324F"/>
</svg>
