<svg width="72" height="40" viewBox="0 0 72 40" fill="none" xmlns="http://www.w3.org/2000/svg">
<path d="M67.8393 19.2286C65.2041 14.238 61.3751 9.87318 56.7663 6.60558C50.6714 2.28413 43.4906 0 36 0C28.5094 0 21.3286 2.28413 15.2337 6.60543C10.6249 9.87304 6.796 14.238 4.16071 19.2285C1.43871 24.3834 0 30.2112 0 36.082C0 36.3953 0.255857 36.6494 0.571429 36.6494H9.93H32.1273C32.4029 38.5417 34.0343 40 36 40C37.9657 40 39.5973 38.5417 39.8727 36.6494H62.07H71.4286C71.7441 36.6494 72 36.3953 72 36.082C72 30.2112 70.5613 24.3834 67.8393 19.2286ZM55.6671 7.22675L51.351 14.2573C46.8464 11.0652 41.553 9.38081 36 9.38081C30.447 9.38081 25.1534 11.0652 20.649 14.2575L16.3329 7.22675C22.1383 3.24009 28.9263 1.13483 36 1.13483C43.0737 1.13483 49.8617 3.24009 55.6671 7.22675ZM36 38.8652C34.4719 38.8652 33.2286 37.6166 33.2286 36.082C33.2286 34.9774 33.882 33.9773 34.8934 33.5342C35.1006 33.4435 35.2343 33.2399 35.2343 33.0151V29.217V29.2157V25.9868V25.9855V24.1766V24.1753V20.9465V20.9452V15.3089C35.2343 14.8835 35.5777 14.5373 36 14.5373C36.4223 14.5373 36.7657 14.8835 36.7657 15.3089V20.9469V20.9482V24.1756V24.1769V25.9858V25.9871V29.216V29.2172V33.0154C36.7657 33.2402 36.8994 33.4439 37.1066 33.5344C38.118 33.9776 38.7714 34.9777 38.7714 36.0823C38.7714 37.6167 37.5281 38.8652 36 38.8652ZM34.0914 25.6913L28.8557 29.253C27.2939 30.3155 25.3339 30.4602 23.6126 29.64C21.9679 28.8564 20.9053 27.3265 20.77 25.5472C20.7576 25.3858 20.7516 25.2333 20.7516 25.0811C20.7516 24.931 20.7577 24.7742 20.77 24.6147C20.9053 22.8361 21.9683 21.3065 23.613 20.5226C25.3344 19.7024 27.2941 19.8471 28.8557 20.9091L34.0914 24.471V25.6913ZM37.9086 24.4711L43.1443 20.9093C44.7059 19.8472 46.6656 19.7027 48.387 20.5227C50.0319 21.3065 51.0947 22.8362 51.23 24.6152C51.2423 24.7744 51.2484 24.9313 51.2484 25.0812C51.2484 25.2334 51.2424 25.3859 51.23 25.5479C51.0947 27.3266 50.032 28.8564 48.3874 29.6401C46.6664 30.4605 44.7061 30.3158 43.1443 29.2531L37.9086 25.6915V24.4711ZM39.8719 35.5146C39.6961 34.3165 38.9729 33.2601 37.9086 32.6653V30.297L41.0016 32.4012C42.5129 33.4273 44.27 33.9698 46.0843 33.9698C50.8307 33.9682 54.6759 30.471 55.0281 25.8362C55.0473 25.5925 55.057 25.3384 55.057 25.0812C55.057 24.8245 55.0473 24.5701 55.0281 24.3265C54.6756 19.6902 50.8304 16.1942 46.0841 16.1942C44.267 16.1942 42.5097 16.7362 41.0027 17.7617L37.9086 19.8668V15.309C37.9086 14.2579 37.0524 13.4027 36 13.4027C34.9476 13.4027 34.0914 14.2579 34.0914 15.309V19.8655L30.9986 17.7615C29.4899 16.7361 27.7324 16.1942 25.9159 16.1942C21.1694 16.1942 17.3243 19.6909 16.9719 24.3264C16.9527 24.5701 16.943 24.8242 16.943 25.0812C16.943 25.338 16.9527 25.5925 16.9719 25.836C17.3246 30.4729 21.1697 33.9698 25.9159 33.9698C27.731 33.9698 29.4887 33.4273 30.9989 32.4009L34.0914 30.297V32.6653C33.0273 33.2601 32.3039 34.3165 32.1281 35.5146H10.5079C10.6843 27.6631 14.5133 20.2277 20.8269 15.5332C25.2396 12.2507 30.4863 10.5156 36 10.5156C41.5137 10.5156 46.7604 12.2507 51.1733 15.5333C57.4867 20.2278 61.3157 27.6632 61.4921 35.5146H39.8719Z" fill="#FC5185"/>
</svg>
