<svg width="451" height="301" viewBox="0 0 451 301" fill="none" xmlns="http://www.w3.org/2000/svg">
<g clip-path="url(#clip0_4269_290293)">
<path d="M439.725 0.364925H223.293C217.286 0.364925 212.414 5.23802 212.414 11.2488V166.177C212.414 172.188 217.284 177.061 223.293 177.061H450.604V11.2472C450.604 5.23637 445.734 0.363281 439.725 0.363281V0.364925Z" fill="white"/>
<path d="M450.606 177.421H223.295C217.097 177.421 212.055 172.375 212.055 166.173V11.2456C212.055 5.04408 217.097 0 223.295 0H439.729C445.927 0 450.969 5.04572 450.969 11.2456V177.057C450.969 177.258 450.807 177.419 450.608 177.419L450.606 177.421ZM223.295 0.725045C217.497 0.725045 212.78 5.44524 212.78 11.2472V166.175C212.78 171.977 217.497 176.697 223.295 176.697H450.244V11.2456C450.244 5.44359 445.528 0.723401 439.729 0.723401H223.295V0.725045Z" fill="#2D324F"/>
<path d="M436.062 170.817H226.11C222.439 170.817 219.453 167.83 219.453 164.157V13.2618C219.453 9.58888 222.44 6.60156 226.11 6.60156H436.908C440.579 6.60156 443.564 9.58888 443.564 13.2618V163.31C443.564 167.45 440.199 170.817 436.061 170.817H436.062ZM226.11 7.32661C222.838 7.32661 220.178 9.99004 220.178 13.2618V164.157C220.178 167.43 222.84 170.092 226.11 170.092H436.062C439.799 170.092 442.841 167.05 442.841 163.31V13.2618C442.841 9.9884 440.179 7.32661 436.909 7.32661H226.11Z" fill="#2D324F"/>
<path d="M433.125 194.309H185.805C176.148 194.309 168.32 186.48 168.32 176.824H450.611C450.611 186.482 442.782 194.309 433.126 194.309H433.125Z" fill="white"/>
<path d="M433.121 194.671H185.801C175.96 194.671 167.953 186.664 167.953 176.823C167.953 176.622 168.116 176.461 168.315 176.461H450.606C450.806 176.461 450.967 176.624 450.967 176.823C450.967 186.664 442.961 194.671 433.119 194.671H433.121ZM168.681 177.186C168.875 186.462 176.479 193.946 185.801 193.946H433.121C442.441 193.946 450.047 186.46 450.241 177.186H168.681Z" fill="#2D324F"/>
<path d="M425.945 154.434V21.3906L236.233 21.3906V154.434H425.945Z" fill="#F4ECE8"/>
<path d="M387.238 59.0078H275.18V76.6802H387.238V59.0078Z" fill="white"/>
<path d="M292.844 59.0078H275.18V76.6802H292.844V59.0078Z" fill="#FC5185"/>
<path d="M287.309 64.8506C287.311 62.9556 285.777 61.4175 283.883 61.4152C281.989 61.4129 280.452 62.9472 280.45 64.8422C280.447 66.7372 281.981 68.2753 283.875 68.2776C285.769 68.2799 287.306 66.7456 287.309 64.8506Z" fill="white"/>
<path d="M288.064 74.1179V72.7994C288.064 70.5042 286.187 68.625 283.891 68.625C281.596 68.625 279.719 70.5042 279.719 72.7994V74.1179H288.064Z" fill="white"/>
<path d="M304.18 72C306.044 72 307.555 70.4881 307.555 68.6231C307.555 66.758 306.044 65.2461 304.18 65.2461C302.316 65.2461 300.805 66.758 300.805 68.6231C300.805 70.4881 302.316 72 304.18 72Z" fill="#E2EAFF"/>
<path d="M313.024 72C314.888 72 316.399 70.4881 316.399 68.6231C316.399 66.758 314.888 65.2461 313.024 65.2461C311.16 65.2461 309.648 66.758 309.648 68.6231C309.648 70.4881 311.16 72 313.024 72Z" fill="#E2EAFF"/>
<path d="M321.953 72C323.818 72 325.329 70.4881 325.329 68.6231C325.329 66.758 323.818 65.2461 321.953 65.2461C320.089 65.2461 318.578 66.758 318.578 68.6231C318.578 70.4881 320.089 72 321.953 72Z" fill="#E2EAFF"/>
<path d="M331.055 72C332.919 72 334.43 70.4881 334.43 68.6231C334.43 66.758 332.919 65.2461 331.055 65.2461C329.191 65.2461 327.68 66.758 327.68 68.6231C327.68 70.4881 329.191 72 331.055 72Z" fill="#E2EAFF"/>
<path d="M340.422 72C342.286 72 343.798 70.4881 343.798 68.6231C343.798 66.758 342.286 65.2461 340.422 65.2461C338.558 65.2461 337.047 66.758 337.047 68.6231C337.047 70.4881 338.558 72 340.422 72Z" fill="#E2EAFF"/>
<path d="M387.238 83.2773H275.18V100.95H387.238V83.2773Z" fill="white"/>
<path d="M292.844 83.2773H275.18V100.95H292.844V83.2773Z" fill="#FC5185"/>
<path d="M304.524 95.5352C306.388 95.5352 307.899 94.0233 307.899 92.1582C307.899 90.2932 306.388 88.7812 304.524 88.7812C302.66 88.7812 301.148 90.2932 301.148 92.1582C301.148 94.0233 302.66 95.5352 304.524 95.5352Z" fill="#E2EAFF"/>
<path d="M313.368 95.5352C315.232 95.5352 316.743 94.0233 316.743 92.1582C316.743 90.2932 315.232 88.7812 313.368 88.7812C311.503 88.7812 309.992 90.2932 309.992 92.1582C309.992 94.0233 311.503 95.5352 313.368 95.5352Z" fill="#E2EAFF"/>
<path d="M322.297 95.5352C324.161 95.5352 325.673 94.0233 325.673 92.1582C325.673 90.2932 324.161 88.7812 322.297 88.7812C320.433 88.7812 318.922 90.2932 318.922 92.1582C318.922 94.0233 320.433 95.5352 322.297 95.5352Z" fill="#E2EAFF"/>
<path d="M331.399 95.5352C333.263 95.5352 334.774 94.0233 334.774 92.1582C334.774 90.2932 333.263 88.7812 331.399 88.7812C329.535 88.7812 328.023 90.2932 328.023 92.1582C328.023 94.0233 329.535 95.5352 331.399 95.5352Z" fill="#E2EAFF"/>
<path d="M340.766 95.5352C342.63 95.5352 344.141 94.0233 344.141 92.1582C344.141 90.2932 342.63 88.7812 340.766 88.7812C338.902 88.7812 337.391 90.2932 337.391 92.1582C337.391 94.0233 338.902 95.5352 340.766 95.5352Z" fill="#E2EAFF"/>
<path d="M350.453 95.5352C352.318 95.5352 353.829 94.0233 353.829 92.1582C353.829 90.2932 352.318 88.7812 350.453 88.7812C348.589 88.7812 347.078 90.2932 347.078 92.1582C347.078 94.0233 348.589 95.5352 350.453 95.5352Z" fill="#E2EAFF"/>
<path d="M359.297 95.5352C361.161 95.5352 362.672 94.0233 362.672 92.1582C362.672 90.2932 361.161 88.7812 359.297 88.7812C357.433 88.7812 355.922 90.2932 355.922 92.1582C355.922 94.0233 357.433 95.5352 359.297 95.5352Z" fill="#E2EAFF"/>
<path d="M368.227 95.5352C370.091 95.5352 371.602 94.0233 371.602 92.1582C371.602 90.2932 370.091 88.7812 368.227 88.7812C366.363 88.7812 364.852 90.2932 364.852 92.1582C364.852 94.0233 366.363 95.5352 368.227 95.5352Z" fill="#E2EAFF"/>
<path d="M281.896 91.6201L281.955 88.9995C281.981 88.1527 282.737 87.4556 283.686 87.4129C284.732 87.3652 285.596 88.1248 285.567 89.057V91.7319C285.559 92.0164 286.724 92.1002 286.729 91.8388L286.66 89.1096C286.706 87.6102 285.366 86.3853 283.632 86.456C282.198 86.5136 280.881 87.6464 280.838 89.0159L280.789 91.6629L281.896 91.6185V91.6201Z" fill="white"/>
<path d="M283.684 98.1581C285.841 98.1581 287.844 96.7984 287.632 94.1235L287.602 91.1493C287.6 90.9175 287.421 90.7383 287.193 90.7383H280.712C280.394 90.7383 280.13 91.0096 280.133 91.3302L280.166 94.6331C280.185 96.6176 281.724 98.1581 283.686 98.1581H283.684Z" fill="white"/>
<path d="M283.89 96.0121C284.066 96.0121 284.214 95.8608 284.212 95.6833L284.196 93.0511C284.196 92.8883 284.069 92.7617 283.908 92.7617C283.732 92.7617 283.584 92.913 283.586 93.0905L283.602 95.7227C283.602 95.8855 283.729 96.0121 283.89 96.0121Z" fill="#FC5185"/>
<path d="M284.803 94.003C285.207 93.5039 285.153 92.7905 284.682 92.4096C284.211 92.0287 283.502 92.1245 283.098 92.6236C282.694 93.1227 282.749 93.8361 283.22 94.217C283.691 94.5979 284.4 94.5021 284.803 94.003Z" fill="#FC5185"/>
<path d="M402.382 187.406H344.569C339.957 187.406 336.219 191.147 336.219 195.762V251.051C336.219 259.883 341.166 267.972 349.026 271.992L374.498 285.016L398.395 272.107C405.996 268.001 410.732 260.055 410.732 251.414V195.762C410.732 191.147 406.994 187.406 402.382 187.406Z" fill="#FC5185"/>
<path d="M352.293 265.594C346.807 262.789 343.398 257.216 343.398 251.052V195.763C343.398 195.118 343.923 194.594 344.566 194.594H402.379C403.023 194.594 403.546 195.118 403.546 195.763V251.415C403.546 257.424 400.263 262.931 394.979 265.785L374.404 276.899L352.295 265.592L352.293 265.594Z" fill="white"/>
<path d="M389.766 228.969H357.193C355.968 228.969 354.977 229.962 354.977 231.187V240.969C354.977 249.321 361.744 256.091 370.092 256.091H376.868C385.215 256.091 391.983 249.321 391.983 240.969V231.187C391.983 229.962 390.99 228.969 389.767 228.969H389.766Z" fill="#2D324F"/>
<path d="M386.683 226.378C385.931 226.378 385.323 225.768 385.323 225.017V220.422C385.323 215.041 380.948 210.664 375.57 210.664H371.386C366.008 210.664 361.633 215.041 361.633 220.422V225.017C361.633 225.768 361.025 226.378 360.274 226.378C359.522 226.378 358.914 225.768 358.914 225.017V220.422C358.914 213.541 364.511 207.941 371.388 207.941H375.572C382.451 207.941 388.046 213.54 388.046 220.422V225.017C388.046 225.768 387.437 226.378 386.686 226.378H386.683Z" fill="#2D324F"/>
<path d="M376.819 238.071C376.819 236.227 375.324 234.73 373.48 234.73C371.635 234.73 370.141 236.227 370.141 238.071C370.141 239.336 370.843 240.435 371.878 241.003V247.441C371.878 248.325 372.595 249.042 373.48 249.042C374.364 249.042 375.081 248.325 375.081 247.441V241.003C376.117 240.435 376.819 239.336 376.819 238.071Z" fill="white"/>
<path d="M442.282 282.984H398.12C397.919 282.984 397.758 282.821 397.758 282.622C397.758 282.423 397.921 282.261 398.12 282.261H441.92V258.655C441.92 258.454 442.083 258.293 442.282 258.293C442.48 258.293 442.643 258.456 442.643 258.655V282.622C442.643 282.823 442.48 282.984 442.282 282.984Z" fill="#FC5185"/>
<path d="M442.286 235.641C444.024 235.641 445.431 234.232 445.431 232.492C445.431 230.753 444.024 229.344 442.286 229.344C440.548 229.344 439.141 230.753 439.141 232.492C439.141 234.232 440.55 235.641 442.286 235.641Z" fill="white"/>
<path d="M442.282 236.001C440.348 236.001 438.773 234.426 438.773 232.491C438.773 230.556 440.347 228.98 442.282 228.98C444.217 228.98 445.789 230.556 445.789 232.491C445.789 234.426 444.215 236.001 442.282 236.001ZM442.282 229.706C440.748 229.706 439.498 230.955 439.498 232.491C439.498 234.026 440.746 235.276 442.282 235.276C443.818 235.276 445.065 234.026 445.065 232.491C445.065 230.955 443.818 229.706 442.282 229.706Z" fill="#2D324F"/>
<path d="M442.286 244.828C444.024 244.828 445.431 243.419 445.431 241.68C445.431 239.94 444.024 238.531 442.286 238.531C440.548 238.531 439.141 239.94 439.141 241.68C439.141 243.419 440.55 244.828 442.286 244.828Z" fill="white"/>
<path d="M442.282 245.188C440.348 245.188 438.773 243.613 438.773 241.678C438.773 239.743 440.347 238.168 442.282 238.168C444.217 238.168 445.789 239.743 445.789 241.678C445.789 243.613 444.215 245.188 442.282 245.188ZM442.282 238.893C440.748 238.893 439.498 240.143 439.498 241.678C439.498 243.214 440.746 244.463 442.282 244.463C443.818 244.463 445.065 243.214 445.065 241.678C445.065 240.143 443.818 238.893 442.282 238.893Z" fill="#2D324F"/>
<path d="M442.286 254.016C444.024 254.016 445.431 252.607 445.431 250.867C445.431 249.128 444.024 247.719 442.286 247.719C440.548 247.719 439.141 249.128 439.141 250.867C439.141 252.607 440.55 254.016 442.286 254.016Z" fill="white"/>
<path d="M442.282 254.376C440.348 254.376 438.773 252.801 438.773 250.866C438.773 248.931 440.347 247.355 442.282 247.355C444.217 247.355 445.789 248.931 445.789 250.866C445.789 252.801 444.215 254.376 442.282 254.376ZM442.282 248.079C440.748 248.079 439.498 249.328 439.498 250.864C439.498 252.4 440.746 253.649 442.282 253.649C443.818 253.649 445.065 252.4 445.065 250.864C445.065 249.328 443.818 248.079 442.282 248.079Z" fill="#2D324F"/>
<path d="M442.283 225.661C442.084 225.661 441.921 225.5 441.921 225.301L441.742 197.674C441.742 197.473 441.902 197.31 442.102 197.309H442.104C442.303 197.309 442.466 197.47 442.466 197.669L442.645 225.296C442.645 225.497 442.485 225.659 442.285 225.661H442.283Z" fill="#FC5185"/>
<path d="M349.399 283.02H255.354C255.153 283.02 254.992 282.858 254.992 282.659C254.992 282.46 255.155 282.297 255.354 282.297H349.399C349.6 282.297 349.761 282.46 349.761 282.659C349.761 282.858 349.598 283.02 349.399 283.02Z" fill="#FC5185"/>
<path d="M109.414 118.966L98.0471 152.213C97.3205 154.337 95.5152 155.912 93.3105 156.341L88.25 157.326C88.25 157.326 101.408 185.902 123.583 181.116C145.759 176.329 140.881 157.326 140.881 157.326L136.19 156.946C133.382 156.72 131.457 154.013 132.16 151.284L137.433 130.853C137.433 130.853 115.946 113.526 109.413 118.968L109.414 118.966Z" fill="white"/>
<path d="M118.678 182.006C111.201 182.006 103.908 178.354 97.3379 171.26C91.3073 164.748 87.9567 157.548 87.9238 157.476C87.8777 157.376 87.8794 157.259 87.9304 157.159C87.9813 157.06 88.075 156.989 88.1835 156.968L93.2441 155.983C95.314 155.58 97.0238 154.091 97.7061 152.095L109.073 118.848C109.095 118.786 109.133 118.73 109.184 118.687C115.868 113.12 136.776 129.854 137.663 130.569C137.773 130.658 137.822 130.804 137.786 130.942L132.513 151.373C132.204 152.57 132.438 153.836 133.156 154.842C133.873 155.848 134.991 156.483 136.222 156.583L140.913 156.963C141.067 156.976 141.196 157.085 141.235 157.234C141.317 157.552 143.183 165.093 138.943 171.952C136.002 176.712 130.861 179.915 123.661 181.468C121.996 181.828 120.332 182.006 118.678 182.006ZM88.7836 157.589C89.586 159.207 92.7525 165.246 97.8804 170.78C103.344 176.677 112.227 183.193 123.509 180.758C130.507 179.247 135.492 176.156 138.327 171.569C141.985 165.649 140.87 159.018 140.589 157.662L136.165 157.303C134.72 157.187 133.408 156.442 132.567 155.26C131.726 154.078 131.451 152.593 131.814 151.189L137.028 130.986C134.945 129.341 115.739 114.439 109.726 119.18L98.3934 152.328C97.6272 154.569 95.7069 156.243 93.3838 156.695L88.7853 157.589H88.7836Z" fill="#2D324F"/>
<path d="M153.891 79.7483C155.832 89.3399 150.629 94.9463 144.172 96.5493C143.944 96.6052 143.714 96.6561 143.49 96.7055C143.352 97.1806 144.339 98.6291 144.123 99.0976C141.583 104.656 134.316 107.361 128.213 106.807C126.444 108.701 124.139 111.338 121.696 114.672C113.892 125.319 108.353 120.532 100.244 109.99C99.1638 108.586 97.6085 106.795 96.7996 103.823C95.1966 97.9205 97.9702 92.6067 98.3236 91.954C100.969 87.0579 103.632 85.9005 111.859 82.2095C122.096 77.6175 124.596 68.4665 134.627 66.0201C144.388 63.6378 152.358 72.1739 153.892 79.7516L153.891 79.7483Z" fill="#2D324F"/>
<path d="M117.161 124.133C117.161 124.133 122.667 136.854 137.09 134.504C151.514 132.155 152.238 111.998 150.95 92.4961C149.508 94.3391 146.21 96.0177 143.662 97.1012C133.288 101.514 123.671 97.2705 122.299 96.5291C124.77 99.5673 124.775 103.691 122.693 106.484C121.544 108.025 119.89 109.138 116.061 109.203C116.061 109.203 113.721 103.094 108.281 106.64C102.839 110.187 104.863 125.149 117.162 124.133H117.161Z" fill="white"/>
<path d="M133.651 135.155C122.675 135.155 117.723 126.104 116.939 124.514C111.599 124.865 107.422 122.175 105.746 117.284C104.267 112.965 105.292 108.156 108.081 106.339C109.774 105.236 111.366 104.912 112.809 105.381C114.874 106.051 115.972 108.126 116.296 108.838C120.056 108.726 121.456 107.541 122.401 106.27C124.471 103.493 124.313 99.5818 122.016 96.7605C121.908 96.6257 121.908 96.435 122.018 96.3002C122.128 96.167 122.317 96.1292 122.468 96.2131C125.212 97.6911 134.342 100.673 143.519 96.7704C147.026 95.2792 149.563 93.6828 150.664 92.2755C150.757 92.1571 150.913 92.1094 151.057 92.1521C151.2 92.1965 151.302 92.3248 151.312 92.4744C152.606 112.083 151.937 132.455 137.148 134.864C135.92 135.065 134.756 135.155 133.651 135.155ZM117.159 123.771C117.303 123.771 117.434 123.857 117.492 123.99C117.546 124.115 123.062 136.423 137.032 134.147C151.036 131.865 151.84 112.394 150.643 93.377C148.963 95.0293 146.066 96.4728 143.804 97.4346C134.725 101.297 126.394 98.6562 123.348 97.4034C125.091 100.345 124.99 104.006 122.981 106.701C121.955 108.077 120.333 109.492 116.065 109.566C115.903 109.563 115.775 109.476 115.719 109.335C115.709 109.31 114.703 106.755 112.581 106.068C111.356 105.673 109.975 105.967 108.475 106.946C105.952 108.59 105.054 113.027 106.432 117.049C108.018 121.682 112.02 124.197 117.13 123.775C117.14 123.775 117.15 123.775 117.159 123.775V123.771Z" fill="#2D324F"/>
<path d="M116.311 118.747C116.16 118.747 116.02 118.654 115.967 118.502C115.65 117.574 115.321 116.613 114.752 115.821C114.146 114.976 113.328 114.46 112.51 114.404C112.311 114.391 112.16 114.216 112.173 114.017C112.186 113.817 112.36 113.669 112.559 113.68C113.595 113.751 114.608 114.379 115.341 115.398C115.972 116.278 116.317 117.289 116.653 118.267C116.717 118.456 116.617 118.662 116.428 118.728C116.388 118.741 116.349 118.747 116.311 118.747Z" fill="#2D324F"/>
<path d="M119.799 103.859C119.799 103.859 122.148 114.066 127.235 118.342C132.322 122.617 139.633 114.054 151.078 115.269C151.078 115.269 151.678 131.275 149.093 135.23C145.832 140.225 119.954 141.933 116.922 124.57C116.922 124.57 119.676 116.215 115.82 109.64L119.799 103.859Z" fill="#2D324F"/>
<path d="M145.044 105.498C145.559 108.862 148.117 111.262 150.759 110.858C153.401 110.453 155.126 107.399 154.611 104.033C154.096 100.669 151.538 98.2689 148.896 98.6734C146.254 99.0778 144.529 102.133 145.044 105.498Z" fill="white"/>
<path d="M150.173 111.263C148.999 111.263 147.842 110.775 146.858 109.854C145.721 108.786 144.95 107.258 144.688 105.552C144.144 101.996 146.008 98.7485 148.843 98.3145C150.234 98.1024 151.638 98.5857 152.8 99.6758C153.938 100.743 154.709 102.272 154.97 103.978C155.515 107.535 153.65 110.782 150.816 111.216C150.602 111.249 150.387 111.265 150.171 111.265L150.173 111.263ZM145.405 105.442C145.642 106.989 146.334 108.368 147.355 109.325C148.351 110.259 149.542 110.675 150.707 110.497C153.147 110.124 154.738 107.248 154.255 104.087C154.018 102.54 153.326 101.16 152.305 100.204C151.309 99.268 150.117 98.8521 148.953 99.0313C146.513 99.4045 144.922 102.282 145.405 105.442Z" fill="#2D324F"/>
<path d="M134.544 114.466C133.324 114.466 132.124 114.069 131.079 113.307C129.725 112.32 128.795 110.839 128.456 109.135C127.754 105.607 129.842 102.207 133.109 101.556C134.697 101.237 136.322 101.612 137.683 102.605C139.036 103.592 139.966 105.073 140.305 106.776C141.007 110.304 138.919 113.704 135.652 114.355C135.284 114.429 134.913 114.466 134.544 114.466ZM134.214 102.173C133.893 102.173 133.569 102.204 133.25 102.268C130.375 102.84 128.543 105.857 129.166 108.994C129.469 110.52 130.299 111.843 131.506 112.721C132.703 113.593 134.125 113.921 135.513 113.645C138.388 113.073 140.22 110.056 139.597 106.919C139.294 105.394 138.462 104.07 137.257 103.192C136.338 102.521 135.284 102.173 134.215 102.173H134.214Z" fill="#2D324F"/>
<path d="M139.947 107.208C139.883 107.208 139.819 107.192 139.761 107.157C139.59 107.054 139.534 106.832 139.638 106.661C140.414 105.369 141.35 104.644 142.417 104.504C144.024 104.298 145.295 105.512 145.348 105.563C145.491 105.702 145.494 105.931 145.356 106.076C145.216 106.219 144.988 106.222 144.845 106.084C144.835 106.074 143.763 105.058 142.505 105.224C141.67 105.334 140.914 105.944 140.259 107.034C140.192 107.148 140.072 107.21 139.949 107.21L139.947 107.208Z" fill="#2D324F"/>
<path d="M128.81 109.424C128.797 109.424 128.784 109.424 128.771 109.422L118.426 108.314C118.227 108.293 118.082 108.113 118.104 107.914C118.125 107.716 118.299 107.569 118.503 107.592L128.848 108.7C129.047 108.722 129.191 108.901 129.17 109.1C129.15 109.286 128.992 109.424 128.81 109.424Z" fill="#2D324F"/>
<path d="M188.37 172.439C181.81 163.574 171.785 157.94 160.807 156.927C154.555 156.35 146.716 155.737 137.971 155.289C137.489 156.865 136.817 158.389 135.944 159.827C133.41 164 129.439 167.212 125.017 169.207C120.591 171.201 115.637 172.105 110.802 171.52C106.065 170.948 101.561 168.931 98.2872 165.402C95.6188 162.527 92.4178 159.051 91.599 155.281C83.6663 155.73 77.4154 156.388 69.9693 157.555C55.7594 159.781 43.5224 168.391 35.7607 180.508C18.8282 206.939 0 234.842 0 267.032C0 303.63 19.3691 301.438 87.8176 300.451C163.066 299.366 173.437 300.451 173.437 300.451L187.435 300.586H198.424L227.709 300.547C227.709 300.547 211.144 203.212 188.37 172.439Z" fill="#FC5185"/>
<path d="M80.0124 294.499C79.3662 298.866 87.6771 298.854 87.6771 298.854H114.323L152.915 296.753C152.915 296.753 156.071 245.145 100.919 251.22C100.919 251.22 84.2755 265.706 80.0124 294.499Z" fill="white"/>
<path d="M124.298 295.989C124.28 295.989 124.264 295.989 124.246 295.986C124.047 295.958 123.91 295.774 123.94 295.575C124.351 292.758 123.69 289.63 122.082 286.764C120.734 284.364 118.743 282.101 115.992 279.847C115.468 279.417 114.902 278.974 114.264 278.695C114.08 278.614 113.998 278.401 114.077 278.218C114.157 278.034 114.371 277.95 114.554 278.031C115.275 278.346 115.887 278.823 116.451 279.287C119.272 281.598 121.321 283.928 122.713 286.409C124.4 289.413 125.089 292.706 124.657 295.678C124.63 295.859 124.476 295.989 124.298 295.989Z" fill="#2D324F"/>
<path d="M136.906 295.266C136.728 295.266 136.574 295.137 136.548 294.956C136.074 291.615 135.393 287.707 133.935 284.05C132.426 280.267 130.21 277.176 127.525 275.115C127.365 274.993 127.336 274.766 127.459 274.607C127.581 274.447 127.809 274.418 127.967 274.541C130.754 276.683 133.051 279.879 134.609 283.784C136.095 287.511 136.786 291.472 137.266 294.855C137.294 295.054 137.156 295.237 136.959 295.265C136.942 295.266 136.924 295.268 136.908 295.268L136.906 295.266Z" fill="#2D324F"/>
<path d="M147.008 295.267C146.993 295.267 146.978 295.267 146.965 295.264C146.766 295.241 146.625 295.06 146.648 294.861C148.349 280.597 139.006 271.698 138.912 271.609C138.766 271.472 138.758 271.244 138.894 271.096C139.031 270.949 139.259 270.941 139.407 271.078C139.504 271.168 149.115 280.304 147.369 294.947C147.348 295.131 147.19 295.266 147.009 295.266L147.008 295.267Z" fill="#2D324F"/>
<path d="M34.4399 252.496C34.2426 252.496 34.0815 252.338 34.0782 252.141C34.0749 251.94 34.2344 251.776 34.4333 251.771L98.0548 250.562C98.2521 250.574 98.4198 250.719 98.4247 250.918C98.428 251.118 98.2685 251.283 98.0696 251.288L34.4481 252.496H34.4415H34.4399Z" fill="#2D324F"/>
<path d="M54.9811 251.648C54.9466 251.648 54.9121 251.643 54.8759 251.633C54.6836 251.576 54.5751 251.373 54.6326 251.183C56.6894 244.33 60.5941 233.691 64.8276 226.255C65.625 224.854 66.8992 223.008 68.7932 223.008C68.8261 223.008 68.8573 223.008 68.8902 223.009C69.0908 223.016 69.247 223.184 69.2404 223.384C69.2338 223.585 69.0677 223.751 68.8655 223.734C67.3118 223.693 66.1758 225.354 65.4573 226.615C61.2534 233.999 57.3733 244.577 55.328 251.391C55.2804 251.549 55.1373 251.65 54.9811 251.65V251.648Z" fill="#2D324F"/>
<path d="M227.053 294.503C227.699 298.87 219.388 298.858 219.388 298.858H192.742L154.15 296.757C154.15 296.757 150.994 245.149 206.147 251.224C206.147 251.224 222.79 265.71 227.053 294.503Z" fill="white"/>
<path d="M182.774 295.994C182.596 295.994 182.442 295.864 182.416 295.683C181.982 292.709 182.672 289.417 184.359 286.414C185.752 283.933 187.8 281.603 190.621 279.291C191.185 278.829 191.795 278.353 192.519 278.035C192.703 277.953 192.916 278.039 192.995 278.221C193.076 278.405 192.992 278.619 192.808 278.698C192.17 278.977 191.604 279.42 191.08 279.85C188.329 282.104 186.338 284.367 184.99 286.767C183.382 289.633 182.723 292.761 183.132 295.578C183.162 295.777 183.024 295.961 182.827 295.989C182.809 295.992 182.792 295.992 182.774 295.992V295.994Z" fill="#2D324F"/>
<path d="M170.159 295.271C170.142 295.271 170.124 295.271 170.108 295.268C169.909 295.24 169.773 295.055 169.801 294.858C170.281 291.476 170.971 287.516 172.457 283.787C174.014 279.882 176.311 276.686 179.1 274.544C179.257 274.422 179.486 274.452 179.608 274.609C179.729 274.769 179.7 274.996 179.542 275.118C176.857 277.179 174.641 280.27 173.131 284.053C171.673 287.71 170.992 291.618 170.519 294.958C170.493 295.139 170.338 295.269 170.161 295.269L170.159 295.271Z" fill="#2D324F"/>
<path d="M160.056 295.27C159.876 295.27 159.719 295.135 159.696 294.951C157.95 280.31 167.56 271.172 167.659 271.082C167.805 270.945 168.034 270.953 168.172 271.1C168.308 271.246 168.3 271.475 168.154 271.613C168.06 271.701 158.717 280.601 160.418 294.865C160.441 295.064 160.3 295.245 160.101 295.268C160.086 295.27 160.071 295.271 160.058 295.271L160.056 295.27Z" fill="#2D324F"/>
<path d="M272.624 252.496H272.617L208.996 251.288C208.795 251.284 208.636 251.118 208.641 250.918C208.644 250.72 208.807 250.562 209.002 250.562H209.009L272.631 251.771C272.831 251.774 272.991 251.94 272.986 252.141C272.982 252.338 272.82 252.496 272.624 252.496Z" fill="#2D324F"/>
<path d="M252.081 251.649C251.925 251.649 251.782 251.547 251.734 251.391C249.689 244.576 245.808 233.998 241.604 226.615C240.885 225.354 239.746 223.693 238.195 223.734C238 223.752 237.827 223.585 237.821 223.384C237.814 223.184 237.97 223.016 238.171 223.009C240.119 222.948 241.421 224.831 242.233 226.255C246.467 233.691 250.372 244.331 252.428 251.182C252.486 251.373 252.377 251.575 252.185 251.633C252.15 251.643 252.114 251.648 252.08 251.648L252.081 251.649Z" fill="#2D324F"/>
<path d="M200.763 300.365H52.6563C51.5778 300.365 50.7031 299.49 50.7031 298.41V298.463C50.7031 297.384 51.5778 296.508 52.6563 296.508H200.763C201.841 296.508 202.716 297.382 202.716 298.463V298.41C202.716 299.489 201.841 300.365 200.763 300.365Z" fill="white"/>
<path d="M200.764 300.729H52.657C51.4091 300.729 50.3881 299.736 50.3438 298.499C50.3438 298.488 50.3438 298.476 50.3438 298.465V298.412C50.3438 298.401 50.3438 298.389 50.3438 298.378C50.3898 297.141 51.4091 296.148 52.657 296.148H200.764C202.011 296.148 203.032 297.141 203.077 298.378C203.077 298.389 203.077 298.401 203.077 298.412V298.465C203.077 298.476 203.077 298.488 203.077 298.499C203.031 299.736 202.011 300.729 200.764 300.729ZM51.0655 298.439C51.0787 299.303 51.7873 300.004 52.6553 300.004H200.762C201.63 300.004 202.339 299.303 202.352 298.439C202.339 297.574 201.63 296.873 200.762 296.873H52.657C51.7889 296.873 51.0803 297.574 51.0672 298.439H51.0655Z" fill="#2D324F"/>
<path d="M197.884 294H184.102V296.364H197.884V294Z" fill="#2D324F"/>
<path d="M179.509 294H165.727V296.364H179.509V294Z" fill="#2D324F"/>
<path d="M161.134 294H147.352V296.364H161.134V294Z" fill="#2D324F"/>
<path d="M142.751 294H128.969V296.364H142.751V294Z" fill="#2D324F"/>
<path d="M124.376 294H110.594V296.364H124.376V294Z" fill="#2D324F"/>
<path d="M106.001 294H92.2188V296.364H106.001V294Z" fill="#2D324F"/>
<path d="M87.6262 294H73.8438V296.364H87.6262V294Z" fill="#2D324F"/>
<path d="M69.2512 294H55.4688V296.364H69.2512V294Z" fill="#2D324F"/>
<path d="M244.943 255.556V287.756C244.943 292.137 242.597 296.184 238.796 298.359L234.727 300.687H198.172L204.046 298.068C208.449 296.105 211.287 291.735 211.287 286.911V255.555H244.945L244.943 255.556Z" fill="#2D324F"/>
<path d="M302.506 161.316H151.554C147.567 161.316 144.336 164.548 144.336 168.534V249.047C144.336 253.033 147.567 256.264 151.554 256.264H302.506C306.492 256.264 309.724 253.033 309.724 249.047V168.534C309.724 164.548 306.492 161.316 302.506 161.316Z" fill="#2D324F"/>
<path d="M249.112 255.509H220.807C220.606 255.509 220.445 255.346 220.445 255.147C220.445 254.948 220.608 254.785 220.807 254.785H249.112C249.312 254.785 249.473 254.948 249.473 255.147C249.473 255.346 249.311 255.509 249.112 255.509Z" fill="white"/>
<path d="M152.838 249.602C152.638 249.602 152.477 249.439 152.477 249.24V168.342C152.477 168.142 152.639 167.98 152.838 167.98C153.037 167.98 153.2 168.143 153.2 168.342V249.24C153.2 249.44 153.037 249.602 152.838 249.602Z" fill="white"/>
<path d="M301.22 226.137H274.58C274.38 226.137 274.219 225.975 274.219 225.776C274.219 225.577 274.382 225.414 274.58 225.414H301.22C301.42 225.414 301.581 225.577 301.581 225.776C301.581 225.975 301.419 226.137 301.22 226.137Z" fill="white"/>
<path d="M301.22 230.239H274.58C274.38 230.239 274.219 230.076 274.219 229.877C274.219 229.678 274.382 229.516 274.58 229.516H301.22C301.42 229.516 301.581 229.678 301.581 229.877C301.581 230.076 301.419 230.239 301.22 230.239Z" fill="white"/>
<path d="M301.22 234.341H274.58C274.38 234.341 274.219 234.178 274.219 233.979C274.219 233.78 274.382 233.617 274.58 233.617H301.22C301.42 233.617 301.581 233.78 301.581 233.979C301.581 234.178 301.419 234.341 301.22 234.341Z" fill="white"/>
<path d="M301.22 238.442H274.58C274.38 238.442 274.219 238.279 274.219 238.08C274.219 237.882 274.382 237.719 274.58 237.719H301.22C301.42 237.719 301.581 237.882 301.581 238.08C301.581 238.279 301.419 238.442 301.22 238.442Z" fill="white"/>
<path d="M185.342 44.2026C185.142 44.2026 184.981 44.0398 184.981 43.8409L184.961 19.0743C184.961 18.9773 184.999 18.8852 185.066 18.8178C185.134 18.7504 185.227 18.7109 185.323 18.7109H223.959C224.159 18.7109 224.321 18.8737 224.321 19.0726C224.321 19.2716 224.158 19.4343 223.959 19.4343H185.686L185.706 43.8393C185.706 44.0398 185.545 44.2026 185.344 44.2026H185.342Z" fill="#2D324F"/>
<path d="M185.32 57.0021C188.443 57.0021 190.975 54.4693 190.975 51.3448C190.975 48.2204 188.443 45.6875 185.32 45.6875C182.196 45.6875 179.664 48.2204 179.664 51.3448C179.664 54.4693 182.196 57.0021 185.32 57.0021Z" fill="#E2EAFF"/>
<path d="M185.32 73.5139C188.443 73.5139 190.975 70.981 190.975 67.8565C190.975 64.7321 188.443 62.1992 185.32 62.1992C182.196 62.1992 179.664 64.7321 179.664 67.8565C179.664 70.981 182.196 73.5139 185.32 73.5139Z" fill="#E2EAFF"/>
<path d="M185.32 90.0256C188.443 90.0256 190.975 87.4927 190.975 84.3683C190.975 81.2438 188.443 78.7109 185.32 78.7109C182.196 78.7109 179.664 81.2438 179.664 84.3683C179.664 87.4927 182.196 90.0256 185.32 90.0256Z" fill="#E2EAFF"/>
</g>
<defs>
<clipPath id="clip0_4269_290293">
<rect width="450.97" height="300.869" fill="white"/>
</clipPath>
</defs>
</svg>
