<svg width="522" height="509" viewBox="0 0 522 509" fill="none" xmlns="http://www.w3.org/2000/svg">
<g clip-path="url(#clip0_4269_289927)">
<path d="M23.4864 156.357C23.4864 156.502 23.483 156.647 23.4769 156.792H0.509554C0.503389 156.646 0.5 156.5 0.5 156.354C0.5 150.011 5.6448 144.867 11.9932 144.867C18.3415 144.867 23.4864 150.011 23.4864 156.357Z" fill="#EBEAE9" stroke="#E7D7CF"/>
<path d="M62.8848 156.357C62.8848 156.503 62.8814 156.649 62.8752 156.795H39.908C39.9018 156.649 39.8984 156.503 39.8984 156.357C39.8984 150.011 45.0433 144.867 51.3916 144.867C57.74 144.867 62.8848 150.011 62.8848 156.357Z" fill="#EBEAE9" stroke="#E7D7CF"/>
<path d="M73.0956 156.799H57.1609C57.1526 156.654 57.1484 156.508 57.1484 156.361C57.1484 151.955 60.721 148.383 65.1288 148.383C69.5366 148.383 73.1091 151.955 73.1091 156.361C73.1091 156.507 73.1043 156.653 73.0956 156.799Z" fill="#EBEAE9" stroke="#E7D7CF"/>
<path d="M49.1953 155.061C49.1953 155.647 49.1656 156.226 49.1075 156.797H15.1425C15.0844 156.226 15.0547 155.647 15.0547 155.061C15.0547 145.638 22.6984 137.996 32.125 137.996C41.5516 137.996 49.1953 145.638 49.1953 155.061Z" fill="#EBEAE9" stroke="#E7D7CF"/>
<path d="M319.002 19.3607C319.002 19.5074 318.999 19.6532 318.992 19.799H296.025C296.019 19.6532 296.016 19.5074 296.016 19.3607C296.016 13.0147 301.16 7.87109 307.509 7.87109C313.857 7.87109 319.002 13.0147 319.002 19.3607Z" fill="#EBEAE9" stroke="#E7D7CF"/>
<path d="M358.4 19.3607C358.4 19.5074 358.397 19.6532 358.391 19.799H335.424C335.417 19.6532 335.414 19.5074 335.414 19.3607C335.414 13.0147 340.559 7.87109 346.907 7.87109C353.256 7.87109 358.4 13.0147 358.4 19.3607Z" fill="#EBEAE9" stroke="#E7D7CF"/>
<path d="M344.711 18.0651C344.711 18.6512 344.681 19.2297 344.623 19.8007H310.658C310.6 19.2297 310.57 18.6512 310.57 18.0651C310.57 8.64166 318.214 1 327.641 1C337.067 1 344.711 8.64166 344.711 18.0651Z" fill="#EBEAE9" stroke="#E7D7CF"/>
<path d="M256.456 157.974H252.134C251.814 157.974 251.555 157.714 251.555 157.394C251.555 157.075 251.814 156.815 252.134 156.815H256.456C256.776 156.815 257.035 157.075 257.035 157.394C257.035 157.714 256.776 157.974 256.456 157.974ZM247.813 157.974H243.491C243.171 157.974 242.912 157.714 242.912 157.394C242.912 157.075 243.171 156.815 243.491 156.815H247.813C248.133 156.815 248.392 157.075 248.392 157.394C248.392 157.714 248.133 157.974 247.813 157.974ZM239.169 157.974H234.848C234.528 157.974 234.268 157.714 234.268 157.394C234.268 157.075 234.528 156.815 234.848 156.815H239.169C239.489 156.815 239.749 157.075 239.749 157.394C239.749 157.714 239.489 157.974 239.169 157.974ZM230.526 157.974H226.204C225.884 157.974 225.625 157.714 225.625 157.394C225.625 157.075 225.884 156.815 226.204 156.815H230.526C230.846 156.815 231.105 157.075 231.105 157.394C231.105 157.714 230.846 157.974 230.526 157.974ZM221.883 157.974H217.561C217.241 157.974 216.982 157.714 216.982 157.394C216.982 157.075 217.241 156.815 217.561 156.815H221.883C222.203 156.815 222.462 157.075 222.462 157.394C222.462 157.714 222.203 157.974 221.883 157.974ZM213.239 157.974H208.918C208.598 157.974 208.338 157.714 208.338 157.394C208.338 157.075 208.598 156.815 208.918 156.815H213.239C213.559 156.815 213.819 157.075 213.819 157.394C213.819 157.714 213.559 157.974 213.239 157.974ZM204.596 157.974H200.274C199.955 157.974 199.695 157.714 199.695 157.394C199.695 157.075 199.955 156.815 200.274 156.815H204.596C204.916 156.815 205.176 157.075 205.176 157.394C205.176 157.714 204.916 157.974 204.596 157.974ZM195.953 157.974H191.631C191.311 157.974 191.052 157.714 191.052 157.394C191.052 157.075 191.311 156.815 191.631 156.815H195.953C196.273 156.815 196.532 157.075 196.532 157.394C196.532 157.714 196.273 157.974 195.953 157.974ZM187.309 157.974H182.988C182.668 157.974 182.408 157.714 182.408 157.394C182.408 157.075 182.668 156.815 182.988 156.815H187.309C187.629 156.815 187.889 157.075 187.889 157.394C187.889 157.714 187.629 157.974 187.309 157.974ZM178.666 157.974H174.345C174.025 157.974 173.765 157.714 173.765 157.394C173.765 157.075 174.025 156.815 174.345 156.815H178.666C178.986 156.815 179.246 157.075 179.246 157.394C179.246 157.714 178.986 157.974 178.666 157.974ZM170.023 157.974H165.701C165.381 157.974 165.122 157.714 165.122 157.394C165.122 157.075 165.381 156.815 165.701 156.815H170.023C170.343 156.815 170.602 157.075 170.602 157.394C170.602 157.714 170.343 157.974 170.023 157.974ZM161.38 157.974H157.058C156.738 157.974 156.478 157.714 156.478 157.394C156.478 157.075 156.738 156.815 157.058 156.815H161.38C161.699 156.815 161.959 157.075 161.959 157.394C161.959 157.714 161.699 157.974 161.38 157.974ZM152.736 157.974H148.415C148.095 157.974 147.835 157.714 147.835 157.394C147.835 157.075 148.095 156.815 148.415 156.815H152.736C153.056 156.815 153.316 157.075 153.316 157.394C153.316 157.714 153.056 157.974 152.736 157.974ZM144.093 157.974H139.771C139.451 157.974 139.192 157.714 139.192 157.394C139.192 157.075 139.451 156.815 139.771 156.815H144.093C144.413 156.815 144.672 157.075 144.672 157.394C144.672 157.714 144.413 157.974 144.093 157.974ZM135.45 157.974H131.128C130.808 157.974 130.549 157.714 130.549 157.394C130.549 157.075 130.808 156.815 131.128 156.815H135.45C135.77 156.815 136.029 157.075 136.029 157.394C136.029 157.714 135.77 157.974 135.45 157.974ZM126.806 157.974H122.485C122.165 157.974 121.905 157.714 121.905 157.394C121.905 157.075 122.165 156.815 122.485 156.815H126.806C127.126 156.815 127.386 157.075 127.386 157.394C127.386 157.714 127.126 157.974 126.806 157.974ZM118.163 157.974H113.841C113.521 157.974 113.262 157.714 113.262 157.394C113.262 157.075 113.521 156.815 113.841 156.815H118.163C118.483 156.815 118.742 157.075 118.742 157.394C118.742 157.714 118.483 157.974 118.163 157.974ZM109.52 157.974H105.198C104.878 157.974 104.619 157.714 104.619 157.394C104.619 157.075 104.878 156.815 105.198 156.815H109.52C109.84 156.815 110.099 157.075 110.099 157.394C110.099 157.714 109.84 157.974 109.52 157.974ZM100.876 157.974H100.173C98.8061 157.974 97.4903 157.491 96.4732 156.619C96.2318 156.411 96.2016 156.046 96.4098 155.804C96.6181 155.563 96.9832 155.533 97.2247 155.741C98.0335 156.435 99.0807 156.818 100.173 156.818H100.876C101.196 156.818 101.456 157.078 101.456 157.397C101.456 157.717 101.196 157.977 100.876 157.977V157.974ZM260.527 156.951C260.352 156.951 260.18 156.872 260.065 156.722C259.872 156.468 259.924 156.103 260.177 155.91C261.227 155.116 261.834 153.928 261.837 152.658C261.837 152.338 262.096 152.081 262.416 152.081C262.736 152.081 262.993 152.341 262.993 152.661C262.993 154.299 262.217 155.819 260.874 156.836C260.769 156.915 260.648 156.954 260.524 156.954L260.527 156.951ZM95.1966 152.929C94.8767 152.929 94.6172 152.67 94.6172 152.35V148.029C94.6172 147.71 94.8767 147.45 95.1966 147.45C95.5165 147.45 95.7761 147.71 95.7761 148.029V152.35C95.7761 152.67 95.5165 152.929 95.1966 152.929ZM262.416 148.916C262.096 148.916 261.837 148.657 261.837 148.337V144.017C261.837 143.697 262.096 143.438 262.416 143.438C262.736 143.438 262.996 143.697 262.996 144.017V148.337C262.996 148.657 262.736 148.916 262.416 148.916ZM95.1966 144.291C94.8767 144.291 94.6172 144.032 94.6172 143.712V139.392C94.6172 139.072 94.8767 138.812 95.1966 138.812C95.5165 138.812 95.7761 139.072 95.7761 139.392V143.712C95.7761 144.032 95.5165 144.291 95.1966 144.291ZM262.416 140.279C262.096 140.279 261.837 140.019 261.837 139.699V135.379C261.837 135.059 262.096 134.8 262.416 134.8C262.736 134.8 262.996 135.059 262.996 135.379V139.699C262.996 140.019 262.736 140.279 262.416 140.279ZM95.1966 135.654C94.8767 135.654 94.6172 135.394 94.6172 135.074V130.754C94.6172 130.434 94.8767 130.175 95.1966 130.175C95.5165 130.175 95.7761 130.434 95.7761 130.754V135.074C95.7761 135.394 95.5165 135.654 95.1966 135.654ZM262.416 131.641C262.096 131.641 261.837 131.382 261.837 131.062V126.741C261.837 126.422 262.096 126.162 262.416 126.162C262.736 126.162 262.996 126.422 262.996 126.741V131.062C262.996 131.382 262.736 131.641 262.416 131.641ZM95.1966 127.016C94.8767 127.016 94.6172 126.756 94.6172 126.437V122.116C94.6172 121.796 94.8767 121.537 95.1966 121.537C95.5165 121.537 95.7761 121.796 95.7761 122.116V126.437C95.7761 126.756 95.5165 127.016 95.1966 127.016ZM262.416 123.003C262.096 123.003 261.837 122.744 261.837 122.424V118.104C261.837 117.784 262.096 117.524 262.416 117.524C262.736 117.524 262.996 117.784 262.996 118.104V122.424C262.996 122.744 262.736 123.003 262.416 123.003ZM95.1966 118.378C94.8767 118.378 94.6172 118.119 94.6172 117.799V113.479C94.6172 113.159 94.8767 112.899 95.1966 112.899C95.5165 112.899 95.7761 113.159 95.7761 113.479V117.799C95.7761 118.119 95.5165 118.378 95.1966 118.378ZM262.416 114.366C262.096 114.366 261.837 114.106 261.837 113.786V109.466C261.837 109.146 262.096 108.887 262.416 108.887C262.736 108.887 262.996 109.146 262.996 109.466V113.786C262.996 114.106 262.736 114.366 262.416 114.366ZM95.1966 109.74C94.8767 109.74 94.6172 109.481 94.6172 109.161V104.841C94.6172 104.521 94.8767 104.262 95.1966 104.262C95.5165 104.262 95.7761 104.521 95.7761 104.841V109.161C95.7761 109.481 95.5165 109.74 95.1966 109.74ZM262.416 105.728C262.096 105.728 261.837 105.468 261.837 105.149V100.828C261.837 100.508 262.096 100.249 262.416 100.249C262.736 100.249 262.996 100.508 262.996 100.828V105.149C262.996 105.468 262.736 105.728 262.416 105.728ZM95.1966 101.103C94.8767 101.103 94.6172 100.843 94.6172 100.523V96.2031C94.6172 95.8833 94.8767 95.6238 95.1966 95.6238C95.5165 95.6238 95.7761 95.8833 95.7761 96.2031V100.523C95.7761 100.843 95.5165 101.103 95.1966 101.103ZM262.416 97.0901C262.096 97.0901 261.837 96.8306 261.837 96.5108V92.1904C261.837 91.8706 262.096 91.6112 262.416 91.6112C262.736 91.6112 262.996 91.8706 262.996 92.1904V96.5108C262.996 96.8306 262.736 97.0901 262.416 97.0901ZM95.1966 92.465C94.8767 92.465 94.6172 92.2055 94.6172 91.8857V87.5653C94.6172 87.2455 94.8767 86.9861 95.1966 86.9861C95.5165 86.9861 95.7761 87.2455 95.7761 87.5653V91.8857C95.7761 92.2055 95.5165 92.465 95.1966 92.465ZM262.416 88.4524C262.096 88.4524 261.837 88.1929 261.837 87.8731V83.5527C261.837 83.2329 262.096 82.9734 262.416 82.9734C262.736 82.9734 262.996 83.2329 262.996 83.5527V87.8731C262.996 88.1929 262.736 88.4524 262.416 88.4524ZM95.1966 83.8273C94.8767 83.8273 94.6172 83.5678 94.6172 83.248V78.9276C94.6172 78.6078 94.8767 78.3483 95.1966 78.3483C95.5165 78.3483 95.7761 78.6078 95.7761 78.9276V83.248C95.7761 83.5678 95.5165 83.8273 95.1966 83.8273ZM262.416 79.8146C262.096 79.8146 261.837 79.5552 261.837 79.2354V74.915C261.837 74.5952 262.096 74.3357 262.416 74.3357C262.736 74.3357 262.996 74.5952 262.996 74.915V79.2354C262.996 79.5552 262.736 79.8146 262.416 79.8146ZM95.1966 75.1895C94.8767 75.1895 94.6172 74.9301 94.6172 74.6103V70.2899C94.6172 69.9701 94.8767 69.7016 95.1966 69.7016C95.5165 69.7016 95.7761 69.952 95.7761 70.2688V74.6072C95.7761 74.927 95.5165 75.1865 95.1966 75.1865V75.1895ZM262.416 71.1769C262.096 71.1769 261.837 70.9174 261.837 70.5976V70.2899C261.837 69.1163 261.312 67.9909 260.394 67.2035C260.153 66.9953 260.126 66.6302 260.334 66.3889C260.542 66.1475 260.907 66.1204 261.149 66.3285C262.32 67.3362 262.993 68.7814 262.993 70.2929V70.6006C262.993 70.9204 262.733 71.1799 262.413 71.1799L262.416 71.1769ZM97.0949 67.1401C96.9199 67.1401 96.7448 67.0617 96.6332 66.9108C96.44 66.6544 96.4913 66.2923 96.7478 66.0992C97.7347 65.3571 98.9177 64.9648 100.173 64.9648H101.196C101.516 64.9648 101.776 65.2243 101.776 65.5441C101.776 65.8639 101.516 66.1234 101.196 66.1234H100.173C99.1712 66.1234 98.2266 66.4341 97.445 67.0255C97.3394 67.1039 97.2186 67.1431 97.0979 67.1431L97.0949 67.1401ZM256.749 66.1234H252.427C252.107 66.1234 251.848 65.8639 251.848 65.5441C251.848 65.2243 252.107 64.9648 252.427 64.9648H256.749C257.069 64.9648 257.328 65.2243 257.328 65.5441C257.328 65.8639 257.069 66.1234 256.749 66.1234ZM248.105 66.1234H243.784C243.464 66.1234 243.204 65.8639 243.204 65.5441C243.204 65.2243 243.464 64.9648 243.784 64.9648H248.105C248.425 64.9648 248.685 65.2243 248.685 65.5441C248.685 65.8639 248.425 66.1234 248.105 66.1234ZM239.462 66.1234H235.14C234.821 66.1234 234.561 65.8639 234.561 65.5441C234.561 65.2243 234.821 64.9648 235.14 64.9648H239.462C239.782 64.9648 240.042 65.2243 240.042 65.5441C240.042 65.8639 239.782 66.1234 239.462 66.1234ZM230.819 66.1234H226.497C226.177 66.1234 225.918 65.8639 225.918 65.5441C225.918 65.2243 226.177 64.9648 226.497 64.9648H230.819C231.139 64.9648 231.398 65.2243 231.398 65.5441C231.398 65.8639 231.139 66.1234 230.819 66.1234ZM222.175 66.1234H217.854C217.534 66.1234 217.274 65.8639 217.274 65.5441C217.274 65.2243 217.534 64.9648 217.854 64.9648H222.175C222.495 64.9648 222.755 65.2243 222.755 65.5441C222.755 65.8639 222.495 66.1234 222.175 66.1234ZM213.532 66.1234H209.21C208.891 66.1234 208.631 65.8639 208.631 65.5441C208.631 65.2243 208.891 64.9648 209.21 64.9648H213.532C213.852 64.9648 214.112 65.2243 214.112 65.5441C214.112 65.8639 213.852 66.1234 213.532 66.1234ZM204.889 66.1234H200.567C200.247 66.1234 199.988 65.8639 199.988 65.5441C199.988 65.2243 200.247 64.9648 200.567 64.9648H204.889C205.209 64.9648 205.468 65.2243 205.468 65.5441C205.468 65.8639 205.209 66.1234 204.889 66.1234ZM196.246 66.1234H191.924C191.604 66.1234 191.344 65.8639 191.344 65.5441C191.344 65.2243 191.604 64.9648 191.924 64.9648H196.246C196.565 64.9648 196.825 65.2243 196.825 65.5441C196.825 65.8639 196.565 66.1234 196.246 66.1234ZM187.602 66.1234H183.281C182.961 66.1234 182.701 65.8639 182.701 65.5441C182.701 65.2243 182.961 64.9648 183.281 64.9648H187.602C187.922 64.9648 188.182 65.2243 188.182 65.5441C188.182 65.8639 187.922 66.1234 187.602 66.1234ZM178.959 66.1234H174.637C174.317 66.1234 174.058 65.8639 174.058 65.5441C174.058 65.2243 174.317 64.9648 174.637 64.9648H178.959C179.279 64.9648 179.538 65.2243 179.538 65.5441C179.538 65.8639 179.279 66.1234 178.959 66.1234ZM170.316 66.1234H165.994C165.674 66.1234 165.414 65.8639 165.414 65.5441C165.414 65.2243 165.674 64.9648 165.994 64.9648H170.316C170.635 64.9648 170.895 65.2243 170.895 65.5441C170.895 65.8639 170.635 66.1234 170.316 66.1234ZM161.672 66.1234H157.351C157.031 66.1234 156.771 65.8639 156.771 65.5441C156.771 65.2243 157.031 64.9648 157.351 64.9648H161.672C161.992 64.9648 162.252 65.2243 162.252 65.5441C162.252 65.8639 161.992 66.1234 161.672 66.1234ZM153.029 66.1234H148.707C148.387 66.1234 148.128 65.8639 148.128 65.5441C148.128 65.2243 148.387 64.9648 148.707 64.9648H153.029C153.349 64.9648 153.608 65.2243 153.608 65.5441C153.608 65.8639 153.349 66.1234 153.029 66.1234ZM144.386 66.1234H140.064C139.744 66.1234 139.485 65.8639 139.485 65.5441C139.485 65.2243 139.744 64.9648 140.064 64.9648H144.386C144.706 64.9648 144.965 65.2243 144.965 65.5441C144.965 65.8639 144.706 66.1234 144.386 66.1234ZM135.742 66.1234H131.421C131.101 66.1234 130.841 65.8639 130.841 65.5441C130.841 65.2243 131.101 64.9648 131.421 64.9648H135.742C136.062 64.9648 136.322 65.2243 136.322 65.5441C136.322 65.8639 136.062 66.1234 135.742 66.1234ZM127.099 66.1234H122.777C122.457 66.1234 122.198 65.8639 122.198 65.5441C122.198 65.2243 122.457 64.9648 122.777 64.9648H127.099C127.419 64.9648 127.678 65.2243 127.678 65.5441C127.678 65.8639 127.419 66.1234 127.099 66.1234ZM118.456 66.1234H114.134C113.814 66.1234 113.555 65.8639 113.555 65.5441C113.555 65.2243 113.814 64.9648 114.134 64.9648H118.456C118.776 64.9648 119.035 65.2243 119.035 65.5441C119.035 65.8639 118.776 66.1234 118.456 66.1234ZM109.812 66.1234H105.491C105.171 66.1234 104.911 65.8639 104.911 65.5441C104.911 65.2243 105.171 64.9648 105.491 64.9648H109.812C110.132 64.9648 110.392 65.2243 110.392 65.5441C110.392 65.8639 110.132 66.1234 109.812 66.1234Z" fill="#EBEAE9"/>
<path d="M268.463 143.964H114.839C111.604 143.964 108.984 141.342 108.984 138.111V50.9702C108.984 47.736 111.607 45.1172 114.839 45.1172H268.463C271.698 45.1172 274.318 47.739 274.318 50.9702V138.108C274.318 141.342 271.695 143.961 268.463 143.961V143.964Z" fill="#2F1C6A"/>
<path d="M274.313 63.7852H108.977V80.8434H274.313V63.7852Z" fill="#FC5185"/>
<path d="M146.849 125H122.54C120.995 125 119.742 126.252 119.742 127.797C119.742 129.341 120.995 130.594 122.54 130.594H146.849C148.394 130.594 149.647 129.341 149.647 127.797C149.647 126.252 148.394 125 146.849 125Z" fill="#D1F5FF"/>
<path d="M184.232 125H159.923C158.377 125 157.125 126.252 157.125 127.797C157.125 129.341 158.377 130.594 159.923 130.594H184.232C185.777 130.594 187.03 129.341 187.03 127.797C187.03 126.252 185.777 125 184.232 125Z" fill="#D1F5FF"/>
<path d="M221.623 125H197.313C195.768 125 194.516 126.252 194.516 127.797C194.516 129.341 195.768 130.594 197.313 130.594H221.623C223.168 130.594 224.42 129.341 224.42 127.797C224.42 126.252 223.168 125 221.623 125Z" fill="#D1F5FF"/>
<path d="M259.005 125H234.696C233.151 125 231.898 126.252 231.898 127.797C231.898 129.341 233.151 130.594 234.696 130.594H259.005C260.551 130.594 261.803 129.341 261.803 127.797C261.803 126.252 260.551 125 259.005 125Z" fill="#D1F5FF"/>
<path d="M121.423 50.1328C119.718 50.1328 118.336 51.5146 118.336 53.2192V54.3023C118.336 56.007 119.718 57.3887 121.423 57.3887C123.128 57.3887 124.511 56.007 124.511 54.3023V53.2192C124.511 51.5146 123.128 50.1328 121.423 50.1328Z" fill="#D1F5FF"/>
<path d="M128.07 53.7623C128.07 55.7656 129.697 57.3918 131.701 57.3918H144.569C146.573 57.3918 148.2 55.7656 148.2 53.7623C148.2 51.759 146.573 50.1328 144.569 50.1328H131.701C129.697 50.1328 128.07 51.759 128.07 53.7623Z" fill="#D1F5FF"/>
<path d="M143.005 90.0156H126.385C123.722 90.0156 121.562 92.1741 121.562 94.8368V109.162C121.562 111.824 123.722 113.983 126.385 113.983H143.005C145.668 113.983 147.827 111.824 147.827 109.162V94.8368C147.827 92.1741 145.668 90.0156 143.005 90.0156Z" fill="#FC3F78"/>
<path d="M449.315 123.828C451.255 116.177 451.572 108.448 450.465 101.08L452.806 100.73L457.43 100.039L457.487 100.027C456.232 91.5945 453.35 83.5541 449.034 76.3465L442.944 79.9729C439.036 73.4531 433.884 67.6725 427.649 63.0927L431.877 57.3815C425.286 52.4607 417.611 48.7377 409.146 46.5926L407.399 53.4865C399.718 51.5405 392.014 51.2298 384.644 52.337L383.588 45.3164C375.152 46.5685 367.104 49.4769 359.9 53.7671L363.527 59.8554C357.003 63.7625 351.223 68.9125 346.639 75.1427L340.926 70.9158C336.004 77.505 332.28 85.1773 330.134 93.64L337.03 95.3869C335.084 103.065 334.77 110.768 335.877 118.135L330.907 118.877L328.879 119.197L328.852 119.191C330.107 127.624 333.013 135.67 337.305 142.872L343.395 139.245C347.303 145.765 352.479 151.552 358.714 156.135L354.486 161.846C361.08 166.767 368.727 170.484 377.193 172.629L378.94 165.735C386.621 167.681 394.352 168.001 401.722 166.893L402.534 172.351L402.778 173.914C411.214 172.662 419.238 169.744 426.442 165.457L422.814 159.369C429.336 155.462 435.124 150.288 439.733 144.06L445.446 148.287C450.344 141.689 454.062 134.044 456.205 125.581L449.309 123.834L449.315 123.828ZM385.45 140.084C368.601 135.815 358.418 118.727 362.688 101.883C366.953 85.0626 384.043 74.8862 400.895 79.1553C417.72 83.4184 427.9 100.504 423.638 117.324C419.368 134.168 402.277 144.347 385.453 140.084H385.45Z" stroke="#E7D7CF" stroke-width="4" stroke-linejoin="round"/>
<path d="M476.414 186.868C473.824 183.616 470.686 181.021 467.242 179.139L467.84 178.046L469.023 175.889L469.035 175.859C465.1 173.699 460.811 172.344 456.411 171.855L455.991 175.563C452.014 175.123 447.949 175.44 444.04 176.592L442.993 173.002C438.829 174.197 434.824 176.224 431.226 179.09L433.559 182.02C430.297 184.617 427.711 187.746 425.824 191.189L422.544 189.393C420.38 193.328 419.037 197.627 418.539 202.014L422.248 202.433C421.807 206.412 422.124 210.473 423.277 214.38L419.686 215.427C420.881 219.591 422.909 223.594 425.773 227.191L428.703 224.859C431.302 228.12 434.431 230.706 437.875 232.591L436.601 234.911L436.088 235.862L436.076 235.871C440.012 238.031 444.312 239.376 448.7 239.874L449.12 236.166C453.097 236.607 457.174 236.281 461.083 235.128L462.13 238.719C466.295 237.524 470.29 235.503 473.885 232.639L471.552 229.71C474.814 227.112 477.413 223.975 479.296 220.532L481.843 221.932L482.576 222.327C484.74 218.393 486.074 214.103 486.569 209.716L482.86 209.297C483.301 205.32 482.975 201.244 481.834 197.328L485.425 196.281C484.221 192.127 482.199 188.132 479.335 184.539L476.405 186.871L476.414 186.868ZM462.878 218.809C455.72 224.509 445.311 223.332 439.61 216.176C433.918 209.031 435.095 198.626 442.254 192.923C449.4 187.233 459.809 188.41 465.504 195.557C471.205 202.714 470.028 213.119 462.878 218.809Z" stroke="#E7D7CF" stroke-width="4" stroke-linejoin="round"/>
<path d="M212.027 357.558C209.04 353.808 205.415 350.809 201.444 348.637L202.135 347.376L203.502 344.887L203.517 344.853C198.975 342.358 194.026 340.796 188.949 340.234L188.464 344.513C183.873 344.006 179.18 344.371 174.672 345.701L173.465 341.556C168.66 342.935 164.037 345.276 159.887 348.579L162.579 351.959C158.813 354.957 155.828 358.569 153.655 362.539L149.87 360.47C147.375 365.01 145.823 369.97 145.25 375.033L149.529 375.518C149.019 380.11 149.388 384.799 150.718 389.306L146.572 390.513C147.951 395.316 150.293 399.938 153.598 404.087L156.978 401.395C159.977 405.161 163.59 408.145 167.561 410.317L166.092 412.993L165.5 414.091L165.488 414.1C170.03 416.595 174.992 418.146 180.056 418.719L180.542 414.441C185.132 414.951 189.837 414.574 194.345 413.243L195.553 417.389C200.357 416.01 204.969 413.678 209.118 410.374L206.426 406.995C210.193 403.996 213.189 400.376 215.362 396.405L218.302 398.019L219.147 398.475C221.643 393.934 223.182 388.983 223.755 383.924L219.476 383.438C219.983 378.849 219.608 374.146 218.29 369.629L222.436 368.422C221.045 363.628 218.712 359.018 215.408 354.87L212.027 357.561V357.558ZM196.41 394.417C188.15 400.994 176.138 399.637 169.556 391.376C162.986 383.13 164.347 371.123 172.607 364.546C180.855 357.977 192.867 359.338 199.437 367.584C206.016 375.841 204.658 387.849 196.407 394.417H196.41Z" stroke="#683EE6" stroke-width="4" stroke-miterlimit="10"/>
<path d="M392.909 108.996C389.556 89.1505 358.984 80.19 359.582 93.142L219.43 93.9627C209.721 94.02 201.85 102.751 201.844 113.471L201.555 481.961C201.546 493.069 209.555 502.151 219.448 502.235L362.521 503.463C363.409 505.327 365.071 507.023 367.691 508.441C384.099 508.791 391.967 500.69 394.843 491.531C395.779 489.072 396.289 486.356 396.265 483.493C395.691 478.696 393.947 113.649 392.912 108.993L392.909 108.996Z" fill="#EBEAE9"/>
<path d="M366.158 508.498L201.932 507.439C191.683 507.373 183.396 498.044 183.414 486.616L184.03 107.657C184.048 96.6356 192.205 87.6841 202.255 87.6509L363.291 87.129C373.419 87.0958 381.703 96.0352 381.788 107.108L384.706 487.82C384.794 499.302 376.488 508.568 366.155 508.501L366.158 508.498Z" fill="white"/>
<path d="M368.423 505.743C367.741 505.833 367.043 505.878 366.346 505.872L202.169 504.629C193.362 504.563 186.165 496.384 186.18 486.41L186.747 107.867C186.762 98.2457 193.845 90.3924 202.483 90.3562L363.509 89.6562C363.76 89.6562 364.016 89.6593 364.267 89.6713C368.32 89.8584 372.108 91.7048 374.935 94.8636C377.829 98.0918 379.438 102.37 379.471 106.917L382.35 488.015C382.42 497.048 376.45 504.669 368.42 505.746L368.423 505.743Z" fill="#683EE6"/>
<path d="M373.835 109.613L376.602 489.384L191.652 488.277L192.123 109.613H373.835Z" fill="#E6E6E6"/>
<path d="M309.481 299.929H259.969C255.78 299.929 252.352 296.502 252.352 292.314C252.352 288.127 255.78 284.699 259.969 284.699H309.481C313.67 284.699 317.098 288.127 317.098 292.314C317.098 296.502 313.67 299.929 309.481 299.929Z" fill="#FC3F78"/>
<path d="M347.151 228.168H219.125C214.918 228.168 211.508 231.577 211.508 235.783C211.508 239.989 214.918 243.398 219.125 243.398H347.151C351.358 243.398 354.768 239.989 354.768 235.783C354.768 231.577 351.358 228.168 347.151 228.168Z" fill="white"/>
<path d="M347.151 267.925H219.125C214.936 267.925 211.508 264.498 211.508 260.31C211.508 256.123 214.936 252.695 219.125 252.695H347.151C351.34 252.695 354.768 256.123 354.768 260.31C354.768 264.498 351.34 267.925 347.151 267.925Z" fill="white"/>
<path d="M243.03 260.983C243.03 262.464 241.829 263.665 240.347 263.665C238.865 263.665 237.664 262.464 237.664 260.983C237.664 259.502 238.865 258.301 240.347 258.301C241.829 258.301 243.03 259.502 243.03 260.983Z" fill="#EBEAE9"/>
<path d="M252.182 261.563C252.49 260.114 251.565 258.69 250.116 258.382C248.666 258.073 247.242 258.998 246.933 260.447C246.625 261.896 247.55 263.32 248.999 263.628C250.449 263.937 251.873 263.012 252.182 261.563Z" fill="#EBEAE9"/>
<path d="M260.637 262.877C261.684 261.83 261.684 260.131 260.637 259.084C259.589 258.036 257.89 258.036 256.842 259.084C255.795 260.131 255.795 261.83 256.842 262.877C257.89 263.924 259.589 263.924 260.637 262.877Z" fill="#EBEAE9"/>
<path d="M269.824 262.877C270.872 261.83 270.872 260.131 269.824 259.084C268.776 258.036 267.078 258.036 266.03 259.084C264.982 260.131 264.982 261.83 266.03 262.877C267.078 263.924 268.776 263.924 269.824 262.877Z" fill="#EBEAE9"/>
<path d="M278.149 263.461C279.518 262.894 280.168 261.325 279.601 259.956C279.034 258.588 277.465 257.938 276.096 258.505C274.727 259.072 274.077 260.641 274.644 262.009C275.211 263.378 276.78 264.028 278.149 263.461Z" fill="#EBEAE9"/>
<path d="M288.917 261.583C289.257 260.141 288.364 258.696 286.922 258.356C285.48 258.016 284.035 258.909 283.694 260.351C283.354 261.792 284.247 263.237 285.689 263.577C287.131 263.917 288.576 263.024 288.917 261.583Z" fill="#EBEAE9"/>
<path d="M297.41 262.877C298.458 261.83 298.458 260.131 297.41 259.084C296.362 258.036 294.664 258.036 293.616 259.084C292.568 260.131 292.568 261.83 293.616 262.877C294.664 263.924 296.362 263.924 297.41 262.877Z" fill="#EBEAE9"/>
<path d="M306.605 262.881C307.653 261.834 307.653 260.135 306.605 259.088C305.558 258.04 303.859 258.04 302.811 259.088C301.763 260.135 301.763 261.833 302.811 262.881C303.859 263.928 305.558 263.928 306.605 262.881Z" fill="#EBEAE9"/>
<path d="M314.931 263.461C316.3 262.894 316.95 261.325 316.383 259.956C315.816 258.588 314.246 257.938 312.877 258.505C311.508 259.072 310.858 260.641 311.425 262.009C311.992 263.378 313.562 264.028 314.931 263.461Z" fill="#EBEAE9"/>
<path d="M303.994 198.242C315.488 186.752 315.488 168.123 303.994 156.633C292.501 145.143 273.867 145.143 262.373 156.633C250.88 168.123 250.88 186.752 262.373 198.242C273.867 209.732 292.501 209.732 303.994 198.242Z" fill="white"/>
<path d="M283.224 176.252C286.097 176.252 288.749 174.852 290.442 172.716C291.695 171.168 292.431 169.18 292.431 166.972C292.431 161.891 288.306 157.691 283.221 157.691C278.135 157.691 273.938 161.891 273.938 166.972C273.938 169.183 274.674 171.171 275.926 172.716C277.619 174.852 280.272 176.252 283.221 176.252H283.224Z" fill="#FC5185"/>
<path d="M299.535 192.79C299.535 198.646 266.82 198.646 266.82 192.79L266.829 185.966C268.121 176.634 296.876 176.245 299.541 185.966L299.535 192.79Z" fill="#FC5185"/>
<path d="M225.473 258.903V258.496C225.473 256.843 224.13 255.5 222.476 255.5C220.822 255.5 219.479 256.846 219.479 258.496V258.903H219.023V264.304C219.023 265.236 225.947 265.236 225.947 264.304V258.903H225.473ZM220.547 258.496C220.547 257.458 221.187 256.517 222.476 256.517C223.765 256.517 224.426 257.398 224.426 258.496V258.903H220.547V258.496ZM222.986 261.625V263.184C222.986 263.465 222.745 263.664 222.464 263.664C222.183 263.664 221.984 263.465 221.984 263.184V261.625C221.703 261.465 221.504 261.184 221.504 260.825C221.504 260.306 221.945 259.866 222.464 259.866C222.983 259.866 223.424 260.306 223.424 260.825C223.424 261.184 223.224 261.465 222.983 261.625H222.986Z" fill="#4D4D4D"/>
<path d="M222.482 235.229C223.089 235.229 223.647 234.933 224.006 234.483C224.272 234.158 224.426 233.738 224.426 233.271C224.426 232.2 223.553 231.312 222.482 231.312C221.411 231.312 220.523 232.2 220.523 233.271C220.523 233.738 220.677 234.158 220.943 234.483C221.299 234.933 221.86 235.229 222.482 235.229Z" fill="#4D4D4D"/>
<path d="M225.923 238.721C225.923 239.958 218.984 239.958 218.984 238.721L219.021 237.282C219.292 235.312 225.361 235.23 225.923 237.282V238.721Z" fill="#4D4D4D"/>
<path d="M267.325 238.018H239.268C238.039 238.018 237.031 237.013 237.031 235.782C237.031 234.555 238.036 233.547 239.268 233.547H267.325C268.553 233.547 269.561 234.552 269.561 235.782C269.561 237.01 268.556 238.018 267.325 238.018Z" fill="#EBEAE9"/>
<path d="M304.333 238.018H276.275C275.047 238.018 274.039 237.013 274.039 235.782C274.039 234.555 275.044 233.547 276.275 233.547H304.333C305.561 233.547 306.569 234.552 306.569 235.782C306.569 237.01 305.564 238.018 304.333 238.018Z" fill="#EBEAE9"/>
<path d="M245.398 378.496V433.979C245.398 440.146 320.861 440.146 320.861 433.979V378.496H245.398Z" fill="white"/>
<path d="M292.188 401.566C293.37 396.56 290.269 391.544 285.261 390.362C280.254 389.18 275.236 392.281 274.054 397.287C272.872 402.293 275.974 407.309 280.981 408.491C285.989 409.673 291.007 406.572 292.188 401.566Z" fill="#FC5185"/>
<path d="M279.312 402.32H286.951V423.684C286.951 425.79 285.24 427.5 283.133 427.5C281.027 427.5 279.316 425.79 279.316 423.684V402.32H279.312Z" fill="#FC5185"/>
<path d="M314.246 374.539H306.608V370.804C306.608 357.861 296.075 347.328 283.129 347.328C270.182 347.328 259.646 357.858 259.646 370.804V374.539H252.008V370.804C252.008 353.649 265.969 339.695 283.126 339.695C300.282 339.695 314.243 353.652 314.243 370.804V374.539H314.246Z" fill="white"/>
<path d="M434.444 270.297C414.988 291.129 383.946 308.206 350.724 315.48C350.715 317.697 350.661 329.986 350.407 386.627C350.069 462.185 421.998 499.108 433.168 504.774C443.987 499.796 516.824 462.931 517.162 387.372C517.416 330.731 517.47 318.442 517.479 316.225C484.324 308.652 453.714 291.304 434.444 270.297Z" fill="white"/>
<path d="M434.27 278.492C414.213 296.884 386.427 311.342 355.873 319.222L355.571 386.616C355.433 417.453 367.688 445.349 391.995 469.536C407.966 485.427 424.757 495.283 433.28 499.712C433.645 499.525 434.049 499.317 434.445 499.112V278.649C434.387 278.598 434.327 278.546 434.27 278.492Z" fill="#FC5185"/>
<path d="M434.445 278.648V499.108C443.306 494.501 459.41 484.976 474.834 469.903C499.355 445.936 511.861 418.152 511.997 387.312L512.299 319.918C481.902 311.79 454.321 297.146 434.445 278.648Z" fill="#FC3F78"/>
<path d="M495.669 346.198C472.406 349.786 440.733 370.992 420.749 396.495C417.945 384.469 405.363 373.493 398.781 371.092L378.836 391.134C391.288 396.746 404.899 412.639 406.7 428.913L426.625 431.999C435.024 415.412 456.719 375.732 499.879 354.399C499.049 351.152 496.001 346.66 495.666 346.195L495.669 346.198Z" fill="white"/>
<path d="M116.747 225.213L113.241 239.309L112.604 241.93C111.895 245.261 89.8939 243.843 91.4542 239.948L92.764 237.079L99.5302 222.238L116.747 225.213Z" fill="#F7A58E"/>
<path d="M129.604 204.307C129.828 219.592 122.733 232.022 111.627 231.967C100.521 231.913 89.7769 222.494 89.3876 204.114C89.1401 192.405 98.4927 182.95 109.599 183.004C120.705 183.058 129.432 192.598 129.604 204.307Z" fill="#F7A58E"/>
<path d="M109.933 178.797C109.933 178.797 132.063 179.889 133.904 196.646C136.36 211.351 125.324 200.541 120.818 210.409C115.658 221.714 120.918 229.987 127.624 232.231C121.66 240.555 87.5607 240.257 78.7876 225.651C72.779 207.332 81.2804 179.814 109.933 178.797Z" fill="#683EE6"/>
<path d="M125.45 209.804C125.634 212.072 123.944 214.061 121.675 214.245C119.405 214.429 117.417 212.739 117.232 210.47C117.048 208.202 118.738 206.213 121.008 206.029C123.277 205.845 125.266 207.535 125.45 209.804Z" fill="#F7A58E"/>
<path d="M122.062 494.154C123.1 493.056 127.992 493.038 128.439 494.664C128.886 496.287 128.023 497.449 130.09 500.025C128.901 500.369 124.688 500.399 123.396 500.025C122.108 499.651 121.027 495.255 122.062 494.157V494.154Z" fill="white"/>
<path d="M113.976 499.705H125.9C127.014 449.26 126.802 394.348 126.401 352.99C126.256 338.18 125.849 330.689 123.163 321.797C117.736 303.843 92.22 309.37 90.4092 325.644C89.6547 334.674 89.1025 352.293 105.804 412.163C98.5727 438.523 111.188 470.126 113.979 499.708L113.976 499.705Z" fill="#683EE6"/>
<path d="M132.576 500.475C130.82 500.382 126.718 498.692 125.946 497.525C124.805 498.798 122.433 499.151 119.569 498.722C116.186 498.218 115.739 496.647 113.313 496.855C112.29 499.7 109.797 506.081 112.202 507.562H137.272C139.511 505.52 139.451 501.157 132.579 500.475H132.576Z" fill="#683EE6"/>
<path d="M61.3569 495.429C62.2291 494.506 66.3425 494.491 66.7167 495.857C67.0909 497.221 66.3666 498.199 68.1019 500.362C67.103 500.651 63.56 500.676 62.4765 500.362C61.3931 500.048 60.4847 496.352 61.3569 495.429Z" fill="white"/>
<path d="M100.652 325.184C98.2133 306.587 65.1188 308.497 62.9187 324.735C62.125 333.472 59.6956 346.623 65.9155 411.525C52.7967 436.292 56.5027 471.832 52.5824 497.993C52.1508 501.972 63.4288 502.929 64.304 499.381C76.3243 450.843 93.119 396.389 99.3631 356.009C101.627 341.37 101.856 334.392 100.652 325.181V325.184Z" fill="#683EE6"/>
<path d="M70.2273 499.705C68.4709 499.612 65.8815 497.328 65.1089 496.16C63.9681 497.433 61.7922 499.15 58.9282 498.722C55.5451 498.218 55.0985 496.646 52.6721 496.854C51.649 499.699 49.1562 506.08 51.5615 507.561H75.9493C78.1885 505.519 77.1051 500.387 70.2303 499.705H70.2273Z" fill="#683EE6"/>
<path d="M156.461 226.75L150.289 228.12C150.428 231.366 150.039 236.552 150.289 242.279L160.671 240.912C159.093 235.146 157.566 230.093 156.461 226.75Z" fill="#F7A58E"/>
<path d="M150.289 242.276C150.06 253.623 149.755 258.486 149.661 262.955L118.86 243.205C109.475 240.357 98.5288 258.93 110.398 267.308C110.398 267.308 151.418 290.464 160.647 283.793C165.638 280.185 164.343 254.302 160.674 240.906L150.292 242.273L150.289 242.276Z" fill="white"/>
<path d="M159.255 220.712C156.403 217.369 150.141 218.534 149.664 218.624L150.268 227.872C150.406 232.439 156.074 232.593 158.38 228.656C158.38 228.656 161.724 224.004 159.255 220.709V220.712Z" fill="#F7A58E"/>
<path d="M152.692 219.5C150.613 209.426 148.516 210.775 148.516 210.775C148.516 210.775 148.851 214.335 149.792 220.617C150.495 224.174 152.952 222.028 152.692 219.5Z" fill="#F7A58E"/>
<path d="M126.139 269.75C128.231 259.573 129.353 249.526 118.86 243.209C112.64 239.462 92.6466 236.789 83.2971 239.881C73.8782 244.09 75.9153 262.445 74.1498 291.433C67.6582 305.896 64.8365 310.651 62.9141 324.741C62.9141 324.741 66.3877 335.358 90.8539 335.37C101.963 335.376 118.326 334.389 125.768 328.723C125.026 319.114 121.006 309.858 119.331 296.254C119.331 296.254 125.986 270.914 126.136 269.747L126.139 269.75Z" fill="white"/>
<path d="M78.2768 241.926C66.7936 250.691 55.5941 264.472 50.3007 271.792C45.0073 279.111 31.2969 308.524 31.2969 308.524L40.0217 314.956L63.6248 282.807L92.458 259.162C102.462 248.953 89.4612 233.391 78.2768 241.926Z" fill="white"/>
<path d="M27.6436 315.987L33.2992 304.305C34.6301 307.817 41.1036 311.024 42.9626 310.954C42.9626 310.954 36.8815 319.704 35.3937 321.191C33.9058 322.678 27.7644 320.159 27.6406 315.987H27.6436Z" fill="#F7A58E"/>
<path d="M36.8204 319.232C36.7993 319.32 36.8204 319.437 36.7993 319.525C36.5156 323.776 33.2472 325.788 32.363 326.265C32.2935 326.322 32.2151 326.337 32.1366 326.355C35.2119 325.74 36.1323 329.858 34.569 330.808C30.0452 333.871 23.5959 329.659 23.0497 327.104C22.4944 324.509 27.649 315.931 27.649 315.931C30.2776 313.808 37.0075 314.139 36.8204 319.232Z" fill="#F7A58E"/>
<path d="M36.7996 319.527C36.6185 324.33 32.2878 326.309 32.2063 326.324C29.6713 326.255 28.7689 326.101 26.3516 326.107C27.9299 325.338 31.1682 323.289 29.9127 319.316C32.3904 317.418 36.1206 319.077 36.7966 319.527H36.7996Z" fill="#E6856A"/>
<path d="M36.8686 318.979C37.5356 322.947 37.2549 328.597 36.3103 331.083C36.3103 331.083 33.8779 331.21 34.1072 326.618C34.1676 325.424 33.9956 322.829 32.8125 321.963C29.1699 319.558 28.5844 317.35 29.9214 315.54C31.7019 313.126 36.7328 315.576 36.8716 318.976L36.8686 318.979Z" fill="#F7A58E"/>
<path d="M25.5982 329.82C27.575 331.19 32.802 333.845 33.6289 333.19C34.4528 332.535 30.273 328.085 27.575 327.497C24.877 326.909 24.5872 329.12 25.6012 329.82H25.5982Z" fill="#F7A58E"/>
</g>
<defs>
<clipPath id="clip0_4269_289927">
<rect width="522" height="508" fill="white" transform="translate(0 0.5)"/>
</clipPath>
</defs>
</svg>
