<svg width="20" height="20" viewBox="0 0 20 20" fill="none" xmlns="http://www.w3.org/2000/svg">
<rect x="7" y="7" width="6" height="6" fill="white"/>
<path d="M15.4075 10.03L14.26 9.9475L14.035 8.8225C13.8518 7.88685 13.3492 7.04393 12.6132 6.43788C11.8771 5.83183 10.9534 5.50031 10 5.5C8.45502 5.5 7.06002 6.355 6.34002 7.72L5.96502 8.4325L5.16252 8.515C4.42865 8.59642 3.75078 8.94629 3.25929 9.49731C2.76779 10.0483 2.49737 10.7616 2.50002 11.5C2.50002 13.1575 3.84252 14.5 5.50002 14.5H15.25C16.4875 14.5 17.5 13.4875 17.5 12.25C17.5 11.0875 16.585 10.105 15.4075 10.03ZM11.0875 10.75V13H8.90502V10.75H7.00002L10 7.75L13 10.75H11.0875Z" fill="#777E90"/>
<path d="M15.5125 8.53C15.2606 7.25329 14.5732 6.10364 13.5678 5.27743C12.5624 4.45122 11.3013 3.99971 10 4C7.8325 4 5.95 5.23 5.0125 7.03C3.91018 7.14912 2.89075 7.67141 2.15012 8.49649C1.40948 9.32158 0.999871 10.3913 1 11.5C1 13.9825 3.0175 16 5.5 16H15.25C17.32 16 19 14.32 19 12.25C19 10.27 17.4625 8.665 15.5125 8.53ZM15.25 14.5H5.5C3.8425 14.5 2.5 13.1575 2.5 11.5C2.5 9.9625 3.6475 8.68 5.17 8.5225L5.9725 8.44L6.3475 7.7275C6.69241 7.05608 7.2159 6.49286 7.86034 6.09985C8.50478 5.70683 9.24517 5.49926 10 5.5C11.965 5.5 13.66 6.895 14.0425 8.8225L14.2675 9.9475L15.415 10.03C15.9788 10.0679 16.5073 10.318 16.8942 10.7299C17.281 11.1418 17.4975 11.6849 17.5 12.25C17.5 13.4875 16.4875 14.5 15.25 14.5ZM7 10.75H8.9125V13H11.0875V10.75H13L10 7.75L7 10.75Z" fill="#2A1E1E"/>
</svg>
