<svg width="20" height="20" viewBox="0 0 20 20" fill="none" xmlns="http://www.w3.org/2000/svg">
<path d="M18.2493 9.77078C18.2481 10.8036 17.8373 11.7939 17.1069 12.5242C16.3766 13.2546 15.3863 13.6654 14.3535 13.6666H13.666V9.99995C13.666 9.23912 12.0251 8.62495 9.99931 8.62495C7.97347 8.62495 6.33264 9.23912 6.33264 9.99995V13.6666H5.18681C4.27513 13.697 3.38871 13.364 2.72257 12.7408C2.05642 12.1177 1.66511 11.2554 1.63472 10.3437C1.60433 9.43202 1.93735 8.5456 2.56052 7.87946C3.18369 7.21331 4.04596 6.822 4.95764 6.79162C4.96177 5.53262 5.4368 4.32074 6.28931 3.39429C7.14182 2.46784 8.3101 1.89387 9.56441 1.78528C10.8187 1.67668 12.0683 2.04131 13.0673 2.80746C14.0664 3.5736 14.7426 4.68582 14.9631 5.92537C15.8788 6.07044 16.7128 6.53735 17.3151 7.2422C17.9175 7.94705 18.2487 8.84361 18.2493 9.77078Z" fill="#2A1E1E"/>
<path d="M13.6654 12.2916V14.5833C13.6654 15.0416 13.0145 15.5 12.0291 15.7291C10.6928 16.0348 9.30464 16.0348 7.96828 15.7291C6.98286 15.5 6.33203 15.0416 6.33203 14.5833V12.2916C6.33203 12.75 6.98286 13.2083 7.96828 13.4375C9.30464 13.7431 10.6928 13.7431 12.0291 13.4375C13.0145 13.2083 13.6654 12.75 13.6654 12.2916Z" fill="#B0B0B4" stroke="white" stroke-linecap="round" stroke-linejoin="round"/>
<path d="M13.6654 10C13.6654 10.4583 13.0145 10.9167 12.0291 11.1458C10.6928 11.4515 9.30464 11.4515 7.96828 11.1458C6.98286 10.9167 6.33203 10.4583 6.33203 10C6.33203 9.23917 7.97286 8.625 9.9987 8.625C12.0245 8.625 13.6654 9.23917 13.6654 10Z" fill="#B0B0B4" stroke="white" stroke-linecap="round" stroke-linejoin="round"/>
<path d="M13.6654 10V12.2917C13.6654 12.75 13.0145 13.2083 12.0291 13.4375C10.6928 13.7431 9.30464 13.7431 7.96828 13.4375C6.98286 13.2083 6.33203 12.75 6.33203 12.2917V10C6.33203 10.4583 6.98286 10.9167 7.96828 11.1458C9.30464 11.4515 10.6928 11.4515 12.0291 11.1458C13.0145 10.9167 13.6654 10.4583 13.6654 10Z" fill="#9494A0" stroke="white" stroke-linecap="round" stroke-linejoin="round"/>
<path d="M13.6654 14.5834V16.875C13.6654 17.6359 12.0245 18.25 9.9987 18.25C7.97286 18.25 6.33203 17.6359 6.33203 16.875V14.5834C6.33203 15.0417 6.98286 15.5 7.96828 15.7292C9.30464 16.0348 10.6928 16.0348 12.0291 15.7292C13.0145 15.5 13.6654 15.0417 13.6654 14.5834Z" fill="#9494A0" stroke="white" stroke-linecap="round" stroke-linejoin="round"/>
</svg>
