<svg width="25" height="24" viewBox="0 0 25 24" fill="none" xmlns="http://www.w3.org/2000/svg">
<path d="M19.6308 23.9995H12.7737C10.6955 23.9995 9 22.304 9 20.2258C9 19.213 9.39012 18.2677 10.1028 17.555C10.673 16.9848 11.4158 16.6097 12.211 16.4897C12.3685 14.4265 14.0941 12.791 16.2022 12.791C18.3104 12.791 20.0359 14.4265 20.1935 16.4897C20.9812 16.6097 21.7315 16.9848 22.3016 17.555C23.0144 18.2677 23.4045 19.213 23.4045 20.2183C23.4045 22.304 21.709 23.992 19.6308 23.992V23.9995ZM12.7662 18.0577C12.196 18.0577 11.6333 18.2902 11.2282 18.6954C10.8156 19.108 10.5905 19.6482 10.5905 20.2258C10.5905 21.4262 11.5658 22.4015 12.7587 22.4015H19.6158C20.8162 22.4015 21.7915 21.4262 21.7915 20.2258C21.7915 19.6407 21.5664 19.1005 21.1538 18.6879C20.7412 18.2752 20.1935 18.0502 19.6158 18.0502H19.3832C18.9406 18.0502 18.5805 17.69 18.5805 17.2474V16.7898C18.5805 15.4694 17.5001 14.389 16.1797 14.389C14.8593 14.389 13.779 15.4694 13.779 16.7898V17.2474C13.779 17.69 13.4189 18.0502 12.9762 18.0502H12.7437L12.7662 18.0577Z" fill="#2D3250"/>
<path fill-rule="evenodd" clip-rule="evenodd" d="M4.80153 18.666C5.24417 18.666 5.60428 19.0261 5.60428 19.4688C5.60428 19.9114 5.24417 20.2715 4.80153 20.2715C4.35889 20.2715 3.99878 19.9114 3.99878 19.4688C3.99878 19.0261 4.35889 18.666 4.80153 18.666Z" fill="#2D3250"/>
<path fill-rule="evenodd" clip-rule="evenodd" d="M4.80153 11.1934C5.24417 11.1934 5.60428 11.5535 5.60428 11.9961C5.60428 12.4387 5.24417 12.7989 4.80153 12.7989C4.35889 12.7989 3.99878 12.4387 3.99878 11.9961C3.99878 11.5535 4.35889 11.1934 4.80153 11.1934Z" fill="#2D3250"/>
<path fill-rule="evenodd" clip-rule="evenodd" d="M4.80153 3.72852C5.24417 3.72852 5.60428 4.08863 5.60428 4.53127C5.60428 4.9739 5.24417 5.33402 4.80153 5.33402C4.35889 5.33402 3.99878 4.9739 3.99878 4.53127C3.99878 4.08863 4.35889 3.72852 4.80153 3.72852Z" fill="#2D3250"/>
<path d="M24.0075 5.06408V3.99875C24.0075 2.92591 23.5874 1.9206 22.8371 1.17036C22.0794 0.412629 21.0741 0 20.0087 0H3.99875C2.92591 0 1.9206 0.420131 1.17036 1.17036C0.412629 1.9281 0 2.93341 0 3.99875V5.06408C0 6.13691 0.420131 7.14223 1.17036 7.89246C1.31291 8.035 1.46296 8.14754 1.6205 8.26758C1.46296 8.38011 1.30541 8.50015 1.17036 8.63519C0.412629 9.39293 0 10.3982 0 11.4636V12.5289C0 13.6017 0.420131 14.6071 1.17036 15.3573C1.31291 15.4998 1.46296 15.6124 1.6205 15.7324C1.46296 15.8449 1.30541 15.965 1.17036 16.1C0.412629 16.8578 0 17.8631 0 18.9284V19.9937C0 21.0666 0.420131 22.0719 1.17036 22.8221C1.9281 23.5798 2.93341 23.9925 3.99875 23.9925H7.99749C8.44013 23.9925 8.80024 23.6324 8.80024 23.1897C8.80024 22.7471 8.44013 22.387 7.99749 22.387H3.99875C3.35355 22.387 2.75336 22.1394 2.30322 21.6818C1.85308 21.2316 1.598 20.6239 1.598 19.9862V18.9209C1.598 18.2757 1.84558 17.6755 2.30322 17.2254C2.75336 16.7752 3.36105 16.5201 3.99875 16.5201H8.80024C9.24288 16.5201 9.60299 16.16 9.60299 15.7174C9.60299 15.2748 9.24288 14.9146 8.80024 14.9146H3.99875C3.36105 14.9146 2.75336 14.6671 2.30322 14.2094C1.85308 13.7593 1.598 13.1516 1.598 12.5139V11.4486C1.598 10.8034 1.84558 10.2032 2.30322 9.75304C2.75336 9.3029 3.36105 9.04782 3.99875 9.04782H20.0087C20.6464 9.04782 21.2541 9.2954 21.7043 9.75304C22.1544 10.2032 22.4095 10.8109 22.4095 11.4486V12.5139C22.4095 12.784 22.3645 13.0541 22.2744 13.3167C22.1244 13.7368 22.342 14.1869 22.7621 14.337C23.1822 14.487 23.6324 14.2694 23.7824 13.8493C23.9325 13.4217 24.015 12.9715 24.015 12.5139V11.4486C24.015 10.3757 23.5949 9.37042 22.8446 8.62019C22.7021 8.47764 22.552 8.36511 22.3945 8.24507C22.552 8.13253 22.7096 8.0125 22.8446 7.87746C23.6024 7.11972 24.015 6.11441 24.015 5.04907L24.0075 5.06408ZM22.4095 5.06408C22.4095 5.70928 22.1619 6.30947 21.7043 6.75961C21.2541 7.20975 20.6464 7.46483 20.0087 7.46483H3.99875C3.35355 7.46483 2.75336 7.21725 2.30322 6.75961C1.85308 6.30947 1.598 5.70178 1.598 5.06408V3.99875C1.598 3.35355 1.84558 2.75336 2.30322 2.30322C2.75336 1.85308 3.36105 1.598 3.99875 1.598H20.0087C20.6464 1.598 21.2541 1.84558 21.7043 2.30322C22.1544 2.75336 22.4095 3.36105 22.4095 3.99875V5.06408Z" fill="#2D3250"/>
<path d="M11.201 5.3262H7.99745C7.55481 5.3262 7.1947 4.96609 7.1947 4.52345C7.1947 4.08082 7.55481 3.7207 7.99745 3.7207H11.201C11.6436 3.7207 12.0037 4.08082 12.0037 4.52345C12.0037 4.96609 11.6436 5.3262 11.201 5.3262Z" fill="#2D3250"/>
<path d="M11.201 12.7989H7.99745C7.55481 12.7989 7.1947 12.4387 7.1947 11.9961C7.1947 11.5535 7.55481 11.1934 7.99745 11.1934H11.201C11.6436 11.1934 12.0037 11.5535 12.0037 11.9961C12.0037 12.4387 11.6436 12.7989 11.201 12.7989Z" fill="#2D3250"/>
</svg>
