<svg width="25" height="24" viewBox="0 0 25 24" fill="none" xmlns="http://www.w3.org/2000/svg">
<g clip-path="url(#clip0_1492_322)">
<path d="M19.6308 24H12.7737C10.6955 24 9 22.3045 9 20.2263C9 19.2135 9.39012 18.2682 10.1028 17.5555C10.673 16.9853 11.4158 16.6102 12.211 16.4902C12.3685 14.427 14.0941 12.7915 16.2022 12.7915C18.3104 12.7915 20.0359 14.427 20.1935 16.4902C20.9812 16.6102 21.7315 16.9853 22.3016 17.5555C23.0144 18.2682 23.4045 19.2135 23.4045 20.2188C23.4045 22.3045 21.709 23.9925 19.6308 23.9925V24ZM12.7662 18.0581C12.196 18.0581 11.6333 18.2907 11.2282 18.6958C10.8156 19.1085 10.5905 19.6486 10.5905 20.2263C10.5905 21.4267 11.5658 22.402 12.7587 22.402H19.6158C20.8162 22.402 21.7915 21.4267 21.7915 20.2263C21.7915 19.6411 21.5664 19.101 21.1538 18.6883C20.7412 18.2757 20.1935 18.0506 19.6158 18.0506H19.3832C18.9406 18.0506 18.5805 17.6905 18.5805 17.2479V16.7903C18.5805 15.4698 17.5001 14.3895 16.1797 14.3895C14.8593 14.3895 13.779 15.4698 13.779 16.7903V17.2479C13.779 17.6905 13.4189 18.0506 12.9762 18.0506H12.7437L12.7662 18.0581Z" fill="#F51322"/>
<path fill-rule="evenodd" clip-rule="evenodd" d="M4.80153 18.666C5.24417 18.666 5.60428 19.0261 5.60428 19.4688C5.60428 19.9114 5.24417 20.2715 4.80153 20.2715C4.35889 20.2715 3.99878 19.9114 3.99878 19.4688C3.99878 19.0261 4.35889 18.666 4.80153 18.666Z" fill="#F51322"/>
<path fill-rule="evenodd" clip-rule="evenodd" d="M4.80153 11.1934C5.24417 11.1934 5.60428 11.5535 5.60428 11.9961C5.60428 12.4387 5.24417 12.7989 4.80153 12.7989C4.35889 12.7989 3.99878 12.4387 3.99878 11.9961C3.99878 11.5535 4.35889 11.1934 4.80153 11.1934Z" fill="#F51322"/>
<path fill-rule="evenodd" clip-rule="evenodd" d="M4.80153 3.72852C5.24417 3.72852 5.60428 4.08863 5.60428 4.53127C5.60428 4.9739 5.24417 5.33402 4.80153 5.33402C4.35889 5.33402 3.99878 4.9739 3.99878 4.53127C3.99878 4.08863 4.35889 3.72852 4.80153 3.72852Z" fill="#F51322"/>
<path d="M24.0075 5.06408V3.99875C24.0075 2.92591 23.5874 1.9206 22.8371 1.17036C22.0794 0.412629 21.0741 0 20.0087 0H3.99875C2.92591 0 1.9206 0.420131 1.17036 1.17036C0.412629 1.9281 0 2.93341 0 3.99875V5.06408C0 6.13691 0.420131 7.14223 1.17036 7.89246C1.31291 8.035 1.46296 8.14754 1.6205 8.26758C1.46296 8.38011 1.30541 8.50015 1.17036 8.63519C0.412629 9.39293 0 10.3982 0 11.4636V12.5289C0 13.6017 0.420131 14.6071 1.17036 15.3573C1.31291 15.4998 1.46296 15.6124 1.6205 15.7324C1.46296 15.8449 1.30541 15.965 1.17036 16.1C0.412629 16.8578 0 17.8631 0 18.9284V19.9937C0 21.0666 0.420131 22.0719 1.17036 22.8221C1.9281 23.5798 2.93341 23.9925 3.99875 23.9925H7.99749C8.44013 23.9925 8.80024 23.6324 8.80024 23.1897C8.80024 22.7471 8.44013 22.387 7.99749 22.387H3.99875C3.35355 22.387 2.75336 22.1394 2.30322 21.6818C1.85308 21.2316 1.598 20.6239 1.598 19.9862V18.9209C1.598 18.2757 1.84558 17.6755 2.30322 17.2254C2.75336 16.7752 3.36105 16.5201 3.99875 16.5201H8.80024C9.24288 16.5201 9.60299 16.16 9.60299 15.7174C9.60299 15.2748 9.24288 14.9146 8.80024 14.9146H3.99875C3.36105 14.9146 2.75336 14.6671 2.30322 14.2094C1.85308 13.7593 1.598 13.1516 1.598 12.5139V11.4486C1.598 10.8034 1.84558 10.2032 2.30322 9.75304C2.75336 9.3029 3.36105 9.04782 3.99875 9.04782H20.0087C20.6464 9.04782 21.2541 9.2954 21.7043 9.75304C22.1544 10.2032 22.4095 10.8109 22.4095 11.4486V12.5139C22.4095 12.784 22.3645 13.0541 22.2744 13.3167C22.1244 13.7368 22.342 14.1869 22.7621 14.337C23.1822 14.487 23.6324 14.2694 23.7824 13.8493C23.9325 13.4217 24.015 12.9715 24.015 12.5139V11.4486C24.015 10.3757 23.5949 9.37042 22.8446 8.62019C22.7021 8.47764 22.552 8.36511 22.3945 8.24507C22.552 8.13253 22.7096 8.0125 22.8446 7.87746C23.6024 7.11972 24.015 6.11441 24.015 5.04907L24.0075 5.06408ZM22.4095 5.06408C22.4095 5.70928 22.1619 6.30947 21.7043 6.75961C21.2541 7.20975 20.6464 7.46483 20.0087 7.46483H3.99875C3.35355 7.46483 2.75336 7.21725 2.30322 6.75961C1.85308 6.30947 1.598 5.70178 1.598 5.06408V3.99875C1.598 3.35355 1.84558 2.75336 2.30322 2.30322C2.75336 1.85308 3.36105 1.598 3.99875 1.598H20.0087C20.6464 1.598 21.2541 1.84558 21.7043 2.30322C22.1544 2.75336 22.4095 3.36105 22.4095 3.99875V5.06408Z" fill="#F51322"/>
<path d="M11.2011 5.32669H7.99757C7.55494 5.32669 7.19482 4.96658 7.19482 4.52394C7.19482 4.0813 7.55494 3.72119 7.99757 3.72119H11.2011C11.6437 3.72119 12.0038 4.0813 12.0038 4.52394C12.0038 4.96658 11.6437 5.32669 11.2011 5.32669Z" fill="#F51322"/>
<path d="M11.2011 12.7989H7.99757C7.55494 12.7989 7.19482 12.4387 7.19482 11.9961C7.19482 11.5535 7.55494 11.1934 7.99757 11.1934H11.2011C11.6437 11.1934 12.0038 11.5535 12.0038 11.9961C12.0038 12.4387 11.6437 12.7989 11.2011 12.7989Z" fill="#F51322"/>
</g>
<defs>
<clipPath id="clip0_1492_322">
<rect width="25" height="24" fill="white"/>
</clipPath>
</defs>
</svg>
