<svg width="20" height="20" viewBox="0 0 20 20" fill="none" xmlns="http://www.w3.org/2000/svg">
<path d="M16.625 12.1328H16.4342C15.9694 10.819 14.7105 9.90625 13.2852 9.90625C11.8506 9.90625 10.5851 10.8309 10.1274 12.1578C8.95323 12.3165 8.00902 13.2108 7.77475 14.3594H7.71875C6.49076 14.3594 5.49219 15.358 5.49219 16.5859C5.49219 17.8139 6.49076 18.8125 7.71875 18.8125H16.625C18.4667 18.8125 20.002 17.3144 20.002 15.4727C20.002 13.631 18.4667 12.1328 16.625 12.1328Z" fill="#2A1E1E"/>
<path d="M15.5098 1H1V5.45312H15.5098V1ZM4.37695 4.33984H3.26367V3.22656H4.37695V4.33984ZM6.60352 4.33984H5.49023V3.22656H6.60352V4.33984ZM8.83008 4.33984H7.7168V3.22656H8.83008V4.33984Z" fill="#9494A0"/>
<path d="M13.2832 8.79297C14.083 8.79297 14.8467 9.00965 15.5098 9.39336V6.56641H1V9.90625H10.3506C11.1454 9.20882 12.1766 8.79297 13.2832 8.79297ZM4.37695 8.79297H3.26367V7.67969H4.37695V8.79297ZM6.60352 8.79297H5.49023V7.67969H6.60352V8.79297ZM8.83008 8.79297H7.7168V7.67969H8.83008V8.79297Z" fill="#9494A0"/>
<path d="M6.93672 13.338C7.38845 12.3187 8.26038 11.5359 9.32797 11.1995C9.36052 11.1366 9.40212 11.0804 9.43745 11.0195H1V15.4727H4.56851C4.94306 14.4166 5.83398 13.6028 6.93672 13.338ZM5.49023 12.1328H6.60352V13.2461H5.49023V12.1328ZM4.37695 13.2461H3.26367V12.1328H4.37695V13.2461Z" fill="#9494A0"/>
</svg>
