<svg width="20" height="20" viewBox="0 0 20 20" fill="none" xmlns="http://www.w3.org/2000/svg">
<g clip-path="url(#clip0_1367_2592)">
<g clip-path="url(#clip1_1367_2592)">
<path d="M10.8583 1.55832L1.7 0.16665C1.275 0.0999837 0.841667 0.21665 0.516667 0.49165C0.191667 0.774984 0 1.18332 0 1.60832V19.1667C0 19.625 0.375 20 0.833333 20H3.54167V15.625C3.54167 14.8167 4.19167 14.1667 5 14.1667H7.08333C7.89167 14.1667 8.54167 14.8167 8.54167 15.625V20H12.0833V2.99998C12.0833 2.28332 11.5667 1.67498 10.8583 1.55832ZM4.58333 12.2917H3.33333C2.98833 12.2917 2.70833 12.0117 2.70833 11.6667C2.70833 11.3217 2.98833 11.0417 3.33333 11.0417H4.58333C4.92833 11.0417 5.20833 11.3217 5.20833 11.6667C5.20833 12.0117 4.92833 12.2917 4.58333 12.2917ZM4.58333 9.79165H3.33333C2.98833 9.79165 2.70833 9.51165 2.70833 9.16665C2.70833 8.82165 2.98833 8.54165 3.33333 8.54165H4.58333C4.92833 8.54165 5.20833 8.82165 5.20833 9.16665C5.20833 9.51165 4.92833 9.79165 4.58333 9.79165ZM4.58333 7.29165H3.33333C2.98833 7.29165 2.70833 7.01165 2.70833 6.66665C2.70833 6.32165 2.98833 6.04165 3.33333 6.04165H4.58333C4.92833 6.04165 5.20833 6.32165 5.20833 6.66665C5.20833 7.01165 4.92833 7.29165 4.58333 7.29165ZM4.58333 4.79165H3.33333C2.98833 4.79165 2.70833 4.51165 2.70833 4.16665C2.70833 3.82165 2.98833 3.54165 3.33333 3.54165H4.58333C4.92833 3.54165 5.20833 3.82165 5.20833 4.16665C5.20833 4.51165 4.92833 4.79165 4.58333 4.79165ZM8.75 12.2917H7.5C7.155 12.2917 6.875 12.0117 6.875 11.6667C6.875 11.3217 7.155 11.0417 7.5 11.0417H8.75C9.095 11.0417 9.375 11.3217 9.375 11.6667C9.375 12.0117 9.095 12.2917 8.75 12.2917ZM8.75 9.79165H7.5C7.155 9.79165 6.875 9.51165 6.875 9.16665C6.875 8.82165 7.155 8.54165 7.5 8.54165H8.75C9.095 8.54165 9.375 8.82165 9.375 9.16665C9.375 9.51165 9.095 9.79165 8.75 9.79165ZM8.75 7.29165H7.5C7.155 7.29165 6.875 7.01165 6.875 6.66665C6.875 6.32165 7.155 6.04165 7.5 6.04165H8.75C9.095 6.04165 9.375 6.32165 9.375 6.66665C9.375 7.01165 9.095 7.29165 8.75 7.29165ZM8.75 4.79165H7.5C7.155 4.79165 6.875 4.51165 6.875 4.16665C6.875 3.82165 7.155 3.54165 7.5 3.54165H8.75C9.095 3.54165 9.375 3.82165 9.375 4.16665C9.375 4.51165 9.095 4.79165 8.75 4.79165Z" fill="#2A1E1E"/>
<path d="M18.8513 9.03498L12.918 7.79248V20H18.543C19.3471 20 20.0013 19.3458 20.0013 18.5416V10.46C20.0013 9.77165 19.5321 9.18581 18.8513 9.03498ZM16.8763 17.5H15.6263C15.2813 17.5 15.0013 17.22 15.0013 16.875C15.0013 16.53 15.2813 16.25 15.6263 16.25H16.8763C17.2213 16.25 17.5013 16.53 17.5013 16.875C17.5013 17.22 17.2213 17.5 16.8763 17.5ZM16.8763 15H15.6263C15.2813 15 15.0013 14.72 15.0013 14.375C15.0013 14.03 15.2813 13.75 15.6263 13.75H16.8763C17.2213 13.75 17.5013 14.03 17.5013 14.375C17.5013 14.72 17.2213 15 16.8763 15ZM16.8763 12.5H15.6263C15.2813 12.5 15.0013 12.22 15.0013 11.875C15.0013 11.53 15.2813 11.25 15.6263 11.25H16.8763C17.2213 11.25 17.5013 11.53 17.5013 11.875C17.5013 12.22 17.2213 12.5 16.8763 12.5Z" fill="#B0B0B4"/>
</g>
</g>
<defs>
<clipPath id="clip0_1367_2592">
<rect width="20" height="20" fill="white"/>
</clipPath>
<clipPath id="clip1_1367_2592">
<rect width="20" height="20" fill="white"/>
</clipPath>
</defs>
</svg>
