<svg width="24" height="24" viewBox="0 0 24 24" fill="none" xmlns="http://www.w3.org/2000/svg">
<path d="M13.8333 20.1C13.3363 20.1 12.9333 20.5029 12.9333 21C12.9333 21.4971 13.3363 21.9 13.8333 21.9L13.8333 20.1ZM4.66667 15.3V16.2H5.56667V15.3H4.66667ZM18.4333 15.3C18.4333 17.9815 16.3438 20.1 13.8333 20.1L13.8333 21.9C17.398 21.9 20.2333 18.9145 20.2333 15.3L18.4333 15.3ZM3.76667 7.7V15.3H5.56667V7.7H3.76667ZM4.66667 14.4C3.16871 14.4 1.9 13.1322 1.9 11.5H0.1C0.1 14.0652 2.11454 16.2 4.66667 16.2V14.4ZM4.66667 6.8C2.11454 6.8 0.1 8.93483 0.1 11.5H1.9C1.9 9.8678 3.16871 8.6 4.66667 8.6V6.8ZM20.2333 15.3V7.7H18.4333V15.3H20.2333ZM22.1 11.5C22.1 13.1322 20.8313 14.4 19.3333 14.4V16.2C21.8855 16.2 23.9 14.0652 23.9 11.5H22.1ZM19.3333 8.6C20.8313 8.6 22.1 9.8678 22.1 11.5H23.9C23.9 8.93483 21.8855 6.8 19.3333 6.8V8.6ZM10.1667 1.9H13.8333V0.1H10.1667V1.9ZM13.8333 1.9C14.9863 1.9 16.1245 2.57931 17.0116 3.72155C17.8957 4.85979 18.4333 6.34369 18.4333 7.7H20.2333C20.2333 5.90829 19.5398 4.04219 18.4332 2.61743C17.3298 1.19668 15.7179 0.1 13.8333 0.1V1.9ZM5.56667 7.7C5.56667 6.34369 6.10434 4.85979 6.98838 3.72155C7.87552 2.57931 9.01371 1.9 10.1667 1.9V0.1C8.28206 0.1 6.67025 1.19668 5.56678 2.61743C4.46021 4.04219 3.76667 5.90829 3.76667 7.7H5.56667Z" fill="#2D3250"/>
<rect x="10" y="19" width="4" height="4" rx="2" fill="#2D3250"/>
<rect x="8" y="6" width="8" height="9" rx="3" stroke="#2D3250" stroke-width="1.5"/>
</svg>
