<svg width="20" height="20" viewBox="0 0 20 20" fill="none" xmlns="http://www.w3.org/2000/svg">
<path d="M15.6265 3.56766C15.6246 3.33789 15.6072 3.1085 15.5744 2.88107C15.4963 2.36354 15.2364 1.89077 14.8412 1.54757C14.4461 1.20437 13.9416 1.0132 13.4182 1.00836C10.0174 0.997214 6.61652 0.997214 3.21569 1.00836C2.92788 1.00949 2.64338 1.06989 2.37994 1.18579C1.49791 1.58888 1.01061 2.29476 1.00804 3.26937C0.997321 7.70953 0.997321 12.1495 1.00804 16.5892C1.01184 16.8948 1.06103 17.1981 1.15397 17.4892C1.29194 17.9223 1.56338 18.3006 1.92944 18.57C2.2955 18.8394 2.7374 18.9861 3.1919 18.9891C6.60431 19.0036 10.0167 19.0036 13.4291 18.9891C13.7231 18.982 14.0125 18.9151 14.2797 18.7923C15.1887 18.3809 15.622 17.6352 15.6265 16.6554C15.6368 14.4471 15.6297 12.2395 15.6297 10.0338C15.6288 7.87796 15.6278 5.7226 15.6265 3.56766ZM8.31822 5.49116C9.58663 5.52909 10.5722 6.47155 10.5683 7.75731C10.5683 9.009 9.60398 10.0113 8.30344 10.0074C8.00741 10.0103 7.71378 9.95409 7.43978 9.84198C7.16579 9.72987 6.91695 9.56415 6.70789 9.35454C6.49882 9.14494 6.33374 8.89568 6.22234 8.62139C6.11093 8.34711 6.05545 8.05333 6.05914 7.75731C6.063 6.49855 7.02282 5.52588 8.31822 5.49116ZM11.6213 14.5133H5.07168C4.58116 14.5133 4.33751 14.2684 4.37287 13.7766C4.40672 13.2447 4.58931 12.733 4.89984 12.2998C5.21037 11.8667 5.63635 11.5294 6.12922 11.3266C6.45655 11.1908 6.80731 11.1205 7.16168 11.1196C8.00514 11.1106 8.85117 11.0861 9.69077 11.1453C10.756 11.2199 11.5153 11.801 11.9929 12.7525C12.1569 13.0928 12.2486 13.4634 12.2623 13.8409C12.2848 14.2446 12.0289 14.5076 11.6213 14.5133Z" fill="#2A1E1E"/>
<path d="M17.6979 2.60852C17.3533 2.60852 17.0228 2.69772 16.7791 2.85651C16.5354 3.01529 16.3984 3.23064 16.3984 3.45519V5.74706C16.4078 5.96766 16.5488 6.17718 16.7916 6.33106C17.0344 6.48494 17.3597 6.57104 17.6984 6.57104C18.0371 6.57104 18.3625 6.48494 18.6053 6.33106C18.8481 6.17718 18.9891 5.96766 18.9984 5.74706V3.45262C18.9974 3.22841 18.8599 3.01361 18.6161 2.85537C18.3723 2.69712 18.0421 2.60835 17.6979 2.60852Z" fill="#9494A0"/>
<path d="M17.6979 8.57129C17.3533 8.57146 17.0229 8.6608 16.7793 8.81969C16.5358 8.97857 16.3989 9.19399 16.3989 9.4186V11.7098C16.3941 11.823 16.4242 11.9357 16.4874 12.0412C16.5505 12.1467 16.6455 12.2428 16.7666 12.324C16.8878 12.4052 17.0326 12.4697 17.1927 12.5137C17.3527 12.5578 17.5247 12.5805 17.6984 12.5805C17.8722 12.5805 18.0441 12.5578 18.2042 12.5137C18.3642 12.4697 18.5091 12.4052 18.6303 12.324C18.7514 12.2428 18.8463 12.1467 18.9095 12.0412C18.9727 11.9357 19.0027 11.823 18.9979 11.7098V9.4186C18.9979 9.19388 18.861 8.97836 18.6172 8.81946C18.3734 8.66056 18.0427 8.57129 17.6979 8.57129Z" fill="#9494A0"/>
<path d="M17.6979 14.5802C17.5273 14.5802 17.3583 14.6021 17.2006 14.6447C17.043 14.6872 16.8997 14.7496 16.7791 14.8282C16.6584 14.9068 16.5627 15.0001 16.4974 15.1029C16.4321 15.2056 16.3984 15.3157 16.3984 15.4269V17.7187C16.4078 17.9393 16.5488 18.1489 16.7916 18.3027C17.0344 18.4566 17.3597 18.5427 17.6984 18.5427C18.0371 18.5427 18.3625 18.4566 18.6053 18.3027C18.8481 18.1489 18.9891 17.9393 18.9984 17.7187V15.4269C18.9982 15.2023 18.861 14.9869 18.6172 14.8281C18.3733 14.6694 18.0427 14.5802 17.6979 14.5802Z" fill="#9494A0"/>
</svg>
