<svg width="25" height="24" viewBox="0 0 25 24" fill="none" xmlns="http://www.w3.org/2000/svg">
<g clip-path="url(#clip0_1492_330)">
<mask id="mask0_1492_330" style="mask-type:luminance" maskUnits="userSpaceOnUse" x="0" y="0" width="25" height="24">
<path d="M24.8118 24H0.811768V0H24.8118V24Z" fill="white"/>
</mask>
<g mask="url(#mask0_1492_330)">
<path d="M14.6452 20.1001C14.1481 20.1001 13.7452 20.503 13.7452 21.0001C13.7452 21.4972 14.1481 21.9001 14.6452 21.9001V20.1001ZM5.47853 15.3001V16.2001H6.37853V15.3001H5.47853ZM19.2452 15.3001C19.2452 17.9816 17.1557 20.1001 14.6452 20.1001V21.9001C18.2099 21.9001 21.0452 18.9146 21.0452 15.3001H19.2452ZM4.57853 7.7001V15.3001H6.37853V7.7001H4.57853ZM5.47853 14.4001C3.98058 14.4001 2.71187 13.1323 2.71187 11.5001H0.911865C0.911865 14.0653 2.9264 16.2001 5.47853 16.2001V14.4001ZM5.47853 6.8001C2.9264 6.8001 0.911865 8.93493 0.911865 11.5001H2.71187C2.71187 9.8679 3.98058 8.6001 5.47853 8.6001V6.8001ZM21.0452 15.3001V7.7001H19.2452V15.3001H21.0452ZM22.9119 11.5001C22.9119 13.1323 21.6432 14.4001 20.1452 14.4001V16.2001C22.6973 16.2001 24.7119 14.0653 24.7119 11.5001H22.9119ZM20.1452 8.6001C21.6432 8.6001 22.9119 9.8679 22.9119 11.5001H24.7119C24.7119 8.93493 22.6973 6.8001 20.1452 6.8001V8.6001ZM10.9785 1.9001H14.6452V0.100098H10.9785V1.9001ZM14.6452 1.9001C15.7982 1.9001 16.9363 2.57941 17.8235 3.72165C18.7075 4.85989 19.2452 6.34379 19.2452 7.7001H21.0452C21.0452 5.90839 20.3517 4.04229 19.2451 2.61753C18.1416 1.19678 16.5298 0.100098 14.6452 0.100098V1.9001ZM6.37853 7.7001C6.37853 6.34379 6.9162 4.85989 7.80024 3.72165C8.68739 2.57941 9.82558 1.9001 10.9785 1.9001V0.100098C9.09393 0.100098 7.48211 1.19678 6.37865 2.61753C5.27208 4.04229 4.57853 5.90839 4.57853 7.7001H6.37853Z" fill="#F51322"/>
<path d="M14.812 21C14.812 19.8954 13.9166 19 12.812 19C11.7074 19 10.812 19.8954 10.812 21C10.812 22.1046 11.7074 23 12.812 23C13.9166 23 14.812 22.1046 14.812 21Z" fill="#F51322"/>
<path d="M13.8118 6H11.8118C10.1549 6 8.81177 7.34315 8.81177 9V12C8.81177 13.6569 10.1549 15 11.8118 15H13.8118C15.4686 15 16.8118 13.6569 16.8118 12V9C16.8118 7.34315 15.4686 6 13.8118 6Z" stroke="#F51322" stroke-width="1.5"/>
</g>
</g>
<defs>
<clipPath id="clip0_1492_330">
<rect width="25" height="24" fill="white"/>
</clipPath>
</defs>
</svg>
