<svg width="25" height="24" viewBox="0 0 25 24" fill="none" xmlns="http://www.w3.org/2000/svg">
<g clip-path="url(#clip0_1492_338)">
<path fill-rule="evenodd" clip-rule="evenodd" d="M5.61035 18.6543C6.05272 18.6543 6.4126 19.0142 6.4126 19.4565C6.4126 19.8989 6.05272 20.2588 5.61035 20.2588C5.16799 20.2588 4.80811 19.8989 4.80811 19.4565C4.80811 19.0142 5.16799 18.6543 5.61035 18.6543Z" fill="#F51322"/>
<path fill-rule="evenodd" clip-rule="evenodd" d="M5.61035 11.1865C6.05272 11.1865 6.4126 11.5464 6.4126 11.9888C6.4126 12.4311 6.05272 12.791 5.61035 12.791C5.16799 12.791 4.80811 12.4311 4.80811 11.9888C4.80811 11.5464 5.16799 11.1865 5.61035 11.1865Z" fill="#F51322"/>
<path fill-rule="evenodd" clip-rule="evenodd" d="M5.61035 3.72607C6.05272 3.72607 6.4126 4.08596 6.4126 4.52832C6.4126 4.97069 6.05272 5.33057 5.61035 5.33057C5.16799 5.33057 4.80811 4.97069 4.80811 4.52832C4.80811 4.08596 5.16799 3.72607 5.61035 3.72607Z" fill="#F51322"/>
<path d="M24.8043 5.06092V3.99625C24.8043 2.92409 24.3844 1.9194 23.6346 1.16963C22.8774 0.412371 21.8727 0 20.808 0H4.80802C3.73585 0 2.73117 0.419869 1.9814 1.16963C1.22414 1.9269 0.811768 2.93158 0.811768 3.99625V5.06092C0.811768 6.13308 1.23164 7.13777 1.9814 7.88753C2.12386 8.02999 2.27381 8.14245 2.43126 8.26242C2.27381 8.37488 2.11636 8.49485 1.9814 8.6298C1.22414 9.38707 0.811768 10.3918 0.811768 11.4564V12.5211C0.811768 13.5933 1.23164 14.5979 1.9814 15.3477C2.12386 15.4902 2.27381 15.6026 2.43126 15.7226C2.27381 15.8351 2.11636 15.955 1.9814 16.09C1.22414 16.8472 0.811768 17.8519 0.811768 18.9166V19.9813C0.811768 21.0534 1.23164 22.0581 1.9814 22.8079C2.73867 23.5651 3.74335 23.9775 4.80802 23.9775H8.80427C9.24663 23.9775 9.60652 23.6176 9.60652 23.1753C9.60652 22.7329 9.24663 22.373 8.80427 22.373H4.80802C4.16322 22.373 3.56341 22.1256 3.11355 21.6682C2.66369 21.2184 2.40877 20.6111 2.40877 19.9738V18.9091C2.40877 18.2643 2.65619 17.6645 3.11355 17.2146C3.56341 16.7648 4.17072 16.5098 4.80802 16.5098H9.60652C10.0489 16.5098 10.4088 16.15 10.4088 15.7076C10.4088 15.2652 10.0489 14.9053 9.60652 14.9053H4.80802C4.17072 14.9053 3.56341 14.6579 3.11355 14.2006C2.66369 13.7507 2.40877 13.1434 2.40877 12.5061V11.4414C2.40877 10.7966 2.65619 10.1968 3.11355 9.74695C3.56341 9.29709 4.17072 9.04217 4.80802 9.04217H20.808C21.4453 9.04217 22.0526 9.2896 22.5025 9.74695C22.9524 10.1968 23.2073 10.8041 23.2073 11.4414V10.5073C23.2073 10.7773 23.1623 11.0472 23.0723 11.3096C22.9224 11.7295 23.1398 12.1793 23.5597 12.3293C23.9795 12.4792 24.4294 12.2618 24.5793 11.8419C24.7293 11.4146 24.8118 10.9647 24.8118 10.5073V11.4414C24.8118 10.3693 24.3919 9.36457 23.6421 8.61481C23.4997 8.47235 23.3497 8.35989 23.1923 8.23992C23.3497 8.12746 23.5072 8.0075 23.6421 7.87254C24.3994 7.11528 24.8118 6.11059 24.8118 5.04592L24.8043 5.06092ZM23.2073 5.06092C23.2073 5.70572 22.9598 6.30553 22.5025 6.75539C22.0526 7.20525 21.4453 7.46017 20.808 7.46017H4.80802C4.16322 7.46017 3.56341 7.21275 3.11355 6.75539C2.66369 6.30553 2.40877 5.69822 2.40877 5.06092V3.99625C2.40877 3.35145 2.65619 2.75164 3.11355 2.30178C3.56341 1.85192 4.17072 1.597 4.80802 1.597H20.808C21.4453 1.597 22.0526 1.84442 22.5025 2.30178C22.9524 2.75164 23.2073 3.35895 23.2073 3.99625V5.06092Z" fill="#F51322"/>
<path d="M12.0059 5.32325H8.80445C8.36208 5.32325 8.0022 4.96336 8.0022 4.521C8.0022 4.07864 8.36208 3.71875 8.80445 3.71875H12.0059C12.4483 3.71875 12.8082 4.07864 12.8082 4.521C12.8082 4.96336 12.4483 5.32325 12.0059 5.32325Z" fill="#F51322"/>
<path d="M12.0059 12.791H8.80445C8.36208 12.791 8.0022 12.4311 8.0022 11.9888C8.0022 11.5464 8.36208 11.1865 8.80445 11.1865H12.0059C12.4483 11.1865 12.8082 11.5464 12.8082 11.9888C12.8082 12.4311 12.4483 12.791 12.0059 12.791Z" fill="#F51322"/>
<path d="M13.4396 16.0063H16.2023L15.7802 17.7857C15.7163 18.0262 15.5884 18.2306 15.4093 18.3869C15.2302 18.5311 15.0128 18.6153 14.7826 18.6153H13.5035C13.2221 18.6153 12.9536 18.7115 12.7361 18.8918C12.5059 19.0842 12.3396 19.3487 12.2629 19.6493C12.2117 19.8657 12.1989 20.1061 12.2501 20.3226C12.2884 20.5269 12.378 20.7193 12.4803 20.8876C12.5954 21.0559 12.7489 21.1882 12.9152 21.2724C13.0942 21.3685 13.2989 21.4166 13.5035 21.4166H14.2838C14.3477 21.4166 14.4244 21.4287 14.4884 21.4647C14.5524 21.5008 14.6035 21.5489 14.6419 21.609C14.693 21.6691 14.7186 21.7413 14.7314 21.8134C14.7442 21.8855 14.7314 21.9697 14.7314 22.0418L14.2454 24.0015H13.3884C12.8256 24.0015 12.2757 23.8693 11.7768 23.5807C11.2908 23.3162 10.8815 22.9435 10.549 22.4746C10.2164 22.0178 9.99897 21.4767 9.88385 20.9117C9.76874 20.3105 9.78153 19.6974 9.92223 19.1082L9.97339 18.9039C10.178 18.0743 10.6385 17.3409 11.2652 16.8239C11.5722 16.5714 11.9175 16.367 12.2884 16.2348C12.6722 16.0905 13.0687 16.0184 13.4652 16.0184L13.4396 16.0063Z" fill="#F51322"/>
<path d="M15.6267 24.0036L17.9394 14.423C18.0009 14.1873 18.1239 13.987 18.2962 13.8338C18.4684 13.6924 18.6775 13.6099 18.899 13.6099H21.347C21.8883 13.6099 22.4173 13.7395 22.8971 14.0223C23.3523 14.2816 23.7582 14.6469 24.0781 15.1065C24.3979 15.5543 24.6193 16.0846 24.7178 16.6384C24.8408 17.2276 24.8162 17.8286 24.6686 18.4061L24.6193 18.6064C24.5209 19.0189 24.3609 19.4077 24.1518 19.7495C23.8319 20.268 23.4138 20.704 22.9094 20.9986C22.405 21.2932 21.8514 21.4464 21.2854 21.4464H19.1573L19.5756 19.6906C19.6371 19.4667 19.7601 19.2663 19.9323 19.1249C20.1045 18.9835 20.3137 18.901 20.5351 18.901H21.2117C21.4824 18.901 21.7529 18.795 21.9743 18.6182C22.1958 18.4296 22.3434 18.1704 22.4172 17.8758C22.4664 17.6637 22.4788 17.4515 22.4296 17.2394C22.3927 17.0391 22.3066 16.8505 22.1959 16.6856C22.0852 16.5206 21.9374 16.391 21.7775 16.2967C21.6053 16.2024 21.4085 16.1435 21.2117 16.1435H19.8953L18.1854 23.1905C18.1238 23.4144 18.0008 23.6147 17.8286 23.7562C17.6564 23.8976 17.4595 23.9801 17.2381 23.9801H15.6021L15.6267 24.0036Z" fill="#F51322"/>
</g>
<defs>
<clipPath id="clip0_1492_338">
<rect width="25" height="24" fill="white"/>
</clipPath>
</defs>
</svg>
