<svg width="24" height="24" viewBox="0 0 24 24" fill="none" xmlns="http://www.w3.org/2000/svg">
<path fill-rule="evenodd" clip-rule="evenodd" d="M4.79859 18.6553C5.24095 18.6553 5.60084 19.0152 5.60084 19.4575C5.60084 19.8999 5.24095 20.2598 4.79859 20.2598C4.35623 20.2598 3.99634 19.8999 3.99634 19.4575C3.99634 19.0152 4.35623 18.6553 4.79859 18.6553Z" fill="#2D3250"/>
<path fill-rule="evenodd" clip-rule="evenodd" d="M4.79859 11.1865C5.24095 11.1865 5.60084 11.5464 5.60084 11.9888C5.60084 12.4311 5.24095 12.791 4.79859 12.791C4.35623 12.791 3.99634 12.4311 3.99634 11.9888C3.99634 11.5464 4.35623 11.1865 4.79859 11.1865Z" fill="#2D3250"/>
<path fill-rule="evenodd" clip-rule="evenodd" d="M4.79859 3.72656C5.24095 3.72656 5.60084 4.08645 5.60084 4.52881C5.60084 4.97117 5.24095 5.33106 4.79859 5.33106C4.35623 5.33106 3.99634 4.97117 3.99634 4.52881C3.99634 4.08645 4.35623 3.72656 4.79859 3.72656Z" fill="#2D3250"/>
<path d="M23.9925 5.06092V3.99625C23.9925 2.92409 23.5726 1.9194 22.8229 1.16963C22.0656 0.412371 21.0609 0 19.9963 0H3.99625C2.92409 0 1.9194 0.419869 1.16963 1.16963C0.412371 1.9269 0 2.93158 0 3.99625V5.06092C0 6.13308 0.419869 7.13777 1.16963 7.88753C1.31209 8.02999 1.46204 8.14245 1.61949 8.26242C1.46204 8.37488 1.30459 8.49485 1.16963 8.6298C0.412371 9.38707 0 10.3918 0 11.4564V12.5211C0 13.5933 0.419869 14.5979 1.16963 15.3477C1.31209 15.4902 1.46204 15.6026 1.61949 15.7226C1.46204 15.8351 1.30459 15.955 1.16963 16.09C0.412371 16.8472 0 17.8519 0 18.9166V19.9813C0 21.0534 0.419869 22.0581 1.16963 22.8079C1.9269 23.5651 2.93158 23.9775 3.99625 23.9775H7.9925C8.43486 23.9775 8.79475 23.6176 8.79475 23.1753C8.79475 22.7329 8.43486 22.373 7.9925 22.373H3.99625C3.35145 22.373 2.75164 22.1256 2.30178 21.6682C1.85192 21.2184 1.597 20.6111 1.597 19.9738V18.9091C1.597 18.2643 1.84442 17.6645 2.30178 17.2146C2.75164 16.7648 3.35895 16.5098 3.99625 16.5098H8.79475C9.23711 16.5098 9.597 16.15 9.597 15.7076C9.597 15.2652 9.23711 14.9053 8.79475 14.9053H3.99625C3.35895 14.9053 2.75164 14.6579 2.30178 14.2006C1.85192 13.7507 1.597 13.1434 1.597 12.5061V11.4414C1.597 10.7966 1.84442 10.1968 2.30178 9.74695C2.75164 9.29709 3.35895 9.04217 3.99625 9.04217H19.9963C20.6336 9.04217 21.2409 9.2896 21.6907 9.74695C22.1406 10.1968 22.3955 10.8041 22.3955 11.4414V10.5073C22.3955 10.7773 22.3505 11.0472 22.2605 11.3096C22.1106 11.7295 22.328 12.1793 22.7479 12.3293C23.1678 12.4792 23.6176 12.2618 23.7676 11.8419C23.9175 11.4146 24 10.9647 24 10.5073V11.4414C24 10.3693 23.5801 9.36457 22.8304 8.61481C22.6879 8.47235 22.538 8.35989 22.3805 8.23992C22.538 8.12746 22.6954 8.0075 22.8304 7.87254C23.5876 7.11528 24 6.11059 24 5.04592L23.9925 5.06092ZM22.3955 5.06092C22.3955 5.70572 22.1481 6.30553 21.6907 6.75539C21.2409 7.20525 20.6336 7.46017 19.9963 7.46017H3.99625C3.35145 7.46017 2.75164 7.21275 2.30178 6.75539C1.85192 6.30553 1.597 5.69822 1.597 5.06092V3.99625C1.597 3.35145 1.84442 2.75164 2.30178 2.30178C2.75164 1.85192 3.35895 1.597 3.99625 1.597H19.9963C20.6336 1.597 21.2409 1.84442 21.6907 2.30178C22.1406 2.75164 22.3955 3.35895 22.3955 3.99625V5.06092Z" fill="#2D3250"/>
<path d="M11.1941 5.32325H7.99256C7.55019 5.32325 7.19031 4.96336 7.19031 4.521C7.19031 4.07864 7.55019 3.71875 7.99256 3.71875H11.1941C11.6364 3.71875 11.9963 4.07864 11.9963 4.521C11.9963 4.96336 11.6364 5.32325 11.1941 5.32325Z" fill="#2D3250"/>
<path d="M11.1941 12.791H7.99256C7.55019 12.791 7.19031 12.4311 7.19031 11.9888C7.19031 11.5464 7.55019 11.1865 7.99256 11.1865H11.1941C11.6364 11.1865 11.9963 11.5464 11.9963 11.9888C11.9963 12.4311 11.6364 12.791 11.1941 12.791Z" fill="#2D3250"/>
<path d="M12.6278 16.0068H15.3905L14.9685 17.7862C14.9045 18.0267 14.7766 18.2311 14.5975 18.3874C14.4185 18.5316 14.201 18.6158 13.9708 18.6158H12.6918C12.4104 18.6158 12.1418 18.712 11.9243 18.8923C11.6941 19.0847 11.5278 19.3492 11.4511 19.6498C11.3999 19.8662 11.3871 20.1066 11.4383 20.323C11.4767 20.5274 11.5662 20.7198 11.6685 20.8881C11.7837 21.0564 11.9371 21.1887 12.1034 21.2728C12.2825 21.369 12.4871 21.4171 12.6918 21.4171H13.472C13.5359 21.4171 13.6127 21.4291 13.6766 21.4652C13.7406 21.5013 13.7917 21.5494 13.8301 21.6095C13.8813 21.6696 13.9069 21.7417 13.9196 21.8139C13.9324 21.886 13.9196 21.9702 13.9196 22.0423L13.4336 24.002H12.5767C12.0139 24.002 11.4639 23.8698 10.9651 23.5812C10.479 23.3167 10.0697 22.944 9.73719 22.4751C9.40464 22.0183 9.1872 21.4772 9.07209 20.9122C8.95697 20.311 8.96976 19.6979 9.11046 19.1087L9.16162 18.9043C9.36627 18.0748 9.82672 17.3414 10.4534 16.8244C10.7604 16.5719 11.1058 16.3675 11.4767 16.2353C11.8604 16.091 12.2569 16.0189 12.6534 16.0189L12.6278 16.0068Z" fill="#2D3250"/>
<path d="M14.8149 24.0041L17.1276 14.4235C17.1892 14.1878 17.3122 13.9875 17.4844 13.8343C17.6566 13.6928 17.8658 13.6104 18.0872 13.6104H20.5353C21.0766 13.6104 21.6055 13.74 22.0853 14.0228C22.5405 14.2821 22.9464 14.6474 23.2663 15.107C23.5861 15.5548 23.8076 16.0851 23.906 16.6389C24.029 17.2281 24.0044 17.8291 23.8568 18.4066L23.8076 18.6069C23.7092 19.0193 23.5492 19.4082 23.3401 19.75C23.0203 20.2685 22.602 20.7045 22.0976 20.9991C21.5932 21.2937 21.0397 21.4469 20.4738 21.4469H18.3455L18.7638 19.6911C18.8253 19.4672 18.9483 19.2668 19.1206 19.1254C19.2928 18.984 19.5019 18.9015 19.7233 18.9015H20.4C20.6706 18.9015 20.9412 18.7954 21.1627 18.6187C21.3841 18.4301 21.5317 18.1709 21.6055 17.8763C21.6547 17.6642 21.667 17.452 21.6178 17.2399C21.5809 17.0396 21.4948 16.851 21.3841 16.6861C21.2734 16.5211 21.1258 16.3914 20.9658 16.2972C20.7936 16.2029 20.5968 16.144 20.4 16.144H19.0836L17.3737 23.191C17.3122 23.4149 17.1892 23.6152 17.0169 23.7566C16.8447 23.8981 16.6479 23.9805 16.4264 23.9805H14.7903L14.8149 24.0041Z" fill="#2D3250"/>
</svg>
