<svg width="20" height="20" viewBox="0 0 20 20" fill="none" xmlns="http://www.w3.org/2000/svg">
<g clip-path="url(#clip0_1353_1901)">
<path d="M16.0156 9.33594H3.98438C3.66078 9.33594 3.39844 9.59828 3.39844 9.92187V14.0603H16.6016V9.92187C16.6016 9.59828 16.3392 9.33594 16.0156 9.33594ZM8.42246 12.3437H5.3125C4.98891 12.3437 4.72656 12.0814 4.72656 11.7578C4.72656 11.4342 4.98891 11.1719 5.3125 11.1719H8.42246C8.74602 11.1719 9.0084 11.4342 9.0084 11.7578C9.0084 12.0814 8.74602 12.3437 8.42246 12.3437ZM12.1875 12.3381C11.8639 12.3381 11.6016 12.0758 11.6016 11.7522C11.6016 11.4286 11.8639 11.1662 12.1875 11.1662C12.5111 11.1662 12.7734 11.4286 12.7734 11.7522C12.7734 12.0758 12.5111 12.3381 12.1875 12.3381ZM14.6875 12.3381C14.3639 12.3381 14.1016 12.0758 14.1016 11.7522C14.1016 11.4286 14.3639 11.1662 14.6875 11.1662C15.0111 11.1662 15.2734 11.4286 15.2734 11.7522C15.2734 12.0758 15.0111 12.3381 14.6875 12.3381Z" fill="#2A1E1E"/>
<path d="M3.39844 19.4141C3.39844 19.7376 3.66078 20 3.98438 20H16.0156C16.3392 20 16.6016 19.7376 16.6016 19.4141V15.2322H3.39844V19.4141ZM14.6875 16.875C15.0111 16.875 15.2734 17.1373 15.2734 17.4609C15.2734 17.7845 15.0111 18.0469 14.6875 18.0469C14.3639 18.0469 14.1016 17.7845 14.1016 17.4609C14.1016 17.1373 14.3639 16.875 14.6875 16.875ZM12.1875 16.875C12.5111 16.875 12.7734 17.1373 12.7734 17.4609C12.7734 17.7845 12.5111 18.0469 12.1875 18.0469C11.8639 18.0469 11.6016 17.7845 11.6016 17.4609C11.6016 17.1373 11.8639 16.875 12.1875 16.875ZM5.3125 16.875H8.42246C8.74602 16.875 9.0084 17.1373 9.0084 17.4609C9.0084 17.7845 8.74602 18.0469 8.42246 18.0469H5.3125C4.98891 18.0469 4.72656 17.7845 4.72656 17.4609C4.72656 17.1373 4.98891 16.875 5.3125 16.875Z" fill="#2A1E1E"/>
<path d="M7.15544 3.01587H9.20722L8.89125 4.0733C8.84326 4.21939 8.75127 4.33765 8.61928 4.42809C8.4873 4.51853 8.33131 4.56375 8.15533 4.56375H7.19944C6.98346 4.56375 6.79148 4.6194 6.6235 4.73071C6.45552 4.84202 6.33953 4.99159 6.27554 5.17942C6.23154 5.32204 6.22754 5.45421 6.26354 5.58291C6.29554 5.70814 6.35553 5.81944 6.43952 5.91684C6.52351 6.01423 6.6315 6.09076 6.76748 6.14989C6.89947 6.20902 7.04745 6.23685 7.20344 6.23685H7.78337C7.89136 6.23685 7.97935 6.27511 8.05134 6.35164C8.11934 6.42816 8.13933 6.51164 8.11134 6.60904L7.74738 7.77777H7.11145C6.67549 7.77777 6.27554 7.69429 5.90758 7.53081C5.54362 7.36385 5.23565 7.14471 4.99568 6.87339C4.7557 6.60208 4.59172 6.28207 4.50373 5.93075C4.41574 5.57944 4.42774 5.22116 4.53573 4.85245L4.57172 4.73419C4.65172 4.48375 4.7717 4.25069 4.93968 4.03503C5.10767 3.81938 5.30364 3.64198 5.53162 3.48893C5.75959 3.33588 6.01157 3.22109 6.28754 3.13761C6.56351 3.05413 6.85547 3.01587 7.15544 3.01587Z" fill="#2A1E1E"/>
<path d="M8.25391 7.77408L9.93443 1.62871C9.97954 1.47452 10.066 1.3497 10.1901 1.25426C10.3141 1.15881 10.4608 1.11108 10.6262 1.11108H12.4082C12.8142 1.11108 13.1902 1.19919 13.5361 1.37173C13.8782 1.54794 14.1639 1.77922 14.3933 2.06556C14.6188 2.35558 14.7767 2.6823 14.8632 3.05308C14.9497 3.42386 14.9384 3.80198 14.8294 4.19111L14.7955 4.31593C14.7203 4.58025 14.6076 4.82621 14.4534 5.05382C14.2993 5.27775 14.1151 5.47232 13.9045 5.63384C13.6902 5.79537 13.4534 5.92019 13.194 6.00829C12.9308 6.0964 12.6601 6.14045 12.3744 6.14045H10.8292L11.1375 5.0171C11.1826 4.86659 11.2691 4.74544 11.3931 4.65C11.5172 4.55455 11.6638 4.50683 11.8292 4.50683H12.3217C12.5248 4.50683 12.709 4.44442 12.8706 4.32327C13.0323 4.20213 13.1376 4.04427 13.1902 3.8497C13.2316 3.7102 13.2353 3.57437 13.2015 3.44221C13.1676 3.31006 13.115 3.19258 13.0361 3.08979C12.9571 2.987 12.8556 2.90257 12.7278 2.84016C12.6037 2.77775 12.4646 2.74471 12.318 2.74471H11.3631L10.1186 7.26747C10.0735 7.41799 9.98706 7.53913 9.863 7.63458C9.73893 7.73003 9.59607 7.77775 9.43817 7.77775L8.25391 7.77408Z" fill="#9494A0"/>
</g>
<defs>
<clipPath id="clip0_1353_1901">
<rect width="20" height="20" fill="white"/>
</clipPath>
</defs>
</svg>
