<svg width="20" height="20" viewBox="0 0 20 20" fill="none" xmlns="http://www.w3.org/2000/svg">
<path d="M5.87823 7.42859H9.57143L9.00269 9.33196C8.9163 9.59492 8.75072 9.8078 8.51314 9.97059C8.27557 10.1334 7.9948 10.2148 7.67804 10.2148H5.95742C5.56867 10.2148 5.2231 10.3149 4.92074 10.5153C4.61837 10.7157 4.40959 10.9849 4.29441 11.323C4.21521 11.5797 4.20801 11.8176 4.27281 12.0493C4.3304 12.2747 4.43839 12.475 4.58957 12.6503C4.74076 12.8256 4.93514 12.9634 5.17991 13.0698C5.41748 13.1763 5.68385 13.2264 5.96462 13.2264H7.00851C7.20289 13.2264 7.36127 13.2952 7.49086 13.433C7.61324 13.5707 7.64924 13.721 7.59884 13.8963L6.94372 16H5.79904C5.01433 16 4.29441 15.8498 3.63208 15.5555C2.97695 15.2549 2.42261 14.8605 1.99066 14.3721C1.5587 13.8838 1.26354 13.3077 1.10515 12.6754C0.946771 12.043 0.968369 11.3981 1.16275 10.7344L1.22754 10.5216C1.37152 10.0708 1.5875 9.65127 1.88987 9.26309C2.19224 8.8749 2.545 8.55558 2.95535 8.2801C3.36571 8.00461 3.81926 7.79799 4.316 7.64773C4.81275 7.49746 5.33829 7.42859 5.87823 7.42859Z" fill="#2A1E1E"/>
<path d="M7.85547 15.9934L10.8804 4.93172C10.9616 4.65419 11.1173 4.42952 11.3406 4.25771C11.5639 4.0859 11.8278 4 12.1256 4H15.3332C16.0641 4 16.7408 4.15859 17.3634 4.46916C17.9792 4.78634 18.4935 5.20264 18.9063 5.71806C19.3123 6.24009 19.5966 6.82819 19.7522 7.49559C19.9078 8.163 19.8875 8.84361 19.6913 9.54405L19.6304 9.76872C19.4951 10.2445 19.292 10.6872 19.0146 11.0969C18.7371 11.5 18.4055 11.8502 18.0266 12.141C17.6408 12.4317 17.2145 12.6564 16.7476 12.815C16.2739 12.9736 15.7866 13.0529 15.2723 13.0529H12.491L13.0459 11.0308C13.1271 10.7599 13.2828 10.5419 13.5061 10.37C13.7294 10.1982 13.9933 10.1123 14.2911 10.1123H15.1776C15.543 10.1123 15.8746 10 16.1656 9.78194C16.4566 9.56388 16.6461 9.27974 16.7408 8.92952C16.8152 8.67841 16.822 8.43392 16.7611 8.19604C16.7002 7.95815 16.6055 7.7467 16.4633 7.56167C16.3212 7.37665 16.1385 7.22467 15.9084 7.11233C15.6851 7 15.4347 6.94053 15.1708 6.94053H13.4519L11.212 15.0815C11.1308 15.3524 10.9751 15.5705 10.7518 15.7423C10.5285 15.9141 10.2714 16 9.98714 16L7.85547 15.9934Z" fill="#9494A0"/>
</svg>
