<svg width="20" height="20" viewBox="0 0 20 20" fill="none" xmlns="http://www.w3.org/2000/svg">
<path d="M17.6765 7.71315C17.6765 8.06612 17.5392 8.39761 17.2899 8.64721C17.0449 8.89261 16.7208 9.02936 16.375 9.03393C16.3947 8.85499 16.4045 8.67393 16.4045 8.49147V6.39307C17.1098 6.41803 17.6765 7.00088 17.6765 7.71315Z" fill="#2A1E1E"/>
<path d="M6.67258 9.03393C6.32675 9.02936 6.00271 8.89261 5.75764 8.64721C5.50838 8.39761 5.37109 8.06612 5.37109 7.71315C5.37109 7.00092 5.93774 6.41803 6.64308 6.39307V8.49147C6.64308 8.67432 6.65293 8.85499 6.67258 9.03393Z" fill="#2A1E1E"/>
<path d="M11.5282 14.7523C11.1325 14.7523 10.7586 14.6239 10.4475 14.3814C10.4194 14.3596 10.3899 14.3409 10.3594 14.3258C10.6262 14.0569 10.8217 13.7169 10.9152 13.3376C11.1139 13.3626 11.3172 13.3752 11.5215 13.3752C12.1355 13.3752 12.7324 13.2624 13.2885 13.0465C13.258 13.9922 12.4803 14.7523 11.5282 14.7523Z" fill="#2A1E1E"/>
<path d="M17.8434 18.4727C17.8434 18.7638 17.624 19 17.354 19H10.6875C10.8736 18.684 10.98 18.3159 10.98 17.9232V16.034C10.98 15.9377 10.9736 15.8428 10.9607 15.7496C11.1464 15.7876 11.337 15.8069 11.5308 15.8069C13.083 15.8069 14.3455 14.5427 14.3455 12.9885C14.3455 12.8258 14.3315 12.6637 14.3041 12.5059C14.5411 12.341 14.7651 12.1536 14.9736 11.9452C14.9856 11.9332 14.9971 11.9213 15.0087 11.9093C16.1986 12.9049 17.8434 14.9238 17.8434 18.4727Z" fill="#2A1E1E"/>
<path d="M13.5684 6.39067C13.2278 6.39067 12.9037 6.28485 12.6387 6.0929C12.3733 6.28485 12.0492 6.39067 11.7087 6.39067H7.69922V8.4915C7.69922 8.59697 7.70344 8.70138 7.71152 8.80509H8.85045C10.0245 8.80509 10.9794 9.76131 10.9794 10.9365V12.2819C11.1585 12.3079 11.34 12.3206 11.5236 12.3206H11.524C12.5456 12.3206 13.5059 11.9223 14.2284 11.1991C14.9506 10.476 15.3487 9.51451 15.3487 8.4915V6.39067H13.5684ZM9.80364 8.17232C9.51258 8.17232 9.277 7.93607 9.277 7.64501C9.277 7.35391 9.51258 7.1177 9.80364 7.1177C10.0943 7.1177 10.3303 7.35395 10.3303 7.64501C10.3303 7.93607 10.0943 8.17232 9.80364 8.17232ZM13.2794 8.17232C12.9887 8.17232 12.7528 7.93607 12.7528 7.64501C12.7528 7.35391 12.9887 7.1177 13.2794 7.1177C13.5705 7.1177 13.8061 7.35395 13.8061 7.64501C13.8061 7.93607 13.5705 8.17232 13.2794 8.17232Z" fill="#2A1E1E"/>
<path d="M8.85131 14.9572H2.21957C1.62589 14.9572 1.14453 15.4392 1.14453 16.034V17.9232C1.14453 18.5177 1.62589 19 2.21993 19H8.85131C9.44534 19 9.92705 18.5177 9.92705 17.9232V16.034C9.92702 15.4395 9.44534 14.9572 8.85131 14.9572ZM2.98809 17.5059C2.69738 17.5059 2.46145 17.2697 2.46145 16.9786C2.46145 16.6875 2.69738 16.4513 2.98809 16.4513C3.27915 16.4513 3.51508 16.6876 3.51508 16.9786C3.51508 17.2697 3.27915 17.5059 2.98809 17.5059ZM8.08311 17.5059H5.28843C4.99773 17.5059 4.76179 17.2697 4.76179 16.9786C4.76179 16.6875 4.99773 16.4513 5.28843 16.4513H8.08311C8.37381 16.4513 8.6101 16.6876 8.6101 16.9786C8.6101 17.2697 8.37381 17.5059 8.08311 17.5059Z" fill="#9494A0"/>
<path d="M8.85131 9.85968H2.21957C1.62589 9.85968 1.14453 10.3416 1.14453 10.9365V12.8257C1.14453 13.4202 1.62589 13.9025 2.21993 13.9025H8.85131C9.44534 13.9025 9.92705 13.4202 9.92705 12.8257V10.9365C9.92702 10.342 9.44534 9.85968 8.85131 9.85968ZM2.98809 12.4084C2.69738 12.4084 2.46145 12.1722 2.46145 11.8811C2.46145 11.59 2.69738 11.3538 2.98809 11.3538C3.27915 11.3538 3.51508 11.59 3.51508 11.8811C3.51508 12.1722 3.27915 12.4084 2.98809 12.4084ZM8.08311 12.4084H5.28843C4.99773 12.4084 4.76179 12.1722 4.76179 11.8811C4.76179 11.59 4.99773 11.3538 5.28843 11.3538H8.08311C8.37381 11.3538 8.6101 11.59 8.6101 11.8811C8.6101 12.1722 8.37381 12.4084 8.08311 12.4084Z" fill="#9494A0"/>
<path d="M11.5238 1.00064C9.17997 0.960947 6.86314 2.77663 6.91088 4.88561C6.91088 5.1342 7.13521 5.33583 7.4126 5.33583H11.7089C11.8672 5.33583 12.0164 5.2684 12.1109 5.15498L12.6389 4.5195L13.1666 5.15467C13.261 5.2684 13.4103 5.33583 13.5686 5.33583H15.6359C15.9132 5.33583 16.1376 5.1342 16.1376 4.88561C16.1375 2.74354 13.9109 1.00064 11.5238 1.00064Z" fill="#2A1E1E"/>
</svg>
