<svg width="23" height="24" viewBox="0 0 23 24" fill="none" xmlns="http://www.w3.org/2000/svg">
<g clip-path="url(#clip0_1492_347)">
<path d="M17.553 14.0455C18.6794 13.0158 19.3163 11.5724 19.3141 10.0463V9.58547H19.9208C20.484 9.58547 21.0136 9.366 21.4123 8.96747C21.8107 8.56889 22.0303 8.03925 22.0303 7.47609C22.0303 6.45023 21.2939 5.5935 20.3223 5.40548C19.9904 2.37 17.4113 0 14.2887 0H13.493C11.8727 0 10.352 0.620906 9.21121 1.74834C8.2146 2.73328 7.60531 4.0133 7.45808 5.40577C6.48697 5.59434 5.75141 6.45075 5.75141 7.47609C5.72792 8.60939 6.72749 9.609 7.86088 9.58547H8.46753C8.45703 10.1673 8.47644 10.7864 8.62358 11.3438H1.81288C0.821471 11.3438 0.0148926 12.1503 0.0148926 13.1417V16.577C0.0148926 16.9888 0.154393 17.3684 0.388111 17.6718C0.154393 17.9753 0.0148926 18.355 0.0148926 18.7667V22.202C0.0148926 23.1934 0.821471 24 1.81288 24H21.6243C22.0126 24 22.3274 23.6852 22.3274 23.2969C22.3274 17.8677 19.2179 15.1242 17.553 14.0455ZM16.2425 15.0473C16.2425 16.3441 15.1876 17.3991 13.891 17.3991C13.4728 17.3991 13.0733 17.2916 12.7188 17.0865V15.3415C13.101 15.4259 13.4926 15.4688 13.8908 15.4688C14.7177 15.4688 15.5161 15.2847 16.2398 14.9365C16.2416 14.9733 16.2425 15.0103 16.2425 15.0473ZM20.624 7.47609C20.6319 7.85363 20.2983 8.18709 19.9208 8.17922H19.3142V6.77288L19.9208 6.77297C20.3086 6.77297 20.624 7.08839 20.624 7.47609ZM10.1997 2.74856C11.0756 1.88297 12.2451 1.40625 13.493 1.40625H14.2887C16.6215 1.40625 18.5597 3.1275 18.8997 5.36662H17.1099L16.0174 3.90094C15.7545 3.52795 15.1529 3.52786 14.89 3.90084L13.7969 5.36662H8.87994C9.02572 4.36964 9.48167 3.45816 10.1997 2.74856ZM7.86088 8.17922C7.48335 8.18709 7.14983 7.85358 7.15766 7.47609C7.15766 7.08839 7.47313 6.77297 7.86111 6.77297L8.46753 6.77288V8.17922H7.86088ZM9.87378 10.0463V6.77288H14.1497C14.3717 6.77288 14.5806 6.66806 14.7134 6.49008L15.4535 5.49755L16.1933 6.48998C16.326 6.66802 16.535 6.77288 16.757 6.77288H17.9079V10.0463C17.9079 11.1189 17.4901 12.1275 16.7314 12.8861C15.9727 13.6447 14.9639 14.0625 13.8908 14.0625C13.4891 14.0625 13.0966 14.0035 12.7189 13.8882V13.1417C12.7189 12.1503 11.9123 11.3438 10.9209 11.3438H10.0878C9.94564 10.929 9.87378 10.4942 9.87378 10.0463ZM1.42114 13.1417C1.42114 12.9257 1.59688 12.75 1.81288 12.75H10.9208C11.1368 12.75 11.3126 12.9257 11.3126 13.1417V16.9688H1.81288C1.59688 16.9688 1.42114 16.793 1.42114 16.577V13.1417ZM1.42114 22.202V18.7668C1.42114 18.5508 1.59688 18.375 1.81288 18.375H11.3126V22.2021C11.3126 22.4181 11.1368 22.5938 10.9208 22.5938H1.81288C1.59688 22.5938 1.42114 22.418 1.42114 22.202ZM12.6754 22.5938C12.7035 22.4676 12.7189 22.3365 12.7189 22.202V18.6194C13.0926 18.7418 13.4863 18.8053 13.8911 18.8053C15.7071 18.8053 17.2261 17.5103 17.5738 15.7952C18.0304 16.1678 18.5263 16.6481 18.9953 17.255C20.1443 18.7417 20.784 20.5349 20.9014 22.5938H12.6754Z" fill="#F51322"/>
<path d="M3.53076 15.5625C3.91909 15.5625 4.23389 15.2477 4.23389 14.8594C4.23389 14.471 3.91909 14.1562 3.53076 14.1562C3.14244 14.1562 2.82764 14.471 2.82764 14.8594C2.82764 15.2477 3.14244 15.5625 3.53076 15.5625Z" fill="#F51322"/>
<path d="M9.20307 19.7812H6.34351C5.95519 19.7812 5.64038 20.0961 5.64038 20.4844C5.64038 20.8727 5.95519 21.1875 6.34351 21.1875H9.20307C9.59138 21.1875 9.90619 20.8727 9.90619 20.4844C9.90619 20.0961 9.59138 19.7812 9.20307 19.7812Z" fill="#F51322"/>
<path d="M6.34351 15.5625H9.20307C9.59138 15.5625 9.90619 15.2477 9.90619 14.8594C9.90619 14.4711 9.59138 14.1562 9.20307 14.1562H6.34351C5.95519 14.1562 5.64038 14.4711 5.64038 14.8594C5.64038 15.2477 5.95519 15.5625 6.34351 15.5625Z" fill="#F51322"/>
<path d="M3.53076 21.1875C3.91909 21.1875 4.23389 20.8727 4.23389 20.4844C4.23389 20.096 3.91909 19.7812 3.53076 19.7812C3.14244 19.7812 2.82764 20.096 2.82764 20.4844C2.82764 20.8727 3.14244 21.1875 3.53076 21.1875Z" fill="#F51322"/>
<path d="M12.0627 9.5625C12.4511 9.5625 12.7659 9.2477 12.7659 8.85938C12.7659 8.47105 12.4511 8.15625 12.0627 8.15625C11.6744 8.15625 11.3596 8.47105 11.3596 8.85938C11.3596 9.2477 11.6744 9.5625 12.0627 9.5625Z" fill="#F51322"/>
<path d="M15.7659 9.5625C16.1542 9.5625 16.469 9.2477 16.469 8.85938C16.469 8.47105 16.1542 8.15625 15.7659 8.15625C15.3775 8.15625 15.0627 8.47105 15.0627 8.85938C15.0627 9.2477 15.3775 9.5625 15.7659 9.5625Z" fill="#F51322"/>
</g>
<defs>
<clipPath id="clip0_1492_347">
<rect width="23" height="24" fill="white"/>
</clipPath>
</defs>
</svg>
