<svg width="21" height="24" viewBox="0 0 21 24" fill="none" xmlns="http://www.w3.org/2000/svg">
<path d="M12.8438 24H3.75C1.68219 24 0 22.3178 0 20.25V3.75C0 1.68219 1.68219 0 3.75 0H12.8438C14.9116 0 16.5938 1.68219 16.5938 3.75V5.2088C16.5938 5.72662 16.1741 6.1463 15.6562 6.1463C15.1384 6.1463 14.7188 5.72662 14.7188 5.2088V3.75C14.7188 2.71619 13.8776 1.875 12.8438 1.875H3.75C2.71619 1.875 1.875 2.71619 1.875 3.75V20.25C1.875 21.2838 2.71619 22.125 3.75 22.125H12.8438C13.8776 22.125 14.7188 21.2838 14.7188 20.25V18.4744C14.7188 17.9566 15.1384 17.5369 15.6562 17.5369C16.1741 17.5369 16.5938 17.9566 16.5938 18.4744V20.25C16.5938 22.3178 14.9116 24 12.8438 24ZM9.23438 19.7401C9.23438 19.2222 8.8147 18.8026 8.29688 18.8026C7.77905 18.8026 7.35938 19.2222 7.35938 19.7401C7.35938 20.2579 7.77905 20.6776 8.29688 20.6776C8.8147 20.6776 9.23438 20.2579 9.23438 19.7401ZM10.1719 4.2713C10.1719 3.75348 9.7522 3.3338 9.23438 3.3338H7.35938C6.84155 3.3338 6.42188 3.75348 6.42188 4.2713C6.42188 4.78912 6.84155 5.2088 7.35938 5.2088H9.23438C9.7522 5.2088 10.1719 4.78912 10.1719 4.2713ZM11.4509 16.6932C11.8766 16.6932 12.2972 16.4127 12.4125 16.0065L14.5419 8.51605C14.7129 7.91492 14.2571 7.31818 13.6273 7.31818C13.2015 7.31818 12.8278 7.59869 12.7125 8.00482L10.5831 15.4955C10.4123 16.0966 10.821 16.6932 11.4509 16.6932ZM9.0152 15.5612C9.3479 15.1644 9.2959 14.573 8.89911 14.2405L6.58063 12.2964C6.4834 12.2128 6.46875 12.1078 6.46875 12.0526C6.46875 11.9973 6.4834 11.8923 6.58063 11.8087L8.89911 9.86462C9.2959 9.5321 9.3479 8.94067 9.0152 8.54388C8.68268 8.14728 8.09125 8.09509 7.69446 8.4278L5.37305 10.3742C5.37158 10.3755 5.36993 10.3768 5.36847 10.3782C4.8761 10.7963 4.59375 11.4066 4.59375 12.0526C4.59375 12.6985 4.8761 13.3088 5.36847 13.7269C5.36993 13.7281 5.3714 13.7294 5.37305 13.7309L7.69446 15.6773C7.87006 15.8245 8.08374 15.8963 8.29633 15.8963C8.56403 15.8963 8.8299 15.7822 9.0152 15.5612ZM17.2502 15.6711L19.5222 13.7269C20.0145 13.3088 20.2969 12.6985 20.2969 12.0526C20.2969 11.4066 20.0145 10.7963 19.5247 10.3804L17.2502 8.43402C16.8567 8.09729 16.2649 8.14343 15.9283 8.53674C15.5916 8.93024 15.6378 9.52203 16.0311 9.85858L18.3083 11.8072C18.407 11.8911 18.4219 11.9969 18.4219 12.0526C18.4219 12.108 18.4072 12.2139 18.3058 12.2999L16.0311 14.2465C15.6378 14.5831 15.5916 15.1749 15.9283 15.5682C16.1138 15.785 16.3766 15.8963 16.6412 15.8963C16.8567 15.8963 17.0735 15.8223 17.2502 15.6711Z" fill="#2D3250"/>
</svg>
