<svg width="20" height="20" viewBox="0 0 20 20" fill="none" xmlns="http://www.w3.org/2000/svg">
<g clip-path="url(#clip0_1340_1500)">
<path d="M19 5.25391V2.61719C19 1.74486 18.2903 1.03516 17.418 1.03516H2.58203C1.7097 1.03516 1 1.74486 1 2.61719V5.25391H19ZM13.1641 3.14453H16.3281C16.6194 3.14453 16.8555 3.38064 16.8555 3.67188C16.8555 3.96311 16.6194 4.19922 16.3281 4.19922H13.1641C12.8728 4.19922 12.6367 3.96311 12.6367 3.67188C12.6367 3.38064 12.8728 3.14453 13.1641 3.14453ZM7.89062 3.14453C8.18186 3.14453 8.41797 3.38064 8.41797 3.67188C8.41797 3.96311 8.18186 4.19922 7.89062 4.19922C7.59939 4.19922 7.36328 3.96311 7.36328 3.67188C7.36328 3.38064 7.59939 3.14453 7.89062 3.14453ZM5.78125 3.14453C6.07248 3.14453 6.30859 3.38064 6.30859 3.67188C6.30859 3.96311 6.07248 4.19922 5.78125 4.19922C5.49002 4.19922 5.25391 3.96311 5.25391 3.67188C5.25391 3.38064 5.49002 3.14453 5.78125 3.14453ZM3.67188 3.14453C3.96311 3.14453 4.19922 3.38064 4.19922 3.67188C4.19922 3.96311 3.96311 4.19922 3.67188 4.19922C3.38064 4.19922 3.14453 3.96311 3.14453 3.67188C3.14453 3.38064 3.38064 3.14453 3.67188 3.14453Z" fill="#9494A0"/>
<path d="M1 6.30859V17.3828C1 18.2551 1.7097 18.9648 2.58203 18.9648H17.418C18.2903 18.9648 19 18.2551 19 17.3828V6.30859H1ZM7.16535 13.807C7.39281 13.9889 7.42966 14.3207 7.24772 14.5482C7.06582 14.7756 6.73391 14.8125 6.50652 14.6305L3.8698 12.5211C3.60617 12.3103 3.60599 11.9086 3.8698 11.6976L6.50652 9.58818C6.73384 9.40625 7.06575 9.44309 7.24772 9.67052C7.42966 9.89794 7.39281 10.2298 7.16535 10.4117L5.04339 12.1094L7.16535 13.807ZM12.0667 8.62571L8.90267 16.0085C8.78795 16.2762 8.47802 16.4003 8.21023 16.2855C7.94255 16.1708 7.81852 15.8607 7.93327 15.593L11.0973 8.21023C11.2121 7.94255 11.5221 7.81855 11.7898 7.93327C12.0574 8.04798 12.1815 8.35799 12.0667 8.62571ZM16.1302 12.5212L13.4935 14.6305C13.2664 14.8122 12.9345 14.7759 12.7523 14.5482C12.5703 14.3208 12.6072 13.9889 12.8346 13.807L14.9566 12.1094L12.8346 10.4118C12.6072 10.2299 12.5703 9.89801 12.7523 9.67059C12.9342 9.44316 13.2661 9.40628 13.4935 9.58825L16.1302 11.6976C16.3938 11.9085 16.394 12.3102 16.1302 12.5212Z" fill="#2A1E1E"/>
</g>
<defs>
<clipPath id="clip0_1340_1500">
<rect width="18" height="18" fill="white" transform="translate(1 1)"/>
</clipPath>
</defs>
</svg>
