<svg width="24" height="24" viewBox="0 0 24 24" fill="none" xmlns="http://www.w3.org/2000/svg">
<path d="M19.3846 24H4.61538C3.39176 23.9985 2.21867 23.5118 1.35343 22.6466C0.488199 21.7813 0.00146571 20.6082 0 19.3846V4.61538C0.00146571 3.39176 0.488199 2.21867 1.35343 1.35343C2.21867 0.488199 3.39176 0.00146571 4.61538 0H19.3846C20.6082 0.00146571 21.7813 0.488199 22.6466 1.35343C23.5118 2.21867 23.9985 3.39176 24 4.61538V19.3846C23.9985 20.6082 23.5118 21.7813 22.6466 22.6466C21.7813 23.5118 20.6082 23.9985 19.3846 24ZM4.61538 1.84615C3.88094 1.84615 3.17657 2.13791 2.65724 2.65724C2.13791 3.17657 1.84615 3.88094 1.84615 4.61538V19.3846C1.84615 20.1191 2.13791 20.8234 2.65724 21.3428C3.17657 21.8621 3.88094 22.1538 4.61538 22.1538H19.3846C20.1191 22.1538 20.8234 21.8621 21.3428 21.3428C21.8621 20.8234 22.1538 20.1191 22.1538 19.3846V4.61538C22.1538 3.88094 21.8621 3.17657 21.3428 2.65724C20.8234 2.13791 20.1191 1.84615 19.3846 1.84615H4.61538Z" fill="#2D3250"/>
<path d="M8.30767 18.4615C8.06288 18.4614 7.82813 18.3641 7.65506 18.191L4.88583 15.4218C4.71768 15.2477 4.62464 15.0145 4.62674 14.7725C4.62885 14.5305 4.72593 14.2989 4.89707 14.1278C5.06822 13.9566 5.29974 13.8596 5.54177 13.8575C5.78379 13.8554 6.01696 13.9484 6.19106 14.1165L8.30767 16.2332L10.4243 14.1165C10.5984 13.9484 10.8316 13.8554 11.0736 13.8575C11.3156 13.8596 11.5471 13.9566 11.7183 14.1278C11.8894 14.2989 11.9865 14.5305 11.9886 14.7725C11.9907 15.0145 11.8977 15.2477 11.7295 15.4218L8.96029 18.191C8.78722 18.3641 8.55247 18.4614 8.30767 18.4615Z" fill="#2D3250"/>
<path d="M8.30772 17.5381C8.06291 17.5381 7.82812 17.4408 7.65501 17.2677C7.4819 17.0946 7.38464 16.8598 7.38464 16.615V6.46116C7.38464 6.21635 7.4819 5.98156 7.65501 5.80845C7.82812 5.63534 8.06291 5.53809 8.30772 5.53809C8.55254 5.53809 8.78732 5.63534 8.96043 5.80845C9.13354 5.98156 9.2308 6.21635 9.2308 6.46116V16.615C9.2308 16.8598 9.13354 17.0946 8.96043 17.2677C8.78732 17.4408 8.55254 17.5381 8.30772 17.5381Z" fill="#2D3250"/>
<path d="M18.4615 10.1543C18.2168 10.1542 17.982 10.0569 17.8089 9.88379L15.6923 7.76717L13.5757 9.88379C13.4016 10.0519 13.1684 10.145 12.9264 10.1429C12.6844 10.1408 12.4529 10.0437 12.2817 9.87254C12.1106 9.7014 12.0135 9.46988 12.0114 9.22785C12.0093 8.98582 12.1023 8.75265 12.2705 8.57856L15.0397 5.80933C15.2128 5.63628 15.4476 5.53906 15.6923 5.53906C15.9371 5.53906 16.1718 5.63628 16.3449 5.80933L19.1142 8.57856C19.2432 8.70765 19.3311 8.87211 19.3667 9.05114C19.4023 9.23018 19.384 9.41575 19.3142 9.58439C19.2443 9.75304 19.126 9.89719 18.9743 9.99862C18.8225 10.1001 18.6441 10.1542 18.4615 10.1543Z" fill="#2D3250"/>
<path d="M15.6924 18.4619C15.4475 18.4619 15.2128 18.3647 15.0396 18.1916C14.8665 18.0184 14.7693 17.7837 14.7693 17.5388V7.38499C14.7693 7.14018 14.8665 6.90539 15.0396 6.73228C15.2128 6.55917 15.4475 6.46191 15.6924 6.46191C15.9372 6.46191 16.172 6.55917 16.3451 6.73228C16.5182 6.90539 16.6154 7.14018 16.6154 7.38499V17.5388C16.6154 17.7837 16.5182 18.0184 16.3451 18.1916C16.172 18.3647 15.9372 18.4619 15.6924 18.4619Z" fill="#2D3250"/>
</svg>
