<svg width="24" height="24" viewBox="0 0 24 24" fill="none" xmlns="http://www.w3.org/2000/svg">
<g clip-path="url(#clip0_1492_355)">
<path d="M19.3846 24H4.61538C3.39176 23.9985 2.21867 23.5118 1.35343 22.6466C0.488199 21.7813 0.00146571 20.6082 0 19.3846V4.61538C0.00146571 3.39176 0.488199 2.21867 1.35343 1.35343C2.21867 0.488199 3.39176 0.00146571 4.61538 0H19.3846C20.6082 0.00146571 21.7813 0.488199 22.6466 1.35343C23.5118 2.21867 23.9985 3.39176 24 4.61538V19.3846C23.9985 20.6082 23.5118 21.7813 22.6466 22.6466C21.7813 23.5118 20.6082 23.9985 19.3846 24ZM4.61538 1.84615C3.88094 1.84615 3.17657 2.13791 2.65724 2.65724C2.13791 3.17657 1.84615 3.88094 1.84615 4.61538V19.3846C1.84615 20.1191 2.13791 20.8234 2.65724 21.3428C3.17657 21.8621 3.88094 22.1538 4.61538 22.1538H19.3846C20.1191 22.1538 20.8234 21.8621 21.3428 21.3428C21.8621 20.8234 22.1538 20.1191 22.1538 19.3846V4.61538C22.1538 3.88094 21.8621 3.17657 21.3428 2.65724C20.8234 2.13791 20.1191 1.84615 19.3846 1.84615H4.61538Z" fill="#F51322"/>
<path d="M8.30767 18.4615C8.06288 18.4614 7.82813 18.3641 7.65506 18.191L4.88583 15.4218C4.71768 15.2477 4.62464 15.0145 4.62674 14.7725C4.62885 14.5305 4.72593 14.2989 4.89707 14.1278C5.06822 13.9566 5.29974 13.8596 5.54177 13.8575C5.78379 13.8554 6.01696 13.9484 6.19106 14.1165L8.30767 16.2332L10.4243 14.1165C10.5984 13.9484 10.8316 13.8554 11.0736 13.8575C11.3156 13.8596 11.5471 13.9566 11.7183 14.1278C11.8894 14.2989 11.9865 14.5305 11.9886 14.7725C11.9907 15.0145 11.8977 15.2477 11.7295 15.4218L8.96029 18.191C8.78722 18.3641 8.55247 18.4614 8.30767 18.4615Z" fill="#F51322"/>
<path d="M8.3076 17.5386C8.06278 17.5386 7.828 17.4413 7.65488 17.2682C7.48177 17.0951 7.38452 16.8603 7.38452 16.6155V6.46165C7.38452 6.21684 7.48177 5.98205 7.65488 5.80894C7.828 5.63583 8.06278 5.53857 8.3076 5.53857C8.55241 5.53857 8.7872 5.63583 8.96031 5.80894C9.13342 5.98205 9.23068 6.21684 9.23068 6.46165V16.6155C9.23068 16.8603 9.13342 17.0951 8.96031 17.2682C8.7872 17.4413 8.55241 17.5386 8.3076 17.5386Z" fill="#F51322"/>
<path d="M18.4614 10.1538C18.2166 10.1537 17.9819 10.0564 17.8088 9.8833L15.6922 7.76668L13.5756 9.8833C13.4015 10.0514 13.1683 10.1445 12.9263 10.1424C12.6843 10.1403 12.4527 10.0432 12.2816 9.87206C12.1104 9.70091 12.0134 9.46939 12.0113 9.22736C12.0092 8.98533 12.1022 8.75216 12.2703 8.57807L15.0396 5.80884C15.2127 5.63579 15.4474 5.53857 15.6922 5.53857C15.937 5.53857 16.1717 5.63579 16.3448 5.80884L19.114 8.57807C19.2431 8.70716 19.331 8.87162 19.3666 9.05066C19.4022 9.22969 19.3839 9.41526 19.3141 9.5839C19.2442 9.75255 19.1259 9.8967 18.9742 9.99813C18.8224 10.0996 18.644 10.1537 18.4614 10.1538Z" fill="#F51322"/>
<path d="M15.6924 18.4614C15.4475 18.4614 15.2128 18.3642 15.0396 18.1911C14.8665 18.018 14.7693 17.7832 14.7693 17.5383V7.3845C14.7693 7.13969 14.8665 6.9049 15.0396 6.73179C15.2128 6.55868 15.4475 6.46143 15.6924 6.46143C15.9372 6.46143 16.172 6.55868 16.3451 6.73179C16.5182 6.9049 16.6154 7.13969 16.6154 7.3845V17.5383C16.6154 17.7832 16.5182 18.018 16.3451 18.1911C16.172 18.3642 15.9372 18.4614 15.6924 18.4614Z" fill="#F51322"/>
</g>
<defs>
<clipPath id="clip0_1492_355">
<rect width="24" height="24" fill="white"/>
</clipPath>
</defs>
</svg>
