<svg width="20" height="20" viewBox="0 0 20 20" fill="none" xmlns="http://www.w3.org/2000/svg">
<path d="M17.8622 6.25165C12.1467 6.25165 7.25202 6.25165 1.7212 6.25165C0.772091 6.25165 0 6.97227 0 7.8581V12.142C0 13.0278 0.772091 13.7484 1.7212 13.7484H2.16186H17.4215H17.8622C18.8113 13.7484 19.5834 13.0278 19.5834 12.142V7.8581C19.5834 6.97227 18.8113 6.25165 17.8622 6.25165ZM18.3754 9.16857L17.228 11.3105C17.0165 11.7041 16.413 11.7041 16.2015 11.3105L15.5673 10.1266L14.933 11.3105C14.717 11.7127 13.9099 11.6901 13.8177 11.1446L12.8073 9.258C12.7411 9.18224 12.7035 9.08707 12.6912 8.98547C12.6842 9.04737 12.6697 9.1096 12.6381 9.16857L11.4906 11.3105C11.2792 11.7041 10.6756 11.7041 10.4642 11.3105L9.82995 10.1266L9.11921 11.3105C8.92422 11.6734 8.28776 11.6734 8.09276 11.3105C8.00483 11.1464 6.91535 9.15768 6.89416 8.9924C6.87974 9.10777 6.83308 9.21294 6.75757 9.29302C6.65759 9.47961 5.72382 11.2868 5.56739 11.4221C5.24495 11.7438 4.81048 11.6086 4.65033 11.3105L4.01613 10.1266L3.38188 11.3105C3.17045 11.7041 2.56688 11.7041 2.35544 11.3105L1.20797 9.16857C0.868937 8.53574 1.89431 8.05723 2.23442 8.68956L2.86866 9.87348L3.5029 8.68956C3.70964 8.30369 4.32319 8.30737 4.52935 8.68956L5.16359 9.87348L5.79783 8.68956C6.05292 8.21341 6.86677 8.34607 6.89278 8.91261C6.91332 8.34446 7.70993 8.20277 7.97174 8.68956L8.60599 9.87348L9.24023 8.68956C9.43522 8.32665 10.1482 8.32665 10.3432 8.68956L10.9774 9.87348L11.6117 8.68956C11.8724 8.20474 12.664 8.34207 12.6899 8.90768C12.7144 8.31679 13.5331 8.21826 13.7856 8.68956L14.4198 9.87348L15.0541 8.68956C15.249 8.32665 15.8855 8.32665 16.0805 8.68956L16.7147 9.87348L17.349 8.68956C17.6891 8.05723 18.7145 8.53574 18.3754 9.16857Z" fill="#9494A0"/>
<path d="M6.89062 5.18066H9.18242V3.11566C8.31321 3.34289 7.50785 4.08499 6.89062 5.18066Z" fill="#2A1E1E"/>
<path d="M10.4023 2V2.0302C11.8491 2.27003 13.1207 3.41007 13.9654 5.18059H16.6759C15.1848 3.33914 12.8966 2.16032 10.4023 2Z" fill="#2A1E1E"/>
<path d="M2.90625 5.18063H5.61671C6.4614 3.41011 7.73298 2.27006 9.17978 2.0302V2C6.68554 2.16036 4.39734 3.33917 2.90625 5.18063Z" fill="#2A1E1E"/>
<path d="M10.4023 3.1156V5.1806H12.6941C12.0769 4.08493 11.2715 3.34282 10.4023 3.1156Z" fill="#2A1E1E"/>
<path d="M6.89062 14.8194C7.50785 15.9151 8.31321 16.6572 9.18242 16.8844V14.8194H6.89062Z" fill="#2A1E1E"/>
<path d="M10.4023 14.8193V16.8843C11.2715 16.6571 12.0769 15.915 12.6941 14.8193H10.4023Z" fill="#2A1E1E"/>
<path d="M13.9654 14.8193C13.1207 16.5898 11.8491 17.7299 10.4023 17.9697V17.9999C12.8966 17.8396 15.1848 16.6608 16.6759 14.8193H13.9654Z" fill="#2A1E1E"/>
<path d="M5.61671 14.8194H2.90625C4.3973 16.6609 6.6855 17.8397 9.17978 18V17.9698C7.73298 17.73 6.4614 16.5899 5.61671 14.8194Z" fill="#2A1E1E"/>
</svg>
