<svg width="20" height="20" viewBox="0 0 20 20" fill="none" xmlns="http://www.w3.org/2000/svg">
<path d="M15.1818 8.13937C15.4119 8.13937 15.935 7.20021 15.9886 5.38489H14.375C14.4286 7.20019 14.9517 8.13937 15.1818 8.13937Z" fill="#9494A0"/>
<path d="M18.2337 5.38489H16.6169C16.6172 6.28283 16.4394 7.17192 16.0938 8.00068C16.6667 7.82096 17.1746 7.47755 17.5548 7.01276C17.9351 6.54797 18.171 5.98211 18.2337 5.38489Z" fill="#9494A0"/>
<path d="M18.2337 4.75459C18.171 4.15736 17.9351 3.5915 17.5548 3.12672C17.1746 2.66193 16.6667 2.31852 16.0938 2.13879C16.44 2.96736 16.6179 3.85658 16.6169 4.75459H18.2337Z" fill="#9494A0"/>
<path d="M15.1818 2C14.9517 2 14.4286 2.93601 14.375 4.75447H15.9886C15.935 2.93603 15.4119 2 15.1818 2Z" fill="#9494A0"/>
<path d="M14.2688 2.13879C13.6958 2.31852 13.188 2.66193 12.8077 3.12671C12.4275 3.5915 12.1915 4.15736 12.1289 4.75459H13.7457C13.7447 3.85658 13.9225 2.96736 14.2688 2.13879Z" fill="#9494A0"/>
<path d="M14.9698 8.8606L14.9453 8.87282C14.9663 8.88314 14.9602 8.87653 14.9698 8.8606Z" fill="black"/>
<path d="M14.2688 8.00068C13.9232 7.17192 13.7454 6.28283 13.7457 5.38489H12.1289C12.1915 5.98211 12.4275 6.54798 12.8077 7.01276C13.188 7.47755 13.6958 7.82096 14.2688 8.00068Z" fill="#9494A0"/>
<path d="M10.5083 11.7158C10.2951 11.8189 10.0615 11.8728 9.82473 11.8733C9.58795 11.8739 9.35408 11.8211 9.14049 11.7189L1 7.78577V16.4242C1.00015 16.8421 1.16622 17.2428 1.4617 17.5383C1.75719 17.8338 2.1579 17.9998 2.57578 18H17.073C17.4908 17.9998 17.8916 17.8338 18.187 17.5383C18.4825 17.2428 18.6486 16.8421 18.6487 16.4242V7.78577L10.5083 11.7158ZM6.26626 12.8661L3.74501 15.3873C3.68519 15.4443 3.60546 15.4756 3.52285 15.4746C3.44024 15.4736 3.3613 15.4404 3.30288 15.3819C3.24446 15.3235 3.2112 15.2446 3.21019 15.162C3.20918 15.0794 3.24051 14.9996 3.29749 14.9398L5.81874 12.4186C5.87846 12.361 5.95836 12.3293 6.04127 12.33C6.12418 12.3308 6.20347 12.3641 6.26209 12.4227C6.32072 12.4814 6.354 12.5606 6.35478 12.6436C6.35556 12.7265 6.32377 12.8064 6.26626 12.8661ZM16.3513 15.3873C16.2918 15.4464 16.2113 15.4795 16.1275 15.4795C16.0437 15.4795 15.9632 15.4464 15.9037 15.3873L13.3825 12.8661C13.3527 12.8368 13.3291 12.8019 13.3129 12.7634C13.2967 12.7249 13.2883 12.6836 13.2881 12.6418C13.288 12.6001 13.2961 12.5587 13.312 12.5201C13.3279 12.4815 13.3513 12.4464 13.3808 12.4169C13.4103 12.3873 13.4454 12.3639 13.484 12.348C13.5226 12.3321 13.564 12.324 13.6058 12.3242C13.6475 12.3243 13.6888 12.3328 13.7273 12.349C13.7658 12.3652 13.8007 12.3888 13.83 12.4186L16.3513 14.9398C16.4103 14.9993 16.4434 15.0797 16.4434 15.1636C16.4434 15.2474 16.4103 15.3278 16.3513 15.3873Z" fill="#2A1E1E"/>
<path d="M9.41467 11.1486C9.54229 11.2108 9.6824 11.2432 9.82437 11.2432C9.96635 11.2432 10.1065 11.2108 10.2341 11.1486L14.9488 8.87319L14.079 8.60215C13.2765 8.35064 12.5835 7.83358 12.1138 7.13596C11.6441 6.43835 11.4258 5.6017 11.4947 4.76355H11.4317H2.57578C2.1579 4.7637 1.75719 4.92977 1.4617 5.22525C1.16622 5.52074 1.00015 5.92145 1 6.33933V7.08625L9.41467 11.1486Z" fill="#2A1E1E"/>
</svg>
