<svg width="24" height="24" viewBox="0 0 24 24" fill="none" xmlns="http://www.w3.org/2000/svg">
<path d="M20.5714 8.57143H18.8571C18.3834 8.57143 18 8.9548 18 9.42857C18 9.90234 18.3834 10.2857 18.8571 10.2857H20.5714C20.9403 10.2857 21.2802 10.4055 21.5601 10.6045L14.6275 15.4579C13.079 16.541 10.921 16.541 9.37249 15.4579L2.43985 10.6045C2.71985 10.4055 3.05974 10.2857 3.42857 10.2857H7.71429C7.74186 10.2857 7.76508 10.2725 7.79197 10.27C8.87591 11.3384 10.3617 12 12 12C12.4738 12 12.8571 11.6166 12.8571 11.1429C12.8571 10.6691 12.4738 10.2857 12 10.2857C9.637 10.2857 7.71429 8.363 7.71429 6C7.71429 3.637 9.637 1.71429 12 1.71429C14.363 1.71429 16.2857 3.637 16.2857 6V6.85714C16.2857 7.33008 15.9015 7.71429 15.4286 7.71429C14.9556 7.71429 14.5714 7.33008 14.5714 6.85714V4.28571C14.5714 3.81194 14.1881 3.42857 13.7143 3.42857C13.4742 3.42857 13.2586 3.52808 13.103 3.68691C12.7675 3.52609 12.3963 3.42857 12 3.42857C10.582 3.42857 9.42857 4.58203 9.42857 6C9.42857 7.41797 10.582 8.57143 12 8.57143C12.4603 8.57143 12.8865 8.44001 13.2607 8.22735C13.717 8.94679 14.5153 9.42857 15.4286 9.42857C16.8465 9.42857 18 8.27511 18 6.85714V6C18 2.69196 15.308 0 12 0C8.69196 0 6 2.69196 6 6C6 6.92097 6.21476 7.79077 6.5873 8.57143H3.42857C1.53767 8.57143 0 10.1091 0 12V20.5714C0 22.4623 1.53767 24 3.42857 24H20.5714C22.4623 24 24 22.4623 24 20.5714V12C24 10.1091 22.4623 8.57143 20.5714 8.57143ZM12 6.85714C11.5271 6.85714 11.1429 6.47294 11.1429 6C11.1429 5.52706 11.5271 5.14286 12 5.14286C12.4729 5.14286 12.8571 5.52706 12.8571 6C12.8571 6.47294 12.4729 6.85714 12 6.85714ZM20.5714 22.2857H3.42857C2.48354 22.2857 1.71429 21.5165 1.71429 20.5714V12.1891L8.38979 16.8624C9.45368 17.6066 10.7017 18 12 18C13.2983 18 14.5463 17.6066 15.6102 16.8624L22.2857 12.1891V20.5714C22.2857 21.5165 21.5165 22.2857 20.5714 22.2857Z" fill="#2D3250"/>
</svg>
