<svg width="24" height="24" viewBox="0 0 24 24" fill="none" xmlns="http://www.w3.org/2000/svg">
<g clip-path="url(#clip0_505_119)">
<g clip-path="url(#clip1_505_119)">
<path d="M5.37878 7.72949H9.04504V9.26883H5.37878V7.72949Z" fill="#2D3250"/>
<path d="M5.37891 11.2305H9.04516V12.7698H5.37891V11.2305Z" fill="#2D3250"/>
<path d="M5.37891 14.7305H9.04516V16.2698H5.37891V14.7305Z" fill="#2D3250"/>
<path d="M5.37891 18.2305H9.04516V19.7698H5.37891V18.2305Z" fill="#2D3250"/>
<path d="M12.7928 21.8192V9.24144L20.8308 9.23206V17.7171H22.3692V8.46149C22.3692 8.0416 22.0184 7.6918 21.5991 7.6918L12.0227 7.70298C11.5982 7.70349 11.2544 8.0479 11.2544 8.47267V21.8192H3.16923V4.58867L11.2544 2.41365V4.16108H12.7928V1.4097C12.7928 0.91175 12.3051 0.536981 11.8238 0.666417L2.20026 3.25529C1.86431 3.3457 1.63077 3.65047 1.63077 3.99857V21.8192H0V23.3586H24V21.8192H12.7928Z" fill="#2D3250"/>
<path d="M20.8308 19.1025H22.3693V20.5364H20.8308V19.1025Z" fill="#2D3250"/>
<path d="M14.9551 11.2295H18.6213V12.7688H14.9551V11.2295Z" fill="#2D3250"/>
<path d="M14.9551 14.7295H18.6213V16.2688H14.9551V14.7295Z" fill="#2D3250"/>
<path d="M14.9551 18.2305H18.6213V19.7698H14.9551V18.2305Z" fill="#2D3250"/>
</g>
</g>
<defs>
<clipPath id="clip0_505_119">
<rect width="24" height="24" fill="white"/>
</clipPath>
<clipPath id="clip1_505_119">
<rect width="24" height="24" fill="white"/>
</clipPath>
</defs>
</svg>
