<svg width="20" height="20" viewBox="0 0 20 20" fill="none" xmlns="http://www.w3.org/2000/svg">
<g clip-path="url(#clip0_1340_1510)">
<g clip-path="url(#clip1_1340_1510)">
<path d="M17.9453 16.8906C17.5406 16.8906 17.1894 17.1187 17.0125 17.4531H10.9328C10.8399 17.2775 10.6989 17.1314 10.5273 17.0321V13.7851H16.0692C16.6517 13.7851 17.1239 13.3129 17.1239 12.7304V10.578C17.1239 10.3827 17.0705 10.1999 16.978 10.043H3.02201C2.92945 10.1999 2.87611 10.3827 2.87611 10.578V12.7304C2.87611 13.3129 3.3483 13.7851 3.9308 13.7851H9.47266V17.0321C9.30106 17.1313 9.16008 17.2775 9.0672 17.4531H2.98749C2.81065 17.1187 2.45937 16.8906 2.05469 16.8906C1.47218 16.8906 1 17.3628 1 17.9453C1 18.5278 1.47218 19 2.05469 19C2.4303 19 2.75982 18.8035 2.94667 18.5078H9.10802C9.29487 18.8035 9.62439 19 10 19C10.3756 19 10.7051 18.8035 10.892 18.5078H17.0533C17.2402 18.8035 17.5697 19 17.9453 19C18.5278 19 19 18.5278 19 17.9453C19 17.3628 18.5278 16.8906 17.9453 16.8906ZM5.17248 11.9488C5.08336 12.5066 4.32167 12.5688 4.14578 12.031C4.08598 11.835 4.14838 11.6189 4.30079 11.4827C4.66652 11.1632 5.23591 11.4667 5.17248 11.9488ZM7.27363 11.9944C7.15122 12.5005 6.45639 12.5498 6.26651 12.0639C6.18987 11.8608 6.24844 11.6272 6.41013 11.4827C6.79466 11.1487 7.38241 11.4965 7.27363 11.9944ZM9.38582 11.9807C9.27402 12.5015 8.55849 12.5555 8.37262 12.0553C8.29897 11.8481 8.36348 11.6099 8.53434 11.4702C8.91821 11.161 9.4786 11.4962 9.38582 11.9807Z" fill="#2A1E1E"/>
<path d="M16.9856 8.98828C17.0727 8.83482 17.1227 8.65757 17.1227 8.4685V6.31616C17.1227 6.12407 17.0711 5.94417 16.9814 5.78906H3.01633C2.92661 5.94417 2.875 6.12407 2.875 6.31616V8.4685C2.875 8.65757 2.92499 8.83482 3.01211 8.98828H16.9856ZM8.53322 7.03243C8.9172 6.7232 9.47784 7.05862 9.38474 7.54329C9.33538 7.78696 9.11657 7.96724 8.86756 7.96724C8.37474 7.96358 8.15487 7.34775 8.53322 7.03243ZM6.42385 7.03243C6.80782 6.7232 7.36846 7.05866 7.27537 7.54329C7.22615 7.78632 7.0073 7.96759 6.75857 7.96759C6.26589 7.96341 6.04504 7.34786 6.42385 7.03243ZM4.31447 7.03243C4.69884 6.72344 5.25891 7.05841 5.16599 7.54329C5.11667 7.78689 4.89775 7.96724 4.64881 7.96724C4.1562 7.96372 3.93591 7.34736 4.31447 7.03243Z" fill="#9494A0"/>
<path d="M16.9812 4.7344C17.0711 4.57922 17.1227 4.39922 17.1227 4.20706V2.05469C17.1227 1.47218 16.6505 1 16.068 1H3.92969C3.34718 1 2.875 1.47218 2.875 2.05469V4.20702C2.875 4.39922 2.92664 4.57922 3.01647 4.73437L16.9812 4.7344ZM8.53319 2.41926C8.91706 2.11027 9.47759 2.4457 9.38471 2.93008C9.33574 3.17364 9.11636 3.35441 8.86752 3.35441C8.37474 3.35058 8.15477 2.73454 8.53319 2.41926ZM6.42381 2.41926C6.80768 2.11027 7.36818 2.44573 7.27533 2.93008C7.2264 3.17336 7.0072 3.35441 6.75854 3.35441C6.26575 3.35044 6.045 2.73468 6.42381 2.41926ZM4.31444 2.41926C4.69831 2.11027 5.25884 2.44573 5.16596 2.93008C5.11695 3.17364 4.89761 3.35441 4.64877 3.35441C4.15592 3.35069 3.93616 2.73457 4.31444 2.41926Z" fill="#2A1E1E"/>
</g>
</g>
<defs>
<clipPath id="clip0_1340_1510">
<rect width="20" height="20" fill="white"/>
</clipPath>
<clipPath id="clip1_1340_1510">
<rect width="18" height="18" fill="white" transform="translate(1 1)"/>
</clipPath>
</defs>
</svg>
