<svg width="24" height="24" viewBox="0 0 24 24" fill="none" xmlns="http://www.w3.org/2000/svg">
<path d="M10.1309 16.0718C10.0613 16.1415 9.97856 16.1968 9.88754 16.2345C9.79651 16.2722 9.69894 16.2916 9.60041 16.2916C9.50188 16.2916 9.40431 16.2722 9.31329 16.2345C9.22226 16.1968 9.13956 16.1415 9.06991 16.0718L8.04191 15.0428L7.04791 16.0368C6.90574 16.1693 6.71769 16.2414 6.52339 16.2379C6.32909 16.2345 6.1437 16.1558 6.00629 16.0184C5.86888 15.881 5.79017 15.6956 5.78674 15.5013C5.78331 15.307 5.85543 15.1189 5.98791 14.9768L6.98091 13.9828L6.02191 13.0228C5.95031 12.9536 5.89322 12.8708 5.85395 12.7792C5.81469 12.6877 5.79405 12.5893 5.79323 12.4897C5.79241 12.3901 5.81143 12.2914 5.84919 12.1992C5.88694 12.1071 5.94267 12.0234 6.01312 11.953C6.08358 11.8826 6.16734 11.8269 6.25953 11.7893C6.35172 11.7516 6.45049 11.7327 6.55007 11.7336C6.64966 11.7345 6.74806 11.7552 6.83955 11.7946C6.93103 11.8339 7.01376 11.8911 7.08291 11.9628L8.04191 12.9218L9.03591 11.9278C9.17743 11.7912 9.36692 11.7157 9.56356 11.7175C9.76021 11.7193 9.94829 11.7983 10.0873 11.9374C10.2263 12.0765 10.3051 12.2647 10.3067 12.4613C10.3083 12.658 10.2326 12.8474 10.0959 12.9888L9.10191 13.9828L10.1309 15.0108C10.2006 15.0804 10.2559 15.1631 10.2936 15.2541C10.3313 15.3452 10.3508 15.4427 10.3508 15.5413C10.3508 15.6398 10.3313 15.7374 10.2936 15.8284C10.2559 15.9194 10.2006 16.0021 10.1309 16.0718ZM13.5429 12.9998H13.5259C13.3951 13 13.2656 13.0261 13.1449 13.0766C13.0242 13.1271 12.9147 13.2009 12.8226 13.2938C12.7305 13.3867 12.6577 13.4969 12.6083 13.6181C12.5589 13.7392 12.534 13.869 12.5349 13.9998C12.5349 14.1972 12.5934 14.3902 12.7029 14.5545C12.8124 14.7188 12.9681 14.8469 13.1504 14.9229C13.3327 14.9988 13.5333 15.019 13.7271 14.9811C13.9208 14.9432 14.099 14.8487 14.2392 14.7097C14.3794 14.5706 14.4752 14.3932 14.5147 14.1997C14.5542 14.0063 14.5355 13.8055 14.4611 13.6226C14.3866 13.4397 14.2597 13.283 14.0963 13.1722C13.9329 13.0613 13.7403 13.0014 13.5429 12.9998ZM18.4819 13.9998C18.4819 14.1968 18.4236 14.3895 18.3145 14.5535C18.2053 14.7176 18.0502 14.8458 17.8684 14.9219C17.6867 14.9981 17.4865 15.0188 17.293 14.9816C17.0995 14.9444 16.9213 14.8508 16.7808 14.7127C16.6403 14.5745 16.5437 14.3979 16.5032 14.2051C16.4628 14.0122 16.4802 13.8117 16.5532 13.6287C16.6263 13.4457 16.7519 13.2884 16.9141 13.1765C17.0762 13.0646 17.2679 13.0031 17.4649 12.9998H17.4819C17.7471 12.9998 18.0015 13.1051 18.189 13.2927C18.3766 13.4802 18.4819 13.7346 18.4819 13.9998ZM16.4999 15.9608C16.5004 16.227 16.3955 16.4826 16.2082 16.6717C16.0208 16.8607 15.7661 16.9679 15.4999 16.9698C15.369 16.9706 15.2393 16.9455 15.1181 16.896C14.997 16.8466 14.8868 16.7736 14.7939 16.6815C14.701 16.5893 14.6272 16.4797 14.5767 16.3589C14.5263 16.2382 14.5002 16.1086 14.4999 15.9778V15.9608C14.4999 15.6956 14.6053 15.4412 14.7928 15.2537C14.9803 15.0661 15.2347 14.9608 15.4999 14.9608C15.7651 14.9608 16.0195 15.0661 16.207 15.2537C16.3946 15.4412 16.4999 15.6956 16.4999 15.9608ZM14.4999 12.0388V12.0218C14.5022 11.7573 14.6091 11.5045 14.7973 11.3187C14.9855 11.1329 15.2396 11.0292 15.5041 11.0303C15.7686 11.0314 16.0219 11.1373 16.2085 11.3247C16.3951 11.5121 16.4999 11.7658 16.4999 12.0303C16.4999 12.2948 16.3951 12.5485 16.2085 12.7359C16.0219 12.9233 15.7686 13.0291 15.5041 13.0303C15.2396 13.0314 14.9855 12.9277 14.7973 12.7419C14.6091 12.5561 14.5022 12.3032 14.4999 12.0388Z" fill="#F51322"/>
<path d="M15 5.25H11.987C11.9207 5.25 11.8571 5.22366 11.8102 5.17678C11.7633 5.12989 11.737 5.0663 11.737 5C11.7362 4.96584 11.7426 4.93188 11.7557 4.90033C11.7688 4.86877 11.7884 4.8403 11.8131 4.81676C11.8379 4.79321 11.8673 4.77511 11.8995 4.76362C11.9317 4.75212 11.9659 4.74748 12 4.75C12.4596 4.74824 12.9003 4.56644 13.2274 4.24359C13.5545 3.92074 13.7422 3.48256 13.75 3.023L13.763 2.01C13.7643 1.91151 13.7462 1.81372 13.7098 1.72222C13.6733 1.63072 13.6191 1.5473 13.5504 1.47672C13.4817 1.40615 13.3998 1.3498 13.3093 1.3109C13.2188 1.272 13.1215 1.2513 13.023 1.25H13.013C12.8159 1.25024 12.6268 1.32797 12.4865 1.46641C12.3461 1.60485 12.2659 1.79291 12.263 1.99L12.25 3C12.2486 3.03452 12.2403 3.0684 12.2256 3.09965C12.2109 3.13089 12.19 3.15886 12.1643 3.1819C12.1385 3.20493 12.1084 3.22257 12.0757 3.23375C12.0431 3.24493 12.0085 3.24944 11.974 3.247C11.7448 3.24805 11.5181 3.29422 11.3068 3.38289C11.0955 3.47155 10.9037 3.60097 10.7424 3.76375C10.5811 3.92653 10.4535 4.11949 10.3668 4.33161C10.28 4.54372 10.2359 4.77084 10.237 5C10.2392 5.08383 10.2475 5.16739 10.262 5.25H9C3.568 5.25 1.25 7.568 1.25 13V15C1.25 20.432 3.568 22.75 9 22.75H15C20.432 22.75 22.75 20.432 22.75 15V13C22.75 7.568 20.432 5.25 15 5.25ZM21.25 15C21.25 19.614 19.614 21.25 15 21.25H9C4.386 21.25 2.75 19.614 2.75 15V13C2.75 8.386 4.386 6.75 9 6.75H15C19.614 6.75 21.25 8.386 21.25 13V15Z" fill="#F51322"/>
</svg>
