<svg width="24" height="24" viewBox="0 0 24 24" fill="none" xmlns="http://www.w3.org/2000/svg">
<path d="M10.131 16.0718C10.0614 16.1415 9.97868 16.1968 9.88766 16.2345C9.79663 16.2722 9.69907 16.2916 9.60053 16.2916C9.502 16.2916 9.40444 16.2722 9.31341 16.2345C9.22239 16.1968 9.13968 16.1415 9.07003 16.0718L8.04203 15.0428L7.04803 16.0368C6.90586 16.1693 6.71781 16.2414 6.52351 16.2379C6.32921 16.2345 6.14383 16.1558 6.00641 16.0184C5.869 15.881 5.79029 15.6956 5.78686 15.5013C5.78343 15.307 5.85555 15.1189 5.98803 14.9768L6.98103 13.9828L6.02203 13.0228C5.95044 12.9536 5.89334 12.8708 5.85408 12.7792C5.81481 12.6877 5.79417 12.5893 5.79335 12.4897C5.79253 12.3901 5.81156 12.2914 5.84931 12.1992C5.88707 12.1071 5.94279 12.0234 6.01325 11.953C6.0837 11.8826 6.16746 11.8269 6.25965 11.7893C6.35184 11.7516 6.45061 11.7327 6.55019 11.7336C6.64978 11.7345 6.74818 11.7552 6.83967 11.7946C6.93115 11.8339 7.01388 11.8911 7.08303 11.9628L8.04203 12.9218L9.03604 11.9278C9.17755 11.7912 9.36704 11.7157 9.56369 11.7175C9.76033 11.7193 9.94841 11.7983 10.0874 11.9374C10.2264 12.0765 10.3052 12.2647 10.3068 12.4613C10.3084 12.658 10.2327 12.8474 10.096 12.9888L9.10204 13.9828L10.131 15.0108C10.2007 15.0804 10.256 15.1631 10.2937 15.2541C10.3315 15.3452 10.3509 15.4427 10.3509 15.5413C10.3509 15.6398 10.3315 15.7374 10.2937 15.8284C10.256 15.9194 10.2007 16.0021 10.131 16.0718ZM13.543 12.9998H13.526C13.3952 13 13.2657 13.0261 13.145 13.0766C13.0243 13.1271 12.9148 13.2009 12.8227 13.2938C12.7306 13.3867 12.6578 13.4969 12.6084 13.6181C12.559 13.7392 12.5341 13.869 12.535 13.9998C12.535 14.1972 12.5935 14.3902 12.703 14.5545C12.8126 14.7188 12.9683 14.8469 13.1505 14.9229C13.3328 14.9988 13.5334 15.019 13.7272 14.9811C13.921 14.9432 14.0992 14.8487 14.2393 14.7097C14.3795 14.5706 14.4754 14.3932 14.5148 14.1997C14.5543 14.0063 14.5357 13.8055 14.4612 13.6226C14.3867 13.4397 14.2598 13.283 14.0964 13.1722C13.933 13.0613 13.7405 13.0014 13.543 12.9998ZM18.482 13.9998C18.482 14.1968 18.4238 14.3895 18.3146 14.5535C18.2055 14.7176 18.0503 14.8458 17.8685 14.9219C17.6868 14.9981 17.4866 15.0188 17.2931 14.9816C17.0996 14.9444 16.9214 14.8508 16.7809 14.7127C16.6404 14.5745 16.5439 14.3979 16.5034 14.2051C16.4629 14.0122 16.4803 13.8117 16.5534 13.6287C16.6265 13.4457 16.752 13.2884 16.9142 13.1765C17.0764 13.0646 17.268 13.0031 17.465 12.9998H17.482C17.7473 12.9998 18.0016 13.1051 18.1891 13.2927C18.3767 13.4802 18.482 13.7346 18.482 13.9998ZM16.5 15.9608C16.5006 16.227 16.3957 16.4826 16.2083 16.6717C16.0209 16.8607 15.7662 16.9679 15.5 16.9698C15.3692 16.9706 15.2394 16.9455 15.1183 16.896C14.9971 16.8466 14.8869 16.7736 14.794 16.6815C14.7011 16.5893 14.6273 16.4797 14.5768 16.3589C14.5264 16.2382 14.5003 16.1086 14.5 15.9778V15.9608C14.5 15.6956 14.6054 15.4412 14.7929 15.2537C14.9805 15.0661 15.2348 14.9608 15.5 14.9608C15.7653 14.9608 16.0196 15.0661 16.2071 15.2537C16.3947 15.4412 16.5 15.6956 16.5 15.9608ZM14.5 12.0388V12.0218C14.5023 11.7573 14.6092 11.5045 14.7974 11.3187C14.9856 11.1329 15.2398 11.0292 15.5042 11.0303C15.7687 11.0314 16.022 11.1373 16.2086 11.3247C16.3952 11.5121 16.5 11.7658 16.5 12.0303C16.5 12.2948 16.3952 12.5485 16.2086 12.7359C16.022 12.9233 15.7687 13.0291 15.5042 13.0303C15.2398 13.0314 14.9856 12.9277 14.7974 12.7419C14.6092 12.5561 14.5023 12.3032 14.5 12.0388Z" fill="#2D3250"/>
<path d="M15 5.25H11.987C11.9207 5.25 11.8571 5.22366 11.8102 5.17678C11.7633 5.12989 11.737 5.0663 11.737 5C11.7362 4.96584 11.7426 4.93188 11.7557 4.90033C11.7688 4.86877 11.7884 4.8403 11.8131 4.81676C11.8379 4.79321 11.8673 4.77511 11.8995 4.76362C11.9317 4.75212 11.9659 4.74748 12 4.75C12.4596 4.74824 12.9003 4.56644 13.2274 4.24359C13.5545 3.92074 13.7422 3.48256 13.75 3.023L13.763 2.01C13.7643 1.91151 13.7462 1.81372 13.7098 1.72222C13.6733 1.63072 13.6191 1.5473 13.5504 1.47672C13.4817 1.40615 13.3998 1.3498 13.3093 1.3109C13.2188 1.272 13.1215 1.2513 13.023 1.25H13.013C12.8159 1.25024 12.6268 1.32797 12.4865 1.46641C12.3461 1.60485 12.2659 1.79291 12.263 1.99L12.25 3C12.2486 3.03451 12.2403 3.0684 12.2256 3.09965C12.2109 3.13089 12.19 3.15886 12.1643 3.1819C12.1385 3.20493 12.1084 3.22257 12.0757 3.23375C12.0431 3.24493 12.0085 3.24944 11.974 3.247C11.7448 3.24805 11.5181 3.29422 11.3068 3.38289C11.0955 3.47155 10.9037 3.60097 10.7424 3.76375C10.5811 3.92653 10.4535 4.11949 10.3668 4.33161C10.28 4.54372 10.2359 4.77084 10.237 5C10.2392 5.08383 10.2475 5.16739 10.262 5.25H9C3.568 5.25 1.25 7.568 1.25 13V15C1.25 20.432 3.568 22.75 9 22.75H15C20.432 22.75 22.75 20.432 22.75 15V13C22.75 7.568 20.432 5.25 15 5.25ZM21.25 15C21.25 19.614 19.614 21.25 15 21.25H9C4.386 21.25 2.75 19.614 2.75 15V13C2.75 8.386 4.386 6.75 9 6.75H15C19.614 6.75 21.25 8.386 21.25 13V15Z" fill="#2D3250"/>
</svg>
