<svg width="20" height="20" viewBox="0 0 20 20" fill="none" xmlns="http://www.w3.org/2000/svg">
<g clip-path="url(#clip0_1340_1529)">
<path d="M18.2936 3H1.70248C1.20665 3 0.804688 3.40196 0.804688 3.89779V6.4116C0.804688 6.90743 1.20665 7.30939 1.70248 7.30939H18.2936C18.7895 7.30939 19.1914 6.90743 19.1914 6.4116V3.89779C19.1914 3.40196 18.7895 3 18.2936 3ZM8.8848 5.69337H3.49806C3.20057 5.69337 2.95938 5.45219 2.95938 5.1547C2.95938 4.8572 3.20057 4.61602 3.49806 4.61602H8.8848C9.18229 4.61602 9.42347 4.8572 9.42347 5.1547C9.42347 5.45219 9.18229 5.69337 8.8848 5.69337ZM12.1887 5.69337C11.8912 5.69337 11.65 5.45219 11.65 5.1547C11.65 4.8572 11.8912 4.61602 12.1887 4.61602C12.4862 4.61602 12.7273 4.8572 12.7273 5.1547C12.7273 5.45219 12.4862 5.69337 12.1887 5.69337ZM14.3434 5.69337C14.0459 5.69337 13.8047 5.45219 13.8047 5.1547C13.8047 4.8572 14.0459 4.61602 14.3434 4.61602C14.6409 4.61602 14.882 4.8572 14.882 5.1547C14.882 5.45219 14.6409 5.69337 14.3434 5.69337ZM16.4981 5.69337C16.2006 5.69337 15.9594 5.45219 15.9594 5.1547C15.9594 4.8572 16.2006 4.61602 16.4981 4.61602C16.7955 4.61602 17.0367 4.8572 17.0367 5.1547C17.0367 5.45219 16.7955 5.69337 16.4981 5.69337Z" fill="#9494A0"/>
<path fill-rule="evenodd" clip-rule="evenodd" d="M18.739 12.8031C18.5492 12.0437 17.8669 11.511 17.0841 11.511H15.9612V10.9005C15.9612 10.0095 15.2363 9.28451 14.3452 9.28451H12.5496C12.2526 9.28451 12.0109 9.04286 12.0109 8.74583V8.38672H10.9336V8.74583C10.9336 9.63691 11.6585 10.3619 12.5496 10.3619H14.3452C14.6422 10.3619 14.8839 10.6035 14.8839 10.9005V11.511H13.7609C12.9782 11.511 12.2959 12.0437 12.1061 12.8031L11.6987 14.4325C11.6676 14.5571 11.6518 14.685 11.6518 14.8135C11.6518 15.4688 12.183 16 12.8383 16C13.2551 16 13.6413 15.7813 13.8558 15.4239L14.4259 14.4737H16.4192L16.9893 15.4239C17.2038 15.7813 17.59 16 18.0067 16C18.662 16 19.1933 15.4688 19.1933 14.8135C19.1933 14.6851 19.1775 14.5572 19.1464 14.4326L18.739 12.8031ZM14 13.5C14 13.7761 13.7761 14 13.5 14C13.2239 14 13 13.7761 13 13.5C13 13.2239 13.2239 13 13.5 13C13.7761 13 14 13.2239 14 13.5ZM17.5 14C17.7761 14 18 13.7761 18 13.5C18 13.2239 17.7761 13 17.5 13C17.2239 13 17 13.2239 17 13.5C17 13.7761 17.2239 14 17.5 14Z" fill="#2A1E1E"/>
<path fill-rule="evenodd" clip-rule="evenodd" d="M7.98701 8.74583C7.98701 9.04286 7.74536 9.28451 7.44833 9.28451H5.65275C4.76168 9.28451 4.03673 10.0095 4.03673 10.9005V11.511H2.91381C2.13108 11.511 1.4488 12.0437 1.25893 12.8031L0.851588 14.4326C0.820417 14.5572 0.804688 14.6851 0.804688 14.8135C0.804688 15.4688 1.33589 16 1.99117 16C2.40793 16 2.79415 15.7813 3.00858 15.4239L3.57872 14.4737H5.5721L6.14219 15.4239C6.35662 15.7813 6.74285 16 7.15961 16C7.81492 16 8.34612 15.4688 8.34612 14.8135C8.34612 14.6851 8.33039 14.5572 8.29922 14.4326L7.89184 12.8031C7.70201 12.0437 7.01969 11.511 6.23696 11.511H5.11408V10.9005C5.11408 10.6035 5.35573 10.3619 5.65275 10.3619H7.44833C8.33941 10.3619 9.06436 9.63691 9.06436 8.74583V8.38672H7.98701V8.74583ZM3 13.5C3 13.7761 2.77614 14 2.5 14C2.22386 14 2 13.7761 2 13.5C2 13.2239 2.22386 13 2.5 13C2.77614 13 3 13.2239 3 13.5ZM6.5 14C6.77614 14 7 13.7761 7 13.5C7 13.2239 6.77614 13 6.5 13C6.22386 13 6 13.2239 6 13.5C6 13.7761 6.22386 14 6.5 14Z" fill="#2A1E1E"/>
</g>
<defs>
<clipPath id="clip0_1340_1529">
<rect width="20" height="20" fill="white"/>
</clipPath>
</defs>
</svg>
