<svg width="20" height="20" viewBox="0 0 20 20" fill="none" xmlns="http://www.w3.org/2000/svg">
<g clip-path="url(#clip0_1353_1878)">
<g clip-path="url(#clip1_1353_1878)">
<path d="M14.1493 3.86097H5.89095C5.79151 3.86097 5.69731 3.81635 5.63434 3.73937L4.73512 2.64044C4.63517 2.5183 4.63517 2.34266 4.73512 2.22052L5.63434 1.12159C5.69731 1.04465 5.79151 1 5.89095 1H14.1492C14.2487 1 14.3429 1.04461 14.4058 1.12159L15.305 2.22052C15.405 2.34266 15.405 2.5183 15.305 2.64044L14.4058 3.73937C14.3429 3.81635 14.2487 3.86097 14.1493 3.86097Z" fill="#9494A0"/>
<path d="M14.1493 7.82154H5.89095C5.79151 7.82154 5.69731 7.77692 5.63434 7.69994L4.73512 6.60102C4.63517 6.47887 4.63517 6.30323 4.73512 6.18109L5.63434 5.08217C5.69731 5.00523 5.79151 4.96057 5.89095 4.96057H14.1492C14.2487 4.96057 14.3429 5.00519 14.4058 5.08217L15.305 6.18109C15.405 6.30323 15.405 6.47887 15.305 6.60102L14.4058 7.69994C14.3429 7.77688 14.2487 7.82154 14.1493 7.82154Z" fill="#9494A0"/>
<path d="M6.30078 3.86096H13.7421V4.96055H6.30078V3.86096Z" fill="#7C7C88"/>
<path d="M7.07898 2.73536H6.801C6.6326 2.73536 6.49609 2.59885 6.49609 2.43045C6.49609 2.26205 6.6326 2.12555 6.801 2.12555H7.07898C7.24738 2.12555 7.38388 2.26205 7.38388 2.43045C7.38388 2.59885 7.24738 2.73536 7.07898 2.73536Z" fill="white"/>
<path d="M8.36413 2.73536H8.08616C7.91775 2.73536 7.78125 2.59885 7.78125 2.43045C7.78125 2.26205 7.91775 2.12555 8.08616 2.12555H8.36413C8.53254 2.12555 8.66904 2.26205 8.66904 2.43045C8.66904 2.59885 8.53254 2.73536 8.36413 2.73536Z" fill="white"/>
<path d="M9.6532 2.73536H9.37522C9.20682 2.73536 9.07031 2.59885 9.07031 2.43045C9.07031 2.26205 9.20682 2.12555 9.37522 2.12555H9.6532C9.8216 2.12555 9.9581 2.26205 9.9581 2.43045C9.9581 2.59885 9.82164 2.73536 9.6532 2.73536Z" fill="white"/>
<path d="M11.0354 4.16591C10.867 4.16591 10.7305 4.0294 10.7305 3.861V3.21378C10.7305 3.04538 10.867 2.90887 11.0354 2.90887C11.2038 2.90887 11.3403 3.04538 11.3403 3.21378V3.86096C11.3403 4.0294 11.2038 4.16591 11.0354 4.16591Z" fill="white"/>
<path d="M12.1369 4.16591C11.9685 4.16591 11.832 4.0294 11.832 3.861V3.21378C11.832 3.04538 11.9685 2.90887 12.1369 2.90887C12.3053 2.90887 12.4418 3.04538 12.4418 3.21378V3.86096C12.4418 4.0294 12.3053 4.16591 12.1369 4.16591Z" fill="white"/>
<path d="M13.2346 4.16591C13.0662 4.16591 12.9297 4.0294 12.9297 3.861V3.21378C12.9297 3.04538 13.0662 2.90887 13.2346 2.90887C13.403 2.90887 13.5395 3.04538 13.5395 3.21378V3.86096C13.5395 4.0294 13.403 4.16591 13.2346 4.16591Z" fill="white"/>
<path d="M7.07898 6.69599H6.801C6.6326 6.69599 6.49609 6.55949 6.49609 6.39109C6.49609 6.22269 6.6326 6.08618 6.801 6.08618H7.07898C7.24738 6.08618 7.38388 6.22269 7.38388 6.39109C7.38388 6.55949 7.24738 6.69599 7.07898 6.69599Z" fill="white"/>
<path d="M8.36413 6.69599H8.08616C7.91775 6.69599 7.78125 6.55949 7.78125 6.39109C7.78125 6.22269 7.91775 6.08618 8.08616 6.08618H8.36413C8.53254 6.08618 8.66904 6.22269 8.66904 6.39109C8.66904 6.55949 8.53254 6.69599 8.36413 6.69599Z" fill="white"/>
<path d="M9.6532 6.69599H9.37522C9.20682 6.69599 9.07031 6.55949 9.07031 6.39109C9.07031 6.22269 9.20682 6.08618 9.37522 6.08618H9.6532C9.8216 6.08618 9.9581 6.22269 9.9581 6.39109C9.9581 6.55949 9.82164 6.69599 9.6532 6.69599Z" fill="white"/>
<path d="M11.0354 8.53304C10.867 8.53304 10.7305 8.39654 10.7305 8.22814V7.17441C10.7305 7.00601 10.867 6.86951 11.0354 6.86951C11.2038 6.86951 11.3403 7.00601 11.3403 7.17441V8.22814C11.3403 8.39654 11.2038 8.53304 11.0354 8.53304Z" fill="white"/>
<path d="M12.1369 8.53304C11.9685 8.53304 11.832 8.39654 11.832 8.22814V7.17441C11.832 7.00601 11.9685 6.86951 12.1369 6.86951C12.3053 6.86951 12.4418 7.00601 12.4418 7.17441V8.22814C12.4418 8.39654 12.3053 8.53304 12.1369 8.53304Z" fill="white"/>
<path d="M13.2346 8.53304C13.0662 8.53304 12.9297 8.39654 12.9297 8.22814V7.17441C12.9297 7.00601 13.0662 6.86951 13.2346 6.86951C13.403 6.86951 13.5395 7.00601 13.5395 7.17441V8.22814C13.5395 8.39654 13.403 8.53304 13.2346 8.53304Z" fill="white"/>
<path d="M10.0196 19.1542L2.6386 17.5141C2.33166 17.4459 2.11328 17.1736 2.11328 16.8592V7.8906C2.11328 7.84438 2.15077 7.80688 2.19699 7.80688H10.0196V19.1542Z" fill="#473A3A"/>
<path d="M9.17578 7.80688V18.966L10.0227 19.1542V7.80688H9.17578Z" fill="#2A1E1E"/>
<path d="M10.0195 19.1542L17.4005 17.5141C17.7074 17.4459 17.9258 17.1736 17.9258 16.8592V7.8906C17.9258 7.84438 17.8883 7.80688 17.8421 7.80688H10.0195V19.1542Z" fill="#473A3A"/>
<path d="M17.0664 7.80688V17.5881L17.3995 17.5141C17.7064 17.4459 17.9248 17.1736 17.9248 16.8592V7.8906C17.9248 7.84438 17.8873 7.80688 17.8411 7.80688H17.0664Z" fill="#2A1E1E"/>
<path d="M2.08734 7.84042C2.10315 7.81933 2.12796 7.80688 2.15434 7.80688H10.0187L7.84782 10.7054C7.832 10.7265 7.80719 10.739 7.78082 10.739H0.083712C0.0520122 10.739 0.0230128 10.721 0.00884572 10.6927C-0.00532135 10.6644 -0.00230792 10.6304 0.016712 10.605L2.08734 7.84042Z" fill="#2A1E1E"/>
<path d="M8.86398 7.80688L6.66797 10.739H7.7847C7.81108 10.739 7.83589 10.7265 7.8517 10.7054L10.0226 7.80688H8.86398Z" fill="#2A1E1E"/>
<path d="M17.9509 7.84042C17.9351 7.81933 17.9103 7.80688 17.8839 7.80688H10.0195L12.1904 10.7054C12.2062 10.7265 12.231 10.739 12.2574 10.739H19.9545C19.9862 10.739 20.0152 10.721 20.0294 10.6927C20.0435 10.6644 20.0405 10.6304 20.0215 10.605L17.9509 7.84042Z" fill="#2A1E1E"/>
<path d="M17.9512 7.84042C17.9354 7.81933 17.9106 7.80688 17.8842 7.80688H16.8281L19.0241 10.739H19.9548C19.9865 10.739 20.0155 10.721 20.0297 10.6927C20.0439 10.6644 20.0408 10.6304 20.0218 10.605L17.9512 7.84042Z" fill="#2A1E1E"/>
<path d="M13.0312 17.4895C12.8914 17.4895 12.7654 17.3928 12.7339 17.2506C12.6974 17.0862 12.801 16.9234 12.9654 16.8868L15.7066 16.2777C15.8711 16.2411 16.0339 16.3449 16.0703 16.5092C16.1069 16.6736 16.0032 16.8365 15.8389 16.873L13.0976 17.4821C13.0754 17.4871 13.0531 17.4895 13.0312 17.4895Z" fill="#2A1E1E"/>
</g>
</g>
<defs>
<clipPath id="clip0_1353_1878">
<rect width="20" height="20" fill="white"/>
</clipPath>
<clipPath id="clip1_1353_1878">
<rect width="20" height="20" fill="white"/>
</clipPath>
</defs>
</svg>
