<svg width="20" height="20" viewBox="0 0 20 20" fill="none" xmlns="http://www.w3.org/2000/svg">
<path d="M16.3633 4.16406H12.1445C11.853 4.16406 11.6172 3.9282 11.6172 3.63672C11.6172 3.34524 11.853 3.10938 12.1445 3.10938H16.3633C16.6548 3.10938 16.8906 3.34524 16.8906 3.63672C16.8906 3.9282 16.6548 4.16406 16.3633 4.16406ZM7.85547 4.16406C7.56423 4.16406 7.32812 3.92795 7.32812 3.63672C7.32812 3.34541 7.56423 3.10938 7.85547 3.10938C8.1467 3.10938 8.38281 3.34541 8.38281 3.63672C8.38281 3.92795 8.1467 4.16406 7.85547 4.16406ZM5.74609 4.16406C5.45486 4.16406 5.21875 3.92795 5.21875 3.63672C5.21875 3.34541 5.45486 3.10938 5.74609 3.10938C6.03733 3.10938 6.27344 3.34541 6.27344 3.63672C6.27344 3.92795 6.03733 4.16406 5.74609 4.16406ZM3.63672 4.16406C3.34548 4.16406 3.10937 3.92795 3.10937 3.63672C3.10937 3.34541 3.34548 3.10938 3.63672 3.10938C3.92795 3.10938 4.16406 3.34541 4.16406 3.63672C4.16406 3.92795 3.92795 4.16406 3.63672 4.16406ZM17.418 1H2.58203C1.70966 1 1 1.70966 1 2.58203V4.69141C1 5.56377 1.70966 6.27344 2.58203 6.27344H17.418C18.2903 6.27344 19 5.56377 19 4.69141V2.58203C19 1.70966 18.2903 1 17.418 1Z" fill="#2B1E1E"/>
<path d="M16.3633 10.5273H12.1445C11.853 10.5273 11.6172 10.2915 11.6172 10C11.6172 9.70852 11.853 9.47266 12.1445 9.47266H16.3633C16.6548 9.47266 16.8906 9.70852 16.8906 10C16.8906 10.2915 16.6548 10.5273 16.3633 10.5273ZM7.85547 10.5273C7.56423 10.5273 7.32812 10.2912 7.32812 10C7.32812 9.7087 7.56423 9.47266 7.85547 9.47266C8.1467 9.47266 8.38281 9.7087 8.38281 10C8.38281 10.2912 8.1467 10.5273 7.85547 10.5273ZM5.74609 10.5273C5.45486 10.5273 5.21875 10.2912 5.21875 10C5.21875 9.7087 5.45486 9.47266 5.74609 9.47266C6.03733 9.47266 6.27344 9.7087 6.27344 10C6.27344 10.2912 6.03733 10.5273 5.74609 10.5273ZM3.63672 10.5273C3.34548 10.5273 3.10937 10.2912 3.10937 10C3.10937 9.7087 3.34548 9.47266 3.63672 9.47266C3.92795 9.47266 4.16406 9.7087 4.16406 10C4.16406 10.2912 3.92795 10.5273 3.63672 10.5273ZM17.418 7.36328H2.58203C1.70966 7.36328 1 8.07295 1 8.94531V11.0547C1 11.9271 1.70966 12.6367 2.58203 12.6367H17.418C18.2903 12.6367 19 11.9271 19 11.0547V8.94531C19 8.07295 18.2903 7.36328 17.418 7.36328Z" fill="#9494A0"/>
<path d="M16.3633 16.8906H12.1445C11.853 16.8906 11.6172 16.6548 11.6172 16.3633C11.6172 16.0718 11.853 15.8359 12.1445 15.8359H16.3633C16.6548 15.8359 16.8906 16.0718 16.8906 16.3633C16.8906 16.6548 16.6548 16.8906 16.3633 16.8906ZM7.85547 16.8906C7.56423 16.8906 7.32812 16.6545 7.32812 16.3633C7.32812 16.072 7.56423 15.8359 7.85547 15.8359C8.1467 15.8359 8.38281 16.072 8.38281 16.3633C8.38281 16.6545 8.1467 16.8906 7.85547 16.8906ZM5.74609 16.8906C5.45486 16.8906 5.21875 16.6545 5.21875 16.3633C5.21875 16.072 5.45486 15.8359 5.74609 15.8359C6.03733 15.8359 6.27344 16.072 6.27344 16.3633C6.27344 16.6545 6.03733 16.8906 5.74609 16.8906ZM3.63672 16.8906C3.34548 16.8906 3.10937 16.6545 3.10937 16.3633C3.10937 16.072 3.34548 15.8359 3.63672 15.8359C3.92795 15.8359 4.16406 16.072 4.16406 16.3633C4.16406 16.6545 3.92795 16.8906 3.63672 16.8906ZM17.418 13.7266H2.58203C1.70966 13.7266 1 14.4362 1 15.3086V17.418C1 18.2903 1.70966 19 2.58203 19H17.418C18.2903 19 19 18.2903 19 17.418V15.3086C19 14.4362 18.2903 13.7266 17.418 13.7266Z" fill="#2B1E1E"/>
</svg>
