<svg width="24" height="24" viewBox="0 0 24 24" fill="none" xmlns="http://www.w3.org/2000/svg">
<g clip-path="url(#clip0_505_194)">
<path d="M4.85712 0.578514L4.85701 0.578514C3.29607 0.579575 2.03177 1.84633 2.03407 3.40731M4.85712 0.578514L2.18407 3.40709M4.85712 0.578514L17.516 0.578515L17.5161 0.578515C19.078 0.579222 20.3441 1.84514 20.3446 3.40704L20.3446 3.40709L20.3446 4.41423M4.85712 0.578514L20.1946 4.41423M2.03407 3.40731L2.18407 3.40709M2.03407 3.40731L2.03407 3.40709L2.18407 3.40709M2.03407 3.40731L2.03407 20.5499L2.03407 20.55C2.03442 22.1119 3.30074 23.3778 4.86257 23.3785L4.86264 23.3785L17.5216 23.3785L17.5216 23.3785C19.0835 23.3778 20.3494 22.1119 20.3501 20.55L20.3501 20.5499L20.3501 19.5428M2.18407 3.40709L2.18407 20.5499C2.1844 22.029 3.38357 23.2278 4.86264 23.2285L17.5216 23.2285C19.0006 23.2278 20.1995 22.029 20.2001 20.5499L20.2001 19.5428L20.3501 19.5428M20.3501 19.5428L20.3501 19.3928L21.4535 19.3928C21.7495 19.3928 21.9893 19.1529 21.9893 18.8571C21.9893 18.5613 21.7495 18.3214 21.4535 18.3214L20.3501 18.3214L20.3501 18.1714M20.3501 19.5428L21.4535 19.5428C21.8324 19.5428 22.1393 19.2357 22.1393 18.8571C22.1393 18.4785 21.8324 18.1714 21.4535 18.1714L20.3501 18.1714M20.3501 18.1714L20.2001 18.1714L20.2001 14.9571L20.3501 14.9571M20.3501 18.1714L20.3501 14.9571M20.3501 14.9571L20.3501 14.8071L21.4535 14.8071C21.7495 14.8071 21.9893 14.5674 21.9893 14.2714C21.9893 13.9756 21.7495 13.7357 21.4535 13.7357L20.3501 13.7357L20.3501 13.5857M20.3501 14.9571L21.4535 14.9571C21.8324 14.9571 22.1393 14.6502 22.1393 14.2714C22.1393 13.8927 21.8324 13.5857 21.4535 13.5857L20.3501 13.5857M20.3501 13.5857L20.2001 13.5857L20.2001 10.3714L20.3501 10.3714M20.3501 13.5857L20.3501 10.3714M20.3501 10.3714L20.3501 10.2214L21.4535 10.2214C21.7495 10.2214 21.9893 9.98147 21.9893 9.68566C21.9893 9.38968 21.7495 9.14995 21.4535 9.14995L20.3501 9.14995L20.3501 8.99994M20.3501 10.3714L21.4535 10.3714C21.8324 10.3714 22.1393 10.0643 22.1393 9.68566C22.1393 9.30683 21.8324 8.99994 21.4535 8.99994L20.3501 8.99994M20.3501 8.99994L20.2001 8.99994L20.2001 5.78566L20.3501 5.78566M20.3501 8.99994L20.3501 5.78566M20.3501 5.78566L20.3501 5.63566L21.4535 5.63566C21.7495 5.63566 21.9893 5.39576 21.9893 5.09994C21.9893 4.80413 21.7495 4.56423 21.4535 4.56423L20.3446 4.56423L20.3446 4.41423M20.3501 5.78566L21.4535 5.78566C21.8324 5.78566 22.1393 5.47857 22.1393 5.09994C22.1393 4.72132 21.8324 4.41423 21.4535 4.41423L20.3446 4.41423M20.3446 4.41423L20.1946 4.41423M20.1946 4.41423L20.1946 3.40709L20.1946 4.41423ZM3.39997 20.5495C3.4024 21.3535 4.05364 22.0048 4.85754 22.0071L17.5156 22.0071C18.3195 22.0048 18.9708 21.3536 18.9732 20.5498L18.9732 19.5428L17.8698 19.5428C17.4909 19.5428 17.1841 19.2357 17.1841 18.8571C17.1841 18.4785 17.4909 18.1714 17.8698 18.1714L18.9732 18.1714L18.9732 14.9571L17.8698 14.9571C17.491 14.9571 17.1841 14.6502 17.1841 14.2714C17.1841 13.8927 17.4909 13.5857 17.8698 13.5857L18.9732 13.5857L18.9732 10.3714L17.8698 10.3714C17.4909 10.3714 17.1841 10.0643 17.1841 9.68566C17.1841 9.30683 17.491 8.99994 17.8698 8.99994L18.9732 8.99994L18.9732 5.78566L17.8698 5.78566C17.4909 5.78566 17.1841 5.47857 17.1841 5.09994C17.1841 4.72132 17.4909 4.41423 17.8698 4.41423L18.9732 4.41423L18.9732 3.40727C18.9708 2.60352 18.3196 1.95233 17.5158 1.94994L4.85733 1.94994C4.05353 1.95233 3.4024 2.60363 3.39997 3.40754L3.39997 20.5495Z" fill="#2D3250" stroke="#2D3250" stroke-width="0.3"/>
<path d="M11 12.05L11 12.05C9.31562 12.05 7.95 10.6846 7.95 9C7.95 7.31542 9.31562 5.95 11 5.95C12.6846 5.95 14.05 7.31543 14.05 9L14.05 9.00005C14.0484 10.6838 12.684 12.0484 11 12.05ZM10.9999 7.28093C10.0541 7.28098 9.28711 8.048 9.28711 8.99381C9.28711 9.93965 10.0542 10.7067 11 10.7067C11.946 10.7067 12.7129 9.93967 12.7129 8.99384C12.7112 8.04873 11.9454 7.28262 10.9999 7.28093Z" fill="#2D3250" stroke="#2D3250" stroke-width="0.1"/>
<path d="M16.05 17.424L16.05 17.4241C16.0488 17.7764 15.7179 18.0491 15.3263 18.05L15.3262 18.05L6.67384 18.05L6.67372 18.05C6.28213 18.0491 5.95117 17.7764 5.95 17.4241L5.95 17.424C5.95 14.908 8.17526 12.95 10.9999 12.95C13.8247 12.95 16.05 14.908 16.05 17.424ZM7.46199 16.7979L14.5378 16.7979C14.2279 15.2838 12.8162 14.2021 10.9999 14.2021C9.18355 14.2021 7.76534 15.284 7.46199 16.7979Z" fill="#2D3250" stroke="#2D3250" stroke-width="0.1"/>
</g>
<defs>
<clipPath id="clip0_505_194">
<rect width="24" height="24" fill="white"/>
</clipPath>
</defs>
</svg>
