<svg width="25" height="24" viewBox="0 0 25 24" fill="none" xmlns="http://www.w3.org/2000/svg">
<g clip-path="url(#clip0_1492_401)">
<mask id="mask0_1492_401" style="mask-type:luminance" maskUnits="userSpaceOnUse" x="0" y="0" width="25" height="24">
<path d="M24.8118 0H0.811768V24H24.8118V0Z" fill="white"/>
</mask>
<g mask="url(#mask0_1492_401)">
<mask id="mask1_1492_401" style="mask-type:luminance" maskUnits="userSpaceOnUse" x="0" y="0" width="25" height="24">
<path d="M24.8118 0H0.811768V24H24.8118V0Z" fill="white"/>
</mask>
<g mask="url(#mask1_1492_401)">
<path d="M12.8118 4.72363C8.74332 4.72363 5.43311 8.03357 5.43311 12.1024C5.43311 14.8312 6.94075 17.3216 9.31398 18.5808V21.0385C9.31398 21.4616 9.65687 21.8045 10.0799 21.8045H15.5438C15.9668 21.8045 16.3097 21.4618 16.3097 21.0385V18.5997C18.6827 17.3078 20.1903 14.809 20.1903 12.1024C20.1903 8.03385 16.8804 4.72363 12.8118 4.72363ZM15.2233 17.4321C14.9519 17.5573 14.7778 17.8289 14.7778 18.1279V20.2726H10.8459V18.1024C10.8459 17.7998 10.6674 17.5253 10.3909 17.4025C8.30981 16.4775 6.96507 14.3969 6.96507 12.1024C6.96507 8.87845 9.58796 6.25556 12.8119 6.25556C16.0358 6.25556 18.6585 8.87845 18.6585 12.1024C18.6584 14.3788 17.3101 16.4709 15.2233 17.4321Z" fill="#F51322"/>
<path d="M15.0329 22.4683H10.5904C10.1674 22.4683 9.82446 22.8112 9.82446 23.2342C9.82446 23.6572 10.1674 24.0001 10.5904 24.0001H15.0329C15.456 24.0001 15.7989 23.6572 15.7989 23.2342C15.7989 22.8112 15.456 22.4683 15.0329 22.4683Z" fill="#F51322"/>
<path d="M13.5778 0H12.0459V3.19148H13.5778V0Z" fill="#F51322"/>
<path d="M4.07991 11.1572H0.888428V12.6891H4.07991V11.1572Z" fill="#F51322"/>
<path d="M24.7352 11.1572H21.5437V12.6891H24.7352V11.1572Z" fill="#F51322"/>
<path d="M4.92475 2.95312L3.84766 4.04247L6.12005 6.2893L7.19715 5.19996L4.92475 2.95312Z" fill="#F51322"/>
<path d="M20.6987 2.9541L18.4263 5.20093L19.5034 6.29028L21.7758 4.04345L20.6987 2.9541Z" fill="#F51322"/>
</g>
</g>
</g>
<defs>
<clipPath id="clip0_1492_401">
<rect width="25" height="24" fill="white"/>
</clipPath>
</defs>
</svg>
