<svg width="24" height="24" viewBox="0 0 24 24" fill="none" xmlns="http://www.w3.org/2000/svg">
<g clip-path="url(#clip0_505_171)">
<g clip-path="url(#clip1_505_171)">
<path d="M12 4.72363C7.9315 4.72363 4.62128 8.03357 4.62128 12.1024C4.62128 14.8312 6.12892 17.3216 8.50215 18.5808V21.0385C8.50215 21.4616 8.84504 21.8045 9.26809 21.8045H14.7319C15.155 21.8045 15.4979 21.4618 15.4979 21.0385V18.5997C17.8708 17.3078 19.3785 14.809 19.3785 12.1024C19.3785 8.03385 16.0685 4.72363 12 4.72363ZM14.4115 17.4321C14.1401 17.5573 13.9659 17.8289 13.9659 18.1279V20.2726H10.0341V18.1024C10.0341 17.7998 9.85562 17.5253 9.57911 17.4025C7.498 16.4775 6.15325 14.3969 6.15325 12.1024C6.15325 8.87845 8.77614 6.25556 12.0001 6.25556C15.224 6.25556 17.8466 8.87845 17.8466 12.1024C17.8466 14.3788 16.4982 16.4709 14.4115 17.4321Z" fill="#2D3250"/>
<path d="M14.2213 22.4678H9.77876C9.35571 22.4678 9.01282 22.8107 9.01282 23.2337C9.01282 23.6568 9.35571 23.9996 9.77876 23.9996H14.2213C14.6443 23.9996 14.9872 23.6568 14.9872 23.2337C14.9873 22.8107 14.6444 22.4678 14.2213 22.4678Z" fill="#2D3250"/>
<path d="M12.766 0H11.2341V3.19148H12.766V0Z" fill="#2D3250"/>
<path d="M3.26808 11.1572H0.0765991V12.6891H3.26808V11.1572Z" fill="#2D3250"/>
<path d="M23.9234 11.1572H20.7319V12.6891H23.9234V11.1572Z" fill="#2D3250"/>
<path d="M4.11311 2.95264L3.03601 4.04199L5.30841 6.28883L6.3855 5.19948L4.11311 2.95264Z" fill="#2D3250"/>
<path d="M19.887 2.95434L17.6146 5.20117L18.6917 6.29052L20.9641 4.04369L19.887 2.95434Z" fill="#2D3250"/>
</g>
</g>
<defs>
<clipPath id="clip0_505_171">
<rect width="24" height="24" fill="white"/>
</clipPath>
<clipPath id="clip1_505_171">
<rect width="24" height="24" fill="white"/>
</clipPath>
</defs>
</svg>
