<svg width="20" height="20" viewBox="0 0 20 20" fill="none" xmlns="http://www.w3.org/2000/svg">
<g clip-path="url(#clip0_1340_1763)">
<path d="M18.4695 16.647H18.2245V15.1515C18.2245 14.8116 17.9066 14.5568 17.5709 14.6358C16.7229 14.8371 16.1587 14.9372 15.4362 14.9277C14.1981 14.9116 13.6758 14.6654 12.1994 14.5511C11.2558 14.4781 10.4883 14.9144 10 15.5341C9.51168 14.9144 8.74422 14.4781 7.80063 14.5511C6.32579 14.6653 5.80076 14.9116 4.56379 14.9277C3.84133 14.9372 3.27707 14.8371 2.4291 14.6358C2.09382 14.5569 1.77555 14.8111 1.77555 15.1515V16.647H1.53051C1.23766 16.647 1 16.8845 1 17.1771C1 17.4701 1.23766 17.7072 1.53051 17.7072H7.16008C7.38789 18.4548 8.08434 19 8.90559 19H11.0944C11.9157 19 12.6121 18.4548 12.8399 17.7072H18.4695C18.7623 17.7072 19 17.4701 19 17.1771C19 16.8845 18.7623 16.647 18.4695 16.647Z" fill="#9494A0"/>
<path d="M7.22283 2.7412C5.78423 4.17737 5.6595 6.41517 6.85791 7.99386C7.3406 8.62934 7.67986 9.32987 7.87041 10.0831H9.52697V6.96104C9.52697 6.6697 9.76385 6.43408 10.0543 6.43408C10.3454 6.43408 10.5817 6.67016 10.5817 6.96104V10.0831H12.2403C12.4319 9.33127 12.7733 8.62657 13.2592 7.98229C14.4359 6.4229 14.339 4.16766 12.87 2.71982C11.3066 1.17935 8.79111 1.17481 7.22283 2.7412Z" fill="#2A1E1E"/>
<path d="M4.49645 5.58028C4.78768 5.58028 5.02379 5.34435 5.02379 5.05332C5.02379 4.7623 4.78768 4.52637 4.49645 4.52637H2.73828C2.44705 4.52637 2.21094 4.7623 2.21094 5.05332C2.21094 5.34435 2.44705 5.58028 2.73828 5.58028H4.49645Z" fill="#9494A0"/>
<path d="M17.1654 8.12506L15.6506 7.23329C15.3996 7.08559 15.0764 7.16905 14.9285 7.41982C14.7807 7.67056 14.8643 7.99357 15.1152 8.1413L16.6301 9.03307C16.8812 9.18087 17.2044 9.09713 17.3521 8.84654C17.4999 8.5958 17.4163 8.27279 17.1654 8.12506Z" fill="#9494A0"/>
<path d="M4.45819 7.23329L2.94335 8.12506C2.6924 8.27279 2.60883 8.5958 2.75667 8.84654C2.90453 9.09734 3.22779 9.18077 3.4787 9.03307L4.99355 8.1413C5.2445 7.99357 5.32806 7.67056 5.18023 7.41982C5.03237 7.16905 4.7091 7.08559 4.45819 7.23329Z" fill="#9494A0"/>
<path d="M15.6506 2.8728L17.1654 1.98102C17.4164 1.8333 17.4999 1.51028 17.3521 1.25955C17.2043 1.00878 16.8809 0.925315 16.6301 1.07301L15.1152 1.96478C14.8643 2.11251 14.7807 2.43552 14.9285 2.68626C15.0764 2.9371 15.3996 3.02052 15.6506 2.8728Z" fill="#9494A0"/>
<path d="M4.99355 1.96478L3.4787 1.07301C3.22776 0.925315 2.90457 1.00878 2.75667 1.25955C2.60883 1.51028 2.6924 1.8333 2.94335 1.98102L4.45819 2.8728C4.70928 3.02059 5.03244 2.93689 5.18023 2.68626C5.32803 2.43552 5.2445 2.11251 4.99355 1.96478Z" fill="#9494A0"/>
<path d="M17.3714 4.52637H15.6133C15.322 4.52637 15.0859 4.7623 15.0859 5.05332C15.0859 5.34435 15.322 5.58028 15.6133 5.58028H17.3714C17.6627 5.58028 17.8988 5.34435 17.8988 5.05332C17.8988 4.7623 17.6627 4.52637 17.3714 4.52637Z" fill="#9494A0"/>
<path d="M7.97656 11.1368V11.6981C7.97656 12.5142 8.66281 13.1778 9.50727 13.1778H10.5936C11.4317 13.1778 12.1187 12.5187 12.125 11.7086L12.1289 11.1367L7.97656 11.1368Z" fill="#2A1E1E"/>
</g>
<defs>
<clipPath id="clip0_1340_1763">
<rect width="18" height="18" fill="white" transform="translate(1 1)"/>
</clipPath>
</defs>
</svg>
