<svg width="25" height="24" viewBox="0 0 25 24" fill="none" xmlns="http://www.w3.org/2000/svg">
<g clip-path="url(#clip0_1492_417)">
<mask id="mask0_1492_417" style="mask-type:luminance" maskUnits="userSpaceOnUse" x="0" y="0" width="25" height="24">
<path d="M24.8118 24H0.811768V0H24.8118V24Z" fill="white"/>
</mask>
<g mask="url(#mask0_1492_417)">
<path fill-rule="evenodd" clip-rule="evenodd" d="M5.42715 0C2.88908 0 0.811768 1.84858 0.811768 4.10716V22.1787C0.811841 22.3549 0.875621 22.5265 0.993686 22.668C1.11175 22.8096 1.27784 22.9136 1.46742 22.9646C1.657 23.0157 1.86001 23.0112 2.04647 22.9517C2.23292 22.8922 2.39294 22.7809 2.50287 22.6343L3.581 21.1952L4.65912 22.6343C4.74343 22.7468 4.85765 22.839 4.99162 22.9028C5.1256 22.9666 5.2752 23 5.42715 23C5.5791 23 5.7287 22.9666 5.86268 22.9028C5.99666 22.839 6.11087 22.7468 6.19518 22.6343L7.27331 21.1952L8.35143 22.6343C8.43574 22.7468 8.54995 22.839 8.68393 22.9028C8.81791 22.9666 8.96751 23 9.11946 23C9.27141 23 9.42101 22.9666 9.55499 22.9028C9.68897 22.839 9.80318 22.7468 9.88749 22.6343L10.9656 21.1952L12.0437 22.6343C12.128 22.7468 12.2423 22.839 12.3762 22.9028C12.5102 22.9666 12.6598 23 12.8118 23C12.9637 23 13.1133 22.9666 13.2473 22.9028C13.3813 22.839 13.4955 22.7468 13.5798 22.6343L14.6579 21.1952L15.736 22.6343C15.846 22.7809 16.006 22.8922 16.1925 22.9517C16.3789 23.0112 16.5819 23.0157 16.7715 22.9646C16.9611 22.9136 17.1272 22.8096 17.2452 22.668C17.3633 22.5265 17.4271 22.3549 17.4272 22.1787V12.3215H23.8887C24.1335 12.3215 24.3683 12.2349 24.5414 12.0809C24.7145 11.9268 24.8117 11.7179 24.8118 11.5001V4.10716C24.8118 1.84858 22.7345 0 20.1964 0H5.42715ZM5.42715 1.64286H16.5113C15.928 2.33066 15.581 3.18436 15.581 4.10716V4.92859V11.5001V19.4657L15.4259 19.2587C15.3416 19.1462 15.2274 19.054 15.0934 18.9902C14.9595 18.9264 14.8099 18.893 14.6579 18.893C14.506 18.893 14.3564 18.9264 14.2224 18.9902C14.0884 19.054 13.9742 19.1462 13.8899 19.2587L12.8118 20.6978L11.7336 19.2587C11.6493 19.1462 11.5351 19.054 11.4011 18.9902C11.2672 18.9264 11.1176 18.893 10.9656 18.893C10.8137 18.893 10.6641 18.9264 10.5301 18.9902C10.3961 19.054 10.2819 19.1462 10.1976 19.2587L9.11946 20.6978L8.04133 19.2587C7.95702 19.1462 7.84281 19.054 7.70883 18.9902C7.57486 18.9264 7.42526 18.893 7.27331 18.893C7.12136 18.893 6.97175 18.9264 6.83778 18.9902C6.7038 19.054 6.58959 19.1462 6.50528 19.2587L5.42715 20.6978L4.34903 19.2587C4.26472 19.1462 4.1505 19.054 4.01653 18.9902C3.88255 18.9264 3.73295 18.893 3.581 18.893C3.42905 18.893 3.27945 18.9264 3.14547 18.9902C3.01149 19.054 2.89728 19.1462 2.81297 19.2587L2.65792 19.4657V4.10716C2.65792 2.73644 3.88682 1.64286 5.42715 1.64286ZM20.1964 1.64286C21.7367 1.64286 22.9656 2.73644 22.9656 4.10716V10.6786H17.4272V4.92859V4.10716C17.4272 2.73644 18.656 1.64286 20.1964 1.64286Z" fill="#F51322"/>
<path fill-rule="evenodd" clip-rule="evenodd" d="M5.42698 9.85742C5.18217 9.85742 4.94738 9.94396 4.77427 10.098C4.60116 10.2521 4.50391 10.461 4.50391 10.6789C4.50391 10.8967 4.60116 11.1056 4.77427 11.2597C4.94738 11.4137 5.18217 11.5003 5.42698 11.5003H9.11929C9.36411 11.5003 9.59889 11.4137 9.77201 11.2597C9.94512 11.1056 10.0424 10.8967 10.0424 10.6789C10.0424 10.461 9.94512 10.2521 9.77201 10.098C9.59889 9.94396 9.36411 9.85742 9.11929 9.85742H5.42698Z" fill="#F51322"/>
<path fill-rule="evenodd" clip-rule="evenodd" d="M5.42698 12.3213C5.18217 12.3213 4.94738 12.4078 4.77427 12.5619C4.60116 12.7159 4.50391 12.9249 4.50391 13.1427C4.50391 13.3606 4.60116 13.5695 4.77427 13.7236C4.94738 13.8776 5.18217 13.9642 5.42698 13.9642H12.8116C13.0564 13.9642 13.2912 13.8776 13.4643 13.7236C13.6374 13.5695 13.7347 13.3606 13.7347 13.1427C13.7347 12.9249 13.6374 12.7159 13.4643 12.5619C13.2912 12.4078 13.0564 12.3213 12.8116 12.3213H5.42698Z" fill="#F51322"/>
<path fill-rule="evenodd" clip-rule="evenodd" d="M5.42698 14.7861C5.18217 14.7861 4.94738 14.8727 4.77427 15.0267C4.60116 15.1808 4.50391 15.3897 4.50391 15.6076C4.50391 15.8254 4.60116 16.0344 4.77427 16.1884C4.94738 16.3425 5.18217 16.429 5.42698 16.429H12.8116C13.0564 16.429 13.2912 16.3425 13.4643 16.1884C13.6374 16.0344 13.7347 15.8254 13.7347 15.6076C13.7347 15.3897 13.6374 15.1808 13.4643 15.0267C13.2912 14.8727 13.0564 14.7861 12.8116 14.7861H5.42698Z" fill="#F51322"/>
<path fill-rule="evenodd" clip-rule="evenodd" d="M5.42698 4.10742C5.18218 4.10744 4.9474 4.19399 4.7743 4.34804C4.60119 4.50208 4.50393 4.711 4.50391 4.92885V8.21458C4.50393 8.43243 4.60119 8.64136 4.7743 8.7954C4.9474 8.94944 5.18218 9.03599 5.42698 9.03602H9.11929C9.3641 9.03599 9.59887 8.94944 9.77198 8.7954C9.94508 8.64136 10.0423 8.43243 10.0424 8.21458V4.92885C10.0423 4.711 9.94508 4.50208 9.77198 4.34804C9.59887 4.19399 9.3641 4.10744 9.11929 4.10742H5.42698ZM6.35006 5.75029H8.19621V7.39315H6.35006V5.75029Z" fill="#F51322"/>
</g>
</g>
<defs>
<clipPath id="clip0_1492_417">
<rect width="25" height="24" fill="white"/>
</clipPath>
</defs>
</svg>
