<svg width="20" height="20" viewBox="0 0 20 20" fill="none" xmlns="http://www.w3.org/2000/svg">
<path d="M8.10938 15.321C8.67618 16.6352 9.46647 17.8271 10.4676 18.8754C11.4689 17.8271 12.2591 16.6352 12.8259 15.321H8.10938Z" fill="#9494A0"/>
<path d="M8.93126 2C7.85866 2.19342 6.83044 2.58824 5.90037 3.16956C4.86487 3.81678 3.98198 4.67367 3.30469 5.67894H6.7798C7.29646 4.33764 8.01719 3.10555 8.93126 2Z" fill="#9494A0"/>
<path d="M12.0117 19C13.0843 18.8066 14.1125 18.4117 15.0426 17.8304C16.0781 17.1832 16.961 16.3263 17.6383 15.321H14.1632C13.6465 16.6623 12.9258 17.8944 12.0117 19Z" fill="#9494A0"/>
<path d="M17.6383 5.67896C16.961 4.67369 16.0781 3.8168 15.0426 3.16958C14.1125 2.58826 13.0843 2.19348 12.0117 2.00006C12.9258 3.10561 13.6465 4.3377 14.1632 5.679L17.6383 5.67896Z" fill="#9494A0"/>
<path d="M12.826 5.67889C12.2591 4.3647 11.4689 3.1728 10.4677 2.12451C9.46643 3.17285 8.67618 4.3647 8.10938 5.67889H12.826Z" fill="#9494A0"/>
<path d="M3.30469 15.321C3.98198 16.3263 4.86487 17.1832 5.90037 17.8304C6.83044 18.4117 7.85866 18.8065 8.93126 18.9999C8.01719 17.8944 7.29646 16.6623 6.7798 15.321H3.30469V15.321Z" fill="#9494A0"/>
<path d="M1 6.91302V14.087H19.9363V6.91302H1ZM6.41084 12.5859H5.51775L3.87308 9.96843V12.6413H2.92606V8.10241L3.81915 8.10258L5.46383 10.72V8.09575H6.41084V12.5859ZM9.42512 9.05922H7.92269V9.89501H9.31434V10.842H7.92269V11.6778H9.42512V12.6248H6.97563V10.842V9.89501V8.11216H9.42512V9.05922ZM13.8875 12.6106L12.9894 12.6167L12.2524 10.0609L11.515 12.6108L10.6164 12.6169L9.74733 8.22364L10.6764 8.03989L11.1535 10.4519L11.8183 8.15334L12.6884 8.15445L13.3513 10.4534L13.8304 8.0461L14.7592 8.23096L13.8875 12.6106ZM17.9918 11.4711C17.8707 12.1492 17.2241 12.6413 16.4542 12.6413C15.8311 12.6413 15.2462 12.3902 14.8494 11.9523L15.5511 11.3164C15.7656 11.553 16.1032 11.6943 16.4542 11.6943C16.7896 11.6943 17.0253 11.4962 17.0595 11.3046C17.1054 11.0478 16.7215 10.8849 16.6028 10.8411C16.044 10.635 15.5477 10.4141 15.5269 10.4048L15.4926 10.3895L15.4612 10.369C15.0739 10.1166 14.8744 9.67378 14.9405 9.21356C15.0108 8.72364 15.3686 8.32471 15.8743 8.17234C16.8696 7.87251 17.6884 8.54778 17.7228 8.57666L17.1134 9.30163L17.1163 9.30402C17.1116 9.30027 16.6467 8.92878 16.1475 9.07913C15.9296 9.14478 15.8864 9.28912 15.8779 9.34811C15.872 9.38925 15.869 9.48736 15.9551 9.55852C16.0846 9.61516 16.4926 9.79102 16.9305 9.95256C17.8522 10.2926 18.083 10.96 17.9918 11.4711Z" fill="#2A1E1E"/>
</svg>
