<svg width="20" height="20" viewBox="0 0 20 20" fill="none" xmlns="http://www.w3.org/2000/svg">
<path d="M18.5726 12.8451C18.7265 12.8105 18.8637 12.7235 18.9607 12.5991C19.0577 12.4747 19.1087 12.3206 19.1048 12.1628V11.5897C19.1048 11.0468 18.8891 10.5262 18.5053 10.1423C18.1214 9.75841 17.6007 9.54275 17.0579 9.54275H14.4241V10.8153C14.4302 10.8601 14.4273 10.9056 14.4158 10.9493C14.4042 10.993 14.3842 11.034 14.3568 11.07C14.3294 11.1059 14.2952 11.1361 14.2561 11.1589C14.217 11.1816 14.1738 11.1964 14.129 11.2025C14.0386 11.2147 13.9469 11.1905 13.8743 11.1351C13.8017 11.0798 13.754 10.9979 13.7418 10.9074C13.7179 10.8426 13.7418 9.54275 13.7418 9.54275H2.1698C1.89084 9.52598 1.61141 9.56651 1.34871 9.66185C1.08601 9.75718 0.845613 9.9053 0.642333 10.0971C0.439054 10.2888 0.277197 10.5202 0.166735 10.7769C0.0562732 11.0336 -0.000453732 11.3102 4.97815e-05 11.5897V12.156C-0.00193106 12.3201 0.0552609 12.4793 0.161148 12.6046C0.267035 12.7299 0.414527 12.8129 0.576604 12.8383C0.917244 12.8936 1.2271 13.0683 1.45072 13.3311C1.67435 13.594 1.79715 13.9278 1.79715 14.2729C1.79715 14.618 1.67435 14.9518 1.45072 15.2146C1.2271 15.4775 0.917244 15.6522 0.576604 15.7074C0.414527 15.7329 0.267035 15.8158 0.161148 15.9411C0.0552609 16.0664 -0.00193106 16.2257 4.97815e-05 16.3898V16.9527C4.97815e-05 17.4955 0.215709 18.0162 0.599584 18.4001C0.983459 18.7839 1.50411 18.9996 2.04699 18.9996H13.7418C13.7418 18.9996 13.7214 17.693 13.7418 17.635C13.7643 17.5667 13.8077 17.5073 13.8659 17.4652C13.9241 17.423 13.9941 17.4003 14.0659 17.4003C14.1378 17.4003 14.2078 17.423 14.266 17.4652C14.3242 17.5073 14.3676 17.5667 14.39 17.635C14.4344 17.7373 14.4071 18.9996 14.4071 18.9996H17.0579C17.6007 18.9996 18.1214 18.7839 18.5053 18.4001C18.8891 18.0162 19.1048 17.4955 19.1048 16.9527V16.342C19.1039 16.1878 19.0509 16.0384 18.9542 15.9182C18.8576 15.798 18.723 15.7141 18.5726 15.6801C18.2535 15.6045 17.9692 15.4235 17.7658 15.1662C17.5623 14.909 17.4517 14.5906 17.4517 14.2626C17.4517 13.9347 17.5623 13.6163 17.7658 13.3591C17.9692 13.1018 18.2535 12.9207 18.5726 12.8451ZM14.4241 16.0315C14.4241 16.122 14.3882 16.2088 14.3242 16.2728C14.2602 16.3368 14.1735 16.3727 14.083 16.3727C13.9925 16.3727 13.9057 16.3368 13.8417 16.2728C13.7778 16.2088 13.7418 16.122 13.7418 16.0315V15.1104C13.7418 15.0199 13.7778 14.9332 13.8417 14.8692C13.9057 14.8052 13.9925 14.7693 14.083 14.7693C14.1735 14.7693 14.2602 14.8052 14.3242 14.8692C14.3882 14.9332 14.4241 15.0199 14.4241 15.1104V16.0315ZM14.4241 13.4217C14.4241 13.5122 14.3882 13.599 14.3242 13.6629C14.2602 13.7269 14.1735 13.7629 14.083 13.7629C13.9925 13.7629 13.9057 13.7269 13.8417 13.6629C13.7778 13.599 13.7418 13.5122 13.7418 13.4217V12.4938C13.7418 12.4033 13.7778 12.3165 13.8417 12.2525C13.9057 12.1885 13.9925 12.1526 14.083 12.1526C14.1735 12.1526 14.2602 12.1885 14.3242 12.2525C14.3882 12.3165 14.4241 12.4033 14.4241 12.4938V13.4217Z" fill="#2A1E1E"/>
<path d="M12.6755 8.86084C12.5118 8.69367 12.1808 8.36616 12.0171 8.20241C11.9528 8.13862 11.9166 8.05192 11.9162 7.96139C11.9159 7.87086 11.9516 7.78391 12.0154 7.71967C12.0792 7.65543 12.1659 7.61916 12.2564 7.61884C12.3469 7.61852 12.4339 7.65417 12.4981 7.71796L13.2725 8.49239L14.7395 7.02542C15.0618 6.70132 15.2427 6.26284 15.2427 5.80578C15.2427 5.34872 15.0618 4.91024 14.7395 4.58615L14.4359 4.27911C14.3268 4.1761 14.1868 4.11191 14.0375 4.0965C13.8883 4.08108 13.7381 4.11528 13.6103 4.19382C13.3971 4.32167 13.1474 4.37468 12.9007 4.34443C12.654 4.31418 12.4244 4.20241 12.2485 4.02686C12.0725 3.8513 11.9603 3.62201 11.9295 3.37537C11.8987 3.12873 11.9511 2.87887 12.0785 2.66544C12.1635 2.53243 12.1998 2.37404 12.1811 2.21727C12.1625 2.06051 12.09 1.91506 11.9761 1.80573L11.6725 1.5021C11.3474 1.18043 10.9085 1 10.4512 1C9.99382 1 9.55494 1.18043 9.22983 1.5021L7.75945 2.96907L8.52705 3.75714C8.59084 3.82138 8.6265 3.90833 8.62618 3.99886C8.62586 4.08939 8.58959 4.17609 8.52535 4.23988C8.4611 4.30367 8.37415 4.33932 8.28362 4.339C8.19309 4.33868 8.1064 4.30241 8.04261 4.23817L7.26818 3.46375L1.87109 8.86766L12.6755 8.86084ZM10.516 6.22029C10.5477 6.18831 10.5854 6.16293 10.627 6.14561C10.6686 6.12829 10.7132 6.11937 10.7582 6.11937C10.8032 6.11937 10.8478 6.12829 10.8894 6.14561C10.931 6.16293 10.9687 6.18831 11.0004 6.22029L11.5326 6.7559C11.5962 6.81982 11.6318 6.90629 11.6318 6.99642C11.6318 7.08655 11.5962 7.17301 11.5326 7.23693C11.4687 7.30047 11.3823 7.33614 11.2921 7.33614C11.202 7.33614 11.1155 7.30047 11.0516 7.23693L10.516 6.70132C10.4525 6.6374 10.4168 6.55093 10.4168 6.4608C10.4168 6.37068 10.4525 6.28421 10.516 6.22029ZM9.01832 4.72261C9.05003 4.69064 9.08776 4.66526 9.12934 4.64794C9.17091 4.63062 9.2155 4.6217 9.26054 4.6217C9.30557 4.6217 9.35016 4.63062 9.39174 4.64794C9.43331 4.66526 9.47104 4.69064 9.50276 4.72261L10.035 5.25482C10.0992 5.31906 10.1353 5.40619 10.1353 5.49704C10.1353 5.58789 10.0992 5.67502 10.035 5.73926C9.97072 5.8035 9.88359 5.83959 9.79274 5.83959C9.70189 5.83959 9.61476 5.8035 9.55052 5.73926L9.01832 5.21729C8.98477 5.18542 8.95805 5.14706 8.9398 5.10454C8.92154 5.06201 8.91213 5.01622 8.91213 4.96995C8.91213 4.92368 8.92154 4.87789 8.9398 4.83537C8.95805 4.79285 8.98477 4.75448 9.01832 4.72261Z" fill="#9494A0"/>
</svg>
