<svg width="24" height="24" viewBox="0 0 24 24" fill="none" xmlns="http://www.w3.org/2000/svg">
<g clip-path="url(#clip0_561_61)">
<path d="M22.9867 16.2688C23.5928 16.0341 24 15.4369 24 14.7825V11.755C24 10.8577 23.27 10.1276 22.3726 10.1276H22.2064C22.6991 9.48991 22.6536 8.56774 22.069 7.98308L19.9282 5.84233C19.4656 5.37969 18.7553 5.24525 18.1608 5.50784C17.8415 5.64892 17.461 5.57772 17.2141 5.3308C16.9672 5.08384 16.896 4.70337 17.0369 4.38407C17.2996 3.78958 17.1652 3.07927 16.7024 2.61659L14.5617 0.475835C13.9273 -0.158565 12.8948 -0.158659 12.2603 0.475835L2.60852 10.1276H1.62739C0.730024 10.1276 0 10.8577 0 11.755V14.7825C0 15.4369 0.4072 16.0342 1.01327 16.2688C1.33878 16.3948 1.55751 16.7142 1.55751 17.0634C1.55751 17.4126 1.33878 17.732 1.01327 17.858C0.4072 18.0928 0 18.6901 0 19.3444V22.3718C0 23.2692 0.730024 23.9992 1.62739 23.9992H22.3726C23.27 23.9992 24 23.2692 24 22.3718V19.3444C24 18.6901 23.5928 18.0928 22.9868 17.858C22.6612 17.732 22.4425 17.4126 22.4425 17.0634C22.4425 16.7142 22.6612 16.3948 22.9867 16.2688ZM13.2585 1.47419C13.3426 1.39009 13.4794 1.39009 13.5635 1.47414L15.7042 3.61489C15.7578 3.66849 15.7744 3.74835 15.7455 3.81372C15.3708 4.66224 15.5598 5.67311 16.2158 6.32906C16.8718 6.98506 17.8826 7.174 18.7312 6.79927C18.7965 6.77047 18.8764 6.78704 18.93 6.84064L21.0707 8.98134C21.1548 9.06544 21.1548 9.20228 21.0707 9.28628L20.2293 10.1276H16.5511L10.5781 4.15461L13.2585 1.47419ZM9.57981 5.15287L14.5546 10.1276H4.60499L9.57981 5.15287ZM1.41176 22.3718V19.3444C1.41176 19.2686 1.45652 19.2004 1.52311 19.1746C2.38809 18.8396 2.96922 17.9912 2.96922 17.0634C2.96922 16.1356 2.38805 15.2873 1.52301 14.9523C1.45647 14.9265 1.41176 14.8583 1.41176 14.7825V11.755C1.41176 11.6362 1.50852 11.5394 1.62739 11.5394H17.6471V22.5875H1.62739C1.50852 22.5875 1.41176 22.4908 1.41176 22.3718ZM22.5882 14.7825C22.5882 14.8583 22.5435 14.9265 22.4769 14.9523C21.612 15.2873 21.0307 16.1357 21.0307 17.0635C21.0307 17.9912 21.6119 18.8396 22.4769 19.1746C22.5435 19.2004 22.5882 19.2686 22.5882 19.3444V22.3718C22.5882 22.4907 22.4915 22.5875 22.3726 22.5875H19.0588V11.5394H22.3726C22.4915 11.5394 22.5882 11.6362 22.5882 11.755V14.7825Z" fill="#2D3250"/>
<path d="M4.94116 13.4111H15.5294V14.8229H4.94116V13.4111Z" fill="#2D3250"/>
<path d="M4.94116 16.2344H15.5294V17.6461H4.94116V16.2344Z" fill="#2D3250"/>
<path d="M4.94116 19.0576H15.5294V20.4694H4.94116V19.0576Z" fill="#2D3250"/>
</g>
<defs>
<clipPath id="clip0_561_61">
<rect width="24" height="24" fill="white"/>
</clipPath>
</defs>
</svg>
