<svg width="20" height="20" viewBox="0 0 20 20" fill="none" xmlns="http://www.w3.org/2000/svg">
<path d="M2.59766 13.4003H17.4014V14.3629H2.59766V13.4003Z" fill="#9494A0"/>
<path d="M18.0349 1H1.96511C1.43297 1 1 1.40507 1 1.90291V4.24015C1 4.73799 1.43297 5.14306 1.96511 5.14306H18.0349C18.567 5.14306 19 4.73799 19 4.24015V1.90291C19 1.40507 18.567 1 18.0349 1ZM3.9654 3.66373C3.61581 3.66373 3.3324 3.39859 3.3324 3.07153C3.3324 2.74448 3.61581 2.47933 3.9654 2.47933C4.31498 2.47933 4.5984 2.74448 4.5984 3.07153C4.5984 3.39859 4.31498 3.66373 3.9654 3.66373ZM16.0346 3.66373H6.4974C6.14781 3.66373 5.8644 3.39859 5.8644 3.07153C5.8644 2.74448 6.14781 2.47933 6.4974 2.47933H16.0346C16.3842 2.47933 16.6676 2.74448 16.6676 3.07153C16.6676 3.39859 16.3842 3.66373 16.0346 3.66373Z" fill="#9494A0"/>
<path d="M1.78018 12.5503H1.25391V7.3942C1.67244 7.27014 2.11168 7.20423 2.55508 7.20036C2.841 7.19648 3.12693 7.243 3.39628 7.33605C3.63662 7.41746 3.86039 7.54539 4.04686 7.71209C4.22919 7.87492 4.37008 8.06876 4.46125 8.28973C4.5607 8.51847 4.60628 8.76658 4.60628 9.01469C4.60628 9.33259 4.54827 9.60396 4.43224 9.83269C4.3245 10.0498 4.16703 10.2398 3.97227 10.3948C3.78166 10.5421 3.56203 10.6507 3.32169 10.7166C3.08135 10.7864 2.82857 10.8213 2.5758 10.8213C2.43905 10.8213 2.30644 10.8135 2.17384 10.7941C2.04124 10.7748 1.90863 10.7476 1.78018 10.7166V12.5503ZM4.00542 9.00306C4.00542 8.59212 3.88111 8.25872 3.63662 8.00285C3.39213 7.75086 3.04405 7.62293 2.60066 7.62293C2.45977 7.62293 2.32302 7.63068 2.18213 7.64619C2.04538 7.6617 1.90863 7.69271 1.78018 7.73535V10.2514C1.90449 10.2902 2.02881 10.3212 2.15727 10.3483C2.28158 10.3754 2.4059 10.3871 2.53436 10.3871C2.98604 10.3871 3.34241 10.2669 3.60761 10.0265C3.87282 9.79005 4.00542 9.44889 4.00542 9.00306Z" fill="#2A1E1E"/>
<path d="M5.66406 10.7864V5.8125H6.19448V10.7825H5.66406V10.7864Z" fill="#2A1E1E"/>
<path d="M10.5443 10.2667C10.3744 10.4411 10.1631 10.5807 9.93101 10.6737C9.69896 10.7668 9.41718 10.8133 9.08981 10.8133C8.81632 10.8172 8.54282 10.7707 8.29005 10.666C8.07042 10.5768 7.87566 10.4411 7.72234 10.2706C7.56902 10.1038 7.45299 9.91001 7.38255 9.70066C7.30381 9.48356 7.26652 9.25483 7.26652 9.0261C7.25823 8.75085 7.30796 8.47172 7.40326 8.21198C7.482 7.99875 7.61046 7.80491 7.77621 7.63821C7.92953 7.4909 8.11601 7.37459 8.3232 7.30093C8.53454 7.22727 8.7583 7.19238 8.98207 7.19238C9.53735 7.19238 9.96002 7.35133 10.2418 7.6731C10.5236 7.991 10.6603 8.45621 10.652 9.06875H7.80522C7.82179 9.47193 7.94611 9.78983 8.17816 10.0263C8.41022 10.2628 8.7293 10.383 9.12711 10.383C9.3343 10.3869 9.54149 10.352 9.73625 10.2783C9.92687 10.2046 10.0926 10.0922 10.2294 9.94878L10.5443 10.2667ZM10.1175 8.65393C10.1175 8.51437 10.0926 8.3748 10.047 8.24299C10.0015 8.12281 9.93516 8.01038 9.84399 7.91734C9.74868 7.82042 9.62851 7.74676 9.50005 7.70024C9.18098 7.59169 8.82875 7.59169 8.50967 7.70024C8.38536 7.74676 8.26933 7.81655 8.17816 7.90959C8.087 8.00651 8.01241 8.11506 7.9544 8.23136C7.88395 8.36317 7.84251 8.50661 7.82179 8.65393H10.1175Z" fill="#2A1E1E"/>
<path d="M14.1255 8.07243C14.0095 7.92899 13.8644 7.81269 13.6945 7.7274C13.5247 7.64986 13.334 7.61109 13.1476 7.61885C12.8782 7.61885 12.6876 7.66537 12.5799 7.75453C12.4721 7.83982 12.4141 7.96388 12.4182 8.09569C12.4141 8.18098 12.4431 8.26627 12.4928 8.33605C12.5467 8.40583 12.613 8.46399 12.6917 8.50663C12.7829 8.55703 12.8782 8.59967 12.9777 8.63069C13.0854 8.66558 13.1973 8.70047 13.3175 8.73536C13.4625 8.77801 13.6034 8.82453 13.7484 8.87493C13.8893 8.92145 14.0219 8.98735 14.1421 9.06876C14.2581 9.1463 14.3576 9.2471 14.4322 9.3634C14.5109 9.49521 14.5482 9.64641 14.544 9.80148C14.5482 9.95267 14.5067 10.1 14.4322 10.2357C14.3576 10.3636 14.254 10.4722 14.1297 10.5574C13.9929 10.6505 13.8396 10.7164 13.678 10.7552C13.2304 10.8637 12.7539 10.8405 12.3229 10.6854C12.0702 10.5807 11.8422 10.4218 11.6641 10.2279L12.0784 9.88677C12.3561 10.2202 12.7125 10.383 13.1517 10.383C13.4376 10.383 13.649 10.3326 13.7899 10.2318C13.9266 10.131 13.9971 10.0108 13.9971 9.87126C14.0012 9.77434 13.9763 9.6813 13.9225 9.59601C13.8686 9.51847 13.7981 9.45644 13.7153 9.40604C13.62 9.35177 13.5205 9.30525 13.4128 9.27423C13.2967 9.23934 13.1766 9.20445 13.0523 9.16956C12.9072 9.13079 12.7663 9.08815 12.6254 9.04163C12.4928 8.99898 12.3644 8.93695 12.2483 8.85942C12.1365 8.78576 12.0412 8.68884 11.9749 8.58029C11.9003 8.44848 11.863 8.29728 11.8671 8.14609C11.8671 7.83207 11.9873 7.59171 12.2318 7.42113C12.4763 7.25055 12.7912 7.16526 13.1807 7.16526C13.4335 7.16139 13.6821 7.20791 13.9142 7.29707C14.1297 7.38236 14.3327 7.53356 14.5316 7.74678L14.1421 8.08018L14.1255 8.07243Z" fill="#2A1E1E"/>
<path d="M15.5391 10.7864V5.82025H16.0695V10.7864H15.5391ZM16.0736 8.95269L17.8969 7.2314H18.6097L16.7408 8.93719L18.6014 10.7825H17.8638L16.0736 8.95269Z" fill="#2A1E1E"/>
<path d="M7.51937 12.5501H4.32031V12.0811H7.51937V12.5501Z" fill="#2A1E1E"/>
<path d="M18.0349 15.1494H1.96511C1.43297 15.1494 1 15.5259 1 15.9885V18.1606C1 18.6232 1.43297 18.9997 1.96511 18.9997H18.0349C18.567 18.9997 19 18.6232 19 18.1606V15.9885C19 15.5259 18.567 15.1494 18.0349 15.1494ZM3.9654 17.6249C3.61581 17.6249 3.3324 17.3785 3.3324 17.0745C3.3324 16.7706 3.61581 16.5242 3.9654 16.5242C4.31498 16.5242 4.5984 16.7706 4.5984 17.0745C4.5984 17.3785 4.31498 17.6249 3.9654 17.6249ZM16.0346 17.6249H6.4974C6.14781 17.6249 5.8644 17.3785 5.8644 17.0745C5.8644 16.7706 6.14781 16.5242 6.4974 16.5242H16.0346C16.3842 16.5242 16.6676 16.7706 16.6676 17.0745C16.6676 17.3785 16.3842 17.6249 16.0346 17.6249Z" fill="#2A1E1E"/>
</svg>
