<svg width="24" height="24" viewBox="0 0 24 24" fill="none" xmlns="http://www.w3.org/2000/svg">
<path d="M12 19.6667L4.33333 19.6667C2.49238 19.6667 1 18.1743 1 16.3333V4.33333C1 2.49238 2.49239 1 4.33333 1H19.6667C21.5076 1 23 2.49239 23 4.33334L23 13M10.3333 4.33333H19.6667M4.33333 8.66667H19.6667M4.33333 13H10.3333M4.33333 4.33333H7" stroke="#2D3250" stroke-width="1.66667" stroke-linecap="round"/>
<path d="M21.338 17.4749C22.2206 18.3576 22.2206 19.7887 21.338 20.6713C20.4553 21.554 19.0242 21.554 18.1416 20.6713L14.9515 17.4812C14.3669 16.8967 14.0003 16.1296 13.9127 15.3076L13.6666 13L15.9742 13.2461C16.7962 13.3337 17.5633 13.7003 18.1479 14.2849L21.338 17.4749Z" stroke="#2D3250" stroke-width="1.66667" stroke-linecap="round" stroke-linejoin="round"/>
</svg>
