<svg width="20" height="20" viewBox="0 0 20 20" fill="none" xmlns="http://www.w3.org/2000/svg">
<g clip-path="url(#clip0_1367_2622)">
<path d="M10.9438 16.0187C10.9438 14.6633 11.4715 13.3887 12.4301 12.4301C13.3887 11.4715 14.6629 10.9438 16.0187 10.9438C17.1316 10.9438 18.1898 11.3 19.0637 11.9578C19.1121 11.25 19.1422 10.4582 19.1434 9.57187C19.141 7.34258 18.9539 5.71016 18.7543 4.51055C18.4051 2.53398 16.6098 0.738672 14.6332 0.389453C13.4336 0.189453 11.8012 0.00234375 9.57148 0C7.34219 0.00234375 5.70937 0.189453 4.50977 0.389063C2.53359 0.738281 0.738281 2.53359 0.389063 4.51016C0.189453 5.70977 0.00273438 7.34219 0 9.57148C0.00273438 11.8008 0.189453 13.4336 0.389063 14.6332C0.738281 16.6098 2.53359 18.4051 4.51016 18.7543C5.70977 18.9539 7.34219 19.1406 9.57187 19.1434C10.4582 19.1422 11.25 19.1121 11.9578 19.0637C11.3 18.1898 10.9438 17.132 10.9438 16.0187ZM4.84219 4.62578H14.3012C14.9129 4.62578 15.409 5.12187 15.409 5.73359C15.409 6.34531 14.9129 6.84141 14.3012 6.84141H4.84219C4.23047 6.84141 3.73437 6.34531 3.73437 5.73359C3.73437 5.12187 4.23047 4.62578 4.84219 4.62578ZM4.84219 11.4676C4.23047 11.4676 3.73437 10.9715 3.73437 10.3598C3.73437 9.74805 4.23047 9.25195 4.84219 9.25195H10.3949C11.0066 9.25195 11.5027 9.74805 11.5027 10.3598C11.5027 10.9715 11.0066 11.4676 10.3949 11.4676H4.84219Z" fill="#B0B0B4"/>
<path d="M16.0203 12.0375C13.8215 12.0375 12.0391 13.8199 12.0391 16.0187C12.0391 18.2176 13.8215 20 16.0203 20C18.2191 20 20.0016 18.2176 20.0016 16.0187C20.0016 13.8199 18.2191 12.0375 16.0203 12.0375ZM16.7625 17.9941C16.7625 18.4039 16.4301 18.7363 16.0203 18.7363C15.6105 18.7363 15.2781 18.4039 15.2781 17.9941V16.0359C15.2781 15.6261 15.6105 15.2937 16.0203 15.2937C16.4301 15.2937 16.7625 15.6261 16.7625 16.0359V17.9941ZM16.732 14.4472C16.7047 14.6019 16.5641 14.7426 16.4094 14.7699C16.3156 14.7855 16.1875 14.8 16.0129 14.8004C15.8383 14.8004 15.7105 14.7855 15.6164 14.7699C15.4617 14.7426 15.3211 14.6019 15.2938 14.4472C15.2781 14.3535 15.2637 14.2254 15.2633 14.0508C15.2633 13.8761 15.2781 13.7484 15.2938 13.6543C15.3211 13.4996 15.4617 13.359 15.6164 13.3316C15.7102 13.316 15.8383 13.3015 16.0129 13.3011C16.1875 13.3011 16.3152 13.316 16.4094 13.3316C16.5641 13.359 16.7047 13.4996 16.732 13.6543C16.7477 13.748 16.7621 13.8761 16.7625 14.0508C16.7625 14.2254 16.7477 14.3531 16.732 14.4472Z" fill="#2A1E1E"/>
</g>
<defs>
<clipPath id="clip0_1367_2622">
<rect width="20" height="20" fill="white"/>
</clipPath>
</defs>
</svg>
