<svg width="24" height="24" viewBox="0 0 24 24" fill="none" xmlns="http://www.w3.org/2000/svg">
<g clip-path="url(#clip0_534_775)">
<path d="M19.9304 13.9826C18.8348 13.9826 17.9478 13.0957 17.9478 12C17.9478 8.76522 15.287 6.10435 12.0522 6.10435C8.81739 6.10435 6.10435 8.76522 6.10435 12C6.10435 15.2348 8.76522 17.8957 12 17.8957C14.1913 17.8957 16.0696 16.6957 17.113 14.9217C17.8435 15.6 18.8348 16.0696 19.9304 16.0696C22.1739 16.0696 24 14.2435 24 12C24 5.37391 18.6261 0 12 0C5.37391 0 0 5.37391 0 12C0 18.6261 5.37391 24 12 24C14.9739 24 17.7913 22.9043 19.9826 20.9217C20.4 20.5565 20.4522 19.8783 20.087 19.4609C19.7217 19.0435 19.0435 18.9913 18.6261 19.3565C16.8 20.9739 14.4522 21.8609 12 21.8609C6.52174 21.8609 2.08696 17.4261 2.08696 11.9478C2.08696 6.46956 6.52174 2.03478 12 2.03478C17.4783 2.03478 21.913 6.46956 21.913 11.9478C21.913 13.0957 21.0261 13.9826 19.9304 13.9826ZM12 15.8087C9.91304 15.8087 8.1913 14.087 8.1913 12C8.1913 9.91304 9.91304 8.1913 12 8.1913C14.087 8.1913 15.8087 9.91304 15.8087 12C15.8087 14.087 14.087 15.8087 12 15.8087Z" fill="#2D3250"/>
</g>
<defs>
<clipPath id="clip0_534_775">
<rect width="24" height="24" fill="white"/>
</clipPath>
</defs>
</svg>
