<svg width="20" height="20" viewBox="0 0 20 20" fill="none" xmlns="http://www.w3.org/2000/svg">
<g clip-path="url(#clip0_1353_1987)">
<path d="M14.2401 3.16106L10.497 1L6.75391 3.16106L10.497 5.32213L14.2401 3.16106Z" fill="#2A1E1E"/>
<path d="M11.0547 10.3466L14.6844 8.251V4.19067L11.0547 6.28631V10.3466Z" fill="#2A1E1E"/>
<path d="M6.3125 4.19067V8.251L9.94221 10.3466V6.28631L6.3125 4.19067Z" fill="#2A1E1E"/>
<path d="M3.46484 13.9503H9.94852V15.1838H11.0618V13.9503H17.5455V15.1838H18.6588V12.837H11.0604V11.4937H9.94715V12.837H2.35156V15.1838H3.46484V13.9503Z" fill="#9494A0"/>
<path d="M1 16.2862H4.80059V20H1V16.2862Z" fill="#9494A0"/>
<path d="M16.1992 16.2862H19.9998V20H16.1992V16.2862Z" fill="#9494A0"/>
<path d="M8.60156 16.2862H12.4022V20H8.60156V16.2862Z" fill="#9494A0"/>
</g>
<defs>
<clipPath id="clip0_1353_1987">
<rect width="20" height="20" fill="white"/>
</clipPath>
</defs>
</svg>
