<svg width="25" height="24" viewBox="0 0 25 24" fill="none" xmlns="http://www.w3.org/2000/svg">
<mask id="mask0_505_36" style="mask-type:luminance" maskUnits="userSpaceOnUse" x="0" y="0" width="25" height="24">
<path d="M0.0148926 0H24.0149V24H0.0148926V0Z" fill="white"/>
</mask>
<g mask="url(#mask0_505_36)">
<path fill-rule="evenodd" clip-rule="evenodd" d="M0.0148926 5C0.0148926 2.24772 2.26261 0 5.01489 0H19.0149C21.7672 0 24.0149 2.24772 24.0149 5V19C24.0149 21.7523 21.7672 24 19.0149 24H5.01489C2.26261 24 0.0148926 21.7523 0.0148926 19V5ZM5.01489 2C3.36717 2 2.01489 3.35228 2.01489 5V19C2.01489 20.6477 3.36717 22 5.01489 22H19.0149C20.6626 22 22.0149 20.6477 22.0149 19V5C22.0149 3.35228 20.6626 2 19.0149 2H5.01489Z" fill="#2D3250"/>
<path fill-rule="evenodd" clip-rule="evenodd" d="M8.01489 0C8.56717 0 9.01489 0.447715 9.01489 1V10.9977C9.01727 10.9966 9.02038 10.9949 9.02419 10.9926L10.801 9.61065L10.8149 9.6C11.1441 9.35312 11.5494 9.175 12.0149 9.175C12.4804 9.175 12.8857 9.35312 13.2149 9.6L13.2288 9.61065L15.0056 10.9926C15.0094 10.9949 15.0125 10.9966 15.0149 10.9977V1C15.0149 0.447715 15.4626 0 16.0149 0C16.5672 0 17.0149 0.447715 17.0149 1V11C17.0149 12.601 15.2056 13.5937 13.8337 12.6137C13.8226 12.6058 13.8117 12.5977 13.801 12.5894L12.0149 11.2002L10.2288 12.5894C10.2181 12.5977 10.2072 12.6058 10.1961 12.6137C8.8242 13.5937 7.01489 12.601 7.01489 11V1C7.01489 0.447715 7.46261 0 8.01489 0Z" fill="#2D3250"/>
</g>
</svg>
