<svg width="20" height="20" viewBox="0 0 20 20" fill="none" xmlns="http://www.w3.org/2000/svg">
<path d="M18.5781 5.46282C18.3614 5.3478 18.1684 5.24468 17.9755 5.14354C15.3864 3.78707 12.7966 2.43127 10.2088 1.07282C10.0835 1.00672 9.98012 0.964413 9.83353 1.04109C7.06964 2.49473 4.30261 3.94242 1.53684 5.39143C1.50991 5.40597 1.48673 5.42977 1.45729 5.45291C1.5074 5.56925 1.62204 5.5719 1.70786 5.6109C4.39408 6.82127 7.08217 8.02768 9.769 9.23739C9.90745 9.29953 10.0271 9.32927 10.1812 9.2592C12.9138 8.02437 15.6501 6.79615 18.3846 5.56661C18.4409 5.54083 18.4948 5.50777 18.5781 5.46282Z" fill="#2A1E1E"/>
<path d="M1.00502 6.6933C1.00502 7.79394 1.00878 8.86814 1.00189 9.94233C1.00064 10.144 1.14472 10.1651 1.25748 10.222C3.23706 11.2195 5.21851 12.2137 7.19934 13.2086C7.80951 13.5153 8.42217 13.8167 9.0292 14.1287C9.21463 14.2239 9.27978 14.2048 9.27727 13.9668C9.2685 12.9448 9.27101 11.9228 9.27665 10.9008C9.27727 10.7376 9.23342 10.6444 9.08558 10.5736C6.44698 9.3031 3.81088 8.02597 1.17353 6.75147C1.12843 6.72966 1.07957 6.71842 1.00502 6.6933Z" fill="#2A1E1E"/>
<path d="M9.27584 18.9697C9.27584 18.1943 9.22259 17.3892 9.2915 16.5959C9.35352 15.882 9.1067 15.5614 8.4884 15.2758C6.06968 14.1587 3.68165 12.9655 1.28236 11.8014C1.20844 11.7657 1.13326 11.7333 1.06373 11.7022C0.975397 11.769 1.0086 11.8529 1.0086 11.9223C1.00609 12.8128 1.0086 13.7025 1.00484 14.593C1.00421 14.7457 1.02113 14.8527 1.17649 14.9314C3.80945 16.268 6.43991 17.6119 9.07099 18.9532C9.12424 18.9803 9.17624 19.0339 9.27584 18.9697Z" fill="#2A1E1E"/>
<path d="M18.9962 6.66687C17.945 7.17455 16.9446 7.65645 15.9454 8.141C14.2935 8.94219 12.644 9.74866 10.989 10.5426C10.7991 10.6338 10.734 10.7389 10.7359 10.959C10.744 11.9361 10.7378 12.9137 10.7258 13.8908C10.7227 14.1314 10.7766 14.1763 10.9883 14.0712C13.5925 12.7782 16.1991 11.4905 18.8064 10.2048C18.9323 10.1426 19.0012 10.0779 19 9.91524C18.9931 8.8503 18.9962 7.78536 18.9962 6.66687ZM13.2799 10.4428C13.6589 10.4487 13.9477 10.7858 13.9351 11.2076C13.9189 11.7655 13.4233 12.2474 12.8714 12.2415C12.4962 12.2375 12.2087 11.9268 12.2049 11.5222C12.2005 10.9927 12.7562 10.4348 13.2799 10.4428Z" fill="#9494A0"/>
<path d="M18.9949 11.6671C18.282 12.0108 17.6218 12.3268 16.9634 12.6467C14.9807 13.6099 13.0005 14.5796 11.0134 15.5335C10.7778 15.6465 10.702 15.786 10.7064 16.0531C10.7221 16.9429 10.7183 17.8333 10.7089 18.723C10.7064 18.9696 10.7239 19.0655 10.9889 18.9293C13.5774 17.5979 16.1703 16.2752 18.7657 14.9591C18.9442 14.8685 19.0018 14.7667 19 14.5631C18.9899 13.6191 18.9956 12.6745 18.9956 11.6671H18.9949ZM13.9345 16.0789C13.9439 16.6857 13.3318 17.2555 12.7618 17.165C12.5006 17.1233 12.3339 16.9541 12.2519 16.6943C12.0846 16.1655 12.4573 15.5652 13.06 15.3881C13.5154 15.2539 13.927 15.5791 13.9351 16.0795L13.9345 16.0789Z" fill="#9494A0"/>
</svg>
