<svg width="20" height="20" viewBox="0 0 20 20" fill="none" xmlns="http://www.w3.org/2000/svg">
<g clip-path="url(#clip0_1353_2152)">
<path d="M1 8.94519V18.3422L7.04091 13.6437L1 8.94519Z" fill="#2A1E1E"/>
<path d="M16.7617 6.50049V9.38964L18.5458 8.00205L16.7617 6.50049Z" fill="#2A1E1E"/>
<path d="M10.3741 1.12476C10.1764 0.958412 9.88764 0.958412 9.68995 1.12476L8.28125 2.31041H11.7828L10.3741 1.12476Z" fill="#2A1E1E"/>
<path d="M3.30357 6.50049L1.51953 8.00205L3.30357 9.38964V6.50049Z" fill="#2A1E1E"/>
<path d="M8.08594 14.175L1.71094 19.1334H18.3464L11.9714 14.175H8.08594Z" fill="#2A1E1E"/>
<path d="M13.0195 13.6437L19.0605 18.3423V8.94519L13.0195 13.6437Z" fill="#2A1E1E"/>
<path d="M9.90007 7.35242C9.46916 7.35242 9.02344 7.7714 9.02344 8.4725C9.02344 9.1853 9.45821 9.66413 9.8643 9.66413C10.2919 9.66413 10.6426 9.1638 10.6678 8.53473L10.6685 8.40118C10.6494 7.78053 10.3388 7.35242 9.90007 7.35242Z" fill="#9494A0"/>
<path d="M11.9727 13.1125L15.6966 10.2161V3.90417C15.6966 3.61078 15.4588 3.37292 15.1654 3.37292H4.89453C4.60114 3.37292 4.36328 3.61078 4.36328 3.90417V10.2161L8.0872 13.1125H11.9727ZM6.28492 9.49675C6.03123 8.53218 6.1588 7.51529 6.64419 6.63345C7.12936 5.75193 7.92 5.09984 8.87048 4.79728C9.87323 4.478 10.938 4.57206 11.8684 5.06212C12.799 5.55222 13.4788 6.37658 13.7827 7.38337C13.7843 7.38882 13.7859 7.39435 13.7873 7.39987C13.9893 8.15637 13.9295 8.87051 13.5935 9.71538C13.3663 10.2864 12.8095 10.8967 11.9278 10.8967C11.6079 10.8967 11.3012 10.7655 11.0641 10.5272C11.008 10.4708 10.9574 10.4094 10.9122 10.3444C10.6144 10.5866 10.2534 10.7267 9.8603 10.7267C9.34683 10.7267 8.8476 10.4774 8.49063 10.0428C8.14645 9.62372 7.95694 9.06608 7.95694 8.47254C7.95694 7.87633 8.1586 7.32465 8.52481 6.91916C8.88592 6.51931 9.38575 6.28995 9.89607 6.28995C10.1768 6.28995 10.4435 6.35685 10.6831 6.4829C10.7296 6.23665 10.9455 6.0506 11.2047 6.0506H11.2074C11.5008 6.05205 11.7375 6.29108 11.736 6.58447L11.7214 9.53592C11.7209 9.62655 11.7568 9.71694 11.8172 9.77771C11.8382 9.79878 11.8804 9.83409 11.9278 9.83409C12.3565 9.83409 12.545 9.47642 12.6062 9.32268C12.8543 8.69874 12.9014 8.20748 12.7629 7.68204C12.5408 6.95366 12.0475 6.35728 11.3733 6.00219C10.6967 5.64583 9.92221 5.57751 9.19277 5.80966C7.75489 6.26739 6.92897 7.7682 7.3125 9.22645C7.63096 10.4374 8.72559 11.3073 9.97441 11.3419C10.2677 11.35 10.4989 11.5943 10.4908 11.8876C10.4828 12.1759 10.2466 12.4041 9.96 12.4041C9.95501 12.4041 9.95005 12.4041 9.94502 12.4039C9.12176 12.3812 8.30909 12.0887 7.65668 11.5804C6.97887 11.0524 6.50457 10.3319 6.28492 9.49675Z" fill="#9494A0"/>
</g>
<defs>
<clipPath id="clip0_1353_2152">
<rect width="20" height="20" fill="white"/>
</clipPath>
</defs>
</svg>
