<svg width="24" height="24" viewBox="0 0 24 24" fill="none" xmlns="http://www.w3.org/2000/svg">
<path fill-rule="evenodd" clip-rule="evenodd" d="M4.61538 0C2.07732 0 0 1.84858 0 4.10716V22.1787C7.31213e-05 22.3549 0.0638534 22.5265 0.181919 22.668C0.299984 22.8096 0.466073 22.9136 0.655651 22.9646C0.845229 23.0157 1.04824 23.0112 1.2347 22.9517C1.42116 22.8922 1.58117 22.7809 1.69111 22.6343L2.76923 21.1952L3.84736 22.6343C3.93167 22.7468 4.04588 22.839 4.17986 22.9028C4.31383 22.9666 4.46343 23 4.61538 23C4.76733 23 4.91694 22.9666 5.05091 22.9028C5.18489 22.839 5.2991 22.7468 5.38341 22.6343L6.46154 21.1952L7.53966 22.6343C7.62397 22.7468 7.73819 22.839 7.87216 22.9028C8.00614 22.9666 8.15574 23 8.30769 23C8.45964 23 8.60924 22.9666 8.74322 22.9028C8.8772 22.839 8.99141 22.7468 9.07572 22.6343L10.1538 21.1952L11.232 22.6343C11.3163 22.7468 11.4305 22.839 11.5645 22.9028C11.6984 22.9666 11.848 23 12 23C12.152 23 12.3016 22.9666 12.4355 22.9028C12.5695 22.839 12.6837 22.7468 12.768 22.6343L13.8462 21.1952L14.9243 22.6343C15.0342 22.7809 15.1942 22.8922 15.3807 22.9517C15.5671 23.0112 15.7702 23.0157 15.9597 22.9646C16.1493 22.9136 16.3154 22.8096 16.4335 22.668C16.5515 22.5265 16.6153 22.3549 16.6154 22.1787V12.3215H23.0769C23.3217 12.3215 23.5565 12.2349 23.7296 12.0809C23.9027 11.9268 24 11.7179 24 11.5001V4.10716C24 1.84858 21.9227 0 19.3846 0H4.61538ZM4.61538 1.64286H15.6995C15.1162 2.33066 14.7692 3.18436 14.7692 4.10716V4.92859V11.5001V19.4657L14.6142 19.2587C14.5299 19.1462 14.4157 19.054 14.2817 18.9902C14.1477 18.9264 13.9981 18.893 13.8462 18.893C13.6942 18.893 13.5446 18.9264 13.4106 18.9902C13.2766 19.054 13.1624 19.1462 13.0781 19.2587L12 20.6978L10.9219 19.2587C10.8376 19.1462 10.7234 19.054 10.5894 18.9902C10.4554 18.9264 10.3058 18.893 10.1538 18.893C10.0019 18.893 9.85229 18.9264 9.71832 18.9902C9.58434 19.054 9.47013 19.1462 9.38582 19.2587L8.30769 20.6978L7.22957 19.2587C7.14526 19.1462 7.03104 19.054 6.89707 18.9902C6.76309 18.9264 6.61349 18.893 6.46154 18.893C6.30959 18.893 6.15999 18.9264 6.02601 18.9902C5.89203 19.054 5.77782 19.1462 5.69351 19.2587L4.61538 20.6978L3.53726 19.2587C3.45295 19.1462 3.33874 19.054 3.20476 18.9902C3.07078 18.9264 2.92118 18.893 2.76923 18.893C2.61728 18.893 2.46768 18.9264 2.3337 18.9902C2.19972 19.054 2.08551 19.1462 2.0012 19.2587L1.84615 19.4657V4.10716C1.84615 2.73644 3.07505 1.64286 4.61538 1.64286ZM19.3846 1.64286C20.925 1.64286 22.1538 2.73644 22.1538 4.10716V10.6786H16.6154V4.92859V4.10716C16.6154 2.73644 17.8443 1.64286 19.3846 1.64286Z" fill="#2D3250"/>
<path fill-rule="evenodd" clip-rule="evenodd" d="M4.61528 9.85742C4.37046 9.85742 4.13567 9.94396 3.96256 10.098C3.78945 10.2521 3.6922 10.461 3.6922 10.6789C3.6922 10.8967 3.78945 11.1056 3.96256 11.2597C4.13567 11.4137 4.37046 11.5003 4.61528 11.5003H8.30758C8.5524 11.5003 8.78719 11.4137 8.9603 11.2597C9.13341 11.1056 9.23066 10.8967 9.23066 10.6789C9.23066 10.461 9.13341 10.2521 8.9603 10.098C8.78719 9.94396 8.5524 9.85742 8.30758 9.85742H4.61528Z" fill="#2D3250"/>
<path fill-rule="evenodd" clip-rule="evenodd" d="M4.61528 12.3213C4.37046 12.3213 4.13567 12.4078 3.96256 12.5619C3.78945 12.7159 3.6922 12.9249 3.6922 13.1427C3.6922 13.3606 3.78945 13.5695 3.96256 13.7236C4.13567 13.8776 4.37046 13.9642 4.61528 13.9642H11.9999C12.2447 13.9642 12.4795 13.8776 12.6526 13.7236C12.8257 13.5695 12.923 13.3606 12.923 13.1427C12.923 12.9249 12.8257 12.7159 12.6526 12.5619C12.4795 12.4078 12.2447 12.3213 11.9999 12.3213H4.61528Z" fill="#2D3250"/>
<path fill-rule="evenodd" clip-rule="evenodd" d="M4.61528 14.7861C4.37046 14.7861 4.13567 14.8727 3.96256 15.0267C3.78945 15.1808 3.6922 15.3897 3.6922 15.6076C3.6922 15.8254 3.78945 16.0344 3.96256 16.1884C4.13567 16.3425 4.37046 16.429 4.61528 16.429H11.9999C12.2447 16.429 12.4795 16.3425 12.6526 16.1884C12.8257 16.0344 12.923 15.8254 12.923 15.6076C12.923 15.3897 12.8257 15.1808 12.6526 15.0267C12.4795 14.8727 12.2447 14.7861 11.9999 14.7861H4.61528Z" fill="#2D3250"/>
<path fill-rule="evenodd" clip-rule="evenodd" d="M4.61528 4.10742C4.37047 4.10744 4.1357 4.19399 3.96259 4.34804C3.78948 4.50208 3.69222 4.711 3.6922 4.92885V8.21458C3.69222 8.43243 3.78948 8.64135 3.96259 8.7954C4.1357 8.94944 4.37047 9.03599 4.61528 9.03601H8.30758C8.55239 9.03599 8.78717 8.94944 8.96027 8.7954C9.13338 8.64135 9.23064 8.43243 9.23066 8.21458V4.92885C9.23064 4.711 9.13338 4.50208 8.96027 4.34804C8.78717 4.19399 8.55239 4.10744 8.30758 4.10742H4.61528ZM5.53835 5.75029H7.38451V7.39315H5.53835V5.75029Z" fill="#2D3250"/>
</svg>
