<svg width="25" height="24" viewBox="0 0 25 24" fill="none" xmlns="http://www.w3.org/2000/svg">
<mask id="mask0_1492_434" style="mask-type:luminance" maskUnits="userSpaceOnUse" x="0" y="0" width="25" height="24">
<path d="M24.8118 0H0.811768V24H24.8118V0Z" fill="white"/>
</mask>
<g mask="url(#mask0_1492_434)">
<path d="M13.5618 10.875V11.625C13.5618 12.6592 12.7206 13.5 11.6868 13.5H11.3118C11.3118 13.9146 10.976 14.25 10.5618 14.25C10.1476 14.25 9.81177 13.9146 9.81177 13.5H9.43677C8.40295 13.5 7.56177 12.6592 7.56177 11.625C7.56177 11.2104 7.89758 10.875 8.31177 10.875C8.72595 10.875 9.06177 11.2104 9.06177 11.625C9.06177 11.8286 9.23352 12 9.43677 12H11.6868C11.89 12 12.0618 11.8286 12.0618 11.625V10.875C12.0618 10.6714 11.89 10.5 11.6868 10.5H9.43677H9.43567C8.40222 10.4993 7.56177 9.65845 7.56177 8.625V7.875C7.56177 6.84082 8.40295 6 9.43677 6H9.81177C9.81177 5.58545 10.1476 5.25 10.5618 5.25C10.976 5.25 11.3118 5.58545 11.3118 6H11.6868C12.7206 6 13.5618 6.84082 13.5618 7.875C13.5618 8.28955 13.226 8.625 12.8118 8.625C12.3976 8.625 12.0618 8.28955 12.0618 7.875C12.0618 7.67139 11.89 7.5 11.6868 7.5H9.43677C9.23352 7.5 9.06177 7.67139 9.06177 7.875V8.625C9.06177 8.82861 9.23352 9 9.43677 9H11.6868H11.6879C12.7213 9.00073 13.5618 9.84155 13.5618 10.875ZM24.0618 18C24.0618 20.8945 21.7067 23.25 18.8118 23.25C15.9927 23.25 13.6918 21.0146 13.5731 18.2241C12.6096 18.5669 11.6029 18.75 10.5618 18.75C5.59924 18.75 1.56177 14.7129 1.56177 9.75C1.56177 4.78711 5.59924 0.75 10.5618 0.75C15.5243 0.75 19.5618 4.78711 19.5618 9.75C19.5618 10.7908 19.379 11.7979 19.0359 12.7617C21.8264 12.8804 24.0618 15.1809 24.0618 18ZM10.5618 17.25C11.6886 17.25 12.7671 16.9944 13.7793 16.5146C14.2821 14.8132 15.6243 13.4707 17.3257 12.9675C17.8062 11.9553 18.0618 10.8772 18.0618 9.75C18.0618 5.61475 14.6974 2.25 10.5618 2.25C6.42615 2.25 3.06177 5.61475 3.06177 9.75C3.06177 13.8853 6.42615 17.25 10.5618 17.25ZM22.5618 18C22.5618 15.9324 20.8794 14.25 18.8118 14.25C16.7441 14.25 15.0618 15.9324 15.0618 18C15.0618 20.0676 16.7441 21.75 18.8118 21.75C20.8794 21.75 22.5618 20.0676 22.5618 18ZM19.0315 18.7178C19.178 18.8643 19.3699 18.9375 19.5618 18.9375C19.7537 18.9375 19.9456 18.8643 20.092 18.7178L21.217 17.5928C21.51 17.2998 21.51 16.8252 21.217 16.5322L20.092 15.4072C19.7991 15.1143 19.3245 15.1143 19.0315 15.4072C18.7843 15.6541 18.7587 16.0247 18.9282 16.3125H18.4368C17.196 16.3125 16.1868 17.3218 16.1868 18.5625C16.1868 19.8032 17.196 20.8125 18.4368 20.8125H20.6868C21.101 20.8125 21.4368 20.4771 21.4368 20.0625C21.4368 19.6479 21.101 19.3125 20.6868 19.3125H18.4368C18.0233 19.3125 17.6868 18.9763 17.6868 18.5625C17.6868 18.1487 18.0233 17.8125 18.4368 17.8125H18.9282C18.7587 18.1003 18.7843 18.4709 19.0315 18.7178Z" fill="#F51322"/>
</g>
</svg>
