<svg width="24" height="24" viewBox="0 0 24 24" fill="none" xmlns="http://www.w3.org/2000/svg">
<g clip-path="url(#clip0_505_155)">
<path d="M12.75 10.875V11.625C12.75 12.6592 11.9088 13.5 10.875 13.5H10.5C10.5 13.9146 10.1642 14.25 9.75 14.25C9.33582 14.25 9 13.9146 9 13.5H8.625C7.59119 13.5 6.75 12.6592 6.75 11.625C6.75 11.2104 7.08582 10.875 7.5 10.875C7.91418 10.875 8.25 11.2104 8.25 11.625C8.25 11.8286 8.42175 12 8.625 12H10.875C11.0782 12 11.25 11.8286 11.25 11.625V10.875C11.25 10.6714 11.0782 10.5 10.875 10.5H8.625H8.6239C7.59045 10.4993 6.75 9.65845 6.75 8.625V7.875C6.75 6.84082 7.59119 6 8.625 6H9C9 5.58545 9.33582 5.25 9.75 5.25C10.1642 5.25 10.5 5.58545 10.5 6H10.875C11.9088 6 12.75 6.84082 12.75 7.875C12.75 8.28955 12.4142 8.625 12 8.625C11.5858 8.625 11.25 8.28955 11.25 7.875C11.25 7.67139 11.0782 7.5 10.875 7.5H8.625C8.42175 7.5 8.25 7.67139 8.25 7.875V8.625C8.25 8.82861 8.42175 9 8.625 9H10.875H10.8761C11.9095 9.00073 12.75 9.84155 12.75 10.875ZM23.25 18C23.25 20.8945 20.8949 23.25 18 23.25C15.1809 23.25 12.88 21.0146 12.7614 18.2241C11.7979 18.5669 10.7911 18.75 9.75 18.75C4.78748 18.75 0.75 14.7129 0.75 9.75C0.75 4.78711 4.78748 0.75 9.75 0.75C14.7125 0.75 18.75 4.78711 18.75 9.75C18.75 10.7908 18.5673 11.7979 18.2241 12.7617C21.0146 12.8804 23.25 15.1809 23.25 18ZM9.75 17.25C10.8768 17.25 11.9553 16.9944 12.9675 16.5146C13.4703 14.8132 14.8125 13.4707 16.5139 12.9675C16.9944 11.9553 17.25 10.8772 17.25 9.75C17.25 5.61475 13.8856 2.25 9.75 2.25C5.61438 2.25 2.25 5.61475 2.25 9.75C2.25 13.8853 5.61438 17.25 9.75 17.25ZM21.75 18C21.75 15.9324 20.0676 14.25 18 14.25C15.9324 14.25 14.25 15.9324 14.25 18C14.25 20.0676 15.9324 21.75 18 21.75C20.0676 21.75 21.75 20.0676 21.75 18ZM18.2197 18.7178C18.3662 18.8643 18.5581 18.9375 18.75 18.9375C18.9419 18.9375 19.1338 18.8643 19.2803 18.7178L20.4053 17.5928C20.6982 17.2998 20.6982 16.8252 20.4053 16.5322L19.2803 15.4072C18.9873 15.1143 18.5127 15.1143 18.2197 15.4072C17.9725 15.6541 17.9469 16.0247 18.1165 16.3125H17.625C16.3843 16.3125 15.375 17.3218 15.375 18.5625C15.375 19.8032 16.3843 20.8125 17.625 20.8125H19.875C20.2892 20.8125 20.625 20.4771 20.625 20.0625C20.625 19.6479 20.2892 19.3125 19.875 19.3125H17.625C17.2115 19.3125 16.875 18.9763 16.875 18.5625C16.875 18.1487 17.2115 17.8125 17.625 17.8125H18.1165C17.9469 18.1003 17.9725 18.4709 18.2197 18.7178Z" fill="#2D3250"/>
</g>
<defs>
<clipPath id="clip0_505_155">
<rect width="24" height="24" fill="white"/>
</clipPath>
</defs>
</svg>
