<svg width="20" height="20" viewBox="0 0 20 20" fill="none" xmlns="http://www.w3.org/2000/svg">
<g clip-path="url(#clip0_1367_2602)">
<path d="M14.0001 8.86252C13.659 8.08569 13.0991 7.42497 12.3888 6.96105C11.6785 6.49712 10.8485 6.25005 10.0001 6.25001C9.94373 6.24898 9.88739 6.25106 9.8313 6.25627C8.7015 6.2997 7.6324 6.77892 6.84821 7.5934C6.06402 8.40789 5.62565 9.49438 5.62505 10.625C5.62259 11.1259 5.70936 11.6233 5.8813 12.0938C6.18513 12.9433 6.74377 13.6783 7.48093 14.1984C8.2181 14.7186 9.09785 14.9985 10.0001 15C10.0587 15.0023 10.1174 14.9981 10.1751 14.9875C11.3029 14.9431 12.3698 14.4643 13.1527 13.6512C13.9355 12.8381 14.3735 11.7537 14.3751 10.625C14.377 10.0175 14.2492 9.4166 14.0001 8.86252ZM9.6438 10H10.3563C10.7833 9.9987 11.1951 10.1587 11.5093 10.4479C11.8235 10.7371 12.0169 11.1342 12.0508 11.5599C12.0848 11.9856 11.9568 12.4084 11.6924 12.7438C11.4281 13.0791 11.0469 13.3024 10.6251 13.3688V13.4813C10.6251 13.647 10.5592 13.806 10.442 13.9232C10.3248 14.0404 10.1658 14.1063 10.0001 14.1063C9.83429 14.1063 9.67532 14.0404 9.55811 13.9232C9.4409 13.806 9.37505 13.647 9.37505 13.4813V13.3938H8.5688C8.40304 13.3938 8.24407 13.3279 8.12686 13.2107C8.00965 13.0935 7.9438 12.9345 7.9438 12.7688C7.9438 12.603 8.00965 12.444 8.12686 12.3268C8.24407 12.2096 8.40304 12.1438 8.5688 12.1438H10.3563C10.4748 12.1438 10.5885 12.0967 10.6723 12.0129C10.7561 11.9291 10.8032 11.8154 10.8032 11.6969C10.8032 11.5784 10.7561 11.4647 10.6723 11.3809C10.5885 11.2971 10.4748 11.25 10.3563 11.25H9.6438C9.21677 11.2513 8.80499 11.0914 8.49082 10.8022C8.17664 10.5129 7.98323 10.1158 7.94927 9.6901C7.91531 9.26443 8.04331 8.84162 8.30765 8.50625C8.572 8.17088 8.95322 7.94767 9.37505 7.88126V7.76877C9.37505 7.603 9.4409 7.44403 9.55811 7.32682C9.67532 7.20961 9.83429 7.14377 10.0001 7.14377C10.1658 7.14377 10.3248 7.20961 10.442 7.32682C10.5592 7.44403 10.6251 7.603 10.6251 7.76877V7.85626H11.4313C11.5971 7.85626 11.756 7.92211 11.8732 8.03932C11.9905 8.15653 12.0563 8.3155 12.0563 8.48126C12.0563 8.64702 11.9905 8.806 11.8732 8.92321C11.756 9.04042 11.5971 9.10626 11.4313 9.10626H9.6438C9.52528 9.10626 9.41162 9.15335 9.32781 9.23715C9.24401 9.32096 9.19693 9.43462 9.19693 9.55314C9.19693 9.67166 9.24401 9.78532 9.32781 9.86913C9.41162 9.95293 9.52528 10 9.6438 10Z" fill="#2A1E1E"/>
<path d="M19.4985 7.6L16.9106 10.725C16.8351 10.8188 16.7319 10.8863 16.6156 10.9178C16.4994 10.9492 16.3762 10.943 16.2637 10.9C16.1489 10.851 16.0512 10.769 15.9832 10.6644C15.9151 10.5598 15.8796 10.4373 15.8814 10.3125V9.375H15.1639C14.9314 8.16608 14.2924 7.07301 13.3532 6.27721C12.4139 5.48142 11.2307 5.03075 10 5H15.8812V4.0625C15.8795 3.9377 15.915 3.8152 15.983 3.71059C16.0511 3.60597 16.1488 3.52397 16.2636 3.475C16.3761 3.43222 16.4992 3.42612 16.6154 3.45755C16.7316 3.48898 16.8349 3.55634 16.9105 3.65L19.4984 6.775C19.5953 6.89061 19.6484 7.03663 19.6484 7.18748C19.6484 7.33832 19.5954 7.48436 19.4985 7.6Z" fill="#B0B0B4"/>
<path d="M9.99999 16.25H4.16624V17.1875C4.1682 17.312 4.13322 17.4342 4.06571 17.5388C3.99821 17.6434 3.90121 17.7256 3.78699 17.775C3.67534 17.818 3.55287 17.8242 3.43745 17.7928C3.32202 17.7613 3.21967 17.6938 3.1453 17.6L0.578424 14.475C0.482295 14.3591 0.429687 14.2132 0.429688 14.0625C0.429687 13.9119 0.482295 13.766 0.578424 13.65L3.1453 10.525C3.21983 10.4315 3.32219 10.3642 3.43755 10.3327C3.55292 10.3013 3.6753 10.3073 3.78699 10.35C3.90121 10.3995 3.99821 10.4817 4.06571 10.5863C4.13322 10.6908 4.1682 10.8131 4.16624 10.9375V11.875H4.87792C5.10352 13.0797 5.73478 14.1707 6.66667 14.9667C7.59857 15.7627 8.77491 16.2156 9.99999 16.25Z" fill="#B0B0B4"/>
</g>
<defs>
<clipPath id="clip0_1367_2602">
<rect width="20" height="20" fill="white"/>
</clipPath>
</defs>
</svg>
