<svg width="24" height="24" viewBox="0 0 24 24" fill="none" xmlns="http://www.w3.org/2000/svg">
<g clip-path="url(#clip0_505_219)">
<path d="M9.89059 10.3223C9.89059 10.7879 10.0423 11.2188 10.2988 11.5681C9.54783 12.1019 9.05701 12.9789 9.05701 13.9683V15.5905H14.9429V13.9683C14.9429 12.9789 14.452 12.1019 13.7011 11.5681C13.9576 11.2188 14.1093 10.7879 14.1093 10.3223C14.1093 9.15916 13.163 8.21289 11.9999 8.21289C10.8368 8.21289 9.89059 9.15911 9.89059 10.3223ZM13.5367 14.1843H10.4633V13.9683C10.4633 13.121 11.1526 12.4317 12 12.4317C12.8474 12.4317 13.5367 13.121 13.5367 13.9683V14.1843H13.5367ZM12.7031 10.3223C12.7031 10.71 12.3877 11.0254 12 11.0254C11.6123 11.0254 11.2968 10.71 11.2968 10.3223C11.2968 9.93456 11.6123 9.61914 12 9.61914C12.3877 9.61914 12.7031 9.93452 12.7031 10.3223Z" fill="#2D3250"/>
<path d="M20.4853 3.51469C18.2188 1.24823 15.2053 0 12 0C8.79469 0 5.78123 1.24823 3.51469 3.51469C1.24823 5.78123 0 8.79469 0 12C0 15.2053 1.24823 18.2188 3.51469 20.4853C5.78123 22.7518 8.79469 24 12 24C15.2053 24 18.2188 22.7518 20.4853 20.4853C22.7518 18.2188 24 15.2053 24 12C24 8.79469 22.7518 5.78123 20.4853 3.51469ZM16.9277 3.67809C16.622 3.11138 16.2894 2.60545 15.9344 2.1637C17.1601 2.6557 18.2733 3.3705 19.2235 4.25766C18.6147 4.38422 17.997 4.49423 17.3712 4.58752C17.2328 4.27294 17.0849 3.96938 16.9277 3.67809ZM15.6901 4.34573C15.7653 4.48519 15.8382 4.62787 15.9088 4.77361C14.633 4.90866 13.3277 4.97658 12 4.97658C10.6723 4.97658 9.36698 4.90866 8.09123 4.77361C8.16178 4.62787 8.23467 4.48519 8.30991 4.34573C9.33239 2.4502 10.6429 1.40625 12 1.40625C13.3571 1.40625 14.6676 2.4502 15.6901 4.34573ZM17.3906 12C17.3906 14.1329 17.0646 16.1661 16.4567 17.901C15.0048 17.7312 13.516 17.6456 12 17.6456C10.484 17.6456 8.99517 17.7311 7.54327 17.901C6.93539 16.1661 6.60938 14.1329 6.60938 12C6.60938 9.8783 6.93202 7.85527 7.53375 6.12633C8.98866 6.29691 10.4807 6.38283 12 6.38283C13.5193 6.38283 15.0113 6.29691 16.4662 6.12633C17.068 7.85527 17.3906 9.8783 17.3906 12ZM7.07227 3.67809C6.91514 3.96938 6.76725 4.27294 6.62878 4.58752C6.003 4.49423 5.38528 4.38422 4.77647 4.25766C5.72672 3.3705 6.83991 2.6557 8.06559 2.1637C7.71052 2.60545 7.37794 3.11133 7.07227 3.67809ZM6.11644 5.93152C5.58577 7.55203 5.2755 9.38306 5.21437 11.2969H1.42931C1.57392 9.10059 2.39086 7.08497 3.67575 5.45447C4.47455 5.64159 5.28872 5.80069 6.11644 5.93152ZM5.21437 12.7031C5.27587 14.6276 5.58923 16.4684 6.1253 18.0956C5.30109 18.2256 4.4903 18.3837 3.69478 18.5696C2.39892 16.9348 1.57463 14.9102 1.42931 12.7031H5.21437ZM6.64055 19.4392C6.77559 19.7443 6.91955 20.0389 7.07222 20.3219C7.37794 20.8886 7.71052 21.3945 8.06555 21.8363C6.85059 21.3486 5.74622 20.642 4.80145 19.7656C5.406 19.6404 6.01931 19.5316 6.64055 19.4392ZM8.30991 19.6543C8.23936 19.5235 8.17087 19.3898 8.10441 19.2535C9.37598 19.1194 10.6768 19.0519 12 19.0519C13.3232 19.0519 14.624 19.1194 15.8956 19.2535C15.8291 19.3898 15.7606 19.5235 15.6901 19.6543C14.6676 21.5498 13.3571 22.5938 12 22.5938C10.6429 22.5938 9.33239 21.5498 8.30991 19.6543ZM16.9277 20.3219C17.0804 20.0389 17.2244 19.7443 17.3594 19.4392C17.9806 19.5316 18.594 19.6404 19.1985 19.7656C18.2537 20.642 17.1494 21.3486 15.9344 21.8363C16.2895 21.3945 16.6221 20.8887 16.9277 20.3219ZM17.8747 18.0956C18.4108 16.4684 18.7241 14.6276 18.7856 12.7031H22.5706C22.4253 14.9102 21.601 16.9348 20.3052 18.5695C19.5097 18.3837 18.6989 18.2256 17.8747 18.0956ZM18.7856 11.2969C18.7245 9.38306 18.4142 7.55198 17.8836 5.93152C18.7112 5.80069 19.5255 5.64159 20.3242 5.45447C21.6091 7.08497 22.426 9.10059 22.5706 11.2969H18.7856Z" fill="#2D3250"/>
</g>
<defs>
<clipPath id="clip0_505_219">
<rect width="24" height="24" fill="white"/>
</clipPath>
</defs>
</svg>
