<svg width="20" height="20" viewBox="0 0 20 20" fill="none" xmlns="http://www.w3.org/2000/svg">
<path d="M4.96872 13.2042C4.76035 13.2042 4.65625 13.3212 4.65625 13.5552V14.4856C4.65625 14.7196 4.76035 14.8367 4.96872 14.8367C5.17938 14.8367 5.2847 14.7197 5.2847 14.4856V13.5552C5.2847 13.3212 5.17934 13.2042 4.96872 13.2042Z" fill="#2A1E1E"/>
<path d="M7.31329 13.2796C7.25939 13.2293 7.181 13.2042 7.07806 13.2042H6.73047V13.8572H7.07806C7.18103 13.8572 7.25943 13.832 7.31329 13.7817C7.36708 13.7314 7.39401 13.6477 7.39401 13.5307C7.39401 13.4136 7.36704 13.33 7.31329 13.2796Z" fill="#2A1E1E"/>
<path d="M6.94138 7.58057C6.733 7.58057 6.62891 7.6976 6.62891 7.9316V8.86198C6.62891 9.09605 6.733 9.21305 6.94138 9.21305C7.152 9.21305 7.25736 9.09605 7.25736 8.86194V7.93157C7.25736 7.6976 7.15203 7.58057 6.94138 7.58057Z" fill="#2A1E1E"/>
<path d="M18.2533 2.64917H1.74668C1.33497 2.64917 1 2.98417 1 3.39589V16.6042C1 17.0159 1.33497 17.3509 1.74668 17.3509H18.2534C18.6651 17.3509 19 17.0159 19 16.6042V3.39589C19 2.98417 18.665 2.64917 18.2533 2.64917ZM4.44953 4.85853C4.45129 4.84165 4.45375 4.82439 4.45727 4.80755C4.46043 4.79068 4.465 4.7738 4.46992 4.75728C4.47484 4.74111 4.48082 4.72455 4.48711 4.70873C4.49379 4.69294 4.50118 4.67712 4.5093 4.66201C4.51735 4.64685 4.52614 4.63209 4.53566 4.61767C4.54547 4.60326 4.55567 4.58955 4.5666 4.57619C4.5775 4.56283 4.5891 4.54982 4.60137 4.53752C4.61371 4.52553 4.62637 4.51358 4.63973 4.50271C4.65309 4.49178 4.66711 4.48158 4.68153 4.47213C4.69559 4.4626 4.71071 4.45349 4.72582 4.44541C4.74098 4.43764 4.7568 4.42994 4.77258 4.42361C4.7884 4.41693 4.80457 4.41096 4.8211 4.40603C4.83766 4.40108 4.8545 4.39689 4.87105 4.39338C4.88825 4.39021 4.90516 4.3874 4.92238 4.38564C4.9568 4.38209 4.99161 4.38209 5.02602 4.38564C5.04325 4.3874 5.06048 4.39021 5.07735 4.39338C5.09391 4.39693 5.11075 4.40111 5.12731 4.40603C5.14383 4.41096 5.16 4.41693 5.17582 4.42361C5.19161 4.42994 5.20743 4.43764 5.22258 4.44541C5.2377 4.45346 5.25278 4.4626 5.26688 4.47213C5.28129 4.48162 5.29536 4.49181 5.30868 4.50271C5.32204 4.51361 5.33505 4.52553 5.34704 4.53752C5.35934 4.54982 5.37094 4.56283 5.3818 4.57619C5.39274 4.58955 5.40325 4.60326 5.41274 4.61767C5.42227 4.63209 5.43106 4.64685 5.43911 4.66201C5.4472 4.67712 5.45458 4.69294 5.46129 4.70873C5.46762 4.72455 5.4736 4.74111 5.47848 4.75728C5.48344 4.7738 5.48801 4.79064 5.49114 4.80755C5.49466 4.82439 5.49712 4.84165 5.49888 4.85853C5.50063 4.87572 5.50169 4.8933 5.50169 4.91053C5.50169 4.92775 5.50063 4.94498 5.49888 4.96221C5.49712 4.97943 5.49466 4.99666 5.49114 5.01357C5.48798 5.03041 5.48341 5.04732 5.47848 5.06349C5.47356 5.08001 5.46759 5.0965 5.46129 5.11236C5.45461 5.12818 5.44723 5.14365 5.43911 5.15876C5.43106 5.17388 5.42227 5.18896 5.41274 5.20341C5.40293 5.21747 5.39274 5.23154 5.3818 5.2449C5.37091 5.25829 5.3593 5.27126 5.34704 5.28325C5.33505 5.29556 5.32204 5.30716 5.30868 5.31802C5.29532 5.32896 5.28129 5.33947 5.26688 5.34896C5.25282 5.35849 5.2377 5.36728 5.22258 5.37533C5.20743 5.38341 5.19161 5.3908 5.17582 5.39751C5.16 5.40384 5.14383 5.40981 5.12731 5.4147C5.11075 5.41997 5.09391 5.42423 5.07735 5.42736C5.06051 5.43087 5.04325 5.43333 5.02602 5.43509C5.00883 5.43685 4.99125 5.4379 4.97434 5.4379C4.95712 5.4379 4.93954 5.43685 4.92235 5.43509C4.90512 5.43333 4.88821 5.43087 4.87102 5.42736C4.85446 5.42419 4.83762 5.41997 4.82106 5.4147C4.80454 5.40978 4.78837 5.4038 4.77255 5.39751C4.75676 5.39083 4.74094 5.38345 4.72579 5.37533C4.71067 5.36728 4.69591 5.35849 4.68149 5.34896C4.66708 5.33947 4.65302 5.32896 4.64001 5.31802C4.6263 5.30712 4.61364 5.29552 4.6013 5.28325C4.589 5.27126 4.57739 5.25829 4.56653 5.2449C4.5556 5.23154 4.5454 5.21751 4.53559 5.20341C4.52607 5.189 4.51728 5.17388 4.50923 5.15876C4.50114 5.14361 4.49376 5.12818 4.48704 5.11236C4.48071 5.09654 4.47474 5.08001 4.46985 5.06349C4.46489 5.04732 4.46032 5.03044 4.4572 5.01357C4.45368 4.99669 4.45122 4.97943 4.44946 4.96221C4.4477 4.94501 4.44665 4.92779 4.44665 4.91053C4.44668 4.89326 4.44777 4.87572 4.44953 4.85853ZM3.79439 15.2334C3.74099 15.2873 3.67764 15.3142 3.60409 15.3142C3.52826 15.3142 3.46361 15.2873 3.41024 15.2334C3.35684 15.1796 3.33026 15.1164 3.33026 15.0438C3.33026 14.9689 3.35631 14.9051 3.40848 14.8525C3.46066 14.7998 3.52587 14.7735 3.60409 14.7735C3.67761 14.7735 3.74103 14.8004 3.79439 14.8542C3.84776 14.9081 3.87441 14.9713 3.87441 15.0439C3.87441 15.1164 3.84773 15.1796 3.79439 15.2334ZM3.79439 9.60983C3.74099 9.66372 3.67764 9.69058 3.60409 9.69058C3.52826 9.69058 3.46361 9.66369 3.41024 9.60983C3.35684 9.556 3.33026 9.49283 3.33026 9.42023C3.33026 9.34535 3.35631 9.28154 3.40848 9.22887C3.46069 9.17621 3.52587 9.14991 3.60409 9.14991C3.67761 9.14991 3.74103 9.17684 3.79439 9.23063C3.84776 9.28453 3.87441 9.3477 3.87441 9.42026C3.87441 9.49283 3.84773 9.55604 3.79439 9.60983ZM4.02245 4.96221C4.0207 4.97943 4.01823 4.99666 4.01472 5.01357C4.01155 5.03041 4.00698 5.04732 4.00206 5.06349C3.99714 5.08001 3.99116 5.0965 3.98487 5.11236C3.97819 5.12818 3.97081 5.14365 3.96269 5.15876C3.95464 5.1742 3.94585 5.18896 3.93632 5.20341C3.92683 5.21747 3.91632 5.23154 3.90538 5.2449C3.89448 5.25829 3.88288 5.27126 3.87061 5.28325C3.85862 5.29556 3.84562 5.30716 3.83226 5.31841C3.8189 5.32896 3.80487 5.3395 3.79046 5.34896C3.77639 5.35849 3.76128 5.36728 3.74616 5.37533C3.73101 5.38341 3.71519 5.3908 3.6994 5.39751C3.68358 5.40415 3.66741 5.40981 3.65089 5.41509C3.63433 5.42001 3.61749 5.42423 3.60093 5.42771C3.58409 5.43087 3.56683 5.43369 3.5496 5.43509C3.53241 5.43685 3.51518 5.4379 3.49792 5.4379C3.48066 5.4379 3.46312 5.43685 3.44593 5.43509C3.42905 5.43369 3.41179 5.43087 3.39495 5.42771C3.37807 5.42419 3.3612 5.41997 3.34464 5.41509C3.32812 5.40981 3.31195 5.40415 3.29612 5.39751C3.28034 5.39083 3.26452 5.38345 3.24937 5.37533C3.23425 5.36728 3.21948 5.35849 3.20507 5.34896C3.19066 5.33947 3.17659 5.32896 3.16359 5.31841C3.14987 5.30716 3.13722 5.29556 3.12488 5.28325C3.11257 5.27126 3.10097 5.25829 3.09011 5.2449C3.07918 5.23154 3.06898 5.21751 3.05917 5.20341C3.04964 5.189 3.04086 5.17423 3.0328 5.15876C3.02472 5.14361 3.01734 5.12818 3.01062 5.11236C3.00429 5.09654 2.99832 5.08001 2.99343 5.06349C2.98847 5.04732 2.98425 5.03044 2.98077 5.01357C2.97726 4.99669 2.9748 4.97943 2.97304 4.96221C2.97128 4.94501 2.97058 4.92779 2.97058 4.91053C2.97058 4.89326 2.97132 4.87572 2.97304 4.85853C2.9748 4.84165 2.97726 4.82439 2.98077 4.80755C2.98429 4.79068 2.98851 4.7738 2.99343 4.75728C2.99835 4.74111 3.00433 4.72455 3.01062 4.70873C3.0173 4.69294 3.02468 4.67712 3.0328 4.66201C3.04086 4.64685 3.04964 4.63209 3.05917 4.61767C3.06898 4.60326 3.07918 4.58955 3.09011 4.57619C3.10101 4.56283 3.11261 4.54982 3.12488 4.53752C3.13722 4.52553 3.14988 4.51358 3.16323 4.50271C3.17659 4.49178 3.19062 4.48158 3.20504 4.47213C3.2191 4.4626 3.23421 4.45349 3.24933 4.44541C3.26448 4.43764 3.2803 4.42994 3.29609 4.42361C3.31191 4.41693 3.32808 4.41096 3.34461 4.40603C3.36116 4.40108 3.378 4.39689 3.39456 4.39338C3.41175 4.39021 3.42898 4.3874 3.44589 4.38564C3.48031 4.38209 3.51511 4.38209 3.54953 4.38564C3.56676 4.3874 3.58398 4.39021 3.60086 4.39338C3.61742 4.39693 3.63426 4.40111 3.65082 4.40603C3.66734 4.41096 3.68351 4.41693 3.69933 4.42361C3.71512 4.42994 3.73094 4.43764 3.74609 4.44541C3.76121 4.45346 3.77629 4.4626 3.79039 4.47213C3.8048 4.48162 3.81886 4.49181 3.83219 4.50271C3.84555 4.51361 3.85855 4.52553 3.87054 4.53752C3.88285 4.54982 3.89445 4.56283 3.90531 4.57619C3.91625 4.58955 3.92676 4.60326 3.93625 4.61767C3.94578 4.63209 3.95457 4.64685 3.96262 4.66201C3.9707 4.67712 3.97809 4.69294 3.9848 4.70873C3.99113 4.72455 3.99711 4.74111 4.00199 4.75728C4.00695 4.7738 4.01152 4.79064 4.01465 4.80755C4.01816 4.82439 4.02063 4.84165 4.02238 4.85853C4.02414 4.87572 4.0252 4.8933 4.0252 4.91053C4.02523 4.92775 4.02421 4.94501 4.02245 4.96221ZM4.10961 7.93168C4.10961 7.64617 4.18737 7.43668 4.34308 7.30326C4.49871 7.16984 4.70171 7.10315 4.95223 7.10315C5.20964 7.10315 5.42093 7.1652 5.58589 7.28923C5.75091 7.4133 5.83342 7.58416 5.83342 7.80181C5.83342 7.90246 5.81233 7.97095 5.77018 8.00723C5.72806 8.04354 5.65785 8.06165 5.55955 8.06165C5.38402 8.06165 5.29275 8.0067 5.28572 7.89666C5.27869 7.68601 5.17452 7.58068 4.97325 7.58068C4.7626 7.58068 4.65727 7.69771 4.65727 7.93171V8.86209C4.6573 9.09609 4.76376 9.21309 4.97677 9.21309C5.04227 9.21309 5.09669 9.20254 5.14004 9.18148C5.18331 9.16042 5.21429 9.12826 5.23306 9.08494C5.25176 9.04167 5.26407 9.00598 5.26994 8.97789C5.27574 8.94977 5.28101 8.91117 5.28572 8.86202C5.29507 8.75205 5.38518 8.69703 5.55604 8.69703C5.65662 8.69703 5.72809 8.71521 5.77018 8.75145C5.81233 8.78777 5.83342 8.85622 5.83342 8.95687C5.83342 9.18391 5.75091 9.36299 5.58589 9.49402C5.4209 9.62508 5.20964 9.69065 4.95223 9.69065C4.70174 9.69065 4.49871 9.62392 4.34308 9.49051C4.18737 9.35712 4.10961 9.14766 4.10961 8.86209V7.93168ZM5.83346 14.4856C5.83346 14.7712 5.75502 14.9806 5.59823 15.114C5.44139 15.2474 5.23193 15.3142 4.96981 15.3142C4.71 15.3142 4.50167 15.2474 4.34487 15.114C4.18804 14.9806 4.10968 14.7712 4.10968 14.4856V13.5552C4.10968 13.2697 4.18804 13.0602 4.34487 12.9268C4.50167 12.7934 4.71 12.7267 4.96981 12.7267C5.23193 12.7267 5.44143 12.7934 5.59823 12.9268C5.75502 13.0602 5.83346 13.2698 5.83346 13.5552V14.4856ZM5.96086 4.85853C5.96262 4.84165 5.96508 4.82439 5.9686 4.80755C5.97176 4.79068 5.97633 4.7738 5.98125 4.75728C5.98618 4.74111 5.99215 4.72455 5.99845 4.70873C6.00512 4.69294 6.01251 4.67712 6.02063 4.66201C6.02868 4.64685 6.03747 4.63209 6.047 4.61767C6.0568 4.60326 6.067 4.58955 6.07793 4.57619C6.08883 4.56283 6.10043 4.54982 6.1127 4.53752C6.12469 4.52553 6.1377 4.51358 6.15106 4.50271C6.16442 4.49178 6.17845 4.48158 6.19286 4.47213C6.20692 4.4626 6.22204 4.45349 6.23716 4.44541C6.25231 4.43764 6.26813 4.42994 6.28391 4.42361C6.29973 4.41693 6.31591 4.41096 6.33243 4.40603C6.34899 4.40108 6.36583 4.39689 6.38274 4.39338C6.39958 4.39021 6.41684 4.3874 6.43372 4.38564C6.59009 4.37017 6.74826 4.42713 6.8583 4.53748C6.8706 4.54979 6.8822 4.56279 6.89307 4.57615C6.904 4.58951 6.91451 4.60322 6.924 4.61764C6.93353 4.63205 6.94232 4.64682 6.95037 4.66197C6.95846 4.67709 6.96584 4.69291 6.97255 4.70869C6.97888 4.72451 6.98486 4.74107 6.98975 4.75724C6.9947 4.77377 6.99927 4.79061 7.0024 4.80752C7.00592 4.82436 7.00838 4.84162 7.01014 4.85849C7.01189 4.87569 7.01295 4.89326 7.01295 4.91049C7.01295 5.04932 6.95635 5.18503 6.85833 5.28308C6.76028 5.38148 6.62461 5.43769 6.48575 5.43769C6.46852 5.43769 6.45094 5.43664 6.43375 5.43488C6.41687 5.43347 6.39961 5.43066 6.38277 5.42715C6.3659 5.42398 6.34902 5.41976 6.33246 5.41449C6.31594 5.40957 6.29977 5.40394 6.28395 5.3973C6.26816 5.39062 6.25234 5.38324 6.23719 5.37512C6.22207 5.36706 6.20699 5.35828 6.19289 5.34875C6.17848 5.33926 6.16442 5.32874 6.15109 5.31781C6.13773 5.30691 6.12473 5.29531 6.11274 5.28304C6.01472 5.18499 5.95812 5.04932 5.95812 4.91046C5.95802 4.8933 5.95911 4.87572 5.96086 4.85853ZM6.08268 7.93164C6.08268 7.64614 6.16104 7.43664 6.31788 7.30322C6.47467 7.16981 6.68301 7.10312 6.94281 7.10312C7.20494 7.10312 7.41443 7.16981 7.57123 7.30322C7.72803 7.43664 7.80646 7.64617 7.80646 7.93164V8.86202C7.80646 9.14763 7.72803 9.35705 7.57123 9.49044C7.4144 9.62385 7.20494 9.69058 6.94281 9.69058C6.68301 9.69058 6.47467 9.62385 6.31788 9.49044C6.16104 9.35705 6.08268 9.14759 6.08268 8.86202V7.93164ZM7.85389 15.2229C7.78013 15.2838 7.70233 15.3142 7.62041 15.3142C7.5385 15.3142 7.48 15.2803 7.44488 15.2124L6.96387 14.2785H6.73216V15.1246C6.73216 15.1785 6.70519 15.2201 6.6514 15.2493C6.59754 15.2786 6.53321 15.2932 6.45832 15.2932C6.38341 15.2932 6.31904 15.2786 6.26521 15.2493C6.21135 15.2201 6.18446 15.1785 6.18446 15.1246V12.8918C6.18446 12.8473 6.20028 12.8088 6.23188 12.7759C6.26349 12.7432 6.30385 12.7268 6.353 12.7268H7.07975C7.65554 12.7268 7.94343 12.9772 7.94343 13.4781C7.94343 13.8432 7.80179 14.0808 7.5186 14.1908L7.94695 14.9667C7.95862 14.9831 7.96449 15.0041 7.96449 15.0299C7.96445 15.0977 7.92761 15.1621 7.85389 15.2229ZM9.06688 14.8367C9.2775 14.8367 9.38287 14.7197 9.38287 14.4856V14.3663H9.17569C9.12415 14.3663 9.08383 14.3458 9.05458 14.3048C9.02529 14.2639 9.0107 14.2142 9.0107 14.1556C9.0107 14.1018 9.02589 14.0533 9.05634 14.0099C9.08675 13.9666 9.12654 13.9449 9.17569 13.9449H9.76551C9.81698 13.9449 9.85734 13.962 9.88662 13.9958C9.91587 14.0298 9.93053 14.0702 9.93053 14.117V14.4856C9.93053 14.7712 9.8521 14.9806 9.6953 15.114C9.53847 15.2474 9.32901 15.3141 9.06688 15.3141C8.80708 15.3141 8.59874 15.2474 8.44195 15.114C8.28511 14.9806 8.20675 14.7712 8.20675 14.4856V13.5552C8.20675 13.2697 8.28452 13.0602 8.44022 12.9268C8.59586 12.7934 8.79885 12.7267 9.04938 12.7267C9.30679 12.7267 9.51808 12.7887 9.68303 12.9128C9.84805 13.0368 9.93057 13.2077 9.93057 13.4253C9.93057 13.526 9.90947 13.5945 9.86732 13.6308C9.8252 13.6671 9.755 13.6852 9.6567 13.6852C9.47645 13.6852 9.38515 13.6302 9.38287 13.5202C9.38287 13.4874 9.38167 13.4599 9.37935 13.4377C9.377 13.4155 9.36993 13.388 9.35826 13.3552C9.34652 13.3224 9.33017 13.2967 9.30911 13.278C9.28802 13.2593 9.25701 13.2423 9.21609 13.2271C9.17513 13.2118 9.12658 13.2042 9.0704 13.2042C8.85974 13.2042 8.75441 13.3213 8.75441 13.5553V14.4856C8.75441 14.7197 8.85855 14.8367 9.06688 14.8367ZM9.81114 9.62565C9.75728 9.59643 9.73042 9.55491 9.73042 9.50102V8.18445L9.39334 8.76024C9.35351 8.82816 9.29269 8.86202 9.21078 8.86202C9.13118 8.86202 9.07384 8.82809 9.03872 8.76024L8.7052 8.14933V9.50098C8.7052 9.55488 8.67823 9.5964 8.62444 9.62561C8.57058 9.65493 8.50625 9.66952 8.43136 9.66952C8.35645 9.66952 8.29207 9.65493 8.23825 9.62561C8.18439 9.5964 8.1575 9.55484 8.1575 9.50098V7.37691C8.1575 7.28336 8.18386 7.21424 8.23649 7.16974C8.28916 7.1253 8.35409 7.10305 8.43136 7.10305C8.53666 7.10305 8.61681 7.11883 8.67183 7.15047C8.72682 7.18204 8.78827 7.25752 8.85616 7.37688L9.21777 8.00881L9.57936 7.37688C9.64721 7.25752 9.70866 7.18201 9.76368 7.15047C9.81866 7.11887 9.89886 7.10305 10.0042 7.10305C10.0814 7.10305 10.1464 7.12533 10.1991 7.16974C10.2517 7.21424 10.278 7.28329 10.278 7.37691V9.50098C10.278 9.55488 10.2511 9.5964 10.1973 9.62561C10.1434 9.65493 10.0791 9.66952 10.0042 9.66952C9.92934 9.66956 9.86497 9.65497 9.81114 9.62565ZM10.6592 12.504C10.6058 12.5579 10.5425 12.5847 10.4689 12.5847C10.3931 12.5847 10.3284 12.5578 10.2751 12.504C10.2217 12.4501 10.1951 12.387 10.1951 12.3144C10.1951 12.2395 10.2211 12.1757 10.2733 12.123C10.3255 12.0703 10.3907 12.044 10.4689 12.044C10.5424 12.044 10.6058 12.071 10.6592 12.1248C10.7126 12.1787 10.7392 12.2418 10.7392 12.3144C10.7393 12.3869 10.7125 12.4501 10.6592 12.504ZM12.7966 12.3951H12.7966C12.7966 12.449 12.7696 12.4905 12.7158 12.5197C12.662 12.549 12.5976 12.5636 12.5227 12.5636C12.3729 12.5636 12.2711 12.5145 12.2173 12.4162L11.5502 11.2014V12.3951C11.5502 12.449 11.5233 12.4905 11.4695 12.5197C11.4156 12.549 11.3513 12.5636 11.2764 12.5636C11.2015 12.5636 11.1371 12.549 11.0833 12.5197C11.0294 12.4905 11.0025 12.4489 11.0025 12.3951V10.1658C11.0025 10.1119 11.0294 10.0704 11.0833 10.0411C11.1371 10.0119 11.2014 9.99721 11.2764 9.99721C11.3817 9.99721 11.4595 10.0125 11.5099 10.0429C11.5602 10.0733 11.6169 10.1494 11.6802 10.271L12.2489 11.3559V10.1622C12.2489 10.1084 12.2758 10.0675 12.3297 10.0393C12.3835 10.0112 12.4478 9.99721 12.5227 9.99721C12.5976 9.99721 12.662 10.0112 12.7159 10.0393C12.7697 10.0675 12.7966 10.1084 12.7966 10.1622V12.3951ZM14.25 11.068C14.3015 11.068 14.3418 11.0891 14.3711 11.1312C14.4004 11.1734 14.415 11.2237 14.415 11.2822C14.415 11.3361 14.401 11.384 14.3729 11.4262C14.3448 11.4683 14.3038 11.4894 14.25 11.4894H13.7234V12.0862H14.6643C14.7158 12.0862 14.7561 12.1097 14.7854 12.1564C14.8146 12.2033 14.8293 12.2606 14.8293 12.3285C14.8293 12.3917 14.8153 12.4467 14.7872 12.4935C14.7591 12.5403 14.7181 12.5637 14.6643 12.5637H13.4144C13.3489 12.5637 13.2927 12.5491 13.2459 12.5198C13.199 12.4906 13.1757 12.449 13.1757 12.3952V10.1658C13.1757 10.112 13.1991 10.0704 13.2459 10.0411C13.2927 10.0119 13.3489 9.99725 13.4144 9.99725H14.6643C14.7181 9.99725 14.7591 10.0207 14.7872 10.0675C14.8153 10.1143 14.8293 10.1692 14.8293 10.2324C14.8293 10.3004 14.8146 10.3577 14.7854 10.4045C14.7561 10.4514 14.7158 10.4747 14.6643 10.4747H13.7234V11.068H14.25ZM16.7093 10.4049C16.68 10.4515 16.6396 10.4747 16.5882 10.4747H16.1037V12.394C16.1037 12.4482 16.0767 12.49 16.0229 12.5194C15.9691 12.5489 15.9047 12.5636 15.8299 12.5636C15.7549 12.5636 15.6906 12.5489 15.6367 12.5194C15.5828 12.49 15.556 12.4481 15.556 12.394V10.4747H15.0715C15.02 10.4747 14.9796 10.4514 14.9504 10.4049C14.9211 10.3582 14.9065 10.3008 14.9065 10.2326C14.9065 10.1689 14.9205 10.1138 14.9486 10.0672C14.9767 10.0206 15.0176 9.99725 15.0715 9.99725H16.5881C16.642 9.99725 16.6829 10.0206 16.711 10.0672C16.7391 10.1138 16.7532 10.169 16.7532 10.2326C16.7532 10.3008 16.7385 10.3582 16.7093 10.4049ZM16.4349 5.43769H10.2096C9.91844 5.43769 9.6824 5.20165 9.6824 4.91049C9.6824 4.61933 9.91844 4.38329 10.2096 4.38329H16.4349C16.7261 4.38329 16.9621 4.61933 16.9621 4.91049C16.9621 5.20165 16.7261 5.43769 16.4349 5.43769Z" fill="#2A1E1E"/>
<mask id="mask0_1340_1626" style="mask-type:alpha" maskUnits="userSpaceOnUse" x="1" y="2" width="18" height="16">
<path d="M18.2533 2.64917H1.74668C1.33497 2.64917 1 2.98417 1 3.39589V16.6042C1 17.0159 1.33497 17.3509 1.74668 17.3509H18.2534C18.6651 17.3509 19 17.0159 19 16.6042V3.39589C19 2.98417 18.665 2.64917 18.2533 2.64917ZM4.44953 4.85853C4.45129 4.84165 4.45375 4.82439 4.45727 4.80755C4.46043 4.79068 4.465 4.7738 4.46992 4.75728C4.47484 4.74111 4.48082 4.72455 4.48711 4.70873C4.49379 4.69294 4.50118 4.67712 4.5093 4.66201C4.51735 4.64685 4.52614 4.63209 4.53566 4.61767C4.54547 4.60326 4.55567 4.58955 4.5666 4.57619C4.5775 4.56283 4.5891 4.54982 4.60137 4.53752C4.61371 4.52553 4.62637 4.51358 4.63973 4.50271C4.65309 4.49178 4.66711 4.48158 4.68153 4.47213C4.69559 4.4626 4.71071 4.45349 4.72582 4.44541C4.74098 4.43764 4.7568 4.42994 4.77258 4.42361C4.7884 4.41693 4.80457 4.41096 4.8211 4.40603C4.83766 4.40108 4.8545 4.39689 4.87105 4.39338C4.88825 4.39021 4.90516 4.3874 4.92238 4.38564C4.9568 4.38209 4.99161 4.38209 5.02602 4.38564C5.04325 4.3874 5.06048 4.39021 5.07735 4.39338C5.09391 4.39693 5.11075 4.40111 5.12731 4.40603C5.14383 4.41096 5.16 4.41693 5.17582 4.42361C5.19161 4.42994 5.20743 4.43764 5.22258 4.44541C5.2377 4.45346 5.25278 4.4626 5.26688 4.47213C5.28129 4.48162 5.29536 4.49181 5.30868 4.50271C5.32204 4.51361 5.33505 4.52553 5.34704 4.53752C5.35934 4.54982 5.37094 4.56283 5.3818 4.57619C5.39274 4.58955 5.40325 4.60326 5.41274 4.61767C5.42227 4.63209 5.43106 4.64685 5.43911 4.66201C5.4472 4.67712 5.45458 4.69294 5.46129 4.70873C5.46762 4.72455 5.4736 4.74111 5.47848 4.75728C5.48344 4.7738 5.48801 4.79064 5.49114 4.80755C5.49466 4.82439 5.49712 4.84165 5.49888 4.85853C5.50063 4.87572 5.50169 4.8933 5.50169 4.91053C5.50169 4.92775 5.50063 4.94498 5.49888 4.9622C5.49712 4.97943 5.49466 4.99666 5.49114 5.01357C5.48798 5.03041 5.48341 5.04732 5.47848 5.06349C5.47356 5.08001 5.46759 5.0965 5.46129 5.11236C5.45461 5.12818 5.44723 5.14365 5.43911 5.15876C5.43106 5.17388 5.42227 5.18896 5.41274 5.20341C5.40293 5.21747 5.39274 5.23154 5.3818 5.2449C5.37091 5.25829 5.3593 5.27126 5.34704 5.28325C5.33505 5.29556 5.32204 5.30716 5.30868 5.31802C5.29532 5.32896 5.28129 5.33947 5.26688 5.34896C5.25282 5.35849 5.2377 5.36728 5.22258 5.37533C5.20743 5.38341 5.19161 5.39079 5.17582 5.39751C5.16 5.40384 5.14383 5.40981 5.12731 5.4147C5.11075 5.41997 5.09391 5.42423 5.07735 5.42736C5.06051 5.43087 5.04325 5.43333 5.02602 5.43509C5.00883 5.43685 4.99125 5.4379 4.97434 5.4379C4.95712 5.4379 4.93954 5.43685 4.92235 5.43509C4.90512 5.43333 4.88821 5.43087 4.87102 5.42736C4.85446 5.42419 4.83762 5.41997 4.82106 5.4147C4.80454 5.40978 4.78837 5.4038 4.77255 5.39751C4.75676 5.39083 4.74094 5.38345 4.72579 5.37533C4.71067 5.36728 4.69591 5.35849 4.68149 5.34896C4.66708 5.33947 4.65302 5.32896 4.64001 5.31802C4.6263 5.30712 4.61364 5.29552 4.6013 5.28325C4.589 5.27126 4.57739 5.25829 4.56653 5.2449C4.5556 5.23154 4.5454 5.21751 4.53559 5.20341C4.52607 5.189 4.51728 5.17388 4.50923 5.15876C4.50114 5.14361 4.49376 5.12818 4.48704 5.11236C4.48071 5.09654 4.47474 5.08001 4.46985 5.06349C4.46489 5.04732 4.46032 5.03044 4.4572 5.01357C4.45368 4.99669 4.45122 4.97943 4.44946 4.9622C4.4477 4.94501 4.44665 4.92779 4.44665 4.91053C4.44668 4.89326 4.44777 4.87572 4.44953 4.85853ZM3.79439 15.2334C3.74099 15.2873 3.67764 15.3142 3.60409 15.3142C3.52826 15.3142 3.46361 15.2873 3.41024 15.2334C3.35684 15.1796 3.33026 15.1164 3.33026 15.0438C3.33026 14.9689 3.35631 14.9051 3.40848 14.8525C3.46066 14.7998 3.52587 14.7735 3.60409 14.7735C3.67761 14.7735 3.74103 14.8004 3.79439 14.8542C3.84776 14.9081 3.87441 14.9713 3.87441 15.0439C3.87441 15.1164 3.84773 15.1796 3.79439 15.2334ZM3.79439 9.60983C3.74099 9.66372 3.67764 9.69058 3.60409 9.69058C3.52826 9.69058 3.46361 9.66369 3.41024 9.60983C3.35684 9.556 3.33026 9.49283 3.33026 9.42023C3.33026 9.34535 3.35631 9.28154 3.40848 9.22887C3.46069 9.17621 3.52587 9.14991 3.60409 9.14991C3.67761 9.14991 3.74103 9.17684 3.79439 9.23063C3.84776 9.28453 3.87441 9.3477 3.87441 9.42026C3.87441 9.49283 3.84773 9.55604 3.79439 9.60983ZM4.02245 4.9622C4.0207 4.97943 4.01823 4.99666 4.01472 5.01357C4.01155 5.03041 4.00698 5.04732 4.00206 5.06349C3.99714 5.08001 3.99116 5.0965 3.98487 5.11236C3.97819 5.12818 3.97081 5.14365 3.96269 5.15876C3.95464 5.1742 3.94585 5.18896 3.93632 5.20341C3.92683 5.21747 3.91632 5.23154 3.90538 5.2449C3.89448 5.25829 3.88288 5.27126 3.87061 5.28325C3.85863 5.29556 3.84562 5.30716 3.83226 5.31841C3.8189 5.32896 3.80487 5.3395 3.79046 5.34896C3.77639 5.35849 3.76128 5.36728 3.74616 5.37533C3.73101 5.38341 3.71519 5.39079 3.6994 5.39751C3.68358 5.40415 3.66741 5.40981 3.65089 5.41509C3.63433 5.42001 3.61749 5.42423 3.60093 5.42771C3.58409 5.43087 3.56683 5.43369 3.5496 5.43509C3.53241 5.43685 3.51518 5.4379 3.49792 5.4379C3.48066 5.4379 3.46312 5.43685 3.44593 5.43509C3.42905 5.43369 3.41179 5.43087 3.39495 5.42771C3.37807 5.42419 3.3612 5.41997 3.34464 5.41509C3.32812 5.40981 3.31195 5.40415 3.29612 5.39751C3.28034 5.39083 3.26452 5.38345 3.24937 5.37533C3.23425 5.36728 3.21948 5.35849 3.20507 5.34896C3.19066 5.33947 3.17659 5.32896 3.16359 5.31841C3.14987 5.30716 3.13722 5.29556 3.12488 5.28325C3.11257 5.27126 3.10097 5.25829 3.09011 5.2449C3.07918 5.23154 3.06898 5.21751 3.05917 5.20341C3.04964 5.189 3.04086 5.17423 3.0328 5.15876C3.02472 5.14361 3.01734 5.12818 3.01062 5.11236C3.00429 5.09654 2.99832 5.08001 2.99343 5.06349C2.98847 5.04732 2.98425 5.03044 2.98077 5.01357C2.97726 4.99669 2.9748 4.97943 2.97304 4.9622C2.97128 4.94501 2.97058 4.92779 2.97058 4.91053C2.97058 4.89326 2.97132 4.87572 2.97304 4.85853C2.9748 4.84165 2.97726 4.82439 2.98077 4.80755C2.98429 4.79068 2.98851 4.7738 2.99343 4.75728C2.99835 4.74111 3.00433 4.72455 3.01062 4.70873C3.0173 4.69294 3.02468 4.67712 3.0328 4.66201C3.04086 4.64685 3.04964 4.63209 3.05917 4.61767C3.06898 4.60326 3.07918 4.58955 3.09011 4.57619C3.10101 4.56283 3.11261 4.54982 3.12488 4.53752C3.13722 4.52553 3.14988 4.51358 3.16323 4.50271C3.17659 4.49178 3.19062 4.48158 3.20504 4.47213C3.2191 4.4626 3.23421 4.45349 3.24933 4.44541C3.26448 4.43764 3.2803 4.42994 3.29609 4.42361C3.31191 4.41693 3.32808 4.41096 3.34461 4.40603C3.36116 4.40108 3.378 4.39689 3.39456 4.39338C3.41175 4.39021 3.42898 4.3874 3.44589 4.38564C3.48031 4.38209 3.51511 4.38209 3.54953 4.38564C3.56676 4.3874 3.58398 4.39021 3.60086 4.39338C3.61742 4.39693 3.63426 4.40111 3.65082 4.40603C3.66734 4.41096 3.68351 4.41693 3.69933 4.42361C3.71512 4.42994 3.73094 4.43764 3.74609 4.44541C3.76121 4.45346 3.77629 4.4626 3.79039 4.47213C3.8048 4.48162 3.81886 4.49181 3.83219 4.50271C3.84555 4.51361 3.85855 4.52553 3.87054 4.53752C3.88285 4.54982 3.89445 4.56283 3.90531 4.57619C3.91625 4.58955 3.92676 4.60326 3.93625 4.61767C3.94578 4.63209 3.95457 4.64685 3.96262 4.66201C3.9707 4.67712 3.97809 4.69294 3.9848 4.70873C3.99113 4.72455 3.99711 4.74111 4.00199 4.75728C4.00695 4.7738 4.01152 4.79064 4.01465 4.80755C4.01816 4.82439 4.02062 4.84165 4.02238 4.85853C4.02414 4.87572 4.0252 4.8933 4.0252 4.91053C4.02523 4.92775 4.02421 4.94501 4.02245 4.9622ZM4.10961 7.93168C4.10961 7.64617 4.18737 7.43668 4.34308 7.30326C4.49871 7.16984 4.70171 7.10315 4.95223 7.10315C5.20964 7.10315 5.42093 7.1652 5.58589 7.28923C5.75091 7.4133 5.83342 7.58416 5.83342 7.80181C5.83342 7.90246 5.81233 7.97095 5.77018 8.00723C5.72806 8.04354 5.65785 8.06165 5.55955 8.06165C5.38402 8.06165 5.29275 8.0067 5.28572 7.89666C5.27869 7.68601 5.17452 7.58068 4.97325 7.58068C4.7626 7.58068 4.65727 7.69771 4.65727 7.93171V8.86209C4.6573 9.09609 4.76376 9.21309 4.97677 9.21309C5.04227 9.21309 5.09669 9.20254 5.14004 9.18148C5.18331 9.16042 5.21429 9.12826 5.23306 9.08494C5.25176 9.04167 5.26407 9.00598 5.26994 8.97789C5.27574 8.94977 5.28101 8.91117 5.28572 8.86202C5.29507 8.75205 5.38518 8.69703 5.55604 8.69703C5.65662 8.69703 5.72809 8.71521 5.77018 8.75145C5.81233 8.78777 5.83342 8.85622 5.83342 8.95687C5.83342 9.18391 5.75091 9.36299 5.58589 9.49402C5.4209 9.62508 5.20964 9.69065 4.95223 9.69065C4.70174 9.69065 4.49871 9.62392 4.34308 9.49051C4.18737 9.35712 4.10961 9.14766 4.10961 8.86209V7.93168ZM5.83346 14.4856C5.83346 14.7712 5.75502 14.9806 5.59823 15.114C5.44139 15.2474 5.23193 15.3142 4.96981 15.3142C4.71 15.3142 4.50167 15.2474 4.34487 15.114C4.18804 14.9806 4.10968 14.7712 4.10968 14.4856V13.5552C4.10968 13.2697 4.18804 13.0602 4.34487 12.9268C4.50167 12.7934 4.71 12.7267 4.96981 12.7267C5.23193 12.7267 5.44143 12.7934 5.59823 12.9268C5.75502 13.0602 5.83346 13.2698 5.83346 13.5552V14.4856ZM5.96086 4.85853C5.96262 4.84165 5.96508 4.82439 5.9686 4.80755C5.97176 4.79068 5.97633 4.7738 5.98125 4.75728C5.98618 4.74111 5.99215 4.72455 5.99845 4.70873C6.00512 4.69294 6.01251 4.67712 6.02063 4.66201C6.02868 4.64685 6.03747 4.63209 6.047 4.61767C6.0568 4.60326 6.067 4.58955 6.07793 4.57619C6.08883 4.56283 6.10043 4.54982 6.1127 4.53752C6.12469 4.52553 6.1377 4.51358 6.15106 4.50271C6.16442 4.49178 6.17845 4.48158 6.19286 4.47213C6.20692 4.4626 6.22204 4.45349 6.23716 4.44541C6.25231 4.43764 6.26813 4.42994 6.28391 4.42361C6.29973 4.41693 6.31591 4.41096 6.33243 4.40603C6.34899 4.40108 6.36583 4.39689 6.38274 4.39338C6.39958 4.39021 6.41684 4.3874 6.43371 4.38564C6.59009 4.37017 6.74826 4.42713 6.8583 4.53748C6.8706 4.54979 6.8822 4.56279 6.89307 4.57615C6.904 4.58951 6.91451 4.60322 6.924 4.61764C6.93353 4.63205 6.94232 4.64682 6.95037 4.66197C6.95846 4.67709 6.96584 4.69291 6.97255 4.70869C6.97888 4.72451 6.98486 4.74107 6.98975 4.75724C6.9947 4.77377 6.99927 4.79061 7.0024 4.80752C7.00592 4.82436 7.00838 4.84162 7.01014 4.85849C7.01189 4.87569 7.01295 4.89326 7.01295 4.91049C7.01295 5.04932 6.95635 5.18503 6.85833 5.28308C6.76028 5.38148 6.62461 5.43769 6.48575 5.43769C6.46852 5.43769 6.45094 5.43664 6.43375 5.43488C6.41688 5.43347 6.39961 5.43066 6.38277 5.42715C6.3659 5.42398 6.34902 5.41976 6.33246 5.41449C6.31594 5.40957 6.29977 5.40394 6.28395 5.3973C6.26816 5.39062 6.25234 5.38324 6.23719 5.37511C6.22207 5.36706 6.20699 5.35828 6.19289 5.34875C6.17848 5.33926 6.16442 5.32874 6.15109 5.31781C6.13773 5.30691 6.12473 5.29531 6.11274 5.28304C6.01472 5.18499 5.95812 5.04932 5.95812 4.91045C5.95802 4.8933 5.95911 4.87572 5.96086 4.85853ZM6.08268 7.93164C6.08268 7.64614 6.16104 7.43664 6.31788 7.30322C6.47467 7.16981 6.68301 7.10312 6.94281 7.10312C7.20494 7.10312 7.41443 7.16981 7.57123 7.30322C7.72803 7.43664 7.80646 7.64617 7.80646 7.93164V8.86202C7.80646 9.14763 7.72803 9.35705 7.57123 9.49044C7.4144 9.62385 7.20494 9.69058 6.94281 9.69058C6.68301 9.69058 6.47467 9.62385 6.31788 9.49044C6.16104 9.35705 6.08268 9.14759 6.08268 8.86202V7.93164ZM7.85389 15.2229C7.78013 15.2838 7.70233 15.3142 7.62041 15.3142C7.5385 15.3142 7.48 15.2803 7.44488 15.2124L6.96387 14.2785H6.73216V15.1246C6.73216 15.1785 6.70519 15.2201 6.6514 15.2493C6.59754 15.2786 6.53321 15.2932 6.45832 15.2932C6.38341 15.2932 6.31904 15.2786 6.26521 15.2493C6.21135 15.2201 6.18446 15.1785 6.18446 15.1246V12.8918C6.18446 12.8473 6.20028 12.8088 6.23188 12.7759C6.26349 12.7432 6.30385 12.7268 6.353 12.7268H7.07975C7.65554 12.7268 7.94343 12.9772 7.94343 13.4781C7.94343 13.8432 7.80179 14.0808 7.5186 14.1908L7.94695 14.9667C7.95862 14.9831 7.96449 15.0041 7.96449 15.0299C7.96445 15.0977 7.92761 15.1621 7.85389 15.2229ZM9.06688 14.8367C9.2775 14.8367 9.38287 14.7197 9.38287 14.4856V14.3663H9.17569C9.12415 14.3663 9.08383 14.3458 9.05458 14.3048C9.02529 14.2639 9.0107 14.2142 9.0107 14.1556C9.0107 14.1018 9.02589 14.0533 9.05634 14.0099C9.08675 13.9666 9.12654 13.9449 9.17569 13.9449H9.76551C9.81698 13.9449 9.85734 13.962 9.88662 13.9958C9.91587 14.0298 9.93053 14.0702 9.93053 14.117V14.4856C9.93053 14.7712 9.8521 14.9806 9.6953 15.114C9.53847 15.2474 9.32901 15.3141 9.06688 15.3141C8.80708 15.3141 8.59874 15.2474 8.44195 15.114C8.28511 14.9806 8.20675 14.7711 8.20675 14.4856V13.5552C8.20675 13.2697 8.28452 13.0602 8.44022 12.9268C8.59586 12.7934 8.79885 12.7267 9.04938 12.7267C9.30679 12.7267 9.51808 12.7887 9.68303 12.9128C9.84805 13.0368 9.93057 13.2077 9.93057 13.4253C9.93057 13.526 9.90947 13.5945 9.86732 13.6308C9.8252 13.6671 9.755 13.6852 9.6567 13.6852C9.47645 13.6852 9.38515 13.6302 9.38287 13.5202C9.38287 13.4874 9.38167 13.4599 9.37935 13.4377C9.377 13.4155 9.36993 13.388 9.35826 13.3552C9.34652 13.3224 9.33017 13.2967 9.30911 13.278C9.28802 13.2593 9.25701 13.2423 9.21609 13.2271C9.17513 13.2118 9.12658 13.2042 9.0704 13.2042C8.85974 13.2042 8.75441 13.3213 8.75441 13.5553V14.4856C8.75441 14.7197 8.85855 14.8367 9.06688 14.8367ZM9.81114 9.62565C9.75728 9.59643 9.73042 9.55491 9.73042 9.50102V8.18445L9.39334 8.76024C9.35351 8.82816 9.29269 8.86202 9.21078 8.86202C9.13118 8.86202 9.07384 8.82809 9.03872 8.76024L8.7052 8.14933V9.50098C8.7052 9.55488 8.67823 9.5964 8.62444 9.62561C8.57058 9.65493 8.50625 9.66952 8.43136 9.66952C8.35645 9.66952 8.29207 9.65493 8.23825 9.62561C8.18439 9.5964 8.1575 9.55484 8.1575 9.50098V7.37691C8.1575 7.28336 8.18386 7.21424 8.23649 7.16974C8.28916 7.1253 8.35409 7.10304 8.43136 7.10304C8.53666 7.10304 8.61681 7.11883 8.67183 7.15047C8.72682 7.18204 8.78827 7.25752 8.85616 7.37688L9.21777 8.00881L9.57936 7.37688C9.64721 7.25752 9.70866 7.18201 9.76368 7.15047C9.81866 7.11887 9.89885 7.10304 10.0042 7.10304C10.0814 7.10304 10.1464 7.12533 10.1991 7.16974C10.2517 7.21424 10.278 7.28329 10.278 7.37691V9.50098C10.278 9.55488 10.2511 9.5964 10.1973 9.62561C10.1434 9.65493 10.0791 9.66952 10.0042 9.66952C9.92934 9.66956 9.86497 9.65497 9.81114 9.62565ZM10.6592 12.504C10.6058 12.5579 10.5425 12.5847 10.4689 12.5847C10.3931 12.5847 10.3284 12.5578 10.2751 12.504C10.2217 12.4501 10.1951 12.387 10.1951 12.3144C10.1951 12.2395 10.2211 12.1757 10.2733 12.123C10.3255 12.0703 10.3907 12.044 10.4689 12.044C10.5424 12.044 10.6058 12.071 10.6592 12.1248C10.7126 12.1787 10.7392 12.2418 10.7392 12.3144C10.7393 12.3869 10.7125 12.4501 10.6592 12.504ZM12.7966 12.3951C12.7966 12.449 12.7696 12.4905 12.7158 12.5197C12.662 12.549 12.5976 12.5636 12.5227 12.5636C12.3729 12.5636 12.2711 12.5145 12.2173 12.4162L11.5502 11.2014V12.3951C11.5502 12.449 11.5233 12.4905 11.4695 12.5197C11.4156 12.549 11.3513 12.5636 11.2764 12.5636C11.2015 12.5636 11.1371 12.549 11.0833 12.5197C11.0294 12.4905 11.0025 12.4489 11.0025 12.3951V10.1658C11.0025 10.1119 11.0294 10.0704 11.0833 10.0411C11.1371 10.0119 11.2014 9.99721 11.2764 9.99721C11.3817 9.99721 11.4595 10.0125 11.5099 10.0429C11.5602 10.0733 11.6169 10.1494 11.6802 10.271L12.2489 11.3559V10.1622C12.2489 10.1084 12.2758 10.0675 12.3297 10.0393C12.3835 10.0112 12.4478 9.99721 12.5227 9.99721C12.5976 9.99721 12.662 10.0112 12.7159 10.0393C12.7697 10.0675 12.7966 10.1084 12.7966 10.1622V12.3951ZM14.25 11.068C14.3015 11.068 14.3418 11.0891 14.3711 11.1312C14.4004 11.1734 14.415 11.2237 14.415 11.2822C14.415 11.3361 14.401 11.384 14.3729 11.4262C14.3448 11.4683 14.3038 11.4894 14.25 11.4894H13.7234V12.0862H14.6643C14.7158 12.0862 14.7561 12.1097 14.7854 12.1564C14.8146 12.2033 14.8293 12.2606 14.8293 12.3285C14.8293 12.3917 14.8153 12.4467 14.7872 12.4935C14.7591 12.5403 14.7181 12.5637 14.6643 12.5637H13.4144C13.3489 12.5637 13.2927 12.5491 13.2459 12.5198C13.199 12.4906 13.1757 12.449 13.1757 12.3952V10.1658C13.1757 10.112 13.1991 10.0704 13.2459 10.0411C13.2927 10.0119 13.3489 9.99725 13.4144 9.99725H14.6643C14.7181 9.99725 14.7591 10.0207 14.7872 10.0675C14.8153 10.1143 14.8293 10.1692 14.8293 10.2324C14.8293 10.3004 14.8146 10.3577 14.7854 10.4045C14.7561 10.4514 14.7158 10.4747 14.6643 10.4747H13.7234V11.068H14.25ZM16.7093 10.4049C16.68 10.4515 16.6396 10.4747 16.5882 10.4747H16.1037V12.394C16.1037 12.4482 16.0767 12.49 16.0229 12.5194C15.9691 12.5489 15.9047 12.5636 15.8299 12.5636C15.7549 12.5636 15.6906 12.5489 15.6367 12.5194C15.5828 12.49 15.556 12.4481 15.556 12.394V10.4747H15.0715C15.02 10.4747 14.9796 10.4514 14.9504 10.4049C14.9211 10.3582 14.9065 10.3008 14.9065 10.2326C14.9065 10.1689 14.9205 10.1138 14.9486 10.0672C14.9767 10.0206 15.0176 9.99725 15.0715 9.99725H16.5881C16.642 9.99725 16.6829 10.0206 16.711 10.0672C16.7391 10.1138 16.7532 10.169 16.7532 10.2326C16.7532 10.3008 16.7385 10.3582 16.7093 10.4049ZM16.4349 5.43769H10.2096C9.91844 5.43769 9.6824 5.20165 9.6824 4.91049C9.6824 4.61933 9.91844 4.38329 10.2096 4.38329H16.4349C16.7261 4.38329 16.9621 4.61933 16.9621 4.91049C16.9621 5.20165 16.7261 5.43769 16.4349 5.43769Z" fill="#2A1E1E"/>
</mask>
<g mask="url(#mask0_1340_1626)">
<rect x="1" y="2" width="18" height="4" fill="#9494A0"/>
</g>
</svg>
