<svg width="24" height="24" viewBox="0 0 24 24" fill="none" xmlns="http://www.w3.org/2000/svg">
<g clip-path="url(#clip0_505_164)">
<g clip-path="url(#clip1_505_164)">
<path d="M0.870943 23.129C2.07004 24.364 4.19447 24.272 5.28257 22.9403L8.43133 19.2007C10.0049 20.1346 11.8057 20.6332 13.6833 20.6332C16.439 20.6332 19.0297 19.5601 20.9783 17.6116C22.9268 15.6631 23.9999 13.0723 23.9999 10.3166C23.9999 7.56095 22.9268 4.97027 20.9783 3.02168C19.0297 1.07309 16.439 0 13.6833 0C10.9277 0 8.33692 1.07314 6.38838 3.02168C4.43983 4.97022 3.3667 7.56095 3.3667 10.3166C3.3667 12.1943 3.86534 13.9951 4.7992 15.5686L1.05967 18.7174C-0.272466 19.8058 -0.363456 21.9309 0.870943 23.129ZM4.77309 10.3166C4.77309 5.40347 8.77022 1.40635 13.6833 1.40635C18.5965 1.40635 22.5936 5.40347 22.5936 10.3166C22.5936 15.2298 18.5965 19.2269 13.6833 19.2269C8.77022 19.2269 4.77309 15.2298 4.77309 10.3166ZM5.60232 16.7309C5.846 17.0367 6.10781 17.331 6.38842 17.6116C6.66904 17.8922 6.96334 18.154 7.26908 18.3977L5.46094 20.545L3.45497 18.5391L5.60232 16.7309ZM1.40095 20.9418C1.42022 20.4915 1.62071 20.0835 1.96555 19.7931L2.37522 19.4482L4.55178 21.6247L4.2068 22.0344C3.91644 22.3792 3.5085 22.5797 3.0581 22.599C2.15363 22.6594 1.34066 21.8464 1.40095 20.9418Z" fill="#2D3250"/>
<path d="M12.0249 13.2412H13.9033C14.2528 13.2412 14.5361 12.9579 14.5361 12.6083C14.5361 12.2588 14.2528 11.9755 13.9033 11.9755H12.6577V11.0122H13.7648C14.1143 11.0122 14.3976 10.7289 14.3976 10.3794C14.3976 10.0298 14.1143 9.7465 13.7648 9.7465H12.6577V8.78329H13.9033C14.2528 8.78329 14.5361 8.49996 14.5361 8.15044C14.5361 7.80091 14.2528 7.51758 13.9033 7.51758H12.0249C11.6754 7.51758 11.392 7.80091 11.392 8.15044V12.6083C11.392 12.9579 11.6754 13.2412 12.0249 13.2412Z" fill="#2D3250"/>
<path d="M10.2847 11.765C10.4017 11.1096 10.1077 10.2548 8.93181 9.82102L7.91511 9.41571C7.63942 9.29851 7.65498 8.89738 7.94127 8.8092C7.94432 8.80826 7.94736 8.80732 7.95046 8.80643C8.55294 8.62497 9.11998 9.07673 9.11998 9.07673C9.39107 9.29847 9.79291 9.28703 10.0227 9.02273C10.2615 8.74943 10.2192 8.33029 9.93444 8.10785C9.89075 8.07115 8.85052 7.21332 7.58537 7.59449C6.23795 7.97059 5.90867 9.7718 7.14607 10.4619C7.17218 10.4736 7.79384 10.7503 8.49378 11.0085C8.63469 11.0604 9.0904 11.2526 9.03864 11.5425C9.00503 11.7307 8.76051 11.9959 8.32211 11.9959C7.90222 11.9959 7.4985 11.8304 7.23749 11.5523C6.9978 11.2969 6.59792 11.2556 6.33545 11.4875C6.07068 11.7214 6.04884 12.1258 6.28539 12.3868C6.78919 12.9427 7.53155 13.2616 8.32211 13.2616C9.30444 13.2616 10.1298 12.6322 10.2847 11.765Z" fill="#2D3250"/>
<path d="M18.3629 13.2618C19.9522 13.2618 21.2452 11.9687 21.2452 10.3794C21.2452 8.79011 19.9522 7.49707 18.3629 7.49707C16.7736 7.49707 15.4805 8.79007 15.4805 10.3794C15.4805 11.9688 16.7735 13.2618 18.3629 13.2618ZM18.3629 8.76283C19.2543 8.76283 19.9795 9.48804 19.9795 10.3795C19.9795 11.2709 19.2543 11.9961 18.3629 11.9961C17.4715 11.9961 16.7462 11.2709 16.7462 10.3795C16.7462 9.48804 17.4715 8.76283 18.3629 8.76283Z" fill="#2D3250"/>
</g>
</g>
<defs>
<clipPath id="clip0_505_164">
<rect width="24" height="24" fill="white"/>
</clipPath>
<clipPath id="clip1_505_164">
<rect width="24" height="24" fill="white"/>
</clipPath>
</defs>
</svg>
