<svg width="25" height="24" viewBox="0 0 25 24" fill="none" xmlns="http://www.w3.org/2000/svg">
<g clip-path="url(#clip0_1492_440)">
<mask id="mask0_1492_440" style="mask-type:luminance" maskUnits="userSpaceOnUse" x="0" y="0" width="25" height="24">
<path d="M24.8118 0H0.811768V24H24.8118V0Z" fill="white"/>
</mask>
<g mask="url(#mask0_1492_440)">
<mask id="mask1_1492_440" style="mask-type:luminance" maskUnits="userSpaceOnUse" x="0" y="0" width="25" height="24">
<path d="M24.8118 0H0.811768V24H24.8118V0Z" fill="white"/>
</mask>
<g mask="url(#mask1_1492_440)">
<path d="M1.68271 23.129C2.88181 24.364 5.00624 24.272 6.09433 22.9403L9.2431 19.2007C10.8166 20.1346 12.6174 20.6332 14.4951 20.6332C17.2508 20.6332 19.8414 19.5601 21.79 17.6116C23.7386 15.6631 24.8117 13.0723 24.8117 10.3166C24.8117 7.56095 23.7386 4.97027 21.79 3.02168C19.8415 1.07309 17.2508 0 14.4951 0C11.7395 0 9.14869 1.07314 7.20015 3.02168C5.2516 4.97022 4.17846 7.56095 4.17846 10.3166C4.17846 12.1943 4.67711 13.9951 5.61097 15.5686L1.87144 18.7174C0.539302 19.8058 0.448311 21.9309 1.68271 23.129ZM5.58486 10.3166C5.58486 5.40347 9.58198 1.40635 14.4951 1.40635C19.4083 1.40635 23.4054 5.40347 23.4054 10.3166C23.4054 15.2298 19.4083 19.2269 14.4951 19.2269C9.58198 19.2269 5.58486 15.2298 5.58486 10.3166ZM6.41409 16.7309C6.65776 17.0367 6.91958 17.331 7.20019 17.6116C7.48081 17.8922 7.77511 18.154 8.08085 18.3977L6.27271 20.545L4.26674 18.5391L6.41409 16.7309ZM2.21272 20.9418C2.23198 20.4915 2.43248 20.0835 2.77732 19.7931L3.18699 19.4482L5.36355 21.6247L5.01857 22.0344C4.72821 22.3792 4.32027 22.5797 3.86986 22.599C2.96539 22.6594 2.15243 21.8464 2.21272 20.9418Z" fill="#F51322"/>
<path d="M12.8367 13.2407H14.7151C15.0646 13.2407 15.3479 12.9574 15.3479 12.6078C15.3479 12.2583 15.0646 11.975 14.7151 11.975H13.4696V11.0117H14.5766C14.9261 11.0117 15.2095 10.7284 15.2095 10.3789C15.2095 10.0293 14.9261 9.74601 14.5766 9.74601H13.4696V8.7828H14.7151C15.0646 8.7828 15.3479 8.49947 15.3479 8.14995C15.3479 7.80042 15.0646 7.51709 14.7151 7.51709H12.8367C12.4872 7.51709 12.2039 7.80042 12.2039 8.14995V12.6078C12.2039 12.9574 12.4872 13.2407 12.8367 13.2407Z" fill="#F51322"/>
<path d="M11.0966 11.7645C11.2136 11.1091 10.9196 10.2543 9.7437 9.82053L8.727 9.41522C8.45131 9.29803 8.46687 8.89689 8.75316 8.80871C8.75621 8.80777 8.75925 8.80684 8.76235 8.80594C9.36483 8.62448 9.93187 9.07625 9.93187 9.07625C10.203 9.29798 10.6048 9.28654 10.8346 9.02224C11.0734 8.74894 11.0311 8.3298 10.7463 8.10736C10.7026 8.07066 9.66241 7.21283 8.39726 7.594C7.04984 7.9701 6.72056 9.77131 7.95796 10.4615C7.98407 10.4731 8.60573 10.7498 9.30567 11.008C9.44658 11.0599 9.90229 11.2521 9.85053 11.542C9.81692 11.7303 9.5724 11.9954 9.134 11.9954C8.71411 11.9954 8.31039 11.8299 8.04938 11.5518C7.80969 11.2964 7.40981 11.2551 7.14734 11.487C6.88257 11.7209 6.86073 12.1253 7.09728 12.3863C7.60108 12.9423 8.34344 13.2611 9.134 13.2611C10.1163 13.2611 10.9417 12.6317 11.0966 11.7645Z" fill="#F51322"/>
<path d="M19.1746 13.2613C20.7639 13.2613 22.057 11.9683 22.057 10.3789C22.057 8.78963 20.7639 7.49658 19.1746 7.49658C17.5853 7.49658 16.2922 8.78958 16.2922 10.3789C16.2922 11.9683 17.5852 13.2613 19.1746 13.2613ZM19.1746 8.76234C20.066 8.76234 20.7912 9.48755 20.7912 10.379C20.7912 11.2704 20.066 11.9956 19.1746 11.9956C18.2832 11.9956 17.558 11.2704 17.558 10.379C17.558 9.48755 18.2832 8.76234 19.1746 8.76234Z" fill="#F51322"/>
</g>
</g>
</g>
<defs>
<clipPath id="clip0_1492_440">
<rect width="25" height="24" fill="white"/>
</clipPath>
</defs>
</svg>
