<svg width="20" height="20" viewBox="0 0 20 20" fill="none" xmlns="http://www.w3.org/2000/svg">
<path d="M1.72431 15.3893C0.81369 16.1331 0.751663 17.5859 1.59524 18.4047V18.4047C2.41501 19.2488 3.86677 19.1859 4.61056 18.2756L4.81537 18.0324L1.96754 15.1846L1.72431 15.3893Z" fill="#9494A0"/>
<path d="M14.4622 10.4054C15.0864 10.303 15.5094 9.71392 15.4069 9.08972C15.3044 8.46551 14.7154 8.04254 14.0912 8.145C13.467 8.24745 13.044 8.83653 13.1464 9.46073C13.2489 10.0849 13.838 10.5079 14.4622 10.4054Z" fill="#2A1E1E"/>
<path d="M10.9333 2C7.03767 2 3.86838 5.1693 3.86838 9.06486C3.86838 10.4025 4.24207 11.6544 4.89046 12.7218L2.73047 14.5406L5.45751 17.2676L7.27629 15.1076C8.34373 15.756 9.59566 16.1297 10.9333 16.1297C14.8288 16.1297 17.9981 12.9604 17.9981 9.06482C17.9981 5.1693 14.8288 2 10.9333 2ZM5.75067 10.0606C5.9341 9.89436 6.21757 9.9083 6.38386 10.0918C6.56835 10.2953 6.85933 10.4169 7.16223 10.4169C7.47276 10.4169 7.64596 10.2291 7.66977 10.0957C7.70642 9.8904 7.3836 9.75433 7.28379 9.71754C6.70914 9.49925 6.50214 9.47212 6.26701 9.29653C5.92988 9.04477 5.73294 8.66381 5.79308 8.24496C5.85696 7.79984 6.18164 7.43751 6.64037 7.29931C7.53655 7.02938 8.27334 7.63694 8.30425 7.66294C8.48967 7.82697 8.50703 8.11028 8.34297 8.29569C8.18401 8.4754 7.91329 8.49672 7.72791 8.34856L7.72754 8.34899C7.72754 8.34899 7.32576 8.02912 6.89894 8.15773C6.72113 8.21169 6.68723 8.32531 6.68032 8.37349C6.66999 8.44824 6.71332 8.52019 6.78259 8.55014C6.93221 8.61483 7.25288 8.75054 7.59406 8.87639C8.42701 9.1836 8.63521 9.78913 8.55233 10.2533C8.44265 10.8676 7.85801 11.3135 7.16219 11.3135C6.60222 11.3135 6.07638 11.0876 5.71953 10.6938C5.55327 10.5103 5.56722 10.2269 5.75067 10.0606ZM11.0174 8.82352C11.265 8.82352 11.4656 9.02421 11.4656 9.27179C11.4656 9.51937 11.265 9.72006 11.0174 9.72006H10.2332V10.4024H11.1155C11.363 10.4024 11.5637 10.6031 11.5637 10.8506C11.5637 11.0982 11.363 11.2989 11.1155 11.2989H9.78497C9.53739 11.2989 9.3367 11.0982 9.3367 10.8506V7.69299C9.3367 7.44541 9.53739 7.24472 9.78497 7.24472H11.1155C11.363 7.24472 11.5637 7.44541 11.5637 7.69299C11.5637 7.94057 11.363 8.14126 11.1155 8.14126H10.2332V8.82352H11.0174ZM14.2743 11.3134C13.1485 11.3134 12.2327 10.3975 12.2327 9.27179C12.2327 8.14604 13.1485 7.23014 14.2743 7.23014C15.4001 7.23014 16.316 8.14604 16.316 9.27179C16.316 10.3975 15.4001 11.3134 14.2743 11.3134Z" fill="#2A1E1E"/>
</svg>
