<svg width="20" height="20" viewBox="0 0 20 20" fill="none" xmlns="http://www.w3.org/2000/svg">
<g clip-path="url(#clip0_1353_2109)">
<g clip-path="url(#clip1_1353_2109)">
<path d="M17.9249 12.7032C16.999 11.7766 15.7142 11.3841 14.0642 11.8263L8.18056 5.9366L8.25833 5.64255C8.5972 4.37109 8.23105 3.00439 7.30306 2.07641C6.3582 1.13081 5.01495 0.783851 3.74458 1.13281C3.56342 1.18256 3.42241 1.32491 3.37442 1.50656C3.32643 1.68821 3.37906 1.88129 3.51185 2.01414L4.92854 3.43084C5.34272 3.84603 5.33867 4.51098 4.92956 4.92118C4.52368 5.32815 3.84144 5.32752 3.43718 4.9222L2.0202 3.50512C1.88735 3.37219 1.69371 3.32006 1.51206 3.36833C1.33037 3.41656 1.18855 3.55793 1.13898 3.73926C0.795115 4.99568 1.13339 6.34726 2.08278 7.29665C3.00831 8.22284 4.29147 8.6168 5.94245 8.17366L11.8266 14.0633C11.3875 15.7128 11.7663 16.9852 12.7046 17.9235C13.6507 18.8703 14.9945 19.2147 16.2621 18.8669C16.4433 18.8171 16.5844 18.6748 16.6324 18.4931C16.6804 18.3115 16.6278 18.1183 16.495 17.9855L15.0786 16.5691C14.6644 16.1539 14.6685 15.4889 15.0776 15.0787C15.4885 14.6699 16.1693 14.6764 16.57 15.0782L17.987 16.4949C18.1199 16.6278 18.3135 16.6799 18.4952 16.6316C18.6768 16.5834 18.8186 16.4421 18.8682 16.2608C19.2121 15.0046 18.8739 13.6526 17.9249 12.7032Z" fill="#2A1E1E"/>
<path d="M6.64408 10.3721L1.61702 15.3998C0.794327 16.2225 0.794327 17.5603 1.61702 18.3829C2.43971 19.2056 3.77755 19.2056 4.6002 18.3829L9.62716 13.3554L6.64408 10.3721ZM4.10478 16.7464C3.89876 16.9524 3.56513 16.9524 3.35912 16.7464C3.15314 16.5404 3.15314 16.2067 3.35912 16.0007L6.55763 12.8016C6.76361 12.5956 7.09735 12.5956 7.3033 12.8016C7.50928 13.0076 7.50928 13.3413 7.3033 13.5473L4.10478 16.7464Z" fill="#9494A0"/>
<path d="M18.8453 2.06359L17.9362 1.15448C17.7651 0.983376 17.4996 0.950681 17.2921 1.0751L14.4955 2.75286C14.2013 2.92938 14.1513 3.33533 14.3939 3.57794L14.6165 3.80048L11.0664 7.33604L12.5583 8.8279L16.1083 5.29234L16.4219 5.60597C16.6645 5.84851 17.0705 5.79859 17.247 5.50433L18.9247 2.70776C19.0491 2.50023 19.0164 2.23469 18.8453 2.06359Z" fill="#9494A0"/>
</g>
</g>
<defs>
<clipPath id="clip0_1353_2109">
<rect width="20" height="20" fill="white"/>
</clipPath>
<clipPath id="clip1_1353_2109">
<rect width="18" height="18" fill="white" transform="translate(1 1)"/>
</clipPath>
</defs>
</svg>
