<svg width="20" height="20" viewBox="0 0 20 20" fill="none" xmlns="http://www.w3.org/2000/svg">
<path d="M12.5456 3H7.46046C7.28171 3 7.13672 3.13966 7.13672 3.31187V17.6881C7.13672 17.8603 7.28171 18 7.46046 18H12.5456C12.7243 18 12.8693 17.8603 12.8693 17.6881V3.31187C12.8693 3.13966 12.7243 3 12.5456 3ZM10.003 15.2612C9.37807 15.2612 8.87149 14.7733 8.87149 14.1716C8.87149 13.5699 9.37807 13.0821 10.003 13.0821C10.6279 13.0821 11.1345 13.5699 11.1345 14.1716C11.1345 14.7733 10.6279 15.2612 10.003 15.2612ZM12.0841 9.69971C12.0841 9.87173 11.939 10.0114 11.76 10.0114H8.246C8.06702 10.0114 7.92198 9.87173 7.92198 9.69971V9.38797C7.92198 9.21536 8.06702 9.0758 8.246 9.0758H11.76C11.939 9.0758 12.0841 9.21536 12.0841 9.38797V9.69971ZM12.0841 8.14047C12.0841 8.31259 11.939 8.45224 11.76 8.45224H8.246C8.06702 8.45224 7.92198 8.31259 7.92198 8.14047V7.82829C7.92198 7.65617 8.06702 7.51652 8.246 7.51652H11.76C11.939 7.51652 12.0841 7.65617 12.0841 7.82829V8.14047ZM12.0841 6.58083C12.0841 6.75326 11.939 6.89287 11.76 6.89287H8.246C8.06702 6.89287 7.92198 6.75331 7.92198 6.58083V6.2691C7.92198 6.09702 8.06702 5.95737 8.246 5.95737H11.76C11.939 5.95737 12.0841 6.09702 12.0841 6.2691V6.58083ZM12.0841 5.02168C12.0841 5.19376 11.939 5.33341 11.76 5.33341H8.246C8.06702 5.33341 7.92198 5.19376 7.92198 5.02168V4.70986C7.92198 4.53739 8.06702 4.39782 8.246 4.39782H11.76C11.939 4.39782 12.0841 4.53739 12.0841 4.70986V5.02168Z" fill="#2A1E1E"/>
<path d="M19.9965 4.65982C19.9965 4.51277 19.8676 4.38211 19.7084 4.36828C18.2007 4.23628 16.693 4.10428 15.1853 3.97273C15.1687 3.9712 15.1216 3.9725 15.0714 3.98629L13.3086 4.41498V17.7496L15.1326 17.998C15.1548 18.0026 15.1835 17.998 15.1852 17.9979C16.6929 17.866 18.2007 17.719 19.7084 17.5873C19.8675 17.5732 19.9966 17.4428 19.9966 17.2957C19.9964 13.9047 19.9965 8.05111 19.9965 4.65982ZM15.5958 5.57343C15.5958 5.41586 15.7248 5.29675 15.884 5.3075C16.9259 5.37838 17.9678 5.44931 19.0098 5.52019C19.169 5.53093 19.2979 5.66016 19.2979 5.80922V6.07841C19.2979 6.22693 19.169 6.34071 19.0098 6.33207C17.9679 6.27466 16.9259 6.21731 15.884 6.16031C15.7248 6.15148 15.5958 6.01639 15.5958 5.85892V5.57343ZM19.2979 10.1189C19.2979 10.2673 19.1689 10.3896 19.0098 10.3909C17.9678 10.4018 16.9259 10.4128 15.8839 10.4236C15.7248 10.4251 15.5958 10.2989 15.5958 10.141V9.85572C15.5958 9.69784 15.7247 9.57049 15.8839 9.57072C16.9258 9.57345 17.9678 9.57663 19.0098 9.57905C19.1689 9.57963 19.2979 9.70039 19.2979 9.8494V10.1189ZM19.0098 9.03788C17.9678 9.02606 16.9259 9.01433 15.8839 9.00238C15.7248 9.00058 15.5958 8.8714 15.5958 8.71348V8.42821C15.5958 8.27038 15.7247 8.14581 15.8839 8.14984C16.9259 8.175 17.9678 8.20048 19.0098 8.22618C19.1689 8.22994 19.2978 8.3537 19.2978 8.50276C19.2978 8.6105 19.2979 8.66432 19.2979 8.77205C19.2979 8.92057 19.1689 9.0399 19.0098 9.03788ZM19.2979 7.42527C19.2979 7.57375 19.1689 7.68999 19.0098 7.68502C17.9678 7.65041 16.9259 7.61575 15.8839 7.58123C15.7248 7.57608 15.5958 7.44386 15.5958 7.2862V7.00066C15.5958 6.84305 15.7247 6.72148 15.8839 6.72883C16.9259 6.7766 17.9678 6.82496 19.0098 6.87327C19.1689 6.88066 19.2979 7.00684 19.2979 7.1559V7.42527Z" fill="#9494A0"/>
<path d="M4.81133 3.97273C3.30358 4.10428 1.79583 4.23628 0.288121 4.36828C0.128994 4.38211 4.65011e-05 4.51277 4.65011e-05 4.65982C4.65011e-05 8.05111 0.000139503 13.9048 0 17.2957C0 17.4428 0.128994 17.5732 0.288121 17.5873C1.79587 17.719 3.30363 17.866 4.81133 17.9979C4.81305 17.998 4.8417 18.0026 4.86393 17.998L6.68798 17.7496V4.41498L4.92522 3.98629C4.8749 3.9725 4.82784 3.9712 4.81133 3.97273ZM4.40073 10.141C4.40073 10.2988 4.27178 10.4251 4.11265 10.4236C3.0707 10.4129 2.02875 10.4018 0.986754 10.3909C0.827627 10.3896 0.698633 10.2673 0.698633 10.1189V9.8494C0.698633 9.70039 0.827581 9.57963 0.986754 9.57905C2.02875 9.57658 3.0707 9.57345 4.11265 9.57072C4.27178 9.57049 4.40073 9.69784 4.40073 9.85572V10.141ZM4.40073 8.71348C4.40073 8.8714 4.27178 9.00058 4.11265 9.00238C3.0707 9.01433 2.02875 9.02606 0.986754 9.03788C0.827627 9.0399 0.698633 8.92057 0.698633 8.772C0.698633 8.66432 0.69868 8.61049 0.69868 8.50272C0.69868 8.35366 0.827581 8.2299 0.986754 8.22614C2.02875 8.20044 3.07066 8.17491 4.11265 8.14979C4.27178 8.14576 4.40073 8.27029 4.40073 8.42817V8.71348ZM4.40073 7.2862C4.40073 7.44386 4.27178 7.57608 4.11265 7.58123C3.0707 7.61575 2.02875 7.65041 0.986754 7.68502C0.827627 7.68999 0.698633 7.5738 0.698633 7.42527V7.15586C0.698633 7.00684 0.827581 6.88066 0.986754 6.87323C2.02875 6.82496 3.07066 6.7766 4.11265 6.72878C4.27178 6.72144 4.40073 6.84305 4.40073 7.00062V7.2862ZM4.40073 5.85887C4.40073 6.01639 4.27178 6.15144 4.11265 6.16026C3.0707 6.21726 2.02875 6.27462 0.986754 6.33202C0.827627 6.34066 0.69868 6.22689 0.69868 6.07836V5.80917C0.69868 5.66011 0.827581 5.53089 0.986754 5.52014C2.02875 5.44926 3.07066 5.37834 4.11265 5.30746C4.27178 5.29675 4.40073 5.41586 4.40073 5.57338V5.85887Z" fill="#9494A0"/>
</svg>
