<svg width="24" height="24" viewBox="0 0 24 24" fill="none" xmlns="http://www.w3.org/2000/svg">
<path d="M4.23068 6.07805C4.69799 6.07805 5.07683 5.69921 5.07683 5.2319C5.07683 4.76458 4.69799 4.38574 4.23068 4.38574C3.76336 4.38574 3.38452 4.76458 3.38452 5.2319C3.38452 5.69921 3.76336 6.07805 4.23068 6.07805Z" fill="#2D3250"/>
<path d="M7.61553 5.2319C7.61553 5.69921 7.2367 6.07805 6.76937 6.07805C6.30206 6.07805 5.92322 5.69921 5.92322 5.2319C5.92322 4.76458 6.30206 4.38574 6.76937 4.38574C7.2367 4.38574 7.61553 4.76458 7.61553 5.2319Z" fill="#2D3250"/>
<path d="M14.3845 4.38574C13.9172 4.38574 13.5383 4.76458 13.5383 5.2319C13.5383 5.69921 13.9172 6.07805 14.3845 6.07805H19.4614C19.9287 6.07805 20.3076 5.69921 20.3076 5.2319C20.3076 4.76458 19.9287 4.38574 19.4614 4.38574H14.3845Z" fill="#2D3250"/>
<path d="M5.07683 12.0014C5.07683 12.4688 4.69799 12.8476 4.23068 12.8476C3.76336 12.8476 3.38452 12.4688 3.38452 12.0014C3.38452 11.5341 3.76336 11.1553 4.23068 11.1553C4.69799 11.1553 5.07683 11.5341 5.07683 12.0014Z" fill="#2D3250"/>
<path d="M6.76937 12.8476C7.2367 12.8476 7.61553 12.4688 7.61553 12.0014C7.61553 11.5341 7.2367 11.1553 6.76937 11.1553C6.30206 11.1553 5.92322 11.5341 5.92322 12.0014C5.92322 12.4688 6.30206 12.8476 6.76937 12.8476Z" fill="#2D3250"/>
<path d="M13.5383 12.0014C13.5383 11.5341 13.9172 11.1553 14.3845 11.1553H19.4614C19.9287 11.1553 20.3076 11.5341 20.3076 12.0014C20.3076 12.4688 19.9287 12.8476 19.4614 12.8476H14.3845C13.9172 12.8476 13.5383 12.4688 13.5383 12.0014Z" fill="#2D3250"/>
<path d="M4.23068 19.6161C4.69799 19.6161 5.07683 19.2373 5.07683 18.77C5.07683 18.3027 4.69799 17.9238 4.23068 17.9238C3.76336 17.9238 3.38452 18.3027 3.38452 18.77C3.38452 19.2373 3.76336 19.6161 4.23068 19.6161Z" fill="#2D3250"/>
<path d="M7.61553 18.77C7.61553 19.2373 7.2367 19.6161 6.76937 19.6161C6.30206 19.6161 5.92322 19.2373 5.92322 18.77C5.92322 18.3027 6.30206 17.9238 6.76937 17.9238C7.2367 17.9238 7.61553 18.3027 7.61553 18.77Z" fill="#2D3250"/>
<path d="M14.3845 17.9238C13.9172 17.9238 13.5383 18.3027 13.5383 18.77C13.5383 19.2373 13.9172 19.6161 14.3845 19.6161H19.4614C19.9287 19.6161 20.3076 19.2373 20.3076 18.77C20.3076 18.3027 19.9287 17.9238 19.4614 17.9238H14.3845Z" fill="#2D3250"/>
<path fill-rule="evenodd" clip-rule="evenodd" d="M0 5.23077C0 2.89418 1.89418 1 4.23077 1H19.4615C21.7981 1 23.6923 2.89418 23.6923 5.23077C23.6923 6.61474 23.0278 7.84352 22.0004 8.61538C23.0278 9.38725 23.6923 10.616 23.6923 12C23.6923 13.384 23.0278 14.6128 22.0004 15.3846C23.0278 16.1565 23.6923 17.3853 23.6923 18.7692C23.6923 21.1058 21.7981 23 19.4615 23H4.23077C1.89418 23 0 21.1058 0 18.7692C0 17.3853 0.664519 16.1565 1.6919 15.3846C0.664519 14.6128 0 13.384 0 12C0 10.616 0.664519 9.38725 1.6919 8.61538C0.664519 7.84352 0 6.61474 0 5.23077ZM22 5.23077C22 6.63272 20.8635 7.76923 19.4615 7.76923H4.23077C2.82882 7.76923 1.69231 6.63272 1.69231 5.23077C1.69231 3.82882 2.82882 2.69231 4.23077 2.69231H19.4615C20.8635 2.69231 22 3.82882 22 5.23077ZM1.69231 12C1.69231 10.598 2.82882 9.46154 4.23077 9.46154H19.4615C20.8635 9.46154 22 10.598 22 12C22 13.402 20.8635 14.5385 19.4615 14.5385H4.23077C2.82882 14.5385 1.69231 13.402 1.69231 12ZM4.23077 16.2308C2.82882 16.2308 1.69231 17.3672 1.69231 18.7692C1.69231 20.1712 2.82882 21.3077 4.23077 21.3077H19.4615C20.8635 21.3077 22 20.1712 22 18.7692C22 17.3672 20.8635 16.2308 19.4615 16.2308H4.23077Z" fill="#2D3250"/>
</svg>
