<svg width="24" height="24" viewBox="0 0 24 24" fill="none" xmlns="http://www.w3.org/2000/svg">
<g clip-path="url(#clip0_534_751)">
<path d="M24 9.9375C24 8.38669 22.7383 7.125 21.1875 7.125H20.2264C19.7086 7.125 19.2889 7.54472 19.2889 8.0625C19.2889 8.58028 19.7086 9 20.2264 9H21.1875C21.7044 9 22.125 9.42056 22.125 9.9375V13.6875C22.125 14.2044 21.7044 14.625 21.1875 14.625H2.8125C2.29556 14.625 1.875 14.2044 1.875 13.6875V9.9375C1.875 9.42056 2.29556 9 2.8125 9H3.77367C4.29145 9 4.71117 8.58028 4.71117 8.0625C4.71117 7.54472 4.29145 7.125 3.77367 7.125H2.8125C1.26169 7.125 0 8.38669 0 9.9375V13.6875C0 14.4073 0.272109 15.0645 0.718453 15.5625C0.272109 16.0605 0 16.7177 0 17.4375V21.1875C0 22.7383 1.26169 24 2.8125 24H21.1875C22.7383 24 24 22.7383 24 21.1875V17.4375C24 16.7177 23.7279 16.0605 23.2815 15.5625C23.7279 15.0645 24 14.4073 24 13.6875V9.9375ZM22.125 21.1875C22.125 21.7044 21.7044 22.125 21.1875 22.125H2.8125C2.29556 22.125 1.875 21.7044 1.875 21.1875V17.4375C1.875 16.9206 2.29556 16.5 2.8125 16.5H21.1875C21.7044 16.5 22.125 16.9206 22.125 17.4375V21.1875Z" fill="#2D3250"/>
<path d="M19.5 18.375H17.625C17.1072 18.375 16.6875 18.7947 16.6875 19.3125C16.6875 19.8303 17.1072 20.25 17.625 20.25H19.5C20.0178 20.25 20.4375 19.8303 20.4375 19.3125C20.4375 18.7947 20.0178 18.375 19.5 18.375Z" fill="#2D3250"/>
<path d="M17.625 12.75H19.5C20.0178 12.75 20.4375 12.3303 20.4375 11.8125C20.4375 11.2947 20.0178 10.875 19.5 10.875H17.625C17.1072 10.875 16.6875 11.2947 16.6875 11.8125C16.6875 12.3303 17.1072 12.75 17.625 12.75Z" fill="#2D3250"/>
<path d="M4.5 20.25C5.01777 20.25 5.4375 19.8303 5.4375 19.3125C5.4375 18.7947 5.01777 18.375 4.5 18.375C3.98223 18.375 3.5625 18.7947 3.5625 19.3125C3.5625 19.8303 3.98223 20.25 4.5 20.25Z" fill="#2D3250"/>
<path d="M8.25 20.25C8.76777 20.25 9.1875 19.8303 9.1875 19.3125C9.1875 18.7947 8.76777 18.375 8.25 18.375C7.73223 18.375 7.3125 18.7947 7.3125 19.3125C7.3125 19.8303 7.73223 20.25 8.25 20.25Z" fill="#2D3250"/>
<path d="M4.5 12.75C5.01777 12.75 5.4375 12.3303 5.4375 11.8125C5.4375 11.2947 5.01777 10.875 4.5 10.875C3.98223 10.875 3.5625 11.2947 3.5625 11.8125C3.5625 12.3303 3.98223 12.75 4.5 12.75Z" fill="#2D3250"/>
<path d="M12 12.75C11.3145 12.75 10.654 12.5005 10.1402 12.0474L8.28141 10.408C7.06987 9.34003 6.375 7.80169 6.375 6.1875V3.75C6.375 3.05597 6.75558 2.42189 7.36819 2.09508L10.6776 0.329859C11.0822 0.114047 11.5395 0 12 0C12.4605 0 12.9178 0.114047 13.3224 0.329859L16.6319 2.09508C17.2444 2.42184 17.625 3.05597 17.625 3.75V6.1875C17.625 7.80131 16.9304 9.33947 15.7192 10.4076L13.8598 12.0474C13.346 12.5005 12.6855 12.75 12 12.75ZM8.25066 3.74944L8.25 6.1875C8.25 7.26366 8.71345 8.28937 9.52144 9.00169L11.3804 10.6411C11.5515 10.7919 11.7715 10.875 12 10.875C12.2285 10.875 12.4485 10.7919 12.6196 10.6411L14.479 9.00127C15.2867 8.28895 15.75 7.26342 15.75 6.1875V3.75L12.44 1.98422C12.3041 1.91175 12.156 1.875 12 1.875C11.844 1.875 11.6959 1.91175 11.56 1.98422L8.25066 3.74944Z" fill="#2D3250"/>
</g>
<defs>
<clipPath id="clip0_534_751">
<rect width="24" height="24" fill="white"/>
</clipPath>
</defs>
</svg>
