<svg width="25" height="24" viewBox="0 0 25 24" fill="none" xmlns="http://www.w3.org/2000/svg">
<g clip-path="url(#clip0_1492_304)">
<mask id="mask0_1492_304" style="mask-type:luminance" maskUnits="userSpaceOnUse" x="0" y="0" width="25" height="24">
<path d="M24.8118 0H0.811768V24H24.8118V0Z" fill="white"/>
</mask>
<g mask="url(#mask0_1492_304)">
<path d="M17.4648 10.1795C17.4648 9.817 17.4648 2.85388 17.4648 2.34191C17.4648 0.218811 11.2931 0 9.18516 0C7.07561 0 0.905518 0.218811 0.905518 2.34191V17.5618C0.905518 20 8.9257 20.0008 11.4811 19.8292C12.545 22.281 14.9894 24 17.8279 24C21.6409 24 24.7431 20.898 24.7431 17.085C24.7431 13.1382 21.4248 9.97227 17.4648 10.1795ZM17.8281 22.5492C14.8155 22.5492 12.3637 20.098 12.3637 17.085C12.3637 13.6518 15.2119 11.6208 17.8281 11.6208C20.8411 11.6208 23.2923 14.0718 23.2923 17.085C23.2923 20.098 20.8411 22.5492 17.8281 22.5492ZM2.35626 17.4263V14.0945C4.6004 14.9439 8.78398 15.0461 11.2674 14.8972C10.8838 16.0459 10.8181 17.2575 11.0387 18.4026C8.09697 18.5637 3.49096 18.2746 2.35626 17.4263ZM15.783 2.34191C13.3515 3.5266 4.99627 3.51562 2.58752 2.34191C5.01952 1.15667 13.3748 1.16839 15.783 2.34191ZM16.0141 10.4112C14.3189 10.873 12.8914 11.9606 11.9856 13.3896C8.31468 13.712 3.419 13.3086 2.35626 12.4808C2.35626 12.13 2.35626 9.24846 2.35626 8.87932C5.40093 10.0316 12.9956 10.0259 16.0141 8.87877V10.4112ZM2.35626 3.82067C5.39452 4.97039 12.989 4.96984 16.0141 3.8203V7.26561C14.2253 8.61033 4.13641 8.60374 2.35626 7.26561C2.35626 6.63939 2.35626 5.17748 2.35626 3.82067Z" fill="#F51322"/>
<path d="M18.1975 15.7502C19.4289 16.652 21.1865 15.7721 21.1865 14.2317C21.1865 13.1949 20.3426 12.3516 19.3058 12.3516C18.1578 12.3516 17.2765 13.377 17.446 14.5093C15.9263 15.4277 16.4333 15.1223 15.7507 15.5345C14.5195 14.6325 12.7622 15.512 12.7622 17.0524C12.7622 18.605 14.5447 19.4824 15.7739 18.5533C16.5106 18.9834 16.1486 18.7718 17.4563 19.5361C17.2439 20.6784 18.1287 21.7531 19.3058 21.7531C20.3426 21.7531 21.1865 20.9097 21.1865 19.873C21.1865 18.3622 19.4866 17.4725 18.2488 18.3188C16.6323 17.3745 16.7609 17.4498 16.5065 17.3014C16.5305 17.1178 16.5276 16.9409 16.5027 16.7754C17.1218 16.4013 16.6673 16.6754 18.1975 15.7502ZM19.3058 19.443C19.5428 19.443 19.7358 19.636 19.7358 19.873C19.7358 20.1099 19.5428 20.3024 19.3058 20.3024C19.0689 20.3024 18.8765 20.1099 18.8765 19.873C18.8765 19.6401 19.0658 19.443 19.3058 19.443ZM14.6423 16.623C14.8815 16.623 15.0723 16.8175 15.0723 17.0524C15.0723 17.2894 14.8784 17.4818 14.6423 17.4818C14.4054 17.4818 14.2129 17.2894 14.2129 17.0524C14.2129 16.8155 14.4054 16.623 14.6423 16.623ZM19.3058 13.8023C19.5428 13.8023 19.7358 13.9947 19.7358 14.2317C19.7358 14.4686 19.5428 14.6616 19.3058 14.6616C19.0649 14.6616 18.8765 14.4635 18.8765 14.2317C18.8765 13.9947 19.0689 13.8023 19.3058 13.8023Z" fill="#F51322"/>
</g>
</g>
<defs>
<clipPath id="clip0_1492_304">
<rect width="25" height="24" fill="white"/>
</clipPath>
</defs>
</svg>
