<svg width="24" height="24" viewBox="0 0 24 24" fill="none" xmlns="http://www.w3.org/2000/svg">
<g clip-path="url(#clip0_505_161)">
<path d="M16.653 10.1795C16.653 9.817 16.653 2.85388 16.653 2.34191C16.653 0.218811 10.4813 0 8.3734 0C6.26384 0 0.09375 0.218811 0.09375 2.34191V17.5618C0.09375 20 8.11394 20.0008 10.6694 19.8292C11.7332 22.281 14.1776 24 17.0161 24C20.8291 24 23.9313 20.898 23.9313 17.085C23.9313 13.1382 20.6131 9.97227 16.653 10.1795ZM17.0163 22.5492C14.0037 22.5492 11.5519 20.098 11.5519 17.085C11.5519 13.6518 14.4001 11.6208 17.0163 11.6208C20.0293 11.6208 22.4805 14.0718 22.4805 17.085C22.4805 20.098 20.0293 22.5492 17.0163 22.5492ZM1.54449 17.4263V14.0945C3.78863 14.9439 7.97221 15.0461 10.4557 14.8972C10.0721 16.0459 10.0063 17.2575 10.227 18.4026C7.2852 18.5637 2.67919 18.2746 1.54449 17.4263ZM14.9712 2.34191C12.5398 3.5266 4.1845 3.51562 1.77575 2.34191C4.20776 1.15667 12.563 1.16839 14.9712 2.34191ZM15.2023 10.4112C13.5071 10.873 12.0796 11.9606 11.1738 13.3896C7.50291 13.712 2.60723 13.3086 1.54449 12.4808C1.54449 12.13 1.54449 9.24846 1.54449 8.87932C4.58916 10.0316 12.1838 10.0259 15.2023 8.87877V10.4112ZM1.54449 3.82067C4.58275 4.97039 12.1772 4.96984 15.2023 3.8203V7.26561C13.4135 8.61033 3.32464 8.60374 1.54449 7.26561C1.54449 6.63939 1.54449 5.17748 1.54449 3.82067Z" fill="#2D3250"/>
<path d="M17.3857 15.7502C18.6171 16.652 20.3747 15.7721 20.3747 14.2317C20.3747 13.1949 19.5308 12.3516 18.4941 12.3516C17.346 12.3516 16.4647 13.377 16.6343 14.5093C15.1145 15.4277 15.6215 15.1223 14.9389 15.5345C13.7077 14.6325 11.9504 15.512 11.9504 17.0524C11.9504 18.605 13.733 19.4824 14.9622 18.5533C15.6988 18.9834 15.3368 18.7718 16.6445 19.5361C16.4321 20.6784 17.3169 21.7531 18.4941 21.7531C19.5308 21.7531 20.3747 20.9097 20.3747 19.873C20.3747 18.3622 18.6748 17.4725 17.437 18.3188C15.8205 17.3745 15.9491 17.4498 15.6948 17.3014C15.7187 17.1178 15.7158 16.9409 15.6909 16.7754C16.31 16.4013 15.8555 16.6754 17.3857 15.7502ZM18.4941 19.443C18.731 19.443 18.924 19.636 18.924 19.873C18.924 20.1099 18.731 20.3024 18.4941 20.3024C18.2571 20.3024 18.0647 20.1099 18.0647 19.873C18.0647 19.6401 18.254 19.443 18.4941 19.443ZM13.8306 16.623C14.0697 16.623 14.2605 16.8175 14.2605 17.0524C14.2605 17.2894 14.0666 17.4818 13.8306 17.4818C13.5936 17.4818 13.4012 17.2894 13.4012 17.0524C13.4012 16.8155 13.5936 16.623 13.8306 16.623ZM18.4941 13.8023C18.731 13.8023 18.924 13.9947 18.924 14.2317C18.924 14.4686 18.731 14.6616 18.4941 14.6616C18.2531 14.6616 18.0647 14.4635 18.0647 14.2317C18.0647 13.9947 18.2571 13.8023 18.4941 13.8023Z" fill="#2D3250"/>
</g>
<defs>
<clipPath id="clip0_505_161">
<rect width="24" height="24" fill="white"/>
</clipPath>
</defs>
</svg>
