<svg width="20" height="20" viewBox="0 0 20 20" fill="none" xmlns="http://www.w3.org/2000/svg">
<g clip-path="url(#clip0_1353_1892)">
<path d="M17.418 6.81839C17.0159 6.81839 16.6485 6.96945 16.3691 7.21748L14.6791 6.29192C14.7676 5.9501 14.7694 5.58419 14.6791 5.23551L16.3691 4.30995C16.6485 4.55798 17.0159 4.70905 17.418 4.70905C18.2903 4.70905 19 3.99935 19 3.12701C19 2.25468 18.2903 1.54498 17.418 1.54498C16.4463 1.54498 15.6965 2.41904 15.8578 3.38752L14.1665 4.31375C13.7819 3.90808 13.2385 3.65432 12.6367 3.65432C11.4736 3.65432 10.5273 4.60059 10.5273 5.7637C10.5273 6.92681 11.4736 7.87307 12.6367 7.87307C13.2385 7.87307 13.7819 7.61931 14.1665 7.21368L15.8578 8.13991C15.6963 9.10966 16.4479 9.98245 17.418 9.98245C18.2903 9.98245 19 9.27275 19 8.40042C19 7.52808 18.2903 6.81839 17.418 6.81839Z" fill="#2A1E1E"/>
<path d="M1 18.4551H13.6562V14.5879H1V18.4551ZM5.21875 15.8184H6.27344V16.873H5.21875V15.8184ZM3.10938 15.8184H4.16406V16.873H3.10938V15.8184Z" fill="#9494A0"/>
<path d="M1 9.66602V13.5332H13.6562C13.6562 13.529 13.6559 13.0238 13.6552 9.66602H1ZM4.16406 12.127H3.10938V11.0723H4.16406V12.127ZM6.27344 12.127H5.21875V11.0723H6.27344V12.127Z" fill="#9494A0"/>
<path d="M9.47266 5.76367C9.47266 5.40719 9.53207 5.06406 9.64141 4.74414H1V8.61133H11.2582C10.2021 8.0984 9.47266 7.01453 9.47266 5.76367ZM4.16406 7.38086H3.10938V6.32617H4.16406V7.38086ZM6.27344 7.38086H5.21875V6.32617H6.27344V7.38086Z" fill="#9494A0"/>
</g>
<defs>
<clipPath id="clip0_1353_1892">
<rect width="18" height="18" fill="white" transform="translate(1 1)"/>
</clipPath>
</defs>
</svg>
