<svg width="24" height="22" viewBox="0 0 24 22" fill="none" xmlns="http://www.w3.org/2000/svg">
<path d="M20.9302 2.23256H10.2297C10.1561 2.23256 10.0847 2.20309 10.0323 2.15085L8.45381 0.572316C8.08476 0.202716 7.59427 0 7.07263 0H3.06977C1.37682 0 0 1.37682 0 3.06977V18.6977C0 20.3906 1.37682 21.7674 3.06977 21.7674H20.9302C22.6232 21.7674 24 20.3906 24 18.6977V5.30233C24 3.60938 22.6232 2.23256 20.9302 2.23256ZM22.3256 18.6977C22.3256 19.4673 21.6999 20.093 20.9302 20.093H3.06977C2.30009 20.093 1.67442 19.4673 1.67442 18.6977V3.06977C1.67442 2.30009 2.30009 1.67442 3.06977 1.67442H7.07263C7.1462 1.67442 7.21764 1.70389 7.26999 1.75613L8.84852 3.33466C9.21756 3.70426 9.70806 3.90698 10.2297 3.90698H20.9302C21.6999 3.90698 22.3256 4.53265 22.3256 5.30233V18.6977Z" fill="#2D3250"/>
<path d="M12.0001 6.69874C11.112 6.69874 10.2539 6.93204 9.49234 7.3454L9.59258 6.5515C9.65041 6.0926 9.32546 5.674 8.86656 5.61617C8.40866 5.5627 7.98961 5.8833 7.93122 6.3422L7.56163 9.27132C7.53383 9.49156 7.59489 9.71392 7.73119 9.8894C7.86693 10.0649 8.06752 10.1794 8.28765 10.2066L11.2162 10.5751C11.2516 10.5795 11.2871 10.5817 11.3219 10.5817C11.7378 10.5817 12.0981 10.2722 12.1515 9.84921C12.2094 9.39031 11.884 8.97171 11.4255 8.91388L10.3875 8.78339C10.8818 8.52698 11.4275 8.37327 12.0001 8.37327C14.0004 8.37327 15.628 10.0008 15.628 12.0012C15.628 14.0016 14.0004 15.6291 12.0001 15.6291C10.7263 15.6291 9.56747 14.9783 8.90138 13.8871C8.65937 13.4936 8.14376 13.3661 7.75028 13.6103C7.35567 13.8512 7.23143 14.3668 7.47232 14.7614C8.44583 16.353 10.1382 17.3035 12.0002 17.3035C14.9238 17.3035 17.3025 14.9248 17.3025 12.0012C17.3025 9.07753 14.9237 6.69874 12.0001 6.69874Z" fill="#2D3250"/>
</svg>
