<svg width="20" height="20" viewBox="0 0 20 20" fill="none" xmlns="http://www.w3.org/2000/svg">
<path d="M3.99995 3.99995L3.24997 1.75L1.75 3.24997V5.49992L2.49998 7.74988L3.99995 9.24985V12.9998V18.2497H6.99989V16.7497L6.24991 15.2497V6.99989L6.99989 6.24991H9.24985V5.49992V3.24997L8.49986 1.75H7.74988L6.24991 4.74994H4.74994L3.99995 3.99995Z" fill="#2A1E1E"/>
<path d="M11.7474 8.09785C11.825 8.03475 11.9218 8.00021 12.0217 8H12.9783C13.0779 8.00013 13.1746 8.03441 13.2521 8.09717C13.3297 8.15993 13.3835 8.24738 13.4046 8.34501L13.4745 8.669C13.5893 8.70755 13.7016 8.75317 13.8108 8.8056L14.0973 8.62609C14.1811 8.57347 14.2802 8.55088 14.3784 8.56202C14.4766 8.57315 14.5682 8.61735 14.6381 8.68739L15.3142 9.36427C15.3843 9.43441 15.4286 9.52635 15.4397 9.62499C15.4508 9.72364 15.4281 9.82314 15.3754 9.90718L15.1946 10.1961C15.247 10.3051 15.2928 10.4171 15.3317 10.5315L15.6549 10.6016C15.7523 10.6225 15.8397 10.6763 15.9024 10.7538C15.9652 10.8314 15.9996 10.9281 16 11.028V12C15.9999 12.1004 15.9655 12.1978 15.9023 12.2757C15.8392 12.3537 15.7512 12.4075 15.6532 12.4282L15.316 12.5C15.2775 12.6103 15.2321 12.718 15.1806 12.8249L15.3632 13.127C15.4146 13.2116 15.4358 13.3112 15.4234 13.4095C15.4111 13.5078 15.3658 13.599 15.295 13.6681L14.6346 14.3161C14.5645 14.3848 14.4734 14.4278 14.376 14.4383C14.2785 14.4488 14.1804 14.4261 14.0973 14.3739L13.8073 14.1926C13.6944 14.246 13.5783 14.2922 13.4596 14.331L13.3897 14.655C13.3686 14.7528 13.3147 14.8403 13.2369 14.9031C13.1592 14.9659 13.0624 15.0001 12.9626 15H12.0217C11.9216 14.9997 11.8246 14.9649 11.7469 14.9015C11.6693 14.838 11.6158 14.7498 11.5954 14.6515L11.5238 14.3144C11.4111 14.2767 11.3019 14.2312 11.1927 14.1795L10.8904 14.3722C10.806 14.4259 10.7057 14.449 10.6063 14.4375C10.5069 14.426 10.4145 14.3807 10.3444 14.3091L9.68227 13.6322C9.61321 13.5615 9.57009 13.4694 9.55993 13.371C9.54978 13.2726 9.57319 13.1736 9.62636 13.0902L9.81505 12.7925C9.76613 12.6918 9.72245 12.5867 9.68401 12.479L9.33633 12.3967C9.24068 12.374 9.15544 12.3197 9.09441 12.2425C9.03338 12.1652 9.00012 12.0696 9 11.9711V11.0289C9.00007 10.9305 9.03321 10.835 9.09407 10.7578C9.15493 10.6806 9.23996 10.6262 9.33545 10.6033L9.68489 10.5175C9.72266 10.4112 9.76641 10.3071 9.81592 10.2058L9.62636 9.9063C9.57342 9.82246 9.55046 9.72307 9.56125 9.62443C9.57205 9.52579 9.61595 9.43375 9.68576 9.3634L10.361 8.68651C10.431 8.61626 10.5227 8.57193 10.6211 8.56079C10.7196 8.54966 10.8188 8.57237 10.9027 8.62522L11.1936 8.80911C11.3015 8.7593 11.4124 8.71603 11.5255 8.67951L11.5954 8.34676C11.6162 8.24881 11.6698 8.16095 11.7474 8.09785Z" fill="#9494A0"/>
<ellipse cx="12.4983" cy="11.4036" rx="1.55303" ry="1.55672" fill="white"/>
<path fill-rule="evenodd" clip-rule="evenodd" d="M18.9993 7.74966C18.9993 7.30243 18.8214 6.87286 18.5051 6.55656C18.1887 6.24026 17.7595 6.06226 17.3117 6.06226C14.9589 6.06226 9.54035 6.06226 7.1876 6.06226C6.73979 6.06226 6.31054 6.24026 5.99422 6.55656C5.67789 6.87286 5.5 7.30243 5.5 7.74966C5.5 9.59006 5.5 13.2223 5.5 15.0627C5.5 15.5099 5.67789 15.9395 5.99422 16.2558C6.31054 16.5721 6.73979 16.7501 7.1876 16.7501C9.54035 16.7501 14.9589 16.7501 17.3117 16.7501C17.7595 16.7501 18.1887 16.5721 18.5051 16.2558C18.8214 15.9395 18.9993 15.5099 18.9993 15.0627V7.74966ZM17.8747 7.74966V15.0627C17.8747 15.2113 17.8152 15.3547 17.71 15.4599C17.604 15.5658 17.4609 15.6247 17.3117 15.6247C14.9589 15.6247 9.54035 15.6247 7.1876 15.6247C7.03833 15.6247 6.89525 15.5658 6.78929 15.4599C6.68411 15.3547 6.62455 15.2113 6.62455 15.0627C6.62455 13.2223 6.62455 9.59006 6.62455 7.74966C6.62455 7.60107 6.68411 7.45763 6.78929 7.35245C6.89525 7.24653 7.03833 7.18768 7.1876 7.18768C9.54035 7.18768 14.9589 7.18768 17.3117 7.18768C17.4609 7.18768 17.604 7.24653 17.71 7.35245C17.8152 7.45763 17.8747 7.60107 17.8747 7.74966Z" fill="#2A1E1E"/>
<path fill-rule="evenodd" clip-rule="evenodd" d="M13.9374 15.6249H10.5625C10.2518 15.6249 9.99998 15.8769 9.99998 16.1874C9.99998 16.5406 9.84748 16.8899 9.67811 17.1864C9.39374 17.6836 9.04 18.0397 9.04 18.0397C8.87875 18.2005 8.83063 18.4424 8.91813 18.6528C9.005 18.8626 9.20999 18.9999 9.43749 18.9999H15.0624C15.2899 18.9999 15.4949 18.8626 15.5817 18.6528C15.6692 18.4424 15.6211 18.2005 15.4599 18.0397C15.4599 18.0397 15.1061 17.6836 14.8218 17.1864C14.6524 16.8899 14.4999 16.5406 14.4999 16.1874C14.4999 15.8769 14.248 15.6249 13.9374 15.6249ZM11.0531 16.7499C10.9537 17.1566 10.7631 17.5452 10.5618 17.8749H13.938C13.7368 17.5452 13.5462 17.1566 13.4468 16.7499H11.0531Z" fill="#2A1E1E"/>
<path fill-rule="evenodd" clip-rule="evenodd" d="M7.7499 16.1873C7.7499 16.0382 7.69084 15.8948 7.58509 15.7896C7.47991 15.6839 7.33647 15.6248 7.18741 15.6248C7.03835 15.6248 6.89492 15.5657 6.78973 15.46C6.68399 15.3548 6.62493 15.2114 6.62493 15.0623V8.56942C6.62493 8.40629 6.55405 8.25104 6.43087 8.14417C6.30768 8.03729 6.144 7.98949 5.98257 8.01255C5.82507 8.03505 5.66363 8.04686 5.49995 8.04686C4.98246 8.04686 4.49254 7.93042 4.0538 7.72174C3.87999 7.63905 3.67524 7.65086 3.51212 7.75436C3.349 7.8573 3.25 8.03673 3.25 8.22967V17.3123C3.25 18.2443 4.00542 18.9998 4.93746 18.9998C5.2997 18.9998 5.7002 18.9998 6.06244 18.9998C6.99448 18.9998 7.7499 18.2443 7.7499 17.3123V16.1873ZM4.37498 9.02954V17.3123C4.37498 17.6228 4.62697 17.8748 4.93746 17.8748C5.2997 17.8748 5.7002 17.8748 6.06244 17.8748C6.37293 17.8748 6.62493 17.6228 6.62493 17.3123V16.653C6.38981 16.5704 6.17381 16.4354 5.99438 16.2554C5.6777 15.9392 5.49995 15.5101 5.49995 15.0623V9.17185C5.11127 9.17185 4.7344 9.12235 4.37498 9.02954Z" fill="#2A1E1E"/>
<path fill-rule="evenodd" clip-rule="evenodd" d="M4.3513 2.10579C4.37492 2.71329 4.37493 3.48334 4.37493 4.1094C4.37493 4.4199 4.62692 4.6719 4.93741 4.6719C5.29966 4.6719 5.70015 4.6719 6.06239 4.6719C6.37288 4.6719 6.62488 4.4199 6.62488 4.1094C6.62488 3.48953 6.62488 2.72622 6.62488 2.1266C6.62431 1.69236 6.8735 1.29692 7.26499 1.10961C7.65648 0.922862 8.12053 0.977424 8.45802 1.2508L8.48334 1.27217C9.40694 2.11535 9.9998 3.32528 9.9998 4.6719C9.9998 5.48414 9.78381 6.24632 9.40694 6.90444C9.30682 7.07938 9.12064 7.18738 8.9187 7.18738H7.18736C7.0383 7.18738 6.89487 7.24644 6.78968 7.35219C6.68394 7.45737 6.62488 7.60081 6.62488 7.74987V8.56943C6.62488 8.84899 6.419 9.08636 6.14226 9.1263C5.93245 9.15611 5.71815 9.17186 5.4999 9.17186C3.01652 9.17186 1 7.15531 1 4.6719C1 3.32078 1.5968 2.10748 2.54065 1.28286C2.54628 1.2778 2.55134 1.2733 2.55697 1.2688C2.88715 1.00161 3.34163 0.948176 3.72469 1.13099C4.10212 1.31155 4.34398 1.68898 4.3513 2.10579ZM7.74985 2.1266V4.1094C7.74985 5.04146 6.99443 5.79689 6.06239 5.79689C5.70015 5.79689 5.29966 5.79689 4.93741 5.79689C4.00537 5.79689 3.24995 5.04146 3.24995 4.1094C3.24995 3.5064 3.24995 2.76672 3.22801 2.17723C2.55078 2.79428 2.12498 3.68359 2.12498 4.6719C2.12498 6.53432 3.6375 8.04687 5.4999 8.04687V7.74987C5.4999 7.30212 5.67765 6.87294 5.99433 6.55682C6.31044 6.24013 6.73962 6.06238 7.18736 6.06238H8.57558C8.76796 5.63826 8.87483 5.16745 8.87483 4.6719C8.87483 3.66615 8.43384 2.76278 7.74985 2.1266Z" fill="#2A1E1E"/>
<path fill-rule="evenodd" clip-rule="evenodd" d="M8.87499 18.9999H15.6248C15.9353 18.9999 16.1873 18.7479 16.1873 18.4374C16.1873 18.1269 15.9353 17.8749 15.6248 17.8749H8.87499C8.56449 17.8749 8.3125 18.1269 8.3125 18.4374C8.3125 18.7479 8.56449 18.9999 8.87499 18.9999Z" fill="#2A1E1E"/>
</svg>
