<svg width="23" height="23" viewBox="0 0 23 23" fill="none" xmlns="http://www.w3.org/2000/svg">
<path fill-rule="evenodd" clip-rule="evenodd" d="M22.9999 8.62494C22.9999 8.05347 22.7726 7.50455 22.3684 7.10038C21.9642 6.69621 21.4157 6.46875 20.8434 6.46875C17.8371 6.46875 10.9131 6.46875 7.9067 6.46875C7.33448 6.46875 6.78597 6.69621 6.38176 7.10038C5.97755 7.50455 5.75024 8.05347 5.75024 8.62494C5.75024 10.9766 5.75024 15.618 5.75024 17.9697C5.75024 18.5412 5.97755 19.0901 6.38176 19.4943C6.78597 19.8984 7.33448 20.1259 7.9067 20.1259C10.9131 20.1259 17.8371 20.1259 20.8434 20.1259C21.4157 20.1259 21.9642 19.8984 22.3684 19.4943C22.7726 19.0901 22.9999 18.5412 22.9999 17.9697V8.62494ZM21.5629 8.62494V17.9697C21.5629 18.1596 21.4868 18.3429 21.3524 18.4773C21.217 18.6126 21.0342 18.6878 20.8434 18.6878C17.8371 18.6878 10.9131 18.6878 7.9067 18.6878C7.71596 18.6878 7.53312 18.6126 7.39773 18.4773C7.26332 18.3429 7.18722 18.1596 7.18722 17.9697C7.18722 15.618 7.18722 10.9766 7.18722 8.62494C7.18722 8.43508 7.26332 8.25179 7.39773 8.11738C7.53312 7.98203 7.71596 7.90684 7.9067 7.90684C10.9131 7.90684 17.8371 7.90684 20.8434 7.90684C21.0342 7.90684 21.217 7.98203 21.3524 8.11738C21.4868 8.25179 21.5629 8.43508 21.5629 8.62494Z" fill="#2D3250"/>
<path fill-rule="evenodd" clip-rule="evenodd" d="M16.5317 18.6885H12.2191C11.8222 18.6885 11.5004 19.0105 11.5004 19.4072C11.5004 19.8586 11.3055 20.305 11.0891 20.6838C10.7257 21.3192 10.2737 21.7741 10.2737 21.7741C10.0677 21.9797 10.0062 22.2888 10.118 22.5576C10.229 22.8257 10.4909 23.0011 10.7816 23.0011H17.9692C18.2599 23.0011 18.5219 22.8257 18.6329 22.5576C18.7447 22.2888 18.6832 21.9797 18.4771 21.7741C18.4771 21.7741 18.0251 21.3192 17.6617 20.6838C17.4453 20.305 17.2505 19.8586 17.2505 19.4072C17.2505 19.0105 16.9286 18.6885 16.5317 18.6885ZM12.8461 20.126C12.7191 20.6457 12.4755 21.1424 12.2183 21.5635H16.5325C16.2753 21.1424 16.0318 20.6457 15.9048 20.126H12.8461Z" fill="#2D3250"/>
<path fill-rule="evenodd" clip-rule="evenodd" d="M8.62518 19.4066C8.62518 19.2162 8.54972 19.0329 8.41459 18.8985C8.28018 18.7633 8.0969 18.6879 7.90643 18.6879C7.71596 18.6879 7.53267 18.6124 7.39826 18.4773C7.26314 18.3429 7.18767 18.1596 7.18767 17.9691V9.67236C7.18767 9.46391 7.0971 9.26553 6.9397 9.12896C6.78229 8.9924 6.57313 8.93131 6.36685 8.96078C6.1656 8.98953 5.95931 9.00462 5.75015 9.00462C5.0889 9.00462 4.46286 8.85584 3.90223 8.58917C3.68013 8.48351 3.41851 8.49861 3.21007 8.63086C3.00163 8.7624 2.87512 8.99168 2.87512 9.23822V20.8442C2.87512 22.0352 3.84041 23.0005 5.0314 23.0005C5.49428 23.0005 6.00603 23.0005 6.46891 23.0005C7.65989 23.0005 8.62518 22.0352 8.62518 20.8442V19.4066ZM4.31264 10.2603V20.8442C4.31264 21.2409 4.63464 21.5629 5.0314 21.5629C5.49428 21.5629 6.00603 21.5629 6.46891 21.5629C6.86567 21.5629 7.18767 21.2409 7.18767 20.8442V20.0018C6.88723 19.8961 6.61122 19.7236 6.38194 19.4936C5.97728 19.0897 5.75015 18.5412 5.75015 17.9691V10.4422C5.25349 10.4422 4.77192 10.3789 4.31264 10.2603Z" fill="#2D3250"/>
<path fill-rule="evenodd" clip-rule="evenodd" d="M4.2826 1.41316C4.31279 2.18943 4.31279 3.17342 4.31279 3.97341C4.31279 4.37017 4.63479 4.69218 5.03155 4.69218C5.49443 4.69218 6.00618 4.69218 6.46906 4.69218C6.86582 4.69218 7.18782 4.37017 7.18782 3.97341C7.18782 3.18133 7.18782 2.20596 7.18782 1.43975C7.1871 0.884861 7.50551 0.379568 8.00577 0.140219C8.50602 -0.0984123 9.099 -0.0286922 9.53026 0.320629L9.5626 0.347944C10.7428 1.42538 11.5004 2.97145 11.5004 4.69218C11.5004 5.73008 11.2244 6.70401 10.7428 7.54497C10.6149 7.7685 10.377 7.90651 10.1189 7.90651H7.90658C7.71611 7.90651 7.53283 7.98198 7.39842 8.1171C7.26329 8.25151 7.18782 8.4348 7.18782 8.62527V9.67252C7.18782 10.0297 6.92476 10.3331 6.57113 10.3841C6.30303 10.4222 6.02918 10.4423 5.75031 10.4423C2.57699 10.4423 0.000244141 7.86554 0.000244141 4.69218C0.000244141 2.9657 0.762845 1.41531 1.96892 0.361598C1.97611 0.355129 1.98258 0.349381 1.98977 0.343631C2.41168 0.00221593 2.99243 -0.0660662 3.4819 0.167533C3.96419 0.398258 4.27325 0.88055 4.2826 1.41316ZM8.62534 1.43975V3.97341C8.62534 5.16441 7.66005 6.12971 6.46906 6.12971C6.00618 6.12971 5.49443 6.12971 5.03155 6.12971C3.84057 6.12971 2.87528 5.16441 2.87528 3.97341C2.87528 3.20289 2.87527 2.25771 2.84724 1.50444C1.98186 2.29293 1.43776 3.4293 1.43776 4.69218C1.43776 7.07202 3.3705 9.00478 5.75031 9.00478V8.62527C5.75031 8.05313 5.97743 7.50472 6.38209 7.10077C6.78604 6.6961 7.33445 6.46897 7.90658 6.46897H9.68048C9.92629 5.92702 10.0629 5.32541 10.0629 4.69218C10.0629 3.40702 9.49935 2.25268 8.62534 1.43975Z" fill="#2D3250"/>
<path fill-rule="evenodd" clip-rule="evenodd" d="M10.0629 23.001H18.688C19.0847 23.001 19.4067 22.679 19.4067 22.2822C19.4067 21.8855 19.0847 21.5635 18.688 21.5635H10.0629C9.66612 21.5635 9.34412 21.8855 9.34412 22.2822C9.34412 22.679 9.66612 23.001 10.0629 23.001Z" fill="#2D3250"/>
</svg>
