<svg width="24" height="24" viewBox="0 0 24 24" fill="none" xmlns="http://www.w3.org/2000/svg">
<path d="M16.5116 10.7393C15.9938 10.7393 15.5741 11.159 15.5741 11.6768V16.1878C15.5741 16.6444 15.9031 17.0346 16.3531 17.1118C16.4199 17.1233 16.4565 17.1296 16.9822 17.1296C17.2287 17.1296 17.5828 17.1282 18.0978 17.1253C18.6156 17.1224 19.033 16.7004 19.0301 16.1826C19.0272 15.6666 18.608 15.2504 18.0927 15.2504C18.091 15.2504 18.0891 15.2504 18.0874 15.2504C17.8754 15.2515 17.6548 15.2525 17.4491 15.2532V11.6768C17.4491 11.159 17.0294 10.7393 16.5116 10.7393Z" fill="#2D3250"/>
<path d="M7.48076 15.2544C6.96931 15.2544 6.67897 14.9779 6.60214 14.8931C6.25329 14.5082 5.65756 14.4801 5.27408 14.8314C4.8935 15.1801 4.88197 15.7949 5.2325 16.1738C5.79476 16.7815 6.6124 17.1294 7.48076 17.1294C8.61326 17.1294 9.56675 16.3929 9.74792 15.3782C9.88048 14.6357 9.5539 13.591 8.19725 13.0906C7.77247 12.9339 7.37009 12.7661 7.13984 12.6676C7.15376 12.6603 7.17181 12.6527 7.19501 12.6457C7.64136 12.5113 8.09187 12.8631 8.09637 12.8667L8.13744 12.8843C8.52134 13.0487 8.96773 12.939 9.23169 12.6153C9.5983 12.1657 9.47206 11.4945 8.96726 11.2085C8.33394 10.8497 7.55262 10.5797 6.65422 10.8504C5.89034 11.0805 5.34908 11.6883 5.24164 12.4367C5.13955 13.1479 5.44826 13.8323 6.04733 14.2228C6.08876 14.2498 6.13226 14.2735 6.17736 14.2937C6.20394 14.3055 6.83661 14.5871 7.54836 14.8497C7.7743 14.933 7.87165 15.0225 7.89837 15.0602C7.87451 15.1154 7.74697 15.2544 7.48076 15.2544Z" fill="#2D3250"/>
<path d="M12.5966 15.2544C12.0852 15.2544 11.7948 14.9779 11.718 14.8931C11.3691 14.5082 10.7734 14.4801 10.3899 14.8314C10.0093 15.1801 9.99781 15.7949 10.3483 16.1738C10.9106 16.7815 11.7282 17.1294 12.5966 17.1294C13.7291 17.1294 14.6826 16.3929 14.8638 15.3782C14.9963 14.6357 14.6697 13.591 13.3131 13.0906C12.8883 12.9339 12.4859 12.7661 12.2557 12.6676C12.2696 12.6603 12.2877 12.6527 12.3109 12.6457C12.7572 12.5113 13.2077 12.8631 13.2122 12.8667L13.2533 12.8843C13.6372 13.0487 14.0836 12.939 14.3475 12.6153C14.7142 12.1657 14.5879 11.4945 14.0831 11.2085C13.4498 10.8497 12.6685 10.5797 11.7701 10.8504C11.0062 11.0805 10.4649 11.6883 10.3575 12.4367C10.2554 13.1479 10.5641 13.8323 11.1632 14.2228C11.2046 14.2498 11.2481 14.2735 11.2932 14.2937C11.3198 14.3055 11.9525 14.5871 12.6642 14.8497C12.8901 14.933 12.9875 15.0225 13.0142 15.0602C12.9904 15.1154 12.8628 15.2544 12.5966 15.2544Z" fill="#2D3250"/>
<path d="M23.0967 12.5538C23.6047 12.5357 24 12.1028 24 11.5944V11.5829C24 9.68212 22.5786 8.10717 20.7428 7.86511V5.93536C20.7428 5.93386 20.7426 5.92223 20.7421 5.90372C20.7358 5.66428 20.6377 5.43591 20.4682 5.26659C20.4681 5.2665 20.468 5.26645 20.468 5.26641L15.4713 0.274266L15.4704 0.273328C15.2958 0.0983437 15.0587 0 14.8115 0H14.8045H6.97767C4.92614 0 3.25716 1.66791 3.25716 3.71803V7.86516C1.42144 8.10717 0 9.68212 0 11.5829V16.3385C0 18.2392 1.42144 19.8142 3.25716 20.0562V20.2179C3.25716 22.2681 4.92614 23.9359 6.97767 23.9359H17.0223C19.0738 23.9359 20.7428 22.268 20.7428 20.2179V20.0562C22.5786 19.8142 24 18.2392 24 16.3385V16.3269C24 15.8185 23.6047 15.3856 23.0967 15.3675C22.5633 15.3486 22.125 15.7753 22.125 16.3044V16.3385C22.125 17.374 21.2855 18.2135 20.25 18.2135H3.75C2.71448 18.2135 1.875 17.374 1.875 16.3385V11.5829C1.875 10.5473 2.71448 9.70786 3.75 9.70786H20.25C21.2855 9.70786 22.125 10.5473 22.125 11.5829V11.6169C22.125 12.146 22.5633 12.5727 23.0967 12.5538ZM18.8678 20.0885V20.2179C18.8678 21.2342 18.0399 22.0609 17.0223 22.0609H6.97767C5.96006 22.0609 5.13216 21.2341 5.13216 20.2179V20.0885H18.8678ZM17.5399 4.99144C16.563 4.96439 15.7736 4.17567 15.7469 3.20011L17.5399 4.99144ZM5.13216 7.83286V3.71798C5.13216 2.70173 5.96006 1.87495 6.97767 1.87495H13.8712V3.14911C13.8712 5.19923 15.5402 6.86714 17.5917 6.86714H18.8678V7.83286H5.13216Z" fill="#2D3250"/>
</svg>
