<svg width="25" height="24" viewBox="0 0 25 24" fill="none" xmlns="http://www.w3.org/2000/svg">
<g clip-path="url(#clip0_1492_299)">
<path d="M17.3232 10.7393C16.8055 10.7393 16.3857 11.159 16.3857 11.6768V16.1878C16.3857 16.6444 16.7147 17.0346 17.1647 17.1118C17.2315 17.1233 17.2682 17.1296 17.7939 17.1296C18.0404 17.1296 18.3944 17.1282 18.9095 17.1253C19.4272 17.1224 19.8446 16.7004 19.8417 16.1826C19.8388 15.6666 19.4197 15.2504 18.9043 15.2504H18.899C18.6871 15.2515 18.4664 15.2525 18.2608 15.2532V11.6768C18.2607 11.159 17.841 10.7393 17.3232 10.7393Z" fill="#F51322"/>
<path d="M8.29253 15.254C7.78108 15.254 7.49073 14.9774 7.41391 14.8926C7.06506 14.5077 6.46933 14.4796 6.08584 14.831C5.70527 15.1796 5.69373 15.7944 6.04427 16.1733C6.60653 16.781 7.42417 17.129 8.29253 17.129C9.42503 17.129 10.3785 16.3925 10.5597 15.3778C10.6923 14.6352 10.3657 13.5905 9.00902 13.0901C8.58423 12.9334 8.18186 12.7656 7.95161 12.6671C7.96553 12.6598 7.98358 12.6522 8.00678 12.6452C8.45313 12.5108 8.90364 12.8626 8.90814 12.8662L8.9492 12.8838C9.33311 13.0482 9.7795 12.9385 10.0435 12.6148C10.4101 12.1652 10.2838 11.494 9.77903 11.208C9.1457 10.8493 8.36439 10.5792 7.46598 10.8499C6.70211 11.08 6.16084 11.6878 6.05341 12.4362C5.95131 13.1474 6.26003 13.8318 6.85909 14.2223C6.90053 14.2493 6.94403 14.273 6.98913 14.2932C7.0157 14.305 7.64838 14.5866 8.36013 14.8492C8.58606 14.9325 8.68342 15.022 8.71014 15.0597C8.68628 15.1149 8.55873 15.254 8.29253 15.254Z" fill="#F51322"/>
<path d="M13.4083 15.254C12.8968 15.254 12.6065 14.9774 12.5296 14.8926C12.1808 14.5077 11.5851 14.4796 11.2016 14.831C10.821 15.1796 10.8095 15.7944 11.16 16.1733C11.7223 16.781 12.5399 17.129 13.4083 17.129C14.5408 17.129 15.4942 16.3925 15.6754 15.3778C15.808 14.6352 15.4814 13.5905 14.1247 13.0901C13.7 12.9334 13.2976 12.7656 13.0673 12.6671C13.0813 12.6598 13.0993 12.6522 13.1225 12.6452C13.5688 12.5108 14.0194 12.8626 14.0239 12.8662L14.0649 12.8838C14.4488 13.0482 14.8952 12.9385 15.1592 12.6148C15.5258 12.1652 15.3996 11.494 14.8948 11.208C14.2614 10.8493 13.4801 10.5792 12.5817 10.8499C11.8178 11.08 11.2766 11.6878 11.1691 12.4362C11.067 13.1474 11.3758 13.8318 11.9748 14.2223C12.0163 14.2493 12.0598 14.273 12.1048 14.2932C12.1314 14.305 12.7641 14.5866 13.4758 14.8492C13.7018 14.9325 13.7991 15.022 13.8259 15.0597C13.802 15.1149 13.6745 15.254 13.4083 15.254Z" fill="#F51322"/>
<path d="M23.9082 12.5538C24.4162 12.5357 24.8115 12.1028 24.8115 11.5944V11.5829C24.8115 9.68212 23.3901 8.10717 21.5544 7.86511V5.93536C21.5544 5.93386 21.5541 5.92223 21.5536 5.90372C21.5473 5.66428 21.4492 5.43591 21.2797 5.26659C21.2797 5.26663 21.2796 5.2665 21.2797 5.26659L16.2829 0.274266L16.2819 0.273328C16.1073 0.0983437 15.8702 0 15.623 0H15.616H7.7892C5.73766 0 4.06868 1.66791 4.06868 3.71803V7.86516C2.23296 8.10717 0.811523 9.68212 0.811523 11.5829V16.3385C0.811523 18.2392 2.23296 19.8142 4.06868 20.0562V20.2179C4.06868 22.2681 5.73766 23.9359 7.7892 23.9359H17.8338C19.8853 23.9359 21.5543 22.268 21.5543 20.2179V20.0562C23.3901 19.8142 24.8115 18.2392 24.8115 16.3385V16.3269C24.8115 15.8185 24.4162 15.3856 23.9082 15.3675C23.3749 15.3486 22.9365 15.7753 22.9365 16.3044V16.3385C22.9365 17.374 22.097 18.2135 21.0615 18.2135H4.56152C3.52601 18.2135 2.68652 17.374 2.68652 16.3385V11.5829C2.68652 10.5473 3.52601 9.70786 4.56152 9.70786H21.0615C22.097 9.70786 22.9365 10.5473 22.9365 11.5829V11.6169C22.9365 12.146 23.3749 12.5727 23.9082 12.5538ZM19.6794 20.0885V20.2179C19.6794 21.2342 18.8515 22.0609 17.8339 22.0609H7.7892C6.77159 22.0609 5.94368 21.2341 5.94368 20.2179V20.0885H19.6794ZM18.3514 4.99144C17.3746 4.96439 16.5851 4.17567 16.5584 3.20011L18.3514 4.99144ZM5.94368 7.83286V3.71798C5.94368 2.70173 6.77159 1.87495 7.7892 1.87495H14.6827V3.14911C14.6827 5.19923 16.3517 6.86714 18.4032 6.86714H19.6794V7.83286H5.94368Z" fill="#F51322"/>
</g>
<defs>
<clipPath id="clip0_1492_299">
<rect width="25" height="24" fill="white"/>
</clipPath>
</defs>
</svg>
