<svg width="20" height="20" viewBox="0 0 20 20" fill="none" xmlns="http://www.w3.org/2000/svg">
<path fill-rule="evenodd" clip-rule="evenodd" d="M10.1522 2.0041C11.6632 1.95378 13.1898 2.36603 14.5079 3.2458C15.9882 4.23496 17.0227 5.69565 17.4992 7.32857C17.6308 7.3125 17.7883 7.31959 17.9754 7.37251C18.674 7.57072 19.1994 8.14314 19.4357 8.64728C19.7421 9.30428 19.8713 10.1732 19.735 11.0702C19.5996 11.9644 19.2219 12.7015 18.7494 13.1591C18.2755 13.6169 17.7404 13.7657 17.2088 13.654C16.4174 13.4851 16.025 13.3587 16.1358 12.6214L16.6723 9.04724C16.5641 7.11288 15.5627 5.29191 13.8877 4.17211C11.6458 2.67456 8.70641 2.77048 6.56793 4.41214C5.0803 5.55272 4.2166 7.26171 4.1169 9.05575L4.49206 11.5559C5.32883 13.8458 7.40329 15.432 9.80376 15.6571H11.4022C11.8147 15.6571 12.1468 15.9893 12.1468 16.4013V16.7939C12.1468 17.2062 11.8147 17.5383 11.4022 17.5383H9.38679C8.97455 17.5383 8.64381 17.2062 8.64381 16.7939V16.5886C6.83371 16.1468 5.25371 15.0344 4.22487 13.483L3.57921 13.6542C3.05381 13.7905 2.51233 13.6169 2.03866 13.1593C1.56618 12.7015 1.18866 11.9646 1.05306 11.0704C0.916271 10.1734 1.04928 9.30593 1.35214 8.64752C1.65619 7.98911 2.10907 7.57096 2.63187 7.42094C2.85087 7.35786 3.08853 7.33471 3.29241 7.32857C3.72332 5.85204 4.61042 4.50923 5.88897 3.52882C7.14602 2.56424 8.64121 2.05372 10.1522 2.0041Z" fill="#2A1E1E"/>
<path fill-rule="evenodd" clip-rule="evenodd" d="M7.79552 8.43419C7.26279 8.43419 6.83094 8.86605 6.82976 9.40019C6.83094 9.93292 7.26279 10.366 7.79552 10.366C8.32967 10.366 8.7627 9.93292 8.7627 9.40019C8.7627 8.86628 8.32943 8.43419 7.79552 8.43419ZM10.3966 8.43419C9.86266 8.43419 9.4308 8.86605 9.4308 9.40019C9.4308 9.93292 9.86266 10.366 10.3966 10.366C10.931 10.366 11.3628 9.93292 11.3628 9.40019C11.3628 8.86628 10.931 8.43419 10.3966 8.43419ZM12.9967 8.43419C12.4639 8.43419 12.0309 8.86605 12.0309 9.40019C12.0309 9.93292 12.4639 10.366 12.9967 10.366C13.5306 10.366 13.9627 9.93292 13.9627 9.40019C13.9627 8.86628 13.5306 8.43419 12.9967 8.43419ZM10.3966 4.28528C13.2291 4.28528 15.5117 6.49274 15.5117 9.40019C15.5117 10.7966 14.9837 12.0308 14.1236 12.9363L14.4288 14.3046C14.5294 14.7549 14.2171 15.0578 13.8124 14.8324L12.4762 14.087C11.8412 14.3627 11.1388 14.5151 10.3966 14.5151C7.56306 14.5151 5.28189 12.3091 5.28189 9.40019C5.28189 6.49274 7.56306 4.28528 10.3966 4.28528Z" fill="#9494A0"/>
</svg>
