<svg width="24" height="24" viewBox="0 0 24 24" fill="none" xmlns="http://www.w3.org/2000/svg">
<g clip-path="url(#clip0_505_115)">
<path d="M3.00024 20.8182C3.00024 19.814 3.81427 19 4.81843 19H9.18206C10.1862 19 11.0002 19.814 11.0002 20.8182V23H3.00024V20.8182Z" stroke="#2D3250" stroke-width="1.81818"/>
<path d="M1 23H13" stroke="#2D3250" stroke-width="1.81818" stroke-linecap="round"/>
<path d="M22.9999 19L13.9381 9.93819M15.7502 14.6505L18.6504 11.7503M7.77564 8.8512L12.851 3.77583L16.4757 7.40056L11.4004 12.4759L7.77564 8.8512ZM18.6508 6.67533C17.8499 7.4762 16.5516 7.4763 15.7508 6.67554L13.576 4.50071C12.7752 3.69996 12.7753 2.40159 13.5762 1.60072C14.377 0.799845 15.6754 0.799749 16.4762 1.6005L18.651 3.77534C19.4518 4.57609 19.4517 5.87446 18.6508 6.67533ZM10.6752 14.6509C9.87434 15.4518 8.57597 15.4519 7.77522 14.6511L5.60038 12.4763C4.79963 11.6755 4.79972 10.3772 5.60059 9.57629C6.40147 8.77542 7.69984 8.77532 8.50059 9.57607L10.6754 11.7509C11.4762 12.5517 11.4761 13.85 10.6752 14.6509Z" stroke="#2D3250" stroke-width="1.81818" stroke-linecap="round"/>
</g>
<defs>
<clipPath id="clip0_505_115">
<rect width="24" height="24" fill="white"/>
</clipPath>
</defs>
</svg>
