<svg width="25" height="24" viewBox="0 0 25 24" fill="none" xmlns="http://www.w3.org/2000/svg">
<g clip-path="url(#clip0_1492_234)">
<mask id="mask0_1492_234" style="mask-type:luminance" maskUnits="userSpaceOnUse" x="0" y="0" width="25" height="24">
<path d="M24.8118 0H0.811768V24H24.8118V0Z" fill="white"/>
</mask>
<g mask="url(#mask0_1492_234)">
<path d="M3.81201 20.8177C3.81201 19.8135 4.62604 18.9995 5.63019 18.9995H9.99383C10.998 18.9995 11.812 19.8135 11.812 20.8177V22.9995H3.81201V20.8177Z" stroke="#F51322" stroke-width="1.81818"/>
<path d="M1.81177 23H13.8118" stroke="#F51322" stroke-width="1.81818" stroke-linecap="round"/>
<path d="M23.8115 19L14.7497 9.93819M16.5618 14.6505L19.4621 11.7503M8.58729 8.8512L13.6627 3.77583L17.2874 7.40056L12.212 12.4759L8.58729 8.8512ZM19.4624 6.67533C18.6616 7.4762 17.3632 7.4763 16.5624 6.67554L14.3876 4.50071C13.5869 3.69996 13.587 2.40159 14.3878 1.60072C15.1887 0.799845 16.4871 0.799749 17.2878 1.6005L19.4627 3.77534C20.2634 4.57609 20.2633 5.87446 19.4624 6.67533ZM11.4869 14.6509C10.686 15.4518 9.38762 15.4519 8.58686 14.6511L6.41203 12.4763C5.61127 11.6755 5.61137 10.3772 6.41224 9.57629C7.21311 8.77542 8.51149 8.77532 9.31224 9.57607L11.4871 11.7509C12.2878 12.5517 12.2877 13.85 11.4869 14.6509Z" stroke="#F51322" stroke-width="1.81818" stroke-linecap="round"/>
</g>
</g>
<defs>
<clipPath id="clip0_1492_234">
<rect width="25" height="24" fill="white"/>
</clipPath>
</defs>
</svg>
