<svg width="20" height="20" viewBox="0 0 20 20" fill="none" xmlns="http://www.w3.org/2000/svg">
<g clip-path="url(#clip0_1367_2611)">
<path d="M11.8971 1H3.10294C1.94059 1 1 1.93714 1 3.09524V14.9048C1 16.0629 1.94059 17 3.10294 17H9.33529C8.69294 15.9867 8.26471 14.7905 8.26471 13.419V11.56C8.15 11.6286 8.02 11.6667 7.88235 11.6667H4.05882C3.63824 11.6667 3.29412 11.3238 3.29412 10.9048C3.29412 10.4857 3.63824 10.1429 4.05882 10.1429H7.88235C8.02765 10.1429 8.15765 10.181 8.27235 10.2495C8.30294 9.60191 8.60882 9.00762 9.09059 8.61905H4.05882C3.63824 8.61905 3.29412 8.27619 3.29412 7.85714C3.29412 7.4381 3.63824 7.09524 4.05882 7.09524H10.9412C11.2624 7.09524 11.5376 7.29333 11.6524 7.57524L13.8318 6.83619C13.8853 6.81333 13.9388 6.7981 14 6.79048V3.09524C14 1.93714 13.0594 1 11.8971 1ZM7.11765 5.57143H4.05882C3.63824 5.57143 3.29412 5.22857 3.29412 4.80952C3.29412 4.39048 3.63824 4.04762 4.05882 4.04762H7.11765C7.53824 4.04762 7.88235 4.39048 7.88235 4.80952C7.88235 5.22857 7.53824 5.57143 7.11765 5.57143Z" fill="#B0B0B4"/>
<path d="M18.5119 9.39527L14.7322 8.0404C14.5817 7.98653 14.4183 7.98653 14.2678 8.0404L10.4881 9.39527C10.1965 9.49996 10 9.78899 10 10.1137V13.1618C10 17.0056 14.0454 18.8627 14.2174 18.9401C14.3081 18.9803 14.4046 19 14.5004 19C14.5961 19 14.6926 18.9803 14.7826 18.9393C14.9546 18.8619 19 17.0056 19 13.1618V10.1137C19 9.78823 18.8042 9.49996 18.5119 9.39527ZM17.0562 12.2484L14.8963 15.2828C14.7711 15.4588 14.5803 15.5688 14.3715 15.584C14.3542 15.5855 14.3369 15.5863 14.3204 15.5863C14.1296 15.5863 13.9467 15.5074 13.8114 15.364L12.3715 13.8468C12.09 13.5502 12.09 13.0707 12.3715 12.7741C12.653 12.4775 13.108 12.4775 13.3895 12.7741L14.2426 13.6731L15.9042 11.3381C16.1425 11.0035 16.594 10.9345 16.9114 11.1863C17.2304 11.4374 17.2952 11.9131 17.0562 12.2484Z" fill="#2A1E1E"/>
</g>
<defs>
<clipPath id="clip0_1367_2611">
<rect width="20" height="20" fill="white"/>
</clipPath>
</defs>
</svg>
