<svg width="20" height="20" viewBox="0 0 20 20" fill="none" xmlns="http://www.w3.org/2000/svg">
<path d="M5.99453 5.9856C6.51566 5.4646 7.12257 5.05537 7.79877 4.7693C8.49943 4.47306 9.24298 4.32281 10.0089 4.32281C10.7749 4.32281 11.5184 4.47306 12.2191 4.7693C12.8953 5.05537 13.5023 5.4646 14.0233 5.9856C14.2485 6.21076 14.4528 6.45215 14.6352 6.70811V6.09928C14.6352 4.147 13.0469 2.55872 11.0946 2.55872H6.70262V1L1 4.59321L5.08712 7.16849C5.33497 6.73767 5.63863 6.34149 5.99453 5.9856Z" fill="#2A1E1E"/>
<path d="M19.018 15.4063L14.9309 12.8311C14.683 13.2619 14.3794 13.6579 14.0235 14.0139C13.5023 14.5349 12.8954 14.9442 12.2192 15.2301C11.5186 15.5265 10.775 15.6767 10.0091 15.6767C9.24312 15.6767 8.49957 15.5265 7.79891 15.2301C7.12271 14.9442 6.51567 14.5349 5.99467 14.0139C5.7695 13.7888 5.56523 13.5474 5.38281 13.2914V13.9003C5.38281 15.8525 6.97109 17.4408 8.92337 17.4408H13.3155V18.9995L19.018 15.4063Z" fill="#2A1E1E"/>
<path fill-rule="evenodd" clip-rule="evenodd" d="M14.4036 12.3871H12.4128C12.5424 11.7546 12.6193 11.0681 12.6389 10.3571H15C14.9479 11.088 14.738 11.776 14.4036 12.3871ZM11.4855 14.7759C11.6529 14.536 11.8073 14.2525 11.9458 13.9279C12.0553 13.6713 12.1526 13.3945 12.2376 13.1014H13.9292C13.3089 13.8816 12.4605 14.4736 11.4855 14.7759ZM6.0677 13.1014H7.76262C7.8476 13.3945 7.94494 13.6713 8.05444 13.9279C8.19339 14.2536 8.34847 14.5379 8.51634 14.7782C7.74668 14.5415 7.04133 14.1198 6.45546 13.5356C6.31695 13.3973 6.18783 13.2522 6.0677 13.1014ZM8.51473 5.2241C8.34729 5.46398 8.19294 5.74748 8.05442 6.07214C7.94494 6.32867 7.8476 6.60552 7.7626 6.89861H6.07097C6.69134 6.11847 7.53975 5.52644 8.51473 5.2241ZM13.9292 6.89859H12.2376C12.1526 6.60552 12.0553 6.32865 11.9458 6.07212C11.8073 5.74746 11.6529 5.46398 11.4855 5.22408C12.4605 5.52644 13.3089 6.11847 13.9292 6.89859ZM12.6389 9.64279C12.6193 8.93186 12.5424 8.24536 12.4128 7.6129H14.4036C14.738 8.22399 14.9478 8.91198 15 9.64279H12.6389ZM11.6817 7.6129C11.8146 8.21219 11.9012 8.89575 11.9226 9.64279H8.07766C8.09899 8.89575 8.18555 8.21219 8.31847 7.6129H11.6817ZM10 5C9.46336 5 8.89071 5.71199 8.51031 6.89859H11.4899C11.1095 5.71199 10.5369 5 10 5ZM5.5966 7.6129H7.58735C7.45782 8.24536 7.38085 8.93186 7.36131 9.64279H5.00022C5.05236 8.91196 5.26225 8.22399 5.5966 7.6129ZM5 10.3571H7.36133C7.38085 11.0681 7.45782 11.7546 7.58737 12.3871H5.59323C5.25348 11.7654 5.05056 11.0762 5 10.3571ZM8.31847 12.3871C8.18555 11.7878 8.09899 11.1044 8.07766 10.3571H11.9226C11.9012 11.1044 11.8147 11.7878 11.6817 12.3871H8.31847ZM10 15C10.5369 15 11.1095 14.288 11.4899 13.1014H8.51031C8.89071 14.288 9.46336 15 10 15Z" fill="#9494A0"/>
</svg>
