<svg width="22" height="16" viewBox="0 0 22 16" fill="none" xmlns="http://www.w3.org/2000/svg">
<path d="M17.2755 5.45433C16.6384 2.31827 13.8096 0 10.5417 0C6.7503 0 3.66665 3.04547 3.66665 6.79186C3.66665 6.94489 3.67305 7.10068 3.6868 7.26729C1.6179 7.48374 0 9.2188 0 11.3198C0 11.6829 0.0586524 12.0488 0.185152 12.4699C0.257555 12.7098 0.512402 12.8493 0.754402 12.776C0.997305 12.7053 1.13575 12.4536 1.06425 12.2136C0.963402 11.8776 0.916652 11.5933 0.916652 11.3198C0.916652 9.57202 2.3558 8.15023 4.09565 8.14845C4.2469 8.17018 4.444 8.11674 4.54575 8.00085C4.63285 7.90216 4.67225 7.77082 4.653 7.64042C4.60535 7.3153 4.58335 7.04545 4.58335 6.7919C4.58335 3.54722 7.25635 0.905609 10.5417 0.905609C13.4851 0.905609 16.0178 3.07718 16.4331 5.95693C16.4652 6.18424 16.7328 6.3427 16.9583 6.3391C19.2326 6.3391 21.0833 8.16746 21.0833 10.4142C21.0833 12.3476 19.6918 14.0275 17.7751 14.4078C17.5267 14.4576 17.3663 14.6958 17.4158 14.9412C17.4598 15.1558 17.6513 15.3043 17.8649 15.3043C17.8952 15.3043 17.9254 15.3016 17.9557 15.2953C20.2996 14.8289 22 12.7768 22 10.4142C22 7.79616 19.9457 5.64357 17.2755 5.45433Z" fill="#2D3250"/>
</svg>
