<svg width="24" height="24" viewBox="0 0 24 24" fill="none" xmlns="http://www.w3.org/2000/svg">
<g clip-path="url(#clip0_561_11)">
<path fill-rule="evenodd" clip-rule="evenodd" d="M23.9861 6.47515C24.0215 5.78186 23.763 5.10586 23.2731 4.61348C22.784 4.12109 22.1096 3.85843 21.4155 3.88972C18.9503 3.98688 16.4777 3.54142 14.0075 1.53731C14.0059 1.53566 14.0034 1.53402 14.0018 1.53237C13.1207 0.830025 11.8733 0.821789 10.9832 1.51261C10.9816 1.51343 10.9799 1.51425 10.9791 1.5159C8.48921 3.47226 5.99766 3.88889 3.50857 3.84608C2.83092 3.83126 2.17304 4.09969 1.69713 4.58877C1.22039 5.07786 0.969254 5.74315 1.00301 6.42492C1.56456 18.3426 8.94949 22.0964 11.5563 23.203C12.1483 23.455 12.8153 23.4657 13.4155 23.2326C13.418 23.2318 13.4205 23.231 13.4229 23.2293C16.0298 22.1878 23.3941 18.476 23.9861 6.47515ZM22.341 6.39116V6.3928C21.8033 17.31 15.1948 20.7469 12.8169 21.6987C12.6185 21.7744 12.397 21.7711 12.201 21.688C12.201 21.6872 12.201 21.6871 12.2002 21.6871C9.82392 20.6785 3.15945 17.2129 2.64813 6.34505C2.64813 6.34422 2.64813 6.34423 2.64813 6.3434C2.63661 6.11862 2.71977 5.89877 2.87621 5.73739C3.03348 5.57683 3.25085 5.4879 3.47563 5.49284H3.48057C6.31878 5.54142 9.15369 5.04328 11.9927 2.81356C12.2825 2.5896 12.6876 2.59207 12.9742 2.81932C15.8124 5.12068 18.6481 5.64682 21.4855 5.53484H21.4904C21.7202 5.52414 21.9433 5.61142 22.1055 5.77445C22.2677 5.93748 22.3533 6.16143 22.341 6.39116ZM16.6111 13.6402V11.8708L18.4382 14.1548C18.6564 14.4274 19.0236 14.5328 19.3538 14.4175C19.6839 14.3014 19.9046 13.9902 19.9046 13.6402V9.52331C19.9046 9.0688 19.5357 8.69993 19.0812 8.69993C18.6267 8.69993 18.2578 9.0688 18.2578 9.52331V11.2928L16.4307 9.00869C16.2126 8.73615 15.8453 8.63076 15.5151 8.74603C15.185 8.86213 14.9643 9.17337 14.9643 9.52331V13.6402C14.9643 14.0947 15.3332 14.4636 15.7877 14.4636C16.2422 14.4636 16.6111 14.0947 16.6111 13.6402ZM4.3196 9.82879L5.96637 13.9457C6.0907 14.2586 6.3937 14.4636 6.73047 14.4636C7.06723 14.4636 7.37024 14.2586 7.49457 13.9457L9.14133 9.82879C9.31013 9.40721 9.10511 8.92718 8.68271 8.75921C8.26114 8.59042 7.7811 8.79544 7.61313 9.21783L6.73047 11.4229L5.8478 9.21783C5.67983 8.79544 5.1998 8.59042 4.77823 8.75921C4.35583 8.92718 4.15081 9.40721 4.3196 9.82879ZM12.495 8.69993H10.8474C10.3929 8.69993 10.024 9.0688 10.024 9.52331V13.6402C10.024 14.0947 10.3929 14.4636 10.8474 14.4636C11.3019 14.4636 11.6708 14.0947 11.6708 13.6402V12.8168H12.495C13.404 12.8168 14.1417 12.0799 14.1417 11.1701V10.3467C14.1417 9.43685 13.404 8.69993 12.495 8.69993ZM12.495 10.3467V11.1701H11.6716V10.3467H12.495Z" fill="#2D3250"/>
</g>
<defs>
<clipPath id="clip0_561_11">
<rect width="24" height="24" fill="white"/>
</clipPath>
</defs>
</svg>
