<svg width="24" height="24" viewBox="0 0 24 24" fill="none" xmlns="http://www.w3.org/2000/svg">
<path d="M18.4799 6.6502C17.8399 3.5202 15.01 1.2002 11.74 1.2002C7.94995 1.2002 4.86995 4.2502 4.86995 7.9902C4.86995 8.1402 4.86995 8.3002 4.88995 8.4702C2.81995 8.6802 1.19995 10.4202 1.19995 12.5202C1.19995 12.8802 1.25995 13.2502 1.38995 13.6702C1.45995 13.9102 1.71995 14.0502 1.95995 13.9802C2.19995 13.9102 2.33995 13.6602 2.26995 13.4202C2.16995 13.0802 2.11995 12.8002 2.11995 12.5302C2.11995 10.7802 3.55995 9.3602 5.29995 9.3602C5.44995 9.3802 5.64995 9.3302 5.74995 9.2102C5.83995 9.1102 5.87995 8.9802 5.85995 8.8502C5.80995 8.5202 5.78995 8.2602 5.78995 8.0002C5.78995 4.7602 8.45995 2.1102 11.75 2.1102C14.69 2.1102 17.2299 4.2802 17.6399 7.1602C17.6699 7.3902 17.94 7.5502 18.17 7.5402C20.44 7.5402 22.2999 9.3702 22.2999 11.6202C22.2999 13.5502 20.91 15.2302 18.99 15.6102C18.74 15.6602 18.5799 15.9002 18.6299 16.1402C18.6699 16.3502 18.87 16.5002 19.08 16.5002C19.11 16.5002 19.14 16.5002 19.17 16.5002C21.51 16.0302 23.2099 13.9802 23.2099 11.6202C23.2099 9.0002 21.16 6.8502 18.49 6.6602L18.4799 6.6502Z" fill="#2D3250" stroke="#2D3250" stroke-width="0.4" stroke-miterlimit="10"/>
<path d="M14.848 9.55825C14.7467 9.4588 14.6237 9.40912 14.479 9.40912H14.3055V8.38634C14.3055 7.73294 14.0668 7.17191 13.5894 6.70316C13.1119 6.23439 12.5406 6 11.875 6C11.2094 6 10.6379 6.23439 10.1605 6.70314C9.68306 7.17191 9.44441 7.73292 9.44441 8.38634V9.40912H9.27082C9.12619 9.40912 9.00319 9.4588 8.90191 9.55825C8.80062 9.65761 8.75 9.77838 8.75 9.9205V12.9887C8.75 13.1307 8.80064 13.2515 8.90191 13.3509C9.00319 13.4503 9.12619 13.5 9.27082 13.5H14.4791C14.6239 13.5 14.7468 13.4503 14.8481 13.3509C14.9493 13.2515 15 13.1307 15 12.9887V9.92045C15.0001 9.77843 14.9493 9.65769 14.848 9.55825ZM13.2639 9.40912H10.4861V8.38634C10.4861 8.00994 10.6218 7.68853 10.893 7.42225C11.1643 7.15592 11.4916 7.02279 11.875 7.02279C12.2585 7.02279 12.5857 7.1559 12.857 7.42225C13.1282 7.68852 13.2639 8.00994 13.2639 8.38634V9.40912Z" fill="#2D3250"/>
<path d="M1.91929 15.1074L3.19881 19.5096H3.24451L4.52404 15.1074H6.42809L4.37171 21.3375H2.05638L0 15.1074H1.90405H1.91929Z" fill="#2D3250"/>
<path d="M7.04053 21.3375V15.1074H9.73667C10.1936 15.1074 10.6049 15.1988 10.9553 15.3816C11.3056 15.5644 11.5798 15.8233 11.7626 16.1585C11.9606 16.4936 12.052 16.8744 12.052 17.3161C12.052 17.7579 11.9606 18.1539 11.7474 18.4738C11.5493 18.7937 11.2751 19.0526 10.9096 19.2354C10.5592 19.4182 10.1327 19.4944 9.66051 19.4944H8.0611V18.1844H9.32539C9.52341 18.1844 9.69097 18.1539 9.82806 18.0777C9.96516 18.0016 10.0718 17.9102 10.1479 17.7731C10.2241 17.636 10.2546 17.4837 10.2546 17.3161C10.2546 17.1486 10.2089 16.981 10.1479 16.8592C10.0718 16.7373 9.96516 16.6307 9.82806 16.5697C9.69097 16.5088 9.52341 16.4631 9.32539 16.4631H8.73133V21.3527H7.04053V21.3375Z" fill="#2D3250"/>
<path d="M16.0287 17.0411C16.0135 16.8431 15.9373 16.6756 15.8002 16.5689C15.6632 16.4623 15.4651 16.4014 15.1909 16.4014C15.0082 16.4014 14.8711 16.4166 14.7644 16.4623C14.6578 16.508 14.5664 16.5537 14.5207 16.6299C14.475 16.706 14.4446 16.7822 14.4446 16.8736C14.4446 16.9498 14.4446 17.0107 14.4903 17.0716C14.5207 17.1325 14.5664 17.1782 14.6426 17.2392C14.7187 17.2849 14.7949 17.3306 14.9015 17.3763C15.0082 17.422 15.13 17.4524 15.2823 17.4829L15.8002 17.5895C16.1506 17.6657 16.44 17.7571 16.6837 17.8789C16.9274 18.0008 17.1255 18.1379 17.293 18.3054C17.4453 18.473 17.5672 18.6406 17.6434 18.8538C17.7195 19.0518 17.75 19.2803 17.75 19.5088C17.75 19.9201 17.6434 20.2704 17.4453 20.5446C17.2473 20.834 16.9579 21.0473 16.5771 21.1996C16.1963 21.3519 15.7393 21.4281 15.2214 21.4281C14.7035 21.4281 14.2008 21.3519 13.8048 21.1844C13.4087 21.0168 13.0889 20.7731 12.8604 20.438C12.6319 20.1029 12.5253 19.6764 12.5253 19.1585H14.1399C14.1399 19.3565 14.2008 19.5088 14.277 19.6459C14.3532 19.783 14.475 19.8744 14.6426 19.9353C14.7949 19.9962 14.9777 20.0267 15.1909 20.0267C15.3737 20.0267 15.5261 20.0115 15.6479 19.9658C15.7698 19.9201 15.8612 19.8591 15.9221 19.783C15.983 19.7068 16.0135 19.6154 16.0135 19.5088C16.0135 19.4174 15.983 19.326 15.9221 19.2499C15.8612 19.1737 15.7698 19.1128 15.6327 19.0518C15.4956 18.9909 15.3128 18.9452 15.0843 18.8843L14.4598 18.7472C13.9114 18.6253 13.4697 18.4273 13.1498 18.1379C12.8299 17.8637 12.6776 17.4677 12.6776 16.9802C12.6776 16.5842 12.7842 16.2338 12.9975 15.9444C13.2107 15.655 13.5154 15.4113 13.8962 15.2437C14.277 15.0762 14.7187 15 15.2062 15C15.6936 15 16.1506 15.0762 16.5162 15.259C16.8817 15.4265 17.1712 15.6702 17.3692 15.9749C17.5672 16.2795 17.6738 16.6451 17.6738 17.0411H16.0592H16.0287Z" fill="#2D3250"/>
</svg>
