<svg width="24" height="24" viewBox="0 0 24 24" fill="none" xmlns="http://www.w3.org/2000/svg">
<g clip-path="url(#clip0_1492_254)">
<mask id="mask0_1492_254" style="mask-type:luminance" maskUnits="userSpaceOnUse" x="0" y="0" width="24" height="24">
<path d="M24 0H0V24H24V0Z" fill="white"/>
</mask>
<g mask="url(#mask0_1492_254)">
<path d="M8.00004 14.8462C7.96968 14.8918 7.95349 14.9454 7.95349 15.0002C7.95349 15.055 7.96968 15.1086 8.00004 15.1542C8.33392 15.655 8.7927 16.06 9.33104 16.3292C9.48192 16.4045 9.60301 16.5285 9.67476 16.6811C9.7465 16.8338 9.76471 17.0061 9.72646 17.1704C9.6882 17.3346 9.5957 17.4812 9.4639 17.5864C9.33209 17.6916 9.16868 17.7493 9.00004 17.7502C8.88372 17.7505 8.76897 17.7234 8.66504 17.6712C7.89303 17.2851 7.23505 16.7043 6.75604 15.9862C6.56093 15.6944 6.45679 15.3512 6.45679 15.0002C6.45679 14.6492 6.56093 14.306 6.75604 14.0142C7.23505 13.2961 7.89303 12.7153 8.66504 12.3292C8.84278 12.2422 9.04772 12.2289 9.23518 12.2924C9.42265 12.3558 9.57744 12.4907 9.66584 12.6678C9.75424 12.8449 9.76908 13.0497 9.70711 13.2376C9.64515 13.4256 9.51141 13.5814 9.33504 13.6712C8.79524 13.9398 8.33503 14.3449 8.00004 14.8462ZM17.448 14.0142C16.9685 13.2965 16.3107 12.7159 15.539 12.3292C15.4509 12.2851 15.355 12.2589 15.2567 12.2519C15.1585 12.2449 15.0598 12.2573 14.9663 12.2885C14.8728 12.3197 14.7864 12.3689 14.712 12.4335C14.6376 12.498 14.5766 12.5766 14.5325 12.6647C14.4885 12.7528 14.4622 12.8488 14.4552 12.947C14.4482 13.0453 14.4607 13.144 14.4918 13.2374C14.523 13.3309 14.5722 13.4173 14.6368 13.4917C14.7013 13.5662 14.7799 13.6271 14.868 13.6712C15.4065 13.9406 15.8655 14.3456 16.2 14.8462C16.2303 14.8917 16.2465 14.9451 16.2465 14.9997C16.2465 15.0543 16.2303 15.1077 16.2 15.1532C15.8658 15.6543 15.4067 16.0597 14.868 16.3292C14.6901 16.4182 14.5548 16.5742 14.4918 16.763C14.4289 16.9517 14.4436 17.1577 14.5325 17.3357C14.6215 17.5137 14.7775 17.649 14.9663 17.7119C15.1551 17.7748 15.3611 17.7602 15.539 17.6712C16.3107 17.2845 16.9685 16.7039 17.448 15.9862C17.6437 15.6948 17.7486 15.3518 17.7493 15.0008C17.75 14.6498 17.6466 14.3064 17.452 14.0142H17.448Z" fill="#F51322"/>
<path d="M15 1.25H9C3.568 1.25 1.25 3.568 1.25 9V15C1.25 20.432 3.568 22.75 9 22.75H15C20.432 22.75 22.75 20.432 22.75 15V9C22.75 3.568 20.432 1.25 15 1.25ZM9 2.75H15C18.973 2.75 20.734 3.968 21.148 7.25L2.848 7.263C3.261 3.971 5.021 2.75 9 2.75ZM21.25 15C21.25 19.614 19.614 21.25 15 21.25H9C4.386 21.25 2.75 19.614 2.75 15V9C2.75 8.918 2.75 8.844 2.756 8.764L21.244 8.751C21.244 8.835 21.25 8.913 21.25 9V15Z" fill="#F51322"/>
</g>
</g>
<defs>
<clipPath id="clip0_1492_254">
<rect width="24" height="24" fill="white"/>
</clipPath>
</defs>
</svg>
