<svg width="20" height="20" viewBox="0 0 20 20" fill="none" xmlns="http://www.w3.org/2000/svg">
<path d="M13.5673 5.63333H10.1145C9.87727 5.63333 9.68091 5.43333 9.68091 5.19167C9.68091 4.95 9.87727 4.75 10.1145 4.75H13.5673C13.8045 4.75 14.0009 4.95 14.0009 5.19167C14.0009 5.43333 13.8045 5.63333 13.5673 5.63333ZM6.60455 5.63333C6.36727 5.63333 6.17091 5.43333 6.17091 5.19167C6.17091 4.95 6.36727 4.75 6.60455 4.75C6.84182 4.75 7.03818 4.95 7.03818 5.19167C7.03818 5.43333 6.84182 5.63333 6.60455 5.63333ZM4.87818 5.63333C4.64091 5.63333 4.44455 5.43333 4.44455 5.19167C4.44455 4.95 4.64091 4.75 4.87818 4.75C5.11545 4.75 5.31182 4.95 5.31182 5.19167C5.31182 5.43333 5.11545 5.63333 4.87818 5.63333ZM3.15182 5.63333C2.91455 5.63333 2.71818 5.43333 2.71818 5.19167C2.71818 4.95 2.91455 4.75 3.15182 4.75C3.38909 4.75 3.58545 4.95 3.58545 5.19167C3.58545 5.43333 3.38909 5.63333 3.15182 5.63333ZM14.4345 3H2.29273C1.58091 3 1 3.59167 1 4.31667V6.075C1 6.8 1.58091 7.39167 2.29273 7.39167H14.4345C15.1464 7.39167 15.7273 6.8 15.7273 6.075V4.31667C15.7273 3.59167 15.1464 3 14.4345 3Z" fill="#2A1E1E"/>
<path d="M2.29273 8.30029C1.58091 8.30029 1 8.89196 1 9.62529V11.3753C1 12.1086 1.58091 12.7003 2.29273 12.7003H8.43727C8.75636 10.6336 10.1882 8.95029 12.0864 8.30029H2.29273ZM3.16 10.942C2.92273 10.942 2.72636 10.742 2.72636 10.5003C2.72636 10.2586 2.92273 10.0586 3.16 10.0586C3.39727 10.0586 3.58545 10.2586 3.58545 10.5003C3.58545 10.742 3.39727 10.942 3.16 10.942ZM4.88636 10.942C4.64091 10.942 4.45273 10.742 4.45273 10.5003C4.45273 10.2586 4.64091 10.0586 4.88636 10.0586C5.13182 10.0586 5.31182 10.2586 5.31182 10.5003C5.31182 10.742 5.12364 10.942 4.88636 10.942ZM6.61273 10.942C6.36727 10.942 6.17909 10.742 6.17909 10.5003C6.17909 10.2586 6.36727 10.0586 6.61273 10.0586C6.85818 10.0586 7.03818 10.2586 7.03818 10.5003C7.03818 10.742 6.85 10.942 6.61273 10.942Z" fill="#9494A0"/>
<path d="M8.36364 13.6087H2.29273C1.58091 13.6087 1 14.2004 1 14.9254V16.6837C1 17.4087 1.58091 18.0004 2.29273 18.0004H10.4991C9.20636 16.992 8.37182 15.4004 8.36364 13.6087ZM3.16 16.242C2.92273 16.242 2.72636 16.042 2.72636 15.8004C2.72636 15.5587 2.92273 15.367 3.16 15.367C3.39727 15.367 3.58545 15.5587 3.58545 15.8004C3.58545 16.042 3.39727 16.242 3.16 16.242ZM4.88636 16.242C4.64091 16.242 4.45273 16.042 4.45273 15.8004C4.45273 15.5587 4.64091 15.367 4.88636 15.367C5.13182 15.367 5.31182 15.5587 5.31182 15.8004C5.31182 16.042 5.12364 16.242 4.88636 16.242ZM6.61273 16.242C6.36727 16.242 6.17909 16.042 6.17909 15.8004C6.17909 15.5587 6.36727 15.367 6.61273 15.367C6.85818 15.367 7.03818 15.5587 7.03818 15.8004C7.03818 16.042 6.85 16.242 6.61273 16.242Z" fill="#2A1E1E"/>
<path d="M10.7039 12.222L11.3528 14.496H11.376L12.0249 12.222H12.9906L11.9476 15.4402H10.7734L9.73047 12.222H10.6961H10.7039Z" fill="#9494A0"/>
<path d="M13.3008 15.4402V12.222H14.6682C14.8999 12.222 15.1085 12.2693 15.2862 12.3637C15.4639 12.4581 15.6029 12.5919 15.6956 12.765C15.7961 12.9381 15.8424 13.1348 15.8424 13.363C15.8424 13.5911 15.7961 13.7957 15.6879 13.961C15.5875 14.1262 15.4484 14.26 15.263 14.3544C15.0853 14.4488 14.869 14.4881 14.6295 14.4881H13.8184V13.8115H14.4596C14.56 13.8115 14.645 13.7957 14.7145 13.7564C14.784 13.717 14.8381 13.6698 14.8767 13.599C14.9154 13.5282 14.9308 13.4495 14.9308 13.363C14.9308 13.2764 14.9076 13.1899 14.8767 13.1269C14.8381 13.064 14.784 13.0089 14.7145 12.9774C14.645 12.9459 14.56 12.9223 14.4596 12.9223H14.1583V15.4481H13.3008V15.4402Z" fill="#9494A0"/>
<path d="M17.8589 13.2211C17.8511 13.1188 17.8125 13.0322 17.743 12.9771C17.6734 12.9221 17.573 12.8906 17.434 12.8906C17.3413 12.8906 17.2717 12.8984 17.2177 12.9221C17.1636 12.9457 17.1172 12.9693 17.094 13.0086C17.0709 13.0479 17.0554 13.0873 17.0554 13.1345C17.0554 13.1738 17.0554 13.2053 17.0786 13.2368C17.094 13.2683 17.1172 13.2919 17.1559 13.3233C17.1945 13.3469 17.2331 13.3705 17.2872 13.3942C17.3413 13.4178 17.4031 13.4335 17.4803 13.4492L17.743 13.5043C17.9207 13.5437 18.0674 13.5909 18.191 13.6538C18.3146 13.7168 18.4151 13.7876 18.5001 13.8741C18.5773 13.9607 18.6391 14.0472 18.6777 14.1574C18.7164 14.2597 18.7318 14.3777 18.7318 14.4957C18.7318 14.7082 18.6777 14.8891 18.5773 15.0308C18.4769 15.1803 18.3301 15.2904 18.137 15.3691C17.9438 15.4478 17.7121 15.4871 17.4494 15.4871C17.1868 15.4871 16.9318 15.4478 16.731 15.3613C16.5301 15.2747 16.3679 15.1488 16.252 14.9757C16.1361 14.8026 16.082 14.5823 16.082 14.3148H16.9009C16.9009 14.417 16.9318 14.4957 16.9704 14.5665C17.0091 14.6374 17.0709 14.6846 17.1559 14.716C17.2331 14.7475 17.3258 14.7633 17.434 14.7633C17.5267 14.7633 17.6039 14.7554 17.6657 14.7318C17.7275 14.7082 17.7739 14.6767 17.8048 14.6374C17.8357 14.598 17.8511 14.5508 17.8511 14.4957C17.8511 14.4485 17.8357 14.4013 17.8048 14.362C17.7739 14.3226 17.7275 14.2912 17.658 14.2597C17.5885 14.2282 17.4958 14.2046 17.3799 14.1731L17.0631 14.1023C16.785 14.0394 16.561 13.9371 16.3988 13.7876C16.2365 13.6459 16.1593 13.4414 16.1593 13.1896C16.1593 12.985 16.2134 12.804 16.3215 12.6545C16.4297 12.505 16.5842 12.3791 16.7773 12.2926C16.9704 12.206 17.1945 12.1667 17.4417 12.1667C17.6889 12.1667 17.9207 12.206 18.1061 12.3004C18.2915 12.387 18.4383 12.5129 18.5387 12.6703C18.6391 12.8276 18.6932 13.0165 18.6932 13.2211H17.8743H17.8589Z" fill="#9494A0"/>
</svg>
