<svg width="20" height="20" viewBox="0 0 20 20" fill="none" xmlns="http://www.w3.org/2000/svg">
<path fill-rule="evenodd" clip-rule="evenodd" d="M16.5698 7.65708C16.6435 7.65182 16.7175 7.64917 16.7917 7.64917C18.4888 7.64917 19.8695 9.02987 19.8695 10.727C19.8695 12.1125 18.9491 13.2865 17.6878 13.6712V11.8958C17.6878 10.9291 16.9013 10.1426 15.9346 10.1426H3.93494C2.96823 10.1426 2.18175 10.9291 2.18175 11.8958V13.3621C0.88731 12.6955 0 11.3454 0 9.79196C0 8.19866 0.944931 6.76334 2.38228 6.1244C3.04568 3.71645 5.2556 2 7.753 2C9.74112 2 11.5983 3.1049 12.5917 4.84683C13.6053 4.80935 14.5961 5.15793 15.3612 5.81857C15.9304 6.31001 16.3478 6.94891 16.5698 7.65708ZM8.66655 6.27275C8.75919 6.27275 8.83786 6.30587 8.90269 6.37216C8.96754 6.43846 9.00005 6.51896 9 6.61363V8.6591C9 8.75377 8.96754 8.8343 8.90278 8.90061C8.83793 8.96688 8.75927 9 8.66664 9H5.33333C5.24076 9 5.16204 8.96684 5.09722 8.90061C5.03241 8.8343 5 8.75377 5 8.6591V6.61367C5 6.51892 5.0324 6.43841 5.09722 6.37216C5.16204 6.30587 5.24076 6.27275 5.33333 6.27275H5.44442V5.59089C5.44442 5.15528 5.59716 4.78127 5.90273 4.46876C6.20826 4.15626 6.57401 4 6.99998 4C7.42597 4 7.79164 4.15626 8.09719 4.46877C8.40277 4.78127 8.5555 5.15529 8.5555 5.59089V6.27275H8.66655ZM6.1111 5.59089V6.27275H7.88886V5.59089C7.88886 5.33996 7.80205 5.12568 7.6285 4.94816C7.45485 4.7706 7.24543 4.68186 7.00002 4.68186C6.75463 4.68186 6.54516 4.77061 6.37153 4.94816C6.19792 5.12569 6.1111 5.33996 6.1111 5.59089Z" fill="#9494A0"/>
<path fill-rule="evenodd" clip-rule="evenodd" d="M3.96875 9C2.86418 9 1.96875 9.89543 1.96875 11V17C1.96875 18.1046 2.86418 19 3.96875 19H15.9688C17.0733 19 17.9688 18.1046 17.9688 17V11C17.9688 9.89543 17.0733 9 15.9688 9H3.96875ZM5.49852 15.2112L4.48974 11.7405H4.47773H2.97656L4.59782 16.6524H6.42324L8.04451 11.7405H6.54334L5.53455 15.2112H5.49852ZM8.52734 16.6524V11.7405H10.653C11.0133 11.7405 11.3375 11.8126 11.6137 11.9567C11.89 12.1008 12.1061 12.305 12.2502 12.5692C12.4064 12.8334 12.4784 13.1336 12.4784 13.4819C12.4784 13.8302 12.4064 14.1424 12.2382 14.3946C12.0821 14.6468 11.8659 14.851 11.5777 14.9951C11.3015 15.1392 10.9652 15.1992 10.5929 15.1992H9.86038V16.6644H8.52734V16.6524ZM10.3287 14.1664H9.86038V12.8094H10.3287C10.4849 12.8094 10.617 12.8454 10.7251 12.8934C10.8331 12.9415 10.9172 13.0255 10.9772 13.1216C11.0253 13.2177 11.0613 13.3498 11.0613 13.4819C11.0613 13.614 11.0373 13.7341 10.9772 13.8422C10.9172 13.9503 10.8331 14.0223 10.7251 14.0824C10.617 14.1424 10.4849 14.1664 10.3287 14.1664ZM15.4336 12.8931C15.5417 12.9772 15.6017 13.1093 15.6137 13.2654H15.6377H16.9107C16.9107 12.9531 16.8267 12.6649 16.6705 12.4247C16.5144 12.1845 16.2862 11.9924 15.998 11.8603C15.7098 11.7162 15.3495 11.6561 14.9652 11.6561C14.5809 11.6561 14.2326 11.7162 13.9324 11.8483C13.6322 11.9804 13.392 12.1725 13.2239 12.4007C13.0557 12.6289 12.9717 12.9051 12.9717 13.2173C12.9717 13.6016 13.0917 13.9139 13.3439 14.1301C13.5961 14.3582 13.9444 14.5144 14.3767 14.6104L14.8691 14.7185C14.8875 14.7234 14.9056 14.7282 14.9232 14.7329C15.0783 14.774 15.2044 14.8075 15.3015 14.8506C15.4096 14.8986 15.4816 14.9467 15.5296 15.0067C15.5777 15.0668 15.6017 15.1388 15.6017 15.2109C15.6017 15.295 15.5777 15.367 15.5296 15.4271C15.4816 15.4871 15.4096 15.5351 15.3135 15.5712C15.2174 15.6072 15.0973 15.6192 14.9532 15.6192C14.7851 15.6192 14.641 15.5952 14.5209 15.5472C14.3888 15.4991 14.2927 15.4271 14.2326 15.319C14.1726 15.2109 14.1246 15.0908 14.1246 14.9347H12.8516C12.8516 15.343 12.9356 15.6793 13.1158 15.9435C13.2959 16.2077 13.5481 16.3998 13.8603 16.5319C14.1726 16.664 14.5689 16.7241 14.9772 16.7241C15.3855 16.7241 15.7458 16.664 16.046 16.5439C16.3463 16.4238 16.5745 16.2557 16.7306 16.0275C16.8867 15.8114 16.9708 15.5351 16.9708 15.2109C16.9708 15.0308 16.9467 14.8506 16.8867 14.6945C16.8267 14.5264 16.7306 14.3943 16.6105 14.2622C16.4784 14.1301 16.3223 14.022 16.1301 13.9259C15.938 13.8298 15.7098 13.7578 15.4336 13.6977L15.0253 13.6137C14.9052 13.5896 14.8091 13.5656 14.725 13.5296C14.641 13.4936 14.5809 13.4575 14.5209 13.4215C14.4608 13.3735 14.4248 13.3374 14.4008 13.2894C14.3647 13.2414 14.3647 13.1933 14.3647 13.1333C14.3647 13.0612 14.3888 13.0012 14.4248 12.9411C14.4608 12.8811 14.5329 12.8451 14.6169 12.809C14.701 12.773 14.8091 12.761 14.9532 12.761C15.1694 12.761 15.3255 12.809 15.4336 12.8931Z" fill="#2A1E1E"/>
</svg>
