<svg width="24" height="24" viewBox="0 0 24 24" fill="none" xmlns="http://www.w3.org/2000/svg">
<path d="M10.6221 16.1074L11.7034 20.5135H11.742L12.8233 16.1074H14.4324L12.6946 22.3431H10.7379L9.00012 16.1074H10.6092H10.6221Z" fill="#2D3250"/>
<path d="M14.95 22.3431V16.1074H17.2284C17.6146 16.1074 17.9621 16.1989 18.2582 16.3819C18.5543 16.5648 18.786 16.824 18.9405 17.1594C19.1078 17.4948 19.185 17.876 19.185 18.3181C19.185 18.7602 19.1078 19.1566 18.9276 19.4768C18.7603 19.797 18.5285 20.0561 18.2196 20.2391C17.9235 20.4221 17.5631 20.4983 17.164 20.4983H15.8124V19.1871H16.8808C17.0482 19.1871 17.1898 19.1566 17.3056 19.0804C17.4215 19.0042 17.5116 18.9127 17.576 18.7755C17.6403 18.6383 17.6661 18.4858 17.6661 18.3181C17.6661 18.1504 17.6275 17.9827 17.576 17.8607C17.5116 17.7388 17.4215 17.632 17.3056 17.571C17.1898 17.5101 17.0482 17.4643 16.8808 17.4643H16.3788V22.3583H14.95V22.3431Z" fill="#2D3250"/>
<path d="M22.5454 18.043C22.5325 17.8448 22.4682 17.6771 22.3523 17.5703C22.2365 17.4636 22.0691 17.4026 21.8374 17.4026C21.683 17.4026 21.5671 17.4179 21.477 17.4636C21.3869 17.5094 21.3096 17.5551 21.271 17.6313C21.2324 17.7076 21.2067 17.7838 21.2067 17.8753C21.2067 17.9515 21.2067 18.0125 21.2453 18.0735C21.271 18.1344 21.3096 18.1802 21.374 18.2412C21.4384 18.2869 21.5027 18.3326 21.5928 18.3784C21.683 18.4241 21.7859 18.4546 21.9147 18.4851L22.3523 18.5918C22.6484 18.6681 22.893 18.7595 23.0989 18.8815C23.3049 19.0035 23.4723 19.1407 23.6139 19.3084C23.7426 19.4761 23.8456 19.6438 23.9099 19.8573C23.9743 20.0554 24 20.2841 24 20.5128C24 20.9245 23.9099 21.2751 23.7426 21.5496C23.5752 21.8392 23.3307 22.0527 23.0088 22.2051C22.687 22.3576 22.3008 22.4338 21.8632 22.4338C21.4255 22.4338 21.0007 22.3576 20.666 22.1899C20.3313 22.0222 20.061 21.7783 19.8679 21.4428C19.6748 21.1074 19.5847 20.6805 19.5847 20.1622H20.9492C20.9492 20.3604 21.0007 20.5128 21.0651 20.65C21.1294 20.7873 21.2324 20.8787 21.374 20.9397C21.5027 21.0007 21.6572 21.0312 21.8374 21.0312C21.9919 21.0312 22.1206 21.0159 22.2236 20.9702C22.3266 20.9245 22.4038 20.8635 22.4553 20.7873C22.5068 20.711 22.5325 20.6196 22.5325 20.5128C22.5325 20.4214 22.5068 20.3299 22.4553 20.2536C22.4038 20.1774 22.3266 20.1164 22.2107 20.0554C22.0949 19.9945 21.9404 19.9487 21.7473 19.8877L21.2195 19.7505C20.7561 19.6286 20.3828 19.4304 20.1125 19.1407C19.8422 18.8663 19.7134 18.4699 19.7134 17.982C19.7134 17.5856 19.8036 17.2349 19.9838 16.9453C20.164 16.6556 20.4214 16.4116 20.7433 16.2439C21.0651 16.0762 21.4384 16 21.8503 16C22.2622 16 22.6484 16.0762 22.9573 16.2592C23.2663 16.4269 23.5109 16.6708 23.6782 16.9757C23.8456 17.2807 23.9357 17.6466 23.9357 18.043H22.5712H22.5454Z" fill="#2D3250"/>
<path fill-rule="evenodd" clip-rule="evenodd" d="M4.80275 18.6719C5.24539 18.6719 5.6055 19.032 5.6055 19.4746C5.6055 19.9173 5.24539 20.2774 4.80275 20.2774C4.36011 20.2774 4 19.9173 4 19.4746C4 19.032 4.36011 18.6719 4.80275 18.6719Z" fill="#2D3250"/>
<path fill-rule="evenodd" clip-rule="evenodd" d="M4.80275 11.1973C5.24539 11.1973 5.6055 11.5574 5.6055 12C5.6055 12.4427 5.24539 12.8028 4.80275 12.8028C4.36011 12.8028 4 12.4427 4 12C4 11.5574 4.36011 11.1973 4.80275 11.1973Z" fill="#2D3250"/>
<path fill-rule="evenodd" clip-rule="evenodd" d="M4.80275 3.72949C5.24539 3.72949 5.6055 4.0896 5.6055 4.53224C5.6055 4.97488 5.24539 5.33499 4.80275 5.33499C4.36011 5.33499 4 4.97488 4 4.53224C4 4.0896 4.36011 3.72949 4.80275 3.72949Z" fill="#2D3250"/>
<path d="M23.9925 5.06567V4C23.9925 2.92683 23.5726 1.9212 22.8229 1.17073C22.0656 0.412758 22.06 0 20.9953 0H3.99625C2.92409 0 1.9194 0.420263 1.16963 1.17073C0.412371 1.92871 0 2.93433 0 4V5.06567C0 6.13884 0.419869 7.14446 1.16963 7.89493C1.31209 8.03752 1.46204 8.15009 1.61949 8.27017C1.46204 8.38274 1.30459 8.50281 1.16963 8.6379C0.412371 9.39587 0 10.4015 0 11.4672V12.5328C0 13.606 0.419869 14.6116 1.16963 15.3621C1.31209 15.5047 1.46204 15.6173 1.61949 15.7373C1.46204 15.8499 1.30459 15.97 1.16963 16.1051C0.412371 16.863 0 17.8687 0 18.9343V20C0 21.0732 0.419869 22.0788 1.16963 22.8293C1.9269 23.5872 2.93158 24 3.99625 24H5.9925C6.43486 24 6.79475 23.6398 6.79475 23.197C6.79475 22.7542 6.43486 22.394 5.9925 22.394H3.99625C3.35145 22.394 2.75164 22.1463 2.30178 21.6886C1.85192 21.2383 1.597 20.6304 1.597 19.9925V18.9268C1.597 18.2814 1.84442 17.681 2.30178 17.2308C2.75164 16.7805 3.35895 16.5253 3.99625 16.5253H6.79475C7.23711 16.5253 7.597 16.1651 7.597 15.7223C7.597 15.2795 7.23711 14.9193 6.79475 14.9193H3.99625C3.35895 14.9193 2.75164 14.6717 2.30178 14.2139C1.85192 13.7636 1.597 13.1557 1.597 12.5178V11.4522C1.597 10.8068 1.84442 10.2064 2.30178 9.7561C2.75164 9.30582 3.35895 9.05066 3.99625 9.05066H20.9953C21.6326 9.05066 21.2409 9.29831 21.6907 9.7561C22.1406 10.2064 22.3955 10.8143 22.3955 11.4522V12.5178C22.3955 12.788 22.3505 13.0582 22.2605 13.3208C22.1106 13.7411 22.328 14.1914 22.7479 14.3415C23.1678 14.4916 23.6176 14.2739 23.7676 13.8537C23.9175 13.4259 24 12.9756 24 12.5178V11.4522C24 10.379 23.5801 9.37336 22.8304 8.62289C22.6879 8.4803 22.538 8.36773 22.3805 8.24765C22.538 8.13508 22.6954 8.01501 22.8304 7.87992C23.5876 7.12195 24 6.11632 24 5.05066L23.9925 5.06567ZM22.3955 5.06567C22.3955 5.71107 22.1481 6.31144 21.6907 6.76173C21.2409 7.21201 21.6326 7.46717 20.9953 7.46717H3.99625C3.35145 7.46717 2.75164 7.21951 2.30178 6.76173C1.85192 6.31144 1.597 5.70356 1.597 5.06567V4C1.597 3.3546 1.84442 2.75422 2.30178 2.30394C2.75164 1.85366 3.35895 1.5985 3.99625 1.5985H20.9953C21.6326 1.5985 21.2409 1.84615 21.6907 2.30394C22.1406 2.75422 22.3955 3.3621 22.3955 4V5.06567Z" fill="#2D3250"/>
<path d="M11.2045 5.32866H8.00002C7.55725 5.32866 7.19702 4.96843 7.19702 4.52566C7.19702 4.08288 7.55725 3.72266 8.00002 3.72266H11.2045C11.6473 3.72266 12.0075 4.08288 12.0075 4.52566C12.0075 4.96843 11.6473 5.32866 11.2045 5.32866Z" fill="#2D3250"/>
<path d="M11.2045 12.8033H8.00002C7.55725 12.8033 7.19702 12.443 7.19702 12.0003C7.19702 11.5575 7.55725 11.1973 8.00002 11.1973H11.2045C11.6473 11.1973 12.0075 11.5575 12.0075 12.0003C12.0075 12.443 11.6473 12.8033 11.2045 12.8033Z" fill="#2D3250"/>
</svg>
