<svg width="20" height="20" viewBox="0 0 20 20" fill="none" xmlns="http://www.w3.org/2000/svg">
<path d="M16.7917 6.64917C16.7175 6.64917 16.6435 6.65182 16.5698 6.65708C16.3478 5.94891 15.9304 5.31001 15.3612 4.81857C14.5961 4.15793 13.6053 3.80935 12.5917 3.84683C11.5983 2.1049 9.74112 1 7.753 1C5.2556 1 3.04568 2.71645 2.38228 5.1244C0.944931 5.76334 0 7.19866 0 8.79196C0 10.3454 0.88731 11.6955 2.18175 12.3621V10.8958C2.18175 9.92908 2.96823 9.1426 3.93494 9.1426H15.9346C16.9013 9.1426 17.6878 9.92908 17.6878 10.8958V12.6712C18.9491 12.2865 19.8695 11.1125 19.8695 9.727C19.8695 8.02987 18.4888 6.64917 16.7917 6.64917Z" fill="#9494A0"/>
<path fill-rule="evenodd" clip-rule="evenodd" d="M3.96875 8C2.86418 8 1.96875 8.89543 1.96875 10V16C1.96875 17.1046 2.86418 18 3.96875 18H15.9688C17.0733 18 17.9688 17.1046 17.9688 16V10C17.9688 8.89543 17.0733 8 15.9688 8H3.96875ZM5.49852 14.2112L4.48974 10.7405H4.47773H2.97656L4.59782 15.6524H6.42324L8.04451 10.7405H6.54334L5.53455 14.2112H5.49852ZM8.52734 15.6524V10.7405H10.653C11.0133 10.7405 11.3375 10.8126 11.6137 10.9567C11.89 11.1008 12.1061 11.305 12.2502 11.5692C12.4064 11.8334 12.4784 12.1336 12.4784 12.4819C12.4784 12.8302 12.4064 13.1424 12.2382 13.3946C12.0821 13.6468 11.8659 13.851 11.5777 13.9951C11.3015 14.1392 10.9652 14.1992 10.5929 14.1992H9.86038V15.6644H8.52734V15.6524ZM10.3287 13.1664H9.86038V11.8094H10.3287C10.4849 11.8094 10.617 11.8454 10.7251 11.8934C10.8331 11.9415 10.9172 12.0255 10.9772 12.1216C11.0253 12.2177 11.0613 12.3498 11.0613 12.4819C11.0613 12.614 11.0373 12.7341 10.9772 12.8422C10.9172 12.9503 10.8331 13.0223 10.7251 13.0824C10.617 13.1424 10.4849 13.1664 10.3287 13.1664ZM15.4336 11.8931C15.5417 11.9772 15.6017 12.1093 15.6137 12.2654H15.6377H16.9107C16.9107 11.9531 16.8267 11.6649 16.6705 11.4247C16.5144 11.1845 16.2862 10.9924 15.998 10.8603C15.7098 10.7162 15.3495 10.6561 14.9652 10.6561C14.5809 10.6561 14.2326 10.7162 13.9324 10.8483C13.6322 10.9804 13.392 11.1725 13.2239 11.4007C13.0557 11.6289 12.9717 11.9051 12.9717 12.2173C12.9717 12.6016 13.0917 12.9139 13.3439 13.1301C13.5961 13.3582 13.9444 13.5144 14.3767 13.6104L14.8691 13.7185C14.8875 13.7234 14.9056 13.7282 14.9232 13.7329C15.0783 13.774 15.2044 13.8075 15.3015 13.8506C15.4096 13.8986 15.4816 13.9467 15.5296 14.0067C15.5777 14.0668 15.6017 14.1388 15.6017 14.2109C15.6017 14.295 15.5777 14.367 15.5296 14.4271C15.4816 14.4871 15.4096 14.5351 15.3135 14.5712C15.2174 14.6072 15.0973 14.6192 14.9532 14.6192C14.7851 14.6192 14.641 14.5952 14.5209 14.5472C14.3888 14.4991 14.2927 14.4271 14.2326 14.319C14.1726 14.2109 14.1246 14.0908 14.1246 13.9347H12.8516C12.8516 14.343 12.9356 14.6793 13.1158 14.9435C13.2959 15.2077 13.5481 15.3998 13.8603 15.5319C14.1726 15.664 14.5689 15.7241 14.9772 15.7241C15.3855 15.7241 15.7458 15.664 16.046 15.5439C16.3463 15.4238 16.5745 15.2557 16.7306 15.0275C16.8867 14.8114 16.9708 14.5351 16.9708 14.2109C16.9708 14.0308 16.9467 13.8506 16.8867 13.6945C16.8267 13.5264 16.7306 13.3943 16.6105 13.2622C16.4784 13.1301 16.3223 13.022 16.1301 12.9259C15.938 12.8298 15.7098 12.7578 15.4336 12.6977L15.0253 12.6137C14.9052 12.5896 14.8091 12.5656 14.725 12.5296C14.641 12.4936 14.5809 12.4575 14.5209 12.4215C14.4608 12.3735 14.4248 12.3374 14.4008 12.2894C14.3647 12.2414 14.3647 12.1933 14.3647 12.1333C14.3647 12.0612 14.3888 12.0012 14.4248 11.9411C14.4608 11.8811 14.5329 11.8451 14.6169 11.809C14.701 11.773 14.8091 11.761 14.9532 11.761C15.1694 11.761 15.3255 11.809 15.4336 11.8931Z" fill="#2A1E1E"/>
</svg>
