<svg width="24" height="24" viewBox="0 0 24 24" fill="none" xmlns="http://www.w3.org/2000/svg">
<path d="M17.2351 7.33235C17.2613 7.51788 17.3803 7.65854 17.5105 7.74731C17.6406 7.83596 17.8032 7.88865 17.9599 7.88655C20.1253 7.88734 21.8834 9.62815 21.8834 11.7617C21.8834 13.5981 20.5608 15.197 18.7362 15.5591C18.3816 15.6302 18.1479 15.9723 18.2197 16.3282C18.2835 16.6394 18.5601 16.8518 18.865 16.8518C18.907 16.8518 18.9507 16.8481 18.9956 16.8387C21.431 16.3537 23.2001 14.221 23.2001 11.7616C23.2001 9.08405 21.1375 6.88002 18.4401 6.61499C17.7266 3.45974 14.8526 1.14746 11.5417 1.14746C7.64222 1.14746 4.4667 4.28016 4.4667 8.13931C4.4667 8.23797 4.46927 8.33761 4.47462 8.44015C2.39923 8.7507 0.800049 10.5262 0.800049 12.6672C0.800049 13.0534 0.862649 13.4387 0.993657 13.8748C1.09746 14.2188 1.46249 14.4202 1.81138 14.3151C2.15864 14.2135 2.35951 13.8514 2.25597 13.5039C2.15926 13.1818 2.1167 12.9168 2.1167 12.6672C2.1167 11.0354 3.45816 9.70457 5.08309 9.69594C5.18672 9.70821 5.29763 9.69609 5.39864 9.66471C5.50396 9.632 5.61431 9.57332 5.69593 9.48045M17.2351 7.33235L17.4331 7.30438ZM17.2351 7.33235C17.2351 7.33215 17.2351 7.33254 17.2351 7.33235L17.4331 7.30438ZM17.2351 7.33235C16.834 4.55305 14.3872 2.45307 11.5417 2.45307C8.36457 2.45307 5.7834 5.0074 5.7834 8.13936C5.7834 8.38094 5.80432 8.64083 5.85094 8.95887C5.87877 9.14785 5.82153 9.33801 5.69593 9.48045M17.4331 7.30438C17.4652 7.5317 17.7328 7.69016 17.9583 7.68655ZM17.4331 7.30438C17.0178 4.42463 14.4851 2.25307 11.5417 2.25307C8.2564 2.25307 5.5834 4.89467 5.5834 8.13936C5.5834 8.39291 5.6054 8.66275 5.65305 8.98787L17.9583 7.68655M17.9583 7.68655C20.2326 7.68655 22.0833 9.51492 22.0833 11.7617C22.0833 13.6951 20.6919 15.3749 18.7752 15.7553C18.5268 15.8051 18.3663 16.0433 18.4158 16.2887C18.4598 16.5033 18.6514 16.6518 18.865 16.6518C18.8953 16.6518 18.9254 16.6491 18.9557 16.6428C21.2996 16.1763 23 14.1243 23 11.7616C23 9.14362 20.9457 6.99102 18.2755 6.80179L17.9583 7.68655Z" fill="#F51322"/>
<path d="M17.2351 7.33235C17.2613 7.51788 17.3803 7.65854 17.5105 7.74731C17.6406 7.83596 17.8032 7.88865 17.9599 7.88655C20.1253 7.88734 21.8834 9.62815 21.8834 11.7617C21.8834 13.5981 20.5608 15.197 18.7362 15.5591C18.3816 15.6302 18.1479 15.9723 18.2197 16.3282C18.2835 16.6394 18.5601 16.8518 18.865 16.8518C18.907 16.8518 18.9507 16.8481 18.9956 16.8387C21.431 16.3537 23.2001 14.221 23.2001 11.7616C23.2001 9.08405 21.1375 6.88002 18.4401 6.61499C17.7266 3.45974 14.8526 1.14746 11.5417 1.14746C7.64222 1.14746 4.4667 4.28016 4.4667 8.13931C4.4667 8.23797 4.46927 8.33761 4.47462 8.44015C2.39923 8.7507 0.800049 10.5262 0.800049 12.6672C0.800049 13.0534 0.862649 13.4387 0.993657 13.8748C1.09746 14.2188 1.46249 14.4202 1.81138 14.3151C2.15864 14.2135 2.35951 13.8514 2.25597 13.5039C2.15926 13.1818 2.1167 12.9168 2.1167 12.6672C2.1167 11.0354 3.45816 9.70457 5.08309 9.69594C5.18672 9.70821 5.29763 9.69609 5.39864 9.66471C5.50396 9.632 5.61431 9.57332 5.69593 9.48045M17.2351 7.33235L17.4331 7.30438M17.2351 7.33235C17.2351 7.33254 17.2351 7.33215 17.2351 7.33235ZM17.2351 7.33235C16.834 4.55305 14.3872 2.45307 11.5417 2.45307C8.36457 2.45307 5.7834 5.0074 5.7834 8.13936C5.7834 8.38094 5.80432 8.64083 5.85094 8.95887C5.87877 9.14785 5.82153 9.33801 5.69593 9.48045M5.69593 9.48045C5.69587 9.48051 5.69598 9.48039 5.69593 9.48045ZM5.69593 9.48045L5.5458 9.34831M17.4331 7.30438C17.4652 7.5317 17.7328 7.69016 17.9583 7.68655M17.4331 7.30438C17.0178 4.42463 14.4851 2.25307 11.5417 2.25307C8.2564 2.25307 5.5834 4.89467 5.5834 8.13936C5.5834 8.39291 5.6054 8.66275 5.65305 8.98787L17.9583 7.68655M17.9583 7.68655C20.2326 7.68655 22.0833 9.51492 22.0833 11.7617C22.0833 13.6951 20.6919 15.3749 18.7752 15.7553C18.5268 15.8051 18.3663 16.0433 18.4158 16.2887C18.4598 16.5033 18.6514 16.6518 18.865 16.6518C18.8953 16.6518 18.9254 16.6491 18.9557 16.6428C21.2996 16.1763 23 14.1243 23 11.7616C23 9.14362 20.9457 6.99102 18.2755 6.80179L17.9583 7.68655Z" stroke="#F51322" stroke-width="0.4"/>
<path d="M1.91929 15.1069L3.19881 19.5091H3.24451L4.52404 15.1069H6.42809L4.37171 21.337H2.05638L0 15.1069H1.90405H1.91929Z" fill="#F51322"/>
<path d="M7.04053 21.337V15.1069H9.73667C10.1936 15.1069 10.6049 15.1983 10.9553 15.3811C11.3056 15.5639 11.5798 15.8229 11.7626 16.158C11.9606 16.4931 12.052 16.8739 12.052 17.3156C12.052 17.7574 11.9606 18.1534 11.7474 18.4733C11.5493 18.7932 11.2751 19.0521 10.9096 19.2349C10.5592 19.4177 10.1327 19.4939 9.66051 19.4939H8.0611V18.1839H9.32539C9.52341 18.1839 9.69097 18.1534 9.82806 18.0773C9.96516 18.0011 10.0718 17.9097 10.1479 17.7726C10.2241 17.6355 10.2546 17.4832 10.2546 17.3156C10.2546 17.1481 10.2089 16.9805 10.1479 16.8587C10.0718 16.7368 9.96516 16.6302 9.82806 16.5692C9.69097 16.5083 9.52341 16.4626 9.32539 16.4626H8.73133V21.3522H7.04053V21.337Z" fill="#F51322"/>
<path d="M16.0289 17.0411C16.0136 16.8431 15.9375 16.6756 15.8004 16.5689C15.6633 16.4623 15.4653 16.4014 15.1911 16.4014C15.0083 16.4014 14.8712 16.4166 14.7646 16.4623C14.6579 16.508 14.5665 16.5537 14.5208 16.6299C14.4751 16.706 14.4447 16.7822 14.4447 16.8736C14.4447 16.9498 14.4447 17.0107 14.4904 17.0716C14.5208 17.1325 14.5665 17.1782 14.6427 17.2392C14.7189 17.2849 14.795 17.3306 14.9017 17.3763C15.0083 17.422 15.1301 17.4524 15.2825 17.4829L15.8004 17.5895C16.1507 17.6657 16.4401 17.7571 16.6838 17.8789C16.9276 18.0008 17.1256 18.1379 17.2931 18.3054C17.4455 18.473 17.5673 18.6406 17.6435 18.8538C17.7196 19.0518 17.7501 19.2803 17.7501 19.5088C17.7501 19.9201 17.6435 20.2704 17.4455 20.5446C17.2474 20.834 16.958 21.0473 16.5772 21.1996C16.1964 21.3519 15.7394 21.4281 15.2215 21.4281C14.7036 21.4281 14.201 21.3519 13.8049 21.1844C13.4089 21.0168 13.089 20.7731 12.8605 20.438C12.632 20.1029 12.5254 19.6764 12.5254 19.1585H14.14C14.14 19.3565 14.201 19.5088 14.2771 19.6459C14.3533 19.783 14.4751 19.8744 14.6427 19.9353C14.795 19.9962 14.9778 20.0267 15.1911 20.0267C15.3739 20.0267 15.5262 20.0115 15.648 19.9658C15.7699 19.9201 15.8613 19.8591 15.9222 19.783C15.9832 19.7068 16.0136 19.6154 16.0136 19.5088C16.0136 19.4174 15.9832 19.326 15.9222 19.2499C15.8613 19.1737 15.7699 19.1128 15.6328 19.0518C15.4957 18.9909 15.3129 18.9452 15.0844 18.8843L14.4599 18.7472C13.9115 18.6253 13.4698 18.4273 13.1499 18.1379C12.83 17.8637 12.6777 17.4677 12.6777 16.9802C12.6777 16.5842 12.7843 16.2338 12.9976 15.9444C13.2108 15.655 13.5155 15.4113 13.8963 15.2437C14.2771 15.0762 14.7189 15 15.2063 15C15.6937 15 16.1507 15.0762 16.5163 15.259C16.8819 15.4265 17.1713 15.6702 17.3693 15.9749C17.5673 16.2795 17.674 16.6451 17.674 17.0411H16.0593H16.0289Z" fill="#F51322"/>
<path d="M9.83358 8.10938C9.83358 8.57503 9.98527 9.00591 10.2418 9.35522C9.49083 9.88898 9 10.766 9 11.7554V13.3777H14.8859V11.7554C14.8859 10.766 14.395 9.88903 13.6441 9.35522C13.9006 9.00591 14.0523 8.57503 14.0523 8.10938C14.0523 6.94627 13.106 6 11.9429 6C10.7798 6 9.83358 6.94622 9.83358 8.10938ZM13.4797 11.9715H10.4063V11.7555C10.4063 10.9081 11.0956 10.2188 11.943 10.2188C12.7904 10.2188 13.4797 10.9081 13.4797 11.7555V11.9715ZM12.6461 8.10938C12.6461 8.49708 12.3307 8.8125 11.943 8.8125C11.5553 8.8125 11.2398 8.49708 11.2398 8.10938C11.2398 7.72167 11.5553 7.40625 11.943 7.40625C12.3307 7.40625 12.6461 7.72162 12.6461 8.10938Z" fill="#F51322"/>
</svg>
