<svg width="24" height="24" viewBox="0 0 24 24" fill="none" xmlns="http://www.w3.org/2000/svg">
<g clip-path="url(#clip0_1492_261)">
<path d="M10.622 16.1069L11.7033 20.513H11.7419L12.8232 16.1069H14.4323L12.6944 22.3426H10.7378L9 16.1069H10.6091H10.622Z" fill="#F51322"/>
<path d="M14.95 22.3426V16.1069H17.2284C17.6146 16.1069 17.9621 16.1984 18.2582 16.3814C18.5543 16.5643 18.786 16.8235 18.9405 17.1589C19.1078 17.4943 19.185 17.8755 19.185 18.3176C19.185 18.7597 19.1078 19.1561 18.9276 19.4763C18.7603 19.7965 18.5285 20.0557 18.2196 20.2386C17.9235 20.4216 17.5631 20.4978 17.164 20.4978H15.8124V19.1866H16.8808C17.0482 19.1866 17.1898 19.1561 17.3056 19.0799C17.4215 19.0037 17.5116 18.9122 17.576 18.775C17.6403 18.6378 17.6661 18.4853 17.6661 18.3176C17.6661 18.1499 17.6275 17.9822 17.576 17.8602C17.5116 17.7383 17.4215 17.6315 17.3056 17.5706C17.1898 17.5096 17.0482 17.4638 16.8808 17.4638H16.3788V22.3578H14.95V22.3426Z" fill="#F51322"/>
<path d="M22.5452 18.043C22.5323 17.8448 22.4679 17.6771 22.3521 17.5703C22.2362 17.4636 22.0689 17.4026 21.8372 17.4026C21.6827 17.4026 21.5669 17.4179 21.4767 17.4636C21.3866 17.5094 21.3094 17.5551 21.2708 17.6313C21.2322 17.7076 21.2064 17.7838 21.2064 17.8753C21.2064 17.9515 21.2064 18.0125 21.245 18.0735C21.2708 18.1344 21.3094 18.1802 21.3738 18.2412C21.4381 18.2869 21.5025 18.3326 21.5926 18.3784C21.6827 18.4241 21.7857 18.4546 21.9144 18.4851L22.3521 18.5918C22.6482 18.6681 22.8927 18.7595 23.0987 18.8815C23.3047 19.0035 23.472 19.1407 23.6136 19.3084C23.7423 19.4761 23.8453 19.6438 23.9097 19.8573C23.974 20.0554 23.9998 20.2841 23.9998 20.5128C23.9998 20.9245 23.9097 21.2751 23.7423 21.5496C23.575 21.8392 23.3304 22.0527 23.0086 22.2051C22.6868 22.3576 22.3006 22.4338 21.8629 22.4338C21.4253 22.4338 21.0005 22.3576 20.6658 22.1899C20.3311 22.0222 20.0608 21.7783 19.8677 21.4428C19.6746 21.1074 19.5845 20.6805 19.5845 20.1622H20.949C20.949 20.3604 21.0005 20.5128 21.0648 20.65C21.1292 20.7873 21.2322 20.8787 21.3738 20.9397C21.5025 21.0007 21.657 21.0312 21.8372 21.0312C21.9917 21.0312 22.1204 21.0159 22.2234 20.9702C22.3263 20.9245 22.4036 20.8635 22.4551 20.7873C22.5066 20.711 22.5323 20.6196 22.5323 20.5128C22.5323 20.4214 22.5066 20.3299 22.4551 20.2536C22.4036 20.1774 22.3263 20.1164 22.2105 20.0554C22.0946 19.9945 21.9402 19.9487 21.7471 19.8877L21.2193 19.7505C20.7559 19.6286 20.3826 19.4304 20.1123 19.1407C19.8419 18.8663 19.7132 18.4699 19.7132 17.982C19.7132 17.5856 19.8033 17.2349 19.9835 16.9453C20.1637 16.6556 20.4212 16.4116 20.743 16.2439C21.0648 16.0762 21.4381 16 21.8501 16C22.262 16 22.6482 16.0762 22.9571 16.2592C23.266 16.4269 23.5106 16.6708 23.678 16.9757C23.8453 17.2807 23.9354 17.6466 23.9354 18.043H22.5709H22.5452Z" fill="#F51322"/>
<path fill-rule="evenodd" clip-rule="evenodd" d="M4.80275 18.6719C5.24539 18.6719 5.6055 19.032 5.6055 19.4746C5.6055 19.9173 5.24539 20.2774 4.80275 20.2774C4.36011 20.2774 4 19.9173 4 19.4746C4 19.032 4.36011 18.6719 4.80275 18.6719Z" fill="#F51322"/>
<path fill-rule="evenodd" clip-rule="evenodd" d="M4.80275 11.1968C5.24539 11.1968 5.6055 11.5569 5.6055 11.9995C5.6055 12.4422 5.24539 12.8023 4.80275 12.8023C4.36011 12.8023 4 12.4422 4 11.9995C4 11.5569 4.36011 11.1968 4.80275 11.1968Z" fill="#F51322"/>
<path fill-rule="evenodd" clip-rule="evenodd" d="M4.80275 3.72949C5.24539 3.72949 5.6055 4.0896 5.6055 4.53224C5.6055 4.97488 5.24539 5.33499 4.80275 5.33499C4.36011 5.33499 4 4.97488 4 4.53224C4 4.0896 4.36011 3.72949 4.80275 3.72949Z" fill="#F51322"/>
<path d="M23.9925 5.06567V4C23.9925 2.92683 23.5726 1.9212 22.8229 1.17073C22.0656 0.412758 22.06 0 20.9953 0H3.99625C2.92409 0 1.9194 0.420263 1.16963 1.17073C0.412371 1.92871 0 2.93433 0 4V5.06567C0 6.13884 0.419869 7.14446 1.16963 7.89493C1.31209 8.03752 1.46204 8.15009 1.61949 8.27017C1.46204 8.38274 1.30459 8.50281 1.16963 8.6379C0.412371 9.39587 0 10.4015 0 11.4672V12.5328C0 13.606 0.419869 14.6116 1.16963 15.3621C1.31209 15.5047 1.46204 15.6173 1.61949 15.7373C1.46204 15.8499 1.30459 15.97 1.16963 16.1051C0.412371 16.863 0 17.8687 0 18.9343V20C0 21.0732 0.419869 22.0788 1.16963 22.8293C1.9269 23.5872 2.93158 24 3.99625 24H5.9925C6.43486 24 6.79475 23.6398 6.79475 23.197C6.79475 22.7542 6.43486 22.394 5.9925 22.394H3.99625C3.35145 22.394 2.75164 22.1463 2.30178 21.6886C1.85192 21.2383 1.597 20.6304 1.597 19.9925V18.9268C1.597 18.2814 1.84442 17.681 2.30178 17.2308C2.75164 16.7805 3.35895 16.5253 3.99625 16.5253H6.79475C7.23711 16.5253 7.597 16.1651 7.597 15.7223C7.597 15.2795 7.23711 14.9193 6.79475 14.9193H3.99625C3.35895 14.9193 2.75164 14.6717 2.30178 14.2139C1.85192 13.7636 1.597 13.1557 1.597 12.5178V11.4522C1.597 10.8068 1.84442 10.2064 2.30178 9.7561C2.75164 9.30582 3.35895 9.05066 3.99625 9.05066H20.9953C21.6326 9.05066 21.2409 9.29831 21.6907 9.7561C22.1406 10.2064 22.3955 10.8143 22.3955 11.4522V12.5178C22.3955 12.788 22.3505 13.0582 22.2605 13.3208C22.1106 13.7411 22.328 14.1914 22.7479 14.3415C23.1678 14.4916 23.6176 14.2739 23.7676 13.8537C23.9175 13.4259 24 12.9756 24 12.5178V11.4522C24 10.379 23.5801 9.37336 22.8304 8.62289C22.6879 8.4803 22.538 8.36773 22.3805 8.24765C22.538 8.13508 22.6954 8.01501 22.8304 7.87992C23.5876 7.12195 24 6.11632 24 5.05066L23.9925 5.06567ZM22.3955 5.06567C22.3955 5.71107 22.1481 6.31144 21.6907 6.76173C21.2409 7.21201 21.6326 7.46717 20.9953 7.46717H3.99625C3.35145 7.46717 2.75164 7.21951 2.30178 6.76173C1.85192 6.31144 1.597 5.70356 1.597 5.06567V4C1.597 3.3546 1.84442 2.75422 2.30178 2.30394C2.75164 1.85366 3.35895 1.5985 3.99625 1.5985H20.9953C21.6326 1.5985 21.2409 1.84615 21.6907 2.30394C22.1406 2.75422 22.3955 3.3621 22.3955 4V5.06567Z" fill="#F51322"/>
<path d="M11.2045 5.32817H8.00002C7.55725 5.32817 7.19702 4.96795 7.19702 4.52517C7.19702 4.08239 7.55725 3.72217 8.00002 3.72217H11.2045C11.6473 3.72217 12.0075 4.08239 12.0075 4.52517C12.0075 4.96795 11.6473 5.32817 11.2045 5.32817Z" fill="#F51322"/>
<path d="M11.2045 12.8028H8.00002C7.55725 12.8028 7.19702 12.4426 7.19702 11.9998C7.19702 11.557 7.55725 11.1968 8.00002 11.1968H11.2045C11.6473 11.1968 12.0075 11.557 12.0075 11.9998C12.0075 12.4426 11.6473 12.8028 11.2045 12.8028Z" fill="#F51322"/>
</g>
<defs>
<clipPath id="clip0_1492_261">
<rect width="24" height="24" fill="white"/>
</clipPath>
</defs>
</svg>
