<svg width="20" height="20" viewBox="0 0 20 20" fill="none" xmlns="http://www.w3.org/2000/svg">
<rect x="1" y="1" width="18" height="18" rx="2.125" fill="#9494A0"/>
<path fill-rule="evenodd" clip-rule="evenodd" d="M2 2.99609C2 2.44597 2.44597 2 2.99609 2H17.0039C17.554 2 18 2.44597 18 2.99609V17.0039C18 17.554 17.554 18 17.0039 18H2.99609C2.44597 18 2 17.554 2 17.0039V2.99609ZM4.51373 10.0876L5.52289 13.6927H5.55893L6.56809 10.0876H8.06981L6.44795 15.1895H4.62186L3 10.0876H4.50172H4.51373ZM8.55469 10.0876V15.1895V15.202H9.88821V13.6802H10.6211C10.9935 13.6802 11.3299 13.6178 11.6062 13.4681C11.8945 13.3184 12.1108 13.1064 12.2669 12.8444C12.4351 12.5825 12.5072 12.2581 12.5072 11.8964C12.5072 11.5346 12.4351 11.2228 12.279 10.9484C12.1348 10.6739 11.9185 10.4619 11.6422 10.3122C11.3659 10.1625 11.0415 10.0876 10.6811 10.0876H8.55469ZM9.88821 12.6074H10.3568C10.5129 12.6074 10.6451 12.5825 10.7532 12.5201C10.8613 12.4577 10.9454 12.3829 11.0055 12.2706C11.0656 12.1583 11.0896 12.0336 11.0896 11.8964C11.0896 11.7592 11.0535 11.622 11.0055 11.5222C10.9454 11.4224 10.8613 11.3351 10.7532 11.2852C10.6451 11.2353 10.5129 11.1978 10.3568 11.1978H9.88821V12.6074ZM15.6421 11.6715C15.6301 11.5094 15.57 11.3721 15.4619 11.2848C15.3537 11.1975 15.1976 11.1476 14.9813 11.1476C14.8371 11.1476 14.729 11.1601 14.6449 11.1975C14.5608 11.2349 14.4887 11.2724 14.4527 11.3347C14.4167 11.3971 14.3926 11.4595 14.3926 11.5343C14.3926 11.5967 14.3926 11.6466 14.4287 11.6965C14.4527 11.7464 14.4887 11.7838 14.5488 11.8337C14.6089 11.8711 14.669 11.9085 14.7531 11.946C14.8371 11.9834 14.9333 12.0083 15.0534 12.0333L15.4619 12.1206C15.7382 12.183 15.9664 12.2578 16.1587 12.3576C16.3509 12.4574 16.5071 12.5697 16.6392 12.7069C16.7593 12.8441 16.8555 12.9813 16.9155 13.1559C16.9756 13.3181 16.9996 13.5052 16.9996 13.6923C16.9996 14.0291 16.9155 14.316 16.7593 14.5406C16.6032 14.7776 16.3749 14.9522 16.0746 15.0769C15.7742 15.2017 15.4138 15.2641 15.0053 15.2641C14.5969 15.2641 14.2004 15.2017 13.8881 15.0645C13.5757 14.9273 13.3234 14.7277 13.1432 14.4532C12.963 14.1788 12.8789 13.8295 12.8789 13.4054H14.1524C14.1524 13.5676 14.2004 13.6923 14.2605 13.8046C14.3206 13.9169 14.4167 13.9917 14.5488 14.0416C14.669 14.0915 14.8131 14.1164 14.9813 14.1164C15.1255 14.1164 15.2456 14.104 15.3417 14.0665C15.4378 14.0291 15.5099 13.9792 15.558 13.9169C15.606 13.8545 15.6301 13.7796 15.6301 13.6923C15.6301 13.6175 15.606 13.5426 15.558 13.4803C15.5099 13.4179 15.4378 13.368 15.3297 13.3181C15.2326 13.2733 15.1065 13.2386 14.9513 13.1958L14.9513 13.1958L14.8972 13.1809L14.4047 13.0686C13.9722 12.9688 13.6238 12.8067 13.3715 12.5697C13.1192 12.3451 12.999 12.0208 12.999 11.6216C12.999 11.2973 13.0831 11.0104 13.2513 10.7734C13.4195 10.5364 13.6598 10.3368 13.9601 10.1996C14.2605 10.0624 14.6089 10 14.9933 10C15.3778 10 15.7382 10.0624 16.0265 10.2121C16.3148 10.3493 16.5431 10.5489 16.6993 10.7983C16.8555 11.0478 16.9396 11.3472 16.9396 11.6715H15.6661H15.6421ZM11.6644 7.39848H14.9467C15.1722 7.39848 15.3589 7.21632 15.3589 6.9962C15.3589 6.77609 15.1722 6.59393 14.9467 6.59393H11.6644C11.4389 6.59393 11.2522 6.77609 11.2522 6.9962C11.2522 7.21632 11.4389 7.39848 11.6644 7.39848ZM7.91556 6.9962C7.91556 7.21632 8.10222 7.39848 8.32778 7.39848C8.55333 7.39848 8.74 7.21632 8.74 6.9962C8.74 6.77609 8.55333 6.59393 8.32778 6.59393C8.10222 6.59393 7.91556 6.77609 7.91556 6.9962ZM6.27444 6.9962C6.27444 7.21632 6.46111 7.39848 6.68667 7.39848C6.91222 7.39848 7.09889 7.21632 7.09889 6.9962C7.09889 6.77609 6.91222 6.59393 6.68667 6.59393C6.46111 6.59393 6.27444 6.77609 6.27444 6.9962ZM4.63333 6.9962C4.63333 7.21632 4.82 7.39848 5.04556 7.39848C5.27111 7.39848 5.45778 7.21632 5.45778 6.9962C5.45778 6.77609 5.27111 6.59393 5.04556 6.59393C4.82 6.59393 4.63333 6.77609 4.63333 6.9962ZM4.22889 5H15.7711C16.4478 5 17 5.5389 17 6.19924V7.80076C17 8.4611 16.4478 9 15.7711 9H4.22889C3.55222 9 3 8.4611 3 7.80076V6.19924C3 5.5389 3.55222 5 4.22889 5Z" fill="#2A1E1E"/>
</svg>
