<svg width="24" height="24" viewBox="0 0 24 24" fill="none" xmlns="http://www.w3.org/2000/svg">
<g clip-path="url(#clip0_505_56)">
<path fill-rule="evenodd" clip-rule="evenodd" d="M12 18.4189C10.4596 18.4189 9.20935 19.6692 9.20935 21.2096C9.20935 22.7501 10.4596 24.0003 12 24.0003C13.5405 24.0003 14.7907 22.7501 14.7907 21.2096C14.7907 19.6692 13.5405 18.4189 12 18.4189ZM12 20.0934C12.6162 20.0934 13.1163 20.5935 13.1163 21.2096C13.1163 21.8258 12.6162 22.3259 12 22.3259C11.3839 22.3259 10.8838 21.8258 10.8838 21.2096C10.8838 20.5935 11.3839 20.0934 12 20.0934Z" fill="#2D3250"/>
<path fill-rule="evenodd" clip-rule="evenodd" d="M11.1628 16.4651V19.2558C11.1628 19.718 11.5379 20.093 12.0001 20.093C12.4622 20.093 12.8373 19.718 12.8373 19.2558V16.4651C12.8373 16.003 12.4622 15.6279 12.0001 15.6279C11.5379 15.6279 11.1628 16.003 11.1628 16.4651Z" fill="#2D3250"/>
<path fill-rule="evenodd" clip-rule="evenodd" d="M13.9535 22.0465H20.6512C21.1134 22.0465 21.4884 21.6714 21.4884 21.2093C21.4884 20.7471 21.1134 20.3721 20.6512 20.3721H13.9535C13.4914 20.3721 13.1163 20.7471 13.1163 21.2093C13.1163 21.6714 13.4914 22.0465 13.9535 22.0465Z" fill="#2D3250"/>
<path fill-rule="evenodd" clip-rule="evenodd" d="M3.34881 22.0465H10.0465C10.5086 22.0465 10.8837 21.6714 10.8837 21.2093C10.8837 20.7471 10.5086 20.3721 10.0465 20.3721H3.34881C2.88667 20.3721 2.5116 20.7471 2.5116 21.2093C2.5116 21.6714 2.88667 22.0465 3.34881 22.0465Z" fill="#2D3250"/>
<path d="M15.6279 5.58165C16.0902 5.58165 16.4651 5.20681 16.4651 4.74444C16.4651 4.28206 16.0902 3.90723 15.6279 3.90723C15.1655 3.90723 14.7906 4.28206 14.7906 4.74444C14.7906 5.20681 15.1655 5.58165 15.6279 5.58165Z" fill="#2D3250"/>
<path d="M15.6279 13.3951C16.0902 13.3951 16.4651 13.0203 16.4651 12.5579C16.4651 12.0955 16.0902 11.7207 15.6279 11.7207C15.1655 11.7207 14.7906 12.0955 14.7906 12.5579C14.7906 13.0203 15.1655 13.3951 15.6279 13.3951Z" fill="#2D3250"/>
<path d="M18.9767 5.58165C19.4391 5.58165 19.8139 5.20681 19.8139 4.74444C19.8139 4.28206 19.4391 3.90723 18.9767 3.90723C18.5144 3.90723 18.1395 4.28206 18.1395 4.74444C18.1395 5.20681 18.5144 5.58165 18.9767 5.58165Z" fill="#2D3250"/>
<path d="M18.9767 13.3951C19.4391 13.3951 19.8139 13.0203 19.8139 12.5579C19.8139 12.0955 19.4391 11.7207 18.9767 11.7207C18.5144 11.7207 18.1395 12.0955 18.1395 12.5579C18.1395 13.0203 18.5144 13.3951 18.9767 13.3951Z" fill="#2D3250"/>
<path fill-rule="evenodd" clip-rule="evenodd" d="M24 3.06977C24 2.256 23.6763 1.4746 23.1014 0.898605C22.5254 0.323721 21.744 0 20.9302 0C16.6527 0 7.34735 0 3.06977 0C2.256 0 1.4746 0.323721 0.898605 0.898605C0.323721 1.4746 0 2.256 0 3.06977V6.4186C0 7.23237 0.323721 8.01377 0.898605 8.58977C1.4746 9.16465 2.256 9.48837 3.06977 9.48837H20.9302C21.744 9.48837 22.5254 9.16465 23.1014 8.58977C23.6763 8.01377 24 7.23237 24 6.4186V3.06977ZM22.3256 3.06977V6.4186C22.3256 6.78921 22.1782 7.14307 21.917 7.4054C21.6547 7.6666 21.3008 7.81395 20.9302 7.81395H3.06977C2.69916 7.81395 2.3453 7.6666 2.08298 7.4054C1.82177 7.14307 1.67442 6.78921 1.67442 6.4186V3.06977C1.67442 2.69916 1.82177 2.3453 2.08298 2.08298C2.3453 1.82177 2.69916 1.67442 3.06977 1.67442H20.9302C21.3008 1.67442 21.6547 1.82177 21.917 2.08298C22.1782 2.3453 22.3256 2.69916 22.3256 3.06977Z" fill="#2D3250"/>
<path fill-rule="evenodd" clip-rule="evenodd" d="M24 10.8832C24 10.0695 23.6763 9.28808 23.1014 8.71208C22.5254 8.1372 21.744 7.81348 20.9302 7.81348C16.6527 7.81348 7.34735 7.81348 3.06977 7.81348C2.256 7.81348 1.4746 8.1372 0.898605 8.71208C0.323721 9.28808 0 10.0695 0 10.8832V14.2321C0 15.0458 0.323721 15.8272 0.898605 16.4032C1.4746 16.9781 2.256 17.3018 3.06977 17.3018H20.9302C21.744 17.3018 22.5254 16.9781 23.1014 16.4032C23.6763 15.8272 24 15.0458 24 14.2321V10.8832ZM22.3256 10.8832V14.2321C22.3256 14.6027 22.1782 14.9565 21.917 15.2189C21.6547 15.4801 21.3008 15.6274 20.9302 15.6274H3.06977C2.69916 15.6274 2.3453 15.4801 2.08298 15.2189C1.82177 14.9565 1.67442 14.6027 1.67442 14.2321V10.8832C1.67442 10.5126 1.82177 10.1588 2.08298 9.89645C2.3453 9.63524 2.69916 9.4879 3.06977 9.4879H20.9302C21.3008 9.4879 21.6547 9.63524 21.917 9.89645C22.1782 10.1588 22.3256 10.5126 22.3256 10.8832Z" fill="#2D3250"/>
<path fill-rule="evenodd" clip-rule="evenodd" d="M8.09303 3.90723H4.74419C4.28205 3.90723 3.90698 4.2823 3.90698 4.74444C3.90698 5.20658 4.28205 5.58165 4.74419 5.58165H8.09303C8.55517 5.58165 8.93024 5.20658 8.93024 4.74444C8.93024 4.2823 8.55517 3.90723 8.09303 3.90723Z" fill="#2D3250"/>
<path fill-rule="evenodd" clip-rule="evenodd" d="M8.09303 11.7207H4.74419C4.28205 11.7207 3.90698 12.0958 3.90698 12.5579C3.90698 13.0201 4.28205 13.3951 4.74419 13.3951H8.09303C8.55517 13.3951 8.93024 13.0201 8.93024 12.5579C8.93024 12.0958 8.55517 11.7207 8.09303 11.7207Z" fill="#2D3250"/>
</g>
<defs>
<clipPath id="clip0_505_56">
<rect width="24" height="24" fill="white"/>
</clipPath>
</defs>
</svg>
