<svg width="20" height="20" viewBox="0 0 20 20" fill="none" xmlns="http://www.w3.org/2000/svg">
<g clip-path="url(#clip0_1340_863)">
<path d="M16.1875 6.09766C16.1206 6.09766 16.0538 6.10005 15.9873 6.10479C15.7869 5.46576 15.4103 4.88923 14.8967 4.44577C14.2062 3.84962 13.3122 3.53508 12.3976 3.5689C11.5011 1.99703 9.82527 1 8.03125 1C5.77766 1 3.7835 2.54888 3.18486 4.72175C1.88784 5.29831 1.03516 6.5935 1.03516 8.03125C1.03516 9.43307 1.83584 10.6513 3.00391 11.2528V9.92969C3.00391 9.05736 3.71361 8.34766 4.58594 8.34766H15.4141C16.2864 8.34766 16.9961 9.05736 16.9961 9.92969V11.5317C18.1343 11.1846 18.9648 10.1253 18.9648 8.875C18.9648 7.34356 17.7189 6.09766 16.1875 6.09766Z" fill="#9494A0"/>
<path d="M15.4141 9.40234H4.58594C4.2947 9.40234 4.05859 9.63845 4.05859 9.92969V13.6543H15.9414V9.92969C15.9414 9.63845 15.7053 9.40234 15.4141 9.40234ZM8.58022 12.1094H5.78125C5.49002 12.1094 5.25391 11.8733 5.25391 11.582C5.25391 11.2908 5.49002 11.0547 5.78125 11.0547H8.58022C8.87141 11.0547 9.10756 11.2908 9.10756 11.582C9.10756 11.8733 8.87141 12.1094 8.58022 12.1094ZM11.9688 12.1043C11.6775 12.1043 11.4414 11.8682 11.4414 11.577C11.4414 11.2857 11.6775 11.0496 11.9688 11.0496C12.2599 11.0496 12.4961 11.2857 12.4961 11.577C12.4961 11.8682 12.2599 12.1043 11.9688 12.1043ZM14.2188 12.1043C13.9275 12.1043 13.6914 11.8682 13.6914 11.577C13.6914 11.2857 13.9275 11.0496 14.2188 11.0496C14.5099 11.0496 14.7461 11.2857 14.7461 11.577C14.7461 11.8682 14.5099 12.1043 14.2188 12.1043Z" fill="#2A1E1E"/>
<path d="M4.05859 18.4727C4.05859 18.7639 4.2947 19 4.58594 19H15.4141C15.7053 19 15.9414 18.7639 15.9414 18.4727V14.709H4.05859V18.4727ZM14.2188 16.1875C14.5099 16.1875 14.7461 16.4236 14.7461 16.7149C14.7461 17.0061 14.5099 17.2422 14.2188 17.2422C13.9275 17.2422 13.6914 17.0061 13.6914 16.7149C13.6914 16.4236 13.9275 16.1875 14.2188 16.1875ZM11.9688 16.1875C12.2599 16.1875 12.4961 16.4236 12.4961 16.7149C12.4961 17.0061 12.2599 17.2422 11.9688 17.2422C11.6775 17.2422 11.4414 17.0061 11.4414 16.7149C11.4414 16.4236 11.6775 16.1875 11.9688 16.1875ZM5.78125 16.1875H8.58022C8.87141 16.1875 9.10756 16.4236 9.10756 16.7149C9.10756 17.0061 8.87141 17.2422 8.58022 17.2422H5.78125C5.49002 17.2422 5.25391 17.0061 5.25391 16.7149C5.25391 16.4236 5.49002 16.1875 5.78125 16.1875Z" fill="#2A1E1E"/>
</g>
<defs>
<clipPath id="clip0_1340_863">
<rect width="18" height="18" fill="white" transform="translate(1 1)"/>
</clipPath>
</defs>
</svg>
