<svg width="24" height="24" viewBox="0 0 24 24" fill="none" xmlns="http://www.w3.org/2000/svg">
<g clip-path="url(#clip0_1492_271)">
<mask id="mask0_1492_271" style="mask-type:luminance" maskUnits="userSpaceOnUse" x="0" y="0" width="24" height="24">
<path d="M24 0H0V24H24V0Z" fill="white"/>
</mask>
<g mask="url(#mask0_1492_271)">
<path fill-rule="evenodd" clip-rule="evenodd" d="M11.9999 18.4185C10.4595 18.4185 9.20923 19.6687 9.20923 21.2092C9.20923 22.7496 10.4595 23.9999 11.9999 23.9999C13.5404 23.9999 14.7906 22.7496 14.7906 21.2092C14.7906 19.6687 13.5404 18.4185 11.9999 18.4185ZM11.9999 20.0929C12.6161 20.0929 13.1162 20.593 13.1162 21.2092C13.1162 21.8253 12.6161 22.3254 11.9999 22.3254C11.3837 22.3254 10.8836 21.8253 10.8836 21.2092C10.8836 20.593 11.3837 20.0929 11.9999 20.0929Z" fill="#F51322"/>
<path fill-rule="evenodd" clip-rule="evenodd" d="M11.1628 16.4651V19.2558C11.1628 19.718 11.5379 20.093 12.0001 20.093C12.4622 20.093 12.8373 19.718 12.8373 19.2558V16.4651C12.8373 16.003 12.4622 15.6279 12.0001 15.6279C11.5379 15.6279 11.1628 16.003 11.1628 16.4651Z" fill="#F51322"/>
<path fill-rule="evenodd" clip-rule="evenodd" d="M13.9534 22.0465H20.6511C21.1132 22.0465 21.4883 21.6714 21.4883 21.2093C21.4883 20.7471 21.1132 20.3721 20.6511 20.3721H13.9534C13.4913 20.3721 13.1162 20.7471 13.1162 21.2093C13.1162 21.6714 13.4913 22.0465 13.9534 22.0465Z" fill="#F51322"/>
<path fill-rule="evenodd" clip-rule="evenodd" d="M3.34893 22.0465H10.0466C10.5087 22.0465 10.8838 21.6714 10.8838 21.2093C10.8838 20.7471 10.5087 20.3721 10.0466 20.3721H3.34893C2.88679 20.3721 2.51172 20.7471 2.51172 21.2093C2.51172 21.6714 2.88679 22.0465 3.34893 22.0465Z" fill="#F51322"/>
<path d="M15.628 5.58116C16.0904 5.58116 16.4652 5.20633 16.4652 4.74395C16.4652 4.28157 16.0904 3.90674 15.628 3.90674C15.1656 3.90674 14.7908 4.28157 14.7908 4.74395C14.7908 5.20633 15.1656 5.58116 15.628 5.58116Z" fill="#F51322"/>
<path d="M15.628 13.3951C16.0904 13.3951 16.4652 13.0203 16.4652 12.5579C16.4652 12.0955 16.0904 11.7207 15.628 11.7207C15.1656 11.7207 14.7908 12.0955 14.7908 12.5579C14.7908 13.0203 15.1656 13.3951 15.628 13.3951Z" fill="#F51322"/>
<path d="M18.9769 5.58116C19.4392 5.58116 19.8141 5.20633 19.8141 4.74395C19.8141 4.28157 19.4392 3.90674 18.9769 3.90674C18.5145 3.90674 18.1396 4.28157 18.1396 4.74395C18.1396 5.20633 18.5145 5.58116 18.9769 5.58116Z" fill="#F51322"/>
<path d="M18.9769 13.3951C19.4392 13.3951 19.8141 13.0203 19.8141 12.5579C19.8141 12.0955 19.4392 11.7207 18.9769 11.7207C18.5145 11.7207 18.1396 12.0955 18.1396 12.5579C18.1396 13.0203 18.5145 13.3951 18.9769 13.3951Z" fill="#F51322"/>
<path fill-rule="evenodd" clip-rule="evenodd" d="M24 3.06977C24 2.256 23.6763 1.4746 23.1014 0.898605C22.5254 0.323721 21.744 0 20.9302 0C16.6527 0 7.34735 0 3.06977 0C2.256 0 1.4746 0.323721 0.898605 0.898605C0.323721 1.4746 0 2.256 0 3.06977V6.4186C0 7.23237 0.323721 8.01377 0.898605 8.58977C1.4746 9.16465 2.256 9.48837 3.06977 9.48837H20.9302C21.744 9.48837 22.5254 9.16465 23.1014 8.58977C23.6763 8.01377 24 7.23237 24 6.4186V3.06977ZM22.3256 3.06977V6.4186C22.3256 6.78921 22.1782 7.14307 21.917 7.4054C21.6547 7.6666 21.3008 7.81395 20.9302 7.81395H3.06977C2.69916 7.81395 2.3453 7.6666 2.08298 7.4054C1.82177 7.14307 1.67442 6.78921 1.67442 6.4186V3.06977C1.67442 2.69916 1.82177 2.3453 2.08298 2.08298C2.3453 1.82177 2.69916 1.67442 3.06977 1.67442H20.9302C21.3008 1.67442 21.6547 1.82177 21.917 2.08298C22.1782 2.3453 22.3256 2.69916 22.3256 3.06977Z" fill="#F51322"/>
<path fill-rule="evenodd" clip-rule="evenodd" d="M24 10.8837C24 10.07 23.6763 9.28857 23.1014 8.71257C22.5254 8.13769 21.744 7.81396 20.9302 7.81396C16.6527 7.81396 7.34735 7.81396 3.06977 7.81396C2.256 7.81396 1.4746 8.13769 0.898605 8.71257C0.323721 9.28857 0 10.07 0 10.8837V14.2326C0 15.0463 0.323721 15.8277 0.898605 16.4037C1.4746 16.9786 2.256 17.3023 3.06977 17.3023H20.9302C21.744 17.3023 22.5254 16.9786 23.1014 16.4037C23.6763 15.8277 24 15.0463 24 14.2326V10.8837ZM22.3256 10.8837V14.2326C22.3256 14.6032 22.1782 14.957 21.917 15.2194C21.6547 15.4806 21.3008 15.6279 20.9302 15.6279H3.06977C2.69916 15.6279 2.3453 15.4806 2.08298 15.2194C1.82177 14.957 1.67442 14.6032 1.67442 14.2326V10.8837C1.67442 10.5131 1.82177 10.1593 2.08298 9.89694C2.3453 9.63574 2.69916 9.48839 3.06977 9.48839H20.9302C21.3008 9.48839 21.6547 9.63574 21.917 9.89694C22.1782 10.1593 22.3256 10.5131 22.3256 10.8837Z" fill="#F51322"/>
<path fill-rule="evenodd" clip-rule="evenodd" d="M8.09303 3.90674H4.74419C4.28205 3.90674 3.90698 4.28181 3.90698 4.74395C3.90698 5.20609 4.28205 5.58116 4.74419 5.58116H8.09303C8.55517 5.58116 8.93024 5.20609 8.93024 4.74395C8.93024 4.28181 8.55517 3.90674 8.09303 3.90674Z" fill="#F51322"/>
<path fill-rule="evenodd" clip-rule="evenodd" d="M8.09303 11.7207H4.74419C4.28205 11.7207 3.90698 12.0958 3.90698 12.5579C3.90698 13.0201 4.28205 13.3951 4.74419 13.3951H8.09303C8.55517 13.3951 8.93024 13.0201 8.93024 12.5579C8.93024 12.0958 8.55517 11.7207 8.09303 11.7207Z" fill="#F51322"/>
</g>
</g>
<defs>
<clipPath id="clip0_1492_271">
<rect width="24" height="24" fill="white"/>
</clipPath>
</defs>
</svg>
