<svg width="20" height="20" viewBox="0 0 20 20" fill="none" xmlns="http://www.w3.org/2000/svg">
<rect x="2" y="5" width="16" height="12" fill="#777E90"/>
<path d="M1 2.125V17.875H19V2.125H1ZM2.125 3.25H11.125C11.125 3.253 11.125 3.256 11.125 3.259V4.384H2.125V3.25ZM12.25 3.25H13.375C13.375 3.253 13.375 3.256 13.375 3.259V4.384H12.25V3.259C12.25 3.256 12.25 3.253 12.25 3.25ZM14.5 3.25H15.625C15.625 3.253 15.625 3.256 15.625 3.259V4.384H14.5V3.259C14.5 3.256 14.5 3.253 14.5 3.25ZM16.75 3.25H17.875V4.384H16.75V3.259C16.75 3.256 16.75 3.253 16.75 3.25ZM2.125 5.509H17.875V16.75H2.125V5.509Z" fill="#2A1E1E"/>
<path d="M9.03032 6.75291C9.13023 6.67184 9.2549 6.62747 9.38356 6.6272H10.6154C10.7438 6.62736 10.8682 6.67141 10.9681 6.75204C11.0679 6.83266 11.1372 6.94502 11.1644 7.07045L11.2544 7.4867C11.4023 7.53623 11.5469 7.59484 11.6876 7.6622L12.0566 7.43157C12.1644 7.36397 12.292 7.33494 12.4185 7.34925C12.545 7.36355 12.6629 7.42034 12.7529 7.51032L13.6237 8.37995C13.7139 8.47006 13.7709 8.58817 13.7852 8.71491C13.7995 8.84164 13.7703 8.96948 13.7024 9.07745L13.4696 9.4487C13.5371 9.58864 13.596 9.73252 13.6462 9.87957L14.0624 9.96957C14.1879 9.99652 14.3004 10.0655 14.3812 10.1652C14.462 10.2648 14.5063 10.3891 14.5068 10.5174V11.7662C14.5067 11.8952 14.4623 12.0203 14.381 12.1204C14.2997 12.2206 14.1864 12.2897 14.0602 12.3163L13.6259 12.4086C13.5764 12.5503 13.5179 12.6887 13.4516 12.8259L13.6867 13.2141C13.7529 13.3228 13.7802 13.4507 13.7643 13.577C13.7484 13.7033 13.6901 13.8205 13.5989 13.9093L12.7484 14.7418C12.6582 14.83 12.5408 14.8853 12.4154 14.8988C12.2899 14.9122 12.1635 14.8831 12.0566 14.8161L11.6831 14.5832C11.5377 14.6518 11.3881 14.7111 11.2353 14.7609L11.1453 15.1772C11.1181 15.3028 11.0486 15.4153 10.9485 15.496C10.8484 15.5766 10.7237 15.6205 10.5952 15.6204H9.38356C9.25459 15.6201 9.12967 15.5754 9.02972 15.4939C8.92977 15.4123 8.86087 15.299 8.83456 15.1727L8.74231 14.7396C8.59719 14.6912 8.45656 14.6327 8.31594 14.5663L7.92669 14.8138C7.81793 14.8829 7.68877 14.9125 7.56079 14.8978C7.43281 14.883 7.31377 14.8248 7.22356 14.7328L6.37081 13.8632C6.28188 13.7723 6.22635 13.654 6.21327 13.5276C6.2002 13.4011 6.23035 13.274 6.29881 13.1668L6.54181 12.7843C6.47881 12.6549 6.42256 12.5199 6.37306 12.3816L5.92531 12.2758C5.80213 12.2467 5.69237 12.1769 5.61377 12.0777C5.53518 11.9785 5.49234 11.8556 5.49219 11.7291V10.5186C5.49228 10.3922 5.53495 10.2694 5.61333 10.1702C5.69171 10.0711 5.80121 10.0012 5.92419 9.97182L6.37419 9.86157C6.42284 9.725 6.47918 9.59128 6.54294 9.46107L6.29881 9.07632C6.23063 8.9686 6.20107 8.84091 6.21497 8.71418C6.22887 8.58746 6.28541 8.46921 6.37531 8.37882L7.24494 7.5092C7.33505 7.41894 7.45316 7.36199 7.5799 7.34768C7.70663 7.33337 7.83447 7.36255 7.94244 7.43045L8.31706 7.6667C8.45611 7.60271 8.59887 7.54711 8.74456 7.5002L8.83456 7.0727C8.86132 6.94685 8.93042 6.83398 9.03032 6.75291Z" fill="white"/>
<circle cx="10" cy="11" r="2" fill="#2A1E1E"/>
</svg>
