<svg width="24" height="24" viewBox="0 0 24 24" fill="none" xmlns="http://www.w3.org/2000/svg">
<g clip-path="url(#clip0_534_768)">
<path d="M12.0046 13.4092H12.0469C14.2861 13.4092 16.3868 11.9195 17.3986 9.61409C17.6067 9.13995 17.3911 8.58691 16.917 8.37884C16.4427 8.17062 15.8898 8.38638 15.6818 8.86048C14.9798 10.4597 13.5191 11.5341 12.0469 11.5341H12.0046C9.89236 11.5341 7.96875 9.37812 7.96875 7.01074V3.76605L12.0257 1.9474L15.344 3.43488L13.1532 6.4999C13.0743 6.58868 12.9772 6.60804 12.9247 6.61151C12.87 6.61502 12.7637 6.60809 12.6706 6.51926C12.6661 6.51499 12.6616 6.51073 12.657 6.50655L10.8567 4.85707C10.4749 4.50729 9.88186 4.53326 9.53213 4.91501C9.18234 5.29676 9.20827 5.88977 9.59002 6.23955L11.3844 7.88355C11.7952 8.27149 12.3415 8.48716 12.9035 8.48716C12.952 8.48716 13.0007 8.48552 13.0493 8.48229C13.6654 8.44127 14.2405 8.14137 14.6271 7.65949C14.638 7.64595 14.6485 7.63207 14.6586 7.61796L18.6735 2.00112C18.9746 1.5799 18.8772 0.994336 18.4559 0.693258C18.0346 0.39218 17.4491 0.489539 17.1481 0.910805L16.4563 1.87868L12.4547 0.0849609C12.3342 0.0308672 12.2035 0.00292969 12.0712 0.00292969H11.9802C11.848 0.00292969 11.7173 0.0308672 11.5967 0.0849609L6.64777 2.30346C6.31069 2.45454 6.09375 2.78951 6.09375 3.15893V7.01079C6.09375 8.57445 6.70997 10.171 7.78434 11.3908C8.93067 12.6924 10.4294 13.4092 12.0046 13.4092Z" fill="#2D3250"/>
<path d="M20.25 3.37793C19.7322 3.37793 19.3125 3.79765 19.3125 4.31543C19.3125 4.83321 19.7322 5.25293 20.25 5.25293C21.2839 5.25293 22.125 6.09406 22.125 7.12793V11.8154C22.125 12.3332 22.5447 12.7529 23.0625 12.7529C23.5803 12.7529 24 12.3332 24 11.8154V7.12793C24 5.06018 22.3177 3.37793 20.25 3.37793Z" fill="#2D3250"/>
<path d="M23.0625 15.5652C22.5447 15.5652 22.125 15.985 22.125 16.5027C22.125 17.5366 21.2839 18.3777 20.25 18.3777H3.75C2.71613 18.3777 1.875 17.5366 1.875 16.5027V7.12773C1.875 6.15958 2.60002 5.3575 3.56137 5.26206C4.07662 5.21092 4.45284 4.75173 4.4017 4.23653C4.35056 3.72133 3.89114 3.34539 3.37613 3.3962C2.45461 3.4877 1.60261 3.91633 0.977016 4.60319C0.346969 5.29492 0 6.1915 0 7.12773V16.5027C0 18.5705 1.68225 20.2527 3.75 20.2527H11.0625V22.122H7.78125C7.26347 22.122 6.84375 22.5417 6.84375 23.0595C6.84375 23.5773 7.26347 23.997 7.78125 23.997H16.2188C16.7365 23.997 17.1562 23.5773 17.1562 23.0595C17.1562 22.5417 16.7365 22.122 16.2188 22.122H12.9375V20.2527H20.25C22.3177 20.2527 24 18.5705 24 16.5027C24 15.985 23.5803 15.5652 23.0625 15.5652Z" fill="#2D3250"/>
</g>
<defs>
<clipPath id="clip0_534_768">
<rect width="24" height="24" fill="white"/>
</clipPath>
</defs>
</svg>
