<svg width="24" height="24" viewBox="0 0 24 24" fill="none" xmlns="http://www.w3.org/2000/svg">
<g clip-path="url(#clip0_505_108)">
<path fill-rule="evenodd" clip-rule="evenodd" d="M22.9999 3.83201C22.9999 3.07002 22.6968 2.33812 22.1579 1.79922C21.6189 1.26032 20.8876 0.957031 20.1246 0.957031C16.116 0.957031 6.8839 0.957031 2.87532 0.957031C2.11235 0.957031 1.381 1.26032 0.842039 1.79922C0.303081 2.33812 0 3.07002 0 3.83201C0 6.96766 0 13.1563 0 16.2919C0 17.0539 0.303081 17.7858 0.842039 18.3247C1.381 18.8636 2.11235 19.1669 2.87532 19.1669C6.8839 19.1669 16.116 19.1669 20.1246 19.1669C20.8876 19.1669 21.6189 18.8636 22.1579 18.3247C22.6968 17.7858 22.9999 17.0539 22.9999 16.2919V3.83201ZM21.0839 3.83201V16.2919C21.0839 16.5451 20.9825 16.7894 20.8033 16.9687C20.6227 17.1491 20.3789 17.2494 20.1246 17.2494C16.116 17.2494 6.8839 17.2494 2.87532 17.2494C2.621 17.2494 2.37721 17.1491 2.19668 16.9687C2.01747 16.7894 1.916 16.5451 1.916 16.2919C1.916 13.1563 1.916 6.96766 1.916 3.83201C1.916 3.57885 2.01747 3.33446 2.19668 3.15525C2.37721 2.97478 2.621 2.87452 2.87532 2.87452C6.8839 2.87452 16.116 2.87452 20.1246 2.87452C20.3789 2.87452 20.6227 2.97478 20.8033 3.15525C20.9825 3.33446 21.0839 3.57885 21.0839 3.83201Z" fill="#2D3250"/>
<path d="M10.5324 6.12581C10.6321 6.04468 10.7566 6.00027 10.8851 6H12.1149C12.2431 6.00016 12.3673 6.04425 12.467 6.12493C12.5667 6.20562 12.6359 6.31806 12.663 6.44358L12.7529 6.86014C12.9005 6.90971 13.0449 6.96837 13.1853 7.03578L13.5537 6.80498C13.6614 6.73732 13.7888 6.70828 13.9151 6.72259C14.0414 6.73691 14.1591 6.79373 14.249 6.88379L15.1183 7.75407C15.2084 7.84425 15.2653 7.96245 15.2796 8.08928C15.2939 8.21611 15.2647 8.34404 15.1969 8.45209L14.9644 8.82362C15.0318 8.96366 15.0907 9.10766 15.1408 9.25482L15.5563 9.34488C15.6816 9.37185 15.7939 9.44092 15.8746 9.54065C15.9553 9.64038 15.9995 9.76476 16 9.89317V11.1429C15.9999 11.272 15.9556 11.3971 15.8744 11.4974C15.7932 11.5976 15.6801 11.6668 15.5541 11.6934L15.1206 11.7857C15.0711 11.9276 15.0127 12.066 14.9465 12.2034L15.1812 12.5918C15.2473 12.7006 15.2746 12.8287 15.2587 12.955C15.2428 13.0814 15.1846 13.1987 15.0936 13.2876L14.2445 14.1207C14.1543 14.209 14.0372 14.2643 13.9119 14.2778C13.7867 14.2913 13.6605 14.2621 13.5537 14.195L13.1808 13.962C13.0357 14.0306 12.8864 14.09 12.7338 14.1399L12.644 14.5564C12.6167 14.6821 12.5474 14.7947 12.4475 14.8754C12.3475 14.9561 12.2231 15.0001 12.0947 15H10.8851C10.7563 14.9996 10.6316 14.9549 10.5318 14.8733C10.432 14.7917 10.3632 14.6783 10.337 14.5519L10.2449 14.1185C10.1 14.0701 9.95957 14.0115 9.81917 13.9451L9.43055 14.1928C9.32197 14.2619 9.19302 14.2915 9.06524 14.2768C8.93747 14.262 8.81862 14.2038 8.72857 14.1117L7.8772 13.2414C7.78841 13.1505 7.73297 13.0321 7.71992 12.9056C7.70686 12.779 7.73696 12.6517 7.80532 12.5445L8.04792 12.1617C7.98502 12.0323 7.92887 11.8972 7.87945 11.7587L7.43242 11.6529C7.30944 11.6237 7.19986 11.5539 7.12139 11.4546C7.04292 11.3553 7.00015 11.2324 7 11.1057V9.8943C7.00009 9.76778 7.0427 9.64498 7.12095 9.54571C7.1992 9.44644 7.30853 9.37649 7.4313 9.34713L7.88057 9.2368C7.92914 9.10012 7.98539 8.96631 8.04905 8.836L7.80532 8.45096C7.73725 8.34316 7.70774 8.21537 7.72161 8.08855C7.73549 7.96173 7.79193 7.84339 7.88169 7.75294L8.74991 6.88266C8.83987 6.79234 8.95779 6.73534 9.08432 6.72102C9.21085 6.7067 9.33848 6.73591 9.44627 6.80385L9.82029 7.04028C9.95912 6.97625 10.1016 6.92061 10.2471 6.87366L10.337 6.44583C10.3637 6.31989 10.4327 6.20694 10.5324 6.12581Z" fill="#2D3250"/>
<path fill-rule="evenodd" clip-rule="evenodd" d="M14.3754 17.251H8.62521C8.09598 17.251 7.66685 17.6803 7.66685 18.2094C7.66685 18.8112 7.40702 19.4064 7.11845 19.9114C6.63395 20.7586 6.03124 21.3653 6.03124 21.3653C5.75651 21.6394 5.67452 22.0515 5.8236 22.4099C5.97161 22.7674 6.32088 23.0012 6.70848 23.0012H16.2921C16.6797 23.0012 17.029 22.7674 17.177 22.4099C17.3261 22.0515 17.2441 21.6394 16.9693 21.3653C16.9693 21.3653 16.3666 20.7586 15.8821 19.9114C15.5936 19.4064 15.3337 18.8112 15.3337 18.2094C15.3337 17.6803 14.9046 17.251 14.3754 17.251ZM9.46111 19.1677C9.2918 19.8606 8.96702 20.5229 8.62414 21.0845H14.3764C14.0336 20.5229 13.7088 19.8606 13.5395 19.1677H9.46111Z" fill="#2D3250"/>
<path fill-rule="evenodd" clip-rule="evenodd" d="M5.75023 23.0007H17.2506C17.7796 23.0007 18.2089 22.5714 18.2089 22.0424C18.2089 21.5133 17.7796 21.084 17.2506 21.084H5.75023C5.22122 21.084 4.79187 21.5133 4.79187 22.0424C4.79187 22.5714 5.22122 23.0007 5.75023 23.0007Z" fill="#2D3250"/>
</g>
<defs>
<clipPath id="clip0_505_108">
<rect width="24" height="24" fill="white"/>
</clipPath>
</defs>
</svg>
