<svg width="20" height="20" viewBox="0 0 20 20" fill="none" xmlns="http://www.w3.org/2000/svg">
<rect x="2" y="6" width="15" height="11" fill="#B0B0B4"/>
<path d="M16.9188 6.39653V15.9151C16.9188 16.3528 16.9135 16.7922 16.9188 17.2299V17.2475L17.7977 16.3686H2.84219C2.64004 16.3686 2.43789 16.3668 2.23574 16.3686H2.20937L3.08828 17.2475V7.72895C3.08828 7.29126 3.09355 6.85181 3.08828 6.41411V6.39653L2.20937 7.27544H17.1648C17.367 7.27544 17.5691 7.2772 17.7713 7.27544H17.7977C18.0227 7.27544 18.26 7.177 18.4199 7.0188C18.5729 6.86587 18.6871 6.61626 18.6766 6.39653C18.666 6.16978 18.5922 5.93423 18.4199 5.77427C18.2477 5.61606 18.0367 5.51763 17.7977 5.51763H2.84219C2.64004 5.51763 2.43789 5.51587 2.23574 5.51763H2.20937C1.73477 5.51763 1.33047 5.92017 1.33047 6.39653V15.9151C1.33047 16.3528 1.3252 16.7922 1.33047 17.2299V17.2475C1.33047 17.7221 1.73301 18.1264 2.20937 18.1264H17.1648C17.367 18.1264 17.5691 18.1282 17.7713 18.1264H17.7977C18.2723 18.1264 18.6766 17.7239 18.6766 17.2475V7.72895C18.6766 7.29126 18.6818 6.85181 18.6766 6.41411V6.39653C18.6766 6.17153 18.5781 5.93423 18.4199 5.77427C18.267 5.62134 18.0174 5.50708 17.7977 5.51763C17.5709 5.52817 17.3354 5.602 17.1754 5.77427C17.0189 5.94829 16.9188 6.15923 16.9188 6.39653Z" fill="#2A1E1E"/>
<path d="M8 6.5L3 7L2.5 6L5.5 2.5H14.5L18 6.5L12.5 6L12 10.5L10 10L8 10.5V6.5Z" fill="white"/>
<path d="M17.7953 5.51934H2.83978C2.63763 5.51934 2.43549 5.51758 2.23334 5.51934H2.20697C2.41439 6.02031 2.62181 6.51953 2.82924 7.02051L3.98939 5.78652C4.60638 5.13086 5.22338 4.47695 5.83861 3.82129C5.97924 3.67188 6.12162 3.5207 6.26224 3.37129C6.05482 3.45742 5.8474 3.54355 5.63998 3.62793H13.2935C13.6451 3.62793 13.9966 3.6332 14.3482 3.62793H14.364C14.1566 3.5418 13.9492 3.45566 13.7417 3.37129L14.9019 4.60527C15.5189 5.26094 16.1359 5.91484 16.7511 6.57051C16.8917 6.71992 17.0341 6.87109 17.1747 7.02051C17.3259 7.18223 17.5773 7.27715 17.797 7.27715C18.0132 7.27715 18.2699 7.18223 18.4193 7.02051C18.5722 6.85352 18.6865 6.63379 18.6759 6.39824C18.6654 6.16094 18.5828 5.95176 18.4193 5.77598C18.0695 5.40508 17.7214 5.03418 17.3716 4.66328C16.7757 4.03047 16.1816 3.39766 15.5857 2.7666C15.4081 2.57676 15.2288 2.38867 15.0513 2.19883C14.8703 2.00547 14.6453 1.87539 14.3622 1.87012H5.90717C5.74896 1.87012 5.55736 1.85254 5.40619 1.90176C5.10384 2.0002 4.93685 2.21465 4.73119 2.43262C4.17748 3.01973 3.62552 3.60684 3.07181 4.1957C2.60072 4.69668 2.12963 5.1959 1.65853 5.69688C1.63392 5.72324 1.60756 5.75137 1.58295 5.77773C1.33861 6.03789 1.26127 6.40703 1.40189 6.7375C1.53724 7.05566 1.85189 7.27715 2.20521 7.27715H17.1607C17.3628 7.27715 17.565 7.27891 17.7671 7.27715H17.7935C18.0185 7.27715 18.2558 7.17871 18.4158 7.02051C18.5687 6.86758 18.6829 6.61797 18.6724 6.39824C18.6619 6.17148 18.588 5.93594 18.4158 5.77598C18.2453 5.61953 18.0343 5.51934 17.7953 5.51934Z" fill="#2A1E1E"/>
<path d="M11.0629 6.39648V11.2164C11.5041 10.9633 11.9453 10.7101 12.3848 10.457C11.8047 10.1529 11.2246 9.84882 10.6428 9.54472C10.5689 9.50605 10.4951 9.46562 10.4195 9.42694C10.2824 9.35839 10.133 9.29862 9.9748 9.30566C9.81309 9.31269 9.67598 9.35136 9.53008 9.42519C9.52305 9.4287 9.51602 9.43222 9.50898 9.43749C9.47031 9.45859 9.42988 9.47792 9.39121 9.49902C9.05371 9.67655 8.71621 9.85234 8.37871 10.0299C8.10801 10.1723 7.8373 10.3146 7.56484 10.4553C8.00605 10.7084 8.44727 10.9615 8.88672 11.2146V6.39472L8.00781 7.27362H11.94C12.165 7.27362 12.4023 7.17519 12.5623 7.01698C12.7152 6.86405 12.8295 6.61444 12.8189 6.39472C12.8084 6.16796 12.7346 5.93241 12.5623 5.77245C12.39 5.61425 12.1791 5.51581 11.94 5.51581H8.00781C7.5332 5.51581 7.12891 5.91835 7.12891 6.39472V11.2146C7.12891 11.524 7.29766 11.8176 7.56484 11.974C7.84609 12.1392 8.16953 12.1217 8.45254 11.974C9.02559 11.6734 9.60039 11.3728 10.1734 11.0723C10.2561 11.0301 10.3369 10.9861 10.4195 10.9439H9.53184C10.1049 11.2445 10.6797 11.5451 11.2527 11.8457C11.3354 11.8879 11.4162 11.9318 11.4988 11.974C11.7801 12.1217 12.1053 12.1392 12.3865 11.974C12.6537 11.8176 12.8225 11.5258 12.8225 11.2146V6.39472C12.8225 6.16972 12.724 5.93241 12.5658 5.77245C12.4129 5.61952 12.1633 5.50526 11.9436 5.51581C11.7168 5.52636 11.4812 5.60019 11.3213 5.77245C11.1631 5.94823 11.0629 6.15917 11.0629 6.39648Z" fill="#2A1E1E"/>
</svg>
