<svg width="24" height="24" viewBox="0 0 24 24" fill="none" xmlns="http://www.w3.org/2000/svg">
<path d="M23.0506 24.0001C23.0077 24.0001 22.9647 23.9971 22.9217 23.9911L11.7629 22.421C11.3097 22.3574 10.968 21.9641 10.968 21.5065V13.3984C10.968 12.8892 11.3824 12.4749 11.8916 12.4749H23.0532C23.2998 12.4749 23.5318 12.571 23.7063 12.7455C23.8806 12.92 23.9767 13.1518 23.9767 13.3986L23.974 23.0767C23.9738 23.3442 23.8581 23.5983 23.6561 23.7737C23.4869 23.9206 23.2716 24.0001 23.0506 24.0001ZM12.3739 21.0872L22.5681 22.5215L22.5705 13.8809H12.3739V21.0872ZM9.1875 22.1844C9.14575 22.1844 9.10382 22.1815 9.06189 22.1758L0.808045 21.0444C0.353211 20.9819 0.0100715 20.5888 0.00988838 20.1296L0.00952214 13.3984C0.00952214 13.1518 0.105469 12.92 0.279969 12.7455C0.454468 12.571 0.68628 12.4749 0.933106 12.4749H9.18732C9.69653 12.4749 10.1109 12.8892 10.1109 13.3984V21.2608C10.1109 21.5278 9.99554 21.7814 9.79431 21.9568C9.62531 22.1044 9.40924 22.1842 9.1875 22.1844ZM9.2525 20.7827L9.25305 20.7829C9.25287 20.7829 9.25269 20.7827 9.2525 20.7827ZM1.41596 19.7086L8.70502 20.7076V13.8809H1.41559L1.41596 19.7086ZM9.18439 11.6146L0.923401 11.613C0.414918 11.613 0.000549976 11.1992 6.5755e-07 10.6905V4.03241C-0.000548661 3.57281 0.34314 3.17895 0.799439 3.11706L9.06006 1.99518C9.32428 1.95929 9.59088 2.03931 9.79175 2.21472C9.99261 2.39014 10.1078 2.64374 10.1078 2.91034V10.691C10.1078 11.2004 9.6936 11.6146 9.18439 11.6146ZM1.40607 10.2071L8.7019 10.2086V3.46277L1.40607 4.45355V10.2071ZM23.0504 11.524H11.8916C11.3824 11.524 10.968 11.1098 10.968 10.6004V2.54724C10.968 2.09186 11.3079 1.6991 11.7585 1.63336H11.7587L22.9173 0.0095817C23.1828 -0.0288705 23.4516 0.0494987 23.6545 0.225097C23.8575 0.400695 23.9738 0.655211 23.9738 0.923644V10.6004C23.9738 11.1098 23.5596 11.524 23.0504 11.524ZM12.3739 10.1181H22.5679V1.4812L12.3739 2.96454V10.1181Z" fill="#2D3250"/>
</svg>
