<svg width="25" height="24" viewBox="0 0 25 24" fill="none" xmlns="http://www.w3.org/2000/svg">
<g clip-path="url(#clip0_1492_297)">
<path d="M23.8621 24.0001C23.8193 24.0001 23.7762 23.9971 23.7332 23.9911L12.5744 22.421C12.1212 22.3574 11.7795 21.9641 11.7795 21.5065V13.3984C11.7795 12.8892 12.1939 12.4749 12.7031 12.4749H23.8647C24.1113 12.4749 24.3433 12.571 24.5178 12.7455C24.6921 12.92 24.7883 13.1518 24.7883 13.3986L24.7855 23.0767C24.7853 23.3442 24.6696 23.5983 24.4676 23.7737C24.2985 23.9206 24.0831 24.0001 23.8621 24.0001ZM13.1854 21.0872L23.3796 22.5215L23.382 13.8809H13.1854V21.0872ZM9.99902 22.1844C9.95728 22.1844 9.91534 22.1815 9.87341 22.1758L1.61957 21.0444C1.16473 20.9819 0.821595 20.5888 0.821412 20.1296L0.821046 13.3984C0.821046 13.1518 0.916993 12.92 1.09149 12.7455C1.26599 12.571 1.4978 12.4749 1.74463 12.4749H9.99884C10.5081 12.4749 10.9224 12.8892 10.9224 13.3984V21.2608C10.9224 21.5278 10.8071 21.7814 10.6058 21.9568C10.4368 22.1044 10.2208 22.1842 9.99902 22.1844ZM10.064 20.7827C10.0642 20.7827 10.0638 20.7827 10.064 20.7827ZM2.22748 19.7086L9.51654 20.7076V13.8809H2.22711L2.22748 19.7086ZM9.99591 11.6146L1.73492 11.613C1.22644 11.613 0.812073 11.1992 0.811524 10.6905V4.03241C0.810975 3.57281 1.15466 3.17895 1.61096 3.11706L9.87158 1.99518C10.1358 1.95929 10.4024 2.03931 10.6033 2.21472C10.8041 2.39014 10.9193 2.64374 10.9193 2.91034V10.691C10.9193 11.2004 10.5051 11.6146 9.99591 11.6146ZM2.21759 10.2071L9.51343 10.2086V3.46277L2.21759 4.45355V10.2071ZM23.8619 11.524H12.7031C12.1939 11.524 11.7795 11.1098 11.7795 10.6004V2.54724C11.7795 2.09186 12.1194 1.6991 12.57 1.63336L23.7288 0.00958171C23.9943 -0.0288705 24.2631 0.0494987 24.466 0.225097C24.6691 0.400695 24.7853 0.655211 24.7853 0.923644V10.6004C24.7853 11.1098 24.3712 11.524 23.8619 11.524ZM13.1854 10.1181H23.3795V1.4812L13.1854 2.96454V10.1181Z" fill="#F51322"/>
</g>
<defs>
<clipPath id="clip0_1492_297">
<rect width="25" height="24" fill="white"/>
</clipPath>
</defs>
</svg>
