<svg width="20" height="20" viewBox="0 0 20 20" fill="none" xmlns="http://www.w3.org/2000/svg">
<path d="M10.6292 11.155L8.38281 17.6827C9.05383 17.8794 9.76324 17.988 10.4983 17.988C11.37 17.988 12.2065 17.8371 12.9843 17.5634C12.9643 17.5313 12.9461 17.4972 12.9312 17.4602L10.6292 11.155Z" fill="#2A1E1E"/>
<path d="M3.01172 10.4996C3.01172 13.4636 4.73422 16.0248 7.23196 17.2384L3.6604 7.45251C3.24506 8.38371 3.01172 9.41423 3.01172 10.4996Z" fill="#2A1E1E"/>
<path d="M15.556 10.1219C15.556 9.19656 15.2239 8.55591 14.939 8.05672C14.5593 7.43997 14.2036 6.91785 14.2036 6.30091C14.2036 5.61266 14.7255 4.97201 15.461 4.97201C15.4943 4.97201 15.5256 4.97612 15.5581 4.97769C14.2263 3.75772 12.4517 3.01245 10.5021 3.01245C7.88583 3.01245 5.5844 4.35448 4.24609 6.38751C4.42164 6.3928 4.58679 6.39652 4.72785 6.39652C5.51113 6.39652 6.72366 6.3015 6.72366 6.3015C7.12764 6.27721 7.17466 6.87025 6.77166 6.91785C6.77166 6.91785 6.36591 6.96546 5.91472 6.98936L8.6409 15.0997L10.2793 10.1852L9.11247 6.98917C8.70927 6.96527 8.32743 6.91766 8.32743 6.91766C7.92423 6.89415 7.97125 6.2774 8.37465 6.3013C8.37465 6.3013 9.61147 6.39632 10.3467 6.39632C11.1298 6.39632 12.3427 6.3013 12.3427 6.3013C12.7467 6.2774 12.7939 6.87005 12.3904 6.91766C12.3904 6.91766 11.9842 6.96527 11.5334 6.98917L14.2396 15.038L14.9864 12.5424C15.3099 11.5068 15.556 10.7627 15.556 10.1219Z" fill="#2A1E1E"/>
<path d="M17.0715 6.90747C17.1037 7.14571 17.1221 7.40216 17.1221 7.67742C17.1221 8.43719 16.9804 9.29138 16.553 10.3593L14.2656 16.9717C16.4914 15.6736 17.9892 13.2618 17.9892 10.5C17.9894 9.19793 17.6566 7.97385 17.0715 6.90747Z" fill="#2A1E1E"/>
<path d="M10.4998 1C5.25316 1 1 5.25335 1 10.5C1 15.7466 5.25316 20 10.4998 20C15.7465 20 19.9996 15.7466 19.9996 10.5C19.9996 5.25335 15.7465 1 10.4998 1ZM10.5002 18.8278C5.90791 18.8278 2.17237 15.0923 2.17237 10.4996C2.17237 5.90771 5.90771 2.17217 10.5002 2.17217C15.0919 2.17217 18.8272 5.90791 18.8272 10.4996C18.8274 15.0919 15.0917 18.8278 10.5002 18.8278Z" fill="#9494A0"/>
</svg>
