<svg width="24" height="24" viewBox="0 0 24 24" fill="none" xmlns="http://www.w3.org/2000/svg">
<g clip-path="url(#clip0_1492_311)">
<mask id="mask0_1492_311" style="mask-type:luminance" maskUnits="userSpaceOnUse" x="0" y="0" width="24" height="24">
<path d="M24 0H0V24H24V0Z" fill="white"/>
</mask>
<g mask="url(#mask0_1492_311)">
<mask id="mask1_1492_311" style="mask-type:luminance" maskUnits="userSpaceOnUse" x="0" y="0" width="24" height="24">
<path d="M24 0H0V24H24V0Z" fill="white"/>
</mask>
<g mask="url(#mask1_1492_311)">
<path d="M12 0C9.62666 0 7.30655 0.7038 5.33315 2.02234C3.35975 3.34097 1.82169 5.21512 0.913462 7.40777C0.00523341 9.60052 -0.232454 12.0133 0.230575 14.3411C0.693604 16.6689 1.83652 18.8071 3.51472 20.4853C5.19292 22.1635 7.33115 23.3064 9.65889 23.7694C11.9867 24.2325 14.3995 23.9948 16.5922 23.0865C18.7849 22.1783 20.659 20.6403 21.9777 18.6669C23.2962 16.6935 24 14.3733 24 12C23.9964 8.81854 22.7309 5.7684 20.4813 3.51874C18.2316 1.26909 15.1815 0.0036 12 0ZM12 22.0731C10.0077 22.0731 8.06023 21.4824 6.40363 20.3755C4.74712 19.2687 3.45609 17.6955 2.69366 15.8548C1.93123 14.0142 1.73178 11.9889 2.1204 10.0348C2.50912 8.0808 3.46843 6.28594 4.87723 4.87723C6.28595 3.46843 8.0808 2.50911 10.0348 2.1204C11.9889 1.73177 14.0142 1.93123 15.8548 2.69366C17.6955 3.456 19.2687 4.74711 20.3755 6.40363C21.4824 8.06014 22.0731 10.0077 22.0731 12C22.0702 14.6707 21.008 17.2311 19.1195 19.1195C17.2311 21.008 14.6707 22.0702 12 22.0731Z" fill="#F51322"/>
<path d="M20.0965 8.71236L18.6976 6.59179C18.5569 6.37845 18.3372 6.22973 18.0868 6.17839C17.8365 6.12696 17.576 6.17719 17.3627 6.31793C17.1493 6.45859 17.0006 6.67836 16.9493 6.92873C16.8978 7.17902 16.9481 7.43959 17.0888 7.65293L18.2159 9.36207L15.7156 15.9518L12.2871 7.74893C12.1884 7.51313 12.0001 7.32628 11.7637 7.22933C11.5272 7.13239 11.2619 7.13342 11.0262 7.23207C10.7905 7.33073 10.6036 7.51896 10.5066 7.75545C10.4097 7.99193 10.4107 8.25713 10.5094 8.49293L11.5868 11.0644L9.73365 15.9501L6.30508 7.74722C6.20642 7.51142 6.01811 7.32456 5.78171 7.22762C5.54522 7.13067 5.27994 7.1317 5.04422 7.23036C4.80851 7.32902 4.62156 7.51725 4.52462 7.75373C4.42768 7.99022 4.42871 8.25542 4.52737 8.49122L8.89108 18.9226C8.96445 19.0978 9.08797 19.2475 9.24611 19.3528C9.40425 19.4579 9.58999 19.5141 9.77994 19.5141H9.79622C9.98891 19.5108 10.1762 19.4499 10.3338 19.3391C10.4915 19.2283 10.6124 19.0728 10.6808 18.8926L12.6702 13.6495L14.8757 18.9226C14.949 19.0978 15.0725 19.2475 15.2307 19.3528C15.3888 19.4579 15.5746 19.5141 15.7645 19.5141H15.7714C15.9641 19.5108 16.1513 19.4499 16.309 19.3391C16.4667 19.2283 16.5875 19.0728 16.6559 18.8926L20.1891 9.58322C20.2435 9.44102 20.2636 9.28802 20.2475 9.13665C20.2313 8.98527 20.1796 8.83982 20.0965 8.71236Z" fill="#F51322"/>
</g>
</g>
</g>
<defs>
<clipPath id="clip0_1492_311">
<rect width="24" height="24" fill="white"/>
</clipPath>
</defs>
</svg>
