<svg width="24" height="24" viewBox="0 0 24 24" fill="none" xmlns="http://www.w3.org/2000/svg">
<g clip-path="url(#clip0_505_70)">
<mask id="mask0_505_70" style="mask-type:luminance" maskUnits="userSpaceOnUse" x="0" y="0" width="24" height="24">
<path d="M24 0H0V24H24V0Z" fill="white"/>
</mask>
<g mask="url(#mask0_505_70)">
<path d="M12 0C9.62666 0 7.30655 0.7038 5.33315 2.02234C3.35975 3.34097 1.82169 5.21511 0.913462 7.40777C0.00523332 9.60051 -0.232454 12.0133 0.230575 14.3411C0.693603 16.6689 1.83652 18.8071 3.51472 20.4853C5.19292 22.1635 7.33115 23.3064 9.65889 23.7694C11.9867 24.2325 14.3995 23.9948 16.5922 23.0865C18.7849 22.1783 20.659 20.6403 21.9777 18.6669C23.2962 16.6935 24 14.3733 24 12C23.9964 8.81854 22.7309 5.7684 20.4813 3.51874C18.2316 1.26909 15.1815 0.0036 12 0ZM12 22.0731C10.0077 22.0731 8.06023 21.4824 6.40363 20.3755C4.74712 19.2687 3.45609 17.6955 2.69366 15.8548C1.93123 14.0142 1.73178 11.9889 2.1204 10.0348C2.50912 8.0808 3.46843 6.28594 4.87723 4.87723C6.28595 3.46843 8.0808 2.50911 10.0348 2.1204C11.9889 1.73177 14.0142 1.93123 15.8548 2.69366C17.6955 3.456 19.2687 4.74711 20.3755 6.40363C21.4824 8.06014 22.0731 10.0077 22.0731 12C22.0702 14.6707 21.008 17.2311 19.1195 19.1195C17.2311 21.008 14.6707 22.0702 12 22.0731Z" fill="#2D3250"/>
<path d="M20.0966 8.71187L18.6978 6.5913C18.557 6.37796 18.3373 6.22924 18.087 6.1779C17.8366 6.12647 17.5761 6.1767 17.3628 6.31744C17.1494 6.4581 17.0007 6.67787 16.9494 6.92824C16.8979 7.17853 16.9482 7.4391 17.0889 7.65244L18.2161 9.36159L15.7158 15.9513L12.2872 7.74844C12.1885 7.51264 12.0002 7.32579 11.7638 7.22884C11.5273 7.1319 11.2621 7.13293 11.0263 7.23159C10.7906 7.33024 10.6037 7.51847 10.5067 7.75496C10.4098 7.99144 10.4108 8.25664 10.5095 8.49244L11.5869 11.0639L9.73377 15.9496L6.3052 7.74673C6.20655 7.51093 6.01823 7.32407 5.78183 7.22713C5.54534 7.13019 5.28006 7.13122 5.04434 7.22987C4.80863 7.32853 4.62169 7.51676 4.52474 7.75324C4.4278 7.98973 4.42883 8.25493 4.52749 8.49073L8.8912 18.9222C8.96457 19.0974 9.08809 19.247 9.24623 19.3523C9.40437 19.4574 9.59012 19.5136 9.78006 19.5136H9.79634C9.98903 19.5103 10.1763 19.4494 10.3339 19.3386C10.4917 19.2278 10.6125 19.0723 10.6809 18.8922L12.6703 13.649L14.8758 18.9222C14.9491 19.0974 15.0727 19.247 15.2308 19.3523C15.3889 19.4574 15.5747 19.5136 15.7646 19.5136H15.7715C15.9642 19.5103 16.1515 19.4494 16.3091 19.3386C16.4668 19.2278 16.5877 19.0723 16.6561 18.8922L20.1892 9.58273C20.2436 9.44053 20.2637 9.28753 20.2476 9.13616C20.2315 8.98479 20.1798 8.83933 20.0966 8.71187Z" fill="#2D3250"/>
</g>
</g>
<defs>
<clipPath id="clip0_505_70">
<rect width="24" height="24" fill="white"/>
</clipPath>
</defs>
</svg>
