<svg width="24" height="24" viewBox="0 0 24 24" fill="none" xmlns="http://www.w3.org/2000/svg">
<path d="M19.3846 24H4.61538C3.39176 23.9985 2.21867 23.5118 1.35343 22.6466C0.488199 21.7813 0.00146571 20.6082 0 19.3846V4.61538C0.00146571 3.39176 0.488199 2.21867 1.35343 1.35343C2.21867 0.488199 3.39176 0.00146571 4.61538 0H19.3846C20.6082 0.00146571 21.7813 0.488199 22.6466 1.35343C23.5118 2.21867 23.9985 3.39176 24 4.61538V19.3846C23.9985 20.6082 23.5118 21.7813 22.6466 22.6466C21.7813 23.5118 20.6082 23.9985 19.3846 24ZM4.61538 1.84615C3.88094 1.84615 3.17657 2.13791 2.65724 2.65724C2.13791 3.17657 1.84615 3.88094 1.84615 4.61538V19.3846C1.84615 20.1191 2.13791 20.8234 2.65724 21.3428C3.17657 21.8621 3.88094 22.1538 4.61538 22.1538H19.3846C20.1191 22.1538 20.8234 21.8621 21.3428 21.3428C21.8621 20.8234 22.1538 20.1191 22.1538 19.3846V4.61538C22.1538 3.88094 21.8621 3.17657 21.3428 2.65724C20.8234 2.13791 20.1191 1.84615 19.3846 1.84615H4.61538Z" fill="#2D3250"/>
<path d="M15.8929 8C13.6282 8 11.7854 9.8399 11.7854 12.1008C11.7854 14.3617 13.6282 16.2006 15.8929 16.2006C18.1577 16.2006 20 14.3612 20 12.1008C20 9.84038 18.1582 8 15.8929 8ZM15.8929 14.4113C14.6155 14.4113 13.5772 13.3744 13.5772 12.1008C13.5772 10.8272 14.615 9.78938 15.8929 9.78938C17.1709 9.78938 18.2077 10.8262 18.2077 12.1008C18.2077 13.3754 17.1699 14.4113 15.8929 14.4113Z" fill="#1A243C"/>
<path d="M11.7527 14.5859C12.1001 14.9328 12.1001 15.4943 11.7527 15.8407C11.5795 16.0139 11.3519 16.1005 11.1248 16.1005C10.8977 16.1005 10.6696 16.0139 10.4964 15.8407L8.00649 13.3547L5.51657 15.8407C5.34336 16.0139 5.11578 16.1005 4.88819 16.1005C4.66061 16.1005 4.43351 16.0139 4.25982 15.8407C3.91339 15.4938 3.91339 14.9323 4.25982 14.5859L6.74974 12.1008L4.25982 9.61471C3.91339 9.26781 3.91339 8.70631 4.25982 8.35989C4.6072 8.01298 5.17014 8.01298 5.51657 8.35989L8.00649 10.846L10.4964 8.35989C10.8428 8.01298 11.4063 8.01298 11.7527 8.35989C12.1001 8.70679 12.1001 9.26829 11.7527 9.61471L9.26373 12.1008L11.7527 14.5859Z" fill="#1A243C"/>
</svg>
