<svg width="20" height="20" viewBox="0 0 20 20" fill="none" xmlns="http://www.w3.org/2000/svg">
<g clip-path="url(#clip0_1353_2056)">
<path fill-rule="evenodd" clip-rule="evenodd" d="M2.99609 2C2.44597 2 2 2.44597 2 2.99609V17.0039C2 17.554 2.44597 18 2.99609 18H17.0039C17.554 18 18 17.554 18 17.0039V2.99609C18 2.44597 17.554 2 17.0039 2H2.99609ZM11.6644 7.39848H14.9467C15.1722 7.39848 15.3589 7.21632 15.3589 6.9962C15.3589 6.77609 15.1722 6.59393 14.9467 6.59393H11.6644C11.4389 6.59393 11.2522 6.77609 11.2522 6.9962C11.2522 7.21632 11.4389 7.39848 11.6644 7.39848ZM7.91556 6.9962C7.91556 7.21632 8.10222 7.39848 8.32778 7.39848C8.55333 7.39848 8.74 7.21632 8.74 6.9962C8.74 6.77609 8.55333 6.59393 8.32778 6.59393C8.10222 6.59393 7.91556 6.77609 7.91556 6.9962ZM6.27444 6.9962C6.27444 7.21632 6.46111 7.39848 6.68667 7.39848C6.91222 7.39848 7.09889 7.21632 7.09889 6.9962C7.09889 6.77609 6.91222 6.59393 6.68667 6.59393C6.46111 6.59393 6.27444 6.77609 6.27444 6.9962ZM4.63333 6.9962C4.63333 7.21632 4.82 7.39848 5.04556 7.39848C5.27111 7.39848 5.45778 7.21632 5.45778 6.9962C5.45778 6.77609 5.27111 6.59393 5.04556 6.59393C4.82 6.59393 4.63333 6.77609 4.63333 6.9962ZM4.22889 5H15.7711C16.4478 5 17 5.5389 17 6.19924V7.80076C17 8.4611 16.4478 9 15.7711 9H4.22889C3.55222 9 3 8.4611 3 7.80076V6.19924C3 5.5389 3.55222 5 4.22889 5Z" fill="#2A1E1E"/>
<path d="M4.20453 10.8975L4.95373 12.1935H4.98578L5.74299 10.8975H6.85276L5.61478 12.9487L6.89283 15H5.75501L4.98578 13.6899H4.95373L4.1845 15H3.05469L4.32672 12.9487L3.08674 10.8975H4.20453Z" fill="white"/>
<path d="M11.0064 12.9487C11.0064 13.4001 10.9196 13.7827 10.746 14.0966C10.5724 14.4104 10.3373 14.6488 10.0409 14.8117C9.74573 14.9746 9.41453 15.0561 9.04728 15.0561C8.67869 15.0561 8.34682 14.974 8.05168 14.8097C7.75654 14.6455 7.52217 14.4071 7.34856 14.0946C7.17628 13.7807 7.09014 13.3988 7.09014 12.9487C7.09014 12.4974 7.17628 12.1147 7.34856 11.8009C7.52217 11.4871 7.75654 11.2487 8.05168 11.0858C8.34682 10.9228 8.67869 10.8414 9.04728 10.8414C9.41453 10.8414 9.74573 10.9228 10.0409 11.0858C10.3373 11.2487 10.5724 11.4871 10.746 11.8009C10.9196 12.1147 11.0064 12.4974 11.0064 12.9487ZM9.99279 12.9487C9.99279 12.6816 9.95473 12.456 9.87861 12.2717C9.80382 12.0874 9.69565 11.9478 9.55409 11.853C9.41386 11.7582 9.24493 11.7108 9.04728 11.7108C8.85096 11.7108 8.68202 11.7582 8.54046 11.853C8.3989 11.9478 8.29006 12.0874 8.21394 12.2717C8.13916 12.456 8.10176 12.6816 8.10176 12.9487C8.10176 13.2158 8.13916 13.4415 8.21394 13.6258C8.29006 13.8101 8.3989 13.9497 8.54046 14.0445C8.68202 14.1393 8.85096 14.1867 9.04728 14.1867C9.24493 14.1867 9.41386 14.1393 9.55409 14.0445C9.69565 13.9497 9.80382 13.8101 9.87861 13.6258C9.95473 13.4415 9.99279 13.2158 9.99279 12.9487Z" fill="white"/>
<path d="M12.2744 10.8975L13.1919 13.9023H13.226L14.1434 10.8975H15.2532L13.869 15H12.5489L11.1647 10.8975H12.2744Z" fill="white"/>
<path d="M16.6865 10.8975V15H15.6949V10.8975H16.6865Z" fill="white"/>
</g>
<defs>
<clipPath id="clip0_1353_2056">
<rect width="20" height="20" fill="white"/>
</clipPath>
</defs>
</svg>
