<svg width="55" height="55" viewBox="0 0 55 55" fill="none" xmlns="http://www.w3.org/2000/svg">
<path d="M27.8597 38.9273C19.4229 38.9273 11.7168 34.6568 7.23639 27.4992C11.7168 20.3415 19.4222 16.0703 27.859 16.0703C36.2957 16.0703 44.0011 20.3415 48.4822 27.4992C44.0011 34.6569 36.2964 38.9273 27.8597 38.9273ZM10.9254 27.3469L10.8085 27.4992L10.9254 27.6514C14.9919 32.9465 21.1564 35.9808 27.859 35.9808C34.5615 35.9808 40.7261 32.9472 44.7925 27.6514L44.9095 27.4992L44.7925 27.3469C40.7261 22.0518 34.5615 19.0175 27.859 19.0175C21.1565 19.0175 14.9919 22.0511 10.9254 27.3469Z" fill="#00A63F" stroke="#D3EAF8" stroke-width="0.5"/>
<path d="M21.2266 27.4968C21.2266 23.8414 24.2007 20.8672 27.8562 20.8672C31.5116 20.8672 34.4858 23.842 34.4858 27.4968C34.4858 31.1516 31.5116 34.1264 27.8562 34.1264C24.2007 34.1264 21.2266 31.1522 21.2266 27.4968ZM24.1738 27.4968C24.1738 29.5276 25.8254 31.1792 27.8562 31.1792C29.8869 31.1792 31.5385 29.5276 31.5385 27.4968C31.5385 25.466 29.8869 23.8144 27.8562 23.8144C25.8254 23.8144 24.1738 25.466 24.1738 27.4968Z" fill="#00A63F" stroke="#D3EAF8" stroke-width="0.5"/>
<path d="M39.1572 0.75H48.8347C50.8268 0.75 52.2277 1.21849 53.1332 2.11983C54.0384 3.02091 54.4944 4.40019 54.4944 6.32457V15.053C54.4944 15.3902 54.3266 15.7087 54.0532 15.9486C53.7791 16.189 53.4147 16.3352 53.0568 16.3352C52.6994 16.3352 52.3351 16.1889 52.0608 15.9484C51.7872 15.7083 51.6193 15.3898 51.6193 15.053V6.32457C51.6193 5.77206 51.6101 5.32301 51.5551 4.96754C51.4997 4.61012 51.3933 4.31218 51.171 4.0907C50.9495 3.86984 50.6467 3.75893 50.2746 3.69893C49.9034 3.63907 49.4292 3.625 48.8347 3.625H39.1572C38.8201 3.625 38.5016 3.45717 38.2617 3.18358C38.0212 2.90936 37.875 2.54503 37.875 2.1875C37.875 1.83004 38.0213 1.46571 38.2619 1.19145C38.5019 0.917803 38.8205 0.75 39.1572 0.75Z" fill="#00A63F" stroke="#D3EAF8" stroke-width="0.5"/>
<path d="M3.86719 15.053C3.86719 15.3902 3.69935 15.7087 3.42577 15.9486C3.15155 16.1891 2.78722 16.3352 2.42969 16.3352C2.07216 16.3352 1.70783 16.1891 1.43361 15.9486C1.16002 15.7087 0.992188 15.3902 0.992188 15.053V6.32457C0.992188 4.40772 1.50153 3.02841 2.46302 2.12482C3.42744 1.2185 4.88978 0.75 6.88199 0.75H16.5588C16.8959 0.75 17.2144 0.917833 17.4544 1.19142C17.6949 1.46564 17.841 1.82997 17.841 2.1875C17.841 2.54496 17.6947 2.90929 17.4541 3.18355C17.2141 3.4572 16.8956 3.625 16.5588 3.625H6.88199C6.28676 3.625 5.79964 3.63915 5.40837 3.69857C5.01686 3.75803 4.69269 3.86662 4.44504 4.07738C4.19311 4.29178 4.05081 4.58558 3.97031 4.95219C3.89089 5.31388 3.86719 5.7672 3.86719 6.32457V15.053Z" fill="#00A63F" stroke="#D3EAF8" stroke-width="0.5"/>
<path d="M6.88199 51.3749H16.5595C16.8962 51.3749 17.2146 51.5427 17.4544 51.8163C17.6948 52.0905 17.841 52.4549 17.841 52.8124C17.841 53.1699 17.6947 53.5342 17.4541 53.8085C17.2141 54.0821 16.8956 54.2499 16.5588 54.2499H6.88199C4.88978 54.2499 3.42744 53.7814 2.46302 52.8751C1.50153 51.9715 0.992188 50.5922 0.992188 48.6753V39.5635C0.992188 39.2267 1.15999 38.9082 1.43364 38.6681C1.70789 38.4276 2.07222 38.2812 2.42969 38.2812C2.78715 38.2812 3.15148 38.4276 3.42574 38.6681C3.69938 38.9082 3.86719 39.2267 3.86719 39.5635V48.6753C3.86719 49.2327 3.89089 49.686 3.97031 50.0477C4.05081 50.4143 4.19311 50.7081 4.44504 50.9225C4.69269 51.1333 5.01686 51.2419 5.40837 51.3013C5.79964 51.3608 6.28676 51.3749 6.88199 51.3749Z" fill="#00A63F" stroke="#D3EAF8" stroke-width="0.5"/>
<path d="M51.6193 39.5635C51.6193 39.2263 51.7872 38.9078 52.0608 38.6679C52.335 38.4274 52.6993 38.2812 53.0568 38.2812C53.4147 38.2812 53.7791 38.4275 54.0532 38.6678C54.3267 38.9077 54.4944 39.226 54.4944 39.5628V48.6747C54.4944 50.599 54.0384 51.9783 53.1332 52.8794C52.2277 53.7807 50.8268 54.2492 48.8347 54.2492H39.1572C38.8201 54.2492 38.5016 54.0814 38.2617 53.8078C38.0212 53.5336 37.875 53.1693 37.875 52.8117C37.875 52.4543 38.0213 52.0899 38.2619 51.8157C38.5019 51.542 38.8205 51.3742 39.1572 51.3742H48.8347C49.4292 51.3742 49.9034 51.3602 50.2746 51.3003C50.6467 51.2403 50.9494 51.1294 51.171 50.9086C51.3932 50.6872 51.4997 50.3893 51.5551 50.032C51.6101 49.6766 51.6193 49.2277 51.6193 48.6753V39.5635Z" fill="#00A63F" stroke="#D3EAF8" stroke-width="0.5"/>
</svg>
