<svg width="56" height="56" viewBox="0 0 56 56" fill="none" xmlns="http://www.w3.org/2000/svg">
<g clip-path="url(#clip0_6_108)">
<path fill-rule="evenodd" clip-rule="evenodd" d="M35 5.25H29.75V0H26.25V5.25H21V0H17.5V5.25H14C11.6812 5.25 9.45005 6.17225 7.8138 7.81288C6.1688 9.4535 5.25 11.6795 5.25 14V17.5H0V21H5.25V26.25H0V29.75H5.25V35H0V38.5H5.25V42C5.25 44.3205 6.1688 46.5465 7.8138 48.1871C9.45005 49.8278 11.6812 50.75 14 50.75H17.5V56H21V50.75H26.25V56H29.75V50.75H35V56H38.5V50.75H42C44.3187 50.75 46.55 49.8278 48.1862 48.1871C49.8312 46.5465 50.75 44.3205 50.75 42V38.5H56V35H50.75V29.75H56V26.25H50.75V21H56V17.5H50.75V14C50.75 11.6795 49.8312 9.4535 48.1862 7.81288C46.55 6.17225 44.3187 5.25 42 5.25H38.5V0H35V5.25ZM47.25 14V42C47.25 43.3921 46.6987 44.7274 45.71 45.7126C44.73 46.697 43.3913 47.25 42 47.25H14C12.6088 47.25 11.27 46.697 10.29 45.7126C9.30126 44.7274 8.75 43.3921 8.75 42V14C8.75 12.6079 9.30126 11.2726 10.29 10.2874C11.27 9.303 12.6088 8.75 14 8.75H42C43.3913 8.75 44.73 9.303 45.71 10.2874C46.6987 11.2726 47.25 12.6079 47.25 14ZM35 17.5V38.5H38.5V17.5H35ZM17.5 23.625V38.5H21V32.375H26.25V38.5H29.75V23.625C29.75 20.2423 27.0112 17.5 23.625 17.5C20.2388 17.5 17.5 20.2423 17.5 23.625ZM26.25 28.875V23.625C26.25 22.1751 25.0775 21 23.625 21C22.1725 21 21 22.1751 21 23.625V28.875H26.25Z" fill="black"/>
</g>
<defs>
<clipPath id="clip0_6_108">
<rect width="56" height="56" fill="white"/>
</clipPath>
</defs>
</svg>
