<svg width="60" height="60" viewBox="0 0 60 60" fill="none" xmlns="http://www.w3.org/2000/svg">
<path d="M50.9566 36.0727C50.9546 35.3973 50.7771 34.7341 50.4417 34.148C50.1062 33.5619 49.6242 33.073 49.0429 32.7293C49.6386 32.2066 50.0606 31.5146 50.2524 30.7457C50.4443 29.9768 50.397 29.1677 50.1167 28.4264C49.8365 27.6851 49.3367 27.047 48.6841 26.5974C48.0315 26.1478 47.2573 25.908 46.4648 25.9102H33.3515C35.148 23.2371 38.066 18.123 38.066 13.0734C38.066 9.70781 35.9917 7.73672 33.9433 7.5293C32.3425 7.36641 31.0687 8.2793 30.7581 9.79805C30.1804 12.6105 27.3316 15.716 21.7898 19.5645C19.2602 21.3522 17.0072 23.5022 15.1031 25.9453L9.82963 25.9102C9.32807 25.923 9.04564 26.2547 9.04213 26.6859C9.04088 26.8934 9.122 27.0928 9.26768 27.2404C9.41335 27.3881 9.61167 27.4719 9.81908 27.4734L15.4863 27.5109C15.6107 27.5068 15.7327 27.4753 15.8435 27.4186C15.9543 27.3619 16.0512 27.2814 16.1273 27.1828C16.1531 27.1477 18.7113 23.6062 22.6804 20.8488C28.657 16.7004 31.616 13.3887 32.2898 10.1133C32.5113 9.03984 33.4956 9.05859 33.7863 9.08555C34.8796 9.1957 36.5038 10.35 36.5038 13.0699C36.5038 19.4812 31.1191 26.3707 30.7992 26.7809C30.3506 27.131 29.9852 27.576 29.7289 28.084C29.4726 28.592 29.332 29.1504 29.317 29.7192C29.3019 30.288 29.413 30.8531 29.6421 31.3739C29.8712 31.8947 30.2127 32.3584 30.6421 32.7316C30.0596 33.0739 29.5765 33.5625 29.2409 34.1489C28.9053 34.7354 28.7288 35.3993 28.7288 36.075C28.7288 36.7507 28.9053 37.4146 29.2409 38.0011C29.5765 38.5875 30.0596 39.0761 30.6421 39.4184C30.2047 39.7999 29.8587 40.275 29.63 40.8085C29.4012 41.3419 29.2954 41.9201 29.3205 42.5C29.3456 43.0799 29.5009 43.6467 29.775 44.1584C30.049 44.6701 30.4347 45.1135 30.9035 45.4559C30.4866 45.7591 30.1348 46.1427 29.8688 46.5842C29.6028 47.0257 29.428 47.516 29.3547 48.0261C29.2814 48.5363 29.3111 49.056 29.442 49.5545C29.573 50.053 29.8025 50.5202 30.1171 50.9285H21.4535C18.0292 50.9285 16.5667 47.6016 16.5058 47.4609C16.4457 47.3197 16.3455 47.1993 16.2176 47.1145C16.0897 47.0297 15.9397 46.9843 15.7863 46.984H9.82494C9.61764 46.984 9.41882 47.0663 9.27224 47.2129C9.12565 47.3595 9.0433 47.5583 9.0433 47.7656C9.0433 47.9729 9.12565 48.1717 9.27224 48.3183C9.41882 48.4649 9.61764 48.5473 9.82494 48.5473H15.3023C15.9269 49.6969 17.8218 52.4918 21.4535 52.4918H41.7398C42.7761 52.4906 43.7697 52.0782 44.5023 51.3453C45.235 50.6124 45.6471 49.6188 45.648 48.5824C45.645 47.7344 45.3634 46.9109 44.8464 46.2387H45.3796C46.4158 46.2374 47.4091 45.8253 48.1418 45.0926C48.8744 44.36 49.2866 43.3666 49.2878 42.3305C49.2853 41.3818 48.9341 40.4672 48.3011 39.7605C49.0734 39.5001 49.7448 39.0044 50.2211 38.343C50.6973 37.6816 50.9545 36.8877 50.9566 36.0727ZM48.805 29.8184C48.805 30.44 48.5581 31.0361 48.1185 31.4756C47.679 31.9152 47.0829 32.1621 46.4613 32.1621H33.2238C32.6022 32.1621 32.006 31.9152 31.5665 31.4756C31.1269 31.0361 30.88 30.44 30.88 29.8184C30.88 29.1968 31.1269 28.6006 31.5665 28.1611C32.006 27.7215 32.6022 27.4746 33.2238 27.4746H46.466C47.0868 27.4758 47.6817 27.7233 48.1202 28.1627C48.5587 28.6021 48.805 29.1976 48.805 29.8184ZM44.0847 48.5801C44.0847 49.2017 43.8378 49.7978 43.3982 50.2374C42.9587 50.6769 42.3626 50.9238 41.741 50.9238H33.2238C32.6022 50.9238 32.006 50.6769 31.5665 50.2374C31.1269 49.7978 30.88 49.2017 30.88 48.5801C30.88 47.9585 31.1269 47.3623 31.5665 46.9228C32.006 46.4833 32.6022 46.2363 33.2238 46.2363H41.7398C42.0477 46.2362 42.3526 46.2967 42.6371 46.4144C42.9216 46.5321 43.1801 46.7047 43.3978 46.9224C43.6156 47.14 43.7883 47.3985 43.9062 47.6829C44.024 47.9673 44.0847 48.2722 44.0847 48.5801ZM45.3796 44.6719H33.2238C32.6022 44.6719 32.006 44.4249 31.5665 43.9854C31.1269 43.5459 30.88 42.9497 30.88 42.3281C30.88 41.7065 31.1269 41.1104 31.5665 40.6708C32.006 40.2313 32.6022 39.9844 33.2238 39.9844H45.3796C46.0012 39.9844 46.5974 40.2313 47.0369 40.6708C47.4765 41.1104 47.7234 41.7065 47.7234 42.3281C47.7234 42.9497 47.4765 43.5459 47.0369 43.9854C46.5974 44.4249 46.0012 44.6719 45.3796 44.6719ZM47.0472 38.4176H32.6331C32.0115 38.4176 31.4154 38.1706 30.9759 37.7311C30.5363 37.2916 30.2894 36.6954 30.2894 36.0738C30.2894 35.4522 30.5363 34.8561 30.9759 34.4165C31.4154 33.977 32.0115 33.7301 32.6331 33.7301H47.0472C47.6688 33.7301 48.2649 33.977 48.7045 34.4165C49.144 34.8561 49.391 35.4522 49.391 36.0738C49.391 36.6954 49.144 37.2916 48.7045 37.7311C48.2649 38.1706 47.6688 38.4176 47.0472 38.4176Z" fill="black"/>
</svg>
