<svg width="56" height="56" viewBox="0 0 56 56" fill="none" xmlns="http://www.w3.org/2000/svg">
<path d="M5.13333 21.2333H3.03333V8.63333C3.03333 5.83333 5.36666 3.5 8.39999 3.5H21V5.6H8.39999C6.76666 5.36667 5.13333 7 5.13333 8.63333V21.2333Z" fill="black"/>
<path d="M47.6 53.2H35V51.1H47.6C49.2333 51.1 50.8667 49.7 50.8667 47.8333V35.2333H52.9667V47.8333C52.9667 50.8667 50.6333 53.2 47.6 53.2Z" fill="black"/>
<path d="M34.0667 47.3666H11.2C8.63333 47.3666 6.53333 45.2666 6.53333 42.6999C6.53333 35.9333 10.7333 30.0999 16.8 27.7666C15.6333 26.5999 14.9333 24.7333 14.9333 22.8666V21.2333C14.9333 17.4999 17.9667 14.4666 21.7 14.4666H23.5667C27.3 14.4666 30.3333 17.4999 30.3333 21.2333V23.0999C30.3333 24.9666 29.6333 26.5999 28.2333 27.9999C34.3 30.3333 38.5 36.1666 38.5 42.9333C38.7333 45.2666 36.6333 47.3666 34.0667 47.3666ZM21.7 16.5666C19.1333 16.5666 17.0333 18.6666 17.0333 21.2333V23.0999C17.0333 24.9666 17.9667 26.5999 19.6 27.2999C20.0667 27.5333 20.3 27.9999 20.0667 28.4666C19.8333 28.9333 19.6 29.1666 19.3667 29.3999C13.0667 31.0333 8.63333 36.3999 8.63333 42.9333C8.63333 44.3333 9.79999 45.4999 11.2 45.4999H34.0667C35.4667 45.4999 36.6333 44.3333 36.6333 42.9333C36.6333 36.3999 32.2 30.7999 25.9 29.3999C25.4333 29.3999 25.2 28.9333 25.2 28.4666C25.2 27.9999 25.4333 27.5333 25.9 27.2999C27.5333 26.5999 28.4667 24.9666 28.4667 23.0999V21.2333C28.4667 18.6666 26.3667 16.5666 23.8 16.5666H21.7Z" fill="black"/>
<path d="M45.7333 35.2333H35C34.7666 35.2333 34.3 35 34.0666 34.7666C32.2 31.9666 29.1666 30.1 25.9 29.1666C25.4333 29.1666 25.2 28.7 25.2 28.2333C25.2 27.7666 25.4333 27.3 25.9 27.0666C27.5333 26.3666 28.4666 24.7333 28.4666 22.8666V22.4C28.4666 22.1666 28.6999 21.9333 28.9333 21.7C29.8666 21 31.0333 20.3 31.9666 19.8333C31.0333 18.9 30.5666 17.5 30.5666 16.3333V14.7C30.5666 11.6666 33.1333 9.09998 36.1666 9.09998H37.5666C40.6 9.09998 43.1666 11.6666 43.1666 14.7V16.1C43.1666 17.5 42.6999 18.6666 41.7666 19.6C46.4333 21.4666 49.4666 26.1333 49.4666 31.2666C49.4666 33.6 47.8333 35.2333 45.7333 35.2333ZM35.4666 33.1333H45.7333C46.6666 33.1333 47.3666 32.4333 47.3666 31.5C47.3666 26.6 44.0999 22.4 39.1999 21.2333C38.7333 21.2333 38.5 20.7666 38.5 20.3C38.5 19.8333 38.7333 19.3666 39.1999 19.1333C40.3666 18.6666 41.0666 17.5 41.0666 16.1V14.7C41.0666 12.8333 39.4333 11.2 37.5666 11.2H36.1666C34.3 11.2 32.6666 12.8333 32.6666 14.7V16.1C32.6666 17.2666 33.3666 18.6666 34.5333 19.1333C35 19.3666 35.2333 19.8333 35 20.3C34.7666 20.7666 34.7666 21 34.2999 21.2333C32.9 21.4666 31.7333 22.1666 30.5666 23.1V23.3333C30.5666 25.2 29.8666 26.8333 28.4666 28.2333C31.2666 28.9333 33.5999 30.8 35.4666 33.1333Z" fill="black"/>
</svg>
