<svg width="56" height="56" viewBox="0 0 56 56" fill="none" xmlns="http://www.w3.org/2000/svg">
<g clip-path="url(#clip0_14_245)">
<path d="M27.9992 55.9987C12.5356 55.9986 -0.000109372 43.4628 7.15689e-10 27.9991C7.15689e-10 20.5733 2.94988 13.4516 8.20075 8.20077C19.1368 -2.7333 36.8661 -2.73166 47.8 8.20438C57.3348 17.7409 58.7176 32.719 51.0901 43.84C51.4432 45.2967 53.4739 49.4154 55.3432 52.704C55.8714 53.6332 55.5463 54.8146 54.6172 55.3428C54.0345 55.6741 53.3217 55.6802 52.7334 55.359C52.7138 55.3479 50.7547 54.2807 48.5521 53.2233C45.4649 51.7414 44.1301 51.3433 43.6247 51.2363C39.01 54.3513 33.5668 56.0103 27.9992 55.9987ZM27.9992 3.8706C14.6946 3.8706 3.87058 14.6946 3.87058 27.9993C3.87058 41.3039 14.6946 52.128 27.9992 52.128C32.9463 52.1386 37.7756 50.6188 41.8249 47.7769C42.9087 47.0175 44.3574 47.3548 45.7613 47.8322C46.6702 48.1418 47.8056 48.6086 49.141 49.2231C48.5186 47.9362 48.0417 46.8433 47.7215 45.9692C47.1298 44.3546 46.8859 43.0694 47.6187 42.0481C50.5623 37.9562 52.1404 33.04 52.1281 27.9994C52.1281 14.6946 41.304 3.8706 27.9992 3.8706Z" fill="black"/>
</g>
<defs>
<clipPath id="clip0_14_245">
<rect width="56" height="56" fill="white"/>
</clipPath>
</defs>
</svg>
