<svg width="56" height="56" viewBox="0 0 56 56" fill="none" xmlns="http://www.w3.org/2000/svg">
<path d="M47.7969 29.3291H42.3152C41.5692 29.3291 40.8469 29.4311 40.1594 29.6185C38.8034 26.9528 36.0349 25.1212 32.8448 25.1212H23.1552C19.9651 25.1212 17.1966 26.9528 15.8406 29.6185C15.1531 29.4311 14.4308 29.3291 13.6848 29.3291H8.20312C3.67992 29.3291 0 33.009 0 37.5322V46.2952C0 49.0091 2.20795 51.217 4.92188 51.217H51.0781C53.792 51.217 56 49.0091 56 46.2952V37.5322C56 33.009 52.3201 29.3291 47.7969 29.3291ZM14.9521 33.3246V47.9359H4.92188C4.01723 47.9359 3.28125 47.1999 3.28125 46.2953V37.5324C3.28125 34.8184 5.4892 32.6105 8.20312 32.6105H13.6848C14.1302 32.6105 14.5614 32.671 14.972 32.7824C14.9602 32.9619 14.9521 33.1424 14.9521 33.3246ZM37.7666 47.9359H18.2334V33.3245C18.2334 30.6106 20.4413 28.4026 23.1552 28.4026H32.8448C35.5587 28.4026 37.7666 30.6106 37.7666 33.3245V47.9359ZM52.7188 46.2953C52.7188 47.1999 51.9828 47.9359 51.0781 47.9359H41.0479V33.3245C41.0479 33.1422 41.0398 32.9617 41.028 32.7823C41.4386 32.671 41.8698 32.6104 42.3152 32.6104H47.7969C50.5108 32.6104 52.7188 34.8183 52.7188 37.5322V46.2953Z" fill="black"/>
<path d="M10.9441 13.8364C6.92465 13.8364 3.65466 17.1063 3.65466 21.1258C3.65455 25.1452 6.92465 28.4152 10.9441 28.4152C14.9634 28.4152 18.2335 25.1452 18.2335 21.1258C18.2335 17.1063 14.9635 13.8364 10.9441 13.8364ZM10.944 25.1339C8.73382 25.1339 6.9358 23.3359 6.9358 21.1258C6.9358 18.9156 8.73382 17.1176 10.944 17.1176C13.1541 17.1176 14.9521 18.9156 14.9521 21.1258C14.9521 23.3359 13.1541 25.1339 10.944 25.1339Z" fill="black"/>
<path d="M28 4.78287C22.6301 4.78287 18.2615 9.15152 18.2615 14.5214C18.2615 19.8913 22.6301 24.2599 28 24.2599C33.3699 24.2599 37.7385 19.8913 37.7385 14.5214C37.7385 9.15163 33.3699 4.78287 28 4.78287ZM28 20.9787C24.4394 20.9787 21.5427 18.082 21.5427 14.5214C21.5427 10.9609 24.4394 8.06412 28 8.06412C31.5606 8.06412 34.4573 10.9608 34.4573 14.5214C34.4573 18.082 31.5606 20.9787 28 20.9787Z" fill="black"/>
<path d="M45.0559 13.8364C41.0366 13.8364 37.7665 17.1063 37.7665 21.1258C37.7666 25.1452 41.0366 28.4152 45.0559 28.4152C49.0753 28.4152 52.3453 25.1452 52.3453 21.1258C52.3453 17.1063 49.0753 13.8364 45.0559 13.8364ZM45.0559 25.1339C42.8459 25.1339 41.0477 23.3359 41.0477 21.1258C41.0478 18.9156 42.8459 17.1176 45.0559 17.1176C47.266 17.1176 49.064 18.9156 49.064 21.1258C49.064 23.3359 47.266 25.1339 45.0559 25.1339Z" fill="black"/>
</svg>
