<svg width="50" height="47" viewBox="0 0 50 47" fill="none" xmlns="http://www.w3.org/2000/svg">
<path d="M45.0318 43.8276C44.6818 43.8276 44.3318 43.8276 43.9872 43.8276C43.0357 43.8276 42.0841 43.8276 41.1325 43.8276C39.7216 43.8276 38.3107 43.8276 36.8997 43.8276C35.1716 43.8276 33.438 43.8276 31.7099 43.8276C29.8068 43.8276 27.8982 43.8276 25.995 43.8276C24.0536 43.8276 22.1177 43.8276 20.1763 43.8276C18.3443 43.8276 16.5122 43.8276 14.6802 43.8276C13.0997 43.8276 11.5193 43.8276 9.93879 43.8276C8.75207 43.8276 7.55988 43.8276 6.37317 43.8276C5.72238 43.8276 5.0716 43.8276 4.41535 43.8276C4.27863 43.8276 4.14738 43.833 4.01066 43.8221C4.0216 43.8221 3.86301 43.8166 3.86301 43.8111C3.86301 43.8057 4.0927 43.8494 3.96691 43.8276C3.89582 43.8111 3.81926 43.8002 3.74816 43.7838C3.66613 43.7619 3.5841 43.7401 3.50207 43.7127C3.46926 43.7018 3.43098 43.6854 3.39816 43.6744C3.26691 43.6416 3.57863 43.7674 3.45832 43.7018C3.3216 43.6252 3.17941 43.5651 3.04816 43.4776C3.02082 43.4611 2.98801 43.4338 2.96066 43.4174C2.85129 43.3572 3.05363 43.483 3.03723 43.483C2.99348 43.4885 2.85676 43.3299 2.82395 43.2971C2.77473 43.2479 2.72004 43.1987 2.67629 43.144C2.64348 43.1111 2.61613 43.0729 2.58332 43.0346C2.52863 42.9744 2.56691 42.9526 2.58332 43.0346C2.59973 43.1166 2.62707 43.0947 2.58332 43.0291C2.56691 42.9963 2.54504 42.969 2.52316 42.9416C2.47395 42.8596 2.42473 42.7776 2.38098 42.6901C2.36457 42.6572 2.34816 42.6244 2.33176 42.5916C2.29348 42.5205 2.33176 42.5041 2.33176 42.5916C2.32629 42.6791 2.35363 42.6627 2.33176 42.5861C2.31535 42.5424 2.29895 42.4932 2.28801 42.4494C2.26613 42.3783 2.24973 42.3072 2.23332 42.2361C2.22785 42.1979 2.21691 42.1651 2.21145 42.1268C2.20598 42.1049 2.20051 42.0776 2.20051 42.0557C2.18957 41.9955 2.19504 42.0065 2.20598 42.0885C2.21145 42.1104 2.21145 42.1377 2.21691 42.1596C2.21145 42.1213 2.21145 42.083 2.20598 42.0447C2.20598 42.0065 2.20051 41.9682 2.20051 41.9299C2.20051 41.908 2.20051 41.8752 2.20051 41.8533C2.20051 41.8479 2.20051 41.8479 2.20051 41.8424C2.20051 41.826 2.20051 41.8096 2.20051 41.7932C2.20051 41.7221 2.20051 41.651 2.20051 41.5854C2.20051 41.301 2.20051 41.0166 2.20051 40.7322C2.20051 39.6713 2.20051 38.6104 2.20051 37.544C2.20051 35.9908 2.20051 34.4377 2.20051 32.8846C2.20051 31.0361 2.20051 29.1932 2.20051 27.3447C2.20051 25.4033 2.20051 23.4619 2.20051 21.5205C2.20051 19.683 2.20051 17.8401 2.20051 16.0026C2.20051 14.4658 2.20051 12.9236 2.20051 11.3869C2.20051 10.3479 2.20051 9.3088 2.20051 8.26427C2.20051 7.99084 2.20051 7.72287 2.20051 7.44943C2.20051 7.38927 2.20051 7.32365 2.20051 7.26349C2.20051 7.25255 2.20051 7.24162 2.20051 7.22521C2.20051 7.18693 2.20051 7.14865 2.20051 7.11037C2.20051 7.06662 2.23332 6.82599 2.20051 6.99552C2.1677 7.16505 2.22785 6.86427 2.23879 6.81505C2.2552 6.74396 2.27707 6.67287 2.29895 6.60177C2.30988 6.56896 2.32082 6.53068 2.33176 6.49787C2.39191 6.29005 2.30441 6.56349 2.30441 6.55802C2.2716 6.49787 2.50676 6.17521 2.54504 6.11505C2.56145 6.08771 2.58879 6.0549 2.6052 6.02755C2.65988 5.91271 2.54504 6.12599 2.53957 6.10412C2.53957 6.0713 2.65441 5.9674 2.67629 5.94005C2.73098 5.8799 2.96066 5.59552 3.0427 5.60099C3.04816 5.60099 2.81301 5.75412 2.99348 5.64474C3.02629 5.62834 3.05363 5.60646 3.08098 5.58458C3.14113 5.5463 3.20129 5.50802 3.26691 5.47521C3.29973 5.4588 3.46379 5.34943 3.49113 5.36583C3.50754 5.3713 3.27238 5.43693 3.39816 5.40958C3.44191 5.39865 3.49113 5.37677 3.53488 5.36037C3.68801 5.31115 3.85207 5.30021 3.99973 5.25099C3.99426 5.25099 3.77551 5.2674 3.89582 5.2674C3.9341 5.2674 3.97238 5.26193 4.01066 5.26193C4.05988 5.26193 4.11457 5.25646 4.16379 5.25646H4.45363H6.48801H10.1138H14.8989H20.4169H26.2138H31.9177H37.0802H41.2693H44.0638H44.8021C44.9388 5.25646 45.2396 5.30021 45.338 5.27287C45.338 5.27287 45.1138 5.23458 45.2341 5.25646C45.2833 5.2674 45.3325 5.27287 45.3818 5.2838C45.4529 5.30021 45.5239 5.31662 45.595 5.33849C45.6661 5.36037 45.7318 5.38771 45.8028 5.40412C45.945 5.43693 45.6169 5.30568 45.7427 5.37677C45.7864 5.39865 45.8302 5.41505 45.8739 5.43693C45.9232 5.46427 46.2786 5.63927 46.2732 5.67755C46.2732 5.68302 46.1036 5.53537 46.1911 5.6174C46.2185 5.63927 46.2458 5.66115 46.2732 5.68849C46.3443 5.74865 46.4154 5.81427 46.481 5.88537C46.5302 5.93458 46.5739 5.98927 46.6232 6.04396C46.7544 6.19162 46.5193 5.8799 46.6232 6.04943C46.7107 6.19162 46.7982 6.3338 46.8747 6.48693C46.9568 6.65099 46.8146 6.29005 46.8857 6.52521C46.9075 6.5963 46.9294 6.66193 46.9513 6.73302C46.9732 6.81505 46.9896 6.90255 47.006 6.98459C47.0443 7.16505 46.9896 6.7713 47.006 7.02834C47.0169 7.18693 47.0114 7.34552 47.0114 7.50959V9.77365V13.7986V18.9885V24.7471V30.4838V35.608V39.5236V41.6346V41.8041V41.8369C47.0114 41.8861 47.0114 41.9408 47.006 41.9901C47.006 42.0283 47.0005 42.0666 47.0005 42.1049C47.0005 42.2252 47.0169 42.0065 47.0169 42.001C46.995 42.0666 46.9896 42.1486 46.9786 42.2197C46.9622 42.3018 46.9349 42.3838 46.913 42.4658C46.9021 42.4986 46.8911 42.5369 46.8802 42.5697C46.8583 42.6408 46.8857 42.6627 46.8802 42.5752C46.8747 42.4877 46.913 42.5041 46.8802 42.5752C46.8583 42.619 46.8364 42.6627 46.8146 42.7065C46.7818 42.7721 46.7435 42.8322 46.7052 42.8924C46.6943 42.9088 46.6013 43.0729 46.5849 43.0729C46.5849 43.0729 46.738 42.8979 46.6232 43.0236C46.6013 43.051 46.5794 43.0783 46.5521 43.1057C46.4482 43.2205 46.3333 43.3244 46.2185 43.4283C46.0708 43.5596 46.3825 43.3244 46.213 43.4283C46.1529 43.4666 46.0927 43.5049 46.0325 43.5432C45.9614 43.5869 45.8849 43.6252 45.8083 43.6635C45.7974 43.669 45.7208 43.7127 45.7099 43.7072C45.6935 43.7018 45.9286 43.6362 45.8028 43.6635C45.6497 43.7018 45.5021 43.7619 45.3435 43.7947C45.3052 43.8002 45.2724 43.8057 45.2341 43.8166C45.0864 43.844 45.4529 43.8002 45.2997 43.8057C45.2068 43.8166 45.1193 43.8221 45.0318 43.8276C44.4575 43.833 43.9107 44.3252 43.938 44.9213C43.9654 45.5065 44.4193 46.0205 45.0318 46.0151C46.6286 45.9932 48.1708 45.0526 48.8107 43.5651C49.0677 42.969 49.188 42.3565 49.188 41.7111C49.188 41.0385 49.188 40.3658 49.188 39.6987C49.188 38.408 49.188 37.1119 49.188 35.8213C49.188 34.1096 49.188 32.3979 49.188 30.6862C49.188 28.7502 49.188 26.8143 49.188 24.8783C49.188 22.9369 49.188 21.001 49.188 19.0596C49.188 17.3096 49.188 15.5651 49.188 13.8151C49.188 12.4643 49.188 11.1135 49.188 9.76271C49.188 9.00802 49.188 8.25333 49.188 7.49865C49.188 7.23615 49.1825 6.97912 49.1443 6.71662C48.9255 5.08146 47.7607 3.70334 46.1693 3.24396C45.5239 3.05802 44.8568 3.08537 44.195 3.08537C43.2872 3.08537 42.3739 3.08537 41.4661 3.08537C40.0771 3.08537 38.688 3.08537 37.2989 3.08537C35.5708 3.08537 33.8482 3.08537 32.12 3.08537C30.206 3.08537 28.2864 3.08537 26.3724 3.08537C24.4036 3.08537 22.4349 3.08537 20.4661 3.08537C18.6068 3.08537 16.7529 3.08537 14.8935 3.08537C13.2857 3.08537 11.6779 3.08537 10.07 3.08537C8.85598 3.08537 7.64738 3.08537 6.43332 3.08537C5.76066 3.08537 5.08801 3.08537 4.41535 3.08537C4.27863 3.08537 4.14191 3.0799 4.0052 3.09084C2.28801 3.17834 0.844258 4.26662 0.242696 5.86349C-0.0362104 6.60177 0.00207099 7.3838 0.00207099 8.1549V11.2174V15.8221V21.3674V27.2463V32.8682V37.5713V40.7705C0.00207099 41.3994 -0.0198039 42.0174 0.0786336 42.6408C0.330196 44.1994 1.63723 45.5338 3.16301 45.8947C3.55129 45.9877 3.94504 46.0151 4.33879 46.0151H6.19816H9.71457H14.4779H20.0068H25.8747H31.6497H36.9107H41.1708H44.02H45.0208C45.595 46.0151 46.1419 45.5119 46.1146 44.9213C46.0982 44.3252 45.6443 43.8276 45.0318 43.8276Z" fill="black"/>
<path d="M7.95362 18.6275H11.3224H19.3505H29.1122H37.5067C38.8739 18.6275 40.2411 18.6549 41.6083 18.6275H41.663C42.2372 18.6275 42.7841 18.1244 42.7567 17.5338C42.7294 16.9432 42.2755 16.44 41.663 16.44C40.5419 16.44 39.4153 16.44 38.2942 16.44C35.62 16.44 32.9403 16.44 30.2661 16.44C27.0122 16.44 23.7583 16.44 20.5044 16.44C17.7044 16.44 14.9099 16.44 12.1099 16.44C10.7427 16.44 9.3755 16.4127 8.00831 16.44C7.9919 16.44 7.97003 16.44 7.95362 16.44C7.3794 16.44 6.83253 16.9432 6.85987 17.5338C6.88721 18.1244 7.34112 18.6275 7.95362 18.6275Z" fill="black"/>
<path d="M27.9966 34.0658C27.3294 34.0658 26.6622 34.0658 26.0005 34.0658C24.4091 34.0658 22.8177 34.0658 21.2317 34.0658C19.3013 34.0658 17.3653 34.0658 15.4349 34.0658C13.7614 34.0658 12.0935 34.0658 10.42 34.0658C9.61065 34.0658 8.80128 34.0439 7.9919 34.0658C7.98096 34.0658 7.97003 34.0658 7.95362 34.0658C7.3794 34.0658 6.83253 34.5689 6.85987 35.1596C6.88721 35.7502 7.34112 36.2533 7.95362 36.2533H9.94971H14.7185H20.5153H25.5302C26.3396 36.2533 27.1489 36.2752 27.9583 36.2533H27.9966C28.5708 36.2533 29.1177 35.7502 29.0903 35.1596C29.063 34.5689 28.6091 34.0658 27.9966 34.0658Z" fill="black"/>
<path d="M11.5903 7.2416C11.5903 5.44785 11.5903 3.64863 11.5903 1.85488C11.5903 1.60332 11.5903 1.35176 11.5903 1.1002C11.5903 0.525978 11.0872 -0.020897 10.4966 0.00644672C9.90596 0.0337905 9.40283 0.487697 9.40283 1.1002V6.48692V7.2416C9.40283 7.81582 9.90596 8.3627 10.4966 8.33535C11.0872 8.30801 11.5903 7.8541 11.5903 7.2416Z" fill="black"/>
<path d="M18.8036 1.09473V6.48145V7.23614C18.8036 7.81036 19.3067 8.35723 19.8973 8.32989C20.488 8.30255 20.9911 7.84864 20.9911 7.23614C20.9911 5.44239 20.9911 3.64317 20.9911 1.84942C20.9911 1.59786 20.9911 1.3463 20.9911 1.09473C20.9911 0.520515 20.488 -0.0263597 19.8973 0.000984072C19.3012 0.0283278 18.8036 0.482234 18.8036 1.09473Z" fill="black"/>
<path d="M37.5997 1.09473V6.48145V7.23614C37.5997 7.81036 38.1029 8.35723 38.6935 8.32989C39.2841 8.30255 39.7872 7.84864 39.7872 7.23614C39.7872 5.44239 39.7872 3.64317 39.7872 1.84942C39.7872 1.59786 39.7872 1.3463 39.7872 1.09473C39.7872 0.520515 39.2841 -0.0263597 38.6935 0.000984072C38.1029 0.0283278 37.5997 0.482234 37.5997 1.09473Z" fill="black"/>
<path d="M30.3865 7.2416C30.3865 5.44785 30.3865 3.64863 30.3865 1.85488C30.3865 1.60332 30.3865 1.35176 30.3865 1.1002C30.3865 0.525978 29.8833 -0.020897 29.2927 0.00644672C28.7021 0.0337905 28.199 0.487697 28.199 1.1002V6.48692V7.2416C28.199 7.81582 28.7021 8.3627 29.2927 8.33535C29.8888 8.30801 30.3865 7.8541 30.3865 7.2416Z" fill="black"/>
<path d="M41.7232 25.2557C40.6021 25.2557 39.4755 25.2557 38.3544 25.2557C35.6802 25.2557 33.0005 25.2557 30.3263 25.2557C27.0724 25.2557 23.8185 25.2557 20.5646 25.2557C17.7646 25.2557 14.9701 25.2557 12.1701 25.2557C10.8029 25.2557 9.43568 25.2283 8.06849 25.2557C8.05208 25.2557 8.03021 25.2557 8.0138 25.2557C7.43958 25.2557 6.89271 25.7588 6.92005 26.3494C6.9474 26.9401 7.4013 27.4432 8.0138 27.4432H11.3826H19.4107H29.1724H37.5669C38.9341 27.4432 40.3013 27.4705 41.6685 27.4432H41.7232C42.2974 27.4432 42.8443 26.9401 42.8169 26.3494C42.7896 25.7533 42.3357 25.2557 41.7232 25.2557Z" fill="black"/>
</svg>
