<svg width="56" height="56" viewBox="0 0 56 56" fill="none" xmlns="http://www.w3.org/2000/svg">
<path fill-rule="evenodd" clip-rule="evenodd" d="M11.6667 18.4637C15.0112 17.6737 17.5 14.6692 17.5 11.0833C17.5 6.89516 14.1049 3.5 9.91671 3.5C5.72854 3.5 2.33337 6.89516 2.33337 11.0833C2.33337 14.6692 4.82222 17.6737 8.16671 18.4637V37.9167C8.16671 42.7492 12.0842 46.6667 16.9167 46.6667H26.4001L23.5543 49.5126C22.8709 50.1961 22.8709 51.3039 23.5543 51.9874C24.2378 52.6708 25.3456 52.6708 26.0291 51.9874L31.8624 46.154C32.5458 45.4706 32.5458 44.3627 31.8624 43.6793L26.0291 37.846C25.3456 37.1625 24.2378 37.1625 23.5543 37.846C22.8709 38.5294 22.8709 39.6373 23.5543 40.3207L26.4001 43.1667H16.9167C14.0172 43.1667 11.6667 40.8161 11.6667 37.9167V18.4637ZM9.91671 15.1667C12.1719 15.1667 14 13.3385 14 11.0833C14 8.82817 12.1719 7 9.91671 7C7.66154 7 5.83337 8.82817 5.83337 11.0833C5.83337 13.3385 7.66154 15.1667 9.91671 15.1667Z" fill="black"/>
<path fill-rule="evenodd" clip-rule="evenodd" d="M32.4458 6.48743C33.1292 5.80402 33.1292 4.69597 32.4458 4.01256C31.7623 3.32915 30.6545 3.32915 29.971 4.01256L24.1377 9.84589C23.4543 10.5293 23.4543 11.6374 24.1377 12.3208L29.971 18.1541C30.6545 18.8375 31.7623 18.8375 32.4458 18.1541C33.1292 17.4707 33.1292 16.3626 32.4458 15.6792L29.6 12.8333H39.0834C41.9828 12.8333 44.3334 15.1838 44.3334 18.0833V37.5363C40.989 38.3262 38.5001 41.3308 38.5001 44.9167C38.5001 49.1048 41.8953 52.5 46.0834 52.5C50.2715 52.5 53.6667 49.1048 53.6667 44.9167C53.6667 41.3308 51.1778 38.3262 47.8334 37.5363V18.0833C47.8334 13.2508 43.916 9.33333 39.0834 9.33333H29.6L32.4458 6.48743ZM42.0001 44.9167C42.0001 42.6615 43.8282 40.8333 46.0834 40.8333C48.3386 40.8333 50.1667 42.6615 50.1667 44.9167C50.1667 47.1718 48.3386 49 46.0834 49C43.8282 49 42.0001 47.1718 42.0001 44.9167Z" fill="black"/>
</svg>
