<svg width="56" height="56" viewBox="0 0 56 56" fill="none" xmlns="http://www.w3.org/2000/svg">
<path d="M35 50.75H10.5C9.10761 50.75 7.77226 50.1969 6.78769 49.2123C5.80312 48.2277 5.25 46.8924 5.25 45.5V21C5.25 19.6076 5.80312 18.2723 6.78769 17.2877C7.77226 16.3031 9.10761 15.75 10.5 15.75H35C36.3924 15.75 37.7277 16.3031 38.7123 17.2877C39.6969 18.2723 40.25 19.6076 40.25 21V45.5C40.25 46.8924 39.6969 48.2277 38.7123 49.2123C37.7277 50.1969 36.3924 50.75 35 50.75ZM10.5 19.25C10.0359 19.25 9.59075 19.4344 9.26256 19.7626C8.93437 20.0908 8.75 20.5359 8.75 21V45.5C8.75 45.9641 8.93437 46.4093 9.26256 46.7374C9.59075 47.0656 10.0359 47.25 10.5 47.25H35C35.4641 47.25 35.9093 47.0656 36.2374 46.7374C36.5656 46.4093 36.75 45.9641 36.75 45.5V21C36.75 20.5359 36.5656 20.0908 36.2374 19.7626C35.9093 19.4344 35.4641 19.25 35 19.25H10.5Z" fill="black"/>
<path d="M17.5 14C17.0359 14 16.5908 13.8156 16.2626 13.4874C15.9344 13.1592 15.75 12.7141 15.75 12.25V10.5C15.75 9.10761 16.3031 7.77226 17.2877 6.78769C18.2723 5.80312 19.6076 5.25 21 5.25H22.75C23.2141 5.25 23.6592 5.43437 23.9874 5.76256C24.3156 6.09075 24.5 6.53587 24.5 7C24.5 7.46413 24.3156 7.90925 23.9874 8.23744C23.6592 8.56563 23.2141 8.75 22.75 8.75H21C20.5359 8.75 20.0908 8.93437 19.7626 9.26256C19.4344 9.59075 19.25 10.0359 19.25 10.5V12.25C19.25 12.7141 19.0656 13.1592 18.7374 13.4874C18.4092 13.8156 17.9641 14 17.5 14Z" fill="black"/>
<path d="M45.5 40.25H43.75C43.2859 40.25 42.8408 40.0656 42.5126 39.7374C42.1844 39.4092 42 38.9641 42 38.5C42 38.0359 42.1844 37.5908 42.5126 37.2626C42.8408 36.9344 43.2859 36.75 43.75 36.75H45.5C45.9641 36.75 46.4092 36.5656 46.7374 36.2374C47.0656 35.9092 47.25 35.4641 47.25 35V33.25C47.25 32.7859 47.4344 32.3408 47.7626 32.0126C48.0908 31.6844 48.5359 31.5 49 31.5C49.4641 31.5 49.9092 31.6844 50.2374 32.0126C50.5656 32.3408 50.75 32.7859 50.75 33.25V35C50.75 36.3924 50.1969 37.7277 49.2123 38.7123C48.2277 39.6969 46.8924 40.25 45.5 40.25Z" fill="black"/>
<path d="M49 14C48.5359 14 48.0908 13.8156 47.7626 13.4874C47.4344 13.1592 47.25 12.7141 47.25 12.25V10.5C47.25 10.0359 47.0656 9.59075 46.7374 9.26256C46.4092 8.93437 45.9641 8.75 45.5 8.75H43.75C43.2859 8.75 42.8408 8.56563 42.5126 8.23744C42.1844 7.90925 42 7.46413 42 7C42 6.53587 42.1844 6.09075 42.5126 5.76256C42.8408 5.43437 43.2859 5.25 43.75 5.25H45.5C46.8924 5.25 48.2277 5.80312 49.2123 6.78769C50.1969 7.77226 50.75 9.10761 50.75 10.5V12.25C50.75 12.7141 50.5656 13.1592 50.2374 13.4874C49.9092 13.8156 49.4641 14 49 14Z" fill="black"/>
<path d="M49 28C48.5359 28 48.0908 27.8156 47.7626 27.4874C47.4344 27.1592 47.25 26.7141 47.25 26.25V19.25C47.25 18.7859 47.4344 18.3408 47.7626 18.0126C48.0908 17.6844 48.5359 17.5 49 17.5C49.4641 17.5 49.9092 17.6844 50.2374 18.0126C50.5656 18.3408 50.75 18.7859 50.75 19.25V26.25C50.75 26.7141 50.5656 27.1592 50.2374 27.4874C49.9092 27.8156 49.4641 28 49 28Z" fill="black"/>
<path d="M36.75 8.75H29.75C29.2859 8.75 28.8408 8.56563 28.5126 8.23744C28.1844 7.90925 28 7.46413 28 7C28 6.53587 28.1844 6.09075 28.5126 5.76256C28.8408 5.43437 29.2859 5.25 29.75 5.25H36.75C37.2141 5.25 37.6592 5.43437 37.9874 5.76256C38.3156 6.09075 38.5 6.53587 38.5 7C38.5 7.46413 38.3156 7.90925 37.9874 8.23744C37.6592 8.56563 37.2141 8.75 36.75 8.75Z" fill="black"/>
<path d="M28 35H17.5C17.0359 35 16.5908 34.8156 16.2626 34.4874C15.9344 34.1592 15.75 33.7141 15.75 33.25C15.75 32.7859 15.9344 32.3408 16.2626 32.0126C16.5908 31.6844 17.0359 31.5 17.5 31.5H28C28.4641 31.5 28.9092 31.6844 29.2374 32.0126C29.5656 32.3408 29.75 32.7859 29.75 33.25C29.75 33.7141 29.5656 34.1592 29.2374 34.4874C28.9092 34.8156 28.4641 35 28 35Z" fill="black"/>
<path d="M22.75 40.25C22.2859 40.25 21.8408 40.0656 21.5126 39.7374C21.1844 39.4092 21 38.9641 21 38.5V28C21 27.5359 21.1844 27.0908 21.5126 26.7626C21.8408 26.4344 22.2859 26.25 22.75 26.25C23.2141 26.25 23.6592 26.4344 23.9874 26.7626C24.3156 27.0908 24.5 27.5359 24.5 28V38.5C24.5 38.9641 24.3156 39.4092 23.9874 39.7374C23.6592 40.0656 23.2141 40.25 22.75 40.25Z" fill="black"/>
</svg>
