<svg width="56" height="56" viewBox="0 0 56 56" fill="none" xmlns="http://www.w3.org/2000/svg">
<path d="M53.8125 12.6875H32.8125C31.6043 12.6875 30.625 11.7082 30.625 10.5C30.625 9.29184 31.6043 8.3125 32.8125 8.3125H53.8125C55.0207 8.3125 56 9.29184 56 10.5C56 11.7082 55.0207 12.6875 53.8125 12.6875Z" fill="black"/>
<path d="M2.1875 12.6875H9.12625C10.0293 15.2335 12.4608 17.0625 15.3125 17.0625H19.6875C23.3061 17.0625 26.25 14.1186 26.25 10.5C26.25 6.88144 23.3061 3.9375 19.6875 3.9375H15.3125C12.4608 3.9375 10.0294 5.76647 9.12625 8.3125H2.1875C0.979344 8.3125 0 9.29184 0 10.5C0 11.7082 0.979344 12.6875 2.1875 12.6875ZM15.3125 8.3125H19.6875C20.8937 8.3125 21.875 9.29381 21.875 10.5C21.875 11.7062 20.8937 12.6875 19.6875 12.6875H15.3125C14.1063 12.6875 13.125 11.7062 13.125 10.5C13.125 9.29381 14.1063 8.3125 15.3125 8.3125Z" fill="black"/>
<path d="M2.1875 30.1875H31.0013C31.9043 32.7335 34.3358 34.5625 37.1875 34.5625H41.5625C44.4142 34.5625 46.8456 32.7335 47.7487 30.1875H53.8125C55.0207 30.1875 56 29.2082 56 28C56 26.7918 55.0207 25.8125 53.8125 25.8125H47.7487C46.8457 23.2665 44.4142 21.4375 41.5625 21.4375H37.1875C34.3358 21.4375 31.9044 23.2665 31.0013 25.8125H2.1875C0.979344 25.8125 0 26.7918 0 28C0 29.2082 0.979344 30.1875 2.1875 30.1875ZM37.1875 25.8125H41.5625C42.7687 25.8125 43.75 26.7938 43.75 28C43.75 29.2062 42.7687 30.1875 41.5625 30.1875H37.1875C35.9813 30.1875 35 29.2062 35 28C35 26.7938 35.9813 25.8125 37.1875 25.8125Z" fill="black"/>
<path d="M53.8125 43.3125H25.8737C24.9707 40.7665 22.5392 38.9375 19.6875 38.9375H15.3125C12.4608 38.9375 10.0294 40.7665 9.12625 43.3125H2.1875C0.979344 43.3125 0 44.2918 0 45.5C0 46.7082 0.979344 47.6875 2.1875 47.6875H9.12625C10.0293 50.2335 12.4608 52.0625 15.3125 52.0625H19.6875C22.5392 52.0625 24.9706 50.2335 25.8737 47.6875H53.8125C55.0207 47.6875 56 46.7082 56 45.5C56 44.2918 55.0207 43.3125 53.8125 43.3125ZM19.6875 47.6875H15.3125C14.1063 47.6875 13.125 46.7062 13.125 45.5C13.125 44.2938 14.1063 43.3125 15.3125 43.3125H19.6875C20.8937 43.3125 21.875 44.2938 21.875 45.5C21.875 46.7062 20.8937 47.6875 19.6875 47.6875Z" fill="black"/>
</svg>
