<svg width="56" height="56" viewBox="0 0 56 56" fill="none" xmlns="http://www.w3.org/2000/svg">
<path d="M51.0344 21.7765C50.1266 20.5406 48.7266 19.8297 47.1953 19.8297H46.0359V16.7125C46.0359 14.0875 43.9031 11.9547 41.2672 11.9547H27.3547C26.5562 11.9547 25.7906 11.6375 25.2219 11.0797L23.0344 8.9031C22.1375 8.00623 20.9453 7.51404 19.6766 7.51404H8.80468C6.17968 7.51404 4.04687 9.64685 4.04687 12.2828V40.0312C4.01405 41.0922 4.33124 42.1422 4.97655 43.0172C5.8953 44.264 7.30624 44.9859 8.85936 44.9859H42.3172C44.4062 44.9859 46.2328 43.6406 46.8672 41.639L51.7562 26.0093C52.2047 24.5547 51.9422 23.0125 51.0344 21.7765ZM5.78593 12.2828C5.78593 10.6203 7.14218 9.26404 8.79374 9.26404H19.6766C20.475 9.26404 21.2297 9.58123 21.8094 10.139L23.9969 12.3156C24.8937 13.2125 26.0859 13.7047 27.3547 13.7047H41.2781C42.9406 13.7047 44.2969 15.0609 44.2969 16.7125V19.8297H13.6719C11.5828 19.8297 9.75624 21.175 9.12187 23.1656L5.77499 33.8406V12.2828H5.78593ZM50.0719 25.4953L45.1828 41.125C44.7891 42.3937 43.6297 43.2359 42.3062 43.2359H8.84843C7.86405 43.2359 6.96718 42.7765 6.37655 41.989C5.79686 41.1906 5.62186 40.1953 5.91718 39.2547L10.7844 23.6906C11.1781 22.4219 12.3375 21.5797 13.6609 21.5797H47.1844C48.1578 21.5797 49.0437 22.0281 49.6125 22.8047C50.2031 23.5922 50.3672 24.5656 50.0719 25.4953Z" fill="black"/>
</svg>
