<svg width="56" height="56" viewBox="0 0 56 56" fill="none" xmlns="http://www.w3.org/2000/svg">
<path d="M55.8047 31.3209L48.4465 15.5627C48.2308 15.1215 47.763 14.8617 47.2744 14.9116H41.0233C40.304 14.9116 39.721 15.4947 39.721 16.214C39.721 16.9332 40.304 17.5163 41.0233 17.5163H46.4279L52.4837 30.5396H45.0605C41.6948 30.523 38.6339 32.487 37.2465 35.5536C36.2417 37.6628 34.1131 39.0058 31.7767 39.0048H24.2233C21.8869 39.0058 19.7584 37.6628 18.7535 35.5536C17.3661 32.487 14.3052 30.523 10.9395 30.5396H3.64649L10.8092 17.5163H14.9767C15.696 17.5163 16.279 16.9332 16.279 16.214C16.279 15.4947 15.696 14.9116 14.9767 14.9116H10.0279C9.55726 14.867 9.10246 15.0945 8.85581 15.4977L0.260491 31.2559C0.109805 31.3895 0.016452 31.5761 0 31.7768V47.9908C0.103698 51.6404 3.05659 54.5647 6.70695 54.6327H49.2931C52.9435 54.5647 55.8963 51.6404 56 47.9908V31.7768C55.9752 31.6106 55.9079 31.4535 55.8047 31.3209ZM53.3953 47.9907C53.2941 50.2021 51.5059 51.9621 49.2931 52.0279H6.70695C4.49415 51.9621 2.70586 50.2023 2.60466 47.9907V33.1442H10.9395C13.2758 33.1432 15.4043 34.4862 16.4093 36.5954C17.7966 39.662 20.8576 41.626 24.2233 41.6094H31.7767C35.1424 41.626 38.2034 39.662 39.5907 36.5954C40.5955 34.4862 42.7242 33.1432 45.0605 33.1442H53.3953V47.9907Z" fill="black"/>
<path d="M27.0884 31.5162C27.5503 32.0198 28.333 32.0534 28.8364 31.5914C28.8626 31.5675 28.8877 31.5423 28.9116 31.5162L37.7674 22.5952C38.1989 22.0198 38.0824 21.2035 37.5069 20.7719C37.0439 20.4247 36.4071 20.4247 35.9441 20.7719L29.3022 27.4138V2.6697C29.3022 1.95042 28.7192 1.36737 27.9999 1.36737C27.2806 1.36737 26.6976 1.95042 26.6976 2.6697V27.4139L20.0557 20.7721C19.4802 20.3406 18.664 20.4571 18.2324 21.0325C17.8851 21.4956 17.8851 22.1323 18.2324 22.5954L27.0884 31.5162Z" fill="black"/>
</svg>
