<svg width="56" height="56" viewBox="0 0 56 56" fill="none" xmlns="http://www.w3.org/2000/svg">
<path d="M51.3925 3.49293C51.0879 3.50115 50.7982 3.62813 50.5858 3.84668L45.5717 8.86417L44.0608 7.35333C43.2209 6.51338 42.2544 6.04868 41.3016 6.02279C40.7298 6.00724 40.1989 6.09035 39.5683 6.17798L31.3887 7.31453C28.3795 7.73268 26.8513 9.02184 24.9106 10.8303L4.79044 29.58C4.78235 29.5875 4.77436 29.5951 4.76648 29.6028C3.89682 30.4615 3.51977 31.6357 3.50669 32.7911C3.49361 33.9465 3.85804 35.169 4.8281 35.9977L4.76077 35.9349L20.1533 51.3274L20.0905 51.2601C20.9192 52.2302 22.1417 52.5946 23.2971 52.5815C24.4525 52.5685 25.6267 52.1914 26.4854 51.3217C26.4931 51.3138 26.5007 51.3058 26.5082 51.2977L27.8901 49.8143L33.3937 51.8649C34.5892 52.3103 35.8136 52.2277 36.8593 51.7359C37.9049 51.2442 38.8162 50.4142 39.2362 49.2666L45.2761 31.1582C47.0748 29.227 48.357 27.6984 48.7737 24.6995L49.9102 16.5199C49.9979 15.8892 50.0809 15.3584 50.0654 14.7866C50.0395 13.8338 49.5748 12.8673 48.7349 12.0273L47.224 10.5165L52.2415 5.49902C53.005 4.75579 52.4576 3.46149 51.3925 3.49293ZM41.2377 8.3598C41.6954 8.37223 41.7878 8.38499 42.4085 9.00567L43.9193 10.5165L41.2366 13.2016C40.7786 12.9803 40.2688 12.8524 39.7303 12.8524C37.8081 12.8524 36.2237 14.4368 36.2237 16.359C36.2237 18.2812 37.8081 19.8657 39.7303 19.8657C41.6525 19.8657 43.237 18.2812 43.237 16.359C43.237 15.8207 43.1089 15.3107 42.8878 14.8528L45.5717 12.1688L47.0825 13.6797C47.7032 14.3004 47.716 14.3928 47.7284 14.8505C47.7359 15.125 47.6836 15.5675 47.596 16.1981L46.4595 24.3777C46.1071 26.9136 45.3474 27.6542 43.5485 29.5846L24.8205 49.6819C24.5177 49.9878 23.8932 50.2375 23.2708 50.2445C22.6478 50.2516 22.1131 50.0288 21.8684 49.7424C21.8484 49.7192 21.8274 49.6967 21.8056 49.6751L6.41311 34.2826C6.3915 34.2608 6.36904 34.2398 6.34579 34.2198C6.05936 33.9751 5.83664 33.4404 5.84369 32.8174C5.85074 32.195 6.10042 31.5705 6.40627 31.2677L6.40743 31.2666L26.5036 12.5397C28.434 10.7408 29.1746 9.98106 31.7106 9.62869L39.8901 8.49214C40.5208 8.4045 40.9633 8.35234 41.2377 8.3598ZM39.7303 15.1894C40.3895 15.1894 40.8988 15.6998 40.8988 16.359C40.8988 17.0182 40.3895 17.5275 39.7303 17.5275C39.0711 17.5275 38.5618 17.0182 38.5618 16.359C38.5618 15.6998 39.0711 15.1894 39.7303 15.1894ZM19.852 28.0338C18.8048 28.0351 18.2878 29.3073 19.0373 30.0387L26.0495 37.052C27.1533 38.1536 28.8056 36.4978 27.7018 35.3963L20.6885 28.3875C20.4688 28.1617 20.1671 28.0341 19.852 28.0338ZM16.3454 31.5359C15.2927 31.533 14.7731 32.8143 15.5306 33.5454L22.5439 40.5541C23.6449 41.73 25.3718 40.0019 24.1951 38.9018L17.1864 31.8942C16.9663 31.6655 16.6628 31.5362 16.3454 31.5359ZM41.4397 35.2742L37.0407 48.4632C36.8927 48.8675 36.428 49.3563 35.8642 49.6215C35.3004 49.8866 34.7324 49.8789 34.3796 49.747L29.6143 47.9646L41.4397 35.2742Z" fill="black"/>
</svg>
