<svg width="56" height="56" viewBox="0 0 56 56" fill="none" xmlns="http://www.w3.org/2000/svg">
<path d="M44.9531 28.7505V23.5156C44.9531 15.8788 39.8769 9.40614 32.9219 7.29203V4.92188C32.9219 2.20795 30.7139 0 28 0C25.2861 0 23.0781 2.20795 23.0781 4.92188V7.29203C16.123 9.40614 11.0469 15.8787 11.0469 23.5156V28.7505C11.0469 35.4587 8.48991 41.8195 3.84705 46.6613C3.39205 47.1358 3.26419 47.8359 3.5221 48.4405C3.78001 49.0452 4.37391 49.4375 5.03126 49.4375H19.9619C20.7241 53.1772 24.0386 56 28 56C31.9616 56 35.2758 53.1772 36.0381 49.4375H50.9688C51.6261 49.4375 52.2199 49.0452 52.4778 48.4405C52.7357 47.8359 52.6078 47.1358 52.153 46.6613C47.5101 41.8195 44.9531 35.4586 44.9531 28.7505ZM26.3594 4.92188C26.3594 4.01723 27.0954 3.28125 28 3.28125C28.9046 3.28125 29.6406 4.01723 29.6406 4.92188V6.64213C29.1006 6.59006 28.5534 6.5625 28 6.5625C27.4466 6.5625 26.8994 6.59006 26.3594 6.64213V4.92188ZM28 52.7188C25.8612 52.7188 24.0376 51.3471 23.3603 49.4375H32.6397C31.9624 51.3471 30.1388 52.7188 28 52.7188ZM8.56735 46.1562C12.3037 41.1478 14.3281 35.0866 14.3281 28.7505V23.5156C14.3281 15.977 20.4613 9.84375 28 9.84375C35.5387 9.84375 41.6719 15.977 41.6719 23.5156V28.7505C41.6719 35.0866 43.6963 41.1478 47.4328 46.1562H8.56735Z" fill="black"/>
<path d="M49.3281 23.5156C49.3281 24.4217 50.0627 25.1562 50.9687 25.1562C51.8748 25.1562 52.6093 24.4217 52.6093 23.5156C52.6093 16.9422 50.0495 10.7622 45.4014 6.11404C44.7608 5.47343 43.722 5.47332 43.0812 6.11404C42.4405 6.75476 42.4405 7.7935 43.0812 8.43421C47.1096 12.4626 49.3281 17.8186 49.3281 23.5156Z" fill="black"/>
<path d="M5.03125 25.1562C5.93731 25.1562 6.67188 24.4217 6.67188 23.5156C6.67188 17.8187 8.89044 12.4627 12.9187 8.43432C13.5594 7.7936 13.5594 6.75486 12.9187 6.11415C12.2781 5.47343 11.2393 5.47343 10.5985 6.11415C5.95044 10.7623 3.39062 16.9422 3.39062 23.5156C3.39062 24.4217 4.12519 25.1562 5.03125 25.1562Z" fill="black"/>
</svg>
