<svg width="56" height="56" viewBox="0 0 56 56" fill="none" xmlns="http://www.w3.org/2000/svg">
<g clip-path="url(#clip0_6_111)">
<path d="M51.6858 35.1789C50.9154 35.1789 50.2911 35.8032 50.2911 36.5736V48.9569C50.2884 51.2668 48.417 53.1388 46.107 53.1409H6.97345C4.66349 53.1388 2.7921 51.2668 2.78938 48.9569V12.6127C2.7921 10.3033 4.66349 8.43133 6.97345 8.4286H19.3568C20.1271 8.4286 20.7515 7.80426 20.7515 7.03391C20.7515 6.26411 20.1271 5.63922 19.3568 5.63922H6.97345C3.12389 5.64358 0.00435841 8.76311 0 12.6127V48.9574C0.00435841 52.807 3.12389 55.9265 6.97345 55.9309H46.107C49.9566 55.9265 53.0761 52.807 53.0805 48.9574V36.5736C53.0805 35.8032 52.4561 35.1789 51.6858 35.1789Z" fill="black"/>
<path d="M52.528 2.05057C50.077 -0.400484 46.1032 -0.400484 43.6522 2.05057L18.77 26.9327C18.5995 27.1032 18.4764 27.3146 18.4121 27.5467L15.14 39.3596C15.0054 39.844 15.1422 40.3626 15.4974 40.7184C15.8531 41.0736 16.3718 41.2103 16.8561 41.0763L28.669 37.8037C28.9011 37.7394 29.1125 37.6163 29.283 37.4457L54.1646 12.5631C56.6119 10.1104 56.6119 6.13985 54.1646 3.68716L52.528 2.05057ZM21.8089 27.8393L42.173 7.47461L48.7406 14.0422L28.3759 34.4068L21.8089 27.8393ZM20.497 30.4717L25.744 35.7193L18.4862 37.7301L20.497 30.4717ZM52.1925 10.5909L50.7133 12.07L44.1452 5.50189L45.6249 4.02275C46.9863 2.6613 49.1939 2.6613 50.5553 4.02275L52.1925 5.65934C53.5517 7.02243 53.5517 9.22833 52.1925 10.5909Z" fill="black"/>
</g>
<defs>
<clipPath id="clip0_6_111">
<rect width="56" height="56" fill="white"/>
</clipPath>
</defs>
</svg>
