<svg width="56" height="56" viewBox="0 0 56 56" fill="none" xmlns="http://www.w3.org/2000/svg">
<g clip-path="url(#clip0_12_156)">
<path d="M3.5 49V35H0V49C0 52.8657 3.13426 56 7 56H21V52.5H7C5.06626 52.5 3.5 50.9337 3.5 49ZM0 7V21H3.5V7C3.5 5.068 5.06626 3.5 7 3.5H21V0H7C3.13426 0 0 3.13426 0 7ZM52.5 49C52.5 50.9337 50.9337 52.5 49 52.5H35V56H49C52.8657 56 56 52.8657 56 49V35H52.5V49ZM49 0H35V3.5H49C50.9337 3.5 52.5 5.068 52.5 7V21H56V7C56 3.13426 52.8657 0 49 0Z" fill="black"/>
</g>
<defs>
<clipPath id="clip0_12_156">
<rect width="56" height="56" fill="white"/>
</clipPath>
</defs>
</svg>
