<svg width="56" height="56" viewBox="0 0 56 56" fill="none" xmlns="http://www.w3.org/2000/svg">
<g clip-path="url(#clip0_19_431)">
<path d="M29.6545 13.2774C21.9454 13.6764 14.7378 16.8856 9.20785 22.4156C3.28764 28.3357 0.0272217 36.1796 0.0272217 44.5021V56L4.19231 46.3985C9.05719 36.7047 18.9227 30.2775 29.6545 29.6796V42.9301L55.9728 21.4325L29.6545 0V13.2774ZM32.9342 16.5147V6.90064L50.7835 21.4364L32.9342 36.0161V26.354H31.2944C25.0761 26.354 18.9699 28.1025 13.6359 31.4102C9.5965 33.9152 6.15493 37.2177 3.51307 41.0969C5.19756 27.2641 17.014 16.5147 31.2944 16.5147H32.9342Z" fill="black"/>
</g>
<defs>
<clipPath id="clip0_19_431">
<rect width="56" height="56" fill="white"/>
</clipPath>
</defs>
</svg>
