<svg width="56" height="56" viewBox="0 0 56 56" fill="none" xmlns="http://www.w3.org/2000/svg">
<g clip-path="url(#clip0_14_255)">
<path d="M3.96971 25.0779C5.41087 16.9034 11.1815 10.2109 18.8195 7.45338L18.4609 8.07477C17.9609 8.94038 18.2572 10.0473 19.1229 10.5473C19.4081 10.7119 19.7192 10.7903 20.0264 10.7903C20.6516 10.7903 21.26 10.4658 21.5952 9.88539L24.0904 5.56554C24.3305 5.14975 24.3959 4.65577 24.2716 4.19219C24.1474 3.72838 23.8443 3.3331 23.4285 3.09299L19.1074 0.597506C18.2411 0.0974932 17.1346 0.394315 16.6349 1.25969C16.1351 2.1253 16.4314 3.23223 17.297 3.732L17.7478 3.99238C8.82988 7.1498 2.08284 14.9326 0.405189 24.4492C-0.406608 29.0488 0.00677173 33.789 1.60044 38.1578C1.86831 38.8922 2.56186 39.3478 3.30102 39.3478C3.50686 39.3478 3.71657 39.3123 3.92097 39.2377C4.86018 38.8951 5.34378 37.8562 5.00111 36.9172C3.62511 33.1456 3.26844 29.0519 3.96971 25.0779Z" fill="black"/>
<path d="M46.7305 43.6061C45.965 42.9627 44.8236 43.0617 44.1804 43.8269C38.9153 50.0903 30.6463 53.1005 22.5976 51.6799C18.6909 50.9909 15.0455 49.2966 12.0119 46.8072H12.5942C13.594 46.8072 14.4041 45.9968 14.4041 44.9973C14.4041 43.9978 13.594 43.1874 12.5942 43.1874H7.77578C7.31076 43.1435 6.82908 43.2781 6.44297 43.602C6.06652 43.9176 5.85198 44.3539 5.80613 44.8069C5.80589 44.8086 5.80565 44.81 5.80541 44.8117C5.80541 44.8122 5.80541 44.8127 5.80541 44.8132C5.80034 44.8651 5.79793 44.9172 5.79745 44.9693C5.7972 44.9785 5.796 44.9872 5.796 44.9963L5.79407 49.9844C5.79358 50.9839 6.60369 51.7945 7.60324 51.795H7.60396C8.60326 51.795 9.41337 50.9851 9.41385 49.9858L9.41409 49.3555C12.9844 52.3742 17.3173 54.4242 21.969 55.2444C23.4955 55.5137 25.0286 55.6455 26.5526 55.6455C34.3281 55.6455 41.8558 52.2176 46.9513 46.1561C47.5946 45.3911 47.4957 44.2492 46.7305 43.6061Z" fill="black"/>
<path d="M55.7573 34.3829C55.2578 33.5173 54.1503 33.2207 53.285 33.7204L52.6896 34.0641C52.7143 33.9362 52.7432 33.809 52.7657 33.6809C53.9986 26.687 52.4346 19.6322 48.3616 13.8155C44.2886 7.99873 38.1943 4.11664 31.2016 2.8847C30.2171 2.71144 29.2783 3.36879 29.1053 4.35313C28.9318 5.33747 29.5891 6.2762 30.5735 6.44971C36.6139 7.51392 41.8785 10.8673 45.3967 15.892C48.9079 20.9064 50.26 26.9862 49.2074 33.0155L48.9422 32.5563C48.4424 31.6907 47.3355 31.3936 46.4699 31.8934C45.604 32.3929 45.3074 33.4999 45.807 34.3657L48.3013 38.6875C48.5414 39.1033 48.9366 39.4066 49.4005 39.5309C49.5547 39.5722 49.712 39.5927 49.8689 39.5927C50.1838 39.5927 50.4963 39.5104 50.7738 39.3502L55.0949 36.8554C55.9605 36.3554 56.2571 35.2485 55.7573 34.3829Z" fill="black"/>
</g>
<defs>
<clipPath id="clip0_14_255">
<rect width="56" height="56" fill="white"/>
</clipPath>
</defs>
</svg>
