<svg width="60" height="60" viewBox="0 0 60 60" fill="none" xmlns="http://www.w3.org/2000/svg">
<path d="M53.71 43.41C53.1551 44.414 52.2892 45.2106 51.2425 45.68L34.79 53.32C33.2895 54.0191 31.6541 54.3814 29.9987 54.3814C28.3433 54.3814 26.708 54.0191 25.2075 53.32L8.73498 45.67C7.69908 45.2027 6.8416 44.4136 6.28998 43.42C6.16118 43.2049 6.07684 42.9661 6.04195 42.7178C6.00706 42.4695 6.02234 42.2167 6.08687 41.9744C6.1514 41.7321 6.26388 41.5052 6.41764 41.3071C6.57141 41.109 6.76334 40.9438 6.98209 40.8212C7.20083 40.6986 7.44194 40.6212 7.69115 40.5934C7.94036 40.5657 8.1926 40.5882 8.43296 40.6596C8.67332 40.7311 8.8969 40.85 9.09048 41.0094C9.28406 41.1688 9.44371 41.3653 9.55998 41.5875C9.72114 41.8898 9.97907 42.1292 10.2925 42.2675L26.7925 49.9275C27.7997 50.3889 28.8946 50.6278 30.0025 50.6278C31.1104 50.6278 32.2052 50.3889 33.2125 49.9275L49.6875 42.275C50.0081 42.1361 50.2724 41.893 50.4375 41.585C50.5537 41.3628 50.7134 41.1663 50.907 41.0069C51.1006 40.8475 51.3241 40.7286 51.5645 40.6571C51.8049 40.5857 52.0571 40.5632 52.3063 40.5909C52.5555 40.6187 52.7966 40.6961 53.0154 40.8187C53.2341 40.9413 53.426 41.1065 53.5798 41.3046C53.7336 41.5027 53.8461 41.7296 53.9106 41.9719C53.9751 42.2142 53.9904 42.467 53.9555 42.7153C53.9206 42.9636 53.8363 43.2024 53.7075 43.4175L53.71 43.41ZM53 30.05C52.7853 29.9292 52.549 29.8519 52.3044 29.8226C52.0599 29.7933 51.812 29.8125 51.5749 29.8792C51.3378 29.9458 51.1161 30.0586 50.9227 30.211C50.7292 30.3635 50.5677 30.5526 50.4475 30.7675C50.2811 31.0751 50.0173 31.3187 49.6975 31.46L33.2225 39.11C32.2154 39.5721 31.1205 39.8113 30.0125 39.8113C28.9045 39.8113 27.8095 39.5721 26.8025 39.11L10.3025 31.4475C9.98961 31.3084 9.73191 31.0692 9.56998 30.7675C9.32312 30.3407 8.91807 30.0283 8.44255 29.898C7.96703 29.7676 7.45931 29.8298 7.02932 30.0711C6.59934 30.3124 6.2817 30.7134 6.14519 31.1871C6.00869 31.6609 6.06429 32.1694 6.29998 32.6025C6.85188 33.5959 7.70927 34.3849 8.74498 34.8525L25.2075 42.5C26.7078 43.1998 28.3432 43.5624 29.9987 43.5624C31.6542 43.5624 33.2896 43.1998 34.79 42.5L51.25 34.87C52.296 34.4008 53.1617 33.6052 53.7175 32.6025C53.8383 32.3879 53.9155 32.1515 53.9449 31.907C53.9742 31.6624 53.955 31.4145 53.8883 31.1774C53.8217 30.9403 53.7089 30.7187 53.5564 30.5252C53.404 30.3318 53.2149 30.1703 53 30.05ZM5.62498 19.2C5.61871 18.171 5.91046 17.1622 6.46499 16.2953C7.01952 15.4285 7.81312 14.7407 8.74998 14.315L25.215 6.68001C26.7158 5.98343 28.3504 5.62256 30.005 5.62256C31.6595 5.62256 33.2942 5.98343 34.795 6.68001L51.25 14.315C52.1815 14.7471 52.9701 15.4366 53.5227 16.3021C54.0753 17.1676 54.3689 18.1731 54.3689 19.2C54.3689 20.2269 54.0753 21.2324 53.5227 22.0979C52.9701 22.9634 52.1815 23.6529 51.25 24.085L34.785 31.72C33.2842 32.4166 31.6495 32.7775 29.995 32.7775C28.3404 32.7775 26.7058 32.4166 25.205 31.72L8.74998 24.085C7.81312 23.6593 7.01952 22.9715 6.46499 22.1047C5.91046 21.2379 5.61871 20.229 5.62498 19.2ZM9.37498 19.2C9.37205 19.5124 9.46007 19.8189 9.62831 20.0821C9.79655 20.3454 10.0377 20.554 10.3225 20.6825L26.7875 28.3175C27.7941 28.7844 28.8904 29.0263 30 29.0263C31.1096 29.0263 32.2059 28.7844 33.2125 28.3175L49.6775 20.6825C49.9606 20.5514 50.2004 20.3421 50.3684 20.0792C50.5364 19.8163 50.6257 19.5108 50.6257 19.1988C50.6257 18.8867 50.5364 18.5813 50.3684 18.3183C50.2004 18.0554 49.9606 17.8461 49.6775 17.715L33.2125 10.0825C32.2061 9.61481 31.1097 9.37249 30 9.37249C28.8902 9.37249 27.7939 9.61481 26.7875 10.0825L10.3225 17.715C10.0377 17.8442 9.79663 18.0533 9.62844 18.317C9.46025 18.5806 9.37219 18.8873 9.37498 19.2Z" fill="black"/>
</svg>
