<svg width="56" height="56" viewBox="0 0 56 56" fill="none" xmlns="http://www.w3.org/2000/svg">
<path d="M33.8334 47.8336H18.3215C16.5737 47.8336 15.1666 46.4267 15.1666 44.6788V29.9887C15.1666 28.2408 16.5737 26.8336 18.3215 26.8336H37.6785C39.4263 26.8336 40.8334 28.2408 40.8334 29.9887" stroke="black" stroke-linecap="square" stroke-linejoin="round"/>
<path d="M36.167 21.0003V18.6669C36.167 14.1566 32.5105 10.5003 28 10.5003C23.4896 10.5003 19.8331 14.1566 19.8331 18.6669V25.6669" stroke="black" stroke-linejoin="round"/>
<path d="M40.8333 50.1667C45.988 50.1667 50.1667 45.988 50.1667 40.8333C50.1667 35.6787 45.988 31.5 40.8333 31.5C35.6787 31.5 31.5 35.6787 31.5 40.8333C31.5 45.988 35.6787 50.1667 40.8333 50.1667Z" stroke="black" stroke-linejoin="round"/>
<path d="M45.5755 37.6147L39.846 43.6711L36.734 40.7271" stroke="black"/>
</svg>
