<svg width="454" height="508" viewBox="0 0 454 508" fill="none" xmlns="http://www.w3.org/2000/svg">
<g clip-path="url(#clip0_1_3)">
<g opacity="0.7">
<path d="M437.094 299.667H268.111C262.258 299.667 257.514 304.409 257.514 310.259C257.514 316.109 262.258 320.85 268.111 320.85H299.329V320.948C305.147 320.99 309.851 325.713 309.851 331.538C309.851 337.362 305.147 342.086 299.329 342.129V342.13H214.837C208.985 342.13 204.241 346.871 204.241 352.723C204.241 358.57 208.985 363.313 214.837 363.313H252.17V363.327C257.989 363.37 262.693 368.092 262.693 373.919C262.693 379.742 257.989 384.467 252.17 384.507V384.509H235.081C229.227 384.509 224.483 389.25 224.483 395.101C224.483 400.95 229.227 405.692 235.081 405.692H404.064C409.917 405.692 414.66 400.95 414.66 395.101C414.66 389.25 409.917 384.509 404.064 384.509H315.756V384.502C310.036 384.351 305.445 379.673 305.445 373.919C305.445 368.164 310.036 363.484 315.756 363.334V363.313H383.821C389.674 363.313 394.418 358.57 394.418 352.723C394.418 346.871 389.674 342.13 383.821 342.13H362.914V342.122C357.194 341.97 352.603 337.291 352.603 331.538C352.603 325.783 357.194 321.106 362.914 320.954V320.85H437.095C442.947 320.85 447.691 316.108 447.691 310.259C447.69 304.409 442.946 299.667 437.094 299.667Z" fill="#CECECE"/>
<path fill-rule="evenodd" clip-rule="evenodd" d="M234.718 310.259C234.718 315.909 230.135 320.488 224.482 320.488C218.831 320.488 214.249 315.909 214.249 310.259C214.249 304.609 218.831 300.03 224.482 300.03C230.135 300.03 234.718 304.609 234.718 310.259Z" fill="#CECECE"/>
<path fill-rule="evenodd" clip-rule="evenodd" d="M433.659 352.723C433.659 358.371 429.076 362.952 423.425 362.952C417.772 362.952 413.189 358.371 413.189 352.723C413.189 347.072 417.772 342.492 423.425 342.492C429.076 342.492 433.659 347.072 433.659 352.723Z" fill="#CECECE"/>
</g>
<path d="M221.38 359.532C306.563 359.532 375.618 290.514 375.618 205.376C375.618 120.238 306.563 51.2195 221.38 51.2195C136.198 51.2195 67.1431 120.238 67.1431 205.376C67.1431 290.514 136.198 359.532 221.38 359.532Z" stroke="#D5CFCC" stroke-width="7" stroke-linecap="round" stroke-linejoin="round" stroke-dasharray="40.31 40.31"/>
<g opacity="0.7">
<path d="M252.525 415.215H75.1122C68.9677 415.215 63.9865 420.193 63.9865 426.336C63.9865 432.476 68.9677 437.456 75.1122 437.456H107.889V437.558C113.997 437.601 118.935 442.561 118.935 448.675C118.935 454.79 113.997 459.75 107.889 459.794V459.796H19.1826C13.0376 459.796 8.05664 464.775 8.05664 470.916C8.05664 477.058 13.0378 482.036 19.1826 482.036H196.596C202.74 482.036 207.722 477.058 207.722 470.916C207.722 464.775 202.74 459.796 196.596 459.796H174.644V459.788C168.639 459.629 163.819 454.717 163.819 448.676C163.819 442.636 168.639 437.723 174.644 437.563V437.456H252.525C258.671 437.456 263.651 432.476 263.651 426.336C263.651 420.193 258.671 415.215 252.525 415.215Z" fill="#CECECE"/>
<path fill-rule="evenodd" clip-rule="evenodd" d="M40.0539 426.336C40.0539 432.266 35.2429 437.075 29.3082 437.075C23.374 437.075 18.5627 432.266 18.5627 426.336C18.5627 420.404 23.374 415.595 29.3082 415.595C35.2431 415.595 40.0539 420.404 40.0539 426.336Z" fill="#CECECE"/>
<path fill-rule="evenodd" clip-rule="evenodd" d="M248.92 470.916C248.92 476.848 244.108 481.656 238.174 481.656C232.239 481.656 227.428 476.848 227.428 470.916C227.428 464.985 232.238 460.177 238.174 460.177C244.108 460.177 248.92 464.985 248.92 470.916Z" fill="#CECECE"/>
</g>
<mask id="mask0_1_3" style="mask-type:luminance" maskUnits="userSpaceOnUse" x="39" y="87" width="351" height="421">
<path d="M389.631 87.9686H39.4111V508H389.631V87.9686Z" fill="white"/>
</mask>
<g mask="url(#mask0_1_3)">
<path d="M236.25 247.353L244.138 281.737C244.138 281.737 223.136 304.112 188.589 281.737L198.032 245.827L236.25 247.353Z" fill="#FFDCB3"/>
<path d="M175.112 216.06C175.112 216.06 131.629 154.75 176.491 131.057C176.491 131.057 195.355 112.776 223.512 114.339C239.864 115.247 257.631 114.634 271.193 139.905C273.888 144.926 274.552 146.107 276.563 152.943C282.426 172.87 285.492 206.677 258.556 222.414L175.112 216.06Z" fill="#1C1C1C"/>
<path d="M196.095 253.343C197.588 254.249 199.14 255.048 200.776 255.619C202.405 256.201 204.095 256.592 205.805 256.771C206.661 256.859 207.518 256.888 208.387 256.886C208.82 256.885 209.252 256.901 209.685 256.887L210.982 256.836C211.414 256.826 211.845 256.79 212.276 256.755C212.707 256.719 213.139 256.694 213.569 256.648C214.426 256.535 215.288 256.456 216.138 256.294C219.556 255.759 222.896 254.782 226.122 253.516C227.73 252.866 229.309 252.143 230.861 251.357C232.412 250.569 233.915 249.689 235.412 248.787C234.015 249.837 232.544 250.786 231.046 251.694C229.527 252.567 227.966 253.372 226.358 254.08C225.956 254.255 225.547 254.417 225.142 254.587L224.531 254.833L223.91 255.056C223.496 255.202 223.085 255.36 222.667 255.496L221.408 255.891C219.718 256.377 218.004 256.796 216.264 257.067C215.398 257.226 214.519 257.3 213.646 257.409C213.208 257.453 212.768 257.475 212.329 257.509C211.891 257.541 211.452 257.577 211.011 257.575L209.692 257.599C209.252 257.604 208.813 257.579 208.373 257.57C207.497 257.559 206.609 257.498 205.732 257.376C203.976 257.138 202.261 256.654 200.637 255.974C199.022 255.273 197.49 254.396 196.095 253.343Z" fill="#F7C084"/>
<path d="M168.482 179.104C168.482 179.104 174.358 255.846 207.446 257.211C240.532 258.573 258.556 222.414 258.556 222.414C258.556 222.414 276.083 204.891 270.069 195.825C265.991 189.679 254.147 202.356 254.147 202.356C254.147 202.356 257.382 172.097 226.408 153.836C195.435 135.584 172.592 155.172 168.482 179.104Z" fill="#FFDCB3"/>
<path d="M174.397 160.878C174.397 160.878 194.155 166.334 206.269 165.194C206.269 165.194 202.317 163.602 202.522 155.138C202.522 155.138 226.94 176.51 245.052 168.609C245.052 168.609 243.726 158.855 236.233 153.384C221.483 142.601 192.937 135.401 174.397 160.878Z" fill="#1C1C1C"/>
<path d="M187.984 275.948C187.984 275.948 216.082 289.807 245.172 275.571C245.172 275.571 243.884 354.775 210.55 372.737C210.55 372.737 164.241 308.102 187.984 275.948Z" fill="#F2EEEE"/>
<path d="M187.984 275.571L187.184 282.81C187.184 282.81 200.65 290.037 213.191 290.049C230.053 290.069 244.137 282.869 244.137 282.869L243.131 276.158C243.131 276.158 218.365 289.051 187.984 275.571Z" fill="#1C1C1C"/>
<path d="M192.852 265.527C192.852 265.527 183.666 263.122 171.588 269.741C159.51 276.36 156.783 280.642 156.783 280.642C156.783 280.642 129.863 275.944 103.408 302.841C78.368 328.298 47.5797 386.973 60.4655 411.626C70.1796 430.211 126.192 418.886 126.192 418.886C126.192 418.886 104.966 486.84 105.552 552.258C105.552 552.258 215.393 628.918 317.649 546.087C317.649 546.087 312.819 504.159 308.728 470.281C304.637 436.404 299.177 385.2 299.177 385.2L315.424 527.031L379.191 507.97C379.191 507.97 360.127 414.422 330.689 319.732C324.741 300.592 290.542 278.343 273.467 280.642C273.467 280.642 262.002 261.648 240.38 265.359L242.465 276.478L210.549 335.095C210.549 335.095 193.257 316.286 190.294 295.308C188.221 280.642 189.896 276.761 189.896 276.761C191.76 268.353 192.852 265.527 192.852 265.527Z" fill="white"/>
<path d="M315.191 527.058C313.844 521.225 312.754 515.363 311.742 509.492C310.74 503.619 309.839 497.735 309.025 491.841C308.207 485.948 307.547 480.036 307.018 474.11C306.499 468.182 306.008 462.251 305.431 456.33L303.715 438.565L302.07 420.792L300.488 403.011L299.697 394.121L298.943 385.227L299.41 385.173L300.687 394.008L301.928 402.846L304.407 420.524L306.824 438.208L309.17 455.901C309.947 461.799 310.81 467.688 311.645 473.579C312.47 479.472 313.163 485.38 313.699 491.306C314.24 497.231 314.693 503.166 315.045 509.113C315.387 515.061 315.651 521.018 315.658 527.004L315.191 527.058Z" fill="#F0E6E1"/>
<path d="M114.105 365.785C116.075 364.584 118.138 363.529 120.257 362.584C122.38 361.646 124.567 360.821 126.841 360.192C129.114 359.568 131.477 359.118 133.974 359.137C135.219 359.158 136.505 359.311 137.788 359.712C139.067 360.107 140.344 360.808 141.375 361.825L139.991 361.308C141.372 361.124 142.753 360.937 144.136 360.767L148.282 360.248L152.431 359.756C153.814 359.588 155.199 359.443 156.582 359.287L160.037 358.897L158.816 362.287L158.696 362.62L158.571 362.982L158.326 363.721C158.167 364.218 158.013 364.72 157.865 365.225C157.564 366.233 157.283 367.252 157.023 368.277C156.504 370.328 156.07 372.402 155.69 374.485C155.312 376.569 155.032 378.668 154.802 380.771C154.575 382.874 154.433 384.984 154.377 387.095C154.307 389.205 154.327 391.317 154.443 393.421C154.551 395.526 154.742 397.627 155.047 399.711C155.34 401.797 155.727 403.87 156.228 405.916C156.714 407.967 157.318 409.99 158.015 411.982L158.875 414.441L156.407 414.426L152.546 414.401L148.685 414.355L144.822 414.286C143.534 414.263 142.247 414.228 140.959 414.192L141.742 413.794C140.777 414.911 139.711 415.948 138.528 416.838C137.35 417.732 136.055 418.48 134.675 419.009C133.297 419.535 131.829 419.834 130.37 419.823C128.912 419.81 127.472 419.496 126.192 418.887C127.556 419.272 128.97 419.387 130.332 419.2C131.695 419.016 133 418.575 134.197 417.944C135.396 417.315 136.484 416.497 137.468 415.577C138.454 414.656 139.32 413.611 140.106 412.514L140.354 412.167L140.889 412.116C142.171 411.994 143.454 411.872 144.737 411.763L148.586 411.436L152.436 411.131L156.286 410.847L154.679 413.291C153.8 411.225 153.025 409.112 152.379 406.958C151.744 404.802 151.211 402.613 150.809 400.401C150.609 399.295 150.436 398.184 150.293 397.07C150.146 395.956 150.027 394.838 149.94 393.719C149.769 391.479 149.701 389.234 149.729 386.992C149.768 384.75 149.907 382.513 150.13 380.285C150.354 378.058 150.691 375.844 151.097 373.646C151.501 371.446 152.015 369.268 152.608 367.109C152.907 366.03 153.224 364.956 153.572 363.886C153.749 363.352 153.932 362.819 154.124 362.286L154.42 361.485L154.576 361.08L154.749 360.651L156.983 363.651C155.594 363.749 154.206 363.86 152.815 363.946L148.646 364.219L144.475 364.465C143.084 364.55 141.693 364.617 140.301 364.688L139.402 364.734L138.918 364.171C138.361 363.523 137.614 363.018 136.734 362.646C135.853 362.277 134.851 362.05 133.807 361.939C131.713 361.704 129.483 361.883 127.275 362.212C125.061 362.554 122.845 363.065 120.649 363.677C118.453 364.29 116.266 364.985 114.105 365.785Z" fill="#F0E6E1"/>
<path d="M141.866 335.19C140.716 338.527 139.197 341.711 137.517 344.828C136.661 346.377 135.754 347.902 134.797 349.403C133.824 350.891 132.784 352.341 131.699 353.765C130.61 355.184 129.529 356.63 128.349 358.008C128.048 358.347 127.755 358.693 127.436 359.015C127.117 359.338 126.793 359.656 126.461 359.965C126.13 360.275 125.774 360.56 125.422 360.847C125.243 360.988 125.067 361.132 124.886 361.269L124.329 361.667C122.847 362.726 121.226 363.609 119.545 364.335C119.119 364.508 118.692 364.675 118.261 364.831C117.831 364.989 117.381 365.11 116.94 365.238L116.273 365.415C116.049 365.468 115.82 365.511 115.591 365.551C115.134 365.636 114.673 365.702 114.208 365.747L114.001 365.325C115.245 363.934 116.509 362.765 117.724 361.554L121.345 358.032C122.539 356.867 123.783 355.772 125.075 354.696C125.404 354.433 125.728 354.165 126.046 353.888C126.366 353.613 126.694 353.345 127.009 353.062C127.321 352.776 127.637 352.493 127.946 352.203C128.254 351.912 128.547 351.606 128.849 351.308C130.034 350.092 131.189 348.837 132.29 347.531C133.414 346.241 134.5 344.91 135.547 343.544C136.608 342.187 137.619 340.788 138.606 339.365C139.101 338.654 139.584 337.934 140.054 337.205C140.53 336.481 141 335.744 141.436 334.999L141.866 335.19Z" fill="#F0E6E1"/>
<path d="M157.923 360.684C157.923 360.684 169.945 388.24 156.783 414.218C156.783 414.218 143.745 389.66 157.923 360.684Z" fill="#3C00E0"/>
<path d="M157.017 280.614C157.246 281.387 157.527 282.165 157.823 282.922C158.119 283.683 158.436 284.433 158.769 285.174C159.433 286.657 160.162 288.105 160.935 289.523C162.488 292.357 164.227 295.07 166.11 297.674C167.057 298.972 168.026 300.254 169.043 301.498C170.044 302.754 171.1 303.966 172.16 305.173C174.318 307.557 176.554 309.87 178.835 312.161C183.398 316.723 188.181 321.263 193.614 324.957C199.029 328.667 204.943 331.625 211.057 334.008L210.225 333.94C211.018 333.656 211.855 333.325 212.663 332.988C213.477 332.649 214.287 332.297 215.092 331.934C216.707 331.218 218.296 330.446 219.879 329.667C221.46 328.885 223.028 328.081 224.583 327.256C226.141 326.437 227.684 325.591 229.206 324.713C232.25 322.953 235.212 321.064 238.082 319.057C239.519 318.056 240.932 317.025 242.332 315.979C243.722 314.919 245.108 313.856 246.456 312.747C251.884 308.358 256.946 303.521 261.448 298.151C265.968 292.791 269.86 286.885 273.248 280.555L273.686 280.728C271.791 287.701 268.581 294.373 264.445 300.415C260.309 306.465 255.279 311.917 249.665 316.635C244.037 321.349 237.789 325.247 231.304 328.567C228.061 330.231 224.745 331.75 221.334 333.023C219.632 333.668 217.904 334.244 216.169 334.792C215.3 335.06 214.426 335.316 213.548 335.56C212.663 335.802 211.8 336.033 210.874 336.249L210.378 336.365L210.042 336.182C204.199 332.988 198.464 329.688 192.763 326.287C189.913 324.586 187.053 322.878 184.244 321.055C182.841 320.143 181.459 319.192 180.095 318.21C178.745 317.212 177.406 316.19 176.131 315.088C173.559 312.912 171.183 310.494 169.009 307.905C167.911 306.618 166.881 305.275 165.88 303.91C164.895 302.533 163.948 301.128 163.077 299.675C161.325 296.777 159.819 293.725 158.66 290.545C158.086 288.954 157.591 287.335 157.219 285.688C156.851 284.038 156.574 282.376 156.549 280.67L157.017 280.614Z" fill="#F0E6E1"/>
<path d="M220.411 326.548C215.124 331.599 215.662 398.806 215.662 398.806" stroke="white" stroke-width="2" stroke-miterlimit="10" stroke-linecap="round" stroke-linejoin="round"/>
<path d="M202.337 328.159C207.196 335.095 203.892 397.835 203.892 397.835" stroke="white" stroke-width="2" stroke-miterlimit="10" stroke-linecap="round" stroke-linejoin="round"/>
<path d="M203.114 402.691C205.798 402.691 207.973 400.517 207.973 397.835C207.973 395.153 205.798 392.979 203.114 392.979C200.431 392.979 198.256 395.153 198.256 397.835C198.256 400.517 200.431 402.691 203.114 402.691Z" fill="white"/>
<path d="M215.552 401.137C218.236 401.137 220.411 398.963 220.411 396.281C220.411 393.599 218.236 391.425 215.552 391.425C212.869 391.425 210.694 393.599 210.694 396.281C210.694 398.963 212.869 401.137 215.552 401.137Z" fill="white"/>
<path d="M136 401.655C128.61 373.188 140.147 362.997 140.147 362.997L156.783 361.468C156.783 361.468 145.728 383.927 156.347 412.636L140.924 413.154C140.924 413.154 137.775 408.493 136 401.655Z" fill="#F0E6E1"/>
<path d="M224.881 317.03C224.881 312.311 221.632 308.289 217.625 308.289H172.279C168.272 308.289 165.023 312.311 165.023 317.03L169.298 402.982C169.298 406.415 172.083 409.295 175.517 409.295H214.386C217.821 409.295 220.605 406.415 220.605 402.982L224.881 317.03Z" fill="url(#paint0_linear_1_3)"/>
<path d="M180.345 326.889C183.442 325.406 184.751 321.694 183.268 318.598C181.784 315.502 178.07 314.194 174.973 315.676C171.875 317.159 170.566 320.871 172.05 323.967C173.533 327.063 177.247 328.371 180.345 326.889Z" fill="#6B30AD"/>
<path d="M181.688 321.304C181.688 323.53 179.883 325.334 177.655 325.334C175.428 325.334 173.623 323.53 173.623 321.304C173.623 319.078 175.428 317.273 177.655 317.273C179.883 317.273 181.688 319.078 181.688 321.304Z" fill="#9049E3"/>
<path d="M153.03 373.76C153.03 373.76 157.382 361.32 167.1 358.793L167.748 371.805C167.748 371.805 186.895 371.629 198.265 365.669C216.364 356.185 221.816 371.613 208.017 391.425C194.219 411.238 170.832 410.235 153.73 404.019C153.73 404.019 151.938 395.997 151.741 387.451C151.58 380.482 151.956 378.176 153.03 373.76Z" fill="#FFDCB3"/>
</g>
<path d="M108.322 241.995C125.318 225.008 125.318 197.467 108.322 180.48C91.3257 163.493 63.7698 163.493 46.7739 180.48C29.7779 197.467 29.7779 225.008 46.7739 241.995C63.7698 258.982 91.3257 258.982 108.322 241.995Z" fill="white"/>
<path d="M77.5685 238.25C74.9733 238.25 72.3776 238.279 69.783 238.241C67.2592 238.204 64.7263 238.194 62.2503 237.599C56.2404 236.154 52.5791 232.387 51.2119 226.377C50.7527 224.358 50.6641 222.296 50.6523 220.241C50.6186 214.285 50.6141 208.329 50.6536 202.374C50.6698 199.92 50.7903 197.461 51.5031 195.081C53.1586 189.553 56.8753 186.246 62.4592 184.971C64.4783 184.511 66.5418 184.418 68.5985 184.406C74.5708 184.372 80.5434 184.367 86.5154 184.407C88.8876 184.424 91.264 184.538 93.5732 185.192C99.264 186.805 102.667 190.56 103.943 196.286C104.477 198.685 104.501 201.136 104.515 203.576C104.546 208.722 104.548 213.869 104.515 219.016C104.498 221.552 104.478 224.098 103.885 226.587C102.439 232.65 98.6367 236.329 92.5661 237.673C90.2193 238.193 87.8233 238.208 85.4365 238.241C82.8141 238.278 80.1913 238.25 77.5685 238.25ZM77.5847 189.09C77.5841 189.117 77.5836 189.144 77.5831 189.171C75.4137 189.171 73.2436 189.139 71.0747 189.18C68.593 189.227 66.099 189.173 63.6474 189.661C59.7542 190.436 57.1824 192.681 56.1037 196.543C55.6235 198.263 55.5224 200.034 55.5075 201.804C55.461 207.348 55.4194 212.892 55.4424 218.436C55.4518 220.709 55.4529 222.995 55.9095 225.242C56.703 229.148 58.961 231.718 62.8463 232.785C64.5015 233.239 66.2049 233.356 67.9053 233.364C74.3442 233.391 80.7833 233.398 87.2219 233.358C88.6286 233.349 90.0533 233.219 91.436 232.962C95.3858 232.23 97.9846 229.943 99.0588 226.022C99.5309 224.299 99.6344 222.527 99.6425 220.759C99.6712 214.461 99.6699 208.162 99.6427 201.864C99.6359 200.248 99.5322 198.629 99.1689 197.04C98.5447 194.309 97.1252 192.144 94.6474 190.764C92.8586 189.768 90.8842 189.402 88.8656 189.34C85.1066 189.226 81.3453 189.17 77.5847 189.09Z" fill="#323232"/>
<path d="M77.5707 197.469C85.3002 197.504 91.4649 203.698 91.428 211.392C91.3911 219.052 85.1449 225.205 77.4528 225.159C69.8046 225.113 63.6796 218.863 63.7249 211.15C63.769 203.607 70.0145 197.436 77.5707 197.469ZM77.5848 202.288C72.6232 202.277 68.579 206.3 68.5448 211.28C68.5108 216.248 72.5678 220.318 77.5618 220.325C82.5629 220.332 86.5927 216.306 86.5916 211.303C86.5906 206.332 82.5615 202.299 77.5848 202.288Z" fill="#323232"/>
<path d="M92.0172 200.157C90.2574 200.202 88.7806 198.788 88.7244 197.005C88.6693 195.256 90.1081 193.743 91.8672 193.7C93.6628 193.656 95.1568 195.07 95.2007 196.854C95.2448 198.639 93.8259 200.111 92.0172 200.157Z" fill="#323232"/>
<path d="M361.013 169.307C384.176 169.348 402.848 188.018 402.854 211.143C402.86 234.305 384.096 253.049 360.946 253.006C337.757 252.964 319.004 234.171 319.106 211.077C319.209 187.898 337.903 169.265 361.013 169.307ZM372.069 210.965C372.387 207.883 372.69 204.933 373.009 201.84C370.233 201.84 367.555 201.84 364.802 201.84C364.802 200.08 364.794 198.454 364.804 196.828C364.817 194.725 365.539 194.012 367.637 194.008C369.352 194.005 371.068 194.008 372.799 194.008C372.799 190.994 372.799 188.097 372.799 185.207C369.474 185.207 366.202 185.02 362.961 185.253C358.648 185.563 355.644 188.235 354.563 192.433C354.224 193.753 354.13 195.152 354.066 196.521C353.984 198.264 354.046 200.013 354.046 201.886C352.292 201.886 350.649 201.886 348.994 201.886C348.994 204.978 348.994 207.941 348.994 211.008C350.693 211.008 352.339 211.008 354.08 211.008C354.08 219.659 354.08 228.206 354.08 236.782C357.682 236.782 361.183 236.782 364.823 236.782C364.823 228.165 364.823 219.598 364.823 210.964C367.306 210.965 369.652 210.965 372.069 210.965Z" fill="white"/>
<path d="M372.069 210.965C369.652 210.965 367.306 210.965 364.823 210.965C364.823 219.598 364.823 228.165 364.823 236.782C361.183 236.782 357.682 236.782 354.08 236.782C354.08 228.206 354.08 219.659 354.08 211.008C352.339 211.008 350.693 211.008 348.994 211.008C348.994 207.941 348.994 204.978 348.994 201.887C350.649 201.887 352.292 201.887 354.046 201.887C354.046 200.014 353.984 198.264 354.066 196.522C354.13 195.152 354.224 193.753 354.563 192.434C355.645 188.236 358.649 185.564 362.961 185.253C366.202 185.02 369.474 185.207 372.799 185.207C372.799 188.098 372.799 190.994 372.799 194.008C371.068 194.008 369.353 194.006 367.637 194.009C365.539 194.012 364.817 194.726 364.804 196.829C364.794 198.455 364.802 200.081 364.802 201.841C367.556 201.841 370.233 201.841 373.009 201.841C372.69 204.933 372.387 207.883 372.069 210.965Z" fill="#323232"/>
<path d="M350.68 125.259C364.437 111.509 364.437 89.215 350.68 75.4645C336.922 61.7141 314.616 61.7141 300.859 75.4646C287.101 89.215 287.101 111.509 300.859 125.259C314.616 139.01 336.922 139.01 350.68 125.259Z" fill="white"/>
<path d="M348.158 86.6369C347.265 88.3814 345.92 89.7552 344.468 91.0225C343.974 91.4535 343.798 91.883 343.788 92.5306C343.664 100.513 341.008 107.474 335.171 113.031C327.485 120.349 315.259 121.334 306.475 115.447C306.332 115.351 306.148 115.287 306.087 115.075C310.699 115.49 314.791 114.22 318.59 111.234C316.588 111.108 314.936 110.53 313.532 109.351C312.124 108.168 311.157 106.701 310.606 104.856C311.891 105.022 313.076 105.009 314.29 104.637C309.777 102.613 307.375 99.2524 307.641 95.3331C308.798 95.819 309.918 96.4083 311.397 96.3388C309.492 94.7639 308.328 92.8754 307.934 90.5773C307.544 88.3025 307.704 86.0844 308.895 83.9196C309.693 84.8605 310.427 85.7474 311.247 86.5559C315.283 90.5324 320.082 92.9203 325.738 93.5329C326.754 93.6429 326.77 93.6411 326.709 92.5969C326.564 90.1155 327.016 87.797 328.495 85.7377C331.588 81.4339 337.29 80.8733 341.115 84.535C341.558 84.9593 341.926 85.0073 342.474 84.8503C344.062 84.396 345.546 83.7087 347.16 82.832C346.574 84.925 345.382 86.3887 343.678 87.7633C345.13 87.6771 346.272 87.2999 347.402 86.8558C347.648 86.7592 347.867 86.5084 348.18 86.6481L348.158 86.6369Z" fill="#323232"/>
<path d="M348.179 86.6482C348.172 86.6142 348.164 86.5803 348.157 86.5463C348.18 86.545 348.202 86.5434 348.225 86.5421C348.202 86.5737 348.18 86.6053 348.158 86.6369L348.179 86.6482Z" fill="white"/>
<path d="M95.1875 137.982C75.3926 137.977 59.3097 121.875 59.4244 102.007C59.5374 82.4552 75.3991 66.4249 95.2782 66.4633C115.08 66.5015 131.062 82.5568 130.979 102.375C130.896 122.157 114.83 137.988 95.1875 137.982Z" fill="white"/>
<path d="M96.2661 95.6838C96.2661 97.9132 96.2661 100.143 96.2661 102.372C96.2661 104.611 96.2658 106.851 96.2664 109.091C96.2669 113.145 92.8688 116.186 88.8453 115.733C85.7849 115.388 83.3 112.823 83.0546 109.757C82.7418 105.847 85.7616 102.57 89.6811 102.568C90.4109 102.567 91.1409 102.562 91.8704 102.571C92.0957 102.574 92.1997 102.497 92.1744 102.268C92.172 102.248 92.1744 102.227 92.1744 102.207C92.1744 100.049 92.1744 97.8918 92.1749 95.7342C92.1749 95.5555 92.195 95.3748 91.9227 95.3795C90.6286 95.4014 89.3304 95.3027 88.0416 95.4654C84.6702 95.8912 81.8061 97.3301 79.4974 99.8306C77.2817 102.23 76.0729 105.078 75.8693 108.33C75.6981 111.063 76.2632 113.656 77.668 116.017C80.2337 120.329 84.0583 122.638 89.0604 122.96C90.9389 123.081 92.7734 122.766 94.5298 122.084C98.0356 120.723 100.597 118.337 102.197 114.933C103.082 113.052 103.464 111.06 103.462 108.986C103.457 103.644 103.46 98.3014 103.463 92.9592C103.463 92.8434 103.398 92.6728 103.525 92.6232C103.649 92.5749 103.72 92.7431 103.804 92.8246C104.461 93.4657 105.175 94.0333 105.945 94.5323C108.072 95.9113 110.428 96.6488 112.913 97.0333C113.195 97.077 113.217 96.9362 113.255 96.7426C113.661 94.6773 114.07 92.6122 114.478 90.5472C114.558 90.1452 114.56 90.1339 114.156 90.0822C111.207 89.7037 108.771 88.3419 106.737 86.2128C105.472 84.8881 104.452 83.3876 103.61 81.7651C103.489 81.532 103.342 81.4518 103.081 81.4531C100.964 81.4631 98.8463 81.4586 96.729 81.4586C96.2664 81.4586 96.2658 81.4589 96.2658 81.9375C96.2661 86.5198 96.2661 91.1018 96.2661 95.6838Z" fill="#323232"/>
<path d="M236.84 77.2786C251.102 63.0241 251.102 39.9129 236.84 25.6584C222.579 11.4039 199.455 11.4039 185.193 25.6584C170.931 39.9129 170.931 63.0241 185.193 77.2786C199.455 91.5331 222.579 91.5331 236.84 77.2786Z" fill="white"/>
<path d="M210.643 28.6591C210.913 28.6591 211.182 28.6591 211.452 28.6591C212.354 28.7374 213.265 28.7589 214.156 28.9028C222.904 30.3166 229.023 35.0817 232.136 43.401C235.409 52.1468 232.48 62.3589 225.115 68.0209C217.819 73.6295 209.897 74.3132 201.555 70.5773C200.88 70.275 200.325 70.2476 199.641 70.4723C196.317 71.5637 192.978 72.6123 189.644 73.6706C189.316 73.7745 188.977 73.8422 188.486 73.9665C188.686 73.3215 188.816 72.8733 188.963 72.431C189.997 69.3375 191.017 66.24 192.082 63.1572C192.309 62.4997 192.266 61.9694 191.941 61.3495C189.589 56.8623 188.754 52.1502 189.6 47.0966C191.149 37.8417 198.665 30.3375 207.946 28.9725C208.841 28.8406 209.744 28.7622 210.643 28.6591ZM194.211 68.3607C196.343 67.6703 198.202 67.0953 200.04 66.4587C200.814 66.1909 201.418 66.2252 202.19 66.6434C208.852 70.2544 215.497 70.1217 221.742 65.8294C227.927 61.5778 230.475 55.4234 229.489 48.0316C228.335 39.3876 220.895 32.8252 212.055 32.5138C204.739 32.2562 199.092 35.4365 195.478 41.7178C191.809 48.0961 192.173 54.5877 196.031 60.8503C196.368 61.3984 196.459 61.831 196.246 62.4276C195.569 64.3161 194.94 66.222 194.211 68.3607Z" fill="#323232"/>
<path d="M217.248 61.9874C216.103 61.636 214.945 61.3228 213.815 60.9273C207.631 58.7619 203.695 54.2282 200.987 48.5059C199.806 46.0117 200.084 43.5365 201.823 41.287C202.709 40.141 203.858 39.7617 205.208 40.0718C205.589 40.1595 206.031 40.5621 206.193 40.9307C206.814 42.345 207.326 43.8066 207.892 45.2455C208.223 46.0877 207.722 46.6608 207.271 47.2468C205.871 49.0624 205.873 49.0561 207.177 50.9605C208.755 53.2656 210.832 54.9707 213.34 56.1859C214.013 56.5125 214.538 56.4991 215.025 55.8892C215.381 55.443 215.841 55.0718 216.153 54.6C216.772 53.6648 217.484 53.502 218.455 54.0618C219.679 54.7666 220.965 55.3646 222.168 56.1013C222.481 56.2933 222.745 56.8238 222.758 57.2073C222.853 60.2045 219.771 61.9001 217.248 61.9874Z" fill="#323232"/>
</g>
<defs>
<linearGradient id="paint0_linear_1_3" x1="157.882" y1="320.096" x2="231.982" y2="394.235" gradientUnits="userSpaceOnUse">
<stop stop-color="#B89CFF"/>
<stop offset="0.3174" stop-color="#B592F4"/>
<stop offset="0.8747" stop-color="#AF78D7"/>
<stop offset="1" stop-color="#AD71CF"/>
</linearGradient>
<clipPath id="clip0_1_3">
<rect width="454" height="508" fill="white"/>
</clipPath>
</defs>
</svg>
