<svg width="56" height="56" viewBox="0 0 56 56" fill="none" xmlns="http://www.w3.org/2000/svg">
<g clip-path="url(#clip0_16_363)">
<path d="M56 54.1333H0V56H56V54.1333Z" fill="black"/>
<path d="M3.73338 52.2667H13.0667C13.5821 52.2667 14 51.8488 14 51.3333V34.5333C14 34.0179 13.5821 33.6 13.0667 33.6H3.73338C3.21795 33.6 2.80005 34.0179 2.80005 34.5333V51.3333C2.80005 51.8488 3.21795 52.2667 3.73338 52.2667ZM4.66672 35.4667H12.1334V50.4H4.66672V35.4667Z" fill="black"/>
<path d="M29.8667 52.2667H39.2C39.7154 52.2667 40.1333 51.8488 40.1333 51.3333V23.3333C40.1333 22.8179 39.7154 22.4 39.2 22.4H29.8667C29.3512 22.4 28.9333 22.8179 28.9333 23.3333V51.3333C28.9333 51.8488 29.3512 52.2667 29.8667 52.2667ZM30.8 24.2667H38.2667V50.4H30.8V24.2667Z" fill="black"/>
<path d="M16.8 52.2667H26.1334C26.6488 52.2667 27.0667 51.8488 27.0667 51.3333V12.1333C27.0667 11.6179 26.6488 11.2 26.1334 11.2H16.8C16.2846 11.2 15.8667 11.6179 15.8667 12.1333V51.3333C15.8667 51.8488 16.2846 52.2667 16.8 52.2667ZM17.7334 13.0667H25.2V50.4H17.7334V13.0667Z" fill="black"/>
<path d="M42.9333 52.2667H52.2667C52.7821 52.2667 53.2 51.8488 53.2 51.3333V0.933333C53.2 0.4179 52.7821 0 52.2667 0H42.9333C42.4179 0 42 0.4179 42 0.933333V51.3333C42 51.8488 42.4179 52.2667 42.9333 52.2667ZM43.8667 1.86667H51.3333V50.4H43.8667V1.86667Z" fill="black"/>
</g>
<defs>
<clipPath id="clip0_16_363">
<rect width="56" height="56" fill="white"/>
</clipPath>
</defs>
</svg>
