<svg width="50" height="50" viewBox="0 0 50 50" fill="none" xmlns="http://www.w3.org/2000/svg">
<path d="M47.8862 0.000562492C47.5815 0.00877707 47.2918 0.135763 47.0794 0.354309L42.0653 5.3718L40.5545 3.86096C39.7146 3.02101 38.7481 2.55631 37.7953 2.53042C37.2234 2.51487 36.6926 2.59798 36.0619 2.68561L27.8824 3.82216C24.8731 4.2403 23.3449 5.52947 21.4043 7.33795L1.2841 26.0876C1.276 26.0951 1.26801 26.1027 1.26013 26.1105C0.390471 26.9691 0.0134215 28.1433 0.000338353 29.2987C-0.0127343 30.4542 0.351688 31.6766 1.32175 32.5053L1.25443 32.4425L16.647 47.8351L16.5842 47.7677C17.4129 48.7378 18.6353 49.1022 19.7907 49.0891C20.9462 49.0761 22.1204 48.699 22.979 47.8293C22.9867 47.8215 22.9943 47.8135 23.0018 47.8054L24.3837 46.3219L29.8873 48.3725C31.0829 48.818 32.3073 48.7353 33.3529 48.2436C34.3985 47.7518 35.3099 46.9218 35.7299 45.7742L41.7698 27.6658C43.5685 25.7346 44.8506 24.206 45.2673 21.2071L46.4039 13.0276C46.4915 12.3969 46.5746 11.866 46.5591 11.2942C46.5332 10.3414 46.0685 9.37493 45.2285 8.53498L43.7177 7.02414L48.7352 2.00665C49.4987 1.26342 48.9512 -0.0308809 47.8862 0.000562492ZM37.7314 4.86743C38.1891 4.87986 38.2815 4.89262 38.9022 5.5133L40.413 7.02414L37.7302 9.70919C37.2722 9.48796 36.7624 9.36001 36.224 9.36001C34.3018 9.36001 32.7173 10.9445 32.7173 12.8667C32.7173 14.7889 34.3018 16.3733 36.224 16.3733C38.1462 16.3733 39.7306 14.7889 39.7306 12.8667C39.7306 12.3283 39.6026 11.8183 39.3814 11.3604L42.0653 8.67648L43.5762 10.1873C44.1969 10.808 44.2096 10.9004 44.222 11.3581C44.2296 11.6326 44.1773 12.0751 44.0897 12.7058L42.9531 20.8853C42.6008 23.4212 41.841 24.1618 40.0421 26.0922L21.3141 46.1896C21.0114 46.4954 20.3868 46.7451 19.7645 46.7521C19.1415 46.7592 18.6067 46.5365 18.3621 46.25C18.342 46.2268 18.3211 46.2043 18.2993 46.1827L2.90676 30.7902C2.88515 30.7684 2.86269 30.7475 2.83944 30.7274C2.55301 30.4828 2.33029 29.948 2.33735 29.325C2.34439 28.7026 2.59407 28.0781 2.89992 27.7754L2.90109 27.7742L22.9973 9.04731C24.9277 7.24843 25.6683 6.48869 28.2042 6.13632L36.3837 4.99977C37.0145 4.91213 37.4569 4.85997 37.7314 4.86743ZM36.224 11.697C36.8831 11.697 37.3925 12.2075 37.3925 12.8667C37.3925 13.5258 36.8831 14.0352 36.224 14.0352C35.5648 14.0352 35.0555 13.5258 35.0555 12.8667C35.0555 12.2075 35.5648 11.697 36.224 11.697ZM16.3457 24.5414C15.2984 24.5428 14.7815 25.8149 15.5309 26.5464L22.5431 33.5597C23.6469 34.6612 25.2993 33.0055 24.1954 31.9039L17.1821 24.8952C16.9624 24.6693 16.6608 24.5418 16.3457 24.5414ZM12.839 28.0435C11.7863 28.0406 11.2668 29.322 12.0243 30.053L19.0376 37.0618C20.1385 38.2376 21.8654 36.5096 20.6888 35.4094L13.68 28.4018C13.46 28.1732 13.1564 28.0438 12.839 28.0435ZM37.9334 31.7818L33.5343 44.9708C33.3864 45.3751 32.9216 45.8639 32.3579 46.1291C31.7941 46.3942 31.2261 46.3866 30.8733 46.2546L26.108 44.4722L37.9334 31.7818Z" fill="black"/>
</svg>
