<svg width="56" height="56" viewBox="0 0 56 56" fill="none" xmlns="http://www.w3.org/2000/svg">
<g clip-path="url(#clip0_16_296)">
<path d="M54.3988 7.6557C53.575 6.83046 52.2383 6.82904 51.4145 7.65219L26.0949 32.9049L16.9597 22.9832C16.1704 22.1263 14.8358 22.0708 13.9775 22.86C13.1199 23.6494 13.065 24.9846 13.8543 25.8422L24.4775 37.3792C24.8666 37.8021 25.411 38.0476 25.9851 38.0595C26.0006 38.0602 26.0154 38.0602 26.0302 38.0602C26.5881 38.0602 27.1248 37.8386 27.5202 37.4446L54.3946 10.6406C55.2205 9.8176 55.2219 8.48093 54.3988 7.6557Z" fill="black"/>
<path d="M53.8894 25.8894C52.7237 25.8894 51.7789 26.8342 51.7789 28C51.7789 41.1122 41.1122 51.7789 28 51.7789C14.8886 51.7789 4.22111 41.1122 4.22111 28C4.22111 14.8886 14.8886 4.22111 28 4.22111C29.1657 4.22111 30.1106 3.27633 30.1106 2.11061C30.1106 0.944781 29.1657 0 28 0C12.5606 0 0 12.5606 0 28C0 43.4387 12.5606 56 28 56C43.4387 56 56 43.4387 56 28C56 26.8343 55.0552 25.8894 53.8894 25.8894Z" fill="black"/>
</g>
<defs>
<clipPath id="clip0_16_296">
<rect width="56" height="56" fill="white"/>
</clipPath>
</defs>
</svg>
