<svg width="56" height="56" viewBox="0 0 56 56" fill="none" xmlns="http://www.w3.org/2000/svg">
<path d="M28 53.375C14 53.375 2.625 42 2.625 28C2.625 14 14 2.625 28 2.625C42 2.625 53.375 14 53.375 28C53.375 42 42 53.375 28 53.375ZM28 4.375C14.98 4.375 4.375 14.98 4.375 28C4.375 41.02 14.98 51.625 28 51.625C41.02 51.625 51.625 41.02 51.625 28C51.625 14.98 41.02 4.375 28 4.375Z" fill="black"/>
<path d="M28 49.735C16.0125 49.735 6.26501 39.9875 6.26501 28C6.26501 16.0125 16.0125 6.26501 28 6.26501C39.9875 6.26501 49.735 16.0125 49.735 28C49.735 39.9875 39.9875 49.735 28 49.735ZM28 8.01501C16.9925 8.01501 8.01501 16.9925 8.01501 28C8.01501 39.0075 16.9925 47.985 28 47.985C39.0075 47.985 47.985 39.0075 47.985 28C47.985 16.9925 39.0075 8.01501 28 8.01501Z" fill="black"/>
<path d="M27.9999 30.555C26.5999 30.555 25.4449 29.4 25.4449 28C25.4449 26.6 26.5999 25.4625 27.9999 25.4625C29.3999 25.4625 30.5549 26.6 30.5549 28C30.5549 29.4 29.3999 30.555 27.9999 30.555ZM27.9999 27.195C27.5624 27.195 27.1949 27.5625 27.1949 27.9825C27.1949 28.42 27.5624 28.7875 27.9999 28.7875C28.4374 28.7875 28.8049 28.42 28.8049 27.9825C28.8049 27.5625 28.4374 27.195 27.9999 27.195Z" fill="black"/>
<path d="M28 10.745C27.51 10.745 27.125 10.36 27.125 9.87001V7.14001C27.125 6.65001 27.51 6.26501 28 6.26501C28.49 6.26501 28.875 6.65001 28.875 7.14001V9.87001C28.875 10.36 28.49 10.745 28 10.745Z" fill="black"/>
<path d="M28 49.7175C27.51 49.7175 27.125 49.3325 27.125 48.8425V46.1125C27.125 45.6225 27.51 45.2375 28 45.2375C28.49 45.2375 28.875 45.6225 28.875 46.1125V48.8425C28.875 49.3325 28.49 49.7175 28 49.7175Z" fill="black"/>
<path d="M48.8424 28.875H46.1124C45.6224 28.875 45.2374 28.49 45.2374 28C45.2374 27.51 45.6224 27.125 46.1124 27.125H48.8424C49.3324 27.125 49.7174 27.51 49.7174 28C49.7174 28.49 49.3324 28.875 48.8424 28.875Z" fill="black"/>
<path d="M9.86997 28.875H7.15747C6.66747 28.875 6.28247 28.49 6.28247 28C6.28247 27.51 6.66747 27.125 7.15747 27.125H9.88747C10.3775 27.125 10.7625 27.51 10.7625 28C10.7625 28.49 10.36 28.875 9.86997 28.875Z" fill="black"/>
<path d="M38.6051 28.875H29.6801C29.1901 28.875 28.8051 28.49 28.8051 28C28.8051 27.51 29.1901 27.125 29.6801 27.125H38.6051C39.0951 27.125 39.4801 27.51 39.4801 28C39.4801 28.49 39.0951 28.875 38.6051 28.875Z" fill="black"/>
<path d="M28 27.195C27.51 27.195 27.125 26.81 27.125 26.32V14.1225C27.125 13.6325 27.51 13.2475 28 13.2475C28.49 13.2475 28.875 13.6325 28.875 14.1225V26.3375C28.875 26.81 28.49 27.195 28 27.195Z" fill="black"/>
</svg>
