<svg width="56" height="56" viewBox="0 0 56 56" fill="none" xmlns="http://www.w3.org/2000/svg">
<g clip-path="url(#clip0_17_387)">
<path d="M15.2344 40.663C15.0897 40.663 14.9427 40.635 14.8004 40.579C7.22871 37.5503 2.33337 30.3217 2.33337 22.1667C2.33337 11.2303 11.2304 2.33334 22.1667 2.33334C33.103 2.33334 42 11.2303 42 22.1667C42 28.721 38.7567 34.86 33.327 38.5933C32.7927 38.962 32.0694 38.8243 31.7054 38.2923C31.3414 37.7603 31.4744 37.0347 32.0064 36.6707C36.8014 33.376 39.6667 27.951 39.6667 22.1667C39.6667 12.516 31.8174 4.66668 22.1667 4.66668C12.516 4.66668 4.66671 12.516 4.66671 22.1667C4.66671 29.3627 8.98571 35.7373 15.6684 38.4137C16.268 38.654 16.5574 39.333 16.317 39.928C16.135 40.3853 15.6987 40.663 15.2344 40.663Z" fill="black"/>
<path d="M23.3334 30.3333H17.5C16.856 30.3333 16.3334 29.8107 16.3334 29.1667C16.3334 28.5227 16.856 28 17.5 28H23.3334C24.6214 28 25.6667 26.9523 25.6667 25.6667C25.6667 24.381 24.6214 23.3333 23.3334 23.3333H21C18.4264 23.3333 16.3334 21.2403 16.3334 18.6667C16.3334 16.093 18.4264 14 21 14H26.8334C27.4774 14 28 14.5227 28 15.1667C28 15.8107 27.4774 16.3333 26.8334 16.3333H21C19.712 16.3333 18.6667 17.381 18.6667 18.6667C18.6667 19.9523 19.712 21 21 21H23.3334C25.907 21 28 23.093 28 25.6667C28 28.2403 25.907 30.3333 23.3334 30.3333Z" fill="black"/>
<path d="M22.1667 16.3333C21.5227 16.3333 21 15.8107 21 15.1667V10.5C21 9.85601 21.5227 9.33334 22.1667 9.33334C22.8107 9.33334 23.3333 9.85601 23.3333 10.5V15.1667C23.3333 15.8107 22.8107 16.3333 22.1667 16.3333Z" fill="black"/>
<path d="M22.1667 35C21.5227 35 21 34.4773 21 33.8333V29.1667C21 28.5227 21.5227 28 22.1667 28C22.8107 28 23.3333 28.5227 23.3333 29.1667V33.8333C23.3333 34.4773 22.8107 35 22.1667 35Z" fill="black"/>
<path d="M1.16666 56C0.781657 56 0.40599 55.8087 0.18199 55.461C-0.163343 54.9173 -0.00234342 54.1963 0.53899 53.851L26.2057 37.5177C26.6677 37.2237 27.2697 37.289 27.657 37.6763L36.1643 46.1837L54.005 28.343C54.46 27.888 55.1997 27.888 55.6547 28.343C56.1097 28.798 56.1097 29.5377 55.6547 29.9927L36.988 48.6593C36.533 49.1143 35.7933 49.1143 35.3383 48.6593L26.6653 39.9863L1.79432 55.818C1.60066 55.9417 1.38366 56 1.16666 56Z" fill="black"/>
<path d="M54.8334 39.6667C54.1894 39.6667 53.6667 39.144 53.6667 38.5V30.3333H45.5C44.856 30.3333 44.3334 29.8107 44.3334 29.1667C44.3334 28.5227 44.856 28 45.5 28H54.8334C55.4774 28 56 28.5227 56 29.1667V38.5C56 39.144 55.4774 39.6667 54.8334 39.6667Z" fill="black"/>
</g>
<defs>
<clipPath id="clip0_17_387">
<rect width="56" height="56" fill="white"/>
</clipPath>
</defs>
</svg>
