<svg width="56" height="50" viewBox="0 0 56 50" fill="none" xmlns="http://www.w3.org/2000/svg">
<path d="M28.3593 17.7828C25.2045 17.7828 22.647 20.3403 22.647 23.4952C22.647 26.6499 25.2044 29.2075 28.3593 29.2075C31.5141 29.2075 34.0716 26.6501 34.0716 23.4952C34.0716 20.3403 31.5142 17.7828 28.3593 17.7828ZM28.3593 26.4872C26.7068 26.4872 25.3671 25.1476 25.3671 23.495C25.3671 21.8425 26.7068 20.5029 28.3593 20.5029C30.0119 20.5029 31.3515 21.8425 31.3515 23.495C31.3515 25.1476 30.0119 26.4872 28.3593 26.4872Z" fill="black"/>
<path d="M51.1405 4.72607L14.0106 0.509967C12.5696 0.30509 11.1096 0.725777 9.99848 1.66607C8.88754 2.52749 8.17542 3.80439 8.02638 5.20221L7.34641 10.7785H5.23816C2.24598 10.7785 0.00183776 13.4306 0.00183776 16.4228V44.2361C-0.0735266 47.0894 2.17842 49.4637 5.03185 49.5391C5.10058 49.5409 5.16944 49.5413 5.23816 49.5404H42.572C45.5642 49.5404 48.2843 47.2283 48.2843 44.2361V43.1481C49.212 42.9689 50.0921 42.5983 50.8685 42.0601C51.9703 41.1324 52.6758 39.8187 52.8406 38.3879L55.9688 10.7785C56.2877 7.77944 54.1354 5.08155 51.1405 4.72607ZM45.5642 44.2361C45.5642 45.7322 44.0681 46.8202 42.572 46.8202H5.23816C3.88668 46.8599 2.75895 45.7965 2.71925 44.445C2.71717 44.3754 2.71808 44.3058 2.72198 44.2361V39.2039L13.2626 31.4515C14.5288 30.4793 16.3123 30.5658 17.4788 31.6555L24.8912 38.1838C26.0169 39.1289 27.4338 39.6573 28.9035 39.6799C30.0526 39.694 31.1828 39.3879 32.1677 38.7958L45.5643 31.0435V44.2361H45.5642ZM45.5642 27.8473L30.7394 36.4837C29.4664 37.2379 27.8551 37.1014 26.7272 36.1438L19.2468 29.5474C17.1029 27.7052 13.9694 27.5922 11.6984 29.2753L2.72198 35.8036V16.4228C2.72198 14.9267 3.74207 13.4987 5.23816 13.4987H42.572C44.1704 13.5649 45.4612 14.8265 45.5642 16.4228V27.8473ZM53.2512 10.4113C53.2503 10.4203 53.2495 10.4294 53.2485 10.4384L50.0524 38.0478C50.0578 38.7637 49.7314 39.4417 49.1683 39.8839C48.8962 40.1559 48.2842 40.2919 48.2842 40.4279V16.4228C48.1768 13.3248 45.6709 10.8487 42.5719 10.7785H10.0664L10.6785 5.47425C10.8112 4.78738 11.1703 4.16494 11.6985 3.70612C12.2949 3.29376 13.0161 3.10151 13.7387 3.16204L50.8007 7.44622C52.296 7.58823 53.3932 8.91576 53.2512 10.4113Z" fill="black"/>
</svg>
