<svg width="63" height="62" viewBox="0 0 63 62" fill="none" xmlns="http://www.w3.org/2000/svg">
<path d="M9.84375 9.8418C15.832 3.85352 23.0508 0.859375 31.5 0.859375C39.9492 0.859375 47.127 3.85352 53.0332 9.8418C59.0215 15.748 62.0156 22.9258 62.0156 31.375C62.0156 39.8242 59.0215 47.043 53.0332 53.0312C47.127 58.9375 39.9492 61.8906 31.5 61.8906C23.0508 61.8906 15.832 58.9375 9.84375 53.0312C3.9375 47.043 0.984375 39.8242 0.984375 31.375C0.984375 22.9258 3.9375 15.748 9.84375 9.8418ZM35.0684 15.9941C34.084 14.9277 32.8945 14.3945 31.5 14.3945C30.1055 14.3945 28.875 14.9277 27.8086 15.9941C26.8242 16.9785 26.332 18.168 26.332 19.5625C26.332 20.957 26.8242 22.1875 27.8086 23.2539C28.875 24.2383 30.1055 24.7305 31.5 24.7305C32.8945 24.7305 34.084 24.2383 35.0684 23.2539C36.1348 22.1875 36.668 20.957 36.668 19.5625C36.668 18.168 36.1348 16.9785 35.0684 15.9941ZM38.3906 45.6484V42.6953C38.3906 41.7109 37.8984 41.2188 36.9141 41.2188H35.4375V28.9141C35.4375 27.9297 34.9453 27.4375 33.9609 27.4375H26.0859C25.1016 27.4375 24.6094 27.9297 24.6094 28.9141V31.8672C24.6094 32.8516 25.1016 33.3438 26.0859 33.3438H27.5625V41.2188H26.0859C25.1016 41.2188 24.6094 41.7109 24.6094 42.6953V45.6484C24.6094 46.6328 25.1016 47.125 26.0859 47.125H36.9141C37.8984 47.125 38.3906 46.6328 38.3906 45.6484Z" fill="#17494D"/>
</svg>
