<svg width="554" height="432" viewBox="0 0 554 432" fill="none" xmlns="http://www.w3.org/2000/svg">
<g filter="url(#filter0_d_4269_350281)">
<path d="M538 400.562C538 406.876 533.396 412 527.721 412H26.2866C20.6041 412 16 406.876 16 400.562V23.4293C16 17.1155 20.6041 12 26.2866 12H527.713C533.388 12 537.992 17.1155 537.992 23.4293V400.562H538Z" fill="white"/>
<path d="M538.5 400.562V400.062H538.492V23.4293C538.492 16.8904 533.713 11.5 527.713 11.5H26.2866C20.2797 11.5 15.5 16.8902 15.5 23.4293V400.562C15.5 407.101 20.2792 412.5 26.2866 412.5H527.721C533.721 412.5 538.5 407.101 538.5 400.562Z" stroke="#F0E8E8"/>
</g>
<path d="M48.0439 34.3571C48.0439 36.5327 46.2839 38.2924 44.1079 38.2924C41.9319 38.2924 40.1719 36.5327 40.1719 34.3571C40.1719 32.1815 41.9319 30.4219 44.1079 30.4219C46.2839 30.4219 48.0439 32.1815 48.0439 34.3571Z" fill="#FFC3D0"/>
<path d="M63.747 34.3571C63.747 36.5327 61.987 38.2924 59.811 38.2924C57.635 38.2924 55.875 36.5327 55.875 34.3571C55.875 32.1815 57.635 30.4219 59.811 30.4219C61.987 30.4219 63.747 32.1815 63.747 34.3571Z" fill="#F5D79B"/>
<path d="M79.4579 34.3571C79.4579 36.5327 77.6979 38.2924 75.5219 38.2924C73.3459 38.2924 71.5859 36.5327 71.5859 34.3571C71.5859 32.1815 73.3459 30.4219 75.5219 30.4219C77.6979 30.4219 79.4579 32.1815 79.4579 34.3571Z" fill="#6AEBE7"/>
<path d="M539 94H17V322H539V94Z" fill="#F9F9F8"/>
<path d="M531.269 52H16V385H372.908H424.936H538V197.36V111.019V85.3458V52H531.269Z" fill="white"/>
<path d="M183.522 131L178.484 115.6H182.18L186.558 129.24H184.71L189.286 115.6H192.586L196.986 129.24H195.204L199.692 115.6H203.102L198.064 131H194.236L190.342 119.032H191.354L187.35 131H183.522ZM208.37 121.804H215.784V124.576H208.37V121.804ZM208.634 128.14H217.016V131H205.092V115.6H216.73V118.46H208.634V128.14ZM219.851 131V115.6H227.375C229.311 115.6 230.763 115.967 231.731 116.7C232.714 117.433 233.205 118.401 233.205 119.604C233.205 120.411 233.007 121.115 232.611 121.716C232.215 122.303 231.673 122.757 230.983 123.08C230.294 123.403 229.502 123.564 228.607 123.564L229.025 122.662C229.993 122.662 230.851 122.823 231.599 123.146C232.347 123.454 232.927 123.916 233.337 124.532C233.763 125.148 233.975 125.903 233.975 126.798C233.975 128.118 233.455 129.152 232.413 129.9C231.372 130.633 229.839 131 227.815 131H219.851ZM223.393 128.316H227.551C228.475 128.316 229.172 128.169 229.641 127.876C230.125 127.568 230.367 127.084 230.367 126.424C230.367 125.779 230.125 125.302 229.641 124.994C229.172 124.671 228.475 124.51 227.551 124.51H223.129V121.914H226.935C227.801 121.914 228.461 121.767 228.915 121.474C229.385 121.166 229.619 120.704 229.619 120.088C229.619 119.487 229.385 119.039 228.915 118.746C228.461 118.438 227.801 118.284 226.935 118.284H223.393V128.316ZM241.734 131.264C240.502 131.264 239.321 131.103 238.192 130.78C237.062 130.443 236.153 130.01 235.464 129.482L236.674 126.798C237.334 127.267 238.111 127.656 239.006 127.964C239.915 128.257 240.832 128.404 241.756 128.404C242.46 128.404 243.024 128.338 243.45 128.206C243.89 128.059 244.212 127.861 244.418 127.612C244.623 127.363 244.726 127.077 244.726 126.754C244.726 126.343 244.564 126.021 244.242 125.786C243.919 125.537 243.494 125.339 242.966 125.192C242.438 125.031 241.851 124.884 241.206 124.752C240.575 124.605 239.937 124.429 239.292 124.224C238.661 124.019 238.082 123.755 237.554 123.432C237.026 123.109 236.593 122.684 236.256 122.156C235.933 121.628 235.772 120.953 235.772 120.132C235.772 119.252 236.006 118.453 236.476 117.734C236.96 117.001 237.678 116.421 238.632 115.996C239.6 115.556 240.81 115.336 242.262 115.336C243.23 115.336 244.183 115.453 245.122 115.688C246.06 115.908 246.889 116.245 247.608 116.7L246.508 119.406C245.789 118.995 245.07 118.695 244.352 118.504C243.633 118.299 242.929 118.196 242.24 118.196C241.55 118.196 240.986 118.277 240.546 118.438C240.106 118.599 239.79 118.812 239.6 119.076C239.409 119.325 239.314 119.619 239.314 119.956C239.314 120.352 239.475 120.675 239.798 120.924C240.12 121.159 240.546 121.349 241.074 121.496C241.602 121.643 242.181 121.789 242.812 121.936C243.457 122.083 244.095 122.251 244.726 122.442C245.371 122.633 245.958 122.889 246.486 123.212C247.014 123.535 247.439 123.96 247.762 124.488C248.099 125.016 248.268 125.683 248.268 126.49C248.268 127.355 248.026 128.147 247.542 128.866C247.058 129.585 246.332 130.164 245.364 130.604C244.41 131.044 243.2 131.264 241.734 131.264ZM250.703 131V115.6H254.267V131H250.703ZM261.112 131V118.504H256.184V115.6H269.604V118.504H264.676V131H261.112ZM274.799 121.804H282.213V124.576H274.799V121.804ZM275.063 128.14H283.445V131H271.521V115.6H283.159V118.46H275.063V128.14ZM297.572 131.264C296.34 131.264 295.159 131.103 294.03 130.78C292.9 130.443 291.991 130.01 291.302 129.482L292.512 126.798C293.172 127.267 293.949 127.656 294.844 127.964C295.753 128.257 296.67 128.404 297.594 128.404C298.298 128.404 298.862 128.338 299.288 128.206C299.728 128.059 300.05 127.861 300.256 127.612C300.461 127.363 300.564 127.077 300.564 126.754C300.564 126.343 300.402 126.021 300.08 125.786C299.757 125.537 299.332 125.339 298.804 125.192C298.276 125.031 297.689 124.884 297.044 124.752C296.413 124.605 295.775 124.429 295.13 124.224C294.499 124.019 293.92 123.755 293.392 123.432C292.864 123.109 292.431 122.684 292.094 122.156C291.771 121.628 291.61 120.953 291.61 120.132C291.61 119.252 291.844 118.453 292.314 117.734C292.798 117.001 293.516 116.421 294.47 115.996C295.438 115.556 296.648 115.336 298.1 115.336C299.068 115.336 300.021 115.453 300.96 115.688C301.898 115.908 302.727 116.245 303.446 116.7L302.346 119.406C301.627 118.995 300.908 118.695 300.19 118.504C299.471 118.299 298.767 118.196 298.078 118.196C297.388 118.196 296.824 118.277 296.384 118.438C295.944 118.599 295.628 118.812 295.438 119.076C295.247 119.325 295.152 119.619 295.152 119.956C295.152 120.352 295.313 120.675 295.636 120.924C295.958 121.159 296.384 121.349 296.912 121.496C297.44 121.643 298.019 121.789 298.65 121.936C299.295 122.083 299.933 122.251 300.564 122.442C301.209 122.633 301.796 122.889 302.324 123.212C302.852 123.535 303.277 123.96 303.6 124.488C303.937 125.016 304.106 125.683 304.106 126.49C304.106 127.355 303.864 128.147 303.38 128.866C302.896 129.585 302.17 130.164 301.202 130.604C300.248 131.044 299.038 131.264 297.572 131.264ZM309.819 121.804H317.233V124.576H309.819V121.804ZM310.083 128.14H318.465V131H306.541V115.6H318.179V118.46H310.083V128.14ZM328.671 131.264C327.483 131.264 326.375 131.073 325.349 130.692C324.337 130.296 323.457 129.739 322.709 129.02C321.961 128.301 321.374 127.458 320.949 126.49C320.538 125.522 320.333 124.459 320.333 123.3C320.333 122.141 320.538 121.078 320.949 120.11C321.374 119.142 321.961 118.299 322.709 117.58C323.471 116.861 324.359 116.311 325.371 115.93C326.383 115.534 327.49 115.336 328.693 115.336C330.027 115.336 331.23 115.571 332.301 116.04C333.386 116.495 334.295 117.169 335.029 118.064L332.741 120.176C332.213 119.575 331.626 119.127 330.981 118.834C330.335 118.526 329.631 118.372 328.869 118.372C328.15 118.372 327.49 118.489 326.889 118.724C326.287 118.959 325.767 119.296 325.327 119.736C324.887 120.176 324.542 120.697 324.293 121.298C324.058 121.899 323.941 122.567 323.941 123.3C323.941 124.033 324.058 124.701 324.293 125.302C324.542 125.903 324.887 126.424 325.327 126.864C325.767 127.304 326.287 127.641 326.889 127.876C327.49 128.111 328.15 128.228 328.869 128.228C329.631 128.228 330.335 128.081 330.981 127.788C331.626 127.48 332.213 127.018 332.741 126.402L335.029 128.514C334.295 129.409 333.386 130.091 332.301 130.56C331.23 131.029 330.02 131.264 328.671 131.264ZM344.191 131.264C342.006 131.264 340.297 130.655 339.065 129.438C337.833 128.221 337.217 126.483 337.217 124.224V115.6H340.781V124.092C340.781 125.559 341.082 126.615 341.683 127.26C342.285 127.905 343.128 128.228 344.213 128.228C345.299 128.228 346.142 127.905 346.743 127.26C347.345 126.615 347.645 125.559 347.645 124.092V115.6H351.165V124.224C351.165 126.483 350.549 128.221 349.317 129.438C348.085 130.655 346.377 131.264 344.191 131.264ZM354.687 131V115.6H361.353C362.732 115.6 363.92 115.827 364.917 116.282C365.915 116.722 366.685 117.36 367.227 118.196C367.77 119.032 368.041 120.029 368.041 121.188C368.041 122.332 367.77 123.322 367.227 124.158C366.685 124.979 365.915 125.61 364.917 126.05C363.92 126.49 362.732 126.71 361.353 126.71H356.667L358.251 125.148V131H354.687ZM364.477 131L360.627 125.412H364.433L368.327 131H364.477ZM358.251 125.544L356.667 123.872H361.155C362.255 123.872 363.077 123.637 363.619 123.168C364.162 122.684 364.433 122.024 364.433 121.188C364.433 120.337 364.162 119.677 363.619 119.208C363.077 118.739 362.255 118.504 361.155 118.504H356.667L358.251 116.81V125.544ZM374.143 121.804H381.557V124.576H374.143V121.804ZM374.407 128.14H382.789V131H370.865V115.6H382.503V118.46H374.407V128.14Z" fill="#17494D"/>
<path opacity="0.7" d="M539 52H16V94H539V52Z" fill="#EEE3E3"/>
<path d="M64 72C64 77.5239 59.5256 82 54 82C48.4744 82 44 77.52 44 72C44 66.48 48.4744 62 54 62C59.5256 62 64 66.4761 64 72Z" fill="#CCCCCC"/>
<path d="M70.8849 78V67.8182H73.0376V76.2251H77.4027V78H70.8849ZM87.7884 72.9091C87.7884 74.0194 87.5779 74.964 87.157 75.7429C86.7393 76.5218 86.1693 77.1167 85.4467 77.5277C84.7275 77.9354 83.9188 78.1392 83.0206 78.1392C82.1158 78.1392 81.3037 77.9337 80.5845 77.5227C79.8653 77.1117 79.2969 76.5168 78.8793 75.7379C78.4616 74.959 78.2528 74.0161 78.2528 72.9091C78.2528 71.7988 78.4616 70.8542 78.8793 70.0753C79.2969 69.2964 79.8653 68.7031 80.5845 68.2955C81.3037 67.8845 82.1158 67.679 83.0206 67.679C83.9188 67.679 84.7275 67.8845 85.4467 68.2955C86.1693 68.7031 86.7393 69.2964 87.157 70.0753C87.5779 70.8542 87.7884 71.7988 87.7884 72.9091ZM85.6058 72.9091C85.6058 72.1899 85.4981 71.5833 85.2827 71.0895C85.0705 70.5956 84.7706 70.2211 84.3828 69.9659C83.995 69.7107 83.541 69.5831 83.0206 69.5831C82.5002 69.5831 82.0462 69.7107 81.6584 69.9659C81.2706 70.2211 80.969 70.5956 80.7536 71.0895C80.5414 71.5833 80.4354 72.1899 80.4354 72.9091C80.4354 73.6283 80.5414 74.2348 80.7536 74.7287C80.969 75.2225 81.2706 75.5971 81.6584 75.8523C82.0462 76.1075 82.5002 76.2351 83.0206 76.2351C83.541 76.2351 83.995 76.1075 84.3828 75.8523C84.7706 75.5971 85.0705 75.2225 85.2827 74.7287C85.4981 74.2348 85.6058 73.6283 85.6058 72.9091ZM96.1344 71.1094C96.0648 70.8674 95.967 70.6536 95.8411 70.468C95.7151 70.2791 95.561 70.12 95.3787 69.9908C95.1998 69.8582 94.9943 69.7571 94.7623 69.6875C94.5336 69.6179 94.28 69.5831 94.0016 69.5831C93.4812 69.5831 93.0239 69.7124 92.6294 69.9709C92.2383 70.2294 91.9334 70.6056 91.7147 71.0994C91.4959 71.59 91.3865 72.1899 91.3865 72.8991C91.3865 73.6084 91.4943 74.2116 91.7097 74.7088C91.9251 75.206 92.2301 75.5855 92.6245 75.8473C93.0189 76.1058 93.4846 76.2351 94.0215 76.2351C94.5087 76.2351 94.9247 76.1489 95.2694 75.9766C95.6174 75.8009 95.8825 75.554 96.0648 75.2358C96.2504 74.9176 96.3432 74.5414 96.3432 74.1072L96.7807 74.1719H94.1557V72.5511H98.4164V73.8338C98.4164 74.7287 98.2275 75.4976 97.8496 76.1406C97.4718 76.7803 96.9514 77.2741 96.2885 77.6222C95.6257 77.9669 94.8667 78.1392 94.0115 78.1392C93.057 78.1392 92.2185 77.9287 91.4959 77.5078C90.7734 77.0836 90.2099 76.482 89.8056 75.7031C89.4045 74.9209 89.204 73.9929 89.204 72.919C89.204 72.0937 89.3233 71.358 89.562 70.7116C89.8039 70.062 90.142 69.5118 90.5762 69.0611C91.0104 68.6103 91.5158 68.2673 92.0925 68.032C92.6692 67.7966 93.294 67.679 93.9668 67.679C94.5435 67.679 95.0804 67.7635 95.5776 67.9325C96.0748 68.0982 96.5156 68.3336 96.9 68.6385C97.2878 68.9434 97.6043 69.3063 97.8496 69.7273C98.0949 70.1449 98.2523 70.6056 98.3219 71.1094H96.1344ZM109.39 72.9091C109.39 74.0194 109.179 74.964 108.759 75.7429C108.341 76.5218 107.771 77.1167 107.048 77.5277C106.329 77.9354 105.52 78.1392 104.622 78.1392C103.717 78.1392 102.905 77.9337 102.186 77.5227C101.467 77.1117 100.898 76.5168 100.481 75.7379C100.063 74.959 99.8544 74.0161 99.8544 72.9091C99.8544 71.7988 100.063 70.8542 100.481 70.0753C100.898 69.2964 101.467 68.7031 102.186 68.2955C102.905 67.8845 103.717 67.679 104.622 67.679C105.52 67.679 106.329 67.8845 107.048 68.2955C107.771 68.7031 108.341 69.2964 108.759 70.0753C109.179 70.8542 109.39 71.7988 109.39 72.9091ZM107.207 72.9091C107.207 72.1899 107.1 71.5833 106.884 71.0895C106.672 70.5956 106.372 70.2211 105.984 69.9659C105.597 69.7107 105.143 69.5831 104.622 69.5831C104.102 69.5831 103.648 69.7107 103.26 69.9659C102.872 70.2211 102.571 70.5956 102.355 71.0895C102.143 71.5833 102.037 72.1899 102.037 72.9091C102.037 73.6283 102.143 74.2348 102.355 74.7287C102.571 75.2225 102.872 75.5971 103.26 75.8523C103.648 76.1075 104.102 76.2351 104.622 76.2351C105.143 76.2351 105.597 76.1075 105.984 75.8523C106.372 75.5971 106.672 75.2225 106.884 74.7287C107.1 74.2348 107.207 73.6283 107.207 72.9091Z" fill="#CCCCCC"/>
<path d="M371 68H339C337.895 68 337 68.8954 337 70V72C337 73.1046 337.895 74 339 74H371C372.105 74 373 73.1046 373 72V70C373 68.8954 372.105 68 371 68Z" fill="#CCCCCC"/>
<path d="M417 69H385C383.895 69 383 69.8954 383 71V73C383 74.1046 383.895 75 385 75H417C418.105 75 419 74.1046 419 73V71C419 69.8954 418.105 69 417 69Z" fill="#CCCCCC"/>
<path d="M463 68H431C429.895 68 429 68.8954 429 70V72C429 73.1046 429.895 74 431 74H463C464.105 74 465 73.1046 465 72V70C465 68.8954 464.105 68 463 68Z" fill="#CCCCCC"/>
<path d="M509 68H477C475.895 68 475 68.8954 475 70V72C475 73.1046 475.895 74 477 74H509C510.105 74 511 73.1046 511 72V70C511 68.8954 510.105 68 509 68Z" fill="#CCCCCC"/>
<path d="M84.7842 199.293H53.8835C49.1054 199.293 45.2188 195.401 45.2188 190.617V159.676C45.2188 154.892 49.1054 151 53.8835 151H84.7842C89.5624 151 93.449 154.892 93.449 159.676V190.617C93.449 195.401 89.5624 199.293 84.7842 199.293ZM53.8835 155.245C51.4464 155.245 49.4581 157.236 49.4581 159.676V190.617C49.4581 193.057 51.4464 195.048 53.8835 195.048H84.7842C87.2278 195.048 89.2096 193.057 89.2096 190.617V159.676C89.2096 157.229 87.2214 155.245 84.7842 155.245H53.8835Z" fill="#F3EBEB"/>
<path d="M116.876 164.485H106.325C104.933 164.485 103.805 163.355 103.805 161.961C103.805 160.568 104.933 159.438 106.325 159.438H116.876C118.267 159.438 119.396 160.568 119.396 161.961C119.396 163.355 118.267 164.485 116.876 164.485Z" fill="#F3EBEB"/>
<path d="M154.786 173.274H106.325C104.933 173.274 103.805 172.144 103.805 170.75C103.805 169.357 104.933 168.227 106.325 168.227H154.786C156.178 168.227 157.307 169.357 157.307 170.75C157.307 172.144 156.178 173.274 154.786 173.274Z" fill="#F3EBEB"/>
<path d="M175.341 164.485H126.88C125.488 164.485 124.359 163.355 124.359 161.961C124.359 160.568 125.488 159.438 126.88 159.438H175.341C176.733 159.438 177.862 160.568 177.862 161.961C177.862 163.355 176.733 164.485 175.341 164.485Z" fill="#F3EBEB"/>
<path d="M225.011 173.274H163.286C161.894 173.274 160.766 172.144 160.766 170.75C160.766 169.357 161.894 168.227 163.286 168.227H225.011C226.402 168.227 227.531 169.357 227.531 170.75C227.531 172.144 226.402 173.274 225.011 173.274Z" fill="#F3EBEB"/>
<path d="M129.575 182.063H106.325C104.933 182.063 103.805 180.933 103.805 179.539C103.805 178.146 104.933 177.016 106.325 177.016H129.575C130.966 177.016 132.095 178.146 132.095 179.539C132.095 180.933 130.966 182.063 129.575 182.063Z" fill="#F3EBEB"/>
<path d="M192.139 182.063H139.099C137.707 182.063 136.578 180.933 136.578 179.539C136.578 178.146 137.707 177.016 139.099 177.016H192.139C193.531 177.016 194.66 178.146 194.66 179.539C194.66 180.933 193.531 182.063 192.139 182.063Z" fill="#F3EBEB"/>
<path d="M150.496 190.852H106.325C104.933 190.852 103.805 189.722 103.805 188.329C103.805 186.935 104.933 185.805 106.325 185.805H150.496C151.887 185.805 153.016 186.935 153.016 188.329C153.016 189.722 151.887 190.852 150.496 190.852Z" fill="#F3EBEB"/>
<path d="M84.7842 267.082H53.8835C49.1054 267.082 45.2188 263.19 45.2188 258.406V227.465C45.2188 222.681 49.1054 218.789 53.8835 218.789H84.7842C89.5624 218.789 93.449 222.681 93.449 227.465V258.406C93.449 263.19 89.5624 267.082 84.7842 267.082ZM53.8835 223.034C51.4464 223.034 49.4581 225.025 49.4581 227.465V258.406C49.4581 260.846 51.4464 262.837 53.8835 262.837H84.7842C87.2278 262.837 89.2096 260.846 89.2096 258.406V227.465C89.2096 225.018 87.2214 223.034 84.7842 223.034H53.8835Z" fill="#F3EBEB"/>
<path d="M197.834 232.274H106.325C104.933 232.274 103.805 231.144 103.805 229.75C103.805 228.357 104.933 227.227 106.325 227.227H197.834C199.226 227.227 200.355 228.357 200.355 229.75C200.355 231.144 199.226 232.274 197.834 232.274Z" fill="#F3EBEB"/>
<path d="M154.786 241.063H106.325C104.933 241.063 103.805 239.933 103.805 238.539C103.805 237.146 104.933 236.016 106.325 236.016H154.786C156.178 236.016 157.307 237.146 157.307 238.539C157.307 239.933 156.178 241.063 154.786 241.063Z" fill="#F3EBEB"/>
<path d="M207.302 232.274H214.517C215.909 232.274 217.038 231.144 217.038 229.75C217.038 228.357 215.909 227.227 214.517 227.227H207.302C205.91 227.227 204.781 228.357 204.781 229.75C204.781 231.144 205.91 232.274 207.302 232.274Z" fill="#F3EBEB"/>
<path d="M225.011 241.063H163.286C161.894 241.063 160.766 239.933 160.766 238.539C160.766 237.146 161.894 236.016 163.286 236.016H225.011C226.402 236.016 227.531 237.146 227.531 238.539C227.531 239.933 226.402 241.063 225.011 241.063Z" fill="#F3EBEB"/>
<path d="M131.511 244.805H104.395C104.069 244.805 103.805 245.069 103.805 245.396V249.262C103.805 249.588 104.069 249.852 104.395 249.852H131.511C131.837 249.852 132.101 249.588 132.101 249.262V245.396C132.101 245.069 131.837 244.805 131.511 244.805Z" fill="#F3EBEB"/>
<path d="M194.07 244.805H137.168C136.842 244.805 136.578 245.069 136.578 245.396V249.262C136.578 249.588 136.842 249.852 137.168 249.852H194.07C194.395 249.852 194.66 249.588 194.66 249.262V245.396C194.66 245.069 194.395 244.805 194.07 244.805Z" fill="#F3EBEB"/>
<path d="M150.496 258.641H106.325C104.933 258.641 103.805 257.511 103.805 256.118C103.805 254.724 104.933 253.594 106.325 253.594H150.496C151.887 253.594 153.016 254.724 153.016 256.118C153.016 257.511 151.887 258.641 150.496 258.641Z" fill="#F3EBEB"/>
<path d="M167.18 258.641H160.247C158.855 258.641 157.727 257.511 157.727 256.118C157.727 254.724 158.855 253.594 160.247 253.594H167.18C168.572 253.594 169.701 254.724 169.701 256.118C169.701 257.511 168.572 258.641 167.18 258.641Z" fill="#F3EBEB"/>
<path d="M84.7842 334.863H53.8835C49.1054 334.863 45.2188 330.971 45.2188 326.187V295.246C45.2188 290.462 49.1054 286.57 53.8835 286.57H84.7842C89.5624 286.57 93.449 290.462 93.449 295.246V326.187C93.449 330.971 89.5624 334.863 84.7842 334.863ZM53.8835 290.815C51.4464 290.815 49.4581 292.806 49.4581 295.246V326.187C49.4581 328.627 51.4464 330.618 53.8835 330.618H84.7842C87.2278 330.618 89.2096 328.627 89.2096 326.187V295.246C89.2096 292.8 87.2214 290.815 84.7842 290.815H53.8835Z" fill="#F3EBEB"/>
<path d="M164.695 300.063H106.325C104.933 300.063 103.805 298.933 103.805 297.539C103.805 296.146 104.933 295.016 106.325 295.016H164.695C166.087 295.016 167.216 296.146 167.216 297.539C167.216 298.933 166.087 300.063 164.695 300.063Z" fill="#F3EBEB"/>
<path d="M154.786 308.852H106.325C104.933 308.852 103.805 307.722 103.805 306.328C103.805 304.935 104.933 303.805 106.325 303.805H154.786C156.178 303.805 157.307 304.935 157.307 306.328C157.307 307.722 156.178 308.852 154.786 308.852Z" fill="#F3EBEB"/>
<path d="M179.798 300.063H173.802C172.41 300.063 171.281 298.933 171.281 297.539C171.281 296.146 172.41 295.016 173.802 295.016H179.798C181.19 295.016 182.319 296.146 182.319 297.539C182.319 298.933 181.19 300.063 179.798 300.063Z" fill="#F3EBEB"/>
<path d="M225.011 308.844H163.286C161.894 308.844 160.766 307.714 160.766 306.321C160.766 304.927 161.894 303.797 163.286 303.797H225.011C226.402 303.797 227.531 304.927 227.531 306.321C227.531 307.714 226.402 308.844 225.011 308.844Z" fill="#F3EBEB"/>
<path d="M168.762 317.641H106.325C104.933 317.641 103.805 316.511 103.805 315.118C103.805 313.724 104.933 312.594 106.325 312.594H168.762C170.153 312.594 171.282 313.724 171.282 315.118C171.282 316.511 170.153 317.641 168.762 317.641Z" fill="#F3EBEB"/>
<path d="M192.143 317.641H177.161C175.769 317.641 174.641 316.511 174.641 315.118C174.641 313.724 175.769 312.594 177.161 312.594H192.143C193.535 312.594 194.664 313.724 194.664 315.118C194.664 316.511 193.535 317.641 192.143 317.641Z" fill="#F3EBEB"/>
<path d="M216.286 326.423H106.325C104.933 326.423 103.805 325.292 103.805 323.899C103.805 322.505 104.933 321.375 106.325 321.375H216.286C217.678 321.375 218.807 322.505 218.807 323.899C218.807 325.292 217.678 326.423 216.286 326.423Z" fill="#F3EBEB"/>
<path d="M366.784 392.293H335.884C331.105 392.293 327.219 388.401 327.219 383.617V352.676C327.219 347.892 331.105 344 335.884 344H366.784C371.562 344 375.449 347.892 375.449 352.676V383.617C375.449 388.401 371.562 392.293 366.784 392.293ZM335.884 348.245C333.446 348.245 331.458 350.236 331.458 352.676V383.617C331.458 386.057 333.446 388.048 335.884 388.048H366.784C369.228 388.048 371.21 386.057 371.21 383.617V352.676C371.21 350.229 369.221 348.245 366.784 348.245H335.884Z" fill="#F3EBEB"/>
<path d="M446.695 357.493H388.325C386.933 357.493 385.805 356.363 385.805 354.969C385.805 353.576 386.933 352.445 388.325 352.445H446.695C448.087 352.445 449.216 353.576 449.216 354.969C449.216 356.363 448.087 357.493 446.695 357.493Z" fill="#F3EBEB"/>
<path d="M436.786 366.282H388.325C386.933 366.282 385.805 365.152 385.805 363.758C385.805 362.365 386.933 361.234 388.325 361.234H436.786C438.178 361.234 439.307 362.365 439.307 363.758C439.307 365.152 438.178 366.282 436.786 366.282Z" fill="#F3EBEB"/>
<path d="M461.798 357.493H455.802C454.41 357.493 453.281 356.363 453.281 354.969C453.281 353.576 454.41 352.445 455.802 352.445H461.798C463.19 352.445 464.319 353.576 464.319 354.969C464.319 356.363 463.19 357.493 461.798 357.493Z" fill="#F3EBEB"/>
<path d="M507.011 366.282H445.286C443.894 366.282 442.766 365.152 442.766 363.758C442.766 362.365 443.894 361.234 445.286 361.234H507.011C508.402 361.234 509.531 362.365 509.531 363.758C509.531 365.152 508.402 366.282 507.011 366.282Z" fill="#F3EBEB"/>
<path d="M450.762 375.071H388.325C386.933 375.071 385.805 373.941 385.805 372.547C385.805 371.154 386.933 370.023 388.325 370.023H450.762C452.153 370.023 453.282 371.154 453.282 372.547C453.282 373.941 452.153 375.071 450.762 375.071Z" fill="#F3EBEB"/>
<path d="M474.143 375.071H459.161C457.769 375.071 456.641 373.941 456.641 372.547C456.641 371.154 457.769 370.023 459.161 370.023H474.143C475.535 370.023 476.664 371.154 476.664 372.547C476.664 373.941 475.535 375.071 474.143 375.071Z" fill="#F3EBEB"/>
<path d="M498.286 383.852H388.325C386.933 383.852 385.805 382.722 385.805 381.328C385.805 379.935 386.933 378.805 388.325 378.805H498.286C499.678 378.805 500.807 379.935 500.807 381.328C500.807 382.722 499.678 383.852 498.286 383.852Z" fill="#F3EBEB"/>
<path d="M504.585 151H260.853C258.293 151 256.219 153.449 256.219 156.469V239.531C256.219 242.551 258.293 245 260.853 245H504.585C507.144 245 509.219 242.551 509.219 239.531V156.469C509.219 153.449 507.144 151 504.585 151Z" fill="#F3EBEB"/>
<path d="M504.585 255H260.853C258.293 255 256.219 255.234 256.219 255.524V263.476C256.219 263.766 258.293 264 260.853 264H504.585C507.144 264 509.219 263.766 509.219 263.476V255.524C509.219 255.234 507.144 255 504.585 255Z" fill="#F3EBEB"/>
<path d="M504.585 274H260.853C258.293 274 256.219 274.234 256.219 274.524V282.476C256.219 282.766 258.293 283 260.853 283H504.585C507.144 283 509.219 282.766 509.219 282.476V274.524C509.219 274.234 507.144 274 504.585 274Z" fill="#F3EBEB"/>
<path d="M504.585 293H260.853C258.293 293 256.219 293.234 256.219 293.524V301.476C256.219 301.766 258.293 302 260.853 302H504.585C507.144 302 509.219 301.766 509.219 301.476V293.524C509.219 293.234 507.144 293 504.585 293Z" fill="#F3EBEB"/>
<path d="M504.585 312H260.853C258.293 312 256.219 312.234 256.219 312.524V320.476C256.219 320.766 258.293 321 260.853 321H504.585C507.144 321 509.219 320.766 509.219 320.476V312.524C509.219 312.234 507.144 312 504.585 312Z" fill="#F3EBEB"/>
<path d="M293.585 346H49.8525C47.2934 346 45.2188 346.234 45.2188 346.524V354.476C45.2188 354.766 47.2934 355 49.8525 355H293.585C296.144 355 298.219 354.766 298.219 354.476V346.524C298.219 346.234 296.144 346 293.585 346Z" fill="#F3EBEB"/>
<path d="M293.585 365H49.8525C47.2934 365 45.2188 365.234 45.2188 365.524V373.476C45.2188 373.766 47.2934 374 49.8525 374H293.585C296.144 374 298.219 373.766 298.219 373.476V365.524C298.219 365.234 296.144 365 293.585 365Z" fill="#F3EBEB"/>
<path d="M293.585 384H49.8525C47.2934 384 45.2188 384.234 45.2188 384.524V392.476C45.2188 392.766 47.2934 393 49.8525 393H293.585C296.144 393 298.219 392.766 298.219 392.476V384.524C298.219 384.234 296.144 384 293.585 384Z" fill="#F3EBEB"/>
<path d="M45 165.666C45 165.666 56.4917 174.135 61.0252 184.693C61.0252 184.693 71.1691 159.821 89.2192 147.844C89.2192 147.844 73.7744 148.729 61.0252 172.996C61.0252 172.996 53.8671 166.63 45 165.66V165.666Z" fill="#F3EBEB"/>
<defs>
<filter id="filter0_d_4269_350281" x="0" y="0" width="554" height="432" filterUnits="userSpaceOnUse" color-interpolation-filters="sRGB">
<feFlood flood-opacity="0" result="BackgroundImageFix"/>
<feColorMatrix in="SourceAlpha" type="matrix" values="0 0 0 0 0 0 0 0 0 0 0 0 0 0 0 0 0 0 127 0" result="hardAlpha"/>
<feOffset dy="4"/>
<feGaussianBlur stdDeviation="7.5"/>
<feComposite in2="hardAlpha" operator="out"/>
<feColorMatrix type="matrix" values="0 0 0 0 0 0 0 0 0 0 0 0 0 0 0 0 0 0 0.1 0"/>
<feBlend mode="normal" in2="BackgroundImageFix" result="effect1_dropShadow_4269_350281"/>
<feBlend mode="normal" in="SourceGraphic" in2="effect1_dropShadow_4269_350281" result="shape"/>
</filter>
</defs>
</svg>
