<svg width="64" height="64" viewBox="0 0 64 64" fill="none" xmlns="http://www.w3.org/2000/svg">
<g clip-path="url(#clip0_1944_7442)">
<path d="M32.0028 61.7124V51.3925C27.8633 52.2089 23.6515 52.6034 19.4319 52.5697C11.6153 52.5697 3.76403 51.3241 0.00390625 48.9355V59.4269C0.00390625 60.981 6.86109 63.998 19.4319 63.998C23.6964 64.0351 27.9526 63.6176 32.1287 62.7524C32.0462 62.4116 32.0037 62.0625 32.0028 61.7124ZM6.64381 57.0495C6.51344 57.5549 6.0574 57.9079 5.53545 57.9069C5.43926 57.9069 5.34307 57.8952 5.24981 57.8727C4.84944 57.7697 4.46127 57.6667 4.09556 57.5524C3.6737 57.4636 3.33826 57.1452 3.22694 56.7292C3.11561 56.3132 3.24793 55.8699 3.56921 55.5823C3.89 55.2952 4.34555 55.2132 4.7469 55.3699C5.08966 55.4612 5.44366 55.5642 5.80936 55.6555C6.42311 55.8127 6.79517 56.4348 6.64381 57.0495ZM11.0895 58.924C11.0436 58.924 10.9981 58.9122 10.9522 58.9122C10.5753 58.8668 10.1867 58.8097 9.82094 58.7638C9.4108 58.713 9.06023 58.4455 8.90398 58.0632C8.74725 57.6808 8.80877 57.2438 9.0656 56.9201C9.32194 56.5964 9.73305 56.4363 10.1408 56.5012L11.2267 56.6384C11.8575 56.676 12.3384 57.2185 12.3008 57.8498C12.2627 58.4806 11.7208 58.9616 11.0895 58.924Z" fill="#2D3250"/>
<path d="M0.00390625 4.57113C0.00390625 6.12527 6.86108 9.14274 19.4319 9.14274C32.0028 9.14274 38.86 6.12527 38.86 4.57113C38.86 3.01698 32.0028 0 19.4319 0C6.86108 0 0.00390625 3.01698 0.00390625 4.57113ZM7.1809 3.45154C11.2125 2.63614 15.3188 2.24553 19.4319 2.28556C23.5451 2.24553 27.6514 2.63614 31.683 3.45154C32.2606 3.56823 32.6546 4.10581 32.5921 4.69173C32.5301 5.27813 32.0326 5.72099 31.4427 5.71415C31.3627 5.7122 31.2821 5.70439 31.203 5.6912C27.3301 4.90119 23.3844 4.52572 19.4319 4.57113C15.4794 4.52572 11.5338 4.90119 7.66086 5.6912C7.04223 5.82401 6.43337 5.42998 6.30105 4.81135C6.16824 4.19272 6.56227 3.58386 7.1809 3.45154Z" fill="#2D3250"/>
<path d="M42.2871 46.8553C42.9184 46.8553 43.4301 46.3441 43.4301 45.7128V43.4272C43.4301 42.7959 42.9184 42.2842 42.2871 42.2842C41.6562 42.2842 41.1445 42.7959 41.1445 43.4272V45.7128C41.1445 46.3441 41.6562 46.8553 42.2871 46.8553Z" fill="#2D3250"/>
<path d="M19.4319 29.7136C29.3974 29.7136 35.7741 27.8167 37.9801 26.2621C38.1129 25.6708 38.3004 25.0932 38.5397 24.5365C38.0255 23.9423 36.7341 23.1079 34.0828 22.3193C29.29 23.4965 24.3668 24.0615 19.4319 23.9995C14.497 24.0615 9.57388 23.4965 4.78108 22.3193C1.02096 23.4394 0.00390625 24.6508 0.00390625 25.1425C0.00390625 26.6966 6.86109 29.7136 19.4319 29.7136Z" fill="#2D3250"/>
<path d="M0.00390625 17.1422C0.00390625 18.6964 6.86108 21.7134 19.4319 21.7134C32.0028 21.7134 38.86 18.6964 38.86 17.1422V7.79395C35.0998 10.182 27.249 11.4281 19.4319 11.4281C11.6153 11.4281 3.76403 10.182 0.00390625 7.79395V17.1422ZM10.1408 14.2278C10.4952 14.2849 10.8609 14.3308 11.2379 14.3762C11.8297 14.4607 12.2564 14.9861 12.2173 15.5822C12.1788 16.1784 11.6871 16.6442 11.0895 16.6506C11.0436 16.6525 10.9972 16.6486 10.9522 16.6393C10.5636 16.5934 10.1867 16.5475 9.82094 16.4904C9.20524 16.3928 8.78143 15.8195 8.86883 15.2019C8.95623 14.5847 9.52212 14.1511 10.1408 14.2278ZM3.32947 13.8738C3.41297 13.5813 3.60974 13.3353 3.87584 13.1893C4.14194 13.0428 4.4559 13.0096 4.7469 13.0965C5.08966 13.1995 5.44365 13.2908 5.80936 13.3934C6.42165 13.5457 6.79468 14.1643 6.64381 14.7766C6.51344 15.2834 6.05887 15.6399 5.53545 15.6447C5.43926 15.6443 5.34307 15.6325 5.24981 15.6106C4.84944 15.508 4.4725 15.3933 4.09556 15.2908C3.80504 15.2053 3.5614 15.0076 3.41736 14.7415C3.27381 14.4753 3.24207 14.1629 3.32947 13.8738Z" fill="#2D3250"/>
<path d="M32.0028 49.0525V43.396C27.8623 44.2065 23.651 44.6 19.4319 44.5693C14.4902 44.6337 9.56021 44.0722 4.75911 42.8975C1.01412 44.0161 0.00390625 45.2206 0.00390625 45.7123C0.00390625 47.263 6.86109 50.2834 19.4319 50.2834C23.6539 50.3196 27.8682 49.907 32.0028 49.0525Z" fill="#2D3250"/>
<path d="M36.5744 36.5702C35.3132 36.5741 34.2922 37.595 34.2883 38.8557V61.7123C34.2922 62.973 35.3132 63.994 36.5744 63.9979H61.7161C62.9768 63.994 63.9982 62.973 64.0016 61.7123V38.8557C63.9982 37.595 62.9768 36.5741 61.7161 36.5702H41.1455V28.5704C41.1455 24.1526 44.7269 20.5707 49.1452 20.5707C53.5635 20.5707 57.145 24.1526 57.145 28.5704V30.856C57.145 31.4873 57.6567 31.999 58.2875 31.999C58.9188 31.999 59.4305 31.4873 59.4305 30.856V28.5704C59.4305 22.89 54.8257 18.2852 49.1452 18.2852C43.4648 18.2852 38.86 22.89 38.86 28.5704V28.3649C38.4918 28.5973 38.1105 28.8072 37.7169 28.9933C33.637 30.9703 26.5176 31.999 19.4319 31.999C11.6153 31.999 3.76403 30.7535 0.00390625 28.3649V37.7132C0.00390625 38.2273 1.05563 39.4846 5.04377 40.6159C9.74673 41.796 14.584 42.3571 19.4319 42.2843C23.6544 42.3234 27.8686 41.9098 32.0028 41.05V38.8557C32.0028 36.3314 34.0496 34.2846 36.5744 34.2846H38.86V36.5702H36.5744ZM6.64381 35.3358C6.51344 35.8412 6.0574 36.1942 5.53545 36.1932C5.43926 36.1932 5.34307 36.1815 5.24981 36.159C4.84944 36.056 4.46127 35.953 4.09556 35.8387C3.6737 35.7499 3.33826 35.4315 3.22694 35.0155C3.11561 34.5995 3.24793 34.1562 3.56921 33.8691C3.89 33.5815 4.34555 33.4995 4.7469 33.6562C5.08966 33.7475 5.44366 33.8505 5.80937 33.9418C6.42311 34.099 6.79517 34.7211 6.64381 35.3358ZM11.0895 37.2103C11.0436 37.2103 10.9981 37.199 10.9522 37.199C10.5753 37.1531 10.1867 37.096 9.82094 37.0501C9.4108 36.9993 9.06023 36.7318 8.90398 36.3495C8.74725 35.9671 8.80877 35.5301 9.0656 35.2064C9.32194 34.8827 9.73305 34.7226 10.1408 34.7875L11.2267 34.9247C11.8575 34.9623 12.3384 35.5048 12.3008 36.1361C12.2628 36.7674 11.7208 37.2484 11.0895 37.2103ZM42.2881 60.5693H40.0025C39.3717 60.5693 38.86 60.0576 38.86 59.4268C38.86 58.7954 39.3717 58.2837 40.0025 58.2837V54.8551C39.6993 54.8542 39.4088 54.7355 39.1915 54.5241C38.7457 54.0749 38.7457 53.3503 39.1915 52.9011L40.334 51.7581C40.6626 51.4339 41.1543 51.3392 41.5796 51.5184C42.0093 51.6902 42.29 52.1072 42.2881 52.5696V58.2837C42.9194 58.2837 43.4311 58.7954 43.4311 59.4268C43.4311 60.0576 42.9194 60.5693 42.2881 60.5693ZM55.1909 41.4728L56.3335 40.3303C56.6621 40.0061 57.1537 39.9113 57.579 40.09C58.0087 40.2624 58.2894 40.6789 58.2875 41.1418V46.8554C58.9188 46.8554 59.4305 47.3671 59.4305 47.9985C59.4305 48.6298 58.9188 49.1415 58.2875 49.1415H56.0019C55.3711 49.1415 54.8594 48.6298 54.8594 47.9985C54.8594 47.3671 55.3711 46.8554 56.0019 46.8554V43.4273C55.6987 43.4259 55.4082 43.3072 55.1909 43.0958C54.7451 42.6466 54.7451 41.922 55.1909 41.4728ZM56.0019 51.427C57.8935 51.4324 59.4247 52.9641 59.4305 54.8551V57.1412C59.4305 59.0347 57.8954 60.5693 56.0019 60.5693C54.1084 60.5693 52.5738 59.0347 52.5738 57.1412V54.8551C52.5792 52.9641 54.1109 51.4324 56.0019 51.427ZM48.3337 41.4728L49.4768 40.3303C49.8054 40.0061 50.2966 39.9113 50.7223 40.09C51.1515 40.2624 51.4328 40.6789 51.4308 41.1418V46.8554C52.0621 46.8554 52.5738 47.3671 52.5738 47.9985C52.5738 48.6298 52.0621 49.1415 51.4308 49.1415H49.1452C48.5139 49.1415 48.0022 48.6298 48.0022 47.9985C48.0022 47.3671 48.5139 46.8554 49.1452 46.8554V43.4273C48.842 43.4259 48.551 43.3072 48.3337 43.0958C47.888 42.6466 47.888 41.922 48.3337 41.4728ZM47.1912 51.7581C47.5198 51.4339 48.011 51.3392 48.4368 51.5184C48.8659 51.6902 49.1472 52.1072 49.1452 52.5696V58.2837C49.7766 58.2837 50.2878 58.7954 50.2878 59.4268C50.2878 60.0576 49.7766 60.5693 49.1452 60.5693H46.8597C46.2283 60.5693 45.7166 60.0576 45.7166 59.4268C45.7166 58.7954 46.2283 58.2837 46.8597 58.2837V54.8551C46.5565 54.8542 46.2655 54.7355 46.0482 54.5241C45.6024 54.0749 45.6024 53.3503 46.0482 52.9011L47.1912 51.7581ZM45.7166 43.4273V45.7129C45.7166 47.6064 44.1815 49.1415 42.2881 49.1415C40.3946 49.1415 38.86 47.6064 38.86 45.7129V43.4273C38.86 41.5338 40.3946 39.9987 42.2881 39.9987C44.1815 39.9987 45.7166 41.5338 45.7166 43.4273Z" fill="#2D3250"/>
<path d="M56.0019 58.284C56.6332 58.284 57.1449 57.7723 57.1449 57.1415V54.8554C57.1449 54.2246 56.6332 53.7129 56.0019 53.7129C55.3711 53.7129 54.8594 54.2246 54.8594 54.8554V57.1415C54.8594 57.7723 55.3711 58.284 56.0019 58.284Z" fill="#2D3250"/>
</g>
<defs>
<clipPath id="clip0_1944_7442">
<rect width="64" height="64" fill="white"/>
</clipPath>
</defs>
</svg>
