<svg width="64" height="64" viewBox="0 0 64 64" fill="none" xmlns="http://www.w3.org/2000/svg">
<path fill-rule="evenodd" clip-rule="evenodd" d="M54.5663 64H9.43061C9.0166 64 8.68359 63.667 8.68359 63.253V14.9582H22.4538C22.8678 14.9582 23.2008 14.6162 23.2008 14.2022V0H54.5663C54.9803 0 55.3223 0.333005 55.3223 0.747012V63.253C55.3223 63.667 54.9803 64 54.5663 64ZM40.7511 16.8483C39.1401 16.8483 37.835 15.5432 37.835 13.9322C37.835 12.6092 38.7261 11.4932 39.9321 11.1422V9.68415C39.9321 8.69414 41.4351 8.69414 41.4351 9.68415V11.1062C42.7131 11.4122 43.6581 12.5642 43.6581 13.9322C43.6581 14.9222 42.1551 14.9222 42.1551 13.9322C42.1551 13.1582 41.5251 12.5282 40.7511 12.5282C39.9681 12.5282 39.3381 13.1582 39.3381 13.9322C39.3381 14.7152 39.9681 15.3452 40.7511 15.3452C42.3531 15.3452 43.6581 16.6503 43.6581 18.2523C43.6581 19.6203 42.7131 20.7723 41.4351 21.0783V22.5093C41.4351 22.9234 41.1021 23.2564 40.6881 23.2564C40.2741 23.2564 39.9321 22.9234 39.9321 22.5093V21.0513C38.7261 20.6913 37.835 19.5753 37.835 18.2523C37.835 17.2713 39.3381 17.2713 39.3381 18.2523C39.3381 19.0353 39.9681 19.6653 40.7511 19.6653C41.5251 19.6653 42.1551 19.0353 42.1551 18.2523C42.1551 17.4783 41.5251 16.8483 40.7511 16.8483ZM40.7511 26.6224C34.946 26.6224 30.2209 21.8973 30.2209 16.0923C30.2209 10.2872 34.946 5.56209 40.7511 5.56209C46.5562 5.56209 51.2813 10.2872 51.2813 16.0923C51.2813 21.8973 46.5562 26.6224 40.7511 26.6224ZM40.7511 7.06511C35.765 7.06511 31.715 11.1152 31.715 16.0923C31.715 21.0783 35.765 25.1284 40.7511 25.1284C45.7282 25.1284 49.7782 21.0783 49.7782 16.0923C49.7782 11.1152 45.7282 7.06511 40.7511 7.06511ZM24.4788 31.6715C23.1648 31.6715 22.5348 33.2645 23.4438 34.1645L28.5559 39.2766C29.1229 39.8436 30.0589 39.8436 30.6259 39.2766C31.1929 38.7006 31.1929 37.7736 30.6259 37.1976L25.5229 32.0945C25.2439 31.8155 24.8748 31.6715 24.4788 31.6715ZM36.296 30.1955C37.349 29.8985 38.5191 30.1595 39.3471 30.9785C40.1931 31.8335 40.4451 33.0575 40.0941 34.1285C40.6611 34.2185 41.2011 34.4795 41.6331 34.9205C42.3711 35.6496 42.6141 36.7026 42.3621 37.6386C44.5762 37.9806 45.4942 40.7166 43.8921 42.3187L43.1361 43.0747C43.1901 43.5247 43.3701 44.3977 43.9731 45.0907L49.6882 50.4188C49.9942 50.7068 50.0032 51.1928 49.7062 51.4988L41.1921 60.0129C40.8951 60.3099 40.4181 60.3099 40.1301 60.0129L34.577 54.4688C34.001 54.0728 32.507 53.3618 31.85 53.1458C30.4639 53.2898 29.0239 52.9838 27.4219 54.5769L23.8668 58.0329C23.5698 58.3209 23.1018 58.3209 22.8138 58.0329L14.2907 49.5098C13.9937 49.2128 14.0027 48.7358 14.2997 48.4478L17.8007 45.0367C18.0347 44.6767 18.2957 44.0737 18.5297 43.3177L17.3147 42.1117C15.4877 40.2846 16.8377 37.1166 19.4658 37.2246C19.4208 35.8926 20.3118 34.5785 21.7518 34.2905C20.9688 32.4635 22.2378 30.1685 24.4788 30.1685C24.8928 30.1685 25.2889 30.2495 25.6489 30.4025C26.1349 28.1074 28.9069 27.3874 30.4729 28.9535L30.8599 29.3405L31.58 28.6294C33.218 26.9824 35.999 27.9814 36.296 30.1955ZM19.8888 42.5617L20.8518 43.5247C21.3828 44.0557 22.2468 44.0557 22.7778 43.5247C23.3088 42.9937 23.3088 42.1297 22.7778 41.5986L20.3028 39.1236C20.0508 38.8626 19.7088 38.7276 19.3398 38.7276C18.1247 38.7276 17.5217 40.1946 18.3767 41.0496L19.8888 42.5617ZM19.7088 44.4967C19.4658 45.1357 19.1688 45.8017 18.8808 46.0717L15.8927 48.9878L23.3448 56.4489L26.3779 53.4968C29.2129 50.7158 31.634 52.3808 32.948 51.1388C34.244 49.8788 35.549 48.5108 36.836 47.2507L41.7411 42.3457C41.7861 42.2827 41.8401 42.2287 41.9031 42.1837L42.8301 41.2566C43.3251 40.7616 43.3251 39.9696 42.8301 39.4746C42.3441 38.9886 41.5521 38.9796 41.0481 39.4836L33.749 46.7737C33.605 46.9177 33.416 46.9897 33.227 46.9897C32.561 46.9897 32.219 46.1887 32.696 45.7117L40.5711 37.8276C41.3901 37.0086 40.8141 35.5956 39.6441 35.5956C39.2841 35.5956 38.9691 35.7306 38.7171 35.9826L30.5539 44.1367C30.4099 44.2897 30.2209 44.3617 30.0229 44.3617C29.3659 44.3617 29.0239 43.5517 29.4919 43.0747L38.2851 34.2905C38.9061 33.6695 38.9061 32.6615 38.2851 32.0405C37.664 31.4195 36.656 31.4195 36.035 32.0405L33.587 34.4795C33.281 35.2805 32.633 35.9466 31.742 36.1986C33.515 38.0706 32.201 41.2026 29.5909 41.2026C28.8169 41.2026 28.0969 40.9146 27.5479 40.3836C27.1969 41.5626 26.1169 42.4897 24.6768 42.4357C24.7308 43.9387 23.5788 45.4237 21.8148 45.4237C20.9598 45.4237 20.2938 45.0907 19.7088 44.4967ZM25.7659 38.6106L23.2908 36.1356C23.0388 35.8836 22.6968 35.7396 22.3278 35.7396C21.1038 35.7396 20.5188 37.2156 21.3648 38.0616L23.8398 40.5366C24.6858 41.3826 26.1619 40.7976 26.1619 39.5736C26.1619 39.2046 26.0269 38.8716 25.7659 38.6106ZM32.192 33.9575C32.219 33.7775 32.282 33.7865 32.282 33.4535C32.282 33.0845 32.147 32.7425 31.886 32.4905L29.4109 30.0155C29.1589 29.7545 28.8169 29.6195 28.4479 29.6195C27.2239 29.6195 26.6479 31.0955 27.4849 31.9415L29.9599 34.4165C30.6799 35.1365 31.859 34.8215 32.192 33.9575ZM33.578 32.3735L34.451 31.5005C35.243 30.7085 34.703 29.3135 33.542 29.3135C33.2 29.3135 32.876 29.4485 32.642 29.6825L31.922 30.4025C32.498 30.9785 33.272 31.6175 33.578 32.3735ZM37.88 48.3308L34.019 52.1828L33.83 52.3538C34.352 52.6058 35.351 53.1098 35.621 53.3888L40.6611 58.4289L48.0952 50.9858L42.8211 46.0627C42.3441 45.5047 42.0561 44.8837 41.8761 44.3257L37.898 48.3128L37.88 48.3308ZM9.1156 13.4552L21.6978 0.450007V13.4552H9.1156Z" fill="#2D3250"/>
</svg>
