<svg width="58" height="64" viewBox="0 0 58 64" fill="none" xmlns="http://www.w3.org/2000/svg">
<path d="M57.1151 48.9606V58.6765C57.1151 61.6153 54.7295 64.0003 51.7913 64.0003H37.2458C34.3075 64.0003 31.9219 61.6153 31.9219 58.6765V48.9606C31.9219 46.0217 34.3075 43.6367 37.2458 43.6367H51.7913C54.7295 43.6367 57.1151 46.0216 57.1151 48.9606Z" fill="#2D3250"/>
<path d="M50.3386 49.4546C48.7321 49.4546 47.4295 48.1521 47.4295 46.5455V40.7272C47.4295 39.1232 46.1241 37.8181 44.5203 37.8181C42.9166 37.8181 41.6112 39.1231 41.6112 40.7272V46.5455C41.6112 48.152 40.3087 49.4546 38.7021 49.4546C37.0956 49.4546 35.793 48.1521 35.793 46.5455V40.7272C35.793 35.9151 39.7077 32 44.5202 32C49.3327 32 53.2475 35.9151 53.2475 40.7272V46.5455C53.2477 48.1521 51.9452 49.4546 50.3386 49.4546Z" fill="#2D3250"/>
<path d="M24.1549 29.091C32.1881 29.091 38.7004 22.5788 38.7004 14.5455C38.7004 6.51224 32.1881 0 24.1549 0C16.1216 0 9.60938 6.51224 9.60938 14.5455C9.60938 22.5788 16.1216 29.091 24.1549 29.091Z" fill="#2D3250"/>
<path d="M31.1669 34.9092C30.4397 36.6251 30.0028 38.5172 29.9737 40.4944C27.6172 42.5598 26.1044 45.5853 26.1044 48.9603V58.1819H9.61006C4.81031 58.1819 0.882812 54.2544 0.882812 49.4547C0.882812 41.4263 7.39919 34.9092 15.4283 34.9092H31.1669Z" fill="#2D3250"/>
</svg>
