<svg width="64" height="64" viewBox="0 0 64 64" fill="none" xmlns="http://www.w3.org/2000/svg">
<g clip-path="url(#clip0_1952_7519)">
<path d="M1.14369 20.556H4.57347V31.9886C4.57347 32.2918 4.69392 32.5826 4.90832 32.797C5.12272 33.0114 5.41351 33.1318 5.71672 33.1318H14.8628C15.166 33.1318 15.4568 33.0114 15.6712 32.797C15.8856 32.5826 16.0061 32.2918 16.0061 31.9886V20.556H19.4358C19.6513 20.5561 19.8623 20.4953 20.0447 20.3806C20.2271 20.266 20.3734 20.1021 20.4667 19.908C20.56 19.7138 20.5966 19.4972 20.5722 19.2832C20.5477 19.0691 20.4634 18.8663 20.3287 18.6982L11.1826 7.26559C11.0715 7.13803 10.9343 7.03577 10.7802 6.9657C10.6262 6.89563 10.459 6.85938 10.2898 6.85938C10.1206 6.85938 9.95331 6.89563 9.79929 6.9657C9.64527 7.03577 9.50805 7.13803 9.39688 7.26559L0.250803 18.6982C0.116162 18.8663 0.0317742 19.0691 0.00736387 19.2832C-0.0170465 19.4972 0.019514 19.7138 0.112833 19.908C0.206151 20.1021 0.35243 20.266 0.534813 20.3806C0.717197 20.4953 0.928263 20.5561 1.14369 20.556Z" fill="#2D3250"/>
<path d="M44.589 20.556H48.0188V31.9886C48.0188 32.2918 48.1392 32.5826 48.3536 32.797C48.568 33.0114 48.8588 33.1318 49.162 33.1318H58.3081C58.6113 33.1318 58.9021 33.0114 59.1165 32.797C59.3309 32.5826 59.4514 32.2918 59.4514 31.9886V20.556H62.8811C63.0966 20.5561 63.3076 20.4953 63.49 20.3806C63.6724 20.266 63.8187 20.1021 63.912 19.908C64.0053 19.7138 64.0419 19.4972 64.0175 19.2832C63.9931 19.0691 63.9087 18.8663 63.774 18.6982L54.628 7.26559C54.5168 7.13803 54.3796 7.03577 54.2255 6.9657C54.0715 6.89563 53.9043 6.85938 53.7351 6.85938C53.5659 6.85938 53.3986 6.89563 53.2446 6.9657C53.0906 7.03577 52.9534 7.13803 52.8422 7.26559L43.6961 18.6982C43.5615 18.8663 43.4771 19.0691 43.4527 19.2832C43.4283 19.4972 43.4648 19.7138 43.5581 19.908C43.6515 20.1021 43.7977 20.266 43.9801 20.3806C44.1625 20.4953 44.3736 20.5561 44.589 20.556Z" fill="#2D3250"/>
<path d="M41.7279 47.4229H40.5847C39.9533 47.4229 39.4414 47.9347 39.4414 48.5661V53.1391C39.4414 53.7706 39.9533 54.2824 40.5847 54.2824H41.7279C42.3593 54.2824 42.8712 53.7706 42.8712 53.1391V48.5661C42.8712 47.9347 42.3593 47.4229 41.7279 47.4229Z" fill="#2D3250"/>
<path d="M52.5899 41.1344H50.1891C48.7972 37.4383 46.3118 34.2543 43.064 32.007C39.8163 29.7596 35.9607 28.5557 32.0113 28.5557C28.0618 28.5557 24.2062 29.7596 20.9585 32.007C17.7107 34.2543 15.2253 37.4383 13.8334 41.1344H11.4326C8.40048 41.1344 5.49255 42.3389 3.34853 44.4829C1.2045 46.6269 0 49.5349 0 52.567C0 55.5991 1.2045 58.507 3.34853 60.651C5.49255 62.7951 8.40048 63.9996 11.4326 63.9996H52.5899C55.622 63.9996 58.53 62.7951 60.674 60.651C62.818 58.507 64.0225 55.5991 64.0225 52.567C64.0225 49.5349 62.818 46.6269 60.674 44.4829C58.53 42.3389 55.622 41.1344 52.5899 41.1344ZM24.5801 49.7088C24.8833 49.7088 25.1741 49.8293 25.3885 50.0437C25.6029 50.2581 25.7233 50.5489 25.7233 50.8521V55.4251C25.7233 55.7283 25.6029 56.0191 25.3885 56.2335C25.1741 56.4479 24.8833 56.5684 24.5801 56.5684H20.007C19.7038 56.5684 19.413 56.4479 19.1986 56.2335C18.9842 56.0191 18.8638 55.7283 18.8638 55.4251C18.8638 55.1219 18.9842 54.8311 19.1986 54.6167C19.413 54.4023 19.7038 54.2819 20.007 54.2819H23.4368V51.9953H20.007C19.7038 51.9953 19.413 51.8749 19.1986 51.6605C18.9842 51.4461 18.8638 51.1553 18.8638 50.8521V46.279C18.8638 45.9758 18.9842 45.685 19.1986 45.4706C19.413 45.2562 19.7038 45.1358 20.007 45.1358H24.5801C24.8833 45.1358 25.1741 45.2562 25.3885 45.4706C25.6029 45.685 25.7233 45.9758 25.7233 46.279C25.7233 46.5823 25.6029 46.873 25.3885 47.0875C25.1741 47.3019 24.8833 47.4223 24.5801 47.4223H21.1503V49.7088H24.5801ZM32.5829 49.7088C32.8861 49.7088 33.1769 49.8293 33.3913 50.0437C33.6057 50.2581 33.7261 50.5489 33.7261 50.8521C33.7261 51.1553 33.6057 51.4461 33.3913 51.6605C33.1769 51.8749 32.8861 51.9953 32.5829 51.9953H30.2964V54.2819H33.7261C34.0294 54.2819 34.3201 54.4023 34.5345 54.6167C34.749 54.8311 34.8694 55.1219 34.8694 55.4251C34.8694 55.7283 34.749 56.0191 34.5345 56.2335C34.3201 56.4479 34.0294 56.5684 33.7261 56.5684H29.1531C28.8499 56.5684 28.5591 56.4479 28.3447 56.2335C28.1303 56.0191 28.0098 55.7283 28.0098 55.4251V46.279C28.0098 45.9758 28.1303 45.685 28.3447 45.4706C28.5591 45.2562 28.8499 45.1358 29.1531 45.1358H33.7261C34.0294 45.1358 34.3201 45.2562 34.5345 45.4706C34.749 45.685 34.8694 45.9758 34.8694 46.279C34.8694 46.5823 34.749 46.873 34.5345 47.0875C34.3201 47.3019 34.0294 47.4223 33.7261 47.4223H30.2964V49.7088H32.5829ZM45.1587 53.1386C45.1587 54.0482 44.7974 54.9206 44.1542 55.5638C43.511 56.207 42.6386 56.5684 41.729 56.5684H40.5857C39.6761 56.5684 38.8037 56.207 38.1605 55.5638C37.5173 54.9206 37.1559 54.0482 37.1559 53.1386V48.5656C37.1559 47.6559 37.5173 46.7836 38.1605 46.1403C38.8037 45.4971 39.6761 45.1358 40.5857 45.1358H41.729C42.6386 45.1358 43.511 45.4971 44.1542 46.1403C44.7974 46.7836 45.1587 47.6559 45.1587 48.5656V53.1386Z" fill="#2D3250"/>
<path d="M22.8663 13.6966H26.2961V27.0441C30.0375 26.0152 33.9873 26.0152 37.7287 27.0441V13.6966H41.1585C41.3739 13.6967 41.585 13.6359 41.7674 13.5212C41.9497 13.4066 42.096 13.2427 42.1893 13.0486C42.2827 12.8544 42.3192 12.6378 42.2948 12.4238C42.2704 12.2098 42.186 12.007 42.0514 11.8388L32.9053 0.406215C32.7941 0.278655 32.6569 0.176397 32.5029 0.106326C32.3489 0.036256 32.1816 0 32.0124 0C31.8432 0 31.676 0.036256 31.5219 0.106326C31.3679 0.176397 31.2307 0.278655 31.1195 0.406215L21.9735 11.8388C21.8388 12.007 21.7544 12.2098 21.73 12.4238C21.7056 12.6378 21.7422 12.8544 21.8355 13.0486C21.9288 13.2427 22.0751 13.4066 22.2575 13.5212C22.4399 13.6359 22.6509 13.6967 22.8663 13.6966Z" fill="#2D3250"/>
</g>
<defs>
<clipPath id="clip0_1952_7519">
<rect width="64" height="64" fill="white"/>
</clipPath>
</defs>
</svg>
