<svg width="40" height="40" viewBox="0 0 40 40" fill="none" xmlns="http://www.w3.org/2000/svg">
<g clip-path="url(#clip0_1675_117336)">
<mask id="mask0_1675_117336" style="mask-type:luminance" maskUnits="userSpaceOnUse" x="0" y="0" width="40" height="40">
<path d="M40 0H0V40H40V0Z" fill="white"/>
</mask>
<g mask="url(#mask0_1675_117336)">
<mask id="mask1_1675_117336" style="mask-type:luminance" maskUnits="userSpaceOnUse" x="0" y="0" width="40" height="40">
<path d="M40 0H0V40H40V0Z" fill="white"/>
</mask>
<g mask="url(#mask1_1675_117336)">
<path d="M37.9072 26.4313C37.8063 26.1259 37.6232 25.8542 37.378 25.646C37.1328 25.4378 36.835 25.3013 36.5172 25.2513L34.5172 24.9413L33.5672 23.0013C33.4285 22.7017 33.207 22.448 32.9288 22.2702C32.6506 22.0924 32.3273 21.998 31.9972 21.998C31.667 21.998 31.3438 22.0924 31.0656 22.2702C30.7874 22.448 30.5659 22.7017 30.4272 23.0013L29.5172 24.9413L27.5172 25.2513C27.1994 25.3013 26.9016 25.4378 26.6564 25.646C26.4112 25.8542 26.2281 26.1259 26.1272 26.4313C26.0229 26.744 26.0069 27.0793 26.081 27.4005C26.1551 27.7216 26.3164 28.016 26.5472 28.2513L27.9972 29.7813L27.6372 31.9413C27.5811 32.2707 27.62 32.6093 27.7493 32.9174C27.8786 33.2256 28.0929 33.4905 28.3672 33.6813C28.6581 33.8915 29.0083 34.0035 29.3672 34.0013C29.6538 34.0007 29.9356 33.9286 30.1872 33.7913L31.9972 32.7913L33.8072 33.7913C34.0892 33.9434 34.4081 34.0137 34.7279 33.9942C35.0477 33.9748 35.3557 33.8664 35.6172 33.6813C35.8915 33.4905 36.1058 33.2256 36.2351 32.9174C36.3644 32.6093 36.4032 32.2707 36.3472 31.9413L35.9972 29.7813L37.4972 28.2513C37.7253 28.0144 37.8841 27.7195 37.9564 27.3986C38.0287 27.0777 38.0117 26.7432 37.9072 26.4313ZM34.4872 28.4313C34.2873 28.6357 34.1387 28.8846 34.0536 29.1575C33.9684 29.4304 33.9491 29.7195 33.9972 30.0013L34.2872 31.7713L32.8172 31.0013C32.5657 30.8639 32.2838 30.7919 31.9972 30.7919C31.7106 30.7919 31.4287 30.8639 31.1772 31.0013L29.7072 31.8113L29.9972 30.0013C30.042 29.7227 30.0211 29.4374 29.936 29.1682C29.8509 28.8991 29.7041 28.6536 29.5072 28.4513L28.2372 27.1613L29.9972 26.9013C30.2806 26.8542 30.5481 26.7385 30.7765 26.5641C31.0048 26.3898 31.187 26.1623 31.3072 25.9013L31.9972 24.3713L32.7272 25.9113C32.8466 26.1728 33.0286 26.4008 33.2571 26.5752C33.4856 26.7496 33.7535 26.8651 34.0372 26.9113L35.7572 27.1713L34.4872 28.4313Z" fill="white"/>
<path d="M34.4883 28.4511C34.2914 28.6534 34.1446 28.8989 34.0595 29.168C33.9744 29.4371 33.9535 29.7224 33.9983 30.0011L34.2883 31.7711L32.8183 31.0011C32.5668 30.8637 32.2849 30.7917 31.9983 30.7917C31.7117 30.7917 31.4298 30.8637 31.1783 31.0011L29.7083 31.8111L29.9983 30.0011C30.0431 29.7224 30.0222 29.4371 29.9371 29.168C29.852 28.8989 29.7052 28.6534 29.5083 28.4511L28.2383 27.1611L29.9983 26.9011C30.2817 26.854 30.5492 26.7382 30.7776 26.5639C31.0059 26.3896 31.1881 26.162 31.3083 25.9011L31.9983 24.3711L32.7283 25.9111C32.8477 26.1725 33.0297 26.4005 33.2582 26.575C33.4867 26.7494 33.7546 26.8648 34.0383 26.9111L35.7583 27.1711L34.4883 28.4511Z" fill="white"/>
<path fill-rule="evenodd" clip-rule="evenodd" d="M37.9154 5.00065C37.9154 4.22732 37.6087 3.48565 37.0604 2.93898C36.5137 2.39065 35.7721 2.08398 34.9987 2.08398C29.3087 2.08398 10.6887 2.08398 4.9987 2.08398C4.22537 2.08398 3.4837 2.39065 2.93703 2.93898C2.3887 3.48565 2.08203 4.22732 2.08203 5.00065V10.0007C2.08203 10.774 2.3887 11.5157 2.93703 12.0623C3.4837 12.6107 4.22537 12.9173 4.9987 12.9173H34.9987C35.7721 12.9173 36.5137 12.6107 37.0604 12.0623C37.6087 11.5157 37.9154 10.774 37.9154 10.0007V5.00065ZM9.16537 5.83398C10.0854 5.83398 10.8321 6.58065 10.8321 7.50065C10.8321 8.42065 10.0854 9.16732 9.16537 9.16732C8.24537 9.16732 7.4987 8.42065 7.4987 7.50065C7.4987 6.58065 8.24537 5.83398 9.16537 5.83398ZM14.9987 5.83398C15.9187 5.83398 16.6654 6.58065 16.6654 7.50065C16.6654 8.42065 15.9187 9.16732 14.9987 9.16732C14.0787 9.16732 13.3321 8.42065 13.3321 7.50065C13.3321 6.58065 14.0787 5.83398 14.9987 5.83398ZM32.4987 6.25065H27.4987C26.8087 6.25065 26.2487 6.81065 26.2487 7.50065C26.2487 8.19065 26.8087 8.75065 27.4987 8.75065H32.4987C33.1887 8.75065 33.7487 8.19065 33.7487 7.50065C33.7487 6.81065 33.1887 6.25065 32.4987 6.25065Z" fill="#F51624"/>
<path fill-rule="evenodd" clip-rule="evenodd" d="M37.9154 17.5007C37.9154 16.7273 37.6087 15.9857 37.0604 15.439C36.5137 14.8907 35.7721 14.584 34.9987 14.584C29.3087 14.584 10.6887 14.584 4.9987 14.584C4.22537 14.584 3.4837 14.8907 2.93703 15.439C2.3887 15.9857 2.08203 16.7273 2.08203 17.5007V22.5007C2.08203 23.274 2.3887 24.0157 2.93703 24.5623C3.4837 25.1107 4.22537 25.4173 4.9987 25.4173H34.9987C35.7721 25.4173 36.5137 25.1107 37.0604 24.5623C37.6087 24.0157 37.9154 23.274 37.9154 22.5007V17.5007ZM9.16537 18.334C10.0854 18.334 10.8321 19.0807 10.8321 20.0007C10.8321 20.9207 10.0854 21.6673 9.16537 21.6673C8.24537 21.6673 7.4987 20.9207 7.4987 20.0007C7.4987 19.0807 8.24537 18.334 9.16537 18.334ZM14.9987 18.334C15.9187 18.334 16.6654 19.0807 16.6654 20.0007C16.6654 20.9207 15.9187 21.6673 14.9987 21.6673C14.0787 21.6673 13.3321 20.9207 13.3321 20.0007C13.3321 19.0807 14.0787 18.334 14.9987 18.334ZM32.4987 18.7507H27.4987C26.8087 18.7507 26.2487 19.3107 26.2487 20.0007C26.2487 20.6907 26.8087 21.2507 27.4987 21.2507H32.4987C33.1887 21.2507 33.7487 20.6907 33.7487 20.0007C33.7487 19.3107 33.1887 18.7507 32.4987 18.7507Z" fill="#F51624"/>
<path fill-rule="evenodd" clip-rule="evenodd" d="M37.9154 30.0007C37.9154 29.2273 37.6087 28.4857 37.0604 27.939C36.5137 27.3907 35.7721 27.084 34.9987 27.084C29.3087 27.084 10.6887 27.084 4.9987 27.084C4.22537 27.084 3.4837 27.3907 2.93703 27.939C2.3887 28.4857 2.08203 29.2273 2.08203 30.0007V35.0007C2.08203 35.774 2.3887 36.5157 2.93703 37.0623C3.4837 37.6107 4.22537 37.9173 4.9987 37.9173H34.9987C35.7721 37.9173 36.5137 37.6107 37.0604 37.0623C37.6087 36.5157 37.9154 35.774 37.9154 35.0007V30.0007ZM9.16537 30.834C10.0854 30.834 10.8321 31.5807 10.8321 32.5007C10.8321 33.4207 10.0854 34.1673 9.16537 34.1673C8.24537 34.1673 7.4987 33.4207 7.4987 32.5007C7.4987 31.5807 8.24537 30.834 9.16537 30.834ZM14.9987 30.834C15.9187 30.834 16.6654 31.5807 16.6654 32.5007C16.6654 33.4207 15.9187 34.1673 14.9987 34.1673C14.0787 34.1673 13.3321 33.4207 13.3321 32.5007C13.3321 31.5807 14.0787 30.834 14.9987 30.834ZM32.4987 31.2507H27.4987C26.8087 31.2507 26.2487 31.8107 26.2487 32.5007C26.2487 33.1907 26.8087 33.7507 27.4987 33.7507H32.4987C33.1887 33.7507 33.7487 33.1907 33.7487 32.5007C33.7487 31.8107 33.1887 31.2507 32.4987 31.2507Z" fill="#F51624"/>
</g>
</g>
</g>
<defs>
<clipPath id="clip0_1675_117336">
<rect width="40" height="40" fill="white"/>
</clipPath>
</defs>
</svg>
