<svg width="60" height="60" viewBox="0 0 60 60" fill="none" xmlns="http://www.w3.org/2000/svg">
<g clip-path="url(#clip0_1675_117537)">
<mask id="mask0_1675_117537" style="mask-type:luminance" maskUnits="userSpaceOnUse" x="0" y="0" width="60" height="60">
<path d="M60 0H0V60H60V0Z" fill="white"/>
</mask>
<g mask="url(#mask0_1675_117537)">
<mask id="mask1_1675_117537" style="mask-type:luminance" maskUnits="userSpaceOnUse" x="0" y="0" width="60" height="60">
<path d="M60 0H0V60H60V0Z" fill="white"/>
</mask>
<g mask="url(#mask1_1675_117537)">
<path d="M44.9988 30.0602C42.2837 30.0616 39.6213 30.8104 37.3034 32.2245L35.6952 30.6013C35.4316 30.34 35.0965 30.1626 34.7322 30.0915C34.3679 30.0205 33.9907 30.0589 33.6482 30.202C33.3058 30.3451 33.0134 30.5865 32.8079 30.8956C32.6024 31.2047 32.4932 31.5678 32.4938 31.9389V38.1764C32.4938 38.6747 32.6918 39.1526 33.0441 39.5049C33.3964 39.8572 33.8743 40.0552 34.3726 40.0552H40.58C40.9499 40.0529 41.3109 39.9415 41.6177 39.7349C41.9245 39.5283 42.1635 39.2357 42.3048 38.8938C42.446 38.552 42.4832 38.176 42.4117 37.8131C42.3401 37.4502 42.1631 37.1165 41.9026 36.8538L40.9557 35.9069C42.848 35.0761 44.9512 34.8523 46.9759 35.2662C49.0006 35.6801 50.8472 36.7115 52.2615 38.2183C53.6758 39.7251 54.5883 41.6333 54.8733 43.6801C55.1584 45.7269 54.8019 47.8118 53.8531 49.6476C52.9043 51.4835 51.4097 52.9801 49.5751 53.9315C47.7406 54.8829 45.6562 55.2422 43.609 54.96C41.5618 54.6778 39.6524 53.768 38.1436 52.3557C36.6349 50.9435 35.6009 49.0983 35.1842 47.0742C35.0193 46.4602 34.6277 45.9317 34.0882 45.5953C33.5488 45.2589 32.9018 45.1397 32.2779 45.2618C31.6541 45.3839 31.0997 45.7382 30.7269 46.2532C30.3541 46.7681 30.1906 47.4053 30.2694 48.0361C30.8385 50.8243 32.1875 53.3937 34.1595 55.4453C36.1314 57.497 38.6453 58.9467 41.4088 59.6258C44.1722 60.305 47.0717 60.1856 49.77 59.2817C52.4683 58.3778 54.8546 56.7264 56.6513 54.5196C58.448 52.3128 59.5813 49.6413 59.9194 46.8158C60.2574 43.9903 59.7865 41.1268 58.5612 38.5584C57.3359 35.99 55.4066 33.8223 52.9978 32.3072C50.5889 30.7922 47.7994 29.9921 44.9537 30.0001L44.9988 30.0602Z" fill="#F51624"/>
<path d="M0 22.5449V37.5749H27.505V31.8785C27.5014 30.6301 27.8388 29.4044 28.4809 28.3337C29.123 27.263 30.0454 26.3881 31.1484 25.8033C32.2514 25.2185 33.4932 24.9461 34.7398 25.0156C35.9863 25.085 37.1902 25.4935 38.2214 26.1972C40.3931 25.4026 42.6875 24.9956 45 24.9948V22.5449H0Z" fill="#F51624"/>
<path d="M25.4158 48.9531C25.1952 47.8097 25.2433 46.6307 25.5563 45.5092C25.8693 44.3876 26.4386 43.354 27.2194 42.4902H0V53.1164C-4.34551e-06 54.9395 0.723184 56.6881 2.01089 57.9787C3.2986 59.2692 5.04565 59.9962 6.86874 60.0002H31.8186C28.5218 57.1269 26.2702 53.242 25.4158 48.9531Z" fill="#F51624"/>
<path d="M38.1162 0H6.86874C5.04826 0.00397053 3.30347 0.728914 2.01619 2.01619C0.728914 3.30347 0.00397053 5.04826 0 6.86874V17.495H45V6.86874C44.996 5.04565 44.269 3.2986 42.9785 2.01089C41.688 0.723184 39.9393 -4.34551e-06 38.1162 0ZM8.7475 12.505C8.00433 12.505 7.27785 12.2846 6.65993 11.8718C6.04201 11.4589 5.5604 10.872 5.276 10.1854C4.99161 9.49884 4.9172 8.74333 5.06218 8.01444C5.20716 7.28555 5.56503 6.61603 6.09053 6.09053C6.61603 5.56503 7.28555 5.20716 8.01444 5.06218C8.74333 4.9172 9.49884 4.99161 10.1854 5.276C10.872 5.5604 11.4589 6.04201 11.8718 6.65993C12.2846 7.27785 12.505 8.00433 12.505 8.7475C12.507 9.2415 12.4112 9.731 12.223 10.1878C12.0349 10.6446 11.7582 11.0596 11.4089 11.4089C11.0596 11.7582 10.6446 12.0349 10.1878 12.223C9.731 12.4112 9.2415 12.507 8.7475 12.505ZM21.2525 12.505C20.5087 12.508 19.7808 12.2901 19.1609 11.8791C18.541 11.468 18.057 10.8822 17.7703 10.1959C17.4836 9.50955 17.4071 8.75357 17.5503 8.0237C17.6936 7.29382 18.0503 6.62289 18.5752 6.09589C19.1001 5.56889 19.7696 5.20952 20.4989 5.06332C21.2282 4.91711 21.9844 4.99064 22.6719 5.27459C23.3594 5.55854 23.9471 6.04014 24.3607 6.65838C24.7742 7.27662 24.995 8.00369 24.995 8.7475C24.995 9.74145 24.6012 10.6949 23.8998 11.3992C23.1983 12.1034 22.2465 12.501 21.2525 12.505ZM33.7425 12.505C33.0027 12.4902 32.2837 12.2573 31.6758 11.8355C31.0678 11.4138 30.5979 10.8219 30.325 10.1341C30.0521 9.44636 29.9884 8.69332 30.1417 7.96946C30.2951 7.24559 30.6587 6.58311 31.1871 6.06511C31.7155 5.5471 32.385 5.19662 33.1118 5.05763C33.8385 4.91863 34.5902 4.9973 35.2724 5.28377C35.9546 5.57024 36.5371 6.05177 36.9467 6.66795C37.3564 7.28414 37.575 8.00756 37.5752 8.7475C37.5773 9.24791 37.4791 9.74368 37.2863 10.2055C37.0935 10.6673 36.81 11.0857 36.4527 11.436C36.0954 11.7864 35.6714 12.0615 35.2059 12.2451C34.7404 12.4287 34.2428 12.5171 33.7425 12.505Z" fill="#F51624"/>
</g>
</g>
</g>
<defs>
<clipPath id="clip0_1675_117537">
<rect width="60" height="60" fill="white"/>
</clipPath>
</defs>
</svg>
