<svg width="54" height="54" viewBox="0 0 54 54" fill="none" xmlns="http://www.w3.org/2000/svg">
<mask id="mask0_1675_117582" style="mask-type:luminance" maskUnits="userSpaceOnUse" x="6" y="9" width="43" height="37">
<path d="M48.69 9H6V45.64H48.69V9Z" fill="white"/>
</mask>
<g mask="url(#mask0_1675_117582)">
<path d="M40.1087 22.5087C39.966 20.9248 39.3248 19.4268 38.2773 18.2301C37.2298 17.0335 35.8298 16.1997 34.2787 15.8487C34.1226 13.9931 33.2809 12.262 31.9177 10.9934C30.5545 9.7247 28.7675 9.00935 26.9054 8.98687C25.0433 8.96439 23.2396 9.6364 21.8462 10.8718C20.4527 12.1072 19.5695 13.8174 19.3687 15.6687C17.495 15.6692 15.6896 16.3718 14.3086 17.6381C12.9275 18.9043 12.0713 20.6422 11.9087 22.5087C10.1089 22.9106 8.52052 23.9623 7.44795 25.4624C6.37538 26.9626 5.89393 28.8057 6.09581 30.6387C6.29769 32.4717 7.16872 34.1659 8.54206 35.3966C9.9154 36.6274 11.6945 37.3082 13.5387 37.3087H15.9987V35.6487H13.4887C11.9438 35.7442 10.4242 35.2221 9.26429 34.1972C8.10438 33.1723 7.39909 31.7286 7.30362 30.1837C7.20814 28.6389 7.73028 27.1193 8.75517 25.9594C9.78006 24.7995 11.2238 24.0942 12.7687 23.9987C12.9734 23.9609 13.158 23.8518 13.2899 23.6906C13.4217 23.5295 13.4921 23.3269 13.4887 23.1187C13.4913 21.5733 14.1064 20.092 15.1992 18.9992C16.2919 17.9065 17.7733 17.2914 19.3187 17.2887H20.1487C20.3648 17.2917 20.5737 17.2112 20.732 17.0641C20.8903 16.917 20.9858 16.7145 20.9987 16.4987C20.9661 15.7135 21.0927 14.9298 21.3708 14.1947C21.6488 13.4596 22.0726 12.7883 22.6167 12.2212C23.1609 11.654 23.814 11.2028 24.537 10.8945C25.2599 10.5862 26.0377 10.4273 26.8237 10.4273C27.6096 10.4273 28.3874 10.5862 29.1104 10.8945C29.8333 11.2028 30.4865 11.654 31.0306 12.2212C31.5747 12.7883 31.9985 13.4596 32.2766 14.1947C32.5546 14.9298 32.6812 15.7135 32.6487 16.4987V16.5987C32.6496 16.8009 32.7243 16.9957 32.8587 17.1467C32.9931 17.2976 33.178 17.3944 33.3787 17.4187C34.7815 17.5958 36.0721 18.2765 37.0103 19.3343C37.9486 20.3921 38.4704 21.7548 38.4787 23.1687V23.2587C38.4774 23.4615 38.5514 23.6575 38.6862 23.8089C38.821 23.9604 39.0071 24.0565 39.2087 24.0787C40.6735 24.2717 42.0104 25.0136 42.9492 26.1544C43.888 27.2953 44.3586 28.7501 44.2659 30.2247C44.1732 31.6992 43.5241 33.0836 42.4498 34.0979C41.3755 35.1122 39.9561 35.6808 38.4787 35.6887H37.6487V37.3487H38.4787C40.3237 37.3507 42.1044 36.6716 43.4797 35.4416C44.8549 34.2117 45.7277 32.5174 45.9309 30.6837C46.1341 28.8499 45.6534 27.0057 44.5808 25.5045C43.5082 24.0033 41.9193 22.9508 40.1187 22.5487L40.1087 22.5087Z" fill="#F51624"/>
<path d="M22.6484 16.4979H24.3184C24.3171 16.1701 24.3805 15.8452 24.5051 15.542C24.6296 15.2387 24.8128 14.9631 25.0442 14.7308C25.2755 14.4985 25.5505 14.3142 25.8532 14.1884C26.156 14.0627 26.4806 13.9979 26.8084 13.9979V12.3379C25.7051 12.3379 24.647 12.7762 23.8669 13.5564C23.0867 14.3365 22.6484 15.3946 22.6484 16.4979Z" fill="#F51624"/>
<path d="M36.0003 28.1502H33.9003C33.8103 27.9102 33.7103 27.6602 33.6003 27.4302L35.0903 25.9402C35.2448 25.7847 35.3316 25.5744 35.3316 25.3552C35.3316 25.136 35.2448 24.9257 35.0903 24.7702L32.7003 22.4102C32.6232 22.3322 32.5313 22.2702 32.43 22.228C32.3287 22.1857 32.2201 22.1639 32.1103 22.1639C32.0006 22.1639 31.892 22.1857 31.7907 22.228C31.6894 22.2702 31.5975 22.3322 31.5203 22.4102L30.0003 23.9002C29.7634 23.7824 29.5196 23.6789 29.2703 23.5902V21.4902C29.2703 21.3812 29.2489 21.2732 29.2072 21.1725C29.1655 21.0718 29.1043 20.9803 29.0272 20.9033C28.9502 20.8262 28.8587 20.765 28.758 20.7233C28.6573 20.6816 28.5493 20.6602 28.4403 20.6602H25.1503C25.0413 20.6602 24.9334 20.6816 24.8327 20.7233C24.732 20.765 24.6405 20.8262 24.5634 20.9033C24.4864 20.9803 24.4252 21.0718 24.3835 21.1725C24.3418 21.2732 24.3203 21.3812 24.3203 21.4902V23.5902C24.0703 23.6802 23.8303 23.7802 23.5903 23.8902L22.1003 22.4102C22.024 22.3325 21.933 22.2707 21.8325 22.2286C21.7321 22.1865 21.6243 22.1648 21.5153 22.1648C21.4064 22.1648 21.2986 22.1865 21.1982 22.2286C21.0977 22.2707 21.0067 22.3325 20.9303 22.4102L18.5703 24.7702C18.4158 24.9257 18.3291 25.136 18.3291 25.3552C18.3291 25.5744 18.4158 25.7847 18.5703 25.9402L20.0603 27.4302C19.9426 27.6637 19.8391 27.9041 19.7503 28.1502H17.6603C17.4384 28.1528 17.2262 28.2421 17.0692 28.3991C16.9123 28.556 16.8229 28.7682 16.8203 28.9902V32.3202C16.823 32.5412 16.9126 32.7523 17.0699 32.9077C17.2271 33.063 17.4393 33.1502 17.6603 33.1502H19.7503C19.8391 33.3994 19.9426 33.6432 20.0603 33.8802L18.5703 35.3602C18.4176 35.5186 18.3322 35.7301 18.3322 35.9502C18.3322 36.1702 18.4176 36.3817 18.5703 36.5402L20.9303 38.8902C21.0067 38.9679 21.0977 39.0296 21.1982 39.0717C21.2986 39.1138 21.4064 39.1355 21.5153 39.1355C21.6243 39.1355 21.7321 39.1138 21.8325 39.0717C21.933 39.0296 22.024 38.9679 22.1003 38.8902L23.5903 37.4102C23.8303 37.5202 24.0703 37.6202 24.3203 37.7102V39.8102C24.3203 40.0303 24.4078 40.2414 24.5634 40.3971C24.7191 40.5527 24.9302 40.6402 25.1503 40.6402H28.4803C28.7005 40.6402 28.9116 40.5527 29.0672 40.3971C29.2229 40.2414 29.3103 40.0303 29.3103 39.8102V37.7102C29.5603 37.6202 29.8003 37.5202 30.0403 37.4102L31.5203 38.8902C31.5975 38.9682 31.6894 39.0301 31.7907 39.0724C31.892 39.1146 32.0006 39.1364 32.1103 39.1364C32.2201 39.1364 32.3287 39.1146 32.43 39.0724C32.5313 39.0301 32.6232 38.9682 32.7003 38.8902L35.0603 36.5402C35.2131 36.3817 35.2985 36.1702 35.2985 35.9502C35.2985 35.7301 35.2131 35.5186 35.0603 35.3602L33.5703 33.8802C33.6803 33.6402 33.7803 33.4002 33.8703 33.1502H36.0003C36.2205 33.1502 36.4316 33.0627 36.5872 32.9071C36.7429 32.7514 36.8303 32.5403 36.8303 32.3202V29.0002C36.8317 28.8898 36.8112 28.7804 36.7702 28.6779C36.7292 28.5755 36.6685 28.4822 36.5914 28.4032C36.5143 28.3243 36.4225 28.2613 36.321 28.2179C36.2196 28.1745 36.1107 28.1515 36.0003 28.1502Z" fill="#F51624"/>
<path d="M26.8105 27.3184C26.1519 27.3184 25.508 27.5137 24.9604 27.8796C24.4128 28.2455 23.986 28.7656 23.734 29.3741C23.4819 29.9826 23.416 30.6521 23.5445 31.2981C23.673 31.944 23.9901 32.5374 24.4558 33.0031C24.9215 33.4688 25.5149 33.786 26.1608 33.9145C26.8068 34.0429 27.4763 33.977 28.0848 33.725C28.6933 33.4729 29.2134 33.0461 29.5793 32.4985C29.9452 31.9509 30.1405 31.307 30.1405 30.6484C30.1405 30.2111 30.0543 29.7781 29.887 29.3741C29.7197 28.9701 29.4744 28.603 29.1651 28.2938C28.8559 27.9846 28.4888 27.7393 28.0848 27.5719C27.6808 27.4046 27.2478 27.3184 26.8105 27.3184ZM26.8105 32.3184C26.4802 32.3184 26.1573 32.2205 25.8827 32.037C25.6081 31.8535 25.394 31.5927 25.2676 31.2875C25.1412 30.9824 25.1081 30.6466 25.1726 30.3226C25.237 29.9987 25.3961 29.7011 25.6296 29.4676C25.8632 29.234 26.1607 29.075 26.4847 29.0105C26.8086 28.9461 27.1444 28.9792 27.4496 29.1056C27.7547 29.232 28.0155 29.446 28.199 29.7206C28.3825 29.9953 28.4805 30.3181 28.4805 30.6484C28.4818 30.8681 28.4395 31.0859 28.3561 31.2891C28.2726 31.4923 28.1496 31.6769 27.9943 31.8323C27.839 31.9876 27.6543 32.1106 27.4511 32.194C27.2479 32.2775 27.0302 32.3198 26.8105 32.3184Z" fill="white"/>
<path d="M25.9982 39.8086V43.9986H9.32812V45.6686H26.0482C26.4805 45.6555 26.8905 45.4732 27.1897 45.1609C27.489 44.8485 27.6536 44.4311 27.6482 43.9986V39.8086H25.9982Z" fill="#F51624"/>
<path d="M42.6286 43.9688H29.3086V45.6388H42.6286V43.9688Z" fill="#F51624"/>
<path d="M7.67 43.9688H6V45.6388H7.67V43.9688Z" fill="#F51624"/>
<path d="M48.6902 43.8594H46.9102V45.6394H48.6902V43.8594Z" fill="#F51624"/>
</g>
</svg>
