<svg width="40" height="40" viewBox="0 0 40 40" fill="none" xmlns="http://www.w3.org/2000/svg">
<path d="M19.75 2C9.96 2 2 9.96 2 19.75C2 29.54 9.96 37.5 19.75 37.5C29.54 37.5 37.5 29.54 37.5 19.75C37.5 9.96 29.53 2 19.75 2ZM10.16 31.94C12.89 29.8 16.24 28.62 19.75 28.62C23.26 28.62 26.6 29.8 29.33 31.94C26.69 34.03 23.36 35.28 19.75 35.28C16.14 35.28 12.8 34.03 10.16 31.94ZM30.98 30.44C27.82 27.84 23.87 26.41 19.75 26.41C15.63 26.41 11.68 27.84 8.51 30.44C5.85 27.65 4.21 23.89 4.21 19.75C4.21 11.19 11.18 4.22 19.75 4.22C28.32 4.22 35.28 11.19 35.28 19.75C35.28 23.89 33.64 27.65 30.98 30.44Z" fill="#A3121B"/>
<path d="M24.962 13.1593C23.822 13.4793 18.062 15.1493 16.632 16.5793C15.792 17.4193 15.332 18.5293 15.332 19.7193C15.332 20.9093 15.792 22.0193 16.632 22.8593C17.472 23.6993 18.582 24.1593 19.772 24.1593C20.962 24.1593 22.072 23.6993 22.902 22.8593C24.342 21.4193 26.002 15.6693 26.332 14.5293C26.432 14.1393 26.332 13.7293 26.042 13.4393C25.762 13.1593 25.352 13.0493 24.962 13.1593Z" fill="#F51624"/>
<path d="M18.6602 7.52016C18.6602 6.90016 19.1502 6.41016 19.7702 6.41016C20.3902 6.41016 20.8702 6.90016 20.8702 7.52016C20.8702 8.14016 20.3802 8.63016 19.7702 8.63016C19.1602 8.63016 18.6602 8.13016 18.6602 7.52016Z" fill="#F51624"/>
<path d="M11.9199 10.3107C12.3499 10.7407 12.3499 11.4407 11.9199 11.8807C11.4899 12.3107 10.7899 12.3107 10.3499 11.8807C9.91983 11.4407 9.91983 10.7407 10.3499 10.3107C10.7799 9.88062 11.4899 9.87062 11.9199 10.3107Z" fill="#F51624"/>
<path d="M7.55922 20.8313C8.17226 20.8313 8.66922 20.3343 8.66922 19.7213C8.66922 19.1082 8.17226 18.6113 7.55922 18.6113C6.94619 18.6113 6.44922 19.1082 6.44922 19.7213C6.44922 20.3343 6.94619 20.8313 7.55922 20.8313Z" fill="#F51624"/>
<path d="M31.9694 20.8313C32.5824 20.8313 33.0794 20.3343 33.0794 19.7213C33.0794 19.1082 32.5824 18.6113 31.9694 18.6113C31.3564 18.6113 30.8594 19.1082 30.8594 19.7213C30.8594 20.3343 31.3564 20.8313 31.9694 20.8313Z" fill="#F51624"/>
<path d="M29.1816 10.3105C29.6116 10.7405 29.6116 11.4405 29.1816 11.8805C28.7516 12.3105 28.0416 12.3105 27.6116 11.8805C27.1816 11.4405 27.1816 10.7405 27.6116 10.3105C28.0416 9.87046 28.7516 9.87046 29.1816 10.3105Z" fill="#F51624"/>
</svg>
