<svg width="70" height="70" viewBox="0 0 70 70" fill="none" xmlns="http://www.w3.org/2000/svg">
<g clip-path="url(#clip0_1675_117620)">
<mask id="mask0_1675_117620" style="mask-type:luminance" maskUnits="userSpaceOnUse" x="0" y="0" width="70" height="70">
<path d="M70 0H0V70H70V0Z" fill="white"/>
</mask>
<g mask="url(#mask0_1675_117620)">
<path fill-rule="evenodd" clip-rule="evenodd" d="M8.91515 52.5608H3.50753C2.83213 52.5608 2.18439 52.3115 1.70682 51.8678C1.22924 51.4241 0.960938 50.8222 0.960938 50.1947V27.4736C0.960938 26.846 1.22924 26.2442 1.70682 25.8005C2.18439 25.3567 2.83213 25.1074 3.50753 25.1074H47.2505C47.9259 25.1074 48.5736 25.3567 49.0512 25.8005C49.5288 26.2442 49.7971 26.846 49.7971 27.4736V50.1971C49.7971 50.8246 49.5288 51.4265 49.0512 51.8702C48.5736 52.314 47.9259 52.5632 47.2505 52.5632H20.1137C16.4185 60.9063 4.36766 61.6838 4.36766 61.6838C7.71461 58.7104 8.73066 55.2566 8.91515 52.5608Z" fill="#F51624"/>
<path fill-rule="evenodd" clip-rule="evenodd" d="M47.273 24.2234C48.7256 24.2354 50.1185 25.1602 50.5758 26.47C50.6862 26.7863 50.7434 27.1183 50.746 27.4515C50.772 35.0328 50.746 42.6142 50.746 50.1967C50.7407 50.7201 50.6018 51.2349 50.3407 51.6987C50.0796 52.1625 49.7037 52.5621 49.244 52.8647C48.6584 53.2404 47.9639 53.4425 47.2522 53.4441H20.7325L20.6975 53.5129C19.5151 55.8272 17.535 57.7938 15.1781 59.2146C12.1845 61.0207 8.65309 62.0758 5.1827 62.491C4.93714 62.52 4.69287 62.5466 4.44731 62.5635C4.44731 62.5635 4.32647 62.5707 4.24332 62.5599C3.61057 62.4826 3.187 61.722 3.58458 61.1836C3.72101 61.0001 3.9159 60.8637 4.08611 60.7007C6.14006 58.7313 7.46296 56.2036 7.86183 53.4864L7.86832 53.4441H3.50662C2.06832 53.4393 0.692374 52.5472 0.21034 51.2711C0.0823673 50.9319 0.0152106 50.5755 0.0115492 50.216C-0.0144365 42.6347 0.0115492 35.0521 0.0115492 27.4708C0.0167463 26.1368 0.976918 24.8547 2.35026 24.4069C2.71406 24.2885 3.09865 24.227 3.48584 24.2234C18.082 24.1859 32.6782 24.1859 47.273 24.2234ZM3.50922 25.9895C2.68418 25.9907 1.9202 26.6475 1.9111 27.4623C1.88642 35.0437 1.88642 42.625 1.9111 50.2052C1.9202 50.9754 2.6387 51.6756 3.50922 51.678H8.91555C9.08575 51.6949 9.13383 51.6864 9.29234 51.7504C9.58858 51.8687 9.81205 52.1367 9.85623 52.4385C9.88611 52.6317 9.84973 52.8272 9.83024 53.0228C9.57298 55.6908 8.54915 58.2791 6.83539 60.4231L6.8237 60.4376C9.00909 60.003 11.1282 59.3366 13.1291 58.3008C15.6822 56.9813 17.9235 55.0051 19.1214 52.4723C19.1604 52.3902 19.1994 52.3069 19.2345 52.2236L19.3228 52.0715C19.3969 51.9784 19.4854 51.8958 19.5853 51.8265C19.7457 51.7373 19.9274 51.6863 20.1141 51.678C29.1623 51.678 38.2118 51.7021 47.2613 51.678C48.0864 51.6707 48.8387 51.0104 48.8465 50.2052C48.8724 42.6238 48.8724 35.0425 48.8465 27.4623C48.8376 27.146 48.723 26.8401 48.5186 26.587C48.3141 26.334 48.0301 26.1462 47.7057 26.0499C47.5576 26.0096 47.404 25.9893 47.2496 25.9895H3.50922Z" fill="#F51624"/>
<path fill-rule="evenodd" clip-rule="evenodd" d="M12.5508 36.6145C12.8712 36.6047 13.1905 36.655 13.4896 36.7622C13.7887 36.8694 14.0615 37.0315 14.2918 37.2386C14.5222 37.4458 14.7053 37.6939 14.8303 37.9682C14.9554 38.2425 15.0198 38.5373 15.0197 38.8352C15.0196 39.133 14.955 39.4279 14.8298 39.7021C14.7046 39.9763 14.5213 40.2243 14.2909 40.4314C14.0604 40.6384 13.7875 40.8003 13.4884 40.9074C13.1892 41.0145 12.8699 41.0645 12.5495 41.0546C11.9295 41.0355 11.3417 40.7931 10.9104 40.3787C10.4792 39.9643 10.2381 39.4104 10.2383 38.834C10.2385 38.2575 10.4798 37.7037 10.9113 37.2896C11.3429 36.8754 11.9308 36.6333 12.5508 36.6145Z" fill="white"/>
<path fill-rule="evenodd" clip-rule="evenodd" d="M12.5735 35.7324C13.1861 35.7438 13.7843 35.9082 14.305 36.2083C14.8258 36.5084 15.25 36.9333 15.5332 37.4382C15.9919 38.2833 16.0036 39.3263 15.5605 40.1786C14.933 41.3882 13.405 42.1464 11.9212 41.8808C11.2838 41.7576 10.6975 41.4677 10.2313 41.0453C9.76518 40.6229 9.43864 40.0855 9.29013 39.4965C8.97051 38.1348 9.74618 36.6076 11.178 36.0077C11.6168 35.8248 12.0925 35.731 12.5735 35.7324ZM12.5423 37.4974C12.2209 37.5061 11.9113 37.6118 11.6603 37.7984C11.4093 37.9851 11.2304 38.2425 11.1507 38.532C10.939 39.3794 11.7926 40.3367 12.8333 40.1448C13.4115 40.0386 13.8935 39.5677 13.9767 39.0221C14.0884 38.2808 13.4258 37.5046 12.5605 37.4974H12.5423Z" fill="#F51624"/>
<path fill-rule="evenodd" clip-rule="evenodd" d="M25.3801 36.6152C25.9969 36.6384 26.5802 36.8823 27.0078 37.296C27.4354 37.7097 27.6742 38.2611 27.6742 38.8347C27.6742 39.4083 27.4354 39.9597 27.0078 40.3734C26.5802 40.7871 25.9969 41.031 25.3801 41.0542C24.7632 41.031 24.1799 40.7871 23.7523 40.3734C23.3247 39.9597 23.0859 39.4083 23.0859 38.8347C23.0859 38.2611 23.3247 37.7097 23.7523 37.296C24.1799 36.8823 24.7632 36.6384 25.3801 36.6152Z" fill="white"/>
<path fill-rule="evenodd" clip-rule="evenodd" d="M25.4025 35.7324C26.0154 35.7437 26.6137 35.908 27.1347 36.2082C27.6557 36.5083 28.0801 36.9333 28.3636 37.4383C28.8222 38.2834 28.8313 39.3263 28.3895 40.1786C27.762 41.3882 26.234 42.1464 24.7502 41.8808C24.1092 41.7569 23.5199 41.4647 23.0525 41.0386C22.5851 40.6124 22.2594 40.0704 22.114 39.4772C21.8048 38.1167 22.5856 36.604 24.0071 36.0065C24.4459 35.824 24.9217 35.7306 25.4025 35.7324ZM25.3713 37.4974C24.7308 37.5034 24.124 37.9477 23.9798 38.532C23.768 39.3794 24.6216 40.3368 25.6623 40.1448C26.2405 40.0386 26.7239 39.5678 26.8057 39.0221C26.9175 38.2809 26.2548 37.5046 25.3895 37.4974H25.3713Z" fill="#F51624"/>
<path fill-rule="evenodd" clip-rule="evenodd" d="M38.2084 36.6145C38.5288 36.6048 38.848 36.6551 39.1471 36.7624C39.4461 36.8697 39.7189 37.0318 39.9492 37.2391C40.1795 37.4463 40.3625 37.6944 40.4875 37.9688C40.6124 38.2431 40.6767 38.5379 40.6766 38.8358C40.6764 39.1337 40.6117 39.4284 40.4864 39.7026C40.3612 39.9768 40.1778 40.2248 39.9473 40.4318C39.7168 40.6388 39.4438 40.8006 39.1446 40.9076C38.8455 41.0146 38.5262 41.0646 38.2058 41.0546C37.5857 41.0355 36.998 40.7931 36.5667 40.3787C36.1354 39.9643 35.8944 39.4104 35.8945 38.834C35.8947 38.2575 36.1361 37.7037 36.5676 37.2895C36.9991 36.8754 37.5883 36.6333 38.2084 36.6145Z" fill="white"/>
<path fill-rule="evenodd" clip-rule="evenodd" d="M38.2287 35.7326C39.1194 35.7423 39.97 36.0781 40.596 36.667C41.36 37.3949 41.7004 38.4838 41.4743 39.4774C41.1625 40.85 39.7566 41.9365 38.2066 41.9365C37.4114 41.9338 36.6428 41.67 36.0368 41.1916C35.6282 40.8605 35.3108 40.4434 35.111 39.9751C34.9112 39.5067 34.8348 39.0008 34.8882 38.4995C34.9567 37.9644 35.1713 37.4543 35.5118 37.018C35.8522 36.5817 36.3071 36.2335 36.8332 36.0066C37.2721 35.8241 37.7479 35.7307 38.2287 35.7326ZM38.1975 37.4975C37.5037 37.5036 36.8579 38.0323 36.7787 38.6806C36.6799 39.475 37.4712 40.2862 38.4184 40.157C39.0238 40.075 39.541 39.5945 39.6306 39.0307C39.7475 38.2931 39.1018 37.5156 38.2352 37.4975H38.1975ZM66.2984 8.03169C67.8329 8.04376 69.2803 8.99747 69.7857 10.3556C69.9169 10.7093 69.9845 11.0835 69.9884 11.4602C70.0144 18.9208 69.9884 26.3814 69.9884 33.8421C69.9822 34.3988 69.834 34.9462 69.556 35.4393C69.278 35.9325 68.878 36.3574 68.389 36.679C67.7671 37.077 67.0301 37.2908 66.275 37.2923H62.1537C62.6305 40.1377 63.9012 42.9807 66.2672 44.8145L66.405 44.9461C66.4985 45.0813 66.5349 45.1127 66.5791 45.272C66.6303 45.4809 66.6008 45.6998 66.4958 45.8905C66.3908 46.0812 66.217 46.2315 66.0048 46.3151C65.8255 46.3803 65.7839 46.3827 65.5617 46.3718C63.7557 46.2777 61.9705 45.9131 60.2477 45.4072C57.4854 44.5984 54.8868 43.3308 52.7417 41.4983L52.6105 41.3594C52.578 41.3063 52.539 41.2556 52.513 41.1989C52.4262 40.998 52.4192 40.7749 52.4932 40.5696C52.5673 40.3644 52.7175 40.1903 52.9171 40.0786C53.0629 40.004 53.2269 39.9657 53.3933 39.9674C53.5598 39.9691 53.7229 40.0107 53.8669 40.0882C53.9708 40.145 54.0566 40.2234 54.141 40.2947C56.4992 42.2673 59.524 43.5252 62.6344 44.1807C62.7968 44.2145 62.9593 44.2459 63.1217 44.2773L63.1412 44.2809C61.4742 42.1803 60.5075 39.5607 60.1879 36.9615C60.1678 36.8017 60.1518 36.6415 60.1398 36.4811V36.4581L60.1476 36.2794C60.1892 36.1261 60.1879 36.0815 60.2801 35.945C60.3484 35.8431 60.4382 35.7551 60.544 35.6862C60.6499 35.6173 60.7696 35.5691 60.896 35.5442C60.9584 35.5322 61.0233 35.5322 61.0883 35.5273C62.8202 35.5273 64.5535 35.5322 66.2854 35.5273C67.2222 35.5189 68.0784 34.7668 68.0875 33.8529C68.1135 26.3923 68.1135 18.9317 68.0875 11.4711C68.0797 10.6055 67.282 9.8051 66.2854 9.79665C51.8422 9.75459 37.3988 9.75459 22.9556 9.79665C22.0396 9.8051 21.1925 10.5198 21.1548 11.4167V21.555C21.147 21.6153 21.147 21.6781 21.1327 21.7385C21.0781 21.9488 20.9447 22.1341 20.7564 22.2613C20.568 22.3885 20.3371 22.4493 20.105 22.4326C19.9063 22.4105 19.7198 22.332 19.571 22.2078C19.4222 22.0835 19.3183 21.9196 19.2734 21.7385C19.2604 21.6781 19.2604 21.6153 19.2539 21.555V11.4807C19.2601 10.9135 19.4138 10.356 19.702 9.85589C19.9903 9.35579 20.4045 8.9279 20.9092 8.60874C21.5133 8.23792 22.2199 8.0375 22.9439 8.03169C37.3958 7.98944 51.8465 7.98944 66.2984 8.03169Z" fill="#F51624"/>
</g>
</g>
<defs>
<clipPath id="clip0_1675_117620">
<rect width="70" height="70" fill="white"/>
</clipPath>
</defs>
</svg>
