<svg width="68" height="68" viewBox="0 0 68 68" fill="none" xmlns="http://www.w3.org/2000/svg">
<path d="M62.9783 12.4483C54.6122 6.03064 44.9578 2 34.5 2C24.04 2 14.3859 6.03213 6.02174 12.4483C5.40224 12.9033 5 13.637 5 14.4646V22.3218C5 42.007 16.506 59.4978 33.6311 65.8453C34.1858 66.0508 34.8095 66.0525 35.3687 65.8453C52.494 59.4978 63.9999 42.007 63.9999 22.3218V14.4646C63.9999 13.637 63.5978 12.9033 62.9783 12.4483ZM59 22.3218C59 38.5884 50.2939 53.1484 37 59.7043V45.3779C38.6094 45.5736 40.1986 45.9814 41.8094 46.6108C42.2937 46.8 42.7978 46.8911 43.2964 46.8911C44.5651 46.8911 45.7994 46.3021 46.5864 45.2425C47.0005 44.6852 47.4028 44.1094 47.7819 43.5313C49.4114 41.0481 50.747 38.3558 51.752 35.5298C52.2146 34.2289 51.5351 32.7991 50.234 32.3369C48.9328 31.8743 47.5035 32.5538 47.0408 33.8547C46.1695 36.3053 45.0124 38.6383 43.6014 40.7885C43.3992 41.0967 43.1893 41.4042 42.974 41.708C38.3635 40.0467 34.4853 40.2607 34.2568 40.2419C31.4922 40.2419 28.7263 40.7349 26.0255 41.708C25.8103 41.4044 25.6006 41.0967 25.3983 40.7885C23.9874 38.6383 22.8303 36.3055 21.9589 33.8547C21.4964 32.5538 20.0666 31.8743 18.7657 32.3369C17.4649 32.7994 16.7852 34.2289 17.2477 35.5298C18.2526 38.3558 19.5884 41.0481 21.2178 43.5313C21.597 44.1094 21.9992 44.6852 22.4131 45.2425C23.5095 46.7187 25.4741 47.2813 27.1903 46.6108C28.8012 45.9814 30.3903 45.5736 31.9997 45.3779V59.7043C18.706 53.1484 9.99998 38.5884 9.99998 22.3218V15.7131C17.863 9.93037 26.0998 7 34.5 7C42.9002 7 51.137 9.93024 59 15.7131V22.3218ZM31.6693 26.4593C30.9832 27.6574 29.4553 28.0723 28.2574 27.386C24.9862 25.5123 21.2664 24.5218 17.5 24.5218C16.1192 24.5218 15 23.4027 15 22.0219C15 20.6411 16.1192 19.5219 17.5 19.5219C22.1369 19.5219 26.7161 20.741 30.7426 23.0475C31.9406 23.7338 32.3556 25.2614 31.6693 26.4593ZM37.3307 26.4593C36.6444 25.2614 37.0593 23.7338 38.2574 23.0475C42.2839 20.741 46.8633 19.5219 51.5001 19.5219C52.8808 19.5219 54.0001 20.6411 54.0001 22.0219C54.0001 23.4027 52.8808 24.5218 51.5001 24.5218C47.7337 24.5218 44.0138 25.5123 40.7428 27.386C39.5447 28.0723 38.017 27.6576 37.3307 26.4593Z" fill="#17494D"/>
</svg>
