<svg width="15" height="15" viewBox="0 0 15 15" fill="none" xmlns="http://www.w3.org/2000/svg">
<mask id="mask0_1675_117715" style="mask-type:luminance" maskUnits="userSpaceOnUse" x="0" y="0" width="15" height="15">
<path d="M14.582 0.130859H0.582031V14.1309H14.582V0.130859Z" fill="white"/>
</mask>
<g mask="url(#mask0_1675_117715)">
<path d="M7.58203 0.568359C6.28409 0.568359 5.0153 0.953243 3.9361 1.67434C2.85691 2.39543 2.01577 3.42036 1.51907 4.6195C1.02237 5.81864 0.892418 7.13814 1.14563 8.41114C1.39885 9.68414 2.02386 10.8534 2.94165 11.7712C3.85943 12.689 5.02875 13.314 6.30175 13.5672C7.57475 13.8204 8.89425 13.6905 10.0934 13.1938C11.2925 12.6971 12.3175 11.856 13.0386 10.7768C13.7596 9.69759 14.1445 8.4288 14.1445 7.13086C14.1445 5.39037 13.4531 3.72118 12.2224 2.49047C10.9917 1.25976 9.32252 0.568359 7.58203 0.568359ZM7.58203 12.8183C6.45715 12.8183 5.35753 12.4848 4.42223 11.8598C3.48692 11.2349 2.75794 10.3466 2.32747 9.30737C1.897 8.26811 1.78436 7.12455 2.00382 6.02128C2.22327 4.91801 2.76495 3.9046 3.56036 3.10919C4.35578 2.31378 5.36919 1.77209 6.47246 1.55264C7.57572 1.33319 8.71929 1.44582 9.75855 1.87629C10.7978 2.30677 11.6861 3.03575 12.311 3.97105C12.936 4.90636 13.2695 6.00598 13.2695 7.13086C13.2695 8.63928 12.6703 10.0859 11.6037 11.1525C10.5371 12.2191 9.09045 12.8183 7.58203 12.8183Z" fill="#F51624"/>
<path d="M12.0346 5.30715C11.7984 4.71905 11.4474 4.18397 11.0019 3.73323C10.5564 3.2825 10.0255 2.92516 9.44021 2.68215C9.38657 2.65492 9.32789 2.63905 9.26784 2.63552C9.20778 2.632 9.14765 2.64089 9.09119 2.66165C9.03473 2.68241 8.98316 2.7146 8.9397 2.75619C8.89624 2.79778 8.86182 2.84789 8.8386 2.90338C8.81537 2.95887 8.80385 3.01856 8.80473 3.07871C8.80562 3.13886 8.8189 3.19818 8.84374 3.25296C8.86858 3.30775 8.90446 3.35682 8.94913 3.39712C8.99379 3.43741 9.04629 3.46806 9.10333 3.48715C9.5809 3.68574 10.0143 3.97708 10.3785 4.34431C10.7428 4.71153 11.0305 5.14735 11.2252 5.62653C11.2689 5.73371 11.3533 5.81922 11.4599 5.86432C11.5665 5.90942 11.6866 5.91044 11.7939 5.86715C11.899 5.82343 11.9829 5.7405 12.0278 5.63595C12.0727 5.5314 12.0752 5.41346 12.0346 5.30715Z" fill="#F51624"/>
<path d="M7.58203 4.94336C7.14939 4.94336 6.72645 5.07165 6.36672 5.31202C6.00699 5.55238 5.72661 5.89402 5.56105 6.29374C5.39548 6.69345 5.35216 7.13328 5.43656 7.55762C5.52097 7.98195 5.72931 8.37173 6.03524 8.67765C6.34116 8.98358 6.73094 9.19192 7.15527 9.27632C7.57961 9.36073 8.01944 9.31741 8.41915 9.15184C8.81887 8.98628 9.16051 8.7059 9.40087 8.34617C9.64124 7.98643 9.76953 7.5635 9.76953 7.13086C9.76953 6.5507 9.53906 5.9943 9.12883 5.58406C8.71859 5.17383 8.16219 4.94336 7.58203 4.94336ZM7.58203 8.44336C7.32244 8.44336 7.06869 8.36638 6.85285 8.22216C6.63701 8.07794 6.46878 7.87296 6.36944 7.63313C6.2701 7.3933 6.24411 7.1294 6.29475 6.8748C6.34539 6.6202 6.4704 6.38634 6.65395 6.20278C6.83751 6.01922 7.07138 5.89422 7.32598 5.84358C7.58058 5.79293 7.84448 5.81892 8.0843 5.91826C8.32413 6.0176 8.52912 6.18583 8.67334 6.40167C8.81756 6.61751 8.89453 6.87127 8.89453 7.13086C8.89453 7.47895 8.75625 7.81279 8.51011 8.05893C8.26397 8.30508 7.93013 8.44336 7.58203 8.44336Z" fill="#F51624"/>
</g>
</svg>
