<svg width="52" height="52" viewBox="0 0 52 52" fill="none" xmlns="http://www.w3.org/2000/svg">
<mask id="mask0_1675_117773" style="mask-type:luminance" maskUnits="userSpaceOnUse" x="5" y="7" width="42" height="38">
<path d="M47 7H5V45H47V7Z" fill="white"/>
</mask>
<g mask="url(#mask0_1675_117773)">
<path d="M24.7705 7C20.0481 7.28094 15.5559 9.23241 12.0273 12.5358L17.5159 18.2919C19.573 16.4948 22.1038 15.3982 24.7705 15.1486V7Z" fill="#17494D"/>
<path d="M15.7768 20.1255L10.2882 14.3594C7.13152 18.0564 5.26681 22.7688 5 27.7235H12.77C13.0097 24.9284 14.0589 22.2771 15.7768 20.1255Z" fill="#17494D"/>
<path d="M39.2296 27.7235H46.9996C46.7328 22.7688 44.868 18.0564 41.7114 14.3594L36.2227 20.1255C37.937 22.2795 38.9857 24.9295 39.2296 27.7235Z" fill="#17494D"/>
<path d="M39.2318 30.3047C39.0887 32.0486 38.6286 33.7476 37.8764 35.31C38.5064 36.3111 39.0218 37.172 39.3655 37.7426C39.8224 38.4836 40.0217 39.3673 39.9295 40.2445C39.8373 41.1217 39.4594 41.9387 38.8596 42.5576C38.5643 42.865 38.2224 43.1187 37.8477 43.3084L39.1268 44.6498C39.3616 44.8911 39.6764 45.0274 40.005 45.0302C40.3312 45.0291 40.6436 44.8923 40.8737 44.6498C44.5377 40.8275 46.721 35.7167 47.0018 30.3047H39.2318Z" fill="#17494D"/>
<path d="M12.77 30.3047H5C5.28776 35.7061 7.47055 40.805 11.1282 44.6198C11.3583 44.8622 11.6707 44.9991 11.9968 45.0002C12.3255 44.9974 12.6403 44.861 12.875 44.6198L16.6073 40.7057C16.8375 40.462 16.9667 40.1328 16.9667 39.7897C16.9667 39.4466 16.8375 39.1175 16.6073 38.8738C14.4168 36.5746 13.0655 33.5419 12.7891 30.3047H12.77Z" fill="#17494D"/>
<path d="M39.9737 12.5358C36.4451 9.23241 31.953 7.28094 27.2305 7V15.1486C29.8948 15.3965 32.423 16.4933 34.4755 18.2919L39.9737 12.5358Z" fill="#17494D"/>
<path d="M28.7308 26.1688C28.0055 25.4095 27.0223 24.9835 25.9975 24.9844C24.9726 24.9853 23.9901 25.4132 23.2661 26.1738C22.542 26.9345 22.1358 27.9656 22.1367 29.0404C22.1371 29.5726 22.2375 30.0994 22.4321 30.5909C22.6267 31.0824 22.9117 31.5289 23.2708 31.9049C25.1799 33.907 34.5345 40.1636 35.594 40.9143C35.8303 41.0713 36.1105 41.1391 36.3885 41.1068C36.6665 41.0745 36.9257 40.9439 37.1235 40.7365C37.3213 40.529 37.4458 40.2572 37.4766 39.9657C37.5075 39.6741 37.4427 39.3803 37.2931 39.1325C36.6154 38.0313 30.6399 28.1609 28.7308 26.1688Z" fill="#17494D"/>
</g>
</svg>
