<svg width="52" height="52" viewBox="0 0 52 52" fill="none" xmlns="http://www.w3.org/2000/svg">
<path d="M25.87 15.67C24.3012 15.668 22.767 16.1314 21.4616 17.0016C20.1562 17.8717 19.1382 19.1095 18.5365 20.5584C17.9348 22.0072 17.7763 23.602 18.0812 25.1409C18.386 26.6799 19.1405 28.0938 20.2491 29.2038C21.3577 30.3138 22.7707 31.0701 24.3093 31.3769C25.8478 31.6837 27.4428 31.5272 28.8924 30.9273C30.342 30.3274 31.5811 29.311 32.4529 28.0067C33.3247 26.7024 33.79 25.1688 33.79 23.6C33.7874 21.4994 32.9524 19.4854 31.468 17.9991C29.9835 16.5128 27.9706 15.6753 25.87 15.67ZM24.68 27.59L21.56 24.48L23.23 22.81L24.68 24.26L28.51 20.43L30.17 22.1L24.68 27.59ZM25.87 15.67C24.3012 15.668 22.767 16.1314 21.4616 17.0016C20.1562 17.8717 19.1382 19.1095 18.5365 20.5584C17.9348 22.0072 17.7763 23.602 18.0812 25.1409C18.386 26.6799 19.1405 28.0938 20.2491 29.2038C21.3577 30.3138 22.7707 31.0701 24.3093 31.3769C25.8478 31.6837 27.4428 31.5272 28.8924 30.9273C30.342 30.3274 31.5811 29.311 32.4529 28.0067C33.3247 26.7024 33.79 25.1688 33.79 23.6C33.7874 21.4994 32.9524 19.4854 31.468 17.9991C29.9835 16.5128 27.9706 15.6753 25.87 15.67ZM24.68 27.59L21.56 24.48L23.23 22.81L24.68 24.26L28.51 20.43L30.17 22.1L24.68 27.59ZM41.56 10.59C40.126 10.5874 38.7515 10.0165 37.7375 9.00253C36.7235 7.98853 36.1526 6.61401 36.15 5.18V4H15.59V5.18C15.5874 6.61401 15.0165 7.98853 14.0025 9.00253C12.9885 10.0165 11.614 10.5874 10.18 10.59H9V38.07L25.87 47.18L42.74 38.07V10.59H41.56ZM25.87 33.87C23.8364 33.87 21.8485 33.2668 20.1577 32.1368C18.4669 31.0068 17.1493 29.4007 16.3716 27.5217C15.5938 25.6427 15.3908 23.5752 15.7883 21.5808C16.1857 19.5864 17.1658 17.7547 18.6045 16.3174C20.0432 14.8801 21.8758 13.9018 23.8706 13.5063C25.8654 13.1108 27.9327 13.3158 29.8109 14.0954C31.6892 14.875 33.294 16.1942 34.4224 17.886C35.5507 19.5779 36.152 21.5664 36.15 23.6C36.1447 26.3239 35.0596 28.9345 33.1326 30.8597C31.2056 32.7848 28.5939 33.8674 25.87 33.87ZM25.87 15.67C24.3012 15.668 22.767 16.1314 21.4616 17.0016C20.1562 17.8717 19.1382 19.1095 18.5365 20.5584C17.9348 22.0072 17.7763 23.602 18.0812 25.1409C18.386 26.6799 19.1405 28.0938 20.2491 29.2038C21.3577 30.3138 22.7707 31.0701 24.3093 31.3769C25.8478 31.6837 27.4428 31.5272 28.8924 30.9273C30.342 30.3274 31.5811 29.311 32.4529 28.0067C33.3247 26.7024 33.79 25.1688 33.79 23.6C33.7874 21.4994 32.9524 19.4854 31.468 17.9991C29.9835 16.5128 27.9706 15.6753 25.87 15.67ZM24.68 27.59L21.56 24.48L23.23 22.81L24.68 24.26L28.51 20.43L30.17 22.1L24.68 27.59Z" fill="#17494D"/>
</svg>
