<svg width="334" height="334" viewBox="0 0 334 334" fill="none" xmlns="http://www.w3.org/2000/svg">
<path d="M117.154 252.89L117.154 252.89L117.164 252.887C141.996 246.115 169.109 247.612 195.498 257.414C228.463 269.68 261.409 265.814 297.29 245.965L297.296 245.962L318.067 234.278L305.074 254.416L305.06 254.439L305.047 254.462C302.069 259.673 298.344 264.152 294.551 268.703C294.362 268.886 294.203 268.985 293.996 269.113C293.905 269.169 293.805 269.231 293.689 269.308C293.517 269.423 293.273 269.601 293.081 269.875C292.961 270.046 292.877 270.231 292.827 270.428L290.9 272.355L289.555 273.027C245.086 291.859 208.18 283.565 190.127 276.796C167.921 268.373 145.7 267.603 125.01 272.965C108.95 276.791 93.663 284.429 79.9106 295.869C78.2843 296.715 76.7282 298.271 75.9951 299.005L75.9941 299.006L72.0481 302.294L68.115 299.672L67.5603 300.504L68.115 299.672C67.4499 299.228 66.8654 298.858 66.3373 298.523C64.9701 297.656 63.9815 297.029 62.9536 296.001C62.7515 295.799 62.6498 295.635 62.5148 295.417C62.4586 295.326 62.3967 295.226 62.3194 295.11C62.2049 294.938 62.0267 294.693 61.7525 294.501C61.5709 294.374 61.3732 294.288 61.1629 294.239L55.3535 289.075L57.6128 286.815L68.1863 277.752C83.2898 266.429 99.8643 257.4 117.154 252.89Z" stroke="#FCEAD7" stroke-width="2"/>
<path d="M91.5988 173.529L91.5906 173.531C61.0805 181.716 39.2699 201.473 23.4541 215.799C22.9983 216.212 22.5474 216.62 22.1015 217.023L21.9621 217.149L21.878 217.318C21.5822 217.909 21.1324 218.37 20.5472 218.955L20.509 218.994C19.9807 219.522 19.339 220.163 18.8879 221.023L12.4497 229.392L8.55511 219.007C8.16651 217.09 7.59409 215.182 7.03719 213.325L7.03029 213.302C6.45848 211.396 5.90361 209.544 5.53488 207.7L5.53022 207.677L5.52444 207.654L4.90265 205.167L6.77965 203.29L6.07313 202.584L6.77969 203.29C6.9818 203.088 7.1462 202.986 7.36426 202.851C7.45503 202.795 7.5551 202.733 7.67105 202.656C7.84278 202.541 8.08753 202.363 8.27947 202.089C8.40318 201.912 8.48862 201.72 8.53823 201.516L17.977 191.448V191.962L19.6553 190.413C39.2973 172.282 60.4155 159.469 84.5258 152.688C109.357 145.916 136.469 147.415 162.856 157.216L162.866 157.22C222.664 178.685 274.687 143.374 308.143 109.159C308.643 108.658 309.121 108.266 309.608 107.865C309.824 107.687 310.042 107.508 310.265 107.317C310.92 106.756 311.575 106.122 312.043 105.259L318.408 98.8937L321.672 108.033L321.678 108.051L321.685 108.068C323.212 111.886 324.7 115.611 325.439 118.566L325.455 118.632L325.48 118.695L326.754 121.879L324.184 124.449L324.891 125.156L324.184 124.449L323.425 125.208L312.057 136.576C242.573 199.25 180.757 186.368 156.725 177.356C134.516 168.933 112.292 168.164 91.5988 173.529Z" stroke="#FCEAD7" stroke-width="2"/>
<path d="M1.1059 177.182L1.75585 160.934C2.13725 158.622 2.32799 156.131 2.51554 153.6L2.53503 153.336C2.71894 150.851 2.90628 148.319 3.26736 145.792L3.27741 145.721V145.65V143.787L4.50256 142.562L8.26091 138.803L24.1205 125.965C39.2284 116.149 54.3033 108.62 70.1055 104.104C94.9348 97.3339 122.045 98.8321 148.43 108.632C205.172 130.1 254.92 98.6137 286.867 68.1877L286.876 68.1793L286.884 68.1707L289.921 65.1344L294.419 60.636L298.282 65.7864L299.082 65.1864L298.282 65.7864C299.119 66.9022 299.844 68.0085 300.564 69.105C300.804 69.4713 301.043 69.8366 301.286 70.2008C302.223 71.6056 303.196 72.9766 304.377 74.1722L306.85 77.8827L303.771 80.3465L303.728 80.3811L303.688 80.4203L293.848 90.2602C268.059 112.25 209.274 152.845 141.541 128.013C119.333 119.591 97.1091 118.822 76.4173 124.187L76.4053 124.19L76.3935 124.193C54.9997 130.306 35.1348 141.761 17.5708 160.062C16.3716 160.879 15.3863 161.872 14.5336 162.82C14.1861 163.206 13.8723 163.57 13.5761 163.913C13.0928 164.473 12.6563 164.979 12.1975 165.438L12.1874 165.448L12.1776 165.459L1.1059 177.182Z" stroke="#FCEAD7" stroke-width="2"/>
<path d="M211.439 306.755L211.455 306.761L211.471 306.767C212.578 307.136 213.502 307.505 214.452 307.885L214.46 307.888C215.138 308.16 215.831 308.437 216.599 308.715L215.393 312.334L216.341 312.65L217.29 312.966L218.496 309.349C219.41 309.633 220.396 309.914 221.366 310.191L221.38 310.195C222.714 310.577 224.02 310.95 225.134 311.321L225.174 311.335L225.216 311.345L243.971 315.872L225.873 322.335L225.816 322.356L225.762 322.383C221.995 324.266 217.153 325.621 212.491 326.925C211.651 327.161 210.816 327.394 209.994 327.629L209.973 327.635L209.952 327.642L208.023 328.285L204.567 326.903L204.54 326.892L204.512 326.883C203.405 326.514 202.481 326.145 201.531 325.765L201.523 325.761C200.578 325.383 199.606 324.994 198.439 324.606L198.429 324.602C176.991 317.712 157.065 317.709 138.672 322.307L138.565 322.334L138.467 322.383C136.891 323.171 135.596 323.795 134.359 323.795C133.013 323.795 131.721 324.242 130.559 324.726C130.13 324.905 129.727 325.084 129.338 325.257C128.609 325.582 127.927 325.885 127.211 326.124L125.25 326.778L123.289 326.124L123.289 326.124L109.633 321.572L96.6895 317.041L99.1142 315.829L117.306 307.491C122.546 305.246 127.794 303.746 133.11 302.227C157.94 295.456 185.052 296.954 211.439 306.755Z" stroke="#FCEAD7" stroke-width="2"/>
<path d="M323.321 163.058L332.89 153.489L332.243 168.38L332.242 168.402V168.423C332.242 170.655 332.055 173.082 331.865 175.558L331.863 175.58C331.675 178.031 331.482 180.53 331.482 182.846V184.709L329.498 186.693C328.796 187.396 328.091 187.926 327.328 188.498L327.31 188.512C326.569 189.068 325.772 189.665 324.972 190.46C299.254 212.389 264.531 231.983 229.897 235.747L229.891 235.748C210.311 238.007 190.733 235.749 171.902 228.971C149.695 220.55 127.472 219.782 106.781 225.146L106.775 225.148C83.8063 231.273 63.9134 243.523 45.5838 263.376L42.5617 266.398L42.5177 266.442L42.4794 266.491L38.0175 272.228L34.2671 266.602C32.7256 263.528 31.1783 261.211 28.9036 258.177L26.2883 254.254L28.8448 251.058L38.6683 240.479C57.5237 222.384 78.6276 210.329 101.99 203.545C126.819 196.775 153.928 198.274 180.313 208.073C237.057 229.542 287.564 197.293 318.749 167.63L318.758 167.621L318.767 167.612L323.321 163.058Z" stroke="#FCEAD7" stroke-width="2"/>
<path d="M59.7186 74.8473L59.6857 74.8558L59.6534 74.8666C58.7799 75.1577 57.8712 75.4509 56.94 75.7514C53.3883 76.8974 49.5082 78.1494 45.9995 79.7984L44.164 76.1272L43.2695 76.5744L42.3751 77.0216L44.147 80.5657C43.9654 80.6331 43.7816 80.7021 43.5956 80.7719C41.5546 81.5383 39.2431 82.4062 36.4377 82.4062H36.1949L35.9791 82.5175L15.8262 92.9191L28.1606 74.0928C28.1614 74.0916 28.1621 74.0905 28.1629 74.0894C29.649 71.8607 31.3247 69.8114 33.0367 67.719L33.0512 67.7013C34.7278 65.6521 36.4389 63.5607 37.9691 61.2776C38.1427 61.1158 38.2944 61.0219 38.4886 60.9017C38.5793 60.8455 38.6794 60.7836 38.7954 60.7063C38.9671 60.5918 39.2118 60.4135 39.4038 60.1393C39.5234 59.9684 39.6072 59.7833 39.6574 59.5869L41.5847 57.6598L42.8598 57.0222C45.8781 56.2632 48.1572 55.5038 50.4056 54.7543C77.4804 46.4846 104.576 48.7287 131.736 58.5349C170.07 73.0986 210.632 64.6235 251.034 34.1566C251.896 33.7054 252.539 33.0624 253.068 32.5333L253.106 32.4951C253.691 31.9098 254.152 31.46 254.744 31.1642L254.839 31.1169L254.921 31.0507L258.146 28.4711L262.092 31.1019L262.144 31.1364L262.2 31.1642C265.13 32.6295 268.08 34.8402 270.29 37.0495L270.334 37.0936L270.383 37.1318L276.214 41.6672L273.408 43.9116L262.036 53.0096C232.58 74.9087 200.908 86.2016 169.279 86.2016C153.441 86.2016 139.139 83.9405 124.842 78.674C102.634 70.2513 80.4106 69.4827 59.7186 74.8473Z" stroke="#FCEAD7" stroke-width="2"/>
<path d="M108.107 28.5608L108.107 28.5608L108.067 28.5474C106.957 28.1775 105.763 27.7793 104.649 27.5768C103.668 27.3985 102.612 27.3433 101.656 27.6906L86.435 23.2512L101.358 16.763L101.383 16.7524L101.406 16.7404C105.888 14.4997 110.376 13.0019 114.939 11.4809L116.9 10.8272L118.861 11.4809L118.861 11.4809L125.693 13.7583L125.718 13.7667L125.743 13.7737C147.977 19.907 170.959 18.3668 193.899 9.95812C195.1 9.55608 196.287 8.96258 197.398 8.40692L197.431 8.39035C198.584 7.81422 199.657 7.27934 200.716 6.92634L202.84 6.21875H204.883C210.065 6.96663 214.52 8.44908 219.061 9.96289L232.669 14.4987L211.383 24.7986C192.502 32.3474 173.663 36.8596 154.096 36.8596C135.25 36.8596 120.189 33.0899 110.427 29.3353L110.406 29.3272L110.384 29.32L108.107 28.5608Z" stroke="#FCEAD7" stroke-width="2"/>
</svg>
