<svg width="132" height="132" viewBox="0 0 132 132" fill="none" xmlns="http://www.w3.org/2000/svg">
<path d="M38.543 24.8164H93.191V36.6964H38.543V24.8164ZM64.679 44.8804H67.319V73.1284H64.679V44.8804Z" fill="#17494D"/>
<path d="M101.639 95.8319H98.9994V82.3679C98.9994 78.4079 95.5674 74.9759 91.6074 74.9759H40.3914C36.4314 74.9759 32.9994 78.4079 32.9994 82.3679V95.8319H30.3594V82.3679C30.3594 76.8239 34.8474 72.3359 40.3914 72.3359H91.3434C96.8874 72.3359 101.375 76.8239 101.375 82.3679V95.8319H101.639Z" fill="#17494D"/>
<path d="M66.0014 81.0477C70.0839 81.0477 73.3934 77.7382 73.3934 73.6557C73.3934 69.5732 70.0839 66.2637 66.0014 66.2637C61.9189 66.2637 58.6094 69.5732 58.6094 73.6557C58.6094 77.7382 61.9189 81.0477 66.0014 81.0477Z" fill="white"/>
<path d="M17.6875 120.912H40.6555V124.872H17.6875V120.912Z" fill="#17494D"/>
<path d="M42.7686 124.608H15.5766C14.2566 124.608 13.2006 125.664 13.2006 126.984C13.2006 128.304 14.2566 129.36 15.5766 129.36H42.7686C44.0886 129.36 45.1446 128.304 45.1446 126.984C45.1446 125.664 44.0886 124.608 42.7686 124.608ZM50.6886 85.0078H7.65662C5.01662 85.0078 2.64062 87.1198 2.64062 90.0238V116.424C2.64062 119.328 5.01662 121.44 7.65662 121.44H50.6886C53.5926 121.44 55.7046 119.064 55.7046 116.424V90.0238C55.7046 87.1198 53.3286 85.0078 50.6886 85.0078Z" fill="#A3121B"/>
<path d="M7.65562 115.103C6.33562 115.103 5.01562 114.047 5.01562 112.463V89.7591C5.01562 88.4391 6.07162 87.1191 7.65562 87.1191H50.6876C52.0076 87.1191 53.3276 88.1751 53.3276 89.7591V112.463C53.3276 113.783 52.2716 115.103 50.6876 115.103H7.65562Z" fill="#F9F9F8"/>
<path d="M53.3276 91.3431V89.7591C53.3276 88.4391 52.2716 87.1191 50.6876 87.1191H7.65562C6.33562 87.1191 5.01562 88.1751 5.01562 89.7591V91.3431H53.3276Z" fill="white"/>
<path d="M7.65625 93.4551H22.4402V112.727H7.65625V93.4551Z" fill="#F51624"/>
<path d="M25.082 93.4551H50.426V100.847H25.082V93.4551Z" fill="#F51624"/>
<path d="M25.082 102.961H50.426V105.073H25.082V102.961ZM25.082 106.921H50.426V109.033H25.082V106.921ZM25.082 110.617H50.426V112.729H25.082V110.617Z" fill="white"/>
<path d="M91.3438 120.912H114.312V124.872H91.3438V120.912Z" fill="#17494D"/>
<path d="M116.425 124.608H89.2329C87.9129 124.608 86.8569 125.664 86.8569 126.984C86.8569 128.304 87.9129 129.36 89.2329 129.36H116.425C117.745 129.36 118.801 128.304 118.801 126.984C118.801 125.664 117.745 124.608 116.425 124.608ZM124.345 85.0078H81.3129C78.4089 85.0078 76.2969 87.3838 76.2969 90.0238V116.424C76.2969 119.328 78.6729 121.44 81.3129 121.44H124.345C127.249 121.44 129.361 119.064 129.361 116.424V90.0238C129.361 87.1198 126.985 85.0078 124.345 85.0078Z" fill="#A3121B"/>
<path d="M81.3119 115.103C79.9919 115.103 78.6719 114.047 78.6719 112.463V89.7591C78.6719 88.4391 79.7279 87.1191 81.3119 87.1191H124.344C125.664 87.1191 126.984 88.1751 126.984 89.7591V112.463C126.984 113.783 125.928 115.103 124.344 115.103H81.3119Z" fill="#F9F9F8"/>
<path d="M126.984 91.3431V89.7591C126.984 88.4391 125.928 87.1191 124.344 87.1191H81.3119C79.9919 87.1191 78.6719 88.1751 78.6719 89.7591V91.3431H126.984Z" fill="white"/>
<path d="M81.3125 93.4551H96.0965V112.727H81.3125V93.4551Z" fill="white"/>
<path d="M99 93.4551H124.344V100.847H99V93.4551Z" fill="#6BB25F"/>
<path d="M99 102.961H124.344V105.073H99V102.961ZM99 106.921H124.344V109.033H99V106.921ZM99 110.617H124.344V112.729H99V110.617Z" fill="white"/>
<path d="M96.6231 2.64062H35.3751C31.9431 2.64062 29.0391 5.54465 29.0391 8.97663V20.0646C29.0391 23.4966 31.9431 26.4006 35.3751 26.4006H96.3591C99.7911 26.4006 102.695 23.4966 102.695 20.0646V8.97663C102.695 5.54465 100.055 2.64062 96.6231 2.64062Z" fill="#A3121B"/>
<path d="M40.656 19.0072C43.1346 19.0072 45.144 16.998 45.144 14.5194C45.144 12.0407 43.1346 10.0312 40.656 10.0312C38.1773 10.0312 36.168 12.0407 36.168 14.5194C36.168 16.998 38.1773 19.0072 40.656 19.0072Z" fill="white"/>
<path d="M52.2732 19.0072C54.7519 19.0072 56.7612 16.998 56.7612 14.5194C56.7612 12.0407 54.7519 10.0312 52.2732 10.0312C49.7946 10.0312 47.7852 12.0407 47.7852 14.5194C47.7852 16.998 49.7946 19.0072 52.2732 19.0072Z" fill="#6BB25F"/>
<path d="M63.8864 19.0072C66.3651 19.0072 68.3744 16.998 68.3744 14.5194C68.3744 12.0407 66.3651 10.0312 63.8864 10.0312C61.4078 10.0312 59.3984 12.0407 59.3984 14.5194C59.3984 16.998 61.4078 19.0072 63.8864 19.0072Z" fill="white"/>
<path d="M96.6231 33.5273H35.3751C31.9431 33.5273 29.0391 36.4313 29.0391 39.8633V50.9513C29.0391 54.3833 31.9431 57.2873 35.3751 57.2873H96.3591C99.7911 57.2873 102.695 54.3833 102.695 50.9513V39.5993C102.695 36.1673 100.055 33.5273 96.6231 33.5273Z" fill="#A3121B"/>
<path d="M40.656 49.6322C43.1346 49.6322 45.144 47.6229 45.144 45.1443C45.144 42.6656 43.1346 40.6562 40.656 40.6562C38.1773 40.6562 36.168 42.6656 36.168 45.1443C36.168 47.6229 38.1773 49.6322 40.656 49.6322Z" fill="white"/>
<path d="M52.2732 49.6322C54.7519 49.6322 56.7612 47.6229 56.7612 45.1443C56.7612 42.6656 54.7519 40.6562 52.2732 40.6562C49.7946 40.6562 47.7852 42.6656 47.7852 45.1443C47.7852 47.6229 49.7946 49.6322 52.2732 49.6322Z" fill="#6BB25F"/>
<path d="M63.8864 49.6322C66.3651 49.6322 68.3744 47.6229 68.3744 45.1443C68.3744 42.6656 66.3651 40.6562 63.8864 40.6562C61.4078 40.6562 59.3984 42.6656 59.3984 45.1443C59.3984 47.6229 61.4078 49.6322 63.8864 49.6322Z" fill="white"/>
</svg>
