<svg width="50" height="50" viewBox="0 0 50 50" fill="none" xmlns="http://www.w3.org/2000/svg">
<g clip-path="url(#clip0_1675_117977)">
<mask id="mask0_1675_117977" style="mask-type:luminance" maskUnits="userSpaceOnUse" x="0" y="0" width="50" height="50">
<path d="M50 0H0V50H50V0Z" fill="white"/>
</mask>
<g mask="url(#mask0_1675_117977)">
<path d="M11.3404 19.3457C10.9062 18.4359 9.83417 18.02 8.83003 18.4488C7.82589 18.8778 7.45952 19.9436 7.90731 20.8534L12.1139 29.6136C12.7788 30.9914 13.4708 31.7062 14.7871 31.7062C16.1847 31.7062 16.7953 30.9263 17.4602 29.6136C17.4602 29.6136 21.1239 21.9582 21.1647 21.8803C21.2055 21.8021 21.314 21.5552 21.694 21.5552C22.006 21.5552 22.2773 21.8021 22.2773 22.1272V29.6136C22.2773 30.7704 22.9423 31.7193 24.2314 31.7193C25.5205 31.7193 26.2125 30.7704 26.2125 29.6136V23.4919C26.2125 22.3091 27.0945 21.5423 28.3022 21.5423C29.5099 21.5423 30.3105 22.3351 30.3105 23.4919V29.6136C30.3105 30.7704 30.9754 31.7193 32.2645 31.7193C33.5536 31.7193 34.2456 30.7704 34.2456 29.6136V23.4919C34.2456 22.3091 35.1276 21.5423 36.3353 21.5423C37.543 21.5423 38.3436 22.3351 38.3436 23.4919V29.6136C38.3436 30.7704 39.0085 31.7193 40.2976 31.7193C41.5867 31.7193 42.2788 30.7704 42.2788 29.6136V22.6471C42.2788 20.0866 40.1348 18.2929 37.543 18.2929C34.9648 18.2929 33.3365 20.0086 33.3365 20.0086C32.4817 18.9298 31.2875 18.28 29.2792 18.28C27.1624 18.28 25.3034 19.9955 25.3034 19.9955C24.4486 18.9298 22.9831 18.28 21.7617 18.28C19.8891 18.2929 18.3966 19.0857 17.4873 21.0744L14.8006 27.1441L11.3404 19.3457Z" fill="#F51624"/>
<path d="M25 49C38.2548 49 49 38.2548 49 25C49 11.7452 38.2548 1 25 1C11.7452 1 1 11.7452 1 25C1 38.2548 11.7452 49 25 49Z" stroke="#F51624" stroke-width="2"/>
</g>
</g>
<defs>
<clipPath id="clip0_1675_117977">
<rect width="50" height="50" fill="white"/>
</clipPath>
</defs>
</svg>
