<svg width="31" height="32" viewBox="0 0 31 32" fill="none" xmlns="http://www.w3.org/2000/svg">
<g clip-path="url(#clip0_1675_117891)">
<mask id="mask0_1675_117891" style="mask-type:luminance" maskUnits="userSpaceOnUse" x="0" y="0" width="31" height="32">
<path d="M31 0H0V32H31V0Z" fill="white"/>
</mask>
<g mask="url(#mask0_1675_117891)">
<path d="M20.8232 10.1524H9.91583C10.3703 7.34297 11.0933 5.07059 12.0849 3.33532C13.0765 1.60006 14.1714 0.732422 15.3695 0.732422C16.5677 0.732422 17.6626 1.60006 18.6541 3.33532C19.6457 5.07059 20.3688 7.34297 20.8232 10.1524ZM9.60596 20.0682C9.48201 18.7461 9.42003 17.424 9.42003 16.1019C9.42003 14.7798 9.48201 13.4577 9.60596 12.1356H21.1331C21.2571 13.4577 21.319 14.7798 21.319 16.1019C21.319 17.424 21.2571 18.7461 21.1331 20.0682H9.60596ZM29.5616 10.1524H22.8684C22.2486 6.35139 21.2157 3.41796 19.7697 1.35216C21.9594 2.01321 23.9013 3.12875 25.5952 4.69875C27.3305 6.22744 28.6526 8.04534 29.5616 10.1524ZM10.9694 1.35216C9.48201 3.41796 8.44911 6.35139 7.87069 10.1524H1.1775C2.08645 8.04534 3.38791 6.22744 5.08186 4.69875C6.81713 3.12875 8.77964 2.01321 10.9694 1.35216ZM30.1813 12.1356C30.5531 13.4577 30.7391 14.7798 30.7391 16.1019C30.7391 17.424 30.5531 18.7461 30.1813 20.0682H23.1163C23.2402 18.7048 23.3022 17.3827 23.3022 16.1019C23.3022 14.8211 23.2402 13.499 23.1163 12.1356H30.1813ZM7.43687 16.1019C7.43687 17.3414 7.49884 18.6635 7.62279 20.0682H0.557765C0.185922 18.7048 0 17.3827 0 16.1019C0 14.8211 0.185922 13.499 0.557765 12.1356H7.62279C7.49884 13.499 7.43687 14.8211 7.43687 16.1019ZM9.91583 22.0514H20.8232C20.3688 24.8609 19.6457 27.1333 18.6541 28.8685C17.6626 30.6038 16.5677 31.4714 15.3695 31.4714C14.1714 31.4714 13.0765 30.6038 12.0849 28.8685C11.0933 27.1333 10.3703 24.8609 9.91583 22.0514ZM19.7697 30.8517C21.2571 28.7859 22.2899 25.8525 22.8684 22.0514H29.5616C28.6526 24.1585 27.3305 25.9971 25.5952 27.5671C23.9013 29.0958 21.9594 30.1906 19.7697 30.8517ZM1.1775 22.0514H7.87069C8.49043 25.8525 9.52332 28.7859 10.9694 30.8517C8.77964 30.1906 6.81713 29.0958 5.08186 27.5671C3.38791 25.9971 2.08645 24.1585 1.1775 22.0514Z" fill="#17494D"/>
</g>
</g>
<defs>
<clipPath id="clip0_1675_117891">
<rect width="31" height="32" fill="white"/>
</clipPath>
</defs>
</svg>
