<svg width="34" height="36" viewBox="0 0 34 36" fill="none" xmlns="http://www.w3.org/2000/svg">
<path d="M17 2C7.62663 2 0 9.62663 0 19C0 28.3734 7.62663 36 17 36C26.3734 36 34 28.3734 34 19C34 9.62663 26.3734 2 17 2ZM17 4.125C20.0026 4.125 22.7949 5.026 25.1345 6.56238C24.3206 7.015 23.5662 7.967 23.5662 9.99C23.5662 11.0653 24.2994 12.3126 25.1472 13.7576C26.1651 15.4916 27.4274 17.6485 27.1108 19.2061C26.7623 20.2367 25.8783 22.5764 24.9199 25.0732L20.5275 12.4508C20.6167 12.4274 20.7166 12.4125 20.8016 12.3849C21.3584 12.2 21.658 11.5986 21.4731 11.0419C21.2861 10.4851 20.6869 10.1897 20.128 10.3704C19.2227 10.6721 17.5844 10.6658 16.6005 10.6636H16.3051H16.0098C15.0322 10.6658 13.3875 10.6721 12.4823 10.3704C11.9319 10.1834 11.3284 10.4851 11.1414 11.0419C10.9544 11.5986 11.2561 12.2 11.8129 12.3849C12.2613 12.5358 12.7904 12.6165 13.3301 12.676L15.9439 19.4718L13.4725 25.7065L9.25012 12.4975C9.40525 12.4614 9.571 12.4338 9.71338 12.3849C10.2701 12.2 10.5719 11.5986 10.3849 11.0419C10.1979 10.4851 9.59863 10.1834 9.04187 10.3704C8.13875 10.6721 6.49613 10.6636 5.51225 10.6636H5.22113C5.02987 10.6636 4.87262 10.6488 4.71112 10.636C7.39075 6.709 11.8979 4.125 17 4.125ZM2.125 19C2.125 17.3298 2.414 15.7275 2.924 14.2273L9.4435 31.7904C5.07237 29.1957 2.125 24.4421 2.125 19ZM17 33.875C15.5295 33.875 14.1121 33.6519 12.7691 33.2545L17.0701 22.4L21.2436 33.2524C19.8985 33.6519 18.4748 33.875 17 33.875ZM24.6054 31.7585C25.9824 28.2289 28.3539 22.1152 29.0658 20.0476L29.0934 20.0561C29.1231 19.9711 29.155 19.8606 29.1762 19.731C29.4164 19.0637 29.6204 18.4539 29.784 17.9396C30.3089 16.28 30.6425 14.8201 30.8167 13.5281C31.4925 15.2239 31.875 17.0662 31.875 19C31.875 24.4209 28.951 29.1596 24.6054 31.7585Z" fill="#17494D"/>
</svg>
