<svg width="40" height="40" viewBox="0 0 40 40" fill="none" xmlns="http://www.w3.org/2000/svg">
<path d="M21.6417 17.2664C22.9741 15.9333 22.9741 13.7644 21.6417 12.4313C20.3187 11.1067 18.1552 11.0849 16.8072 12.4313C15.472 13.768 15.4691 15.9269 16.8072 17.2664C18.1007 18.5577 20.3512 18.5606 21.6417 17.2664Z" fill="#17494D"/>
<path d="M7.23565 21.6997C9.44174 26.0346 13.8976 25.1611 14.0503 25.1906C14.1741 25.3396 15.6642 29.3619 20.111 29.3619C24.748 29.3619 26.0483 25.3389 26.1714 25.1906C26.3193 25.1621 30.7958 26.0564 32.986 21.6997C34.9781 17.7653 32.2898 14.8217 32.2321 14.6736C32.2891 14.5255 34.9734 11.56 32.986 7.66227C30.7579 3.28384 26.3215 4.2003 26.1714 4.17131C26.048 4.02227 24.5579 0 20.111 0C15.5007 0 14.173 4.02335 14.0503 4.17132C13.9023 4.19986 9.4515 3.30769 7.23565 7.66228C5.26377 11.5299 7.93288 14.5256 7.98989 14.6736C7.93288 14.8215 5.27964 17.8631 7.23565 21.6997ZM15.6053 10.1703C18.0933 7.67916 22.1298 7.67509 24.6203 10.1703C27.1061 12.6578 27.1061 16.7046 24.6203 19.1921C23.4178 20.3968 21.8169 21.0605 20.1135 21.0605C18.4101 21.0605 16.8092 20.3975 15.6053 19.1921C13.112 16.6969 13.1138 12.6634 15.6053 10.1703ZM6.95488 36.6839C9.94086 35.6781 12.6313 36.5952 15.3217 39.5091C15.73 39.9609 16.3522 40.0926 16.8143 39.9381C17.3466 39.7754 17.7606 39.3316 17.8641 38.7843L19.0612 32.2612C16.3416 31.9653 14.0059 30.5305 12.3653 28.1786C11.0347 28.0898 9.7929 27.7644 8.69941 27.1875L5.15153 34.6426C4.58324 35.812 5.70792 37.111 6.95488 36.6839ZM27.8863 28.1786C26.3045 30.5453 23.9541 31.9801 21.1753 32.2612L22.3727 38.7843C22.4759 39.376 22.9342 39.8346 23.5109 39.9677C24.2183 40.0691 24.7253 39.799 25.0331 39.3613C26.9993 36.5508 29.6305 35.7372 33.3704 36.7134C34.5691 37.0293 35.6036 35.8109 35.0849 34.6426L31.5374 27.2023C30.4435 27.7644 29.2017 28.0898 27.8863 28.1786Z" fill="#17494D"/>
</svg>
