<svg width="15" height="16" viewBox="0 0 15 16" fill="none" xmlns="http://www.w3.org/2000/svg">
<path d="M14.3102 11.0229L12.9767 9.59421C12.5792 9.17175 12.0427 8.93357 11.4829 8.93102C10.923 8.92847 10.3846 9.16175 9.98377 9.58058C9.7699 9.81104 9.48774 9.95443 9.18585 9.98607C8.88396 10.0177 8.58122 9.93564 8.32971 9.75397C7.33703 9.04415 6.48423 8.13221 5.81982 7.07C5.65324 6.79752 5.57941 6.47185 5.61076 6.14786C5.64211 5.82386 5.77674 5.52135 5.99195 5.29129C6.37931 4.86143 6.59424 4.28619 6.59073 3.68869C6.58721 3.09118 6.36555 2.51889 5.97316 2.09429L4.63973 0.66561C4.24051 0.239348 3.69989 0 3.13628 0C2.57267 0 2.03205 0.239348 1.63283 0.66561L1.24917 1.07733C-0.750988 3.22035 -0.601279 7.72589 3.56025 12.1821C6.06953 14.8712 8.59518 15.9973 10.6432 15.9973C11.2461 16.0188 11.8469 15.9115 12.4107 15.6818C12.9745 15.452 13.49 15.1043 13.9271 14.6589L14.3114 14.2472C14.7099 13.8192 14.9337 13.2393 14.9335 12.6348C14.9332 12.0302 14.7091 11.4505 14.3102 11.0229V11.0229ZM13.4531 13.3289L13.0689 13.7406C11.493 15.4291 8.01453 15.1206 4.41607 11.2645C0.817618 7.40833 0.529111 3.67883 2.10499 1.99039L2.48623 1.57932C2.65788 1.39607 2.89033 1.29317 3.13264 1.29317C3.37496 1.29317 3.6074 1.39607 3.77906 1.57932L5.11249 3.008C5.28103 3.18948 5.37669 3.43434 5.37907 3.69034C5.38145 3.94634 5.29035 4.19319 5.12522 4.37823C4.71566 4.81984 4.46018 5.39884 4.40159 6.01823C4.343 6.63761 4.48485 7.25976 4.80338 7.78044C5.55831 8.99086 6.52911 10.0295 7.65996 10.8365C8.14447 11.1778 8.72362 11.3307 9.30067 11.2696C9.87772 11.2085 10.4177 10.9371 10.8305 10.5008C11.0029 10.3218 11.2339 10.2223 11.474 10.2239C11.714 10.2255 11.9439 10.3279 12.1142 10.5092L13.4477 11.9379C13.5336 12.0286 13.602 12.1367 13.6488 12.2559C13.6956 12.375 13.7199 12.5029 13.7205 12.6322C13.721 12.7615 13.6976 12.8896 13.6517 13.0092C13.6058 13.1287 13.5384 13.2374 13.4531 13.3289V13.3289Z" fill="#161616"/>
</svg>
