<svg width="19" height="17" viewBox="0 0 19 17" fill="none" xmlns="http://www.w3.org/2000/svg">
<path d="M7.16683 17C6.16043 17 5.34161 16.1812 5.34161 15.1748C5.34161 14.1684 6.16043 13.3499 7.16683 13.3499C8.17323 13.3499 8.99204 14.1684 8.99204 15.1748C8.99204 16.1812 8.17323 17 7.16683 17ZM7.16683 14.4954C6.79222 14.4954 6.48721 14.8002 6.48721 15.1748C6.48721 15.5497 6.79193 15.8544 7.16683 15.8544C7.54172 15.8544 7.84645 15.5497 7.84645 15.1748C7.84645 14.8002 7.54172 14.4954 7.16683 14.4954Z" fill="#161616"/>
<path d="M13.5117 17C12.5053 17 11.6868 16.1812 11.6868 15.1748C11.6868 14.1684 12.5053 13.3499 13.5117 13.3499C14.5181 13.3499 15.3369 14.1684 15.3369 15.1748C15.3369 16.1812 14.5178 17 13.5117 17ZM13.5117 14.4954C13.1371 14.4954 12.8324 14.8002 12.8324 15.1748C12.8324 15.5497 13.1371 15.8544 13.5117 15.8544C13.8866 15.8544 14.1913 15.5497 14.1913 15.1748C14.1913 14.8002 13.8863 14.4954 13.5117 14.4954Z" fill="#161616"/>
<path d="M14.848 11.9351H5.84967C4.97416 11.9351 4.22637 11.3391 4.03105 10.4856L2.16345 2.32984C2.13882 2.22216 2.06435 2.12994 1.96412 2.08354L0.414989 1.36554C0.0564194 1.19943 -0.0996674 0.773846 0.0664433 0.414989C0.232554 0.0564194 0.658428 -0.0996674 1.017 0.0664433L2.56612 0.784443C3.06532 1.01557 3.43677 1.4738 3.55935 2.01023L5.42695 10.1665C5.4722 10.3647 5.64605 10.5034 5.84967 10.5034H14.848C15.0508 10.5034 15.2243 10.3656 15.2707 10.168L16.7228 3.92078C16.7643 3.74322 16.6887 3.61405 16.6403 3.55305C16.5916 3.49176 16.4828 3.38923 16.3006 3.38923H5.7039C5.30838 3.38923 4.9879 3.06875 4.9879 2.67324C4.9879 2.27772 5.30838 1.95724 5.7039 1.95724H16.3006C16.8731 1.95724 17.4053 2.21414 17.7615 2.66235C18.1178 3.11057 18.2473 3.68737 18.1178 4.24499L16.6655 10.4925C16.4676 11.3416 15.7204 11.9351 14.848 11.9351Z" fill="#161616"/>
</svg>
