<svg width="16" height="16" viewBox="0 0 16 16" fill="none" xmlns="http://www.w3.org/2000/svg">
<g clip-path="url(#clip0_954_95)">
<path d="M7.97344 14.6445H1.99334C1.62656 14.6445 1.32891 14.3468 1.32891 13.9801V2.01993C1.32891 1.65314 1.62659 1.35549 1.99334 1.35549H7.97344C8.34087 1.35549 8.63787 1.05849 8.63787 0.69105C8.63787 0.323613 8.34087 0.0265503 7.97344 0.0265503H1.99334C0.894344 0.0265503 0 0.920925 0 2.01993V13.9801C0 15.0791 0.894344 15.9734 1.99334 15.9734H7.97344C8.34087 15.9734 8.63787 15.6764 8.63787 15.309C8.63787 14.9415 8.34087 14.6445 7.97344 14.6445Z" fill="#161616"/>
<path d="M15.802 7.52689L11.7621 3.54017C11.5016 3.28236 11.0804 3.2857 10.8226 3.54682C10.5648 3.80795 10.5674 4.22854 10.8292 4.48636L13.7163 7.33551H5.98005C5.61261 7.33551 5.31561 7.63251 5.31561 7.99995C5.31561 8.36739 5.61261 8.66442 5.98005 8.66442H13.7163L10.8292 11.5136C10.5675 11.7714 10.5655 12.192 10.8226 12.4531C10.9528 12.5847 11.1242 12.6511 11.2957 12.6511C11.4645 12.6511 11.6332 12.5873 11.7621 12.4597L15.802 8.47301C15.9282 8.34811 16 8.17798 16 7.99992C16 7.82192 15.9289 7.65248 15.802 7.52689Z" fill="#161616"/>
</g>
<defs>
<clipPath id="clip0_954_95">
<rect width="16" height="16" fill="white"/>
</clipPath>
</defs>
</svg>
