<svg width="60" height="60" viewBox="0 0 60 60" fill="none" xmlns="http://www.w3.org/2000/svg">
<path fill-rule="evenodd" clip-rule="evenodd" d="M36.2441 36.8786C36.3823 37.1993 36.6872 37.4167 37.0355 37.4426C37.0589 37.4444 37.0821 37.4452 37.1055 37.4452C37.428 37.4452 37.7301 37.2789 37.9019 37.002L40.1733 33.3416L44.3935 34.2059C44.736 34.2757 45.0884 34.15 45.3088 33.8792C45.5292 33.6083 45.5808 33.2373 45.4428 32.9166L42.3086 25.6397C42.4044 25.599 42.5025 25.5572 42.6059 25.513C44.2221 24.8209 45.1677 23.1829 44.9591 21.4371C44.9203 21.1129 44.8841 20.8244 44.8517 20.5654C44.7215 19.5265 44.656 19.005 44.7263 18.6066C44.7966 18.2081 45.0364 17.7405 45.5141 16.8088C45.6333 16.5764 45.766 16.3178 45.9133 16.0262C46.7065 14.4571 46.378 12.5944 45.096 11.3914C44.858 11.1679 44.6447 10.9702 44.4535 10.7925C43.6858 10.0805 43.3005 9.72307 43.0983 9.37268C42.8959 9.02229 42.7791 8.50995 42.5462 7.48924C42.4881 7.23471 42.4234 6.95112 42.3489 6.63307C41.9479 4.9212 40.499 3.70549 38.7435 3.60788C38.4175 3.58971 38.1271 3.5753 37.8664 3.56229C36.8206 3.51026 36.2957 3.48413 35.9155 3.34573C35.5354 3.20733 35.1165 2.88999 34.2819 2.25764C34.0739 2.09991 33.842 1.92436 33.5807 1.72866C32.173 0.675142 30.2819 0.675024 28.8742 1.72866C28.6129 1.92436 28.381 2.09991 28.173 2.25764C27.3383 2.88999 26.9195 3.20733 26.5394 3.34573C26.1592 3.48413 25.6342 3.51026 24.5885 3.56229C24.3277 3.5753 24.0374 3.58971 23.7114 3.60788C21.9559 3.70549 20.5069 4.92131 20.106 6.63307C20.0315 6.95112 19.9668 7.23459 19.9087 7.48924C19.6758 8.50995 19.559 9.02241 19.3566 9.37268C19.1543 9.72307 18.769 10.0805 18.0014 10.7925C17.8101 10.9702 17.5969 11.1679 17.3589 11.3914C16.077 12.5945 15.7484 14.4572 16.5415 16.0264C16.6888 16.3177 16.8215 16.5763 16.9405 16.8086C17.4183 17.7403 17.6582 18.208 17.7285 18.6065C17.7988 19.0048 17.7333 19.5263 17.6031 20.565C17.5706 20.8241 17.5344 21.1128 17.4956 21.4371C17.2871 23.1829 18.2326 24.8209 19.8489 25.513C20.1491 25.6416 20.417 25.7546 20.6576 25.8559C20.7307 25.8867 20.8001 25.916 20.8678 25.9446L17.0233 34.2021C16.8758 34.5188 16.9167 34.891 17.1291 35.1682C17.3415 35.4454 17.6904 35.5819 18.0346 35.5213L22.2783 34.7799L24.4426 38.5044C24.611 38.794 24.9202 38.9708 25.2531 38.9708C25.2672 38.9708 25.2815 38.9705 25.2956 38.9699C25.6446 38.9541 25.9558 38.7456 26.1032 38.4291L29.9292 30.2108C30.5431 30.0264 30.9151 29.9335 31.2277 29.9335C31.6322 29.9335 32.1345 30.0884 33.135 30.3972C33.2508 30.4329 33.3734 30.4708 33.5019 30.5101L36.2441 36.8786ZM39.9093 31.3736C39.5247 31.2949 39.1316 31.4642 38.9246 31.7977L37.2557 34.4871L35.6624 30.7876C36.756 30.6359 37.7569 30.0231 38.3967 29.0446C38.5755 28.7712 38.7332 28.527 38.8749 28.3076C39.4429 27.428 39.7279 26.9865 40.0378 26.7264C40.1769 26.6097 40.3517 26.5042 40.5886 26.3867L43.0099 32.0085L39.9093 31.3736ZM25.1606 36.0094L23.5705 33.2728C23.3732 32.9333 22.9853 32.753 22.5986 32.8204L19.4807 33.3651L22.525 26.8265C22.797 27.0967 23.078 27.5315 23.5792 28.3077C23.7209 28.5271 23.8786 28.7713 24.0573 29.0446C24.8483 30.2543 26.1905 30.906 27.578 30.8172L25.1606 36.0094ZM31.227 28.0575C30.589 28.0575 29.9508 28.2402 28.7667 28.6056C28.5203 28.6817 28.2461 28.7663 27.9374 28.8596C27.0448 29.1291 26.1373 28.7993 25.6265 28.0184C25.4499 27.7485 25.2941 27.5072 25.1543 27.2906C23.8098 25.2087 23.669 25.0906 21.3851 24.1281C21.1476 24.028 20.883 23.9165 20.5865 23.7894C19.7288 23.4221 19.2461 22.586 19.3568 21.6596C19.3951 21.3393 19.4309 21.0542 19.463 20.7983C19.7713 18.3395 19.7393 18.1583 18.6083 15.9529C18.4907 15.7234 18.3598 15.4681 18.2144 15.1804C17.7934 14.3476 17.9611 13.397 18.6415 12.7585C18.8767 12.5378 19.0872 12.3426 19.2762 12.1671C21.0932 10.4816 21.1851 10.3224 21.7363 7.90631C21.7936 7.65483 21.8575 7.37487 21.9311 7.06069C22.1438 6.15225 22.8833 5.53174 23.815 5.47995C24.137 5.46202 24.4238 5.44772 24.6814 5.43495C27.1566 5.31167 27.3296 5.24874 29.3049 3.75213C29.5104 3.59639 29.7393 3.42295 29.9974 3.22971C30.7445 2.67061 31.7097 2.67061 32.4567 3.22971C32.7149 3.42295 32.9438 3.59639 33.1493 3.75213C35.1246 5.24874 35.2976 5.31167 37.7728 5.43495C38.0303 5.44772 38.3172 5.46202 38.6392 5.47995C39.5708 5.53174 40.3103 6.15225 40.5231 7.06069C40.5967 7.37475 40.6606 7.65471 40.7179 7.9062C41.2691 10.3223 41.361 10.4816 43.178 12.167C43.367 12.3424 43.5775 12.5377 43.8127 12.7583C44.4931 13.3969 44.6605 14.3475 44.2397 15.1803C44.0943 15.4681 43.9633 15.7237 43.8455 15.9531C42.7148 18.1583 42.6828 18.3395 42.9912 20.7986C43.0232 21.0544 43.059 21.3393 43.0973 21.6594C43.208 22.5859 42.7253 23.4221 41.8676 23.7893C41.5711 23.9162 41.3065 24.0278 41.069 24.128C38.7852 25.0905 38.6444 25.2087 37.2999 27.2905C37.1601 27.5072 37.0043 27.7484 36.8277 28.0184C36.3171 28.7992 35.4103 29.1296 34.5168 28.8596C34.2081 28.7663 33.9338 28.6815 33.6874 28.6056C32.5031 28.2402 31.8649 28.0575 31.227 28.0575ZM40.5313 15.8815C40.5313 10.751 36.3574 6.57717 31.227 6.57717C26.0966 6.57717 21.9228 10.751 21.9228 15.8815C21.9228 21.012 26.0966 25.186 31.227 25.186C36.3573 25.186 40.5313 21.0121 40.5313 15.8815ZM31.2269 23.311C27.1303 23.311 23.7976 19.9781 23.7976 15.8815C23.7976 11.785 27.1303 8.45217 31.2269 8.45217C35.3234 8.45217 38.6562 11.785 38.6562 15.8815C38.6563 19.9781 35.3234 23.311 31.2269 23.311ZM36.3758 13.671L29.974 19.4808C29.7949 19.6433 29.5694 19.7241 29.3441 19.7241C29.1037 19.7241 28.8637 19.6321 28.6811 19.4495L26.0453 16.8137C25.6792 16.4476 25.6792 15.8541 26.0453 15.488C26.4115 15.1219 27.0049 15.1219 27.3712 15.488L29.3754 17.4922L35.1158 12.2827C35.4992 11.9349 36.0921 11.9635 36.4401 12.3469C36.788 12.7301 36.7593 13.3231 36.3758 13.671ZM54.1737 44.3877C55.4094 43.1522 56.037 41.5935 55.9886 39.8801L55.532 23.763C55.487 22.1714 53.9048 20.7454 52.1986 20.7454C52.1822 20.7454 52.1659 20.7455 52.1496 20.7457C51.3173 20.7591 48.6033 21.2074 48.623 26.4168L48.6564 35.1717C48.6572 35.3719 48.6446 35.5663 48.6185 35.7558C48.5524 35.6768 48.4817 35.5996 48.4062 35.5241C47.2491 34.3671 45.3542 34.3525 44.0921 35.4907C44.0606 35.519 44.0311 35.5493 44.0039 35.5815C42.5917 37.2512 40.8565 38.7137 39.4621 39.8888C38.9731 40.3009 38.5113 40.6901 38.1321 41.0318C36.542 42.465 36.3298 44.4398 36.3319 46.1823L36.3394 52.4174L35.5309 52.4105C34.9835 52.4055 34.4677 52.6151 34.0763 52.9997C33.6849 53.3844 33.4667 53.8975 33.462 54.4442L33.441 56.8831C33.4363 57.4297 33.6456 57.9464 34.0303 58.3378C34.4149 58.7292 34.928 58.9473 35.4747 58.952L48.1445 59.0609C48.1505 59.0609 48.1565 59.061 48.1624 59.061C48.7024 59.061 49.2121 58.8521 49.5992 58.4715C49.9906 58.0868 50.2087 57.5739 50.2133 57.0272L50.2343 54.5883C50.239 54.0416 50.0297 53.5249 49.645 53.1335C49.2604 52.7421 48.7473 52.524 48.2006 52.5194L47.1583 52.5105V51.4031L54.1737 44.3877ZM48.3593 54.5722L48.3383 57.0112C48.3379 57.07 48.3089 57.1108 48.2847 57.1346C48.2605 57.1585 48.2228 57.1864 48.1605 57.1861L35.4906 57.0773C35.4319 57.0768 35.3911 57.0478 35.3673 57.0236C35.3435 56.9993 35.3153 56.9582 35.3159 56.8994L35.3369 54.4605C35.3373 54.4016 35.3663 54.3608 35.3905 54.3371C35.4144 54.3135 35.4552 54.2855 35.513 54.2855H35.5146H35.5147L48.1846 54.3944C48.2802 54.3953 48.3603 54.4766 48.3593 54.5722ZM38.2144 52.4337L38.2069 46.1802C38.2046 44.2706 38.5466 43.1827 39.3876 42.4247C39.7435 42.1039 40.173 41.7419 40.6703 41.3228C42.1037 40.1146 43.8844 38.614 45.3892 36.8472C45.9155 36.4057 46.634 36.4037 47.0803 36.8501C47.5554 37.3251 47.556 37.8901 47.0843 38.5298C46.3389 39.3676 45.5551 40.1267 44.7258 40.9292C44.3277 41.3145 43.9159 41.7129 43.5006 42.1283C43.1345 42.4944 43.1345 43.088 43.5007 43.4541C43.6838 43.6371 43.9235 43.7287 44.1635 43.7287C44.4035 43.7287 44.6435 43.6371 44.8265 43.454C45.2309 43.0496 45.6369 42.6565 46.0297 42.2765C46.8962 41.438 47.7146 40.646 48.5162 39.7416C48.5205 39.7368 49.1441 38.9739 49.1441 38.9739C50.0829 37.8182 50.5367 36.5721 50.5314 35.1648L50.498 26.4098C50.4892 24.0893 51.1336 22.6374 52.1796 22.6206C52.1861 22.6205 52.1923 22.6205 52.1986 22.6205C52.8948 22.6205 53.6412 23.2293 53.6577 23.8162L54.1143 39.9333C54.1483 41.1352 53.7222 42.1879 52.8478 43.062L45.5578 50.352C45.3821 50.5278 45.2833 50.7662 45.2833 51.0148V52.4944L38.2144 52.4337ZM36.2387 55.4139C36.3933 55.0249 36.834 54.835 37.223 54.9897C37.6119 55.1442 37.8019 55.585 37.6473 55.9739C37.4926 56.3629 37.052 56.5528 36.6631 56.3981C36.274 56.2435 36.084 55.8028 36.2387 55.4139ZM25.9226 52.9999C25.5312 52.6151 25.0142 52.4065 24.4678 52.4107L23.6595 52.4176L23.667 46.1826C23.6691 44.4399 23.4569 42.4651 21.8667 41.0321C21.4878 40.6902 21.0258 40.3012 20.5369 39.8891C19.1426 38.714 17.4073 37.2515 15.9951 35.5818C15.9679 35.5496 15.9385 35.5192 15.9071 35.491C14.6444 34.3527 12.7493 34.3675 11.5928 35.5244C11.5172 35.5998 11.4465 35.6771 11.3805 35.756C11.3543 35.5665 11.3418 35.3722 11.3426 35.1721L11.376 26.4169C11.3957 21.2076 8.68174 20.7593 7.84936 20.7458C7.83295 20.7456 7.8169 20.7455 7.80038 20.7455C6.09424 20.7455 4.51186 22.1717 4.46698 23.7631L4.01041 39.8803C3.96202 41.5937 4.58956 43.1523 5.82518 44.3878L12.8406 51.4034V52.5107L11.7982 52.5196C11.2515 52.5243 10.7385 52.7424 10.3539 53.1338C9.96916 53.5252 9.75987 54.0419 9.76456 54.5885L9.78553 57.0274C9.79022 57.5741 10.0083 58.0871 10.3997 58.4718C10.7868 58.8523 11.2963 59.0612 11.8364 59.0612C11.8424 59.0612 11.8485 59.0612 11.8544 59.0611L24.5242 58.9523C25.0709 58.9476 25.5839 58.7295 25.9685 58.3381C26.3533 57.9467 26.5626 57.43 26.5579 56.8833L26.5369 54.4444C26.5323 53.8977 26.314 53.3847 25.9226 52.9999ZM14.7156 51.0148C14.7156 50.7661 14.6168 50.5278 14.441 50.352L7.15092 43.0619C6.2767 42.1878 5.85061 41.1352 5.88459 39.9333L6.34116 23.816C6.35791 23.2238 7.12256 22.6104 7.81924 22.6206C8.86526 22.6374 9.50967 24.0893 9.50088 26.4096L9.46748 35.1648C9.46221 36.5721 9.91596 37.8181 10.8564 38.9759L11.4583 39.7128C11.4624 39.7178 11.4785 39.7368 11.4828 39.7416C12.2844 40.646 13.1028 41.438 13.9692 42.2765C14.3621 42.6566 14.768 43.0496 15.1725 43.454C15.3556 43.637 15.5955 43.7287 15.8355 43.7287C16.0753 43.7287 16.3153 43.6371 16.4983 43.4541C16.8645 43.088 16.8645 42.4944 16.4984 42.1283C16.0831 41.713 15.6713 41.3145 15.2732 40.9292C14.4439 40.1265 13.6601 39.3676 12.9147 38.5298C12.4431 37.8903 12.4436 37.3252 12.9187 36.8502C13.3653 36.4037 14.0835 36.4057 14.6099 36.8472C16.1146 38.6141 17.8951 40.1147 19.3288 41.3229C19.826 41.7421 20.2555 42.104 20.6115 42.4249C21.4524 43.1827 21.7944 44.2708 21.7921 46.1803L21.7846 52.4338L14.7157 52.4945L14.7156 51.0148ZM24.6314 57.0237C24.6076 57.048 24.5669 57.0769 24.5081 57.0774L11.8383 57.1862C11.7784 57.1864 11.7382 57.1586 11.7141 57.1347C11.6898 57.1109 11.6609 57.0702 11.6604 57.0113L11.6394 54.5724C11.6389 54.5135 11.6671 54.4723 11.6909 54.4481C11.7147 54.424 11.7555 54.3949 11.8142 54.3945L24.4839 54.2856H24.4856C24.5435 54.2856 24.5843 54.3136 24.6082 54.3372C24.6325 54.361 24.6614 54.4017 24.6619 54.4606L24.6829 56.8995C24.6835 56.9583 24.6552 56.9994 24.6314 57.0237ZM23.7601 55.4139C23.9148 55.8028 23.7249 56.2435 23.3359 56.3981C22.947 56.5528 22.5062 56.3629 22.3517 55.9739C22.197 55.585 22.3869 55.1444 22.7759 54.9897C23.1648 54.835 23.6055 55.0249 23.7601 55.4139Z" fill="black"/>
</svg>
