<svg width="60" height="60" viewBox="0 0 60 60" fill="none" xmlns="http://www.w3.org/2000/svg">
<path d="M28.9287 44.9619C27.0925 44.8325 25.32 44.3738 23.66 43.5981C23.36 43.4581 23.0163 43.4419 22.7038 43.5556C22.3925 43.6694 22.1387 43.9019 21.9981 44.2025L20.4294 47.5663C17.0569 45.725 14.2744 42.9425 12.4337 39.57L15.7969 38.0019C16.0975 37.8619 16.3306 37.6081 16.4437 37.2962C16.5569 36.9844 16.5413 36.64 16.4013 36.34C15.6263 34.68 15.1669 32.9075 15.0375 31.07C14.945 29.7694 13.8519 28.75 12.5487 28.75H3.75C3.06 28.75 2.5 29.31 2.5 30C2.5 45.1637 14.8363 57.5 30 57.5C30.69 57.5 31.25 56.94 31.25 56.25V47.4512C31.25 46.1481 30.2306 45.055 28.9287 44.9619ZM28.75 54.9687C15.9569 54.3362 5.66375 44.0425 5.03125 31.2494L12.5444 31.2469C12.6656 32.9712 13.0362 34.6469 13.6481 36.2456L10.2087 37.8494C9.90812 37.9894 9.675 38.2431 9.56187 38.555C9.44875 38.8669 9.46375 39.2106 9.60375 39.5112C11.8388 44.295 15.705 48.1613 20.4888 50.3963C20.7881 50.5363 21.1319 50.5519 21.445 50.4381C21.7569 50.3244 22.0106 50.0919 22.1506 49.7913L23.7544 46.3519C25.3531 46.9638 27.0281 47.3331 28.75 47.4506V54.9687ZM27.5 27.5V26.25C27.5 25.5606 26.9394 25 26.25 25H22.5C21.81 25 21.25 24.44 21.25 23.75C21.25 23.06 21.81 22.5 22.5 22.5H26.25C28.3181 22.5 30 24.1819 30 26.25V27.5C30 29.5681 28.3181 31.25 26.25 31.25H25C24.3106 31.25 23.75 31.8106 23.75 32.5V35H28.75C29.44 35 30 35.56 30 36.25C30 36.94 29.44 37.5 28.75 37.5H22.5C21.81 37.5 21.25 36.94 21.25 36.25V32.5C21.25 30.4319 22.9319 28.75 25 28.75H26.25C26.9394 28.75 27.5 28.1894 27.5 27.5ZM38.75 31.25H33.75C33.06 31.25 32.5 30.69 32.5 30V23.75C32.5 23.06 33.06 22.5 33.75 22.5C34.44 22.5 35 23.06 35 23.75V28.75H38.75V23.75C38.75 23.06 39.31 22.5 40 22.5C40.69 22.5 41.25 23.06 41.25 23.75V36.25C41.25 36.94 40.69 37.5 40 37.5C39.31 37.5 38.75 36.94 38.75 36.25V31.25ZM57.5 30C57.5 42.4363 49.1188 53.3625 37.1187 56.57C37.0106 56.5988 36.9019 56.6125 36.795 56.6125C36.2425 56.6125 35.7375 56.2431 35.5875 55.685C35.4094 55.0181 35.8056 54.3331 36.4725 54.1544C40.3994 53.105 43.8969 51.1425 46.7694 48.5375L44.1425 45.9106C43.6544 45.4225 43.6544 44.6312 44.1425 44.1431C44.6306 43.655 45.4219 43.655 45.91 44.1431L48.5388 46.7719C52.3225 42.5812 54.6719 37.1344 54.9656 31.2506H51.25C50.56 31.2506 50 30.6906 50 30.0006C50 29.3106 50.56 28.7506 51.25 28.7506H54.9681C54.6737 22.7981 52.2869 17.3869 48.53 13.2381L45.9094 15.8588C45.665 16.1031 45.3456 16.225 45.0256 16.225C44.7056 16.225 44.3862 16.1031 44.1419 15.8588C43.6537 15.3706 43.6537 14.5794 44.1419 14.0912L46.7625 11.4706C42.6137 7.71313 37.2025 5.32625 31.25 5.03187V8.75C31.25 9.44 30.69 10 30 10C29.31 10 28.75 9.44 28.75 8.75V5.03438C22.8669 5.32813 17.4194 7.6775 13.2288 11.4612L15.8575 14.09C16.3456 14.5781 16.3456 15.3694 15.8575 15.8575C15.6131 16.1019 15.2938 16.2238 14.9738 16.2238C14.6538 16.2238 14.3344 16.1019 14.09 15.8575L11.4631 13.2306C8.85812 16.1031 6.89563 19.6 5.84625 23.5269C5.6675 24.1938 4.98188 24.59 4.31563 24.4119C3.64875 24.2337 3.2525 23.5488 3.43062 22.8813C6.6375 10.8812 17.5637 2.5 30 2.5C45.1637 2.5 57.5 14.8363 57.5 30Z" fill="black"/>
</svg>
