<svg width="40" height="40" viewBox="0 0 40 40" fill="none" xmlns="http://www.w3.org/2000/svg">
<path d="M33.2231 18.9366C32.8442 18.9366 32.4808 18.7861 32.2129 18.5182C31.945 18.2502 31.7945 17.8869 31.7945 17.508V13.4737C31.7945 7.75944 26.5145 3.18801 20.0231 3.18801C13.5316 3.18801 8.25167 7.81658 8.25167 13.4737V17.508C8.25167 17.8869 8.10116 18.2502 7.83325 18.5182C7.56534 18.7861 7.20198 18.9366 6.8231 18.9366C6.44422 18.9366 6.08086 18.7861 5.81295 18.5182C5.54504 18.2502 5.39453 17.8869 5.39453 17.508V13.4737C5.39453 6.20515 11.9659 0.285156 20.0231 0.285156C28.0802 0.285156 34.6516 6.20515 34.6516 13.4737V17.508C34.6532 17.696 34.6172 17.8825 34.546 18.0565C34.4747 18.2305 34.3696 18.3886 34.2366 18.5215C34.1036 18.6545 33.9456 18.7597 33.7715 18.8309C33.5975 18.9022 33.4111 18.9381 33.2231 18.9366Z" fill="#17494D"/>
<path d="M29.3602 32.3771C28.9813 32.3771 28.618 32.2266 28.3501 31.9587C28.0822 31.6908 27.9317 31.3275 27.9317 30.9486V17.3829C27.9435 17.012 28.0993 16.6602 28.3659 16.4021C28.6325 16.144 28.9891 15.9998 29.3602 16C34.2859 16 38.2974 19.6914 38.2974 24.2171C38.2974 28.7429 34.2859 32.3771 29.3602 32.3771ZM30.7888 18.96V29.3714C32.0395 29.1644 33.1818 28.5356 34.0258 27.5897C34.8699 26.6438 35.365 25.4376 35.4288 24.1714C35.3675 22.9033 34.8736 21.6944 34.0293 20.7461C33.185 19.7979 32.0414 19.1675 30.7888 18.96ZM10.6402 32.3771C5.71456 32.3771 1.70312 28.6971 1.70312 24.1714C1.70312 19.6457 5.71456 16 10.6402 16C11.0191 16 11.3825 16.1505 11.6504 16.4184C11.9183 16.6863 12.0688 17.0497 12.0688 17.4286V30.9486C12.0688 31.3275 11.9183 31.6908 11.6504 31.9587C11.3825 32.2266 11.0191 32.3771 10.6402 32.3771ZM9.21169 18.96C7.95913 19.1675 6.81546 19.7979 5.9712 20.7461C5.12692 21.6944 4.63301 22.9033 4.57171 24.1714C4.63555 25.4376 5.1306 26.6438 5.97466 27.5897C6.81872 28.5356 7.96096 29.1644 9.21169 29.3714V18.96Z" fill="#17494D"/>
<path d="M28.8905 37.029H24.1591C23.7802 37.029 23.4169 36.8785 23.149 36.6106C22.8811 36.3427 22.7305 35.9793 22.7305 35.6005C22.7305 35.2216 22.8811 34.8582 23.149 34.5903C23.4169 34.3224 23.7802 34.1719 24.1591 34.1719H28.8905C29.6301 34.1719 30.3394 33.8781 30.8624 33.3551C31.3853 32.8322 31.6791 32.1229 31.6791 31.3833V30.7548C31.6791 30.3759 31.8296 30.0125 32.0975 29.7446C32.3654 29.4767 32.7288 29.3262 33.1077 29.3262C33.4866 29.3262 33.8499 29.4767 34.1178 29.7446C34.3858 30.0125 34.5363 30.3759 34.5363 30.7548V31.3833C34.5363 32.8807 33.9414 34.3167 32.8827 35.3754C31.8239 36.4342 30.3879 37.029 28.8905 37.029Z" fill="#17494D"/>
<path d="M21.7158 39.7137H18.893C17.8564 39.7137 16.8622 39.302 16.1292 38.569C15.3962 37.836 14.9844 36.8418 14.9844 35.8052V35.6452C14.9874 34.6105 15.4006 33.6193 16.1332 32.8888C16.8659 32.1583 17.8583 31.748 18.893 31.748H21.7158C22.7494 31.748 23.7407 32.1586 24.4715 32.8895C25.2024 33.6203 25.613 34.6116 25.613 35.6452V35.8052C25.613 36.8398 25.2028 37.8323 24.4722 38.5649C23.7417 39.2976 22.7505 39.7107 21.7158 39.7137ZM18.9158 34.6052C18.639 34.6052 18.3732 34.7144 18.1764 34.9091C17.9795 35.1038 17.8674 35.3683 17.8644 35.6452V35.8052C17.8644 36.084 17.9752 36.3515 18.1724 36.5486C18.3695 36.7458 18.637 36.8566 18.9158 36.8566H21.7158C21.9927 36.8536 22.2572 36.7415 22.4519 36.5446C22.6467 36.3478 22.7559 36.0821 22.7558 35.8052V35.6452C22.7558 35.3694 22.6463 35.1048 22.4512 34.9098C22.2562 34.7147 21.9917 34.6052 21.7158 34.6052H18.9158Z" fill="#17494D"/>
<path d="M9.71373 17.1426C7.74355 17.1426 5.85406 17.9252 4.46093 19.3183C3.06781 20.7115 2.28516 22.6009 2.28516 24.5711C2.28516 26.5413 3.06781 28.4308 4.46093 29.8239C5.85406 31.217 7.74355 31.9997 9.71373 31.9997V24.5711V17.1426Z" fill="#17494D"/>
<path d="M30.2852 17.1426C32.2553 17.1426 34.1448 17.9252 35.538 19.3183C36.9311 20.7115 37.7137 22.6009 37.7137 24.5711C37.7137 26.5413 36.9311 28.4308 35.538 29.8239C34.1448 31.217 32.2553 31.9997 30.2852 31.9997V24.5711V17.1426Z" fill="#17494D"/>
</svg>
