<svg width="68" height="68" viewBox="0 0 68 68" fill="none" xmlns="http://www.w3.org/2000/svg">
<mask id="mask0_1675_118467" style="mask-type:luminance" maskUnits="userSpaceOnUse" x="3" y="3" width="61" height="61">
<path d="M64 3H3V64H64V3Z" fill="white"/>
</mask>
<g mask="url(#mask0_1675_118467)">
<path d="M33.4996 3C16.6823 3 3 16.6823 3 33.5C3 50.3177 16.6823 63.9996 33.4996 63.9996C50.3177 63.9996 64 50.3175 64 33.5C64 16.6823 50.3177 3 33.4996 3ZM33.4996 59.1029C19.3825 59.1029 7.89714 47.6174 7.89714 33.5C7.89714 19.3825 19.3825 7.89714 33.4996 7.89714C47.6174 7.89714 59.1029 19.3825 59.1029 33.5C59.1029 47.6174 47.6174 59.1029 33.4996 59.1029Z" fill="#17494D"/>
<path d="M54.079 25.1443L50.5237 19.7548C49.7789 18.6259 48.2602 18.3148 47.1313 19.0591C46.0022 19.8038 45.6909 21.3226 46.4355 22.4515L49.301 26.7954L42.945 43.5441L34.2241 22.6951C33.7023 21.4476 32.2672 20.8596 31.0204 21.3813C29.7725 21.903 29.1843 23.3375 29.7062 24.5851L32.4447 31.1313L27.7343 43.5441L19.0125 22.6951C18.4905 21.4476 17.0566 20.8596 15.8088 21.3813C14.5614 21.9034 13.973 23.3375 14.4951 24.5851L25.5865 51.0988C25.9681 52.0105 26.8593 52.6022 27.8449 52.6022C27.8587 52.6022 27.8728 52.6018 27.8864 52.6018C28.8884 52.5852 29.779 51.9593 30.1348 51.0223L35.1917 37.6969L40.7976 51.0988C41.1789 52.0105 42.0705 52.6022 43.0561 52.6022C43.0699 52.6022 43.0835 52.6018 43.0973 52.6018C44.0992 52.5852 44.9898 51.9593 45.3458 51.0223L54.3248 27.361C54.6036 26.6258 54.5121 25.8009 54.079 25.1443Z" fill="#17494D"/>
</g>
</svg>
