<svg width="40" height="40" viewBox="0 0 40 40" fill="none" xmlns="http://www.w3.org/2000/svg">
<g clip-path="url(#clip0_1630_1269)">
<mask id="mask0_1630_1269" style="mask-type:luminance" maskUnits="userSpaceOnUse" x="0" y="0" width="40" height="40">
<path d="M40 0H0V40H40V0Z" fill="white"/>
</mask>
<g mask="url(#mask0_1630_1269)">
<mask id="mask1_1630_1269" style="mask-type:luminance" maskUnits="userSpaceOnUse" x="0" y="0" width="40" height="40">
<path d="M40 0H0V40H40V0Z" fill="white"/>
</mask>
<g mask="url(#mask1_1630_1269)">
<path d="M2.85547 2.85742H4.28404V4.28599H2.85547V2.85742Z" fill="#44CE78"/>
<path d="M2.85547 25.7148H4.28404V27.1434H2.85547V25.7148Z" fill="#44CE78"/>
<path d="M0 23.5717V29.286C0 29.4754 0.075255 29.6571 0.20921 29.7911C0.343164 29.925 0.524845 30.0003 0.714286 30.0003H14.2857V22.8574H0.714286C0.524845 22.8574 0.343164 22.9327 0.20921 23.0666C0.075255 23.2006 0 23.3823 0 23.5717ZM7.14286 25.0003C7.14286 24.8108 7.21811 24.6292 7.35207 24.4952C7.48602 24.3612 7.6677 24.286 7.85714 24.286H10.7143C10.9037 24.286 11.0854 24.3612 11.2194 24.4952C11.3533 24.6292 11.4286 24.8108 11.4286 25.0003V27.8574C11.4286 28.0469 11.3533 28.2285 11.2194 28.3625C11.0854 28.4964 10.9037 28.5717 10.7143 28.5717H7.85714C7.6677 28.5717 7.48602 28.4964 7.35207 28.3625C7.21811 28.2285 7.14286 28.0469 7.14286 27.8574V25.0003ZM1.42857 25.0003C1.42857 24.8108 1.50383 24.6292 1.63778 24.4952C1.77174 24.3612 1.95342 24.286 2.14286 24.286H5C5.18944 24.286 5.37112 24.3612 5.50508 24.4952C5.63903 24.6292 5.71429 24.8108 5.71429 25.0003V27.8574C5.71429 28.0469 5.63903 28.2285 5.50508 28.3625C5.37112 28.4964 5.18944 28.5717 5 28.5717H2.14286C1.95342 28.5717 1.77174 28.4964 1.63778 28.3625C1.50383 28.2285 1.42857 28.0469 1.42857 27.8574V25.0003Z" fill="#44CE78"/>
<path d="M7.14453 20H14.2874V21.4286H7.14453V20Z" fill="#44CE78"/>
<path d="M8.57031 25.7148H9.99888V27.1434H8.57031V25.7148Z" fill="#44CE78"/>
<path d="M2.85547 20H5.71261V21.4286H2.85547V20Z" fill="#44CE78"/>
<path d="M21.4297 8.57227H24.2868V10.0008H21.4297V8.57227Z" fill="#44CE78"/>
<path d="M27.1429 6.42857V0.714286C27.1429 0.524845 27.0676 0.343164 26.9336 0.20921C26.7997 0.075255 26.618 0 26.4286 0H0.714286C0.524845 0 0.343164 0.075255 0.20921 0.20921C0.075255 0.343164 0 0.524845 0 0.714286V6.42857C0 6.61801 0.075255 6.79969 0.20921 6.93365C0.343164 7.0676 0.524845 7.14286 0.714286 7.14286H26.4286C26.618 7.14286 26.7997 7.0676 26.9336 6.93365C27.0676 6.79969 27.1429 6.61801 27.1429 6.42857ZM5.71429 5C5.71429 5.18944 5.63903 5.37112 5.50508 5.50508C5.37112 5.63903 5.18944 5.71429 5 5.71429H2.14286C1.95342 5.71429 1.77174 5.63903 1.63778 5.50508C1.50383 5.37112 1.42857 5.18944 1.42857 5V2.14286C1.42857 1.95342 1.50383 1.77174 1.63778 1.63778C1.77174 1.50383 1.95342 1.42857 2.14286 1.42857H5C5.18944 1.42857 5.37112 1.50383 5.50508 1.63778C5.63903 1.77174 5.71429 1.95342 5.71429 2.14286V5ZM11.4286 5C11.4286 5.18944 11.3533 5.37112 11.2194 5.50508C11.0854 5.63903 10.9037 5.71429 10.7143 5.71429H7.85714C7.6677 5.71429 7.48602 5.63903 7.35207 5.50508C7.21811 5.37112 7.14286 5.18944 7.14286 5V2.14286C7.14286 1.95342 7.21811 1.77174 7.35207 1.63778C7.48602 1.50383 7.6677 1.42857 7.85714 1.42857H10.7143C10.9037 1.42857 11.0854 1.50383 11.2194 1.63778C11.3533 1.77174 11.4286 1.95342 11.4286 2.14286V5ZM22.8571 5.71429H12.8571V4.28571H22.8571V5.71429ZM22.8571 2.85714H12.8571V1.42857H22.8571V2.85714ZM25.7143 5.71429H24.2857V4.28571H25.7143V5.71429ZM25.7143 2.85714H24.2857V1.42857H25.7143V2.85714Z" fill="#44CE78"/>
<path d="M8.57031 2.85742H9.99888V4.28599H8.57031V2.85742Z" fill="#44CE78"/>
<path d="M7.14453 8.57227H20.0017V10.0008H7.14453V8.57227Z" fill="#44CE78"/>
<path d="M2.85547 8.57227H5.71261V10.0008H2.85547V8.57227Z" fill="#44CE78"/>
<path d="M2.85547 14.2852H4.28404V15.7138H2.85547V14.2852Z" fill="#44CE78"/>
<path d="M27.8577 18.5717C34.564 18.5717 40.0005 17.2925 40.0005 15.7146C40.0005 14.1366 34.564 12.8574 27.8577 12.8574C21.1514 12.8574 15.7148 14.1366 15.7148 15.7146C15.7148 17.2925 21.1514 18.5717 27.8577 18.5717Z" fill="#44CE78"/>
<path d="M26.4286 11.4277H0.714286C0.524845 11.4277 0.343164 11.5029 0.20921 11.6369C0.075255 11.7709 0 11.9525 0 12.142V17.8563C0 18.0457 0.075255 18.2274 0.20921 18.3613C0.343164 18.4953 0.524845 18.5705 0.714286 18.5705H14.2857V15.7134C14.2857 13.0848 20.2429 11.6277 26.5286 11.4491C26.4961 11.4386 26.4625 11.4314 26.4286 11.4277ZM5.71429 16.4277C5.71429 16.6171 5.63903 16.7988 5.50508 16.9328C5.37112 17.0667 5.18944 17.142 5 17.142H2.14286C1.95342 17.142 1.77174 17.0667 1.63778 16.9328C1.50383 16.7988 1.42857 16.6171 1.42857 16.4277V13.5705C1.42857 13.3811 1.50383 13.1994 1.63778 13.0655C1.77174 12.9315 1.95342 12.8563 2.14286 12.8563H5C5.18944 12.8563 5.37112 12.9315 5.50508 13.0655C5.63903 13.1994 5.71429 13.3811 5.71429 13.5705V16.4277ZM11.4286 16.4277C11.4286 16.6171 11.3533 16.7988 11.2194 16.9328C11.0854 17.0667 10.9037 17.142 10.7143 17.142H7.85714C7.6677 17.142 7.48602 17.0667 7.35207 16.9328C7.21811 16.7988 7.14286 16.6171 7.14286 16.4277V13.5705C7.14286 13.3811 7.21811 13.1994 7.35207 13.0655C7.48602 12.9315 7.6677 12.8563 7.85714 12.8563H10.7143C10.9037 12.8563 11.0854 12.9315 11.2194 13.0655C11.3533 13.1994 11.4286 13.3811 11.4286 13.5705V16.4277Z" fill="#44CE78"/>
<path d="M15.7148 24.8711V29.9996C15.7148 30.9711 20.0005 32.8568 27.8577 32.8568C35.7148 32.8568 40.0005 30.9711 40.0005 29.9996V24.8711C37.6505 26.3639 32.7434 27.1425 27.8577 27.1425C22.972 27.1425 18.0648 26.3639 15.7148 24.8711ZM28.572 31.4282H27.1434V29.9996H28.572V31.4282Z" fill="#44CE78"/>
<path d="M15.7148 32.0137V37.1423C15.7148 38.1137 20.0005 39.9994 27.8577 39.9994C35.7148 39.9994 40.0005 38.1137 40.0005 37.1423V32.0137C37.6505 33.5065 32.7434 34.2851 27.8577 34.2851C22.972 34.2851 18.0648 33.5065 15.7148 32.0137ZM28.572 37.8565H27.1434V36.428H28.572V37.8565Z" fill="#44CE78"/>
<path d="M15.7148 17.7285V22.857C15.7148 23.8285 20.0005 25.7142 27.8577 25.7142C35.7148 25.7142 40.0005 23.8285 40.0005 22.857V17.7285C37.6505 19.2213 32.7434 19.9999 27.8577 19.9999C22.972 19.9999 18.0648 19.2213 15.7148 17.7285ZM28.572 23.5713H27.1434V22.1428H28.572V23.5713Z" fill="#44CE78"/>
<path d="M8.57031 14.2852H9.99888V15.7138H8.57031V14.2852Z" fill="#44CE78"/>
</g>
</g>
</g>
<defs>
<clipPath id="clip0_1630_1269">
<rect width="40" height="40" fill="white"/>
</clipPath>
</defs>
</svg>
