<svg width="54" height="54" viewBox="0 0 54 54" fill="none" xmlns="http://www.w3.org/2000/svg">
<mask id="mask0_1630_1341" style="mask-type:luminance" maskUnits="userSpaceOnUse" x="6" y="6" width="43" height="43">
<path d="M48.16 6H6V48.16H48.16V6Z" fill="white"/>
</mask>
<g mask="url(#mask0_1630_1341)">
<path d="M37.0008 33.1699C34.5968 37.2433 31.1433 40.5967 27.0008 42.8799C22.8768 40.5896 19.4412 37.2368 17.0508 33.1699H37.0008Z" fill="#44CE78"/>
<path d="M40.6805 18.8899V15.0999L27.0805 10.9199L13.4805 15.0999V18.8899H40.6805Z" fill="#44CE78"/>
<path d="M27.0816 42.0996C30.6019 40.0772 33.5935 37.2501 35.8116 33.8496H18.3516C20.5697 37.2501 23.5612 40.0772 27.0816 42.0996Z" fill="#44CE78"/>
<path d="M14.1602 15.5996V18.2096H40.0002V15.5996L27.0802 11.5996L14.1602 15.5996ZM25.0002 16.8496H23.6802V15.4896H25.0002V16.8496ZM29.0802 15.4896H30.4402V16.8496H29.1202L29.0802 15.4896ZM27.7202 16.8496H26.4002V15.4896H27.7602L27.7202 16.8496Z" fill="#44CE78"/>
<path d="M23.6797 15.4902H24.9997V16.8502H23.6797V15.4902Z" fill="#44CE78"/>
<path d="M26.3984 15.4902H27.7584V16.8502H26.3984V15.4902Z" fill="#44CE78"/>
<path d="M29.1211 15.4902H30.4811V16.8502H29.1211V15.4902Z" fill="#44CE78"/>
<path d="M46.12 18.2001H41.36V15.0801C41.36 14.9347 41.3134 14.7931 41.227 14.6761C41.1406 14.5591 41.019 14.4729 40.88 14.4301L27.28 10.2401C27.1497 10.2 27.0103 10.2 26.88 10.2401L13.28 14.4301C13.141 14.4729 13.0194 14.5591 12.933 14.6761C12.8466 14.7931 12.8 14.9347 12.8 15.0801V19.5601H46.12C46.2097 19.5588 46.2987 19.5754 46.3818 19.6091C46.4649 19.6428 46.5404 19.6929 46.6038 19.7563C46.6673 19.8197 46.7173 19.8952 46.751 19.9783C46.7847 20.0614 46.8013 20.1505 46.8 20.2401V31.8201C46.8 32.0005 46.7284 32.1734 46.6008 32.301C46.4733 32.4285 46.3003 32.5001 46.12 32.5001H8C7.81965 32.5001 7.64669 32.4285 7.51917 32.301C7.39164 32.1734 7.32 32.0005 7.32 31.8201V20.2401C7.31865 20.1505 7.33532 20.0614 7.36901 19.9783C7.40271 19.8952 7.45275 19.8197 7.51616 19.7563C7.57958 19.6929 7.65508 19.6428 7.73819 19.6091C7.8213 19.5754 7.91033 19.5588 8 19.5601H11.4V18.2001H10.08V13.0701C10.0784 12.9243 10.1244 12.7819 10.211 12.6646C10.2976 12.5473 10.4202 12.4615 10.56 12.4201L26.88 7.42016C27.0103 7.38006 27.1497 7.38006 27.28 7.42016L43.6 12.4201C43.7398 12.4615 43.8624 12.5473 43.949 12.6646C44.0356 12.7819 44.0816 12.9243 44.08 13.0701V16.8301H45.44V13.0701C45.4466 12.6323 45.3092 12.2044 45.0491 11.8521C44.789 11.4998 44.4204 11.2427 44 11.1201L27.68 6.09016C27.2894 5.96734 26.8706 5.96734 26.48 6.09016L10.16 11.0901C9.73112 11.2148 9.35632 11.4795 9.09535 11.842C8.83437 12.2044 8.70224 12.6438 8.72 13.0901V18.2001H8C7.46957 18.2001 6.96086 18.4108 6.58579 18.7859C6.21071 19.161 6 19.6697 6 20.2001V31.8201C6 32.3506 6.21071 32.8593 6.58579 33.2343C6.96086 33.6094 7.46957 33.8201 8 33.8201H16.72C19.1556 37.8505 22.603 41.1738 26.72 43.4601C26.8215 43.5144 26.9349 43.5428 27.05 43.5428C27.1651 43.5428 27.2785 43.5144 27.38 43.4601C31.497 41.1738 34.9444 37.8505 37.38 33.8201H40.54C37.5434 39.4476 32.8276 43.9708 27.08 46.7301C21.6727 44.1701 17.1681 40.0316 14.16 34.8601L13 35.5501C14.0732 37.377 15.326 39.0922 16.74 40.6701H10.74V42.0001H18C18.9929 42.9786 20.0521 43.8874 21.17 44.7201H10.76V46.0901H23.17C24.3329 46.8389 25.5458 47.5071 26.8 48.0901C26.888 48.1299 26.9834 48.1504 27.08 48.1504C27.1766 48.1504 27.272 48.1299 27.36 48.0901C28.6121 47.5028 29.8246 46.8347 30.99 46.0901H43.4V44.7501H33C34.1019 43.9062 35.1444 42.9874 36.12 42.0001H43.4V40.6701H37.4C39.2518 38.6173 40.8222 36.3272 42.07 33.8601H46.07C46.6004 33.8601 47.1091 33.6494 47.4842 33.2743C47.8593 32.8993 48.07 32.3906 48.07 31.8601V20.2401C48.07 19.7097 47.8593 19.201 47.4842 18.8259C47.1091 18.4508 46.6004 18.2401 46.07 18.2401L46.12 18.2001ZM40 18.2001H14.16V15.6001L27.08 11.6001L40 15.6001V18.2001ZM27.08 42.1001C23.5596 40.0777 20.5681 37.2506 18.35 33.8501H35.81C33.5919 37.2506 30.6004 40.0777 27.08 42.1001Z" fill="#44CE78"/>
</g>
</svg>
