<svg width="40" height="40" viewBox="0 0 40 40" fill="none" xmlns="http://www.w3.org/2000/svg">
<path d="M20.1817 18.52C23.6317 18.52 26.4417 15.71 26.4417 12.26C26.4417 8.81 23.6317 6 20.1817 6C16.7317 6 13.9217 8.81 13.9217 12.26C13.9217 15.71 16.7317 18.52 20.1817 18.52ZM20.1817 8.18C22.4317 8.18 24.2617 10.02 24.2617 12.26C24.2617 14.5 22.4317 16.34 20.1817 16.34C17.9317 16.34 16.1017 14.51 16.1017 12.26C16.1017 10.01 17.9417 8.18 20.1817 8.18ZM38.2717 15.05H34.1917V10.97C34.1917 10.37 33.7017 9.88 33.1017 9.88C32.5017 9.88 32.0117 10.37 32.0117 10.97V15.05H27.9317C27.3317 15.05 26.8417 15.54 26.8417 16.14C26.8417 16.74 27.3317 17.23 27.9317 17.23H32.0117V21.31C32.0117 21.91 32.5017 22.4 33.1017 22.4C33.7017 22.4 34.1917 21.91 34.1917 21.31V17.23H38.2717C38.8717 17.23 39.3717 16.74 39.3717 16.14C39.3717 15.54 38.8817 15.05 38.2717 15.05ZM27.9317 21.51H12.4317C10.4117 21.51 8.76172 23.15 8.76172 25.18V32.93C8.76172 33.53 9.25172 34.02 9.86172 34.02H30.5217C31.1217 34.02 31.6117 33.53 31.6117 32.93V25.18C31.6117 23.15 29.9617 21.51 27.9317 21.51ZM29.4317 31.84H10.9317V25.18C10.9317 24.36 11.6017 23.69 12.4217 23.69H27.9317C28.7617 23.69 29.4317 24.36 29.4317 25.18V31.84Z" fill="#104B7A"/>
<path d="M8.55 20.0298C11.29 20.0298 13.52 17.7998 13.52 15.0598C13.52 12.3198 11.29 10.0898 8.55 10.0898C5.81 10.0898 3.59 12.3198 3.59 15.0598C3.59 17.7998 5.82 20.0298 8.55 20.0298ZM8.55 12.2698C10.09 12.2698 11.34 13.5198 11.34 15.0598C11.34 16.5998 10.09 17.8498 8.55 17.8498C7.01 17.8498 5.77 16.5998 5.77 15.0598C5.77 13.5198 7.02 12.2698 8.55 12.2698ZM4.67 25.1998H6.09C6.69 25.1998 7.18 24.7098 7.18 24.1098C7.18 23.5098 6.69 23.0198 6.09 23.0198H4.67C2.65 23.0198 1 24.6698 1 26.6898V31.8598C1 32.4598 1.49 32.9498 2.09 32.9498H5.98C6.58 32.9498 7.07 32.4598 7.07 31.8598C7.07 31.2598 6.58 30.7598 5.98 30.7598H3.18V26.6798C3.18 25.8598 3.85 25.1898 4.67 25.1898V25.1998Z" fill="#44CE78"/>
</svg>
