<svg width="48" height="48" viewBox="0 0 48 48" fill="none" xmlns="http://www.w3.org/2000/svg">
<g clip-path="url(#clip0_1630_1381)">
<mask id="mask0_1630_1381" style="mask-type:luminance" maskUnits="userSpaceOnUse" x="0" y="0" width="48" height="48">
<path d="M48 0H0V48H48V0Z" fill="white"/>
</mask>
<g mask="url(#mask0_1630_1381)">
<mask id="mask1_1630_1381" style="mask-type:luminance" maskUnits="userSpaceOnUse" x="0" y="0" width="48" height="48">
<path d="M48 0H0V48H48V0Z" fill="white"/>
</mask>
<g mask="url(#mask1_1630_1381)">
<path d="M44.6278 16.8751L35.9044 14.3254L35.8688 14.3155C35.6048 14.2458 35.3256 14.2458 35.0616 14.3155L32.9873 14.9216V6.58566C32.9874 2.26219 25.1362 0 17.3804 0C9.62472 0 1.77344 2.26219 1.77344 6.58566V41.4144C1.77344 45.738 9.62472 48 17.3804 48C25.1362 48 32.9874 45.7378 32.9874 41.4144V39.1591L33.1166 39.2351L33.1955 39.2782C33.9061 39.6368 34.6856 39.8162 35.4653 39.8162C36.2449 39.8162 37.0244 39.6368 37.735 39.2782L37.7753 39.2579L43.513 35.8854C45.1899 35.0191 46.2296 33.3138 46.2296 31.4231V18.9772C46.2294 17.996 45.572 17.135 44.6278 16.8751ZM7.82004 4.24294C10.3519 3.3195 13.7471 2.81081 17.3804 2.81081C21.0136 2.81081 24.4088 3.3195 26.9408 4.24294C29.164 5.05387 30.1765 6.02578 30.1765 6.58566C30.1765 7.14544 29.1638 8.11734 26.9408 8.92828C24.4089 9.85172 21.0137 10.3604 17.3804 10.3604C13.7471 10.3604 10.3519 9.85172 7.81994 8.92828C5.59685 8.11734 4.58435 7.14544 4.58435 6.58566C4.58426 6.02578 5.59685 5.05387 7.82004 4.24294ZM4.58416 10.5204C7.55772 12.2706 12.4877 13.1711 17.3803 13.1711C22.273 13.1711 27.2029 12.2706 30.1765 10.5204V15.743L26.3026 16.8751C25.4512 17.1095 24.8347 17.8331 24.7215 18.6924C22.5427 19.2112 20.0449 19.4838 17.4273 19.4838C13.794 19.4838 10.3988 18.9751 7.86682 18.0517C5.64363 17.2407 4.63113 16.2689 4.63113 15.709C4.63113 15.5865 4.61379 15.4682 4.58426 15.3547L4.58416 10.5204ZM4.58416 19.6162C7.55266 21.3845 12.5087 22.2946 17.4271 22.2946C19.9979 22.2946 22.4758 22.0477 24.7009 21.5767V27.4482C22.537 27.9516 19.9816 28.2255 17.3804 28.2255C13.7472 28.2255 10.3519 27.7168 7.81994 26.7934C5.59676 25.9824 4.58426 25.0105 4.58426 24.4508L4.58416 19.6162ZM4.58416 28.3856C7.55782 30.1357 12.4878 31.0363 17.3804 31.0363C19.9812 31.0363 22.4752 30.7925 24.701 30.3273V31.4231C24.701 33.1692 25.5881 34.7567 27.0447 35.6717C24.6195 36.6214 21.1659 37.1782 17.4272 37.1782C13.7939 37.1782 10.3987 36.6695 7.86682 35.746C5.64363 34.9351 4.63113 33.9632 4.63113 33.4033C4.63113 33.2808 4.61379 33.1625 4.58426 33.049L4.58416 28.3856ZM26.9408 43.7571C24.4089 44.6805 21.0137 45.1892 17.3804 45.1892C13.7471 45.1892 10.3519 44.6805 7.81994 43.7571C5.59676 42.9461 4.58426 41.9742 4.58426 41.4144V37.3104C7.55276 39.0788 12.5088 39.989 17.4272 39.989C22.5533 39.989 27.1428 39.0237 29.9624 37.3812L30.1765 37.507V41.4144C30.1765 41.9742 29.1639 42.9461 26.9408 43.7571ZM42.2031 33.3982L42.1628 33.4184L36.4328 36.7863C35.8238 37.08 35.1063 37.08 34.4973 36.7863L28.806 33.4412L28.7272 33.3982C27.9774 33.0197 27.5117 32.2628 27.5117 31.4231V19.8146C27.5117 19.8144 27.5117 19.8148 27.5117 19.8146V19.4501L31.9954 18.1396C31.9975 18.1389 31.9998 18.1384 32.0019 18.1376L35.4651 17.1253L43.4184 19.45V31.4229C43.4185 32.2628 42.9529 33.0197 42.2031 33.3982Z" fill="#44CE78"/>
<path d="M40.6211 23.4314C40.0939 22.8617 39.2047 22.8272 38.6351 23.3543L33.8884 27.7467L32.3367 26.1952C31.7879 25.6463 30.8981 25.6463 30.3492 26.1952C29.8003 26.7439 29.8003 27.6338 30.3492 28.1827L32.8568 30.6903C32.8688 30.7023 32.8818 30.7126 32.8941 30.7241C32.9113 30.7401 32.9285 30.7562 32.9463 30.7712C32.9658 30.7877 32.9859 30.8028 33.006 30.818C33.0243 30.8318 33.0425 30.8459 33.0613 30.8587C33.0826 30.8732 33.1046 30.8864 33.1265 30.8996C33.1451 30.9108 33.1635 30.9224 33.1826 30.9327C33.2061 30.9454 33.2301 30.9565 33.2542 30.9678C33.2726 30.9765 33.2906 30.9857 33.3093 30.9934C33.3352 31.0042 33.3615 31.0132 33.3878 31.0224C33.4054 31.0286 33.4227 31.0354 33.4406 31.0409C33.4691 31.0496 33.4979 31.0562 33.5268 31.063C33.543 31.0668 33.559 31.0716 33.5754 31.0748C33.608 31.0813 33.641 31.0856 33.6738 31.0897C33.6867 31.0913 33.6996 31.094 33.7125 31.0953C33.7586 31.0998 33.8047 31.1023 33.8509 31.1023C33.8948 31.1023 33.939 31.1 33.9828 31.096C33.9952 31.0949 34.0074 31.0924 34.0197 31.0909C34.0511 31.0872 34.0825 31.0832 34.1135 31.0773C34.129 31.0744 34.1441 31.0701 34.1594 31.0667C34.1872 31.0605 34.2149 31.0544 34.2422 31.0464C34.2591 31.0415 34.2757 31.0353 34.2924 31.0298C34.3177 31.0215 34.3431 31.0132 34.368 31.0034C34.3857 30.9963 34.4031 30.9881 34.4205 30.9803C34.4439 30.97 34.4671 30.9598 34.4899 30.9481C34.508 30.9388 34.5256 30.9284 34.5434 30.9182C34.5648 30.9061 34.5862 30.894 34.6071 30.8807C34.6251 30.8691 34.6425 30.8566 34.6601 30.8442C34.68 30.8301 34.6998 30.816 34.7192 30.8007C34.7363 30.7873 34.7528 30.7729 34.7693 30.7586C34.7813 30.7482 34.7938 30.7389 34.8056 30.728L40.5446 25.4174C41.1139 24.8902 41.1483 24.001 40.6211 23.4314Z" fill="#44CE78"/>
</g>
</g>
</g>
<defs>
<clipPath id="clip0_1630_1381">
<rect width="48" height="48" fill="white"/>
</clipPath>
</defs>
</svg>
