<svg width="48" height="48" viewBox="0 0 48 48" fill="none" xmlns="http://www.w3.org/2000/svg">
<g clip-path="url(#clip0_1630_1458)">
<mask id="mask0_1630_1458" style="mask-type:luminance" maskUnits="userSpaceOnUse" x="0" y="0" width="48" height="48">
<path d="M48 0H0V48H48V0Z" fill="white"/>
</mask>
<g mask="url(#mask0_1630_1458)">
<mask id="mask1_1630_1458" style="mask-type:luminance" maskUnits="userSpaceOnUse" x="0" y="0" width="48" height="48">
<path d="M48 0H0V48H48V0Z" fill="white"/>
</mask>
<g mask="url(#mask1_1630_1458)">
<path d="M26.936 5.73719H19.7364V0H26.936V5.73719ZM23.848 12.4832L26.936 15.1083V7.31743H19.7364V15.1083L22.8245 12.4832C23.1196 12.2324 23.5529 12.2323 23.848 12.4832ZM18.1561 0H6.51318L1.70341 5.73719H18.156L18.1561 0ZM23.3559 36.0628C23.3493 36.063 23.3429 36.0638 23.3362 36.0638C23.3297 36.0638 23.3234 36.063 23.3169 36.0628C23.0698 36.0736 22.8644 36.2835 22.8644 36.5325C22.8644 36.7927 23.0761 37.0043 23.3362 37.0043C23.5962 37.0043 23.8079 36.7927 23.8079 36.5325C23.8079 36.2792 23.6067 36.0735 23.3559 36.0628ZM31.7063 37.3228C31.3321 41.3294 28.1339 44.5273 24.1263 44.9026V43.9608C24.1263 43.5244 23.7725 43.1707 23.3362 43.1707C22.8998 43.1707 22.5461 43.5244 22.5461 43.9608V44.9026C18.5394 44.5274 15.3417 41.331 14.9662 37.3257H15.908C16.3444 37.3257 16.6982 36.972 16.6982 36.5356C16.6982 36.0993 16.3444 35.7455 15.908 35.7455H14.9662C15.3415 31.7387 18.5393 28.5409 22.5461 28.1656V29.1076C22.5461 29.5439 22.8998 29.8977 23.3362 29.8977C23.7725 29.8977 24.1263 29.5439 24.1263 29.1076V28.1656C28.132 28.5408 31.3293 31.7371 31.7059 35.7424H30.7642C30.3279 35.7424 29.9741 36.0962 29.9741 36.5325C29.9741 36.9689 30.3279 37.3227 30.7642 37.3227L31.7063 37.3228ZM26.751 38.8332L25.2331 37.313C25.3325 37.0722 25.3881 36.8089 25.3881 36.5326C25.3881 35.6811 24.8666 34.9493 24.1263 34.6392V31.5087C24.1263 31.0724 23.7725 30.7186 23.3362 30.7186C22.8998 30.7186 22.5461 31.0724 22.5461 31.5087V34.6391C21.8057 34.9492 21.2841 35.681 21.2841 36.5325C21.2841 37.6641 22.2046 38.5846 23.3362 38.5846C23.612 38.5846 23.875 38.5291 24.1155 38.4299L25.6328 39.9495C25.7871 40.1041 25.9894 40.1814 26.1919 40.1814C26.3944 40.1814 26.5959 40.1044 26.7501 39.9504C27.059 39.6421 27.0594 39.1419 26.751 38.8332ZM40.1592 0H28.5161V5.73719H44.9711L40.1592 0ZM34.8035 36.5356C34.8035 42.8571 29.6593 48 23.3362 48C17.0131 48 11.8687 42.8571 11.8687 36.5356C11.8687 30.2141 17.013 25.0682 23.3362 25.0682C29.6594 25.0682 34.8035 30.2124 34.8035 36.5356ZM33.3245 36.5356C33.3245 31.028 28.8438 26.5472 23.3361 26.5472C17.8284 26.5472 13.3476 31.028 13.3476 36.5356C13.3476 42.0433 17.8283 46.5211 23.3361 46.5211C28.8438 46.5211 33.3245 42.0417 33.3245 36.5356ZM45.9822 7.31743H28.5162V16.8172C28.5162 17.1251 28.3373 17.4051 28.0577 17.5343C27.9517 17.5833 27.8386 17.6073 27.7262 17.6073C27.5422 17.6073 27.3601 17.543 27.2143 17.4192L23.3362 14.1223L19.458 17.4192C19.2231 17.6187 18.894 17.6635 18.6146 17.5343C18.335 17.405 18.156 17.1251 18.156 16.8172V7.31743H0.690074C0.309531 7.31743 0 7.62696 0 8.00751V42.6209C0 42.9951 0.316049 43.311 0.690074 43.311H12.1904C10.9842 41.335 10.2885 39.015 10.2885 36.5355C10.2885 29.341 16.1417 23.4879 23.3362 23.4879C30.5307 23.4879 36.3837 29.341 36.3837 36.5355C36.3837 39.015 35.688 41.335 34.4818 43.311H45.982C46.3561 43.311 46.6722 42.995 46.6722 42.6209V8.00751C46.6722 7.63338 46.3563 7.31743 45.9822 7.31743Z" fill="#043D5F"/>
</g>
</g>
</g>
<defs>
<clipPath id="clip0_1630_1458">
<rect width="48" height="48" fill="white"/>
</clipPath>
</defs>
</svg>
