<svg width="15" height="15" viewBox="0 0 15 15" fill="none" xmlns="http://www.w3.org/2000/svg">
<g clip-path="url(#clip0_1259_897)">
<path d="M1.45801 7.56763C1.34198 7.56763 1.2307 7.52153 1.14865 7.43949C1.0666 7.35744 1.02051 7.24616 1.02051 7.13013C1.02051 7.01409 1.0666 6.90281 1.14865 6.82077C1.2307 6.73872 1.34198 6.69263 1.45801 6.69263H2.77051V4.94263H1.45801C1.34198 4.94263 1.2307 4.89653 1.14865 4.81449C1.0666 4.73244 1.02051 4.62116 1.02051 4.50513C1.02051 4.38909 1.0666 4.27781 1.14865 4.19577C1.2307 4.11372 1.34198 4.06763 1.45801 4.06763H2.81426C2.90489 3.63249 3.12593 3.23529 3.44794 2.92891C3.76995 2.62253 4.17765 2.42152 4.61676 2.35263V1.00513C4.61676 0.889095 4.66285 0.777815 4.7449 0.695768C4.82695 0.613721 4.93823 0.567627 5.05426 0.567627C5.17029 0.567627 5.28157 0.613721 5.36362 0.695768C5.44566 0.777815 5.49176 0.889095 5.49176 1.00513V2.31763H7.14551V1.00513C7.14551 0.889095 7.1916 0.777815 7.27365 0.695768C7.3557 0.613721 7.46698 0.567627 7.58301 0.567627C7.69904 0.567627 7.81032 0.613721 7.89237 0.695768C7.97441 0.777815 8.02051 0.889095 8.02051 1.00513V2.31763H9.86676V1.00513C9.86676 0.889095 9.91285 0.777815 9.9949 0.695768C10.0769 0.613721 10.1882 0.567627 10.3043 0.567627C10.4203 0.567627 10.5316 0.613721 10.6136 0.695768C10.6957 0.777815 10.7418 0.889095 10.7418 1.00513V2.392C11.1404 2.49186 11.5029 2.702 11.7877 2.99836C12.0724 3.29471 12.2679 3.66529 12.3518 4.06763H13.708C13.824 4.06763 13.9353 4.11372 14.0174 4.19577C14.0994 4.27781 14.1455 4.38909 14.1455 4.50513C14.1455 4.62116 14.0994 4.73244 14.0174 4.81449C13.9353 4.89653 13.824 4.94263 13.708 4.94263H12.3955V6.69263H13.708C13.824 6.69263 13.9353 6.73872 14.0174 6.82077C14.0994 6.90281 14.1455 7.01409 14.1455 7.13013C14.1455 7.24616 14.0994 7.35744 14.0174 7.43949C13.9353 7.52153 13.824 7.56763 13.708 7.56763H12.3955V9.31763H13.708C13.824 9.31763 13.9353 9.36372 14.0174 9.44577C14.0994 9.52781 14.1455 9.63909 14.1455 9.75513C14.1455 9.87116 14.0994 9.98244 14.0174 10.0645C13.9353 10.1465 13.824 10.1926 13.708 10.1926H12.3518C12.2679 10.595 12.0724 10.9655 11.7877 11.2619C11.5029 11.5583 11.1404 11.7684 10.7418 11.8683V13.2551C10.7418 13.3712 10.6957 13.4824 10.6136 13.5645C10.5316 13.6465 10.4203 13.6926 10.3043 13.6926C10.1882 13.6926 10.0769 13.6465 9.9949 13.5645C9.91285 13.4824 9.86676 13.3712 9.86676 13.2551V11.9426H8.02051V13.2551C8.02051 13.3712 7.97441 13.4824 7.89237 13.5645C7.81032 13.6465 7.69904 13.6926 7.58301 13.6926C7.46698 13.6926 7.3557 13.6465 7.27365 13.5645C7.1916 13.4824 7.14551 13.3712 7.14551 13.2551V11.9426H5.49176V13.2551C5.49176 13.3712 5.44566 13.4824 5.36362 13.5645C5.28157 13.6465 5.17029 13.6926 5.05426 13.6926C4.93823 13.6926 4.82695 13.6465 4.7449 13.5645C4.66285 13.4824 4.61676 13.3712 4.61676 13.2551V11.9076C4.17765 11.8387 3.76995 11.6377 3.44794 11.3313C3.12593 11.025 2.90489 10.6278 2.81426 10.1926H1.45801C1.34198 10.1926 1.2307 10.1465 1.14865 10.0645C1.0666 9.98244 1.02051 9.87116 1.02051 9.75513C1.02051 9.63909 1.0666 9.52781 1.14865 9.44577C1.2307 9.36372 1.34198 9.31763 1.45801 9.31763H2.77051V7.56763H1.45801ZM4.95801 11.0676H10.208C10.5561 11.0676 10.8899 10.9293 11.1361 10.6832C11.3822 10.4371 11.5205 10.1032 11.5205 9.75513V4.50513C11.5205 4.15703 11.3822 3.82319 11.1361 3.57705C10.8899 3.33091 10.5561 3.19263 10.208 3.19263H4.95801C4.60991 3.19263 4.27607 3.33091 4.02993 3.57705C3.78379 3.82319 3.64551 4.15703 3.64551 4.50513V9.75513C3.64551 10.1032 3.78379 10.4371 4.02993 10.6832C4.27607 10.9293 4.60991 11.0676 4.95801 11.0676Z" fill="#FFA054"/>
<path d="M5.83301 4.06763H9.33301C9.6811 4.06763 10.0149 4.20591 10.2611 4.45205C10.5072 4.69819 10.6455 5.03203 10.6455 5.38013V8.88013C10.6455 9.22822 10.5072 9.56206 10.2611 9.8082C10.0149 10.0543 9.6811 10.1926 9.33301 10.1926H5.83301C5.48491 10.1926 5.15107 10.0543 4.90493 9.8082C4.65879 9.56206 4.52051 9.22822 4.52051 8.88013V5.38013C4.52051 5.03203 4.65879 4.69819 4.90493 4.45205C5.15107 4.20591 5.48491 4.06763 5.83301 4.06763ZM5.39551 8.88013C5.39551 8.99616 5.4416 9.10744 5.52365 9.18949C5.6057 9.27153 5.71698 9.31763 5.83301 9.31763H9.33301C9.44904 9.31763 9.56032 9.27153 9.64237 9.18949C9.72441 9.10744 9.77051 8.99616 9.77051 8.88013V5.38013C9.77051 5.26409 9.72441 5.15281 9.64237 5.07077C9.56032 4.98872 9.44904 4.94263 9.33301 4.94263H5.83301C5.71698 4.94263 5.6057 4.98872 5.52365 5.07077C5.4416 5.15281 5.39551 5.26409 5.39551 5.38013V8.88013Z" fill="#FFA054"/>
</g>
<defs>
<clipPath id="clip0_1259_897">
<rect width="14" height="14" fill="white" transform="matrix(-1 0 0 1 14.583 0.130127)"/>
</clipPath>
</defs>
</svg>
