<svg width="48" height="48" viewBox="0 0 48 48" fill="none" xmlns="http://www.w3.org/2000/svg">
<path fill-rule="evenodd" clip-rule="evenodd" d="M30.248 22.1093V13.9191H33.4783L34.4562 16.4641C35.8102 16.7859 37.1015 17.3208 38.2883 18.0521L40.779 16.9447L43.7126 19.8783L42.6094 22.369C43.3407 23.5559 43.8756 24.8472 44.1974 26.2053L46.7382 27.1832V31.333L44.1974 32.3108C43.8756 33.6648 43.3365 34.9561 42.6094 36.143L43.7126 38.6337L40.779 41.5673L38.2883 40.4641C37.1056 41.1954 35.8102 41.7303 34.4562 42.0521L33.4783 44.5929H30.248V36.4068C30.6235 36.4669 31.0088 36.4982 31.4013 36.4982C35.4006 36.4982 38.6435 33.2553 38.6435 29.256C38.6435 25.2567 35.4006 22.018 31.4013 22.018C31.0088 22.018 30.6235 22.0492 30.248 22.1093ZM28.648 2.7648V45.2352C28.648 46.7611 27.4091 48 25.8832 48H3.7648C2.2388 48 1 46.7611 1 45.2352V2.7648C1 1.2389 2.2388 0 3.7648 0H25.8832C27.4091 0 28.648 1.2389 28.648 2.7648ZM9.3508 9.0414H24.8397C25.2812 9.0414 25.6397 8.6829 25.6397 8.2414C25.6397 7.7999 25.2812 7.4414 24.8397 7.4414H9.3508C9.0236 6.5426 8.1611 5.8999 7.1498 5.8999C5.8575 5.8999 4.8083 6.9491 4.8083 8.2414C4.8083 9.5337 5.8575 10.5829 7.1498 10.5829C8.1611 10.5829 9.0236 9.9403 9.3508 9.0414ZM20.2972 31.0793H4.8083C4.3667 31.0793 4.0083 31.4378 4.0083 31.8793C4.0083 32.3208 4.3667 32.6793 4.8083 32.6793H20.2972C20.6243 33.5781 21.4868 34.2208 22.4982 34.2208C23.7905 34.2208 24.8397 33.1716 24.8397 31.8793C24.8397 30.587 23.7905 29.5378 22.4982 29.5378C21.4868 29.5378 20.6243 30.1804 20.2972 31.0793ZM9.3508 24.8H24.8397C25.2812 24.8 25.6397 24.4415 25.6397 24C25.6397 23.5585 25.2812 23.2 24.8397 23.2H9.3508C9.0236 22.3011 8.1611 21.6585 7.1498 21.6585C5.8575 21.6585 4.8083 22.7077 4.8083 24C4.8083 25.2923 5.8575 26.3415 7.1498 26.3415C8.1611 26.3415 9.0236 25.6989 9.3508 24.8ZM20.2972 15.3207H4.8083C4.3667 15.3207 4.0083 15.6792 4.0083 16.1207C4.0083 16.5622 4.3667 16.9207 4.8083 16.9207H20.2972C20.6243 17.8196 21.4868 18.4622 22.4982 18.4622C23.7905 18.4622 24.8397 17.413 24.8397 16.1207C24.8397 14.8284 23.7905 13.7792 22.4982 13.7792C21.4868 13.7792 20.6243 14.4219 20.2972 15.3207ZM9.3508 40.5586H24.8397C25.2812 40.5586 25.6397 40.2001 25.6397 39.7586C25.6397 39.3171 25.2812 38.9586 24.8397 38.9586H9.3508C9.0236 38.0597 8.1611 37.4171 7.1498 37.4171C5.8575 37.4171 4.8083 38.4663 4.8083 39.7586C4.8083 41.0509 5.8575 42.1001 7.1498 42.1001C8.1611 42.1001 9.0236 41.4574 9.3508 40.5586Z" fill="#043D5F"/>
</svg>
