<svg width="52" height="52" viewBox="0 0 52 52" fill="none" xmlns="http://www.w3.org/2000/svg">
<mask id="mask0_1630_1557" style="mask-type:luminance" maskUnits="userSpaceOnUse" x="5" y="6" width="42" height="41">
<path d="M46.31 6H5V46.86H46.31V6Z" fill="white"/>
</mask>
<g mask="url(#mask0_1630_1557)">
<path d="M21.5993 42.2701L16.9993 37.6301V39.7201C16.9992 39.8981 16.9357 40.0704 16.8203 40.2059C16.7049 40.3415 16.545 40.4316 16.3693 40.4601C15.2193 40.6401 11.5093 40.8701 8.44922 36.8301C8.49059 37.9511 8.76962 39.0505 9.26784 40.0556C9.76606 41.0607 10.4721 41.9484 11.3393 42.6601C12.719 43.6629 14.4077 44.1479 16.1093 44.0301H16.2093C16.4074 44.0327 16.5966 44.1125 16.7367 44.2526C16.8768 44.3927 16.9567 44.582 16.9593 44.7801V46.7801L21.5993 42.2701Z" fill="#043D5F"/>
<path d="M28.8509 13.2891H13.8509C13.2311 13.2917 12.6374 13.5391 12.1991 13.9774C11.7609 14.4156 11.5135 15.0093 11.5109 15.6291V28.6291C11.5185 29.4866 11.2366 30.3216 10.7109 30.9991H18.6209V23.4991C18.6209 22.4807 19.0254 21.5039 19.7456 20.7838C20.4657 20.0637 21.4424 19.6591 22.4609 19.6591H29.4009C30.0245 19.6574 30.6391 19.8085 31.1909 20.0991V15.6291C31.1909 15.0085 30.9443 14.4133 30.5055 13.9745C30.0667 13.5356 29.4715 13.2891 28.8509 13.2891Z" fill="#043D5F"/>
<path d="M43.9994 28.4004H28.9994C28.3779 28.403 27.7827 28.6518 27.3441 29.0922C26.9056 29.5326 26.6594 30.1289 26.6594 30.7504V43.9104C26.654 43.9435 26.654 43.9773 26.6594 44.0104V44.0804C26.6648 44.1135 26.6648 44.1473 26.6594 44.1804C26.6651 44.2068 26.6651 44.234 26.6594 44.2604C26.6594 44.2604 26.6594 44.3304 26.6594 44.3604V44.4304C26.6556 44.4636 26.6556 44.4972 26.6594 44.5304V44.6004C26.6474 44.6616 26.6307 44.7218 26.6094 44.7804C26.6153 44.8033 26.6153 44.8274 26.6094 44.8504V44.9404C26.6153 44.9633 26.6153 44.9874 26.6094 45.0104V45.1004V45.1804V45.2604V45.3304V45.4204V45.4804L26.5194 45.6404V45.7004L26.4694 45.7804L26.4194 45.8504V45.9204V45.9904L26.3594 46.0604H43.9994C44.6226 46.0604 45.2204 45.8128 45.6611 45.3721C46.1018 44.9314 46.3494 44.3336 46.3494 43.7104V30.7104C46.3389 30.0941 46.0867 29.5066 45.6471 29.0745C45.2075 28.6424 44.6158 28.4003 43.9994 28.4004Z" fill="#043D5F"/>
<path d="M7.67034 31C8.29451 30.9921 8.89013 30.7372 9.32681 30.2912C9.7635 29.8451 10.0057 29.2442 10.0003 28.62V15.62C10.0017 15.1149 10.1026 14.615 10.2975 14.1489C10.4923 13.6829 10.7771 13.2599 11.1357 12.9041C11.4943 12.5483 11.9195 12.2668 12.387 12.0756C12.8546 11.8844 13.3553 11.7874 13.8604 11.79H27.4004C27.3672 11.1886 27.1053 10.6227 26.6684 10.2081C26.2315 9.79349 25.6527 9.56164 25.0504 9.56H19.2504C19.0385 9.55988 18.829 9.51634 18.6346 9.43206C18.4403 9.34778 18.2652 9.22456 18.1204 9.07L16.0004 6.76C15.7811 6.52481 15.5167 6.33627 15.2228 6.20569C14.929 6.0751 14.6119 6.00514 14.2904 6H7.34034C6.71973 6 6.12454 6.24654 5.68571 6.68537C5.24687 7.12421 5.00034 7.71939 5.00034 8.34V28.62C4.99502 28.9306 5.05163 29.2392 5.16684 29.5278C5.28206 29.8163 5.45358 30.079 5.6714 30.3005C5.88922 30.5221 6.14898 30.698 6.43552 30.8181C6.72206 30.9382 7.02965 31 7.34034 31H7.67034Z" fill="#043D5F"/>
<path d="M29.3994 21.1192H22.4594C21.8387 21.1218 21.244 21.3689 20.8041 21.8069C20.3642 22.2448 20.1146 22.8385 20.1094 23.4592V38.6492L23.1894 41.7392C23.3298 41.8798 23.4087 42.0704 23.4087 42.2692C23.4087 42.468 23.3298 42.6586 23.1894 42.7992L20.6994 45.2792C20.918 45.5313 21.1884 45.7332 21.4921 45.8713C21.7958 46.0093 22.1258 46.0802 22.4594 46.0792H22.7894C23.4109 46.0766 24.0061 45.8278 24.4446 45.3874C24.8832 44.947 25.1294 44.3507 25.1294 43.7292V30.7292C25.1373 29.7089 25.5489 28.7333 26.2741 28.0156C26.9992 27.2979 27.9791 26.8965 28.9994 26.8992H42.5094C42.4786 26.2996 42.2185 25.7348 41.783 25.3216C41.3474 24.9084 40.7697 24.6784 40.1694 24.6792H34.3594C34.1482 24.6782 33.9395 24.6333 33.7467 24.5472C33.5539 24.4611 33.3811 24.3358 33.2394 24.1792L31.1294 21.8792C30.9105 21.6382 30.6433 21.446 30.3453 21.3151C30.0472 21.1842 29.7249 21.1174 29.3994 21.1192Z" fill="#043D5F"/>
</g>
</svg>
