<svg width="52" height="52" viewBox="0 0 52 52" fill="none" xmlns="http://www.w3.org/2000/svg">
<mask id="mask0_1630_1520" style="mask-type:luminance" maskUnits="userSpaceOnUse" x="5" y="4" width="42" height="44">
<path d="M47 4H5V48H47V4Z" fill="white"/>
</mask>
<g mask="url(#mask0_1630_1520)">
<path d="M47.0014 46.6785V36.2692C47.0014 35.9269 46.863 35.5986 46.6165 35.3565C46.3701 35.1145 46.0358 34.9785 45.6873 34.9785H25.9961V48.0005H45.6873C45.863 48.002 46.0372 47.9686 46.1994 47.9023C46.3616 47.8359 46.5085 47.7381 46.6313 47.6146C46.754 47.4911 46.8501 47.3446 46.9137 47.1837C46.9773 47.0228 47.0071 46.851 47.0014 46.6785ZM36.4988 41.4739C36.3262 41.4739 36.1553 41.4405 35.9959 41.3756C35.8364 41.3107 35.6916 41.2157 35.5695 41.0958C35.4475 40.976 35.3507 40.8337 35.2847 40.6771C35.2186 40.5205 35.1846 40.3526 35.1846 40.1831C35.1846 40.0136 35.2186 39.8458 35.2847 39.6892C35.3507 39.5326 35.4475 39.3903 35.5695 39.2704C35.6916 39.1506 35.8364 39.0555 35.9959 38.9906C36.1553 38.9257 36.3262 38.8924 36.4988 38.8924C36.8473 38.8924 37.1816 39.0283 37.428 39.2704C37.6745 39.5125 37.8129 39.8408 37.8129 40.1831C37.8129 40.5254 37.6745 40.8537 37.428 41.0958C37.1816 41.3379 36.8473 41.4739 36.4988 41.4739Z" fill="#043D5F"/>
<path d="M41.7533 23.4237C41.7369 23.6022 41.7586 23.7822 41.8169 23.952C41.8753 24.1219 41.969 24.278 42.0921 24.4103C42.2153 24.5426 42.3651 24.6483 42.5321 24.7206C42.6991 24.7929 42.8796 24.8302 43.0622 24.8302C43.2447 24.8302 43.4252 24.7929 43.5922 24.7206C43.7592 24.6483 43.9091 24.5426 44.0322 24.4103C44.1553 24.278 44.249 24.1219 44.3074 23.952C44.3657 23.7822 44.3874 23.6022 44.371 23.4237V19.5515H45.6852C45.8572 19.5528 46.0279 19.5207 46.1873 19.457C46.3467 19.3933 46.4916 19.2992 46.6138 19.1801C46.736 19.0611 46.8329 18.9195 46.8991 18.7635C46.9653 18.6075 46.9993 18.4401 46.9993 18.2711V5.29079C47.0007 5.1209 46.9677 4.95243 46.9022 4.7952C46.8366 4.63797 46.7399 4.49513 46.6176 4.375C46.4953 4.25486 46.3498 4.15984 46.1897 4.09546C46.0297 4.03109 45.8581 3.99865 45.6852 4.00004H44.1485C42.3822 4.01097 40.6498 4.47762 39.125 5.35324V21.4459C39.8952 20.793 40.7881 20.2944 41.7533 19.9782V23.4237Z" fill="#043D5F"/>
<path d="M29.9392 19.5515H31.4971C33.3488 19.5704 35.1318 20.2428 36.5206 21.4459V5.35321C34.9957 4.47758 33.2634 4.01093 31.4971 4H29.9392C29.5907 4 29.2564 4.13599 29.01 4.37805C28.7635 4.62011 28.625 4.94842 28.625 5.29075V18.2711C28.6278 18.6116 28.7675 18.9373 29.0137 19.1771C29.2598 19.4169 29.5925 19.5515 29.9392 19.5515Z" fill="#043D5F"/>
<path d="M6.31484 48.0002H23.3776V46.6782C23.3778 45.6444 22.9648 44.6518 22.2275 43.914C21.4902 43.1762 20.4876 42.7522 19.4352 42.7331H11.5608C11.2278 42.7175 10.913 42.5792 10.6793 42.3458C10.4455 42.1123 10.31 41.8009 10.2997 41.4736V33.7395C10.2997 33.3972 10.4381 33.0688 10.6846 32.8268C10.931 32.5847 11.2653 32.4487 11.6138 32.4487C11.9624 32.4487 12.2966 32.5847 12.5431 32.8268C12.7895 33.0688 12.928 33.3972 12.928 33.7395V40.1828H19.4882C20.892 40.1925 22.2555 40.645 23.3776 41.4736V33.7395C23.3762 33.5696 23.4093 33.4011 23.4748 33.2439C23.5403 33.0867 23.6371 32.9438 23.7594 32.8237C23.8817 32.7036 24.0272 32.6085 24.1872 32.5442C24.3473 32.4798 24.5188 32.4473 24.6918 32.4487H33.7425C33.4447 30.9862 32.6419 29.6695 31.4697 28.7212C30.2976 27.7728 28.8281 27.2511 27.3095 27.2441H25.8152C25.7966 27.2796 25.7714 27.3113 25.741 27.3378C25.5264 27.8858 25.1854 28.3775 24.7448 28.7743L22.2119 31.2621C21.8547 31.631 21.4235 31.9232 20.9456 32.1202C20.4677 32.3173 19.9534 32.415 19.4352 32.4071C18.8965 32.4089 18.3634 32.2996 17.8705 32.0862C17.3776 31.8728 16.9358 31.5601 16.5737 31.1684L14.0408 28.7222C13.6287 28.3513 13.3157 27.8866 13.1293 27.369C13.0992 27.3464 13.074 27.318 13.0552 27.2857H11.5608C9.82003 27.2885 8.15145 27.9697 6.92148 29.1797C5.69151 30.3897 5.00069 32.0296 5.00069 33.7395V46.6782C4.99497 46.8507 5.02481 47.0225 5.08842 47.1834C5.15203 47.3443 5.2481 47.4909 5.37085 47.6143C5.4936 47.7378 5.6405 47.8357 5.80272 47.902C5.96495 47.9683 6.13914 48.0017 6.31484 48.0002Z" fill="#043D5F"/>
<path d="M15.5028 25.9743C15.5 26.1423 15.5334 26.3089 15.601 26.4632C15.6686 26.6176 15.7688 26.756 15.895 26.8695C16.1599 27.1297 18.7776 29.7112 18.5233 29.451C18.6388 29.5749 18.7798 29.6733 18.9369 29.7397C19.094 29.8061 19.2637 29.8389 19.4347 29.8361C19.6073 29.8391 19.7786 29.8064 19.9375 29.74C20.0963 29.6736 20.2392 29.5752 20.3567 29.451L23.0168 26.9007C23.1414 26.786 23.2406 26.6474 23.308 26.4933C23.3755 26.3393 23.4099 26.1732 23.409 26.0055C24.22 25.4076 24.8786 24.6328 25.3329 23.7423C25.7871 22.8517 26.0246 21.8698 26.0267 20.8737V18.2714C26.0267 16.5625 25.3355 14.9237 24.1052 13.7153C22.875 12.5069 21.2064 11.8281 19.4665 11.8281C17.7266 11.8281 16.058 12.5069 14.8278 13.7153C13.5975 14.9237 12.9063 16.5625 12.9063 18.2714V20.8425C12.9043 21.8371 13.1378 22.8185 13.5884 23.7091C14.0391 24.5998 14.6945 25.3753 15.5028 25.9743Z" fill="#043D5F"/>
</g>
</svg>
