<svg width="68" height="68" viewBox="0 0 68 68" fill="none" xmlns="http://www.w3.org/2000/svg">
<path opacity="0.9" d="M35.3378 8.37109C25.9778 8.37109 17.6875 13.4968 13.4087 21.3203L7.25781 15.1155V32.6508H24.6407L17.1527 25.0971C20.6293 18.3527 27.315 13.7666 35.3378 13.7666C46.3024 13.7666 55.395 22.9389 55.395 33.9997C55.395 45.0604 46.3024 54.2327 35.3378 54.2327C26.5127 54.2327 19.2921 48.5675 16.3504 40.744H10.7344C13.6761 51.535 23.571 59.6282 35.3378 59.6282C49.5115 59.6282 60.7435 48.0279 60.7435 33.9997C60.7435 19.9714 49.2441 8.37109 35.3378 8.37109ZM31.3264 21.8598V35.6183L43.8955 43.172L46.035 39.6649L35.3378 33.1903V21.8598H31.3264Z" fill="#043D5F"/>
</svg>
