<svg width="40" height="40" viewBox="0 0 40 40" fill="none" xmlns="http://www.w3.org/2000/svg">
<path d="M19.75 2C9.96 2 2 9.96 2 19.75C2 29.54 9.96 37.5 19.75 37.5C29.54 37.5 37.5 29.54 37.5 19.75C37.5 9.96 29.53 2 19.75 2ZM10.16 31.94C12.89 29.8 16.24 28.62 19.75 28.62C23.26 28.62 26.6 29.8 29.33 31.94C26.69 34.03 23.36 35.28 19.75 35.28C16.14 35.28 12.8 34.03 10.16 31.94ZM30.98 30.44C27.82 27.84 23.87 26.41 19.75 26.41C15.63 26.41 11.68 27.84 8.51 30.44C5.85 27.65 4.21 23.89 4.21 19.75C4.21 11.19 11.18 4.22 19.75 4.22C28.32 4.22 35.28 11.19 35.28 19.75C35.28 23.89 33.64 27.65 30.98 30.44Z" fill="white"/>
<path d="M24.9581 13.1602C23.8181 13.4802 18.0581 15.1502 16.6281 16.5802C15.7881 17.4202 15.3281 18.5302 15.3281 19.7202C15.3281 20.9102 15.7881 22.0202 16.6281 22.8602C17.4681 23.7002 18.5781 24.1602 19.7681 24.1602C20.9581 24.1602 22.0681 23.7002 22.8981 22.8602C24.3381 21.4202 25.9981 15.6702 26.3281 14.5302C26.4281 14.1402 26.3281 13.7302 26.0381 13.4402C25.7581 13.1602 25.3481 13.0502 24.9581 13.1602Z" fill="white"/>
<path d="M18.6602 7.52016C18.6602 6.90016 19.1502 6.41016 19.7702 6.41016C20.3902 6.41016 20.8702 6.90016 20.8702 7.52016C20.8702 8.14016 20.3802 8.63016 19.7702 8.63016C19.1602 8.63016 18.6602 8.13016 18.6602 7.52016Z" fill="white"/>
<path d="M11.9198 10.3097C12.3498 10.7397 12.3498 11.4397 11.9198 11.8797C11.4898 12.3097 10.7898 12.3097 10.3498 11.8797C9.91984 11.4397 9.91984 10.7397 10.3498 10.3097C10.7798 9.87966 11.4898 9.86966 11.9198 10.3097Z" fill="white"/>
<path d="M7.55922 20.8304C8.17226 20.8304 8.66922 20.3334 8.66922 19.7204C8.66922 19.1073 8.17226 18.6104 7.55922 18.6104C6.94618 18.6104 6.44922 19.1073 6.44922 19.7204C6.44922 20.3334 6.94618 20.8304 7.55922 20.8304Z" fill="white"/>
<path d="M31.9694 20.8304C32.5824 20.8304 33.0794 20.3334 33.0794 19.7204C33.0794 19.1073 32.5824 18.6104 31.9694 18.6104C31.3563 18.6104 30.8594 19.1073 30.8594 19.7204C30.8594 20.3334 31.3563 20.8304 31.9694 20.8304Z" fill="white"/>
<path d="M29.1816 10.3105C29.6116 10.7405 29.6116 11.4405 29.1816 11.8805C28.7516 12.3105 28.0416 12.3105 27.6116 11.8805C27.1816 11.4405 27.1816 10.7405 27.6116 10.3105C28.0416 9.87047 28.7516 9.87047 29.1816 10.3105Z" fill="white"/>
</svg>
