<svg width="41" height="41" viewBox="0 0 41 41" fill="none" xmlns="http://www.w3.org/2000/svg">
<mask id="mask0_2479_450" style="mask-type:luminance" maskUnits="userSpaceOnUse" x="0" y="0" width="41" height="41">
<path d="M40.6797 0.880859H0.679688V40.8809H40.6797V0.880859Z" fill="white"/>
</mask>
<g mask="url(#mask0_2479_450)">
<path d="M20.8614 19.4008C24.3114 19.4008 27.1214 16.5908 27.1214 13.1408C27.1214 9.69086 24.3114 6.88086 20.8614 6.88086C17.4114 6.88086 14.6014 9.69086 14.6014 13.1408C14.6014 16.5908 17.4114 19.4008 20.8614 19.4008ZM20.8614 9.06086C23.1114 9.06086 24.9414 10.9008 24.9414 13.1408C24.9414 15.3808 23.1114 17.2208 20.8614 17.2208C18.6114 17.2208 16.7814 15.3908 16.7814 13.1408C16.7814 10.8908 18.6214 9.06086 20.8614 9.06086ZM38.9514 15.9308H34.8714V11.8508C34.8714 11.2508 34.3814 10.7608 33.7814 10.7608C33.1814 10.7608 32.6914 11.2508 32.6914 11.8508V15.9308H28.6114C28.0114 15.9308 27.5214 16.4208 27.5214 17.0208C27.5214 17.6208 28.0114 18.1108 28.6114 18.1108H32.6914V22.1908C32.6914 22.7908 33.1814 23.2808 33.7814 23.2808C34.3814 23.2808 34.8714 22.7908 34.8714 22.1908V18.1108H38.9514C39.5514 18.1108 40.0514 17.6208 40.0514 17.0208C40.0514 16.4208 39.5614 15.9308 38.9514 15.9308ZM28.6114 22.3908H13.1114C11.0914 22.3908 9.44141 24.0308 9.44141 26.0608V33.8108C9.44141 34.4108 9.93141 34.9008 10.5414 34.9008H31.2014C31.8014 34.9008 32.2914 34.4108 32.2914 33.8108V26.0608C32.2914 24.0308 30.6414 22.3908 28.6114 22.3908ZM30.1114 32.7208H11.6114V26.0608C11.6114 25.2408 12.2814 24.5708 13.1014 24.5708H28.6114C29.4414 24.5708 30.1114 25.2408 30.1114 26.0608V32.7208Z" fill="white"/>
<path d="M9.22969 20.9107C11.9697 20.9107 14.1997 18.6807 14.1997 15.9407C14.1997 13.2007 11.9697 10.9707 9.22969 10.9707C6.48969 10.9707 4.26969 13.2007 4.26969 15.9407C4.26969 18.6807 6.49969 20.9107 9.22969 20.9107ZM9.22969 13.1507C10.7697 13.1507 12.0197 14.4007 12.0197 15.9407C12.0197 17.4807 10.7697 18.7307 9.22969 18.7307C7.68969 18.7307 6.44969 17.4807 6.44969 15.9407C6.44969 14.4007 7.69969 13.1507 9.22969 13.1507ZM5.34969 26.0807H6.76969C7.36969 26.0807 7.85969 25.5907 7.85969 24.9907C7.85969 24.3907 7.36969 23.9007 6.76969 23.9007H5.34969C3.32969 23.9007 1.67969 25.5507 1.67969 27.5707V32.7407C1.67969 33.3407 2.16969 33.8307 2.76969 33.8307H6.65969C7.25969 33.8307 7.74969 33.3407 7.74969 32.7407C7.74969 32.1407 7.25969 31.6407 6.65969 31.6407H3.85969V27.5607C3.85969 26.7407 4.52969 26.0707 5.34969 26.0707V26.0807Z" fill="white"/>
</g>
</svg>
