<svg width="20" height="20" viewBox="0 0 20 20" fill="none" xmlns="http://www.w3.org/2000/svg">
<path d="M10.5 13H8C7.4 13 7 12.6 7 12C7 11.4 7.4 11 8 11H10.5C12.4 11 14 9.4 14 7.5C14 5.6 12.4 4 10.5 4H5.5C3.6 4 2 5.6 2 7.5C2 8.5 2.4 9.4 3.1 10.1C3.5 10.5 3.5 11.1 3.2 11.5C2.8 11.9 2.2 11.9 1.8 11.6C0.7 10.5 0 9 0 7.5C0 4.5 2.5 2 5.5 2H10.5C13.5 2 16 4.5 16 7.5C16 10.5 13.5 13 10.5 13Z" fill="#043D5F"/>
<path d="M14.5 18H9.5C6.5 18 4 15.5 4 12.5C4 9.5 6.5 7 9.5 7H12C12.6 7 13 7.4 13 8C13 8.6 12.6 9 12 9H9.5C7.6 9 6 10.6 6 12.5C6 14.4 7.6 16 9.5 16H14.5C16.4 16 18 14.4 18 12.5C18 11.5 17.6 10.6 16.9 10C16.5 9.6 16.5 9 16.9 8.6C17.3 8.2 17.9 8.2 18.3 8.6C19.4 9.6 20 11.1 20 12.6C20 15.5 17.5 18 14.5 18Z" fill="#043D5F"/>
</svg>
