<svg width="130" height="130" viewBox="0 0 130 130" fill="none" xmlns="http://www.w3.org/2000/svg">
<path d="M70.792 52.2353L64.6637 46.107C65.8784 38.6341 63.6278 30.7081 57.8651 24.9455C48.3467 15.427 32.9132 15.427 23.3928 24.9455C13.8743 34.4639 13.8743 49.8973 23.3928 59.4178C29.1554 65.1805 37.0814 67.4311 44.5543 66.2164L50.6826 72.3447L70.792 52.2353Z" fill="#44CE78"/>
<path d="M62.6322 42.0451L64.8544 44.2673C65.3218 38.9907 64.0537 33.7057 61.2429 29.2157C62.8455 33.2908 63.3254 37.7213 62.6322 42.0451ZM67.7469 49.189L55.8011 61.1348C55.2526 61.683 54.5089 61.9911 53.7333 61.9911C52.9578 61.9911 52.214 61.683 51.6655 61.1348L51.6615 61.1307C51.3443 60.8213 50.9617 60.587 50.542 60.445C50.1223 60.3029 49.676 60.257 49.2361 60.3102C42.1897 61.0394 34.8894 58.7237 29.4904 53.3246C21.0119 44.8462 20.106 31.6898 26.7279 22.1855C25.5377 23.0057 24.4229 23.9302 23.3966 24.948C16.3624 31.9823 14.5424 42.2421 17.9041 50.9623C18.483 52.4654 19.2143 53.9219 20.104 55.3092C20.1283 55.3479 20.1486 55.3904 20.1751 55.429C20.5732 56.0424 21.0099 56.6376 21.469 57.2226C21.5421 57.316 21.603 57.4137 21.6782 57.5051C22.2124 58.1652 22.7832 58.8049 23.3986 59.4204C29.1613 65.183 37.0872 67.4337 44.5602 66.219L50.6885 72.3473L56.7822 66.2535L70.7958 52.2399L67.7469 49.189Z" fill="#44CE78"/>
<path d="M35.6234 29.9956C34.6636 29.0792 33.3834 28.5748 32.0565 28.5902C30.7296 28.6055 29.4614 29.1395 28.5231 30.0778C27.5848 31.0161 27.0509 32.2843 27.0355 33.6112C27.0202 34.9381 27.5246 36.2183 28.4409 37.1781C29.0698 37.8046 29.8526 38.2544 30.7105 38.4823C31.5684 38.7101 32.4713 38.708 33.3281 38.476L40.6426 49.3798L47.8251 42.1973L36.9214 34.8828C37.1533 34.0259 37.1555 33.1231 36.9276 32.2652C36.6997 31.4072 36.2499 30.6244 35.6234 29.9956Z" fill="#104B7A"/>
<path d="M42.6504 46.9973L36.0407 37.1437C35.8468 36.8555 35.5815 36.6224 35.2707 36.4672C34.96 36.312 34.6143 36.2399 34.2674 36.258C33.5639 36.2961 32.8602 36.1855 32.2023 35.9335C31.5443 35.6815 30.9468 35.2938 30.4486 34.7955C29.7427 34.0898 29.2604 33.1916 29.0621 32.2133C28.8638 31.235 28.9582 30.2199 29.3335 29.2949C28.2935 29.951 27.3997 30.924 27.1519 32.8476C26.9488 34.4279 27.353 36.1179 28.4946 37.227C29.1239 37.8356 29.9003 38.2706 30.7481 38.4892C31.5959 38.7078 32.4858 38.7026 33.331 38.4741L40.6455 49.3779L47.828 42.1954L47.6005 42.0471L42.6504 46.9973Z" fill="#104B7A"/>
<path d="M95.5995 111.515L91.2242 107.14L90.2127 102.539L85.7236 101.641L82.6321 98.5497L81.8338 94.5583L77.8444 93.76L77.0461 89.7706L73.0567 88.9723L69.8656 85.7812L69.0674 78.6008L61.6858 77.6014L53.5547 69.4723L67.9177 55.1094L111.758 98.9478L109.963 107.924L95.5995 111.515Z" fill="#44CE78"/>
<path d="M98.8493 106.64L95.707 103.498C95.4322 103.223 95.2419 102.876 95.1586 102.496L94.5593 99.7704C94.4749 99.3849 94.2798 99.0323 93.998 98.756C93.7163 98.4796 93.36 98.2914 92.9729 98.2145L90.3912 97.6985C89.9983 97.6195 89.6374 97.4266 89.3532 97.144L87.1311 94.9218C86.847 94.6388 86.6539 94.2773 86.5765 93.8838L86.1642 91.8241C86.0854 91.4312 85.8922 91.0703 85.6088 90.787C85.3255 90.5036 84.9646 90.3104 84.5717 90.2316L83.2372 89.9655C82.8442 89.8868 82.4834 89.6936 82.2 89.4102C81.9166 89.1268 81.7234 88.766 81.6447 88.373L81.3786 87.0385C81.2998 86.6456 81.1066 86.2847 80.8232 86.0014C80.5399 85.718 80.179 85.5248 79.7861 85.446L77.7264 85.0337C77.3335 84.9546 76.9725 84.7618 76.6884 84.4791L74.4357 82.2265C74.1092 81.9003 73.9035 81.4726 73.8528 81.0138L73.4831 77.6927C73.383 76.7923 72.9848 75.9512 72.3517 75.303C71.7187 74.6549 70.8872 74.237 69.9893 74.1157L66.4306 73.6343C65.9898 73.575 65.5808 73.3723 65.2667 73.0574C64.586 72.3764 64.2036 71.4528 64.2036 70.4899C64.2036 69.527 64.586 68.6035 65.2667 67.9224L72.9997 60.1895L67.9215 55.1113L57.6211 65.4118L53.5586 69.4743L61.6897 77.6054L64.0378 77.9223L69.0692 78.6027L69.8675 85.7852L73.0586 88.9763L77.0479 89.7746L77.8462 93.764L81.8356 94.5623L82.6339 98.5516L85.7254 101.643L90.2145 102.541L91.2261 107.144L95.6014 111.519L109.965 107.928L110.607 104.721L100.779 107.176C100.439 107.26 100.082 107.255 99.7439 107.161C99.4059 107.067 99.0978 106.888 98.8493 106.64Z" fill="#44CE78"/>
<path d="M108.137 108.254L61.457 61.5734L64.3312 58.6992L111.009 105.379" fill="#44CE78"/>
<path d="M61.457 61.5734L64.3292 58.7012L69.4073 63.7793L66.5351 66.6515L61.457 61.5734ZM110.562 104.932L110.4 104.77L105.803 105.918L108.137 108.254L110.339 106.052L110.562 104.932Z" fill="#44CE78"/>
<path d="M111.008 106.395C110.738 106.395 110.48 106.289 110.289 106.099L63.6105 59.4185C63.4254 59.2269 63.3231 58.9704 63.3254 58.7041C63.3277 58.4378 63.4345 58.183 63.6228 57.9947C63.8111 57.8064 64.0659 57.6996 64.3322 57.6973C64.5984 57.695 64.855 57.7974 65.0465 57.9824L111.727 104.663C111.869 104.805 111.965 104.986 112.004 105.183C112.043 105.379 112.023 105.583 111.946 105.769C111.869 105.954 111.739 106.113 111.572 106.224C111.405 106.336 111.209 106.395 111.008 106.395ZM108.136 109.267C107.866 109.267 107.608 109.161 107.417 108.971L60.7383 62.2906C60.5533 62.0991 60.4509 61.8425 60.4532 61.5763C60.4555 61.31 60.5623 61.0552 60.7506 60.8669C60.9389 60.6786 61.1937 60.5718 61.46 60.5695C61.7263 60.5672 61.9828 60.6695 62.1744 60.8546L108.855 107.535C108.996 107.677 109.093 107.858 109.132 108.055C109.171 108.252 109.15 108.456 109.073 108.641C108.997 108.826 108.866 108.985 108.699 109.096C108.533 109.208 108.336 109.267 108.136 109.267Z" fill="#043D5F"/>
<path d="M50.6826 74.3772C50.4159 74.3774 50.1517 74.325 49.9052 74.2229C49.6588 74.1207 49.4349 73.9709 49.2465 73.782L43.8353 68.3708C39.8574 68.8564 35.8213 68.4322 32.0313 67.1303C28.2413 65.8284 24.7964 63.6827 21.9567 60.8551C11.6603 50.5587 11.6603 33.807 21.9567 23.5106C32.2511 13.2162 49.0048 13.2142 59.2992 23.5106C62.1259 26.351 64.271 29.7958 65.5728 33.5857C66.8747 37.3755 67.2994 41.4114 66.8148 45.3892L72.2261 50.8004C72.4149 50.9889 72.5646 51.2128 72.6668 51.4592C72.769 51.7056 72.8216 51.9698 72.8216 52.2365C72.8216 52.5033 72.769 52.7675 72.6668 53.0139C72.5646 53.2603 72.4149 53.4842 72.2261 53.6726L52.1187 73.78C51.9307 73.9695 51.707 74.1199 51.4605 74.2224C51.214 74.3249 50.9496 74.3775 50.6826 74.3772ZM44.5544 64.1864C45.093 64.1865 45.6096 64.4006 45.9904 64.7815L50.6826 69.4737L67.9178 52.2386L63.2256 47.5464C62.9975 47.3192 62.827 47.041 62.7281 46.7347C62.6291 46.4284 62.6047 46.1029 62.6569 45.7853C63.2254 42.2893 62.9572 38.7084 61.8743 35.3361C60.7914 31.9638 58.9246 28.8962 56.427 26.3848C47.715 17.6728 33.5409 17.6708 24.8289 26.3848C16.1169 35.0969 16.1169 49.2729 24.8289 57.985C27.3399 60.483 30.4075 62.35 33.78 63.4326C37.1524 64.5152 40.7335 64.7826 44.2294 64.2128C44.3368 64.1949 44.4455 64.1861 44.5544 64.1864Z" fill="#043D5F"/>
</svg>
