<svg width="40" height="40" viewBox="0 0 40 40" fill="none" xmlns="http://www.w3.org/2000/svg">
<g clip-path="url(#clip0_1630_678)">
<mask id="mask0_1630_678" style="mask-type:luminance" maskUnits="userSpaceOnUse" x="0" y="0" width="40" height="40">
<path d="M40 0H0V40H40V0Z" fill="white"/>
</mask>
<g mask="url(#mask0_1630_678)">
<mask id="mask1_1630_678" style="mask-type:luminance" maskUnits="userSpaceOnUse" x="0" y="0" width="40" height="40">
<path d="M40 0H0V40H40V0Z" fill="white"/>
</mask>
<g mask="url(#mask1_1630_678)">
<path d="M20.4986 21.6191L15.7188 35.5191C17.1832 35.9498 18.702 36.1687 20.2287 36.1691C22.0311 36.1705 23.8204 35.8627 25.5188 35.2591C25.4742 35.19 25.4372 35.1162 25.4087 35.0391L20.4986 21.6191Z" fill="#44CE78"/>
<path d="M4.27735 20.2302C4.27803 23.2248 5.12275 26.1585 6.71462 28.6948C8.30648 31.2312 10.581 33.2675 13.2773 34.5702L5.66735 13.7402C4.74886 15.7805 4.27503 17.9928 4.27735 20.2302Z" fill="#44CE78"/>
<path d="M30.9979 19.4201C30.976 17.8515 30.5153 16.3203 29.6679 15.0001C28.8579 13.6901 28.1079 12.5801 28.1079 11.2701C28.0891 10.5414 28.3592 9.83482 28.8595 9.30462C29.3597 8.77441 30.0494 8.46362 30.7779 8.44009H30.9979C29.2974 6.87906 27.2777 5.70652 25.0789 5.00375C22.88 4.30098 20.5547 4.08479 18.264 4.37018C15.9733 4.65556 13.7721 5.43569 11.8129 6.65648C9.85378 7.87728 8.18352 9.50953 6.91797 11.4401H7.91797C9.58797 11.4401 12.1679 11.2401 12.1679 11.2401C12.3319 11.2435 12.4887 11.3078 12.6078 11.4205C12.727 11.5332 12.7999 11.6862 12.8124 11.8497C12.8248 12.0132 12.776 12.1755 12.6754 12.305C12.5747 12.4345 12.4295 12.5219 12.2679 12.5501C12.2679 12.5501 11.4079 12.6501 10.4479 12.7001L16.2579 30.0001L19.7479 19.5401L17.2679 12.7301C16.4079 12.6801 15.5979 12.5801 15.5979 12.5801C15.4364 12.5519 15.2911 12.4645 15.1905 12.335C15.0898 12.2055 15.041 12.0432 15.0535 11.8797C15.066 11.7162 15.1389 11.5632 15.258 11.4505C15.3771 11.3378 15.534 11.2735 15.6979 11.2701C15.6979 11.2701 18.3279 11.4701 19.8979 11.4701C21.4679 11.4701 24.1479 11.2701 24.1479 11.2701C24.3119 11.2735 24.4687 11.3378 24.5878 11.4505C24.707 11.5632 24.7799 11.7162 24.7924 11.8797C24.8048 12.0432 24.756 12.2055 24.6554 12.335C24.5547 12.4645 24.4095 12.5519 24.2479 12.5801C24.2479 12.5801 23.3779 12.6801 22.4179 12.7301L28.1779 29.8701L29.7679 24.5501C30.4123 22.9049 30.8262 21.1786 30.9979 19.4201Z" fill="#44CE78"/>
<path d="M34.2083 12.5801C34.2828 13.1235 34.3196 13.6715 34.3183 14.2201C34.2907 16.184 33.8796 18.1237 33.1083 19.9301L28.2383 34.0001C31.8367 31.9196 34.4788 28.5143 35.6 24.5118C36.7211 20.5093 36.2324 16.2271 34.2383 12.5801H34.2083Z" fill="#44CE78"/>
<path d="M20.2283 2.47272e-06C16.2268 -0.00197555 12.3145 1.18281 8.98638 3.40451C5.65826 5.62621 3.06377 8.78501 1.53108 12.4814C-0.00161529 16.1778 -0.403664 20.2457 0.375786 24.1705C1.15523 28.0954 3.08117 31.701 5.90998 34.5312C8.7388 37.3615 12.3434 39.2892 16.2679 40.0706C20.1925 40.8519 24.2605 40.4519 27.9577 38.921C31.6548 37.3902 34.8149 34.7972 37.0382 31.4702C39.2616 28.1432 40.4483 24.2315 40.4483 20.23C40.4483 14.8664 38.3183 9.72234 34.5266 5.92877C30.7349 2.13519 25.5919 0.00265378 20.2283 2.47272e-06ZM20.2283 38C16.7251 37.9921 13.3027 36.9465 10.3931 34.9953C7.48357 33.0441 5.21728 30.2746 3.8803 27.0365C2.54332 23.7984 2.19558 20.2368 2.88097 16.8013C3.56636 13.3657 5.25416 10.2102 7.73133 7.73304C10.2085 5.25587 13.364 3.56807 16.7996 2.88268C20.2351 2.19729 23.7967 2.54503 27.0348 3.88201C30.2729 5.21899 33.0424 7.48528 34.9936 10.3948C36.9448 13.3044 37.9904 16.7268 37.9983 20.23C38.0009 22.5643 37.5431 24.8763 36.651 27.0334C35.7589 29.1905 34.4501 31.1505 32.7995 32.8012C31.1488 34.4518 29.1888 35.7606 27.0317 36.6527C24.8746 37.5448 22.5626 38.0026 20.2283 38Z" fill="#44CE78"/>
</g>
</g>
</g>
<defs>
<clipPath id="clip0_1630_678">
<rect width="40" height="40" fill="white"/>
</clipPath>
</defs>
</svg>
