<svg width="34" height="36" viewBox="0 0 34 36" fill="none" xmlns="http://www.w3.org/2000/svg">
<mask id="mask0_1630_1726" style="mask-type:luminance" maskUnits="userSpaceOnUse" x="1" y="3" width="31" height="31">
<path d="M32 3H1V34H32V3Z" fill="white"/>
</mask>
<g mask="url(#mask0_1630_1726)">
<path d="M24.1584 12.4814H8.84632C8.35652 12.4814 7.95703 12.8775 7.95703 13.3682V16.3873C7.95703 16.878 8.35652 17.2741 8.84632 17.2741H24.1584C24.6472 17.2741 25.0464 16.878 25.0464 16.3873V13.3682C25.0464 12.8775 24.6466 12.4814 24.1584 12.4814ZM9.55844 14.5843C9.25584 14.5843 9.01063 14.3397 9.01063 14.0368C9.01063 13.7348 9.25584 13.4896 9.55844 13.4896C9.86166 13.4896 10.106 13.7348 10.106 14.0368C10.106 14.34 9.86166 14.5843 9.55844 14.5843ZM22.7109 16.1628H18.8427V14.8781H22.7112L22.7109 16.1628Z" fill="#043D5F"/>
<path d="M24.1584 17.7617H8.84632C8.35652 17.7617 7.95703 18.1584 7.95703 18.6491V21.6679C7.95703 22.158 8.35652 22.555 8.84632 22.555H24.1584C24.6472 22.555 25.0464 22.158 25.0464 21.6679V18.6491C25.0464 18.1584 24.6466 17.7617 24.1584 17.7617ZM9.55844 19.8652C9.25584 19.8652 9.01063 19.6215 9.01063 19.3177C9.01063 19.016 9.25584 18.7695 9.55844 18.7695C9.86166 18.7695 10.106 19.0157 10.106 19.3177C10.106 19.6212 9.86166 19.8652 9.55844 19.8652ZM22.7109 21.4434H18.8427V20.1583H22.7112L22.7109 21.4434Z" fill="#043D5F"/>
<path d="M24.1584 23.043H8.84632C8.35652 23.043 7.95703 23.4396 7.95703 23.9301V26.9488C7.95703 27.4392 8.35652 27.8362 8.84632 27.8362H24.1584C24.6472 27.8362 25.0464 27.4392 25.0464 26.9488V23.9301C25.0464 23.4396 24.6466 23.043 24.1584 23.043ZM9.55844 25.1458C9.25584 25.1458 9.01063 24.9028 9.01063 24.5983C9.01063 24.296 9.25584 24.0514 9.55844 24.0514C9.86166 24.0514 10.106 24.2957 10.106 24.5983C10.106 24.9028 9.86166 25.1458 9.55844 25.1458ZM22.7109 26.724H18.8427V25.439H22.7112L22.7109 26.724Z" fill="#043D5F"/>
<path d="M19.1466 30.7217H17.5147V28.3477H15.4903V30.7217H13.8566V31.3473H8.14453V33.3726H13.8566V33.9992H19.1466V33.3726H24.8583V31.3473H19.1466V30.7217Z" fill="#043D5F"/>
<path d="M25.5387 7.61138C25.3195 7.59288 25.1182 7.48094 24.9878 7.3044C23.7601 5.64654 21.7919 4.62399 19.6972 4.62399C19.5661 4.62399 19.4347 4.62806 19.3034 4.6359C19.1215 4.64688 18.9427 4.59263 18.7976 4.48288C17.5223 3.52116 15.977 3 14.3596 3C11.4616 3 8.88937 4.67886 7.68713 7.22099C7.57675 7.45397 7.35663 7.61577 7.10138 7.65152C3.90734 8.10087 1.44141 10.8515 1.44141 14.1672C1.44141 17.3283 3.68251 19.9743 6.65956 20.6036V18.6488C6.65956 18.4051 6.70471 18.1728 6.77966 17.9542C5.18765 17.4309 4.03371 15.9323 4.03371 14.1675C4.03371 11.9691 5.82232 10.1805 8.02109 10.1805C8.13209 10.1805 8.24121 10.1893 8.35002 10.198C8.98375 10.2473 9.55696 9.83617 9.71155 9.22157C10.2474 7.0849 12.1593 5.59261 14.3593 5.59261C15.6167 5.59261 16.8067 6.07802 17.7098 6.95978C18.0183 7.26081 18.457 7.38906 18.8791 7.30095C19.1484 7.24482 19.4235 7.21628 19.6972 7.21628C21.2365 7.21628 22.6112 8.08174 23.2845 9.47463C23.5212 9.96443 24.0386 10.256 24.5801 10.2002C24.715 10.1867 24.8495 10.1802 24.9799 10.1802C27.1787 10.1802 28.9676 11.9688 28.9676 14.1672C28.9676 15.9323 27.8131 17.4306 26.2214 17.9539C26.296 18.1728 26.3412 18.4048 26.3412 18.6485V20.603C29.3179 19.9739 31.5602 17.3283 31.5602 14.1669C31.5599 10.7273 28.9059 7.89548 25.5387 7.61138Z" fill="#043D5F"/>
</g>
</svg>
