<svg width="486" height="124" viewBox="0 0 486 124" fill="none" xmlns="http://www.w3.org/2000/svg">
<g clip-path="url(#clip0_1630_698)">
<mask id="mask0_1630_698" style="mask-type:luminance" maskUnits="userSpaceOnUse" x="0" y="0" width="486" height="124">
<path d="M486 0H0V124H486V0Z" fill="white"/>
</mask>
<g mask="url(#mask0_1630_698)">
<path d="M475.258 0.708984H350.609C345.524 0.708984 341.402 4.8311 341.402 9.91598V113.318C341.402 118.403 345.524 122.525 350.609 122.525H475.258C480.343 122.525 484.465 118.403 484.465 113.318V9.91598C484.465 4.8311 480.343 0.708984 475.258 0.708984Z" fill="white" stroke="#EFEFEF" stroke-width="1.41646"/>
<path d="M380.348 35.5162H380.032V35.8316V38.893C378.487 38.7337 377.27 37.4171 377.27 35.8316C377.27 34.1396 378.656 32.7539 380.348 32.7539H439.161C440.852 32.7539 442.238 34.1396 442.238 35.8316C442.238 37.4171 441.022 38.7337 439.476 38.893V35.8316V35.5162H439.161H380.348Z" fill="#F0E6E1" stroke="#F0E6E1" stroke-width="1.07898"/>
<path d="M382.834 89.8971L382.611 89.6738L382.388 89.8971L380.664 91.6203V36.1465H438.846V91.6203L437.123 89.8971L436.899 89.6738L436.677 89.8971L430.114 96.4601L423.551 89.8971L423.327 89.6738L423.105 89.8971L416.542 96.4601L409.979 89.8971L409.755 89.6738L409.532 89.8971L402.969 96.4601L396.406 89.8971L396.183 89.6738L395.96 89.8971L389.397 96.4601L382.834 89.8971Z" fill="#FDFDFE" stroke="#F0E6E1" stroke-width="1.07898"/>
<path d="M425.588 78.8108H408.623C407.999 78.8108 407.492 78.3053 407.492 77.6798C407.492 77.0543 407.999 76.5488 408.623 76.5488H425.588C426.213 76.5488 426.72 77.0543 426.72 77.6798C426.72 78.3053 426.213 78.8108 425.588 78.8108Z" fill="#F0E6E1"/>
<path d="M431.243 78.8065C430.95 78.8065 430.656 78.6821 430.441 78.4785C430.237 78.2636 430.113 77.9696 430.113 77.6754C430.113 77.369 430.237 77.0862 430.441 76.8724C430.87 76.454 431.617 76.454 432.046 76.8724C432.25 77.0862 432.374 77.369 432.374 77.6754C432.374 77.9696 432.25 78.2636 432.046 78.4785C431.831 78.6821 431.537 78.8065 431.243 78.8065Z" fill="#F0E6E1"/>
<path d="M431.245 62.9729H414.279C413.655 62.9729 413.148 62.4674 413.148 61.8419C413.148 61.2164 413.655 60.7109 414.279 60.7109H431.245C431.869 60.7109 432.376 61.2164 432.376 61.8419C432.376 62.4674 431.869 62.9729 431.245 62.9729Z" fill="#F0E6E1"/>
<path d="M431.247 70.8909H419.936C419.312 70.8909 418.805 70.3854 418.805 69.7599C418.805 69.1345 419.312 68.6289 419.936 68.6289H431.247C431.871 68.6289 432.377 69.1345 432.377 69.7599C432.377 70.3854 431.871 70.8909 431.247 70.8909Z" fill="#F0E6E1"/>
<path d="M410.885 70.8909H408.623C407.999 70.8909 407.492 70.3854 407.492 69.7599C407.492 69.1345 407.999 68.6289 408.623 68.6289H410.885C411.51 68.6289 412.016 69.1345 412.016 69.7599C412.016 70.3854 411.51 70.8909 410.885 70.8909Z" fill="#F0E6E1"/>
<path d="M425.588 55.059H408.623C407.999 55.059 407.492 54.5533 407.492 53.9279C407.492 53.3025 407.999 52.7969 408.623 52.7969H425.588C426.213 52.7969 426.72 53.3025 426.72 53.9279C426.72 54.5533 426.213 55.059 425.588 55.059Z" fill="#F0E6E1"/>
<path d="M431.243 55.0565C430.95 55.0565 430.656 54.9321 430.441 54.7285C430.237 54.5136 430.113 54.2196 430.113 53.9255C430.113 53.6189 430.237 53.3362 430.441 53.1225C430.859 52.704 431.628 52.704 432.046 53.1225C432.25 53.3362 432.374 53.6314 432.374 53.9255C432.374 54.2196 432.25 54.5136 432.046 54.7285C431.831 54.9321 431.549 55.0565 431.243 55.0565Z" fill="#F0E6E1"/>
<path d="M409.756 62.9744C409.462 62.9744 409.168 62.85 408.953 62.6464C408.75 62.4315 408.625 62.1488 408.625 61.8434C408.625 61.5369 408.75 61.2542 408.953 61.0404C409.383 60.622 410.141 60.622 410.559 61.0404C410.763 61.2542 410.887 61.5369 410.887 61.8434C410.887 62.1488 410.763 62.4315 410.559 62.6464C410.344 62.85 410.05 62.9744 409.756 62.9744Z" fill="#F0E6E1"/>
<path d="M415.409 70.8905C415.114 70.8905 414.82 70.7661 414.605 70.5626C414.402 70.3477 414.277 70.0536 414.277 69.7595C414.277 69.4655 414.402 69.1703 414.605 68.9565C415.035 68.538 415.793 68.538 416.212 68.9565C416.415 69.1601 416.54 69.453 416.54 69.7595C416.54 70.0649 416.415 70.3477 416.212 70.5626C415.997 70.7661 415.703 70.8905 415.409 70.8905Z" fill="#F0E6E1"/>
<path d="M397.314 60.714C397.314 61.3395 397.821 61.845 398.445 61.845C399.07 61.845 399.576 61.3395 399.576 60.714C399.576 57.9837 397.63 55.6991 395.052 55.1732V53.9279C395.052 53.3025 394.545 52.7969 393.921 52.7969C393.297 52.7969 392.79 53.3025 392.79 53.9279V55.1765C391.556 55.4276 390.432 56.0825 389.603 57.0631C388.912 57.8797 388.592 58.9247 388.705 60.0071C388.821 61.1144 389.39 62.1414 390.269 62.8245L392.79 64.7856V70.9361C391.477 70.4679 390.528 69.2238 390.528 67.7512C390.528 67.1257 390.022 66.6202 389.397 66.6202C388.773 66.6202 388.266 67.1257 388.266 67.7512C388.266 70.4814 390.213 72.7661 392.79 73.292V74.2861C392.79 74.9116 393.297 75.4172 393.921 75.4172C394.545 75.4172 395.052 74.9116 395.052 74.2861V73.2886C396.286 73.0375 397.41 72.3826 398.24 71.4021C398.932 70.5832 399.251 69.5382 399.137 68.4558C399.021 67.3496 398.452 66.3238 397.573 65.6418L395.052 63.6807V57.5302C396.365 57.9973 397.314 59.2414 397.314 60.714ZM396.185 67.4265C396.579 67.7331 396.836 68.1957 396.888 68.691C396.937 69.1548 396.803 69.5992 396.513 69.9408C396.12 70.4057 395.611 70.7314 395.052 70.9305V66.5444L396.185 67.4265ZM391.658 61.0397C391.262 60.7321 391.007 60.2695 390.954 59.773C390.907 59.3104 391.04 58.867 391.329 58.5243C391.723 58.0595 392.232 57.7338 392.79 57.5347V61.9196L391.658 61.0397Z" fill="#44CE78"/>
<path d="M383.74 44.8788C383.446 44.8788 383.152 44.7543 382.937 44.5508C382.734 44.3359 382.609 44.0418 382.609 43.7478C382.609 43.4536 382.734 43.1584 382.937 42.9447C383.367 42.5262 384.124 42.5262 384.543 42.9447C384.746 43.1584 384.871 43.4536 384.871 43.7478C384.871 44.0418 384.746 44.3359 384.543 44.5508C384.328 44.7543 384.034 44.8788 383.74 44.8788Z" fill="#F0E6E1"/>
<path d="M430.304 43.7462C430.304 43.1242 430.802 42.6152 431.435 42.6152C432.057 42.6152 432.566 43.1242 432.566 43.7462C432.566 44.3683 432.057 44.8773 431.435 44.8773C430.802 44.8773 430.304 44.3683 430.304 43.7462ZM425.961 43.7462C425.961 43.1242 426.47 42.6152 427.091 42.6152C427.725 42.6152 428.222 43.1242 428.222 43.7462C428.222 44.3683 427.725 44.8773 427.091 44.8773C426.47 44.8773 425.961 44.3683 425.961 43.7462ZM421.629 43.7462C421.629 43.1242 422.137 42.6152 422.76 42.6152C423.382 42.6152 423.891 43.1242 423.891 43.7462C423.891 44.3683 423.382 44.8773 422.76 44.8773C422.137 44.8773 421.629 44.3683 421.629 43.7462ZM417.297 43.7462C417.297 43.1242 417.795 42.6152 418.428 42.6152C419.05 42.6152 419.559 43.1242 419.559 43.7462C419.559 44.3683 419.05 44.8773 418.428 44.8773C417.795 44.8773 417.297 44.3683 417.297 43.7462ZM412.954 43.7462C412.954 43.1242 413.463 42.6152 414.085 42.6152C414.719 42.6152 415.216 43.1242 415.216 43.7462C415.216 44.3683 414.719 44.8773 414.085 44.8773C413.463 44.8773 412.954 44.3683 412.954 43.7462ZM408.622 43.7462C408.622 43.1242 409.131 42.6152 409.753 42.6152C410.375 42.6152 410.884 43.1242 410.884 43.7462C410.884 44.3683 410.375 44.8773 409.753 44.8773C409.131 44.8773 408.622 44.3683 408.622 43.7462ZM404.29 43.7462C404.29 43.1242 404.788 42.6152 405.421 42.6152C406.044 42.6152 406.553 43.1242 406.553 43.7462C406.553 44.3683 406.044 44.8773 405.421 44.8773C404.788 44.8773 404.29 44.3683 404.29 43.7462ZM399.947 43.7462C399.947 43.1242 400.456 42.6152 401.078 42.6152C401.712 42.6152 402.209 43.1242 402.209 43.7462C402.209 44.3683 401.712 44.8773 401.078 44.8773C400.456 44.8773 399.947 44.3683 399.947 43.7462ZM395.615 43.7462C395.615 43.1242 396.124 42.6152 396.746 42.6152C397.369 42.6152 397.877 43.1242 397.877 43.7462C397.877 44.3683 397.369 44.8773 396.746 44.8773C396.124 44.8773 395.615 44.3683 395.615 43.7462ZM391.284 43.7462C391.284 43.1242 391.782 42.6152 392.415 42.6152C393.037 42.6152 393.546 43.1242 393.546 43.7462C393.546 44.3683 393.037 44.8773 392.415 44.8773C391.782 44.8773 391.284 44.3683 391.284 43.7462ZM386.941 43.7462C386.941 43.1242 387.45 42.6152 388.072 42.6152C388.705 42.6152 389.203 43.1242 389.203 43.7462C389.203 44.3683 388.705 44.8773 388.072 44.8773C387.45 44.8773 386.941 44.3683 386.941 43.7462Z" fill="#F0E6E1"/>
<path d="M435.768 44.8788C435.463 44.8788 435.181 44.7543 434.965 44.5394C434.762 44.3359 434.637 44.0418 434.637 43.7478C434.637 43.4536 434.762 43.1584 434.965 42.9447C435.373 42.5262 436.142 42.5262 436.571 42.9447C436.775 43.1584 436.899 43.4536 436.899 43.7478C436.899 44.0418 436.775 44.3359 436.571 44.5508C436.357 44.7543 436.063 44.8788 435.768 44.8788Z" fill="#F0E6E1"/>
<path d="M379.591 22.9537C378.434 21.7682 376.536 21.7444 375.35 22.9007C374.165 24.057 374.141 25.9554 375.298 27.1409L445.783 99.4098C446.939 100.595 448.838 100.619 450.023 99.4628C451.209 98.3065 451.232 96.4081 450.076 95.2226L379.591 22.9537Z" fill="#44CE78"/>
<path d="M134.563 0.708984H9.91403C4.82915 0.708984 0.707031 4.8311 0.707031 9.91598V113.318C0.707031 118.403 4.82915 122.525 9.91403 122.525H134.563C139.648 122.525 143.77 118.403 143.77 113.318V9.91598C143.77 4.8311 139.648 0.708984 134.563 0.708984Z" fill="white" stroke="#EFEFEF" stroke-width="1.41646"/>
<path d="M115.942 24.082H28.9762C25.4901 24.082 22.6641 26.908 22.6641 30.3941V93.5145C22.6641 97.0006 25.4901 99.8266 28.9762 99.8266H115.942C119.428 99.8266 122.254 97.0006 122.254 93.5145V30.3941C122.254 26.908 119.428 24.082 115.942 24.082Z" fill="white" stroke="#F0E6E1" stroke-width="1.07898"/>
<path d="M22.6641 30.3941C22.6641 26.908 25.4901 24.082 28.9762 24.082H115.942C119.428 24.082 122.254 26.908 122.254 30.3941V39.5115H22.6641V30.3941Z" fill="white" stroke="#F0E6E1" stroke-width="1.07898"/>
<path d="M30.3274 29.5547C31.3343 29.5547 32.1508 30.371 32.1508 31.3782C32.1508 32.3853 31.3343 33.2016 30.3274 33.2016C29.3202 33.2016 28.5039 32.3853 28.5039 31.3782C28.5039 30.371 29.3202 29.5547 30.3274 29.5547Z" fill="#44CE78"/>
<path d="M35.3743 29.5547C36.3813 29.5547 37.1978 30.371 37.1978 31.3782C37.1978 32.3853 36.3813 33.2016 35.3743 33.2016C34.3672 33.2016 33.5508 32.3853 33.5508 31.3782C33.5508 30.371 34.3672 29.5547 35.3743 29.5547Z" fill="#1C1616"/>
<path d="M40.4251 29.5547C41.4321 29.5547 42.2486 30.371 42.2486 31.3782C42.2486 32.3853 41.4321 33.2016 40.4251 33.2016C39.418 33.2016 38.6016 32.3853 38.6016 31.3782C38.6016 30.371 39.418 29.5547 40.4251 29.5547Z" fill="#8F90A6"/>
<path d="M105.421 49.332H39.4961V81.5936H105.421V49.332Z" fill="#44CE78" stroke="#F0E6E1" stroke-width="1.07898"/>
<path d="M68.9531 65.4623V66.7277L70.0261 66.0571L75.6368 62.5504L76.5884 61.9556L75.6368 61.3609L70.0261 57.8542L68.9531 57.1836V58.4489V65.4623Z" fill="white"/>
<path d="M105.422 71.7734H39.4961V81.5921H105.422V71.7734Z" fill="white" stroke="#F0E6E1" stroke-width="1.07898"/>
<path d="M54.9255 71.7734H39.4961V81.5921H54.9255V71.7734Z" fill="white" stroke="#F0E6E1" stroke-width="1.07898"/>
<path d="M52.8191 73.8789H41.5977V79.4896H52.8191V73.8789Z" fill="#F0E6E1"/>
<path d="M101.913 78.0882H58.4297V76.6855H101.913V78.0882Z" fill="#F0E6E1"/>
<path d="M100.513 87.9065H45.8086V86.5039H100.513V87.9065Z" fill="#F0E6E1"/>
<path d="M93.4983 92.1155H51.418V90.7129H93.4983V92.1155Z" fill="#F0E6E1"/>
<path d="M304.911 0.708984H180.262C175.177 0.708984 171.055 4.8311 171.055 9.91598V113.318C171.055 118.403 175.177 122.525 180.262 122.525H304.911C309.996 122.525 314.118 118.403 314.118 113.318V9.91598C314.118 4.8311 309.996 0.708984 304.911 0.708984Z" fill="white" stroke="#EFEFEF" stroke-width="1.41646"/>
<path d="M277.606 101.987H271.334C270.575 101.987 269.902 101.501 269.662 100.782L268.301 96.6989L274.47 94.4258L280.64 96.6989L279.278 100.782C279.038 101.501 278.365 101.987 277.606 101.987Z" fill="#44CE78"/>
<path d="M213.638 101.238H207.365C206.607 101.238 205.933 100.752 205.693 100.033L204.332 95.9501L210.501 93.6777L216.671 95.9501L215.31 100.033C215.07 100.752 214.396 101.238 213.638 101.238Z" fill="#44CE78"/>
<path d="M211.228 56.9636L206.02 57.8818L200.357 25.7677C200.104 24.3296 201.064 22.9583 202.502 22.7047C203.941 22.4512 205.312 23.4114 205.565 24.8495L211.228 56.9636Z" fill="#44CE78"/>
<path d="M215.661 77.6872L208.718 78.9115L204.983 57.7336C204.848 56.9666 205.36 56.2352 206.127 56.1L210.293 55.3654C211.06 55.2303 211.792 55.7423 211.927 56.5093L215.661 77.6872Z" fill="#44CE78"/>
<path d="M270.965 56.9637L276.172 57.8819L281.835 25.7677C282.089 24.3296 281.128 22.9583 279.69 22.7047C278.252 22.4512 276.881 23.4114 276.627 24.8494L270.965 56.9637Z" fill="#44CE78"/>
<path d="M266.422 77.6404L273.366 78.8647L277.1 57.6866C277.236 56.9196 276.724 56.1883 275.956 56.0531L271.79 55.3185C271.024 55.1833 270.292 55.6954 270.157 56.4623L266.422 77.6404Z" fill="#44CE78"/>
<path d="M282.172 95.7437L277.641 96.6499L276.587 96.697H202.202C200.254 96.697 198.676 95.119 198.676 93.1715V79.0702C198.676 77.1232 200.254 75.5449 202.202 75.5449H276.586L276.895 75.5476L279.055 75.7613L283.888 81.6115L282.839 92.8824L282.172 95.7437Z" fill="#F0E6E1"/>
<path d="M281.874 75.5449H276.586C278.534 75.5449 280.112 77.1232 280.112 79.0702V93.1715C280.112 95.119 278.534 96.697 276.586 96.697H281.874C283.822 96.697 285.4 95.119 285.4 93.1715V79.0702C285.4 77.1232 283.822 75.5449 281.874 75.5449Z" fill="#FAFCFC"/>
<path opacity="0.4" d="M282.884 75.7676H201.188C199.973 75.7676 198.988 76.7524 198.988 77.9672V94.3064C198.988 95.5212 199.973 96.506 201.188 96.506H282.884C284.099 96.506 285.084 95.5212 285.084 94.3064V77.9672C285.084 76.7524 284.099 75.7676 282.884 75.7676Z" fill="white" stroke="#F0E6E1" stroke-width="1.07898"/>
<path d="M209.605 88.7649C211.065 88.7649 212.249 87.5809 212.249 86.1211C212.249 84.6606 211.065 83.4766 209.605 83.4766C208.144 83.4766 206.961 84.6606 206.961 86.1211C206.961 87.5809 208.144 88.7649 209.605 88.7649Z" fill="#44CE78"/>
<path d="M220.178 88.7649C221.639 88.7649 222.823 87.5809 222.823 86.1211C222.823 84.6606 221.639 83.4766 220.178 83.4766C218.719 83.4766 217.535 84.6606 217.535 86.1211C217.535 87.5809 218.719 88.7649 220.178 88.7649Z" fill="#44CE78"/>
<path d="M230.757 88.7649C232.217 88.7649 233.401 87.5809 233.401 86.1211C233.401 84.6606 232.217 83.4766 230.757 83.4766C229.297 83.4766 228.113 84.6606 228.113 86.1211C228.113 87.5809 229.297 88.7649 230.757 88.7649Z" fill="#44CE78"/>
<path d="M271.829 89.1536C271.128 89.1536 270.559 88.5849 270.559 87.8835V84.358C270.559 83.656 271.128 83.0879 271.829 83.0879C272.531 83.0879 273.1 83.656 273.1 84.358V87.8835C273.1 88.5849 272.531 89.1536 271.829 89.1536Z" fill="#F0E6E1"/>
<path d="M277.114 89.1536C276.413 89.1536 275.844 88.5849 275.844 87.8835V84.358C275.844 83.656 276.413 83.0879 277.114 83.0879C277.816 83.0879 278.385 83.656 278.385 84.358V87.8835C278.385 88.5849 277.816 89.1536 277.114 89.1536Z" fill="#F0E6E1"/>
<path d="M261.25 89.1536C260.549 89.1536 259.98 88.5849 259.98 87.8835V84.358C259.98 83.656 260.549 83.0879 261.25 83.0879C261.952 83.0879 262.521 83.656 262.521 84.358V87.8835C262.521 88.5849 261.952 89.1536 261.25 89.1536Z" fill="#F0E6E1"/>
<path d="M266.54 89.1536C265.838 89.1536 265.27 88.5849 265.27 87.8835V84.358C265.27 83.656 265.838 83.0879 266.54 83.0879C267.242 83.0879 267.81 83.656 267.81 84.358V87.8835C267.81 88.5849 267.242 89.1536 266.54 89.1536Z" fill="#F0E6E1"/>
<path d="M250.676 89.1536C249.974 89.1536 249.406 88.5849 249.406 87.8835V84.358C249.406 83.656 249.974 83.0879 250.676 83.0879C251.378 83.0879 251.946 83.656 251.946 84.358V87.8835C251.946 88.5849 251.378 89.1536 250.676 89.1536Z" fill="#F0E6E1"/>
<path d="M255.961 89.1536C255.259 89.1536 254.691 88.5849 254.691 87.8835V84.358C254.691 83.656 255.259 83.0879 255.961 83.0879C256.663 83.0879 257.231 83.656 257.231 84.358V87.8835C257.231 88.5849 256.663 89.1536 255.961 89.1536Z" fill="#F0E6E1"/>
<path d="M249.068 64.3305C248.743 64.3305 248.417 64.2065 248.169 63.9585C247.673 63.4625 247.673 62.6581 248.169 62.1621C251.55 58.7816 251.55 53.2812 248.169 49.901C247.673 49.4047 247.673 48.6005 248.169 48.1043C248.666 47.6084 249.47 47.6084 249.966 48.1043C254.337 52.4754 254.337 59.5875 249.966 63.9585C249.718 64.2064 249.393 64.3305 249.068 64.3305Z" fill="#44CE78"/>
<path d="M245.461 60.7249C245.136 60.7249 244.811 60.6008 244.563 60.3528C244.067 59.8565 244.067 59.0523 244.563 58.5562C245.956 57.1635 245.956 54.8973 244.563 53.5045C244.067 53.0083 244.067 52.2038 244.563 51.7079C245.059 51.2118 245.863 51.212 246.359 51.7082C248.743 54.0916 248.743 57.9696 246.359 60.353C246.112 60.6007 245.786 60.7249 245.461 60.7249Z" fill="#44CE78"/>
<path d="M235.009 64.3306C234.684 64.3306 234.359 64.2067 234.111 63.9585C229.739 59.5875 229.739 52.4754 234.111 48.1043C234.607 47.6084 235.411 47.6084 235.908 48.1043C236.403 48.6006 236.403 49.4048 235.908 49.901C232.527 53.2811 232.527 58.7815 235.908 62.162C236.403 62.6582 236.403 63.4626 235.907 63.9585C235.659 64.2065 235.334 64.3306 235.009 64.3306Z" fill="#44CE78"/>
<path d="M238.615 60.7251C238.291 60.7251 237.965 60.6011 237.717 60.3531C235.334 57.9697 235.334 54.0915 237.717 51.7081C238.214 51.2117 239.018 51.2122 239.514 51.708C240.01 52.2041 240.01 53.0085 239.514 53.5045C238.121 54.8974 238.121 57.1638 239.514 58.5563C240.01 59.0526 240.01 59.8568 239.514 60.3529C239.266 60.6009 238.94 60.7251 238.615 60.7251Z" fill="#44CE78"/>
<path d="M242.04 57.3006C242.741 57.3006 243.31 56.7318 243.31 56.0302C243.31 55.3286 242.741 54.7598 242.04 54.7598C241.339 54.7598 240.77 55.3286 240.77 56.0302C240.77 56.7318 241.339 57.3006 242.04 57.3006Z" fill="#44CE78"/>
</g>
</g>
<defs>
<clipPath id="clip0_1630_698">
<rect width="486" height="124" fill="white"/>
</clipPath>
</defs>
</svg>
