<svg width="65" height="65" viewBox="0 0 65 65" fill="none" xmlns="http://www.w3.org/2000/svg">
<mask id="mask0_1630_793" style="mask-type:luminance" maskUnits="userSpaceOnUse" x="9" y="6" width="48" height="54">
<path d="M56.8636 6H9V60H56.8636V6Z" fill="white"/>
</mask>
<g mask="url(#mask0_1630_793)">
<path d="M56.8636 28.5734C56.742 35.5248 54.4443 41.0142 49.8014 45.5539C49.6242 45.7265 49.3104 45.8566 49.0591 45.8566C39.2278 45.8891 29.3966 45.9059 19.5654 45.9194C18.61 45.9205 17.6534 45.9003 16.6991 45.8588C16.4964 45.8499 16.252 45.7467 16.1073 45.6077C12.3446 41.9717 10.0434 37.6024 9.26165 32.5155C7.77116 22.8183 12.7453 13.2994 21.7125 8.66103C24.6507 7.14069 27.7915 6.25046 31.128 6.05313C39.2858 5.57214 46.0341 8.3583 51.3324 14.3556C54.1073 17.4972 55.8224 21.159 56.4814 25.2547C56.6887 26.5418 56.7814 27.8458 56.8636 28.5734ZM18.2463 45.6256C18.2093 45.2725 18.1629 45.0348 18.1629 44.7971C18.1583 42.2744 18.1386 39.7517 18.1652 37.229C18.2104 32.9573 20.8741 29.4266 24.9715 28.1126C26.5442 27.6081 28.1621 27.6888 29.7776 27.6462C30.3764 27.6305 30.7864 27.7538 30.9253 28.3514C31.2102 29.569 31.9954 29.8998 33.2311 29.7798C33.9144 29.7137 34.3881 29.6363 34.5989 28.94C34.6996 28.6048 34.8826 28.2819 35.0876 27.9926C35.1953 27.8402 35.4258 27.6888 35.6087 27.6798C36.3407 27.6428 37.0749 27.6518 37.808 27.6619C43.2048 27.7359 47.528 31.7015 47.6635 36.7873C47.7411 39.7147 47.6774 42.6466 47.6774 45.5494C54.4084 40.0589 57.4369 30.4413 54.0042 21.5615C50.5461 12.6099 41.2221 6.40407 30.4598 7.52414C20.9679 8.51191 12.4928 15.5967 10.7869 25.6157C9.99588 30.2631 10.7082 34.722 12.8843 38.9433C14.1952 41.4873 15.959 43.6938 18.2463 45.6245V45.6256ZM31.6561 30.5366C31.6272 30.5972 31.6005 30.6286 31.597 30.6611C31.304 33.9338 31.0076 37.2055 30.7331 40.4794C30.7169 40.6688 30.8327 40.9177 30.9717 41.0613C31.487 41.5905 32.0487 42.0782 32.5722 42.6007C32.8258 42.854 33.018 42.8877 33.2856 42.6141C33.8021 42.0849 34.3626 41.595 34.8676 41.0568C35.0158 40.8987 35.12 40.6229 35.1015 40.4121C34.8629 37.7167 34.5989 35.0225 34.3371 32.3283C34.2781 31.7262 34.2028 31.1253 34.1368 30.5355H31.6549L31.6561 30.5366Z" fill="#44CE78"/>
<path d="M32.9355 60.0013C26.2589 60.0013 19.5824 60.0013 12.9047 60.0013C11.5741 60.0013 10.8514 59.3319 10.8468 58.0549C10.8375 54.8976 10.8375 51.7392 10.8468 48.5819C10.8503 47.3822 11.5949 46.6647 12.8306 46.6647C26.2416 46.6613 39.6537 46.6613 53.0646 46.6647C54.2355 46.6647 54.9894 47.3654 54.9964 48.5102C55.0149 51.7426 55.0149 54.9749 54.9998 58.2073C54.9952 59.3128 54.2343 60.0001 53.0808 60.0001C46.3661 60.0024 39.6502 60.0001 32.9355 60.0001V60.0013ZM42.9821 56.1993C42.8698 55.5647 42.7505 55.0411 42.6984 54.5108C42.6787 54.3112 42.762 54.05 42.8975 53.8997C43.2624 53.4983 43.6804 53.1429 44.1622 52.6877C43.4882 52.5868 42.9196 52.5285 42.3683 52.4041C42.1633 52.357 41.934 52.1877 41.8251 52.0116C41.5449 51.5564 41.3248 51.0665 41.0318 50.4958C40.7388 51.0642 40.5269 51.5452 40.2478 51.9858C40.1273 52.1753 39.8853 52.3581 39.6653 52.4108C39.1337 52.5375 38.5824 52.5857 37.942 52.6799C38.3948 53.1216 38.8048 53.4782 39.1534 53.884C39.2981 54.0522 39.3919 54.3291 39.3746 54.5467C39.3317 55.0792 39.2113 55.6062 39.1105 56.206C39.671 55.9291 40.1528 55.6521 40.667 55.4559C40.8963 55.3685 41.2218 55.3718 41.4522 55.4593C41.9456 55.6465 42.4065 55.9145 42.9809 56.2004L42.9821 56.1993ZM19.9727 52.6866C19.2941 52.5902 18.7428 52.5476 18.2147 52.4186C17.9784 52.3603 17.719 52.1686 17.5905 51.9657C17.3125 51.5295 17.111 51.0474 16.8319 50.4924C16.591 50.9577 16.3629 51.3075 16.2239 51.6887C16.0154 52.2594 15.6275 52.487 15.0195 52.5005C14.6118 52.5094 14.2076 52.6137 13.8405 52.6698C14.2366 53.0936 14.628 53.477 14.9708 53.8986C15.1017 54.0589 15.1955 54.3123 15.177 54.5119C15.1283 55.0568 15.0102 55.595 14.9083 56.2105C15.4121 55.9594 15.8591 55.78 16.2575 55.5277C16.6906 55.2541 17.0601 55.3023 17.4747 55.5468C17.8592 55.7744 18.2761 55.9515 18.7764 56.2004C18.6617 55.5636 18.5401 55.04 18.488 54.5097C18.4683 54.3101 18.5575 54.0477 18.6942 53.8986C19.0601 53.5006 19.4782 53.1485 19.9727 52.6877V52.6866ZM24.7407 50.507C24.4534 51.0553 24.1894 51.5015 23.9844 51.9724C23.857 52.265 23.6775 52.4029 23.359 52.4388C22.817 52.4994 22.2774 52.5879 21.623 52.6799C22.0944 53.1261 22.5067 53.4647 22.846 53.8605C23.0046 54.0455 23.1031 54.3493 23.0857 54.5904C23.051 55.1016 22.9236 55.6084 22.8159 56.2172C23.4019 55.9212 23.879 55.6432 24.3897 55.4391C24.604 55.3539 24.9144 55.3562 25.1298 55.4414C25.6463 55.6443 26.1327 55.9179 26.7013 56.1982C26.6029 55.6723 26.5635 55.2407 26.435 54.8359C26.2752 54.3381 26.406 53.9883 26.8125 53.6665C27.1576 53.3929 27.4553 53.0644 27.8571 52.681C27.1634 52.5801 26.611 52.5274 26.0748 52.4063C25.8721 52.3603 25.6463 52.1888 25.5374 52.0128C25.256 51.5576 25.0325 51.0687 24.7407 50.5059V50.507ZM52.0629 52.6776C51.3761 52.5812 50.8237 52.5319 50.2886 52.413C50.0848 52.3671 49.8566 52.1966 49.7478 52.0206C49.4652 51.5654 49.244 51.0754 48.9498 50.5059C48.6974 50.988 48.4426 51.3602 48.3025 51.7706C48.1183 52.3076 47.7222 52.4388 47.2196 52.4893C46.7958 52.5319 46.3742 52.6081 45.8368 52.6866C46.2746 53.1026 46.5966 53.4479 46.9602 53.745C47.2949 54.0186 47.3968 54.3045 47.2856 54.7216C47.164 55.179 47.1223 55.6566 47.0332 56.2071C47.5288 55.9582 47.9527 55.7788 48.3395 55.5423C48.7588 55.2855 49.1282 55.2564 49.5602 55.5266C49.962 55.7777 50.4102 55.9605 50.9233 56.215C50.8017 55.6219 50.7136 55.1476 50.6059 54.679C50.5249 54.3224 50.5863 54.0421 50.892 53.7887C51.2684 53.477 51.6042 53.1183 52.064 52.6787L52.0629 52.6776ZM34.6217 56.2094C34.4978 55.5838 34.3646 55.0781 34.3125 54.5635C34.2905 54.3448 34.3727 54.0511 34.5221 53.893C34.8915 53.5028 35.3258 53.1721 35.7346 52.8178C35.6999 52.764 35.6651 52.7113 35.6304 52.6574C35.1046 52.5857 34.5788 52.5072 34.0519 52.4433C33.745 52.4063 33.5446 52.2908 33.4138 51.987C33.2099 51.5127 32.9378 51.0665 32.6471 50.516C32.4155 50.9566 32.185 51.3019 32.046 51.6786C31.8376 52.2448 31.4577 52.4814 30.8485 52.4971C30.4455 52.5072 30.0448 52.6148 29.5642 52.6911C29.9533 53.0723 30.2324 53.4154 30.581 53.6688C31.0396 54.0029 31.0755 54.4043 30.969 54.8875C30.8798 55.2889 30.8242 55.6959 30.7339 56.2094C31.3048 55.9235 31.7577 55.7183 32.1885 55.4761C32.5209 55.2889 32.8034 55.2665 33.1486 55.4739C33.5875 55.7374 34.0669 55.9369 34.6217 56.2094Z" fill="#44CE78"/>
<path d="M42.9842 56.1987C42.4098 55.9139 41.9489 55.6448 41.4555 55.4576C41.2251 55.3701 40.8996 55.3668 40.6703 55.4542C40.1561 55.6504 39.6743 55.9285 39.1138 56.2043C39.2146 55.6033 39.335 55.0775 39.3779 54.5449C39.3952 54.3274 39.3014 54.0505 39.1567 53.8823C38.8069 53.4775 38.3981 53.121 37.9453 52.6781C38.5846 52.584 39.137 52.5357 39.6686 52.4091C39.8886 52.3564 40.1306 52.1736 40.2511 51.9841C40.5302 51.5435 40.7421 51.0625 41.0351 50.4941C41.3281 51.0647 41.5482 51.5547 41.8284 52.0099C41.9373 52.1871 42.1666 52.3564 42.3716 52.4023C42.9229 52.5279 43.4915 52.5851 44.1655 52.686C43.6837 53.1412 43.2657 53.4966 42.9008 53.898C42.7653 54.0471 42.682 54.3095 42.7016 54.509C42.7526 55.0394 42.8731 55.563 42.9854 56.1976L42.9842 56.1987Z" fill="white"/>
<path d="M19.972 52.6855C19.4775 53.1463 19.0595 53.4984 18.6935 53.8964C18.5568 54.0455 18.4677 54.3079 18.4873 54.5075C18.5395 55.0378 18.6622 55.5614 18.7757 56.1982C18.2743 55.9493 17.8585 55.7722 17.474 55.5446C17.0594 55.299 16.69 55.2508 16.2568 55.5255C15.8584 55.7778 15.4114 55.9572 14.9076 56.2083C15.0107 55.5928 15.1277 55.0535 15.1763 54.5097C15.1948 54.3101 15.101 54.0579 14.9702 53.8964C14.6274 53.4748 14.2359 53.0914 13.8398 52.6676C14.2058 52.6115 14.6111 52.5073 15.0188 52.4983C15.6268 52.4848 16.0148 52.2572 16.2232 51.6865C16.3622 51.3053 16.5904 50.9555 16.8312 50.4902C17.1104 51.0452 17.3119 51.5273 17.5898 51.9635C17.7195 52.1664 17.9778 52.3593 18.214 52.4164C18.7421 52.5454 19.2934 52.5869 19.972 52.6844V52.6855Z" fill="white"/>
<path d="M24.7427 50.5059C25.0345 51.0688 25.2569 51.5576 25.5394 52.0128C25.6483 52.1889 25.8741 52.3604 26.0768 52.4064C26.6118 52.5286 27.1643 52.5802 27.8591 52.6811C27.4573 53.0645 27.1596 53.393 26.8145 53.6666C26.408 53.9884 26.2772 54.3382 26.437 54.836C26.5667 55.2396 26.6049 55.6713 26.7033 56.1982C26.1347 55.9179 25.6483 55.6444 25.1318 55.4414C24.9164 55.3573 24.606 55.354 24.3917 55.4392C23.8822 55.6433 23.4039 55.9213 22.8179 56.2173C22.9256 55.6074 23.053 55.1017 23.0877 54.5905C23.1039 54.3494 23.0055 54.0456 22.848 53.8606C22.5087 53.4648 22.0975 53.1262 21.625 52.6799C22.2793 52.5869 22.819 52.4994 23.361 52.4389C23.6795 52.403 23.859 52.2651 23.9864 51.9725C24.1914 51.5016 24.4554 51.0553 24.7427 50.5071V50.5059Z" fill="white"/>
<path d="M52.063 52.6768C51.6044 53.1163 51.2686 53.4751 50.891 53.7868C50.5853 54.0401 50.5239 54.3204 50.605 54.677C50.7127 55.1468 50.8007 55.6199 50.9223 56.213C50.4104 55.9585 49.9622 55.7758 49.5592 55.5246C49.1272 55.2544 48.7589 55.2836 48.3385 55.5403C47.9517 55.7769 47.5279 55.9563 47.0322 56.2052C47.1214 55.6547 47.1631 55.177 47.2847 54.7196C47.3958 54.3025 47.2939 54.0155 46.9592 53.743C46.5956 53.4459 46.2725 53.1006 45.8359 52.6846C46.3732 52.6061 46.7936 52.5299 47.2186 52.4873C47.7213 52.4368 48.1173 52.3057 48.3015 51.7686C48.4416 51.3583 48.6976 50.9849 48.9489 50.5039C49.243 51.0735 49.4654 51.5634 49.7468 52.0186C49.8557 52.1947 50.0838 52.3662 50.2876 52.4111C50.8227 52.5299 51.3751 52.5792 52.0619 52.6757L52.063 52.6768Z" fill="white"/>
<path d="M34.6239 56.2091C34.0691 55.9366 33.5885 55.737 33.1508 55.4736C32.8056 55.2661 32.5231 55.2886 32.1907 55.4758C31.7599 55.718 31.3082 55.9231 30.7361 56.2091C30.8253 55.6967 30.882 55.2886 30.9712 54.8872C31.0789 54.4039 31.0418 54.0025 30.5832 53.6684C30.2346 53.415 29.9567 53.072 29.5664 52.6907C30.047 52.6145 30.4477 52.5069 30.8507 52.4968C31.4599 52.4811 31.8398 52.2445 32.0482 51.6783C32.1872 51.3016 32.4177 50.9563 32.6493 50.5156C32.9411 51.065 33.2121 51.5124 33.416 51.9866C33.5457 52.2905 33.746 52.406 34.0541 52.443C34.581 52.5069 35.1068 52.5854 35.6326 52.6571C35.6673 52.7109 35.7021 52.7636 35.7368 52.8174C35.328 53.1717 34.8926 53.5036 34.5243 53.8927C34.3749 54.0508 34.2915 54.3445 34.3147 54.5631C34.3668 55.0778 34.5011 55.5834 34.6239 56.2091Z" fill="white"/>
<path d="M41.1103 19.196C41.1149 23.5474 37.424 27.1352 32.9514 27.1285C28.4162 27.1218 24.7519 23.5743 24.7461 19.1837C24.7403 14.7976 28.4312 11.2098 32.934 11.2266C37.468 11.2434 41.1068 14.7886 41.1114 19.1972L41.1103 19.196Z" fill="#44CE78"/>
</g>
</svg>
