<svg width="48" height="48" viewBox="0 0 48 48" fill="none" xmlns="http://www.w3.org/2000/svg">
<g clip-path="url(#clip0_1630_978)">
<mask id="mask0_1630_978" style="mask-type:luminance" maskUnits="userSpaceOnUse" x="0" y="0" width="48" height="48">
<path d="M48 0H0V48H48V0Z" fill="white"/>
</mask>
<g mask="url(#mask0_1630_978)">
<path d="M47.9984 6.22472V13.3355C47.9989 13.6858 47.9303 14.0328 47.7964 14.3565C47.6626 14.6802 47.4662 14.9744 47.2185 15.2221C46.9708 15.4698 46.6766 15.6662 46.3529 15.8C46.0292 15.9339 45.6822 16.0025 45.3319 16.002H44.5586C44.7542 15.6376 44.9408 15.2554 45.1186 14.8643C46.621 11.522 47.289 7.86468 47.0652 4.20703C47.3581 4.45521 47.5934 4.76433 47.7546 5.11281C47.9158 5.4613 47.999 5.84076 47.9984 6.22472Z" fill="#043D5F"/>
<path d="M13.3342 9.77965C13.8251 9.77965 14.223 9.3817 14.223 8.8908C14.223 8.3999 13.8251 8.00195 13.3342 8.00195C12.8433 8.00195 12.4453 8.3999 12.4453 8.8908C12.4453 9.3817 12.8433 9.77965 13.3342 9.77965Z" fill="#043D5F"/>
<path d="M6.22088 9.77965C6.71177 9.77965 7.10972 9.3817 7.10972 8.8908C7.10972 8.3999 6.71177 8.00195 6.22088 8.00195C5.72998 8.00195 5.33203 8.3999 5.33203 8.8908C5.33203 9.3817 5.72998 9.77965 6.22088 9.77965Z" fill="#043D5F"/>
<path d="M25.9899 14.8628C24.4834 11.4997 23.8154 7.82131 24.0433 4.14328C24.052 3.94219 24.0941 3.74395 24.1678 3.55664H2.66654C2.31624 3.55617 1.96928 3.62483 1.64555 3.75867C1.32182 3.89251 1.02768 4.08891 0.779971 4.33661C0.532266 4.58432 0.335868 4.87846 0.202028 5.20219C0.0681873 5.52592 -0.000465636 5.87288 2.37681e-06 6.22319V13.334C-0.000465636 13.6843 0.0681873 14.0312 0.202028 14.355C0.335868 14.6787 0.532266 14.9728 0.779971 15.2205C1.02768 15.4682 1.32182 15.6646 1.64555 15.7985C1.96928 15.9323 2.31624 16.001 2.66654 16.0005H26.5499C26.3543 15.6361 26.1677 15.2539 25.9899 14.8628ZM6.22193 11.5563C5.69454 11.5563 5.17899 11.3999 4.74048 11.1069C4.30197 10.8139 3.96019 10.3974 3.75837 9.91017C3.55655 9.42292 3.50374 8.88677 3.60663 8.36951C3.70952 7.85225 3.96348 7.37712 4.3364 7.0042C4.70933 6.63127 5.18446 6.37731 5.70172 6.27442C6.21898 6.17153 6.75513 6.22434 7.24238 6.42616C7.72962 6.62799 8.14608 6.96977 8.43908 7.40828C8.73209 7.84679 8.88848 8.36234 8.88848 8.88973C8.8877 9.5967 8.60652 10.2745 8.10661 10.7744C7.60671 11.2743 6.92891 11.5555 6.22193 11.5563ZM13.3327 11.5563C12.8053 11.5563 12.2898 11.3999 11.8513 11.1069C11.4128 10.8139 11.071 10.3974 10.8691 9.91017C10.6673 9.42292 10.6145 8.88677 10.7174 8.36951C10.8203 7.85225 11.0743 7.37712 11.4472 7.0042C11.8201 6.63127 12.2952 6.37731 12.8125 6.27442C13.3298 6.17153 13.8659 6.22434 14.3532 6.42616C14.8404 6.62799 15.2569 6.96977 15.5499 7.40828C15.8429 7.84679 15.9993 8.36234 15.9993 8.88973C15.9985 9.5967 15.7173 10.2745 15.2174 10.7744C14.7175 11.2743 14.0397 11.5555 13.3327 11.5563Z" fill="#043D5F"/>
<path d="M13.3342 25.7796C13.8251 25.7796 14.223 25.3817 14.223 24.8908C14.223 24.3999 13.8251 24.002 13.3342 24.002C12.8433 24.002 12.4453 24.3999 12.4453 24.8908C12.4453 25.3817 12.8433 25.7796 13.3342 25.7796Z" fill="#043D5F"/>
<path d="M6.22088 25.7796C6.71177 25.7796 7.10972 25.3817 7.10972 24.8908C7.10972 24.3999 6.71177 24.002 6.22088 24.002C5.72998 24.002 5.33203 24.3999 5.33203 24.8908C5.33203 25.3817 5.72998 25.7796 6.22088 25.7796Z" fill="#043D5F"/>
<path d="M45.3312 19.5566H42.2558C40.7065 21.5072 38.8406 23.1838 36.7361 24.5164C36.3798 24.7386 35.968 24.8557 35.5482 24.8541C35.1283 24.8525 34.7174 24.7324 34.3628 24.5075C32.2592 23.1806 30.3959 21.5066 28.852 19.5566H2.66654C2.31624 19.5562 1.96928 19.6248 1.64555 19.7587C1.32182 19.8925 1.02768 20.0889 0.779971 20.3366C0.532266 20.5843 0.335868 20.8785 0.202028 21.2022C0.0681873 21.5259 -0.000465636 21.8729 2.37681e-06 22.2232V29.334C-0.000465636 29.6843 0.0681873 30.0312 0.202028 30.355C0.335868 30.6787 0.532266 30.9728 0.779971 31.2205C1.02768 31.4682 1.32182 31.6646 1.64555 31.7985C1.96928 31.9323 2.31624 32.001 2.66654 32.0005H45.3312C45.6815 32.001 46.0285 31.9323 46.3522 31.7985C46.6759 31.6646 46.9701 31.4682 47.2178 31.2205C47.4655 30.9728 47.6619 30.6787 47.7957 30.355C47.9296 30.0312 47.9982 29.6843 47.9978 29.334V22.2232C47.9982 21.8729 47.9296 21.5259 47.7957 21.2022C47.6619 20.8785 47.4655 20.5843 47.2178 20.3366C46.9701 20.0889 46.6759 19.8925 46.3522 19.7587C46.0285 19.6248 45.6815 19.5562 45.3312 19.5566ZM6.22193 27.5563C5.69454 27.5563 5.17899 27.3999 4.74048 27.1069C4.30197 26.8139 3.96019 26.3974 3.75837 25.9102C3.55655 25.4229 3.50374 24.8868 3.60663 24.3695C3.70952 23.8523 3.96348 23.3771 4.3364 23.0042C4.70933 22.6313 5.18446 22.3773 5.70172 22.2744C6.21898 22.1715 6.75513 22.2243 7.24238 22.4262C7.72962 22.628 8.14608 22.9698 8.43908 23.4083C8.73209 23.8468 8.88848 24.3623 8.88848 24.8897C8.8877 25.5967 8.60652 26.2745 8.10661 26.7744C7.60671 27.2743 6.92891 27.5555 6.22193 27.5563ZM13.3327 27.5563C12.8053 27.5563 12.2898 27.3999 11.8513 27.1069C11.4128 26.8139 11.071 26.3974 10.8691 25.9102C10.6673 25.4229 10.6145 24.8868 10.7174 24.3695C10.8203 23.8523 11.0743 23.3771 11.4472 23.0042C11.8201 22.6313 12.2952 22.3773 12.8125 22.2744C13.3298 22.1715 13.8659 22.2243 14.3532 22.4262C14.8404 22.628 15.2569 22.9698 15.5499 23.4083C15.8429 23.8468 15.9993 24.3623 15.9993 24.8897C15.9985 25.5967 15.7173 26.2745 15.2174 26.7744C14.7175 27.2743 14.0397 27.5555 13.3327 27.5563ZM29.332 29.334H25.7766C25.5408 29.334 25.3148 29.2403 25.1481 29.0736C24.9814 28.9069 24.8877 28.6809 24.8877 28.4451C24.8877 28.2094 24.9814 27.9833 25.1481 27.8166C25.3148 27.6499 25.5408 27.5563 25.7766 27.5563H29.332C29.5677 27.5563 29.7938 27.6499 29.9605 27.8166C30.1272 27.9833 30.2208 28.2094 30.2208 28.4451C30.2208 28.6809 30.1272 28.9069 29.9605 29.0736C29.7938 29.2403 29.5677 29.334 29.332 29.334ZM36.4427 29.334H32.8874C32.6516 29.334 32.4255 29.2403 32.2588 29.0736C32.0922 28.9069 31.9985 28.6809 31.9985 28.4451C31.9985 28.2094 32.0922 27.9833 32.2588 27.8166C32.4255 27.6499 32.6516 27.5563 32.8874 27.5563H36.4427C36.6785 27.5563 36.9046 27.6499 37.0713 27.8166C37.2379 27.9833 37.3316 28.2094 37.3316 28.4451C37.3316 28.6809 37.2379 28.9069 37.0713 29.0736C36.9046 29.2403 36.6785 29.334 36.4427 29.334ZM43.5535 29.334H39.9981C39.7624 29.334 39.5363 29.2403 39.3696 29.0736C39.2029 28.9069 39.1093 28.6809 39.1093 28.4451C39.1093 28.2094 39.2029 27.9833 39.3696 27.8166C39.5363 27.6499 39.7624 27.5563 39.9981 27.5563H43.5535C43.7893 27.5563 44.0153 27.6499 44.182 27.8166C44.3487 27.9833 44.4424 28.2094 44.4424 28.4451C44.4424 28.6809 44.3487 28.9069 44.182 29.0736C44.0153 29.2403 43.7893 29.334 43.5535 29.334Z" fill="#043D5F"/>
<path d="M6.22088 41.7777C6.71177 41.7777 7.10972 41.3797 7.10972 40.8888C7.10972 40.398 6.71177 40 6.22088 40C5.72998 40 5.33203 40.398 5.33203 40.8888C5.33203 41.3797 5.72998 41.7777 6.22088 41.7777Z" fill="#043D5F"/>
<path d="M13.3342 41.7777C13.8251 41.7777 14.223 41.3797 14.223 40.8888C14.223 40.398 13.8251 40 13.3342 40C12.8433 40 12.4453 40.398 12.4453 40.8888C12.4453 41.3797 12.8433 41.7777 13.3342 41.7777Z" fill="#043D5F"/>
<path d="M45.3312 35.5566H2.66654C1.95933 35.5566 1.28109 35.8376 0.781012 36.3377C0.280939 36.8377 0 37.516 0 38.2232V45.334C0 46.0412 0.280939 46.7194 0.781012 47.2195C1.28109 47.7196 1.95933 48.0005 2.66654 48.0005H45.3312C46.0384 48.0005 46.7167 47.7196 47.2167 47.2195C47.7168 46.7194 47.9978 46.0412 47.9978 45.334V38.2232C47.9978 37.516 47.7168 36.8377 47.2167 36.3377C46.7167 35.8376 46.0384 35.5566 45.3312 35.5566ZM6.22193 43.5563C5.69454 43.5563 5.17899 43.3999 4.74048 43.1069C4.30197 42.8139 3.96019 42.3974 3.75837 41.9102C3.55654 41.4229 3.50374 40.8868 3.60663 40.3695C3.70952 39.8523 3.96348 39.3771 4.3364 39.0042C4.70932 38.6313 5.18446 38.3773 5.70171 38.2744C6.21897 38.1715 6.75513 38.2243 7.24237 38.4262C7.72962 38.628 8.14608 38.9698 8.43908 39.4083C8.73208 39.8468 8.88847 40.3623 8.88847 40.8897C8.8877 41.5967 8.60652 42.2745 8.10661 42.7744C7.6067 43.2743 6.92891 43.5555 6.22193 43.5563ZM13.3327 43.5563C12.8053 43.5563 12.2898 43.3999 11.8513 43.1069C11.4127 42.8139 11.071 42.3974 10.8691 41.9102C10.6673 41.4229 10.6145 40.8868 10.7174 40.3695C10.8203 39.8523 11.0743 39.3771 11.4472 39.0042C11.8201 38.6313 12.2952 38.3773 12.8125 38.2744C13.3298 38.1715 13.8659 38.2243 14.3532 38.4262C14.8404 38.628 15.2569 38.9698 15.5499 39.4083C15.8429 39.8468 15.9993 40.3623 15.9993 40.8897C15.9985 41.5967 15.7173 42.2745 15.2174 42.7744C14.7175 43.2743 14.0397 43.5555 13.3327 43.5563ZM29.332 45.334H25.7766C25.5408 45.334 25.3148 45.2403 25.1481 45.0736C24.9814 44.9069 24.8877 44.6809 24.8877 44.4451C24.8877 44.2094 24.9814 43.9833 25.1481 43.8166C25.3148 43.6499 25.5408 43.5563 25.7766 43.5563H29.332C29.5677 43.5563 29.7938 43.6499 29.9605 43.8166C30.1272 43.9833 30.2208 44.2094 30.2208 44.4451C30.2208 44.6809 30.1272 44.9069 29.9605 45.0736C29.7938 45.2403 29.5677 45.334 29.332 45.334ZM36.4427 45.334H32.8874C32.6516 45.334 32.4255 45.2403 32.2588 45.0736C32.0922 44.9069 31.9985 44.6809 31.9985 44.4451C31.9985 44.2094 32.0922 43.9833 32.2588 43.8166C32.4255 43.6499 32.6516 43.5563 32.8874 43.5563H36.4427C36.6785 43.5563 36.9046 43.6499 37.0713 43.8166C37.2379 43.9833 37.3316 44.2094 37.3316 44.4451C37.3316 44.6809 37.2379 44.9069 37.0713 45.0736C36.9046 45.2403 36.6785 45.334 36.4427 45.334ZM43.5535 45.334H39.9981C39.7624 45.334 39.5363 45.2403 39.3696 45.0736C39.2029 44.9069 39.1093 44.6809 39.1093 44.4451C39.1093 44.2094 39.2029 43.9833 39.3696 43.8166C39.5363 43.6499 39.7624 43.5563 39.9981 43.5563H43.5535C43.7893 43.5563 44.0153 43.6499 44.182 43.8166C44.3487 43.9833 44.4424 44.2094 44.4424 44.4451C44.4424 44.6809 44.3487 44.9069 44.182 45.0736C44.0153 45.2403 43.7893 45.334 43.5535 45.334Z" fill="#043D5F"/>
<path d="M45.2944 4.25093C45.2892 4.19051 45.2634 4.13371 45.2213 4.09003C45.1792 4.04635 45.1235 4.01843 45.0633 4.01094C42.1671 3.51639 40.0195 3.17646 35.7037 0.0466829C35.6592 0.0162702 35.6065 0 35.5526 0C35.4987 0 35.446 0.0162702 35.4015 0.0466829C31.0791 3.18129 28.9265 3.51841 26.0419 4.01094C25.9818 4.01843 25.926 4.04635 25.8839 4.09003C25.8419 4.13371 25.8161 4.19051 25.8108 4.25093C25.6089 7.64274 26.2279 11.0332 27.6152 14.1349C29.2635 17.7827 31.9421 20.8691 35.3215 23.0145C35.3907 23.058 35.4708 23.0811 35.5526 23.0811C35.6344 23.0811 35.7145 23.058 35.7837 23.0145C39.1619 20.8676 41.8401 17.7816 43.49 14.1349C44.8773 11.0332 45.4963 7.64274 45.2944 4.25093ZM36.4415 12.2823V15.1126C36.4415 15.3484 36.3478 15.5745 36.1811 15.7412C36.0144 15.9078 35.7884 16.0015 35.5526 16.0015C35.3169 16.0015 35.0908 15.9078 34.9241 15.7412C34.7574 15.5745 34.6638 15.3484 34.6638 15.1126V12.2823C34.0707 12.0726 33.5709 11.66 33.2527 11.1174C32.9344 10.5749 32.8182 9.93726 32.9246 9.31731C33.031 8.69736 33.3531 8.13498 33.8341 7.72956C34.315 7.32415 34.9238 7.1018 35.5528 7.10182C36.1818 7.10184 36.7905 7.32422 37.2714 7.72966C37.7523 8.13511 38.0744 8.69751 38.1808 9.31747C38.2871 9.93742 38.1709 10.575 37.8526 11.1176C37.5343 11.6601 37.0345 12.0727 36.4415 12.2823Z" fill="#043D5F"/>
<path d="M35.553 10.6683C36.0439 10.6683 36.4418 10.2704 36.4418 9.77948C36.4418 9.28859 36.0439 8.89062 35.553 8.89062C35.0621 8.89062 34.6641 9.28859 34.6641 9.77948C34.6641 10.2704 35.0621 10.6683 35.553 10.6683Z" fill="#043D5F"/>
</g>
</g>
<defs>
<clipPath id="clip0_1630_978">
<rect width="48" height="48" fill="white"/>
</clipPath>
</defs>
</svg>
