<svg width="48" height="48" viewBox="0 0 48 48" fill="none" xmlns="http://www.w3.org/2000/svg">
<g clip-path="url(#clip0_1630_1044)">
<mask id="mask0_1630_1044" style="mask-type:luminance" maskUnits="userSpaceOnUse" x="0" y="0" width="48" height="48">
<path d="M48 0H0V48H48V0Z" fill="white"/>
</mask>
<g mask="url(#mask0_1630_1044)">
<mask id="mask1_1630_1044" style="mask-type:luminance" maskUnits="userSpaceOnUse" x="0" y="0" width="48" height="48">
<path d="M48 0H0V48H48V0Z" fill="white"/>
</mask>
<g mask="url(#mask1_1630_1044)">
<path fill-rule="evenodd" clip-rule="evenodd" d="M11.1008 12.6941C11.3409 13.2076 11.8512 13.5366 12.4173 13.5366H19.4888V16.0442C19.4888 16.8509 20.1406 17.5045 20.9467 17.5045C21.7486 17.5045 22.4005 16.8509 22.4005 16.0442V13.5366H23.0696C23.8757 13.5366 24.5232 12.883 24.5232 12.0759C24.5232 11.2697 23.8757 10.6162 23.0696 10.6162H22.4005V1.85315C22.4005 1.23888 22.0189 0.690398 21.4442 0.481658C20.8696 0.2716 20.2221 0.445048 19.8318 0.915984L11.3023 11.1387C10.9377 11.573 10.8606 12.1801 11.1008 12.6941ZM48 23.9074C48 30.3406 45.5046 36.3944 40.9728 40.9435C36.4406 45.4933 30.4094 48 24 48C17.5906 48 11.5594 45.4933 7.02722 40.9435C2.49544 36.3944 0 30.3406 0 23.9074C0 22.6984 0.976501 21.7166 2.18099 21.7166C3.38774 21.7166 4.362 22.6965 4.362 23.9074C4.362 34.7754 13.1742 43.6194 23.9998 43.6194C34.8258 43.6194 43.6379 34.7754 43.6379 23.9074C43.6379 14.0498 36.3069 5.63766 26.5646 4.36235C25.3728 4.20632 24.5315 3.10398 24.6853 1.90811C24.8394 0.711102 25.9386 -0.137691 27.1302 0.0185341C32.8747 0.771522 38.1424 3.59544 41.981 7.95018C45.865 12.3564 48 18.024 48 23.9074ZM19.4886 5.87125V10.6161H15.5348L19.4886 5.87125ZM26.8518 36.8883C26.4187 37.5672 26.6158 38.4709 27.2934 38.9051C27.5336 39.061 27.808 39.1358 28.0739 39.1358C28.5542 39.1358 29.0216 38.8987 29.3003 38.4635L38.3573 24.2725C38.6446 23.8221 38.6618 23.2518 38.4086 22.7838C38.1514 22.3154 37.6626 22.0245 37.1309 22.0245H28.8629C28.0566 22.0245 27.4093 22.6779 27.4093 23.4846C27.4093 24.2914 28.0568 24.945 28.8629 24.945H34.472L26.8518 36.8883ZM34.4677 10.0565C35.0338 10.6269 35.0338 11.5516 34.4677 12.1221L13.0262 33.6464C12.7389 33.9314 12.3701 34.0738 11.997 34.0738C11.624 34.0738 11.2508 33.9314 10.9678 33.6464C10.4017 33.076 10.4017 32.1517 10.9678 31.5813L32.4094 10.0565C32.9754 9.48608 33.8974 9.48608 34.4677 10.0565ZM8.95229 6.99749C9.32109 5.64406 9.08954 4.62379 8.26181 3.96595C7.33125 3.22934 5.79178 3.09984 4.74544 3.67016C3.95213 4.10365 3.60046 4.85267 3.70341 5.89581C3.77634 6.69906 3.19312 7.4129 2.39118 7.4895C1.59356 7.56526 0.881718 6.97848 0.804469 6.17608C0.594374 3.95475 1.52063 2.10669 3.35606 1.10581C5.41022 -0.0186398 8.2319 0.221627 10.0672 1.67622C11.8169 3.0671 12.4344 5.2872 11.7611 7.76675C11.3065 9.44053 9.7456 10.661 7.94446 12.0746C6.96675 12.8383 5.9161 13.6605 5.03701 14.5839H11.0621C11.8641 14.5839 12.5159 15.2373 12.5159 16.0442C12.5159 16.8509 11.8641 17.5045 11.0621 17.5045H2.21099C1.71357 17.5045 1.24612 17.2453 0.98025 16.819C0.714374 16.3928 0.684374 15.8591 0.903094 15.4063C2.08669 12.9572 4.248 11.265 6.15197 9.77293C7.42987 8.77064 8.75502 7.73485 8.95229 6.99749Z" fill="#44CE78"/>
</g>
</g>
</g>
<defs>
<clipPath id="clip0_1630_1044">
<rect width="48" height="48" fill="white"/>
</clipPath>
</defs>
</svg>
