<svg width="70" height="70" viewBox="0 0 70 70" fill="none" xmlns="http://www.w3.org/2000/svg">
<g clip-path="url(#clip0_1630_1064)">
<mask id="mask0_1630_1064" style="mask-type:luminance" maskUnits="userSpaceOnUse" x="0" y="0" width="70" height="70">
<path d="M70 0H0V70H70V0Z" fill="white"/>
</mask>
<g mask="url(#mask0_1630_1064)">
<mask id="mask1_1630_1064" style="mask-type:luminance" maskUnits="userSpaceOnUse" x="0" y="0" width="70" height="70">
<path d="M70 0H0V70H70V0Z" fill="white"/>
</mask>
<g mask="url(#mask1_1630_1064)">
<path fill-rule="evenodd" clip-rule="evenodd" d="M24.563 56.0466L24.5117 56.1423L22.2787 60.4729L22.2273 60.4496C16.6374 57.8387 12.1534 53.3316 9.57133 47.7283H9.55967L14.0257 45.4416L13.944 45.3016C12.3614 42.9616 11.581 40.1711 11.7203 37.3496H0C0.319667 55.2463 14.77 69.6686 32.6667 69.9626L32.6643 69.9859V58.3566H32.641C29.8274 58.4906 27.0459 57.7106 24.7123 56.1329L24.563 56.0466Z" fill="#44CE78"/>
<path d="M26.5546 31.8528C26.5546 37.5531 20.4062 38.5121 20.4062 44.3221V46.7488H29.3757V43.9279H23.5096C23.4816 43.7879 23.4816 43.6478 23.4816 43.5055C23.4816 40.2621 29.6579 37.9475 29.6579 31.7408C29.6579 28.5815 28.0782 26.7754 25.0332 26.7754C21.9859 26.7754 20.4062 28.5815 20.4062 31.7408V33.6589H23.3392V31.5426C23.3392 30.1332 23.9599 29.5963 24.9492 29.5963C25.9339 29.5963 26.5546 30.0771 26.5546 31.8528ZM30.8573 43.1671H36.8377V46.7488H39.885V43.1671H41.3526V40.3439H39.885V27.0018H36.5016L30.8573 40.3461V43.1671ZM33.7063 40.3439L36.8377 32.9237V40.3439H33.7063Z" fill="#44CE78"/>
<path fill-rule="evenodd" clip-rule="evenodd" d="M33.8906 4.66602V9.33724H36.2239V4.66602H33.8906ZM60.6656 33.8327V36.166H65.3323V33.8327H60.6656ZM33.8906 11.6521V20.9692H36.2239V11.6521H33.8906ZM44.5656 33.8327V36.166H58.3323V33.8327H44.5656Z" fill="#44CE78"/>
<path d="M35.0322 0C15.7332 0 0.0625 15.6708 0.0625 34.9698H2.39583C2.39583 16.9331 16.9932 2.33333 35.0322 2.33333C53.0688 2.33333 67.6661 16.9308 67.6661 34.9698C67.6661 53.0065 53.0688 67.6037 35.0322 67.6037V69.937C54.3288 69.937 69.9995 54.2665 69.9995 34.9698C69.9995 15.6708 54.3312 0 35.0322 0Z" fill="#44CE78"/>
</g>
</g>
</g>
<defs>
<clipPath id="clip0_1630_1064">
<rect width="70" height="70" fill="white"/>
</clipPath>
</defs>
</svg>
