<svg width="53" height="53" viewBox="0 0 53 53" fill="none" xmlns="http://www.w3.org/2000/svg">
<g clip-path="url(#clip0_2908_1686)">
<path d="M32.4267 14.1108C31.2868 14.1108 30.3516 15.0461 30.3516 16.1859V17.3375L33.3561 14.333C33.0755 14.1927 32.7599 14.1108 32.4267 14.1108Z" fill="#2D324F"/>
<path d="M28.8087 31.8399V29.5017L27.2188 31.0916C27.7741 31.3313 28.3001 31.5768 28.8087 31.8399Z" fill="#2D324F"/>
<path d="M9.21875 24.7083C9.21875 27.1575 11.2237 29.1625 13.6729 29.1625H17.7062V20.2542H13.6729C11.2237 20.2542 9.21875 22.2591 9.21875 24.7083Z" fill="#2D324F"/>
<path d="M19.2578 28.4379L28.8092 18.8865V17.5771C26.2021 18.9333 22.9053 19.9504 19.2578 20.4823V28.4379Z" fill="#2D324F"/>
<path d="M14.9018 32.7868L16.9827 30.7117H14.6562L14.9018 32.7868Z" fill="#2D324F"/>
<path d="M30.3574 33.225C30.3574 34.3648 31.2927 35.3001 32.4325 35.3001C33.5724 35.3001 34.5076 34.3648 34.5076 33.225V23.8022L30.3516 27.9583V33.2308L30.3574 33.225Z" fill="#2D324F"/>
<path d="M41.9257 30.0978L39.2076 28.5254C38.8218 28.3033 38.3308 28.4319 38.1087 28.8177C37.8866 29.2035 38.0152 29.6945 38.401 29.9166L41.119 31.489C41.5048 31.7112 41.9959 31.5826 42.218 31.1968C42.4401 30.811 42.3115 30.32 41.9257 30.0978Z" fill="#2D324F"/>
<path d="M26.5029 0C11.8661 0 0 11.8661 0 26.5029C0 41.1397 11.8661 53.0059 26.5029 53.0059C41.1397 53.0059 53.0059 41.1397 53.0059 26.5029C53.0059 11.8661 41.1339 0 26.5029 0ZM4.4191 26.5029C4.4191 14.3036 14.3036 4.4191 26.5029 4.4191C31.8047 4.4191 36.6739 6.28962 40.4792 9.40521L9.39936 40.4734C6.28378 36.668 4.41326 31.7988 4.41326 26.4971L4.4191 26.5029ZM26.5029 48.5868C21.2012 48.5868 16.332 46.7162 12.5266 43.6006L43.6006 12.5266C46.7162 16.332 48.5868 21.2012 48.5868 26.5029C48.5868 38.7022 38.7022 48.5868 26.5029 48.5868Z" fill="#FFA054"/>
<path d="M43.7429 23.9016H40.7676C40.3233 23.9016 39.9609 24.264 39.9609 24.7083C39.9609 25.1525 40.3233 25.5149 40.7676 25.5149H43.7429C44.1871 25.5149 44.5496 25.1525 44.5496 24.7083C44.5496 24.264 44.1871 23.9016 43.7429 23.9016Z" fill="#2D324F"/>
<path d="M39.1998 20.8914L41.9179 19.319C42.3037 19.0969 42.4323 18.6058 42.2102 18.22C41.988 17.8343 41.497 17.7057 41.1112 17.9278L38.3931 19.5002C38.0073 19.7223 37.8787 20.2133 38.1009 20.5991C38.323 20.9849 38.814 21.1135 39.1998 20.8914Z" fill="#2D324F"/>
<path d="M36.0547 22.5281V26.8829C36.873 26.4971 37.44 25.667 37.44 24.7026C37.44 23.7381 36.873 22.908 36.0547 22.5281Z" fill="#2D324F"/>
</g>
<defs>
<clipPath id="clip0_2908_1686">
<rect width="53" height="53" fill="white"/>
</clipPath>
</defs>
</svg>
