<svg width="70" height="56" viewBox="0 0 70 56" fill="none" xmlns="http://www.w3.org/2000/svg">
<path d="M43.9231 27.9424L46.8502 25.0154C43.4198 22.7309 39.2827 21.4102 34.9993 21.4102C24.9689 21.4102 16.0807 28.5135 13.9033 38.2941C13.6534 39.3614 14.3317 40.4358 15.4382 40.6857C16.5091 40.932 17.5799 40.2538 17.8298 39.1472C19.6146 31.2228 26.825 25.4759 34.9993 25.4759C38.2119 25.4794 41.246 26.3718 43.9231 27.9424Z" fill="#2D324F"/>
<path d="M54.0531 32.8682L51.0547 35.8666C51.5187 36.9017 51.9114 38.0119 52.1648 39.1506C52.379 40.1179 53.1964 40.7568 54.1245 40.7568C54.2708 40.7568 54.4101 40.7212 54.5564 40.6855C55.663 40.4356 56.3412 39.3612 56.0913 38.2939C55.6594 36.3663 54.9455 34.5458 54.0531 32.8682Z" fill="black"/>
<path d="M34.986 14.7709C41.0899 14.7709 46.8047 16.8413 51.4059 20.4465L54.3008 17.5552C48.9465 13.2003 42.1643 10.7017 34.9896 10.7017C22.8174 10.7017 11.7875 17.9121 6.93297 29.0848C6.50463 30.12 6.96867 31.2979 7.96814 31.762C8.2537 31.8655 8.50357 31.9369 8.78913 31.9369C9.57443 31.9369 10.324 31.4764 10.6453 30.7268C14.8538 21.0176 24.4201 14.7709 34.986 14.7709Z" fill="#2D324F"/>
<path d="M61.2674 25.6577L58.3047 28.6204C58.7009 29.2986 59.0222 29.9769 59.3434 30.6908C59.8075 31.6902 60.9818 32.1543 62.0206 31.7295C63.0165 31.2619 63.4841 30.0875 63.0522 29.0523C62.5596 27.8708 61.9492 26.7286 61.2674 25.6577Z" fill="black"/>
<path d="M69.6092 20.4677C62.695 7.84228 49.4306 0 34.9954 0C20.5601 0 7.29572 7.84228 0.381522 20.4677C-0.153909 21.4494 0.203045 22.6773 1.18467 23.2163C2.16272 23.7517 3.39421 23.3948 3.93321 22.4131C10.1371 11.0834 22.0379 4.04786 34.9954 4.04786C47.9528 4.04786 59.8572 11.087 66.0611 22.4167C66.4323 23.0878 67.1212 23.4662 67.8387 23.4662C68.1671 23.4662 68.5026 23.3876 68.806 23.2163C69.7877 22.6773 70.1482 21.4494 69.6092 20.4677Z" fill="#2D324F"/>
<path d="M59.352 22.5888L60.6335 21.3038C61.3117 20.5899 61.3117 19.4833 60.6335 18.7694C59.9231 18.0912 58.813 18.0912 58.1026 18.7694L57.2817 19.5904C57.2817 19.6618 57.2103 19.6975 57.1746 19.7332L56.9283 19.9474L54.0334 22.8387L49.675 27.1935L46.8229 30.0491L41.2509 35.6212C40.2157 34.9037 39.0377 34.3683 37.8241 34.0506C36.9317 33.8364 35.9679 33.6901 35.0042 33.6901C28.8288 33.6901 23.8672 38.6874 23.8672 44.8663C23.8672 51.0059 28.8288 55.9997 35.0042 55.9997C41.1795 55.9997 46.1411 51.0059 46.1411 44.8663C46.1411 43.6527 45.9269 42.4747 45.57 41.3682C45.1773 40.1545 44.6026 39.048 43.8602 38.0842L49.2502 32.6942L52.0666 29.8742L56.3893 25.5551L59.2806 22.6638C59.2806 22.5888 59.3199 22.5888 59.352 22.5888Z" fill="#FFA054"/>
</svg>
