<svg width="67" height="54" viewBox="0 0 67 54" fill="none" xmlns="http://www.w3.org/2000/svg">
<path d="M52.0095 50.0234H14.6707C14.4124 50.0234 14.2031 50.2328 14.2031 50.491V52.6175C14.2031 52.8757 14.4124 53.0851 14.6707 53.0851H52.0095C52.2677 53.0851 52.477 52.8757 52.477 52.6175V50.491C52.477 50.2328 52.2677 50.0234 52.0095 50.0234Z" fill="#FFA054"/>
<path d="M64.3777 0H2.30807C1.69606 -3.15364e-08 1.1091 0.243069 0.676279 0.675755C0.243454 1.10844 0.000196472 1.69532 0 2.30733V39.3705C0 39.9827 0.243171 40.5697 0.676017 41.0026C1.10886 41.4354 1.69593 41.6786 2.30807 41.6786H30.6591V48.2234H36.0273V41.6786H64.3777C64.9898 41.6786 65.5769 41.4354 66.0097 41.0026C66.4426 40.5697 66.6857 39.9827 66.6857 39.3705V2.30733C66.6855 1.69532 66.4423 1.10844 66.0095 0.675755C65.5766 0.243069 64.9897 -3.15364e-08 64.3777 0ZM63.5182 38.5103H3.16831V3.16683H63.5182V38.5103Z" fill="#FFA054"/>
<path d="M50.4189 24.1931L47.1699 22.7942C47.1382 22.7802 47.1033 22.7756 47.0691 22.7808L42.8775 23.5344C42.8187 22.3598 42.6125 21.1973 42.264 20.0741L47.0061 16.7821C47.0459 16.753 47.0726 16.7093 47.0802 16.6606L47.8019 12.7091C47.8297 12.6205 47.8384 12.527 47.8273 12.4348C47.8162 12.3427 47.7857 12.2539 47.7377 12.1744C47.6897 12.0949 47.6254 12.0266 47.549 11.9738C47.4726 11.9211 47.3859 11.8852 47.2945 11.8686C47.2032 11.8519 47.1094 11.8548 47.0193 11.8772C46.9292 11.8995 46.8449 11.9408 46.7719 11.9982C46.6989 12.0556 46.639 12.1278 46.5961 12.2102C46.5532 12.2925 46.5283 12.383 46.523 12.4757L45.8836 15.9744L41.792 18.8138C40.1923 15.0801 37.0121 12.5335 33.3452 12.5335C29.6656 12.5335 26.4743 15.1001 24.8813 18.8582L20.9172 16.1078L20.2777 12.609C20.2724 12.5163 20.2475 12.4258 20.2046 12.3435C20.1617 12.2612 20.1018 12.1889 20.0288 12.1315C19.9559 12.0741 19.8715 12.0329 19.7814 12.0105C19.6913 11.9882 19.5975 11.9853 19.5062 12.0019C19.4149 12.0186 19.3281 12.0545 19.2517 12.1072C19.1753 12.1599 19.111 12.2283 19.063 12.3078C19.015 12.3873 18.9845 12.476 18.9734 12.5682C18.9624 12.6604 18.971 12.7539 18.9988 12.8424L19.7205 16.7939C19.7281 16.8427 19.7548 16.8864 19.7946 16.9155L24.4152 20.1216C24.0753 21.2318 23.8742 22.3799 23.8165 23.5396L19.602 22.7853C19.5678 22.78 19.5328 22.7847 19.5012 22.7986L16.2521 24.1975C16.0938 24.2657 15.9691 24.394 15.9054 24.5541C15.8417 24.7143 15.8442 24.8932 15.9124 25.0515C15.9806 25.2098 16.1089 25.3345 16.269 25.3982C16.4292 25.4619 16.6081 25.4594 16.7663 25.3912L19.7035 24.1264L23.8084 24.8614C23.8511 26.0265 24.038 27.1818 24.3648 28.3009L19.7961 31.4707C19.7563 31.4998 19.7296 31.5435 19.722 31.5922L19.0003 35.5437C18.9725 35.6323 18.9639 35.7258 18.9749 35.818C18.986 35.9101 19.0165 35.9989 19.0645 36.0784C19.1125 36.1579 19.1768 36.2262 19.2532 36.279C19.3296 36.3317 19.4163 36.3676 19.5077 36.3843C19.599 36.4009 19.6928 36.398 19.7829 36.3756C19.873 36.3533 19.9574 36.3121 20.0303 36.2546C20.1033 36.1972 20.1632 36.125 20.2061 36.0427C20.249 35.9603 20.2739 35.8698 20.2792 35.7771L20.9186 32.2784L24.8212 29.5687C26.3906 33.4128 29.6197 36.052 33.3511 36.052C37.1011 36.052 40.3449 33.3846 41.9054 29.5102L45.888 32.2739L46.5275 35.7727C46.5327 35.8654 46.5577 35.9559 46.6006 36.0382C46.6435 36.1205 46.7034 36.1928 46.7763 36.2502C46.8493 36.3076 46.9336 36.3488 47.0237 36.3712C47.1138 36.3935 47.2077 36.3965 47.299 36.3798C47.3903 36.3631 47.4771 36.3272 47.5535 36.2745C47.6299 36.2218 47.6942 36.1534 47.7422 36.0739C47.7901 35.9945 47.8207 35.9057 47.8317 35.8135C47.8428 35.7213 47.8341 35.6279 47.8063 35.5393L47.0846 31.5878C47.077 31.5391 47.0504 31.4954 47.0106 31.4663L42.3507 28.2328C42.6668 27.132 42.848 25.997 42.8901 24.8525L46.9705 24.122L49.9077 25.3868C50.066 25.455 50.2449 25.4575 50.405 25.3938C50.5652 25.33 50.6934 25.2053 50.7616 25.047C50.8298 24.8887 50.8323 24.7098 50.7686 24.5497C50.7049 24.3896 50.5802 24.2613 50.4219 24.1931H50.4189Z" fill="#2D324F"/>
<path d="M24.0971 5.36237H24.106C25.4593 5.4766 26.7554 5.95918 27.8539 6.75778C28.9524 7.55637 29.8113 8.64049 30.3374 9.89256C29.7882 10.2374 29.316 10.6917 28.9503 11.2271C28.5845 11.7625 28.3331 12.3676 28.2116 13.0046C29.7177 11.9467 31.5133 11.379 33.3538 11.379C35.1943 11.379 36.99 11.9467 38.496 13.0046C38.376 12.3718 38.1276 11.7704 37.7662 11.2373C37.4048 10.7043 36.938 10.2509 36.3947 9.90515C36.9187 8.64934 37.7773 7.56145 38.877 6.76002C39.9767 5.9586 41.2753 5.47438 42.6313 5.36015H42.6402C42.7588 5.36015 42.8725 5.31304 42.9564 5.22918C43.0402 5.14532 43.0873 5.03158 43.0873 4.91299C43.0873 4.79439 43.0402 4.68065 42.9564 4.59679C42.8725 4.51293 42.7588 4.46582 42.6402 4.46582H42.6313L42.5972 4.47027C42.579 4.4714 42.561 4.47362 42.5431 4.47693C41.0427 4.60812 39.6056 5.14208 38.3836 6.02241C37.1616 6.90274 36.2 8.09676 35.6004 9.47836C34.8952 9.17362 34.1353 9.01555 33.3671 9.01377C32.5989 9.01199 31.8383 9.16653 31.1317 9.46799C30.5307 8.08904 29.5689 6.89766 28.3478 6.0193C27.1266 5.14095 25.6912 4.60813 24.1927 4.47693C24.1748 4.47362 24.1567 4.4714 24.1386 4.47027L24.1045 4.46582H24.0956C23.977 4.46582 23.8633 4.51293 23.7794 4.59679C23.6955 4.68065 23.6484 4.79439 23.6484 4.91299C23.6484 5.03158 23.6955 5.14532 23.7794 5.22918C23.8633 5.31304 23.977 5.36015 24.0956 5.36015L24.0971 5.36237Z" fill="#2D324F"/>
</svg>
