<svg width="64" height="63" viewBox="0 0 64 63" fill="none" xmlns="http://www.w3.org/2000/svg">
<g clip-path="url(#clip0_4269_221832)">
<g clip-path="url(#clip1_4269_221832)">
<path d="M69.75 5H17.25C15.8576 5 14.5223 5.55312 13.5377 6.53769C12.5531 7.52226 12 8.85761 12 10.25L12 47C12 48.3924 12.5531 49.7277 13.5377 50.7123C14.5223 51.6969 15.8576 52.25 17.25 52.25H23.1825C22.7823 51.4023 22.4488 50.5246 22.185 49.625H17.25C16.5538 49.625 15.8861 49.3484 15.3938 48.8562C14.9016 48.3639 14.625 47.6962 14.625 47V15.5H72.375V47C72.375 47.6962 72.0984 48.3639 71.6062 48.8562C71.1139 49.3484 70.4462 49.625 69.75 49.625H64.815C64.5512 50.5246 64.2177 51.4023 63.8175 52.25H69.75C71.1424 52.25 72.4777 51.6969 73.4623 50.7123C74.4469 49.7277 75 48.3924 75 47V10.25C75 8.85761 74.4469 7.52226 73.4623 6.53769C72.4777 5.55312 71.1424 5 69.75 5ZM18.5625 11.5625C18.2144 11.5625 17.8806 11.4242 17.6344 11.1781C17.3883 10.9319 17.25 10.5981 17.25 10.25C17.25 9.9019 17.3883 9.56806 17.6344 9.32192C17.8806 9.07578 18.2144 8.9375 18.5625 8.9375C18.9106 8.9375 19.2444 9.07578 19.4906 9.32192C19.7367 9.56806 19.875 9.9019 19.875 10.25C19.875 10.5981 19.7367 10.9319 19.4906 11.1781C19.2444 11.4242 18.9106 11.5625 18.5625 11.5625ZM23.8125 11.5625C23.4644 11.5625 23.1306 11.4242 22.8844 11.1781C22.6383 10.9319 22.5 10.5981 22.5 10.25C22.5 9.9019 22.6383 9.56806 22.8844 9.32192C23.1306 9.07578 23.4644 8.9375 23.8125 8.9375C24.1606 8.9375 24.4944 9.07578 24.7406 9.32192C24.9867 9.56806 25.125 9.9019 25.125 10.25C25.125 10.5981 24.9867 10.9319 24.7406 11.1781C24.4944 11.4242 24.1606 11.5625 23.8125 11.5625ZM29.0625 11.5625C28.7144 11.5625 28.3806 11.4242 28.1344 11.1781C27.8883 10.9319 27.75 10.5981 27.75 10.25C27.75 9.9019 27.8883 9.56806 28.1344 9.32192C28.3806 9.07578 28.7144 8.9375 29.0625 8.9375C29.4106 8.9375 29.7444 9.07578 29.9906 9.32192C30.2367 9.56806 30.375 9.9019 30.375 10.25C30.375 10.5981 30.2367 10.9319 29.9906 11.1781C29.7444 11.4242 29.4106 11.5625 29.0625 11.5625Z" fill="#FFA054"/>
<path d="M34.1681 37.2219C34.058 37.0069 33.8906 36.8265 33.6845 36.7005C33.4784 36.5745 33.2416 36.5078 33 36.5078C32.7584 36.5078 32.5216 36.5745 32.3155 36.7005C32.1094 36.8265 31.942 37.0069 31.8319 37.2219L29.2069 42.4719C29.0625 42.8525 29.0625 42.6556 29.0625 48.3125C29.0625 48.6606 29.2008 48.9944 29.4469 49.2406C29.6931 49.4867 30.0269 49.625 30.375 49.625C30.7231 49.625 31.0569 49.4867 31.3031 49.2406C31.5492 48.9944 31.6875 48.6606 31.6875 48.3125V45.6875H34.3125V48.3125C34.3125 48.6606 34.4508 48.9944 34.6969 49.2406C34.9431 49.4867 35.2769 49.625 35.625 49.625C35.9731 49.625 36.3069 49.4867 36.5531 49.2406C36.7992 48.9944 36.9375 48.6606 36.9375 48.3125V43.0625C36.9375 42.6163 37.0031 42.8919 34.1681 37.2219ZM33 40.7525L34.155 43.0625H31.845L33 40.7525ZM43.5 36.5H40.875C40.5269 36.5 40.1931 36.6383 39.9469 36.8844C39.7008 37.1306 39.5625 37.4644 39.5625 37.8125V48.3125C39.5625 48.6606 39.7008 48.9944 39.9469 49.2406C40.1931 49.4867 40.5269 49.625 40.875 49.625H43.5C44.5443 49.625 45.5458 49.2102 46.2842 48.4717C47.0227 47.7333 47.4375 46.7318 47.4375 45.6875V40.4375C47.4375 39.3932 47.0227 38.3917 46.2842 37.6533C45.5458 36.9148 44.5443 36.5 43.5 36.5ZM44.8125 45.6875C44.8125 46.0356 44.6742 46.3694 44.4281 46.6156C44.1819 46.8617 43.8481 47 43.5 47H42.1875V39.125H43.5C43.8481 39.125 44.1819 39.2633 44.4281 39.5094C44.6742 39.7556 44.8125 40.0894 44.8125 40.4375V45.6875ZM54 41.75C53.6519 41.75 53.3181 41.6117 53.0719 41.3656C52.8258 41.1194 52.6875 40.7856 52.6875 40.4375C52.6875 40.0894 52.8258 39.7556 53.0719 39.5094C53.3181 39.2633 53.6519 39.125 54 39.125H56.625C56.9731 39.125 57.3069 38.9867 57.5531 38.7406C57.7992 38.4944 57.9375 38.1606 57.9375 37.8125C57.9375 37.4644 57.7992 37.1306 57.5531 36.8844C57.3069 36.6383 56.9731 36.5 56.625 36.5H54C52.9557 36.5 51.9542 36.9148 51.2158 37.6533C50.4773 38.3917 50.0625 39.3932 50.0625 40.4375C50.0625 41.4818 50.4773 42.4833 51.2158 43.2217C51.9542 43.9602 52.9557 44.375 54 44.375C54.3481 44.375 54.6819 44.5133 54.9281 44.7594C55.1742 45.0056 55.3125 45.3394 55.3125 45.6875C55.3125 46.0356 55.1742 46.3694 54.9281 46.6156C54.6819 46.8617 54.3481 47 54 47H51.375C51.0269 47 50.6931 47.1383 50.4469 47.3844C50.2008 47.6306 50.0625 47.9644 50.0625 48.3125C50.0625 48.6606 50.2008 48.9944 50.4469 49.2406C50.6931 49.4867 51.0269 49.625 51.375 49.625H54C55.0443 49.625 56.0458 49.2102 56.7842 48.4717C57.5227 47.7333 57.9375 46.7318 57.9375 45.6875C57.9375 44.6432 57.5227 43.6417 56.7842 42.9033C56.0458 42.1648 55.0443 41.75 54 41.75Z" fill="#FFA054"/>
<path d="M57.4519 29.1896C46.3481 17.0096 23.8125 24.8715 23.8125 43.0628C23.8125 48.2842 25.8867 53.2918 29.5788 56.9839C33.271 60.6761 38.2786 62.7503 43.5 62.7503C60.9956 62.7503 69.75 41.5403 57.4519 29.1896ZM43.5 26.0003C47.5701 26.0073 51.5036 27.469 54.5906 30.1215L30.5588 54.1534C28.4401 51.6764 27.0752 48.6443 26.6257 45.416C26.1761 42.1876 26.6607 38.898 28.0221 35.9364C29.3834 32.9748 31.5646 30.4651 34.3076 28.7043C37.0506 26.9434 40.2405 26.0051 43.5 26.0003ZM43.5 60.1253C39.4299 60.1183 35.4964 58.6566 32.4094 56.004L56.4412 31.9721C58.5599 34.4492 59.9248 37.4812 60.3743 40.7096C60.8239 43.9379 60.3393 47.2275 58.9779 50.1891C57.6166 53.1507 55.4354 55.6604 52.6924 57.4213C49.9494 59.1821 46.7595 60.1205 43.5 60.1253Z" fill="#20253D"/>
</g>
</g>
<defs>
<clipPath id="clip0_4269_221832">
<rect width="63" height="63" fill="white" transform="translate(0.046875)"/>
</clipPath>
<clipPath id="clip1_4269_221832">
<rect width="63" height="63" fill="white" transform="translate(0.046875)"/>
</clipPath>
</defs>
</svg>
