<svg width="64" height="53" viewBox="0 0 64 53" fill="none" xmlns="http://www.w3.org/2000/svg">
<g clip-path="url(#clip0_2773_5472)">
<path d="M32.0312 13.7583C32.0312 13.8186 32.0312 13.8722 32.0312 13.9324H32.0781L32.0312 13.6445C32.0312 13.6847 32.0312 13.7249 32.0312 13.765V13.7583Z" fill="black"/>
<path d="M2.69141 31.2256L17.3402 33.4551V31.5001C17.3402 29.7661 18.7528 28.3601 20.4869 28.3601H26.2111C27.9452 28.3601 29.3511 29.7661 29.3578 31.5001V33.4551L44.0066 31.2256C45.5732 30.998 46.7382 29.6456 46.7315 28.0588V18.7058C46.7315 17.2664 45.5599 16.1015 44.1137 16.1015H36.3541V13.6377C36.3541 11.83 35.6445 10.1027 34.3724 8.81725C33.1004 7.5385 31.3663 6.82212 29.5654 6.81543H17.2197C13.4705 6.82212 10.4309 9.86168 10.4242 13.6109V16.0747H2.60438C1.17163 16.068 0 17.2396 0 18.6724V28.0722C0 29.6389 1.13816 30.9779 2.69141 31.2189V31.2256ZM12.5599 13.6377C12.5666 11.0668 14.6488 8.98463 17.2197 8.97124L29.5587 8.94446C32.1296 8.96454 34.205 11.0467 34.2184 13.6109V16.0747H12.5599V13.6377Z" fill="#FFA054"/>
<path d="M63.7988 13.7984C63.7519 13.4234 63.4373 13.1489 63.0623 13.1489H60.8262C60.4914 11.6626 59.909 10.25 59.0922 8.96454L60.6789 7.37781C60.94 7.1167 60.9735 6.70161 60.7458 6.40033C59.8353 5.19522 58.7641 4.12401 57.559 3.22018C57.2644 2.99255 56.8426 3.01933 56.5815 3.28044L55.0015 4.87386C53.716 4.05706 52.2967 3.47459 50.8171 3.13984V0.896997C50.8171 0.528768 50.556 0.214101 50.1944 0.153845C48.7014 -0.0603964 47.1817 -0.0603964 45.6887 0.153845C45.3204 0.200711 45.0459 0.522073 45.0459 0.896997V3.16662C43.5596 3.50137 42.147 4.09054 40.8615 4.90064L39.2815 3.30722C39.0204 3.04611 38.5986 3.01933 38.304 3.24696C37.0989 4.15079 36.021 5.222 35.1172 6.42711C35.077 6.48067 35.0435 6.54762 35.0234 6.60788C35.318 6.83551 35.5992 7.08323 35.867 7.34434C37.5341 9.0114 38.4714 11.2676 38.4848 13.6243V13.9524H40.038C40.808 11.0266 43.1311 8.76369 46.077 8.0741C49.0228 7.38451 52.1092 8.38207 54.0977 10.6584C56.0861 12.9414 56.6485 16.1349 55.5639 18.9603C54.4793 21.7856 51.9151 23.774 48.9157 24.1355V32.0357C49.3509 32.0089 49.7726 31.9621 50.2011 31.9085C50.5694 31.8482 50.8372 31.5269 50.8305 31.1586V28.9225C52.3168 28.5944 53.7294 28.012 55.0149 27.1952L56.6083 28.7953C56.8694 29.0564 57.2912 29.0899 57.5858 28.8622C58.7909 27.9584 59.8621 26.8872 60.7726 25.6821C61.0002 25.3808 60.9668 24.9657 60.699 24.6979L59.1189 23.1179C59.9357 21.8324 60.5182 20.4198 60.8463 18.9335H63.0824C63.4506 18.9335 63.772 18.659 63.8189 18.2908C64.0331 16.7978 64.0331 15.2847 63.8189 13.7917L63.7988 13.7984Z" fill="#2D324F"/>
<path d="M29.398 35.6312V37.2581C29.398 38.9921 27.9853 40.398 26.2513 40.398H20.527C18.793 40.398 17.3804 38.9988 17.3804 37.2581V35.6312L2.39683 33.3482C1.52647 33.2209 0.702981 32.8795 0 32.3506V50.0523C0 51.4918 1.16494 52.6634 2.60438 52.6701H44.1539C44.8502 52.6701 45.513 52.3956 46.0017 51.9068C46.4905 51.4181 46.765 50.7486 46.765 50.059V32.3707C46.0553 32.8996 45.2318 33.241 44.3614 33.3682L29.3913 35.6379L29.398 35.6312Z" fill="#2D324F"/>
<path d="M20.5266 30.5229C19.9709 30.5229 19.5223 30.9648 19.5156 31.5205V37.2716C19.5156 37.8273 19.9709 38.2758 20.5266 38.2758H26.2509C26.8065 38.2758 27.2551 37.8273 27.2618 37.2716V31.5406C27.2618 31.2728 27.1547 31.0117 26.9605 30.8242C26.7664 30.6368 26.5187 30.5296 26.2442 30.5296H20.5199L20.5266 30.5229Z" fill="#FFA054"/>
</g>
<defs>
<clipPath id="clip0_2773_5472">
<rect width="63.9579" height="52.67" fill="white"/>
</clipPath>
</defs>
</svg>
