<svg width="64" height="63" viewBox="0 0 64 63" fill="none" xmlns="http://www.w3.org/2000/svg">
<rect x="11" y="31" width="40.2835" height="27.029" rx="1" fill="#FFA054"/>
<path d="M31.0547 0.306641C29.9017 0.306641 28.7133 0.916546 27.4867 1.83482C26.26 2.75172 25.0075 4.0111 23.8668 5.45741C21.5868 8.35003 19.7284 11.9658 19.7284 15.1791C19.7284 17.9052 20.805 20.3298 22.4123 22.2837L16.5602 25.2104C15.6993 25.6416 14.7755 26.0428 14.0073 26.6554C13.2392 27.268 12.6347 28.1808 12.6347 29.3693V30.3244H11.9525C10.8309 30.3244 9.90583 31.2495 9.90583 32.371V56.2488H5.8125V58.2954C5.8125 60.1729 7.34613 61.7066 9.22361 61.7066H52.8858C54.7632 61.7066 56.2969 60.1729 56.2969 58.2954V56.2488H52.2035V32.371C52.2035 31.2495 51.2785 30.3244 50.1569 30.3244H49.4747V29.3693C49.4747 28.1808 48.8702 27.268 48.102 26.654C47.3339 26.0414 46.4101 25.6416 45.5492 25.2104L39.6971 22.2837C41.3044 20.3298 42.3809 17.9052 42.3809 15.1791C42.3809 11.9658 40.5226 8.35139 38.2426 5.45741C37.1019 4.0111 35.8493 2.75172 34.6227 1.83345C33.3961 0.916547 32.2076 0.306641 31.0547 0.306641ZM31.0547 1.67108C31.6755 1.67108 32.7029 2.10225 33.8054 2.92637C34.9065 3.75049 36.0936 4.93619 37.1701 6.30337C39.3259 9.03498 41.0165 12.5157 41.0165 15.1791C41.0165 17.8657 39.9522 20.2916 38.2262 22.0831L37.5808 22.7531L44.942 26.4303C45.8384 26.8792 46.6871 27.2721 47.252 27.7237C47.8182 28.174 48.1102 28.5943 48.1102 29.3706V30.3244H13.9992V29.3693C13.9992 28.5943 14.2911 28.174 14.8574 27.7237C15.4223 27.2735 16.271 26.8792 17.1674 26.4303L24.5286 22.7531L23.8832 22.0845C22.0913 20.2327 21.091 17.7559 21.0943 15.1791C21.0943 12.5143 22.7862 9.03362 24.9406 6.302C26.0172 4.93483 27.2042 3.75049 28.3053 2.92501C29.4078 2.10088 30.4352 1.66972 31.0561 1.66972L31.0547 1.67108ZM31.0547 7.40311C28.9927 7.40527 27.0157 8.22536 25.5577 9.68342C24.0996 11.1415 23.2795 13.1184 23.2774 15.1804C23.2774 17.3444 24.2052 20.0597 25.5942 22.3274C26.9832 24.5937 28.8497 26.5039 31.0547 26.5039C33.2596 26.5039 35.1262 24.5937 36.5152 22.326C37.9042 20.0583 38.8307 17.3431 38.8307 15.1777C38.8307 10.8906 35.3418 7.40311 31.0547 7.40311ZM31.0547 8.76755C34.605 8.76755 37.4676 11.6301 37.4676 15.1804C37.4676 16.9324 36.6216 19.5412 35.35 21.6151C34.0797 23.6891 32.3973 25.1409 31.0547 25.1409C29.7121 25.1409 28.0297 23.6891 26.7594 21.6151C25.4878 19.5412 24.6432 16.9324 24.6432 15.1791C24.6432 11.6301 27.5044 8.76755 31.0547 8.76755ZM11.9525 31.6888H50.1569C50.5471 31.6888 50.8391 31.9808 50.8391 32.371V56.931C50.8391 57.3212 50.5471 57.6132 50.1569 57.6132H11.9525C11.8623 57.6155 11.7726 57.5994 11.6888 57.5659C11.605 57.5324 11.5289 57.4822 11.4651 57.4184C11.4013 57.3546 11.3511 57.2785 11.3176 57.1947C11.2841 57.1109 11.268 57.0212 11.2703 56.931V32.371C11.2703 31.9808 11.5623 31.6888 11.9525 31.6888ZM7.17694 57.6132H10.0341C10.3193 58.4019 11.0711 58.9777 11.9525 58.9777H50.1569C51.0383 58.9777 51.7901 58.4019 52.0753 57.6132H54.9324V58.2954C54.9324 59.4416 54.0319 60.3421 52.8858 60.3421H9.22361C8.07747 60.3421 7.17694 59.4416 7.17694 58.2954V57.6132Z" fill="#2D3250"/>
</svg>
