<svg width="64" height="63" viewBox="0 0 64 63" fill="none" xmlns="http://www.w3.org/2000/svg">
<path d="M56.7753 18.1436C56.6819 16.7516 55.8802 15.555 54.8266 15.2342C54.6403 15.1772 54.4472 15.1482 54.2534 15.1482H25.7693C25.1414 15.1482 24.6303 14.6177 24.6303 13.9658V13.9653V8.90946C24.6303 8.0975 24.3767 7.34195 23.9163 6.78184C23.4998 6.27529 22.9619 5.99609 22.4024 5.99609H8.7865C8.22639 5.99609 7.68907 6.27529 7.27255 6.78184C6.81215 7.34195 6.55859 8.0975 6.55859 8.90946V44.6585C6.55859 45.569 6.84349 46.418 7.36144 47.0477C7.83494 47.6243 8.44918 47.9417 9.0902 47.9417H54.2534C54.8944 47.9417 55.5087 47.6243 55.9822 47.0477C56.4996 46.4175 56.785 45.5696 56.785 44.6585V18.4313C56.785 18.3368 56.7816 18.2399 56.7753 18.1436Z" fill="#FFA054"/>
<path d="M57.9473 19.659C57.88 18.5143 57.5564 17.4402 57.0117 16.5525C56.4384 15.6186 55.6669 14.9616 54.7815 14.6522C54.4151 14.524 54.0345 14.4585 53.6504 14.4585H26.4871V9.42889C26.4871 8.08588 26.1042 6.81182 25.4085 5.84203C24.6575 4.79531 23.5885 4.19531 22.474 4.19531H9.14589C8.03194 4.19531 6.96243 4.79531 6.21144 5.84203C5.51572 6.81182 5.13281 8.08531 5.13281 9.42889V43.6372C5.13281 45.0913 5.54649 46.4691 6.29862 47.517C7.11628 48.6571 8.23365 49.285 9.44333 49.285H23.4637C23.9697 49.285 24.38 48.8748 24.38 48.3688C24.38 47.8628 23.9697 47.4526 23.4637 47.4526H9.44276C8.09974 47.4526 6.96528 45.7056 6.96528 43.6378V9.42889C6.96528 7.5856 7.96413 6.02835 9.14589 6.02835H22.474C23.6558 6.02835 24.6546 7.5856 24.6546 9.42889V15.0989C24.6546 15.7673 25.1446 16.2915 25.7691 16.2915H53.6499C53.8271 16.2915 54.0037 16.3217 54.1758 16.3821C55.2236 16.7479 56.0219 18.1399 56.1176 19.7673C56.1245 19.8807 56.1279 19.9952 56.1279 20.1063V43.6372C56.1279 45.705 54.9934 47.452 53.6504 47.452H39.9166C39.4106 47.452 39.0004 47.8623 39.0004 48.3682C39.0004 48.8742 39.4106 49.2845 39.9166 49.2845H53.6504C54.8607 49.2845 55.9775 48.6571 56.7951 47.5164C57.5473 46.4685 57.9609 45.0902 57.9609 43.6366V20.1057C57.9604 19.9587 57.9558 19.8083 57.9473 19.659Z" fill="#2D324F"/>
<path d="M38.6745 42.6705C38.3207 41.8945 37.5326 41.4085 36.6802 41.4085H34.9999V28.6815C34.9999 27.5516 34.0837 26.6348 32.9532 26.6348H30.135C29.0051 26.6348 28.0883 27.551 28.0883 28.6815V41.4079H26.4085C25.5555 41.4079 24.7675 41.8939 24.4142 42.67C24.0638 43.4392 24.1857 44.315 24.7333 44.9594L29.9019 51.0403C30.3122 51.5229 30.911 51.7998 31.5441 51.7998C32.1771 51.7998 32.776 51.5229 33.1862 51.0409L38.3549 44.96C38.9036 44.3156 39.0249 43.4392 38.6745 42.6705ZM36.9589 43.7725L31.7902 49.8534C31.7059 49.9526 31.5999 49.9668 31.5441 49.9668C31.4882 49.9668 31.3823 49.952 31.2979 49.8534L26.1293 43.7725C26.0131 43.6358 26.0501 43.4985 26.0826 43.4284C26.1151 43.3583 26.196 43.2409 26.3755 43.2409V43.2415H29.9213V28.6815C29.9213 28.5635 30.0176 28.4678 30.135 28.4678H32.9532C33.0706 28.4678 33.1669 28.5635 33.1669 28.6815V43.2409H36.7127C36.8922 43.2409 36.9731 43.3589 37.0056 43.4284C37.0386 43.4979 37.0751 43.6358 36.9589 43.7725ZM36.9332 53.3052H26.1555C24.6393 53.3052 23.4062 54.5388 23.4062 56.0545C23.4062 57.5702 24.6393 58.8038 26.1555 58.8038H36.9332C38.4494 58.8038 39.6825 57.5702 39.6825 56.0545C39.6825 54.5388 38.4494 53.3052 36.9332 53.3052ZM36.9332 56.9713H26.1555C25.6501 56.9713 25.2393 56.5605 25.2393 56.0551C25.2393 55.5497 25.6501 55.1388 26.1555 55.1388H36.9332C37.4386 55.1388 37.8495 55.5497 37.8495 56.0551C37.8495 56.5605 37.4386 56.9713 36.9332 56.9713Z" fill="#2D324F"/>
<path d="M31.2975 49.8563C31.3813 49.9555 31.4878 49.9697 31.5437 49.9697C31.5995 49.9697 31.7055 49.9549 31.7898 49.8563L36.9584 43.7754C37.0747 43.6387 37.0382 43.5008 37.0052 43.4313C36.9727 43.3618 36.8918 43.2438 36.7123 43.2438H33.1664V28.6844C33.1664 28.5664 33.0701 28.4707 32.9528 28.4707H30.1345C30.0166 28.4707 29.9209 28.567 29.9209 28.6844V43.2438H26.375V43.2433C26.1955 43.2433 26.1146 43.3606 26.0821 43.4307C26.0497 43.5008 26.0126 43.6381 26.1289 43.7749L31.2975 49.8563ZM36.9322 55.1412H26.1545C25.6491 55.1412 25.2383 55.552 25.2383 56.0574C25.2383 56.5628 25.6491 56.9736 26.1545 56.9736H36.9322C37.4376 56.9736 37.8485 56.5628 37.8485 56.0574C37.8485 55.552 37.4376 55.1412 36.9322 55.1412Z" fill="#E8E8E8"/>
</svg>
