<svg width="451" height="301" viewBox="0 0 451 301" fill="none" xmlns="http://www.w3.org/2000/svg">
<g clip-path="url(#clip0_2911_1901)">
<path d="M439.725 0.36346H223.293C217.286 0.36346 212.414 5.23655 212.414 11.2474V166.175C212.414 172.186 217.284 177.059 223.293 177.059H450.604V11.2457C450.604 5.23491 445.734 0.361816 439.725 0.361816V0.36346Z" fill="white"/>
<path d="M450.606 177.421H223.295C217.097 177.421 212.055 172.375 212.055 166.173V11.2456C212.055 5.04408 217.097 0 223.295 0H439.729C445.927 0 450.969 5.04572 450.969 11.2456V177.057C450.969 177.258 450.807 177.419 450.608 177.419L450.606 177.421ZM223.295 0.725045C217.497 0.725045 212.78 5.44524 212.78 11.2472V166.175C212.78 171.977 217.497 176.697 223.295 176.697H450.244V11.2456C450.244 5.44359 445.528 0.723401 439.729 0.723401H223.295V0.725045Z" fill="#2D324F"/>
<path d="M436.062 170.818H226.11C222.439 170.818 219.453 167.831 219.453 164.158V13.263C219.453 9.5901 222.44 6.60278 226.11 6.60278H436.908C440.579 6.60278 443.564 9.5901 443.564 13.263V163.311C443.564 167.451 440.199 170.818 436.061 170.818H436.062ZM226.11 7.32783C222.838 7.32783 220.178 9.99126 220.178 13.263V164.158C220.178 167.431 222.84 170.093 226.11 170.093H436.062C439.799 170.093 442.841 167.052 442.841 163.311V13.263C442.841 9.98962 440.179 7.32783 436.909 7.32783H226.11Z" fill="#2D324F"/>
<path d="M433.125 194.307H185.805C176.148 194.307 168.32 186.478 168.32 176.822H450.611C450.611 186.48 442.782 194.307 433.126 194.307H433.125Z" fill="white"/>
<path d="M433.121 194.671H185.801C175.96 194.671 167.953 186.664 167.953 176.822C167.953 176.622 168.116 176.461 168.315 176.461H450.606C450.806 176.461 450.967 176.623 450.967 176.822C450.967 186.664 442.961 194.671 433.119 194.671H433.121ZM168.681 177.186C168.875 186.462 176.479 193.946 185.801 193.946H433.121C442.441 193.946 450.047 186.46 450.241 177.186H168.681Z" fill="#2D324F"/>
<path d="M425.945 154.433V21.3896L236.233 21.3896V154.433H425.945Z" fill="#F4ECE8"/>
<path d="M387.238 59.0098H275.18V76.6821H387.238V59.0098Z" fill="white"/>
<path d="M292.844 59.0098H275.18V76.6821H292.844V59.0098Z" fill="#FFA054"/>
<path d="M287.309 64.8528C287.311 62.9578 285.777 61.4197 283.883 61.4174C281.989 61.4151 280.452 62.9494 280.45 64.8444C280.447 66.7394 281.981 68.2775 283.875 68.2798C285.769 68.2821 287.306 66.7478 287.309 64.8528Z" fill="white"/>
<path d="M288.064 74.1189V72.8003C288.064 70.5052 286.187 68.626 283.891 68.626C281.596 68.626 279.719 70.5052 279.719 72.8003V74.1189H288.064Z" fill="white"/>
<path d="M304.18 72.003C306.044 72.003 307.555 70.491 307.555 68.626C307.555 66.7609 306.044 65.249 304.18 65.249C302.316 65.249 300.805 66.7609 300.805 68.626C300.805 70.491 302.316 72.003 304.18 72.003Z" fill="#E2EAFF"/>
<path d="M313.024 72.003C314.888 72.003 316.399 70.491 316.399 68.626C316.399 66.7609 314.888 65.249 313.024 65.249C311.16 65.249 309.648 66.7609 309.648 68.626C309.648 70.491 311.16 72.003 313.024 72.003Z" fill="#E2EAFF"/>
<path d="M321.953 72.003C323.818 72.003 325.329 70.491 325.329 68.626C325.329 66.7609 323.818 65.249 321.953 65.249C320.089 65.249 318.578 66.7609 318.578 68.626C318.578 70.491 320.089 72.003 321.953 72.003Z" fill="#E2EAFF"/>
<path d="M331.055 72.003C332.919 72.003 334.43 70.491 334.43 68.626C334.43 66.7609 332.919 65.249 331.055 65.249C329.191 65.249 327.68 66.7609 327.68 68.626C327.68 70.491 329.191 72.003 331.055 72.003Z" fill="#E2EAFF"/>
<path d="M340.422 72.003C342.286 72.003 343.798 70.491 343.798 68.626C343.798 66.7609 342.286 65.249 340.422 65.249C338.558 65.249 337.047 66.7609 337.047 68.626C337.047 70.491 338.558 72.003 340.422 72.003Z" fill="#E2EAFF"/>
<path d="M387.238 83.2783H275.18V100.951H387.238V83.2783Z" fill="white"/>
<path d="M292.844 83.2783H275.18V100.951H292.844V83.2783Z" fill="#FFA054"/>
<path d="M304.524 95.5349C306.388 95.5349 307.899 94.023 307.899 92.158C307.899 90.2929 306.388 88.781 304.524 88.781C302.66 88.781 301.148 90.2929 301.148 92.158C301.148 94.023 302.66 95.5349 304.524 95.5349Z" fill="#E2EAFF"/>
<path d="M313.368 95.5349C315.232 95.5349 316.743 94.023 316.743 92.158C316.743 90.2929 315.232 88.781 313.368 88.781C311.503 88.781 309.992 90.2929 309.992 92.158C309.992 94.023 311.503 95.5349 313.368 95.5349Z" fill="#E2EAFF"/>
<path d="M322.297 95.5349C324.161 95.5349 325.673 94.023 325.673 92.158C325.673 90.2929 324.161 88.781 322.297 88.781C320.433 88.781 318.922 90.2929 318.922 92.158C318.922 94.023 320.433 95.5349 322.297 95.5349Z" fill="#E2EAFF"/>
<path d="M331.399 95.5349C333.263 95.5349 334.774 94.023 334.774 92.158C334.774 90.2929 333.263 88.781 331.399 88.781C329.535 88.781 328.023 90.2929 328.023 92.158C328.023 94.023 329.535 95.5349 331.399 95.5349Z" fill="#E2EAFF"/>
<path d="M340.766 95.5349C342.63 95.5349 344.141 94.023 344.141 92.158C344.141 90.2929 342.63 88.781 340.766 88.781C338.902 88.781 337.391 90.2929 337.391 92.158C337.391 94.023 338.902 95.5349 340.766 95.5349Z" fill="#E2EAFF"/>
<path d="M350.453 95.5349C352.318 95.5349 353.829 94.023 353.829 92.158C353.829 90.2929 352.318 88.781 350.453 88.781C348.589 88.781 347.078 90.2929 347.078 92.158C347.078 94.023 348.589 95.5349 350.453 95.5349Z" fill="#E2EAFF"/>
<path d="M359.297 95.5349C361.161 95.5349 362.672 94.023 362.672 92.158C362.672 90.2929 361.161 88.781 359.297 88.781C357.433 88.781 355.922 90.2929 355.922 92.158C355.922 94.023 357.433 95.5349 359.297 95.5349Z" fill="#E2EAFF"/>
<path d="M368.227 95.5349C370.091 95.5349 371.602 94.023 371.602 92.158C371.602 90.2929 370.091 88.781 368.227 88.781C366.363 88.781 364.852 90.2929 364.852 92.158C364.852 94.023 366.363 95.5349 368.227 95.5349Z" fill="#E2EAFF"/>
<path d="M281.896 91.6204L281.955 88.9997C281.981 88.153 282.737 87.4559 283.686 87.4131C284.732 87.3655 285.596 88.125 285.567 89.0572V91.7322C285.559 92.0166 286.724 92.1005 286.729 91.839L286.66 89.1099C286.706 87.6104 285.366 86.3856 283.632 86.4563C282.198 86.5138 280.881 87.6466 280.838 89.0161L280.789 91.6631L281.896 91.6187V91.6204Z" fill="white"/>
<path d="M283.684 98.1573C285.841 98.1573 287.844 96.7977 287.632 94.1227L287.602 91.1486C287.6 90.9168 287.421 90.7375 287.193 90.7375H280.712C280.394 90.7375 280.13 91.0088 280.133 91.3294L280.166 94.6324C280.185 96.6168 281.724 98.1573 283.686 98.1573H283.684Z" fill="white"/>
<path d="M283.89 96.015C284.066 96.015 284.214 95.8638 284.212 95.6862L284.196 93.054C284.196 92.8912 284.069 92.7646 283.908 92.7646C283.732 92.7646 283.584 92.9159 283.586 93.0935L283.602 95.7257C283.602 95.8884 283.729 96.015 283.89 96.015Z" fill="#FFA054"/>
<path d="M284.803 94.0037C285.207 93.5046 285.153 92.7912 284.682 92.4103C284.211 92.0294 283.502 92.1252 283.098 92.6244C282.694 93.1235 282.749 93.8369 283.22 94.2177C283.691 94.5986 284.4 94.5028 284.803 94.0037Z" fill="#FFA054"/>
<path d="M402.382 187.407H344.569C339.957 187.407 336.219 191.147 336.219 195.762V251.051C336.219 259.884 341.166 267.973 349.026 271.992L374.498 285.017L398.395 272.107C405.996 268.002 410.732 260.056 410.732 251.415V195.762C410.732 191.147 406.994 187.407 402.382 187.407Z" fill="#FFA054"/>
<path d="M352.293 265.593C346.807 262.789 343.398 257.215 343.398 251.051V195.762C343.398 195.118 343.923 194.593 344.566 194.593H402.379C403.023 194.593 403.546 195.118 403.546 195.762V251.415C403.546 257.424 400.263 262.93 394.979 265.784L374.404 276.898L352.295 265.592L352.293 265.593Z" fill="white"/>
<path d="M389.766 228.971H357.193C355.968 228.971 354.977 229.964 354.977 231.189V240.971C354.977 249.323 361.744 256.094 370.092 256.094H376.868C385.215 256.094 391.983 249.323 391.983 240.971V231.189C391.983 229.964 390.99 228.971 389.767 228.971H389.766Z" fill="#2D324F"/>
<path d="M386.683 226.38C385.931 226.38 385.323 225.77 385.323 225.019V220.424C385.323 215.043 380.948 210.666 375.57 210.666H371.386C366.008 210.666 361.633 215.043 361.633 220.424V225.019C361.633 225.77 361.025 226.38 360.274 226.38C359.522 226.38 358.914 225.77 358.914 225.019V220.424C358.914 213.543 364.511 207.943 371.388 207.943H375.572C382.451 207.943 388.046 213.541 388.046 220.424V225.019C388.046 225.77 387.437 226.38 386.686 226.38H386.683Z" fill="#2D324F"/>
<path d="M376.819 238.075C376.819 236.23 375.324 234.734 373.48 234.734C371.635 234.734 370.141 236.23 370.141 238.075C370.141 239.339 370.843 240.439 371.878 241.006V247.444C371.878 248.329 372.595 249.046 373.48 249.046C374.364 249.046 375.081 248.329 375.081 247.444V241.006C376.117 240.439 376.819 239.339 376.819 238.075Z" fill="white"/>
<path d="M442.282 282.983H398.12C397.919 282.983 397.758 282.82 397.758 282.621C397.758 282.422 397.921 282.26 398.12 282.26H441.92V258.654C441.92 258.453 442.083 258.292 442.282 258.292C442.48 258.292 442.643 258.455 442.643 258.654V282.621C442.643 282.822 442.48 282.983 442.282 282.983Z" fill="#FFA054"/>
<path d="M442.286 235.64C444.024 235.64 445.431 234.231 445.431 232.491C445.431 230.752 444.024 229.343 442.286 229.343C440.548 229.343 439.141 230.752 439.141 232.491C439.141 234.231 440.55 235.64 442.286 235.64Z" fill="white"/>
<path d="M442.282 236.001C440.348 236.001 438.773 234.426 438.773 232.491C438.773 230.556 440.347 228.981 442.282 228.981C444.217 228.981 445.789 230.556 445.789 232.491C445.789 234.426 444.215 236.001 442.282 236.001ZM442.282 229.706C440.748 229.706 439.498 230.956 439.498 232.491C439.498 234.027 440.746 235.276 442.282 235.276C443.818 235.276 445.065 234.027 445.065 232.491C445.065 230.956 443.818 229.706 442.282 229.706Z" fill="#2D324F"/>
<path d="M442.286 244.827C444.024 244.827 445.431 243.418 445.431 241.678C445.431 239.939 444.024 238.53 442.286 238.53C440.548 238.53 439.141 239.939 439.141 241.678C439.141 243.418 440.55 244.827 442.286 244.827Z" fill="white"/>
<path d="M442.282 245.189C440.348 245.189 438.773 243.614 438.773 241.679C438.773 239.743 440.347 238.168 442.282 238.168C444.217 238.168 445.789 239.743 445.789 241.679C445.789 243.614 444.215 245.189 442.282 245.189ZM442.282 238.894C440.748 238.894 439.498 240.143 439.498 241.679C439.498 243.214 440.746 244.464 442.282 244.464C443.818 244.464 445.065 243.214 445.065 241.679C445.065 240.143 443.818 238.894 442.282 238.894Z" fill="#2D324F"/>
<path d="M442.286 254.014C444.024 254.014 445.431 252.605 445.431 250.866C445.431 249.126 444.024 247.717 442.286 247.717C440.548 247.717 439.141 249.126 439.141 250.866C439.141 252.605 440.55 254.014 442.286 254.014Z" fill="white"/>
<path d="M442.282 254.376C440.348 254.376 438.773 252.801 438.773 250.866C438.773 248.931 440.347 247.356 442.282 247.356C444.217 247.356 445.789 248.931 445.789 250.866C445.789 252.801 444.215 254.376 442.282 254.376ZM442.282 248.079C440.748 248.079 439.498 249.329 439.498 250.864C439.498 252.4 440.746 253.649 442.282 253.649C443.818 253.649 445.065 252.4 445.065 250.864C445.065 249.329 443.818 248.079 442.282 248.079Z" fill="#2D324F"/>
<path d="M442.283 225.662C442.084 225.662 441.921 225.501 441.921 225.302L441.742 197.674C441.742 197.474 441.902 197.311 442.102 197.309H442.104C442.303 197.309 442.466 197.47 442.466 197.669L442.645 225.297C442.645 225.497 442.485 225.66 442.285 225.662H442.283Z" fill="#FFA054"/>
<path d="M349.399 283.019H255.354C255.153 283.019 254.992 282.857 254.992 282.658C254.992 282.459 255.155 282.296 255.354 282.296H349.399C349.6 282.296 349.761 282.459 349.761 282.658C349.761 282.857 349.598 283.019 349.399 283.019Z" fill="#FFA054"/>
<path d="M109.414 118.965L98.0471 152.212C97.3205 154.336 95.5152 155.911 93.3105 156.34L88.25 157.325C88.25 157.325 101.408 185.901 123.583 181.115C145.759 176.327 140.881 157.325 140.881 157.325L136.19 156.945C133.382 156.718 131.457 154.012 132.16 151.283L137.433 130.852C137.433 130.852 115.946 113.525 109.413 118.966L109.414 118.965Z" fill="white"/>
<path d="M118.678 182.006C111.201 182.006 103.908 178.354 97.3379 171.26C91.3073 164.748 87.9567 157.548 87.9238 157.476C87.8777 157.376 87.8794 157.259 87.9304 157.159C87.9813 157.06 88.075 156.989 88.1835 156.968L93.2441 155.983C95.314 155.58 97.0238 154.091 97.7061 152.095L109.073 118.848C109.095 118.786 109.133 118.73 109.184 118.687C115.868 113.12 136.776 129.854 137.663 130.569C137.773 130.658 137.822 130.804 137.786 130.942L132.513 151.373C132.204 152.57 132.438 153.836 133.156 154.842C133.873 155.848 134.991 156.483 136.222 156.583L140.913 156.963C141.067 156.976 141.196 157.085 141.235 157.234C141.317 157.552 143.183 165.093 138.943 171.952C136.002 176.712 130.861 179.915 123.661 181.468C121.996 181.828 120.332 182.006 118.678 182.006ZM88.7836 157.589C89.586 159.207 92.7525 165.246 97.8804 170.78C103.344 176.677 112.227 183.193 123.509 180.758C130.507 179.247 135.492 176.156 138.327 171.569C141.985 165.649 140.87 159.018 140.589 157.662L136.165 157.303C134.72 157.187 133.408 156.442 132.567 155.26C131.726 154.078 131.451 152.593 131.814 151.189L137.028 130.986C134.945 129.341 115.739 114.439 109.726 119.18L98.3934 152.328C97.6272 154.569 95.7069 156.243 93.3838 156.695L88.7853 157.589H88.7836Z" fill="#2D324F"/>
<path d="M153.891 79.7483C155.832 89.3399 150.629 94.9463 144.172 96.5493C143.944 96.6052 143.714 96.6561 143.49 96.7055C143.352 97.1806 144.339 98.6291 144.123 99.0976C141.583 104.656 134.316 107.361 128.213 106.807C126.444 108.701 124.139 111.338 121.696 114.672C113.892 125.319 108.353 120.532 100.244 109.99C99.1638 108.586 97.6085 106.795 96.7996 103.823C95.1966 97.9205 97.9702 92.6067 98.3236 91.954C100.969 87.0579 103.632 85.9005 111.859 82.2095C122.096 77.6175 124.596 68.4665 134.627 66.0201C144.388 63.6378 152.358 72.1739 153.892 79.7516L153.891 79.7483Z" fill="#2D324F"/>
<path d="M117.161 124.135C117.161 124.135 122.667 136.856 137.09 134.506C151.514 132.157 152.238 112 150.95 92.498C149.508 94.3411 146.21 96.0197 143.662 97.1032C133.288 101.516 123.671 97.2725 122.299 96.531C124.77 99.5693 124.775 103.693 122.693 106.486C121.544 108.027 119.89 109.14 116.061 109.205C116.061 109.205 113.721 103.096 108.281 106.642C102.839 110.188 104.863 125.151 117.162 124.135H117.161Z" fill="white"/>
<path d="M133.651 135.156C122.675 135.156 117.723 126.105 116.939 124.515C111.599 124.865 107.422 122.176 105.746 117.284C104.267 112.965 105.292 108.156 108.081 106.34C109.774 105.237 111.366 104.913 112.809 105.381C114.874 106.052 115.972 108.127 116.296 108.839C120.056 108.727 121.456 107.542 122.401 106.271C124.471 103.494 124.313 99.5825 122.016 96.7613C121.908 96.6265 121.908 96.4357 122.018 96.3009C122.128 96.1678 122.317 96.1299 122.468 96.2138C125.212 97.6918 134.342 100.674 143.519 96.7711C147.026 95.2799 149.563 93.6835 150.664 92.2762C150.757 92.1578 150.913 92.1101 151.057 92.1529C151.2 92.1973 151.302 92.3255 151.312 92.4751C152.606 112.084 151.937 132.456 137.148 134.865C135.92 135.065 134.756 135.156 133.651 135.156ZM117.159 123.772C117.303 123.772 117.434 123.858 117.492 123.991C117.546 124.116 123.062 136.423 137.032 134.148C151.036 131.866 151.84 112.395 150.643 93.3777C148.963 95.03 146.066 96.4736 143.804 97.4354C134.725 101.297 126.394 98.6569 123.348 97.4041C125.091 100.345 124.99 104.007 122.981 106.701C121.955 108.078 120.333 109.493 116.065 109.567C115.903 109.564 115.775 109.477 115.719 109.335C115.709 109.311 114.703 106.756 112.581 106.068C111.356 105.674 109.975 105.968 108.475 106.946C105.952 108.591 105.054 113.028 106.432 117.049C108.018 121.682 112.02 124.198 117.13 123.775C117.14 123.775 117.15 123.775 117.159 123.775V123.772Z" fill="#2D324F"/>
<path d="M116.311 118.749C116.16 118.749 116.02 118.656 115.967 118.504C115.65 117.575 115.321 116.615 114.752 115.823C114.146 114.978 113.328 114.462 112.51 114.406C112.311 114.393 112.16 114.218 112.173 114.019C112.186 113.819 112.36 113.671 112.559 113.682C113.595 113.753 114.608 114.381 115.341 115.4C115.972 116.28 116.317 117.291 116.653 118.269C116.717 118.458 116.617 118.664 116.428 118.73C116.388 118.743 116.349 118.749 116.311 118.749Z" fill="#2D324F"/>
<path d="M119.799 103.859C119.799 103.859 122.148 114.065 127.235 118.342C132.322 122.616 139.633 114.054 151.078 115.269C151.078 115.269 151.678 131.274 149.093 135.23C145.832 140.225 119.954 141.933 116.922 124.57C116.922 124.57 119.676 116.214 115.82 109.64L119.799 103.859Z" fill="#2D324F"/>
<path d="M145.044 105.497C145.559 108.86 148.117 111.261 150.759 110.856C153.401 110.452 155.126 107.397 154.611 104.032C154.096 100.668 151.538 98.2675 148.896 98.6719C146.254 99.0763 144.529 102.131 145.044 105.497Z" fill="white"/>
<path d="M150.173 111.262C148.999 111.262 147.842 110.774 146.858 109.853C145.721 108.785 144.95 107.257 144.688 105.551C144.144 101.995 146.008 98.7475 148.843 98.3135C150.234 98.1014 151.638 98.5848 152.8 99.6748C153.938 100.742 154.709 102.271 154.97 103.977C155.515 107.534 153.65 110.781 150.816 111.215C150.602 111.248 150.387 111.264 150.171 111.264L150.173 111.262ZM145.405 105.441C145.642 106.988 146.334 108.367 147.355 109.324C148.351 110.258 149.542 110.674 150.707 110.496C153.147 110.123 154.738 107.247 154.255 104.086C154.018 102.539 153.326 101.159 152.305 100.203C151.309 99.267 150.117 98.8511 148.953 99.0303C146.513 99.4035 144.922 102.281 145.405 105.441Z" fill="#2D324F"/>
<path d="M134.544 114.463C133.324 114.463 132.124 114.067 131.079 113.304C129.725 112.318 128.795 110.837 128.456 109.133C127.754 105.605 129.842 102.205 133.109 101.554C134.697 101.235 136.322 101.61 137.683 102.603C139.036 103.589 139.966 105.071 140.305 106.774C141.007 110.302 138.919 113.702 135.652 114.353C135.284 114.427 134.913 114.463 134.544 114.463ZM134.214 102.171C133.893 102.171 133.569 102.202 133.25 102.266C130.375 102.838 128.543 105.855 129.166 108.992C129.469 110.518 130.299 111.841 131.506 112.719C132.703 113.59 134.125 113.919 135.513 113.643C138.388 113.071 140.22 110.054 139.597 106.917C139.294 105.391 138.462 104.068 137.257 103.19C136.338 102.519 135.284 102.171 134.215 102.171H134.214Z" fill="#2D324F"/>
<path d="M139.947 107.208C139.883 107.208 139.819 107.191 139.761 107.157C139.59 107.053 139.534 106.831 139.638 106.66C140.414 105.368 141.35 104.643 142.417 104.503C144.024 104.298 145.295 105.511 145.348 105.562C145.491 105.702 145.494 105.93 145.356 106.075C145.216 106.218 144.988 106.221 144.845 106.083C144.835 106.074 143.763 105.057 142.505 105.224C141.67 105.334 140.914 105.944 140.259 107.034C140.192 107.147 140.072 107.21 139.949 107.21L139.947 107.208Z" fill="#2D324F"/>
<path d="M128.81 109.424C128.797 109.424 128.784 109.424 128.771 109.423L118.426 108.314C118.227 108.293 118.082 108.114 118.104 107.915C118.125 107.716 118.299 107.57 118.503 107.593L128.848 108.701C129.047 108.722 129.191 108.901 129.17 109.1C129.15 109.286 128.992 109.424 128.81 109.424Z" fill="#2D324F"/>
<path d="M188.37 172.437C181.81 163.572 171.785 157.938 160.807 156.925C154.555 156.348 146.716 155.735 137.971 155.288C137.489 156.863 136.817 158.387 135.944 159.825C133.41 163.998 129.439 167.211 125.017 169.205C120.591 171.199 115.637 172.104 110.802 171.518C106.065 170.946 101.561 168.929 98.2872 165.401C95.6188 162.525 92.4178 159.049 91.599 155.28C83.6663 155.728 77.4154 156.386 69.9693 157.553C55.7594 159.779 43.5224 168.39 35.7607 180.507C18.8282 206.937 0 234.841 0 267.03C0 303.628 19.3691 301.436 87.8176 300.45C163.066 299.365 173.437 300.45 173.437 300.45L187.435 300.585H198.424L227.709 300.545C227.709 300.545 211.144 203.21 188.37 172.437Z" fill="#FFA054"/>
<path d="M80.0124 294.5C79.3662 298.867 87.6771 298.855 87.6771 298.855H114.323L152.915 296.754C152.915 296.754 156.071 245.146 100.919 251.221C100.919 251.221 84.2755 265.707 80.0124 294.5Z" fill="white"/>
<path d="M124.298 295.991C124.28 295.991 124.264 295.991 124.246 295.988C124.047 295.96 123.91 295.776 123.94 295.577C124.351 292.76 123.69 289.632 122.082 286.766C120.734 284.366 118.743 282.103 115.992 279.849C115.468 279.419 114.902 278.976 114.264 278.697C114.08 278.616 113.998 278.403 114.077 278.22C114.157 278.036 114.371 277.952 114.554 278.033C115.275 278.348 115.887 278.825 116.451 279.289C119.272 281.6 121.321 283.93 122.713 286.411C124.4 289.415 125.089 292.708 124.657 295.68C124.63 295.861 124.476 295.991 124.298 295.991Z" fill="#2D324F"/>
<path d="M136.906 295.268C136.728 295.268 136.574 295.138 136.548 294.957C136.074 291.616 135.393 287.708 133.935 284.052C132.426 280.269 130.21 277.178 127.525 275.116C127.365 274.994 127.336 274.767 127.459 274.608C127.581 274.449 127.809 274.419 127.967 274.542C130.754 276.684 133.051 279.881 134.609 283.785C136.095 287.512 136.786 291.473 137.266 294.857C137.294 295.056 137.156 295.238 136.959 295.266C136.942 295.268 136.924 295.269 136.908 295.269L136.906 295.268Z" fill="#2D324F"/>
<path d="M147.008 295.268C146.993 295.268 146.978 295.268 146.965 295.264C146.766 295.241 146.625 295.061 146.648 294.862C148.349 280.597 139.006 271.698 138.912 271.609C138.766 271.473 138.758 271.244 138.894 271.096C139.031 270.95 139.259 270.942 139.407 271.078C139.504 271.169 149.115 280.305 147.369 294.947C147.348 295.131 147.19 295.266 147.009 295.266L147.008 295.268Z" fill="#2D324F"/>
<path d="M34.4399 252.496C34.2426 252.496 34.0815 252.339 34.0782 252.141C34.0749 251.941 34.2344 251.776 34.4333 251.771L98.0548 250.563C98.2521 250.574 98.4198 250.719 98.4247 250.918C98.428 251.119 98.2685 251.283 98.0696 251.288L34.4481 252.496H34.4415H34.4399Z" fill="#2D324F"/>
<path d="M54.9811 251.648C54.9466 251.648 54.9121 251.643 54.8759 251.633C54.6836 251.576 54.5751 251.374 54.6326 251.183C56.6894 244.33 60.5941 233.691 64.8276 226.255C65.625 224.854 66.8992 223.008 68.7932 223.008C68.8261 223.008 68.8573 223.008 68.8902 223.01C69.0908 223.016 69.247 223.184 69.2404 223.385C69.2338 223.585 69.0677 223.751 68.8655 223.735C67.3118 223.694 66.1758 225.354 65.4573 226.615C61.2534 233.999 57.3733 244.577 55.328 251.392C55.2804 251.55 55.1373 251.65 54.9811 251.65V251.648Z" fill="#2D324F"/>
<path d="M227.053 294.5C227.699 298.867 219.388 298.855 219.388 298.855H192.742L154.15 296.754C154.15 296.754 150.994 245.146 206.147 251.221C206.147 251.221 222.79 265.707 227.053 294.5Z" fill="white"/>
<path d="M182.774 295.991C182.596 295.991 182.442 295.861 182.416 295.68C181.982 292.706 182.672 289.415 184.359 286.411C185.752 283.93 187.8 281.6 190.621 279.289C191.185 278.827 191.795 278.35 192.519 278.033C192.703 277.95 192.916 278.036 192.995 278.218C193.076 278.402 192.992 278.616 192.808 278.695C192.17 278.975 191.604 279.417 191.08 279.848C188.329 282.102 186.338 284.364 184.99 286.764C183.382 289.63 182.723 292.759 183.132 295.575C183.162 295.774 183.024 295.958 182.827 295.986C182.809 295.989 182.792 295.989 182.774 295.989V295.991Z" fill="#2D324F"/>
<path d="M170.159 295.268C170.142 295.268 170.124 295.268 170.108 295.264C169.909 295.236 169.773 295.052 169.801 294.855C170.281 291.473 170.971 287.512 172.457 283.784C174.014 279.879 176.311 276.683 179.1 274.541C179.257 274.419 179.486 274.448 179.608 274.606C179.729 274.766 179.7 274.993 179.542 275.114C176.857 277.176 174.641 280.267 173.131 284.05C171.673 287.706 170.992 291.614 170.519 294.955C170.493 295.136 170.338 295.266 170.161 295.266L170.159 295.268Z" fill="#2D324F"/>
<path d="M160.056 295.268C159.876 295.268 159.719 295.133 159.696 294.949C157.95 280.308 167.56 271.17 167.659 271.08C167.805 270.943 168.034 270.951 168.172 271.098C168.308 271.244 168.3 271.473 168.154 271.611C168.06 271.699 158.717 280.599 160.418 294.863C160.441 295.062 160.3 295.243 160.101 295.266C160.086 295.268 160.071 295.269 160.058 295.269L160.056 295.268Z" fill="#2D324F"/>
<path d="M272.624 252.496H272.617L208.996 251.288C208.795 251.285 208.636 251.119 208.641 250.918C208.644 250.721 208.807 250.563 209.002 250.563H209.009L272.631 251.771C272.831 251.775 272.991 251.941 272.986 252.141C272.982 252.339 272.82 252.496 272.624 252.496Z" fill="#2D324F"/>
<path d="M252.081 251.648C251.925 251.648 251.782 251.546 251.734 251.39C249.689 244.575 245.808 233.997 241.604 226.614C240.885 225.352 239.746 223.692 238.195 223.733C238 223.751 237.827 223.583 237.821 223.383C237.814 223.182 237.97 223.015 238.171 223.008C240.119 222.947 241.421 224.83 242.233 226.253C246.467 233.69 250.372 244.33 252.428 251.181C252.486 251.372 252.377 251.574 252.185 251.632C252.15 251.642 252.114 251.646 252.08 251.646L252.081 251.648Z" fill="#2D324F"/>
<path d="M200.763 300.363H52.6563C51.5778 300.363 50.7031 299.488 50.7031 298.408V298.46C50.7031 297.382 51.5778 296.506 52.6563 296.506H200.763C201.841 296.506 202.716 297.38 202.716 298.46V298.408C202.716 299.486 201.841 300.363 200.763 300.363Z" fill="white"/>
<path d="M200.764 300.726H52.657C51.4091 300.726 50.3881 299.733 50.3438 298.497C50.3438 298.485 50.3438 298.474 50.3438 298.462V298.409C50.3438 298.398 50.3438 298.386 50.3438 298.375C50.3898 297.139 51.4091 296.146 52.657 296.146H200.764C202.011 296.146 203.032 297.139 203.077 298.375C203.077 298.386 203.077 298.398 203.077 298.409V298.462C203.077 298.474 203.077 298.485 203.077 298.497C203.031 299.733 202.011 300.726 200.764 300.726ZM51.0655 298.436C51.0787 299.301 51.7873 300.001 52.6553 300.001H200.762C201.63 300.001 202.339 299.301 202.352 298.436C202.339 297.571 201.63 296.871 200.762 296.871H52.657C51.7889 296.871 51.0803 297.571 51.0672 298.436H51.0655Z" fill="#2D324F"/>
<path d="M197.884 293.997H184.102V296.361H197.884V293.997Z" fill="#2D324F"/>
<path d="M179.509 293.997H165.727V296.361H179.509V293.997Z" fill="#2D324F"/>
<path d="M161.134 293.997H147.352V296.361H161.134V293.997Z" fill="#2D324F"/>
<path d="M142.751 293.997H128.969V296.361H142.751V293.997Z" fill="#2D324F"/>
<path d="M124.376 293.997H110.594V296.361H124.376V293.997Z" fill="#2D324F"/>
<path d="M106.001 293.997H92.2188V296.361H106.001V293.997Z" fill="#2D324F"/>
<path d="M87.6262 293.997H73.8438V296.361H87.6262V293.997Z" fill="#2D324F"/>
<path d="M69.2512 293.997H55.4688V296.361H69.2512V293.997Z" fill="#2D324F"/>
<path d="M244.943 255.553V287.752C244.943 292.134 242.597 296.18 238.796 298.355L234.727 300.683H198.172L204.046 298.064C208.449 296.101 211.287 291.731 211.287 286.907V255.551H244.945L244.943 255.553Z" fill="#2D324F"/>
<path d="M302.506 161.315H151.554C147.567 161.315 144.336 164.546 144.336 168.533V249.045C144.336 253.032 147.567 256.263 151.554 256.263H302.506C306.492 256.263 309.724 253.032 309.724 249.045V168.533C309.724 164.546 306.492 161.315 302.506 161.315Z" fill="#2D324F"/>
<path d="M249.112 255.508H220.807C220.606 255.508 220.445 255.346 220.445 255.147C220.445 254.948 220.608 254.785 220.807 254.785H249.112C249.312 254.785 249.473 254.948 249.473 255.147C249.473 255.346 249.311 255.508 249.112 255.508Z" fill="white"/>
<path d="M152.838 249.601C152.638 249.601 152.477 249.438 152.477 249.24V168.342C152.477 168.141 152.639 167.98 152.838 167.98C153.037 167.98 153.2 168.143 153.2 168.342V249.24C153.2 249.44 153.037 249.601 152.838 249.601Z" fill="white"/>
<path d="M301.22 226.137H274.58C274.38 226.137 274.219 225.974 274.219 225.775C274.219 225.576 274.382 225.413 274.58 225.413H301.22C301.42 225.413 301.581 225.576 301.581 225.775C301.581 225.974 301.419 226.137 301.22 226.137Z" fill="white"/>
<path d="M301.22 230.239H274.58C274.38 230.239 274.219 230.076 274.219 229.877C274.219 229.678 274.382 229.515 274.58 229.515H301.22C301.42 229.515 301.581 229.678 301.581 229.877C301.581 230.076 301.419 230.239 301.22 230.239Z" fill="white"/>
<path d="M301.22 234.341H274.58C274.38 234.341 274.219 234.178 274.219 233.979C274.219 233.78 274.382 233.617 274.58 233.617H301.22C301.42 233.617 301.581 233.78 301.581 233.979C301.581 234.178 301.419 234.341 301.22 234.341Z" fill="white"/>
<path d="M301.22 238.441H274.58C274.38 238.441 274.219 238.278 274.219 238.079C274.219 237.881 274.382 237.718 274.58 237.718H301.22C301.42 237.718 301.581 237.881 301.581 238.079C301.581 238.278 301.419 238.441 301.22 238.441Z" fill="white"/>
<path d="M185.342 44.2031C185.142 44.2031 184.981 44.0403 184.981 43.8414L184.961 19.0748C184.961 18.9778 184.999 18.8857 185.066 18.8183C185.134 18.7509 185.227 18.7114 185.323 18.7114H223.959C224.159 18.7114 224.321 18.8742 224.321 19.0731C224.321 19.2721 224.158 19.4348 223.959 19.4348H185.686L185.706 43.8398C185.706 44.0403 185.545 44.2031 185.344 44.2031H185.342Z" fill="#2D324F"/>
<path d="M185.32 57.0024C188.443 57.0024 190.975 54.4695 190.975 51.3451C190.975 48.2206 188.443 45.6877 185.32 45.6877C182.196 45.6877 179.664 48.2206 179.664 51.3451C179.664 54.4695 182.196 57.0024 185.32 57.0024Z" fill="#E2EAFF"/>
<path d="M185.32 73.5141C188.443 73.5141 190.975 70.9812 190.975 67.8568C190.975 64.7323 188.443 62.1995 185.32 62.1995C182.196 62.1995 179.664 64.7323 179.664 67.8568C179.664 70.9812 182.196 73.5141 185.32 73.5141Z" fill="#E2EAFF"/>
<path d="M185.32 90.0256C188.443 90.0256 190.975 87.4927 190.975 84.3683C190.975 81.2438 188.443 78.7109 185.32 78.7109C182.196 78.7109 179.664 81.2438 179.664 84.3683C179.664 87.4927 182.196 90.0256 185.32 90.0256Z" fill="#E2EAFF"/>
</g>
<defs>
<clipPath id="clip0_2911_1901">
<rect width="450.97" height="300.869" fill="white"/>
</clipPath>
</defs>
</svg>
