<svg width="44" height="48" viewBox="0 0 44 48" fill="none" xmlns="http://www.w3.org/2000/svg">
<path d="M10.3368 15.9307L9.71875 22.3648L22.8694 36.0318L41.1048 1.87109L37.6756 3.84832L22.0308 27.1509L10.3368 15.9307Z" fill="#FFA054"/>
<path d="M42.3236 11.3534C40.3696 11.3371 38.5981 11.1388 36.9858 10.8219L35.3771 13.8355C36.9556 14.2043 38.673 14.4698 40.5504 14.5806C40.0132 20.27 37.1385 39.139 22.4883 44.2074C7.83803 39.139 4.96341 20.27 4.42621 14.5806C14.3912 13.9927 20.073 9.1903 22.4883 6.52234C23.9899 8.18067 26.7562 10.6637 31.0271 12.4466L32.8993 9.65803C26.7167 7.28624 24.0277 3.2408 23.8762 3.00644L22.4972 0.839844L21.1039 3.00051C20.8871 3.33672 15.6387 11.2461 2.65293 11.3534L0.976562 11.3673L1.02428 13.0429C1.05715 14.1875 2.05319 41.1484 21.9894 47.5033L22.4883 47.6625L22.9872 47.5033C42.9234 41.1484 43.9194 14.1875 43.9523 13.0429L44 11.3673L42.3236 11.3534Z" fill="#2D324F"/>
</svg>
