<svg width="522" height="508" viewBox="0 0 522 508" fill="none" xmlns="http://www.w3.org/2000/svg">
<g clip-path="url(#clip0_2768_3419)">
<path d="M23.4864 155.859C23.4864 156.005 23.483 156.15 23.4769 156.295H0.509554C0.503389 156.149 0.5 156.003 0.5 155.856C0.5 149.513 5.6448 144.37 11.9932 144.37C18.3415 144.37 23.4864 149.513 23.4864 155.859Z" fill="#F0E6E1" stroke="#E7D7CF"/>
<path d="M62.8848 155.859C62.8848 156.006 62.8814 156.152 62.8752 156.298H39.908C39.9018 156.152 39.8984 156.006 39.8984 155.859C39.8984 149.513 45.0433 144.37 51.3916 144.37C57.74 144.37 62.8848 149.513 62.8848 155.859Z" fill="#F0E6E1" stroke="#E7D7CF"/>
<path d="M73.0956 156.298H57.1609C57.1526 156.153 57.1484 156.007 57.1484 155.86C57.1484 151.454 60.721 147.882 65.1288 147.882C69.5366 147.882 73.1091 151.454 73.1091 155.86C73.1091 156.006 73.1043 156.152 73.0956 156.298Z" fill="#F0E6E1" stroke="#E7D7CF"/>
<path d="M49.1953 154.562C49.1953 155.148 49.1656 155.727 49.1075 156.298H15.1425C15.0844 155.727 15.0547 155.148 15.0547 154.562C15.0547 145.139 22.6984 137.497 32.125 137.497C41.5516 137.497 49.1953 145.139 49.1953 154.562Z" fill="#F0E6E1" stroke="#E7D7CF"/>
<path d="M319.002 18.8622C319.002 19.0088 318.999 19.1547 318.992 19.3005H296.025C296.019 19.1547 296.016 19.0088 296.016 18.8622C296.016 12.5161 301.16 7.37256 307.509 7.37256C313.857 7.37256 319.002 12.5161 319.002 18.8622Z" fill="#F0E6E1" stroke="#E7D7CF"/>
<path d="M358.4 18.8622C358.4 19.0088 358.397 19.1547 358.391 19.3005H335.424C335.417 19.1547 335.414 19.0088 335.414 18.8622C335.414 12.5161 340.559 7.37256 346.907 7.37256C353.256 7.37256 358.4 12.5161 358.4 18.8622Z" fill="#F0E6E1" stroke="#E7D7CF"/>
<path d="M344.711 17.5651C344.711 18.1512 344.681 18.7297 344.623 19.3007H310.658C310.6 18.7297 310.57 18.1512 310.57 17.5651C310.57 8.14166 318.214 0.5 327.641 0.5C337.067 0.5 344.711 8.14166 344.711 17.5651Z" fill="#F0E6E1" stroke="#E7D7CF"/>
<path d="M256.456 157.474H252.134C251.814 157.474 251.555 157.214 251.555 156.894C251.555 156.575 251.814 156.315 252.134 156.315H256.456C256.776 156.315 257.035 156.575 257.035 156.894C257.035 157.214 256.776 157.474 256.456 157.474ZM247.813 157.474H243.491C243.171 157.474 242.912 157.214 242.912 156.894C242.912 156.575 243.171 156.315 243.491 156.315H247.813C248.133 156.315 248.392 156.575 248.392 156.894C248.392 157.214 248.133 157.474 247.813 157.474ZM239.169 157.474H234.848C234.528 157.474 234.268 157.214 234.268 156.894C234.268 156.575 234.528 156.315 234.848 156.315H239.169C239.489 156.315 239.749 156.575 239.749 156.894C239.749 157.214 239.489 157.474 239.169 157.474ZM230.526 157.474H226.204C225.884 157.474 225.625 157.214 225.625 156.894C225.625 156.575 225.884 156.315 226.204 156.315H230.526C230.846 156.315 231.105 156.575 231.105 156.894C231.105 157.214 230.846 157.474 230.526 157.474ZM221.883 157.474H217.561C217.241 157.474 216.982 157.214 216.982 156.894C216.982 156.575 217.241 156.315 217.561 156.315H221.883C222.203 156.315 222.462 156.575 222.462 156.894C222.462 157.214 222.203 157.474 221.883 157.474ZM213.239 157.474H208.918C208.598 157.474 208.338 157.214 208.338 156.894C208.338 156.575 208.598 156.315 208.918 156.315H213.239C213.559 156.315 213.819 156.575 213.819 156.894C213.819 157.214 213.559 157.474 213.239 157.474ZM204.596 157.474H200.274C199.955 157.474 199.695 157.214 199.695 156.894C199.695 156.575 199.955 156.315 200.274 156.315H204.596C204.916 156.315 205.176 156.575 205.176 156.894C205.176 157.214 204.916 157.474 204.596 157.474ZM195.953 157.474H191.631C191.311 157.474 191.052 157.214 191.052 156.894C191.052 156.575 191.311 156.315 191.631 156.315H195.953C196.273 156.315 196.532 156.575 196.532 156.894C196.532 157.214 196.273 157.474 195.953 157.474ZM187.309 157.474H182.988C182.668 157.474 182.408 157.214 182.408 156.894C182.408 156.575 182.668 156.315 182.988 156.315H187.309C187.629 156.315 187.889 156.575 187.889 156.894C187.889 157.214 187.629 157.474 187.309 157.474ZM178.666 157.474H174.345C174.025 157.474 173.765 157.214 173.765 156.894C173.765 156.575 174.025 156.315 174.345 156.315H178.666C178.986 156.315 179.246 156.575 179.246 156.894C179.246 157.214 178.986 157.474 178.666 157.474ZM170.023 157.474H165.701C165.381 157.474 165.122 157.214 165.122 156.894C165.122 156.575 165.381 156.315 165.701 156.315H170.023C170.343 156.315 170.602 156.575 170.602 156.894C170.602 157.214 170.343 157.474 170.023 157.474ZM161.38 157.474H157.058C156.738 157.474 156.478 157.214 156.478 156.894C156.478 156.575 156.738 156.315 157.058 156.315H161.38C161.699 156.315 161.959 156.575 161.959 156.894C161.959 157.214 161.699 157.474 161.38 157.474ZM152.736 157.474H148.415C148.095 157.474 147.835 157.214 147.835 156.894C147.835 156.575 148.095 156.315 148.415 156.315H152.736C153.056 156.315 153.316 156.575 153.316 156.894C153.316 157.214 153.056 157.474 152.736 157.474ZM144.093 157.474H139.771C139.451 157.474 139.192 157.214 139.192 156.894C139.192 156.575 139.451 156.315 139.771 156.315H144.093C144.413 156.315 144.672 156.575 144.672 156.894C144.672 157.214 144.413 157.474 144.093 157.474ZM135.45 157.474H131.128C130.808 157.474 130.549 157.214 130.549 156.894C130.549 156.575 130.808 156.315 131.128 156.315H135.45C135.77 156.315 136.029 156.575 136.029 156.894C136.029 157.214 135.77 157.474 135.45 157.474ZM126.806 157.474H122.485C122.165 157.474 121.905 157.214 121.905 156.894C121.905 156.575 122.165 156.315 122.485 156.315H126.806C127.126 156.315 127.386 156.575 127.386 156.894C127.386 157.214 127.126 157.474 126.806 157.474ZM118.163 157.474H113.841C113.521 157.474 113.262 157.214 113.262 156.894C113.262 156.575 113.521 156.315 113.841 156.315H118.163C118.483 156.315 118.742 156.575 118.742 156.894C118.742 157.214 118.483 157.474 118.163 157.474ZM109.52 157.474H105.198C104.878 157.474 104.619 157.214 104.619 156.894C104.619 156.575 104.878 156.315 105.198 156.315H109.52C109.84 156.315 110.099 156.575 110.099 156.894C110.099 157.214 109.84 157.474 109.52 157.474ZM100.876 157.474H100.173C98.8061 157.474 97.4903 156.991 96.4732 156.119C96.2318 155.911 96.2016 155.546 96.4098 155.304C96.6181 155.063 96.9832 155.033 97.2247 155.241C98.0335 155.935 99.0807 156.318 100.173 156.318H100.876C101.196 156.318 101.456 156.578 101.456 156.897C101.456 157.217 101.196 157.477 100.876 157.477V157.474ZM260.527 156.451C260.352 156.451 260.18 156.372 260.065 156.222C259.872 155.968 259.924 155.603 260.177 155.41C261.227 154.616 261.834 153.428 261.837 152.158C261.837 151.838 262.096 151.581 262.416 151.581C262.736 151.581 262.993 151.841 262.993 152.161C262.993 153.799 262.217 155.319 260.874 156.336C260.769 156.415 260.648 156.454 260.524 156.454L260.527 156.451ZM95.1966 152.429C94.8767 152.429 94.6172 152.17 94.6172 151.85V147.529C94.6172 147.21 94.8767 146.95 95.1966 146.95C95.5165 146.95 95.7761 147.21 95.7761 147.529V151.85C95.7761 152.17 95.5165 152.429 95.1966 152.429ZM262.416 148.416C262.096 148.416 261.837 148.157 261.837 147.837V143.517C261.837 143.197 262.096 142.938 262.416 142.938C262.736 142.938 262.996 143.197 262.996 143.517V147.837C262.996 148.157 262.736 148.416 262.416 148.416ZM95.1966 143.791C94.8767 143.791 94.6172 143.532 94.6172 143.212V138.892C94.6172 138.572 94.8767 138.312 95.1966 138.312C95.5165 138.312 95.7761 138.572 95.7761 138.892V143.212C95.7761 143.532 95.5165 143.791 95.1966 143.791ZM262.416 139.779C262.096 139.779 261.837 139.519 261.837 139.199V134.879C261.837 134.559 262.096 134.3 262.416 134.3C262.736 134.3 262.996 134.559 262.996 134.879V139.199C262.996 139.519 262.736 139.779 262.416 139.779ZM95.1966 135.154C94.8767 135.154 94.6172 134.894 94.6172 134.574V130.254C94.6172 129.934 94.8767 129.675 95.1966 129.675C95.5165 129.675 95.7761 129.934 95.7761 130.254V134.574C95.7761 134.894 95.5165 135.154 95.1966 135.154ZM262.416 131.141C262.096 131.141 261.837 130.882 261.837 130.562V126.241C261.837 125.922 262.096 125.662 262.416 125.662C262.736 125.662 262.996 125.922 262.996 126.241V130.562C262.996 130.882 262.736 131.141 262.416 131.141ZM95.1966 126.516C94.8767 126.516 94.6172 126.256 94.6172 125.937V121.616C94.6172 121.296 94.8767 121.037 95.1966 121.037C95.5165 121.037 95.7761 121.296 95.7761 121.616V125.937C95.7761 126.256 95.5165 126.516 95.1966 126.516ZM262.416 122.503C262.096 122.503 261.837 122.244 261.837 121.924V117.604C261.837 117.284 262.096 117.024 262.416 117.024C262.736 117.024 262.996 117.284 262.996 117.604V121.924C262.996 122.244 262.736 122.503 262.416 122.503ZM95.1966 117.878C94.8767 117.878 94.6172 117.619 94.6172 117.299V112.979C94.6172 112.659 94.8767 112.399 95.1966 112.399C95.5165 112.399 95.7761 112.659 95.7761 112.979V117.299C95.7761 117.619 95.5165 117.878 95.1966 117.878ZM262.416 113.866C262.096 113.866 261.837 113.606 261.837 113.286V108.966C261.837 108.646 262.096 108.387 262.416 108.387C262.736 108.387 262.996 108.646 262.996 108.966V113.286C262.996 113.606 262.736 113.866 262.416 113.866ZM95.1966 109.24C94.8767 109.24 94.6172 108.981 94.6172 108.661V104.341C94.6172 104.021 94.8767 103.762 95.1966 103.762C95.5165 103.762 95.7761 104.021 95.7761 104.341V108.661C95.7761 108.981 95.5165 109.24 95.1966 109.24ZM262.416 105.228C262.096 105.228 261.837 104.968 261.837 104.649V100.328C261.837 100.008 262.096 99.7489 262.416 99.7489C262.736 99.7489 262.996 100.008 262.996 100.328V104.649C262.996 104.968 262.736 105.228 262.416 105.228ZM95.1966 100.603C94.8767 100.603 94.6172 100.343 94.6172 100.023V95.7031C94.6172 95.3833 94.8767 95.1238 95.1966 95.1238C95.5165 95.1238 95.7761 95.3833 95.7761 95.7031V100.023C95.7761 100.343 95.5165 100.603 95.1966 100.603ZM262.416 96.5901C262.096 96.5901 261.837 96.3306 261.837 96.0108V91.6904C261.837 91.3706 262.096 91.1112 262.416 91.1112C262.736 91.1112 262.996 91.3706 262.996 91.6904V96.0108C262.996 96.3306 262.736 96.5901 262.416 96.5901ZM95.1966 91.965C94.8767 91.965 94.6172 91.7055 94.6172 91.3857V87.0653C94.6172 86.7455 94.8767 86.4861 95.1966 86.4861C95.5165 86.4861 95.7761 86.7455 95.7761 87.0653V91.3857C95.7761 91.7055 95.5165 91.965 95.1966 91.965ZM262.416 87.9524C262.096 87.9524 261.837 87.6929 261.837 87.3731V83.0527C261.837 82.7329 262.096 82.4734 262.416 82.4734C262.736 82.4734 262.996 82.7329 262.996 83.0527V87.3731C262.996 87.6929 262.736 87.9524 262.416 87.9524ZM95.1966 83.3273C94.8767 83.3273 94.6172 83.0678 94.6172 82.748V78.4276C94.6172 78.1078 94.8767 77.8483 95.1966 77.8483C95.5165 77.8483 95.7761 78.1078 95.7761 78.4276V82.748C95.7761 83.0678 95.5165 83.3273 95.1966 83.3273ZM262.416 79.3146C262.096 79.3146 261.837 79.0552 261.837 78.7354V74.415C261.837 74.0952 262.096 73.8357 262.416 73.8357C262.736 73.8357 262.996 74.0952 262.996 74.415V78.7354C262.996 79.0552 262.736 79.3146 262.416 79.3146ZM95.1966 74.6895C94.8767 74.6895 94.6172 74.4301 94.6172 74.1103V69.7899C94.6172 69.4701 94.8767 69.2016 95.1966 69.2016C95.5165 69.2016 95.7761 69.452 95.7761 69.7688V74.1072C95.7761 74.427 95.5165 74.6865 95.1966 74.6865V74.6895ZM262.416 70.6769C262.096 70.6769 261.837 70.4174 261.837 70.0976V69.7899C261.837 68.6163 261.312 67.4909 260.394 66.7035C260.153 66.4953 260.126 66.1302 260.334 65.8889C260.542 65.6475 260.907 65.6204 261.149 65.8285C262.32 66.8362 262.993 68.2814 262.993 69.7929V70.1006C262.993 70.4204 262.733 70.6799 262.413 70.6799L262.416 70.6769ZM97.0949 66.6401C96.9199 66.6401 96.7448 66.5617 96.6332 66.4108C96.44 66.1544 96.4913 65.7923 96.7478 65.5992C97.7347 64.8571 98.9177 64.4648 100.173 64.4648H101.196C101.516 64.4648 101.776 64.7243 101.776 65.0441C101.776 65.3639 101.516 65.6234 101.196 65.6234H100.173C99.1712 65.6234 98.2266 65.9341 97.445 66.5255C97.3394 66.6039 97.2186 66.6431 97.0979 66.6431L97.0949 66.6401ZM256.749 65.6234H252.427C252.107 65.6234 251.848 65.3639 251.848 65.0441C251.848 64.7243 252.107 64.4648 252.427 64.4648H256.749C257.069 64.4648 257.328 64.7243 257.328 65.0441C257.328 65.3639 257.069 65.6234 256.749 65.6234ZM248.105 65.6234H243.784C243.464 65.6234 243.204 65.3639 243.204 65.0441C243.204 64.7243 243.464 64.4648 243.784 64.4648H248.105C248.425 64.4648 248.685 64.7243 248.685 65.0441C248.685 65.3639 248.425 65.6234 248.105 65.6234ZM239.462 65.6234H235.14C234.821 65.6234 234.561 65.3639 234.561 65.0441C234.561 64.7243 234.821 64.4648 235.14 64.4648H239.462C239.782 64.4648 240.042 64.7243 240.042 65.0441C240.042 65.3639 239.782 65.6234 239.462 65.6234ZM230.819 65.6234H226.497C226.177 65.6234 225.918 65.3639 225.918 65.0441C225.918 64.7243 226.177 64.4648 226.497 64.4648H230.819C231.139 64.4648 231.398 64.7243 231.398 65.0441C231.398 65.3639 231.139 65.6234 230.819 65.6234ZM222.175 65.6234H217.854C217.534 65.6234 217.274 65.3639 217.274 65.0441C217.274 64.7243 217.534 64.4648 217.854 64.4648H222.175C222.495 64.4648 222.755 64.7243 222.755 65.0441C222.755 65.3639 222.495 65.6234 222.175 65.6234ZM213.532 65.6234H209.21C208.891 65.6234 208.631 65.3639 208.631 65.0441C208.631 64.7243 208.891 64.4648 209.21 64.4648H213.532C213.852 64.4648 214.112 64.7243 214.112 65.0441C214.112 65.3639 213.852 65.6234 213.532 65.6234ZM204.889 65.6234H200.567C200.247 65.6234 199.988 65.3639 199.988 65.0441C199.988 64.7243 200.247 64.4648 200.567 64.4648H204.889C205.209 64.4648 205.468 64.7243 205.468 65.0441C205.468 65.3639 205.209 65.6234 204.889 65.6234ZM196.246 65.6234H191.924C191.604 65.6234 191.344 65.3639 191.344 65.0441C191.344 64.7243 191.604 64.4648 191.924 64.4648H196.246C196.565 64.4648 196.825 64.7243 196.825 65.0441C196.825 65.3639 196.565 65.6234 196.246 65.6234ZM187.602 65.6234H183.281C182.961 65.6234 182.701 65.3639 182.701 65.0441C182.701 64.7243 182.961 64.4648 183.281 64.4648H187.602C187.922 64.4648 188.182 64.7243 188.182 65.0441C188.182 65.3639 187.922 65.6234 187.602 65.6234ZM178.959 65.6234H174.637C174.317 65.6234 174.058 65.3639 174.058 65.0441C174.058 64.7243 174.317 64.4648 174.637 64.4648H178.959C179.279 64.4648 179.538 64.7243 179.538 65.0441C179.538 65.3639 179.279 65.6234 178.959 65.6234ZM170.316 65.6234H165.994C165.674 65.6234 165.414 65.3639 165.414 65.0441C165.414 64.7243 165.674 64.4648 165.994 64.4648H170.316C170.635 64.4648 170.895 64.7243 170.895 65.0441C170.895 65.3639 170.635 65.6234 170.316 65.6234ZM161.672 65.6234H157.351C157.031 65.6234 156.771 65.3639 156.771 65.0441C156.771 64.7243 157.031 64.4648 157.351 64.4648H161.672C161.992 64.4648 162.252 64.7243 162.252 65.0441C162.252 65.3639 161.992 65.6234 161.672 65.6234ZM153.029 65.6234H148.707C148.387 65.6234 148.128 65.3639 148.128 65.0441C148.128 64.7243 148.387 64.4648 148.707 64.4648H153.029C153.349 64.4648 153.608 64.7243 153.608 65.0441C153.608 65.3639 153.349 65.6234 153.029 65.6234ZM144.386 65.6234H140.064C139.744 65.6234 139.485 65.3639 139.485 65.0441C139.485 64.7243 139.744 64.4648 140.064 64.4648H144.386C144.706 64.4648 144.965 64.7243 144.965 65.0441C144.965 65.3639 144.706 65.6234 144.386 65.6234ZM135.742 65.6234H131.421C131.101 65.6234 130.841 65.3639 130.841 65.0441C130.841 64.7243 131.101 64.4648 131.421 64.4648H135.742C136.062 64.4648 136.322 64.7243 136.322 65.0441C136.322 65.3639 136.062 65.6234 135.742 65.6234ZM127.099 65.6234H122.777C122.457 65.6234 122.198 65.3639 122.198 65.0441C122.198 64.7243 122.457 64.4648 122.777 64.4648H127.099C127.419 64.4648 127.678 64.7243 127.678 65.0441C127.678 65.3639 127.419 65.6234 127.099 65.6234ZM118.456 65.6234H114.134C113.814 65.6234 113.555 65.3639 113.555 65.0441C113.555 64.7243 113.814 64.4648 114.134 64.4648H118.456C118.776 64.4648 119.035 64.7243 119.035 65.0441C119.035 65.3639 118.776 65.6234 118.456 65.6234ZM109.812 65.6234H105.491C105.171 65.6234 104.911 65.3639 104.911 65.0441C104.911 64.7243 105.171 64.4648 105.491 64.4648H109.812C110.132 64.4648 110.392 64.7243 110.392 65.0441C110.392 65.3639 110.132 65.6234 109.812 65.6234Z" fill="#F0E6E1"/>
<path d="M268.463 143.462H114.839C111.604 143.462 108.984 140.841 108.984 137.609V50.4687C108.984 47.2345 111.607 44.6157 114.839 44.6157H268.463C271.698 44.6157 274.318 47.2375 274.318 50.4687V137.606C274.318 140.841 271.695 143.459 268.463 143.459V143.462Z" fill="#2D3250"/>
<path d="M274.313 63.2822H108.977V80.3405H274.313V63.2822Z" fill="#FFA054"/>
<path d="M146.849 124.498H122.54C120.995 124.498 119.742 125.75 119.742 127.294C119.742 128.839 120.995 130.091 122.54 130.091H146.849C148.394 130.091 149.647 128.839 149.647 127.294C149.647 125.75 148.394 124.498 146.849 124.498Z" fill="#D1F5FF"/>
<path d="M184.232 124.498H159.923C158.377 124.498 157.125 125.75 157.125 127.294C157.125 128.839 158.377 130.091 159.923 130.091H184.232C185.777 130.091 187.03 128.839 187.03 127.294C187.03 125.75 185.777 124.498 184.232 124.498Z" fill="#D1F5FF"/>
<path d="M221.623 124.498H197.313C195.768 124.498 194.516 125.75 194.516 127.294C194.516 128.839 195.768 130.091 197.313 130.091H221.623C223.168 130.091 224.42 128.839 224.42 127.294C224.42 125.75 223.168 124.498 221.623 124.498Z" fill="#D1F5FF"/>
<path d="M259.005 124.498H234.696C233.151 124.498 231.898 125.75 231.898 127.294C231.898 128.839 233.151 130.091 234.696 130.091H259.005C260.551 130.091 261.803 128.839 261.803 127.294C261.803 125.75 260.551 124.498 259.005 124.498Z" fill="#D1F5FF"/>
<path d="M121.423 49.6299C119.718 49.6299 118.336 51.0117 118.336 52.7163V53.7994C118.336 55.504 119.718 56.8858 121.423 56.8858C123.128 56.8858 124.511 55.504 124.511 53.7994V52.7163C124.511 51.0117 123.128 49.6299 121.423 49.6299Z" fill="#D1F5FF"/>
<path d="M128.07 53.2594C128.07 55.2627 129.697 56.8888 131.701 56.8888H144.569C146.573 56.8888 148.2 55.2627 148.2 53.2594C148.2 51.2561 146.573 49.6299 144.569 49.6299H131.701C129.697 49.6299 128.07 51.2561 128.07 53.2594Z" fill="#D1F5FF"/>
<path d="M143.005 89.5151H126.385C123.722 89.5151 121.562 91.6737 121.562 94.3363V108.661C121.562 111.324 123.722 113.482 126.385 113.482H143.005C145.668 113.482 147.827 111.324 147.827 108.661V94.3363C147.827 91.6737 145.668 89.5151 143.005 89.5151Z" fill="#FF9F34"/>
<path d="M449.315 123.33C451.255 115.679 451.572 107.949 450.465 100.581L452.806 100.231L457.43 99.5406L457.487 99.5285C456.232 91.096 453.35 83.0556 449.034 75.8479L442.944 79.4744C439.036 72.9546 433.884 67.174 427.649 62.5942L431.877 56.8829C425.286 51.9622 417.611 48.2392 409.146 46.0941L407.399 52.988C399.718 51.042 392.014 50.7312 384.644 51.8385L383.588 44.8179C375.152 46.0699 367.104 48.9783 359.9 53.2685L363.527 59.3569C357.003 63.2639 351.223 68.414 346.639 74.6441L340.926 70.4173C336.004 77.0065 332.28 84.6788 330.134 93.1415L337.03 94.8884C335.084 102.567 334.77 110.269 335.877 117.637L330.907 118.379L328.879 118.699L328.852 118.693C330.107 127.125 333.013 135.172 337.305 142.373L343.395 138.747C347.303 145.267 352.479 151.053 358.714 155.636L354.486 161.347C361.08 166.268 368.727 169.985 377.193 172.13L378.94 165.236C386.621 167.182 394.352 167.502 401.722 166.395L402.534 171.853L402.778 173.415C411.214 172.163 419.238 169.246 426.442 164.959L422.814 158.87C429.336 154.963 435.124 149.789 439.733 143.562L445.446 147.789C450.344 141.191 454.062 133.545 456.205 125.083L449.309 123.336L449.315 123.33ZM385.45 139.586C368.601 135.316 358.418 118.228 362.688 101.384C366.953 84.5641 384.043 74.3877 400.895 78.6568C417.72 82.9198 427.9 100.005 423.638 116.825C419.368 133.669 402.277 143.849 385.453 139.586H385.45Z" stroke="#E7D7CF" stroke-width="4" stroke-linejoin="round"/>
<path d="M476.414 186.371C473.824 183.118 470.686 180.524 467.242 178.641L467.84 177.549L469.023 175.392L469.035 175.362C465.1 173.201 460.811 171.847 456.411 171.358L455.991 175.066C452.014 174.625 447.949 174.942 444.04 176.095L442.993 172.504C438.829 173.699 434.824 175.727 431.226 178.593L433.559 181.522C430.297 184.12 427.711 187.249 425.824 190.691L422.544 188.896C420.38 192.83 419.037 197.129 418.539 201.516L422.248 201.935C421.807 205.915 422.124 209.976 423.277 213.883L419.686 214.93C420.881 219.093 422.909 223.097 425.773 226.693L428.703 224.361C431.302 227.622 434.431 230.208 437.875 232.094L436.601 234.414L436.088 235.364L436.076 235.373C440.012 237.533 444.312 238.879 448.7 239.377L449.12 235.669C453.097 236.109 457.174 235.783 461.083 234.631L462.13 238.221C466.295 237.026 470.29 235.005 473.885 232.142L471.552 229.212C474.814 226.615 477.413 223.477 479.296 220.035L481.843 221.434L482.576 221.83C484.74 217.895 486.074 213.605 486.569 209.219L482.86 208.799C483.301 204.823 482.975 200.747 481.834 196.831L485.425 195.784C484.221 191.629 482.199 187.635 479.335 184.041L476.405 186.374L476.414 186.371ZM462.878 218.312C455.72 224.011 445.311 222.834 439.61 215.678C433.918 208.534 435.095 198.128 442.254 192.426C449.4 186.736 459.809 187.912 465.504 195.06C471.205 202.216 470.028 212.622 462.878 218.312Z" stroke="#E7D7CF" stroke-width="4" stroke-linejoin="round"/>
<path d="M212.027 357.062C209.04 353.311 205.415 350.312 201.444 348.14L202.135 346.879L203.502 344.39L203.517 344.357C198.975 341.862 194.026 340.299 188.949 339.738L188.464 344.016C183.873 343.509 179.18 343.874 174.672 345.205L173.465 341.059C168.66 342.438 164.037 344.779 159.887 348.083L162.579 351.462C158.813 354.461 155.828 358.072 153.655 362.043L149.87 359.973C147.375 364.514 145.823 369.474 145.25 374.536L149.529 375.022C149.019 379.614 149.388 384.302 150.718 388.81L146.572 390.016C147.951 394.82 150.293 399.442 153.598 403.59L156.978 400.899C159.977 404.664 163.59 407.648 167.561 409.82L166.092 412.496L165.5 413.594L165.488 413.604C170.03 416.099 174.992 417.649 180.056 418.223L180.542 413.944C185.132 414.454 189.837 414.077 194.345 412.747L195.553 416.892C200.357 415.513 204.969 413.181 209.118 409.878L206.426 406.498C210.193 403.5 213.189 399.879 215.362 395.909L218.302 397.523L219.147 397.978C221.643 393.438 223.182 388.487 223.755 383.427L219.476 382.942C219.983 378.353 219.608 373.649 218.29 369.133L222.436 367.926C221.045 363.132 218.712 358.522 215.408 354.373L212.027 357.065V357.062ZM196.41 393.921C188.15 400.498 176.138 399.14 169.556 390.879C162.986 382.634 164.347 370.626 172.607 364.049C180.855 357.481 192.867 358.842 199.437 367.087C206.016 375.345 204.658 387.352 196.407 393.921H196.41Z" stroke="#2D3250" stroke-width="4" stroke-miterlimit="10"/>
<path d="M392.909 108.498C389.556 88.652 358.984 79.6914 359.582 92.6435L219.43 93.4641C209.721 93.5214 201.85 102.253 201.844 112.972L201.555 481.462C201.546 492.571 209.555 501.652 219.448 501.736L362.521 502.964C363.409 504.829 365.071 506.524 367.691 507.942C384.099 508.292 391.967 500.192 394.843 491.032C395.779 488.573 396.289 485.858 396.265 482.995C395.691 478.198 393.947 113.15 392.912 108.495L392.909 108.498Z" fill="#F0E6E1"/>
<path d="M366.158 508L201.932 506.941C191.683 506.874 183.396 497.546 183.414 486.117L184.03 107.158C184.048 96.1371 192.205 87.1856 202.255 87.1524L363.291 86.6305C373.419 86.5973 381.703 95.5367 381.788 106.609L384.706 487.321C384.794 498.804 376.488 508.069 366.155 508.003L366.158 508Z" fill="white"/>
<path d="M368.423 505.245C367.741 505.336 367.043 505.381 366.346 505.375L202.169 504.132C193.362 504.065 186.165 495.886 186.18 485.912L186.747 107.369C186.762 97.7482 193.845 89.8948 202.483 89.8586L363.509 89.1587C363.76 89.1587 364.016 89.1617 364.267 89.1738C368.32 89.3608 372.108 91.2073 374.935 94.3661C377.829 97.5943 379.438 101.872 379.471 106.419L382.35 487.517C382.42 496.55 376.45 504.171 368.42 505.248L368.423 505.245Z" fill="#2D3250"/>
<path d="M373.831 108.332L376.598 488.103L191.648 486.995L192.119 108.332H373.831Z" fill="#F2E8E3"/>
<path d="M309.481 299.433H259.969C255.78 299.433 252.352 296.006 252.352 291.818C252.352 287.63 255.78 284.203 259.969 284.203H309.481C313.67 284.203 317.098 287.63 317.098 291.818C317.098 296.006 313.67 299.433 309.481 299.433Z" fill="#FF9F34"/>
<path d="M347.151 227.67H219.125C214.918 227.67 211.508 231.08 211.508 235.285C211.508 239.491 214.918 242.9 219.125 242.9H347.151C351.358 242.9 354.768 239.491 354.768 235.285C354.768 231.08 351.358 227.67 347.151 227.67Z" fill="white"/>
<path d="M347.151 267.429H219.125C214.936 267.429 211.508 264.001 211.508 259.814C211.508 255.626 214.936 252.199 219.125 252.199H347.151C351.34 252.199 354.768 255.626 354.768 259.814C354.768 264.001 351.34 267.429 347.151 267.429Z" fill="white"/>
<path d="M243.03 260.486C243.03 261.968 241.829 263.168 240.347 263.168C238.865 263.168 237.664 261.968 237.664 260.486C237.664 259.005 238.865 257.804 240.347 257.804C241.829 257.804 243.03 259.005 243.03 260.486Z" fill="#F0E6E1"/>
<path d="M252.182 261.067C252.49 259.619 251.565 258.194 250.116 257.886C248.666 257.578 247.242 258.502 246.933 259.951C246.625 261.4 247.55 262.825 248.999 263.133C250.449 263.441 251.873 262.516 252.182 261.067Z" fill="#F0E6E1"/>
<path d="M260.637 262.382C261.684 261.335 261.684 259.637 260.637 258.589C259.589 257.542 257.89 257.542 256.842 258.589C255.795 259.637 255.795 261.335 256.842 262.382C257.89 263.43 259.589 263.43 260.637 262.382Z" fill="#F0E6E1"/>
<path d="M269.824 262.383C270.872 261.335 270.872 259.637 269.824 258.59C268.776 257.542 267.078 257.542 266.03 258.59C264.982 259.637 264.982 261.335 266.03 262.383C267.078 263.43 268.776 263.43 269.824 262.383Z" fill="#F0E6E1"/>
<path d="M278.149 262.965C279.518 262.398 280.168 260.829 279.601 259.461C279.034 258.092 277.465 257.442 276.096 258.009C274.727 258.576 274.077 260.145 274.644 261.514C275.211 262.882 276.78 263.532 278.149 262.965Z" fill="#F0E6E1"/>
<path d="M288.917 261.088C289.257 259.646 288.364 258.201 286.922 257.861C285.48 257.521 284.035 258.414 283.694 259.855C283.354 261.297 284.247 262.742 285.689 263.082C287.131 263.422 288.576 262.529 288.917 261.088Z" fill="#F0E6E1"/>
<path d="M297.41 262.383C298.458 261.335 298.458 259.637 297.41 258.59C296.362 257.542 294.664 257.542 293.616 258.59C292.568 259.637 292.568 261.335 293.616 262.383C294.664 263.43 296.362 263.43 297.41 262.383Z" fill="#F0E6E1"/>
<path d="M306.605 262.384C307.653 261.337 307.653 259.639 306.605 258.591C305.558 257.544 303.859 257.544 302.811 258.591C301.763 259.639 301.763 261.337 302.811 262.384C303.859 263.432 305.558 263.432 306.605 262.384Z" fill="#F0E6E1"/>
<path d="M314.931 262.966C316.3 262.399 316.95 260.83 316.383 259.461C315.816 258.093 314.246 257.443 312.877 258.01C311.508 258.577 310.858 260.146 311.425 261.514C311.992 262.883 313.562 263.533 314.931 262.966Z" fill="#F0E6E1"/>
<path d="M303.994 197.745C315.488 186.255 315.488 167.626 303.994 156.136C292.501 144.646 273.867 144.646 262.373 156.136C250.88 167.626 250.88 186.255 262.373 197.745C273.867 209.235 292.501 209.235 303.994 197.745Z" fill="white"/>
<path d="M283.224 175.757C286.097 175.757 288.749 174.357 290.442 172.221C291.695 170.673 292.431 168.685 292.431 166.476C292.431 161.395 288.306 157.196 283.221 157.196C278.135 157.196 273.938 161.395 273.938 166.476C273.938 168.688 274.674 170.676 275.926 172.221C277.619 174.357 280.272 175.757 283.221 175.757H283.224Z" fill="#FFA054"/>
<path d="M299.535 192.296C299.535 198.152 266.82 198.152 266.82 192.296L266.829 185.471C268.121 176.139 296.876 175.75 299.541 185.471L299.535 192.296Z" fill="#FFA054"/>
<path d="M225.473 258.408V258C225.473 256.347 224.13 255.004 222.476 255.004C220.822 255.004 219.479 256.35 219.479 258V258.408H219.023V263.808C219.023 264.74 225.947 264.74 225.947 263.808V258.408H225.473ZM220.547 258C220.547 256.962 221.187 256.021 222.476 256.021C223.765 256.021 224.426 256.902 224.426 258V258.408H220.547V258ZM222.986 261.129V262.689C222.986 262.969 222.745 263.168 222.464 263.168C222.183 263.168 221.984 262.969 221.984 262.689V261.129C221.703 260.969 221.504 260.688 221.504 260.329C221.504 259.811 221.945 259.37 222.464 259.37C222.983 259.37 223.424 259.811 223.424 260.329C223.424 260.688 223.224 260.969 222.983 261.129H222.986Z" fill="#4D4D4D"/>
<path d="M222.482 234.733C223.089 234.733 223.647 234.437 224.006 233.988C224.272 233.662 224.426 233.243 224.426 232.775C224.426 231.704 223.553 230.817 222.482 230.817C221.411 230.817 220.523 231.704 220.523 232.775C220.523 233.243 220.677 233.662 220.943 233.988C221.299 234.437 221.86 234.733 222.482 234.733Z" fill="#4D4D4D"/>
<path d="M225.923 238.224C225.923 239.461 218.984 239.461 218.984 238.224L219.021 236.785C219.292 234.815 225.361 234.733 225.923 236.785V238.224Z" fill="#4D4D4D"/>
<path d="M267.325 237.521H239.268C238.039 237.521 237.031 236.516 237.031 235.285C237.031 234.057 238.036 233.049 239.268 233.049H267.325C268.553 233.049 269.561 234.054 269.561 235.285C269.561 236.513 268.556 237.521 267.325 237.521Z" fill="#F0E6E1"/>
<path d="M304.333 237.521H276.275C275.047 237.521 274.039 236.516 274.039 235.285C274.039 234.057 275.044 233.049 276.275 233.049H304.333C305.561 233.049 306.569 234.054 306.569 235.285C306.569 236.513 305.564 237.521 304.333 237.521Z" fill="#F0E6E1"/>
<path d="M245.398 377.996V433.479C245.398 439.646 320.861 439.646 320.861 433.479V377.996H245.398Z" fill="white"/>
<path d="M292.188 401.068C293.37 396.062 290.269 391.046 285.261 389.864C280.254 388.683 275.236 391.783 274.054 396.79C272.872 401.796 275.974 406.812 280.981 407.993C285.989 409.175 291.007 406.075 292.188 401.068Z" fill="#FFA054"/>
<path d="M279.312 401.821H286.951V423.185C286.951 425.291 285.24 427.001 283.133 427.001C281.027 427.001 279.316 425.291 279.316 423.185V401.821H279.312Z" fill="#FFA054"/>
<path d="M314.246 374.041H306.608V370.306C306.608 357.363 296.075 346.83 283.129 346.83C270.182 346.83 259.646 357.36 259.646 370.306V374.041H252.008V370.306C252.008 353.151 265.969 339.197 283.126 339.197C300.282 339.197 314.243 353.154 314.243 370.306V374.041H314.246Z" fill="white"/>
<path d="M434.444 269.797C414.988 290.629 383.946 307.706 350.724 314.98C350.715 317.197 350.661 329.486 350.407 386.127C350.069 461.685 421.998 498.608 433.168 504.274C443.987 499.296 516.824 462.431 517.162 386.872C517.416 330.231 517.47 317.942 517.479 315.725C484.324 308.152 453.714 290.804 434.444 269.797Z" fill="white"/>
<path d="M434.27 277.991C414.213 296.383 386.427 310.841 355.873 318.721L355.571 386.115C355.433 416.952 367.688 444.848 391.995 469.035C407.966 484.926 424.757 494.782 433.28 499.211C433.645 499.024 434.049 498.816 434.445 498.611V278.148C434.387 278.097 434.327 278.046 434.27 277.991Z" fill="#FFA054"/>
<path d="M434.445 278.148V498.608C443.306 494.001 459.41 484.476 474.834 469.403C499.355 445.436 511.861 417.652 511.997 386.812L512.299 319.418C481.902 311.29 454.321 296.645 434.445 278.148Z" fill="#FB923E"/>
<path d="M495.669 345.699C472.406 349.287 440.733 370.493 420.749 395.996C417.945 383.97 405.363 372.994 398.781 370.593L378.836 390.635C391.288 396.247 404.899 412.14 406.7 428.414L426.625 431.5C435.024 414.913 456.719 375.233 499.879 353.9C499.049 350.653 496.001 346.161 495.666 345.696L495.669 345.699Z" fill="white"/>
<path d="M116.747 224.714L113.241 238.809L112.604 241.431C111.895 244.762 89.8939 243.344 91.4542 239.449L92.764 236.579L99.5302 221.739L116.747 224.714Z" fill="#F7A58E"/>
<path d="M129.604 203.806C129.828 219.09 122.733 231.52 111.627 231.466C100.521 231.412 89.7769 221.992 89.3876 203.613C89.1401 191.904 98.4927 182.448 109.599 182.503C120.705 182.557 129.432 192.097 129.604 203.806Z" fill="#F7A58E"/>
<path d="M109.933 178.297C109.933 178.297 132.063 179.389 133.904 196.146C136.36 210.851 125.324 200.041 120.818 209.909C115.658 221.214 120.918 229.487 127.624 231.731C121.66 240.055 87.5607 239.757 78.7876 225.151C72.779 206.832 81.2804 179.314 109.933 178.297Z" fill="#2D3250"/>
<path d="M125.45 209.306C125.634 211.574 123.944 213.563 121.675 213.747C119.405 213.931 117.417 212.241 117.232 209.972C117.048 207.704 118.738 205.715 121.008 205.531C123.277 205.347 125.266 207.037 125.45 209.306Z" fill="#F7A58E"/>
<path d="M122.062 493.654C123.1 492.556 127.992 492.538 128.439 494.164C128.886 495.787 128.023 496.949 130.09 499.525C128.901 499.869 124.688 499.899 123.396 499.525C122.108 499.151 121.027 494.755 122.062 493.657V493.654Z" fill="white"/>
<path d="M113.976 499.206H125.9C127.014 448.761 126.802 393.848 126.401 352.491C126.256 337.68 125.849 330.189 123.163 321.298C117.736 303.344 92.22 308.871 90.4092 325.145C89.6547 334.174 89.1025 351.794 105.804 411.664C98.5727 438.023 111.188 469.627 113.979 499.209L113.976 499.206Z" fill="#2D3250"/>
<path d="M132.576 499.975C130.82 499.881 126.718 498.192 125.946 497.024C124.805 498.297 122.433 498.65 119.569 498.222C116.186 497.718 115.739 496.146 113.313 496.354C112.29 499.199 109.797 505.58 112.202 507.062H137.272C139.511 505.019 139.451 500.657 132.579 499.975H132.576Z" fill="#2D3250"/>
<path d="M61.3569 494.93C62.2291 494.007 66.3425 493.992 66.7167 495.359C67.0909 496.722 66.3666 497.7 68.1019 499.863C67.103 500.153 63.56 500.177 62.4765 499.863C61.3931 499.549 60.4847 495.854 61.3569 494.93Z" fill="white"/>
<path d="M100.652 324.686C98.2133 306.089 65.1188 307.999 62.9187 324.236C62.125 332.974 59.6956 346.125 65.9155 411.027C52.7967 435.794 56.5027 471.334 52.5824 497.495C52.1508 501.474 63.4288 502.431 64.304 498.883C76.3243 450.345 93.119 395.891 99.3631 355.511C101.627 340.872 101.856 333.894 100.652 324.683V324.686Z" fill="#2D3250"/>
<path d="M70.2273 499.206C68.4709 499.112 65.8815 496.828 65.1089 495.661C63.9681 496.934 61.7922 498.651 58.9282 498.222C55.5451 497.718 55.0985 496.146 52.6721 496.355C51.649 499.2 49.1562 505.581 51.5615 507.062H75.9493C78.1885 505.019 77.1051 499.887 70.2303 499.206H70.2273Z" fill="#2D3250"/>
<path d="M156.461 226.25L150.289 227.619C150.428 230.866 150.039 236.052 150.289 241.778L160.671 240.411C159.093 234.646 157.566 229.592 156.461 226.25Z" fill="#F7A58E"/>
<path d="M150.289 241.775C150.06 253.122 149.755 257.985 149.661 262.454L118.86 242.704C109.475 239.856 98.5288 258.429 110.398 266.807C110.398 266.807 151.418 289.963 160.647 283.292C165.638 279.684 164.343 253.801 160.674 240.405L150.292 241.772L150.289 241.775Z" fill="white"/>
<path d="M159.255 220.213C156.403 216.87 150.141 218.034 149.664 218.125L150.268 227.372C150.406 231.94 156.074 232.094 158.38 228.157C158.38 228.157 161.724 223.504 159.255 220.21V220.213Z" fill="#F7A58E"/>
<path d="M152.692 219C150.613 208.926 148.516 210.275 148.516 210.275C148.516 210.275 148.851 213.835 149.792 220.116C150.495 223.673 152.952 221.528 152.692 219Z" fill="#F7A58E"/>
<path d="M126.139 269.248C128.231 259.072 129.353 249.025 118.86 242.707C112.64 238.96 92.6466 236.287 83.2971 239.38C73.8782 243.588 75.9153 261.944 74.1498 290.931C67.6582 305.395 64.8365 310.15 62.9141 324.239C62.9141 324.239 66.3877 334.856 90.8539 334.868C101.963 334.874 118.326 333.888 125.768 328.222C125.026 318.613 121.006 309.356 119.331 295.753C119.331 295.753 125.986 270.413 126.136 269.245L126.139 269.248Z" fill="white"/>
<path d="M78.2768 241.425C66.7936 250.19 55.5941 263.971 50.3007 271.291C45.0073 278.61 31.2969 308.023 31.2969 308.023L40.0217 314.455L63.6248 282.306L92.458 258.661C102.462 248.452 89.4612 232.89 78.2768 241.425Z" fill="white"/>
<path d="M27.6436 315.484L33.2992 303.802C34.6301 307.314 41.1036 310.521 42.9626 310.452C42.9626 310.452 36.8815 319.201 35.3937 320.689C33.9058 322.176 27.7644 319.657 27.6406 315.484H27.6436Z" fill="#F7A58E"/>
<path d="M36.8204 318.734C36.7993 318.821 36.8204 318.939 36.7993 319.026C36.5156 323.277 33.2472 325.29 32.363 325.766C32.2935 325.824 32.2151 325.839 32.1366 325.857C35.2119 325.241 36.1323 329.36 34.569 330.31C30.0452 333.372 23.5959 329.16 23.0497 326.605C22.4944 324.01 27.649 315.433 27.649 315.433C30.2776 313.309 37.0075 313.641 36.8204 318.734Z" fill="#F7A58E"/>
<path d="M36.7996 319.026C36.6185 323.829 32.2878 325.809 32.2063 325.824C29.6713 325.754 28.7689 325.6 26.3516 325.606C27.9299 324.837 31.1682 322.788 29.9127 318.815C32.3904 316.917 36.1206 318.577 36.7966 319.026H36.7996Z" fill="#E6856A"/>
<path d="M36.8686 318.48C37.5356 322.448 37.2549 328.098 36.3103 330.584C36.3103 330.584 33.8779 330.711 34.1072 326.119C34.1676 324.925 33.9956 322.33 32.8125 321.464C29.1699 319.059 28.5844 316.851 29.9214 315.041C31.7019 312.627 36.7328 315.077 36.8716 318.477L36.8686 318.48Z" fill="#F7A58E"/>
<path d="M25.5982 329.32C27.575 330.69 32.802 333.345 33.6289 332.69C34.4528 332.036 30.273 327.586 27.575 326.997C24.877 326.409 24.5872 328.621 25.6012 329.32H25.5982Z" fill="#F7A58E"/>
</g>
<defs>
<clipPath id="clip0_2768_3419">
<rect width="522" height="508" fill="white"/>
</clipPath>
</defs>
</svg>
