<svg width="605" height="515" viewBox="0 0 605 515" fill="none" xmlns="http://www.w3.org/2000/svg">
<path d="M298.929 386.177C277.716 373.877 260.209 360.105 245.738 345.539C224.667 324.326 210.103 301.467 200.066 279.115C170.288 212.753 180.689 151.029 180.689 151.029C180.689 151.029 193.479 163.346 235.81 157.867C280.057 152.168 298.927 132.586 298.927 132.586C298.927 132.586 317.798 152.168 362.044 157.867C404.376 163.346 417.166 151.029 417.166 151.029C417.166 151.029 442.733 302.782 298.927 386.177H298.929Z" fill="#FFA054"/>
<g style="mix-blend-mode:overlay">
<path d="M364.028 220.731C364.028 224.752 362.493 228.788 359.422 231.86L303.38 287.916L294.5 296.797L245.742 345.54C224.671 324.327 210.107 301.467 200.07 279.115L238.443 240.742C244.585 234.6 254.543 234.6 260.668 240.742L283.369 263.443L337.192 209.619C343.32 203.492 353.277 203.492 359.417 209.619C359.798 210 360.161 210.395 360.494 210.806C362.852 213.688 364.025 217.217 364.025 220.731H364.028Z" fill="#4D4D4D"/>
</g>
<path d="M359.426 209.626C353.286 203.485 343.331 203.485 337.19 209.626L283.38 263.436L260.677 240.734C254.537 234.593 244.582 234.593 238.441 240.734C232.301 246.874 232.301 256.829 238.441 262.97L272.262 296.79C275.211 299.739 279.21 301.396 283.38 301.396C287.549 301.396 291.549 299.739 294.498 296.79L359.426 231.859C365.567 225.719 365.567 215.764 359.426 209.623V209.626Z" fill="white"/>
<path d="M298.94 372.964L297.687 372.188C258.928 348.138 230.1 316.409 212.001 277.883C191.381 233.994 189.595 191.864 190.367 170.658L190.47 167.81L193.253 168.427C205.353 171.107 220.166 171.348 237.274 169.138C266.257 165.401 286.09 155.471 297.625 147.796L298.94 146.921L300.255 147.796C311.788 155.471 331.619 165.401 360.593 169.138C377.706 171.348 392.52 171.107 404.618 168.427L407.402 167.81L407.505 170.658C408.276 191.864 406.49 233.996 385.871 277.89C367.772 316.415 338.946 348.142 300.191 372.19L298.938 372.966L298.94 372.964ZM195.031 173.63C194.543 195.17 196.978 234.733 216.299 275.861C233.805 313.125 261.608 343.906 298.94 367.367C336.268 343.908 364.066 313.129 381.574 275.865C400.896 234.735 403.331 195.17 402.843 173.63C390.76 175.885 376.36 175.958 359.987 173.843C331.172 170.127 311.06 160.425 298.942 152.606C286.82 160.425 266.706 170.127 237.884 173.843C221.511 175.956 207.116 175.885 195.033 173.63H195.031Z" fill="white"/>
<mask id="mask0_2906_1524" style="mask-type:luminance" maskUnits="userSpaceOnUse" x="74" y="26" width="457" height="457">
<path d="M530.462 26.5444H74.5391V482.468H530.462V26.5444Z" fill="white"/>
</mask>
<g mask="url(#mask0_2906_1524)">
<g opacity="0.2">
<path d="M298.928 387.093L298.53 386.863C278.405 375.193 260.454 361.478 245.175 346.098C225.92 326.712 210.499 304.285 199.343 279.439C183.909 245.045 179.447 211.94 178.42 190.224C177.306 166.686 179.881 151.054 179.907 150.9L180.154 149.432L181.235 150.459C181.362 150.579 194.38 162.435 235.71 157.085C279.125 151.493 298.171 132.233 298.358 132.04L298.928 131.451L299.497 132.04C299.684 132.233 318.731 151.495 362.146 157.085C403.469 162.43 416.491 150.579 416.618 150.459L417.697 149.434L417.947 150.9C418.011 151.28 424.231 189.552 412.743 237.516C405.995 265.691 394.548 291.66 378.723 314.704C358.941 343.504 332.228 367.784 299.323 386.865L298.926 387.095L298.928 387.093ZM181.272 152.503C180.691 156.743 179.082 170.722 180.002 190.149C181.022 211.728 185.456 244.622 200.787 278.79C211.866 303.462 227.178 325.732 246.299 344.983C261.378 360.163 279.084 373.712 298.928 385.262C331.446 366.333 357.852 342.294 377.418 313.804C393.134 290.921 404.503 265.13 411.204 237.145C421.411 194.538 417.555 159.66 416.582 152.503C412.636 155.312 397.842 163.294 361.944 158.652C322.077 153.517 302.42 136.912 298.928 133.68C295.435 136.912 275.778 153.517 235.912 158.652C199.998 163.301 185.216 155.31 181.272 152.503Z" fill="#FFA054"/>
<path d="M299.306 404.038L299.014 403.919C272.277 393.135 248.898 377.795 229.52 358.33C207.196 335.889 190.331 308.491 179.387 276.893C165.907 237.961 164.144 203.135 165.038 180.774C165.909 159.069 168.866 141.593 170.977 139.483C172.043 138.419 174.057 138.78 178.067 139.5C185.693 140.871 201.565 143.721 229.731 139.339C261.26 134.357 280.794 123.392 291.289 117.503C295.384 115.205 297.853 113.817 299.287 113.817C300.72 113.817 303.19 115.203 307.282 117.5C317.777 123.392 337.311 134.355 368.843 139.339C397.008 143.721 412.878 140.871 420.504 139.502C424.517 138.782 426.53 138.421 427.596 139.485C433.225 145.116 441.734 187.024 431.979 239.184C425.778 272.338 412.12 303.775 392.478 330.095C369.081 361.446 337.831 386.281 299.594 403.909L299.306 404.042V404.038ZM173.053 140.272C172.543 140.272 172.187 140.345 172.013 140.517C170.596 141.933 167.456 157.025 166.502 180.832C165.612 203.066 167.364 237.699 180.771 276.413C191.64 307.801 208.391 335.015 230.558 357.296C249.723 376.549 272.838 391.738 299.269 402.443C337.154 384.927 368.116 360.292 391.306 329.216C410.815 303.073 424.381 271.846 430.541 238.911C440.204 187.243 432.032 145.989 426.56 140.517C426.034 139.99 423.824 140.39 420.764 140.938C413.059 142.322 397.026 145.202 368.617 140.781C336.825 135.756 317.142 124.709 306.568 118.773C302.951 116.744 300.338 115.276 299.289 115.276C298.24 115.276 295.626 116.744 292.007 118.773C281.433 124.707 261.75 135.756 229.961 140.779C201.552 145.198 185.516 142.32 177.811 140.936C175.761 140.568 174.091 140.267 173.055 140.267L173.053 140.272Z" fill="#FFA054"/>
<path d="M299.665 421.012L299.452 420.95C266.798 411.407 237.201 393.981 213.858 370.561C188.059 344.656 169.749 312.291 159.439 274.369C147.926 232.021 148.854 194.968 151.659 171.341C154.376 148.464 158.268 132.046 161.821 128.496C164.305 126.011 168.931 125.968 177.33 125.889C187.081 125.799 201.818 125.661 223.751 121.59C250.72 116.587 270.113 107.726 282.946 101.86C290.887 98.2302 296.136 95.8337 299.641 95.8337C303.146 95.8337 308.395 98.2302 316.339 101.86C329.172 107.723 348.564 116.585 375.533 121.59C397.464 125.661 412.201 125.796 421.955 125.889C430.352 125.966 434.979 126.009 437.464 128.494C448.554 139.584 459.5 184.802 451.208 240.86C445.5 279.472 429.948 315.646 406.237 345.473C379.488 379.123 342.708 405.217 299.875 420.933L299.667 421.01L299.665 421.012ZM162.773 129.446C159.476 132.743 155.64 149.251 152.996 171.5C150.204 195.006 149.282 231.874 160.738 274.017C170.985 311.71 189.176 343.874 214.813 369.611C237.945 392.821 267.265 410.103 299.617 419.596C342.127 403.958 378.63 378.04 405.182 344.637C428.744 314.994 444.199 279.042 449.873 240.665C458.098 185.042 447.397 140.334 436.509 129.446C434.414 127.35 429.718 127.305 421.94 127.234C412.141 127.144 397.333 127.006 375.286 122.914C348.156 117.881 328.671 108.976 315.78 103.085C308.277 99.6572 302.856 97.1792 299.641 97.1792C296.426 97.1792 291.005 99.6572 283.505 103.085C270.613 108.976 251.128 117.879 223.998 122.914C201.952 127.004 187.143 127.142 177.345 127.234C169.567 127.307 164.871 127.35 162.775 129.448L162.773 129.446Z" fill="#FFA054"/>
<path d="M300.019 438L299.869 437.968C260.993 429.577 225.838 410.498 198.201 382.792C169.094 353.591 148.794 315.231 139.503 271.861C131.82 236.003 131.401 197.987 138.287 161.925C141.521 144.991 146.641 123.54 152.669 117.511C157.183 112.998 165.264 111.973 178.654 110.277C188.697 109.005 201.197 107.418 217.779 103.848C240.939 98.8622 258.833 91.7418 273.212 86.0226C285.125 81.2836 293.733 77.8577 300 77.8577C306.267 77.8577 314.875 81.2814 326.79 86.0226C341.169 91.7418 359.063 98.8622 382.222 103.848C398.803 107.418 411.301 109.002 421.346 110.277C434.736 111.973 442.817 112.998 447.331 117.511C463.71 133.893 477.375 183.285 470.435 242.556C465.275 286.633 447.834 327.54 420.001 360.855C389.484 397.384 348.046 424.045 300.172 437.961L300.024 438.004L300.019 438ZM299.998 79.0827C293.965 79.0827 285.45 82.4699 273.663 87.1596C260.003 92.595 241.296 100.036 218.034 105.046C201.401 108.626 188.343 110.283 178.806 111.491C165.677 113.155 157.75 114.158 153.536 118.375C148.938 122.972 144.081 138.11 139.49 162.153C132.632 198.056 133.051 235.902 140.7 271.603C149.944 314.743 170.128 352.892 199.067 381.926C226.5 409.428 261.389 428.378 299.974 436.736C347.552 422.878 388.725 396.367 419.055 360.064C446.735 326.934 464.08 286.248 469.212 242.41C476.107 183.521 462.636 134.553 446.46 118.375C442.244 114.158 434.319 113.155 421.187 111.491C411.651 110.283 398.592 108.626 381.959 105.046C358.7 100.036 339.991 92.595 326.333 87.1596C314.546 82.4699 306.029 79.0827 299.998 79.0827Z" fill="#FFA054"/>
<path d="M300.378 454.996L300.273 454.979C255.852 447.871 214.043 426.579 182.548 395.024C149.598 361.99 127.821 318.539 119.573 269.364C113.082 230.665 114.881 191.353 124.916 152.518C131.338 127.664 137.422 112.619 143.52 106.522C150.715 99.3264 162.641 96.8268 182.399 92.6852C190.852 90.9121 200.434 88.9047 211.812 86.1021C231.194 81.3286 247.347 75.4913 261.599 70.3438C277.783 64.4979 290.564 59.8792 300.363 59.8792C310.161 59.8792 322.941 64.4979 339.124 70.3438C353.376 75.4934 369.53 81.3286 388.912 86.1021C400.29 88.9047 409.871 90.9142 418.322 92.6852C438.08 96.829 450.008 99.3285 457.202 106.522C468.438 117.758 477.905 136.811 483.859 160.176C490.367 185.702 492.372 214.775 489.664 244.25C485.112 293.781 465.784 339.416 433.771 376.222C399.424 415.712 353.333 442.943 300.485 454.97L300.38 454.994L300.378 454.996ZM300.358 60.986C290.756 60.986 278.054 65.5746 261.973 71.384C247.696 76.5422 231.514 82.3882 212.074 87.1767C200.677 89.9836 191.087 91.9953 182.625 93.7684C163.067 97.8692 151.263 100.345 144.302 107.307C138.348 113.26 132.359 128.139 125.988 152.795C115.992 191.477 114.202 230.637 120.664 269.181C128.872 318.128 150.543 361.373 183.33 394.243C214.638 425.607 256.189 446.782 300.341 453.87C352.916 441.882 398.764 414.784 432.932 375.5C464.793 338.87 484.026 293.45 488.559 244.153C494.616 178.272 476.143 127.037 456.417 107.311C449.456 100.349 437.652 97.8735 418.094 93.7727C409.632 91.9996 400.043 89.9879 388.645 87.181C369.205 82.3925 353.024 76.5465 338.746 71.3883C322.665 65.5789 309.963 60.9903 300.361 60.9903L300.358 60.986Z" fill="#FFA054"/>
<path d="M300.726 471.995L300.655 471.986C250.152 466.052 202.645 443.064 166.886 407.253C129.964 370.26 106.709 321.719 99.6381 266.873C94.3316 225.715 98.3356 184.078 111.538 143.122C119.574 118.193 126.828 103.07 134.363 95.5352C145.077 84.8234 161.811 80.3014 189.539 72.8091C194.6 71.44 200.025 69.9764 205.841 68.3559C220.984 64.1391 234.877 59.4107 247.134 55.239C269.035 47.7855 286.334 41.8987 300.715 41.8987C315.095 41.8987 332.393 47.7855 354.296 55.239C366.553 59.4107 380.445 64.1391 395.591 68.3559C401.407 69.9764 406.834 71.4422 411.895 72.8091C439.621 80.3014 456.355 84.8234 467.069 95.5352C496.836 125.302 513.249 184.344 508.886 245.952C505.05 300.141 483.261 351.865 447.536 391.591C409.314 434.099 358.573 461.897 300.801 471.982L300.73 471.995H300.726ZM300.713 42.8852C286.498 42.8852 269.267 48.7483 247.45 56.174C235.18 60.3499 221.275 65.0826 206.103 69.308C200.285 70.9285 194.856 72.3943 189.792 73.7634C162.226 81.2126 145.587 85.7089 135.06 96.2359C127.638 103.657 120.462 118.652 112.476 143.425C99.3178 184.241 95.3267 225.734 100.616 266.746C107.659 321.373 130.817 369.719 167.584 406.554C203.171 442.189 250.444 465.074 300.698 470.993C358.22 460.937 408.74 433.25 446.797 390.929C482.375 351.364 504.074 299.851 507.896 245.881C512.239 184.546 495.935 125.807 466.364 96.2337C455.839 85.7067 439.199 81.2105 411.633 73.7612C406.569 72.3922 401.14 70.9264 395.32 69.3058C380.149 65.0804 366.243 60.3478 353.971 56.1718C332.156 48.7483 314.926 42.883 300.711 42.883L300.713 42.8852Z" fill="#FFA054"/>
<path d="M301.123 488.991C244.459 484.241 191.256 459.555 151.224 419.484C110.814 379.018 85.4146 323.94 79.704 264.39C75.5001 220.55 81.7093 176.592 98.1574 133.736C107.565 109.226 116.159 93.5965 125.206 84.5481C140.682 69.0714 164.229 61.7275 199.87 50.6073C209.662 47.5532 218.96 44.4476 227.95 41.4451C256.108 32.04 280.424 23.918 301.068 23.918C321.711 23.918 346.025 32.04 374.183 41.4451C383.173 44.4497 392.473 47.5532 402.265 50.6094C437.906 61.7275 461.453 69.0736 476.929 84.5503C511.956 119.577 531.565 182.077 528.105 247.659C524.965 307.197 501.242 363.771 461.302 406.958C419.772 451.867 362.888 481 301.123 488.991ZM125.82 85.165C116.864 94.123 108.332 109.656 98.9698 134.047C82.569 176.779 76.3791 220.604 80.5702 264.307C86.2614 323.656 111.573 378.548 151.839 418.869C191.725 458.794 244.734 483.39 301.102 488.125C362.57 480.164 419.27 451.128 460.66 406.367C500.461 363.329 524.103 306.948 527.232 247.611C530.678 182.268 511.167 120.021 476.31 85.1628C460.984 69.8387 437.521 62.5184 402 51.439C392.2 48.3807 382.898 45.275 373.901 42.2682C345.817 32.8889 321.563 24.7863 301.063 24.7863C280.564 24.7863 256.307 32.8889 228.223 42.2682C219.229 45.2729 209.927 48.3807 200.126 51.4369C164.61 62.5162 141.142 69.8387 125.816 85.1607L125.82 85.165Z" fill="#FFA054"/>
<path d="M301.466 505.996C238.775 502.43 179.879 476.05 135.574 431.716C91.0701 387.166 64.1529 326.865 59.7835 261.912C56.637 215.151 65.0513 168.87 84.7878 124.354C95.2525 100.754 105.481 84.1399 116.059 73.5613C133.599 56.0213 157.888 45.3568 193.916 32.8611L199.962 30.7613C238.283 17.4402 271.379 5.9375 301.432 5.9375C331.484 5.9375 364.579 17.4402 402.902 30.7613L408.948 32.8611C444.975 45.3568 469.264 56.0213 486.804 73.5613C527.285 114.042 549.914 179.764 547.337 249.365C544.934 314.238 519.275 375.661 475.082 422.321C429.675 470.267 368.015 499.982 301.466 505.996ZM301.432 6.68974C271.508 6.68974 238.467 18.1753 200.209 31.4727L194.163 33.5725C158.238 46.0316 134.029 56.6554 116.592 74.0943C106.078 84.6063 95.9016 101.147 85.4756 124.66C65.7885 169.063 57.3957 215.224 60.5336 261.863C64.8923 326.633 91.7299 386.766 136.107 431.185C180.281 475.388 239.003 501.691 301.455 505.246C367.768 499.249 429.256 469.615 474.538 421.805C518.604 375.276 544.191 314.027 546.587 249.337C549.158 179.94 526.61 114.427 486.273 74.0922C468.836 56.6554 444.627 46.0295 408.703 33.5703L402.657 31.4705C364.398 18.1731 331.358 6.68758 301.434 6.68758L301.432 6.68974Z" fill="#FFA054"/>
<path d="M301.799 523.003C233.075 520.623 168.488 492.548 119.909 443.949C71.2433 395.254 42.811 329.73 39.8472 259.443C37.7431 209.529 48.3582 160.926 71.4002 114.986C82.8514 92.1566 94.4637 75.0121 106.897 62.5787C125.54 43.9383 149.779 29.7425 187.949 15.1191C224.757 1.01574 264.024 -12.0366 301.78 -12.0366C339.536 -12.0366 378.802 1.01574 415.61 15.1191C453.781 29.7447 478.02 43.9383 496.662 62.5787C518.669 84.5848 536.666 112.935 548.711 144.562C561.417 177.924 567.418 213.763 566.552 251.082C564.92 321.275 537.324 387.549 488.846 437.691C439.544 488.686 373.113 518.986 301.797 523.007L301.799 523.003ZM107.346 63.0236C94.9602 75.4097 83.3866 92.4983 71.9655 115.267C48.9729 161.111 38.3771 209.608 40.4769 259.413C43.4343 329.541 71.8021 394.916 120.356 443.498C168.821 491.985 233.258 519.994 301.791 522.369C372.92 518.356 439.2 488.127 488.392 437.246C536.759 387.218 564.291 321.096 565.918 251.063C567.624 177.565 542.218 109.028 496.213 63.0236C477.64 44.4477 453.465 30.297 415.382 15.7058C378.632 1.62398 339.432 -11.4069 301.78 -11.4069C264.127 -11.4069 224.927 1.62398 188.177 15.7058C150.095 30.2992 125.922 44.4498 107.346 63.0236Z" fill="#FFA054"/>
<path d="M302.145 540.007C227.384 538.817 157.108 509.045 104.249 456.178C51.3712 403.285 21.4215 332.539 19.917 256.971C18.8725 204.437 32.0473 152.099 58.0166 105.617C70.0352 84.1098 83.4014 65.9315 97.7454 51.5875C119.653 29.6781 147.212 11.9425 181.996 -2.63582C225.546 -21.0634 264.845 -30.0215 302.136 -30.0215C339.428 -30.0215 378.727 -21.0634 422.277 -2.63582C457.06 11.9404 484.62 29.6781 506.527 51.5875C531.572 76.6326 551.234 106.602 564.961 140.656C579.2 175.977 586.202 213.705 585.772 252.791C584.943 328.294 555.412 399.413 502.618 453.047C449.403 507.109 378.207 537.992 302.141 540.005L302.145 540.007ZM302.139 -29.5057C264.918 -29.5057 225.683 -20.5605 182.198 -2.16083C147.475 12.3895 119.971 30.0907 98.1108 51.9507C83.8011 66.2625 70.4629 84.4021 58.468 105.867C32.5417 152.269 19.3904 204.517 20.4328 256.958C21.933 332.393 51.8311 403.012 104.614 455.813C157.378 508.586 227.528 538.303 302.143 539.492C378.065 537.482 449.136 506.653 502.257 452.688C554.956 399.148 584.435 328.154 585.263 252.785C586.103 176.259 557.275 103.058 506.168 51.9507C484.308 30.0907 456.802 12.3895 422.079 -2.16083C378.591 -20.5627 339.359 -29.5057 302.139 -29.5057Z" fill="#FFA054"/>
<path d="M302.498 557.01C261.66 557.01 222.043 549.013 184.75 533.237C148.726 518.001 116.376 496.189 88.5948 468.407C60.8136 440.626 39.001 408.276 23.765 372.252C7.98952 334.961 -0.0078125 295.344 -0.0078125 254.506C-0.0078125 213.668 7.98952 174.051 23.765 136.758C39.001 100.736 60.8115 68.3837 88.5948 40.6026C116.376 12.8215 148.728 -8.99123 184.75 -24.2272C222.043 -40.0027 261.66 -48 302.498 -48C343.336 -48 382.953 -40.0027 420.247 -24.2272C456.268 -8.99123 488.621 12.8215 516.402 40.6026C544.183 68.3837 565.996 100.734 581.232 136.758C597.005 174.053 605.004 213.668 605.004 254.506C605.004 295.344 597.007 334.961 581.232 372.255C565.996 408.278 544.183 440.628 516.402 468.41C488.621 496.191 456.268 518.003 420.247 533.239C382.953 549.013 343.336 557.012 302.498 557.012V557.01ZM302.498 -47.6045C221.803 -47.6045 145.937 -16.1804 88.8742 40.882C31.8117 97.9422 0.387648 173.808 0.387648 254.506C0.387648 335.204 31.8117 411.07 88.8742 468.13C145.937 525.19 221.803 556.617 302.498 556.617C383.194 556.617 459.06 525.193 516.122 468.13C573.183 411.07 604.609 335.202 604.609 254.506C604.609 173.811 573.185 97.9422 516.122 40.882C459.06 -16.1804 383.194 -47.6045 302.498 -47.6045Z" fill="white"/>
</g>
</g>
</svg>
