<svg width="55" height="55" viewBox="0 0 55 55" fill="none" xmlns="http://www.w3.org/2000/svg">
<path d="M27.8597 38.9312C19.4229 38.9312 11.7168 34.6607 7.23639 27.5031C11.7168 20.3454 19.4222 16.0742 27.859 16.0742C36.2957 16.0742 44.0011 20.3454 48.4822 27.5031C44.0011 34.6608 36.2964 38.9312 27.8597 38.9312ZM10.9254 27.3508L10.8085 27.5031L10.9254 27.6553C14.9919 32.9504 21.1564 35.9847 27.859 35.9847C34.5615 35.9847 40.7261 32.9511 44.7925 27.6553L44.9095 27.5031L44.7925 27.3508C40.7261 22.0557 34.5615 19.0214 27.859 19.0214C21.1565 19.0214 14.9919 22.055 10.9254 27.3508Z" fill="#F19620" stroke="#F3F3F3" stroke-width="0.5"/>
<path d="M21.2266 27.5046C21.2266 23.8492 24.2007 20.875 27.8562 20.875C31.5116 20.875 34.4858 23.8498 34.4858 27.5046C34.4858 31.1594 31.5116 34.1342 27.8562 34.1342C24.2007 34.1342 21.2266 31.16 21.2266 27.5046ZM24.1738 27.5046C24.1738 29.5354 25.8254 31.187 27.8562 31.187C29.8869 31.187 31.5385 29.5354 31.5385 27.5046C31.5385 25.4738 29.8869 23.8222 27.8562 23.8222C25.8254 23.8222 24.1738 25.4738 24.1738 27.5046Z" fill="#F19620" stroke="#F3F3F3" stroke-width="0.5"/>
<path d="M39.1572 0.753906H48.8347C50.8268 0.753906 52.2277 1.2224 53.1332 2.12373C54.0384 3.02481 54.4944 4.4041 54.4944 6.32848V15.0569C54.4944 15.3941 54.3266 15.7126 54.0532 15.9525C53.7791 16.193 53.4147 16.3392 53.0568 16.3392C52.6994 16.3392 52.3351 16.1928 52.0608 15.9523C51.7872 15.7122 51.6193 15.3937 51.6193 15.0569V6.32848C51.6193 5.77597 51.6101 5.32691 51.5551 4.97144C51.4997 4.61403 51.3933 4.31609 51.171 4.09461C50.9495 3.87375 50.6467 3.76284 50.2746 3.70283C49.9034 3.64297 49.4292 3.62891 48.8347 3.62891H39.1572C38.8201 3.62891 38.5016 3.46107 38.2617 3.18749C38.0212 2.91327 37.875 2.54894 37.875 2.19141C37.875 1.83394 38.0213 1.46961 38.2619 1.19535C38.5019 0.921709 38.8205 0.753906 39.1572 0.753906Z" fill="#F19620" stroke="#F3F3F3" stroke-width="0.5"/>
<path d="M3.86719 15.0569C3.86719 15.3941 3.69935 15.7126 3.42577 15.9525C3.15155 16.193 2.78722 16.3392 2.42969 16.3392C2.07216 16.3392 1.70783 16.193 1.43361 15.9525C1.16002 15.7126 0.992188 15.3941 0.992188 15.0569V6.32848C0.992188 4.41162 1.50153 3.03231 2.46302 2.12873C3.42744 1.2224 4.88978 0.753906 6.88199 0.753906H16.5588C16.8959 0.753906 17.2144 0.921739 17.4544 1.19533C17.6949 1.46955 17.841 1.83388 17.841 2.19141C17.841 2.54887 17.6947 2.9132 17.4541 3.18746C17.2141 3.4611 16.8956 3.62891 16.5588 3.62891H6.88199C6.28676 3.62891 5.79964 3.64305 5.40837 3.70248C5.01686 3.76194 4.69269 3.87052 4.44504 4.08129C4.19311 4.29569 4.05081 4.58949 3.97031 4.9561C3.89089 5.31779 3.86719 5.7711 3.86719 6.32848V15.0569Z" fill="#F19620" stroke="#F3F3F3" stroke-width="0.5"/>
<path d="M6.88199 51.3788H16.5595C16.8962 51.3788 17.2146 51.5466 17.4544 51.8202C17.6948 52.0944 17.841 52.4588 17.841 52.8163C17.841 53.1738 17.6947 53.5381 17.4541 53.8124C17.2141 54.086 16.8956 54.2538 16.5588 54.2538H6.88199C4.88978 54.2538 3.42744 53.7853 2.46302 52.879C1.50153 51.9754 0.992188 50.5961 0.992188 48.6792V39.5674C0.992188 39.2306 1.15999 38.9121 1.43364 38.6721C1.70789 38.4315 2.07222 38.2852 2.42969 38.2852C2.78715 38.2852 3.15148 38.4315 3.42574 38.6721C3.69938 38.9121 3.86719 39.2306 3.86719 39.5674V48.6792C3.86719 49.2366 3.89089 49.6899 3.97031 50.0516C4.05081 50.4182 4.19311 50.712 4.44504 50.9264C4.69269 51.1372 5.01686 51.2458 5.40837 51.3052C5.79964 51.3647 6.28676 51.3788 6.88199 51.3788Z" fill="#F19620" stroke="#F3F3F3" stroke-width="0.5"/>
<path d="M51.6193 39.5674C51.6193 39.2302 51.7872 38.9118 52.0608 38.6718C52.335 38.4313 52.6993 38.2852 53.0568 38.2852C53.4147 38.2852 53.7791 38.4314 54.0532 38.6717C54.3267 38.9116 54.4944 39.2299 54.4944 39.5667V48.6786C54.4944 50.6029 54.0384 51.9822 53.1332 52.8833C52.2277 53.7846 50.8268 54.2531 48.8347 54.2531H39.1572C38.8201 54.2531 38.5016 54.0853 38.2617 53.8117C38.0212 53.5375 37.875 53.1732 37.875 52.8156C37.875 52.4582 38.0213 52.0938 38.2619 51.8196C38.5019 51.5459 38.8205 51.3781 39.1572 51.3781H48.8347C49.4292 51.3781 49.9034 51.3641 50.2746 51.3042C50.6467 51.2442 50.9494 51.1333 51.171 50.9125C51.3932 50.6911 51.4997 50.3932 51.5551 50.0359C51.6101 49.6805 51.6193 49.2316 51.6193 48.6792V39.5674Z" fill="#F19620" stroke="#F3F3F3" stroke-width="0.5"/>
</svg>
