<svg width="55" height="55" viewBox="0 0 55 55" fill="none" xmlns="http://www.w3.org/2000/svg">
<path d="M24.3672 54.5039C23.7462 54.5039 23.2422 53.9999 23.2422 53.3789V44.3789C23.2422 43.7579 23.7462 43.2539 24.3672 43.2539C24.9882 43.2539 25.4922 43.7579 25.4922 44.3789V53.3789C25.4922 53.9999 24.9882 54.5039 24.3672 54.5039Z" fill="#F19620"/>
<path d="M31.1172 54.5039C30.4962 54.5039 29.9922 53.9999 29.9922 53.3789V44.3789C29.9922 43.7579 30.4962 43.2539 31.1172 43.2539C31.7382 43.2539 32.2422 43.7579 32.2422 44.3789V53.3789C32.2422 53.9999 31.7382 54.5039 31.1172 54.5039Z" fill="#F19620"/>
<path d="M37.8672 54.5039H17.6172C16.9962 54.5039 16.4922 53.9999 16.4922 53.3789C16.4922 52.7579 16.9962 52.2539 17.6172 52.2539H37.8672C38.4882 52.2539 38.9922 52.7579 38.9922 53.3789C38.9922 53.9999 38.4882 54.5039 37.8672 54.5039Z" fill="#F19620"/>
<path d="M51.3672 45.5039H4.11719C2.25644 45.5039 0.742188 43.9897 0.742188 42.1289V12.8789C0.742188 11.0182 2.25644 9.50391 4.11719 9.50391H13.1172C13.7382 9.50391 14.2422 10.0079 14.2422 10.6289C14.2422 11.2499 13.7382 11.7539 13.1172 11.7539H4.11719C3.49844 11.7539 2.99219 12.2579 2.99219 12.8789V42.1289C2.99219 42.7499 3.49844 43.2539 4.11719 43.2539H51.3672C51.9859 43.2539 52.4922 42.7499 52.4922 42.1289V12.8789C52.4922 12.2579 51.9859 11.7539 51.3672 11.7539H49.1172C48.4962 11.7539 47.9922 11.2499 47.9922 10.6289C47.9922 10.0079 48.4962 9.50391 49.1172 9.50391H51.3672C53.2279 9.50391 54.7422 11.0182 54.7422 12.8789V42.1289C54.7422 43.9897 53.2279 45.5039 51.3672 45.5039Z" fill="#F19620"/>
<path d="M29.4474 27.1394C29.1594 27.1394 28.8714 27.0292 28.6509 26.8109L20.5577 18.7177C20.1324 18.2947 20.1145 17.6129 20.5172 17.1697L27.148 9.80991C31.855 4.37166 39.3227 0.623156 45.7172 0.503906C46.0929 0.508406 46.3202 0.618656 46.534 0.832406C46.75 1.04841 46.8692 1.34316 46.8625 1.64916C46.741 8.04366 42.9947 15.5137 37.5384 20.2364L30.1967 26.8514C29.9852 27.0449 29.7152 27.1394 29.4474 27.1394ZM22.9044 17.8829L29.488 24.4664L36.0534 18.5512C40.7244 14.5079 44.0252 8.33391 44.545 2.82366C39.0369 3.34566 32.8652 6.64416 28.8355 11.2994L22.9044 17.8829Z" fill="#F19620"/>
<path d="M32.4729 32.4759C32.3717 32.4759 32.2682 32.4624 32.1669 32.4332C31.7732 32.3229 31.4717 32.0102 31.3772 31.6119L29.7887 24.9744C29.6447 24.3692 30.0182 23.7639 30.6212 23.6177C31.2287 23.4692 31.8339 23.8472 31.9779 24.4502L33.0332 28.8557C34.9862 25.8002 35.3777 21.8874 35.4182 19.5969C35.4294 18.9782 35.9762 18.5237 36.5634 18.4922C37.1822 18.5034 37.6772 19.0187 37.6659 19.6374C37.5714 24.9609 36.0099 29.4024 33.2672 32.1452C33.0534 32.3612 32.7654 32.4759 32.4729 32.4759Z" fill="#F19620"/>
<path d="M22.6602 17.6119C22.5747 17.6119 22.487 17.6029 22.3992 17.5804L15.7617 15.9896C15.3635 15.8951 15.0507 15.5959 14.9405 15.2021C14.8302 14.8106 14.9405 14.3899 15.2285 14.1019C17.9712 11.3591 22.4105 9.79763 27.7362 9.70312C28.3235 9.73463 28.8702 10.1869 28.8815 10.8079C28.8927 11.4289 28.3977 11.9419 27.7767 11.9531C25.4862 11.9936 21.5757 12.3829 18.5202 14.3381L22.9257 15.3934C23.531 15.5374 23.9045 16.1449 23.7582 16.7501C23.6322 17.2654 23.171 17.6119 22.6602 17.6119Z" fill="#F19620"/>
<path d="M14.2427 34.2541C13.9479 34.2541 13.6599 34.1393 13.4462 33.9256C13.1537 33.6331 13.0457 33.2033 13.1649 32.8073C13.5362 31.5653 15.4644 25.2968 16.9764 23.7848C18.8012 21.9623 21.7622 21.9623 23.5869 23.7848C25.4094 25.6073 25.4072 28.5728 23.5869 30.3953C22.0749 31.9051 15.8064 33.8378 14.5644 34.2091C14.4609 34.2383 14.3507 34.2541 14.2427 34.2541ZM20.2839 24.6668C19.6652 24.6668 19.0419 24.9008 18.5694 25.3733C17.9327 26.0123 16.8302 28.8316 15.9729 31.3988C18.5424 30.5393 21.3617 29.4413 21.9984 28.8023C22.9412 27.8573 22.9412 26.3183 21.9984 25.3756C21.5237 24.9031 20.9049 24.6668 20.2839 24.6668Z" fill="#F19620"/>
</svg>
