<svg width="447" height="379" viewBox="0 0 447 379" fill="none" xmlns="http://www.w3.org/2000/svg">
<g clip-path="url(#clip0_4269_322127)">
<mask id="mask0_4269_322127" style="mask-type:luminance" maskUnits="userSpaceOnUse" x="0" y="0" width="447" height="379">
<path d="M447 0.5H0V378.5H447V0.5Z" fill="white"/>
</mask>
<g mask="url(#mask0_4269_322127)">
<path d="M101.133 360.062C101.133 360.062 101.785 370.577 103.819 370.728C104.09 370.748 114.137 370.748 114.137 370.748L126.963 370.674C126.963 370.674 126.879 367.583 123.13 366.93C119.381 366.277 113.106 363.642 110.835 358.687C108.446 353.474 101.133 360.062 101.133 360.062Z" fill="#4ECF7D"/>
<path d="M96.5091 237.352C96.5091 237.352 102.097 238.787 105.649 237.717C109.201 236.647 115.314 238.404 116.298 239.699C117.283 240.994 116.921 241.509 115.164 241.956C113.408 242.403 107.184 245.058 103.094 243.521C99.0032 241.985 93.668 241.929 93.668 241.929L96.5091 237.352Z" fill="white"/>
<path d="M48.2188 188.814C48.2188 188.814 54.4959 233.426 64.8895 237.422C70.0182 239.394 92.6835 243.863 99.3881 244.312C99.3881 244.312 101.031 242.98 100.63 237.556C100.63 237.556 76.8836 228.838 73.5103 224.097C68.4895 217.041 76.6272 195.271 70.3271 188.644C64.0268 182.017 53.4162 179.169 48.2188 188.814Z" fill="#0C5987"/>
<path d="M49.0218 360.71V350.983H33.7081C33.2945 350.983 32.9566 350.645 32.9566 350.232V348.673C32.9566 348.26 33.2945 347.922 33.7081 347.922H49.0218V292.551C49.0218 290.998 50.2929 289.727 51.8466 289.727H54.877C56.4308 289.727 57.7019 290.998 57.7019 292.551V347.922H73.0156C73.4289 347.922 73.7673 348.26 73.7673 348.673V350.232C73.7673 350.645 73.4289 350.983 73.0156 350.983H57.7019V360.71C68.7819 361.547 77.6591 365.536 80.1495 370.69H26.5742C29.0645 365.536 37.9417 361.547 49.0218 360.71Z" fill="#F2E6DC"/>
<path d="M50.3344 282.804C52.1653 285.91 54.283 288.82 56.4659 291.577C63.2122 300.094 70.5559 307.116 71.8352 313.754C72.0894 315.076 72.4933 316.501 73.0212 318.002C73.5553 319.523 74.2157 321.121 74.9782 322.774C77.8409 328.993 82.1222 335.961 86.3968 342.294C93.786 353.244 100.734 362.38 100.734 362.38L113.477 361.837C112.967 360.56 107.409 345.442 99.9741 326.966C96.9549 319.466 93.7446 311.488 90.6473 303.795C90.2346 302.767 89.822 301.744 89.4137 300.73C88.4667 298.376 87.5347 296.058 86.6247 293.801C79.6436 276.453 74.0834 262.639 74.0834 262.639C74.0834 262.639 46.1814 252.069 43.2839 258.918C40.8945 264.565 42.8407 270.098 50.3344 282.804Z" fill="#171A2D"/>
<path d="M71.6244 330.023C71.6244 330.023 62.7612 335.719 63.6213 337.568C63.7356 337.815 68.6338 346.587 68.6338 346.587L74.9514 357.75C74.9514 357.75 77.6089 356.17 76.3517 352.578C75.0944 348.986 74.3356 342.222 77.5551 337.824C80.9416 333.196 71.6244 330.023 71.6244 330.023Z" fill="#4ECF7D"/>
<path d="M83.617 257.617C83.617 257.617 118.639 279.433 122.549 294.093C126.458 308.754 75.9607 340.03 75.9607 340.03C75.9607 340.03 70.4222 335.143 69.4449 331.559C69.4449 331.559 92.2704 304.212 97.222 298.082C100.263 294.318 52.26 285.05 46.396 275.928C40.5318 266.805 42.6311 259.13 42.6311 259.13L83.617 257.617Z" fill="#4ECF7D"/>
<path d="M17.5206 285.633H89.1983C90.6318 285.633 91.8046 286.806 91.8046 288.239V302.575C91.8046 304.008 90.6318 305.181 89.1983 305.181H17.5206C16.0871 305.181 14.9141 304.008 14.9141 302.575V288.239C14.9141 286.806 16.0869 285.633 17.5206 285.633Z" fill="#4ECF7D"/>
<path d="M67.4211 181.163C70.861 183.293 72.7563 185.997 72.7563 185.997C64.366 188.167 50.457 180.393 50.457 180.393C50.457 180.393 55.8576 176.764 57.8585 168.79C57.9597 168.388 58.0521 167.975 58.1333 167.553C58.3956 166.21 58.5584 164.758 58.5876 163.188L62.442 166.641L68.8509 172.382C68.8509 172.382 68.7055 174.765 67.9037 178.863C67.7643 179.579 67.6044 180.346 67.4211 181.163Z" fill="white"/>
<path d="M41.6153 220.752C42.8171 236.916 40.7957 261.49 42.159 265.747C43.3358 269.421 57.1825 267.247 62.5338 266.02C64.5144 265.566 66.9137 264.918 69.3914 264.151C76.3027 262.011 83.8336 258.955 84.6417 256.687C84.673 256.598 84.6996 256.51 84.7162 256.426C84.7907 256.096 84.7742 255.788 84.7017 255.475C84.4321 254.319 83.3943 253.067 83.2721 250.204C83.1353 247.007 83.156 243.243 83.0359 239.195C83.0297 238.739 83.0235 238.242 82.9738 237.788L82.9715 237.622C82.9695 237.535 82.9674 237.45 82.9655 237.363C82.8494 232.849 82.6134 228.102 82.3397 223.395C82.1656 220.439 81.9647 217.511 81.7327 214.706C81.1298 207.466 80.3176 201.026 79.2425 196.955C77.4854 190.319 73.6115 185.991 70.0849 182.82L67.5345 180.632C64.6881 181.253 61.3234 180.841 58.2801 179.399C54.9861 177.835 53.8486 176.714 53.2747 177.137C45.6677 183.006 40.1961 200.991 41.6153 220.752Z" fill="#043D5F"/>
<path d="M69.3527 264.183C76.264 262.043 83.7949 258.987 84.6029 256.718C84.6342 256.629 84.6609 256.542 84.6775 256.457C84.6733 256.14 84.6694 255.823 84.663 255.506C84.3936 254.35 83.3556 253.099 83.2334 250.236C83.0966 247.039 83.1173 243.274 82.9972 239.226C82.991 238.771 82.9848 238.273 82.9349 237.82L82.9328 237.654C82.9307 237.567 82.9287 237.482 82.9268 237.395L56.8203 225.555C56.8203 225.555 55.3163 246.596 69.3527 264.183Z" fill="#0C5987"/>
<path d="M68.8556 172.382C68.8556 172.382 68.7103 174.765 67.9084 178.863C61.6504 176.841 58.8111 171.188 57.8632 168.79C57.5936 168.113 57.4766 167.694 57.4766 167.694C57.4766 167.694 57.7195 167.642 58.1381 167.554C59.0177 167.366 60.6742 167.015 62.4465 166.641L68.8556 172.382Z" fill="#F2E6DC"/>
<path d="M71.3865 172.321C71.3865 172.321 57.6373 173.871 56.8033 165.294C55.9695 156.717 53.6332 151.141 62.3765 149.788C71.1199 148.435 73.1463 151.542 74.1211 154.337C75.0954 157.132 74.9416 171.696 71.3865 172.321Z" fill="white"/>
<path d="M56.8611 165.888C56.8611 165.888 57.7329 154.503 70.2485 153.324C78.8211 152.516 74.0416 145.138 73.1278 143.961C73.1278 143.961 66.5597 144.861 59.8276 145.974C45.6971 148.308 55.4734 164.116 56.8611 165.888Z" fill="#4ECF7D"/>
<path d="M123.395 248.532L124.599 248.923L134.838 217.407L133.634 217.016L123.395 248.532Z" fill="#4ECF7D"/>
<path d="M89.8633 248.158L124.629 248.902L124.674 246.822L89.9078 246.078L89.8633 248.158Z" fill="#4ECF7D"/>
<path d="M93.633 244.211C93.633 244.211 99.0285 246.253 102.677 245.581C106.325 244.909 112.207 247.33 113.043 248.726C113.878 250.122 113.463 250.593 111.667 250.844C109.872 251.095 103.393 253.047 99.4972 251.069C95.601 249.091 90.3047 248.447 90.3047 248.447L93.633 244.211Z" fill="white"/>
<path d="M50.9883 190.648C50.9883 190.648 52.3086 235.68 62.1985 240.798C67.0783 243.323 89.113 250.264 95.7271 251.449C95.7271 251.449 97.5065 250.306 97.7066 244.872C97.7066 244.872 75.0658 233.589 72.2357 228.504C68.0234 220.938 78.5117 200.198 72.9805 192.916C67.4495 185.635 57.2173 181.634 50.9883 190.648Z" fill="#043D5F"/>
<path d="M177.01 298.2H356.415C368.935 298.2 379.085 288.05 379.085 275.53V30.2321C379.085 17.7119 368.935 7.5625 356.415 7.5625H177.01C164.49 7.5625 154.34 17.7121 154.34 30.2321V275.53C154.34 288.05 164.49 298.2 177.01 298.2Z" fill="#BDBDBD"/>
<path d="M176.422 268.781H357.368V38.0234H176.422V268.781Z" fill="white"/>
<path d="M331.707 258.654C326.435 258.654 322.16 254.378 322.16 249.105V117.11C322.16 111.837 326.435 107.562 331.707 107.562C336.98 107.562 341.254 111.837 341.254 117.11V249.105C341.254 254.378 336.98 258.654 331.707 258.654Z" fill="#043D5F"/>
<path d="M300.43 258.651C295.157 258.651 290.883 254.377 290.883 249.104V74.9923C290.883 69.7197 295.157 65.4453 300.43 65.4453C305.703 65.4453 309.977 69.7197 309.977 74.9923V249.104C309.977 254.377 305.703 258.651 300.43 258.651Z" fill="#043D5F"/>
<path d="M266.293 258.654C261.02 258.654 256.746 254.38 256.746 249.107V153.649C256.746 148.376 261.02 144.102 266.293 144.102C271.566 144.102 275.84 148.376 275.84 153.649V249.107C275.84 254.38 271.566 258.654 266.293 258.654Z" fill="#043D5F"/>
<path d="M233.082 258.654C227.81 258.654 223.535 254.379 223.535 249.107V100.789C223.535 95.5166 227.81 91.2422 233.082 91.2422C238.355 91.2422 242.629 95.5166 242.629 100.789V249.107C242.629 254.379 238.355 258.654 233.082 258.654Z" fill="#043D5F"/>
<path d="M209.242 176.07V249.107C209.242 254.38 204.968 258.654 199.695 258.654C194.423 258.654 190.148 254.38 190.148 249.107V176.07C190.148 170.797 194.423 166.523 199.695 166.523C204.968 166.523 209.242 170.797 209.242 176.07Z" fill="#043D5F"/>
<path d="M224.443 79.4141H240.613C241.533 79.4141 242.285 80.167 242.285 81.087C242.285 82.0071 241.533 82.7597 240.613 82.7597H224.443C223.522 82.7597 222.77 82.0071 222.77 81.087C222.77 80.167 223.522 79.4141 224.443 79.4141Z" fill="#F2E6DC"/>
<path d="M236.931 85.5H240.614C241.534 85.5 242.286 86.2526 242.286 87.1726C242.286 88.0927 241.534 88.8453 240.614 88.8453H236.931C236.011 88.8453 235.258 88.0927 235.258 87.1726C235.258 86.2526 236.011 85.5 236.931 85.5Z" fill="#F2E6DC"/>
<path d="M291.071 53.7422H307.241C308.161 53.7422 308.914 54.4948 308.914 55.4149C308.914 56.335 308.161 57.0876 307.241 57.0876H291.071C290.151 57.0876 289.398 56.335 289.398 55.4149C289.398 54.4948 290.151 53.7422 291.071 53.7422Z" fill="#F2E6DC"/>
<path d="M303.564 59.8281H307.246C308.166 59.8281 308.919 60.5808 308.919 61.5008C308.919 62.4209 308.166 63.1735 307.246 63.1735H303.564C302.644 63.1735 301.891 62.4209 301.891 61.5008C301.891 60.5808 302.644 59.8281 303.564 59.8281Z" fill="#F2E6DC"/>
<path d="M323.415 95.8281H339.585C340.505 95.8281 341.258 96.581 341.258 97.5011C341.258 98.4211 340.505 99.1737 339.585 99.1737H323.415C322.495 99.1737 321.742 98.4211 321.742 97.5011C321.742 96.581 322.495 95.8281 323.415 95.8281Z" fill="#F2E6DC"/>
<path d="M335.902 101.914H339.585C340.505 101.914 341.258 102.667 341.258 103.587C341.258 104.507 340.505 105.259 339.585 105.259H335.902C334.982 105.259 334.23 104.507 334.23 103.587C334.229 102.667 334.982 101.914 335.902 101.914Z" fill="#F2E6DC"/>
<path d="M258.208 132.383H274.378C275.298 132.383 276.051 133.135 276.051 134.055C276.051 134.976 275.298 135.728 274.378 135.728H258.208C257.288 135.728 256.535 134.976 256.535 134.055C256.535 133.135 257.288 132.383 258.208 132.383Z" fill="#F2E6DC"/>
<path d="M270.696 138.469H274.379C275.299 138.469 276.052 139.222 276.052 140.142C276.052 141.062 275.299 141.814 274.379 141.814H270.696C269.776 141.814 269.023 141.062 269.023 140.142C269.023 139.221 269.776 138.469 270.696 138.469Z" fill="#F2E6DC"/>
<path d="M191.609 154.734H207.781C208.701 154.734 209.452 155.487 209.452 156.407C209.452 157.327 208.701 158.08 207.781 158.08H191.609C190.689 158.08 189.938 157.327 189.938 156.407C189.938 155.487 190.689 154.734 191.609 154.734Z" fill="#F2E6DC"/>
<path d="M204.098 160.82H207.782C208.701 160.82 209.454 161.573 209.454 162.493C209.454 163.413 208.701 164.166 207.782 164.166H204.098C203.178 164.166 202.426 163.413 202.426 162.493C202.426 161.573 203.178 160.82 204.098 160.82Z" fill="#F2E6DC"/>
<path d="M199.692 149.978C196.415 149.978 193.75 147.312 193.75 144.036C193.75 140.759 196.416 138.094 199.692 138.094C202.968 138.094 205.634 140.759 205.634 144.036C205.634 147.312 202.968 149.978 199.692 149.978ZM199.692 140.394C197.684 140.394 196.05 142.028 196.05 144.036C196.05 146.044 197.684 147.678 199.692 147.678C201.7 147.678 203.334 146.044 203.334 144.036C203.334 142.028 201.7 140.394 199.692 140.394Z" fill="#4ECF7D"/>
<path d="M197.165 140.392C196.87 140.392 196.576 140.28 196.351 140.055L178.494 122.199H33.4235C32.7882 122.199 32.2734 121.684 32.2734 121.048C32.2734 120.413 32.7882 119.898 33.4235 119.898H179.447L197.977 138.429C198.427 138.878 198.427 139.606 197.977 140.055C197.753 140.28 197.459 140.392 197.165 140.392Z" fill="#4ECF7D"/>
<path d="M233.868 275.275C230.591 275.275 227.926 272.609 227.926 269.333C227.926 266.056 230.591 263.391 233.868 263.391C237.144 263.391 239.81 266.056 239.81 269.333C239.81 272.609 237.144 275.275 233.868 275.275ZM233.868 265.691C231.86 265.691 230.226 267.325 230.226 269.333C230.226 271.341 231.86 272.974 233.868 272.974C235.876 272.974 237.51 271.341 237.51 269.333C237.51 267.325 235.876 265.691 233.868 265.691Z" fill="#4ECF7D"/>
<path d="M397.841 293.463H254.117L235.587 274.933C235.138 274.484 235.138 273.755 235.587 273.306C236.036 272.856 236.764 272.856 237.213 273.306L255.07 291.162H397.841C398.476 291.162 398.991 291.678 398.991 292.313C398.991 292.949 398.476 293.463 397.841 293.463Z" fill="#4ECF7D"/>
<path d="M299.595 49.1418C296.318 49.1418 293.652 46.4761 293.652 43.1998C293.652 39.9232 296.318 37.2578 299.595 37.2578C302.871 37.2578 305.537 39.9235 305.537 43.1998C305.537 46.4761 302.871 49.1418 299.595 49.1418ZM299.595 39.5577C297.587 39.5577 295.953 41.1915 295.953 43.1996C295.953 45.2076 297.587 46.8414 299.595 46.8414C301.603 46.8414 303.236 45.2076 303.236 43.1996C303.236 41.1915 301.603 39.5577 299.595 39.5577Z" fill="#4ECF7D"/>
<path d="M297.067 39.5561C296.773 39.5561 296.478 39.4439 296.254 39.2194L278.397 21.3626H133.326C132.691 21.3626 132.176 20.8476 132.176 20.2125C132.176 19.5775 132.691 19.0625 133.326 19.0625H279.349L297.88 37.5927C298.329 38.0419 298.329 38.7701 297.88 39.2191C297.656 39.4439 297.361 39.5561 297.067 39.5561Z" fill="#4ECF7D"/>
<path d="M130.379 117.241H35.0738C33.4648 117.241 32.1602 115.937 32.1602 114.328C32.1602 112.719 33.4646 111.414 35.0738 111.414H130.379C131.988 111.414 133.292 112.719 133.292 114.328C133.292 115.937 131.988 117.241 130.379 117.241Z" fill="#043D5F"/>
<path d="M130.377 108.038H71.8745C70.2655 108.038 68.9609 106.734 68.9609 105.125C68.9609 103.515 70.2653 102.211 71.8745 102.211H130.377C131.986 102.211 133.291 103.515 133.291 105.125C133.29 106.734 131.986 108.038 130.377 108.038Z" fill="#043D5F"/>
<path d="M130.377 98.835H71.8745C70.2655 98.835 68.9609 97.5306 68.9609 95.9214C68.9609 94.3122 70.2653 93.0078 71.8745 93.0078H130.377C131.986 93.0078 133.291 94.3122 133.291 95.9214C133.29 97.5306 131.986 98.835 130.377 98.835Z" fill="#043D5F"/>
<path d="M229.613 15.8038H134.308C132.699 15.8038 131.395 14.4994 131.395 12.8902C131.395 11.281 132.699 9.97656 134.308 9.97656H229.613C231.222 9.97656 232.526 11.281 232.526 12.8902C232.526 14.4994 231.222 15.8038 229.613 15.8038Z" fill="#043D5F"/>
<path d="M314.815 336.921C322.914 328.822 322.914 315.69 314.815 307.591C306.715 299.491 293.584 299.491 285.484 307.591C277.385 315.69 277.385 328.822 285.484 336.921C293.584 345.02 306.715 345.02 314.815 336.921Z" fill="#C2C2C2"/>
<path d="M300.155 304.727C309.839 304.727 317.687 312.577 317.687 322.259C317.687 327.051 315.766 331.392 312.65 334.556L300.155 322.259L283.773 328.512C283.032 326.57 282.625 324.462 282.625 322.259C282.625 312.577 290.473 304.727 300.155 304.727Z" fill="white"/>
<path d="M302.721 313.352H310.182C310.475 313.352 310.716 313.592 310.716 313.886C310.716 314.179 310.475 314.418 310.182 314.418H302.721C302.428 314.418 302.188 314.179 302.188 313.886C302.188 313.592 302.428 313.352 302.721 313.352Z" fill="#C2C2C2"/>
<path d="M302.721 315.047H310.182C310.475 315.047 310.716 315.287 310.716 315.58C310.716 315.873 310.475 316.113 310.182 316.113H302.721C302.428 316.113 302.188 315.873 302.188 315.58C302.188 315.287 302.428 315.047 302.721 315.047Z" fill="#C2C2C2"/>
<path d="M307.099 316.734H310.181C310.474 316.734 310.714 316.974 310.714 317.267C310.714 317.56 310.474 317.8 310.181 317.8H307.099C306.806 317.8 306.566 317.56 306.566 317.267C306.566 316.974 306.806 316.734 307.099 316.734Z" fill="#C2C2C2"/>
<path d="M281.992 312.524L290.196 304.32H281.992V312.524Z" fill="#C2C2C2"/>
<path d="M390.917 323.259C391.487 311.818 382.675 302.082 371.235 301.511C359.794 300.941 350.057 309.753 349.487 321.193C348.917 332.634 357.729 342.371 369.169 342.941C380.61 343.511 390.346 334.699 390.917 323.259Z" fill="#C2C2C2"/>
<path d="M352.664 322.259C352.664 312.577 360.512 304.727 370.194 304.727C379.878 304.727 387.727 312.577 387.727 322.259C387.727 331.941 379.878 339.791 370.194 339.791C366.194 339.791 362.51 338.453 359.562 336.198L370.194 322.259L353.812 328.512C353.071 326.57 352.664 324.462 352.664 322.259Z" fill="white"/>
<path d="M372.896 313.352H380.359C380.652 313.352 380.892 313.592 380.892 313.886C380.892 314.179 380.652 314.418 380.359 314.418H372.896C372.603 314.418 372.363 314.179 372.363 313.886C372.363 313.592 372.603 313.352 372.896 313.352Z" fill="#C2C2C2"/>
<path d="M372.896 315.047H380.359C380.652 315.047 380.892 315.287 380.892 315.58C380.892 315.873 380.652 316.113 380.359 316.113H372.896C372.603 316.113 372.363 315.873 372.363 315.58C372.363 315.287 372.603 315.047 372.896 315.047Z" fill="#C2C2C2"/>
<path d="M377.279 316.734H380.361C380.654 316.734 380.894 316.974 380.894 317.267C380.894 317.56 380.654 317.8 380.361 317.8H377.279C376.986 317.8 376.746 317.56 376.746 317.267C376.746 316.974 376.986 316.734 377.279 316.734Z" fill="#C2C2C2"/>
<path d="M352.148 312.524L360.352 304.32H352.148V312.524Z" fill="#C2C2C2"/>
<path d="M446.123 371.438H-33.3709C-33.749 371.438 -34.0586 371.127 -34.0586 370.749C-34.0586 370.371 -33.749 370.062 -33.3709 370.062H446.123C446.501 370.062 446.811 370.371 446.811 370.749C446.811 371.127 446.501 371.438 446.123 371.438Z" fill="#202F4E"/>
</g>
</g>
<defs>
<clipPath id="clip0_4269_322127">
<rect width="447" height="378" fill="white" transform="translate(0 0.5)"/>
</clipPath>
</defs>
</svg>
