<svg width="627" height="379" viewBox="0 0 627 379" fill="none" xmlns="http://www.w3.org/2000/svg">
<g clip-path="url(#clip0_4269_322666)">
<path d="M378.208 1.5H9.33711C4.73265 1.5 1 5.23265 1 9.83711V289.618C1 294.222 4.73265 297.955 9.33711 297.955H378.208C382.812 297.955 386.545 294.222 386.545 289.618V9.83711C386.545 5.23265 382.812 1.5 378.208 1.5Z" stroke="#D9D2D2" stroke-width="2"/>
<path d="M22.3134 22.0543C22.3134 24.4772 20.3534 26.4368 17.9301 26.4368C15.5069 26.4368 13.5469 24.4772 13.5469 22.0543C13.5469 19.6315 15.5069 17.6719 17.9301 17.6719C20.3534 17.6719 22.3134 19.6315 22.3134 22.0543Z" fill="#FFC3D0"/>
<path d="M39.8056 22.0543C39.8056 24.4772 37.8456 26.4368 35.4223 26.4368C32.9991 26.4368 31.0391 24.4772 31.0391 22.0543C31.0391 19.6315 32.9991 17.6719 35.4223 17.6719C37.8456 17.6719 39.8056 19.6315 39.8056 22.0543Z" fill="#40484C"/>
<path d="M57.2978 22.0543C57.2978 24.4772 55.3379 26.4368 52.9146 26.4368C50.4913 26.4368 48.5312 24.4772 48.5312 22.0543C48.5312 19.6315 50.4913 17.6719 52.9146 17.6719C55.3379 17.6719 57.2978 19.6315 57.2978 22.0543Z" fill="#6AEBE7"/>
<mask id="mask0_4269_322666" style="mask-type:luminance" maskUnits="userSpaceOnUse" x="30" y="38" width="402" height="341">
<path d="M431.003 38.3828H30.0938V378.042H431.003V38.3828Z" fill="white"/>
</mask>
<g mask="url(#mask0_4269_322666)">
<path d="M59.0385 38.8828H402.045C417.754 38.8828 430.49 51.6403 430.49 67.3794V349.042C430.49 364.781 417.754 377.538 402.045 377.538H59.0385C43.3297 377.538 30.5938 364.781 30.5938 349.042V67.3794C30.5938 51.6403 43.3297 38.8828 59.0385 38.8828Z" fill="#E8E8E8" stroke="#E8E8E8"/>
<path d="M431.005 67.3794V103.934H413.315C408.885 103.934 404.784 101.505 402.688 97.5773L394.516 82.2543C392.42 78.3266 388.319 75.8675 383.889 75.8675H334.439C329.979 75.8675 325.908 78.3266 323.812 82.2543L315.61 97.5773C313.514 101.505 309.443 103.934 304.983 103.934H293.967C289.537 103.934 285.436 101.505 283.34 97.5773L275.168 82.2543C273.072 78.3266 268.971 75.8675 264.541 75.8675H215.091C210.631 75.8675 206.559 78.3266 204.464 82.2543L196.262 97.5773C194.166 101.505 190.095 103.934 185.635 103.934H30.1094V67.3794C30.1094 51.3673 43.0706 38.3828 59.0541 38.3828H402.059C418.042 38.3828 431.003 51.3673 431.003 67.3794H431.005Z" fill="#F9F9F8"/>
<path d="M80.2145 70.6715C80.2145 73.7531 77.7219 76.2457 74.6402 76.2457C71.5586 76.2457 69.0781 73.7531 69.0781 70.6715C69.0781 67.5899 71.5707 65.1094 74.6402 65.1094C77.7098 65.1094 80.2145 67.602 80.2145 70.6715Z" fill="#FFC3D0"/>
<path d="M102.484 70.6715C102.484 73.7531 99.7425 76.2457 96.3527 76.2457C92.9629 76.2457 90.2344 73.7531 90.2344 70.6715C90.2344 67.5899 92.9762 65.1094 96.3527 65.1094C99.7292 65.1094 102.484 67.602 102.484 70.6715Z" fill="#40484C"/>
<path d="M123.644 70.6715C123.644 73.7531 121.152 76.2457 118.07 76.2457C114.988 76.2457 112.508 73.7531 112.508 70.6715C112.508 67.5899 115 65.1094 118.07 65.1094C121.139 65.1094 123.644 67.602 123.644 70.6715Z" fill="#6AEBE7"/>
<path d="M381.919 130.812H78.6225C65.8134 130.812 55.4297 141.034 55.4297 153.643C55.4297 166.251 65.8134 176.472 78.6225 176.472H381.919C394.728 176.472 405.112 166.251 405.112 153.643C405.112 141.034 394.728 130.812 381.919 130.812Z" fill="#C2C2C2"/>
<path d="M120.009 160.357C120.009 160.682 119.886 160.968 119.64 161.214C119.395 161.462 119.103 161.584 118.765 161.584C118.427 161.584 118.09 161.435 117.794 161.14L110.768 154.544V160.252C110.768 160.661 110.644 160.992 110.399 161.246C110.154 161.5 109.818 161.627 109.396 161.627C108.974 161.627 108.661 161.5 108.416 161.246C108.171 160.992 108.047 160.661 108.047 160.252V147.843C108.047 147.434 108.171 147.107 108.416 146.861C108.661 146.613 108.989 146.492 109.396 146.492C109.804 146.492 110.154 146.613 110.399 146.861C110.644 147.107 110.768 147.434 110.768 147.843V153.277L117.562 146.892C117.815 146.639 118.103 146.512 118.428 146.512C118.753 146.512 119.037 146.635 119.282 146.881C119.527 147.127 119.65 147.413 119.65 147.738C119.65 148.063 119.509 148.358 119.23 148.626L113.552 153.825L119.586 159.449C119.868 159.718 120.009 160.02 120.009 160.357Z" fill="white"/>
<path d="M123.583 161.157C123.349 160.931 123.234 160.615 123.234 160.206V147.883C123.234 147.474 123.349 147.158 123.583 146.932C123.815 146.706 124.134 146.594 124.543 146.594H132.16C132.568 146.594 132.885 146.684 133.11 146.869C133.335 147.052 133.447 147.313 133.447 147.65C133.447 147.987 133.335 148.275 133.11 148.464C132.885 148.655 132.568 148.749 132.16 148.749H125.892V152.851H131.737C132.145 152.851 132.462 152.944 132.687 153.126C132.912 153.31 133.025 153.577 133.025 153.929C133.025 154.282 132.911 154.528 132.687 154.713C132.462 154.895 132.145 154.986 131.737 154.986H125.892V159.342H132.16C132.568 159.342 132.885 159.437 133.11 159.627C133.335 159.816 133.447 160.088 133.447 160.441C133.447 160.794 133.335 161.04 133.11 161.222C132.885 161.406 132.568 161.498 132.16 161.498H124.543C124.134 161.498 123.815 161.386 123.583 161.159V161.157Z" fill="white"/>
<path d="M147.059 146.492C147.381 146.492 147.671 146.613 147.925 146.861C148.178 147.107 148.305 147.4 148.305 147.738C148.305 148.019 148.2 148.287 147.989 148.54L143.198 154.396V160.252C143.198 160.689 143.072 161.027 142.818 161.267C142.565 161.506 142.241 161.627 141.847 161.627C141.454 161.627 141.109 161.506 140.855 161.267C140.602 161.028 140.475 160.689 140.475 160.252V154.396L135.685 148.54C135.474 148.287 135.367 148.019 135.367 147.738C135.367 147.4 135.494 147.107 135.748 146.861C136.001 146.613 136.289 146.492 136.612 146.492C136.964 146.492 137.266 146.646 137.52 146.956L141.846 152.325L146.151 146.956C146.404 146.646 146.706 146.492 147.058 146.492H147.059Z" fill="white"/>
<path d="M170.774 146.68C170.993 146.538 171.234 146.469 171.502 146.469C171.839 146.469 172.13 146.575 172.377 146.787C172.622 146.997 172.746 147.279 172.746 147.632C172.746 147.759 172.709 147.942 172.64 148.183L168.105 160.761C167.991 161.043 167.805 161.262 167.545 161.417C167.285 161.572 166.999 161.649 166.69 161.649C166.38 161.649 166.092 161.572 165.824 161.417C165.558 161.262 165.375 161.043 165.276 160.761L161.773 150.804L158.206 160.761C158.095 161.043 157.907 161.262 157.649 161.417C157.388 161.572 157.102 161.649 156.793 161.649C156.484 161.649 156.199 161.572 155.937 161.417C155.678 161.262 155.498 161.043 155.4 160.761L150.863 148.183C150.792 147.972 150.758 147.787 150.758 147.632C150.758 147.279 150.887 146.997 151.148 146.787C151.408 146.576 151.714 146.469 152.066 146.469C152.347 146.469 152.601 146.539 152.825 146.68C153.049 146.82 153.211 147.033 153.311 147.315L156.898 157.653L160.59 147.379C160.689 147.097 160.85 146.875 161.076 146.713C161.301 146.549 161.546 146.469 161.815 146.469C162.083 146.469 162.332 146.549 162.563 146.713C162.795 146.875 162.96 147.104 163.059 147.4L166.647 157.779L170.296 147.316C170.395 147.034 170.553 146.823 170.772 146.681L170.774 146.68Z" fill="white"/>
<path d="M178.815 160.76C177.751 160.141 176.932 159.252 176.356 158.097C175.778 156.941 175.492 155.588 175.492 154.037C175.492 152.487 175.776 151.138 176.346 149.989C176.915 148.842 177.735 147.957 178.805 147.336C179.872 146.717 181.131 146.406 182.581 146.406C184.031 146.406 185.286 146.718 186.348 147.336C187.409 147.957 188.225 148.842 188.795 149.989C189.365 151.138 189.651 152.487 189.651 154.037C189.651 155.588 189.363 156.941 188.785 158.097C188.208 159.252 187.389 160.141 186.326 160.76C185.265 161.38 184.016 161.691 182.581 161.691C181.145 161.691 179.876 161.379 178.815 160.76ZM185.778 158.097C186.545 157.152 186.929 155.798 186.929 154.037C186.929 152.276 186.545 150.927 185.778 149.989C185.011 149.051 183.947 148.583 182.581 148.583C181.215 148.583 180.131 149.051 179.362 149.989C178.596 150.927 178.214 152.275 178.214 154.037C178.214 155.799 178.597 157.153 179.362 158.097C180.13 159.042 181.202 159.513 182.581 159.513C183.96 159.513 185.011 159.042 185.778 158.097Z" fill="white"/>
<path d="M205.817 160.524C205.817 160.847 205.687 161.116 205.425 161.327C205.166 161.539 204.86 161.644 204.508 161.644C204.283 161.644 204.068 161.59 203.864 161.485C203.66 161.379 203.488 161.22 203.347 161.009L200.542 156.739C200.26 156.289 199.961 155.971 199.645 155.788C199.327 155.605 198.918 155.512 198.411 155.512H196.342V160.249C196.342 160.672 196.223 161.005 195.985 161.253C195.744 161.499 195.422 161.623 195.013 161.623C194.605 161.623 194.278 161.499 194.033 161.253C193.788 161.005 193.664 160.671 193.664 160.249V147.883C193.664 147.474 193.779 147.158 194.013 146.932C194.245 146.706 194.564 146.594 194.972 146.594H200.248C201.936 146.594 203.219 146.971 204.098 147.724C204.977 148.48 205.417 149.568 205.417 150.99C205.417 152.146 205.091 153.094 204.436 153.834C203.781 154.574 202.856 155.049 201.661 155.26C202.07 155.359 202.428 155.536 202.738 155.788C203.047 156.042 203.35 156.395 203.644 156.845L205.565 159.783C205.735 160.036 205.819 160.284 205.819 160.523L205.817 160.524ZM202.124 152.84C202.603 152.453 202.842 151.858 202.842 151.055C202.842 150.252 202.603 149.642 202.124 149.267C201.647 148.893 200.893 148.709 199.867 148.709H196.321V153.422H199.867C200.892 153.422 201.646 153.227 202.124 152.84Z" fill="white"/>
<path d="M209.935 161.157C209.701 160.931 209.586 160.615 209.586 160.206V147.883C209.586 147.474 209.701 147.158 209.935 146.932C210.167 146.706 210.486 146.594 210.894 146.594H215.072C217.506 146.594 219.395 147.245 220.738 148.549C222.081 149.851 222.754 151.681 222.754 154.033C222.754 156.386 222.081 158.238 220.738 159.54C219.395 160.844 217.506 161.495 215.072 161.495H210.894C210.486 161.495 210.167 161.384 209.935 161.157ZM214.902 159.276C218.322 159.276 220.03 157.529 220.03 154.033C220.03 150.538 218.322 148.812 214.902 148.812H212.308V159.278H214.902V159.276Z" fill="white"/>
<path d="M350.711 254.68H61.5795C58.1831 254.68 55.4297 257.438 55.4297 260.841C55.4297 264.243 58.1831 267.002 61.5795 267.002H350.711C354.108 267.002 356.861 264.243 356.861 260.841C356.861 257.438 354.108 254.68 350.711 254.68Z" fill="#F9F9F8"/>
<path d="M149.776 227.281H61.5795C58.1831 227.281 55.4297 230.039 55.4297 233.441C55.4297 236.844 58.1831 239.602 61.5795 239.602H149.776C153.173 239.602 155.926 236.844 155.926 233.441C155.926 230.039 153.173 227.281 149.776 227.281Z" fill="#F9F9F8"/>
<path d="M399.511 227.281H178.392C174.996 227.281 172.242 230.039 172.242 233.441C172.242 236.844 174.996 239.602 178.392 239.602H399.511C402.907 239.602 405.661 236.844 405.661 233.441C405.661 230.039 402.907 227.281 399.511 227.281Z" fill="#F9F9F8"/>
<path d="M300.646 199.891H176.056C172.66 199.891 169.906 202.649 169.906 206.051C169.906 209.454 172.66 212.212 176.056 212.212H300.646C304.043 212.212 306.796 209.454 306.796 206.051C306.796 202.649 304.043 199.891 300.646 199.891Z" fill="#F2E8E3"/>
<path d="M147.442 199.891H61.5795C58.1831 199.891 55.4297 202.649 55.4297 206.051C55.4297 209.454 58.1831 212.212 61.5795 212.212H147.442C150.838 212.212 153.592 209.454 153.592 206.051C153.592 202.649 150.838 199.891 147.442 199.891Z" fill="#F2E8E3"/>
<path d="M55.4297 348.786C55.4297 352.189 58.1832 354.947 61.5795 354.947H350.709C354.106 354.947 356.859 352.189 356.859 348.786C356.859 345.384 354.106 342.625 350.709 342.625H61.5795C58.1832 342.625 55.4297 345.384 55.4297 348.786Z" fill="#F9F9F8"/>
<path d="M149.776 315.234H61.5795C58.1831 315.234 55.4297 317.992 55.4297 321.395C55.4297 324.797 58.1831 327.556 61.5795 327.556H149.776C153.173 327.556 155.926 324.797 155.926 321.395C155.926 317.992 153.173 315.234 149.776 315.234Z" fill="#F9F9F8"/>
<path d="M399.511 315.234H178.392C174.996 315.234 172.242 317.992 172.242 321.395C172.242 324.797 174.996 327.556 178.392 327.556H399.511C402.907 327.556 405.661 324.797 405.661 321.395C405.661 317.992 402.907 315.234 399.511 315.234Z" fill="#F9F9F8"/>
<path d="M300.646 287.836H176.056C172.66 287.836 169.906 290.594 169.906 293.997C169.906 297.399 172.66 300.158 176.056 300.158H300.646C304.043 300.158 306.796 297.399 306.796 293.997C306.796 290.594 304.043 287.836 300.646 287.836Z" fill="#F2E8E3"/>
<path d="M147.442 287.836H61.5795C58.1831 287.836 55.4297 290.594 55.4297 293.997C55.4297 297.399 58.1831 300.158 61.5795 300.158H147.442C150.838 300.158 153.592 297.399 153.592 293.997C153.592 290.594 150.838 287.836 147.442 287.836Z" fill="#F2E8E3"/>
<path d="M92.002 159.376L89.1697 156.543C89.8394 155.477 90.1742 154.258 90.1742 153.039C90.1742 151.333 89.5045 149.627 88.2252 148.348C85.6366 145.759 81.4038 145.759 78.8162 148.348C77.568 149.597 76.8672 151.273 76.8672 153.071C76.8672 154.868 77.568 156.513 78.8162 157.761C80.0644 159.01 81.7397 159.711 83.5363 159.711C84.7845 159.711 85.9725 159.376 87.0071 158.706L89.8394 161.54C90.1442 161.845 90.5402 161.997 90.9352 161.997C91.3001 161.997 91.6961 161.845 92.0009 161.54C92.6105 160.961 92.6105 159.986 92.0009 159.376H92.002ZM80.9788 155.599C80.2779 154.929 79.913 154.015 79.913 153.071C79.913 152.126 80.2779 151.182 80.9788 150.512C81.6796 149.811 82.5929 149.446 83.5363 149.446C84.4797 149.446 85.3629 149.811 86.0638 150.512C87.4955 151.913 87.4955 154.198 86.0638 155.599C84.7244 156.97 82.3182 156.97 80.9788 155.599Z" fill="white"/>
</g>
<mask id="mask1_4269_322666" style="mask-type:luminance" maskUnits="userSpaceOnUse" x="325" y="98" width="302" height="280">
<path d="M325 98.5H627V377.5H325V98.5Z" fill="white"/>
</mask>
<g mask="url(#mask1_4269_322666)">
<path d="M462.306 121.499C462.306 121.499 445.572 126.35 446.873 108.882C448.043 93.1717 453.537 105.201 455.758 104.504C458.152 103.752 456.178 98.9169 459.265 98.5238C462.306 98.1382 464.643 102.573 467.684 101.799C470.725 101.026 476.784 96.3558 482.648 99.7401C487.56 102.573 487.792 108.368 487.792 108.368C487.792 108.368 493.871 108.882 495.275 118.155C496.677 127.425 484.05 144.68 484.05 144.68L462.304 121.502L462.306 121.499Z" fill="#4ECF7D"/>
<path d="M488.118 137.296L497.042 163.436C497.612 165.107 499.032 166.345 500.762 166.681L504.735 167.455C504.735 167.455 494.404 189.924 476.994 186.162C459.584 182.397 463.412 167.455 463.412 167.455L467.094 167.156C469.298 166.978 470.811 164.85 470.258 162.704L466.119 146.638C466.119 146.638 482.989 133.014 488.12 137.293L488.118 137.296Z" fill="white"/>
<path d="M480.866 187.129C496.102 187.129 505.135 167.896 505.231 167.686C505.301 167.535 505.298 167.36 505.222 167.209C505.145 167.061 505.004 166.954 504.842 166.922L500.868 166.148C499.333 165.849 498.067 164.744 497.561 163.261L488.636 137.121C488.604 137.027 488.545 136.943 488.468 136.879C483.058 132.367 466.482 145.652 465.779 146.218C465.613 146.352 465.539 146.572 465.594 146.78L469.733 162.843C469.955 163.711 469.787 164.626 469.269 165.355C468.75 166.084 467.943 166.544 467.052 166.616L463.37 166.915C463.138 166.935 462.945 167.098 462.886 167.323C462.822 167.577 461.331 173.609 464.715 179.097C467.062 182.902 471.154 185.46 476.88 186.696C478.253 186.993 479.58 187.129 480.866 187.129ZM503.933 167.857C502.099 171.429 492.267 188.909 477.112 185.631C471.69 184.459 467.83 182.066 465.643 178.524C462.96 174.175 463.607 169.335 463.864 167.97L467.141 167.706C468.353 167.607 469.451 166.982 470.157 165.99C470.863 164.999 471.093 163.753 470.789 162.574L466.736 146.851C471.5 143.059 483.685 134.671 487.659 137.628L496.531 163.617C497.163 165.466 498.745 166.848 500.661 167.221L503.933 167.859V167.857Z" fill="#4ECF7D"/>
<path d="M482.03 141.362C482.03 141.362 477.706 151.364 466.383 149.518C455.059 147.671 454.77 133.239 455.782 117.902C457.428 118.703 459.43 119.259 462.323 119.173C467.239 119.024 477.452 117.052 477.931 115.922C476.09 120.255 475.389 124.708 477.687 127.486C478.587 128.698 480.29 129.573 483.297 129.625C483.297 129.625 484.731 124.821 489.003 127.61C493.275 130.398 491.686 142.163 482.03 141.365V141.362Z" fill="white"/>
<path d="M469.09 150.285C477.539 150.285 481.522 143.556 482.364 141.927C486.604 142.15 489.906 139.967 491.244 136.056C492.463 132.494 491.629 128.665 489.307 127.149C487.882 126.22 486.572 125.965 485.412 126.388C483.97 126.917 483.218 128.358 482.926 129.065C480.609 128.966 478.995 128.323 478.128 127.157C475.737 124.264 476.978 119.567 478.437 116.134C478.555 115.857 478.425 115.535 478.148 115.419C477.869 115.3 477.551 115.429 477.435 115.708C476.722 116.527 467.39 118.475 462.31 118.628C459.877 118.707 457.878 118.316 456.024 117.412C455.861 117.333 455.669 117.337 455.513 117.431C455.358 117.523 455.256 117.686 455.244 117.867C454.287 132.41 454.269 148.093 466.301 150.056C467.281 150.216 468.212 150.288 469.093 150.288L469.09 150.285ZM482.035 140.815C481.821 140.815 481.623 140.943 481.537 141.144C481.367 141.537 477.24 150.735 466.477 148.978C455.555 147.195 455.407 132.561 456.281 118.719C458.092 119.468 460.045 119.78 462.347 119.716C465.647 119.614 473.493 118.44 476.877 117.132C475.601 120.65 474.888 124.944 477.277 127.832C478.388 129.325 480.416 130.118 483.297 130.168H483.307C483.546 130.168 483.758 130.009 483.827 129.78C483.832 129.762 484.407 127.918 485.794 127.414C486.614 127.117 487.596 127.335 488.714 128.066C490.6 129.297 491.259 132.655 490.215 135.708C489.637 137.398 487.68 141.292 482.082 140.82C482.068 140.82 482.053 140.82 482.038 140.82L482.035 140.815Z" fill="#4ECF7D"/>
<path d="M484.859 135.768C485.086 135.768 485.296 135.625 485.375 135.4C485.617 134.688 485.868 133.951 486.293 133.36C486.717 132.767 487.302 132.391 487.86 132.354C488.159 132.334 488.386 132.072 488.366 131.773C488.346 131.474 488.09 131.252 487.786 131.266C486.895 131.328 486.029 131.86 485.409 132.725C484.891 133.447 484.602 134.297 484.345 135.049C484.249 135.333 484.4 135.644 484.684 135.741C484.743 135.761 484.802 135.77 484.859 135.77V135.768Z" fill="#4ECF7D"/>
<path d="M511.462 279.732L458.662 273.102L453.617 285.18L494.511 305.127C494.511 305.127 514.764 291.145 511.462 279.729V279.732Z" fill="#043D5F"/>
<path d="M524.628 321.92C524.628 321.92 392.866 228.179 352.996 239.123C313.126 250.066 322.12 301.528 345.579 321.379C361.886 335.178 387.708 357.236 460.662 374.259C533.62 391.282 524.626 321.918 524.626 321.918L524.628 321.92Z" fill="white"/>
<path d="M481.776 377.502C494.124 377.502 504.024 374.175 511.344 367.542C528.811 351.708 525.205 322.155 525.168 321.858C525.148 321.707 525.067 321.571 524.943 321.485C524.808 321.388 511.278 311.777 491.905 299.261C491.654 299.1 491.316 299.172 491.153 299.424C490.99 299.676 491.061 300.015 491.316 300.178C509.394 311.858 522.377 321.005 524.117 322.234C524.418 325.035 526.841 352.032 510.611 366.739C499.764 376.568 483.003 378.921 460.788 373.74C388.297 356.826 362.939 335.368 346.159 321.166L345.932 320.973C331.355 308.637 323.094 284.628 327.127 266.31C329.213 256.837 335.418 244.524 353.141 239.658C368.305 235.495 398.567 246.024 443.081 270.953C443.343 271.099 443.676 271.005 443.822 270.743C443.967 270.48 443.874 270.147 443.612 270.001C398.841 244.929 368.305 234.366 352.855 238.608C334.608 243.616 328.216 256.31 326.066 266.078C324.025 275.346 324.936 286.205 328.625 296.657C332.229 306.865 338.128 315.796 345.231 321.806L345.458 321.999C362.317 336.265 387.796 357.829 460.541 374.8C468.268 376.602 475.354 377.505 481.776 377.505V377.502Z" fill="#4ECF7D"/>
<path d="M410.185 358.047C410.402 358.047 410.605 357.918 410.691 357.703C417.357 341.011 447.728 308.526 448.034 308.199C448.238 307.979 448.229 307.636 448.009 307.428C447.789 307.223 447.446 307.233 447.239 307.453C446.93 307.779 416.422 340.418 409.679 357.3C409.568 357.579 409.704 357.896 409.983 358.01C410.049 358.037 410.119 358.049 410.185 358.049V358.047Z" fill="#4ECF7D"/>
<path d="M495.947 334.856C496.103 334.856 496.256 334.79 496.364 334.661C496.557 334.431 496.527 334.088 496.298 333.892C476.113 316.934 384.853 267.739 383.932 267.245C383.668 267.101 383.337 267.203 383.194 267.467C383.051 267.732 383.152 268.063 383.416 268.206C384.334 268.701 475.499 317.841 495.597 334.728C495.698 334.812 495.824 334.854 495.947 334.854V334.856Z" fill="#4ECF7D"/>
<path d="M412.816 370.144C411.799 371.39 411.587 373.113 412.275 374.569C412.964 376.025 414.427 376.955 416.034 376.955H529.886C541.678 376.955 553.031 372.485 561.665 364.436C573.921 353.01 592.4 335.602 607.984 320.171C625.651 302.676 631.219 276.343 622.183 253.163C622.05 252.819 621.914 252.475 621.778 252.132C614.127 232.659 590.292 225.512 573.272 237.64C538.963 262.084 484.643 302.253 463.108 326.25C463.108 326.25 426.324 353.599 412.813 370.147L412.816 370.144Z" fill="white"/>
<path d="M416.03 377.497H529.881C541.854 377.497 553.271 372.998 562.031 364.833C574.633 353.083 592.902 335.865 608.362 320.555C626.189 302.899 631.812 276.369 622.685 252.961L622.28 251.927C618.563 242.469 610.86 235.387 601.143 232.494C591.458 229.614 581.183 231.325 572.95 237.191C557.546 248.165 534.743 264.72 513.57 281.278C513.333 281.464 513.291 281.805 513.476 282.045C513.661 282.282 514.004 282.324 514.241 282.139C535.397 265.596 558.188 249.05 573.582 238.081C581.539 232.413 591.47 230.756 600.832 233.542C610.223 236.338 617.672 243.186 621.265 252.33L621.668 253.361C630.637 276.364 625.111 302.435 607.595 319.784C592.144 335.083 573.885 352.294 561.288 364.037C552.728 372.017 541.575 376.409 529.879 376.409H416.027C414.638 376.409 413.354 375.596 412.76 374.335C412.165 373.077 412.35 371.567 413.229 370.489C426.542 354.183 463.06 326.958 463.425 326.683C463.455 326.661 463.482 326.636 463.506 326.609C469.78 319.618 479.352 310.709 491.956 300.131C492.186 299.938 492.218 299.594 492.023 299.362C491.83 299.132 491.487 299.1 491.255 299.295C478.636 309.888 469.04 318.817 462.731 325.84C461.26 326.938 425.572 353.646 412.385 369.797C411.239 371.198 411 373.164 411.775 374.8C412.55 376.439 414.218 377.497 416.027 377.497H416.03Z" fill="#4ECF7D"/>
<path d="M507.857 377.496C507.951 377.496 508.045 377.471 508.134 377.422C535.732 361.158 567.309 333.008 588.584 305.707C591.44 302.041 594.374 298.085 596.109 293.608C596.218 293.326 596.08 293.012 595.798 292.904C595.52 292.795 595.204 292.933 595.095 293.215C593.414 297.554 590.531 301.435 587.725 305.037C566.529 332.24 535.071 360.285 507.581 376.483C507.322 376.636 507.235 376.97 507.388 377.229C507.49 377.402 507.672 377.499 507.857 377.499V377.496Z" fill="#4ECF7D"/>
<path d="M513.629 368.381C513.755 368.381 513.883 368.336 513.987 368.247C514.214 368.049 514.236 367.706 514.038 367.478C499.797 351.113 483.31 336.901 465.037 325.233C464.782 325.072 464.447 325.146 464.284 325.401C464.123 325.655 464.197 325.992 464.449 326.155C482.637 337.764 499.045 351.909 513.217 368.195C513.325 368.319 513.476 368.383 513.626 368.383L513.629 368.381Z" fill="#4ECF7D"/>
<path d="M527.808 355.896C527.944 355.896 528.082 355.845 528.188 355.743C528.403 355.533 528.408 355.189 528.2 354.972C513.384 339.699 497.083 325.702 479.751 313.367C479.507 313.191 479.167 313.25 478.991 313.495C478.816 313.74 478.875 314.081 479.12 314.257C496.399 326.553 512.649 340.508 527.418 355.731C527.524 355.84 527.667 355.896 527.808 355.896Z" fill="#4ECF7D"/>
<path d="M426.132 179.337C431.283 172.366 439.153 167.936 447.772 167.14C452.681 166.687 458.837 166.205 465.7 165.852C466.078 167.09 466.606 168.289 467.292 169.419C469.282 172.699 472.399 175.226 475.871 176.793C479.347 178.363 483.236 179.072 487.032 178.613C490.752 178.163 494.289 176.576 496.858 173.802C498.953 171.54 501.466 168.808 502.11 165.844C508.337 166.198 513.246 166.714 519.093 167.631C530.251 169.382 540.05 176.032 545.951 185.678C556.769 203.356 575.499 234.791 576.501 260.08C578.115 300.84 512.054 283.548 512.054 283.548L437.855 276.72L394.871 243.394C394.871 243.394 408.25 203.526 426.132 179.329V179.337Z" fill="#043D5F"/>
<path d="M511.206 275.312C511.714 278.746 508.244 281.396 505.078 279.992C498.604 277.119 491.589 275.668 484.508 275.74L453.879 276.046C453.879 276.046 451.488 236.505 494.791 241.284C494.791 241.284 507.857 252.673 511.206 275.312Z" fill="white"/>
<path d="M476.441 276.744C476.468 276.744 476.493 276.744 476.52 276.739C476.819 276.697 477.024 276.42 476.979 276.121C476.666 273.963 477.172 271.562 478.406 269.36C479.447 267.5 480.99 265.748 483.125 263.995C483.522 263.669 483.949 263.333 484.421 263.125C484.697 263.004 484.823 262.682 484.702 262.406C484.581 262.131 484.26 262.003 483.986 262.124C483.387 262.386 482.871 262.791 482.436 263.147C480.195 264.986 478.566 266.843 477.458 268.821C476.106 271.233 475.553 273.878 475.903 276.274C475.943 276.546 476.175 276.741 476.441 276.741V276.744Z" fill="#4ECF7D"/>
<path d="M466.538 276.174C466.805 276.174 467.037 275.978 467.076 275.704C467.446 273.094 467.977 270.041 469.112 267.19C470.28 264.258 471.993 261.865 474.061 260.273C474.3 260.09 474.345 259.747 474.162 259.509C473.979 259.272 473.636 259.225 473.399 259.411C471.173 261.121 469.342 263.672 468.1 266.787C466.923 269.744 466.378 272.876 465.998 275.551C465.956 275.85 466.163 276.124 466.462 276.166C466.486 276.171 466.513 276.171 466.538 276.171V276.174Z" fill="#4ECF7D"/>
<path d="M458.607 276.177C458.63 276.177 458.652 276.177 458.671 276.174C458.97 276.14 459.182 275.868 459.148 275.569C457.825 264.472 465.066 257.577 465.14 257.508C465.36 257.302 465.372 256.956 465.168 256.736C464.963 256.516 464.617 256.504 464.397 256.709C464.082 257.003 456.677 264.056 458.064 275.697C458.096 275.974 458.333 276.177 458.605 276.177H458.607Z" fill="#4ECF7D"/>
<path d="M379.088 282.043H490.812C491.474 282.043 492.135 281.873 492.681 281.497C493.959 280.617 494.401 279.042 493.897 277.688C492.579 274.919 489.857 273.945 485.832 273.945H371.758L373.239 277.977C374.152 280.422 376.485 282.043 379.088 282.043Z" fill="#4ECF7D"/>
<path d="M378.454 282.045C376.22 282.045 374.211 280.681 373.384 278.602L353.605 228.868C353.079 227.548 353.242 226.055 354.037 224.878C354.831 223.702 356.157 223 357.576 223H426.241C430.378 223 434.067 225.613 435.45 229.518L454.015 282.045H378.454Z" fill="#4ECF7D"/>
<path d="M391.952 247.604C390.448 246.097 390.448 243.653 391.952 242.146C393.457 240.639 395.896 240.639 397.401 242.146C398.905 243.653 398.905 246.097 397.401 247.604C395.896 249.111 393.457 249.111 391.952 247.604Z" fill="#043D5F"/>
<path d="M546.989 242.548C547.285 242.548 547.527 242.31 547.532 242.014C547.537 241.712 547.298 241.465 546.999 241.458L497.047 240.508C496.741 240.516 496.499 240.743 496.492 241.042C496.487 241.344 496.726 241.591 497.025 241.598L546.977 242.548H546.987H546.989Z" fill="#4ECF7D"/>
<path d="M530.306 239.709C530.358 239.709 530.41 239.702 530.464 239.687C530.753 239.601 530.916 239.297 530.829 239.007C529.005 232.926 526.49 227.045 523.356 221.527C522.685 220.348 521.594 218.786 519.933 218.845C519.632 218.855 519.397 219.107 519.407 219.409C519.417 219.71 519.664 219.96 519.97 219.935C520.814 219.915 521.569 220.585 522.411 222.069C525.506 227.515 527.989 233.319 529.788 239.324C529.859 239.561 530.074 239.712 530.309 239.712L530.306 239.709Z" fill="#4ECF7D"/>
</g>
</g>
<defs>
<clipPath id="clip0_4269_322666">
<rect width="627" height="378" fill="white" transform="translate(0 0.5)"/>
</clipPath>
</defs>
</svg>
