<svg width="495" height="359" viewBox="0 0 495 359" fill="none" xmlns="http://www.w3.org/2000/svg">
<g clip-path="url(#clip0_4269_322352)">
<mask id="mask0_4269_322352" style="mask-type:luminance" maskUnits="userSpaceOnUse" x="0" y="0" width="495" height="359">
<path d="M495 0.5H0V358.5H495V0.5Z" fill="white"/>
</mask>
<g mask="url(#mask0_4269_322352)">
<path d="M426.5 1H219C210.44 1 203.5 7.93959 203.5 16.5V298C203.5 306.56 210.44 313.5 219 313.5H426.5C435.06 313.5 442 306.56 442 298V16.5C442 7.93959 435.06 1 426.5 1Z" fill="#E8E8E8" stroke="#4ECF7D"/>
<path d="M428.941 84.4254L428.955 94.816C428.962 100.555 433.617 105.201 439.351 105.193C445.086 105.186 449.729 100.528 449.721 94.7892L449.708 84.3984L428.941 84.4254Z" fill="#4ECF7D"/>
<path d="M439.296 89.2495C454.143 89.2495 466.179 77.205 466.179 62.3474C466.179 47.4898 454.143 35.4453 439.296 35.4453C424.45 35.4453 412.414 47.4898 412.414 62.3474C412.414 77.205 424.45 89.2495 439.296 89.2495Z" fill="#043D5F"/>
<path d="M439.276 98.5804C435.737 98.5804 429.166 98.2407 429.164 96.9467C429.164 96.8232 429.264 96.7228 429.387 96.7226C429.511 96.7226 429.611 96.8226 429.611 96.9458C429.713 97.3724 433.02 98.1329 439.247 98.1332C439.28 98.1332 439.312 98.1332 439.346 98.1332C445.638 98.1249 448.976 97.3498 449.077 96.9181C449.077 96.7946 449.177 96.6956 449.301 96.6953C449.424 96.6953 449.524 96.7964 449.524 96.9198C449.526 98.2226 442.867 98.5755 439.346 98.5802C439.323 98.5804 439.299 98.5804 439.276 98.5804Z" fill="white"/>
<path d="M439.268 94.0252C435.729 94.0252 429.158 93.6855 429.156 92.3914C429.156 92.268 429.256 92.1678 429.38 92.1676C429.503 92.1676 429.603 92.2676 429.603 92.391C429.706 92.8199 433.048 93.5779 439.338 93.5782C445.63 93.5701 448.968 92.7949 449.07 92.3633C449.069 92.2396 449.169 92.1408 449.293 92.1406C449.417 92.1406 449.516 92.2416 449.517 92.3651C449.518 93.6678 442.859 94.0207 439.338 94.0252C439.315 94.0252 439.292 94.0252 439.268 94.0252Z" fill="white"/>
<path d="M435.733 82.9287C435.646 82.9287 435.563 82.8777 435.527 82.7927L427.053 62.9366C427.005 62.823 427.058 62.6915 427.171 62.643C427.284 62.5947 427.416 62.6471 427.465 62.7609L435.938 82.6169C435.987 82.7305 435.934 82.862 435.821 82.9105C435.792 82.9231 435.762 82.9287 435.733 82.9287Z" fill="#4ECF7D"/>
<path d="M442.911 82.9191C442.882 82.9191 442.852 82.9132 442.824 82.9012C442.71 82.8529 442.657 82.7216 442.705 82.608L451.127 62.73C451.176 62.616 451.308 62.5637 451.421 62.6113C451.534 62.6596 451.587 62.7908 451.539 62.9044L443.117 82.7822C443.081 82.8678 442.998 82.9191 442.911 82.9191Z" fill="#4ECF7D"/>
<path d="M434.468 65.474C433.418 65.474 432.371 65.2205 431.457 64.6997C431.35 64.6386 431.312 64.502 431.373 64.3947C431.434 64.2871 431.571 64.2498 431.678 64.3108C433.601 65.4058 436.157 65.2274 437.933 63.9211C436.329 63.0588 435.034 61.6089 434.486 59.8598C434.092 58.6042 434.125 57.3771 434.58 56.4041C435.13 55.2259 436.322 54.4829 437.483 54.5976C438.83 54.7306 439.778 55.9131 440.216 56.9752C441.161 59.2699 440.543 62.1107 438.75 63.8189C439.724 64.2263 440.787 64.4088 441.845 64.3012C444.834 63.9984 447.415 61.4191 447.721 58.4287C447.734 58.3059 447.846 58.2165 447.967 58.229C448.09 58.2415 448.179 58.3513 448.167 58.4743C447.839 61.6679 445.082 64.4228 441.89 64.7462C440.687 64.8678 439.475 64.6389 438.38 64.1418C437.281 65.0197 435.873 65.474 434.468 65.474ZM437.253 55.0338C436.35 55.0338 435.419 55.6644 434.985 56.5935C434.578 57.4649 434.552 58.5776 434.912 59.7261C435.445 61.4247 436.73 62.822 438.31 63.6165C440.075 62.0479 440.703 59.3301 439.802 57.1458C439.414 56.2035 438.589 55.1564 437.439 55.0428C437.377 55.037 437.315 55.0338 437.253 55.0338Z" fill="white"/>
<path d="M494.106 250.036L489.303 248.357C489.691 245.866 489.873 243.374 489.862 240.903L492.894 240.328C493.978 240.123 494.69 239.077 494.485 237.993L492.021 225.001C491.815 223.917 490.77 223.205 489.686 223.411L486.642 223.988C485.739 221.664 484.654 219.414 483.398 217.259L487.26 213.934L476.022 200.887L472.17 204.205C470.244 202.657 468.182 201.248 465.991 200L467.669 195.197L451.414 189.517L449.735 194.32C447.243 193.932 444.752 193.749 442.281 193.761L441.334 188.766L424.416 191.974L425.366 196.981C423.042 197.884 420.792 198.969 418.637 200.224L416.616 197.877C415.895 197.041 414.634 196.947 413.798 197.667L403.779 206.297C402.943 207.017 402.849 208.278 403.569 209.114L405.583 211.453C404.035 213.379 402.626 215.441 401.378 217.632L396.575 215.954L390.895 232.209L395.698 233.888C395.31 236.379 395.128 238.87 395.139 241.341L392.106 241.917C391.022 242.122 390.31 243.168 390.516 244.252L392.98 257.244C393.185 258.328 394.231 259.04 395.315 258.834L398.359 258.257C399.262 260.581 400.347 262.831 401.602 264.985L397.741 268.311L408.978 281.358L412.831 278.04C414.757 279.588 416.82 280.997 419.01 282.245L417.332 287.048L433.587 292.728L435.266 287.925C437.757 288.313 440.249 288.496 442.719 288.484L443.667 293.479L460.584 290.271L459.635 285.264C461.959 284.361 464.209 283.276 466.363 282.02L468.385 284.368C469.105 285.204 470.367 285.298 471.203 284.578L481.222 275.948C482.058 275.228 482.152 273.967 481.432 273.131L479.418 270.792C480.965 268.866 482.374 266.803 483.623 264.612L488.426 266.291L494.106 250.036ZM473.276 253.021C467.057 269.148 449.132 277.789 432.641 272.611C414.431 266.893 404.856 247.032 411.724 229.224C417.944 213.097 435.869 204.455 452.36 209.634C470.57 215.352 480.144 235.213 473.276 253.021Z" fill="white"/>
<path d="M442.504 279.21C438.31 279.21 434.067 278.516 429.936 277.072C420.334 273.717 412.613 266.824 408.196 257.661C403.779 248.499 403.195 238.166 406.55 228.563C409.576 219.903 415.623 212.628 423.577 208.079C431.452 203.575 440.671 202.019 449.536 203.697C449.759 203.74 449.906 203.955 449.864 204.179C449.822 204.403 449.609 204.551 449.382 204.507C431.443 201.11 413.361 211.569 407.328 228.835C404.045 238.229 404.617 248.339 408.939 257.303C413.26 266.267 420.813 273.012 430.207 276.294C446.231 281.893 464.01 275.967 473.443 261.884C473.57 261.695 473.826 261.644 474.015 261.771C474.204 261.897 474.255 262.153 474.128 262.342C466.919 273.107 454.936 279.21 442.504 279.21Z" fill="#F2E6DC"/>
<path d="M388.535 284.354L385.881 283.427C386.095 282.05 386.196 280.674 386.19 279.308L387.865 278.991C388.464 278.877 388.858 278.299 388.744 277.7L387.383 270.522C387.269 269.923 386.692 269.529 386.093 269.643L384.411 269.962C383.912 268.678 383.312 267.435 382.618 266.244L384.752 264.407L378.543 257.198L376.414 259.031C375.35 258.176 374.21 257.397 373 256.708L373.927 254.054L364.945 250.915L364.018 253.569C362.641 253.355 361.265 253.254 359.899 253.26L359.376 250.5L350.028 252.273L350.553 255.039C349.269 255.538 348.026 256.138 346.835 256.832L345.718 255.534C345.32 255.073 344.623 255.021 344.161 255.418L338.625 260.187C338.163 260.585 338.111 261.282 338.509 261.744L339.622 263.036C338.767 264.1 337.988 265.24 337.299 266.45L334.645 265.523L331.506 274.504L334.16 275.432C333.946 276.809 333.845 278.185 333.851 279.55L332.176 279.868C331.577 279.982 331.183 280.559 331.297 281.158L332.658 288.337C332.772 288.936 333.349 289.33 333.948 289.216L335.63 288.897C336.13 290.181 336.729 291.424 337.423 292.615L335.289 294.452L341.498 301.661L343.627 299.828C344.691 300.683 345.831 301.462 347.041 302.151L346.114 304.805L355.096 307.944L356.023 305.29C357.4 305.504 358.776 305.605 360.142 305.599L360.665 308.359L370.013 306.586L369.488 303.82C370.772 303.32 372.015 302.721 373.206 302.027L374.323 303.324C374.721 303.786 375.418 303.838 375.88 303.44L381.416 298.672C381.878 298.274 381.93 297.577 381.532 297.115L380.419 295.823C381.274 294.759 382.053 293.619 382.742 292.409L385.396 293.336L388.535 284.354ZM377.026 286.004C373.589 294.915 363.685 299.689 354.573 296.828C344.511 293.669 339.221 282.695 343.015 272.855C346.452 263.944 356.356 259.169 365.468 262.031C375.53 265.19 380.82 276.164 377.026 286.004Z" fill="white"/>
<path d="M360.024 300.47C357.706 300.47 355.362 300.087 353.079 299.289C347.774 297.435 343.508 293.626 341.067 288.564C338.627 283.501 338.304 277.792 340.157 272.486C341.83 267.701 345.171 263.681 349.566 261.167C353.917 258.679 359.011 257.819 363.909 258.746C364.033 258.77 364.114 258.889 364.09 259.013C364.067 259.136 363.949 259.218 363.824 259.194C353.912 257.317 343.921 263.096 340.588 272.636C338.774 277.827 339.09 283.413 341.478 288.366C343.865 293.319 348.039 297.045 353.229 298.859C362.083 301.953 371.907 298.679 377.119 290.897C377.189 290.792 377.331 290.765 377.435 290.834C377.539 290.904 377.567 291.046 377.497 291.15C373.514 297.098 366.893 300.47 360.024 300.47Z" fill="#F2E6DC"/>
<path d="M377.5 174.753H199.516V57.5547H201.823V172.446H377.5V174.753Z" fill="white"/>
<path d="M334.546 81.75L313.539 94.2979L314.722 96.2784L335.729 83.7305L334.546 81.75Z" fill="white"/>
<path d="M273.319 48.0234L271.391 49.2899L299.848 92.6131L301.776 91.3466L273.319 48.0234Z" fill="white"/>
<path d="M259.297 45.8047L237.188 62.8828L238.597 64.7089L260.707 47.6309L259.297 45.8047Z" fill="white"/>
<path d="M239.563 71.7129C240.72 66.813 237.686 61.903 232.786 60.746C227.887 59.589 222.977 62.6232 221.82 67.523C220.663 72.4229 223.697 77.3329 228.597 78.4899C233.496 79.6469 238.406 76.6127 239.563 71.7129Z" fill="white"/>
<path d="M276.59 41.6757C276.869 36.6484 273.019 32.3473 267.992 32.0689C262.964 31.7905 258.663 35.6402 258.385 40.6674C258.107 45.6947 261.956 49.9957 266.983 50.2741C272.011 50.5526 276.312 46.7029 276.59 41.6757Z" fill="white"/>
<path d="M315.217 99.6866C315.217 104.721 311.136 108.803 306.101 108.803C301.066 108.803 296.984 104.721 296.984 99.6866C296.984 94.6519 301.066 90.5703 306.101 90.5703C311.136 90.5703 315.217 94.6519 315.217 99.6866Z" fill="white"/>
<path d="M346.679 86.8539C351.33 84.9271 353.539 79.5942 351.612 74.9426C349.685 70.291 344.353 68.082 339.701 70.0088C335.049 71.9356 332.84 77.2686 334.767 81.9202C336.694 86.5718 342.027 88.7807 346.679 86.8539Z" fill="white"/>
<path d="M242.606 93.1484H219.934V155.315H242.606V93.1484Z" fill="#C2C2C2"/>
<path d="M280.024 80.7734H257.352V155.325H280.024V80.7734Z" fill="#C2C2C2"/>
<path d="M317.438 115.148H294.766V155.323H317.438V115.148Z" fill="#C2C2C2"/>
<path d="M354.852 103.609H332.18V155.32H354.852V103.609Z" fill="#C2C2C2"/>
<path d="M125.809 217.014C143.08 221.157 192.192 236.164 198.265 215.476C203.289 198.363 154.814 185.858 137.931 180.633C133.89 192.76 129.849 204.887 125.809 217.014Z" fill="white"/>
<path d="M166.145 203.642C166.145 203.641 166.144 203.64 166.145 203.64C183.511 176.452 195.31 156.831 199.191 150.916C199.597 150.297 200.309 149.2 201.587 148.08C206.32 143.926 211.226 146.093 218.196 143.996C226.104 141.618 229.21 135.801 230.976 136.954C232.204 137.756 231.65 140.28 228.737 144.598L228.738 144.599C231.328 141.573 235.02 137.622 236.688 139.058C238.525 140.82 234.733 145.971 232.286 148.974C235.248 145.339 237.91 144.291 238.641 145.324C239.79 146.949 238.151 150.303 234.05 154.957C237.778 152.535 239.045 152.503 239.468 153.573C240.241 155.527 236.798 159.289 233.244 162.149C229.244 165.368 225.025 166.476 222.348 167.112C222.347 167.112 222.346 167.113 222.346 167.113C212.158 187.416 204.715 200.078 197.738 217.049C193.292 227.865 167.593 221.275 166.145 203.642Z" fill="white"/>
<path d="M165.83 204.202C165.754 204.202 165.677 204.181 165.608 204.137C165.416 204.015 165.361 203.76 165.483 203.568C167.875 199.821 170.303 195.996 172.7 192.2C172.822 192.008 173.076 191.95 173.269 192.071C173.461 192.193 173.519 192.447 173.397 192.64C171 196.437 168.571 200.263 166.178 204.012C166.099 204.135 165.966 204.202 165.83 204.202Z" fill="#4ECF7D"/>
<path d="M212.251 147.415C216.2 140.261 216.109 136.844 214.955 136.255C213.015 135.263 207.144 139.99 200.055 149.717C203.51 149.381 208.795 147.752 212.251 147.415Z" fill="white"/>
<path d="M210.709 161.354C210.641 161.354 210.573 161.337 210.51 161.303C210.311 161.193 210.238 160.942 210.348 160.743C211.075 159.422 212.438 157.585 214.808 156.338C218.159 154.572 221.438 155.134 222.692 155.458C222.912 155.515 223.045 155.739 222.987 155.96C222.931 156.18 222.705 156.312 222.486 156.256C221.324 155.956 218.289 155.435 215.192 157.067C213.004 158.219 211.743 159.918 211.07 161.14C210.995 161.277 210.854 161.354 210.709 161.354Z" fill="#4ECF7D"/>
<path d="M205.319 146.643C205.144 146.643 204.981 146.531 204.926 146.355C204.857 146.138 204.977 145.906 205.194 145.838C206.944 145.284 208.773 145.16 210.711 145.03C211.608 144.969 212.536 144.907 213.501 144.799C213.73 144.774 213.932 144.938 213.957 145.164C213.982 145.39 213.819 145.594 213.592 145.619C212.609 145.728 211.672 145.791 210.767 145.852C208.88 145.979 207.098 146.099 205.443 146.624C205.402 146.637 205.36 146.643 205.319 146.643Z" fill="#4ECF7D"/>
<path d="M222.358 148.829C222.187 148.829 222.027 148.722 221.968 148.551C221.894 148.336 222.008 148.101 222.223 148.027C223.14 147.711 224.03 147.308 224.87 146.831C226.088 146.138 227.212 145.281 228.211 144.284C228.373 144.123 228.633 144.124 228.794 144.285C228.955 144.446 228.955 144.707 228.793 144.868C227.742 145.916 226.559 146.818 225.277 147.547C224.394 148.05 223.457 148.473 222.492 148.806C222.448 148.822 222.402 148.829 222.358 148.829Z" fill="#4ECF7D"/>
<path d="M226.275 152.72C226.104 152.72 225.945 152.613 225.886 152.442C225.812 152.227 225.926 151.992 226.141 151.918C227.057 151.602 227.947 151.199 228.788 150.721C230.005 150.028 231.13 149.171 232.129 148.175C232.29 148.014 232.551 148.015 232.712 148.176C232.872 148.337 232.872 148.598 232.711 148.759C231.66 149.807 230.477 150.708 229.195 151.438C228.311 151.941 227.374 152.364 226.41 152.697C226.365 152.712 226.32 152.72 226.275 152.72Z" fill="#4ECF7D"/>
<path d="M227.795 159.267C227.624 159.267 227.464 159.16 227.406 158.989C227.331 158.774 227.445 158.539 227.661 158.465C228.577 158.148 229.467 157.746 230.307 157.268C231.525 156.575 232.65 155.718 233.649 154.722C233.81 154.561 234.071 154.562 234.231 154.723C234.392 154.884 234.392 155.145 234.231 155.306C233.18 156.354 231.997 157.255 230.715 157.985C229.831 158.487 228.894 158.911 227.93 159.244C227.885 159.26 227.84 159.267 227.795 159.267Z" fill="#4ECF7D"/>
<path d="M72.9074 349.575L68.2326 363.6C59.825 363.348 51.4195 363.48 43.0273 363.611H43.0214C34.6702 363.741 26.3321 363.872 17.9961 363.627C18.9517 346.205 22.1383 320.547 31.7852 293.456C41.0293 267.496 53.1022 247.497 62.9543 233.664L126.264 245.271C129.796 254.586 133.081 264.966 135.73 276.361C143.689 310.606 142.873 340.99 140.037 363.602C131.838 363.437 123.638 363.524 115.449 363.611H115.444C107.252 363.698 99.0701 363.785 90.8889 363.62C90.2783 354.889 89.6677 345.904 89.0571 336.919C88.4359 327.778 87.8146 318.636 87.1933 309.761L86.2202 309.638C84.8125 313.86 83.4051 318.082 81.9977 322.305C80.5652 326.602 79.1327 330.9 77.6999 335.198L72.9074 349.575Z" fill="white" stroke="#4ECF7D"/>
<path d="M34.5547 187.906C22.636 197.503 -12.6972 220.248 4.59836 243.387C11.1232 252.117 40.5301 224.091 52.9832 215.329C46.8406 206.188 40.6977 197.047 34.5547 187.906Z" fill="white"/>
<path d="M23.9102 192.997C28.2875 188.95 61.1055 159.602 105.738 166.904C131.476 171.115 147.829 178.503 157.285 184.5C147.845 201.582 144.788 205.362 139.463 211.989C142.185 225.834 144.906 239.679 147.628 253.524C127.393 253.347 62.0726 251.394 41.4827 250.684C45.151 238.969 48.8192 232.703 52.4874 220.987C49.6476 223.354 46.8074 225.721 43.9676 228.087C37.4002 217.137 29.7677 203.292 23.9102 192.997Z" fill="#043D5F"/>
<path d="M73.1115 242.677C73.0657 242.677 73.019 242.67 72.973 242.653C72.7588 242.577 72.6469 242.341 72.7231 242.127L91.7257 188.773H133.462C133.69 188.773 133.874 188.958 133.874 189.186C133.874 189.413 133.69 189.598 133.462 189.598H92.307L73.4998 242.404C73.4395 242.572 73.2809 242.677 73.1115 242.677Z" fill="#0C5987"/>
<path d="M116.547 244.837H75.1016L94.0066 191.758H135.452L116.547 244.837Z" fill="#0C5987"/>
<path d="M13.7576 215.203C27.9371 216.152 61.4399 216.732 64.7081 216.918C70.8173 217.268 103.555 219.994 103.674 224.76C103.731 227.038 97.3999 226.798 95.2623 226.655C96.9317 227.622 103.745 230.641 103.145 233.123C102.439 236.04 93.7691 233.685 93.6108 233.734C95.4059 234.544 102.687 237.481 102.308 239.36C101.817 241.804 94.2239 241.102 91.9604 240.787C92.1548 241.129 99.4713 242.91 99.0087 245.85C98.6691 248.008 91.7042 247.353 88.6818 247.078C83.2536 246.772 19.9296 246.627 8.16435 245.098C3.55886 244.499 7.52843 219.644 13.7576 215.203Z" fill="white"/>
<path d="M44.2992 216.637C44.2943 216.637 44.29 216.637 44.2855 216.637C37.0817 216.401 18.2691 215.564 13.69 215.308C13.4625 215.296 13.2886 215.101 13.3015 214.874C13.3141 214.647 13.5063 214.469 13.7358 214.485C18.3121 214.74 37.1132 215.577 44.3121 215.813C44.54 215.82 44.7182 216.011 44.7107 216.238C44.7034 216.461 44.5207 216.637 44.2992 216.637Z" fill="#4ECF7D"/>
<path d="M95.3517 226.844C95.2968 226.844 95.2418 226.833 95.1886 226.81C94.0291 226.311 92.8256 225.889 91.6118 225.555C89.4303 224.955 87.1678 224.625 84.8874 224.574C84.6599 224.569 84.4797 224.381 84.4845 224.153C84.4898 223.928 84.6732 223.75 84.8967 223.75C84.8996 223.75 84.9027 223.75 84.9059 223.75C87.254 223.802 89.5837 224.142 91.8308 224.76C93.0809 225.104 94.3206 225.539 95.5147 226.053C95.7236 226.143 95.8202 226.386 95.7306 226.595C95.6632 226.751 95.511 226.844 95.3517 226.844Z" fill="#4ECF7D"/>
<path d="M93.7432 233.995C93.7029 233.995 93.6623 233.989 93.622 233.976C93.369 233.898 93.1101 233.823 92.8461 233.75C90.6654 233.15 88.4031 232.82 86.1217 232.769C85.8942 232.764 85.714 232.576 85.7188 232.348C85.7241 232.124 85.9075 231.945 86.1311 231.945C86.1339 231.945 86.137 231.945 86.1402 231.945C88.4888 231.998 90.8187 232.338 93.0651 232.956C93.3371 233.031 93.6041 233.108 93.8645 233.189C94.0822 233.256 94.2042 233.486 94.1374 233.704C94.0826 233.881 93.9195 233.995 93.7432 233.995Z" fill="#4ECF7D"/>
<path d="M91.8187 241.123C91.7938 241.123 91.7687 241.121 91.7434 241.116C90.2896 240.847 88.7976 240.694 87.3092 240.661C87.0817 240.656 86.9015 240.467 86.9063 240.24C86.9116 240.012 87.0838 239.82 87.3277 239.837C88.8603 239.871 90.3963 240.029 91.8932 240.306C92.1169 240.347 92.2651 240.562 92.2236 240.786C92.1869 240.985 92.0134 241.123 91.8187 241.123Z" fill="#4ECF7D"/>
<path d="M61.6095 144.688C48.6905 144.688 38.1797 134.177 38.1797 121.258C38.1797 108.339 48.6903 97.8281 61.6095 97.8281C74.5287 97.8281 85.0393 108.339 85.0393 121.258C85.0393 134.177 74.5287 144.688 61.6095 144.688ZM61.6095 98.6526C49.1448 98.6526 39.004 108.793 39.004 121.258C39.004 133.723 49.1448 143.863 61.6095 143.863C74.0742 143.863 84.2148 133.722 84.2148 121.258C84.215 108.793 74.0742 98.6526 61.6095 98.6526Z" fill="#4ECF7D"/>
<path d="M65.7269 140.11C81.5664 140.11 94.4069 127.269 94.4069 111.43C94.4069 95.5905 81.5664 82.75 65.7269 82.75C49.8874 82.75 37.0469 95.5905 37.0469 111.43C37.0469 127.269 49.8874 140.11 65.7269 140.11Z" fill="#4ECF7D"/>
<path d="M95.9228 153.103C106.609 153.103 115.271 144.441 115.271 133.755C115.271 123.069 106.609 114.406 95.9228 114.406C85.2369 114.406 76.5742 123.069 76.5742 133.755C76.5742 144.441 85.2369 153.103 95.9228 153.103Z" fill="#4ECF7D"/>
<path d="M111.742 157.463C107.467 160.499 95.3903 152.256 95.3903 152.256L88.4805 137.802C88.4805 130.425 94.4606 124.445 101.837 124.445C109.214 124.445 115.194 130.425 115.194 137.802C115.194 137.802 116.097 154.37 111.742 157.463Z" fill="white"/>
<path d="M97.3303 178.503C105.873 178.503 112.797 175.664 112.797 172.162C112.797 168.659 105.873 165.82 97.3303 165.82C88.7881 165.82 81.8633 168.659 81.8633 172.162C81.8633 175.664 88.7881 178.503 97.3303 178.503Z" fill="white"/>
<path d="M104.989 137.648H88.4805V171.416H104.989V137.648Z" fill="white"/>
<path d="M113.665 141.312C113.665 141.312 117.411 145.239 117.212 146.275C116.974 147.512 112.801 148.266 112.801 148.266C112.801 148.266 113.765 141.322 113.665 141.312Z" fill="white"/>
<path d="M107.644 158.617C107.62 158.617 107.595 158.615 107.571 158.611C102.314 157.675 95.4498 153.021 95.1604 152.823C94.9725 152.694 94.9238 152.438 95.0522 152.25C95.181 152.062 95.4379 152.014 95.6251 152.142C95.6947 152.19 102.634 156.895 107.715 157.8C107.94 157.839 108.089 158.053 108.049 158.277C108.014 158.477 107.84 158.617 107.644 158.617Z" fill="#4ECF7D"/>
<path d="M100.281 139.81C100.281 139.81 102.732 138.492 105.686 138.492C106.315 138.492 105.129 143.522 104.532 143.237C101.909 141.985 100.281 139.81 100.281 139.81Z" fill="white"/>
<mask id="mask1_4269_322352" style="mask-type:luminance" maskUnits="userSpaceOnUse" x="100" y="138" width="14" height="7">
<path d="M100.285 139.81C100.285 139.81 103.89 137.871 107.625 138.697C111.361 139.522 113.814 142.799 113.814 142.799C113.814 142.799 110.209 144.737 106.473 143.912C102.737 143.087 100.285 139.81 100.285 139.81Z" fill="white"/>
</mask>
<g mask="url(#mask1_4269_322352)">
<path d="M109.351 146.905C112.114 146.905 114.354 144.665 114.354 141.902C114.354 139.138 112.114 136.898 109.351 136.898C106.588 136.898 104.348 139.138 104.348 141.902C104.348 144.665 106.588 146.905 109.351 146.905Z" fill="#4ECF7D"/>
</g>
<path d="M108.924 151.005C108.457 151.005 107.991 150.873 107.585 150.61C106.805 150.103 106.372 149.175 106.482 148.246C106.509 148.02 106.713 147.86 106.94 147.885C107.166 147.912 107.327 148.117 107.301 148.344C107.227 148.963 107.515 149.581 108.034 149.919C108.574 150.269 109.275 150.268 109.82 149.918C110.012 149.795 110.266 149.85 110.389 150.042C110.512 150.233 110.457 150.488 110.266 150.611C109.857 150.874 109.39 151.005 108.924 151.005Z" fill="#4ECF7D"/>
<path d="M85.2283 141.316C85.2283 141.316 89.4871 139.607 93.8835 144.119L96.7333 142.559C96.7333 142.559 95.0827 124.383 115.003 131.527C115.003 131.527 108.171 116.265 94.8452 121.87C81.519 127.474 85.2283 141.316 85.2283 141.316Z" fill="#4ECF7D"/>
<path d="M85.0648 144.509C85.8441 147.119 88.3154 148.685 90.5848 148.007C92.8542 147.33 94.0622 144.665 93.2829 142.055C92.5038 139.445 90.0322 137.879 87.7629 138.556C85.4935 139.234 84.2855 141.899 85.0648 144.509Z" fill="white"/>
<path d="M91.5128 142.908C91.3353 142.908 91.1711 142.792 91.118 142.614C90.738 141.341 89.5526 140.568 88.4736 140.889C87.8345 141.08 87.3446 141.631 87.1639 142.362C87.1093 142.583 86.8846 142.717 86.6649 142.663C86.444 142.609 86.309 142.385 86.3638 142.164C86.6154 141.147 87.3161 140.375 88.2379 140.099C89.7522 139.646 91.3978 140.67 91.9078 142.378C91.9729 142.596 91.849 142.825 91.6309 142.89C91.5912 142.902 91.5517 142.908 91.5128 142.908Z" fill="#4ECF7D"/>
<path d="M89.3622 154.983C86.9397 154.983 84.9688 153.012 84.9688 150.589C84.9688 148.166 86.9397 146.195 89.3622 146.195C91.7852 146.195 93.7562 148.166 93.7562 150.589C93.7562 153.012 91.7852 154.983 89.3622 154.983ZM89.3622 147.02C87.394 147.02 85.7929 148.621 85.7929 150.589C85.7929 152.557 87.394 154.159 89.3622 154.159C91.3304 154.159 92.932 152.557 92.932 150.589C92.932 148.621 91.3303 147.02 89.3622 147.02Z" fill="#043D5F"/>
<path opacity="0.5" d="M301.243 237.591H230.12C224.358 237.591 219.645 232.877 219.645 227.116C219.645 221.355 224.358 216.641 230.12 216.641H301.243C307.004 216.641 311.718 221.355 311.718 227.116C311.718 232.877 307.004 237.591 301.243 237.591Z" fill="white"/>
<path d="M303.324 243.782H236.242C229.684 243.782 224.348 238.446 224.348 231.887C224.348 225.328 229.684 219.992 236.242 219.992H303.324C309.883 219.992 315.219 225.328 315.219 231.887C315.219 238.445 309.883 243.782 303.324 243.782ZM236.242 221.077C230.281 221.077 225.433 225.926 225.433 231.887C225.433 237.848 230.282 242.697 236.242 242.697H303.324C309.285 242.697 314.134 237.847 314.134 231.887C314.134 225.926 309.284 221.077 303.324 221.077H236.242Z" fill="white"/>
<path d="M240.369 231.628C240.369 233.908 238.521 235.756 236.241 235.756C233.961 235.756 232.113 233.908 232.113 231.628C232.113 229.348 233.961 227.5 236.241 227.5C238.521 227.5 240.369 229.348 240.369 231.628Z" fill="#D87355"/>
<path d="M253.568 231.628C253.568 233.908 251.719 235.756 249.44 235.756C247.16 235.756 245.312 233.908 245.312 231.628C245.312 229.348 247.16 227.5 249.44 227.5C251.719 227.5 253.568 229.348 253.568 231.628Z" fill="#D87355"/>
<path d="M266.768 231.628C266.768 233.908 264.919 235.756 262.64 235.756C260.36 235.756 258.512 233.908 258.512 231.628C258.512 229.348 260.36 227.5 262.64 227.5C264.919 227.5 266.768 229.348 266.768 231.628Z" fill="#D87355"/>
<path d="M279.963 231.628C279.963 233.908 278.115 235.756 275.835 235.756C273.555 235.756 271.707 233.908 271.707 231.628C271.707 229.348 273.555 227.5 275.835 227.5C278.115 227.5 279.963 229.348 279.963 231.628Z" fill="#D87355"/>
</g>
</g>
<defs>
<clipPath id="clip0_4269_322352">
<rect width="495" height="358" fill="white" transform="translate(0 0.5)"/>
</clipPath>
</defs>
</svg>
