<svg width="627" height="379" viewBox="0 0 627 379" fill="none" xmlns="http://www.w3.org/2000/svg">
<g clip-path="url(#clip0_4269_322286)">
<path d="M252.214 1.73438H612.849C617.351 1.73438 621 5.38369 621 9.88536V283.42C621 287.922 617.351 291.571 612.849 291.571H252.214C247.712 291.571 244.062 287.922 244.062 283.42V9.88536C244.062 5.38369 247.712 1.73438 252.214 1.73438Z" stroke="#D9D2D2" stroke-width="1.95535"/>
<path d="M606.547 9.09707C606.547 11.4659 608.464 13.3817 610.833 13.3817C613.202 13.3817 615.118 11.4659 615.118 9.09707C615.118 6.72836 613.202 4.8125 610.833 4.8125C608.464 4.8125 606.547 6.72836 606.547 9.09707Z" fill="#FFC3D0"/>
<path d="M589.441 9.09707C589.441 11.4659 591.357 13.3817 593.726 13.3817C596.095 13.3817 598.012 11.4659 598.012 9.09707C598.012 6.72836 596.095 4.8125 593.726 4.8125C591.357 4.8125 589.441 6.72836 589.441 9.09707Z" fill="#40484C"/>
<mask id="mask0_4269_322286" style="mask-type:luminance" maskUnits="userSpaceOnUse" x="200" y="37" width="393" height="333">
<path d="M200.598 37.8047H592.557V369.881H200.598V37.8047Z" fill="white"/>
</mask>
<g mask="url(#mask0_4269_322286)">
<path d="M564.253 38.2969H228.904C213.545 38.2969 201.094 50.7696 201.094 66.1573V341.532C201.094 356.919 213.545 369.391 228.904 369.391H564.253C579.611 369.391 592.062 356.919 592.062 341.532V66.1573C592.062 50.7696 579.611 38.2969 564.253 38.2969Z" fill="#E8E8E8" stroke="#E8E8E8" stroke-width="0.977675"/>
<path d="M200.59 66.1539V101.892H217.885C222.217 101.892 226.226 99.5173 228.275 95.6777L236.265 80.6968C238.314 76.8567 242.323 74.4526 246.655 74.4526H295.001C299.361 74.4526 303.341 76.8567 305.39 80.6968L313.409 95.6777C315.458 99.5173 319.439 101.892 323.799 101.892H334.569C338.9 101.892 342.91 99.5173 344.959 95.6777L352.948 80.6968C354.998 76.8567 359.007 74.4526 363.338 74.4526H411.684C416.045 74.4526 420.026 76.8567 422.074 80.6968L430.093 95.6777C432.142 99.5173 436.122 101.892 440.483 101.892H592.536V66.1539C592.536 50.4993 579.864 37.8047 564.238 37.8047H228.89C213.264 37.8047 200.592 50.4993 200.592 66.1539H200.59Z" fill="#F9F9F8"/>
<path d="M543.551 69.3755C543.551 72.3883 545.988 74.8252 549.001 74.8252C552.013 74.8252 554.438 72.3883 554.438 69.3755C554.438 66.3627 552.002 63.9375 549.001 63.9375C545.999 63.9375 543.551 66.3745 543.551 69.3755Z" fill="#FFC3D0"/>
<path d="M521.777 69.3755C521.777 72.3883 524.457 74.8252 527.771 74.8252C531.085 74.8252 533.753 72.3883 533.753 69.3755C533.753 66.3627 531.072 63.9375 527.771 63.9375C524.47 63.9375 521.777 66.3745 521.777 69.3755Z" fill="#40484C"/>
<path d="M501.09 69.3755C501.09 72.3883 503.526 74.8252 506.54 74.8252C509.553 74.8252 511.978 72.3883 511.978 69.3755C511.978 66.3627 509.541 63.9375 506.54 63.9375C503.539 63.9375 501.09 66.3745 501.09 69.3755Z" fill="#6AEBE7"/>
<path d="M279.091 249.273H561.768C565.088 249.273 567.78 251.969 567.78 255.296C567.78 258.622 565.088 261.319 561.768 261.319H279.091C275.77 261.319 273.078 258.622 273.078 255.296C273.078 251.969 275.77 249.273 279.091 249.273Z" fill="#F9F9F8"/>
<path d="M475.54 222.484H561.768C565.088 222.484 567.78 225.181 567.78 228.507C567.78 231.834 565.088 234.53 561.768 234.53H475.54C472.219 234.53 469.527 231.834 469.527 228.507C469.527 225.181 472.219 222.484 475.54 222.484Z" fill="#F9F9F8"/>
<path d="M231.38 222.484H447.562C450.883 222.484 453.575 225.181 453.575 228.507C453.575 231.834 450.883 234.53 447.562 234.53H231.38C228.06 234.53 225.367 231.834 225.367 228.507C225.367 225.181 228.06 222.484 231.38 222.484Z" fill="#F9F9F8"/>
<path d="M328.04 195.703H449.849C453.169 195.703 455.861 198.4 455.861 201.726C455.861 205.053 453.169 207.749 449.849 207.749H328.04C324.719 207.749 322.027 205.053 322.027 201.726C322.027 198.4 324.719 195.703 328.04 195.703Z" fill="#F2E8E3"/>
<path d="M477.826 195.703H561.771C565.091 195.703 567.784 198.4 567.784 201.726C567.784 205.053 565.091 207.749 561.771 207.749H477.826C474.506 207.749 471.812 205.053 471.812 201.726C471.812 198.4 474.506 195.703 477.826 195.703Z" fill="#F2E8E3"/>
<path d="M567.782 341.273C567.782 344.6 565.09 347.297 561.77 347.297H279.095C275.774 347.297 273.082 344.6 273.082 341.273C273.082 337.947 275.774 335.25 279.095 335.25H561.77C565.09 335.25 567.782 337.947 567.782 341.273Z" fill="#F9F9F8"/>
<path d="M475.54 308.469H561.768C565.088 308.469 567.78 311.165 567.78 314.492C567.78 317.818 565.088 320.516 561.768 320.516H475.54C472.219 320.516 469.527 317.818 469.527 314.492C469.527 311.165 472.219 308.469 475.54 308.469Z" fill="#F9F9F8"/>
<path d="M231.38 308.469H447.562C450.883 308.469 453.575 311.165 453.575 314.492C453.575 317.818 450.883 320.516 447.562 320.516H231.38C228.06 320.516 225.367 317.818 225.367 314.492C225.367 311.165 228.06 308.469 231.38 308.469Z" fill="#F9F9F8"/>
<path d="M328.04 281.688H449.849C453.169 281.688 455.861 284.384 455.861 287.711C455.861 291.037 453.169 293.733 449.849 293.733H328.04C324.719 293.733 322.027 291.037 322.027 287.711C322.027 284.384 324.719 281.688 328.04 281.688Z" fill="#F2E8E3"/>
<path d="M477.826 281.688H561.771C565.091 281.688 567.784 284.384 567.784 287.711C567.784 291.037 565.091 293.733 561.771 293.733H477.826C474.506 293.733 471.812 291.037 471.812 287.711C471.812 284.384 474.506 281.688 477.826 281.688Z" fill="#F2E8E3"/>
</g>
<path d="M258.873 178.58C259.907 168.799 262.929 157.558 258.238 147.288C253.47 136.85 244.603 126.755 233.429 124.174C215.884 120.122 204.487 132.879 195.489 144.393C186.91 155.373 181.106 164.739 168.097 169.822C158.884 173.422 149.221 174.171 139.96 177.643C130.698 181.115 121.418 185.443 114.747 192.751C108.077 200.058 104.545 210.975 108.296 220.134C91.435 225.77 77.2198 240.042 73.5926 257.459C69.9656 274.877 78.2161 294.645 94.0769 302.679C105.301 308.365 118.588 307.978 131.054 306.291C143.521 304.605 156.021 301.746 168.544 302.944C180.194 304.058 191.507 308.667 203.194 308.048C222.718 307.015 238.456 291.832 250.043 276.069C255.875 268.137 261.372 259.139 261.164 249.293C260.986 240.864 277.08 233.828 271.27 227.537C270.995 218.447 255.428 211.147 258.873 178.58Z" fill="#4ECF7D"/>
<path d="M306.069 245.273L346.446 292.471L323.725 342.201L265.691 284.246L306.069 245.273Z" fill="white"/>
<path d="M347.223 293.815C347.102 293.815 346.983 293.764 346.899 293.665L307.883 247.732C307.73 247.553 307.752 247.285 307.931 247.132C308.111 246.981 308.379 247.002 308.531 247.181L347.547 293.115C347.699 293.294 347.677 293.562 347.498 293.714C347.418 293.782 347.32 293.815 347.223 293.815Z" fill="#4ECF7D"/>
<path d="M327.717 346.649C327.607 346.649 327.498 346.607 327.415 346.523L267.014 285.568C266.849 285.401 266.85 285.132 267.016 284.967C267.183 284.802 267.452 284.803 267.618 284.97L328.019 345.925C328.184 346.092 328.183 346.361 328.016 346.526C327.933 346.608 327.825 346.649 327.717 346.649Z" fill="#4ECF7D"/>
<path d="M297.855 236.895L308.211 247.452L270.441 286.245L274.126 331.701L281.177 365.058L147.934 359.112L144.797 319.539L93.8398 320.702C93.8398 320.702 98.0006 298.392 103.416 274.999C109.945 246.79 133.456 225.643 162.195 222.319C172.308 221.149 183.963 220.206 197.05 219.777C217.809 219.095 234.707 218.254 247.514 217.49C266.309 216.37 284.664 223.448 297.855 236.895Z" fill="white"/>
<path d="M281.177 365.487C281.171 365.487 281.164 365.487 281.158 365.486L147.915 359.54C147.701 359.531 147.527 359.363 147.51 359.149L144.405 319.977L93.8489 321.13C93.7368 321.136 93.5985 321.078 93.5154 320.98C93.4323 320.883 93.3979 320.753 93.4211 320.627C93.4629 320.404 97.6459 298.041 103.001 274.906C109.569 246.533 133.337 225.232 162.146 221.9C173.353 220.603 185.092 219.747 197.035 219.355C214.94 218.767 231.914 217.998 247.489 217.07C266.409 215.941 284.876 223.06 298.159 236.601L308.514 247.158C308.677 247.323 308.677 247.587 308.516 247.752L270.88 286.407L274.548 331.643L281.593 364.973C281.62 365.102 281.587 365.236 281.501 365.336C281.42 365.432 281.301 365.487 281.177 365.487ZM148.328 358.707L280.647 364.612L273.71 331.793C273.706 331.775 273.704 331.757 273.702 331.739L270.017 286.283C270.007 286.161 270.05 286.04 270.136 285.952L307.616 247.457L297.551 237.196C284.442 223.831 266.215 216.804 247.539 217.918C231.958 218.848 214.975 219.617 197.064 220.205C185.143 220.596 173.428 221.451 162.244 222.744C133.791 226.035 110.316 247.074 103.83 275.098C98.9297 296.265 95.0117 316.787 94.3544 320.267L144.787 319.117C144.79 319.117 144.794 319.117 144.797 319.117C145.018 319.117 145.203 319.287 145.221 319.508L148.328 358.707Z" fill="#4ECF7D"/>
<path d="M149.887 281.415L182.198 259.499L218.319 272.525L251.197 250.109L270.689 265.762C270.689 265.762 280.407 306.542 281.173 329.365C281.173 329.365 231.704 348.855 149.887 339.799V281.415Z" fill="#043D5F"/>
<path d="M181.348 257.426C181.12 257.426 180.931 257.245 180.923 257.016C180.486 244.657 178.161 232.484 174.013 220.834C173.934 220.612 174.05 220.369 174.271 220.29C174.491 220.212 174.735 220.327 174.814 220.548C178.992 232.281 181.333 244.54 181.773 256.986C181.781 257.221 181.598 257.417 181.363 257.426C181.358 257.426 181.353 257.426 181.348 257.426Z" fill="#043D5F"/>
<path d="M250.649 249.095C250.638 249.095 250.627 249.094 250.616 249.094C250.382 249.076 250.206 248.872 250.224 248.638C251.03 237.926 249.48 226.941 245.742 216.87C245.66 216.65 245.772 216.405 245.992 216.324C246.212 216.242 246.457 216.354 246.539 216.574C250.32 226.759 251.887 237.868 251.072 248.701C251.056 248.925 250.869 249.095 250.649 249.095Z" fill="#043D5F"/>
<path d="M93.8326 320.702L89.9731 346.96C88.0266 360.202 98.436 372.021 111.807 371.75H274.119C274.119 371.75 270.625 328.994 237.249 327.291C202.765 325.531 149.884 329.218 149.884 329.218L149.812 319.539L93.8326 320.702Z" fill="white"/>
<path d="M93.8316 321.123C93.6007 321.123 93.4113 320.938 93.4063 320.706C93.4013 320.471 93.5878 320.277 93.8228 320.272L149.802 319.109C150.027 319.106 150.231 319.291 150.236 319.526C150.241 319.761 150.054 319.955 149.819 319.96L93.8403 321.122C93.8374 321.123 93.8345 321.123 93.8316 321.123Z" fill="#4ECF7D"/>
<path d="M111.357 372.176C105.036 372.177 99.0326 369.471 94.8344 364.709C90.5311 359.828 88.6062 353.335 89.5527 346.895L93.412 320.637C93.4461 320.405 93.6562 320.243 93.8946 320.278C94.1267 320.312 94.2875 320.528 94.2534 320.761L90.3941 347.018C89.4842 353.21 91.3353 359.453 95.4723 364.146C99.6045 368.833 105.569 371.445 111.798 371.322H273.652C273.313 367.997 270.763 347.444 258.862 336.502C258.689 336.343 258.677 336.074 258.836 335.901C258.996 335.728 259.265 335.717 259.437 335.876C272.595 347.974 274.525 371.479 274.543 371.715C274.552 371.833 274.511 371.949 274.431 372.036C274.35 372.123 274.238 372.172 274.119 372.172H111.807C111.657 372.175 111.507 372.176 111.357 372.176Z" fill="#4ECF7D"/>
<path d="M135.757 330.624C135.536 330.624 135.349 330.452 135.333 330.228C135.317 329.994 135.494 329.791 135.728 329.774L149.855 328.79C150.086 328.772 150.292 328.951 150.308 329.185C150.325 329.419 150.148 329.622 149.913 329.639L135.787 330.623C135.777 330.623 135.767 330.624 135.757 330.624Z" fill="#4ECF7D"/>
<path d="M248.877 367.604C248.87 367.604 248.862 367.604 248.855 367.604C248.62 367.592 248.44 367.391 248.452 367.157C248.736 361.83 245.812 356.481 241.177 353.846C237.821 351.939 233.893 351.455 230.158 351.122C223.376 350.519 216.487 350.347 209.688 350.612C209.451 350.622 209.255 350.438 209.246 350.203C209.237 349.969 209.42 349.771 209.655 349.762C216.492 349.496 223.415 349.669 230.233 350.275C233.894 350.601 238.093 351.115 241.597 353.107C246.506 355.897 249.602 361.561 249.302 367.202C249.29 367.429 249.101 367.604 248.877 367.604Z" fill="#4ECF7D"/>
<path d="M260.34 366.229C260.337 366.229 260.333 366.229 260.329 366.229C260.095 366.223 259.909 366.028 259.915 365.793C260.078 359.279 257.82 352.642 253.72 347.581C249.62 342.52 243.597 338.936 237.196 337.75C236.965 337.707 236.812 337.485 236.855 337.254C236.898 337.023 237.117 336.87 237.351 336.913C243.948 338.136 250.155 341.83 254.381 347.046C258.606 352.261 260.933 359.102 260.765 365.815C260.76 366.046 260.57 366.229 260.34 366.229Z" fill="#4ECF7D"/>
<path d="M207.783 180.945L191.654 218.699L180.941 220.716C180.941 220.716 194.937 247.641 217.68 245.602C240.423 243.563 238.025 217.859 238.025 217.859L227.095 217.039L232.417 194.633L207.783 180.945Z" fill="white"/>
<path d="M215.282 246.13C206.672 246.13 198.145 242.047 190.478 234.217C184.165 227.77 180.599 220.976 180.564 220.908C180.502 220.789 180.499 220.647 180.559 220.526C180.618 220.405 180.73 220.319 180.862 220.294L191.352 218.319L207.391 180.774C207.438 180.663 207.53 180.578 207.644 180.539C207.758 180.5 207.883 180.511 207.989 180.569L232.623 194.257C232.79 194.35 232.874 194.542 232.83 194.727L227.623 216.648L238.057 217.43C238.264 217.446 238.429 217.608 238.449 217.815C238.46 217.94 239.538 230.444 232.63 238.742C229.083 243.003 224.066 245.452 217.718 246.021C216.906 246.094 216.093 246.13 215.282 246.13ZM181.597 221.021C183.67 224.693 197.163 247.012 217.642 245.174C223.757 244.626 228.58 242.279 231.977 238.198C238.015 230.943 237.743 220.324 237.626 218.251L227.062 217.459C226.938 217.45 226.824 217.386 226.751 217.286C226.677 217.185 226.651 217.058 226.68 216.936L231.928 194.844L207.988 181.542L192.044 218.862C191.988 218.992 191.871 219.086 191.732 219.112L181.597 221.021Z" fill="#4ECF7D"/>
<path d="M209.177 182.368C209.177 182.368 210.739 190.177 216.027 196.071C218.403 198.72 223.51 202.223 227.873 203.125C241.67 205.977 248.157 191.245 250.068 182.863C253.067 169.705 250.467 156.497 250.467 156.497C250.467 156.497 234.328 149.96 227.423 156.297C220.519 162.633 222.925 170.105 218.482 171.457C211.167 173.683 218.088 159.083 208.045 161.587C199.588 163.696 197.404 177.238 209.177 182.368Z" fill="white"/>
<path d="M231.227 203.901C230.126 203.901 228.981 203.784 227.788 203.538C223.461 202.643 218.25 199.181 215.711 196.351C210.836 190.916 209.106 184 208.808 182.665C202.267 179.724 200.293 174.33 200.635 170.234C201.004 165.811 203.941 162.169 207.943 161.171C209.952 160.67 211.46 160.787 212.554 161.53C214.212 162.654 214.528 164.998 214.807 167.065C215.041 168.795 215.261 170.429 216.17 171.012C216.669 171.332 217.386 171.343 218.36 171.046C220.233 170.476 220.759 168.641 221.485 166.101C222.339 163.119 223.4 159.409 227.137 155.979C234.159 149.535 249.959 155.828 250.628 156.099C250.761 156.152 250.858 156.27 250.886 156.411C250.912 156.544 253.468 169.859 250.483 182.953C248.184 193.042 241.837 203.9 231.227 203.901ZM210.138 161.717C209.557 161.717 208.895 161.81 208.149 161.996C204.5 162.906 201.821 166.245 201.482 170.305C201.161 174.149 203.059 179.234 209.348 181.974C209.476 182.03 209.568 182.144 209.595 182.281C209.611 182.358 211.2 190.048 216.344 195.783C218.791 198.511 223.805 201.846 227.961 202.705C229.12 202.944 230.223 203.056 231.272 203.056C244.617 203.057 249.15 184.978 249.654 182.764C252.386 170.78 250.414 158.608 250.093 156.803C248.167 156.068 233.916 150.913 227.712 156.606C224.152 159.873 223.127 163.456 222.303 166.335C221.533 169.028 220.924 171.155 218.607 171.86C217.38 172.233 216.432 172.19 215.71 171.727C214.471 170.932 214.225 169.109 213.964 167.179C213.697 165.196 213.42 163.145 212.077 162.234C211.569 161.889 210.927 161.717 210.138 161.717Z" fill="#4ECF7D"/>
<path d="M211.628 177.792C211.411 177.792 211.227 177.628 211.205 177.408C211.045 175.784 210.879 174.104 210.288 172.579C209.652 170.938 208.543 169.696 207.246 169.171C207.029 169.083 206.924 168.835 207.012 168.618C207.1 168.4 207.348 168.295 207.565 168.383C209.078 168.995 210.36 170.412 211.081 172.272C211.714 173.904 211.885 175.643 212.051 177.325C212.074 177.559 211.903 177.767 211.669 177.79C211.655 177.791 211.641 177.792 211.628 177.792Z" fill="#4ECF7D"/>
<path d="M207.409 193.865C207.347 193.865 207.286 193.852 207.228 193.825L194.284 187.754C194.154 187.693 194.064 187.571 194.044 187.43C194.023 187.288 194.075 187.146 194.182 187.051L203.327 178.914C203.502 178.757 203.771 178.773 203.928 178.949C204.084 179.124 204.068 179.393 203.893 179.549L195.229 187.257L206.972 192.766L206.734 178.488C206.73 178.253 206.917 178.06 207.152 178.056C207.403 178.038 207.58 178.239 207.584 178.474L207.834 193.433C207.837 193.58 207.763 193.717 207.64 193.797C207.57 193.842 207.49 193.865 207.409 193.865Z" fill="#043D5F"/>
<path d="M245.37 171.47C245.37 171.47 253.345 169.019 259.06 172.466L255.222 180.521C254.898 181.201 254.182 181.603 253.433 181.526L246.545 180.812C245.756 180.73 245.163 180.06 245.18 179.267C245.232 176.947 245.334 172.461 245.37 171.47Z" fill="white"/>
<path d="M253.615 181.959C253.54 181.959 253.465 181.955 253.389 181.947L246.5 181.233C245.482 181.128 244.732 180.278 244.754 179.256C244.853 174.865 244.918 172.166 244.945 171.453C244.952 171.272 245.072 171.115 245.245 171.062C245.578 170.96 253.467 168.595 259.279 172.101C259.466 172.214 259.537 172.45 259.443 172.648L255.606 180.703C255.238 181.474 254.457 181.959 253.615 181.959ZM245.785 171.795C245.754 172.815 245.692 175.376 245.605 179.275C245.592 179.85 246.014 180.328 246.588 180.387L253.477 181.101C254.039 181.159 254.592 180.853 254.838 180.337L258.506 172.636C253.658 169.952 247.218 171.417 245.785 171.795Z" fill="#4ECF7D"/>
<path d="M236.581 178.993C236.365 178.993 236.146 178.964 235.929 178.903L227.032 176.399C225.893 176.078 225.067 175.07 224.977 173.889L224.271 164.629C224.262 164.508 224.304 164.389 224.389 164.301C224.474 164.214 224.593 164.167 224.713 164.172C235.037 164.609 241.23 169.576 241.488 169.788C241.627 169.901 241.68 170.09 241.62 170.259C241.3 171.159 239.712 175.174 238.795 177.486C238.426 178.417 237.537 178.993 236.581 178.993ZM225.155 165.046L225.825 173.824C225.888 174.65 226.466 175.356 227.262 175.58L236.159 178.084C236.919 178.298 237.713 177.907 238.004 177.172C238.682 175.466 240.214 171.597 240.712 170.265C239.507 169.38 233.813 165.541 225.155 165.046Z" fill="#4ECF7D"/>
<path d="M245.37 171.896C245.201 171.896 245.042 171.795 244.975 171.629C244.312 169.975 241.329 170.533 241.299 170.538C241.065 170.583 240.845 170.432 240.801 170.202C240.756 169.971 240.907 169.748 241.137 169.704C241.289 169.674 244.843 169.014 245.764 171.313C245.852 171.531 245.746 171.778 245.528 171.866C245.476 171.886 245.423 171.896 245.37 171.896Z" fill="#4ECF7D"/>
<path d="M217.14 165.554C216.918 165.554 216.731 165.383 216.716 165.158C216.699 164.924 216.876 164.721 217.11 164.704L224.663 164.173C224.902 164.155 225.1 164.333 225.117 164.568C225.133 164.802 224.957 165.005 224.722 165.022L217.17 165.553C217.159 165.553 217.149 165.554 217.14 165.554Z" fill="#4ECF7D"/>
<path d="M421.599 372.42H238.376C235.847 372.42 233.797 370.361 233.797 367.822V366.74C233.797 361.745 237.83 357.695 242.805 357.695H434.803L433.262 363.445C431.843 368.74 427.061 372.42 421.599 372.42Z" fill="#4ECF7D"/>
<path d="M426.957 365.753H313.654C308.815 365.753 305.261 361.191 306.426 356.477L327.839 269.742C328.663 266.406 331.645 264.062 335.068 264.062H448.371C453.21 264.062 456.764 268.624 455.6 273.34L434.186 360.074C433.363 363.41 430.381 365.753 426.957 365.753Z" fill="#4ECF7D"/>
<path d="M426.955 365.967H313.652C311.287 365.967 309.092 364.896 307.63 363.03C306.159 361.152 305.644 358.745 306.217 356.426L327.63 269.691C328.48 266.253 331.537 263.852 335.065 263.852H448.369C450.734 263.852 452.929 264.922 454.391 266.789C455.861 268.667 456.376 271.073 455.804 273.392L434.39 360.127C433.541 363.565 430.484 365.967 426.955 365.967ZM335.066 264.277C331.733 264.277 328.846 266.545 328.043 269.793L306.63 356.528C306.089 358.719 306.576 360.993 307.965 362.768C309.346 364.53 311.418 365.541 313.652 365.541H426.955C430.288 365.541 433.175 363.273 433.977 360.025L455.391 273.29C455.932 271.1 455.445 268.826 454.056 267.051C452.676 265.288 450.602 264.277 448.369 264.277H335.066Z" fill="#4ECF7D"/>
<path d="M392.237 297.53C392.237 299.604 390.562 301.286 388.495 301.286C386.429 301.286 384.754 299.604 384.754 297.53C384.754 295.455 386.429 293.773 388.495 293.773C390.562 293.773 392.237 295.455 392.237 297.53Z" fill="#043D5F"/>
<path d="M479.156 336.711C479.156 336.711 485.597 343.949 479.74 350.884L554.801 350.573C554.801 350.573 558.368 348.221 558.655 344.135C558.943 340.048 552.351 337.225 552.351 337.225L479.156 336.711Z" fill="white"/>
<path d="M479.739 351.305C479.574 351.305 479.424 351.209 479.354 351.059C479.284 350.909 479.307 350.732 479.414 350.605C484.969 344.028 478.9 337.059 478.838 336.989C478.726 336.864 478.699 336.684 478.768 336.531C478.838 336.378 479.005 336.278 479.159 336.281L552.353 336.795C552.41 336.796 552.466 336.807 552.518 336.83C552.798 336.95 559.385 339.821 559.079 344.16C558.78 348.407 555.187 350.823 555.034 350.923C554.965 350.969 554.884 350.993 554.802 350.994L479.741 351.305H479.739ZM480.025 337.138C481.427 339.103 484.73 344.817 480.617 350.451L554.664 350.144C555.226 349.734 557.988 347.548 558.231 344.1C558.478 340.583 552.974 337.969 552.259 337.645L480.025 337.138Z" fill="#4ECF7D"/>
<path d="M577.397 334.845C577.397 334.845 583.517 336.48 584.334 342.85C585.17 349.37 579.037 352.557 579.037 352.557H477.093C476.172 352.557 475.436 352.104 475.471 351.559L475.575 349.974C475.609 349.458 476.324 349.051 477.196 349.051H550.32C552.435 349.051 554.449 347.943 555.423 346.064C555.837 345.266 556.081 344.316 555.946 343.226C555.708 341.311 554.543 340.082 553.456 339.336C552.501 338.681 551.361 338.35 550.202 338.35H477.029C476.133 338.35 475.406 337.92 475.406 337.389V335.789C475.406 335.258 476.133 334.828 477.029 334.828L577.397 334.845Z" fill="white"/>
<path d="M579.036 352.978H477.092C476.378 352.978 475.731 352.742 475.362 352.348C475.136 352.107 475.027 351.823 475.046 351.527L475.15 349.942C475.199 349.189 476.078 348.622 477.195 348.622H550.32C552.322 348.622 554.177 347.539 555.045 345.864C555.473 345.038 555.635 344.167 555.524 343.274C555.343 341.818 554.566 340.609 553.215 339.683C552.345 339.086 551.303 338.771 550.202 338.771H477.028C475.88 338.771 474.98 338.162 474.98 337.385V335.784C474.98 335.377 475.23 334.996 475.664 334.739C476.036 334.519 476.52 334.398 477.028 334.398L577.397 334.416C577.434 334.416 577.471 334.421 577.506 334.43C577.57 334.447 583.911 336.215 584.755 342.792C585.62 349.528 579.296 352.897 579.232 352.93C579.172 352.961 579.104 352.978 579.036 352.978ZM477.195 349.472C476.486 349.472 476.013 349.783 475.999 349.998L475.895 351.583C475.892 351.639 475.921 351.701 475.983 351.766C476.138 351.933 476.522 352.127 477.092 352.127H578.928C579.688 351.704 584.655 348.697 583.911 342.9C583.178 337.18 577.906 335.438 577.337 335.266L477.029 335.249C476.676 335.249 476.336 335.33 476.098 335.471C475.933 335.568 475.831 335.688 475.831 335.784V337.385C475.831 337.598 476.309 337.92 477.028 337.92H550.202C551.476 337.92 552.684 338.287 553.696 338.981C555.235 340.037 556.158 341.485 556.368 343.17C556.5 344.236 556.309 345.274 555.8 346.256C554.772 348.24 552.672 349.472 550.32 349.472H477.195Z" fill="#4ECF7D"/>
<path d="M465.008 354.242C465.008 354.242 471.449 362.527 465.591 370.466L540.652 370.109C540.652 370.109 544.219 367.418 544.507 362.74C544.795 358.062 538.202 354.831 538.202 354.831L465.008 354.242Z" fill="white"/>
<path d="M465.591 370.894C465.431 370.894 465.284 370.804 465.212 370.662C465.139 370.518 465.153 370.346 465.249 370.217C470.85 362.625 464.734 354.587 464.672 354.507C464.572 354.378 464.554 354.203 464.626 354.057C464.698 353.911 464.856 353.821 465.011 353.82L538.205 354.409C538.269 354.409 538.332 354.424 538.389 354.452C538.669 354.589 545.232 357.865 544.931 362.769C544.634 367.587 541.06 370.337 540.908 370.452C540.835 370.507 540.746 370.537 540.654 370.538L465.593 370.894H465.591ZM465.816 354.677C467.168 356.803 470.68 363.485 466.406 370.04L540.5 369.688C541.078 369.204 543.838 366.69 544.082 362.717C544.332 358.648 538.846 355.648 538.098 355.259L465.816 354.677Z" fill="#4ECF7D"/>
<path d="M563.249 352.106C563.249 352.106 569.368 353.977 570.186 361.269C571.022 368.732 564.889 372.38 564.889 372.38H462.944C462.024 372.38 461.288 371.862 461.323 371.238L461.426 369.424C461.46 368.833 462.176 368.367 463.048 368.367H535.729C538.23 368.367 540.563 366.889 541.442 364.545C541.751 363.72 541.914 362.768 541.798 361.699C541.621 360.064 540.927 358.866 540.136 358.009C538.996 356.775 537.363 356.117 535.685 356.117H462.88C461.984 356.117 461.258 355.625 461.258 355.018V353.185C461.258 352.578 461.984 352.086 462.881 352.086L563.249 352.106Z" fill="#043D5F"/>
<path d="M49.8547 255.133C33.8192 255.133 20.8203 266.796 20.8203 281.182V317.761C20.8203 332.148 33.8192 343.811 49.8547 343.811C65.8898 343.811 78.8891 332.148 78.8891 317.761V281.182C78.8891 266.795 65.8902 255.133 49.8547 255.133Z" fill="white"/>
<path d="M49.8587 344.694C33.3581 344.694 19.9336 332.609 19.9336 317.754V281.175C19.9336 266.32 33.3581 254.234 49.8587 254.234C66.3593 254.234 79.7842 266.32 79.7842 281.175V317.754C79.7838 332.609 66.3589 344.694 49.8587 344.694ZM49.8587 256.016C34.3405 256.016 21.7158 267.302 21.7158 281.175V317.754C21.7158 331.626 34.3405 342.912 49.8587 342.912C65.3769 342.912 78.002 331.627 78.002 317.754V281.175C78.002 267.302 65.3769 256.016 49.8587 256.016Z" fill="#4ECF7D"/>
<path d="M49.8597 377.258C49.3671 377.258 48.9688 376.859 48.9688 376.367V299.461C48.9688 298.969 49.3671 298.57 49.8597 298.57C50.3524 298.57 50.7509 298.969 50.7509 299.461V376.367C50.7505 376.858 50.3519 377.258 49.8597 377.258Z" fill="#4ECF7D"/>
<path d="M24.5063 302.789C14.7751 302.789 6.88672 309.867 6.88672 318.597V340.796C6.88672 349.527 14.7751 356.604 24.5063 356.604C34.2376 356.604 42.126 349.527 42.126 340.796V318.597C42.126 309.867 34.2376 302.789 24.5063 302.789Z" fill="white"/>
<path d="M24.5111 357.496C14.3043 357.496 6 350.004 6 340.796V318.598C6 309.39 14.3043 301.898 24.5111 301.898C34.7176 301.898 43.0214 309.39 43.0214 318.598V340.796C43.0214 350.004 34.7176 357.496 24.5111 357.496ZM24.5111 303.681C15.2863 303.681 7.78176 310.373 7.78176 318.598V340.797C7.78176 349.022 15.2863 355.714 24.5111 355.714C33.7356 355.714 41.2397 349.022 41.2397 340.797V318.598C41.2393 310.372 33.7352 303.681 24.5111 303.681Z" fill="#4ECF7D"/>
<path d="M24.5122 377.266C24.0196 377.266 23.6211 376.867 23.6211 376.375V329.704C23.6211 329.212 24.0196 328.812 24.5122 328.812C25.0048 328.812 25.4033 329.211 25.4033 329.704V376.375C25.4029 376.866 25.0044 377.266 24.5122 377.266Z" fill="#4ECF7D"/>
</g>
<defs>
<clipPath id="clip0_4269_322286">
<rect width="627" height="378" fill="white" transform="translate(0 0.5)"/>
</clipPath>
</defs>
</svg>
