<svg width="574" height="379" viewBox="0 0 574 379" fill="none" xmlns="http://www.w3.org/2000/svg">
<path d="M172.129 296.729H437.433V112.203H172.129V296.729Z" fill="#4ECF7D"/>
<path d="M429.109 272.289V120.523H180.453V272.289H429.109Z" fill="#BDBDBD"/>
<path d="M304.796 288.515C307.554 288.508 309.785 286.267 309.777 283.51C309.77 280.753 307.528 278.524 304.77 278.531C302.012 278.538 299.782 280.779 299.789 283.536C299.796 286.293 302.038 288.522 304.796 288.515Z" fill="#F2E6DC"/>
<path d="M340.567 346.122H269.004C268.896 346.122 268.809 346.034 268.809 345.926V342.437C268.809 342.424 268.81 342.412 268.812 342.4L276.667 300.675C276.684 300.583 276.765 300.516 276.859 300.516H332.712C332.806 300.516 332.887 300.583 332.904 300.675L340.759 342.4C340.761 342.412 340.763 342.424 340.763 342.437V345.926C340.762 346.034 340.675 346.122 340.567 346.122ZM269.2 345.73H340.371V342.455L332.55 300.907H277.021L269.2 342.455V345.73Z" fill="#BC8271"/>
<path d="M340.567 350.485H269.004C268.896 350.485 268.809 350.397 268.809 350.289C268.809 350.181 268.896 350.094 269.004 350.094H340.567C340.675 350.094 340.762 350.181 340.762 350.289C340.762 350.397 340.675 350.485 340.567 350.485Z" fill="#BC8271"/>
<path d="M291.89 263.83L285.301 261.944C285.632 258.563 285.686 255.2 285.481 251.879L292.127 250.22L286.514 227.72L279.852 229.383C278.459 226.328 276.827 223.386 274.973 220.586L279.911 215.817L263.796 199.14L258.869 203.899C256.159 201.966 253.277 200.23 250.234 198.721L252.123 192.133L229.824 185.749L227.935 192.336C224.553 192.006 221.189 191.953 217.866 192.159L216.208 185.516L193.7 191.133L195.361 197.792C192.304 199.186 189.361 200.818 186.56 202.672L181.79 197.737L165.104 213.852L169.862 218.776C167.928 221.485 166.191 224.366 164.68 227.409L158.091 225.522L151.698 247.816L158.287 249.703C157.956 253.083 157.902 256.447 158.107 259.768L151.461 261.427L157.074 283.926L163.735 282.264C165.129 285.319 166.761 288.261 168.615 291.061L163.676 295.83L179.792 312.507L184.719 307.748C187.428 309.681 190.311 311.416 193.353 312.926L191.464 319.513L213.764 325.898L215.653 319.311C219.034 319.64 222.399 319.693 225.722 319.488L227.379 326.131L249.888 320.514L248.227 313.855C251.283 312.461 254.227 310.829 257.028 308.975L261.797 313.91L278.484 297.795L273.725 292.871C275.659 290.162 277.396 287.28 278.907 284.238L285.496 286.125L291.89 263.83ZM260.782 268.38C254.213 288.805 232.606 300.785 211.799 295.54C188.824 289.748 175.551 265.819 182.805 243.266C189.374 222.841 210.981 210.861 231.788 216.106C254.764 221.898 268.036 245.827 260.782 268.38Z" fill="white"/>
<path d="M221.792 306.805C217.123 306.805 212.398 306.163 207.736 304.828C194.643 301.079 183.796 292.457 177.192 280.551C170.587 268.644 169.018 254.878 172.771 241.788C176.157 229.981 183.687 219.795 193.974 213.105C204.158 206.483 216.365 203.697 228.345 205.261C228.48 205.279 228.576 205.402 228.558 205.537C228.54 205.672 228.417 205.768 228.281 205.75C203.74 202.547 180.078 218.097 173.245 241.923C169.528 254.887 171.083 268.52 177.623 280.311C184.163 292.103 194.906 300.641 207.872 304.353C229.989 310.686 253.593 301.29 265.272 281.505C265.341 281.388 265.492 281.349 265.61 281.418C265.727 281.487 265.766 281.639 265.697 281.756C256.365 297.564 239.492 306.805 221.792 306.805Z" fill="#F2E6DC"/>
<path d="M374.116 81.2891H158.02V151.841H374.116V81.2891Z" fill="white"/>
<path d="M379.369 156.136H163.274C163.151 156.136 163.051 156.036 163.051 155.913V85.9736C163.051 85.8501 163.151 85.75 163.274 85.75H379.369C379.493 85.75 379.593 85.8501 379.593 85.9736V155.913C379.593 156.036 379.493 156.136 379.369 156.136ZM163.498 155.689H379.146V86.1972H163.498V155.689Z" fill="#E2A18D"/>
<path d="M314.543 100.002H278.645C278.522 100.002 278.422 99.9018 278.422 99.7783C278.422 99.6549 278.522 99.5547 278.645 99.5547H314.543C314.666 99.5547 314.766 99.6549 314.766 99.7783C314.766 99.9018 314.666 100.002 314.543 100.002Z" fill="#4ECF7D"/>
<path d="M257.634 100.002H177.661C177.537 100.002 177.438 99.9018 177.438 99.7783C177.438 99.6549 177.537 99.5547 177.661 99.5547H257.634C257.758 99.5547 257.858 99.6549 257.858 99.7783C257.858 99.9018 257.757 100.002 257.634 100.002Z" fill="#4ECF7D"/>
<path d="M314.541 107.502H220.583C220.459 107.502 220.359 107.402 220.359 107.278C220.359 107.155 220.459 107.055 220.583 107.055H314.541C314.665 107.055 314.765 107.155 314.765 107.278C314.765 107.402 314.665 107.502 314.541 107.502Z" fill="#4ECF7D"/>
<path d="M209.408 107.502H177.661C177.537 107.502 177.438 107.402 177.438 107.278C177.438 107.155 177.537 107.055 177.661 107.055H209.408C209.532 107.055 209.632 107.155 209.632 107.278C209.631 107.402 209.531 107.502 209.408 107.502Z" fill="#4ECF7D"/>
<path d="M314.543 114.525H278.645C278.522 114.525 278.422 114.425 278.422 114.302C278.422 114.178 278.522 114.078 278.645 114.078H314.543C314.666 114.078 314.766 114.178 314.766 114.302C314.766 114.425 314.666 114.525 314.543 114.525Z" fill="#4ECF7D"/>
<path d="M257.634 114.525H177.661C177.537 114.525 177.438 114.425 177.438 114.302C177.438 114.178 177.537 114.078 177.661 114.078H257.634C257.758 114.078 257.858 114.178 257.858 114.302C257.858 114.425 257.757 114.525 257.634 114.525Z" fill="#4ECF7D"/>
<path d="M314.542 122.018H246.845C246.721 122.018 246.621 121.917 246.621 121.794C246.621 121.67 246.721 121.57 246.845 121.57H314.542C314.666 121.57 314.766 121.67 314.766 121.794C314.766 121.917 314.666 122.018 314.542 122.018Z" fill="#4ECF7D"/>
<path d="M230.417 122.018H177.661C177.537 122.018 177.438 121.917 177.438 121.794C177.438 121.67 177.537 121.57 177.661 121.57H230.417C230.54 121.57 230.64 121.67 230.64 121.794C230.64 121.917 230.54 122.018 230.417 122.018Z" fill="#4ECF7D"/>
<path d="M314.542 132.791H231.747C231.623 132.791 231.523 132.691 231.523 132.567C231.523 132.444 231.623 132.344 231.747 132.344H314.542C314.665 132.344 314.765 132.444 314.765 132.567C314.765 132.691 314.665 132.791 314.542 132.791Z" fill="#4ECF7D"/>
<path d="M314.541 140.283H281.88C281.756 140.283 281.656 140.183 281.656 140.06C281.656 139.936 281.756 139.836 281.88 139.836H314.541C314.665 139.836 314.765 139.936 314.765 140.06C314.765 140.183 314.665 140.283 314.541 140.283Z" fill="#4ECF7D"/>
<path d="M269.055 140.283H223.567C223.444 140.283 223.344 140.183 223.344 140.06C223.344 139.936 223.444 139.836 223.567 139.836H269.055C269.179 139.836 269.279 139.936 269.279 140.06C269.279 140.183 269.179 140.283 269.055 140.283Z" fill="#4ECF7D"/>
<path d="M333.949 104.355L333.963 114.746C333.97 120.485 338.625 125.131 344.359 125.123C350.094 125.116 354.736 120.458 354.729 114.719L354.715 104.328L333.949 104.355Z" fill="#4ECF7D"/>
<path d="M344.304 109.179C359.151 109.179 371.187 97.1347 371.187 82.2771C371.187 67.4195 359.151 55.375 344.304 55.375C329.458 55.375 317.422 67.4195 317.422 82.2771C317.422 97.1347 329.458 109.179 344.304 109.179Z" fill="#043D5F"/>
<path d="M344.284 118.51C340.745 118.51 334.174 118.17 334.172 116.876C334.172 116.753 334.272 116.652 334.395 116.652C334.519 116.652 334.619 116.752 334.619 116.875C334.721 117.302 338.027 118.063 344.255 118.063C344.288 118.063 344.32 118.063 344.354 118.063C350.646 118.055 353.984 117.279 354.085 116.848C354.085 116.724 354.185 116.625 354.308 116.625H354.309C354.432 116.625 354.532 116.726 354.532 116.849C354.534 118.152 347.875 118.505 344.354 118.51C344.331 118.51 344.307 118.51 344.284 118.51Z" fill="white"/>
<path d="M344.276 113.955C340.737 113.955 334.166 113.615 334.164 112.321C334.164 112.198 334.264 112.098 334.387 112.097C334.511 112.097 334.611 112.197 334.611 112.321C334.714 112.75 338.056 113.508 344.346 113.508C350.638 113.5 353.976 112.725 354.077 112.293C354.077 112.169 354.177 112.071 354.301 112.07C354.424 112.07 354.524 112.171 354.524 112.295C354.526 113.598 347.867 113.95 344.346 113.955C344.323 113.955 344.299 113.955 344.276 113.955Z" fill="white"/>
<path d="M340.737 102.858C340.65 102.858 340.567 102.807 340.531 102.722L332.057 82.8663C332.009 82.7527 332.062 82.6212 332.175 82.5727C332.287 82.5244 332.42 82.5767 332.469 82.6905L340.942 102.547C340.991 102.66 340.938 102.792 340.824 102.84C340.796 102.853 340.766 102.858 340.737 102.858Z" fill="#4ECF7D"/>
<path d="M347.915 102.849C347.886 102.849 347.856 102.843 347.828 102.831C347.714 102.783 347.661 102.651 347.709 102.538L356.131 82.6598C356.18 82.5457 356.312 82.4934 356.424 82.541C356.538 82.5893 356.591 82.7206 356.543 82.8342L348.121 102.712C348.085 102.798 348.002 102.849 347.915 102.849Z" fill="#4ECF7D"/>
<path d="M339.472 85.3959C338.422 85.3959 337.375 85.1423 336.461 84.6215C336.353 84.5605 336.316 84.4238 336.377 84.3165C336.438 84.2089 336.574 84.1716 336.682 84.2326C338.605 85.3277 341.161 85.1492 342.937 83.8429C341.333 82.9806 340.037 81.5308 339.489 79.7817C339.096 78.5261 339.129 77.2989 339.584 76.326C340.134 75.1477 341.326 74.4047 342.487 74.5194C343.833 74.6525 344.782 75.8349 345.22 76.8971C346.165 79.1918 345.547 82.0325 343.754 83.7407C344.728 84.1481 345.791 84.3306 346.849 84.223C349.837 83.9203 352.419 81.3409 352.725 78.3505C352.738 78.2278 352.85 78.1383 352.971 78.1509C353.093 78.1634 353.183 78.2732 353.17 78.3962C352.843 81.5898 350.086 84.3447 346.894 84.668C345.691 84.7897 344.479 84.5607 343.384 84.0636C342.285 84.9415 340.876 85.3959 339.472 85.3959ZM342.257 74.9557C341.354 74.9557 340.423 75.5863 339.989 76.5154C339.582 77.3868 339.556 78.4995 339.916 79.6479C340.448 81.3465 341.734 82.7438 343.314 83.5383C345.079 81.9697 345.706 79.2519 344.806 77.0677C344.418 76.1254 343.593 75.0782 342.443 74.9646C342.381 74.9588 342.319 74.9557 342.257 74.9557Z" fill="white"/>
<path d="M20.69 358.315L3.60547 358.059L8.69594 336.039L26.106 338.94L20.69 358.315Z" fill="white"/>
<path d="M44.5616 369.656H0.320312L4.39393 352.75H21.726L34.2594 356.572C40.4019 358.235 44.6181 363.59 44.5616 369.656Z" fill="#4ECF7D"/>
<path d="M24.4536 357.222C24.4035 357.222 24.3534 357.203 24.3152 357.165C24.2387 357.089 24.2387 356.965 24.3152 356.888L27.0846 354.12C27.1611 354.043 27.2848 354.043 27.3613 354.12C27.4378 354.196 27.4378 354.32 27.3613 354.397L24.5919 357.165C24.5538 357.203 24.5037 357.222 24.4536 357.222Z" fill="#4ECF7D"/>
<path d="M27.6058 358.168C27.5557 358.168 27.5056 358.149 27.4675 358.11C27.391 358.034 27.391 357.91 27.4675 357.834L30.237 355.065C30.3135 354.989 30.4372 354.989 30.5137 355.065C30.5902 355.142 30.5902 355.266 30.5137 355.342L27.7441 358.11C27.7058 358.149 27.6559 358.168 27.6058 358.168Z" fill="#4ECF7D"/>
<path d="M100.436 361.61L83.3516 361.354L83.8793 336.039L101.289 338.94L100.436 361.61Z" fill="white"/>
<path d="M123.964 369.656H79.7227L83.5326 352.75H101.128L113.662 356.572C119.804 358.235 124.02 363.59 123.964 369.656Z" fill="#4ECF7D"/>
<path d="M103.875 357.504C103.825 357.504 103.775 357.485 103.737 357.446C103.661 357.37 103.661 357.246 103.737 357.17L106.507 354.401C106.583 354.325 106.707 354.325 106.783 354.401C106.86 354.478 106.86 354.601 106.783 354.678L104.014 357.446C103.976 357.485 103.926 357.504 103.875 357.504Z" fill="#4ECF7D"/>
<path d="M107.024 358.449C106.974 358.449 106.924 358.43 106.886 358.392C106.809 358.315 106.809 358.191 106.886 358.115L109.655 355.346C109.732 355.27 109.855 355.27 109.932 355.346C110.008 355.423 110.008 355.547 109.932 355.623L107.162 358.392C107.124 358.43 107.074 358.449 107.024 358.449Z" fill="#4ECF7D"/>
<path d="M78.4911 191.516L66.776 238.62L66.7646 238.665L66.762 238.712C65.0528 268.808 54.5991 294.841 44.5641 313.358C39.5475 322.615 34.6382 329.988 30.9843 335.046C29.1575 337.575 27.6448 339.524 26.5898 340.84C26.0623 341.498 25.6492 341.998 25.3686 342.332C25.2522 342.471 25.1585 342.582 25.089 342.663H6.39453L6.434 342.441C6.52845 341.911 6.66791 341.13 6.84795 340.125C7.20803 338.116 7.73039 335.213 8.37949 331.642C9.67769 324.498 11.4828 314.677 13.5104 303.966C17.5666 282.538 22.5102 257.568 26.0673 243.345C29.6226 229.129 34.0346 216.161 37.5585 206.745C39.3202 202.038 40.8595 198.22 41.958 195.58C42.5072 194.26 42.9463 193.234 43.2478 192.539C43.3916 192.207 43.5041 191.951 43.5824 191.773L78.4911 191.516Z" fill="white" stroke="#4ECF7D"/>
<path d="M62.4605 188.078H85.639C85.6546 188.121 85.6716 188.168 85.6902 188.219C85.8024 188.53 85.9682 188.99 86.1826 189.589C86.6113 190.787 87.2343 192.542 88.0108 194.768C89.5638 199.219 91.7307 205.553 94.186 213.081C99.0972 228.138 105.16 247.967 109.772 267.067C114.365 286.088 112.595 304.663 109.67 318.497C108.207 325.412 106.458 331.135 105.074 335.128C104.382 337.124 103.782 338.688 103.356 339.75C103.143 340.282 102.973 340.688 102.857 340.961C102.839 341.002 102.823 341.04 102.808 341.075H81.2009C80.3663 308.842 74.9778 285.482 69.7778 270.151C67.1649 262.447 64.5999 256.772 62.685 253.019C61.7276 251.142 60.9328 249.745 60.3758 248.816C60.0973 248.351 59.8783 248.003 59.7281 247.771C59.6723 247.684 59.6261 247.614 59.5898 247.559L62.4605 188.078Z" fill="white" stroke="#4ECF7D"/>
<path d="M65.5122 254.968C65.4991 254.968 65.4856 254.967 65.4723 254.964C65.3666 254.942 65.2985 254.839 65.3205 254.733L69.3348 235.35C69.3452 235.3 69.3745 235.256 69.4168 235.228L75.2576 231.276C75.3476 231.215 75.4689 231.239 75.5294 231.328C75.59 231.418 75.5665 231.539 75.4769 231.6L69.7016 235.507L65.7036 254.812C65.6846 254.905 65.603 254.968 65.5122 254.968Z" fill="#F2E6DC"/>
<path d="M84.8599 138.975C79.4767 137.824 70.7992 136.313 62.9146 137.162C53.7245 138.153 39.8289 142.641 33.8369 146.215C20.4411 154.207 15.125 161.122 15.125 161.122L35.4387 165.69L25.9097 193.392C22.6033 203.005 24.0296 213.955 29.6042 222.457L43.9658 222.255L41.7421 206.886L48.6667 220.764L88.5091 193.983L90.0018 169.333L115.742 162.175C115.742 162.175 94.304 140.994 84.8599 138.975Z" fill="#043D5F"/>
<path d="M89.2276 177.951C89.2276 177.951 100.609 186.333 109.304 183.623C117.999 180.912 119.7 174.675 119.166 170.899C118.633 167.122 104.481 142.786 82.7313 138.281C82.7313 138.281 80.6804 165.962 89.2276 177.951Z" fill="#043D5F"/>
<path d="M89.4614 177.992H89.458C89.3498 177.99 89.2639 177.901 89.2657 177.793L89.3252 174.27C89.3273 174.162 89.4261 174.077 89.5242 174.078C89.6324 174.08 89.7183 174.169 89.7165 174.277L89.6569 177.799C89.655 177.906 89.568 177.992 89.4614 177.992Z" fill="#4ECF7D"/>
<path d="M35.7743 226.045L48.4339 212.367L44.055 195.758L30.6479 195.882L17.9883 209.56L24.7476 223.712L35.7743 226.045Z" fill="white"/>
<path d="M138.641 114.899L48.4344 212.367L30.6484 195.882L120.855 98.4141L132.777 103.384L138.641 114.899Z" fill="#043D5F"/>
<path d="M7.60185 220.783C-0.786839 229.847 -1.95669 239.704 2.95495 244.256C7.86638 248.808 16.9992 246.332 25.3879 237.268L36.04 225.758L18.254 209.273L7.60185 220.783Z" fill="#4ECF7D"/>
<path d="M120.855 98.4138L138.641 114.899L144.064 101.488L142.274 94.7409L133.802 91.9766L120.855 98.4138Z" fill="#F2E6DC"/>
<path d="M133.805 91.9759L144.067 101.488L151.464 83.1953L133.805 91.9759Z" fill="#40484C"/>
<path d="M71.4544 172.932C69.4669 173.534 60.8066 174.716 59.4487 178.553C58.0813 182.418 59.6385 186.658 62.2028 189.838C62.2193 189.841 62.2376 189.843 62.2539 189.845C63.2697 190.345 64.8671 190.938 66.7333 190.718C68.8607 190.467 69.2998 189.401 71.505 188.787C75.2275 187.751 77.6752 189.867 78.3024 188.652C78.7331 187.817 77.3605 186.522 75.7992 185.668C74.1963 184.79 72.7866 184.899 72.7872 184.599C72.788 184.27 74.2333 184.346 76.04 184.274C76.8794 184.241 79.2338 185.567 79.9898 184.512C80.5926 183.672 78.4936 181.68 76.016 181.171C74.2633 180.81 72.7373 181.65 72.6406 181.338C72.5681 181.105 73.4896 180.627 74.4057 180.45C75.9172 180.159 78.3404 181.49 79.0176 180.506C79.6809 179.542 77.817 177.835 75.5685 177.222C73.6727 176.705 72.0157 177.722 71.8932 177.336C71.8071 177.064 72.455 176.455 74.1279 175.638C75.5243 174.955 78.6763 174.525 78.1864 172.963C77.7745 171.65 74.4542 172.023 71.4544 172.932Z" fill="white"/>
<path d="M28.915 181.687C24.5436 183.069 21.5027 187.128 21.604 191.689C21.6704 194.68 23.0973 197.783 27.7485 199.702C39.0733 204.376 64.7369 188.44 64.7369 188.44L67.8978 173.766C53.1253 176.215 40.9473 177.886 28.915 181.687Z" fill="white"/>
<path d="M43.92 177.891L46.041 199.795L26.6146 202.798C14.1389 204.726 0.0622425 192.279 2.98284 180.003C5.53854 169.26 11.855 163.245 24.5443 152.469L41.1268 157.396L34.0048 178.285L43.92 177.891Z" fill="#043D5F"/>
<path d="M34.0043 178.486C33.9833 178.486 33.962 178.483 33.9413 178.476C33.8389 178.441 33.7842 178.33 33.8192 178.227L37.0372 168.789C37.072 168.687 37.1839 168.632 37.2855 168.667C37.3878 168.702 37.4426 168.813 37.4076 168.915L34.1896 178.354C34.1618 178.435 34.0857 178.486 34.0043 178.486Z" fill="#4ECF7D"/>
<path d="M23.8288 203.209C22.6513 203.209 21.483 203.093 20.3331 202.863C20.2271 202.842 20.1584 202.739 20.1797 202.633C20.2008 202.527 20.3038 202.458 20.41 202.48C22.4278 202.884 24.5048 202.926 26.5834 202.604L45.8273 199.629L45.337 194.566C45.3264 194.458 45.4053 194.363 45.5127 194.352C45.6217 194.342 45.7158 194.421 45.7264 194.528L46.2347 199.776C46.2449 199.879 46.1725 199.972 46.0697 199.988L26.6431 202.991C25.7032 203.136 24.763 203.209 23.8288 203.209Z" fill="#4ECF7D"/>
<path d="M31.0665 178.597C30.962 178.597 30.8754 178.515 30.8713 178.41C30.8669 178.302 30.9509 178.211 31.0589 178.206L43.9123 177.695C44.0227 177.692 44.1115 177.775 44.1156 177.883C44.1201 177.991 44.036 178.082 43.928 178.086L31.0745 178.597C31.0718 178.597 31.0691 178.597 31.0665 178.597Z" fill="#4ECF7D"/>
<path d="M89.1289 161.887L102.922 177.16C106.655 181.293 113.06 181.544 117.106 177.715C121.496 173.559 121.178 166.477 116.432 162.732L100.507 150.164L89.1289 161.887Z" fill="white"/>
<path d="M98.1323 157.946C100.405 158.312 101.098 159.476 100.894 160.741C100.69 162.006 99.6653 162.892 97.3925 162.526C95.1197 162.159 92.4592 160.677 92.6634 159.413C92.8677 158.148 95.8595 157.579 98.1323 157.946Z" fill="white"/>
<path d="M98.3395 153.494C100.974 153.919 101.777 155.268 101.54 156.734C101.304 158.2 100.116 159.228 97.4821 158.803C94.848 158.377 91.7644 156.66 92.0011 155.195C92.2379 153.729 95.7051 153.069 98.3395 153.494Z" fill="white"/>
<path d="M99.3182 150.612C101.591 150.978 102.616 150.092 102.82 148.827C103.024 147.562 102.331 146.398 100.058 146.032C97.7853 145.665 94.7936 146.234 94.5892 147.499C94.3847 148.763 97.0453 150.245 99.3182 150.612Z" fill="white"/>
<path d="M98.1149 154.904C100.749 155.329 101.937 154.302 102.173 152.836C102.41 151.37 101.607 150.021 98.9723 149.596C96.3381 149.171 92.8706 149.83 92.6339 151.296C92.3971 152.762 95.4807 154.479 98.1149 154.904Z" fill="white"/>
<path d="M49.3029 147.409L48.2853 147.393C45.2645 147.345 42.8548 144.857 42.9031 141.836L43.2103 122.625C43.2586 119.604 45.7464 117.195 48.7672 117.243L49.7848 117.259C52.8056 117.307 55.2154 119.795 55.167 122.816L54.8599 142.027C54.8115 145.048 52.3235 147.458 49.3029 147.409Z" fill="white"/>
<path d="M63.3465 129.109C62.5864 132.827 51.8144 133.351 51.8144 133.351L41.3276 130.21C37.6815 126.31 37.8881 120.194 41.7892 116.549C45.6902 112.905 51.8085 113.111 55.4546 117.011C55.4546 117.011 64.1207 125.323 63.3465 129.109Z" fill="white"/>
<path d="M56.3789 119.625C56.3789 119.625 60.3001 119.849 60.7069 120.496C61.1925 121.267 59.3584 123.728 59.3584 123.728C59.3584 123.728 56.4362 119.581 56.3789 119.625Z" fill="white"/>
<path d="M48.8867 123.501C48.8867 123.501 49.684 122.107 51.1309 121.205C51.4387 121.013 52.3951 123.837 52.0159 123.88C50.3485 124.069 48.8867 123.501 48.8867 123.501Z" fill="white"/>
<mask id="mask0_4269_322190" style="mask-type:luminance" maskUnits="userSpaceOnUse" x="48" y="120" width="9" height="4">
<path d="M48.8867 123.501C48.8867 123.501 50.0594 121.451 52.1411 120.714C54.2227 119.977 56.4252 120.831 56.4252 120.831C56.4252 120.831 55.2524 122.881 53.1708 123.619C51.089 124.356 48.8867 123.501 48.8867 123.501Z" fill="white"/>
</mask>
<g mask="url(#mask0_4269_322190)">
<path d="M51.1493 121.104C51.5091 119.551 53.0605 118.583 54.6144 118.942C56.1684 119.302 57.1365 120.853 56.7767 122.406C56.4168 123.96 54.8655 124.927 53.3115 124.568C51.7576 124.208 50.7895 122.657 51.1493 121.104Z" fill="#4ECF7D"/>
</g>
<path d="M33.1211 123.38C33.1211 123.38 36.7293 133.989 44.4279 132.312L44.8458 129.945L49.3037 128.623L44.7093 125.755C43.1047 124.507 43.0428 122.104 44.5809 120.775L51.2957 114.976L47.9834 111.57C41.1618 112.815 35.942 116.368 33.1211 123.38Z" fill="#4ECF7D"/>
<path d="M39.5792 115.814C38.9947 116.647 37.8454 116.849 37.0119 116.265C36.1784 115.681 35.5404 114.226 36.1246 113.393C36.7091 112.56 38.2947 112.664 39.128 113.248C39.9615 113.832 40.1634 114.981 39.5792 115.814Z" fill="#4ECF7D"/>
<path d="M40.9542 115.282C40.0385 115.726 38.9357 115.344 38.4912 114.429C38.0467 113.514 38.1959 111.932 39.1118 111.488C40.0275 111.043 41.3629 111.904 41.8074 112.82C42.2518 113.735 41.8698 114.837 40.9542 115.282Z" fill="#4ECF7D"/>
<path d="M43.9256 114.168C42.5984 114.545 41.217 113.775 40.8402 112.448C40.4634 111.121 41.0365 109.046 42.3636 108.669C43.6908 108.293 45.2693 109.757 45.6462 111.084C46.023 112.411 45.2527 113.791 43.9256 114.168Z" fill="#4ECF7D"/>
<path d="M37.5336 117.905C36.9763 118.757 35.8341 118.996 34.9822 118.439C34.1303 117.882 33.4454 116.449 34.0027 115.597C34.5599 114.745 36.1479 114.798 37 115.355C37.8517 115.912 38.0908 117.054 37.5336 117.905Z" fill="#4ECF7D"/>
<path d="M45.945 112.988C44.8241 112.487 44.3218 111.172 44.8233 110.052C45.3248 108.931 46.9024 107.843 48.0233 108.344C49.1442 108.846 49.3839 110.747 48.8824 111.867C48.3812 112.988 47.0659 113.49 45.945 112.988Z" fill="#4ECF7D"/>
<path d="M36.2557 119.952C35.7685 121.122 34.4243 121.676 33.2533 121.189C32.0825 120.702 30.9154 119.103 31.4026 117.933C31.8898 116.762 33.8467 116.463 35.0178 116.95C36.1888 117.438 36.7429 118.781 36.2557 119.952Z" fill="#4ECF7D"/>
<path d="M34.7724 121.73C34.8364 122.718 34.0876 123.57 33.0997 123.634C32.1118 123.698 30.7422 122.983 30.6781 121.996C30.6141 121.008 31.8798 120.123 32.8677 120.059C33.8556 119.994 34.7083 120.743 34.7724 121.73Z" fill="#4ECF7D"/>
<path d="M48.2074 114.682C47.1017 113.673 47.0236 111.959 48.0329 110.854C49.0421 109.749 51.2849 109.092 52.3904 110.101C53.4961 111.11 53.0458 113.402 52.0366 114.508C51.0274 115.613 49.3131 115.691 48.2074 114.682Z" fill="#4ECF7D"/>
<path d="M39.9839 131.515C40.6147 133.245 42.5288 134.136 44.2592 133.505C45.9896 132.875 46.8811 130.961 46.2501 129.232C45.6192 127.502 43.7051 126.611 41.9749 127.242C40.2443 127.872 39.3531 129.786 39.9839 131.515Z" fill="white"/>
<path d="M60.2496 122.336L64.9933 128.922C65.6539 129.839 65.4154 131.119 64.4709 131.739C64.2334 131.896 63.9745 132.062 63.6967 132.235C58.8903 135.227 52.8769 135.528 47.7992 133.023C46.0981 132.183 45.092 130.381 45.2703 128.494L45.329 127.871L47.0821 127.448C47.0821 127.448 50.9195 129.897 52.3612 129.029C53.8028 128.161 55.1722 125.121 60.2496 122.336Z" fill="#4ECF7D"/>
<path d="M57.8392 127.137C57.3505 127.137 56.8762 126.903 56.5809 126.501C56.517 126.414 56.5356 126.292 56.6228 126.228C56.7097 126.163 56.8322 126.182 56.8961 126.269C57.1574 126.625 57.6044 126.805 58.0361 126.728C58.4835 126.649 58.8453 126.31 58.9576 125.866C58.9842 125.762 59.0905 125.698 59.1953 125.725C59.3002 125.751 59.3634 125.858 59.3372 125.963C59.1869 126.555 58.7033 127.007 58.1045 127.114C58.0163 127.129 57.9275 127.137 57.8392 127.137Z" fill="white"/>
<path d="M38.1056 123.066C38.0031 123.066 37.9168 122.986 37.9105 122.883C37.9039 122.775 37.9861 122.682 38.0937 122.675L42.9767 122.375C43.0898 122.369 43.1773 122.451 43.1841 122.559C43.1908 122.666 43.1086 122.759 43.001 122.766L38.1179 123.066C38.1136 123.066 38.1095 123.066 38.1056 123.066Z" fill="white"/>
<path d="M564.325 118.742H382.285V220.107H564.325V118.742Z" fill="white"/>
<path d="M568.755 224.624H386.715C386.607 224.624 386.52 224.536 386.52 224.428V123.063C386.52 122.955 386.607 122.867 386.715 122.867H568.755C568.863 122.867 568.95 122.955 568.95 123.063V224.428C568.95 224.536 568.863 224.624 568.755 224.624ZM386.911 224.232H568.559V123.259H386.911V224.232Z" fill="#E2A18D"/>
<path d="M493.792 137.188H397.355V206.473H493.792V137.188Z" fill="#F7F1EB"/>
<path d="M445.918 183.658C455.212 183.658 462.746 176.119 462.746 166.818C462.746 157.517 455.212 149.977 445.918 149.977C436.624 149.977 429.09 157.517 429.09 166.818C429.09 176.119 436.624 183.658 445.918 183.658Z" fill="#4ECF7D"/>
<path d="M455.831 166.82L439.984 157.664V175.975L455.831 166.82Z" fill="white"/>
<path d="M489.535 195.641H402.297V200.159H489.535V195.641Z" fill="#4ECF7D"/>
<path d="M542.049 160.643H508.426C503.539 160.643 499.562 156.667 499.562 151.779C499.562 146.875 503.539 142.898 508.426 142.898H542.049C546.936 142.898 550.913 146.875 550.913 151.762C550.913 156.666 546.936 160.643 542.049 160.643ZM508.426 143.29C503.755 143.29 499.953 147.09 499.953 151.762C499.953 156.451 503.755 160.251 508.426 160.251H542.049C546.721 160.251 550.522 156.451 550.522 151.779C550.522 147.091 546.721 143.29 542.049 143.29H508.426Z" fill="#043D5F"/>
<path d="M542.045 189.22H508.422C503.635 189.22 499.754 185.339 499.754 180.552V180.535C499.754 175.748 503.635 171.867 508.422 171.867H542.045C546.833 171.867 550.714 175.748 550.714 180.535V180.552C550.714 185.339 546.833 189.22 542.045 189.22Z" fill="#043D5F"/>
<path d="M536.174 206.31C536.154 206.31 536.133 206.307 536.113 206.301C536.037 206.276 535.983 206.207 535.979 206.126L534.36 178.785C534.355 178.706 534.399 178.631 534.471 178.597C534.542 178.563 534.628 178.576 534.687 178.63L554.875 197.123C554.934 197.177 554.954 197.262 554.926 197.337C554.897 197.412 554.825 197.462 554.744 197.463L543.489 197.551L536.325 206.239C536.287 206.285 536.231 206.31 536.174 206.31ZM534.779 179.244L536.34 205.606L543.246 197.232C543.282 197.187 543.337 197.161 543.395 197.161L554.244 197.075L534.779 179.244Z" fill="#C2C2C2"/>
<path opacity="0.5" d="M189.945 9.34375H286.82V35.8963H277.69V55.3718L258.207 35.8963H189.945V9.34375Z" fill="white"/>
<path d="M274.694 58.5999C274.635 58.5999 274.577 58.5767 274.534 58.5333L255.118 39.1245H186.95C186.824 39.1245 186.723 39.0226 186.723 38.8971V12.3445C186.723 12.219 186.824 12.1172 186.95 12.1172H283.825C283.951 12.1172 284.052 12.219 284.052 12.3445V38.8971C284.052 39.0226 283.951 39.1245 283.825 39.1245H274.922V58.3726C274.922 58.4644 274.866 58.5474 274.781 58.5827C274.753 58.5945 274.723 58.5999 274.694 58.5999ZM187.177 38.6698H255.212C255.272 38.6698 255.33 38.6937 255.373 38.7364L274.467 57.8238V38.8971C274.467 38.7716 274.569 38.6698 274.694 38.6698H283.598V12.5718H187.177V38.6698Z" fill="#4ECF7D"/>
<path d="M272.526 22.3233L268.211 22.8691L271.269 25.9602L270.455 30.2306L274.341 28.279L278.152 30.3723L277.496 26.0748L280.666 23.0983L276.374 22.394L274.522 18.4609L272.526 22.3233Z" fill="#043D5F"/>
<path d="M254.537 22.3233L250.223 22.8691L253.281 25.9602L252.466 30.2306L256.352 28.279L260.164 30.3723L259.508 26.0748L262.677 23.0983L258.386 22.394L256.533 18.4609L254.537 22.3233Z" fill="#043D5F"/>
<path d="M236.553 22.3233L232.238 22.8691L235.296 25.9602L234.482 30.2306L238.368 28.279L242.18 30.3723L241.523 26.0748L244.693 23.0983L240.401 22.394L238.549 18.4609L236.553 22.3233Z" fill="#043D5F"/>
<path d="M218.568 22.3233L214.254 22.8691L217.312 25.9602L216.498 30.2306L220.384 28.279L224.195 30.3723L223.539 26.0748L226.708 23.0983L222.417 22.394L220.564 18.4609L218.568 22.3233Z" fill="#043D5F"/>
<path d="M200.584 22.3233L196.27 22.8691L199.327 25.9602L198.513 30.2306L202.399 28.279L206.211 30.3723L205.555 26.0748L208.724 23.0983L204.433 22.394L202.58 18.4609L200.584 22.3233Z" fill="#043D5F"/>
</svg>
