<svg width="48" height="36" viewBox="0 0 48 36" fill="none" xmlns="http://www.w3.org/2000/svg">
<path d="M14.0073 0.835953C13.7434 0.834914 13.482 0.885814 13.238 0.985625C12.994 1.08544 12.7723 1.23215 12.5857 1.41746C12.3991 1.60278 12.2512 1.82295 12.1507 2.06528C12.0502 2.30761 11.999 2.56736 12 2.82944C12.0009 3.0903 12.0535 3.34838 12.1549 3.58903C12.2563 3.82967 12.4045 4.04815 12.5909 4.23192C12.7773 4.41569 12.9983 4.56119 13.2413 4.66009C13.4844 4.75899 13.7447 4.80931 14.0073 4.80827H39.9993C42.2315 4.80827 43.9992 6.5638 43.9992 8.7806V27.5135C43.9992 29.7303 42.2315 31.4712 39.9993 31.4712H20.6788C20.4149 31.4702 20.1534 31.5211 19.9094 31.6209C19.6654 31.7207 19.4437 31.8674 19.2571 32.0527C19.0705 32.238 18.9227 32.4582 18.8222 32.7005C18.7216 32.9429 18.6704 33.2026 18.6714 33.4647C18.6723 33.7255 18.7249 33.9836 18.8263 34.2243C18.9277 34.4649 19.0759 34.6834 19.2623 34.8672C19.4487 35.0509 19.6697 35.1964 19.9128 35.2953C20.1558 35.3942 20.4161 35.4446 20.6788 35.4435H39.9993C44.3928 35.4435 47.9991 31.8766 47.9991 27.5135V8.7806C47.9991 4.41755 44.3928 0.835953 39.9993 0.835953H14.0073Z" fill="#2D324F"/>
<path d="M7.26366 21.2429C3.25852 21.345 0 24.6422 0 28.6427V31.4738C0 33.6437 1.81783 35.4452 4.00279 35.4452H21.342C23.5269 35.4452 25.3447 33.6437 25.3447 31.4738V28.6427C25.3447 24.5787 21.982 21.2429 17.8898 21.2429H7.45496C7.39103 21.2429 7.32721 21.2413 7.26366 21.2429Z" fill="#043D5F"/>
<path d="M12.8338 0.766392C8.39484 0.878065 4.74992 4.48638 4.75 8.89919C4.75 13.3819 8.51045 17.0202 13.0447 17.0202C17.5789 17.0202 21.3275 13.3819 21.3275 8.89919C21.3275 4.41636 17.5789 0.766392 13.0447 0.766392C12.9738 0.766392 12.9043 0.764666 12.8338 0.766392Z" fill="#043D5F"/>
<path d="M26.0073 16.1563C25.7434 16.1552 25.482 16.206 25.238 16.3058C24.994 16.4056 24.7722 16.5525 24.5856 16.7378C24.399 16.9231 24.2512 17.1433 24.1507 17.3856C24.0502 17.6279 23.999 17.8877 24 18.1498C24.0009 18.4106 24.0536 18.6687 24.155 18.9093C24.2564 19.15 24.4045 19.3685 24.5909 19.5522C24.7773 19.736 24.9983 19.8814 25.2413 19.9803C25.4844 20.0792 25.7447 20.1296 26.0073 20.1286H37.9923C38.255 20.1296 38.5153 20.0792 38.7583 19.9803C39.0014 19.8814 39.2224 19.736 39.4088 19.5522C39.5952 19.3685 39.7433 19.15 39.8446 18.9093C39.946 18.6687 39.9987 18.4106 39.9996 18.1498C40.0007 17.8877 39.9494 17.6279 39.8489 17.3856C39.7484 17.1433 39.6006 16.9231 39.414 16.7378C39.2274 16.5525 39.0057 16.4056 38.7616 16.3058C38.5176 16.206 38.2562 16.1552 37.9923 16.1563H26.0073Z" fill="#043D5F"/>
<path d="M26.0073 8.84377C25.7447 8.84273 25.4844 8.89305 25.2413 8.99195C24.9983 9.09085 24.7773 9.23635 24.5909 9.42012C24.4045 9.60389 24.2563 9.82237 24.1549 10.063C24.0535 10.3037 24.0009 10.5617 24 10.8226C23.999 11.0847 24.0502 11.3444 24.1507 11.5868C24.2512 11.8291 24.3991 12.0493 24.5857 12.2346C24.7723 12.4199 24.994 12.5666 25.238 12.6664C25.482 12.7662 25.7434 12.8171 26.0073 12.8161H37.9923C38.2562 12.8171 38.5176 12.7662 38.7616 12.6664C39.0057 12.5666 39.2274 12.4199 39.414 12.2346C39.6006 12.0493 39.7484 11.8291 39.8489 11.5868C39.9494 11.3444 40.0007 11.0847 39.9996 10.8226C39.9987 10.5617 39.9461 10.3037 39.8448 10.063C39.7434 9.82237 39.5952 9.60389 39.4088 9.42012C39.2224 9.23635 39.0014 9.09085 38.7583 8.99195C38.5152 8.89305 38.255 8.84273 37.9923 8.84377H26.0073Z" fill="#043D5F"/>
<path d="M31.5707 23.4844C31.0428 23.4862 30.537 23.6953 30.1637 24.066C29.7904 24.4367 29.58 24.939 29.5781 25.4632C29.5771 25.7241 29.6278 25.9826 29.7274 26.224C29.8269 26.4653 29.9735 26.6848 30.1585 26.8699C30.3435 27.0551 30.5636 27.2021 30.8059 27.3028C31.0482 27.4035 31.3081 27.4558 31.5707 27.4567H37.9912C38.2551 27.4578 38.5166 27.4069 38.7606 27.307C39.0046 27.2072 39.2263 27.0604 39.4129 26.8751C39.5995 26.6898 39.7473 26.4696 39.8478 26.2273C39.9484 25.9849 39.9996 25.7253 39.9986 25.4632C39.9976 25.2024 39.945 24.9443 39.8436 24.7036C39.7422 24.463 39.5941 24.2445 39.4077 24.0607C39.2213 23.877 39.0003 23.7316 38.7572 23.6327C38.5142 23.5338 38.2539 23.4834 37.9912 23.4844H31.5707Z" fill="#043D5F"/>
</svg>
