<svg width="70" height="56" viewBox="0 0 70 56" fill="none" xmlns="http://www.w3.org/2000/svg">
<path d="M43.9231 27.9385L46.8502 25.0115C43.4198 22.727 39.2827 21.4062 34.9993 21.4062C24.9689 21.4062 16.0807 28.5096 13.9033 38.2902C13.6534 39.3575 14.3317 40.4319 15.4382 40.6818C16.5091 40.9281 17.5799 40.2498 17.8298 39.1433C19.6146 31.2189 26.825 25.472 34.9993 25.472C38.2119 25.4755 41.246 26.3679 43.9231 27.9385Z" fill="#2D324F"/>
<path d="M54.0531 32.8672L51.0547 35.8656C51.5187 36.9008 51.9114 38.0109 52.1648 39.1496C52.379 40.1169 53.1964 40.7559 54.1245 40.7559C54.2708 40.7559 54.4101 40.7202 54.5564 40.6845C55.663 40.4346 56.3412 39.3602 56.0913 38.2929C55.6594 36.3653 54.9455 34.5449 54.0531 32.8672Z" fill="black"/>
<path d="M34.986 14.7724C41.0899 14.7724 46.8047 16.8427 51.4059 20.448L54.3008 17.5566C48.9465 13.2018 42.1643 10.7031 34.9896 10.7031C22.8174 10.7031 11.7875 17.9136 6.93297 29.0863C6.50463 30.1214 6.96867 31.2994 7.96814 31.7634C8.2537 31.8669 8.50357 31.9383 8.78913 31.9383C9.57443 31.9383 10.324 31.4778 10.6453 30.7282C14.8538 21.0191 24.4201 14.7724 34.986 14.7724Z" fill="#2D324F"/>
<path d="M61.2674 25.6562L58.3047 28.619C58.7009 29.2972 59.0222 29.9754 59.3434 30.6893C59.8075 31.6888 60.9818 32.1528 62.0206 31.728C63.0165 31.2604 63.4841 30.0861 63.0522 29.0509C62.5596 27.8694 61.9492 26.7271 61.2674 25.6562Z" fill="black"/>
<path d="M69.6092 20.4677C62.695 7.84228 49.4306 0 34.9954 0C20.5601 0 7.29572 7.84228 0.381522 20.4677C-0.153909 21.4494 0.203045 22.6773 1.18467 23.2163C2.16272 23.7517 3.39421 23.3948 3.93321 22.4131C10.1371 11.0834 22.0379 4.04786 34.9954 4.04786C47.9528 4.04786 59.8572 11.087 66.0611 22.4167C66.4323 23.0878 67.1212 23.4662 67.8387 23.4662C68.1671 23.4662 68.5026 23.3876 68.806 23.2163C69.7877 22.6773 70.1482 21.4494 69.6092 20.4677Z" fill="#2D324F"/>
<path d="M59.352 22.5859L60.6335 21.3008C61.3117 20.5869 61.3117 19.4804 60.6335 18.7665C59.9231 18.0883 58.813 18.0883 58.1026 18.7665L57.2817 19.5875C57.2817 19.6589 57.2103 19.6946 57.1746 19.7302L56.9283 19.9444L54.0334 22.8357L49.675 27.1906L46.8229 30.0462L41.2509 35.6183C40.2157 34.9008 39.0377 34.3654 37.8241 34.0477C36.9317 33.8335 35.9679 33.6872 35.0042 33.6872C28.8288 33.6872 23.8672 38.6845 23.8672 44.8634C23.8672 51.003 28.8288 55.9968 35.0042 55.9968C41.1795 55.9968 46.1411 51.003 46.1411 44.8634C46.1411 43.6497 45.9269 42.4718 45.57 41.3652C45.1773 40.1516 44.6026 39.045 43.8602 38.0813L49.2502 32.6913L52.0666 29.8713L56.3893 25.5522L59.2806 22.6608C59.2806 22.5859 59.3199 22.5859 59.352 22.5859Z" fill="#043D5F"/>
</svg>
