<svg width="63" height="63" viewBox="0 0 63 63" fill="none" xmlns="http://www.w3.org/2000/svg">
<path d="M56.7285 18.1436C56.635 16.7516 55.8333 15.555 54.7798 15.2342C54.5934 15.1772 54.4003 15.1482 54.2066 15.1482H25.7224C25.0945 15.1482 24.5834 14.6177 24.5834 13.9658V13.9653V8.90946C24.5834 8.0975 24.3298 7.34195 23.8694 6.78184C23.4529 6.27529 22.915 5.99609 22.3555 5.99609H8.73963C8.17952 5.99609 7.6422 6.27529 7.22568 6.78184C6.76528 7.34195 6.51172 8.0975 6.51172 8.90946V44.6585C6.51172 45.569 6.79662 46.418 7.31456 47.0477C7.78806 47.6243 8.4023 47.9417 9.04332 47.9417H54.2066C54.8476 47.9417 55.4618 47.6243 55.9353 47.0477C56.4527 46.4175 56.7382 45.5696 56.7382 44.6585V18.4313C56.7382 18.3368 56.7347 18.2399 56.7285 18.1436Z" fill="#043D5F"/>
<path d="M57.9004 19.659C57.8332 18.5143 57.5095 17.4402 56.9648 16.5525C56.3916 15.6186 55.6201 14.9616 54.7346 14.6522C54.3682 14.524 53.9876 14.4585 53.6036 14.4585H26.4402V9.42889C26.4402 8.08588 26.0573 6.81182 25.3616 5.84203C24.6106 4.79531 23.5417 4.19531 22.4271 4.19531H9.09902C7.98506 4.19531 6.91555 4.79531 6.16456 5.84203C5.46884 6.81182 5.08594 8.08531 5.08594 9.42889V43.6372C5.08594 45.0913 5.49961 46.4691 6.25174 47.517C7.0694 48.6571 8.18677 49.285 9.39645 49.285H23.4169C23.9228 49.285 24.3331 48.8748 24.3331 48.3688C24.3331 47.8628 23.9228 47.4526 23.4169 47.4526H9.39588C8.05287 47.4526 6.9184 45.7056 6.9184 43.6378V9.42889C6.9184 7.5856 7.91726 6.02835 9.09902 6.02835H22.4271C23.6089 6.02835 24.6077 7.5856 24.6077 9.42889V15.0989C24.6077 15.7673 25.0978 16.2915 25.7223 16.2915H53.603C53.7802 16.2915 53.9568 16.3217 54.1289 16.3821C55.1768 16.7479 55.975 18.1399 56.0708 19.7673C56.0776 19.8807 56.081 19.9952 56.081 20.1063V43.6372C56.081 45.705 54.9466 47.452 53.6036 47.452H39.8697C39.3638 47.452 38.9535 47.8623 38.9535 48.3682C38.9535 48.8742 39.3638 49.2845 39.8697 49.2845H53.6036C54.8138 49.2845 55.9306 48.6571 56.7483 47.5164C57.5004 46.4685 57.9141 45.0902 57.9141 43.6366V20.1057C57.9135 19.9587 57.9089 19.8083 57.9004 19.659Z" fill="#4ECF7D"/>
<path d="M38.6276 42.6725C38.2738 41.8964 37.4858 41.4104 36.6334 41.4104H34.953V28.6834C34.953 27.5535 34.0368 26.6367 32.9063 26.6367H30.0881C28.9582 26.6367 28.0414 27.553 28.0414 28.6834V41.4098H26.3616C25.5086 41.4098 24.7206 41.8959 24.3673 42.6719C24.0169 43.4412 24.1389 44.3169 24.6864 44.9614L29.8551 51.0422C30.2653 51.5249 30.8642 51.8018 31.4972 51.8018C32.1303 51.8018 32.7291 51.5249 33.1394 51.0428L38.308 44.9619C38.8567 44.3175 38.9781 43.4412 38.6276 42.6725ZM36.912 43.7745L31.7434 49.8554C31.659 49.9545 31.5531 49.9688 31.4972 49.9688C31.4414 49.9688 31.3354 49.9539 31.2511 49.8554L26.0824 43.7745C25.9662 43.6377 26.0032 43.5004 26.0357 43.4303C26.0682 43.3602 26.1491 43.2429 26.3286 43.2429V43.2434H29.8744V28.6834C29.8744 28.5655 29.9707 28.4698 30.0881 28.4698H32.9063C33.0237 28.4698 33.12 28.5655 33.12 28.6834V43.2429H36.6658C36.8453 43.2429 36.9262 43.3608 36.9587 43.4303C36.9918 43.4998 37.0282 43.6377 36.912 43.7745ZM36.8863 53.3072H26.1086C24.5924 53.3072 23.3594 54.5408 23.3594 56.0565C23.3594 57.5721 24.5924 58.8057 26.1086 58.8057H36.8863C38.4026 58.8057 39.6356 57.5721 39.6356 56.0565C39.6356 54.5408 38.4026 53.3072 36.8863 53.3072ZM36.8863 56.9733H26.1086C25.6032 56.9733 25.1924 56.5624 25.1924 56.057C25.1924 55.5516 25.6032 55.1408 26.1086 55.1408H36.8863C37.3918 55.1408 37.8026 55.5516 37.8026 56.057C37.8026 56.5624 37.3918 56.9733 36.8863 56.9733Z" fill="#4ECF7D"/>
<path d="M31.2506 49.8544C31.3344 49.9535 31.4409 49.9678 31.4968 49.9678C31.5526 49.9678 31.6586 49.9529 31.7429 49.8544L36.9116 43.7735C37.0278 43.6367 36.9913 43.4988 36.9583 43.4293C36.9258 43.3598 36.8449 43.2419 36.6654 43.2419H33.1196V28.6824C33.1196 28.5645 33.0233 28.4688 32.9059 28.4688H30.0877C29.9697 28.4688 29.874 28.565 29.874 28.6824V43.2419H26.3282V43.2413C26.1487 43.2413 26.0678 43.3587 26.0353 43.4288C26.0028 43.4988 25.9658 43.6362 26.082 43.7729L31.2506 49.8544ZM36.8853 55.1392H26.1076C25.6022 55.1392 25.1914 55.55 25.1914 56.0555C25.1914 56.5609 25.6022 56.9717 26.1076 56.9717H36.8853C37.3908 56.9717 37.8016 56.5609 37.8016 56.0555C37.8016 55.55 37.3908 55.1392 36.8853 55.1392Z" fill="#E8E8E8"/>
</svg>
