<svg width="63" height="62" viewBox="0 0 63 62" fill="none" xmlns="http://www.w3.org/2000/svg">
<path d="M31.5 0.859375C48.3574 0.859375 62.0156 14.5176 62.0156 31.375C62.0156 48.2324 48.3574 61.8906 31.5 61.8906C14.6426 61.8906 0.984375 48.2324 0.984375 31.375C0.984375 14.5176 14.6426 0.859375 31.5 0.859375ZM31.5 55.9844C45.0352 55.9844 56.1094 45.0332 56.1094 31.375C56.1094 17.8398 45.0352 6.76562 31.5 6.76562C17.8418 6.76562 6.89062 17.8398 6.89062 31.375C6.89062 45.0332 17.8418 55.9844 31.5 55.9844ZM39.0059 43.1875L28.5469 35.5586C28.1777 35.3125 28.0547 34.8203 28.0547 34.4512V14.1484C28.0547 13.4102 28.6699 12.6719 29.5312 12.6719H33.4688C34.207 12.6719 34.9453 13.4102 34.9453 14.1484V31.6211L43.0664 37.6504C43.8047 38.1426 43.9277 39.0039 43.4355 39.7422L41.0977 42.8184C40.6055 43.5566 39.7441 43.6797 39.0059 43.1875Z" fill="#683EE6"/>
</svg>
