<svg width="71" height="56" viewBox="0 0 71 56" fill="none" xmlns="http://www.w3.org/2000/svg">
<path d="M20.7344 38.2188C22.334 38.2188 23.6875 39.5723 23.6875 41.1719C23.6875 42.8945 22.334 44.125 20.7344 44.125H14.8281C13.1055 44.125 11.875 42.8945 11.875 41.1719C11.875 39.5723 13.1055 38.2188 14.8281 38.2188H20.7344ZM44.3594 38.2188C45.959 38.2188 47.3125 39.5723 47.3125 41.1719C47.3125 42.8945 45.959 44.125 44.3594 44.125H30.5781C28.8555 44.125 27.625 42.8945 27.625 41.1719C27.625 39.5723 28.8555 38.2188 30.5781 38.2188H44.3594ZM63.0625 0.8125C67.3691 0.8125 70.9375 4.38086 70.9375 8.6875V48.0625C70.9375 52.4922 67.3691 55.9375 63.0625 55.9375H7.9375C3.50781 55.9375 0.0625 52.4922 0.0625 48.0625V8.6875C0.0625 4.38086 3.50781 0.8125 7.9375 0.8125H63.0625ZM63.0625 6.71875H7.9375C6.83008 6.71875 5.96875 7.70312 5.96875 8.6875V12.625H65.0312V8.6875C65.0312 7.70312 64.0469 6.71875 63.0625 6.71875ZM65.0312 24.4375H5.96875V48.0625C5.96875 49.1699 6.83008 50.0312 7.9375 50.0312H63.0625C64.0469 50.0312 65.0312 49.1699 65.0312 48.0625V24.4375Z" fill="#683EE6"/>
</svg>
