<svg width="63" height="62" viewBox="0 0 63 62" fill="none" xmlns="http://www.w3.org/2000/svg">
<path d="M31.5 0.859375C48.2344 0.859375 62.0156 14.6406 62.0156 31.375C62.0156 48.2324 48.2344 61.8906 31.5 61.8906C14.6426 61.8906 0.984375 48.2324 0.984375 31.375C0.984375 14.6406 14.6426 0.859375 31.5 0.859375ZM31.5 14.3945C28.5469 14.3945 26.332 16.7324 26.332 19.5625C26.332 22.5156 28.5469 24.7305 31.5 24.7305C34.3301 24.7305 36.668 22.5156 36.668 19.5625C36.668 16.7324 34.3301 14.3945 31.5 14.3945ZM38.3906 45.6484V42.6953C38.3906 41.957 37.6523 41.2188 36.9141 41.2188H35.4375V28.9141C35.4375 28.1758 34.6992 27.4375 33.9609 27.4375H26.0859C25.2246 27.4375 24.6094 28.1758 24.6094 28.9141V31.8672C24.6094 32.7285 25.2246 33.3438 26.0859 33.3438H27.5625V41.2188H26.0859C25.2246 41.2188 24.6094 41.957 24.6094 42.6953V45.6484C24.6094 46.5098 25.2246 47.125 26.0859 47.125H36.9141C37.6523 47.125 38.3906 46.5098 38.3906 45.6484Z" fill="#683EE6"/>
</svg>
