<svg width="627" height="378" viewBox="0 0 627 378" fill="none" xmlns="http://www.w3.org/2000/svg">
<g clip-path="url(#clip0_4269_267145)">
<path d="M378.208 1H9.33711C4.73265 1 1 4.73265 1 9.33711V289.118C1 293.722 4.73265 297.455 9.33711 297.455H378.208C382.812 297.455 386.545 293.722 386.545 289.118V9.33711C386.545 4.73265 382.812 1 378.208 1Z" stroke="#D9D2D2" stroke-width="2"/>
<path d="M22.3134 21.5582C22.3134 23.9811 20.3534 25.9407 17.9301 25.9407C15.5069 25.9407 13.5469 23.9811 13.5469 21.5582C13.5469 19.1354 15.5069 17.1758 17.9301 17.1758C20.3534 17.1758 22.3134 19.1354 22.3134 21.5582Z" fill="#FFC3D0"/>
<path d="M39.8056 21.5582C39.8056 23.9811 37.8456 25.9407 35.4223 25.9407C32.9991 25.9407 31.0391 23.9811 31.0391 21.5582C31.0391 19.1354 32.9991 17.1758 35.4223 17.1758C37.8456 17.1758 39.8056 19.1354 39.8056 21.5582Z" fill="#F5D79B"/>
<path d="M57.2978 21.5582C57.2978 23.9811 55.3379 25.9407 52.9146 25.9407C50.4913 25.9407 48.5312 23.9811 48.5312 21.5582C48.5312 19.1354 50.4913 17.1758 52.9146 17.1758C55.3379 17.1758 57.2978 19.1354 57.2978 21.5582Z" fill="#6AEBE7"/>
<mask id="mask0_4269_267145" style="mask-type:luminance" maskUnits="userSpaceOnUse" x="30" y="37" width="402" height="341">
<path d="M431.003 37.8867H30.0938V377.546H431.003V37.8867Z" fill="white"/>
</mask>
<g mask="url(#mask0_4269_267145)">
<path d="M59.0385 38.3906H402.045C417.754 38.3906 430.49 51.1481 430.49 66.8872V348.55C430.49 364.289 417.754 377.046 402.045 377.046H59.0385C43.3297 377.046 30.5938 364.289 30.5938 348.55V66.8872C30.5938 51.1481 43.3297 38.3906 59.0385 38.3906Z" fill="#F2E8E3" stroke="#F2E8E3"/>
<path d="M431.005 66.8833V103.438H413.315C408.885 103.438 404.784 101.009 402.688 97.0812L394.516 81.7582C392.42 77.8305 388.319 75.3714 383.889 75.3714H334.439C329.979 75.3714 325.908 77.8305 323.812 81.7582L315.61 97.0812C313.514 101.009 309.443 103.438 304.983 103.438H293.967C289.537 103.438 285.436 101.009 283.34 97.0812L275.168 81.7582C273.072 77.8305 268.971 75.3714 264.541 75.3714H215.091C210.631 75.3714 206.559 77.8305 204.464 81.7582L196.262 97.0812C194.166 101.009 190.095 103.438 185.635 103.438H30.1094V66.8833C30.1094 50.8712 43.0706 37.8867 59.0541 37.8867H402.059C418.042 37.8867 431.003 50.8712 431.003 66.8833H431.005Z" fill="#F9F9F8"/>
<path d="M80.2145 70.1754C80.2145 73.257 77.7219 75.7496 74.6402 75.7496C71.5586 75.7496 69.0781 73.257 69.0781 70.1754C69.0781 67.0938 71.5707 64.6133 74.6402 64.6133C77.7098 64.6133 80.2145 67.1059 80.2145 70.1754Z" fill="#FFC3D0"/>
<path d="M102.484 70.1754C102.484 73.257 99.7425 75.7496 96.3527 75.7496C92.9629 75.7496 90.2344 73.257 90.2344 70.1754C90.2344 67.0938 92.9762 64.6133 96.3527 64.6133C99.7292 64.6133 102.484 67.1059 102.484 70.1754Z" fill="#F5D79B"/>
<path d="M123.644 70.1754C123.644 73.257 121.152 75.7496 118.07 75.7496C114.988 75.7496 112.508 73.257 112.508 70.1754C112.508 67.0938 115 64.6133 118.07 64.6133C121.139 64.6133 123.644 67.1059 123.644 70.1754Z" fill="#6AEBE7"/>
<path d="M381.919 130.32H78.6225C65.8134 130.32 55.4297 140.541 55.4297 153.15C55.4297 165.758 65.8134 175.979 78.6225 175.979H381.919C394.728 175.979 405.112 165.758 405.112 153.15C405.112 140.541 394.728 130.32 381.919 130.32Z" fill="#C1AEAE"/>
<path d="M120.009 159.861C120.009 160.186 119.886 160.472 119.64 160.718C119.395 160.966 119.103 161.088 118.765 161.088C118.427 161.088 118.09 160.939 117.794 160.644L110.768 154.048V159.756C110.768 160.165 110.644 160.496 110.399 160.75C110.154 161.004 109.818 161.131 109.396 161.131C108.974 161.131 108.661 161.004 108.416 160.75C108.171 160.496 108.047 160.165 108.047 159.756V147.347C108.047 146.938 108.171 146.611 108.416 146.365C108.661 146.117 108.989 145.996 109.396 145.996C109.804 145.996 110.154 146.117 110.399 146.365C110.644 146.611 110.768 146.938 110.768 147.347V152.781L117.562 146.396C117.815 146.143 118.103 146.016 118.428 146.016C118.753 146.016 119.037 146.139 119.282 146.385C119.527 146.631 119.65 146.917 119.65 147.242C119.65 147.567 119.509 147.862 119.23 148.13L113.552 153.329L119.586 158.953C119.868 159.222 120.009 159.524 120.009 159.861Z" fill="white"/>
<path d="M123.583 160.665C123.349 160.439 123.234 160.123 123.234 159.714V147.391C123.234 146.982 123.349 146.666 123.583 146.44C123.815 146.214 124.134 146.102 124.543 146.102H132.16C132.568 146.102 132.885 146.192 133.11 146.377C133.335 146.56 133.447 146.821 133.447 147.158C133.447 147.495 133.335 147.783 133.11 147.972C132.885 148.163 132.568 148.257 132.16 148.257H125.892V152.359H131.737C132.145 152.359 132.462 152.452 132.687 152.634C132.912 152.818 133.025 153.085 133.025 153.437C133.025 153.79 132.911 154.036 132.687 154.221C132.462 154.403 132.145 154.494 131.737 154.494H125.892V158.85H132.16C132.568 158.85 132.885 158.945 133.11 159.135C133.335 159.324 133.447 159.596 133.447 159.949C133.447 160.302 133.335 160.548 133.11 160.73C132.885 160.914 132.568 161.006 132.16 161.006H124.543C124.134 161.006 123.815 160.894 123.583 160.667V160.665Z" fill="white"/>
<path d="M147.059 145.996C147.381 145.996 147.671 146.117 147.925 146.365C148.178 146.611 148.305 146.904 148.305 147.242C148.305 147.523 148.2 147.791 147.989 148.044L143.198 153.9V159.756C143.198 160.193 143.072 160.531 142.818 160.771C142.565 161.01 142.241 161.131 141.847 161.131C141.454 161.131 141.109 161.01 140.855 160.771C140.602 160.532 140.475 160.193 140.475 159.756V153.9L135.685 148.044C135.474 147.791 135.367 147.523 135.367 147.242C135.367 146.904 135.494 146.611 135.748 146.365C136.001 146.117 136.289 145.996 136.612 145.996C136.964 145.996 137.266 146.15 137.52 146.46L141.846 151.829L146.151 146.46C146.404 146.15 146.706 145.996 147.058 145.996H147.059Z" fill="white"/>
<path d="M170.774 146.184C170.993 146.042 171.234 145.973 171.502 145.973C171.839 145.973 172.13 146.079 172.377 146.291C172.622 146.501 172.746 146.783 172.746 147.136C172.746 147.263 172.709 147.446 172.64 147.687L168.105 160.265C167.991 160.547 167.805 160.766 167.545 160.921C167.285 161.076 166.999 161.153 166.69 161.153C166.38 161.153 166.092 161.076 165.824 160.921C165.558 160.766 165.375 160.547 165.276 160.265L161.773 150.308L158.206 160.265C158.095 160.547 157.907 160.766 157.649 160.921C157.388 161.076 157.102 161.153 156.793 161.153C156.484 161.153 156.199 161.076 155.937 160.921C155.678 160.766 155.498 160.547 155.4 160.265L150.863 147.687C150.792 147.476 150.758 147.291 150.758 147.136C150.758 146.783 150.887 146.501 151.148 146.291C151.408 146.08 151.714 145.973 152.066 145.973C152.347 145.973 152.601 146.043 152.825 146.184C153.049 146.324 153.211 146.537 153.311 146.819L156.898 157.157L160.59 146.883C160.689 146.601 160.85 146.379 161.076 146.217C161.301 146.053 161.546 145.973 161.815 145.973C162.083 145.973 162.332 146.053 162.563 146.217C162.795 146.379 162.96 146.608 163.059 146.904L166.647 157.283L170.296 146.82C170.395 146.538 170.553 146.327 170.772 146.185L170.774 146.184Z" fill="white"/>
<path d="M178.815 160.264C177.751 159.645 176.932 158.756 176.356 157.601C175.778 156.445 175.492 155.092 175.492 153.541C175.492 151.991 175.776 150.642 176.346 149.493C176.915 148.346 177.735 147.461 178.805 146.84C179.872 146.221 181.131 145.91 182.581 145.91C184.031 145.91 185.286 146.222 186.348 146.84C187.409 147.461 188.225 148.346 188.795 149.493C189.365 150.642 189.651 151.991 189.651 153.541C189.651 155.092 189.363 156.445 188.785 157.601C188.208 158.756 187.389 159.645 186.326 160.264C185.265 160.884 184.016 161.195 182.581 161.195C181.145 161.195 179.876 160.883 178.815 160.264ZM185.778 157.601C186.545 156.656 186.929 155.302 186.929 153.541C186.929 151.78 186.545 150.431 185.778 149.493C185.011 148.555 183.947 148.087 182.581 148.087C181.215 148.087 180.131 148.555 179.362 149.493C178.596 150.431 178.214 151.779 178.214 153.541C178.214 155.303 178.597 156.657 179.362 157.601C180.13 158.546 181.202 159.017 182.581 159.017C183.96 159.017 185.011 158.546 185.778 157.601Z" fill="white"/>
<path d="M205.817 160.032C205.817 160.355 205.687 160.624 205.425 160.835C205.166 161.047 204.86 161.152 204.508 161.152C204.283 161.152 204.068 161.098 203.864 160.993C203.66 160.887 203.488 160.728 203.347 160.517L200.542 156.247C200.26 155.797 199.961 155.479 199.645 155.296C199.327 155.113 198.918 155.02 198.411 155.02H196.342V159.757C196.342 160.18 196.223 160.513 195.985 160.761C195.744 161.007 195.422 161.131 195.013 161.131C194.605 161.131 194.278 161.007 194.033 160.761C193.788 160.513 193.664 160.179 193.664 159.757V147.391C193.664 146.982 193.779 146.666 194.013 146.44C194.245 146.214 194.564 146.102 194.972 146.102H200.248C201.936 146.102 203.219 146.479 204.098 147.232C204.977 147.988 205.417 149.076 205.417 150.498C205.417 151.654 205.091 152.602 204.436 153.342C203.781 154.082 202.856 154.557 201.661 154.768C202.07 154.867 202.428 155.044 202.738 155.296C203.047 155.55 203.35 155.903 203.644 156.353L205.565 159.291C205.735 159.544 205.819 159.792 205.819 160.031L205.817 160.032ZM202.124 152.348C202.603 151.961 202.842 151.366 202.842 150.563C202.842 149.76 202.603 149.15 202.124 148.775C201.647 148.401 200.893 148.217 199.867 148.217H196.321V152.93H199.867C200.892 152.93 201.646 152.735 202.124 152.348Z" fill="white"/>
<path d="M209.935 160.665C209.701 160.439 209.586 160.123 209.586 159.714V147.391C209.586 146.982 209.701 146.666 209.935 146.44C210.167 146.214 210.486 146.102 210.894 146.102H215.072C217.506 146.102 219.395 146.753 220.738 148.057C222.081 149.359 222.754 151.189 222.754 153.541C222.754 155.894 222.081 157.746 220.738 159.048C219.395 160.352 217.506 161.003 215.072 161.003H210.894C210.486 161.003 210.167 160.892 209.935 160.665ZM214.902 158.784C218.322 158.784 220.03 157.037 220.03 153.541C220.03 150.046 218.322 148.32 214.902 148.32H212.308V158.786H214.902V158.784Z" fill="white"/>
<path d="M350.711 254.184H61.5795C58.1831 254.184 55.4297 256.942 55.4297 260.345C55.4297 263.747 58.1831 266.506 61.5795 266.506H350.711C354.108 266.506 356.861 263.747 356.861 260.345C356.861 256.942 354.108 254.184 350.711 254.184Z" fill="#F9F9F8"/>
<path d="M149.776 226.789H61.5795C58.1831 226.789 55.4297 229.547 55.4297 232.949C55.4297 236.352 58.1831 239.11 61.5795 239.11H149.776C153.173 239.11 155.926 236.352 155.926 232.949C155.926 229.547 153.173 226.789 149.776 226.789Z" fill="#F9F9F8"/>
<path d="M399.511 226.789H178.392C174.996 226.789 172.242 229.547 172.242 232.949C172.242 236.352 174.996 239.11 178.392 239.11H399.511C402.907 239.11 405.661 236.352 405.661 232.949C405.661 229.547 402.907 226.789 399.511 226.789Z" fill="#F9F9F8"/>
<path d="M300.646 199.395H176.056C172.66 199.395 169.906 202.153 169.906 205.555C169.906 208.958 172.66 211.716 176.056 211.716H300.646C304.043 211.716 306.796 208.958 306.796 205.555C306.796 202.153 304.043 199.395 300.646 199.395Z" fill="#F2E8E3"/>
<path d="M147.442 199.395H61.5795C58.1831 199.395 55.4297 202.153 55.4297 205.555C55.4297 208.958 58.1831 211.716 61.5795 211.716H147.442C150.838 211.716 153.592 208.958 153.592 205.555C153.592 202.153 150.838 199.395 147.442 199.395Z" fill="#F2E8E3"/>
<path d="M55.4297 348.286C55.4297 351.689 58.1832 354.447 61.5795 354.447H350.709C354.106 354.447 356.859 351.689 356.859 348.286C356.859 344.884 354.106 342.125 350.709 342.125H61.5795C58.1832 342.125 55.4297 344.884 55.4297 348.286Z" fill="#F9F9F8"/>
<path d="M149.776 314.734H61.5795C58.1831 314.734 55.4297 317.492 55.4297 320.895C55.4297 324.297 58.1831 327.056 61.5795 327.056H149.776C153.173 327.056 155.926 324.297 155.926 320.895C155.926 317.492 153.173 314.734 149.776 314.734Z" fill="#F9F9F8"/>
<path d="M399.511 314.734H178.392C174.996 314.734 172.242 317.492 172.242 320.895C172.242 324.297 174.996 327.056 178.392 327.056H399.511C402.907 327.056 405.661 324.297 405.661 320.895C405.661 317.492 402.907 314.734 399.511 314.734Z" fill="#F9F9F8"/>
<path d="M300.646 287.34H176.056C172.66 287.34 169.906 290.098 169.906 293.501C169.906 296.903 172.66 299.662 176.056 299.662H300.646C304.043 299.662 306.796 296.903 306.796 293.501C306.796 290.098 304.043 287.34 300.646 287.34Z" fill="#F2E8E3"/>
<path d="M147.442 287.34H61.5795C58.1831 287.34 55.4297 290.098 55.4297 293.501C55.4297 296.903 58.1831 299.662 61.5795 299.662H147.442C150.838 299.662 153.592 296.903 153.592 293.501C153.592 290.098 150.838 287.34 147.442 287.34Z" fill="#F2E8E3"/>
<path d="M92.002 158.88L89.1697 156.047C89.8394 154.981 90.1742 153.762 90.1742 152.543C90.1742 150.837 89.5045 149.131 88.2252 147.852C85.6366 145.263 81.4038 145.263 78.8162 147.852C77.568 149.101 76.8672 150.777 76.8672 152.575C76.8672 154.372 77.568 156.017 78.8162 157.265C80.0644 158.514 81.7397 159.215 83.5363 159.215C84.7845 159.215 85.9725 158.88 87.0071 158.21L89.8394 161.044C90.1442 161.349 90.5402 161.501 90.9352 161.501C91.3001 161.501 91.6961 161.349 92.0009 161.044C92.6105 160.465 92.6105 159.49 92.0009 158.88H92.002ZM80.9788 155.103C80.2779 154.433 79.913 153.519 79.913 152.575C79.913 151.63 80.2779 150.686 80.9788 150.016C81.6796 149.315 82.5929 148.95 83.5363 148.95C84.4797 148.95 85.3629 149.315 86.0638 150.016C87.4955 151.417 87.4955 153.702 86.0638 155.103C84.7244 156.474 82.3182 156.474 80.9788 155.103Z" fill="white"/>
</g>
<mask id="mask1_4269_267145" style="mask-type:luminance" maskUnits="userSpaceOnUse" x="325" y="98" width="302" height="279">
<path d="M325 98H627V377H325V98Z" fill="white"/>
</mask>
<g mask="url(#mask1_4269_267145)">
<path d="M462.306 120.999C462.306 120.999 445.572 125.85 446.873 108.382C448.043 92.6717 453.537 104.701 455.758 104.004C458.152 103.252 456.178 98.4169 459.265 98.0238C462.306 97.6382 464.643 102.073 467.684 101.299C470.725 100.526 476.784 95.8558 482.648 99.2401C487.56 102.073 487.792 107.868 487.792 107.868C487.792 107.868 493.871 108.382 495.275 117.655C496.677 126.925 484.05 144.18 484.05 144.18L462.304 121.002L462.306 120.999Z" fill="#2073B5"/>
<path d="M488.118 136.796L497.042 162.936C497.612 164.607 499.032 165.845 500.762 166.181L504.735 166.955C504.735 166.955 494.404 189.424 476.994 185.662C459.584 181.897 463.412 166.955 463.412 166.955L467.094 166.656C469.298 166.478 470.811 164.35 470.258 162.204L466.119 146.138C466.119 146.138 482.989 132.514 488.12 136.793L488.118 136.796Z" fill="white"/>
<path d="M480.866 186.625C496.102 186.625 505.135 167.392 505.231 167.182C505.301 167.031 505.298 166.856 505.222 166.705C505.145 166.557 505.004 166.45 504.842 166.418L500.868 165.644C499.333 165.345 498.067 164.24 497.561 162.757L488.636 136.617C488.604 136.523 488.545 136.439 488.468 136.375C483.058 131.863 466.482 145.148 465.779 145.714C465.613 145.848 465.539 146.068 465.594 146.276L469.733 162.339C469.955 163.207 469.787 164.122 469.269 164.851C468.75 165.58 467.943 166.04 467.052 166.112L463.37 166.411C463.138 166.431 462.945 166.594 462.886 166.819C462.822 167.073 461.331 173.105 464.715 178.593C467.062 182.398 471.154 184.956 476.88 186.192C478.253 186.489 479.58 186.625 480.866 186.625ZM503.933 167.353C502.099 170.925 492.267 188.405 477.112 185.127C471.69 183.955 467.83 181.562 465.643 178.02C462.96 173.671 463.607 168.831 463.864 167.466L467.141 167.202C468.353 167.103 469.451 166.478 470.157 165.486C470.863 164.495 471.093 163.249 470.789 162.07L466.736 146.347C471.5 142.555 483.685 134.167 487.659 137.124L496.531 163.113C497.163 164.962 498.745 166.344 500.661 166.717L503.933 167.355V167.353Z" fill="#2073B5"/>
<path d="M482.03 140.862C482.03 140.862 477.706 150.864 466.383 149.018C455.059 147.171 454.77 132.739 455.782 117.402C457.428 118.203 459.43 118.759 462.323 118.673C467.239 118.524 477.452 116.552 477.931 115.422C476.09 119.755 475.389 124.208 477.687 126.986C478.587 128.198 480.29 129.073 483.297 129.125C483.297 129.125 484.731 124.321 489.003 127.11C493.275 129.898 491.686 141.663 482.03 140.865V140.862Z" fill="white"/>
<path d="M469.09 149.785C477.539 149.785 481.522 143.056 482.364 141.427C486.604 141.65 489.906 139.467 491.244 135.556C492.463 131.994 491.629 128.165 489.307 126.649C487.882 125.72 486.572 125.465 485.412 125.888C483.97 126.417 483.218 127.858 482.926 128.565C480.609 128.466 478.995 127.823 478.128 126.657C475.737 123.764 476.978 119.067 478.437 115.634C478.555 115.357 478.425 115.035 478.148 114.919C477.869 114.8 477.551 114.929 477.435 115.208C476.722 116.027 467.39 117.975 462.31 118.128C459.877 118.207 457.878 117.816 456.024 116.912C455.861 116.833 455.669 116.837 455.513 116.931C455.358 117.023 455.256 117.186 455.244 117.367C454.287 131.91 454.269 147.593 466.301 149.556C467.281 149.716 468.212 149.788 469.093 149.788L469.09 149.785ZM482.035 140.315C481.821 140.315 481.623 140.443 481.537 140.644C481.367 141.037 477.24 150.235 466.477 148.478C455.555 146.695 455.407 132.061 456.281 118.219C458.092 118.968 460.045 119.28 462.347 119.216C465.647 119.114 473.493 117.94 476.877 116.632C475.601 120.15 474.888 124.444 477.277 127.332C478.388 128.825 480.416 129.618 483.297 129.668H483.307C483.546 129.668 483.758 129.509 483.827 129.28C483.832 129.262 484.407 127.418 485.794 126.914C486.614 126.617 487.596 126.835 488.714 127.566C490.6 128.797 491.259 132.155 490.215 135.208C489.637 136.898 487.68 140.792 482.082 140.32C482.068 140.32 482.053 140.32 482.038 140.32L482.035 140.315Z" fill="#2073B5"/>
<path d="M484.859 135.264C485.086 135.264 485.296 135.121 485.375 134.896C485.617 134.184 485.868 133.447 486.293 132.856C486.717 132.263 487.302 131.887 487.86 131.85C488.159 131.83 488.386 131.568 488.366 131.269C488.346 130.97 488.09 130.748 487.786 130.762C486.895 130.824 486.029 131.356 485.409 132.221C484.891 132.943 484.602 133.793 484.345 134.545C484.249 134.829 484.4 135.14 484.684 135.237C484.743 135.257 484.802 135.266 484.859 135.266V135.264Z" fill="#2073B5"/>
<path d="M511.462 279.232L458.662 272.602L453.617 284.68L494.511 304.627C494.511 304.627 514.764 290.645 511.462 279.229V279.232Z" fill="#F19620"/>
<path d="M524.628 321.424C524.628 321.424 392.866 227.683 352.996 238.627C313.126 249.57 322.12 301.032 345.579 320.883C361.886 334.682 387.708 356.74 460.662 373.763C533.62 390.786 524.626 321.422 524.626 321.422L524.628 321.424Z" fill="white"/>
<path d="M481.776 376.998C494.124 376.998 504.024 373.671 511.344 367.038C528.811 351.204 525.205 321.651 525.168 321.354C525.148 321.203 525.067 321.067 524.943 320.981C524.808 320.884 511.278 311.273 491.905 298.757C491.654 298.596 491.316 298.668 491.153 298.92C490.99 299.172 491.061 299.511 491.316 299.674C509.394 311.354 522.377 320.501 524.117 321.73C524.418 324.531 526.841 351.528 510.611 366.235C499.764 376.064 483.003 378.417 460.788 373.236C388.297 356.322 362.939 334.864 346.159 320.662L345.932 320.469C331.355 308.133 323.094 284.124 327.127 265.806C329.213 256.333 335.418 244.02 353.141 239.154C368.305 234.991 398.567 245.52 443.081 270.449C443.343 270.595 443.676 270.501 443.822 270.239C443.967 269.976 443.874 269.643 443.612 269.497C398.841 244.425 368.305 233.862 352.855 238.104C334.608 243.112 328.216 255.806 326.066 265.574C324.025 274.842 324.936 285.701 328.625 296.153C332.229 306.361 338.128 315.292 345.231 321.302L345.458 321.495C362.317 335.761 387.796 357.325 460.541 374.296C468.268 376.098 475.354 377.001 481.776 377.001V376.998Z" fill="#2073B5"/>
<path d="M410.185 357.544C410.402 357.544 410.605 357.414 410.691 357.199C417.357 340.507 447.728 308.022 448.034 307.695C448.238 307.475 448.229 307.132 448.009 306.924C447.789 306.719 447.446 306.729 447.239 306.949C446.93 307.275 416.422 339.915 409.679 356.797C409.568 357.076 409.704 357.392 409.983 357.506C410.049 357.533 410.119 357.545 410.185 357.545V357.544Z" fill="#2073B5"/>
<path d="M495.947 334.36C496.103 334.36 496.256 334.294 496.364 334.165C496.557 333.935 496.527 333.592 496.298 333.396C476.113 316.438 384.853 267.243 383.932 266.749C383.668 266.605 383.337 266.707 383.194 266.971C383.051 267.236 383.152 267.567 383.416 267.71C384.334 268.205 475.499 317.345 495.597 334.232C495.698 334.316 495.824 334.358 495.947 334.358V334.36Z" fill="#2073B5"/>
<path d="M412.816 369.64C411.799 370.886 411.587 372.609 412.275 374.065C412.964 375.521 414.427 376.451 416.034 376.451H529.886C541.678 376.451 553.031 371.981 561.665 363.932C573.921 352.506 592.4 335.098 607.984 319.667C625.651 302.172 631.219 275.839 622.183 252.659C622.05 252.315 621.914 251.971 621.778 251.628C614.127 232.155 590.292 225.008 573.272 237.136C538.963 261.58 484.643 301.749 463.108 325.746C463.108 325.746 426.324 353.095 412.813 369.643L412.816 369.64Z" fill="white"/>
<path d="M416.03 377.001H529.881C541.854 377.001 553.271 372.502 562.031 364.337C574.633 352.587 592.902 335.369 608.362 320.059C626.189 302.403 631.812 275.873 622.685 252.465L622.28 251.431C618.563 241.973 610.86 234.891 601.143 231.998C591.458 229.118 581.183 230.829 572.95 236.695C557.546 247.669 534.743 264.224 513.57 280.782C513.333 280.968 513.291 281.309 513.476 281.549C513.661 281.786 514.004 281.828 514.241 281.643C535.397 265.1 558.188 248.554 573.582 237.585C581.539 231.917 591.47 230.26 600.832 233.046C610.223 235.842 617.672 242.69 621.265 251.834L621.668 252.865C630.637 275.868 625.111 301.939 607.595 319.288C592.144 334.587 573.885 351.798 561.288 363.541C552.728 371.521 541.575 375.913 529.879 375.913H416.027C414.638 375.913 413.354 375.1 412.76 373.839C412.165 372.581 412.35 371.071 413.229 369.993C426.542 353.687 463.06 326.462 463.425 326.187C463.455 326.165 463.482 326.14 463.506 326.113C469.78 319.122 479.352 310.213 491.956 299.635C492.186 299.442 492.218 299.098 492.023 298.866C491.83 298.636 491.487 298.604 491.255 298.799C478.636 309.392 469.04 318.321 462.731 325.344C461.26 326.442 425.572 353.15 412.385 369.301C411.239 370.702 411 372.668 411.775 374.304C412.55 375.943 414.218 377.001 416.027 377.001H416.03Z" fill="#2073B5"/>
<path d="M507.857 377C507.951 377 508.045 376.975 508.134 376.926C535.732 360.662 567.309 332.512 588.584 305.211C591.44 301.545 594.374 297.589 596.109 293.112C596.218 292.83 596.08 292.516 595.798 292.408C595.52 292.299 595.204 292.437 595.095 292.719C593.414 297.058 590.531 300.939 587.725 304.541C566.529 331.744 535.071 359.789 507.581 375.987C507.322 376.14 507.235 376.474 507.388 376.733C507.49 376.906 507.672 377.003 507.857 377.003V377Z" fill="#2073B5"/>
<path d="M513.629 367.881C513.755 367.881 513.883 367.836 513.987 367.747C514.214 367.549 514.236 367.206 514.038 366.978C499.797 350.613 483.31 336.401 465.037 324.733C464.782 324.572 464.447 324.646 464.284 324.901C464.123 325.155 464.197 325.492 464.449 325.655C482.637 337.264 499.045 351.409 513.217 367.695C513.325 367.819 513.476 367.883 513.626 367.883L513.629 367.881Z" fill="#2073B5"/>
<path d="M527.808 355.4C527.944 355.4 528.082 355.349 528.188 355.247C528.403 355.037 528.408 354.693 528.2 354.476C513.384 339.203 497.083 325.206 479.751 312.871C479.507 312.695 479.167 312.754 478.991 312.999C478.816 313.244 478.875 313.585 479.12 313.761C496.399 326.057 512.649 340.012 527.418 355.235C527.524 355.344 527.667 355.4 527.808 355.4Z" fill="#2073B5"/>
<path d="M426.132 178.841C431.283 171.87 439.153 167.44 447.772 166.644C452.681 166.191 458.837 165.709 465.7 165.356C466.078 166.594 466.606 167.793 467.292 168.923C469.282 172.203 472.399 174.73 475.871 176.297C479.347 177.867 483.236 178.576 487.032 178.117C490.752 177.667 494.289 176.08 496.858 173.306C498.953 171.044 501.466 168.312 502.11 165.348C508.337 165.702 513.246 166.218 519.093 167.135C530.251 168.886 540.05 175.536 545.951 185.182C556.769 202.86 575.499 234.295 576.501 259.584C578.115 300.344 512.054 283.052 512.054 283.052L437.855 276.224L394.871 242.898C394.871 242.898 408.25 203.03 426.132 178.833V178.841Z" fill="#F19620"/>
<path d="M511.206 274.815C511.714 278.249 508.244 280.899 505.078 279.495C498.604 276.622 491.589 275.171 484.508 275.243L453.879 275.549C453.879 275.549 451.488 236.008 494.791 240.787C494.791 240.787 507.857 252.176 511.206 274.815Z" fill="white"/>
<path d="M476.441 276.248C476.468 276.248 476.493 276.248 476.52 276.243C476.819 276.201 477.024 275.924 476.979 275.625C476.666 273.467 477.172 271.066 478.406 268.864C479.447 267.004 480.99 265.252 483.125 263.499C483.522 263.173 483.949 262.837 484.421 262.629C484.697 262.508 484.823 262.186 484.702 261.91C484.581 261.635 484.26 261.507 483.986 261.628C483.387 261.89 482.871 262.295 482.436 262.651C480.195 264.49 478.566 266.347 477.458 268.325C476.106 270.737 475.553 273.382 475.903 275.778C475.943 276.05 476.175 276.245 476.441 276.245V276.248Z" fill="#2073B5"/>
<path d="M466.538 275.678C466.805 275.678 467.037 275.482 467.076 275.208C467.446 272.598 467.977 269.545 469.112 266.694C470.28 263.762 471.993 261.369 474.061 259.777C474.3 259.594 474.345 259.251 474.162 259.013C473.979 258.776 473.636 258.729 473.399 258.915C471.173 260.625 469.342 263.176 468.1 266.291C466.923 269.248 466.378 272.38 465.998 275.055C465.956 275.354 466.163 275.628 466.462 275.67C466.486 275.675 466.513 275.675 466.538 275.675V275.678Z" fill="#2073B5"/>
<path d="M458.607 275.677C458.63 275.677 458.652 275.677 458.671 275.674C458.97 275.64 459.182 275.368 459.148 275.069C457.825 263.972 465.066 257.077 465.14 257.008C465.36 256.802 465.372 256.456 465.168 256.236C464.963 256.016 464.617 256.004 464.397 256.209C464.082 256.503 456.677 263.556 458.064 275.197C458.096 275.474 458.333 275.677 458.605 275.677H458.607Z" fill="#2073B5"/>
<path d="M379.088 281.543H490.812C491.474 281.543 492.135 281.373 492.681 280.997C493.959 280.117 494.401 278.542 493.897 277.188C492.579 274.419 489.857 273.445 485.832 273.445H371.758L373.239 277.477C374.152 279.922 376.485 281.543 379.088 281.543Z" fill="#2073B5"/>
<path d="M378.454 281.545C376.22 281.545 374.211 280.181 373.384 278.102L353.605 228.368C353.079 227.048 353.242 225.555 354.037 224.378C354.831 223.202 356.157 222.5 357.576 222.5H426.241C430.378 222.5 434.067 225.113 435.45 229.018L454.015 281.545H378.454Z" fill="#2073B5"/>
<path d="M391.952 247.104C390.448 245.597 390.448 243.153 391.952 241.646C393.457 240.139 395.896 240.139 397.401 241.646C398.905 243.153 398.905 245.597 397.401 247.104C395.896 248.611 393.457 248.611 391.952 247.104Z" fill="#F19620"/>
<path d="M546.989 242.048C547.285 242.048 547.527 241.81 547.532 241.514C547.537 241.212 547.298 240.965 546.999 240.958L497.047 240.008C496.741 240.016 496.499 240.243 496.492 240.542C496.487 240.844 496.726 241.091 497.025 241.098L546.977 242.048H546.987H546.989Z" fill="#2073B5"/>
<path d="M530.306 239.205C530.358 239.205 530.41 239.198 530.464 239.183C530.753 239.097 530.916 238.793 530.829 238.503C529.005 232.422 526.49 226.541 523.356 221.023C522.685 219.844 521.594 218.282 519.933 218.341C519.632 218.351 519.397 218.603 519.407 218.905C519.417 219.206 519.664 219.456 519.97 219.431C520.814 219.411 521.569 220.081 522.411 221.565C525.506 227.011 527.989 232.815 529.788 238.82C529.859 239.057 530.074 239.208 530.309 239.208L530.306 239.205Z" fill="#2073B5"/>
</g>
</g>
<defs>
<clipPath id="clip0_4269_267145">
<rect width="627" height="378" fill="white"/>
</clipPath>
</defs>
</svg>
