<svg width="495" height="358" viewBox="0 0 495 358" fill="none" xmlns="http://www.w3.org/2000/svg">
<g clip-path="url(#clip0_4269_266527)">
<mask id="mask0_4269_266527" style="mask-type:luminance" maskUnits="userSpaceOnUse" x="0" y="0" width="495" height="358">
<path d="M495 0H0V358H495V0Z" fill="white"/>
</mask>
<g mask="url(#mask0_4269_266527)">
<path d="M426.5 0.5H219C210.44 0.5 203.5 7.43959 203.5 16V297.5C203.5 306.06 210.44 313 219 313H426.5C435.06 313 442 306.06 442 297.5V16C442 7.43959 435.06 0.5 426.5 0.5Z" fill="#F2E8E3" stroke="#2073B5"/>
<path d="M428.941 83.9254L428.955 94.316C428.962 100.055 433.617 104.701 439.351 104.693C445.086 104.686 449.729 100.028 449.721 94.2892L449.708 83.8984L428.941 83.9254Z" fill="#2073B5"/>
<path d="M439.296 88.7495C454.143 88.7495 466.179 76.705 466.179 61.8474C466.179 46.9898 454.143 34.9453 439.296 34.9453C424.45 34.9453 412.414 46.9898 412.414 61.8474C412.414 76.705 424.45 88.7495 439.296 88.7495Z" fill="#F19620"/>
<path d="M439.276 98.0843C435.737 98.0843 429.166 97.7446 429.164 96.4506C429.164 96.3271 429.264 96.2267 429.387 96.2265C429.511 96.2265 429.611 96.3265 429.611 96.4497C429.713 96.8763 433.02 97.6368 439.247 97.6371C439.28 97.6371 439.312 97.6371 439.346 97.6371C445.638 97.6288 448.976 96.8537 449.077 96.422C449.077 96.2985 449.177 96.1995 449.301 96.1992C449.424 96.1992 449.524 96.3003 449.524 96.4237C449.526 97.7265 442.867 98.0794 439.346 98.0841C439.323 98.0843 439.299 98.0843 439.276 98.0843Z" fill="white"/>
<path d="M439.268 93.5291C435.729 93.5291 429.158 93.1894 429.156 91.8953C429.156 91.7719 429.256 91.6717 429.38 91.6715C429.503 91.6715 429.603 91.7715 429.603 91.8949C429.706 92.3238 433.048 93.0818 439.338 93.0821C445.63 93.074 448.968 92.2988 449.07 91.8672C449.069 91.7435 449.169 91.6447 449.293 91.6445C449.417 91.6445 449.516 91.7455 449.517 91.869C449.518 93.1717 442.859 93.5246 439.338 93.5291C439.315 93.5291 439.292 93.5291 439.268 93.5291Z" fill="white"/>
<path d="M435.733 82.4287C435.646 82.4287 435.563 82.3777 435.527 82.2927L427.053 62.4366C427.005 62.323 427.058 62.1915 427.171 62.143C427.284 62.0947 427.416 62.1471 427.465 62.2609L435.938 82.1169C435.987 82.2305 435.934 82.362 435.821 82.4105C435.792 82.4231 435.762 82.4287 435.733 82.4287Z" fill="#2073B5"/>
<path d="M442.911 82.423C442.882 82.423 442.852 82.4171 442.824 82.4051C442.71 82.3568 442.657 82.2255 442.705 82.1119L451.127 62.2339C451.176 62.1199 451.308 62.0676 451.421 62.1152C451.534 62.1635 451.587 62.2947 451.539 62.4083L443.117 82.2861C443.081 82.3717 442.998 82.423 442.911 82.423Z" fill="#2073B5"/>
<path d="M434.468 64.9701C433.418 64.9701 432.371 64.7166 431.457 64.1958C431.35 64.1347 431.312 63.9981 431.373 63.8908C431.434 63.7832 431.571 63.7459 431.678 63.8069C433.601 64.9019 436.157 64.7235 437.933 63.4172C436.329 62.5549 435.034 61.105 434.486 59.3559C434.092 58.1003 434.125 56.8732 434.58 55.9002C435.13 54.722 436.322 53.979 437.483 54.0937C438.83 54.2267 439.778 55.4092 440.216 56.4713C441.161 58.766 440.543 61.6068 438.75 63.315C439.724 63.7224 440.787 63.9049 441.845 63.7973C444.834 63.4945 447.415 60.9152 447.721 57.9248C447.734 57.802 447.846 57.7126 447.967 57.7251C448.09 57.7376 448.179 57.8474 448.167 57.9704C447.839 61.164 445.082 63.9189 441.89 64.2423C440.687 64.3639 439.475 64.135 438.38 63.6379C437.281 64.5158 435.873 64.9701 434.468 64.9701ZM437.253 54.5299C436.35 54.5299 435.419 55.1605 434.985 56.0896C434.578 56.961 434.552 58.0737 434.912 59.2222C435.445 60.9208 436.73 62.3181 438.31 63.1126C440.075 61.544 440.703 58.8262 439.802 56.6419C439.414 55.6996 438.589 54.6525 437.439 54.5389C437.377 54.5331 437.315 54.5299 437.253 54.5299Z" fill="white"/>
<path d="M494.106 249.54L489.303 247.861C489.691 245.37 489.873 242.878 489.862 240.407L492.894 239.832C493.978 239.627 494.69 238.581 494.485 237.497L492.021 224.505C491.815 223.421 490.77 222.709 489.686 222.915L486.642 223.492C485.739 221.168 484.654 218.918 483.398 216.763L487.26 213.438L476.022 200.391L472.17 203.709C470.244 202.161 468.182 200.752 465.991 199.504L467.669 194.701L451.414 189.021L449.735 193.824C447.243 193.436 444.752 193.253 442.281 193.265L441.334 188.27L424.416 191.478L425.366 196.485C423.042 197.388 420.792 198.473 418.637 199.728L416.616 197.381C415.895 196.545 414.634 196.451 413.798 197.171L403.779 205.801C402.943 206.521 402.849 207.782 403.569 208.618L405.583 210.957C404.035 212.883 402.626 214.945 401.378 217.136L396.575 215.458L390.895 231.713L395.698 233.392C395.31 235.883 395.128 238.374 395.139 240.845L392.106 241.421C391.022 241.626 390.31 242.672 390.516 243.756L392.98 256.748C393.185 257.832 394.231 258.544 395.315 258.338L398.359 257.761C399.262 260.085 400.347 262.335 401.602 264.489L397.741 267.815L408.978 280.862L412.831 277.544C414.757 279.092 416.82 280.501 419.01 281.749L417.332 286.552L433.587 292.232L435.266 287.429C437.757 287.817 440.249 288 442.719 287.988L443.667 292.983L460.584 289.775L459.635 284.768C461.959 283.865 464.209 282.78 466.363 281.524L468.385 283.872C469.105 284.708 470.367 284.802 471.203 284.082L481.222 275.452C482.058 274.732 482.152 273.471 481.432 272.635L479.418 270.296C480.965 268.37 482.374 266.307 483.623 264.116L488.426 265.795L494.106 249.54ZM473.276 252.525C467.057 268.652 449.132 277.293 432.641 272.115C414.431 266.397 404.856 246.536 411.724 228.728C417.944 212.601 435.869 203.959 452.36 209.138C470.57 214.856 480.144 234.717 473.276 252.525Z" fill="white"/>
<path d="M442.504 278.706C438.31 278.706 434.067 278.012 429.936 276.568C420.334 273.213 412.613 266.32 408.196 257.157C403.779 247.995 403.195 237.662 406.55 228.059C409.576 219.399 415.623 212.124 423.577 207.575C431.452 203.071 440.671 201.515 449.536 203.193C449.759 203.236 449.906 203.451 449.864 203.675C449.822 203.899 449.609 204.047 449.382 204.003C431.443 200.606 413.361 211.065 407.328 228.331C404.045 237.725 404.617 247.835 408.939 256.799C413.26 265.763 420.813 272.508 430.207 275.79C446.231 281.389 464.01 275.463 473.443 261.38C473.57 261.191 473.826 261.14 474.015 261.267C474.204 261.393 474.255 261.649 474.128 261.838C466.919 272.603 454.936 278.706 442.504 278.706Z" fill="#F2E6DC"/>
<path d="M388.535 283.854L385.881 282.927C386.095 281.55 386.196 280.174 386.19 278.808L387.865 278.491C388.464 278.377 388.858 277.799 388.744 277.2L387.383 270.022C387.269 269.423 386.692 269.029 386.093 269.143L384.411 269.462C383.912 268.178 383.312 266.935 382.618 265.744L384.752 263.907L378.543 256.698L376.414 258.531C375.35 257.676 374.21 256.897 373 256.208L373.927 253.554L364.945 250.415L364.018 253.069C362.641 252.855 361.265 252.754 359.899 252.76L359.376 250L350.028 251.773L350.553 254.539C349.269 255.038 348.026 255.638 346.835 256.332L345.718 255.034C345.32 254.573 344.623 254.521 344.161 254.918L338.625 259.687C338.163 260.085 338.111 260.782 338.509 261.244L339.622 262.536C338.767 263.6 337.988 264.74 337.299 265.95L334.645 265.023L331.506 274.004L334.16 274.932C333.946 276.309 333.845 277.685 333.851 279.05L332.176 279.368C331.577 279.482 331.183 280.059 331.297 280.658L332.658 287.837C332.772 288.436 333.349 288.83 333.948 288.716L335.63 288.397C336.13 289.681 336.729 290.924 337.423 292.115L335.289 293.952L341.498 301.161L343.627 299.328C344.691 300.183 345.831 300.962 347.041 301.651L346.114 304.305L355.096 307.444L356.023 304.79C357.4 305.004 358.776 305.105 360.142 305.099L360.665 307.859L370.013 306.086L369.488 303.32C370.772 302.82 372.015 302.221 373.206 301.527L374.323 302.824C374.721 303.286 375.418 303.338 375.88 302.94L381.416 298.172C381.878 297.774 381.93 297.077 381.532 296.615L380.419 295.323C381.274 294.259 382.053 293.119 382.742 291.909L385.396 292.836L388.535 283.854ZM377.026 285.504C373.589 294.415 363.685 299.189 354.573 296.328C344.511 293.169 339.221 282.195 343.015 272.355C346.452 263.444 356.356 258.669 365.468 261.531C375.53 264.69 380.82 275.664 377.026 285.504Z" fill="white"/>
<path d="M360.024 299.97C357.706 299.97 355.362 299.587 353.079 298.789C347.774 296.935 343.508 293.126 341.067 288.064C338.627 283.001 338.304 277.292 340.157 271.986C341.83 267.201 345.171 263.181 349.566 260.667C353.917 258.179 359.011 257.319 363.909 258.246C364.033 258.27 364.114 258.389 364.09 258.513C364.067 258.636 363.949 258.718 363.824 258.694C353.912 256.817 343.921 262.596 340.588 272.136C338.774 277.327 339.09 282.913 341.478 287.866C343.865 292.819 348.039 296.545 353.229 298.359C362.083 301.453 371.907 298.179 377.119 290.397C377.189 290.292 377.331 290.265 377.435 290.334C377.539 290.404 377.567 290.546 377.497 290.65C373.514 296.598 366.893 299.97 360.024 299.97Z" fill="#F2E6DC"/>
<path d="M377.5 174.253H199.516V57.0547H201.823V171.946H377.5V174.253Z" fill="white"/>
<path d="M334.546 81.25L313.539 93.7979L314.722 95.7784L335.729 83.2305L334.546 81.25Z" fill="white"/>
<path d="M273.319 47.5234L271.391 48.7899L299.848 92.1131L301.776 90.8466L273.319 47.5234Z" fill="white"/>
<path d="M259.297 45.3047L237.188 62.3828L238.597 64.2089L260.707 47.1309L259.297 45.3047Z" fill="white"/>
<path d="M239.563 71.2129C240.72 66.313 237.686 61.403 232.786 60.246C227.887 59.089 222.977 62.1232 221.82 67.023C220.663 71.9229 223.697 76.8329 228.597 77.9899C233.496 79.1469 238.406 76.1127 239.563 71.2129Z" fill="white"/>
<path d="M276.59 41.1718C276.869 36.1445 273.019 31.8434 267.992 31.565C262.964 31.2866 258.663 35.1363 258.385 40.1635C258.107 45.1908 261.956 49.4918 266.983 49.7702C272.011 50.0487 276.312 46.199 276.59 41.1718Z" fill="white"/>
<path d="M315.217 99.1866C315.217 104.221 311.136 108.303 306.101 108.303C301.066 108.303 296.984 104.221 296.984 99.1866C296.984 94.1519 301.066 90.0703 306.101 90.0703C311.136 90.0703 315.217 94.1519 315.217 99.1866Z" fill="white"/>
<path d="M346.679 86.35C351.33 84.4232 353.539 79.0903 351.612 74.4387C349.685 69.7871 344.353 67.5781 339.701 69.5049C335.049 71.4317 332.84 76.7647 334.767 81.4163C336.694 86.0679 342.027 88.2768 346.679 86.35Z" fill="white"/>
<path d="M242.606 92.6523H219.934V154.819H242.606V92.6523Z" fill="#C1AEAE"/>
<path d="M280.024 80.2695H257.352V154.821H280.024V80.2695Z" fill="#C1AEAE"/>
<path d="M317.438 114.648H294.766V154.823H317.438V114.648Z" fill="#C1AEAE"/>
<path d="M354.852 103.109H332.18V154.82H354.852V103.109Z" fill="#C1AEAE"/>
<path d="M125.809 216.514C143.08 220.657 192.192 235.664 198.265 214.976C203.289 197.863 154.814 185.358 137.931 180.133C133.89 192.26 129.849 204.387 125.809 216.514Z" fill="white"/>
<path d="M166.145 203.146C166.145 203.145 166.144 203.144 166.145 203.144C183.511 175.956 195.31 156.335 199.191 150.42C199.597 149.801 200.309 148.704 201.587 147.584C206.32 143.43 211.226 145.597 218.196 143.5C226.104 141.122 229.21 135.305 230.976 136.458C232.204 137.26 231.65 139.784 228.737 144.102L228.738 144.103C231.328 141.077 235.02 137.126 236.688 138.562C238.525 140.324 234.733 145.475 232.286 148.478C235.248 144.843 237.91 143.795 238.641 144.828C239.79 146.453 238.151 149.807 234.05 154.461C237.778 152.039 239.045 152.007 239.468 153.077C240.241 155.031 236.798 158.793 233.244 161.653C229.244 164.872 225.025 165.98 222.348 166.616C222.347 166.616 222.346 166.617 222.346 166.617C212.158 186.92 204.715 199.582 197.738 216.553C193.292 227.369 167.593 220.779 166.145 203.146Z" fill="white"/>
<path d="M165.83 203.698C165.754 203.698 165.677 203.677 165.608 203.633C165.416 203.511 165.361 203.256 165.483 203.064C167.875 199.317 170.303 195.492 172.7 191.696C172.822 191.504 173.076 191.446 173.269 191.567C173.461 191.689 173.519 191.943 173.397 192.136C171 195.933 168.571 199.759 166.178 203.508C166.099 203.631 165.966 203.698 165.83 203.698Z" fill="#2073B5"/>
<path d="M212.251 146.911C216.2 139.757 216.109 136.34 214.955 135.751C213.015 134.759 207.144 139.486 200.055 149.213C203.51 148.877 208.795 147.248 212.251 146.911Z" fill="white"/>
<path d="M210.709 160.85C210.641 160.85 210.573 160.833 210.51 160.799C210.311 160.689 210.238 160.438 210.348 160.239C211.075 158.918 212.438 157.081 214.808 155.834C218.159 154.068 221.438 154.63 222.692 154.954C222.912 155.011 223.045 155.235 222.987 155.456C222.931 155.676 222.705 155.808 222.486 155.752C221.324 155.452 218.289 154.931 215.192 156.563C213.004 157.715 211.743 159.414 211.07 160.636C210.995 160.773 210.854 160.85 210.709 160.85Z" fill="#2073B5"/>
<path d="M205.319 146.139C205.144 146.139 204.981 146.027 204.926 145.851C204.857 145.634 204.977 145.402 205.194 145.334C206.944 144.78 208.773 144.656 210.711 144.526C211.608 144.465 212.536 144.403 213.501 144.295C213.73 144.27 213.932 144.434 213.957 144.66C213.982 144.886 213.819 145.09 213.592 145.115C212.609 145.224 211.672 145.287 210.767 145.348C208.88 145.475 207.098 145.595 205.443 146.12C205.402 146.133 205.36 146.139 205.319 146.139Z" fill="#2073B5"/>
<path d="M222.358 148.329C222.187 148.329 222.027 148.222 221.968 148.051C221.894 147.836 222.008 147.601 222.223 147.527C223.14 147.211 224.03 146.808 224.87 146.331C226.088 145.638 227.212 144.781 228.211 143.784C228.373 143.623 228.633 143.624 228.794 143.785C228.955 143.946 228.955 144.207 228.793 144.368C227.742 145.416 226.559 146.318 225.277 147.047C224.394 147.55 223.457 147.973 222.492 148.306C222.448 148.322 222.402 148.329 222.358 148.329Z" fill="#2073B5"/>
<path d="M226.275 152.224C226.104 152.224 225.945 152.117 225.886 151.946C225.812 151.731 225.926 151.496 226.141 151.422C227.057 151.106 227.947 150.703 228.788 150.225C230.005 149.532 231.13 148.675 232.129 147.679C232.29 147.518 232.551 147.519 232.712 147.68C232.872 147.841 232.872 148.102 232.711 148.263C231.66 149.311 230.477 150.212 229.195 150.942C228.311 151.445 227.374 151.868 226.41 152.201C226.365 152.216 226.32 152.224 226.275 152.224Z" fill="#2073B5"/>
<path d="M227.795 158.763C227.624 158.763 227.464 158.656 227.406 158.485C227.331 158.27 227.445 158.035 227.661 157.961C228.577 157.644 229.467 157.242 230.307 156.764C231.525 156.071 232.65 155.214 233.649 154.218C233.81 154.057 234.071 154.058 234.231 154.219C234.392 154.38 234.392 154.641 234.231 154.802C233.18 155.85 231.997 156.751 230.715 157.481C229.831 157.983 228.894 158.407 227.93 158.74C227.885 158.756 227.84 158.763 227.795 158.763Z" fill="#2073B5"/>
<path d="M72.9074 349.071L68.2326 363.096C59.825 362.844 51.4195 362.976 43.0273 363.107H43.0214C34.6702 363.237 26.3321 363.368 17.9961 363.123C18.9517 345.701 22.1383 320.043 31.7852 292.952C41.0293 266.992 53.1022 246.993 62.9543 233.16L126.264 244.767C129.796 254.082 133.081 264.462 135.73 275.857C143.689 310.102 142.873 340.486 140.037 363.098C131.838 362.933 123.638 363.02 115.449 363.107H115.444C107.252 363.194 99.0701 363.281 90.8889 363.116C90.2783 354.385 89.6677 345.4 89.0571 336.415C88.4359 327.274 87.8146 318.132 87.1933 309.257L86.2202 309.134C84.8125 313.356 83.4051 317.578 81.9977 321.801C80.5652 326.098 79.1327 330.396 77.6999 334.694L72.9074 349.071Z" fill="white" stroke="#2073B5"/>
<path d="M34.5547 187.406C22.636 197.003 -12.6972 219.748 4.59836 242.887C11.1232 251.617 40.5301 223.591 52.9832 214.829C46.8406 205.688 40.6977 196.547 34.5547 187.406Z" fill="white"/>
<path d="M23.9102 192.501C28.2875 188.454 61.1055 159.106 105.738 166.408C131.476 170.619 147.829 178.007 157.285 184.004C147.845 201.086 144.788 204.866 139.463 211.493C142.185 225.338 144.906 239.183 147.628 253.028C127.393 252.851 62.0726 250.898 41.4827 250.188C45.151 238.473 48.8192 232.207 52.4874 220.491C49.6476 222.858 46.8074 225.225 43.9676 227.591C37.4002 216.641 29.7677 202.796 23.9102 192.501Z" fill="#F19620"/>
<path d="M73.1115 242.181C73.0657 242.181 73.019 242.174 72.973 242.157C72.7588 242.081 72.6469 241.845 72.7231 241.631L91.7257 188.277H133.462C133.69 188.277 133.874 188.462 133.874 188.69C133.874 188.917 133.69 189.102 133.462 189.102H92.307L73.4998 241.908C73.4395 242.076 73.2809 242.181 73.1115 242.181Z" fill="#D87355"/>
<path d="M116.547 244.337H75.1016L94.0066 191.258H135.452L116.547 244.337Z" fill="#D87355"/>
<path d="M13.7576 214.703C27.9371 215.652 61.4399 216.232 64.7081 216.418C70.8173 216.768 103.555 219.494 103.674 224.26C103.731 226.538 97.3999 226.298 95.2623 226.155C96.9317 227.122 103.745 230.141 103.145 232.623C102.439 235.54 93.7691 233.185 93.6108 233.234C95.4059 234.044 102.687 236.981 102.308 238.86C101.817 241.304 94.2239 240.602 91.9604 240.287C92.1548 240.629 99.4713 242.41 99.0087 245.35C98.6691 247.508 91.7042 246.853 88.6818 246.578C83.2536 246.272 19.9296 246.127 8.16435 244.598C3.55886 243.999 7.52843 219.144 13.7576 214.703Z" fill="white"/>
<path d="M44.2992 216.137C44.2943 216.137 44.29 216.137 44.2855 216.137C37.0817 215.901 18.2691 215.064 13.69 214.808C13.4625 214.796 13.2886 214.601 13.3015 214.374C13.3141 214.147 13.5063 213.969 13.7358 213.985C18.3121 214.24 37.1132 215.077 44.3121 215.313C44.54 215.32 44.7182 215.511 44.7107 215.738C44.7034 215.961 44.5207 216.137 44.2992 216.137Z" fill="#2073B5"/>
<path d="M95.3517 226.344C95.2968 226.344 95.2418 226.333 95.1886 226.31C94.0291 225.811 92.8256 225.389 91.6118 225.055C89.4303 224.455 87.1678 224.125 84.8874 224.074C84.6599 224.069 84.4797 223.881 84.4845 223.653C84.4898 223.428 84.6732 223.25 84.8967 223.25C84.8996 223.25 84.9027 223.25 84.9059 223.25C87.254 223.302 89.5837 223.642 91.8308 224.26C93.0809 224.604 94.3206 225.039 95.5147 225.553C95.7236 225.643 95.8202 225.886 95.7306 226.095C95.6632 226.251 95.511 226.344 95.3517 226.344Z" fill="#2073B5"/>
<path d="M93.7432 233.495C93.7029 233.495 93.6623 233.489 93.622 233.476C93.369 233.398 93.1101 233.323 92.8461 233.25C90.6654 232.65 88.4031 232.32 86.1217 232.269C85.8942 232.264 85.714 232.076 85.7188 231.848C85.7241 231.624 85.9075 231.445 86.1311 231.445C86.1339 231.445 86.137 231.445 86.1402 231.445C88.4888 231.498 90.8187 231.838 93.0651 232.456C93.3371 232.531 93.6041 232.608 93.8645 232.689C94.0822 232.756 94.2042 232.986 94.1374 233.204C94.0826 233.381 93.9195 233.495 93.7432 233.495Z" fill="#2073B5"/>
<path d="M91.8187 240.623C91.7938 240.623 91.7687 240.621 91.7434 240.616C90.2896 240.347 88.7976 240.194 87.3092 240.161C87.0817 240.156 86.9015 239.967 86.9063 239.74C86.9116 239.512 87.0838 239.32 87.3277 239.337C88.8603 239.371 90.3963 239.529 91.8932 239.806C92.1169 239.847 92.2651 240.062 92.2236 240.286C92.1869 240.485 92.0134 240.623 91.8187 240.623Z" fill="#2073B5"/>
<path d="M61.6095 144.192C48.6905 144.192 38.1797 133.681 38.1797 120.762C38.1797 107.843 48.6903 97.332 61.6095 97.332C74.5287 97.332 85.0393 107.843 85.0393 120.762C85.0393 133.681 74.5287 144.192 61.6095 144.192ZM61.6095 98.1565C49.1448 98.1565 39.004 108.297 39.004 120.762C39.004 133.227 49.1448 143.367 61.6095 143.367C74.0742 143.367 84.2148 133.226 84.2148 120.762C84.215 108.297 74.0742 98.1565 61.6095 98.1565Z" fill="#2073B5"/>
<path d="M65.7269 139.61C81.5664 139.61 94.4069 126.769 94.4069 110.93C94.4069 95.0905 81.5664 82.25 65.7269 82.25C49.8874 82.25 37.0469 95.0905 37.0469 110.93C37.0469 126.769 49.8874 139.61 65.7269 139.61Z" fill="#2073B5"/>
<path d="M95.9228 152.607C106.609 152.607 115.271 143.945 115.271 133.259C115.271 122.573 106.609 113.91 95.9228 113.91C85.2369 113.91 76.5742 122.573 76.5742 133.259C76.5742 143.945 85.2369 152.607 95.9228 152.607Z" fill="#2073B5"/>
<path d="M111.742 156.959C107.467 159.995 95.3903 151.752 95.3903 151.752L88.4805 137.298C88.4805 129.921 94.4606 123.941 101.837 123.941C109.214 123.941 115.194 129.921 115.194 137.298C115.194 137.298 116.097 153.866 111.742 156.959Z" fill="white"/>
<path d="M97.3303 178.003C105.873 178.003 112.797 175.164 112.797 171.662C112.797 168.159 105.873 165.32 97.3303 165.32C88.7881 165.32 81.8633 168.159 81.8633 171.662C81.8633 175.164 88.7881 178.003 97.3303 178.003Z" fill="white"/>
<path d="M104.989 137.148H88.4805V170.916H104.989V137.148Z" fill="white"/>
<path d="M113.665 140.812C113.665 140.812 117.411 144.739 117.212 145.775C116.974 147.012 112.801 147.766 112.801 147.766C112.801 147.766 113.765 140.822 113.665 140.812Z" fill="white"/>
<path d="M107.644 158.121C107.62 158.121 107.595 158.119 107.571 158.115C102.314 157.179 95.4498 152.525 95.1604 152.327C94.9725 152.198 94.9238 151.942 95.0522 151.754C95.181 151.566 95.4379 151.518 95.6251 151.646C95.6947 151.694 102.634 156.399 107.715 157.304C107.94 157.343 108.089 157.557 108.049 157.781C108.014 157.981 107.84 158.121 107.644 158.121Z" fill="#2073B5"/>
<path d="M100.281 139.31C100.281 139.31 102.732 137.992 105.686 137.992C106.315 137.992 105.129 143.022 104.532 142.737C101.909 141.485 100.281 139.31 100.281 139.31Z" fill="white"/>
<mask id="mask1_4269_266527" style="mask-type:luminance" maskUnits="userSpaceOnUse" x="100" y="137" width="14" height="7">
<path d="M100.285 139.314C100.285 139.314 103.89 137.375 107.625 138.201C111.361 139.026 113.814 142.303 113.814 142.303C113.814 142.303 110.209 144.241 106.473 143.416C102.737 142.591 100.285 139.314 100.285 139.314Z" fill="white"/>
</mask>
<g mask="url(#mask1_4269_266527)">
<path d="M109.351 146.405C112.114 146.405 114.354 144.165 114.354 141.402C114.354 138.638 112.114 136.398 109.351 136.398C106.588 136.398 104.348 138.638 104.348 141.402C104.348 144.165 106.588 146.405 109.351 146.405Z" fill="#2073B5"/>
</g>
<path d="M108.924 150.501C108.457 150.501 107.991 150.369 107.585 150.106C106.805 149.599 106.372 148.671 106.482 147.742C106.509 147.516 106.713 147.356 106.94 147.381C107.166 147.408 107.327 147.613 107.301 147.84C107.227 148.459 107.515 149.077 108.034 149.415C108.574 149.765 109.275 149.764 109.82 149.414C110.012 149.291 110.266 149.346 110.389 149.538C110.512 149.729 110.457 149.984 110.266 150.107C109.857 150.37 109.39 150.501 108.924 150.501Z" fill="#2073B5"/>
<path d="M85.2283 140.812C85.2283 140.812 89.4871 139.103 93.8835 143.615L96.7333 142.055C96.7333 142.055 95.0827 123.879 115.003 131.023C115.003 131.023 108.171 115.761 94.8452 121.366C81.519 126.97 85.2283 140.812 85.2283 140.812Z" fill="#2073B5"/>
<path d="M85.0648 144.005C85.8441 146.615 88.3154 148.181 90.5848 147.503C92.8542 146.826 94.0622 144.161 93.2829 141.551C92.5038 138.941 90.0322 137.375 87.7629 138.052C85.4935 138.73 84.2855 141.395 85.0648 144.005Z" fill="white"/>
<path d="M91.5128 142.408C91.3353 142.408 91.1711 142.292 91.118 142.114C90.738 140.841 89.5526 140.068 88.4736 140.389C87.8345 140.58 87.3446 141.131 87.1639 141.862C87.1093 142.083 86.8846 142.217 86.6649 142.163C86.444 142.109 86.309 141.885 86.3638 141.664C86.6154 140.647 87.3161 139.875 88.2379 139.599C89.7522 139.146 91.3978 140.17 91.9078 141.878C91.9729 142.096 91.849 142.325 91.6309 142.39C91.5912 142.402 91.5517 142.408 91.5128 142.408Z" fill="#2073B5"/>
<path d="M89.3622 154.483C86.9397 154.483 84.9688 152.512 84.9688 150.089C84.9688 147.666 86.9397 145.695 89.3622 145.695C91.7852 145.695 93.7562 147.666 93.7562 150.089C93.7562 152.512 91.7852 154.483 89.3622 154.483ZM89.3622 146.52C87.394 146.52 85.7929 148.121 85.7929 150.089C85.7929 152.057 87.394 153.659 89.3622 153.659C91.3304 153.659 92.932 152.057 92.932 150.089C92.932 148.121 91.3303 146.52 89.3622 146.52Z" fill="#F19620"/>
<path opacity="0.5" d="M301.243 237.091H230.12C224.358 237.091 219.645 232.377 219.645 226.616C219.645 220.855 224.358 216.141 230.12 216.141H301.243C307.004 216.141 311.718 220.855 311.718 226.616C311.718 232.377 307.004 237.091 301.243 237.091Z" fill="white"/>
<path d="M303.324 243.282H236.242C229.684 243.282 224.348 237.946 224.348 231.387C224.348 224.828 229.684 219.492 236.242 219.492H303.324C309.883 219.492 315.219 224.828 315.219 231.387C315.219 237.945 309.883 243.282 303.324 243.282ZM236.242 220.577C230.281 220.577 225.433 225.426 225.433 231.387C225.433 237.348 230.282 242.197 236.242 242.197H303.324C309.285 242.197 314.134 237.347 314.134 231.387C314.134 225.426 309.284 220.577 303.324 220.577H236.242Z" fill="white"/>
<path d="M240.369 231.128C240.369 233.408 238.521 235.256 236.241 235.256C233.961 235.256 232.113 233.408 232.113 231.128C232.113 228.848 233.961 227 236.241 227C238.521 227 240.369 228.848 240.369 231.128Z" fill="#D87355"/>
<path d="M253.568 231.128C253.568 233.408 251.719 235.256 249.44 235.256C247.16 235.256 245.312 233.408 245.312 231.128C245.312 228.848 247.16 227 249.44 227C251.719 227 253.568 228.848 253.568 231.128Z" fill="#D87355"/>
<path d="M266.768 231.128C266.768 233.408 264.919 235.256 262.64 235.256C260.36 235.256 258.512 233.408 258.512 231.128C258.512 228.848 260.36 227 262.64 227C264.919 227 266.768 228.848 266.768 231.128Z" fill="#D87355"/>
<path d="M279.963 231.128C279.963 233.408 278.115 235.256 275.835 235.256C273.555 235.256 271.707 233.408 271.707 231.128C271.707 228.848 273.555 227 275.835 227C278.115 227 279.963 228.848 279.963 231.128Z" fill="#D87355"/>
</g>
</g>
<defs>
<clipPath id="clip0_4269_266527">
<rect width="495" height="358" fill="white"/>
</clipPath>
</defs>
</svg>
