<svg width="55" height="55" viewBox="0 0 55 55" fill="none" xmlns="http://www.w3.org/2000/svg">
<path d="M6.14219 0.75H49.3422C50.7081 0.75 52.018 1.29259 52.9838 2.2584C53.9496 3.22421 54.4922 4.53414 54.4922 5.9V49.1C54.4922 50.4659 53.9496 51.7758 52.9838 52.7416C52.018 53.7074 50.7081 54.25 49.3422 54.25H6.14219C4.77632 54.25 3.4664 53.7074 2.50059 52.7416C1.53478 51.7758 0.992188 50.4659 0.992188 49.1V5.9C0.992188 4.53413 1.53478 3.22421 2.50059 2.2584C3.4664 1.29259 4.77632 0.75 6.14219 0.75ZM50.7918 50.5496C51.1762 50.1651 51.3922 49.6437 51.3922 49.1V5.9C51.3922 5.35631 51.1762 4.83488 50.7918 4.45043C50.4073 4.06598 49.8859 3.85 49.3422 3.85H6.14219C5.59849 3.85 5.07707 4.06598 4.69262 4.45043C4.30817 4.83488 4.09219 5.35631 4.09219 5.9V49.1C4.09219 49.6437 4.30817 50.1651 4.69262 50.5496C5.07707 50.934 5.59849 51.15 6.14219 51.15H49.3422C49.8859 51.15 50.4073 50.934 50.7918 50.5496Z" fill="#F51624" stroke="#F3F3F3" stroke-width="0.5"/>
<path d="M35.1465 21.7795L35.1539 21.775L35.161 21.7701C36.2978 20.9812 37.6811 20.554 39.1041 20.5547C40.936 20.5965 42.6727 21.3078 43.9384 22.529C45.2041 23.7503 45.8964 25.3821 45.8714 27.069L45.8714 27.069V27.0727V38.3047C45.8714 38.7096 45.6984 39.102 45.3837 39.3943C45.069 39.6866 44.6388 39.854 44.1865 39.8547C43.9016 39.8478 43.624 39.7747 43.3791 39.6432C43.1335 39.5112 42.9296 39.3252 42.7846 39.1037L42.6535 38.9036L42.4478 39.0257C41.5382 39.5657 40.4798 39.8539 39.3975 39.8547H38.7195C37.115 39.8547 35.5797 39.2624 34.4504 38.2134C33.3217 37.1649 32.6914 35.7469 32.6914 34.2727C32.6914 32.7984 33.3217 31.3805 34.4504 30.332C35.5797 29.2829 37.115 28.6907 38.7195 28.6907H42.3042H42.5542V28.4407V27.0766C42.5814 26.1924 42.2309 25.3377 41.5855 24.6981C40.9396 24.0581 40.051 23.685 39.1151 23.6548L39.1151 23.6546L39.1046 23.6547C38.4077 23.6614 37.7291 23.871 37.1641 24.2561L37.1579 24.2604L37.1519 24.265C36.9752 24.4019 36.7691 24.5044 36.546 24.5654C36.323 24.6265 36.0885 24.6445 35.8573 24.6182L35.8291 24.8666L35.8573 24.6182C35.6261 24.5919 35.4039 24.522 35.2043 24.4134C35.0048 24.3048 34.8327 24.1601 34.6979 23.9891C34.563 23.8183 34.4682 23.6247 34.4181 23.4205C34.368 23.2164 34.3634 23.0053 34.4046 22.7996C34.4459 22.5939 34.5322 22.3972 34.6593 22.2217C34.7865 22.0461 34.952 21.8953 35.1465 21.7795ZM42.5542 32.0407V31.7907H42.3042H38.6613C37.9635 31.7907 37.2909 32.048 36.7922 32.5113C36.2929 32.9751 36.0086 33.6082 36.0086 34.2727C36.0086 34.9372 36.2929 35.5703 36.7922 36.0341C37.2909 36.4973 37.9635 36.7547 38.6613 36.7547H39.3936C39.7118 36.7648 40.0292 36.7155 40.3273 36.6095C40.6267 36.5031 40.9012 36.3413 41.1339 36.133L41.1339 36.133L41.1373 36.1299L42.4743 34.8879L42.5542 34.8137V34.7047V32.0407Z" fill="#F51624" stroke="#F3F3F3" stroke-width="0.5"/>
<path d="M21.6149 16.1675L21.6149 16.1675C21.499 15.8708 21.2862 15.6111 21.0021 15.4261C20.7178 15.241 20.3771 15.1406 20.0264 15.1406C19.6757 15.1406 19.335 15.241 19.0507 15.4261C18.7666 15.6111 18.5538 15.8708 18.4378 16.1675L18.4368 16.1701L18.4368 16.1701L9.7175 37.7695C9.71748 37.7696 9.71747 37.7696 9.71745 37.7696C9.64137 37.9595 9.6065 38.1608 9.61437 38.3622C9.62224 38.5637 9.67275 38.7624 9.76366 38.947C9.85461 39.1317 9.98444 39.2993 10.1467 39.4394C10.309 39.5797 10.5004 39.6896 10.7104 39.7622C10.9204 39.8349 11.1442 39.8685 11.3689 39.8609C11.5936 39.8534 11.814 39.8048 12.0175 39.7183C12.2209 39.6319 12.4029 39.5096 12.5534 39.3592C12.7039 39.2088 12.8201 39.0334 12.8962 38.8435L12.8963 38.8434L14.9696 33.6774L15.0325 33.5205H15.2016H24.8899H25.059L25.122 33.6774L27.1952 38.8432L21.6149 16.1675ZM21.6149 16.1675L21.6161 16.1705M21.6149 16.1675L21.6161 16.1705M21.6161 16.1705L30.3743 37.7703L21.6161 16.1705ZM28.7839 39.8565L28.7867 39.8565C28.99 39.8582 29.1918 39.826 29.3823 39.7618C29.5924 39.6898 29.784 39.5802 29.9465 39.4403C30.1091 39.3003 30.2391 39.1328 30.3301 38.948C30.421 38.7633 30.4714 38.5645 30.479 38.3629C30.4865 38.1614 30.4511 37.9602 30.3744 37.7705L28.7839 39.8565ZM28.7839 39.8565C28.435 39.8576 28.0956 39.7592 27.8114 39.5767C27.5275 39.3943 27.3137 39.1376 27.1953 38.8434L26.9633 38.9365C27.1018 39.281 27.3507 39.5779 27.6763 39.787C28.002 39.9962 28.3888 40.1077 28.7847 40.1065L28.7839 39.8565ZM16.4231 30.0768L16.284 30.4205H16.6548H23.3979H23.7688L23.6297 30.0768L20.2581 21.7428L20.0264 21.1699L19.7946 21.7428L16.4231 30.0768Z" fill="#F51624" stroke="#F3F3F3" stroke-width="0.5"/>
</svg>
