<svg width="56" height="57" viewBox="0 0 56 57" fill="none" xmlns="http://www.w3.org/2000/svg">
<path d="M54.233 48.9015L43.6186 38.2872C43.3437 38.0124 42.971 37.8581 42.5824 37.8581C42.1938 37.8581 41.8211 38.0124 41.5462 38.2872L41.4186 38.4148L36.9131 33.9092C39.7564 30.3205 41.3045 25.8768 41.3065 21.2983C41.3065 10.0971 32.194 0.984375 20.9932 0.984375C9.79248 0.984375 0.679792 10.0971 0.679792 21.2977C0.662912 26.5523 2.69926 31.6057 6.35471 35.3804L2.01417 42.6821C1.65242 43.2907 1.45831 43.9843 1.45159 44.6923C1.44487 45.4003 1.62578 46.0974 1.97591 46.7128C2.32605 47.3282 2.83292 47.8399 3.44498 48.1958C4.05703 48.5518 4.75243 48.7393 5.46046 48.7393H32.7386C33.4466 48.7393 34.142 48.5517 34.754 48.1958C35.366 47.8398 35.8729 47.3281 36.223 46.7127C36.5731 46.0973 36.754 45.4002 36.7472 44.6922C36.7405 43.9842 36.5463 43.2907 36.1846 42.6821L33.1479 37.5734C33.3111 37.4515 33.4722 37.3272 33.6312 37.2007L38.132 41.7016L38.0044 41.8292C37.7297 42.104 37.5753 42.4767 37.5753 42.8654C37.5753 43.254 37.7297 43.6267 38.0044 43.9016L48.6189 54.5159C49.5821 55.479 50.6977 56.0008 51.8454 56.0245C51.8728 56.025 51.9 56.0253 51.9272 56.0254C52.4283 56.0267 52.9247 55.9286 53.3876 55.7366C53.8504 55.5446 54.2705 55.2626 54.6235 54.9069C56.0188 53.5118 56.3325 51.0011 54.233 48.9015ZM34.8923 45.9555C34.6781 46.3379 34.3653 46.6557 33.9864 46.876C33.6076 47.0963 33.1766 47.211 32.7384 47.208H5.46046C5.02288 47.208 4.59309 47.0921 4.21483 46.8721C3.83656 46.6521 3.52331 46.3359 3.30693 45.9556C3.09055 45.5752 2.97876 45.1443 2.98294 44.7068C2.98712 44.2692 3.10711 43.8406 3.33071 43.4644L16.9698 20.5195C17.1893 20.1503 17.501 19.8444 17.8743 19.632C18.2477 19.4196 18.6699 19.3079 19.0994 19.3079C19.529 19.3079 19.9511 19.4196 20.3245 19.632C20.6979 19.8444 21.0096 20.1503 21.2291 20.5195L34.8681 43.4644C35.0945 43.8396 35.2162 44.2685 35.2205 44.7067C35.2247 45.1448 35.1114 45.5761 34.8923 45.9555ZM22.5454 19.7372C22.1929 19.1375 21.6892 18.6408 21.0846 18.2968C20.48 17.9527 19.7957 17.7734 19.1001 17.7767C18.4042 17.7732 17.7196 17.9524 17.1147 18.2965C16.5099 18.6405 16.0059 19.1373 15.6532 19.7372L9.37904 30.2918C7.38061 27.7195 6.29615 24.5547 6.29696 21.2973C6.29696 13.1938 12.8897 6.601 20.9931 6.601C29.0966 6.601 35.6893 13.1938 35.6893 21.2973C35.6842 23.4823 35.1937 25.6388 34.2533 27.6111C33.313 29.5834 31.9462 31.3221 30.2517 32.7016L22.5454 19.7372ZM31.0412 34.0296C32.9627 32.509 34.5163 30.5745 35.5863 28.37C36.6563 26.1656 37.215 23.7481 37.2209 21.2977C37.2209 12.3499 29.9412 5.07019 20.9935 5.07019C12.0457 5.07019 4.76582 12.3502 4.76582 21.2977C4.76511 25.1 6.10302 28.7812 8.54495 31.6958L7.16814 34.0118C3.96693 30.5534 2.19558 26.0102 2.21104 21.2977C2.21104 10.9412 10.6366 2.51563 20.9931 2.51563C31.3496 2.51563 39.7752 10.9412 39.7752 21.2977C39.7733 24.1924 39.1032 27.0476 37.8169 29.6408C36.5306 32.234 34.663 34.4953 32.3596 36.2484L31.0412 34.0296ZM34.7948 36.1991C35.1838 35.8385 35.5572 35.4644 35.9152 35.0769L40.3358 39.4976L39.2146 40.6188L34.7948 36.1991ZM53.5407 53.8241C53.3237 54.0436 53.0641 54.2162 52.7777 54.3314C52.4914 54.4465 52.1845 54.5017 51.8759 54.4936C51.1313 54.4782 50.3791 54.1115 49.7008 53.4332L39.1335 42.8658L42.5825 39.417L53.1502 49.9846C53.8283 50.6627 54.1951 51.4151 54.2111 52.1598C54.2184 52.4683 54.1627 52.7749 54.0474 53.0611C53.9322 53.3472 53.7598 53.6068 53.5407 53.8241ZM19.0994 41.4549C18.6281 41.455 18.1674 41.5948 17.7756 41.8567C17.3837 42.1186 17.0784 42.4908 16.8981 42.9263C16.7178 43.3618 16.6706 43.8409 16.7626 44.3032C16.8547 44.7654 17.0817 45.19 17.415 45.5232C17.7483 45.8564 18.1729 46.0834 18.6352 46.1753C19.0974 46.2672 19.5766 46.2199 20.012 46.0395C20.4474 45.8591 20.8196 45.5537 21.0814 45.1618C21.3432 44.7699 21.4829 44.3091 21.4829 43.8378C21.4822 43.206 21.2308 42.6002 20.7839 42.1535C20.3371 41.7067 19.7313 41.4555 19.0994 41.4549ZM19.0994 44.6896C18.9309 44.6897 18.7662 44.6397 18.6261 44.5461C18.486 44.4525 18.3768 44.3195 18.3124 44.1639C18.2479 44.0082 18.231 43.8369 18.2639 43.6717C18.2967 43.5064 18.3779 43.3546 18.497 43.2355C18.6161 43.1164 18.7679 43.0352 18.9332 43.0024C19.0984 42.9695 19.2697 42.9864 19.4253 43.0509C19.581 43.1154 19.714 43.2246 19.8076 43.3647C19.9012 43.5047 19.9511 43.6695 19.9511 43.8379C19.9507 44.0637 19.8608 44.2801 19.7012 44.4397C19.5416 44.5993 19.3252 44.6892 19.0994 44.6895V44.6896ZM16.0568 25.3667C16.0568 25.3939 16.0568 25.4669 16.7165 38.2037C16.7207 38.8329 16.9737 39.4349 17.4201 39.8783C17.8665 40.3217 18.4702 40.5705 19.0994 40.5705C19.7286 40.5705 20.3322 40.3217 20.7786 39.8783C21.2251 39.4349 21.478 38.8329 21.4823 38.2037C22.142 25.4669 22.142 25.3939 22.142 25.3667C22.142 24.5597 21.8215 23.7858 21.2509 23.2153C20.6803 22.6447 19.9064 22.3241 19.0994 22.3241C18.2925 22.3241 17.5186 22.6447 16.948 23.2153C16.3774 23.7858 16.0568 24.5597 16.0568 25.3667ZM20.6107 25.3535C20.5927 25.7601 20.1738 33.8649 19.9522 38.1425C19.9514 38.1556 19.9511 38.1688 19.9511 38.182C19.9486 38.4063 19.8577 38.6205 19.6983 38.7781C19.5388 38.9358 19.3236 39.0242 19.0994 39.0242C18.8751 39.0242 18.6599 38.9358 18.5005 38.7781C18.341 38.6205 18.2501 38.4063 18.2476 38.182C18.2476 38.1688 18.2476 38.1556 18.2465 38.1425C18.0251 33.8652 17.6062 25.7612 17.5882 25.3536C17.593 24.9559 17.7543 24.5762 18.0372 24.2967C18.3201 24.0171 18.7017 23.8604 19.0994 23.8604C19.4971 23.8604 19.8788 24.0171 20.1616 24.2967C20.4445 24.5762 20.6059 24.9559 20.6107 25.3536V25.3535Z" fill="#F51624" stroke="#F51624" stroke-width="0.2"/>
</svg>
