<svg width="55" height="55" viewBox="0 0 55 55" fill="none" xmlns="http://www.w3.org/2000/svg">
<path d="M24.3672 54.5C23.7462 54.5 23.2422 53.996 23.2422 53.375V44.375C23.2422 43.754 23.7462 43.25 24.3672 43.25C24.9882 43.25 25.4922 43.754 25.4922 44.375V53.375C25.4922 53.996 24.9882 54.5 24.3672 54.5Z" fill="#F51624"/>
<path d="M31.1172 54.5C30.4962 54.5 29.9922 53.996 29.9922 53.375V44.375C29.9922 43.754 30.4962 43.25 31.1172 43.25C31.7382 43.25 32.2422 43.754 32.2422 44.375V53.375C32.2422 53.996 31.7382 54.5 31.1172 54.5Z" fill="#F51624"/>
<path d="M37.8672 54.5H17.6172C16.9962 54.5 16.4922 53.996 16.4922 53.375C16.4922 52.754 16.9962 52.25 17.6172 52.25H37.8672C38.4882 52.25 38.9922 52.754 38.9922 53.375C38.9922 53.996 38.4882 54.5 37.8672 54.5Z" fill="#F51624"/>
<path d="M51.3672 45.5H4.11719C2.25644 45.5 0.742188 43.9857 0.742188 42.125V12.875C0.742188 11.0142 2.25644 9.5 4.11719 9.5H13.1172C13.7382 9.5 14.2422 10.004 14.2422 10.625C14.2422 11.246 13.7382 11.75 13.1172 11.75H4.11719C3.49844 11.75 2.99219 12.254 2.99219 12.875V42.125C2.99219 42.746 3.49844 43.25 4.11719 43.25H51.3672C51.9859 43.25 52.4922 42.746 52.4922 42.125V12.875C52.4922 12.254 51.9859 11.75 51.3672 11.75H49.1172C48.4962 11.75 47.9922 11.246 47.9922 10.625C47.9922 10.004 48.4962 9.5 49.1172 9.5H51.3672C53.2279 9.5 54.7422 11.0142 54.7422 12.875V42.125C54.7422 43.9857 53.2279 45.5 51.3672 45.5Z" fill="#F51624"/>
<path d="M29.4474 27.1355C29.1594 27.1355 28.8714 27.0253 28.6509 26.807L20.5577 18.7138C20.1324 18.2908 20.1145 17.609 20.5172 17.1658L27.148 9.806C31.855 4.36775 39.3227 0.61925 45.7172 0.5C46.0929 0.5045 46.3202 0.61475 46.534 0.8285C46.75 1.0445 46.8692 1.33925 46.8625 1.64525C46.741 8.03975 42.9947 15.5098 37.5384 20.2325L30.1967 26.8475C29.9852 27.041 29.7152 27.1355 29.4474 27.1355ZM22.9044 17.879L29.488 24.4625L36.0534 18.5472C40.7244 14.504 44.0252 8.33 44.545 2.81975C39.0369 3.34175 32.8652 6.64025 28.8355 11.2955L22.9044 17.879Z" fill="#F51624"/>
<path d="M32.4729 32.4759C32.3717 32.4759 32.2682 32.4624 32.1669 32.4332C31.7732 32.3229 31.4717 32.0102 31.3772 31.6119L29.7887 24.9744C29.6447 24.3692 30.0182 23.7639 30.6212 23.6177C31.2287 23.4692 31.8339 23.8472 31.9779 24.4502L33.0332 28.8557C34.9862 25.8002 35.3777 21.8874 35.4182 19.5969C35.4294 18.9782 35.9762 18.5237 36.5634 18.4922C37.1822 18.5034 37.6772 19.0187 37.6659 19.6374C37.5714 24.9609 36.0099 29.4024 33.2672 32.1452C33.0534 32.3612 32.7654 32.4759 32.4729 32.4759Z" fill="#F51624"/>
<path d="M22.6602 17.6041C22.5747 17.6041 22.487 17.5951 22.3992 17.5726L15.7617 15.9818C15.3635 15.8873 15.0507 15.5881 14.9405 15.1943C14.8302 14.8028 14.9405 14.3821 15.2285 14.0941C17.9712 11.3513 22.4105 9.78981 27.7362 9.69531C28.3235 9.72681 28.8702 10.1791 28.8815 10.8001C28.8927 11.4211 28.3977 11.9341 27.7767 11.9453C25.4862 11.9858 21.5757 12.3751 18.5202 14.3303L22.9257 15.3856C23.531 15.5296 23.9045 16.1371 23.7582 16.7423C23.6322 17.2576 23.171 17.6041 22.6602 17.6041Z" fill="#F51624"/>
<path d="M14.2427 34.2502C13.9479 34.2502 13.6599 34.1354 13.4462 33.9217C13.1537 33.6292 13.0457 33.1994 13.1649 32.8034C13.5362 31.5614 15.4644 25.2929 16.9764 23.7809C18.8012 21.9584 21.7622 21.9584 23.5869 23.7809C25.4094 25.6034 25.4072 28.5689 23.5869 30.3914C22.0749 31.9012 15.8064 33.8339 14.5644 34.2052C14.4609 34.2344 14.3507 34.2502 14.2427 34.2502ZM20.2839 24.6629C19.6652 24.6629 19.0419 24.8969 18.5694 25.3694C17.9327 26.0084 16.8302 28.8277 15.9729 31.3949C18.5424 30.5354 21.3617 29.4374 21.9984 28.7984C22.9412 27.8534 22.9412 26.3144 21.9984 25.3717C21.5237 24.8992 20.9049 24.6629 20.2839 24.6629Z" fill="#F51624"/>
</svg>
