<svg width="54" height="54" viewBox="0 0 54 54" fill="none" xmlns="http://www.w3.org/2000/svg">
<g clip-path="url(#clip0_3466_3976)">
<g clip-path="url(#clip1_3466_3976)">
<path d="M6.27539 39.5146H9.54492C9.95037 39.5142 10.3391 39.3529 10.6258 39.0662C10.9125 38.7795 11.0737 38.3908 11.0742 37.9854V34.7158C11.0737 34.3104 10.9125 33.9217 10.6258 33.635C10.3391 33.3483 9.95037 33.187 9.54492 33.1865H6.27539C5.86994 33.187 5.48123 33.3483 5.19454 33.635C4.90784 33.9217 4.74657 34.3104 4.74609 34.7158V37.9854C4.74657 38.3908 4.90784 38.7795 5.19454 39.0662C5.48123 39.3529 5.86994 39.5142 6.27539 39.5146ZM6.32812 34.7686H9.49219V37.9326H6.32812V34.7686ZM29.7508 34.0352C31.8484 34.0338 33.8805 33.3052 35.5011 31.9735C37.1217 30.6418 38.2304 28.7894 38.6383 26.7319C39.0462 24.6745 38.7282 22.5392 37.7383 20.6899C36.7485 18.8406 35.148 17.3918 33.2097 16.5902C31.2714 15.7886 29.1151 15.6839 27.1082 16.2938C25.1013 16.9038 23.368 18.1907 22.2036 19.9354C21.0392 21.68 20.5157 23.7744 20.7223 25.8618C20.9289 27.9491 21.8529 29.9002 23.3368 31.3827C24.1785 32.2255 25.1784 32.8937 26.2792 33.3489C27.3799 33.8041 28.5597 34.0373 29.7508 34.0352ZM29.6618 24.4854H22.2829C22.3533 23.3747 22.6707 22.2937 23.2119 21.3213H29.6618C29.8716 21.3213 30.0728 21.2379 30.2212 21.0896C30.3695 20.9413 30.4528 20.7401 30.4528 20.5303C30.4528 20.3205 30.3695 20.1193 30.2212 19.9709C30.0728 19.8226 29.8716 19.7393 29.6618 19.7393H24.3926C24.4139 19.7174 24.4338 19.6947 24.4555 19.6731C25.8616 18.277 27.7638 17.4951 29.7453 17.4987C31.7268 17.5022 33.6262 18.291 35.0273 19.6921C36.4285 21.0933 37.2172 22.9926 37.2208 24.9741C37.2243 26.9556 36.4424 28.8578 35.0463 30.264C34.0658 31.2455 32.8317 31.9353 31.4819 32.2561C30.1322 32.577 28.7198 32.5164 27.4025 32.0811C26.0851 31.6458 24.9147 30.8529 24.0219 29.791C23.1291 28.7291 22.549 27.4399 22.3464 26.0674H29.6618C29.8716 26.0674 30.0728 25.984 30.2212 25.8357C30.3695 25.6874 30.4528 25.4862 30.4528 25.2764C30.4528 25.0666 30.3695 24.8654 30.2212 24.717C30.0728 24.5687 29.8716 24.4854 29.6618 24.4854ZM12.0896 4.9132C11.9331 4.9132 11.7802 4.95959 11.6501 5.04651C11.52 5.13343 11.4186 5.25697 11.3588 5.40151C11.2989 5.54605 11.2832 5.70509 11.3138 5.85853C11.3443 6.01198 11.4196 6.15292 11.5302 6.26355C11.6409 6.37417 11.7818 6.44951 11.9352 6.48003C12.0887 6.51055 12.2477 6.49489 12.3923 6.43502C12.5368 6.37515 12.6604 6.27376 12.7473 6.14368C12.8342 6.0136 12.8806 5.86066 12.8806 5.70421C12.8806 5.49442 12.7972 5.29323 12.6489 5.14488C12.5006 4.99654 12.2994 4.9132 12.0896 4.9132ZM14.4626 26.8584C14.4626 27.0682 14.546 27.2694 14.6943 27.4177C14.8426 27.5661 15.0438 27.6494 15.2536 27.6494H17.8424C18.2756 29.5664 19.165 31.3506 20.4349 32.8505C21.7049 34.3504 23.318 35.5219 25.1373 36.2653C26.9566 37.0088 28.9284 37.3023 30.8853 37.1211C32.8423 36.9398 34.7267 36.2891 36.3785 35.2242L37.5077 36.3536C37.3181 36.5725 37.2184 36.8551 37.2285 37.1445C37.2386 37.434 37.3579 37.7088 37.5624 37.9139L44.6389 44.9904C44.976 45.3275 45.3762 45.5949 45.8166 45.7773C46.257 45.9598 46.7291 46.0537 47.2058 46.0537C47.6825 46.0537 48.1546 45.9598 48.595 45.7774C49.0354 45.5949 49.4356 45.3276 49.7727 44.9905C50.1098 44.6534 50.3772 44.2532 50.5596 43.8128C50.7421 43.3724 50.836 42.9003 50.836 42.4236C50.836 41.9469 50.7421 41.4748 50.5597 41.0344C50.3773 40.594 50.1099 40.1938 49.7728 39.8567L42.6962 32.7802C42.4911 32.5758 42.2162 32.4566 41.9268 32.4465C41.6375 32.4363 41.355 32.5361 41.1361 32.7256L40.0067 31.5963C41.643 29.0639 42.2846 26.0157 41.8079 23.0386C41.3311 20.0615 39.7698 17.366 37.4246 15.4712C35.0793 13.5764 32.116 12.6163 29.1052 12.7757C26.0944 12.9352 23.249 14.2029 21.117 16.3347C21.0376 16.414 20.9596 16.4942 20.8831 16.5753H15.2537C15.0439 16.5753 14.8427 16.6586 14.6944 16.807C14.5461 16.9553 14.4627 17.1565 14.4627 17.3663C14.4627 17.5761 14.5461 17.7773 14.6944 17.9256C14.8427 18.074 15.0439 18.1573 15.2537 18.1573H19.6164C18.056 20.4844 17.3427 23.2771 17.5961 26.0675H15.2537C15.0439 26.0675 14.8427 26.1508 14.6944 26.2992C14.5461 26.4475 14.4627 26.6487 14.4627 26.8585L14.4626 26.8584ZM41.6914 34.4016L41.6924 34.4007L41.6934 34.3996L41.8859 34.2071L48.654 40.9754C49.0376 41.3598 49.253 41.8806 49.253 42.4236C49.253 42.9666 49.0376 43.4874 48.654 43.8718C48.4638 44.062 48.2381 44.2128 47.9896 44.3158C47.7411 44.4187 47.4748 44.4717 47.2059 44.4717C46.9369 44.4717 46.6706 44.4187 46.4221 44.3158C46.1736 44.2128 45.9479 44.062 45.7577 43.8718L38.9895 37.1035L41.6914 34.4016ZM40.0143 33.8413L38.6235 35.2321L37.6614 34.2699C37.9092 34.0588 38.1504 33.8364 38.3849 33.6027C38.619 33.3686 38.8414 33.1274 39.0521 32.8792L40.0143 33.8413ZM22.2354 17.4533C23.7218 15.9669 25.6156 14.9547 27.6773 14.5445C29.739 14.1344 31.876 14.3449 33.8181 15.1493C35.7601 15.9537 37.42 17.316 38.5879 19.0638C39.7558 20.8116 40.3791 22.8665 40.3791 24.9685C40.3792 27.0706 39.7558 29.1255 38.588 30.8733C37.4202 32.6211 35.7603 33.9834 33.8182 34.7878C31.8761 35.5923 29.7391 35.8028 27.6774 35.3927C25.6157 34.9826 23.722 33.9704 22.2356 32.484C21.2447 31.4993 20.4583 30.3284 19.9217 29.0386C19.3851 27.7488 19.1088 26.3656 19.1088 24.9687C19.1088 23.5717 19.3851 22.1885 19.9217 20.8988C20.4583 19.609 21.2447 18.438 22.2356 17.4533H22.2354ZM50.0449 -0.0361328H3.95508C2.90649 -0.0349604 1.90118 0.382111 1.15971 1.12358C0.418243 1.86504 0.00117245 2.87035 0 3.91895L0 50.0088C0.00117245 51.0574 0.418243 52.0627 1.15971 52.8042C1.90118 53.5456 2.90649 53.9627 3.95508 53.9639H50.0449C51.0935 53.9627 52.0988 53.5456 52.8403 52.8042C53.5818 52.0627 53.9988 51.0574 54 50.0088V3.91895C53.9988 2.87035 53.5818 1.86504 52.8403 1.12358C52.0988 0.382111 51.0935 -0.0349604 50.0449 -0.0361328ZM52.418 50.0088C52.4172 50.6379 52.167 51.2411 51.7221 51.686C51.2772 52.1309 50.6741 52.3811 50.0449 52.3818H3.95508C3.32593 52.3811 2.72276 52.1309 2.27788 51.686C1.83301 51.2411 1.58276 50.6379 1.58203 50.0088V11.0381H52.418V50.0088ZM52.418 9.45605H1.58203V3.91895C1.58276 3.2898 1.83301 2.68662 2.27788 2.24175C2.72276 1.79687 3.32593 1.54662 3.95508 1.5459H50.0449C50.6741 1.54662 51.2772 1.79687 51.7221 2.24175C52.167 2.68662 52.4172 3.2898 52.418 3.91895V9.45605ZM8.9255 4.9132C8.76906 4.9132 8.61612 4.95959 8.48604 5.04651C8.35596 5.13343 8.25457 5.25697 8.1947 5.40151C8.13483 5.54605 8.11917 5.70509 8.14969 5.85853C8.18021 6.01198 8.25555 6.15292 8.36617 6.26355C8.4768 6.37417 8.61774 6.44951 8.77118 6.48003C8.92463 6.51055 9.08367 6.49489 9.22821 6.43502C9.37275 6.37515 9.49629 6.27376 9.58321 6.14368C9.67013 6.0136 9.71652 5.86066 9.71652 5.70421C9.71652 5.49442 9.63318 5.29323 9.48484 5.14488C9.33649 4.99654 9.13529 4.9132 8.9255 4.9132ZM6.27539 30.0225H9.54492C9.95037 30.022 10.3391 29.8607 10.6258 29.574C10.9125 29.2873 11.0737 28.8986 11.0742 28.4932V25.2236C11.0737 24.8182 10.9125 24.4295 10.6258 24.1428C10.3391 23.8561 9.95037 23.6948 9.54492 23.6943H6.27539C5.86994 23.6948 5.48123 23.8561 5.19454 24.1428C4.90784 24.4295 4.74657 24.8182 4.74609 25.2236V28.4932C4.74657 28.8986 4.90784 29.2873 5.19454 29.574C5.48123 29.8607 5.86994 30.022 6.27539 30.0225ZM6.32812 25.2764H9.49219V28.4404H6.32812V25.2764ZM6.27539 49.0068H9.54492C9.95037 49.0064 10.3391 48.8451 10.6258 48.5584C10.9125 48.2717 11.0737 47.883 11.0742 47.4775V44.208C11.0737 43.8026 10.9125 43.4139 10.6258 43.1272C10.3391 42.8405 9.95037 42.6792 9.54492 42.6787H6.27539C5.86994 42.6792 5.48123 42.8405 5.19454 43.1272C4.90784 43.4139 4.74657 43.8026 4.74609 44.208V47.4775C4.74657 47.883 4.90784 48.2717 5.19454 48.5584C5.48123 48.8451 5.86994 49.0064 6.27539 49.0068ZM6.32812 44.2607H9.49219V47.4248H6.32812V44.2607ZM6.27539 20.5303H9.54492C9.95037 20.5298 10.3391 20.3685 10.6258 20.0818C10.9125 19.7951 11.0737 19.4064 11.0742 19.001V15.7314C11.0737 15.326 10.9125 14.9373 10.6258 14.6506C10.3391 14.3639 9.95037 14.2026 9.54492 14.2021H6.27539C5.86994 14.2026 5.48123 14.3639 5.19454 14.6506C4.90784 14.9373 4.74657 15.326 4.74609 15.7314V19.001C4.74657 19.4064 4.90784 19.7951 5.19454 20.0818C5.48123 20.3685 5.86994 20.5298 6.27539 20.5303ZM6.32812 15.7842H9.49219V18.9482H6.32812V15.7842ZM15.2536 46.6338H42.1348C42.3446 46.6338 42.5458 46.5504 42.6941 46.4021C42.8424 46.2538 42.9258 46.0526 42.9258 45.8428C42.9258 45.633 42.8424 45.4318 42.6941 45.2834C42.5458 45.1351 42.3446 45.0518 42.1348 45.0518H15.2536C15.0438 45.0518 14.8426 45.1351 14.6943 45.2834C14.546 45.4318 14.4626 45.633 14.4626 45.8428C14.4626 46.0526 14.546 46.2538 14.6943 46.4021C14.8426 46.5504 15.0438 46.6338 15.2536 46.6338ZM5.76144 4.9132C5.60499 4.9132 5.45206 4.95959 5.32198 5.04651C5.1919 5.13343 5.09051 5.25697 5.03064 5.40151C4.97077 5.54605 4.9551 5.70509 4.98562 5.85853C5.01615 6.01198 5.09148 6.15292 5.20211 6.26355C5.31273 6.37417 5.45368 6.44951 5.60712 6.48003C5.76056 6.51055 5.91961 6.49489 6.06415 6.43502C6.20869 6.37515 6.33223 6.27376 6.41915 6.14368C6.50606 6.0136 6.55246 5.86066 6.55246 5.70421C6.55246 5.60034 6.532 5.49748 6.49224 5.40151C6.45249 5.30554 6.39423 5.21834 6.32077 5.14488C6.24732 5.07143 6.16012 5.01316 6.06415 4.97341C5.96818 4.93366 5.86532 4.9132 5.76144 4.9132ZM15.2536 37.1416H20.1696C20.3794 37.1416 20.5806 37.0583 20.729 36.9099C20.8773 36.7616 20.9606 36.5604 20.9606 36.3506C20.9606 36.1408 20.8773 35.9396 20.729 35.7913C20.5806 35.6429 20.3794 35.5596 20.1696 35.5596H15.2536C15.0438 35.5596 14.8426 35.6429 14.6943 35.7913C14.546 35.9396 14.4626 36.1408 14.4626 36.3506C14.4626 36.5604 14.546 36.7616 14.6943 36.9099C14.8426 37.0583 15.0438 37.1416 15.2536 37.1416Z" fill="#EA9755"/>
</g>
</g>
<defs>
<clipPath id="clip0_3466_3976">
<rect width="54" height="54" fill="white"/>
</clipPath>
<clipPath id="clip1_3466_3976">
<rect width="54" height="54" fill="white"/>
</clipPath>
</defs>
</svg>
