<svg width="55" height="55" viewBox="0 0 55 55" fill="none" xmlns="http://www.w3.org/2000/svg">
<path d="M27.8557 38.9312C19.419 38.9312 11.7129 34.6607 7.23248 27.5031C11.7129 20.3454 19.4183 16.0742 27.8551 16.0742C36.2918 16.0742 43.9972 20.3454 48.4783 27.5031C43.9972 34.6608 36.2925 38.9312 27.8557 38.9312ZM10.9215 27.3508L10.8046 27.5031L10.9215 27.6553C14.988 32.9504 21.1525 35.9847 27.8551 35.9847C34.5576 35.9847 40.7222 32.9511 44.7886 27.6553L44.9056 27.5031L44.7886 27.3508C40.7222 22.0557 34.5576 19.0214 27.8551 19.0214C21.1526 19.0214 14.988 22.055 10.9215 27.3508Z" fill="#FFA054" stroke="#F3F3F3" stroke-width="0.5"/>
<path d="M21.2266 27.5031C21.2266 23.8477 24.2007 20.8735 27.8562 20.8735C31.5116 20.8735 34.4858 23.8484 34.4858 27.5031C34.4858 31.1579 31.5116 34.1327 27.8562 34.1327C24.2007 34.1327 21.2266 31.1586 21.2266 27.5031ZM24.1738 27.5031C24.1738 29.5339 25.8254 31.1855 27.8562 31.1855C29.8869 31.1855 31.5385 29.5339 31.5385 27.5031C31.5385 25.4724 29.8869 23.8208 27.8562 23.8208C25.8254 23.8208 24.1738 25.4724 24.1738 27.5031Z" fill="#FFA054" stroke="#F3F3F3" stroke-width="0.5"/>
<path d="M39.1572 0.753174H48.8347C50.8268 0.753174 52.2277 1.22167 53.1332 2.123C54.0384 3.02408 54.4944 4.40336 54.4944 6.32775V15.0562C54.4944 15.3934 54.3266 15.7119 54.0532 15.9518C53.7791 16.1922 53.4147 16.3384 53.0568 16.3384C52.6994 16.3384 52.3351 16.1921 52.0608 15.9515C51.7872 15.7115 51.6193 15.393 51.6193 15.0562V6.32775C51.6193 5.77523 51.6101 5.32618 51.5551 4.97071C51.4997 4.6133 51.3933 4.31536 51.171 4.09387C50.9495 3.87301 50.6467 3.76211 50.2746 3.7021C49.9034 3.64224 49.4292 3.62817 48.8347 3.62817H39.1572C38.8201 3.62817 38.5016 3.46034 38.2617 3.18675C38.0212 2.91253 37.875 2.5482 37.875 2.19067C37.875 1.83321 38.0213 1.46888 38.2619 1.19462C38.5019 0.920977 38.8205 0.753174 39.1572 0.753174Z" fill="#FFA054" stroke="#F3F3F3" stroke-width="0.5"/>
<path d="M3.86719 15.0562C3.86719 15.3933 3.69935 15.7118 3.42577 15.9518C3.15155 16.1922 2.78722 16.3384 2.42969 16.3384C2.07216 16.3384 1.70783 16.1922 1.43361 15.9518C1.16002 15.7118 0.992188 15.3933 0.992188 15.0562V6.32775C0.992188 4.41089 1.50153 3.03158 2.46302 2.128C3.42744 1.22167 4.88978 0.753174 6.88199 0.753174H16.5588C16.8959 0.753174 17.2144 0.921007 17.4544 1.19459C17.6949 1.46881 17.841 1.83314 17.841 2.19067C17.841 2.54814 17.6947 2.91247 17.4541 3.18673C17.2141 3.46037 16.8956 3.62817 16.5588 3.62817H6.88199C6.28676 3.62817 5.79964 3.64232 5.40837 3.70175C5.01686 3.7612 4.69269 3.86979 4.44504 4.08055C4.19311 4.29496 4.05081 4.58875 3.97031 4.95536C3.89089 5.31706 3.86719 5.77037 3.86719 6.32775V15.0562Z" fill="#FFA054" stroke="#F3F3F3" stroke-width="0.5"/>
<path d="M6.88199 51.3781H16.5595C16.8962 51.3781 17.2146 51.5459 17.4544 51.8195C17.6948 52.0937 17.841 52.458 17.841 52.8156C17.841 53.173 17.6947 53.5374 17.4541 53.8116C17.2141 54.0853 16.8956 54.2531 16.5588 54.2531H6.88199C4.88978 54.2531 3.42744 53.7846 2.46302 52.8783C1.50153 51.9747 0.992188 50.5954 0.992188 48.6785V39.5667C0.992188 39.2299 1.15999 38.9114 1.43364 38.6713C1.70789 38.4307 2.07222 38.2844 2.42969 38.2844C2.78715 38.2844 3.15148 38.4307 3.42574 38.6713C3.69938 38.9114 3.86719 39.2299 3.86719 39.5667V48.6785C3.86719 49.2359 3.89089 49.6892 3.97031 50.0509C4.05081 50.4175 4.19311 50.7113 4.44504 50.9257C4.69269 51.1365 5.01686 51.245 5.40837 51.3045C5.79964 51.3639 6.28676 51.3781 6.88199 51.3781Z" fill="#FFA054" stroke="#F3F3F3" stroke-width="0.5"/>
<path d="M51.6193 39.5674C51.6193 39.2302 51.7872 38.9118 52.0608 38.6718C52.335 38.4313 52.6993 38.2852 53.0568 38.2852C53.4147 38.2852 53.7791 38.4314 54.0532 38.6717C54.3267 38.9116 54.4944 39.2299 54.4944 39.5667V48.6786C54.4944 50.6029 54.0384 51.9822 53.1332 52.8833C52.2277 53.7846 50.8268 54.2531 48.8347 54.2531H39.1572C38.8201 54.2531 38.5016 54.0853 38.2617 53.8117C38.0212 53.5375 37.875 53.1732 37.875 52.8156C37.875 52.4582 38.0213 52.0938 38.2619 51.8196C38.5019 51.5459 38.8205 51.3781 39.1572 51.3781H48.8347C49.4292 51.3781 49.9034 51.3641 50.2746 51.3042C50.6467 51.2442 50.9494 51.1333 51.171 50.9125C51.3932 50.6911 51.4997 50.3932 51.5551 50.0359C51.6101 49.6805 51.6193 49.2316 51.6193 48.6792V39.5674Z" fill="#FFA054" stroke="#F3F3F3" stroke-width="0.5"/>
</svg>
