<svg width="55" height="55" viewBox="0 0 55 55" fill="none" xmlns="http://www.w3.org/2000/svg">
<path d="M6.14219 0.753174H49.3422C50.7081 0.753174 52.018 1.29576 52.9838 2.26157C53.9496 3.22739 54.4922 4.53731 54.4922 5.90317V49.1032C54.4922 50.469 53.9496 51.779 52.9838 52.7448C52.018 53.7106 50.7081 54.2532 49.3422 54.2532H6.14219C4.77632 54.2532 3.4664 53.7106 2.50059 52.7448C1.53478 51.779 0.992188 50.469 0.992188 49.1032V5.90317C0.992188 4.53731 1.53478 3.22739 2.50059 2.26157C3.4664 1.29576 4.77632 0.753174 6.14219 0.753174ZM50.7918 50.5527C51.1762 50.1683 51.3922 49.6469 51.3922 49.1032V5.90317C51.3922 5.35948 51.1762 4.83805 50.7918 4.4536C50.4073 4.06916 49.8859 3.85317 49.3422 3.85317H6.14219C5.59849 3.85317 5.07707 4.06916 4.69262 4.4536C4.30817 4.83805 4.09219 5.35948 4.09219 5.90317V49.1032C4.09219 49.6469 4.30817 50.1683 4.69262 50.5527C5.07707 50.9372 5.59849 51.1532 6.14219 51.1532H49.3422C49.8859 51.1532 50.4073 50.9372 50.7918 50.5527Z" fill="#FFA054" stroke="#F3F3F3" stroke-width="0.5"/>
<path d="M35.1425 21.7834L35.15 21.7789L35.1571 21.774C36.2939 20.9851 37.6772 20.5579 39.1002 20.5586C40.9321 20.6004 42.6688 21.3117 43.9345 22.5329C45.2002 23.7542 45.8925 25.386 45.8675 27.0729L45.8675 27.0729V27.0766V38.3086C45.8675 38.7135 45.6945 39.1059 45.3798 39.3982C45.0651 39.6905 44.6349 39.8579 44.1826 39.8586C43.8977 39.8517 43.6201 39.7786 43.3752 39.6471C43.1296 39.5151 42.9257 39.3291 42.7807 39.1076L42.6496 38.9075L42.4439 39.0296C41.5343 39.5696 40.4759 39.8578 39.3936 39.8586H38.7156C37.1111 39.8586 35.5758 39.2663 34.4465 38.2173C33.3178 37.1688 32.6875 35.7508 32.6875 34.2766C32.6875 32.8024 33.3178 31.3844 34.4465 30.3359C35.5758 29.2868 37.1111 28.6946 38.7156 28.6946H42.3003H42.5503V28.4446V27.0805C42.5775 26.1963 42.227 25.3416 41.5815 24.702C40.9357 24.062 40.047 23.6889 39.1111 23.6587L39.1112 23.6585L39.1007 23.6586C38.4038 23.6653 37.7252 23.8749 37.1602 24.26L37.154 24.2643L37.148 24.2689C36.9713 24.4058 36.7651 24.5083 36.5421 24.5693C36.3191 24.6304 36.0846 24.6484 35.8534 24.6221L35.8252 24.8705L35.8534 24.6221C35.6222 24.5958 35.4 24.5259 35.2004 24.4173C35.0009 24.3087 34.8288 24.164 34.694 23.993C34.5591 23.8222 34.4643 23.6286 34.4142 23.4244C34.3641 23.2204 34.3595 23.0092 34.4007 22.8035C34.442 22.5978 34.5283 22.4011 34.6554 22.2256C34.7826 22.05 34.9481 21.8992 35.1425 21.7834ZM42.5503 32.0446V31.7946H42.3003H38.6574C37.9596 31.7946 37.287 32.0519 36.7883 32.5152C36.289 32.979 36.0047 33.6121 36.0047 34.2766C36.0047 34.9411 36.289 35.5742 36.7883 36.038C37.287 36.5012 37.9596 36.7586 38.6574 36.7586H39.3897C39.7078 36.7687 40.0252 36.7194 40.3233 36.6134C40.6228 36.507 40.8973 36.3452 41.13 36.1369L41.13 36.1369L41.1334 36.1338L42.4704 34.8918L42.5503 34.8176V34.7086V32.0446Z" fill="#FFA054" stroke="#F3F3F3" stroke-width="0.5"/>
<path d="M21.611 16.1695L21.611 16.1694C21.4951 15.8727 21.2823 15.6131 20.9982 15.4281C20.7139 15.243 20.3732 15.1426 20.0225 15.1426C19.6718 15.1426 19.3311 15.243 19.0468 15.4281C18.7627 15.6131 18.5499 15.8727 18.4339 16.1694L18.4329 16.1721L18.4329 16.172L9.71359 37.7715C9.71358 37.7715 9.71356 37.7715 9.71355 37.7716C9.63746 37.9614 9.6026 38.1627 9.61046 38.3642C9.61833 38.5657 9.66884 38.7643 9.75976 38.949C9.8507 39.1337 9.98054 39.3012 10.1428 39.4414C10.3051 39.5816 10.4965 39.6916 10.7065 39.7642C10.9165 39.8368 11.1403 39.8705 11.365 39.8629C11.5897 39.8553 11.8101 39.8067 12.0136 39.7203C12.217 39.6338 12.399 39.5115 12.5495 39.3611C12.7 39.2108 12.8162 39.0354 12.8923 38.8455L12.8924 38.8454L14.9657 33.6793L15.0286 33.5225H15.1977H24.886H25.0551L25.1181 33.6793L27.1913 38.8452L21.611 16.1695ZM21.611 16.1695L21.6122 16.1724M21.611 16.1695L21.6122 16.1724M21.6122 16.1724L30.3704 37.7722L21.6122 16.1724ZM28.78 39.8585L28.7828 39.8585C28.9861 39.8601 29.1879 39.828 29.3784 39.7638C29.5885 39.6917 29.7801 39.5822 29.9426 39.4422C30.1052 39.3022 30.2352 39.1347 30.3262 38.9499C30.4171 38.7652 30.4675 38.5664 30.475 38.3649C30.4826 38.1634 30.4472 37.9621 30.3705 37.7724L28.78 39.8585ZM28.78 39.8585C28.4311 39.8595 28.0917 39.7612 27.8075 39.5786C27.5236 39.3963 27.3097 39.1396 27.1914 38.8454L26.9594 38.9385C27.0979 39.283 27.3468 39.5798 27.6724 39.789C27.9981 39.9982 28.3849 40.1097 28.7808 40.1085L28.78 39.8585ZM16.4192 30.0787L16.2801 30.4225H16.6509H23.394H23.7649L23.6258 30.0787L20.2542 21.7447L20.0225 21.1718L19.7907 21.7447L16.4192 30.0787Z" fill="#FFA054" stroke="#F3F3F3" stroke-width="0.5"/>
</svg>
