<svg width="56" height="57" viewBox="0 0 56 57" fill="none" xmlns="http://www.w3.org/2000/svg">
<path d="M54.233 48.8997L43.6186 38.2854C43.3437 38.0107 42.971 37.8564 42.5824 37.8564C42.1938 37.8564 41.8211 38.0107 41.5462 38.2854L41.4186 38.4131L36.9131 33.9075C39.7564 30.3188 41.3045 25.8751 41.3065 21.2966C41.3065 10.0954 32.194 0.982666 20.9932 0.982666C9.79248 0.982666 0.679792 10.0954 0.679792 21.296C0.662912 26.5506 2.69926 31.6039 6.35471 35.3787L2.01417 42.6804C1.65242 43.289 1.45831 43.9826 1.45159 44.6906C1.44487 45.3986 1.62578 46.0957 1.97591 46.7111C2.32605 47.3265 2.83292 47.8382 3.44498 48.1941C4.05703 48.5501 4.75243 48.7376 5.46046 48.7375H32.7386C33.4466 48.7375 34.142 48.55 34.754 48.1941C35.366 47.8381 35.8729 47.3264 36.223 46.711C36.5731 46.0956 36.754 45.3985 36.7472 44.6905C36.7405 43.9825 36.5463 43.289 36.1846 42.6804L33.1479 37.5717C33.3111 37.4497 33.4722 37.3255 33.6312 37.199L38.132 41.6999L38.0044 41.8274C37.7297 42.1023 37.5753 42.475 37.5753 42.8637C37.5753 43.2523 37.7297 43.625 38.0044 43.8999L48.6189 54.5142C49.5821 55.4773 50.6977 55.9991 51.8454 56.0228C51.8728 56.0233 51.9 56.0236 51.9272 56.0237C52.4283 56.025 52.9247 55.9269 53.3876 55.7349C53.8504 55.5429 54.2705 55.2609 54.6235 54.9052C56.0188 53.5101 56.3325 50.9994 54.233 48.8997ZM34.8923 45.9538C34.6781 46.3362 34.3653 46.654 33.9864 46.8743C33.6076 47.0946 33.1766 47.2092 32.7384 47.2063H5.46046C5.02288 47.2063 4.59309 47.0904 4.21483 46.8704C3.83656 46.6504 3.52331 46.3342 3.30693 45.9538C3.09055 45.5735 2.97876 45.1426 2.98294 44.7051C2.98712 44.2675 3.10711 43.8389 3.33071 43.4627L16.9698 20.5178C17.1893 20.1486 17.501 19.8427 17.8743 19.6303C18.2477 19.4179 18.6699 19.3062 19.0994 19.3062C19.529 19.3062 19.9511 19.4179 20.3245 19.6303C20.6979 19.8427 21.0096 20.1486 21.2291 20.5178L34.8681 43.4627C35.0945 43.8378 35.2162 44.2668 35.2205 44.705C35.2247 45.1431 35.1114 45.5744 34.8923 45.9538ZM22.5454 19.7354C22.1929 19.1357 21.6892 18.6391 21.0846 18.295C20.48 17.951 19.7957 17.7717 19.1001 17.775C18.4042 17.7715 17.7196 17.9507 17.1147 18.2947C16.5099 18.6388 16.0059 19.1356 15.6532 19.7354L9.37904 30.2901C7.38061 27.7178 6.29615 24.553 6.29696 21.2956C6.29696 13.1921 12.8897 6.59929 20.9931 6.59929C29.0966 6.59929 35.6893 13.1921 35.6893 21.2956C35.6842 23.4806 35.1937 25.6371 34.2533 27.6094C33.313 29.5816 31.9462 31.3204 30.2517 32.6999L22.5454 19.7354ZM31.0412 34.0279C32.9627 32.5073 34.5163 30.5728 35.5863 28.3683C36.6563 26.1639 37.215 23.7464 37.2209 21.296C37.2209 12.3482 29.9412 5.06848 20.9935 5.06848C12.0457 5.06848 4.76582 12.3485 4.76582 21.296C4.76511 25.0983 6.10302 28.7795 8.54495 31.6941L7.16814 34.0101C3.96693 30.5517 2.19558 26.0085 2.21104 21.296C2.21104 10.9395 10.6366 2.51392 20.9931 2.51392C31.3496 2.51392 39.7752 10.9395 39.7752 21.296C39.7733 24.1907 39.1032 27.0459 37.8169 29.6391C36.5306 32.2323 34.663 34.4936 32.3596 36.2467L31.0412 34.0279ZM34.7948 36.1974C35.1838 35.8368 35.5572 35.4627 35.9152 35.0752L40.3358 39.4959L39.2146 40.6171L34.7948 36.1974ZM53.5407 53.8224C53.3237 54.0419 53.0641 54.2145 52.7777 54.3297C52.4914 54.4448 52.1845 54.5 51.8759 54.4919C51.1313 54.4764 50.3791 54.1098 49.7008 53.4315L39.1335 42.8641L42.5825 39.4153L53.1502 49.9829C53.8283 50.661 54.1951 51.4134 54.2111 52.1581C54.2184 52.4665 54.1627 52.7732 54.0474 53.0593C53.9322 53.3455 53.7598 53.6051 53.5407 53.8224ZM19.0994 41.4532C18.6281 41.4533 18.1674 41.5931 17.7756 41.855C17.3837 42.1169 17.0784 42.4891 16.8981 42.9246C16.7178 43.3601 16.6706 43.8392 16.7626 44.3014C16.8547 44.7637 17.0817 45.1883 17.415 45.5215C17.7483 45.8547 18.1729 46.0816 18.6352 46.1735C19.0974 46.2654 19.5766 46.2182 20.012 46.0378C20.4474 45.8574 20.8196 45.552 21.0814 45.1601C21.3432 44.7682 21.4829 44.3074 21.4829 43.8361C21.4822 43.2043 21.2308 42.5985 20.7839 42.1518C20.3371 41.705 19.7313 41.4538 19.0994 41.4532ZM19.0994 44.6879C18.9309 44.688 18.7662 44.638 18.6261 44.5444C18.486 44.4508 18.3768 44.3178 18.3124 44.1621C18.2479 44.0065 18.231 43.8352 18.2639 43.67C18.2967 43.5047 18.3779 43.3529 18.497 43.2338C18.6161 43.1147 18.7679 43.0335 18.9332 43.0007C19.0984 42.9678 19.2697 42.9847 19.4253 43.0492C19.581 43.1137 19.714 43.2228 19.8076 43.3629C19.9012 43.503 19.9511 43.6677 19.9511 43.8362C19.9507 44.062 19.8608 44.2784 19.7012 44.438C19.5416 44.5976 19.3252 44.6874 19.0994 44.6878V44.6879ZM16.0568 25.365C16.0568 25.3922 16.0568 25.4652 16.7165 38.202C16.7207 38.8312 16.9737 39.4331 17.4201 39.8765C17.8665 40.32 18.4702 40.5688 19.0994 40.5688C19.7286 40.5688 20.3322 40.32 20.7786 39.8765C21.2251 39.4331 21.478 38.8312 21.4823 38.202C22.142 25.4652 22.142 25.3922 22.142 25.365C22.142 24.558 21.8215 23.7841 21.2509 23.2135C20.6803 22.6429 19.9064 22.3224 19.0994 22.3224C18.2925 22.3224 17.5186 22.6429 16.948 23.2135C16.3774 23.7841 16.0568 24.558 16.0568 25.365ZM20.6107 25.3517C20.5927 25.7584 20.1738 33.8632 19.9522 38.1407C19.9514 38.1539 19.9511 38.1671 19.9511 38.1803C19.9486 38.4046 19.8577 38.6187 19.6983 38.7764C19.5388 38.9341 19.3236 39.0225 19.0994 39.0225C18.8751 39.0225 18.6599 38.9341 18.5005 38.7764C18.341 38.6187 18.2501 38.4046 18.2476 38.1803C18.2476 38.1671 18.2476 38.1539 18.2465 38.1407C18.0251 33.8635 17.6062 25.7595 17.5882 25.3519C17.593 24.9542 17.7543 24.5745 18.0372 24.2949C18.3201 24.0154 18.7017 23.8587 19.0994 23.8587C19.4971 23.8587 19.8788 24.0154 20.1616 24.2949C20.4445 24.5745 20.6059 24.9542 20.6107 25.3519V25.3517Z" fill="#FFA054" stroke="#FFA054" stroke-width="0.2"/>
</svg>
