<svg width="33" height="33" viewBox="0 0 33 33" fill="none" xmlns="http://www.w3.org/2000/svg">
<g clip-path="url(#clip0_3410_1520)">
<path fill-rule="evenodd" clip-rule="evenodd" d="M24.2244 11.8489C24.6739 12.2984 24.6739 13.0273 24.2244 13.4768L17.7779 19.9233C17.534 20.1672 17.1937 20.2889 16.8505 20.2549C16.5073 20.221 16.1974 20.0349 16.0061 19.7479L14.3291 17.2325L10.4105 21.1512C9.96091 21.6008 9.23203 21.6008 8.78248 21.1512C8.33292 20.7017 8.33292 19.9729 8.78248 19.5233L13.6942 14.6117C13.938 14.3678 14.2783 14.2461 14.6215 14.2802C14.9647 14.3141 15.2746 14.5001 15.4659 14.7872L17.1429 17.3025L22.5965 11.8489C23.046 11.3993 23.7748 11.3993 24.2244 11.8489Z" fill="#2D3250"/>
<path fill-rule="evenodd" clip-rule="evenodd" d="M19.1875 12.6629C19.1875 12.0271 19.7029 11.5117 20.3387 11.5117H23.4084C24.0442 11.5117 24.5596 12.0271 24.5596 12.6629V15.7326C24.5596 16.3684 24.0442 16.8838 23.4084 16.8838C22.7727 16.8838 22.2573 16.3684 22.2573 15.7326V13.814H20.3387C19.7029 13.814 19.1875 13.2986 19.1875 12.6629Z" fill="#2D3250"/>
<path fill-rule="evenodd" clip-rule="evenodd" d="M2.83135 2.83135C4.87961 0.783098 7.9446 0 11.8953 0H21.1047C25.0554 0 28.1205 0.783098 30.1686 2.83135C32.2169 4.87961 33 7.9446 33 11.8953V21.1047C33 25.0554 32.2169 28.1205 30.1686 30.1686C28.1205 32.2169 25.0554 33 21.1047 33H11.8953C7.9446 33 4.87961 32.2169 2.83135 30.1686C0.783098 28.1205 0 25.0554 0 21.1047V11.8953C0 7.9446 0.783098 4.87961 2.83135 2.83135ZM4.45934 4.45934C3.05411 5.86458 2.30233 8.17167 2.30233 11.8953V21.1047C2.30233 24.8283 3.05411 27.1354 4.45934 28.5407C5.86458 29.9459 8.17167 30.6977 11.8953 30.6977H21.1047C24.8283 30.6977 27.1354 29.9459 28.5407 28.5407C29.9459 27.1354 30.6977 24.8283 30.6977 21.1047V11.8953C30.6977 8.17167 29.9459 5.86458 28.5407 4.45934C27.1354 3.05411 24.8283 2.30233 21.1047 2.30233H11.8953C8.17167 2.30233 5.86458 3.05411 4.45934 4.45934Z" fill="#2D3250"/>
</g>
<defs>
<clipPath id="clip0_3410_1520">
<rect width="33" height="33" fill="white"/>
</clipPath>
</defs>
</svg>
