<svg width="33" height="33" viewBox="0 0 33 33" fill="none" xmlns="http://www.w3.org/2000/svg">
<g clip-path="url(#clip0_3410_1511)">
<path d="M13.5194 23.1672C13.2966 22.9032 12.9666 22.7841 12.6343 22.7453H3.06429C2.67418 22.7453 2.35714 22.4282 2.35714 22.0381V20.6003H13.8836C14.5341 20.6003 15.0621 20.0734 15.0621 19.4217C15.0621 18.7699 14.5341 18.2431 13.8836 18.2431H2.35714V2.61643C2.35714 2.47382 2.46793 2.35714 2.60464 2.35714H28.9811C29.119 2.35714 29.2404 2.47854 29.2404 2.61643V14.5789C29.2404 14.7781 29.3016 14.9561 29.3889 15.1199C29.5869 15.4935 29.9664 15.7575 30.4189 15.7575C31.0707 15.7575 31.5975 15.2295 31.5975 14.5789V2.61643C31.5975 1.17386 30.4236 0 28.9811 0H2.60464C1.16796 0 0 1.17386 0 2.61643V22.0393C0 23.7294 1.37539 25.1036 3.06429 25.1036H11.6466C11.7504 25.7577 11.8258 26.4354 11.8329 27.1779C11.8329 27.8838 11.7574 28.5686 11.649 29.2404H9.46393C8.81336 29.2404 8.28536 29.7672 8.28536 30.4189C8.28536 31.0707 8.81336 31.5975 9.46393 31.5975H14.2725C14.9231 31.5975 15.4511 31.0707 15.4511 30.4189C15.4511 29.7672 14.9231 29.2404 14.2725 29.2404H14.0521C14.144 28.5532 14.19 27.839 14.19 27.0824C14.1759 25.8885 14.0391 24.7347 13.7799 23.6516C13.7103 23.4819 13.6396 23.3086 13.5194 23.1672Z" fill="#2D3250"/>
<path d="M32.0503 21.7518L30.9555 21.3499C30.8694 21.1071 30.7704 20.8702 30.6596 20.638L31.1499 19.5797C31.3585 19.1306 31.2642 18.6003 30.9142 18.2514L29.4115 16.7487C29.0627 16.3999 28.5323 16.3056 28.0833 16.513L27.0249 17.0033C26.8045 16.8984 26.5782 16.8065 26.3484 16.7228C26.3366 16.7181 26.326 16.7122 26.3142 16.7087L25.9123 15.6138C25.7415 15.1494 25.2995 14.8418 24.8068 14.8418H22.6819C22.1881 14.8418 21.7461 15.1494 21.5764 15.6138L21.1733 16.7098C20.9317 16.7959 20.6936 16.8949 20.4615 17.0045L19.4031 16.5142C18.9552 16.3068 18.4249 16.3999 18.0748 16.7499L16.5722 18.2514C16.2221 18.6014 16.129 19.1318 16.3365 19.5808L16.8267 20.638C16.716 20.8702 16.617 21.1083 16.5309 21.3499L15.4372 21.7518C14.9728 21.9227 14.6641 22.3634 14.6641 22.8573V22.862V24.9822C14.6641 25.4772 14.9728 25.918 15.4372 26.0877L16.5309 26.4896C16.617 26.7312 16.716 26.9693 16.8256 27.2015L16.3353 28.2575C16.1278 28.7065 16.221 29.2369 16.571 29.5869L18.0737 31.0896C18.4237 31.4384 18.9541 31.5339 19.4019 31.3253L20.4603 30.835C20.6913 30.9458 20.9293 31.0448 21.1721 31.1308L21.5752 32.2257C21.7437 32.6913 22.1857 33 22.6795 33H24.8045C25.2983 33 25.7403 32.6913 25.91 32.2281L26.3119 31.1332C26.5547 31.0472 26.7916 30.9482 27.0237 30.8385L28.0821 31.3277C28.5311 31.5363 29.0615 31.4408 29.4103 31.0919L30.913 29.5893C31.2631 29.2392 31.3573 28.7089 31.1487 28.261L30.6596 27.2038C30.7692 26.9717 30.8682 26.7348 30.9543 26.492L32.0492 26.0901C32.5135 25.9192 32.8211 25.4772 32.8211 24.9846V22.8596C32.8223 22.3646 32.5135 21.9227 32.0503 21.7518ZM30.4652 24.1596L29.5977 24.479C29.2371 24.611 28.9637 24.9103 28.8647 25.2828C28.7433 25.7377 28.563 26.1738 28.3284 26.578C28.1351 26.9104 28.1151 27.317 28.2777 27.6658L28.6655 28.505L28.3261 28.8444L27.4869 28.4567C27.1392 28.294 26.7338 28.3152 26.3991 28.5073C25.996 28.7419 25.56 28.9234 25.1027 29.0448C24.7326 29.1426 24.4332 29.416 24.3001 29.7767L23.9818 30.6429H23.5022L23.1828 29.7755C23.0508 29.4148 22.7514 29.1414 22.3802 29.0436C21.9252 28.921 21.4892 28.7407 21.0826 28.5062C20.7502 28.3105 20.3448 28.2928 19.9959 28.4555L19.1568 28.8432L18.8173 28.505L19.2063 27.6658C19.3689 27.3158 19.3489 26.9092 19.1556 26.5768C18.9187 26.169 18.7384 25.7353 18.6193 25.2839C18.5215 24.9115 18.2481 24.611 17.8863 24.4778L17.0177 24.1584V23.6799L17.8863 23.3605C18.2481 23.2285 18.5215 22.928 18.6193 22.5544C18.7384 22.1042 18.9187 21.6681 19.1556 21.2591C19.3489 20.9268 19.3689 20.5213 19.2063 20.1713L18.8173 19.3333L19.1556 18.9951L19.9959 19.3828C20.346 19.5478 20.7514 19.5278 21.0826 19.3322C21.4892 19.0976 21.9252 18.9161 22.3802 18.7947C22.7502 18.6969 23.0496 18.4235 23.1828 18.0628L23.5022 17.1954H23.9818L24.3012 18.0628C24.4332 18.4235 24.7326 18.6969 25.1038 18.7947C25.5611 18.9173 25.9972 19.0976 26.4003 19.3322C26.7338 19.5254 27.1392 19.5467 27.4881 19.3828L28.3284 18.9939L28.6667 19.3333L28.2789 20.1725C28.1163 20.5213 28.1363 20.9268 28.3296 21.2591C28.5641 21.6657 28.7456 22.1018 28.8658 22.5567C28.9648 22.928 29.2383 23.2273 29.5989 23.3605L30.4663 23.6799L30.4652 24.1596Z" fill="#2D3250"/>
<path d="M23.731 20.3848C21.7817 20.3848 20.1953 21.9711 20.1953 23.9205C20.1953 25.8698 21.7817 27.4562 23.731 27.4562C25.6804 27.4562 27.2667 25.8698 27.2667 23.9205C27.2667 21.9711 25.6804 20.3848 23.731 20.3848ZM23.731 25.0991C23.0805 25.0991 22.5525 24.5711 22.5525 23.9205C22.5525 23.2699 23.0805 22.7419 23.731 22.7419C24.3816 22.7419 24.9096 23.2699 24.9096 23.9205C24.9096 24.5711 24.3804 25.0991 23.731 25.0991Z" fill="#2D3250"/>
<path d="M18.6549 4.1716C18.0667 3.89581 17.3631 4.15156 17.0885 4.74085L12.3684 14.8612C12.0937 15.4505 12.3483 16.153 12.9376 16.4276C13.0991 16.503 13.2688 16.5383 13.435 16.5383C13.8781 16.5383 14.3036 16.2873 14.5039 15.8583L19.2241 5.73792C19.4999 5.14746 19.2441 4.44621 18.6549 4.1716Z" fill="#2D3250"/>
<path d="M11.8452 6.15346C11.4197 5.662 10.6749 5.60896 10.1822 6.03442L6.28942 9.4075C6.03131 9.63142 5.88281 9.95671 5.88281 10.2985C5.88281 10.6403 6.03131 10.9656 6.28942 11.1895L10.1822 14.5637C10.405 14.757 10.6796 14.8513 10.953 14.8513C11.283 14.8513 11.6118 14.7134 11.844 14.4447C12.2695 13.9532 12.2165 13.2084 11.725 12.7817L8.85988 10.2985L11.725 7.81642C12.2176 7.38978 12.2707 6.64492 11.8452 6.15346Z" fill="#2D3250"/>
<path d="M19.7327 14.445C19.966 14.7149 20.2948 14.8516 20.6237 14.8516C20.8971 14.8516 21.1729 14.7562 21.3956 14.5641L25.2885 11.1898C25.5466 10.9659 25.6951 10.6406 25.6951 10.2988C25.6951 9.95703 25.5466 9.63174 25.2885 9.40781L21.3956 6.03474C20.9042 5.61045 20.1605 5.65995 19.7327 6.15378C19.3072 6.64524 19.3602 7.3901 19.8517 7.81674L22.718 10.2988L19.8517 12.7821C19.3602 13.2087 19.3072 13.9536 19.7327 14.445Z" fill="#2D3250"/>
</g>
<defs>
<clipPath id="clip0_3410_1511">
<rect width="33" height="33" fill="white"/>
</clipPath>
</defs>
</svg>
