<svg width="55" height="55" viewBox="0 0 55 55" fill="none" xmlns="http://www.w3.org/2000/svg">
<path d="M24.3672 54.5032C23.7462 54.5032 23.2422 53.9992 23.2422 53.3782V44.3782C23.2422 43.7572 23.7462 43.2532 24.3672 43.2532C24.9882 43.2532 25.4922 43.7572 25.4922 44.3782V53.3782C25.4922 53.9992 24.9882 54.5032 24.3672 54.5032Z" fill="#FFA054"/>
<path d="M31.1172 54.5032C30.4962 54.5032 29.9922 53.9992 29.9922 53.3782V44.3782C29.9922 43.7572 30.4962 43.2532 31.1172 43.2532C31.7382 43.2532 32.2422 43.7572 32.2422 44.3782V53.3782C32.2422 53.9992 31.7382 54.5032 31.1172 54.5032Z" fill="#FFA054"/>
<path d="M37.8672 54.5032H17.6172C16.9962 54.5032 16.4922 53.9992 16.4922 53.3782C16.4922 52.7572 16.9962 52.2532 17.6172 52.2532H37.8672C38.4882 52.2532 38.9922 52.7572 38.9922 53.3782C38.9922 53.9992 38.4882 54.5032 37.8672 54.5032Z" fill="#FFA054"/>
<path d="M51.3672 45.5032H4.11719C2.25644 45.5032 0.742188 43.9889 0.742188 42.1282V12.8782C0.742188 11.0174 2.25644 9.50317 4.11719 9.50317H13.1172C13.7382 9.50317 14.2422 10.0072 14.2422 10.6282C14.2422 11.2492 13.7382 11.7532 13.1172 11.7532H4.11719C3.49844 11.7532 2.99219 12.2572 2.99219 12.8782V42.1282C2.99219 42.7492 3.49844 43.2532 4.11719 43.2532H51.3672C51.9859 43.2532 52.4922 42.7492 52.4922 42.1282V12.8782C52.4922 12.2572 51.9859 11.7532 51.3672 11.7532H49.1172C48.4962 11.7532 47.9922 11.2492 47.9922 10.6282C47.9922 10.0072 48.4962 9.50317 49.1172 9.50317H51.3672C53.2279 9.50317 54.7422 11.0174 54.7422 12.8782V42.1282C54.7422 43.9889 53.2279 45.5032 51.3672 45.5032Z" fill="#FFA054"/>
<path d="M29.4474 27.1387C29.1594 27.1387 28.8714 27.0284 28.6509 26.8102L20.5577 18.7169C20.1324 18.2939 20.1145 17.6122 20.5172 17.1689L27.148 9.80917C31.855 4.37092 39.3227 0.622424 45.7172 0.503174C46.0929 0.507674 46.3202 0.617924 46.534 0.831674C46.75 1.04767 46.8692 1.34242 46.8625 1.64842C46.741 8.04292 42.9947 15.5129 37.5384 20.2357L30.1967 26.8507C29.9852 27.0442 29.7152 27.1387 29.4474 27.1387ZM22.9044 17.8822L29.488 24.4657L36.0534 18.5504C40.7244 14.5072 44.0252 8.33317 44.545 2.82292C39.0369 3.34492 32.8652 6.64342 28.8355 11.2987L22.9044 17.8822Z" fill="#FFA054"/>
<path d="M32.4729 32.4757C32.3717 32.4757 32.2682 32.4622 32.1669 32.4329C31.7732 32.3227 31.4717 32.0099 31.3772 31.6117L29.7887 24.9742C29.6447 24.3689 30.0182 23.7637 30.6212 23.6174C31.2287 23.4689 31.8339 23.8469 31.9779 24.4499L33.0332 28.8554C34.9862 25.7999 35.3777 21.8872 35.4182 19.5967C35.4294 18.9779 35.9762 18.5234 36.5634 18.4919C37.1822 18.5032 37.6772 19.0184 37.6659 19.6372C37.5714 24.9607 36.0099 29.4022 33.2672 32.1449C33.0534 32.3609 32.7654 32.4757 32.4729 32.4757Z" fill="#FFA054"/>
<path d="M22.6602 17.6099C22.5747 17.6099 22.487 17.6009 22.3992 17.5784L15.7617 15.9877C15.3635 15.8932 15.0507 15.5939 14.9405 15.2002C14.8302 14.8087 14.9405 14.3879 15.2285 14.0999C17.9712 11.3572 22.4105 9.79567 27.7362 9.70117C28.3235 9.73267 28.8702 10.1849 28.8815 10.8059C28.8927 11.4269 28.3977 11.9399 27.7767 11.9512C25.4862 11.9917 21.5757 12.3809 18.5202 14.3362L22.9257 15.3914C23.531 15.5354 23.9045 16.1429 23.7582 16.7482C23.6322 17.2634 23.171 17.6099 22.6602 17.6099Z" fill="#FFA054"/>
<path d="M14.2427 34.2531C13.9479 34.2531 13.6599 34.1384 13.4462 33.9246C13.1537 33.6321 13.0457 33.2024 13.1649 32.8064C13.5362 31.5644 15.4644 25.2959 16.9764 23.7839C18.8012 21.9614 21.7622 21.9614 23.5869 23.7839C25.4094 25.6064 25.4072 28.5719 23.5869 30.3944C22.0749 31.9041 15.8064 33.8369 14.5644 34.2081C14.4609 34.2374 14.3507 34.2531 14.2427 34.2531ZM20.2839 24.6659C19.6652 24.6659 19.0419 24.8999 18.5694 25.3724C17.9327 26.0114 16.8302 28.8306 15.9729 31.3979C18.5424 30.5384 21.3617 29.4404 21.9984 28.8014C22.9412 27.8564 22.9412 26.3174 21.9984 25.3746C21.5237 24.9021 20.9049 24.6659 20.2839 24.6659Z" fill="#FFA054"/>
</svg>
