<svg width="54" height="54" viewBox="0 0 54 54" fill="none" xmlns="http://www.w3.org/2000/svg">
<g clip-path="url(#clip0_3466_3979)">
<path d="M53.2805 52.5605H46.2923V25.1115H48.6236C48.7595 25.1117 48.8927 25.0735 49.0078 25.0012C49.1228 24.9289 49.2151 24.8254 49.2738 24.7029C49.3325 24.5803 49.3553 24.4436 49.3396 24.3086C49.3238 24.1736 49.2702 24.0459 49.1848 23.9401L43.0817 16.349C43.0388 16.3195 43.0018 16.2825 42.9723 16.2396C42.9533 16.2284 42.9336 16.2183 42.9133 16.2094C42.8727 16.1823 42.8292 16.1597 42.7838 16.1417C42.7427 16.1255 42.7003 16.1125 42.6572 16.1029C42.6097 16.0942 42.5615 16.0904 42.5133 16.0914C42.4674 16.0909 42.4217 16.0948 42.3766 16.1029C42.3338 16.1123 42.2919 16.1253 42.2514 16.1417C42.2058 16.1594 42.1623 16.182 42.1218 16.2094C42.1015 16.218 42.0817 16.2281 42.0628 16.2396C42.0413 16.2554 42.0312 16.2799 42.0125 16.2986C41.9938 16.3173 41.9693 16.3274 41.9535 16.349L35.8489 23.9401C35.7635 24.0459 35.7099 24.1736 35.6942 24.3086C35.6784 24.4436 35.7012 24.5803 35.7599 24.7029C35.8187 24.8254 35.9109 24.9289 36.026 25.0012C36.141 25.0735 36.2742 25.1117 36.4101 25.1115H38.7429V52.5605H31.0841V32.5573H33.4169C33.5525 32.5573 33.6854 32.519 33.8002 32.4468C33.915 32.3745 34.0071 32.2713 34.0657 32.149C34.1244 32.0267 34.1473 31.8903 34.1318 31.7555C34.1163 31.6207 34.063 31.4931 33.9781 31.3873L27.8735 23.7948C27.8577 23.7732 27.8332 23.7645 27.8145 23.7458C27.7989 23.7247 27.7821 23.7045 27.7641 23.6854C27.7469 23.671 27.7253 23.6681 27.7066 23.6552C27.6656 23.6287 27.6222 23.606 27.5771 23.5875C27.5359 23.5713 27.4936 23.5583 27.4504 23.5487C27.3599 23.5333 27.2675 23.5333 27.177 23.5487C27.1338 23.5583 27.0915 23.5713 27.0504 23.5875C27.0052 23.606 26.9618 23.6287 26.9209 23.6552C26.9021 23.6681 26.8806 23.671 26.8618 23.6854C26.8431 23.6998 26.8316 23.7271 26.8129 23.7458C26.7942 23.7645 26.7697 23.7746 26.7525 23.7948L20.6493 31.3873C20.5644 31.4931 20.5111 31.6207 20.4956 31.7555C20.4801 31.8903 20.503 32.0267 20.5617 32.149C20.6204 32.2713 20.7124 32.3745 20.8272 32.4468C20.942 32.519 21.0749 32.5573 21.2106 32.5573H23.5462V52.5605H15.8759V39.9945H18.2087C18.3442 39.9942 18.4769 39.9557 18.5915 39.8833C18.7061 39.811 18.7979 39.7077 18.8564 39.5855C18.9149 39.4632 18.9377 39.3269 18.9221 39.1923C18.9066 39.0577 18.8533 38.9302 18.7685 38.8245L12.6653 31.2333C12.6476 31.2155 12.6289 31.1987 12.6092 31.183C12.5936 31.1618 12.5768 31.1417 12.5588 31.1225C12.5401 31.1082 12.5185 31.1053 12.4984 31.0923C12.4585 31.066 12.4161 31.0439 12.3718 31.0261C12.3302 31.0097 12.2874 30.9967 12.2437 30.9873C12.1537 30.9719 12.0617 30.9719 11.9717 30.9873C11.9278 30.996 11.885 31.009 11.8436 31.0261C11.799 31.0441 11.7561 31.0663 11.7155 31.0923C11.6968 31.1053 11.6738 31.1082 11.6565 31.1225C11.6386 31.1417 11.6217 31.1618 11.6062 31.183C11.5855 31.1986 11.5658 31.2154 11.5472 31.2333L5.44116 38.8245C5.35632 38.9302 5.30305 39.0577 5.28749 39.1923C5.27193 39.3269 5.29471 39.4632 5.3532 39.5855C5.4117 39.7077 5.50353 39.811 5.61813 39.8833C5.73273 39.9557 5.86543 39.9942 6.00096 39.9945H8.33227V52.5605H1.43908V1.91388C1.43908 1.72304 1.36327 1.54002 1.22833 1.40508C1.09339 1.27014 0.910373 1.19434 0.719539 1.19434C0.528706 1.19434 0.345688 1.27014 0.210748 1.40508C0.0758085 1.54002 0 1.72304 0 1.91388V53.28C0 53.4709 0.0758085 53.6539 0.210748 53.7888C0.345688 53.9238 0.528706 53.9996 0.719539 53.9996H53.2805C53.4713 53.9996 53.6543 53.9238 53.7893 53.7888C53.9242 53.6539 54 53.4709 54 53.28C54 53.0892 53.9242 52.9062 53.7893 52.7712C53.6543 52.6363 53.4713 52.5605 53.2805 52.5605ZM39.4653 23.6724H37.9197L42.5248 17.9478L47.1298 23.6724H45.5728C45.3819 23.6724 45.1989 23.7482 45.064 23.8832C44.929 24.0181 44.8532 24.2011 44.8532 24.392V52.5605H40.1892V24.392C40.1892 24.2011 40.1134 24.0181 39.9784 23.8832C39.8435 23.7482 39.6605 23.6724 39.4696 23.6724H39.4653ZM24.2657 31.1139H22.713L27.318 25.3907L31.9231 31.1139H30.3646C30.1737 31.1139 29.9907 31.1897 29.8558 31.3247C29.7208 31.4596 29.645 31.6426 29.645 31.8334V52.5562H24.9853V31.8334C24.9853 31.6426 24.9095 31.4596 24.7745 31.3247C24.6396 31.1897 24.4566 31.1139 24.2657 31.1139ZM9.05181 38.5554H7.50336L12.1084 32.8322L16.7135 38.5554H15.1564C14.9655 38.5554 14.7825 38.6312 14.6476 38.7661C14.5126 38.9011 14.4368 39.0841 14.4368 39.2749V52.5605H9.77135V39.2749C9.77135 39.0841 9.69554 38.9011 9.5606 38.7661C9.42566 38.6312 9.24264 38.5554 9.05181 38.5554Z" fill="#EA9755"/>
</g>
<defs>
<clipPath id="clip0_3466_3979">
<rect width="54" height="54" fill="white"/>
</clipPath>
</defs>
</svg>
