<svg width="64" height="64" viewBox="0 0 64 64" fill="none" xmlns="http://www.w3.org/2000/svg">
<g clip-path="url(#clip0_4269_295615)">
<path d="M60.1151 48.9606V58.6765C60.1151 61.6153 57.7295 64.0003 54.7913 64.0003H40.2458C37.3075 64.0003 34.9219 61.6153 34.9219 58.6765V48.9606C34.9219 46.0217 37.3075 43.6367 40.2458 43.6367H54.7913C57.7295 43.6367 60.1151 46.0216 60.1151 48.9606Z" fill="#4ECF7D"/>
<path d="M53.3425 49.4546C51.736 49.4546 50.4334 48.1521 50.4334 46.5455V40.7272C50.4334 39.1232 49.128 37.8181 47.5243 37.8181C45.9205 37.8181 44.6151 39.1231 44.6151 40.7272V46.5455C44.6151 48.152 43.3126 49.4546 41.706 49.4546C40.0995 49.4546 38.7969 48.1521 38.7969 46.5455V40.7272C38.7969 35.9151 42.7116 32 47.5241 32C52.3366 32 56.2514 35.9151 56.2514 40.7272V46.5455C56.2516 48.1521 54.9491 49.4546 53.3425 49.4546Z" fill="#4ECF7D"/>
<path d="M27.1549 29.091C35.1881 29.091 41.7004 22.5788 41.7004 14.5455C41.7004 6.51224 35.1881 0 27.1549 0C19.1216 0 12.6094 6.51224 12.6094 14.5455C12.6094 22.5788 19.1216 29.091 27.1549 29.091Z" fill="#4ECF7D"/>
<path d="M34.1669 34.9102C33.4397 36.626 33.0028 38.5182 32.9737 40.4954C30.6172 42.5608 29.1044 45.5863 29.1044 48.9613V58.1829H12.6101C7.81031 58.1829 3.88281 54.2554 3.88281 49.4557C3.88281 41.4273 10.3992 34.9102 18.4283 34.9102H34.1669Z" fill="#4ECF7D"/>
</g>
<defs>
<clipPath id="clip0_4269_295615">
<rect width="64" height="64" fill="white"/>
</clipPath>
</defs>
</svg>
