<svg width="56" height="64" viewBox="0 0 56 64" fill="none" xmlns="http://www.w3.org/2000/svg">
<path d="M56 9.125V14.875C56 17.375 53.25 19.5417 47.75 21.375C42.3333 23.125 35.75 24 28 24C22.9167 24 18.2083 23.5833 13.875 22.75C9.625 21.9167 6.25 20.8333 3.75 19.5C1.25 18.0833 0 16.5417 0 14.875V9.125C0 6.625 2.70833 4.5 8.125 2.75C13.625 0.916667 20.25 0 28 0C33.0833 0 37.75 0.416667 42 1.25C46.3333 2.08333 49.75 3.20833 52.25 4.625C54.75 5.95833 56 7.45833 56 9.125ZM56 22V34.875C56 37.375 53.25 39.5417 47.75 41.375C42.3333 43.125 35.75 44 28 44C20.25 44 13.625 43.125 8.125 41.375C2.70833 39.5417 0 37.375 0 34.875V22C5.91667 26.0833 15.25 28.125 28 28.125C40.75 28.125 50.0833 26.0833 56 22ZM56 42V54.875C56 57.375 53.25 59.5 47.75 61.25C42.3333 63.0833 35.75 64 28 64C20.25 64 13.625 63.0833 8.125 61.25C2.70833 59.5 0 57.375 0 54.875V42C5.91667 46.0833 15.25 48.125 28 48.125C40.75 48.125 50.0833 46.0833 56 42Z" fill="#4ECF7D"/>
</svg>
