<svg width="64" height="64" viewBox="0 0 64 64" fill="none" xmlns="http://www.w3.org/2000/svg">
<g clip-path="url(#clip0_4269_186274)">
<path d="M60 9.125V14.875C60 17.375 57.25 19.5417 51.75 21.375C46.3333 23.125 39.75 24 32 24C26.9167 24 22.2083 23.5833 17.875 22.75C13.625 21.9167 10.25 20.8333 7.75 19.5C5.25 18.0833 4 16.5417 4 14.875V9.125C4 6.625 6.70833 4.5 12.125 2.75C17.625 0.916667 24.25 0 32 0C37.0833 0 41.75 0.416667 46 1.25C50.3333 2.08333 53.75 3.20833 56.25 4.625C58.75 5.95833 60 7.45833 60 9.125ZM60 22V34.875C60 37.375 57.25 39.5417 51.75 41.375C46.3333 43.125 39.75 44 32 44C24.25 44 17.625 43.125 12.125 41.375C6.70833 39.5417 4 37.375 4 34.875V22C9.91667 26.0833 19.25 28.125 32 28.125C44.75 28.125 54.0833 26.0833 60 22ZM60 42V54.875C60 57.375 57.25 59.5 51.75 61.25C46.3333 63.0833 39.75 64 32 64C24.25 64 17.625 63.0833 12.125 61.25C6.70833 59.5 4 57.375 4 54.875V42C9.91667 46.0833 19.25 48.125 32 48.125C44.75 48.125 54.0833 46.0833 60 42Z" fill="#2A2A2A"/>
</g>
<defs>
<clipPath id="clip0_4269_186274">
<rect width="64" height="64" fill="white"/>
</clipPath>
</defs>
</svg>
