<svg width="64" height="64" viewBox="0 0 64 64" fill="none" xmlns="http://www.w3.org/2000/svg">
<path fill-rule="evenodd" clip-rule="evenodd" d="M54.5702 64H9.43451C9.02051 64 8.6875 63.667 8.6875 63.253V14.9582H22.4577C22.8717 14.9582 23.2047 14.6162 23.2047 14.2022V0H54.5702C54.9842 0 55.3262 0.333005 55.3262 0.747012V63.253C55.3262 63.667 54.9842 64 54.5702 64ZM40.755 16.8483C39.144 16.8483 37.839 15.5432 37.839 13.9322C37.839 12.6092 38.73 11.4932 39.936 11.1422V9.68415C39.936 8.69414 41.439 8.69414 41.439 9.68415V11.1062C42.717 11.4122 43.662 12.5642 43.662 13.9322C43.662 14.9222 42.159 14.9222 42.159 13.9322C42.159 13.1582 41.529 12.5282 40.755 12.5282C39.972 12.5282 39.342 13.1582 39.342 13.9322C39.342 14.7152 39.972 15.3452 40.755 15.3452C42.357 15.3452 43.662 16.6503 43.662 18.2523C43.662 19.6203 42.717 20.7723 41.439 21.0783V22.5093C41.439 22.9234 41.106 23.2564 40.692 23.2564C40.278 23.2564 39.936 22.9234 39.936 22.5093V21.0513C38.73 20.6913 37.839 19.5753 37.839 18.2523C37.839 17.2713 39.342 17.2713 39.342 18.2523C39.342 19.0353 39.972 19.6653 40.755 19.6653C41.529 19.6653 42.159 19.0353 42.159 18.2523C42.159 17.4783 41.529 16.8483 40.755 16.8483ZM40.755 26.6224C34.9499 26.6224 30.2248 21.8973 30.2248 16.0923C30.2248 10.2872 34.9499 5.56209 40.755 5.56209C46.5601 5.56209 51.2852 10.2872 51.2852 16.0923C51.2852 21.8973 46.5601 26.6224 40.755 26.6224ZM40.755 7.06511C35.7689 7.06511 31.7189 11.1152 31.7189 16.0923C31.7189 21.0783 35.7689 25.1284 40.755 25.1284C45.7321 25.1284 49.7821 21.0783 49.7821 16.0923C49.7821 11.1152 45.7321 7.06511 40.755 7.06511ZM24.4827 31.6715C23.1687 31.6715 22.5387 33.2645 23.4477 34.1645L28.5598 39.2766C29.1268 39.8436 30.0628 39.8436 30.6298 39.2766C31.1968 38.7006 31.1968 37.7736 30.6298 37.1976L25.5268 32.0945C25.2478 31.8155 24.8788 31.6715 24.4827 31.6715ZM36.2999 30.1955C37.3529 29.8985 38.523 30.1595 39.351 30.9785C40.197 31.8335 40.449 33.0575 40.098 34.1285C40.665 34.2185 41.205 34.4795 41.637 34.9205C42.375 35.6496 42.618 36.7026 42.366 37.6386C44.5801 37.9806 45.4981 40.7166 43.896 42.3187L43.14 43.0747C43.194 43.5247 43.374 44.3977 43.9771 45.0907L49.6921 50.4188C49.9981 50.7068 50.0071 51.1928 49.7101 51.4988L41.196 60.0129C40.899 60.3099 40.422 60.3099 40.134 60.0129L34.5809 54.4688C34.0049 54.0728 32.5109 53.3618 31.8539 53.1458C30.4678 53.2898 29.0278 52.9838 27.4258 54.5769L23.8707 58.0329C23.5737 58.3209 23.1057 58.3209 22.8177 58.0329L14.2946 49.5098C13.9976 49.2128 14.0066 48.7358 14.3036 48.4478L17.8046 45.0367C18.0386 44.6767 18.2997 44.0737 18.5337 43.3177L17.3186 42.1117C15.4916 40.2846 16.8416 37.1166 19.4697 37.2246C19.4247 35.8926 20.3157 34.5785 21.7557 34.2905C20.9727 32.4635 22.2417 30.1685 24.4827 30.1685C24.8968 30.1685 25.2928 30.2495 25.6528 30.4025C26.1388 28.1074 28.9108 27.3874 30.4768 28.9535L30.8638 29.3405L31.5839 28.6294C33.2219 26.9824 36.0029 27.9814 36.2999 30.1955ZM19.8927 42.5617L20.8557 43.5247C21.3867 44.0557 22.2507 44.0557 22.7817 43.5247C23.3127 42.9937 23.3127 42.1297 22.7817 41.5986L20.3067 39.1236C20.0547 38.8626 19.7127 38.7276 19.3437 38.7276C18.1286 38.7276 17.5256 40.1946 18.3807 41.0496L19.8927 42.5617ZM19.7127 44.4967C19.4697 45.1357 19.1727 45.8017 18.8847 46.0717L15.8966 48.9878L23.3487 56.4489L26.3818 53.4968C29.2168 50.7158 31.6379 52.3808 32.9519 51.1388C34.2479 49.8788 35.5529 48.5108 36.8399 47.2507L41.745 42.3457C41.79 42.2827 41.844 42.2287 41.907 42.1837L42.834 41.2566C43.329 40.7616 43.329 39.9696 42.834 39.4746C42.348 38.9886 41.556 38.9796 41.052 39.4836L33.7529 46.7737C33.6089 46.9177 33.4199 46.9897 33.2309 46.9897C32.5649 46.9897 32.2229 46.1887 32.6999 45.7117L40.575 37.8276C41.394 37.0086 40.818 35.5956 39.648 35.5956C39.288 35.5956 38.973 35.7306 38.721 35.9826L30.5578 44.1367C30.4138 44.2897 30.2248 44.3617 30.0268 44.3617C29.3698 44.3617 29.0278 43.5517 29.4958 43.0747L38.289 34.2905C38.91 33.6695 38.91 32.6615 38.289 32.0405C37.668 31.4195 36.6599 31.4195 36.0389 32.0405L33.5909 34.4795C33.2849 35.2805 32.6369 35.9466 31.7459 36.1986C33.5189 38.0706 32.2049 41.2026 29.5948 41.2026C28.8208 41.2026 28.1008 40.9146 27.5518 40.3836C27.2008 41.5626 26.1208 42.4897 24.6807 42.4357C24.7348 43.9387 23.5827 45.4237 21.8187 45.4237C20.9637 45.4237 20.2977 45.0907 19.7127 44.4967ZM25.7698 38.6106L23.2947 36.1356C23.0427 35.8836 22.7007 35.7396 22.3317 35.7396C21.1077 35.7396 20.5227 37.2156 21.3687 38.0616L23.8437 40.5366C24.6897 41.3826 26.1658 40.7976 26.1658 39.5736C26.1658 39.2046 26.0308 38.8716 25.7698 38.6106ZM32.1959 33.9575C32.2229 33.7775 32.2859 33.7865 32.2859 33.4535C32.2859 33.0845 32.1509 32.7425 31.8899 32.4905L29.4148 30.0155C29.1628 29.7545 28.8208 29.6195 28.4518 29.6195C27.2278 29.6195 26.6518 31.0955 27.4888 31.9415L29.9638 34.4165C30.6838 35.1365 31.8629 34.8215 32.1959 33.9575ZM33.5819 32.3735L34.4549 31.5005C35.2469 30.7085 34.7069 29.3135 33.5459 29.3135C33.2039 29.3135 32.8799 29.4485 32.6459 29.6825L31.9259 30.4025C32.5019 30.9785 33.2759 31.6175 33.5819 32.3735ZM37.884 48.3308L34.0229 52.1828L33.8339 52.3538C34.3559 52.6058 35.3549 53.1098 35.6249 53.3888L40.665 58.4289L48.0991 50.9858L42.825 46.0627C42.348 45.5047 42.06 44.8837 41.88 44.3257L37.902 48.3128L37.884 48.3308ZM9.11951 13.4552L21.7017 0.450007V13.4552H9.11951Z" fill="#2A2A2A"/>
</svg>
