<svg width="56" height="64" viewBox="0 0 56 64" fill="none" xmlns="http://www.w3.org/2000/svg">
<path d="M18.6484 36.3125H13.7266C13.2344 36.3125 12.8652 36.1895 12.6191 35.9434C12.373 35.6973 12.25 35.3281 12.25 34.8359V29.9141C12.25 29.5449 12.373 29.1758 12.6191 28.9297C12.8652 28.6836 13.2344 28.4375 13.7266 28.4375H18.6484C19.0176 28.4375 19.3867 28.6836 19.6328 28.9297C19.8789 29.1758 20.125 29.5449 20.125 29.9141V34.8359C20.125 35.3281 19.8789 35.6973 19.6328 35.9434C19.3867 36.1895 19.0176 36.3125 18.6484 36.3125ZM31.9375 34.8359V29.9141C31.9375 29.5449 31.6914 29.1758 31.4453 28.9297C31.1992 28.6836 30.8301 28.4375 30.4609 28.4375H25.5391C25.0469 28.4375 24.6777 28.6836 24.4316 28.9297C24.1855 29.1758 24.0625 29.5449 24.0625 29.9141V34.8359C24.0625 35.3281 24.1855 35.6973 24.4316 35.9434C24.6777 36.1895 25.0469 36.3125 25.5391 36.3125H30.4609C30.8301 36.3125 31.1992 36.1895 31.4453 35.9434C31.6914 35.6973 31.9375 35.3281 31.9375 34.8359ZM43.75 34.8359V29.9141C43.75 29.5449 43.5039 29.1758 43.2578 28.9297C43.0117 28.6836 42.6426 28.4375 42.2734 28.4375H37.3516C36.8594 28.4375 36.4902 28.6836 36.2441 28.9297C35.998 29.1758 35.875 29.5449 35.875 29.9141V34.8359C35.875 35.3281 35.998 35.6973 36.2441 35.9434C36.4902 36.1895 36.8594 36.3125 37.3516 36.3125H42.2734C42.6426 36.3125 43.0117 36.1895 43.2578 35.9434C43.5039 35.6973 43.75 35.3281 43.75 34.8359ZM31.9375 46.6484V41.7266C31.9375 41.3574 31.6914 40.9883 31.4453 40.7422C31.1992 40.4961 30.8301 40.25 30.4609 40.25H25.5391C25.0469 40.25 24.6777 40.4961 24.4316 40.7422C24.1855 40.9883 24.0625 41.3574 24.0625 41.7266V46.6484C24.0625 47.1406 24.1855 47.5098 24.4316 47.7559C24.6777 48.002 25.0469 48.125 25.5391 48.125H30.4609C30.8301 48.125 31.1992 48.002 31.4453 47.7559C31.6914 47.5098 31.9375 47.1406 31.9375 46.6484ZM20.125 46.6484V41.7266C20.125 41.3574 19.8789 40.9883 19.6328 40.7422C19.3867 40.4961 19.0176 40.25 18.6484 40.25H13.7266C13.2344 40.25 12.8652 40.4961 12.6191 40.7422C12.373 40.9883 12.25 41.3574 12.25 41.7266V46.6484C12.25 47.1406 12.373 47.5098 12.6191 47.7559C12.8652 48.002 13.2344 48.125 13.7266 48.125H18.6484C19.0176 48.125 19.3867 48.002 19.6328 47.7559C19.8789 47.5098 20.125 47.1406 20.125 46.6484ZM43.75 46.6484V41.7266C43.75 41.3574 43.5039 40.9883 43.2578 40.7422C43.0117 40.4961 42.6426 40.25 42.2734 40.25H37.3516C36.8594 40.25 36.4902 40.4961 36.2441 40.7422C35.998 40.9883 35.875 41.3574 35.875 41.7266V46.6484C35.875 47.1406 35.998 47.5098 36.2441 47.7559C36.4902 48.002 36.8594 48.125 37.3516 48.125H42.2734C42.6426 48.125 43.0117 48.002 43.2578 47.7559C43.5039 47.5098 43.75 47.1406 43.75 46.6484ZM55.5625 14.6562V57.9688C55.5625 59.6914 54.9473 61.0449 53.8398 62.1523C52.6094 63.3828 51.2559 63.875 49.6562 63.875H6.34375C4.62109 63.875 3.26758 63.3828 2.16016 62.1523C0.929688 61.0449 0.4375 59.6914 0.4375 57.9688V14.6562C0.4375 13.0566 0.929688 11.7031 2.16016 10.4727C3.26758 9.36523 4.62109 8.75 6.34375 8.75H12.25V2.35156C12.25 1.98242 12.373 1.61328 12.6191 1.36719C12.8652 1.12109 13.2344 0.875 13.7266 0.875H18.6484C19.0176 0.875 19.3867 1.12109 19.6328 1.36719C19.8789 1.61328 20.125 1.98242 20.125 2.35156V8.75H35.875V2.35156C35.875 1.98242 35.998 1.61328 36.2441 1.36719C36.4902 1.12109 36.8594 0.875 37.3516 0.875H42.2734C42.6426 0.875 43.0117 1.12109 43.2578 1.36719C43.5039 1.61328 43.75 1.98242 43.75 2.35156V8.75H49.6562C51.2559 8.75 52.6094 9.36523 53.8398 10.4727C54.9473 11.7031 55.5625 13.0566 55.5625 14.6562ZM49.6562 57.2305V20.5625H6.34375V57.2305C6.34375 57.4766 6.34375 57.5996 6.58984 57.7227C6.71289 57.9688 6.83594 57.9688 7.08203 57.9688H48.918C49.041 57.9688 49.1641 57.9688 49.4102 57.7227C49.5332 57.5996 49.6562 57.4766 49.6562 57.2305Z" fill="#2D3250"/>
</svg>
