<svg width="63" height="62" viewBox="0 0 63 62" fill="none" xmlns="http://www.w3.org/2000/svg">
<path d="M31.5 0.859375C36.9141 0.859375 42.082 2.33594 46.7578 5.04297C51.4336 7.75 55.125 11.4414 57.832 16.1172C60.5391 20.793 62.0156 25.9609 62.0156 31.375C62.0156 36.9121 60.5391 41.957 57.832 46.6328C55.125 51.3086 51.4336 55.123 46.7578 57.8301C42.082 60.5371 36.9141 61.8906 31.5 61.8906C25.9629 61.8906 20.918 60.5371 16.2422 57.8301C11.5664 55.123 7.75195 51.3086 5.04492 46.6328C2.33789 41.957 0.984375 36.9121 0.984375 31.375C0.984375 25.9609 2.33789 20.793 5.04492 16.1172C7.75195 11.4414 11.5664 7.75 16.2422 5.04297C20.918 2.33594 25.9629 0.859375 31.5 0.859375ZM31.5 14.3945C30.0234 14.3945 28.793 15.0098 27.8086 15.9941C26.8242 16.9785 26.332 18.209 26.332 19.5625C26.332 21.0391 26.8242 22.2695 27.8086 23.2539C28.793 24.2383 30.0234 24.7305 31.5 24.7305C32.8535 24.7305 34.084 24.2383 35.0684 23.2539C36.0527 22.2695 36.668 21.0391 36.668 19.5625C36.668 18.209 36.0527 16.9785 35.0684 15.9941C34.084 15.0098 32.8535 14.3945 31.5 14.3945ZM38.3906 45.6484V42.6953C38.3906 42.3262 38.1445 41.957 37.8984 41.7109C37.6523 41.4648 37.2832 41.2188 36.9141 41.2188H35.4375V28.9141C35.4375 28.5449 35.1914 28.1758 34.9453 27.9297C34.6992 27.6836 34.3301 27.4375 33.9609 27.4375H26.0859C25.5938 27.4375 25.2246 27.6836 24.9785 27.9297C24.7324 28.1758 24.6094 28.5449 24.6094 28.9141V31.8672C24.6094 32.3594 24.7324 32.7285 24.9785 32.9746C25.2246 33.2207 25.5938 33.3438 26.0859 33.3438H27.5625V41.2188H26.0859C25.5938 41.2188 25.2246 41.4648 24.9785 41.7109C24.7324 41.957 24.6094 42.3262 24.6094 42.6953V45.6484C24.6094 46.1406 24.7324 46.5098 24.9785 46.7559C25.2246 47.002 25.5938 47.125 26.0859 47.125H36.9141C37.2832 47.125 37.6523 47.002 37.8984 46.7559C38.1445 46.5098 38.3906 46.1406 38.3906 45.6484Z" fill="#2D3250"/>
</svg>
