<svg width="554" height="432" viewBox="0 0 554 432" fill="none" xmlns="http://www.w3.org/2000/svg">
<g filter="url(#filter0_d_2317_3060)">
<path d="M538 400.562C538 406.876 533.396 412 527.721 412H26.2866C20.6041 412 16 406.876 16 400.562V23.4293C16 17.1155 20.6041 12 26.2866 12H527.713C533.388 12 537.992 17.1155 537.992 23.4293V400.562H538Z" fill="white"/>
<path d="M538.5 400.562V400.062H538.492V23.4293C538.492 16.8904 533.713 11.5 527.713 11.5H26.2866C20.2797 11.5 15.5 16.8902 15.5 23.4293V400.562C15.5 407.101 20.2792 412.5 26.2866 412.5H527.721C533.721 412.5 538.5 407.101 538.5 400.562Z" stroke="#F0E8E8"/>
</g>
<path d="M48.0439 34.3571C48.0439 36.5327 46.2839 38.2924 44.1079 38.2924C41.9319 38.2924 40.1719 36.5327 40.1719 34.3571C40.1719 32.1815 41.9319 30.4219 44.1079 30.4219C46.2839 30.4219 48.0439 32.1815 48.0439 34.3571Z" fill="#FFC3D0"/>
<path d="M63.747 34.3571C63.747 36.5327 61.987 38.2924 59.811 38.2924C57.635 38.2924 55.875 36.5327 55.875 34.3571C55.875 32.1815 57.635 30.4219 59.811 30.4219C61.987 30.4219 63.747 32.1815 63.747 34.3571Z" fill="#F5D79B"/>
<path d="M79.4579 34.3571C79.4579 36.5327 77.6979 38.2924 75.5219 38.2924C73.3459 38.2924 71.5859 36.5327 71.5859 34.3571C71.5859 32.1815 73.3459 30.4219 75.5219 30.4219C77.6979 30.4219 79.4579 32.1815 79.4579 34.3571Z" fill="#6AEBE7"/>
<path d="M539 94H17V322H539V94Z" fill="#F9F9F8"/>
<path d="M531.269 52H16V385H372.908H424.936H538V197.36V111.019V85.3458V52H531.269Z" fill="white"/>
<path d="M184.688 124.466L187.416 115.622H191.002L193.708 124.466L196.766 115.622H200.484L195.116 131H192.564L189.198 120.308L185.854 131H183.302L177.934 115.622H181.652L184.688 124.466ZM213.388 115.622V118.68H205.732V121.848H212.618V124.774H205.732V127.964H213.63V131H202.3V115.622H213.388ZM223.427 131H216.695V115.622H222.679C223.72 115.622 224.615 115.747 225.363 115.996C226.125 116.245 226.697 116.583 227.079 117.008C227.768 117.8 228.113 118.695 228.113 119.692C228.113 120.895 227.724 121.789 226.947 122.376C226.683 122.581 226.499 122.713 226.397 122.772C226.294 122.816 226.111 122.897 225.847 123.014C226.8 123.219 227.555 123.652 228.113 124.312C228.685 124.957 228.971 125.764 228.971 126.732C228.971 127.803 228.604 128.749 227.871 129.57C227.02 130.523 225.539 131 223.427 131ZM220.127 121.848H221.755C222.708 121.848 223.412 121.745 223.867 121.54C224.336 121.335 224.571 120.895 224.571 120.22C224.571 119.531 224.358 119.076 223.933 118.856C223.507 118.636 222.789 118.526 221.777 118.526H220.127V121.848ZM220.127 128.096H222.481C223.463 128.096 224.197 127.979 224.681 127.744C225.179 127.495 225.429 127.018 225.429 126.314C225.429 125.595 225.165 125.126 224.637 124.906C224.123 124.671 223.295 124.554 222.151 124.554H220.127V128.096ZM236.813 118.284C236.241 118.284 235.786 118.423 235.449 118.702C235.126 118.966 234.965 119.325 234.965 119.78C234.965 120.22 235.163 120.572 235.559 120.836C235.969 121.1 236.901 121.415 238.353 121.782C239.819 122.134 240.956 122.669 241.763 123.388C242.569 124.107 242.973 125.155 242.973 126.534C242.973 127.913 242.452 129.035 241.411 129.9C240.384 130.751 239.027 131.176 237.341 131.176C234.906 131.176 232.713 130.274 230.763 128.47L232.809 125.962C234.466 127.414 235.999 128.14 237.407 128.14C238.037 128.14 238.529 128.008 238.881 127.744C239.247 127.465 239.431 127.099 239.431 126.644C239.431 126.175 239.24 125.808 238.859 125.544C238.477 125.265 237.722 124.987 236.593 124.708C234.803 124.283 233.491 123.733 232.655 123.058C231.833 122.369 231.423 121.298 231.423 119.846C231.423 118.379 231.943 117.25 232.985 116.458C234.041 115.666 235.353 115.27 236.923 115.27C237.949 115.27 238.976 115.446 240.003 115.798C241.029 116.15 241.924 116.649 242.687 117.294L240.949 119.802C239.614 118.79 238.235 118.284 236.813 118.284ZM245.892 115.622H249.324V131H245.892V115.622ZM259.623 118.592V131H256.191V118.592H251.835V115.622H263.979V118.592H259.623ZM277.584 115.622V118.68H269.928V121.848H276.814V124.774H269.928V127.964H277.826V131H266.496V115.622H277.584ZM291.641 118.284C291.069 118.284 290.614 118.423 290.277 118.702C289.954 118.966 289.793 119.325 289.793 119.78C289.793 120.22 289.991 120.572 290.387 120.836C290.797 121.1 291.729 121.415 293.181 121.782C294.647 122.134 295.784 122.669 296.591 123.388C297.397 124.107 297.801 125.155 297.801 126.534C297.801 127.913 297.28 129.035 296.239 129.9C295.212 130.751 293.855 131.176 292.169 131.176C289.734 131.176 287.541 130.274 285.591 128.47L287.637 125.962C289.294 127.414 290.827 128.14 292.235 128.14C292.865 128.14 293.357 128.008 293.709 127.744C294.075 127.465 294.259 127.099 294.259 126.644C294.259 126.175 294.068 125.808 293.687 125.544C293.305 125.265 292.55 124.987 291.421 124.708C289.631 124.283 288.319 123.733 287.483 123.058C286.661 122.369 286.251 121.298 286.251 119.846C286.251 118.379 286.771 117.25 287.813 116.458C288.869 115.666 290.181 115.27 291.751 115.27C292.777 115.27 293.804 115.446 294.831 115.798C295.857 116.15 296.752 116.649 297.515 117.294L295.777 119.802C294.442 118.79 293.063 118.284 291.641 118.284ZM311.808 115.622V118.68H304.152V121.848H311.038V124.774H304.152V127.964H312.05V131H300.72V115.622H311.808ZM322.177 127.964C323.863 127.964 325.242 127.297 326.313 125.962L328.513 128.228C326.767 130.193 324.707 131.176 322.331 131.176C319.969 131.176 318.019 130.428 316.479 128.932C314.953 127.436 314.191 125.551 314.191 123.278C314.191 120.99 314.968 119.083 316.523 117.558C318.092 116.033 320.006 115.27 322.265 115.27C324.787 115.27 326.899 116.231 328.601 118.152L326.467 120.572C325.381 119.223 324.032 118.548 322.419 118.548C321.128 118.548 320.021 118.973 319.097 119.824C318.187 120.66 317.733 121.797 317.733 123.234C317.733 124.657 318.165 125.801 319.031 126.666C319.896 127.531 320.945 127.964 322.177 127.964ZM335.298 127.04C335.87 127.744 336.64 128.096 337.608 128.096C338.576 128.096 339.339 127.744 339.896 127.04C340.468 126.321 340.754 125.346 340.754 124.114V115.622H344.186V124.224C344.186 126.453 343.57 128.169 342.338 129.372C341.106 130.56 339.529 131.154 337.608 131.154C335.687 131.154 334.103 130.553 332.856 129.35C331.624 128.147 331.008 126.439 331.008 124.224V115.622H334.44V124.114C334.44 125.346 334.726 126.321 335.298 127.04ZM360.223 120.726C360.223 123.19 359.248 124.781 357.297 125.5L361.191 131H356.967L353.557 126.094H351.181V131H347.749V115.622H353.579C355.97 115.622 357.671 116.025 358.683 116.832C359.71 117.639 360.223 118.937 360.223 120.726ZM353.689 123.124C354.863 123.124 355.662 122.933 356.087 122.552C356.513 122.171 356.725 121.569 356.725 120.748C356.725 119.912 356.505 119.34 356.065 119.032C355.625 118.724 354.855 118.57 353.755 118.57H351.181V123.124H353.689ZM374.822 115.622V118.68H367.166V121.848H374.052V124.774H367.166V127.964H375.064V131H363.734V115.622H374.822Z" fill="#2D3250"/>
<path opacity="0.7" d="M539 52H16V94H539V52Z" fill="#EEE3E3"/>
<path d="M64 72C64 77.5239 59.5256 82 54 82C48.4744 82 44 77.52 44 72C44 66.48 48.4744 62 54 62C59.5256 62 64 66.4761 64 72Z" fill="#CCCCCC"/>
<path d="M70.8849 78V67.8182H73.0376V76.2251H77.4027V78H70.8849ZM87.7884 72.9091C87.7884 74.0194 87.5779 74.964 87.157 75.7429C86.7393 76.5218 86.1693 77.1167 85.4467 77.5277C84.7275 77.9354 83.9188 78.1392 83.0206 78.1392C82.1158 78.1392 81.3037 77.9337 80.5845 77.5227C79.8653 77.1117 79.2969 76.5168 78.8793 75.7379C78.4616 74.959 78.2528 74.0161 78.2528 72.9091C78.2528 71.7988 78.4616 70.8542 78.8793 70.0753C79.2969 69.2964 79.8653 68.7031 80.5845 68.2955C81.3037 67.8845 82.1158 67.679 83.0206 67.679C83.9188 67.679 84.7275 67.8845 85.4467 68.2955C86.1693 68.7031 86.7393 69.2964 87.157 70.0753C87.5779 70.8542 87.7884 71.7988 87.7884 72.9091ZM85.6058 72.9091C85.6058 72.1899 85.4981 71.5833 85.2827 71.0895C85.0705 70.5956 84.7706 70.2211 84.3828 69.9659C83.995 69.7107 83.541 69.5831 83.0206 69.5831C82.5002 69.5831 82.0462 69.7107 81.6584 69.9659C81.2706 70.2211 80.969 70.5956 80.7536 71.0895C80.5414 71.5833 80.4354 72.1899 80.4354 72.9091C80.4354 73.6283 80.5414 74.2348 80.7536 74.7287C80.969 75.2225 81.2706 75.5971 81.6584 75.8523C82.0462 76.1075 82.5002 76.2351 83.0206 76.2351C83.541 76.2351 83.995 76.1075 84.3828 75.8523C84.7706 75.5971 85.0705 75.2225 85.2827 74.7287C85.4981 74.2348 85.6058 73.6283 85.6058 72.9091ZM96.1344 71.1094C96.0648 70.8674 95.967 70.6536 95.8411 70.468C95.7151 70.2791 95.561 70.12 95.3787 69.9908C95.1998 69.8582 94.9943 69.7571 94.7623 69.6875C94.5336 69.6179 94.28 69.5831 94.0016 69.5831C93.4812 69.5831 93.0239 69.7124 92.6294 69.9709C92.2383 70.2294 91.9334 70.6056 91.7147 71.0994C91.4959 71.59 91.3865 72.1899 91.3865 72.8991C91.3865 73.6084 91.4943 74.2116 91.7097 74.7088C91.9251 75.206 92.2301 75.5855 92.6245 75.8473C93.0189 76.1058 93.4846 76.2351 94.0215 76.2351C94.5087 76.2351 94.9247 76.1489 95.2694 75.9766C95.6174 75.8009 95.8825 75.554 96.0648 75.2358C96.2504 74.9176 96.3432 74.5414 96.3432 74.1072L96.7807 74.1719H94.1557V72.5511H98.4164V73.8338C98.4164 74.7287 98.2275 75.4976 97.8496 76.1406C97.4718 76.7803 96.9514 77.2741 96.2885 77.6222C95.6257 77.9669 94.8667 78.1392 94.0115 78.1392C93.057 78.1392 92.2185 77.9287 91.4959 77.5078C90.7734 77.0836 90.2099 76.482 89.8056 75.7031C89.4045 74.9209 89.204 73.9929 89.204 72.919C89.204 72.0937 89.3233 71.358 89.562 70.7116C89.8039 70.062 90.142 69.5118 90.5762 69.0611C91.0104 68.6103 91.5158 68.2673 92.0925 68.032C92.6692 67.7966 93.294 67.679 93.9668 67.679C94.5435 67.679 95.0804 67.7635 95.5776 67.9325C96.0748 68.0982 96.5156 68.3336 96.9 68.6385C97.2878 68.9434 97.6043 69.3063 97.8496 69.7273C98.0949 70.1449 98.2523 70.6056 98.3219 71.1094H96.1344ZM109.39 72.9091C109.39 74.0194 109.179 74.964 108.759 75.7429C108.341 76.5218 107.771 77.1167 107.048 77.5277C106.329 77.9354 105.52 78.1392 104.622 78.1392C103.717 78.1392 102.905 77.9337 102.186 77.5227C101.467 77.1117 100.898 76.5168 100.481 75.7379C100.063 74.959 99.8544 74.0161 99.8544 72.9091C99.8544 71.7988 100.063 70.8542 100.481 70.0753C100.898 69.2964 101.467 68.7031 102.186 68.2955C102.905 67.8845 103.717 67.679 104.622 67.679C105.52 67.679 106.329 67.8845 107.048 68.2955C107.771 68.7031 108.341 69.2964 108.759 70.0753C109.179 70.8542 109.39 71.7988 109.39 72.9091ZM107.207 72.9091C107.207 72.1899 107.1 71.5833 106.884 71.0895C106.672 70.5956 106.372 70.2211 105.984 69.9659C105.597 69.7107 105.143 69.5831 104.622 69.5831C104.102 69.5831 103.648 69.7107 103.26 69.9659C102.872 70.2211 102.571 70.5956 102.355 71.0895C102.143 71.5833 102.037 72.1899 102.037 72.9091C102.037 73.6283 102.143 74.2348 102.355 74.7287C102.571 75.2225 102.872 75.5971 103.26 75.8523C103.648 76.1075 104.102 76.2351 104.622 76.2351C105.143 76.2351 105.597 76.1075 105.984 75.8523C106.372 75.5971 106.672 75.2225 106.884 74.7287C107.1 74.2348 107.207 73.6283 107.207 72.9091Z" fill="#CCCCCC"/>
<path d="M371 68H339C337.895 68 337 68.8954 337 70V72C337 73.1046 337.895 74 339 74H371C372.105 74 373 73.1046 373 72V70C373 68.8954 372.105 68 371 68Z" fill="#CCCCCC"/>
<path d="M417 69H385C383.895 69 383 69.8954 383 71V73C383 74.1046 383.895 75 385 75H417C418.105 75 419 74.1046 419 73V71C419 69.8954 418.105 69 417 69Z" fill="#CCCCCC"/>
<path d="M463 68H431C429.895 68 429 68.8954 429 70V72C429 73.1046 429.895 74 431 74H463C464.105 74 465 73.1046 465 72V70C465 68.8954 464.105 68 463 68Z" fill="#CCCCCC"/>
<path d="M509 68H477C475.895 68 475 68.8954 475 70V72C475 73.1046 475.895 74 477 74H509C510.105 74 511 73.1046 511 72V70C511 68.8954 510.105 68 509 68Z" fill="#CCCCCC"/>
<path d="M84.7842 199.293H53.8835C49.1054 199.293 45.2188 195.401 45.2188 190.617V159.676C45.2188 154.892 49.1054 151 53.8835 151H84.7842C89.5624 151 93.449 154.892 93.449 159.676V190.617C93.449 195.401 89.5624 199.293 84.7842 199.293ZM53.8835 155.245C51.4464 155.245 49.4581 157.236 49.4581 159.676V190.617C49.4581 193.057 51.4464 195.048 53.8835 195.048H84.7842C87.2278 195.048 89.2096 193.057 89.2096 190.617V159.676C89.2096 157.229 87.2214 155.245 84.7842 155.245H53.8835Z" fill="#F3EBEB"/>
<path d="M116.876 164.484H106.325C104.933 164.484 103.805 163.354 103.805 161.96C103.805 160.567 104.933 159.437 106.325 159.437H116.876C118.267 159.437 119.396 160.567 119.396 161.96C119.396 163.354 118.267 164.484 116.876 164.484Z" fill="#F3EBEB"/>
<path d="M154.786 173.275H106.325C104.933 173.275 103.805 172.145 103.805 170.751C103.805 169.358 104.933 168.228 106.325 168.228H154.786C156.178 168.228 157.307 169.358 157.307 170.751C157.307 172.145 156.178 173.275 154.786 173.275Z" fill="#F3EBEB"/>
<path d="M175.341 164.484H126.88C125.488 164.484 124.359 163.354 124.359 161.96C124.359 160.567 125.488 159.437 126.88 159.437H175.341C176.733 159.437 177.862 160.567 177.862 161.96C177.862 163.354 176.733 164.484 175.341 164.484Z" fill="#F3EBEB"/>
<path d="M225.011 173.275H163.286C161.894 173.275 160.766 172.145 160.766 170.751C160.766 169.358 161.894 168.228 163.286 168.228H225.011C226.402 168.228 227.531 169.358 227.531 170.751C227.531 172.145 226.402 173.275 225.011 173.275Z" fill="#F3EBEB"/>
<path d="M129.575 182.061H106.325C104.933 182.061 103.805 180.931 103.805 179.537C103.805 178.144 104.933 177.014 106.325 177.014H129.575C130.966 177.014 132.095 178.144 132.095 179.537C132.095 180.931 130.966 182.061 129.575 182.061Z" fill="#F3EBEB"/>
<path d="M192.139 182.061H139.099C137.707 182.061 136.578 180.931 136.578 179.537C136.578 178.144 137.707 177.014 139.099 177.014H192.139C193.531 177.014 194.66 178.144 194.66 179.537C194.66 180.931 193.531 182.061 192.139 182.061Z" fill="#F3EBEB"/>
<path d="M150.496 190.852H106.325C104.933 190.852 103.805 189.722 103.805 188.329C103.805 186.935 104.933 185.805 106.325 185.805H150.496C151.887 185.805 153.016 186.935 153.016 188.329C153.016 189.722 151.887 190.852 150.496 190.852Z" fill="#F3EBEB"/>
<path d="M84.7842 267.082H53.8835C49.1054 267.082 45.2188 263.191 45.2188 258.406V227.466C45.2188 222.681 49.1054 218.79 53.8835 218.79H84.7842C89.5624 218.79 93.449 222.681 93.449 227.466V258.406C93.449 263.191 89.5624 267.082 84.7842 267.082ZM53.8835 223.034C51.4464 223.034 49.4581 225.025 49.4581 227.466V258.406C49.4581 260.847 51.4464 262.838 53.8835 262.838H84.7842C87.2278 262.838 89.2096 260.847 89.2096 258.406V227.466C89.2096 225.019 87.2214 223.034 84.7842 223.034H53.8835Z" fill="#F3EBEB"/>
<path d="M197.834 232.276H106.325C104.933 232.276 103.805 231.145 103.805 229.752C103.805 228.358 104.933 227.228 106.325 227.228H197.834C199.226 227.228 200.355 228.358 200.355 229.752C200.355 231.145 199.226 232.276 197.834 232.276Z" fill="#F3EBEB"/>
<path d="M154.786 241.067H106.325C104.933 241.067 103.805 239.936 103.805 238.543C103.805 237.149 104.933 236.019 106.325 236.019H154.786C156.178 236.019 157.307 237.149 157.307 238.543C157.307 239.936 156.178 241.067 154.786 241.067Z" fill="#F3EBEB"/>
<path d="M207.302 232.276H214.517C215.909 232.276 217.038 231.145 217.038 229.752C217.038 228.358 215.909 227.228 214.517 227.228H207.302C205.91 227.228 204.781 228.358 204.781 229.752C204.781 231.145 205.91 232.276 207.302 232.276Z" fill="#F3EBEB"/>
<path d="M225.011 241.067H163.286C161.894 241.067 160.766 239.936 160.766 238.543C160.766 237.149 161.894 236.019 163.286 236.019H225.011C226.402 236.019 227.531 237.149 227.531 238.543C227.531 239.936 226.402 241.067 225.011 241.067Z" fill="#F3EBEB"/>
<path d="M131.511 244.805H104.395C104.069 244.805 103.805 245.07 103.805 245.396V249.262C103.805 249.588 104.069 249.853 104.395 249.853H131.511C131.837 249.853 132.101 249.588 132.101 249.262V245.396C132.101 245.07 131.837 244.805 131.511 244.805Z" fill="#F3EBEB"/>
<path d="M194.07 244.805H137.168C136.842 244.805 136.578 245.07 136.578 245.396V249.262C136.578 249.588 136.842 249.853 137.168 249.853H194.07C194.395 249.853 194.66 249.588 194.66 249.262V245.396C194.66 245.07 194.395 244.805 194.07 244.805Z" fill="#F3EBEB"/>
<path d="M150.496 258.644H106.325C104.933 258.644 103.805 257.514 103.805 256.12C103.805 254.726 104.933 253.596 106.325 253.596H150.496C151.887 253.596 153.016 254.726 153.016 256.12C153.016 257.514 151.887 258.644 150.496 258.644Z" fill="#F3EBEB"/>
<path d="M167.18 258.644H160.247C158.855 258.644 157.727 257.514 157.727 256.12C157.727 254.726 158.855 253.596 160.247 253.596H167.18C168.572 253.596 169.701 254.726 169.701 256.12C169.701 257.514 168.572 258.644 167.18 258.644Z" fill="#F3EBEB"/>
<path d="M84.7842 334.866H53.8835C49.1054 334.866 45.2188 330.974 45.2188 326.19V295.249C45.2188 290.465 49.1054 286.573 53.8835 286.573H84.7842C89.5624 286.573 93.449 290.465 93.449 295.249V326.19C93.449 330.974 89.5624 334.866 84.7842 334.866ZM53.8835 290.818C51.4464 290.818 49.4581 292.809 49.4581 295.249V326.19C49.4581 328.63 51.4464 330.621 53.8835 330.621H84.7842C87.2278 330.621 89.2096 328.63 89.2096 326.19V295.249C89.2096 292.803 87.2214 290.818 84.7842 290.818H53.8835Z" fill="#F3EBEB"/>
<path d="M164.695 300.066H106.325C104.933 300.066 103.805 298.935 103.805 297.542C103.805 296.148 104.933 295.018 106.325 295.018H164.695C166.087 295.018 167.216 296.148 167.216 297.542C167.216 298.935 166.087 300.066 164.695 300.066Z" fill="#F3EBEB"/>
<path d="M154.786 308.851H106.325C104.933 308.851 103.805 307.721 103.805 306.327C103.805 304.933 104.933 303.803 106.325 303.803H154.786C156.178 303.803 157.307 304.933 157.307 306.327C157.307 307.721 156.178 308.851 154.786 308.851Z" fill="#F3EBEB"/>
<path d="M179.798 300.066H173.802C172.41 300.066 171.281 298.935 171.281 297.542C171.281 296.148 172.41 295.018 173.802 295.018H179.798C181.19 295.018 182.319 296.148 182.319 297.542C182.319 298.935 181.19 300.066 179.798 300.066Z" fill="#F3EBEB"/>
<path d="M225.011 308.851H163.286C161.894 308.851 160.766 307.721 160.766 306.327C160.766 304.933 161.894 303.803 163.286 303.803H225.011C226.402 303.803 227.531 304.933 227.531 306.327C227.531 307.721 226.402 308.851 225.011 308.851Z" fill="#F3EBEB"/>
<path d="M168.762 317.643H106.325C104.933 317.643 103.805 316.513 103.805 315.12C103.805 313.726 104.933 312.596 106.325 312.596H168.762C170.153 312.596 171.282 313.726 171.282 315.12C171.282 316.513 170.153 317.643 168.762 317.643Z" fill="#F3EBEB"/>
<path d="M192.143 317.643H177.161C175.769 317.643 174.641 316.513 174.641 315.12C174.641 313.726 175.769 312.596 177.161 312.596H192.143C193.535 312.596 194.664 313.726 194.664 315.12C194.664 316.513 193.535 317.643 192.143 317.643Z" fill="#F3EBEB"/>
<path d="M216.286 326.428H106.325C104.933 326.428 103.805 325.298 103.805 323.904C103.805 322.511 104.933 321.38 106.325 321.38H216.286C217.678 321.38 218.807 322.511 218.807 323.904C218.807 325.298 217.678 326.428 216.286 326.428Z" fill="#F3EBEB"/>
<path d="M366.784 392.293H335.884C331.105 392.293 327.219 388.401 327.219 383.617V352.676C327.219 347.892 331.105 344 335.884 344H366.784C371.562 344 375.449 347.892 375.449 352.676V383.617C375.449 388.401 371.562 392.293 366.784 392.293ZM335.884 348.245C333.446 348.245 331.458 350.236 331.458 352.676V383.617C331.458 386.057 333.446 388.048 335.884 388.048H366.784C369.228 388.048 371.21 386.057 371.21 383.617V352.676C371.21 350.229 369.221 348.245 366.784 348.245H335.884Z" fill="#F3EBEB"/>
<path d="M446.695 357.492H388.325C386.933 357.492 385.805 356.362 385.805 354.969C385.805 353.575 386.933 352.445 388.325 352.445H446.695C448.087 352.445 449.216 353.575 449.216 354.969C449.216 356.362 448.087 357.492 446.695 357.492Z" fill="#F3EBEB"/>
<path d="M436.786 366.278H388.325C386.933 366.278 385.805 365.147 385.805 363.754C385.805 362.36 386.933 361.23 388.325 361.23H436.786C438.178 361.23 439.307 362.36 439.307 363.754C439.307 365.147 438.178 366.278 436.786 366.278Z" fill="#F3EBEB"/>
<path d="M461.798 357.492H455.802C454.41 357.492 453.281 356.362 453.281 354.969C453.281 353.575 454.41 352.445 455.802 352.445H461.798C463.19 352.445 464.319 353.575 464.319 354.969C464.319 356.362 463.19 357.492 461.798 357.492Z" fill="#F3EBEB"/>
<path d="M507.011 366.278H445.286C443.894 366.278 442.766 365.147 442.766 363.754C442.766 362.36 443.894 361.23 445.286 361.23H507.011C508.402 361.23 509.531 362.36 509.531 363.754C509.531 365.147 508.402 366.278 507.011 366.278Z" fill="#F3EBEB"/>
<path d="M450.762 375.07H388.325C386.933 375.07 385.805 373.94 385.805 372.546C385.805 371.153 386.933 370.022 388.325 370.022H450.762C452.153 370.022 453.282 371.153 453.282 372.546C453.282 373.94 452.153 375.07 450.762 375.07Z" fill="#F3EBEB"/>
<path d="M474.143 375.07H459.161C457.769 375.07 456.641 373.94 456.641 372.546C456.641 371.153 457.769 370.022 459.161 370.022H474.143C475.535 370.022 476.664 371.153 476.664 372.546C476.664 373.94 475.535 375.07 474.143 375.07Z" fill="#F3EBEB"/>
<path d="M498.286 383.855H388.325C386.933 383.855 385.805 382.724 385.805 381.331C385.805 379.937 386.933 378.807 388.325 378.807H498.286C499.678 378.807 500.807 379.937 500.807 381.331C500.807 382.724 499.678 383.855 498.286 383.855Z" fill="#F3EBEB"/>
<path d="M504.585 151H260.853C258.293 151 256.219 153.449 256.219 156.469V239.531C256.219 242.551 258.293 245 260.853 245H504.585C507.144 245 509.219 242.551 509.219 239.531V156.469C509.219 153.449 507.144 151 504.585 151Z" fill="#F3EBEB"/>
<path d="M504.585 255H260.853C258.293 255 256.219 255.234 256.219 255.524V263.476C256.219 263.766 258.293 264 260.853 264H504.585C507.144 264 509.219 263.766 509.219 263.476V255.524C509.219 255.234 507.144 255 504.585 255Z" fill="#F3EBEB"/>
<path d="M504.585 274H260.853C258.293 274 256.219 274.234 256.219 274.524V282.476C256.219 282.766 258.293 283 260.853 283H504.585C507.144 283 509.219 282.766 509.219 282.476V274.524C509.219 274.234 507.144 274 504.585 274Z" fill="#F3EBEB"/>
<path d="M504.585 293H260.853C258.293 293 256.219 293.234 256.219 293.524V301.476C256.219 301.766 258.293 302 260.853 302H504.585C507.144 302 509.219 301.766 509.219 301.476V293.524C509.219 293.234 507.144 293 504.585 293Z" fill="#F3EBEB"/>
<path d="M504.585 312H260.853C258.293 312 256.219 312.234 256.219 312.524V320.476C256.219 320.766 258.293 321 260.853 321H504.585C507.144 321 509.219 320.766 509.219 320.476V312.524C509.219 312.234 507.144 312 504.585 312Z" fill="#F3EBEB"/>
<path d="M293.585 346H49.8525C47.2934 346 45.2188 346.234 45.2188 346.524V354.476C45.2188 354.766 47.2934 355 49.8525 355H293.585C296.144 355 298.219 354.766 298.219 354.476V346.524C298.219 346.234 296.144 346 293.585 346Z" fill="#F3EBEB"/>
<path d="M293.585 365H49.8525C47.2934 365 45.2188 365.234 45.2188 365.524V373.476C45.2188 373.766 47.2934 374 49.8525 374H293.585C296.144 374 298.219 373.766 298.219 373.476V365.524C298.219 365.234 296.144 365 293.585 365Z" fill="#F3EBEB"/>
<path d="M293.585 384H49.8525C47.2934 384 45.2188 384.234 45.2188 384.524V392.476C45.2188 392.766 47.2934 393 49.8525 393H293.585C296.144 393 298.219 392.766 298.219 392.476V384.524C298.219 384.234 296.144 384 293.585 384Z" fill="#F3EBEB"/>
<path d="M45 165.665C45 165.665 56.4917 174.133 61.0252 184.692C61.0252 184.692 71.1691 159.819 89.2192 147.842C89.2192 147.842 73.7744 148.728 61.0252 172.994C61.0252 172.994 53.8671 166.628 45 165.658V165.665Z" fill="#F3EBEB"/>
<defs>
<filter id="filter0_d_2317_3060" x="0" y="0" width="554" height="432" filterUnits="userSpaceOnUse" color-interpolation-filters="sRGB">
<feFlood flood-opacity="0" result="BackgroundImageFix"/>
<feColorMatrix in="SourceAlpha" type="matrix" values="0 0 0 0 0 0 0 0 0 0 0 0 0 0 0 0 0 0 127 0" result="hardAlpha"/>
<feOffset dy="4"/>
<feGaussianBlur stdDeviation="7.5"/>
<feComposite in2="hardAlpha" operator="out"/>
<feColorMatrix type="matrix" values="0 0 0 0 0 0 0 0 0 0 0 0 0 0 0 0 0 0 0.1 0"/>
<feBlend mode="normal" in2="BackgroundImageFix" result="effect1_dropShadow_2317_3060"/>
<feBlend mode="normal" in="SourceGraphic" in2="effect1_dropShadow_2317_3060" result="shape"/>
</filter>
</defs>
</svg>
