<svg width="64" height="64" viewBox="0 0 64 64" fill="none" xmlns="http://www.w3.org/2000/svg">
<path fill-rule="evenodd" clip-rule="evenodd" d="M53.9832 7.68681L58.4414 10.4954V31.6942C58.4414 39.5428 54.9796 46.2953 48.6054 50.8761L31.9981 62.8126L15.3902 50.8761C9.01669 46.2953 5.55469 39.5428 5.55469 31.6942V10.4954L10.0129 7.68681C23.7716 -0.978937 40.2244 -0.978937 53.9832 7.68681ZM37.4251 22.3018L29.3972 30.3299L26.6953 26.9301C26.1059 26.1883 25.0271 26.0653 24.2857 26.6547C23.5443 27.2441 23.4209 28.3232 24.0103 29.0646L27.8423 33.8866C28.4522 34.7598 29.7076 34.8794 30.4676 34.1194L39.8551 24.7317C40.5259 24.0608 40.5259 22.9729 39.8551 22.3018C39.1841 21.6309 38.0962 21.6309 37.4251 22.3018ZM11.6477 13.8548V31.6942C11.6477 37.5868 14.1584 42.4923 18.9443 45.9319L31.9981 55.3138L45.0513 45.9319C49.8374 42.4922 52.3484 37.5872 52.3484 31.6942V13.8548L50.7376 12.8402C44.8536 9.13356 38.4248 7.28031 31.9981 7.28031C25.5711 7.28031 19.1426 9.13356 13.2586 12.8402L11.6477 13.8548ZM9.52269 31.6942C9.52269 38.2569 12.3789 43.8207 17.7076 47.6502L31.3797 57.4766C31.7652 57.7542 32.2744 57.7348 32.6351 57.4632L46.2882 47.6502C51.6168 43.8203 54.4734 38.2571 54.4734 31.6942V13.2718C54.4734 12.8636 54.2432 12.5093 53.9053 12.3314L51.8664 11.0473C45.6309 7.11944 38.8152 5.15531 31.9981 5.15531C25.1809 5.15531 18.3653 7.11944 12.1297 11.0472L10.0208 12.3753C9.70119 12.5764 9.52619 12.9202 9.52594 13.2718L9.52269 31.6942ZM31.9981 14.2124C24.2671 14.2124 18.0001 20.4798 18.0001 28.2107C18.0001 35.9416 24.2671 42.2088 31.9981 42.2088C39.7291 42.2088 45.9961 35.9417 45.9961 28.2108C45.9961 20.4799 39.7291 14.2124 31.9981 14.2124Z" fill="#683EE6"/>
</svg>
