<svg width="627" height="378" viewBox="0 0 627 378" fill="none" xmlns="http://www.w3.org/2000/svg">
<g clip-path="url(#clip0_4269_323352)">
<path d="M378.208 1H9.33711C4.73265 1 1 4.73265 1 9.33711V289.118C1 293.722 4.73265 297.455 9.33711 297.455H378.208C382.812 297.455 386.545 293.722 386.545 289.118V9.33711C386.545 4.73265 382.812 1 378.208 1Z" stroke="#D9D2D2" stroke-width="2"/>
<path d="M22.3134 21.5543C22.3134 23.9772 20.3534 25.9368 17.9301 25.9368C15.5069 25.9368 13.5469 23.9772 13.5469 21.5543C13.5469 19.1315 15.5069 17.1719 17.9301 17.1719C20.3534 17.1719 22.3134 19.1315 22.3134 21.5543Z" fill="#FFC3D0"/>
<path d="M39.8056 21.5543C39.8056 23.9772 37.8456 25.9368 35.4223 25.9368C32.9991 25.9368 31.0391 23.9772 31.0391 21.5543C31.0391 19.1315 32.9991 17.1719 35.4223 17.1719C37.8456 17.1719 39.8056 19.1315 39.8056 21.5543Z" fill="#40484C"/>
<path d="M57.2978 21.5543C57.2978 23.9772 55.3379 25.9368 52.9146 25.9368C50.4913 25.9368 48.5312 23.9772 48.5312 21.5543C48.5312 19.1315 50.4913 17.1719 52.9146 17.1719C55.3379 17.1719 57.2978 19.1315 57.2978 21.5543Z" fill="#6AEBE7"/>
<mask id="mask0_4269_323352" style="mask-type:luminance" maskUnits="userSpaceOnUse" x="30" y="37" width="402" height="341">
<path d="M431.003 37.8828H30.0938V377.542H431.003V37.8828Z" fill="white"/>
</mask>
<g mask="url(#mask0_4269_323352)">
<path d="M59.0385 38.3828H402.045C417.754 38.3828 430.49 51.1403 430.49 66.8794V348.542C430.49 364.281 417.754 377.038 402.045 377.038H59.0385C43.3297 377.038 30.5938 364.281 30.5938 348.542V66.8794C30.5938 51.1403 43.3297 38.3828 59.0385 38.3828Z" fill="#E8E8E8" stroke="#E8E8E8"/>
<path d="M431.005 66.8794V103.434H413.315C408.885 103.434 404.784 101.005 402.688 97.0773L394.516 81.7543C392.42 77.8266 388.319 75.3675 383.889 75.3675H334.439C329.979 75.3675 325.908 77.8266 323.812 81.7543L315.61 97.0773C313.514 101.005 309.443 103.434 304.983 103.434H293.967C289.537 103.434 285.436 101.005 283.34 97.0773L275.168 81.7543C273.072 77.8266 268.971 75.3675 264.541 75.3675H215.091C210.631 75.3675 206.559 77.8266 204.464 81.7543L196.262 97.0773C194.166 101.005 190.095 103.434 185.635 103.434H30.1094V66.8794C30.1094 50.8673 43.0706 37.8828 59.0541 37.8828H402.059C418.042 37.8828 431.003 50.8673 431.003 66.8794H431.005Z" fill="#F9F9F8"/>
<path d="M80.2145 70.1715C80.2145 73.2531 77.7219 75.7457 74.6402 75.7457C71.5586 75.7457 69.0781 73.2531 69.0781 70.1715C69.0781 67.0899 71.5707 64.6094 74.6402 64.6094C77.7098 64.6094 80.2145 67.102 80.2145 70.1715Z" fill="#FFC3D0"/>
<path d="M102.484 70.1715C102.484 73.2531 99.7425 75.7457 96.3527 75.7457C92.9629 75.7457 90.2344 73.2531 90.2344 70.1715C90.2344 67.0899 92.9762 64.6094 96.3527 64.6094C99.7292 64.6094 102.484 67.102 102.484 70.1715Z" fill="#40484C"/>
<path d="M123.644 70.1715C123.644 73.2531 121.152 75.7457 118.07 75.7457C114.988 75.7457 112.508 73.2531 112.508 70.1715C112.508 67.0899 115 64.6094 118.07 64.6094C121.139 64.6094 123.644 67.102 123.644 70.1715Z" fill="#6AEBE7"/>
<path d="M381.919 130.312H78.6225C65.8134 130.312 55.4297 140.534 55.4297 153.143C55.4297 165.751 65.8134 175.972 78.6225 175.972H381.919C394.728 175.972 405.112 165.751 405.112 153.143C405.112 140.534 394.728 130.312 381.919 130.312Z" fill="#C2C2C2"/>
<path d="M120.009 159.857C120.009 160.182 119.886 160.468 119.64 160.714C119.395 160.962 119.103 161.084 118.765 161.084C118.427 161.084 118.09 160.935 117.794 160.64L110.768 154.044V159.752C110.768 160.161 110.644 160.492 110.399 160.746C110.154 161 109.818 161.127 109.396 161.127C108.974 161.127 108.661 161 108.416 160.746C108.171 160.492 108.047 160.161 108.047 159.752V147.343C108.047 146.934 108.171 146.607 108.416 146.361C108.661 146.113 108.989 145.992 109.396 145.992C109.804 145.992 110.154 146.113 110.399 146.361C110.644 146.607 110.768 146.934 110.768 147.343V152.777L117.562 146.392C117.815 146.139 118.103 146.012 118.428 146.012C118.753 146.012 119.037 146.135 119.282 146.381C119.527 146.627 119.65 146.913 119.65 147.238C119.65 147.563 119.509 147.858 119.23 148.126L113.552 153.325L119.586 158.949C119.868 159.218 120.009 159.52 120.009 159.857Z" fill="white"/>
<path d="M123.583 160.657C123.349 160.431 123.234 160.115 123.234 159.706V147.383C123.234 146.974 123.349 146.658 123.583 146.432C123.815 146.206 124.134 146.094 124.543 146.094H132.16C132.568 146.094 132.885 146.184 133.11 146.369C133.335 146.552 133.447 146.813 133.447 147.15C133.447 147.487 133.335 147.775 133.11 147.964C132.885 148.155 132.568 148.249 132.16 148.249H125.892V152.351H131.737C132.145 152.351 132.462 152.444 132.687 152.626C132.912 152.81 133.025 153.077 133.025 153.429C133.025 153.782 132.911 154.028 132.687 154.213C132.462 154.395 132.145 154.486 131.737 154.486H125.892V158.842H132.16C132.568 158.842 132.885 158.937 133.11 159.127C133.335 159.316 133.447 159.588 133.447 159.941C133.447 160.294 133.335 160.54 133.11 160.722C132.885 160.906 132.568 160.998 132.16 160.998H124.543C124.134 160.998 123.815 160.886 123.583 160.659V160.657Z" fill="white"/>
<path d="M147.059 145.992C147.381 145.992 147.671 146.113 147.925 146.361C148.178 146.607 148.305 146.9 148.305 147.238C148.305 147.519 148.2 147.787 147.989 148.04L143.198 153.896V159.752C143.198 160.189 143.072 160.527 142.818 160.767C142.565 161.006 142.241 161.127 141.847 161.127C141.454 161.127 141.109 161.006 140.855 160.767C140.602 160.528 140.475 160.189 140.475 159.752V153.896L135.685 148.04C135.474 147.787 135.367 147.519 135.367 147.238C135.367 146.9 135.494 146.607 135.748 146.361C136.001 146.113 136.289 145.992 136.612 145.992C136.964 145.992 137.266 146.146 137.52 146.456L141.846 151.825L146.151 146.456C146.404 146.146 146.706 145.992 147.058 145.992H147.059Z" fill="white"/>
<path d="M170.774 146.18C170.993 146.038 171.234 145.969 171.502 145.969C171.839 145.969 172.13 146.075 172.377 146.287C172.622 146.497 172.746 146.779 172.746 147.132C172.746 147.259 172.709 147.442 172.64 147.683L168.105 160.261C167.991 160.543 167.805 160.762 167.545 160.917C167.285 161.072 166.999 161.149 166.69 161.149C166.38 161.149 166.092 161.072 165.824 160.917C165.558 160.762 165.375 160.543 165.276 160.261L161.773 150.304L158.206 160.261C158.095 160.543 157.907 160.762 157.649 160.917C157.388 161.072 157.102 161.149 156.793 161.149C156.484 161.149 156.199 161.072 155.937 160.917C155.678 160.762 155.498 160.543 155.4 160.261L150.863 147.683C150.792 147.472 150.758 147.287 150.758 147.132C150.758 146.779 150.887 146.497 151.148 146.287C151.408 146.076 151.714 145.969 152.066 145.969C152.347 145.969 152.601 146.039 152.825 146.18C153.049 146.32 153.211 146.533 153.311 146.815L156.898 157.153L160.59 146.879C160.689 146.597 160.85 146.375 161.076 146.213C161.301 146.049 161.546 145.969 161.815 145.969C162.083 145.969 162.332 146.049 162.563 146.213C162.795 146.375 162.96 146.604 163.059 146.9L166.647 157.279L170.296 146.816C170.395 146.534 170.553 146.323 170.772 146.181L170.774 146.18Z" fill="white"/>
<path d="M178.815 160.26C177.751 159.641 176.932 158.752 176.356 157.597C175.778 156.441 175.492 155.088 175.492 153.537C175.492 151.987 175.776 150.638 176.346 149.489C176.915 148.342 177.735 147.457 178.805 146.836C179.872 146.217 181.131 145.906 182.581 145.906C184.031 145.906 185.286 146.218 186.348 146.836C187.409 147.457 188.225 148.342 188.795 149.489C189.365 150.638 189.651 151.987 189.651 153.537C189.651 155.088 189.363 156.441 188.785 157.597C188.208 158.752 187.389 159.641 186.326 160.26C185.265 160.88 184.016 161.191 182.581 161.191C181.145 161.191 179.876 160.879 178.815 160.26ZM185.778 157.597C186.545 156.652 186.929 155.298 186.929 153.537C186.929 151.776 186.545 150.427 185.778 149.489C185.011 148.551 183.947 148.083 182.581 148.083C181.215 148.083 180.131 148.551 179.362 149.489C178.596 150.427 178.214 151.775 178.214 153.537C178.214 155.299 178.597 156.653 179.362 157.597C180.13 158.542 181.202 159.013 182.581 159.013C183.96 159.013 185.011 158.542 185.778 157.597Z" fill="white"/>
<path d="M205.817 160.024C205.817 160.347 205.687 160.616 205.425 160.827C205.166 161.039 204.86 161.144 204.508 161.144C204.283 161.144 204.068 161.09 203.864 160.985C203.66 160.879 203.488 160.72 203.347 160.509L200.542 156.239C200.26 155.789 199.961 155.471 199.645 155.288C199.327 155.105 198.918 155.012 198.411 155.012H196.342V159.749C196.342 160.172 196.223 160.505 195.985 160.753C195.744 160.999 195.422 161.123 195.013 161.123C194.605 161.123 194.278 160.999 194.033 160.753C193.788 160.505 193.664 160.171 193.664 159.749V147.383C193.664 146.974 193.779 146.658 194.013 146.432C194.245 146.206 194.564 146.094 194.972 146.094H200.248C201.936 146.094 203.219 146.471 204.098 147.224C204.977 147.98 205.417 149.068 205.417 150.49C205.417 151.646 205.091 152.594 204.436 153.334C203.781 154.074 202.856 154.549 201.661 154.76C202.07 154.859 202.428 155.036 202.738 155.288C203.047 155.542 203.35 155.895 203.644 156.345L205.565 159.283C205.735 159.536 205.819 159.784 205.819 160.023L205.817 160.024ZM202.124 152.34C202.603 151.953 202.842 151.358 202.842 150.555C202.842 149.752 202.603 149.142 202.124 148.767C201.647 148.393 200.893 148.209 199.867 148.209H196.321V152.922H199.867C200.892 152.922 201.646 152.727 202.124 152.34Z" fill="white"/>
<path d="M209.935 160.657C209.701 160.431 209.586 160.115 209.586 159.706V147.383C209.586 146.974 209.701 146.658 209.935 146.432C210.167 146.206 210.486 146.094 210.894 146.094H215.072C217.506 146.094 219.395 146.745 220.738 148.049C222.081 149.351 222.754 151.181 222.754 153.533C222.754 155.886 222.081 157.738 220.738 159.04C219.395 160.344 217.506 160.995 215.072 160.995H210.894C210.486 160.995 210.167 160.884 209.935 160.657ZM214.902 158.776C218.322 158.776 220.03 157.029 220.03 153.533C220.03 150.038 218.322 148.312 214.902 148.312H212.308V158.778H214.902V158.776Z" fill="white"/>
<path d="M350.711 254.18H61.5795C58.1831 254.18 55.4297 256.938 55.4297 260.341C55.4297 263.743 58.1831 266.502 61.5795 266.502H350.711C354.108 266.502 356.861 263.743 356.861 260.341C356.861 256.938 354.108 254.18 350.711 254.18Z" fill="#F9F9F8"/>
<path d="M149.776 226.781H61.5795C58.1831 226.781 55.4297 229.539 55.4297 232.941C55.4297 236.344 58.1831 239.102 61.5795 239.102H149.776C153.173 239.102 155.926 236.344 155.926 232.941C155.926 229.539 153.173 226.781 149.776 226.781Z" fill="#F9F9F8"/>
<path d="M399.511 226.781H178.392C174.996 226.781 172.242 229.539 172.242 232.941C172.242 236.344 174.996 239.102 178.392 239.102H399.511C402.907 239.102 405.661 236.344 405.661 232.941C405.661 229.539 402.907 226.781 399.511 226.781Z" fill="#F9F9F8"/>
<path d="M300.646 199.391H176.056C172.66 199.391 169.906 202.149 169.906 205.551C169.906 208.954 172.66 211.712 176.056 211.712H300.646C304.043 211.712 306.796 208.954 306.796 205.551C306.796 202.149 304.043 199.391 300.646 199.391Z" fill="#F2E8E3"/>
<path d="M147.442 199.391H61.5795C58.1831 199.391 55.4297 202.149 55.4297 205.551C55.4297 208.954 58.1831 211.712 61.5795 211.712H147.442C150.838 211.712 153.592 208.954 153.592 205.551C153.592 202.149 150.838 199.391 147.442 199.391Z" fill="#F2E8E3"/>
<path d="M55.4297 348.286C55.4297 351.689 58.1832 354.447 61.5795 354.447H350.709C354.106 354.447 356.859 351.689 356.859 348.286C356.859 344.884 354.106 342.125 350.709 342.125H61.5795C58.1832 342.125 55.4297 344.884 55.4297 348.286Z" fill="#F9F9F8"/>
<path d="M149.776 314.734H61.5795C58.1831 314.734 55.4297 317.492 55.4297 320.895C55.4297 324.297 58.1831 327.056 61.5795 327.056H149.776C153.173 327.056 155.926 324.297 155.926 320.895C155.926 317.492 153.173 314.734 149.776 314.734Z" fill="#F9F9F8"/>
<path d="M399.511 314.734H178.392C174.996 314.734 172.242 317.492 172.242 320.895C172.242 324.297 174.996 327.056 178.392 327.056H399.511C402.907 327.056 405.661 324.297 405.661 320.895C405.661 317.492 402.907 314.734 399.511 314.734Z" fill="#F9F9F8"/>
<path d="M300.646 287.336H176.056C172.66 287.336 169.906 290.094 169.906 293.497C169.906 296.899 172.66 299.658 176.056 299.658H300.646C304.043 299.658 306.796 296.899 306.796 293.497C306.796 290.094 304.043 287.336 300.646 287.336Z" fill="#F2E8E3"/>
<path d="M147.442 287.336H61.5795C58.1831 287.336 55.4297 290.094 55.4297 293.497C55.4297 296.899 58.1831 299.658 61.5795 299.658H147.442C150.838 299.658 153.592 296.899 153.592 293.497C153.592 290.094 150.838 287.336 147.442 287.336Z" fill="#F2E8E3"/>
<path d="M92.002 158.876L89.1697 156.043C89.8394 154.977 90.1742 153.758 90.1742 152.539C90.1742 150.833 89.5045 149.127 88.2252 147.848C85.6366 145.259 81.4038 145.259 78.8162 147.848C77.568 149.097 76.8672 150.773 76.8672 152.571C76.8672 154.368 77.568 156.013 78.8162 157.261C80.0644 158.51 81.7397 159.211 83.5363 159.211C84.7845 159.211 85.9725 158.876 87.0071 158.206L89.8394 161.04C90.1442 161.345 90.5402 161.497 90.9352 161.497C91.3001 161.497 91.6961 161.345 92.0009 161.04C92.6105 160.461 92.6105 159.486 92.0009 158.876H92.002ZM80.9788 155.099C80.2779 154.429 79.913 153.515 79.913 152.571C79.913 151.626 80.2779 150.682 80.9788 150.012C81.6796 149.311 82.5929 148.946 83.5363 148.946C84.4797 148.946 85.3629 149.311 86.0638 150.012C87.4955 151.413 87.4955 153.698 86.0638 155.099C84.7244 156.47 82.3182 156.47 80.9788 155.099Z" fill="white"/>
</g>
<mask id="mask1_4269_323352" style="mask-type:luminance" maskUnits="userSpaceOnUse" x="325" y="98" width="302" height="279">
<path d="M325 98H627V377H325V98Z" fill="white"/>
</mask>
<g mask="url(#mask1_4269_323352)">
<path d="M462.306 120.999C462.306 120.999 445.572 125.85 446.873 108.382C448.043 92.6717 453.537 104.701 455.758 104.004C458.152 103.252 456.178 98.4169 459.265 98.0238C462.306 97.6382 464.643 102.073 467.684 101.299C470.725 100.526 476.784 95.8558 482.648 99.2401C487.56 102.073 487.792 107.868 487.792 107.868C487.792 107.868 493.871 108.382 495.275 117.655C496.677 126.925 484.05 144.18 484.05 144.18L462.304 121.002L462.306 120.999Z" fill="#4ECF7D"/>
<path d="M488.118 136.796L497.042 162.936C497.612 164.607 499.032 165.845 500.762 166.181L504.735 166.955C504.735 166.955 494.404 189.424 476.994 185.662C459.584 181.897 463.412 166.955 463.412 166.955L467.094 166.656C469.298 166.478 470.811 164.35 470.258 162.204L466.119 146.138C466.119 146.138 482.989 132.514 488.12 136.793L488.118 136.796Z" fill="white"/>
<path d="M480.866 186.629C496.102 186.629 505.135 167.396 505.231 167.186C505.301 167.035 505.298 166.86 505.222 166.709C505.145 166.561 505.004 166.454 504.842 166.422L500.868 165.648C499.333 165.349 498.067 164.244 497.561 162.761L488.636 136.621C488.604 136.527 488.545 136.443 488.468 136.379C483.058 131.867 466.482 145.152 465.779 145.718C465.613 145.852 465.539 146.072 465.594 146.28L469.733 162.343C469.955 163.211 469.787 164.126 469.269 164.855C468.75 165.584 467.943 166.044 467.052 166.116L463.37 166.415C463.138 166.435 462.945 166.598 462.886 166.823C462.822 167.077 461.331 173.109 464.715 178.597C467.062 182.402 471.154 184.96 476.88 186.196C478.253 186.493 479.58 186.629 480.866 186.629ZM503.933 167.357C502.099 170.929 492.267 188.409 477.112 185.131C471.69 183.959 467.83 181.566 465.643 178.024C462.96 173.675 463.607 168.835 463.864 167.47L467.141 167.206C468.353 167.107 469.451 166.482 470.157 165.49C470.863 164.499 471.093 163.253 470.789 162.074L466.736 146.351C471.5 142.559 483.685 134.171 487.659 137.128L496.531 163.117C497.163 164.966 498.745 166.348 500.661 166.721L503.933 167.359V167.357Z" fill="#4ECF7D"/>
<path d="M482.03 140.862C482.03 140.862 477.706 150.864 466.383 149.018C455.059 147.171 454.77 132.739 455.782 117.402C457.428 118.203 459.43 118.759 462.323 118.673C467.239 118.524 477.452 116.552 477.931 115.422C476.09 119.755 475.389 124.208 477.687 126.986C478.587 128.198 480.29 129.073 483.297 129.125C483.297 129.125 484.731 124.321 489.003 127.11C493.275 129.898 491.686 141.663 482.03 140.865V140.862Z" fill="white"/>
<path d="M469.09 149.785C477.539 149.785 481.522 143.056 482.364 141.427C486.604 141.65 489.906 139.467 491.244 135.556C492.463 131.994 491.629 128.165 489.307 126.649C487.882 125.72 486.572 125.465 485.412 125.888C483.97 126.417 483.218 127.858 482.926 128.565C480.609 128.466 478.995 127.823 478.128 126.657C475.737 123.764 476.978 119.067 478.437 115.634C478.555 115.357 478.425 115.035 478.148 114.919C477.869 114.8 477.551 114.929 477.435 115.208C476.722 116.027 467.39 117.975 462.31 118.128C459.877 118.207 457.878 117.816 456.024 116.912C455.861 116.833 455.669 116.837 455.513 116.931C455.358 117.023 455.256 117.186 455.244 117.367C454.287 131.91 454.269 147.593 466.301 149.556C467.281 149.716 468.212 149.788 469.093 149.788L469.09 149.785ZM482.035 140.315C481.821 140.315 481.623 140.443 481.537 140.644C481.367 141.037 477.24 150.235 466.477 148.478C455.555 146.695 455.407 132.061 456.281 118.219C458.092 118.968 460.045 119.28 462.347 119.216C465.647 119.114 473.493 117.94 476.877 116.632C475.601 120.15 474.888 124.444 477.277 127.332C478.388 128.825 480.416 129.618 483.297 129.668H483.307C483.546 129.668 483.758 129.509 483.827 129.28C483.832 129.262 484.407 127.418 485.794 126.914C486.614 126.617 487.596 126.835 488.714 127.566C490.6 128.797 491.259 132.155 490.215 135.208C489.637 136.898 487.68 140.792 482.082 140.32C482.068 140.32 482.053 140.32 482.038 140.32L482.035 140.315Z" fill="#4ECF7D"/>
<path d="M484.859 135.268C485.086 135.268 485.296 135.125 485.375 134.9C485.617 134.188 485.868 133.451 486.293 132.86C486.717 132.267 487.302 131.891 487.86 131.854C488.159 131.834 488.386 131.572 488.366 131.273C488.346 130.974 488.09 130.752 487.786 130.766C486.895 130.828 486.029 131.36 485.409 132.225C484.891 132.947 484.602 133.797 484.345 134.549C484.249 134.833 484.4 135.144 484.684 135.241C484.743 135.261 484.802 135.27 484.859 135.27V135.268Z" fill="#4ECF7D"/>
<path d="M511.462 279.232L458.662 272.602L453.617 284.68L494.511 304.627C494.511 304.627 514.764 290.645 511.462 279.229V279.232Z" fill="#2A2A2A"/>
<path d="M524.628 321.42C524.628 321.42 392.866 227.679 352.996 238.623C313.126 249.566 322.12 301.028 345.579 320.879C361.886 334.678 387.708 356.736 460.662 373.759C533.62 390.782 524.626 321.418 524.626 321.418L524.628 321.42Z" fill="white"/>
<path d="M481.776 377.002C494.124 377.002 504.024 373.675 511.344 367.042C528.811 351.208 525.205 321.655 525.168 321.358C525.148 321.207 525.067 321.071 524.943 320.985C524.808 320.888 511.278 311.277 491.905 298.761C491.654 298.6 491.316 298.672 491.153 298.924C490.99 299.176 491.061 299.515 491.316 299.678C509.394 311.358 522.377 320.505 524.117 321.734C524.418 324.535 526.841 351.532 510.611 366.239C499.764 376.068 483.003 378.421 460.788 373.24C388.297 356.326 362.939 334.868 346.159 320.666L345.932 320.473C331.355 308.137 323.094 284.128 327.127 265.81C329.213 256.337 335.418 244.024 353.141 239.158C368.305 234.995 398.567 245.524 443.081 270.453C443.343 270.599 443.676 270.505 443.822 270.243C443.967 269.98 443.874 269.647 443.612 269.501C398.841 244.429 368.305 233.866 352.855 238.108C334.608 243.116 328.216 255.81 326.066 265.578C324.025 274.846 324.936 285.705 328.625 296.157C332.229 306.365 338.128 315.296 345.231 321.306L345.458 321.499C362.317 335.765 387.796 357.329 460.541 374.3C468.268 376.102 475.354 377.005 481.776 377.005V377.002Z" fill="#4ECF7D"/>
<path d="M410.185 357.547C410.402 357.547 410.605 357.418 410.691 357.203C417.357 340.511 447.728 308.026 448.034 307.699C448.238 307.479 448.229 307.136 448.009 306.928C447.789 306.723 447.446 306.733 447.239 306.953C446.93 307.279 416.422 339.918 409.679 356.8C409.568 357.079 409.704 357.396 409.983 357.51C410.049 357.537 410.119 357.549 410.185 357.549V357.547Z" fill="#4ECF7D"/>
<path d="M495.947 334.356C496.103 334.356 496.256 334.29 496.364 334.161C496.557 333.931 496.527 333.588 496.298 333.392C476.113 316.434 384.853 267.239 383.932 266.745C383.668 266.601 383.337 266.703 383.194 266.967C383.051 267.232 383.152 267.563 383.416 267.706C384.334 268.201 475.499 317.341 495.597 334.228C495.698 334.312 495.824 334.354 495.947 334.354V334.356Z" fill="#4ECF7D"/>
<path d="M412.816 369.644C411.799 370.89 411.587 372.613 412.275 374.069C412.964 375.525 414.427 376.455 416.034 376.455H529.886C541.678 376.455 553.031 371.985 561.665 363.936C573.921 352.51 592.4 335.102 607.984 319.671C625.651 302.176 631.219 275.843 622.183 252.663C622.05 252.319 621.914 251.975 621.778 251.632C614.127 232.159 590.292 225.012 573.272 237.14C538.963 261.584 484.643 301.753 463.108 325.75C463.108 325.75 426.324 353.099 412.813 369.647L412.816 369.644Z" fill="white"/>
<path d="M416.03 376.997H529.881C541.854 376.997 553.271 372.498 562.031 364.333C574.633 352.583 592.902 335.365 608.362 320.055C626.189 302.399 631.812 275.869 622.685 252.461L622.28 251.427C618.563 241.969 610.86 234.887 601.143 231.994C591.458 229.114 581.183 230.825 572.95 236.691C557.546 247.665 534.743 264.22 513.57 280.778C513.333 280.964 513.291 281.305 513.476 281.545C513.661 281.782 514.004 281.824 514.241 281.639C535.397 265.096 558.188 248.55 573.582 237.581C581.539 231.913 591.47 230.256 600.832 233.042C610.223 235.838 617.672 242.686 621.265 251.83L621.668 252.861C630.637 275.864 625.111 301.935 607.595 319.284C592.144 334.583 573.885 351.794 561.288 363.537C552.728 371.517 541.575 375.909 529.879 375.909H416.027C414.638 375.909 413.354 375.096 412.76 373.835C412.165 372.577 412.35 371.067 413.229 369.989C426.542 353.683 463.06 326.458 463.425 326.183C463.455 326.161 463.482 326.136 463.506 326.109C469.78 319.118 479.352 310.209 491.956 299.631C492.186 299.438 492.218 299.094 492.023 298.862C491.83 298.632 491.487 298.6 491.255 298.795C478.636 309.388 469.04 318.317 462.731 325.34C461.26 326.438 425.572 353.146 412.385 369.297C411.239 370.698 411 372.664 411.775 374.3C412.55 375.939 414.218 376.997 416.027 376.997H416.03Z" fill="#4ECF7D"/>
<path d="M507.857 376.996C507.951 376.996 508.045 376.971 508.134 376.922C535.732 360.658 567.309 332.508 588.584 305.207C591.44 301.541 594.374 297.585 596.109 293.108C596.218 292.826 596.08 292.512 595.798 292.404C595.52 292.295 595.204 292.433 595.095 292.715C593.414 297.054 590.531 300.935 587.725 304.537C566.529 331.74 535.071 359.785 507.581 375.983C507.322 376.136 507.235 376.47 507.388 376.729C507.49 376.902 507.672 376.999 507.857 376.999V376.996Z" fill="#4ECF7D"/>
<path d="M513.629 367.881C513.755 367.881 513.883 367.836 513.987 367.747C514.214 367.549 514.236 367.206 514.038 366.978C499.797 350.613 483.31 336.401 465.037 324.733C464.782 324.572 464.447 324.646 464.284 324.901C464.123 325.155 464.197 325.492 464.449 325.655C482.637 337.264 499.045 351.409 513.217 367.695C513.325 367.819 513.476 367.883 513.626 367.883L513.629 367.881Z" fill="#4ECF7D"/>
<path d="M527.808 355.396C527.944 355.396 528.082 355.345 528.188 355.243C528.403 355.033 528.408 354.689 528.2 354.472C513.384 339.199 497.083 325.202 479.751 312.867C479.507 312.691 479.167 312.75 478.991 312.995C478.816 313.24 478.875 313.581 479.12 313.757C496.399 326.053 512.649 340.008 527.418 355.231C527.524 355.34 527.667 355.396 527.808 355.396Z" fill="#4ECF7D"/>
<path d="M426.132 178.837C431.283 171.866 439.153 167.436 447.772 166.64C452.681 166.187 458.837 165.705 465.7 165.352C466.078 166.59 466.606 167.789 467.292 168.919C469.282 172.199 472.399 174.726 475.871 176.293C479.347 177.863 483.236 178.572 487.032 178.113C490.752 177.663 494.289 176.076 496.858 173.302C498.953 171.04 501.466 168.308 502.11 165.344C508.337 165.698 513.246 166.214 519.093 167.131C530.251 168.882 540.05 175.532 545.951 185.178C556.769 202.856 575.499 234.291 576.501 259.58C578.115 300.34 512.054 283.048 512.054 283.048L437.855 276.22L394.871 242.894C394.871 242.894 408.25 203.026 426.132 178.829V178.837Z" fill="#2A2A2A"/>
<path d="M511.206 274.812C511.714 278.246 508.244 280.896 505.078 279.492C498.604 276.619 491.589 275.168 484.508 275.24L453.879 275.546C453.879 275.546 451.488 236.005 494.791 240.784C494.791 240.784 507.857 252.173 511.206 274.812Z" fill="white"/>
<path d="M476.441 276.244C476.468 276.244 476.493 276.244 476.52 276.239C476.819 276.197 477.024 275.92 476.979 275.621C476.666 273.463 477.172 271.062 478.406 268.86C479.447 267 480.99 265.248 483.125 263.495C483.522 263.169 483.949 262.833 484.421 262.625C484.697 262.504 484.823 262.182 484.702 261.906C484.581 261.631 484.26 261.503 483.986 261.624C483.387 261.886 482.871 262.291 482.436 262.647C480.195 264.486 478.566 266.343 477.458 268.321C476.106 270.733 475.553 273.378 475.903 275.774C475.943 276.046 476.175 276.241 476.441 276.241V276.244Z" fill="#4ECF7D"/>
<path d="M466.538 275.674C466.805 275.674 467.037 275.478 467.076 275.204C467.446 272.594 467.977 269.541 469.112 266.69C470.28 263.758 471.993 261.365 474.061 259.773C474.3 259.59 474.345 259.247 474.162 259.009C473.979 258.772 473.636 258.725 473.399 258.911C471.173 260.621 469.342 263.172 468.1 266.287C466.923 269.244 466.378 272.376 465.998 275.051C465.956 275.35 466.163 275.624 466.462 275.666C466.486 275.671 466.513 275.671 466.538 275.671V275.674Z" fill="#4ECF7D"/>
<path d="M458.607 275.677C458.63 275.677 458.652 275.677 458.671 275.674C458.97 275.64 459.182 275.368 459.148 275.069C457.825 263.972 465.066 257.077 465.14 257.008C465.36 256.802 465.372 256.456 465.168 256.236C464.963 256.016 464.617 256.004 464.397 256.209C464.082 256.503 456.677 263.556 458.064 275.197C458.096 275.474 458.333 275.677 458.605 275.677H458.607Z" fill="#4ECF7D"/>
<path d="M379.088 281.543H490.812C491.474 281.543 492.135 281.373 492.681 280.997C493.959 280.117 494.401 278.542 493.897 277.188C492.579 274.419 489.857 273.445 485.832 273.445H371.758L373.239 277.477C374.152 279.922 376.485 281.543 379.088 281.543Z" fill="#4ECF7D"/>
<path d="M378.454 281.545C376.22 281.545 374.211 280.181 373.384 278.102L353.605 228.368C353.079 227.048 353.242 225.555 354.037 224.378C354.831 223.202 356.157 222.5 357.576 222.5H426.241C430.378 222.5 434.067 225.113 435.45 229.018L454.015 281.545H378.454Z" fill="#4ECF7D"/>
<path d="M391.952 247.104C390.448 245.597 390.448 243.153 391.952 241.646C393.457 240.139 395.896 240.139 397.401 241.646C398.905 243.153 398.905 245.597 397.401 247.104C395.896 248.611 393.457 248.611 391.952 247.104Z" fill="#2A2A2A"/>
<path d="M546.989 242.048C547.285 242.048 547.527 241.81 547.532 241.514C547.537 241.212 547.298 240.965 546.999 240.958L497.047 240.008C496.741 240.016 496.499 240.243 496.492 240.542C496.487 240.844 496.726 241.091 497.025 241.098L546.977 242.048H546.987H546.989Z" fill="#4ECF7D"/>
<path d="M530.306 239.209C530.358 239.209 530.41 239.202 530.464 239.187C530.753 239.101 530.916 238.797 530.829 238.507C529.005 232.426 526.49 226.545 523.356 221.027C522.685 219.848 521.594 218.286 519.933 218.345C519.632 218.355 519.397 218.607 519.407 218.909C519.417 219.21 519.664 219.46 519.97 219.435C520.814 219.415 521.569 220.085 522.411 221.569C525.506 227.015 527.989 232.819 529.788 238.824C529.859 239.061 530.074 239.212 530.309 239.212L530.306 239.209Z" fill="#4ECF7D"/>
</g>
</g>
<defs>
<clipPath id="clip0_4269_323352">
<rect width="627" height="378" fill="white"/>
</clipPath>
</defs>
</svg>
