<svg width="63" height="48" viewBox="0 0 63 48" fill="none" xmlns="http://www.w3.org/2000/svg">
<path d="M0 8.625C0 4.31836 3.44531 0.75 7.875 0.75H55.125C59.4316 0.75 63 4.31836 63 8.625V40.125C63 44.5547 59.4316 48 55.125 48H7.875C3.44531 48 0 44.5547 0 40.125V8.625ZM5.90625 8.625V11.4551L27.0703 28.8047C29.6543 30.8965 33.2227 30.8965 35.8066 28.8047L57.0938 11.4551V8.625C57.0938 7.64062 56.1094 6.65625 55.125 6.65625H7.875C6.76758 6.65625 5.90625 7.64062 5.90625 8.625ZM5.90625 19.084V40.125C5.90625 41.2324 6.76758 42.0938 7.875 42.0938H55.125C56.1094 42.0938 57.0938 41.2324 57.0938 40.125V19.084L39.6211 33.3574C34.8223 37.2949 28.0547 37.2949 23.2559 33.3574L5.90625 19.084Z" fill="#2073B5"/>
</svg>
