<svg width="447" height="378" viewBox="0 0 447 378" fill="none" xmlns="http://www.w3.org/2000/svg">
<g clip-path="url(#clip0_3468_6387)">
<path d="M101.131 359.563C101.131 359.563 101.783 370.078 103.817 370.229C104.088 370.249 114.135 370.249 114.135 370.249L126.961 370.175C126.961 370.175 126.877 367.084 123.128 366.431C119.379 365.778 113.104 363.143 110.833 358.188C108.444 352.975 101.131 359.563 101.131 359.563Z" fill="#FFD092"/>
<path d="M96.5091 236.853C96.5091 236.853 102.097 238.288 105.649 237.218C109.201 236.148 115.314 237.905 116.298 239.2C117.283 240.495 116.921 241.01 115.164 241.457C113.408 241.904 107.184 244.559 103.094 243.022C99.0032 241.486 93.668 241.43 93.668 241.43L96.5091 236.853Z" fill="white"/>
<path d="M48.2188 188.314C48.2188 188.314 54.4959 232.926 64.8895 236.922C70.0182 238.894 92.6836 243.363 99.3881 243.812C99.3881 243.812 101.031 242.48 100.63 237.056C100.63 237.056 76.8837 228.338 73.5103 223.597C68.4895 216.541 76.6272 194.771 70.3271 188.144C64.0268 181.517 53.4162 178.669 48.2188 188.314Z" fill="#FF8422"/>
<path d="M49.0199 360.21V350.483H33.7062C33.2926 350.483 32.9547 350.145 32.9547 349.732V348.173C32.9547 347.76 33.2926 347.422 33.7062 347.422H49.0199V292.051C49.0199 290.498 50.291 289.227 51.8447 289.227H54.8751C56.4289 289.227 57.7 290.498 57.7 292.051V347.422H73.0137C73.427 347.422 73.7654 347.76 73.7654 348.173V349.732C73.7654 350.145 73.427 350.483 73.0137 350.483H57.7V360.21C68.78 361.047 77.6572 365.036 80.1476 370.19H26.5723C29.0626 365.036 37.9398 361.047 49.0199 360.21Z" fill="#F2E6DC"/>
<path d="M50.3344 282.304C52.1653 285.41 54.283 288.32 56.4659 291.077C63.2122 299.594 70.5559 306.616 71.8352 313.254C72.0894 314.576 72.4933 316.001 73.0212 317.502C73.5553 319.023 74.2157 320.621 74.9782 322.274C77.8409 328.493 82.1222 335.461 86.3968 341.794C93.786 352.744 100.734 361.88 100.734 361.88L113.477 361.337C112.967 360.06 107.409 344.942 99.9741 326.466C96.9549 318.966 93.7446 310.988 90.6473 303.295C90.2346 302.267 89.822 301.244 89.4137 300.23C88.4667 297.876 87.5347 295.558 86.6247 293.301C79.6436 275.953 74.0834 262.139 74.0834 262.139C74.0834 262.139 46.1814 251.569 43.2839 258.418C40.8945 264.065 42.8407 269.598 50.3344 282.304Z" fill="#171A2D"/>
<path d="M71.6244 329.523C71.6244 329.523 62.7612 335.219 63.6213 337.068C63.7356 337.315 68.6338 346.087 68.6338 346.087L74.9514 357.25C74.9514 357.25 77.6089 355.67 76.3517 352.078C75.0944 348.486 74.3356 341.722 77.5551 337.324C80.9416 332.696 71.6244 329.523 71.6244 329.523Z" fill="#FFD092"/>
<path d="M83.617 257.122C83.617 257.122 118.639 278.938 122.549 293.598C126.458 308.259 75.9607 339.535 75.9607 339.535C75.9607 339.535 70.4222 334.648 69.4449 331.064C69.4449 331.064 92.2704 303.717 97.222 297.587C100.263 293.823 52.26 284.555 46.396 275.433C40.5318 266.31 42.6311 258.635 42.6311 258.635L83.617 257.122Z" fill="#2D3250"/>
<path d="M17.5206 285.136H89.1983C90.6318 285.136 91.8046 286.309 91.8046 287.742V302.078C91.8046 303.511 90.6318 304.684 89.1983 304.684H17.5206C16.0871 304.684 14.9141 303.511 14.9141 302.078V287.742C14.9141 286.309 16.0869 285.136 17.5206 285.136Z" fill="#2D3250"/>
<path d="M67.4211 180.667C70.861 182.797 72.7563 185.502 72.7563 185.502C64.366 187.672 50.457 179.897 50.457 179.897C50.457 179.897 55.8576 176.269 57.8585 168.295C57.9597 167.893 58.0521 167.48 58.1333 167.058C58.3956 165.715 58.5584 164.262 58.5876 162.692L62.442 166.145L68.8509 171.887C68.8509 171.887 68.7055 174.269 67.9037 178.367C67.7643 179.083 67.6044 179.85 67.4211 180.667Z" fill="white"/>
<path d="M41.6134 220.249C42.8152 236.413 40.7938 260.987 42.1571 265.244C43.3339 268.918 57.1806 266.744 62.5319 265.517C64.5125 265.063 66.9118 264.415 69.3895 263.648C76.3008 261.508 83.8317 258.452 84.6398 256.184C84.6711 256.095 84.6977 256.007 84.7143 255.923C84.7888 255.593 84.7723 255.285 84.6998 254.972C84.4302 253.816 83.3924 252.564 83.2702 249.701C83.1334 246.504 83.1541 242.74 83.034 238.692C83.0278 238.236 83.0216 237.739 82.9719 237.285L82.9696 237.119C82.9676 237.032 82.9655 236.947 82.9636 236.86C82.8475 232.346 82.6115 227.599 82.3378 222.892C82.1637 219.936 81.9628 217.008 81.7308 214.203C81.1279 206.963 80.3157 200.523 79.2406 196.452C77.4835 189.816 73.6096 185.488 70.083 182.317L67.5326 180.129C64.6862 180.75 61.3215 180.338 58.2782 178.896C54.9842 177.332 53.8467 176.211 53.2728 176.634C45.6658 182.503 40.1942 200.488 41.6134 220.249Z" fill="#FFA054"/>
<path d="M69.3506 263.68C76.2619 261.54 83.7928 258.484 84.6008 256.215C84.6321 256.126 84.6588 256.039 84.6754 255.954C84.6712 255.637 84.6673 255.32 84.6609 255.003C84.3915 253.847 83.3535 252.596 83.2313 249.733C83.0945 246.536 83.1152 242.771 82.9951 238.723C82.9889 238.268 82.9827 237.77 82.9328 237.317L82.9307 237.151C82.9286 237.064 82.9266 236.979 82.9247 236.892L56.8182 225.052C56.8182 225.052 55.3142 246.093 69.3506 263.68Z" fill="#FF8422"/>
<path d="M68.8517 171.886C68.8517 171.886 68.7064 174.269 67.9045 178.367C61.6465 176.345 58.8072 170.692 57.8593 168.294C57.5897 167.617 57.4727 167.198 57.4727 167.198C57.4727 167.198 57.7156 167.146 58.1342 167.058C59.0138 166.87 60.6703 166.519 62.4426 166.145L68.8517 171.886Z" fill="#F2E6DC"/>
<path d="M71.3846 171.824C71.3846 171.824 57.6354 173.374 56.8014 164.797C55.9676 156.22 53.6313 150.644 62.3746 149.291C71.118 147.938 73.1444 151.045 74.1192 153.84C75.0935 156.635 74.9397 171.199 71.3846 171.824Z" fill="white"/>
<path d="M56.8611 165.389C56.8611 165.389 57.7329 154.004 70.2485 152.825C78.8211 152.017 74.0416 144.639 73.1278 143.462C73.1278 143.462 66.5597 144.362 59.8276 145.475C45.6971 147.809 55.4734 163.617 56.8611 165.389Z" fill="#2D3250"/>
<path d="M123.394 248.029L124.598 248.42L134.837 216.904L133.633 216.513L123.394 248.029Z" fill="#2D3250"/>
<path d="M89.8597 247.661L124.625 248.405L124.67 246.325L89.9042 245.581L89.8597 247.661Z" fill="#2D3250"/>
<path d="M93.633 243.711C93.633 243.711 99.0285 245.753 102.677 245.081C106.325 244.409 112.207 246.83 113.043 248.226C113.878 249.622 113.463 250.093 111.667 250.344C109.872 250.595 103.393 252.547 99.4972 250.569C95.601 248.591 90.3047 247.947 90.3047 247.947L93.633 243.711Z" fill="white"/>
<path d="M50.9883 190.145C50.9883 190.145 52.3086 235.177 62.1985 240.295C67.0783 242.82 89.113 249.761 95.7271 250.946C95.7271 250.946 97.5065 249.803 97.7066 244.369C97.7066 244.369 75.0658 233.086 72.2357 228.001C68.0234 220.435 78.5117 199.695 72.9805 192.413C67.4495 185.132 57.2173 181.131 50.9883 190.145Z" fill="#FFA054"/>
<path d="M177.008 297.701H356.413C368.933 297.701 379.083 287.551 379.083 275.031V29.7331C379.083 17.2129 368.933 7.06348 356.413 7.06348H177.008C164.488 7.06348 154.338 17.2131 154.338 29.7331V275.031C154.338 287.551 164.488 297.701 177.008 297.701Z" fill="#F2E6DC"/>
<path d="M176.421 268.281H357.367V37.5231L176.421 37.5231L176.421 268.281Z" fill="white"/>
<path d="M331.707 258.153C326.435 258.153 322.16 253.878 322.16 248.605V116.609C322.16 111.336 326.435 107.062 331.707 107.062C336.98 107.062 341.254 111.336 341.254 116.609V248.605C341.254 253.878 336.98 258.153 331.707 258.153Z" fill="#FFA054"/>
<path d="M300.426 258.152C295.153 258.152 290.879 253.878 290.879 248.605V74.4933C290.879 69.2207 295.153 64.9463 300.426 64.9463C305.699 64.9463 309.973 69.2207 309.973 74.4933V248.605C309.973 253.878 305.699 258.152 300.426 258.152Z" fill="#FFA054"/>
<path d="M266.293 258.152C261.02 258.152 256.746 253.878 256.746 248.605V153.147C256.746 147.874 261.02 143.6 266.293 143.6C271.566 143.6 275.84 147.874 275.84 153.147V248.605C275.84 253.878 271.566 258.152 266.293 258.152Z" fill="#FFA054"/>
<path d="M233.08 258.152C227.808 258.152 223.533 253.877 223.533 248.605V100.287C223.533 95.0146 227.808 90.7402 233.08 90.7402C238.353 90.7402 242.627 95.0146 242.627 100.287V248.605C242.627 253.877 238.353 258.152 233.08 258.152Z" fill="#FFA054"/>
<path d="M209.24 175.568V248.605C209.24 253.878 204.966 258.152 199.693 258.152C194.421 258.152 190.146 253.878 190.146 248.605V175.568C190.146 170.295 194.421 166.021 199.693 166.021C204.966 166.021 209.24 170.295 209.24 175.568Z" fill="#FFA054"/>
<path d="M224.439 78.915H240.609C241.529 78.915 242.281 79.6679 242.281 80.5879C242.281 81.508 241.529 82.2606 240.609 82.2606H224.439C223.518 82.2606 222.766 81.508 222.766 80.5879C222.766 79.6679 223.518 78.915 224.439 78.915Z" fill="#F2E6DC"/>
<path d="M236.927 85.002H240.61C241.53 85.002 242.282 85.7546 242.282 86.6746C242.282 87.5947 241.53 88.3473 240.61 88.3473H236.927C236.007 88.3473 235.254 87.5947 235.254 86.6746C235.254 85.7546 236.007 85.002 236.927 85.002Z" fill="#F2E6DC"/>
<path d="M291.071 53.2402H307.241C308.161 53.2402 308.914 53.9928 308.914 54.9129C308.914 55.833 308.161 56.5856 307.241 56.5856H291.071C290.151 56.5856 289.398 55.833 289.398 54.9129C289.398 53.9928 290.151 53.2402 291.071 53.2402Z" fill="#F2E6DC"/>
<path d="M303.56 59.3271H307.242C308.162 59.3271 308.915 60.0798 308.915 60.9998C308.915 61.9199 308.162 62.6725 307.242 62.6725H303.56C302.64 62.6725 301.887 61.9199 301.887 60.9998C301.887 60.0798 302.64 59.3271 303.56 59.3271Z" fill="#F2E6DC"/>
<path d="M323.413 95.3271H339.583C340.503 95.3271 341.256 96.08 341.256 97.0001C341.256 97.9201 340.503 98.6727 339.583 98.6727H323.413C322.493 98.6727 321.74 97.9201 321.74 97.0001C321.74 96.08 322.493 95.3271 323.413 95.3271Z" fill="#F2E6DC"/>
<path d="M335.899 101.415H339.582C340.502 101.415 341.255 102.168 341.255 103.088C341.255 104.008 340.502 104.76 339.582 104.76H335.899C334.979 104.76 334.227 104.008 334.227 103.088C334.226 102.168 334.979 101.415 335.899 101.415Z" fill="#F2E6DC"/>
<path d="M258.208 131.883H274.378C275.298 131.883 276.051 132.635 276.051 133.555C276.051 134.476 275.298 135.228 274.378 135.228H258.208C257.288 135.228 256.535 134.476 256.535 133.555C256.535 132.635 257.288 131.883 258.208 131.883Z" fill="#F2E6DC"/>
<path d="M270.696 137.97H274.379C275.299 137.97 276.052 138.723 276.052 139.643C276.052 140.563 275.299 141.315 274.379 141.315H270.696C269.776 141.315 269.023 140.563 269.023 139.643C269.023 138.722 269.776 137.97 270.696 137.97Z" fill="#F2E6DC"/>
<path d="M191.608 154.235H207.779C208.699 154.235 209.451 154.988 209.451 155.908C209.451 156.828 208.699 157.581 207.779 157.581H191.608C190.688 157.581 189.936 156.828 189.936 155.908C189.936 154.988 190.688 154.235 191.608 154.235Z" fill="#F2E6DC"/>
<path d="M204.096 160.323H207.78C208.699 160.323 209.452 161.076 209.452 161.996C209.452 162.916 208.699 163.669 207.78 163.669H204.096C203.176 163.669 202.424 162.916 202.424 161.996C202.424 161.076 203.176 160.323 204.096 160.323Z" fill="#F2E6DC"/>
<path d="M199.692 149.478C196.415 149.478 193.75 146.812 193.75 143.536C193.75 140.259 196.416 137.594 199.692 137.594C202.968 137.594 205.634 140.259 205.634 143.536C205.634 146.812 202.968 149.478 199.692 149.478ZM199.692 139.894C197.684 139.894 196.05 141.528 196.05 143.536C196.05 145.544 197.684 147.178 199.692 147.178C201.7 147.178 203.334 145.544 203.334 143.536C203.334 141.528 201.7 139.894 199.692 139.894Z" fill="#2D3250"/>
<path d="M197.163 139.894C196.868 139.894 196.574 139.782 196.349 139.557L178.492 121.701H33.4216C32.7863 121.701 32.2715 121.186 32.2715 120.55C32.2715 119.915 32.7863 119.4 33.4216 119.4H179.445L197.975 137.931C198.425 138.38 198.425 139.108 197.975 139.557C197.751 139.782 197.457 139.894 197.163 139.894Z" fill="#2D3250"/>
<path d="M233.866 274.773C230.589 274.773 227.924 272.107 227.924 268.831C227.924 265.554 230.589 262.889 233.866 262.889C237.142 262.889 239.808 265.554 239.808 268.831C239.808 272.107 237.142 274.773 233.866 274.773ZM233.866 265.189C231.858 265.189 230.224 266.823 230.224 268.831C230.224 270.839 231.858 272.472 233.866 272.472C235.874 272.472 237.508 270.839 237.508 268.831C237.508 266.823 235.874 265.189 233.866 265.189Z" fill="#2D3250"/>
<path d="M397.837 292.966H254.113L235.583 274.436C235.134 273.987 235.134 273.259 235.583 272.809C236.032 272.36 236.76 272.36 237.209 272.809L255.066 290.666H397.837C398.472 290.666 398.987 291.181 398.987 291.816C398.987 292.452 398.472 292.966 397.837 292.966Z" fill="#2D3250"/>
<path d="M299.593 48.6418C296.316 48.6418 293.65 45.9761 293.65 42.6998C293.65 39.4232 296.316 36.7578 299.593 36.7578C302.869 36.7578 305.535 39.4235 305.535 42.6998C305.535 45.9761 302.869 48.6418 299.593 48.6418ZM299.593 39.0577C297.585 39.0577 295.951 40.6915 295.951 42.6996C295.951 44.7076 297.585 46.3414 299.593 46.3414C301.601 46.3414 303.234 44.7076 303.234 42.6996C303.234 40.6915 301.601 39.0577 299.593 39.0577Z" fill="#2D3250"/>
<path d="M297.063 39.0581C296.769 39.0581 296.474 38.9459 296.25 38.7214L278.393 20.8646H133.322C132.687 20.8646 132.172 20.3496 132.172 19.7145C132.172 19.0795 132.687 18.5645 133.322 18.5645H279.345L297.876 37.0947C298.325 37.5439 298.325 38.2721 297.876 38.7211C297.652 38.9459 297.357 39.0581 297.063 39.0581Z" fill="#2D3250"/>
<path d="M130.377 116.739H35.0718C33.4628 116.739 32.1582 115.435 32.1582 113.826C32.1582 112.217 33.4626 110.912 35.0718 110.912H130.377C131.986 110.912 133.29 112.217 133.29 113.826C133.29 115.435 131.986 116.739 130.377 116.739Z" fill="#EFBC73"/>
<path d="M130.375 107.539H71.8726C70.2636 107.539 68.959 106.235 68.959 104.626C68.959 103.016 70.2634 101.712 71.8726 101.712H130.375C131.984 101.712 133.289 103.016 133.289 104.626C133.288 106.235 131.984 107.539 130.375 107.539Z" fill="#EFBC73"/>
<path d="M130.375 98.3389H71.8726C70.2636 98.3389 68.959 97.0345 68.959 95.4253C68.959 93.8161 70.2634 92.5117 71.8726 92.5117H130.375C131.984 92.5117 133.289 93.8161 133.289 95.4253C133.288 97.0345 131.984 98.3389 130.375 98.3389Z" fill="#EFBC73"/>
<path d="M229.611 15.3077H134.306C132.697 15.3077 131.393 14.0033 131.393 12.3941C131.393 10.7849 132.697 9.48047 134.306 9.48047H229.611C231.22 9.48047 232.524 10.7849 232.524 12.3941C232.524 14.0033 231.22 15.3077 229.611 15.3077Z" fill="#EFBC73"/>
<path d="M314.814 336.422C322.913 328.323 322.913 315.191 314.814 307.092C306.714 298.992 293.583 298.992 285.483 307.092C277.384 315.191 277.384 328.323 285.483 336.422C293.583 344.521 306.714 344.521 314.814 336.422Z" fill="#C1AEAE"/>
<path d="M300.155 304.224C309.839 304.224 317.687 312.074 317.687 321.756C317.687 326.548 315.766 330.889 312.65 334.053L300.155 321.756L283.773 328.009C283.032 326.067 282.625 323.959 282.625 321.756C282.625 312.074 290.473 304.224 300.155 304.224Z" fill="white"/>
<path d="M302.717 312.856H310.179C310.472 312.856 310.712 313.096 310.712 313.39C310.712 313.683 310.472 313.922 310.179 313.922H302.717C302.424 313.922 302.184 313.683 302.184 313.39C302.184 313.096 302.424 312.856 302.717 312.856Z" fill="#C1AEAE"/>
<path d="M302.717 314.544H310.179C310.472 314.544 310.712 314.784 310.712 315.077C310.712 315.37 310.472 315.61 310.179 315.61H302.717C302.424 315.61 302.184 315.37 302.184 315.077C302.184 314.784 302.424 314.544 302.717 314.544Z" fill="#C1AEAE"/>
<path d="M307.097 316.232H310.179C310.472 316.232 310.712 316.472 310.712 316.765C310.712 317.058 310.472 317.298 310.179 317.298H307.097C306.804 317.298 306.564 317.058 306.564 316.765C306.564 316.472 306.804 316.232 307.097 316.232Z" fill="#C1AEAE"/>
<path d="M281.992 312.023L290.196 303.819H281.992V312.023Z" fill="#C1AEAE"/>
<path d="M390.916 322.763C391.486 311.322 382.674 301.586 371.234 301.015C359.793 300.445 350.056 309.257 349.486 320.697C348.916 332.138 357.728 341.875 369.168 342.445C380.609 343.015 390.345 334.203 390.916 322.763Z" fill="#C1AEAE"/>
<path d="M352.662 321.756C352.662 312.074 360.51 304.224 370.192 304.224C379.876 304.224 387.725 312.074 387.725 321.756C387.725 331.438 379.876 339.288 370.192 339.288C366.192 339.288 362.508 337.95 359.56 335.695L370.192 321.756L353.81 328.009C353.069 326.067 352.662 323.959 352.662 321.756Z" fill="white"/>
<path d="M372.896 312.856H380.359C380.652 312.856 380.892 313.096 380.892 313.39C380.892 313.683 380.652 313.922 380.359 313.922H372.896C372.603 313.922 372.363 313.683 372.363 313.39C372.363 313.096 372.603 312.856 372.896 312.856Z" fill="#C1AEAE"/>
<path d="M372.896 314.544H380.359C380.652 314.544 380.892 314.784 380.892 315.077C380.892 315.37 380.652 315.61 380.359 315.61H372.896C372.603 315.61 372.363 315.37 372.363 315.077C372.363 314.784 372.603 314.544 372.896 314.544Z" fill="#C1AEAE"/>
<path d="M377.277 316.232H380.359C380.652 316.232 380.892 316.472 380.892 316.765C380.892 317.058 380.652 317.298 380.359 317.298H377.277C376.984 317.298 376.744 317.058 376.744 316.765C376.744 316.472 376.984 316.232 377.277 316.232Z" fill="#C1AEAE"/>
<path d="M352.146 312.023L360.35 303.819H352.146V312.023Z" fill="#C1AEAE"/>
<path d="M446.121 370.937H-33.3728C-33.7509 370.937 -34.0605 370.627 -34.0605 370.249C-34.0605 369.871 -33.7509 369.562 -33.3728 369.562H446.121C446.499 369.562 446.809 369.871 446.809 370.249C446.809 370.627 446.499 370.937 446.121 370.937Z" fill="#202F4E"/>
</g>
<defs>
<clipPath id="clip0_3468_6387">
<rect width="447" height="378" fill="white"/>
</clipPath>
</defs>
</svg>
