<svg width="627" height="378" viewBox="0 0 627 378" fill="none" xmlns="http://www.w3.org/2000/svg">
<rect x="1" y="1" width="385.545" height="296.455" rx="8.33711" stroke="#D9D2D2" stroke-width="2"/>
<path d="M22.3134 21.5567C22.3134 23.9796 20.3534 25.9392 17.9301 25.9392C15.5069 25.9392 13.5469 23.9796 13.5469 21.5567C13.5469 19.1339 15.5069 17.1743 17.9301 17.1743C20.3534 17.1743 22.3134 19.1339 22.3134 21.5567Z" fill="#FFC3D0"/>
<path d="M39.8056 21.5567C39.8056 23.9796 37.8456 25.9392 35.4223 25.9392C32.9991 25.9392 31.0391 23.9796 31.0391 21.5567C31.0391 19.1339 32.9991 17.1743 35.4223 17.1743C37.8456 17.1743 39.8056 19.1339 39.8056 21.5567Z" fill="#F5D79B"/>
<path d="M57.2978 21.5567C57.2978 23.9796 55.3378 25.9392 52.9145 25.9392C50.4912 25.9392 48.5312 23.9796 48.5312 21.5567C48.5312 19.1339 50.4912 17.1743 52.9145 17.1743C55.3378 17.1743 57.2978 19.1339 57.2978 21.5567Z" fill="#6AEBE7"/>
<g clip-path="url(#clip0_3091_2793)">
<path d="M59.0385 38.3901H402.045C417.754 38.3901 430.49 51.1476 430.49 66.8867V348.549C430.49 364.288 417.754 377.045 402.045 377.045H59.0385C43.3297 377.045 30.5938 364.288 30.5938 348.549V66.8867C30.5938 51.1476 43.3297 38.3901 59.0385 38.3901Z" fill="#F2E8E3" stroke="#F2E8E3"/>
<path d="M431.005 66.8828V103.437H413.315C408.885 103.437 404.784 101.008 402.688 97.0807L394.516 81.7577C392.42 77.83 388.319 75.3709 383.889 75.3709H334.439C329.979 75.3709 325.908 77.83 323.812 81.7577L315.61 97.0807C313.514 101.008 309.443 103.437 304.983 103.437H293.967C289.537 103.437 285.436 101.008 283.34 97.0807L275.168 81.7577C273.072 77.83 268.971 75.3709 264.541 75.3709H215.091C210.631 75.3709 206.559 77.83 204.464 81.7577L196.262 97.0807C194.166 101.008 190.095 103.437 185.635 103.437H30.1094V66.8828C30.1094 50.8707 43.0706 37.8862 59.0541 37.8862H402.059C418.042 37.8862 431.003 50.8707 431.003 66.8828H431.005Z" fill="#F9F9F8"/>
<path d="M80.2145 70.1754C80.2145 73.257 77.7219 75.7496 74.6402 75.7496C71.5586 75.7496 69.0781 73.257 69.0781 70.1754C69.0781 67.0938 71.5707 64.6133 74.6402 64.6133C77.7098 64.6133 80.2145 67.1059 80.2145 70.1754Z" fill="#FFC3D0"/>
<path d="M102.484 70.1754C102.484 73.257 99.7425 75.7496 96.3527 75.7496C92.9629 75.7496 90.2344 73.257 90.2344 70.1754C90.2344 67.0938 92.9762 64.6133 96.3527 64.6133C99.7292 64.6133 102.484 67.1059 102.484 70.1754Z" fill="#F5D79B"/>
<path d="M123.644 70.1754C123.644 73.257 121.152 75.7496 118.07 75.7496C114.988 75.7496 112.508 73.257 112.508 70.1754C112.508 67.0938 115 64.6133 118.07 64.6133C121.139 64.6133 123.644 67.1059 123.644 70.1754Z" fill="#6AEBE7"/>
<path d="M381.919 130.318H78.6225C65.8134 130.318 55.4297 140.539 55.4297 153.148C55.4297 165.756 65.8134 175.977 78.6225 175.977H381.919C394.728 175.977 405.112 165.756 405.112 153.148C405.112 140.539 394.728 130.318 381.919 130.318Z" fill="#C1AEAE"/>
<path d="M120.009 159.861C120.009 160.186 119.886 160.472 119.64 160.718C119.395 160.966 119.103 161.088 118.765 161.088C118.427 161.088 118.09 160.939 117.794 160.644L110.768 154.048V159.756C110.768 160.165 110.644 160.496 110.399 160.75C110.154 161.004 109.818 161.131 109.396 161.131C108.974 161.131 108.661 161.004 108.416 160.75C108.171 160.496 108.047 160.165 108.047 159.756V147.347C108.047 146.938 108.171 146.611 108.416 146.365C108.661 146.117 108.989 145.996 109.396 145.996C109.804 145.996 110.154 146.117 110.399 146.365C110.644 146.611 110.768 146.938 110.768 147.347V152.781L117.562 146.396C117.815 146.143 118.103 146.016 118.428 146.016C118.753 146.016 119.037 146.139 119.282 146.385C119.527 146.631 119.65 146.917 119.65 147.242C119.65 147.567 119.509 147.862 119.23 148.13L113.552 153.329L119.586 158.953C119.868 159.222 120.009 159.524 120.009 159.861Z" fill="white"/>
<path d="M123.583 160.664C123.349 160.438 123.234 160.122 123.234 159.713V147.39C123.234 146.981 123.349 146.665 123.583 146.439C123.815 146.213 124.134 146.101 124.543 146.101H132.16C132.568 146.101 132.885 146.191 133.11 146.376C133.335 146.559 133.447 146.82 133.447 147.157C133.447 147.494 133.335 147.782 133.11 147.971C132.885 148.162 132.568 148.256 132.16 148.256H125.892V152.358H131.737C132.145 152.358 132.462 152.451 132.687 152.633C132.912 152.817 133.025 153.084 133.025 153.436C133.025 153.789 132.911 154.035 132.687 154.22C132.462 154.402 132.145 154.493 131.737 154.493H125.892V158.849H132.16C132.568 158.849 132.885 158.944 133.11 159.134C133.335 159.323 133.447 159.595 133.447 159.948C133.447 160.301 133.335 160.547 133.11 160.729C132.885 160.913 132.568 161.005 132.16 161.005H124.543C124.134 161.005 123.815 160.893 123.583 160.666V160.664Z" fill="white"/>
<path d="M147.059 145.995C147.381 145.995 147.671 146.116 147.925 146.364C148.178 146.61 148.305 146.903 148.305 147.241C148.305 147.522 148.2 147.79 147.989 148.043L143.198 153.899V159.755C143.198 160.192 143.072 160.53 142.818 160.77C142.565 161.009 142.241 161.13 141.847 161.13C141.454 161.13 141.109 161.009 140.855 160.77C140.602 160.531 140.475 160.192 140.475 159.755V153.899L135.685 148.043C135.474 147.79 135.367 147.522 135.367 147.241C135.367 146.903 135.494 146.61 135.748 146.364C136.001 146.116 136.289 145.995 136.612 145.995C136.964 145.995 137.266 146.149 137.52 146.459L141.846 151.828L146.151 146.459C146.404 146.149 146.706 145.995 147.058 145.995H147.059Z" fill="white"/>
<path d="M170.774 146.185C170.993 146.043 171.234 145.974 171.502 145.974C171.839 145.974 172.13 146.08 172.377 146.292C172.622 146.502 172.746 146.784 172.746 147.137C172.746 147.264 172.709 147.447 172.64 147.688L168.105 160.266C167.991 160.548 167.805 160.767 167.545 160.922C167.285 161.077 166.999 161.154 166.69 161.154C166.38 161.154 166.092 161.077 165.824 160.922C165.558 160.767 165.375 160.548 165.276 160.266L161.773 150.309L158.206 160.266C158.095 160.548 157.907 160.767 157.649 160.922C157.388 161.077 157.102 161.154 156.793 161.154C156.484 161.154 156.199 161.077 155.937 160.922C155.678 160.767 155.498 160.548 155.4 160.266L150.863 147.688C150.792 147.477 150.758 147.292 150.758 147.137C150.758 146.784 150.887 146.502 151.148 146.292C151.408 146.081 151.714 145.974 152.066 145.974C152.347 145.974 152.601 146.044 152.825 146.185C153.049 146.325 153.211 146.538 153.311 146.82L156.898 157.158L160.59 146.884C160.689 146.602 160.85 146.38 161.076 146.218C161.301 146.054 161.546 145.974 161.815 145.974C162.083 145.974 162.332 146.054 162.563 146.218C162.795 146.38 162.96 146.609 163.059 146.905L166.647 157.284L170.296 146.821C170.395 146.539 170.553 146.328 170.772 146.186L170.774 146.185Z" fill="white"/>
<path d="M178.815 160.263C177.751 159.644 176.932 158.755 176.356 157.6C175.778 156.444 175.492 155.091 175.492 153.54C175.492 151.99 175.776 150.641 176.346 149.492C176.915 148.345 177.735 147.46 178.805 146.839C179.872 146.22 181.131 145.909 182.581 145.909C184.031 145.909 185.286 146.221 186.348 146.839C187.409 147.46 188.225 148.345 188.795 149.492C189.365 150.641 189.651 151.99 189.651 153.54C189.651 155.091 189.363 156.444 188.785 157.6C188.208 158.755 187.389 159.644 186.326 160.263C185.265 160.883 184.016 161.194 182.581 161.194C181.145 161.194 179.876 160.882 178.815 160.263ZM185.778 157.6C186.545 156.655 186.929 155.301 186.929 153.54C186.929 151.779 186.545 150.43 185.778 149.492C185.011 148.554 183.947 148.086 182.581 148.086C181.215 148.086 180.131 148.554 179.362 149.492C178.596 150.43 178.214 151.778 178.214 153.54C178.214 155.302 178.597 156.656 179.362 157.6C180.13 158.545 181.202 159.016 182.581 159.016C183.96 159.016 185.011 158.545 185.778 157.6Z" fill="white"/>
<path d="M205.817 160.031C205.817 160.354 205.687 160.623 205.425 160.834C205.166 161.046 204.86 161.151 204.508 161.151C204.283 161.151 204.068 161.097 203.864 160.992C203.66 160.886 203.488 160.727 203.347 160.516L200.542 156.246C200.26 155.796 199.961 155.478 199.645 155.295C199.327 155.112 198.918 155.019 198.411 155.019H196.342V159.756C196.342 160.179 196.223 160.512 195.985 160.76C195.744 161.006 195.422 161.13 195.013 161.13C194.605 161.13 194.278 161.006 194.033 160.76C193.788 160.512 193.664 160.178 193.664 159.756V147.39C193.664 146.981 193.779 146.665 194.013 146.439C194.245 146.213 194.564 146.101 194.972 146.101H200.248C201.936 146.101 203.219 146.478 204.098 147.231C204.977 147.987 205.417 149.075 205.417 150.497C205.417 151.653 205.091 152.601 204.436 153.341C203.781 154.081 202.856 154.556 201.661 154.767C202.07 154.866 202.428 155.043 202.738 155.295C203.047 155.549 203.35 155.902 203.644 156.352L205.565 159.29C205.735 159.543 205.819 159.791 205.819 160.03L205.817 160.031ZM202.124 152.347C202.603 151.96 202.842 151.365 202.842 150.562C202.842 149.759 202.603 149.149 202.124 148.774C201.647 148.4 200.893 148.216 199.867 148.216H196.321V152.929H199.867C200.892 152.929 201.646 152.734 202.124 152.347Z" fill="white"/>
<path d="M209.935 160.664C209.701 160.438 209.586 160.122 209.586 159.713V147.39C209.586 146.981 209.701 146.665 209.935 146.439C210.167 146.213 210.486 146.101 210.894 146.101H215.072C217.506 146.101 219.395 146.752 220.738 148.056C222.081 149.358 222.754 151.188 222.754 153.54C222.754 155.893 222.081 157.745 220.738 159.047C219.395 160.351 217.506 161.002 215.072 161.002H210.894C210.486 161.002 210.167 160.891 209.935 160.664ZM214.902 158.783C218.322 158.783 220.03 157.036 220.03 153.54C220.03 150.045 218.322 148.319 214.902 148.319H212.308V158.785H214.902V158.783Z" fill="white"/>
<path d="M350.711 254.182H61.5795C58.1831 254.182 55.4297 256.94 55.4297 260.343C55.4297 263.745 58.1831 266.504 61.5795 266.504H350.711C354.108 266.504 356.861 263.745 356.861 260.343C356.861 256.94 354.108 254.182 350.711 254.182Z" fill="#F9F9F8"/>
<path d="M149.776 226.788H61.5795C58.1831 226.788 55.4297 229.546 55.4297 232.948C55.4297 236.351 58.1831 239.109 61.5795 239.109H149.776C153.173 239.109 155.926 236.351 155.926 232.948C155.926 229.546 153.173 226.788 149.776 226.788Z" fill="#F9F9F8"/>
<path d="M399.511 226.788H178.392C174.996 226.788 172.242 229.546 172.242 232.948C172.242 236.351 174.996 239.109 178.392 239.109H399.511C402.907 239.109 405.661 236.351 405.661 232.948C405.661 229.546 402.907 226.788 399.511 226.788Z" fill="#F9F9F8"/>
<path d="M300.646 199.394H176.056C172.66 199.394 169.906 202.152 169.906 205.554C169.906 208.957 172.66 211.715 176.056 211.715H300.646C304.043 211.715 306.796 208.957 306.796 205.554C306.796 202.152 304.043 199.394 300.646 199.394Z" fill="#F2E8E3"/>
<path d="M147.442 199.394H61.5795C58.1831 199.394 55.4297 202.152 55.4297 205.554C55.4297 208.957 58.1831 211.715 61.5795 211.715H147.442C150.838 211.715 153.592 208.957 153.592 205.554C153.592 202.152 150.838 199.394 147.442 199.394Z" fill="#F2E8E3"/>
<path d="M55.4297 348.287C55.4297 351.69 58.1832 354.448 61.5795 354.448H350.709C354.106 354.448 356.859 351.69 356.859 348.287C356.859 344.885 354.106 342.126 350.709 342.126H61.5795C58.1832 342.126 55.4297 344.885 55.4297 348.287Z" fill="#F9F9F8"/>
<path d="M149.776 314.734H61.5795C58.1831 314.734 55.4297 317.492 55.4297 320.895C55.4297 324.297 58.1831 327.056 61.5795 327.056H149.776C153.173 327.056 155.926 324.297 155.926 320.895C155.926 317.492 153.173 314.734 149.776 314.734Z" fill="#F9F9F8"/>
<path d="M399.511 314.734H178.392C174.996 314.734 172.242 317.492 172.242 320.895C172.242 324.297 174.996 327.056 178.392 327.056H399.511C402.907 327.056 405.661 324.297 405.661 320.895C405.661 317.492 402.907 314.734 399.511 314.734Z" fill="#F9F9F8"/>
<path d="M300.646 287.34H176.056C172.66 287.34 169.906 290.098 169.906 293.501C169.906 296.903 172.66 299.662 176.056 299.662H300.646C304.043 299.662 306.796 296.903 306.796 293.501C306.796 290.098 304.043 287.34 300.646 287.34Z" fill="#F2E8E3"/>
<path d="M147.442 287.34H61.5795C58.1831 287.34 55.4297 290.098 55.4297 293.501C55.4297 296.903 58.1831 299.662 61.5795 299.662H147.442C150.838 299.662 153.592 296.903 153.592 293.501C153.592 290.098 150.838 287.34 147.442 287.34Z" fill="#F2E8E3"/>
<path d="M92.002 158.879L89.1697 156.046C89.8394 154.98 90.1742 153.761 90.1742 152.542C90.1742 150.836 89.5045 149.13 88.2252 147.851C85.6366 145.262 81.4038 145.262 78.8162 147.851C77.568 149.1 76.8672 150.776 76.8672 152.574C76.8672 154.371 77.568 156.016 78.8162 157.264C80.0644 158.513 81.7397 159.214 83.5363 159.214C84.7845 159.214 85.9725 158.879 87.0071 158.209L89.8394 161.043C90.1442 161.348 90.5402 161.5 90.9352 161.5C91.3001 161.5 91.6961 161.348 92.0009 161.043C92.6105 160.464 92.6105 159.489 92.0009 158.879H92.002ZM80.9788 155.102C80.2779 154.432 79.913 153.518 79.913 152.574C79.913 151.629 80.2779 150.685 80.9788 150.015C81.6796 149.314 82.5929 148.949 83.5363 148.949C84.4797 148.949 85.3629 149.314 86.0638 150.015C87.4955 151.416 87.4955 153.701 86.0638 155.102C84.7244 156.473 82.3182 156.473 80.9788 155.102Z" fill="white"/>
</g>
<g clip-path="url(#clip1_3091_2793)">
<path d="M462.305 121C462.305 121 445.571 125.851 446.872 108.383C448.042 92.6727 453.536 104.702 455.757 104.005C458.151 103.253 456.177 98.4179 459.264 98.0248C462.305 97.6392 464.642 102.074 467.683 101.3C470.724 100.527 476.783 95.8568 482.647 99.2411C487.559 102.074 487.791 107.869 487.791 107.869C487.791 107.869 493.87 108.383 495.274 117.656C496.676 126.926 484.049 144.181 484.049 144.181L462.303 121.003L462.305 121Z" fill="#2D3250"/>
<path d="M488.117 136.795L497.041 162.935C497.611 164.606 499.031 165.844 500.761 166.18L504.734 166.954C504.734 166.954 494.403 189.423 476.993 185.661C459.583 181.896 463.411 166.954 463.411 166.954L467.093 166.655C469.297 166.477 470.81 164.349 470.257 162.203L466.118 146.137C466.118 146.137 482.988 132.513 488.119 136.792L488.117 136.795Z" fill="white"/>
<path d="M480.866 186.627C496.102 186.627 505.135 167.394 505.231 167.184C505.301 167.033 505.298 166.858 505.222 166.707C505.145 166.559 505.004 166.452 504.842 166.42L500.868 165.646C499.333 165.347 498.067 164.242 497.561 162.759L488.636 136.619C488.604 136.525 488.545 136.441 488.468 136.377C483.058 131.865 466.482 145.15 465.779 145.716C465.613 145.85 465.539 146.07 465.594 146.278L469.733 162.341C469.955 163.209 469.787 164.124 469.269 164.853C468.75 165.582 467.943 166.042 467.052 166.114L463.37 166.413C463.138 166.433 462.945 166.596 462.886 166.821C462.822 167.075 461.331 173.107 464.715 178.595C467.062 182.4 471.154 184.958 476.88 186.194C478.253 186.491 479.58 186.627 480.866 186.627ZM503.933 167.355C502.099 170.927 492.267 188.407 477.112 185.129C471.69 183.957 467.83 181.564 465.643 178.022C462.96 173.673 463.607 168.833 463.864 167.468L467.141 167.204C468.353 167.105 469.451 166.48 470.157 165.488C470.863 164.497 471.093 163.251 470.789 162.072L466.736 146.349C471.5 142.557 483.685 134.169 487.659 137.126L496.531 163.115C497.163 164.964 498.745 166.346 500.661 166.719L503.933 167.357V167.355Z" fill="#2D3250"/>
<path d="M482.031 140.861C482.031 140.861 477.707 150.863 466.384 149.017C455.06 147.17 454.771 132.738 455.783 117.401C457.429 118.202 459.431 118.758 462.324 118.672C467.24 118.523 477.453 116.551 477.932 115.421C476.091 119.754 475.39 124.207 477.688 126.985C478.588 128.197 480.291 129.072 483.298 129.124C483.298 129.124 484.732 124.32 489.004 127.109C493.276 129.897 491.687 141.662 482.031 140.864V140.861Z" fill="white"/>
<path d="M469.092 149.785C477.541 149.785 481.524 143.056 482.366 141.427C486.606 141.65 489.908 139.467 491.246 135.556C492.465 131.994 491.631 128.165 489.309 126.649C487.884 125.72 486.574 125.465 485.414 125.888C483.972 126.417 483.22 127.858 482.928 128.565C480.611 128.466 478.997 127.823 478.13 126.657C475.739 123.764 476.98 119.067 478.439 115.634C478.557 115.357 478.427 115.035 478.15 114.919C477.871 114.8 477.553 114.929 477.437 115.208C476.724 116.027 467.392 117.975 462.312 118.128C459.879 118.207 457.88 117.816 456.026 116.912C455.863 116.833 455.671 116.837 455.515 116.931C455.36 117.023 455.258 117.186 455.246 117.367C454.289 131.91 454.271 147.593 466.303 149.556C467.283 149.716 468.214 149.788 469.095 149.788L469.092 149.785ZM482.037 140.315C481.823 140.315 481.625 140.443 481.539 140.644C481.369 141.037 477.242 150.235 466.479 148.478C455.557 146.695 455.409 132.061 456.283 118.219C458.094 118.968 460.047 119.28 462.349 119.216C465.649 119.114 473.495 117.94 476.879 116.632C475.603 120.15 474.89 124.444 477.279 127.332C478.39 128.825 480.418 129.618 483.299 129.668H483.309C483.548 129.668 483.76 129.509 483.829 129.28C483.834 129.262 484.409 127.418 485.796 126.914C486.616 126.617 487.598 126.835 488.716 127.566C490.602 128.797 491.261 132.155 490.217 135.208C489.639 136.898 487.682 140.792 482.084 140.32C482.07 140.32 482.055 140.32 482.04 140.32L482.037 140.315Z" fill="#2D3250"/>
<path d="M484.859 135.267C485.086 135.267 485.296 135.124 485.375 134.899C485.617 134.187 485.868 133.45 486.293 132.859C486.717 132.266 487.302 131.89 487.86 131.853C488.159 131.833 488.386 131.571 488.366 131.272C488.346 130.973 488.09 130.751 487.786 130.765C486.895 130.827 486.029 131.359 485.409 132.224C484.891 132.946 484.602 133.796 484.345 134.548C484.249 134.832 484.4 135.143 484.684 135.24C484.743 135.26 484.802 135.269 484.859 135.269V135.267Z" fill="#2D3250"/>
<path d="M511.464 279.232L458.664 272.602L453.619 284.68L494.513 304.627C494.513 304.627 514.766 290.645 511.464 279.229V279.232Z" fill="#FFA054"/>
<path d="M524.627 321.425C524.627 321.425 392.865 227.684 352.995 238.628C313.125 249.571 322.119 301.033 345.578 320.884C361.885 334.683 387.707 356.741 460.661 373.764C533.619 390.787 524.625 321.423 524.625 321.423L524.627 321.425Z" fill="white"/>
<path d="M481.776 377C494.124 377 504.024 373.673 511.344 367.04C528.811 351.206 525.205 321.653 525.168 321.356C525.148 321.205 525.067 321.069 524.943 320.983C524.808 320.886 511.278 311.275 491.905 298.759C491.654 298.598 491.316 298.67 491.153 298.922C490.99 299.174 491.061 299.513 491.316 299.676C509.394 311.356 522.377 320.503 524.117 321.732C524.418 324.533 526.841 351.53 510.611 366.237C499.764 376.066 483.003 378.419 460.788 373.238C388.297 356.324 362.939 334.866 346.159 320.664L345.932 320.471C331.355 308.135 323.094 284.126 327.127 265.808C329.213 256.335 335.418 244.022 353.141 239.156C368.305 234.993 398.567 245.522 443.081 270.451C443.343 270.597 443.676 270.503 443.822 270.241C443.967 269.978 443.874 269.645 443.612 269.499C398.841 244.427 368.305 233.864 352.855 238.106C334.608 243.114 328.216 255.808 326.066 265.576C324.025 274.844 324.936 285.703 328.625 296.155C332.229 306.363 338.128 315.294 345.231 321.304L345.458 321.497C362.317 335.763 387.796 357.327 460.541 374.298C468.268 376.1 475.354 377.003 481.776 377.003V377Z" fill="#2D3250"/>
<path d="M410.184 357.545C410.401 357.545 410.604 357.416 410.69 357.201C417.356 340.509 447.727 308.024 448.033 307.697C448.237 307.477 448.228 307.134 448.008 306.926C447.788 306.721 447.445 306.731 447.238 306.951C446.929 307.277 416.421 339.916 409.678 356.798C409.567 357.077 409.703 357.394 409.982 357.508C410.048 357.535 410.118 357.547 410.184 357.547V357.545Z" fill="#2D3250"/>
<path d="M495.948 334.361C496.104 334.361 496.257 334.295 496.365 334.166C496.558 333.936 496.528 333.593 496.299 333.397C476.114 316.439 384.854 267.244 383.933 266.75C383.669 266.606 383.338 266.708 383.195 266.972C383.052 267.237 383.153 267.568 383.417 267.711C384.335 268.206 475.5 317.346 495.598 334.233C495.699 334.317 495.825 334.359 495.948 334.359V334.361Z" fill="#2D3250"/>
<path d="M412.816 369.643C411.799 370.889 411.587 372.612 412.275 374.068C412.964 375.524 414.427 376.454 416.034 376.454H529.886C541.678 376.454 553.031 371.984 561.665 363.935C573.921 352.509 592.4 335.101 607.984 319.67C625.651 302.175 631.219 275.842 622.183 252.662C622.05 252.318 621.914 251.974 621.778 251.631C614.127 232.158 590.292 225.011 573.272 237.139C538.963 261.583 484.643 301.752 463.108 325.749C463.108 325.749 426.324 353.098 412.813 369.646L412.816 369.643Z" fill="white"/>
<path d="M416.031 377H529.882C541.855 377 553.272 372.501 562.032 364.336C574.634 352.586 592.903 335.368 608.363 320.058C626.19 302.402 631.813 275.872 622.686 252.464L622.281 251.43C618.564 241.972 610.861 234.89 601.144 231.997C591.459 229.117 581.184 230.828 572.951 236.694C557.547 247.668 534.744 264.223 513.571 280.781C513.334 280.967 513.292 281.308 513.477 281.548C513.662 281.785 514.005 281.827 514.242 281.642C535.398 265.099 558.189 248.553 573.583 237.584C581.54 231.916 591.471 230.259 600.833 233.045C610.224 235.841 617.673 242.689 621.266 251.833L621.669 252.864C630.638 275.867 625.112 301.938 607.596 319.287C592.145 334.586 573.886 351.797 561.289 363.54C552.729 371.52 541.576 375.912 529.88 375.912H416.028C414.639 375.912 413.355 375.099 412.761 373.838C412.166 372.58 412.351 371.07 413.23 369.992C426.543 353.686 463.061 326.461 463.426 326.186C463.456 326.164 463.483 326.139 463.507 326.112C469.781 319.121 479.353 310.212 491.957 299.634C492.187 299.441 492.219 299.097 492.024 298.865C491.831 298.635 491.488 298.603 491.256 298.798C478.637 309.391 469.041 318.32 462.732 325.343C461.261 326.441 425.573 353.149 412.386 369.3C411.24 370.701 411.001 372.667 411.776 374.303C412.551 375.942 414.219 377 416.028 377H416.031Z" fill="#2D3250"/>
<path d="M507.859 377C507.953 377 508.047 376.975 508.136 376.926C535.734 360.662 567.311 332.512 588.586 305.211C591.442 301.545 594.376 297.589 596.111 293.112C596.22 292.83 596.082 292.516 595.8 292.408C595.522 292.299 595.206 292.437 595.097 292.719C593.416 297.058 590.533 300.939 587.727 304.541C566.531 331.744 535.073 359.789 507.583 375.987C507.324 376.14 507.237 376.474 507.39 376.733C507.492 376.906 507.674 377.003 507.859 377.003V377Z" fill="#2D3250"/>
<path d="M513.628 367.881C513.754 367.881 513.882 367.836 513.986 367.747C514.213 367.549 514.235 367.206 514.037 366.978C499.796 350.613 483.309 336.401 465.036 324.733C464.781 324.572 464.446 324.646 464.283 324.901C464.122 325.155 464.196 325.492 464.448 325.655C482.636 337.264 499.044 351.409 513.216 367.695C513.324 367.819 513.475 367.883 513.625 367.883L513.628 367.881Z" fill="#2D3250"/>
<path d="M527.807 355.401C527.943 355.401 528.081 355.35 528.187 355.248C528.402 355.038 528.407 354.694 528.199 354.477C513.383 339.204 497.082 325.207 479.75 312.872C479.506 312.696 479.166 312.755 478.99 313C478.815 313.245 478.874 313.586 479.119 313.762C496.398 326.058 512.648 340.013 527.417 355.236C527.523 355.345 527.666 355.401 527.807 355.401Z" fill="#2D3250"/>
<path d="M426.133 178.84C431.284 171.869 439.154 167.439 447.773 166.643C452.682 166.19 458.838 165.708 465.701 165.355C466.079 166.593 466.607 167.792 467.293 168.922C469.283 172.202 472.4 174.729 475.872 176.296C479.348 177.866 483.237 178.575 487.033 178.116C490.753 177.666 494.29 176.079 496.859 173.305C498.954 171.043 501.467 168.311 502.111 165.347C508.338 165.701 513.247 166.217 519.094 167.134C530.252 168.885 540.051 175.535 545.952 185.181C556.77 202.859 575.5 234.294 576.502 259.583C578.116 300.343 512.055 283.051 512.055 283.051L437.856 276.223L394.872 242.897C394.872 242.897 408.251 203.029 426.133 178.832V178.84Z" fill="#FFA054"/>
<path d="M511.208 274.816C511.716 278.25 508.246 280.9 505.08 279.496C498.606 276.623 491.591 275.172 484.51 275.244L453.881 275.55C453.881 275.55 451.49 236.009 494.793 240.788C494.793 240.788 507.859 252.177 511.208 274.816Z" fill="white"/>
<path d="M476.443 276.248C476.47 276.248 476.495 276.248 476.522 276.243C476.821 276.201 477.026 275.924 476.981 275.625C476.668 273.467 477.174 271.066 478.408 268.864C479.449 267.004 480.992 265.252 483.127 263.499C483.524 263.173 483.951 262.837 484.423 262.629C484.699 262.508 484.825 262.186 484.704 261.91C484.583 261.635 484.262 261.507 483.988 261.628C483.389 261.89 482.873 262.295 482.438 262.651C480.197 264.49 478.568 266.347 477.46 268.325C476.108 270.737 475.555 273.382 475.905 275.778C475.945 276.05 476.177 276.245 476.443 276.245V276.248Z" fill="#2D3250"/>
<path d="M466.537 275.679C466.804 275.679 467.036 275.483 467.075 275.209C467.445 272.599 467.976 269.546 469.111 266.695C470.279 263.763 471.992 261.37 474.06 259.778C474.299 259.595 474.344 259.252 474.161 259.014C473.978 258.777 473.635 258.73 473.398 258.916C471.172 260.626 469.341 263.177 468.099 266.292C466.922 269.249 466.377 272.381 465.997 275.056C465.955 275.355 466.162 275.629 466.461 275.671C466.485 275.676 466.512 275.676 466.537 275.676V275.679Z" fill="#2D3250"/>
<path d="M458.606 275.679C458.629 275.679 458.651 275.679 458.67 275.676C458.969 275.642 459.181 275.37 459.147 275.071C457.824 263.974 465.065 257.079 465.139 257.01C465.359 256.804 465.371 256.458 465.167 256.238C464.962 256.018 464.616 256.006 464.396 256.211C464.081 256.505 456.676 263.558 458.063 275.199C458.095 275.476 458.332 275.679 458.604 275.679H458.606Z" fill="#2D3250"/>
<path d="M379.089 281.545H490.813C491.475 281.545 492.136 281.375 492.682 280.999C493.96 280.119 494.402 278.544 493.898 277.19C492.58 274.421 489.858 273.447 485.833 273.447H371.759L373.24 277.479C374.153 279.924 376.486 281.545 379.089 281.545Z" fill="#2D3250"/>
<path d="M378.455 281.545C376.221 281.545 374.212 280.181 373.385 278.102L353.606 228.368C353.08 227.048 353.243 225.555 354.038 224.378C354.832 223.202 356.158 222.5 357.577 222.5H426.242C430.379 222.5 434.068 225.113 435.451 229.018L454.016 281.545H378.455Z" fill="#2D3250"/>
<path d="M391.952 247.103C390.448 245.596 390.448 243.152 391.952 241.645C393.457 240.138 395.896 240.138 397.401 241.645C398.905 243.152 398.905 245.596 397.401 247.103C395.896 248.61 393.457 248.61 391.952 247.103Z" fill="#FFA054"/>
<path d="M546.988 242.049C547.284 242.049 547.526 241.811 547.531 241.515C547.536 241.213 547.297 240.966 546.998 240.959L497.046 240.009C496.74 240.017 496.498 240.244 496.491 240.543C496.486 240.845 496.725 241.092 497.024 241.099L546.976 242.049H546.986H546.988Z" fill="#2D3250"/>
<path d="M530.305 239.208C530.357 239.208 530.409 239.201 530.463 239.186C530.752 239.1 530.915 238.796 530.828 238.506C529.004 232.425 526.489 226.544 523.355 221.026C522.684 219.847 521.593 218.285 519.932 218.344C519.631 218.354 519.396 218.606 519.406 218.908C519.416 219.209 519.663 219.459 519.969 219.434C520.813 219.414 521.568 220.084 522.41 221.568C525.505 227.014 527.988 232.818 529.787 238.823C529.858 239.06 530.073 239.211 530.308 239.211L530.305 239.208Z" fill="#2D3250"/>
</g>
<defs>
<clipPath id="clip0_3091_2793">
<rect width="400.909" height="339.659" fill="white" transform="translate(30.0938 37.8862)"/>
</clipPath>
<clipPath id="clip1_3091_2793">
<rect width="302" height="279" fill="white" transform="matrix(-1 0 0 1 627 98)"/>
</clipPath>
</defs>
</svg>
