<svg width="495" height="358" viewBox="0 0 495 358" fill="none" xmlns="http://www.w3.org/2000/svg">
<g clip-path="url(#clip0_3468_5047)">
<rect x="203.5" y="0.5" width="238.5" height="312.5" rx="15.5" fill="#F2E8E3" stroke="#2D3250"/>
<path d="M428.943 83.9245L428.957 94.3151C428.964 100.054 433.619 104.7 439.353 104.692C445.088 104.685 449.731 100.027 449.723 94.2883L449.71 83.8975L428.943 83.9245Z" fill="#2D3250"/>
<path d="M439.298 88.7495C454.145 88.7495 466.181 76.705 466.181 61.8474C466.181 46.9898 454.145 34.9453 439.298 34.9453C424.452 34.9453 412.416 46.9898 412.416 61.8474C412.416 76.705 424.452 88.7495 439.298 88.7495Z" fill="#EFBC73"/>
<path d="M439.276 98.0833C435.737 98.0833 429.166 97.7436 429.164 96.4496C429.164 96.3261 429.264 96.2257 429.387 96.2255C429.511 96.2255 429.611 96.3255 429.611 96.4487C429.713 96.8753 433.02 97.6358 439.247 97.6361C439.28 97.6361 439.312 97.6361 439.346 97.6361C445.638 97.6278 448.976 96.8527 449.077 96.421C449.077 96.2975 449.177 96.1985 449.301 96.1982C449.301 96.1982 449.301 96.1982 449.301 96.1982C449.424 96.1982 449.524 96.2993 449.524 96.4227C449.526 97.7255 442.867 98.0784 439.346 98.0831C439.323 98.0833 439.299 98.0833 439.276 98.0833Z" fill="white"/>
<path d="M439.27 93.5282C435.731 93.5282 429.16 93.1885 429.158 91.8944C429.158 91.771 429.258 91.6708 429.382 91.6706C429.505 91.6706 429.605 91.7706 429.605 91.894C429.708 92.3229 433.05 93.0809 439.34 93.0812C445.632 93.0731 448.97 92.2979 449.072 91.8663C449.071 91.7426 449.171 91.6438 449.295 91.6436C449.295 91.6436 449.295 91.6436 449.295 91.6436C449.419 91.6436 449.518 91.7446 449.519 91.8681C449.52 93.1708 442.861 93.5237 439.34 93.5282C439.317 93.5282 439.294 93.5282 439.27 93.5282Z" fill="white"/>
<path d="M435.731 82.4306C435.644 82.4306 435.561 82.3796 435.525 82.2946L427.051 62.4385C427.003 62.3249 427.056 62.1934 427.169 62.1449C427.282 62.0966 427.414 62.149 427.463 62.2628L435.936 82.1188C435.985 82.2324 435.932 82.3639 435.819 82.4124C435.79 82.425 435.76 82.4306 435.731 82.4306Z" fill="#2D3250"/>
<path d="M442.911 82.4211C442.882 82.4211 442.852 82.4152 442.824 82.4032C442.71 82.3549 442.657 82.2236 442.705 82.11L451.127 62.232C451.176 62.118 451.308 62.0657 451.421 62.1133C451.534 62.1616 451.587 62.2928 451.539 62.4064L443.117 82.2842C443.081 82.3698 442.998 82.4211 442.911 82.4211Z" fill="#2D3250"/>
<path d="M434.466 64.9701C433.416 64.9701 432.369 64.7166 431.455 64.1958C431.348 64.1347 431.31 63.9981 431.371 63.8908C431.432 63.7832 431.569 63.7459 431.676 63.8069C433.599 64.9019 436.155 64.7235 437.931 63.4172C436.327 62.5549 435.032 61.105 434.484 59.3559C434.09 58.1003 434.123 56.8732 434.578 55.9002C435.128 54.722 436.32 53.979 437.481 54.0937C438.828 54.2267 439.776 55.4092 440.214 56.4713C441.159 58.766 440.541 61.6068 438.748 63.315C439.722 63.7224 440.785 63.9049 441.843 63.7973C444.832 63.4945 447.413 60.9152 447.719 57.9248C447.732 57.802 447.844 57.7126 447.965 57.7251C448.088 57.7376 448.177 57.8474 448.165 57.9704C447.837 61.164 445.08 63.9189 441.888 64.2423C440.685 64.3639 439.473 64.135 438.378 63.6379C437.279 64.5158 435.871 64.9701 434.466 64.9701ZM437.251 54.5299C436.348 54.5299 435.417 55.1605 434.983 56.0896C434.576 56.961 434.55 58.0737 434.91 59.2222C435.443 60.9208 436.728 62.3181 438.308 63.1126C440.073 61.544 440.701 58.8262 439.8 56.6419C439.412 55.6996 438.587 54.6525 437.437 54.5389C437.375 54.5331 437.313 54.5299 437.251 54.5299Z" fill="white"/>
<path d="M494.106 249.538L489.303 247.859C489.691 245.368 489.873 242.876 489.862 240.405L492.894 239.83C493.978 239.625 494.69 238.579 494.485 237.495L492.021 224.503C491.815 223.419 490.77 222.707 489.686 222.913L486.642 223.49C485.739 221.166 484.654 218.916 483.398 216.761L487.26 213.436L476.022 200.389L472.17 203.707C470.244 202.159 468.182 200.75 465.991 199.502L467.669 194.699L451.414 189.019L449.735 193.822C447.243 193.434 444.752 193.251 442.281 193.263L441.334 188.268L424.416 191.476L425.366 196.483C423.042 197.386 420.792 198.471 418.637 199.726L416.616 197.379C415.895 196.543 414.634 196.449 413.798 197.169L403.779 205.799C402.943 206.519 402.849 207.78 403.569 208.616L405.583 210.955C404.035 212.881 402.626 214.943 401.378 217.134L396.575 215.456H396.575L390.895 231.711L395.698 233.39C395.31 235.881 395.128 238.372 395.139 240.843L392.106 241.419C391.022 241.624 390.31 242.67 390.516 243.754L392.98 256.746C393.185 257.83 394.231 258.542 395.315 258.336L398.359 257.759C399.262 260.083 400.347 262.333 401.602 264.487L397.741 267.813L408.978 280.86L412.831 277.542C414.757 279.09 416.82 280.499 419.01 281.747L417.332 286.55L433.587 292.23L435.266 287.427C437.757 287.815 440.249 287.998 442.719 287.986L443.667 292.981L460.584 289.773L459.635 284.766C461.959 283.863 464.209 282.778 466.363 281.522L468.385 283.87C469.105 284.706 470.367 284.8 471.203 284.08L481.222 275.45C482.058 274.73 482.152 273.469 481.432 272.633L479.418 270.294C480.965 268.368 482.374 266.305 483.623 264.114L488.426 265.793L494.106 249.538ZM473.276 252.523C467.057 268.65 449.132 277.291 432.641 272.113C414.431 266.395 404.856 246.534 411.724 228.726C417.944 212.599 435.869 203.957 452.36 209.136C470.57 214.854 480.144 234.715 473.276 252.523Z" fill="white"/>
<path d="M442.504 278.708C438.31 278.708 434.067 278.014 429.936 276.57C420.334 273.215 412.613 266.322 408.196 257.159C403.779 247.997 403.195 237.664 406.55 228.061C409.576 219.401 415.623 212.126 423.577 207.577C431.452 203.073 440.671 201.517 449.536 203.195C449.759 203.238 449.906 203.453 449.864 203.677C449.822 203.901 449.609 204.049 449.382 204.005C431.443 200.608 413.361 211.067 407.328 228.333C404.045 237.727 404.617 247.837 408.939 256.801C413.26 265.765 420.813 272.51 430.207 275.792C446.231 281.391 464.01 275.465 473.443 261.382C473.57 261.193 473.826 261.142 474.015 261.269C474.204 261.395 474.255 261.651 474.128 261.84C466.919 272.605 454.936 278.708 442.504 278.708Z" fill="#F2E6DC"/>
<path d="M388.535 283.853L385.881 282.926C386.095 281.549 386.196 280.173 386.19 278.807L387.865 278.49C388.464 278.376 388.858 277.798 388.744 277.199L387.383 270.021C387.269 269.422 386.692 269.028 386.093 269.142L384.411 269.461C383.912 268.177 383.312 266.934 382.618 265.743L384.752 263.906L378.543 256.697L376.414 258.53C375.35 257.675 374.21 256.896 373 256.207L373.927 253.553L364.945 250.414L364.018 253.068C362.641 252.854 361.265 252.753 359.899 252.759L359.376 249.999L350.028 251.772L350.553 254.538C349.269 255.037 348.026 255.637 346.835 256.331L345.718 255.033C345.32 254.572 344.623 254.52 344.161 254.917L338.625 259.686C338.163 260.084 338.111 260.781 338.509 261.243L339.622 262.535C338.767 263.599 337.988 264.739 337.299 265.949L334.645 265.022H334.645L331.506 274.003L334.16 274.931C333.946 276.308 333.845 277.684 333.851 279.049L332.176 279.367C331.577 279.481 331.183 280.058 331.297 280.657L332.658 287.836C332.772 288.435 333.349 288.829 333.948 288.715L335.63 288.396C336.13 289.68 336.729 290.923 337.423 292.114L335.289 293.951L341.498 301.16L343.627 299.327C344.691 300.182 345.831 300.961 347.041 301.65L346.114 304.304L355.096 307.443L356.023 304.789C357.4 305.003 358.776 305.104 360.142 305.098L360.665 307.858L370.013 306.085L369.488 303.319C370.772 302.819 372.015 302.22 373.206 301.526L374.323 302.823C374.721 303.285 375.418 303.337 375.88 302.939L381.416 298.171C381.878 297.773 381.93 297.076 381.532 296.614L380.419 295.322C381.274 294.258 382.053 293.118 382.742 291.908L385.396 292.835L388.535 283.853ZM377.026 285.503C373.589 294.414 363.685 299.188 354.573 296.327C344.511 293.168 339.221 282.194 343.015 272.354C346.452 263.443 356.356 258.668 365.468 261.53C375.53 264.689 380.82 275.663 377.026 285.503Z" fill="white"/>
<path d="M360.022 299.971C357.704 299.971 355.36 299.588 353.077 298.79C347.772 296.936 343.506 293.127 341.065 288.065C338.625 283.002 338.302 277.293 340.155 271.987C341.828 267.202 345.169 263.182 349.564 260.668C353.915 258.18 359.009 257.32 363.907 258.247C364.031 258.271 364.112 258.39 364.088 258.514C364.065 258.637 363.947 258.719 363.822 258.695C353.91 256.818 343.919 262.597 340.586 272.137C338.772 277.328 339.088 282.914 341.476 287.867C343.863 292.82 348.037 296.546 353.227 298.36C362.081 301.454 371.905 298.18 377.117 290.398C377.187 290.293 377.329 290.266 377.433 290.335C377.537 290.405 377.565 290.547 377.495 290.651C373.512 296.599 366.891 299.971 360.022 299.971Z" fill="#F2E6DC"/>
<path d="M377.5 174.255H199.516V57.0566H201.823V171.948H377.5V174.255Z" fill="white"/>
<path d="M334.548 81.25L313.541 93.7979L314.724 95.7784L335.731 83.2305L334.548 81.25Z" fill="white"/>
<path d="M273.319 47.5245L271.391 48.791L299.848 92.1142L301.776 90.8477L273.319 47.5245Z" fill="white"/>
<path d="M259.295 45.3028L237.186 62.3809L238.596 64.207L260.706 47.129L259.295 45.3028Z" fill="white"/>
<path d="M239.563 71.2144C240.72 66.3145 237.686 61.4045 232.786 60.2475C227.887 59.0905 222.977 62.1247 221.82 67.0245C220.663 71.9244 223.697 76.8344 228.597 77.9914C233.496 79.1484 238.406 76.1142 239.563 71.2144Z" fill="white"/>
<path d="M276.59 41.1723C276.869 36.145 273.019 31.8439 267.992 31.5655C262.964 31.2871 258.663 35.1368 258.385 40.164C258.107 45.1913 261.956 49.4923 266.983 49.7707C272.011 50.0492 276.312 46.1995 276.59 41.1723Z" fill="white"/>
<path d="M315.217 99.1856C315.217 104.22 311.136 108.302 306.101 108.302C301.066 108.302 296.984 104.22 296.984 99.1856C296.984 94.1509 301.066 90.0693 306.101 90.0693C311.136 90.0693 315.217 94.1509 315.217 99.1856Z" fill="white"/>
<path d="M346.678 86.3504C351.329 84.4236 353.538 79.0907 351.611 74.4391C349.684 69.7875 344.352 67.5785 339.7 69.5053C335.048 71.4321 332.839 76.7651 334.766 81.4167C336.693 86.0683 342.026 88.2772 346.678 86.3504Z" fill="white"/>
<path d="M242.604 92.6523H219.932V154.819H242.604V92.6523Z" fill="#C1AEAE"/>
<path d="M280.022 80.2705H257.35V154.822H280.022V80.2705Z" fill="#C1AEAE"/>
<path d="M317.438 114.649H294.766V154.824H317.438V114.649Z" fill="#C1AEAE"/>
<path d="M354.85 103.11H332.178V154.821H354.85V103.11Z" fill="#C1AEAE"/>
<path d="M125.809 216.515C143.08 220.658 192.192 235.665 198.265 214.977C203.289 197.864 154.814 185.359 137.931 180.134C133.89 192.261 129.849 204.388 125.809 216.515Z" fill="white"/>
<path d="M166.145 203.145C166.145 203.144 166.144 203.143 166.145 203.143C183.511 175.955 195.31 156.334 199.191 150.419C199.597 149.8 200.309 148.703 201.587 147.583C206.32 143.429 211.226 145.596 218.196 143.499C226.104 141.121 229.21 135.304 230.976 136.457C232.204 137.259 231.65 139.783 228.737 144.101C228.737 144.101 228.738 144.102 228.738 144.102C231.328 141.076 235.02 137.125 236.688 138.561C238.525 140.323 234.733 145.474 232.286 148.477C235.248 144.842 237.91 143.794 238.641 144.827C239.79 146.452 238.151 149.806 234.05 154.46L234.051 154.46C237.779 152.038 239.045 152.006 239.468 153.076C240.241 155.03 236.798 158.792 233.244 161.652C229.244 164.871 225.025 165.979 222.348 166.615C222.347 166.615 222.346 166.616 222.346 166.616C212.158 186.919 204.715 199.581 197.738 216.552C193.292 227.368 167.593 220.778 166.145 203.145Z" fill="white"/>
<path d="M165.828 203.699C165.752 203.699 165.675 203.678 165.606 203.634C165.414 203.512 165.359 203.257 165.481 203.065C167.873 199.318 170.301 195.493 172.698 191.697C172.82 191.505 173.074 191.447 173.267 191.568C173.459 191.69 173.517 191.944 173.395 192.137C170.998 195.934 168.569 199.76 166.176 203.509C166.097 203.632 165.964 203.699 165.828 203.699Z" fill="#2D3250"/>
<path d="M212.251 146.912C216.2 139.758 216.109 136.341 214.955 135.752C213.015 134.76 207.144 139.487 200.055 149.214C203.51 148.878 208.795 147.249 212.251 146.912Z" fill="white"/>
<path d="M210.711 160.85C210.643 160.85 210.575 160.833 210.512 160.799C210.313 160.689 210.24 160.438 210.35 160.239C211.077 158.918 212.44 157.081 214.81 155.834C218.161 154.068 221.44 154.63 222.694 154.954C222.914 155.011 223.047 155.235 222.989 155.456C222.933 155.676 222.707 155.808 222.488 155.752C221.326 155.452 218.291 154.931 215.194 156.563C213.006 157.715 211.745 159.414 211.072 160.636C210.997 160.773 210.856 160.85 210.711 160.85Z" fill="#2D3250"/>
<path d="M205.319 146.141C205.144 146.141 204.981 146.029 204.926 145.853C204.857 145.636 204.977 145.404 205.194 145.336C206.944 144.782 208.773 144.658 210.711 144.528C211.608 144.467 212.536 144.405 213.501 144.297C213.73 144.272 213.932 144.436 213.957 144.662C213.982 144.888 213.819 145.092 213.592 145.117C212.609 145.226 211.672 145.289 210.767 145.35C208.88 145.477 207.098 145.597 205.443 146.122C205.402 146.135 205.36 146.141 205.319 146.141Z" fill="#2D3250"/>
<path d="M222.358 148.33C222.187 148.33 222.027 148.223 221.968 148.052C221.894 147.837 222.008 147.602 222.223 147.528C223.14 147.212 224.03 146.809 224.87 146.332C226.088 145.639 227.212 144.782 228.211 143.785C228.373 143.624 228.633 143.625 228.794 143.786C228.955 143.947 228.955 144.208 228.793 144.369C227.742 145.417 226.559 146.319 225.277 147.048C224.394 147.551 223.457 147.974 222.492 148.307C222.448 148.323 222.402 148.33 222.358 148.33Z" fill="#2D3250"/>
<path d="M226.273 152.222C226.102 152.222 225.943 152.115 225.884 151.944C225.81 151.729 225.924 151.494 226.139 151.42C227.055 151.104 227.945 150.701 228.786 150.223C230.003 149.53 231.128 148.673 232.127 147.677C232.288 147.516 232.549 147.517 232.71 147.678C232.87 147.839 232.87 148.1 232.709 148.261C231.658 149.309 230.475 150.21 229.193 150.94C228.309 151.443 227.372 151.866 226.408 152.199C226.363 152.214 226.318 152.222 226.273 152.222Z" fill="#2D3250"/>
<path d="M227.795 158.764C227.624 158.764 227.464 158.657 227.406 158.486C227.331 158.271 227.445 158.036 227.661 157.962C228.577 157.645 229.467 157.243 230.307 156.765C231.525 156.072 232.65 155.215 233.649 154.219C233.81 154.058 234.071 154.059 234.231 154.22C234.392 154.381 234.392 154.642 234.231 154.803C233.18 155.851 231.997 156.752 230.715 157.482C229.831 157.984 228.894 158.408 227.93 158.741C227.885 158.757 227.84 158.764 227.795 158.764Z" fill="#2D3250"/>
<path d="M72.9069 349.073L68.2321 363.098C59.8245 362.846 51.419 362.978 43.0268 363.109L43.0209 363.109C34.6697 363.239 26.3316 363.37 17.9956 363.125C18.9512 345.703 22.1378 320.045 31.7847 292.954C41.0288 266.994 53.1017 246.995 62.9538 233.162L126.264 244.769C129.796 254.084 133.081 264.464 135.73 275.859C143.689 310.104 142.873 340.488 140.037 363.1C131.837 362.935 123.638 363.022 115.449 363.109L115.444 363.109C107.252 363.196 99.0696 363.283 90.8884 363.118C90.2778 354.387 89.6672 345.402 89.0566 336.417C88.4354 327.276 87.8141 318.134 87.1928 309.259L86.2197 309.136C84.812 313.358 83.4046 317.58 81.9972 321.803C80.5647 326.1 79.1322 330.398 77.6994 334.696L72.9069 349.073Z" fill="white" stroke="#2D3250"/>
<path d="M34.5547 187.406C22.636 197.003 -12.6972 219.748 4.59837 242.887C11.1232 251.617 40.5301 223.591 52.9832 214.829C46.8406 205.688 40.6977 196.547 34.5547 187.406Z" fill="white"/>
<path d="M23.9121 192.5C28.2894 188.453 61.1074 159.105 105.74 166.407C131.478 170.618 147.831 178.006 157.287 184.003C147.847 201.085 144.79 204.865 139.465 211.492C142.187 225.337 144.908 239.182 147.63 253.027C127.395 252.85 62.0745 250.897 41.4846 250.187C45.1529 238.472 48.8211 232.206 52.4893 220.49C49.6495 222.857 46.8093 225.224 43.9695 227.59C37.4021 216.64 29.7696 202.795 23.9121 192.5Z" fill="#FFA054"/>
<path d="M73.1096 242.181C73.0638 242.181 73.0171 242.174 72.9711 242.157C72.7569 242.081 72.645 241.845 72.7212 241.631L91.7238 188.277H133.46C133.688 188.277 133.872 188.462 133.872 188.69C133.872 188.917 133.688 189.102 133.46 189.102H92.3051L73.4979 241.908C73.4376 242.076 73.279 242.181 73.1096 242.181Z" fill="#D87355"/>
<path d="M116.549 244.336H75.1035L94.0085 191.257H135.454L116.549 244.336Z" fill="#D87355"/>
<path d="M13.7596 214.702C27.9391 215.651 61.4419 216.231 64.7101 216.417C70.8193 216.767 103.557 219.493 103.676 224.259C103.733 226.537 97.4019 226.297 95.2643 226.154C96.9337 227.121 103.747 230.14 103.147 232.622C102.441 235.539 93.771 233.184 93.6128 233.233C95.4079 234.043 102.689 236.98 102.31 238.859C101.819 241.303 94.2259 240.601 91.9624 240.286C92.1568 240.628 99.4733 242.409 99.0107 245.349C98.6711 247.507 91.7062 246.852 88.6838 246.577C83.2556 246.271 19.9316 246.126 8.1663 244.597C3.56081 243.998 7.53038 219.143 13.7596 214.702Z" fill="white"/>
<path d="M44.3011 216.139C44.2962 216.139 44.2919 216.139 44.2874 216.139C37.0836 215.903 18.271 215.066 13.6919 214.81C13.4644 214.798 13.2905 214.603 13.3034 214.376C13.316 214.149 13.5082 213.971 13.7377 213.987C18.314 214.242 37.1151 215.079 44.314 215.315C44.5419 215.322 44.7201 215.513 44.7126 215.74C44.7053 215.963 44.5226 216.139 44.3011 216.139Z" fill="#2D3250"/>
<path d="M95.3536 226.344C95.2987 226.344 95.2437 226.333 95.1905 226.31C94.031 225.811 92.8275 225.389 91.6137 225.055C89.4322 224.455 87.1697 224.125 84.8893 224.074C84.6618 224.069 84.4816 223.881 84.4864 223.653C84.4917 223.428 84.6751 223.25 84.8986 223.25C84.9015 223.25 84.9046 223.25 84.9078 223.25C87.2559 223.302 89.5856 223.642 91.8327 224.26C93.0828 224.604 94.3225 225.039 95.5166 225.553C95.7255 225.643 95.8221 225.886 95.7325 226.095C95.6651 226.251 95.5129 226.344 95.3536 226.344Z" fill="#2D3250"/>
<path d="M93.7432 233.496C93.7029 233.496 93.6623 233.49 93.622 233.477C93.369 233.399 93.1101 233.324 92.8461 233.251C90.6654 232.651 88.4031 232.321 86.1217 232.27C85.8942 232.265 85.714 232.077 85.7188 231.849C85.7241 231.625 85.9075 231.446 86.1311 231.446C86.1339 231.446 86.137 231.446 86.1402 231.446C88.4888 231.499 90.8187 231.839 93.0651 232.457C93.3371 232.532 93.6041 232.609 93.8645 232.69C94.0822 232.757 94.2042 232.987 94.1374 233.205C94.0826 233.382 93.9195 233.496 93.7432 233.496Z" fill="#2D3250"/>
<path d="M91.8187 240.624C91.7938 240.624 91.7687 240.622 91.7434 240.617C90.2896 240.348 88.7976 240.195 87.3092 240.162C87.0817 240.157 86.9015 239.968 86.9063 239.741C86.9116 239.513 87.0838 239.321 87.3277 239.338C88.8603 239.372 90.3963 239.53 91.8932 239.807C92.1169 239.848 92.2651 240.063 92.2236 240.287C92.1869 240.486 92.0134 240.624 91.8187 240.624Z" fill="#2D3250"/>
<path d="M61.6114 144.192C48.6924 144.192 38.1816 133.681 38.1816 120.762C38.1816 107.843 48.6922 97.332 61.6114 97.332C74.5306 97.332 85.0412 107.843 85.0412 120.762C85.0412 133.681 74.5306 144.192 61.6114 144.192ZM61.6114 98.1565C49.1467 98.1565 39.0059 108.297 39.0059 120.762C39.0059 133.227 49.1467 143.367 61.6114 143.367C74.0761 143.367 84.2167 133.226 84.2167 120.762C84.2169 108.297 74.0761 98.1565 61.6114 98.1565Z" fill="#2D3250"/>
<path d="M65.7288 139.61C81.5683 139.61 94.4088 126.769 94.4088 110.93C94.4088 95.0905 81.5683 82.25 65.7288 82.25C49.8893 82.25 37.0488 95.0905 37.0488 110.93C37.0488 126.769 49.8893 139.61 65.7288 139.61Z" fill="#2D3250"/>
<path d="M95.9228 152.607C106.609 152.607 115.271 143.945 115.271 133.259C115.271 122.573 106.609 113.91 95.9228 113.91C85.2369 113.91 76.5742 122.573 76.5742 133.259C76.5742 143.945 85.2369 152.607 95.9228 152.607Z" fill="#2D3250"/>
<path d="M111.744 156.961C107.469 159.997 95.3922 151.754 95.3922 151.754L88.4824 137.3C88.4824 129.923 94.4625 123.943 101.839 123.943C109.216 123.943 115.196 129.923 115.196 137.3C115.196 137.3 116.099 153.868 111.744 156.961Z" fill="white"/>
<path d="M97.3303 178.003C105.873 178.003 112.797 175.164 112.797 171.662C112.797 168.159 105.873 165.32 97.3303 165.32C88.7881 165.32 81.8633 168.159 81.8633 171.662C81.8633 175.164 88.7881 178.003 97.3303 178.003Z" fill="white"/>
<path d="M104.991 137.15H88.4824V170.918H104.991V137.15Z" fill="white"/>
<path d="M113.663 140.812C113.663 140.812 117.409 144.738 117.21 145.774C116.972 147.011 112.799 147.765 112.799 147.765C112.799 147.765 113.763 140.822 113.663 140.812Z" fill="white"/>
<path d="M107.644 158.119C107.62 158.119 107.595 158.117 107.571 158.113C102.314 157.177 95.4498 152.523 95.1604 152.325C94.9725 152.196 94.9238 151.94 95.0522 151.752C95.181 151.564 95.4379 151.516 95.6251 151.644C95.6947 151.692 102.634 156.397 107.715 157.302C107.94 157.341 108.089 157.555 108.049 157.779C108.014 157.979 107.84 158.119 107.644 158.119Z" fill="#2D3250"/>
<path d="M100.281 139.31C100.281 139.31 102.732 137.992 105.686 137.992C106.315 137.992 105.129 143.022 104.532 142.737C101.909 141.485 100.281 139.31 100.281 139.31Z" fill="white"/>
<mask id="mask0_3468_5047" style="mask-type:luminance" maskUnits="userSpaceOnUse" x="100" y="137" width="14" height="7">
<path d="M100.285 139.312C100.285 139.312 103.89 137.373 107.625 138.199C111.361 139.024 113.814 142.301 113.814 142.301C113.814 142.301 110.209 144.239 106.473 143.414C102.737 142.589 100.285 139.312 100.285 139.312Z" fill="white"/>
</mask>
<g mask="url(#mask0_3468_5047)">
<path d="M109.351 146.405C112.114 146.405 114.354 144.165 114.354 141.402C114.354 138.638 112.114 136.398 109.351 136.398C106.588 136.398 104.348 138.638 104.348 141.402C104.348 144.165 106.588 146.405 109.351 146.405Z" fill="#2D3250"/>
</g>
<path d="M108.924 150.503C108.457 150.503 107.991 150.371 107.585 150.108C106.805 149.601 106.372 148.673 106.482 147.744C106.509 147.518 106.713 147.358 106.94 147.383C107.166 147.41 107.327 147.615 107.301 147.842C107.227 148.461 107.515 149.079 108.034 149.417C108.574 149.767 109.275 149.766 109.82 149.416C110.012 149.293 110.266 149.348 110.389 149.54C110.512 149.731 110.457 149.986 110.266 150.109C109.857 150.372 109.39 150.503 108.924 150.503Z" fill="#2D3250"/>
<path d="M85.2302 140.813C85.2302 140.813 89.489 139.104 93.8854 143.616L96.7352 142.056C96.7352 142.056 95.0846 123.88 115.005 131.024C115.005 131.024 108.173 115.762 94.8471 121.367C81.5209 126.971 85.2302 140.813 85.2302 140.813Z" fill="#2D3250"/>
<path d="M85.0648 144.006C85.8441 146.616 88.3154 148.182 90.5848 147.504C92.8542 146.827 94.0622 144.162 93.2829 141.552C92.5038 138.942 90.0322 137.376 87.7629 138.053C85.4935 138.731 84.2855 141.396 85.0648 144.006Z" fill="white"/>
<path d="M91.5147 142.409C91.3372 142.409 91.173 142.293 91.1199 142.115C90.7399 140.842 89.5545 140.069 88.4755 140.39C87.8364 140.581 87.3465 141.132 87.1658 141.863C87.1112 142.084 86.8865 142.218 86.6668 142.164C86.4459 142.11 86.3109 141.886 86.3657 141.665C86.6173 140.648 87.318 139.876 88.2398 139.6C89.7541 139.147 91.3997 140.171 91.9097 141.879C91.9748 142.097 91.8509 142.326 91.6328 142.391C91.5931 142.403 91.5536 142.409 91.5147 142.409Z" fill="#2D3250"/>
<path d="M89.3623 154.483C86.9398 154.483 84.9688 152.512 84.9688 150.089C84.9688 147.666 86.9398 145.695 89.3623 145.695C91.7853 145.695 93.7563 147.666 93.7563 150.089C93.7563 152.512 91.7853 154.483 89.3623 154.483ZM89.3623 146.52C87.3941 146.52 85.793 148.121 85.793 150.089C85.793 152.057 87.3941 153.659 89.3623 153.659C91.3305 153.659 92.9321 152.057 92.9321 150.089C92.9321 148.121 91.3304 146.52 89.3623 146.52Z" fill="#EFBC73"/>
<path opacity="0.5" d="M301.241 237.089H230.118C224.356 237.089 219.643 232.375 219.643 226.614C219.643 220.853 224.356 216.139 230.118 216.139H301.241C307.002 216.139 311.716 220.853 311.716 226.614C311.716 232.375 307.002 237.089 301.241 237.089Z" fill="white"/>
<path d="M303.322 243.282H236.24C229.682 243.282 224.346 237.946 224.346 231.387C224.346 224.828 229.682 219.492 236.24 219.492H303.322C309.881 219.492 315.217 224.828 315.217 231.387C315.217 237.945 309.881 243.282 303.322 243.282ZM236.24 220.577C230.279 220.577 225.431 225.426 225.431 231.387C225.431 237.348 230.28 242.197 236.24 242.197H303.322C309.283 242.197 314.132 237.347 314.132 231.387C314.132 225.426 309.282 220.577 303.322 220.577H236.24Z" fill="white"/>
<path d="M240.369 231.129C240.369 233.409 238.521 235.257 236.241 235.257C233.961 235.257 232.113 233.409 232.113 231.129C232.113 228.849 233.961 227.001 236.241 227.001C238.521 227.001 240.369 228.849 240.369 231.129Z" fill="#D87355"/>
<path d="M253.567 231.129C253.567 233.409 251.718 235.257 249.439 235.257C247.159 235.257 245.311 233.409 245.311 231.129C245.311 228.849 247.159 227.001 249.439 227.001C251.718 227.001 253.567 228.849 253.567 231.129Z" fill="#D87355"/>
<path d="M266.766 231.129C266.766 233.409 264.917 235.257 262.638 235.257C260.358 235.257 258.51 233.409 258.51 231.129C258.51 228.849 260.358 227.001 262.638 227.001C264.917 227.001 266.766 228.849 266.766 231.129Z" fill="#D87355"/>
<path d="M279.963 231.129C279.963 233.409 278.115 235.257 275.835 235.257C273.555 235.257 271.707 233.409 271.707 231.129C271.707 228.849 273.555 227.001 275.835 227.001C278.115 227.001 279.963 228.849 279.963 231.129Z" fill="#D87355"/>
</g>
<defs>
<clipPath id="clip0_3468_5047">
<rect width="495" height="358" fill="white"/>
</clipPath>
</defs>
</svg>
