<svg width="627" height="378" viewBox="0 0 627 378" fill="none" xmlns="http://www.w3.org/2000/svg">
<path d="M252.213 1.23828H612.849C617.351 1.23828 621 4.8876 621 9.38927V282.924C621 287.426 617.351 291.075 612.849 291.075H252.213C247.711 291.075 244.062 287.426 244.062 282.924V9.38927C244.062 4.8876 247.711 1.23828 252.213 1.23828Z" stroke="#D9D2D2" stroke-width="1.95535"/>
<path d="M606.546 8.59609C606.546 10.9649 608.463 12.8807 610.832 12.8807C613.201 12.8807 615.117 10.9649 615.117 8.59609C615.117 6.22738 613.201 4.31152 610.832 4.31152C608.463 4.31152 606.546 6.22738 606.546 8.59609Z" fill="#FFC3D0"/>
<path d="M589.443 8.59609C589.443 10.9649 591.359 12.8807 593.728 12.8807C596.097 12.8807 598.014 10.9649 598.014 8.59609C598.014 6.22738 596.097 4.31152 593.728 4.31152C591.359 4.31152 589.443 6.22738 589.443 8.59609Z" fill="#F5D79B"/>
<mask id="mask0_3468_5682" style="mask-type:luminance" maskUnits="userSpaceOnUse" x="200" y="37" width="393" height="333">
<path d="M200.598 37.3008H592.557V369.377H200.598V37.3008Z" fill="white"/>
</mask>
<g mask="url(#mask0_3468_5682)">
<path d="M564.255 37.793H228.906C213.547 37.793 201.096 50.2657 201.096 65.6534V341.028C201.096 356.415 213.547 368.887 228.906 368.887H564.255C579.613 368.887 592.064 356.415 592.064 341.028V65.6534C592.064 50.2657 579.613 37.793 564.255 37.793Z" fill="#F2E8E3" stroke="#F2E8E3" stroke-width="0.977675"/>
<path d="M200.591 65.65V101.388H217.886C222.218 101.388 226.227 99.0134 228.276 95.1738L236.266 80.1929C238.315 76.3528 242.324 73.9487 246.656 73.9487H295.002C299.362 73.9487 303.342 76.3528 305.391 80.1929L313.41 95.1738C315.459 99.0134 319.44 101.388 323.8 101.388H334.57C338.901 101.388 342.911 99.0134 344.96 95.1738L352.949 80.1929C354.999 76.3528 359.008 73.9487 363.339 73.9487H411.685C416.046 73.9487 420.027 76.3528 422.075 80.1929L430.094 95.1738C432.143 99.0134 436.123 101.388 440.484 101.388H592.537V65.65C592.537 49.9954 579.865 37.3008 564.239 37.3008H228.891C213.265 37.3008 200.593 49.9954 200.593 65.65H200.591Z" fill="#F9F9F8"/>
<path d="M543.552 68.8696C543.552 71.8824 545.989 74.3193 549.002 74.3193C552.014 74.3193 554.439 71.8824 554.439 68.8696C554.439 65.8568 552.003 63.4316 549.002 63.4316C546 63.4316 543.552 65.8686 543.552 68.8696Z" fill="#FFC3D0"/>
<path d="M521.778 68.8696C521.778 71.8824 524.458 74.3193 527.772 74.3193C531.086 74.3193 533.754 71.8824 533.754 68.8696C533.754 65.8568 531.073 63.4316 527.772 63.4316C524.471 63.4316 521.778 65.8686 521.778 68.8696Z" fill="#F5D79B"/>
<path d="M501.091 68.8696C501.091 71.8824 503.527 74.3193 506.541 74.3193C509.554 74.3193 511.979 71.8824 511.979 68.8696C511.979 65.8568 509.542 63.4316 506.541 63.4316C503.54 63.4316 501.091 65.8686 501.091 68.8696Z" fill="#6AEBE7"/>
<path d="M279.094 248.768H561.771C565.091 248.768 567.783 251.464 567.783 254.791C567.783 258.117 565.091 260.814 561.771 260.814H279.094C275.773 260.814 273.081 258.117 273.081 254.791C273.081 251.464 275.773 248.768 279.094 248.768Z" fill="#F9F9F8"/>
<path d="M475.543 221.984H561.771C565.091 221.984 567.783 224.681 567.783 228.007C567.783 231.334 565.091 234.03 561.771 234.03H475.543C472.222 234.03 469.53 231.334 469.53 228.007C469.53 224.681 472.222 221.984 475.543 221.984Z" fill="#F9F9F8"/>
<path d="M231.383 221.984H447.565C450.886 221.984 453.578 224.681 453.578 228.007C453.578 231.334 450.886 234.03 447.565 234.03H231.383C228.063 234.03 225.37 231.334 225.37 228.007C225.37 224.681 228.063 221.984 231.383 221.984Z" fill="#F9F9F8"/>
<path d="M328.04 195.202H449.849C453.169 195.202 455.861 197.899 455.861 201.225C455.861 204.552 453.169 207.248 449.849 207.248H328.04C324.719 207.248 322.027 204.552 322.027 201.225C322.027 197.899 324.719 195.202 328.04 195.202Z" fill="#F2E8E3"/>
<path d="M477.825 195.202H561.771C565.091 195.202 567.783 197.899 567.783 201.225C567.783 204.552 565.091 207.248 561.771 207.248H477.825C474.505 207.248 471.812 204.552 471.812 201.225C471.812 197.899 474.505 195.202 477.825 195.202Z" fill="#F2E8E3"/>
<path d="M567.783 340.772C567.783 344.099 565.091 346.796 561.771 346.796H279.096C275.775 346.796 273.083 344.099 273.083 340.772C273.083 337.446 275.775 334.749 279.096 334.749H561.771C565.091 334.749 567.783 337.446 567.783 340.772Z" fill="#F9F9F8"/>
<path d="M475.543 307.968H561.771C565.091 307.968 567.783 310.664 567.783 313.991C567.783 317.317 565.091 320.015 561.771 320.015H475.543C472.222 320.015 469.53 317.317 469.53 313.991C469.53 310.664 472.222 307.968 475.543 307.968Z" fill="#F9F9F8"/>
<path d="M231.383 307.968H447.565C450.886 307.968 453.578 310.664 453.578 313.991C453.578 317.317 450.886 320.015 447.565 320.015H231.383C228.063 320.015 225.37 317.317 225.37 313.991C225.37 310.664 228.063 307.968 231.383 307.968Z" fill="#F9F9F8"/>
<path d="M328.04 281.185H449.849C453.169 281.185 455.861 283.881 455.861 287.208C455.861 290.534 453.169 293.231 449.849 293.231H328.04C324.719 293.231 322.027 290.534 322.027 287.208C322.027 283.881 324.719 281.185 328.04 281.185Z" fill="#F2E8E3"/>
<path d="M477.825 281.185H561.771C565.091 281.185 567.783 283.881 567.783 287.208C567.783 290.534 565.091 293.231 561.771 293.231H477.825C474.505 293.231 471.812 290.534 471.812 287.208C471.812 283.881 474.505 281.185 477.825 281.185Z" fill="#F2E8E3"/>
</g>
<path d="M258.871 178.08C259.905 168.299 262.927 157.058 258.236 146.788C253.468 136.35 244.601 126.255 233.427 123.674C215.882 119.622 204.485 132.379 195.487 143.893C186.908 154.873 181.104 164.239 168.095 169.322C158.882 172.922 149.219 173.671 139.958 177.143C130.696 180.615 121.416 184.943 114.745 192.251C108.075 199.558 104.543 210.475 108.294 219.634C91.4331 225.27 77.2179 239.542 73.5907 256.959C69.9637 274.377 78.2142 294.145 94.075 302.179C105.299 307.865 118.586 307.478 131.052 305.791C143.519 304.105 156.019 301.246 168.542 302.444C180.192 303.558 191.505 308.167 203.192 307.548C222.716 306.515 238.454 291.332 250.041 275.569C255.873 267.637 261.37 258.639 261.162 248.793C260.984 240.364 277.078 233.328 271.268 227.037C270.993 217.947 255.426 210.647 258.871 178.08Z" fill="#2D3250"/>
<path d="M306.069 244.773L346.446 291.971L323.725 341.701L265.691 283.746L306.069 244.773Z" fill="white"/>
<path d="M347.225 293.311C347.104 293.311 346.985 293.26 346.901 293.161L307.885 247.228C307.732 247.049 307.754 246.781 307.933 246.628C308.113 246.477 308.381 246.498 308.533 246.677L347.549 292.611C347.701 292.79 347.679 293.058 347.5 293.21C347.42 293.278 347.322 293.311 347.225 293.311Z" fill="#2D3250"/>
<path d="M327.715 346.152C327.605 346.152 327.496 346.11 327.413 346.026L267.012 285.071C266.847 284.904 266.848 284.635 267.014 284.47C267.181 284.305 267.45 284.306 267.616 284.473L328.017 345.428C328.182 345.595 328.181 345.864 328.014 346.029C327.931 346.111 327.823 346.152 327.715 346.152Z" fill="#2D3250"/>
<path d="M297.855 236.396L308.211 246.953L270.441 285.746L274.126 331.202L281.177 364.559L147.934 358.613L144.797 319.04L93.8398 320.203C93.8398 320.203 98.0006 297.893 103.416 274.5C109.945 246.291 133.456 225.144 162.195 221.82C172.308 220.65 183.963 219.707 197.05 219.278C217.809 218.596 234.707 217.755 247.514 216.991C266.309 215.871 284.664 222.949 297.855 236.396Z" fill="white"/>
<path d="M281.175 364.984C281.169 364.984 281.162 364.984 281.156 364.983L147.913 359.037C147.699 359.028 147.525 358.86 147.508 358.646L144.403 319.474L93.847 320.627C93.7349 320.633 93.5966 320.575 93.5135 320.477C93.4304 320.38 93.396 320.25 93.4192 320.124C93.461 319.901 97.644 297.538 102.999 274.403C109.567 246.03 133.335 224.729 162.144 221.397C173.351 220.1 185.09 219.244 197.033 218.852C214.938 218.264 231.912 217.495 247.487 216.567C266.407 215.438 284.874 222.557 298.157 236.098L308.512 246.655C308.675 246.82 308.675 247.084 308.514 247.249L270.878 285.904L274.546 331.14L281.591 364.47C281.618 364.599 281.585 364.733 281.499 364.833C281.418 364.929 281.299 364.984 281.175 364.984ZM148.326 358.204L280.645 364.109L273.708 331.29C273.704 331.272 273.702 331.254 273.7 331.236L270.015 285.78C270.005 285.658 270.048 285.537 270.134 285.449L307.614 246.954L297.549 236.693C284.44 223.328 266.213 216.301 247.537 217.415C231.956 218.345 214.973 219.114 197.062 219.702C185.141 220.093 173.426 220.948 162.242 222.241C133.789 225.532 110.314 246.571 103.828 274.595C98.9277 295.762 95.0098 316.284 94.3524 319.764L144.785 318.614C144.788 318.614 144.792 318.614 144.795 318.614C145.016 318.614 145.201 318.784 145.219 319.005L148.326 358.204Z" fill="#2D3250"/>
<path d="M149.885 280.917L182.196 259.001L218.317 272.027L251.195 249.611L270.687 265.264C270.687 265.264 280.405 306.044 281.171 328.867C281.171 328.867 231.702 348.357 149.885 339.301V280.917H149.885Z" fill="#FFA054"/>
<path d="M181.348 256.927C181.12 256.927 180.931 256.746 180.923 256.517C180.486 244.158 178.161 231.985 174.013 220.335C173.934 220.113 174.05 219.87 174.271 219.791C174.491 219.713 174.735 219.828 174.814 220.049C178.992 231.782 181.333 244.041 181.773 256.487C181.781 256.722 181.598 256.918 181.363 256.927C181.358 256.927 181.353 256.927 181.348 256.927Z" fill="#FFA054"/>
<path d="M250.649 248.594C250.638 248.594 250.627 248.593 250.616 248.593C250.382 248.575 250.206 248.371 250.224 248.137C251.03 237.425 249.48 226.44 245.742 216.369C245.66 216.149 245.772 215.904 245.992 215.823C246.212 215.741 246.457 215.853 246.539 216.073C250.32 226.258 251.887 237.367 251.072 248.2C251.056 248.424 250.869 248.594 250.649 248.594Z" fill="#FFA054"/>
<path d="M93.8345 320.199L89.975 346.457C88.0285 359.699 98.4379 371.518 111.809 371.247H274.121C274.121 371.247 270.627 328.491 237.251 326.788C202.767 325.028 149.886 328.715 149.886 328.715L149.814 319.036L93.8345 320.199Z" fill="white"/>
<path d="M93.8336 320.626C93.6027 320.626 93.4133 320.441 93.4083 320.209C93.4033 319.974 93.5898 319.78 93.8248 319.775L149.804 318.612C150.029 318.609 150.233 318.794 150.238 319.029C150.243 319.264 150.056 319.458 149.821 319.463L93.8423 320.625C93.8394 320.626 93.8365 320.626 93.8336 320.626Z" fill="#2D3250"/>
<path d="M111.359 371.678C105.038 371.679 99.0345 368.973 94.8363 364.211C90.533 359.33 88.6081 352.837 89.5546 346.397L93.4139 320.139C93.448 319.907 93.6581 319.745 93.8965 319.78C94.1286 319.814 94.2894 320.03 94.2553 320.263L90.396 346.52C89.4861 352.712 91.3372 358.955 95.4742 363.648C99.6064 368.335 105.571 370.947 111.8 370.824H273.654C273.315 367.499 270.765 346.946 258.864 336.004C258.691 335.845 258.679 335.576 258.838 335.403C258.998 335.23 259.267 335.219 259.439 335.378C272.597 347.476 274.527 370.981 274.545 371.217C274.554 371.335 274.513 371.451 274.433 371.538C274.352 371.625 274.24 371.674 274.121 371.674H111.809C111.659 371.677 111.509 371.678 111.359 371.678Z" fill="#2D3250"/>
<path d="M135.757 330.126C135.536 330.126 135.349 329.954 135.333 329.73C135.317 329.496 135.494 329.293 135.728 329.276L149.855 328.292C150.086 328.274 150.292 328.453 150.308 328.687C150.325 328.921 150.148 329.124 149.913 329.141L135.787 330.125C135.777 330.125 135.767 330.126 135.757 330.126Z" fill="#2D3250"/>
<path d="M248.877 367.107C248.87 367.107 248.862 367.107 248.855 367.107C248.62 367.095 248.44 366.894 248.452 366.66C248.736 361.333 245.812 355.984 241.177 353.349C237.821 351.442 233.893 350.958 230.158 350.625C223.376 350.022 216.487 349.85 209.688 350.115C209.451 350.125 209.255 349.941 209.246 349.706C209.237 349.472 209.42 349.274 209.655 349.265C216.492 348.999 223.415 349.172 230.233 349.778C233.894 350.104 238.093 350.618 241.597 352.61C246.506 355.4 249.602 361.064 249.302 366.705C249.29 366.932 249.101 367.107 248.877 367.107Z" fill="#2D3250"/>
<path d="M260.338 365.733C260.335 365.733 260.331 365.733 260.327 365.733C260.093 365.727 259.907 365.532 259.913 365.297C260.076 358.783 257.818 352.145 253.718 347.084C249.618 342.023 243.595 338.44 237.194 337.254C236.963 337.211 236.81 336.989 236.853 336.758C236.896 336.527 237.115 336.374 237.349 336.417C243.946 337.64 250.153 341.333 254.379 346.549C258.604 351.764 260.931 358.606 260.763 365.319C260.758 365.55 260.568 365.733 260.338 365.733Z" fill="#2D3250"/>
<path d="M207.783 180.443L191.654 218.197L180.941 220.214C180.941 220.214 194.937 247.139 217.68 245.1C240.423 243.061 238.025 217.357 238.025 217.357L227.095 216.537L232.417 194.131L207.783 180.443Z" fill="white"/>
<path d="M215.282 245.632C206.672 245.632 198.145 241.549 190.478 233.719C184.165 227.272 180.599 220.478 180.564 220.41C180.502 220.291 180.499 220.149 180.559 220.028C180.618 219.907 180.73 219.821 180.862 219.796L191.352 217.821L207.391 180.276C207.438 180.165 207.53 180.08 207.644 180.041C207.758 180.002 207.883 180.013 207.989 180.071L232.623 193.759C232.79 193.852 232.874 194.044 232.83 194.229L227.623 216.15L238.057 216.932C238.264 216.948 238.429 217.11 238.449 217.317C238.46 217.442 239.538 229.946 232.63 238.244C229.083 242.505 224.066 244.954 217.718 245.523C216.906 245.596 216.093 245.632 215.282 245.632ZM181.597 220.523C183.67 224.195 197.163 246.514 217.642 244.676C223.757 244.128 228.58 241.781 231.977 237.7C238.015 230.445 237.743 219.826 237.626 217.753L227.062 216.961C226.938 216.952 226.824 216.888 226.751 216.788C226.677 216.687 226.651 216.56 226.68 216.438L231.928 194.346L207.988 181.044L192.044 218.364C191.988 218.494 191.871 218.588 191.732 218.614L181.597 220.523Z" fill="#2D3250"/>
<path d="M209.177 181.866C209.177 181.866 210.739 189.675 216.027 195.569C218.403 198.218 223.51 201.721 227.873 202.623C241.67 205.475 248.157 190.743 250.068 182.361C253.067 169.203 250.467 155.995 250.467 155.995C250.467 155.995 234.328 149.458 227.423 155.795C220.519 162.131 222.925 169.603 218.482 170.955C211.167 173.181 218.088 158.581 208.045 161.085C199.588 163.194 197.404 176.736 209.177 181.866Z" fill="white"/>
<path d="M231.227 203.403C230.126 203.403 228.981 203.286 227.788 203.04C223.461 202.145 218.25 198.683 215.711 195.853C210.836 190.418 209.106 183.502 208.808 182.167C202.267 179.226 200.293 173.832 200.635 169.736C201.004 165.313 203.941 161.671 207.943 160.673C209.952 160.172 211.46 160.289 212.554 161.032C214.212 162.156 214.528 164.5 214.807 166.567C215.041 168.297 215.261 169.931 216.17 170.514C216.669 170.834 217.386 170.845 218.36 170.548C220.233 169.978 220.759 168.143 221.485 165.603C222.339 162.621 223.4 158.911 227.137 155.481C234.159 149.037 249.959 155.33 250.628 155.601C250.761 155.654 250.858 155.772 250.886 155.913C250.912 156.046 253.468 169.361 250.483 182.455C248.184 192.544 241.837 203.402 231.227 203.403ZM210.138 161.219C209.557 161.219 208.895 161.312 208.149 161.498C204.5 162.408 201.821 165.747 201.482 169.807C201.161 173.651 203.059 178.736 209.348 181.476C209.476 181.532 209.568 181.646 209.595 181.783C209.611 181.86 211.2 189.55 216.344 195.285C218.791 198.013 223.805 201.348 227.961 202.207C229.12 202.446 230.223 202.558 231.272 202.558C244.617 202.559 249.15 184.48 249.654 182.266C252.386 170.282 250.414 158.11 250.093 156.305C248.167 155.57 233.916 150.415 227.712 156.108C224.152 159.375 223.127 162.958 222.303 165.837C221.533 168.53 220.924 170.657 218.607 171.362C217.38 171.735 216.432 171.692 215.71 171.229C214.471 170.434 214.225 168.611 213.964 166.681C213.697 164.698 213.42 162.647 212.077 161.736C211.569 161.391 210.927 161.219 210.138 161.219Z" fill="#2D3250"/>
<path d="M211.628 177.288C211.411 177.288 211.227 177.124 211.205 176.904C211.045 175.28 210.879 173.6 210.288 172.075C209.652 170.434 208.543 169.192 207.246 168.667C207.029 168.579 206.924 168.331 207.012 168.114C207.1 167.896 207.348 167.791 207.565 167.879C209.078 168.491 210.36 169.908 211.081 171.768C211.714 173.4 211.885 175.139 212.051 176.821C212.074 177.055 211.903 177.263 211.669 177.286C211.655 177.287 211.641 177.288 211.628 177.288Z" fill="#2D3250"/>
<path d="M207.409 193.367C207.347 193.367 207.286 193.354 207.228 193.327L194.284 187.256C194.154 187.195 194.064 187.073 194.044 186.932C194.023 186.79 194.075 186.648 194.182 186.553L203.327 178.416C203.502 178.259 203.771 178.275 203.928 178.451C204.084 178.626 204.068 178.895 203.893 179.051L195.229 186.759L206.972 192.268L206.734 177.99C206.73 177.755 206.917 177.562 207.152 177.558C207.403 177.54 207.58 177.741 207.584 177.976L207.834 192.935C207.837 193.082 207.763 193.219 207.64 193.299C207.57 193.344 207.49 193.367 207.409 193.367Z" fill="#FFA054"/>
<path d="M245.37 170.972C245.37 170.972 253.345 168.521 259.06 171.968L255.222 180.023C254.898 180.703 254.182 181.105 253.433 181.028L246.545 180.314C245.756 180.232 245.163 179.562 245.18 178.769C245.232 176.449 245.334 171.963 245.37 170.972Z" fill="white"/>
<path d="M253.615 181.462C253.54 181.462 253.465 181.458 253.389 181.45L246.5 180.736C245.482 180.631 244.732 179.781 244.754 178.759C244.853 174.368 244.918 171.669 244.945 170.956C244.952 170.775 245.072 170.618 245.245 170.565C245.578 170.463 253.467 168.098 259.279 171.604C259.466 171.717 259.537 171.953 259.443 172.151L255.606 180.206C255.238 180.977 254.457 181.462 253.615 181.462ZM245.785 171.298C245.754 172.318 245.692 174.879 245.605 178.778C245.592 179.353 246.014 179.831 246.588 179.89L253.477 180.604C254.039 180.662 254.592 180.356 254.838 179.84L258.506 172.139C253.658 169.455 247.218 170.92 245.785 171.298Z" fill="#2D3250"/>
<path d="M236.579 178.496C236.363 178.496 236.144 178.467 235.927 178.406L227.03 175.902C225.891 175.581 225.065 174.573 224.975 173.392L224.269 164.132C224.26 164.011 224.302 163.892 224.387 163.804C224.472 163.717 224.591 163.67 224.711 163.675C235.035 164.112 241.228 169.079 241.486 169.291C241.625 169.404 241.678 169.593 241.618 169.762C241.298 170.662 239.71 174.677 238.793 176.989C238.424 177.92 237.535 178.496 236.579 178.496ZM225.153 164.549L225.823 173.327C225.886 174.153 226.464 174.859 227.26 175.083L236.157 177.587C236.917 177.801 237.711 177.41 238.002 176.675C238.68 174.969 240.212 171.1 240.71 169.768C239.505 168.883 233.811 165.044 225.153 164.549Z" fill="#2D3250"/>
<path d="M245.368 171.395C245.199 171.395 245.04 171.294 244.973 171.128C244.31 169.474 241.327 170.032 241.297 170.037C241.063 170.082 240.843 169.931 240.799 169.701C240.754 169.47 240.905 169.247 241.135 169.203C241.287 169.173 244.841 168.513 245.762 170.812C245.85 171.03 245.744 171.277 245.526 171.365C245.474 171.385 245.421 171.395 245.368 171.395Z" fill="#2D3250"/>
<path d="M217.14 165.057C216.918 165.057 216.731 164.886 216.716 164.661C216.699 164.427 216.876 164.224 217.11 164.207L224.663 163.676C224.902 163.658 225.1 163.836 225.117 164.071C225.133 164.305 224.957 164.508 224.722 164.525L217.17 165.056C217.159 165.056 217.149 165.057 217.14 165.057Z" fill="#2D3250"/>
<path d="M421.599 371.921H238.376C235.847 371.921 233.797 369.862 233.797 367.323V366.241C233.797 361.246 237.83 357.196 242.805 357.196H434.803L433.262 362.946C431.843 368.241 427.061 371.921 421.599 371.921Z" fill="#2D3250"/>
<path d="M426.955 365.254H313.652C308.813 365.254 305.259 360.693 306.424 355.978L327.837 269.243C328.661 265.907 331.643 263.564 335.066 263.564H448.369C453.208 263.564 456.762 268.125 455.598 272.841L434.184 359.576C433.361 362.912 430.379 365.254 426.955 365.254Z" fill="#2D3250"/>
<path d="M426.955 365.468H313.652C311.287 365.468 309.092 364.397 307.63 362.531C306.159 360.653 305.644 358.246 306.217 355.927L327.63 269.192C328.48 265.754 331.537 263.353 335.065 263.353H448.369C450.734 263.353 452.929 264.423 454.391 266.29C455.861 268.168 456.376 270.574 455.804 272.893L434.39 359.628C433.541 363.066 430.484 365.468 426.955 365.468ZM335.066 263.778C331.733 263.778 328.846 266.046 328.043 269.294L306.63 356.029C306.089 358.22 306.576 360.494 307.965 362.269C309.346 364.031 311.418 365.042 313.652 365.042H426.955C430.288 365.042 433.175 362.774 433.977 359.526L455.391 272.791C455.932 270.601 455.445 268.327 454.056 266.552C452.676 264.789 450.602 263.778 448.369 263.778H335.066V263.778Z" fill="#2D3250"/>
<path d="M392.235 297.033C392.235 299.107 390.56 300.789 388.493 300.789C386.427 300.789 384.752 299.107 384.752 297.033C384.752 294.958 386.427 293.276 388.493 293.276C390.56 293.276 392.235 294.958 392.235 297.033Z" fill="#FFA054"/>
<path d="M479.158 336.21C479.158 336.21 485.599 343.448 479.742 350.383L554.803 350.072C554.803 350.072 558.37 347.72 558.657 343.634C558.945 339.547 552.353 336.724 552.353 336.724L479.158 336.21Z" fill="white"/>
<path d="M479.741 350.808C479.576 350.808 479.426 350.712 479.356 350.562C479.286 350.412 479.309 350.235 479.416 350.108C484.971 343.531 478.902 336.562 478.84 336.492C478.728 336.367 478.701 336.187 478.77 336.034C478.84 335.881 479.007 335.781 479.161 335.784L552.355 336.298C552.412 336.299 552.468 336.31 552.52 336.333C552.8 336.453 559.387 339.324 559.081 343.663C558.782 347.91 555.189 350.326 555.036 350.426C554.967 350.472 554.886 350.496 554.804 350.497L479.743 350.808C479.743 350.808 479.742 350.808 479.741 350.808ZM480.027 336.641C481.429 338.606 484.732 344.32 480.619 349.954L554.666 349.647C555.228 349.237 557.99 347.051 558.233 343.603C558.48 340.086 552.976 337.472 552.261 337.148L480.027 336.641Z" fill="#2D3250"/>
<path d="M577.397 334.343C577.397 334.343 583.517 335.978 584.334 342.348C585.17 348.868 579.037 352.055 579.037 352.055H477.093C476.172 352.055 475.436 351.602 475.471 351.057L475.575 349.472C475.609 348.956 476.324 348.549 477.196 348.549H550.32C552.435 348.549 554.449 347.441 555.423 345.562C555.837 344.764 556.081 343.814 555.946 342.724C555.708 340.809 554.543 339.58 553.456 338.834C552.501 338.179 551.361 337.848 550.202 337.848H477.029C476.133 337.848 475.406 337.418 475.406 336.887V335.287C475.406 334.756 476.133 334.326 477.029 334.326L577.397 334.343Z" fill="white"/>
<path d="M579.036 352.48H477.092C476.378 352.48 475.731 352.244 475.362 351.85C475.136 351.609 475.027 351.325 475.046 351.029L475.15 349.444C475.199 348.691 476.078 348.124 477.195 348.124H550.32C552.322 348.124 554.177 347.041 555.045 345.366C555.473 344.54 555.635 343.669 555.524 342.776C555.343 341.32 554.566 340.111 553.215 339.185C552.345 338.588 551.303 338.273 550.202 338.273H477.028C475.88 338.273 474.98 337.664 474.98 336.887V335.286C474.98 334.879 475.23 334.498 475.664 334.241C476.036 334.021 476.52 333.9 477.028 333.9C477.028 333.9 477.029 333.9 477.029 333.9L577.397 333.918C577.434 333.918 577.471 333.923 577.506 333.932C577.57 333.949 583.911 335.717 584.755 342.294C585.62 349.03 579.296 352.399 579.232 352.432C579.172 352.463 579.104 352.48 579.036 352.48ZM477.195 348.974C476.486 348.974 476.013 349.285 475.999 349.5L475.895 351.085C475.892 351.141 475.921 351.203 475.983 351.268C476.138 351.435 476.522 351.629 477.092 351.629H578.928C579.688 351.206 584.655 348.199 583.911 342.402C583.178 336.682 577.906 334.94 577.337 334.768L477.029 334.751C477.028 334.751 477.028 334.751 477.028 334.751C476.675 334.751 476.336 334.832 476.098 334.973C475.933 335.07 475.831 335.19 475.831 335.286V336.887C475.831 337.1 476.309 337.422 477.028 337.422H550.202C551.476 337.422 552.684 337.789 553.696 338.483C555.235 339.539 556.158 340.987 556.368 342.672C556.5 343.738 556.309 344.776 555.8 345.758C554.772 347.742 552.672 348.974 550.32 348.974L477.195 348.974Z" fill="#2D3250"/>
<path d="M465.008 353.746C465.008 353.746 471.449 362.031 465.591 369.97L540.652 369.613C540.652 369.613 544.219 366.922 544.507 362.244C544.795 357.566 538.202 354.335 538.202 354.335L465.008 353.746Z" fill="white"/>
<path d="M465.591 370.394C465.431 370.394 465.284 370.304 465.212 370.162C465.139 370.018 465.153 369.846 465.249 369.717C470.85 362.125 464.734 354.087 464.672 354.007C464.572 353.878 464.554 353.703 464.626 353.557C464.698 353.411 464.856 353.321 465.011 353.32L538.205 353.909C538.269 353.909 538.332 353.924 538.389 353.952C538.669 354.089 545.232 357.365 544.931 362.269C544.634 367.087 541.06 369.837 540.908 369.952C540.835 370.007 540.746 370.037 540.654 370.038L465.593 370.394C465.592 370.394 465.592 370.394 465.591 370.394ZM465.816 354.177C467.168 356.303 470.68 362.985 466.406 369.54L540.5 369.188C541.078 368.704 543.838 366.19 544.082 362.217C544.332 358.148 538.846 355.148 538.098 354.759L465.816 354.177Z" fill="#2D3250"/>
<path d="M563.247 351.608C563.247 351.608 569.366 353.479 570.184 360.771C571.02 368.234 564.887 371.882 564.887 371.882H462.942C462.022 371.882 461.286 371.364 461.321 370.74L461.424 368.926C461.458 368.335 462.174 367.869 463.046 367.869H535.727C538.228 367.869 540.561 366.391 541.44 364.047C541.749 363.222 541.912 362.27 541.796 361.201C541.619 359.566 540.925 358.368 540.134 357.511C538.994 356.277 537.361 355.619 535.683 355.619H462.878C461.982 355.619 461.256 355.127 461.256 354.52V352.687C461.256 352.08 461.982 351.588 462.879 351.588L563.247 351.608Z" fill="#FFA054"/>
<path d="M49.8547 254.629C33.8192 254.629 20.8203 266.292 20.8203 280.678V317.257C20.8203 331.644 33.8192 343.307 49.8547 343.307C65.8898 343.307 78.8891 331.644 78.8891 317.257V280.678C78.8891 266.291 65.8902 254.629 49.8547 254.629Z" fill="white"/>
<path d="M49.8587 344.197C33.3581 344.197 19.9336 332.112 19.9336 317.257V280.678C19.9336 265.823 33.3581 253.737 49.8587 253.737C66.3593 253.737 79.7842 265.823 79.7842 280.678V317.257C79.7838 332.112 66.3589 344.197 49.8587 344.197ZM49.8587 255.519C34.3405 255.519 21.7158 266.805 21.7158 280.678V317.257C21.7158 331.129 34.3405 342.415 49.8587 342.415C65.3769 342.415 78.002 331.13 78.002 317.257V280.678C78.002 266.805 65.3769 255.519 49.8587 255.519Z" fill="#2D3250"/>
<path d="M49.8598 376.761C49.3672 376.761 48.9688 376.362 48.9688 375.87V298.964C48.9688 298.472 49.3672 298.073 49.8598 298.073C50.3525 298.073 50.7509 298.472 50.7509 298.964V375.87C50.7505 376.361 50.352 376.761 49.8598 376.761Z" fill="#2D3250"/>
<path d="M24.5063 302.29C14.7751 302.29 6.88672 309.368 6.88672 318.098V340.297C6.88672 349.028 14.7751 356.105 24.5063 356.105C34.2376 356.105 42.126 349.028 42.126 340.297V318.098C42.126 309.368 34.2376 302.29 24.5063 302.29Z" fill="white"/>
<path d="M24.5111 356.996C14.3043 356.996 6 349.504 6 340.296V318.098C6 308.89 14.3043 301.398 24.5111 301.398C34.7176 301.398 43.0214 308.89 43.0214 318.098V340.296C43.0214 349.504 34.7176 356.996 24.5111 356.996ZM24.5111 303.181C15.2863 303.181 7.78176 309.873 7.78176 318.098V340.297C7.78176 348.522 15.2863 355.214 24.5111 355.214C33.7356 355.214 41.2397 348.522 41.2397 340.297V318.098C41.2393 309.872 33.7352 303.181 24.5111 303.181Z" fill="#2D3250"/>
<path d="M24.5122 376.762C24.0196 376.762 23.6211 376.363 23.6211 375.871V329.2C23.6211 328.708 24.0196 328.309 24.5122 328.309C25.0048 328.309 25.4033 328.707 25.4033 329.2V375.871C25.4029 376.362 25.0044 376.762 24.5122 376.762Z" fill="#2D3250"/>
</svg>
