<svg width="574" height="378" viewBox="0 0 574 378" fill="none" xmlns="http://www.w3.org/2000/svg">
<path d="M172.13 296.229L437.434 296.229V111.703L172.13 111.703V296.229Z" fill="#2D3250"/>
<path d="M429.111 271.788V120.022L180.455 120.022L180.455 271.788L429.111 271.788Z" fill="#F2E6DC"/>
<path d="M304.797 288.013C307.555 288.006 309.786 285.765 309.778 283.008C309.771 280.251 307.529 278.022 304.771 278.029C302.013 278.036 299.783 280.277 299.79 283.034C299.797 285.791 302.039 288.02 304.797 288.013Z" fill="#F2E6DC"/>
<path d="M340.565 345.623H269.002C268.894 345.623 268.807 345.535 268.807 345.427V341.938C268.807 341.925 268.808 341.913 268.81 341.901L276.665 300.176C276.682 300.084 276.763 300.017 276.857 300.017H332.71C332.804 300.017 332.885 300.084 332.902 300.176L340.757 341.901C340.759 341.913 340.761 341.925 340.761 341.938V345.427C340.76 345.535 340.673 345.623 340.565 345.623ZM269.198 345.231H340.369V341.956L332.548 300.408H277.019L269.198 341.956L269.198 345.231Z" fill="#BC8271"/>
<path d="M340.565 349.985H269.002C268.894 349.985 268.807 349.897 268.807 349.789C268.807 349.681 268.894 349.594 269.002 349.594H340.565C340.673 349.594 340.76 349.681 340.76 349.789C340.76 349.897 340.673 349.985 340.565 349.985Z" fill="#BC8271"/>
<path d="M291.888 263.328L285.299 261.442C285.63 258.061 285.684 254.698 285.479 251.377L292.125 249.718L286.512 227.218L279.85 228.881C278.457 225.826 276.825 222.884 274.971 220.084L279.909 215.315L263.794 198.638L258.867 203.397C256.157 201.464 253.275 199.728 250.232 198.219L252.121 191.631L229.822 185.247L227.933 191.834C224.551 191.504 221.187 191.451 217.864 191.657L216.206 185.014L193.698 190.631L195.359 197.29C192.302 198.684 189.359 200.316 186.558 202.17L181.788 197.235L165.102 213.35L169.86 218.274C167.926 220.983 166.189 223.864 164.678 226.907L158.089 225.02H158.089L151.696 247.314L158.285 249.201C157.954 252.581 157.9 255.945 158.105 259.266L151.459 260.925L157.072 283.424L163.733 281.762C165.127 284.817 166.759 287.759 168.613 290.559L163.674 295.328L179.79 312.005L184.717 307.246C187.426 309.179 190.309 310.914 193.351 312.424L191.462 319.011L213.762 325.396L215.651 318.809C219.032 319.138 222.397 319.191 225.72 318.986L227.377 325.629L249.886 320.012L248.225 313.353C251.281 311.959 254.225 310.327 257.026 308.473L261.795 313.408L278.482 297.293L273.723 292.369C275.657 289.66 277.394 286.778 278.905 283.736L285.494 285.623L291.888 263.328ZM260.78 267.878C254.211 288.303 232.604 300.283 211.797 295.038C188.822 289.246 175.549 265.317 182.803 242.764C189.372 222.339 210.979 210.359 231.786 215.604C254.762 221.396 268.034 245.325 260.78 267.878Z" fill="white"/>
<path d="M221.794 306.303C217.125 306.303 212.4 305.661 207.738 304.326C194.645 300.577 183.798 291.955 177.194 280.049C170.589 268.142 169.02 254.376 172.773 241.286C176.159 229.479 183.689 219.293 193.976 212.603C204.16 205.981 216.367 203.195 228.347 204.759C228.482 204.777 228.578 204.9 228.56 205.035C228.542 205.17 228.419 205.266 228.283 205.248C203.742 202.045 180.08 217.595 173.247 241.421C169.53 254.385 171.085 268.018 177.625 279.809C184.165 291.601 194.908 300.139 207.874 303.851C229.991 310.184 253.595 300.788 265.274 281.003C265.343 280.886 265.494 280.847 265.612 280.916C265.729 280.985 265.768 281.137 265.699 281.254C256.367 297.062 239.494 306.303 221.794 306.303Z" fill="#F2E6DC"/>
<path d="M374.117 80.7871H158.021V151.339H374.117V80.7871Z" fill="white"/>
<path d="M379.369 155.633H163.274C163.151 155.633 163.051 155.533 163.051 155.41V85.4707C163.051 85.3472 163.151 85.2471 163.274 85.2471H379.369C379.493 85.2471 379.593 85.3472 379.593 85.4707V155.41C379.593 155.533 379.493 155.633 379.369 155.633ZM163.498 155.186H379.146V85.6943H163.498V155.186Z" fill="#E2A18D"/>
<path d="M314.543 99.5048H278.645C278.522 99.5048 278.422 99.4047 278.422 99.2812C278.422 99.1578 278.522 99.0576 278.645 99.0576H314.543C314.666 99.0576 314.766 99.1578 314.766 99.2812C314.766 99.4047 314.666 99.5048 314.543 99.5048Z" fill="#2D3250"/>
<path d="M257.636 99.5048H177.663C177.539 99.5048 177.439 99.4047 177.439 99.2812C177.439 99.1578 177.539 99.0576 177.663 99.0576H257.636C257.76 99.0576 257.859 99.1578 257.859 99.2812C257.859 99.4047 257.759 99.5048 257.636 99.5048Z" fill="#2D3250"/>
<path d="M314.541 106.998H220.583C220.459 106.998 220.359 106.898 220.359 106.774C220.359 106.651 220.459 106.551 220.583 106.551H314.541C314.665 106.551 314.765 106.651 314.765 106.774C314.765 106.898 314.665 106.998 314.541 106.998Z" fill="#2D3250"/>
<path d="M209.409 106.998H177.663C177.539 106.998 177.439 106.898 177.439 106.774C177.439 106.651 177.539 106.551 177.663 106.551H209.409C209.533 106.551 209.633 106.651 209.633 106.774C209.632 106.898 209.532 106.998 209.409 106.998Z" fill="#2D3250"/>
<path d="M314.543 114.024H278.645C278.522 114.024 278.422 113.924 278.422 113.801C278.422 113.677 278.522 113.577 278.645 113.577H314.543C314.666 113.577 314.766 113.677 314.766 113.801C314.766 113.924 314.666 114.024 314.543 114.024Z" fill="#2D3250"/>
<path d="M257.636 114.024H177.663C177.539 114.024 177.439 113.924 177.439 113.801C177.439 113.677 177.539 113.577 177.663 113.577H257.636C257.76 113.577 257.859 113.677 257.859 113.801C257.859 113.924 257.759 114.024 257.636 114.024Z" fill="#2D3250"/>
<path d="M314.542 121.518H246.845C246.721 121.518 246.621 121.417 246.621 121.294C246.621 121.17 246.721 121.07 246.845 121.07H314.542C314.666 121.07 314.766 121.17 314.766 121.294C314.766 121.417 314.666 121.518 314.542 121.518Z" fill="#2D3250"/>
<path d="M230.418 121.518H177.663C177.539 121.518 177.439 121.417 177.439 121.294C177.439 121.17 177.539 121.07 177.663 121.07H230.418C230.541 121.07 230.641 121.17 230.641 121.294C230.641 121.417 230.541 121.518 230.418 121.518Z" fill="#2D3250"/>
<path d="M314.544 132.289H231.749C231.625 132.289 231.525 132.189 231.525 132.065C231.525 131.942 231.625 131.842 231.749 131.842H314.544C314.667 131.842 314.767 131.942 314.767 132.065C314.767 132.189 314.667 132.289 314.544 132.289Z" fill="#2D3250"/>
<path d="M314.543 139.782H281.882C281.758 139.782 281.658 139.682 281.658 139.559C281.658 139.435 281.758 139.335 281.882 139.335H314.543C314.667 139.335 314.767 139.435 314.767 139.559C314.767 139.682 314.667 139.782 314.543 139.782Z" fill="#2D3250"/>
<path d="M269.053 139.782H223.565C223.442 139.782 223.342 139.682 223.342 139.559C223.342 139.435 223.442 139.335 223.565 139.335H269.053C269.177 139.335 269.277 139.435 269.277 139.559C269.277 139.682 269.177 139.782 269.053 139.782Z" fill="#2D3250"/>
<path d="M333.949 103.852L333.963 114.243C333.97 119.982 338.625 124.628 344.359 124.62C350.094 124.613 354.736 119.955 354.729 114.216L354.715 103.825L333.949 103.852Z" fill="#2D3250"/>
<path d="M344.304 108.677C359.151 108.677 371.187 96.6327 371.187 81.7751C371.187 66.9175 359.151 54.873 344.304 54.873C329.458 54.873 317.422 66.9175 317.422 81.7751C317.422 96.6327 329.458 108.677 344.304 108.677Z" fill="#EFBC73"/>
<path d="M344.282 118.011C340.743 118.011 334.172 117.671 334.17 116.377C334.17 116.254 334.27 116.153 334.393 116.153C334.517 116.153 334.617 116.253 334.617 116.376C334.719 116.803 338.025 117.564 344.253 117.564C344.286 117.564 344.318 117.564 344.352 117.564C350.644 117.556 353.982 116.78 354.083 116.349C354.083 116.225 354.183 116.126 354.306 116.126C354.307 116.126 354.307 116.126 354.307 116.126C354.43 116.126 354.53 116.227 354.53 116.35C354.532 117.653 347.873 118.006 344.352 118.011C344.329 118.011 344.305 118.011 344.282 118.011Z" fill="white"/>
<path d="M344.276 113.456C340.737 113.456 334.166 113.116 334.164 111.822C334.164 111.699 334.264 111.599 334.387 111.598C334.511 111.598 334.611 111.698 334.611 111.822C334.714 112.251 338.056 113.009 344.346 113.009C350.638 113.001 353.976 112.226 354.077 111.794C354.077 111.67 354.177 111.572 354.301 111.571C354.301 111.571 354.301 111.571 354.301 111.571C354.424 111.571 354.524 111.672 354.524 111.796C354.526 113.099 347.867 113.451 344.346 113.456C344.323 113.456 344.299 113.456 344.276 113.456Z" fill="white"/>
<path d="M340.737 102.358C340.65 102.358 340.567 102.307 340.531 102.222L332.057 82.3663C332.009 82.2527 332.062 82.1212 332.175 82.0727C332.287 82.0244 332.42 82.0767 332.469 82.1905L340.942 102.047C340.991 102.16 340.938 102.292 340.824 102.34C340.796 102.353 340.766 102.358 340.737 102.358Z" fill="#2D3250"/>
<path d="M347.917 102.349C347.888 102.349 347.858 102.343 347.83 102.331C347.716 102.283 347.663 102.151 347.711 102.038L356.133 82.1598C356.182 82.0457 356.314 81.9934 356.426 82.041C356.54 82.0893 356.593 82.2206 356.545 82.3342L348.123 102.212C348.087 102.298 348.004 102.349 347.917 102.349Z" fill="#2D3250"/>
<path d="M339.472 84.8979C338.422 84.8979 337.375 84.6443 336.461 84.1235C336.353 84.0625 336.316 83.9258 336.377 83.8185C336.438 83.7109 336.574 83.6736 336.682 83.7346C338.605 84.8297 341.161 84.6512 342.937 83.3449C341.333 82.4826 340.037 81.0328 339.489 79.2837C339.096 78.0281 339.129 76.8009 339.584 75.828C340.134 74.6497 341.326 73.9067 342.487 74.0214C343.833 74.1545 344.782 75.3369 345.22 76.3991C346.165 78.6938 345.547 81.5345 343.754 83.2427C344.728 83.6501 345.791 83.8326 346.849 83.725C349.837 83.4223 352.419 80.8429 352.725 77.8525C352.738 77.7298 352.85 77.6403 352.971 77.6529C353.093 77.6654 353.183 77.7752 353.17 77.8982C352.843 81.0918 350.086 83.8467 346.894 84.17C345.691 84.2917 344.479 84.0627 343.384 83.5656C342.285 84.4435 340.876 84.8979 339.472 84.8979ZM342.257 74.4577C341.354 74.4577 340.423 75.0883 339.989 76.0174C339.582 76.8888 339.556 78.0015 339.916 79.1499C340.448 80.8485 341.734 82.2458 343.314 83.0403C345.079 81.4717 345.706 78.7539 344.806 76.5697C344.418 75.6274 343.593 74.5802 342.443 74.4666C342.381 74.4608 342.319 74.4577 342.257 74.4577Z" fill="white"/>
<path d="M20.692 357.817L3.60742 357.561L8.69789 335.541L26.108 338.442L20.692 357.817Z" fill="white"/>
<path d="M44.5616 369.155H0.320312L4.39393 352.249H21.726L34.2594 356.071C40.4019 357.734 44.6181 363.089 44.5616 369.155Z" fill="#FFD092"/>
<path d="M24.4555 356.724C24.4054 356.724 24.3553 356.705 24.3171 356.667C24.2406 356.591 24.2406 356.467 24.3171 356.39L27.0865 353.622C27.163 353.545 27.2867 353.545 27.3632 353.622C27.4397 353.698 27.4397 353.822 27.3632 353.899L24.5938 356.667C24.5557 356.705 24.5056 356.724 24.4555 356.724Z" fill="#2D3250"/>
<path d="M27.6039 357.669C27.5538 357.669 27.5037 357.65 27.4656 357.611C27.3891 357.535 27.3891 357.411 27.4656 357.335L30.2351 354.566C30.3116 354.49 30.4353 354.49 30.5118 354.566C30.5883 354.643 30.5883 354.767 30.5118 354.843L27.7422 357.611C27.7039 357.65 27.654 357.669 27.6039 357.669Z" fill="#2D3250"/>
<path d="M100.438 361.112L83.3535 360.856L83.8812 335.541L101.291 338.442L100.438 361.112Z" fill="white"/>
<path d="M123.966 369.155H79.7246L83.5345 352.249H101.13L113.664 356.071C119.806 357.734 124.022 363.089 123.966 369.155Z" fill="#FFD092"/>
<path d="M103.873 357.004C103.823 357.004 103.773 356.985 103.735 356.946C103.659 356.87 103.659 356.746 103.735 356.67L106.505 353.901C106.581 353.825 106.705 353.825 106.781 353.901C106.858 353.978 106.858 354.101 106.781 354.178L104.012 356.946C103.974 356.985 103.924 357.004 103.873 357.004Z" fill="#2D3250"/>
<path d="M107.024 357.948C106.974 357.948 106.924 357.929 106.886 357.891C106.809 357.814 106.809 357.69 106.886 357.614L109.655 354.845C109.732 354.769 109.855 354.769 109.932 354.845C110.008 354.922 110.008 355.046 109.932 355.122L107.162 357.891C107.124 357.929 107.074 357.948 107.024 357.948Z" fill="#2D3250"/>
<path d="M78.4902 191.014L66.7751 238.118L66.7637 238.163L66.7611 238.21C65.0519 268.306 54.5982 294.339 44.5632 312.856C39.5466 322.113 34.6373 329.486 30.9834 334.544C29.1566 337.073 27.6439 339.022 26.5889 340.338C26.0614 340.996 25.6483 341.496 25.3677 341.83C25.2513 341.969 25.1576 342.08 25.0881 342.161H6.3936L6.43307 341.939C6.52752 341.409 6.66698 340.628 6.84702 339.623C7.2071 337.614 7.72946 334.711 8.37856 331.14C9.67676 323.996 11.4819 314.175 13.5095 303.464C17.5657 282.036 22.5093 257.066 26.0664 242.843C29.6217 228.627 34.0337 215.659 37.5576 206.243C39.3193 201.536 40.8586 197.718 41.9571 195.078C42.5063 193.758 42.9454 192.732 43.2469 192.037C43.3907 191.705 43.5032 191.449 43.5815 191.271L78.4902 191.014Z" fill="white" stroke="#2D3250"/>
<path d="M62.4621 187.582H85.6406C85.6562 187.625 85.6732 187.672 85.6918 187.723C85.804 188.034 85.9698 188.494 86.1842 189.093C86.6129 190.291 87.2359 192.046 88.0124 194.272C89.5654 198.723 91.7323 205.057 94.1876 212.585C99.0988 227.642 105.162 247.471 109.774 266.571C114.367 285.592 112.597 304.167 109.672 318.001C108.209 324.916 106.46 330.639 105.076 334.632C104.384 336.628 103.784 338.192 103.358 339.254C103.145 339.786 102.975 340.192 102.859 340.465C102.841 340.506 102.825 340.544 102.81 340.579H81.2025C80.3679 308.346 74.9794 284.986 69.7794 269.655C67.1665 261.951 64.6015 256.276 62.6866 252.523C61.7292 250.646 60.9344 249.249 60.3774 248.32C60.0989 247.855 59.8799 247.507 59.7297 247.275C59.6739 247.188 59.6277 247.118 59.5914 247.063L62.4621 187.582Z" fill="white" stroke="#2D3250"/>
<path d="M65.5103 254.47C65.4972 254.47 65.4837 254.469 65.4704 254.466C65.3647 254.444 65.2966 254.341 65.3186 254.235L69.3329 234.852C69.3433 234.802 69.3726 234.758 69.4149 234.73L75.2557 230.778C75.3457 230.717 75.467 230.741 75.5275 230.83C75.5881 230.92 75.5646 231.041 75.475 231.102L69.6997 235.009L65.7017 254.314C65.6827 254.407 65.6011 254.47 65.5103 254.47Z" fill="#F2E6DC"/>
<path d="M84.8599 138.478C79.4767 137.327 70.7992 135.816 62.9146 136.665C53.7245 137.656 39.8289 142.144 33.8369 145.718C20.4411 153.71 15.125 160.625 15.125 160.625L35.4387 165.193L25.9097 192.895C22.6033 202.508 24.0296 213.458 29.6042 221.96L43.9658 221.758L41.7421 206.389L48.6667 220.267L88.5091 193.486L90.0018 168.836L115.742 161.678C115.742 161.678 94.304 140.497 84.8599 138.478Z" fill="#EFBC73"/>
<path d="M89.2276 177.449C89.2276 177.449 100.609 185.831 109.304 183.121C117.999 180.41 119.7 174.173 119.166 170.397C118.633 166.62 104.481 142.284 82.7313 137.779C82.7313 137.779 80.6804 165.46 89.2276 177.449Z" fill="#EFBC73"/>
<path d="M89.4633 177.493C89.4621 177.493 89.4611 177.493 89.4599 177.493C89.3517 177.491 89.2658 177.402 89.2676 177.294L89.3271 173.771C89.3292 173.663 89.428 173.578 89.5261 173.579C89.6343 173.581 89.7202 173.67 89.7184 173.778L89.6589 177.3C89.657 177.407 89.5699 177.493 89.4633 177.493Z" fill="#2D3250"/>
<path d="M35.7762 225.542L48.4358 211.864L44.0569 195.255L30.6498 195.379L17.9902 209.057L24.7495 223.209L35.7762 225.542Z" fill="white"/>
<path d="M138.641 114.395L48.4344 211.863L30.6484 195.378L120.855 97.9102L132.777 102.88L138.641 114.395Z" fill="#FFA054"/>
<path d="M7.5999 220.282C-0.788792 229.346 -1.95864 239.203 2.953 243.755C7.86443 248.307 16.9972 245.831 25.3859 236.767L36.038 225.257L18.252 208.772L7.5999 220.282Z" fill="#2D3250"/>
<path d="M120.855 97.9108L138.641 114.396L144.064 100.985L142.274 94.2379L133.802 91.4736L120.855 97.9108Z" fill="#F2E6DC"/>
<path d="M133.803 91.473L144.065 100.985L151.462 82.6924L133.803 91.473Z" fill="#40484C"/>
<path d="M71.4525 172.429C69.465 173.031 60.8047 174.213 59.4468 178.05C58.0794 181.915 59.6366 186.155 62.2009 189.335C62.2174 189.338 62.2357 189.34 62.252 189.342C63.2678 189.842 64.8652 190.435 66.7314 190.215C68.8588 189.964 69.2979 188.898 71.5031 188.284C75.2256 187.248 77.6733 189.364 78.3005 188.149C78.7312 187.314 77.3586 186.019 75.7973 185.165C74.1944 184.287 72.7847 184.396 72.7853 184.096C72.7861 183.767 74.2314 183.843 76.0381 183.771C76.8775 183.738 79.2319 185.064 79.9879 184.009C80.5907 183.169 78.4917 181.177 76.0141 180.668C74.2614 180.307 72.7354 181.147 72.6387 180.835C72.5662 180.602 73.4877 180.124 74.4038 179.947C75.9153 179.656 78.3385 180.987 79.0157 180.003C79.679 179.039 77.8151 177.332 75.5666 176.719C73.6708 176.202 72.0138 177.219 71.8913 176.833C71.8052 176.561 72.4531 175.952 74.126 175.135C75.5224 174.452 78.6744 174.022 78.1845 172.46C77.7726 171.147 74.4523 171.52 71.4525 172.429Z" fill="white"/>
<path d="M28.915 181.189C24.5436 182.571 21.5027 186.63 21.604 191.191C21.6704 194.182 23.0973 197.285 27.7485 199.204C39.0733 203.878 64.7369 187.942 64.7369 187.942L67.8978 173.268C53.1253 175.717 40.9473 177.388 28.915 181.189Z" fill="white"/>
<path d="M43.92 177.394L46.041 199.298L26.6146 202.301C14.1389 204.229 0.0622387 191.782 2.98284 179.506C5.53854 168.763 11.855 162.748 24.5443 151.972L41.1268 156.899L34.0048 177.788L43.92 177.394Z" fill="#EFBC73"/>
<path d="M34.0043 177.982C33.9833 177.982 33.962 177.979 33.9413 177.972C33.8389 177.937 33.7842 177.826 33.8192 177.723L37.0372 168.285C37.072 168.183 37.1839 168.128 37.2855 168.163C37.3878 168.198 37.4426 168.309 37.4076 168.411L34.1896 177.85C34.1618 177.931 34.0857 177.982 34.0043 177.982Z" fill="#2D3250"/>
<path d="M23.8307 202.712C22.6532 202.712 21.4849 202.596 20.335 202.366C20.229 202.345 20.1603 202.242 20.1816 202.136C20.2027 202.03 20.3057 201.961 20.4119 201.983C22.4297 202.387 24.5067 202.429 26.5853 202.107L45.8292 199.132L45.3389 194.069C45.3283 193.961 45.4072 193.866 45.5146 193.855C45.6236 193.845 45.7177 193.924 45.7283 194.031L46.2366 199.279C46.2468 199.382 46.1744 199.475 46.0716 199.491L26.645 202.494C25.7051 202.639 24.7649 202.712 23.8307 202.712Z" fill="#2D3250"/>
<path d="M31.0665 178.1C30.962 178.1 30.8754 178.018 30.8713 177.913C30.8669 177.805 30.9509 177.714 31.0589 177.709L43.9123 177.198C44.0227 177.195 44.1115 177.278 44.1156 177.386C44.1201 177.494 44.036 177.585 43.928 177.589L31.0745 178.1C31.0718 178.1 31.0691 178.1 31.0665 178.1Z" fill="#2D3250"/>
<path d="M89.127 161.384L102.92 176.657C106.653 180.79 113.058 181.041 117.104 177.212C121.494 173.056 121.176 165.974 116.43 162.229L100.505 149.661L89.127 161.384Z" fill="white"/>
<path d="M98.1323 157.449C100.405 157.815 101.098 158.979 100.894 160.244C100.69 161.509 99.6653 162.395 97.3925 162.029C95.1197 161.662 92.4592 160.18 92.6634 158.916C92.8677 157.651 95.8595 157.082 98.1323 157.449Z" fill="white"/>
<path d="M98.3395 152.995C100.974 153.42 101.777 154.769 101.54 156.235C101.304 157.701 100.116 158.729 97.4821 158.304C94.848 157.878 91.7644 156.161 92.0011 154.696C92.2379 153.23 95.7051 152.57 98.3395 152.995Z" fill="white"/>
<path d="M99.3163 150.114C101.589 150.48 102.614 149.594 102.818 148.329C103.022 147.064 102.329 145.9 100.056 145.534C97.7834 145.167 94.7917 145.736 94.5873 147.001C94.3828 148.265 97.0434 149.747 99.3163 150.114Z" fill="white"/>
<path d="M98.113 154.406C100.747 154.831 101.935 153.804 102.171 152.338C102.408 150.872 101.605 149.523 98.9704 149.098C96.3362 148.673 92.8687 149.332 92.632 150.798C92.3952 152.264 95.4788 153.981 98.113 154.406Z" fill="white"/>
<path d="M49.3048 146.908L48.2872 146.892C45.2664 146.844 42.8567 144.356 42.905 141.335L43.2122 122.124C43.2605 119.103 45.7483 116.694 48.7691 116.742L49.7867 116.758C52.8075 116.806 55.2173 119.294 55.1689 122.315L54.8618 141.526C54.8134 144.547 52.3254 146.957 49.3048 146.908Z" fill="white"/>
<path d="M63.3465 128.605C62.5864 132.323 51.8144 132.847 51.8144 132.847L41.3276 129.706C37.6815 125.806 37.8881 119.69 41.7892 116.045C45.6902 112.401 51.8085 112.607 55.4546 116.507C55.4546 116.507 64.1207 124.819 63.3465 128.605Z" fill="white"/>
<path d="M56.3789 119.122C56.3789 119.122 60.3001 119.346 60.7069 119.993C61.1925 120.764 59.3584 123.225 59.3584 123.225C59.3584 123.225 56.4362 119.078 56.3789 119.122Z" fill="white"/>
<path d="M48.8867 123C48.8867 123 49.684 121.606 51.1309 120.704C51.4387 120.512 52.3951 123.336 52.0159 123.379C50.3485 123.568 48.8867 123 48.8867 123Z" fill="white"/>
<mask id="mask0_3468_6142" style="mask-type:luminance" maskUnits="userSpaceOnUse" x="48" y="119" width="9" height="5">
<path d="M48.8848 123.001C48.8848 123.001 50.0575 120.951 52.1392 120.214C54.2208 119.477 56.4233 120.331 56.4233 120.331C56.4233 120.331 55.2505 122.381 53.1689 123.119C51.0871 123.856 48.8848 123.001 48.8848 123.001Z" fill="white"/>
</mask>
<g mask="url(#mask0_3468_6142)">
<path d="M51.1493 120.603C51.5091 119.05 53.0605 118.082 54.6144 118.441C56.1684 118.801 57.1365 120.352 56.7767 121.905C56.4168 123.459 54.8655 124.426 53.3115 124.067C51.7576 123.707 50.7895 122.156 51.1493 120.603Z" fill="#2D3250"/>
</g>
<path d="M33.123 122.877C33.123 122.877 36.7312 133.486 44.4298 131.809L44.8477 129.442L49.3056 128.12L44.7112 125.252C43.1066 124.004 43.0447 121.601 44.5828 120.272L51.2976 114.473L47.9853 111.067C41.1637 112.312 35.9439 115.865 33.123 122.877Z" fill="#2D3250"/>
<path d="M39.5772 115.313C38.9927 116.146 37.8434 116.348 37.0099 115.764C36.1764 115.18 35.5384 113.725 36.1226 112.892C36.7071 112.059 38.2927 112.163 39.126 112.747C39.9595 113.331 40.1614 114.48 39.5772 115.313Z" fill="#2D3250"/>
<path d="M40.9542 114.781C40.0385 115.225 38.9357 114.843 38.4912 113.928C38.0467 113.013 38.1959 111.431 39.1118 110.987C40.0275 110.542 41.3629 111.403 41.8074 112.319C42.2518 113.234 41.8698 114.336 40.9542 114.781Z" fill="#2D3250"/>
<path d="M43.9237 113.668C42.5965 114.045 41.2151 113.275 40.8383 111.948C40.4615 110.621 41.0346 108.546 42.3617 108.169C43.6889 107.793 45.2674 109.257 45.6443 110.584C46.0211 111.911 45.2508 113.291 43.9237 113.668Z" fill="#2D3250"/>
<path d="M37.5355 117.407C36.9782 118.259 35.836 118.498 34.9841 117.941C34.1322 117.384 33.4473 115.951 34.0046 115.099C34.5618 114.247 36.1498 114.3 37.0019 114.857C37.8536 115.414 38.0927 116.556 37.5355 117.407Z" fill="#2D3250"/>
<path d="M45.945 112.487C44.8241 111.986 44.3218 110.671 44.8233 109.551C45.3248 108.43 46.9024 107.342 48.0233 107.843C49.1442 108.345 49.3839 110.246 48.8824 111.366C48.3812 112.487 47.0659 112.989 45.945 112.487Z" fill="#2D3250"/>
<path d="M36.2538 119.454C35.7666 120.624 34.4224 121.178 33.2514 120.691C32.0806 120.204 30.9135 118.605 31.4007 117.435C31.8879 116.264 33.8448 115.965 35.0159 116.452C36.1869 116.94 36.741 118.283 36.2538 119.454Z" fill="#2D3250"/>
<path d="M34.7705 121.228C34.8345 122.216 34.0857 123.068 33.0978 123.132C32.1099 123.196 30.7403 122.481 30.6762 121.494C30.6122 120.506 31.8779 119.621 32.8658 119.557C33.8537 119.492 34.7064 120.241 34.7705 121.228Z" fill="#2D3250"/>
<path d="M48.2074 114.18C47.1017 113.171 47.0236 111.457 48.0329 110.352C49.0421 109.247 51.2849 108.59 52.3904 109.599C53.4961 110.608 53.0458 112.9 52.0366 114.006C51.0274 115.111 49.3131 115.189 48.2074 114.18Z" fill="#2D3250"/>
<path d="M39.9839 131.013C40.6147 132.743 42.5288 133.634 44.2592 133.003C45.9896 132.373 46.8811 130.459 46.2501 128.73C45.6192 127 43.7051 126.109 41.9749 126.74C40.2443 127.37 39.3531 129.284 39.9839 131.013Z" fill="white"/>
<path d="M60.2477 121.838L64.9914 128.424C65.652 129.341 65.4135 130.621 64.469 131.241C64.2315 131.398 63.9726 131.564 63.6948 131.737C58.8884 134.729 52.875 135.03 47.7973 132.525C46.0962 131.685 45.0901 129.883 45.2684 127.996L45.3271 127.373L47.0802 126.95C47.0802 126.95 50.9176 129.399 52.3593 128.531C53.8009 127.663 55.1703 124.623 60.2477 121.838Z" fill="#2D3250"/>
<path d="M57.8373 126.639C57.3486 126.639 56.8743 126.405 56.579 126.003C56.5151 125.916 56.5337 125.794 56.6209 125.73C56.7078 125.665 56.8303 125.684 56.8942 125.771C57.1555 126.127 57.6025 126.307 58.0342 126.23C58.4816 126.151 58.8434 125.812 58.9557 125.368C58.9823 125.264 59.0886 125.2 59.1934 125.227C59.2983 125.253 59.3615 125.36 59.3353 125.465C59.185 126.057 58.7014 126.509 58.1026 126.616C58.0144 126.631 57.9256 126.639 57.8373 126.639Z" fill="white"/>
<path d="M38.1056 122.567C38.0031 122.567 37.9168 122.487 37.9105 122.384C37.9039 122.276 37.9861 122.183 38.0937 122.176L42.9767 121.876C43.0898 121.87 43.1773 121.952 43.1841 122.06C43.1908 122.167 43.1086 122.26 43.001 122.267L38.1179 122.567C38.1136 122.567 38.1095 122.567 38.1056 122.567Z" fill="white"/>
<path d="M564.327 118.241H382.287V219.606H564.327V118.241Z" fill="white"/>
<path d="M568.753 224.121H386.713C386.605 224.121 386.518 224.033 386.518 223.925V122.56C386.518 122.452 386.605 122.364 386.713 122.364H568.753C568.861 122.364 568.948 122.452 568.948 122.56V223.925C568.948 224.033 568.861 224.121 568.753 224.121ZM386.909 223.729H568.557V122.756H386.909V223.729Z" fill="#E2A18D"/>
<path d="M493.791 136.687H397.354V205.972H493.791V136.687Z" fill="#F7F1EB"/>
<path d="M445.916 183.161C455.21 183.161 462.744 175.622 462.744 166.321C462.744 157.02 455.21 149.48 445.916 149.48C436.622 149.48 429.088 157.02 429.088 166.321C429.088 175.622 436.622 183.161 445.916 183.161Z" fill="#2D3250"/>
<path d="M455.833 166.321L439.986 157.165V175.476L455.833 166.321Z" fill="white"/>
<path d="M489.533 195.14H402.295V199.658H489.533V195.14Z" fill="#2D3250"/>
<path d="M542.048 160.141H508.424C503.537 160.141 499.561 156.165 499.561 151.277C499.561 146.373 503.537 142.396 508.424 142.396H542.048C546.935 142.396 550.912 146.373 550.912 151.26C550.912 156.164 546.935 160.141 542.048 160.141ZM508.424 142.788C503.753 142.788 499.952 146.588 499.952 151.26C499.952 155.949 503.753 159.749 508.424 159.749H542.048C546.72 159.749 550.52 155.949 550.52 151.277C550.52 146.589 546.72 142.788 542.048 142.788H508.424Z" fill="#EFBC73"/>
<path d="M542.045 188.721H508.422C503.635 188.721 499.754 184.84 499.754 180.053V180.036C499.754 175.249 503.635 171.368 508.422 171.368H542.045C546.833 171.368 550.714 175.249 550.714 180.036V180.053C550.714 184.84 546.833 188.721 542.045 188.721Z" fill="#EFBC73"/>
<path d="M536.174 205.812C536.154 205.812 536.133 205.809 536.113 205.803C536.037 205.778 535.983 205.709 535.979 205.628L534.36 178.287C534.355 178.208 534.399 178.133 534.471 178.099C534.542 178.065 534.628 178.078 534.687 178.132L554.875 196.625C554.934 196.679 554.954 196.764 554.926 196.839C554.897 196.914 554.825 196.964 554.744 196.965L543.489 197.053L536.325 205.741C536.287 205.787 536.231 205.812 536.174 205.812ZM534.779 178.746L536.34 205.108L543.246 196.734C543.282 196.689 543.337 196.663 543.395 196.663L554.244 196.577L534.779 178.746Z" fill="#C1AEAE"/>
<path opacity="0.5" d="M189.947 8.84473H286.822V35.3973H277.692V54.8728L258.209 35.3973H189.947V8.84473Z" fill="white"/>
<path d="M274.692 58.096C274.633 58.096 274.575 58.0728 274.532 58.0294L255.116 38.6206H186.948C186.822 38.6206 186.721 38.5187 186.721 38.3932V11.8406C186.721 11.7151 186.822 11.6133 186.948 11.6133H283.823C283.949 11.6133 284.05 11.7151 284.05 11.8406V38.3932C284.05 38.5187 283.949 38.6206 283.823 38.6206H274.92V57.8687C274.92 57.9605 274.864 58.0435 274.779 58.0788C274.751 58.0906 274.721 58.096 274.692 58.096ZM187.175 38.1659H255.21C255.27 38.1659 255.328 38.1898 255.371 38.2325L274.465 57.3199V38.3932C274.465 38.2677 274.567 38.1659 274.692 38.1659H283.596V12.0679H187.175V38.1659Z" fill="#2D3250"/>
<path d="M272.524 21.8214L268.209 22.3672L271.267 25.4583L270.453 29.7287L274.339 27.7771L278.15 29.8704L277.494 25.5729L280.664 22.5964L276.372 21.8921L274.52 17.959L272.524 21.8214Z" fill="#FFA054"/>
<path d="M254.537 21.8214L250.223 22.3672L253.281 25.4583L252.466 29.7287L256.352 27.7771L260.164 29.8704L259.508 25.5729L262.677 22.5964L258.386 21.8921L256.533 17.959L254.537 21.8214Z" fill="#FFA054"/>
<path d="M236.553 21.8214L232.238 22.3672L235.296 25.4583L234.482 29.7287L238.368 27.7771L242.18 29.8704L241.523 25.5729L244.693 22.5964L240.401 21.8921L238.549 17.959L236.553 21.8214Z" fill="#FFA054"/>
<path d="M218.568 21.8214L214.254 22.3672L217.312 25.4583L216.498 29.7287L220.384 27.7771L224.195 29.8704L223.539 25.5729L226.708 22.5964L222.417 21.8921L220.564 17.959L218.568 21.8214Z" fill="#FFA054"/>
<path d="M200.582 21.8214L196.268 22.3672L199.325 25.4583L198.511 29.7287L202.397 27.7771L206.209 29.8704L205.553 25.5729L208.722 22.5964L204.431 21.8921L202.578 17.959L200.582 21.8214Z" fill="#FFA054"/>
</svg>
