<svg width="55" height="55" viewBox="0 0 55 55" fill="none" xmlns="http://www.w3.org/2000/svg">
<path d="M6.14219 0.753906H49.3422C50.7081 0.753906 52.018 1.29649 52.9838 2.26231C53.9496 3.22812 54.4922 4.53804 54.4922 5.90391V49.1039C54.4922 50.4698 53.9496 51.7797 52.9838 52.7455C52.018 53.7113 50.7081 54.2539 49.3422 54.2539H6.14219C4.77632 54.2539 3.4664 53.7113 2.50059 52.7455C1.53478 51.7797 0.992188 50.4698 0.992188 49.1039V5.90391C0.992188 4.53804 1.53478 3.22812 2.50059 2.26231C3.4664 1.29649 4.77632 0.753906 6.14219 0.753906ZM50.7918 50.5535C51.1762 50.169 51.3922 49.6476 51.3922 49.1039V5.90391C51.3922 5.36021 51.1762 4.83879 50.7918 4.45434C50.4073 4.06989 49.8859 3.85391 49.3422 3.85391H6.14219C5.59849 3.85391 5.07707 4.06989 4.69262 4.45434C4.30817 4.83879 4.09219 5.36021 4.09219 5.90391V49.1039C4.09219 49.6476 4.30817 50.169 4.69262 50.5535C5.07707 50.9379 5.59849 51.1539 6.14219 51.1539H49.3422C49.8859 51.1539 50.4073 50.9379 50.7918 50.5535Z" fill="#FC5185" stroke="#F3F3F3" stroke-width="0.5"/>
<path d="M35.1465 21.7873L35.1539 21.7828L35.161 21.7779C36.2978 20.989 37.6811 20.5618 39.1041 20.5625C40.936 20.6043 42.6727 21.3156 43.9384 22.5368C45.2041 23.7581 45.8964 25.3899 45.8714 27.0768L45.8714 27.0768V27.0805V38.3125C45.8714 38.7174 45.6984 39.1098 45.3837 39.4021C45.069 39.6945 44.6388 39.8618 44.1865 39.8625C43.9016 39.8556 43.624 39.7826 43.3791 39.651C43.1335 39.519 42.9296 39.333 42.7846 39.1115L42.6535 38.9114L42.4478 39.0335C41.5382 39.5735 40.4798 39.8617 39.3975 39.8625H38.7195C37.115 39.8625 35.5797 39.2703 34.4504 38.2212C33.3217 37.1727 32.6914 35.7547 32.6914 34.2805C32.6914 32.8063 33.3217 31.3883 34.4504 30.3398C35.5797 29.2907 37.115 28.6985 38.7195 28.6985H42.3042H42.5542V28.4485V27.0844C42.5814 26.2002 42.2309 25.3455 41.5855 24.7059C40.9396 24.0659 40.051 23.6928 39.1151 23.6626L39.1151 23.6624L39.1046 23.6625C38.4077 23.6692 37.7291 23.8788 37.1641 24.2639L37.1579 24.2682L37.1519 24.2728C36.9752 24.4097 36.7691 24.5122 36.546 24.5732C36.323 24.6343 36.0885 24.6523 35.8573 24.626L35.8291 24.8744L35.8573 24.626C35.6261 24.5997 35.4039 24.5298 35.2043 24.4212C35.0048 24.3126 34.8327 24.1679 34.6979 23.997C34.563 23.8261 34.4682 23.6325 34.4181 23.4283C34.368 23.2243 34.3634 23.0131 34.4046 22.8074C34.4459 22.6017 34.5322 22.405 34.6593 22.2295C34.7865 22.0539 34.952 21.9031 35.1465 21.7873ZM42.5542 32.0485V31.7985H42.3042H38.6613C37.9635 31.7985 37.2909 32.0559 36.7922 32.5191C36.2929 32.9829 36.0086 33.616 36.0086 34.2805C36.0086 34.945 36.2929 35.5781 36.7922 36.0419C37.2909 36.5052 37.9635 36.7625 38.6613 36.7625H39.3936C39.7118 36.7726 40.0292 36.7233 40.3273 36.6174C40.6267 36.5109 40.9012 36.3491 41.1339 36.1408L41.1339 36.1408L41.1373 36.1377L42.4743 34.8957L42.5542 34.8215V34.7125V32.0485Z" fill="#FC5185" stroke="#F3F3F3" stroke-width="0.5"/>
<path d="M21.6149 16.1714L21.6149 16.1714C21.499 15.8747 21.2862 15.615 21.0021 15.43C20.7178 15.2449 20.3771 15.1445 20.0264 15.1445C19.6757 15.1445 19.335 15.2449 19.0507 15.43C18.7666 15.615 18.5538 15.8747 18.4378 16.1714L18.4368 16.174L18.4368 16.174L9.7175 37.7734C9.71748 37.7735 9.71747 37.7735 9.71745 37.7735C9.64137 37.9634 9.6065 38.1647 9.61437 38.3661C9.62224 38.5676 9.67275 38.7663 9.76366 38.9509C9.85461 39.1357 9.98444 39.3032 10.1467 39.4434C10.309 39.5836 10.5004 39.6935 10.7104 39.7662C10.9204 39.8388 11.1442 39.8724 11.3689 39.8649C11.5936 39.8573 11.814 39.8087 12.0175 39.7222C12.2209 39.6358 12.4029 39.5135 12.5534 39.3631C12.7039 39.2127 12.8201 39.0374 12.8962 38.8474L12.8963 38.8473L14.9696 33.6813L15.0325 33.5244H15.2016H24.8899H25.059L25.122 33.6813L27.1952 38.8471L21.6149 16.1714ZM21.6149 16.1714L21.6161 16.1744M21.6149 16.1714L21.6161 16.1744M21.6161 16.1744L30.3743 37.7742L21.6161 16.1744ZM28.7839 39.8604L28.7867 39.8604C28.99 39.8621 29.1918 39.8299 29.3823 39.7658C29.5924 39.6937 29.784 39.5841 29.9465 39.4442C30.1091 39.3042 30.2391 39.1367 30.3301 38.9519C30.421 38.7672 30.4714 38.5684 30.479 38.3668C30.4865 38.1653 30.4511 37.9641 30.3744 37.7744L28.7839 39.8604ZM28.7839 39.8604C28.435 39.8615 28.0956 39.7631 27.8114 39.5806C27.5275 39.3982 27.3137 39.1415 27.1953 38.8473L26.9633 38.9404C27.1018 39.2849 27.3507 39.5818 27.6763 39.7909C28.002 40.0001 28.3888 40.1116 28.7847 40.1104L28.7839 39.8604ZM16.4231 30.0807L16.284 30.4244H16.6548H23.3979H23.7688L23.6297 30.0807L20.2581 21.7467L20.0264 21.1738L19.7946 21.7467L16.4231 30.0807Z" fill="#FC5185" stroke="#F3F3F3" stroke-width="0.5"/>
</svg>
