<svg width="60" height="60" viewBox="0 0 60 60" fill="none" xmlns="http://www.w3.org/2000/svg">
<path d="M5.00835 25.0793H49.9833C51.3116 25.0793 52.5855 24.5533 53.5247 23.6171C54.464 22.6808 54.9916 21.4109 54.9916 20.0868V12.598C54.9916 11.2739 54.464 10.0041 53.5247 9.06775C52.5855 8.13147 51.3116 7.60547 49.9833 7.60547H5.00835C3.68005 7.60547 2.40616 8.13147 1.46691 9.06775C0.527664 10.0041 0 11.2739 0 12.598V20.0868C0 21.4109 0.527664 22.6808 1.46691 23.6171C2.40616 24.5533 3.68005 25.0793 5.00835 25.0793ZM44.975 13.8462C45.4702 13.8462 45.9544 13.9926 46.3662 14.2669C46.778 14.5412 47.099 14.931 47.2885 15.3871C47.478 15.8433 47.5276 16.3452 47.431 16.8294C47.3344 17.3136 47.0959 17.7584 46.7457 18.1075C46.3955 18.4567 45.9493 18.6944 45.4635 18.7907C44.9777 18.887 44.4742 18.8376 44.0166 18.6487C43.5591 18.4597 43.168 18.1398 42.8928 17.7293C42.6177 17.3188 42.4708 16.8361 42.4708 16.3424C42.4708 15.6804 42.7346 15.0454 43.2042 14.5773C43.6739 14.1092 44.3108 13.8462 44.975 13.8462ZM37.4624 13.8462C37.9577 13.8462 38.4419 13.9926 38.8537 14.2669C39.2655 14.5412 39.5865 14.931 39.776 15.3871C39.9655 15.8433 40.0151 16.3452 39.9185 16.8294C39.8219 17.3136 39.5834 17.7584 39.2332 18.1075C38.8829 18.4567 38.4367 18.6944 37.951 18.7907C37.4652 18.887 36.9617 18.8376 36.5041 18.6487C36.0466 18.4597 35.6555 18.1398 35.3803 17.7293C35.1051 17.3188 34.9583 16.8361 34.9583 16.3424C34.9582 16.0125 35.0238 15.6858 35.1512 15.3813C35.2787 15.0768 35.4654 14.8005 35.7005 14.5684C35.9357 14.3363 36.2148 14.1529 36.5215 14.029C36.8282 13.905 37.1565 13.8429 37.4875 13.8462H37.4624ZM17.5292 13.8462C17.5292 13.5151 17.6611 13.1977 17.8959 12.9636C18.1308 12.7295 18.4492 12.598 18.7813 12.598C19.1134 12.598 19.4318 12.7295 19.6667 12.9636C19.9015 13.1977 20.0334 13.5151 20.0334 13.8462V18.8387C20.0334 19.1697 19.9015 19.4872 19.6667 19.7212C19.4318 19.9553 19.1134 20.0868 18.7813 20.0868C18.4492 20.0868 18.1308 19.9553 17.8959 19.7212C17.6611 19.4872 17.5292 19.1697 17.5292 18.8387V13.8462ZM12.5209 13.8462C12.5209 13.5151 12.6528 13.1977 12.8876 12.9636C13.1224 12.7295 13.4409 12.598 13.773 12.598C14.105 12.598 14.4235 12.7295 14.6583 12.9636C14.8931 13.1977 15.025 13.5151 15.025 13.8462V18.8387C15.025 19.1697 14.8931 19.4872 14.6583 19.7212C14.4235 19.9553 14.105 20.0868 13.773 20.0868C13.4409 20.0868 13.1224 19.9553 12.8876 19.7212C12.6528 19.4872 12.5209 19.1697 12.5209 18.8387V13.8462ZM7.51252 13.8462C7.51252 13.5151 7.64444 13.1977 7.87925 12.9636C8.11406 12.7295 8.43253 12.598 8.76461 12.598C9.09668 12.598 9.41515 12.7295 9.64997 12.9636C9.88478 13.1977 10.0167 13.5151 10.0167 13.8462V18.8387C10.0167 19.1697 9.88478 19.4872 9.64997 19.7212C9.41515 19.9553 9.09668 20.0868 8.76461 20.0868C8.43253 20.0868 8.11406 19.9553 7.87925 19.7212C7.64444 19.4872 7.51252 19.1697 7.51252 18.8387V13.8462Z" fill="#F19620"/>
<path d="M37.9007 29.8478C38.1152 29.6992 38.2778 29.4874 38.3656 29.2421C38.4534 28.9968 38.462 28.7303 38.3902 28.4799C38.3185 28.2294 38.1699 28.0077 37.9653 27.8456C37.7608 27.6836 37.5105 27.5894 37.2496 27.5762H5.00835C3.68005 27.5762 2.40616 28.1022 1.46691 29.0385C0.527664 29.9748 0 31.2446 0 32.5687V40.0575C0 41.3816 0.527664 42.6515 1.46691 43.5878C2.40616 44.5241 3.68005 45.05 5.00835 45.05H28.798C29.1301 45.05 29.4485 44.9186 29.6834 44.6845C29.9182 44.4504 30.0501 44.1329 30.0501 43.8019C30.0202 40.9948 30.7294 38.2289 32.107 35.7804C33.4845 33.3318 35.4822 31.2863 37.9007 29.8478ZM10.0167 38.8094C10.0167 39.1404 9.88478 39.4579 9.64997 39.692C9.41516 39.926 9.09668 40.0575 8.76461 40.0575C8.43253 40.0575 8.11406 39.926 7.87925 39.692C7.64444 39.4579 7.51252 39.1404 7.51252 38.8094V33.8169C7.51252 33.4859 7.64444 33.1684 7.87925 32.9343C8.11406 32.7002 8.43253 32.5687 8.76461 32.5687C9.09668 32.5687 9.41516 32.7002 9.64997 32.9343C9.88478 33.1684 10.0167 33.4859 10.0167 33.8169V38.8094ZM15.025 38.8094C15.025 39.1404 14.8931 39.4579 14.6583 39.692C14.4235 39.926 14.105 40.0575 13.773 40.0575C13.4409 40.0575 13.1224 39.926 12.8876 39.692C12.6528 39.4579 12.5209 39.1404 12.5209 38.8094V33.8169C12.5209 33.4859 12.6528 33.1684 12.8876 32.9343C13.1224 32.7002 13.4409 32.5687 13.773 32.5687C14.105 32.5687 14.4235 32.7002 14.6583 32.9343C14.8931 33.1684 15.025 33.4859 15.025 33.8169V38.8094ZM20.0334 38.8094C20.0334 39.1404 19.9015 39.4579 19.6667 39.692C19.4319 39.926 19.1134 40.0575 18.7813 40.0575C18.4492 40.0575 18.1308 39.926 17.8959 39.692C17.6611 39.4579 17.5292 39.1404 17.5292 38.8094V33.8169C17.5292 33.4859 17.6611 33.1684 17.8959 32.9343C18.1308 32.7002 18.4492 32.5687 18.7813 32.5687C19.1134 32.5687 19.4319 32.7002 19.6667 32.9343C19.9015 33.1684 20.0334 33.4859 20.0334 33.8169V38.8094Z" fill="#F19620"/>
<path d="M46.2261 30.0723C43.5021 30.0723 40.8392 30.8775 38.5743 32.3861C36.3093 33.8948 34.544 36.039 33.5016 38.5477C32.4591 41.0565 32.1864 43.817 32.7178 46.4802C33.2493 49.1435 34.561 51.5898 36.4872 53.5099C38.4134 55.43 40.8675 56.7376 43.5392 57.2674C46.2109 57.7971 48.9801 57.5252 51.4968 56.4861C54.0135 55.4469 56.1645 53.6872 57.6779 51.4294C59.1913 49.1716 59.9991 46.5172 59.9991 43.8018C59.9991 40.1605 58.548 36.6683 55.9651 34.0936C53.3822 31.5188 49.879 30.0723 46.2261 30.0723ZM52.1109 42.1667C51.8764 42.3992 51.559 42.5296 51.2282 42.5296C50.8974 42.5296 50.5801 42.3992 50.3455 42.1667L47.4782 39.3085V51.2531C47.4782 51.5841 47.3463 51.9016 47.1115 52.1356C46.8767 52.3697 46.5582 52.5012 46.2261 52.5012C45.8941 52.5012 45.5756 52.3697 45.3408 52.1356C45.106 51.9016 44.9741 51.5841 44.9741 51.2531V39.2586L42.1193 42.1168C41.8798 42.3213 41.5717 42.4281 41.2565 42.416C40.9414 42.4038 40.6425 42.2736 40.4195 42.0513C40.1965 41.829 40.0659 41.5311 40.0537 41.2169C40.0415 40.9028 40.1487 40.5957 40.3539 40.3569L45.3622 35.3644C45.5968 35.1319 45.9141 35.0014 46.2449 35.0014C46.5757 35.0014 46.893 35.1319 47.1276 35.3644L52.136 40.3569C52.3659 40.594 52.4923 40.9122 52.4876 41.242C52.4829 41.5717 52.3475 41.8862 52.1109 42.1168V42.1667Z" fill="#F19620"/>
</svg>
