<svg width="54" height="54" viewBox="0 0 54 54" fill="none" xmlns="http://www.w3.org/2000/svg">
<mask id="mask0_1623_8224" style="mask-type:luminance" maskUnits="userSpaceOnUse" x="6" y="6" width="43" height="43">
<path d="M48.45 6H6V48.62H48.45V6Z" fill="white"/>
</mask>
<g mask="url(#mask0_1623_8224)">
<path d="M41.8697 18.07C41.7131 18.0602 41.5562 18.0602 41.3997 18.07C40.8357 16.2769 39.6985 14.7186 38.1629 13.6346C36.6272 12.5506 34.7781 12.0009 32.8997 12.07C31.8598 10.2404 30.357 8.71644 28.5421 7.65103C26.7272 6.58563 24.6641 6.01624 22.5597 6C19.9498 6.02139 17.4181 6.89305 15.3483 8.48287C13.2785 10.0727 11.7834 12.294 11.0897 14.81C9.61154 15.4682 8.34966 16.531 7.44967 17.8757C6.54968 19.2204 6.04827 20.7921 6.00331 22.4096C5.95835 24.027 6.37168 25.6242 7.19558 27.0168C8.01949 28.4094 9.22039 29.5407 10.6597 30.28V34.71H43.7897V30.93C45.3006 30.4742 46.5971 29.4897 47.4418 28.1566C48.2866 26.8234 48.6232 25.2308 48.3902 23.6698C48.1571 22.1089 47.37 20.684 46.1727 19.6557C44.9753 18.6275 43.4479 18.0646 41.8697 18.07ZM27.5497 30.78H14.9997C14.509 30.78 14.0384 30.5851 13.6915 30.2381C13.3446 29.8912 13.1497 29.4207 13.1497 28.93C13.1497 28.4394 13.3446 27.9688 13.6915 27.6219C14.0384 27.2749 14.509 27.08 14.9997 27.08H27.5497C28.0403 27.08 28.5109 27.2749 28.8578 27.6219C29.2047 27.9688 29.3997 28.4394 29.3997 28.93C29.3997 29.4207 29.2047 29.8912 28.8578 30.2381C28.5109 30.5851 28.0403 30.78 27.5497 30.78ZM33.5497 30.78C33.1838 30.78 32.8261 30.6715 32.5219 30.4682C32.2176 30.2649 31.9805 29.976 31.8405 29.638C31.7005 29.2999 31.6638 28.9279 31.7352 28.5691C31.8066 28.2102 31.9828 27.8806 32.2415 27.6219C32.5002 27.3631 32.8299 27.1869 33.1887 27.1155C33.5476 27.0442 33.9196 27.0808 34.2576 27.2208C34.5957 27.3608 34.8846 27.598 35.0879 27.9022C35.2912 28.2064 35.3997 28.5641 35.3997 28.93C35.3997 29.4155 35.2089 29.8816 34.8685 30.2277C34.528 30.5737 34.0651 30.7721 33.5797 30.78H33.5497ZM39.1097 30.78C38.7456 30.7721 38.3919 30.657 38.093 30.449C37.7941 30.241 37.5632 29.9493 37.4293 29.6107C37.2954 29.272 37.2644 28.9014 37.3402 28.5452C37.416 28.189 37.5953 27.8631 37.8556 27.6084C38.1158 27.3536 38.4455 27.1814 38.8032 27.1132C39.1609 27.045 39.5308 27.0839 39.8665 27.225C40.2023 27.3661 40.4889 27.6032 40.6904 27.9065C40.892 28.2098 40.9996 28.5658 40.9997 28.93C40.9997 29.1738 40.9515 29.4152 40.8579 29.6403C40.7643 29.8654 40.6271 30.0698 40.4543 30.2417C40.2814 30.4136 40.0763 30.5497 39.8507 30.6421C39.6251 30.7344 39.3834 30.7813 39.1397 30.78H39.1097ZM43.7597 28.25V24.64C43.757 24.3102 43.6242 23.9948 43.39 23.7626C43.1559 23.5303 42.8394 23.4 42.5097 23.4H11.9097C11.5799 23.4 11.2634 23.5303 11.0293 23.7626C10.7952 23.9948 10.6623 24.3102 10.6597 24.64V27.3C9.8417 26.608 9.22076 25.7125 8.85953 24.7038C8.4983 23.6951 8.40957 22.609 8.60231 21.555C8.79504 20.5011 9.26241 19.5167 9.95723 18.7011C10.652 17.8855 11.5497 17.2677 12.5597 16.91C12.7616 16.8408 12.9422 16.7208 13.0841 16.5613C13.226 16.4019 13.3244 16.2086 13.3697 16C13.82 13.891 14.9759 11.9986 16.6467 10.6351C18.3175 9.27155 20.4032 8.51843 22.5597 8.5C24.3442 8.51788 26.0876 9.03752 27.5908 9.99952C29.0939 10.9615 30.296 12.327 31.0597 13.94C31.173 14.1798 31.3608 14.3765 31.5951 14.5009C31.8293 14.6252 32.0975 14.6705 32.3597 14.63C32.6446 14.5898 32.9319 14.5697 33.2197 14.57C34.6711 14.5547 36.0789 15.066 37.1821 16.0093C38.2854 16.9526 39.0093 18.2638 39.2197 19.7C39.248 19.8744 39.3125 20.041 39.4089 20.1891C39.5053 20.3372 39.6316 20.4635 39.7797 20.56C39.9264 20.6539 40.0914 20.7157 40.2637 20.7416C40.436 20.7674 40.6118 20.7567 40.7797 20.71C41.1323 20.618 41.4952 20.5709 41.8597 20.57C42.7696 20.57 43.6533 20.8742 44.3705 21.4341C45.0877 21.9941 45.5971 22.7777 45.8178 23.6605C46.0385 24.5432 45.9578 25.4744 45.5885 26.3059C45.2192 27.1375 44.5825 27.8218 43.7797 28.25H43.7597Z" fill="#F19620"/>
<path d="M13.1602 37.2188H10.6602V47.3688C10.6602 47.7003 10.7919 48.0183 11.0264 48.2527C11.2608 48.4871 11.5787 48.6188 11.9102 48.6188H42.5402C42.8718 48.6188 43.1897 48.4871 43.4241 48.2527C43.6585 48.0183 43.7902 47.7003 43.7902 47.3688V37.2188H13.1602ZM27.5502 44.7687H15.0002C14.5096 44.7687 14.039 44.5739 13.6921 44.227C13.3451 43.88 13.1502 43.4095 13.1502 42.9188C13.1502 42.4282 13.3451 41.9574 13.6921 41.6105C14.039 41.2635 14.5096 41.0686 15.0002 41.0686H27.5502C28.0409 41.0686 28.5114 41.2635 28.8584 41.6105C29.2053 41.9574 29.4002 42.4282 29.4002 42.9188C29.4002 43.4095 29.2053 43.88 28.8584 44.227C28.5114 44.5739 28.0409 44.7687 27.5502 44.7687ZM33.5502 44.7687C33.1843 44.7687 32.8267 44.6603 32.5224 44.457C32.2182 44.2538 31.9811 43.9648 31.8411 43.6268C31.701 43.2887 31.6644 42.9167 31.7358 42.5578C31.8072 42.1989 31.9834 41.8692 32.2421 41.6105C32.5008 41.3518 32.8305 41.1758 33.1893 41.1044C33.5482 41.033 33.9202 41.0696 34.2582 41.2097C34.5962 41.3497 34.8852 41.5867 35.0885 41.8909C35.2917 42.1952 35.4002 42.5529 35.4002 42.9188C35.4003 43.4043 35.2095 43.8703 34.869 44.2164C34.5286 44.5625 34.0657 44.7609 33.5802 44.7687H33.5502ZM39.1102 44.7687C38.7461 44.7609 38.3925 44.6458 38.0936 44.4378C37.7946 44.2298 37.5638 43.938 37.4298 43.5993C37.2959 43.2607 37.265 42.8902 37.3408 42.534C37.4166 42.1778 37.5959 41.8517 37.8562 41.597C38.1164 41.3423 38.446 41.1702 38.8038 41.102C39.1615 41.0338 39.5314 41.0725 39.8671 41.2136C40.2028 41.3547 40.4894 41.5918 40.691 41.8951C40.8926 42.1984 41.0001 42.5547 41.0002 42.9188C41.0002 43.1626 40.9521 43.404 40.8585 43.6291C40.7649 43.8542 40.6277 44.0585 40.4549 44.2304C40.282 44.4023 40.0769 44.5385 39.8513 44.6309C39.6257 44.7233 39.384 44.77 39.1402 44.7687H39.1102Z" fill="#F19620"/>
</g>
</svg>
