<svg width="15" height="15" viewBox="0 0 15 15" fill="none" xmlns="http://www.w3.org/2000/svg">
<g clip-path="url(#clip0_1259_901)">
<path d="M5.0166 8.29668H7.34993V4.09668H5.0166V8.29668ZM5.48327 4.56335H6.88327V7.83001H5.48327V4.56335Z" fill="#FFA054"/>
<path d="M7.81641 8.29668H10.1497V4.09668H7.81641V8.29668ZM8.28307 4.56335H9.68307V7.83001H8.28307V4.56335Z" fill="#FFA054"/>
<path d="M2.2168 8.29668H4.55013V4.09668H2.2168V8.29668ZM2.68346 4.56335H4.08346V7.83001H2.68346V4.56335Z" fill="#FFA054"/>
<path d="M10.6162 8.29668H12.9495V4.09668H10.6162V8.29668ZM11.0829 4.56335H12.4829V7.83001H11.0829V4.56335Z" fill="#FFA054"/>
<path d="M14.3497 5.49678C14.4785 5.49678 14.583 5.3923 14.583 5.26344V3.39678C14.583 3.01017 14.2696 2.69678 13.883 2.69678H1.28301C0.896404 2.69678 0.583008 3.01017 0.583008 3.39678V5.26344C0.583008 5.3923 0.687483 5.49678 0.816341 5.49678C0.945199 5.49678 1.04967 5.60125 1.04967 5.73011C1.04967 5.85897 0.945199 5.96344 0.816341 5.96344C0.687483 5.96344 0.583008 6.06792 0.583008 6.19678V9.46344C0.583008 9.5923 0.687483 9.69678 0.816341 9.69678H1.74967V11.3301C1.74967 11.459 1.85415 11.5634 1.98301 11.5634H5.71634C5.8452 11.5634 5.94967 11.459 5.94967 11.3301V10.8634C5.94967 10.7346 6.05415 10.6301 6.18301 10.6301C6.24595 10.6299 6.30618 10.6557 6.34937 10.7015C6.39266 10.7442 6.41681 10.8026 6.41634 10.8634V11.3301C6.41634 11.459 6.52082 11.5634 6.64967 11.5634H13.183C13.3119 11.5634 13.4163 11.459 13.4163 11.3301V9.69678H14.3497C14.4785 9.69678 14.583 9.5923 14.583 9.46344V6.19678C14.583 6.06792 14.4785 5.96344 14.3497 5.96344C14.2208 5.96344 14.1163 5.85897 14.1163 5.73011C14.1163 5.60125 14.2208 5.49678 14.3497 5.49678ZM12.9497 11.0968H12.483V10.1634H12.0163V11.0968H11.5497V10.1634H11.083V11.0968H10.6163V10.1634H10.1497V11.0968H9.68301V10.1634H9.21634V11.0968H8.74967V10.1634H8.28301V11.0968H7.81634V10.1634H7.34967V11.0968H6.88301V10.8634C6.88135 10.4775 6.56891 10.1651 6.18301 10.1634C5.7964 10.1634 5.48301 10.4768 5.48301 10.8634V11.0968H5.01634V10.1634H4.54967V11.0968H4.08301V10.1634H3.61634V11.0968H3.14967V10.1634H2.68301V11.0968H2.21634V9.69678H12.9497V11.0968ZM14.1163 5.07001C13.7518 5.19866 13.5605 5.59851 13.6892 5.96306C13.7597 6.16271 13.9167 6.31974 14.1163 6.39021V9.23011H1.04967V6.39021C1.41423 6.26156 1.60547 5.86171 1.47682 5.49716C1.40635 5.29751 1.24932 5.14048 1.04967 5.07001V3.39678C1.04967 3.26792 1.15415 3.16344 1.28301 3.16344H13.883C14.0119 3.16344 14.1163 3.26792 14.1163 3.39678V5.07001Z" fill="#FFA054"/>
</g>
<defs>
<clipPath id="clip0_1259_901">
<rect width="14" height="14" fill="white" transform="translate(0.583008 0.130127)"/>
</clipPath>
</defs>
</svg>
