<svg width="52" height="52" viewBox="0 0 52 52" fill="none" xmlns="http://www.w3.org/2000/svg">
<path d="M13.6948 26C13.6982 24.4671 13.9943 22.949 14.5673 21.5272L8.16905 15.1289C6.12571 18.3889 5.02854 22.1527 5 26C5.03012 29.8471 6.12717 33.6104 8.16905 36.8711L14.5673 30.4728C13.9955 29.0507 13.6994 27.5328 13.6948 26Z" fill="#2073B5"/>
<path d="M15.7413 32.7695L9.59375 38.9271C10.6117 40.2209 11.7799 41.3891 13.0737 42.4071L19.2212 36.2495C17.842 35.3317 16.6591 34.1487 15.7413 32.7695Z" fill="#2073B5"/>
<path d="M36.2494 32.7695C35.3371 34.1533 34.1532 35.3372 32.7695 36.2495L38.9271 42.4071C40.2185 41.3865 41.3864 40.2186 42.407 38.9271L36.2494 32.7695Z" fill="#2073B5"/>
<path d="M38.3061 26C38.2965 27.5323 38.0006 29.0492 37.4336 30.4728L43.8319 36.8711C45.8738 33.6104 46.9708 29.8471 47.001 26C46.9724 22.1527 45.8752 18.3889 43.8319 15.1289L37.4336 21.5272C38.0018 22.9504 38.2977 24.4676 38.3061 26Z" fill="#2073B5"/>
<path d="M30.4727 37.4336C27.6043 38.5966 24.3956 38.5966 21.5272 37.4336L15.1289 43.8318C18.3889 45.8752 22.1526 46.9724 26 47.0009C29.8471 46.9708 33.6104 45.8737 36.871 43.8318L30.4727 37.4336Z" fill="#2073B5"/>
<path d="M21.5272 14.5673C24.3956 13.4043 27.6043 13.4043 30.4727 14.5673L36.871 8.16905C33.6104 6.12717 29.8471 5.03012 26 5C22.1526 5.02854 18.3889 6.12571 15.1289 8.16905L21.5272 14.5673Z" fill="#2073B5"/>
<path d="M15.7413 19.2193C16.6646 17.8446 17.8465 16.6626 19.2212 15.7393L13.0737 9.5918C11.7776 10.6071 10.6091 11.7756 9.59375 13.0717L15.7413 19.2193Z" fill="#2073B5"/>
<path d="M36.2494 19.2193L42.407 13.0717C41.3891 11.7779 40.2209 10.6097 38.9271 9.5918L32.7695 15.7393C34.1487 16.6572 35.3316 17.8401 36.2494 19.2193Z" fill="#2073B5"/>
<path d="M30.2411 22.8506V21.9781C30.2691 21.403 30.18 20.8282 29.9791 20.2886C29.7783 19.749 29.47 19.2558 29.0729 18.8389C28.6757 18.4219 28.1981 18.09 27.6688 17.8633C27.1396 17.6365 26.5698 17.5195 25.994 17.5195C25.4182 17.5195 24.8484 17.6365 24.3192 17.8633C23.79 18.09 23.3123 18.4219 22.9152 18.8389C22.518 19.2558 22.2097 19.749 22.0089 20.2886C21.8081 20.8282 21.7189 21.403 21.7469 21.9781V22.8506H20.1523V28.4265C20.2148 29.934 20.8576 31.3589 21.9463 32.4034C23.035 33.4479 24.4853 34.0312 25.994 34.0312C27.5027 34.0312 28.9531 33.4479 30.0418 32.4034C31.1305 31.3589 31.7732 29.934 31.8357 28.4265V22.8506H30.2411ZM23.3414 21.9781C23.3414 21.2733 23.6214 20.5973 24.1198 20.0989C24.6182 19.6005 25.2942 19.3205 25.999 19.3205C26.7039 19.3205 27.3798 19.6005 27.8782 20.0989C28.3766 20.5973 28.6566 21.2733 28.6566 21.9781V22.8506H23.3414V21.9781ZM25.4374 30.322L23.3113 28.1959L24.4346 27.0626L25.4976 28.1257L27.5836 26.2403L28.6566 27.4237L25.4374 30.322Z" fill="#2073B5"/>
</svg>
