<svg width="52" height="52" viewBox="0 0 52 52" fill="none" xmlns="http://www.w3.org/2000/svg">
<path d="M36.3645 32.3613C33.8545 36.6143 30.2487 40.1154 25.9237 42.4992C21.6179 40.108 18.0308 36.6074 15.5352 32.3613H36.3645Z" fill="#2073B5"/>
<path d="M40.2075 17.4521V13.4951L26.008 9.13086L11.8086 13.4951V17.4521H40.2075Z" fill="#2073B5"/>
<path d="M26.0093 41.684C29.6848 39.5724 32.8082 36.6207 35.1241 33.0703H16.8945C19.2103 36.6207 22.3338 39.5724 26.0093 41.684Z" fill="#2073B5"/>
<path d="M12.5195 14.0162V16.7412H39.4985V14.0162L26.009 9.83984L12.5195 14.0162ZM23.8373 15.3213H22.4591V13.9013H23.8373V15.3213ZM28.0972 13.9013H29.5171V15.3213H28.1389L28.0972 13.9013ZM26.6772 15.3213H25.299V13.9013H26.719L26.6772 15.3213Z" fill="#2073B5"/>
<path d="M22.457 13.9023H23.8352V15.3223H22.457V13.9023Z" fill="#2073B5"/>
<path d="M25.2969 13.9023H26.7168V15.3223H25.2969V13.9023Z" fill="#2073B5"/>
<path d="M28.1367 13.9023H29.5567V15.3223H28.1367V13.9023Z" fill="#2073B5"/>
<path d="M45.8883 16.7301H40.9185V13.4726C40.9185 13.3208 40.8699 13.1729 40.7797 13.0508C40.6895 12.9286 40.5625 12.8386 40.4173 12.794L26.2179 8.41933C26.0818 8.37746 25.9363 8.37746 25.8003 8.41933L11.6008 12.794C11.4557 12.8386 11.3287 12.9286 11.2385 13.0508C11.1483 13.1729 11.0997 13.3208 11.0997 13.4726V18.1501H45.8883C45.9819 18.1487 46.0749 18.1661 46.1617 18.2013C46.2484 18.2364 46.3273 18.2887 46.3935 18.3549C46.4597 18.4211 46.5119 18.4999 46.5471 18.5867C46.5823 18.6735 46.5997 18.7664 46.5983 18.8601V30.9505C46.5983 31.1388 46.5235 31.3193 46.3903 31.4525C46.2572 31.5856 46.0766 31.6604 45.8883 31.6604H6.08815C5.89985 31.6604 5.71927 31.5856 5.58612 31.4525C5.45298 31.3193 5.37818 31.1388 5.37818 30.9505V18.8601C5.37677 18.7664 5.39417 18.6735 5.42935 18.5867C5.46453 18.4999 5.51678 18.4211 5.58299 18.3549C5.6492 18.2887 5.72802 18.2364 5.8148 18.2013C5.90157 18.1661 5.99453 18.1487 6.08815 18.1501H9.63801V16.7301H8.25983V11.374C8.25813 11.2218 8.30614 11.0731 8.39659 10.9507C8.48704 10.8282 8.61498 10.7386 8.76098 10.6954L25.8003 5.47504C25.9363 5.43317 26.0818 5.43317 26.2179 5.47504L43.2572 10.6954C43.4032 10.7386 43.5312 10.8282 43.6216 10.9507C43.7121 11.0731 43.7601 11.2218 43.7584 11.374V15.2998H45.1783V11.374C45.1852 10.9169 45.0418 10.4701 44.7702 10.1023C44.4986 9.73457 44.1138 9.46608 43.6749 9.33812L26.6355 4.08641C26.2278 3.95817 25.7904 3.95817 25.3826 4.08641L8.34335 9.3068C7.89557 9.437 7.50426 9.71334 7.23178 10.0918C6.9593 10.4702 6.82134 10.929 6.83988 11.3949V16.7301H6.08815C5.53434 16.7301 5.00321 16.9501 4.6116 17.3418C4.22 17.7334 4 18.2645 4 18.8183V30.9505C4 31.5043 4.22 32.0354 4.6116 32.427C5.00321 32.8186 5.53434 33.0386 6.08815 33.0386H15.1925C17.7354 37.2467 21.3348 40.7165 25.6332 43.1035C25.7392 43.1602 25.8576 43.1898 25.9778 43.1898C26.098 43.1898 26.2163 43.1602 26.3223 43.1035C30.6208 40.7165 34.2201 37.2467 36.7631 33.0386H40.0624C36.9337 38.9142 32.01 43.6367 26.0091 46.5176C20.3635 43.8447 15.6604 39.5238 12.5196 34.1245L11.3085 34.8449C12.429 36.7523 13.7371 38.5431 15.2133 40.1905H8.94892V41.5792H16.5289C17.5655 42.6007 18.6714 43.5496 19.8386 44.4191H8.9698V45.8494H21.9268C23.1409 46.6312 24.4072 47.3289 25.7168 47.9376C25.8086 47.9791 25.9083 48.0006 26.0091 48.0006C26.1099 48.0006 26.2096 47.9791 26.3014 47.9376C27.6087 47.3244 28.8747 46.6269 30.0914 45.8494H43.0484V44.4504H32.19C33.3405 43.5692 34.4289 42.6099 35.4475 41.5792H43.0484V40.1905H36.784C38.7174 38.0472 40.357 35.6562 41.6598 33.0804H45.8361C46.3899 33.0804 46.921 32.8604 47.3127 32.4688C47.7043 32.0772 47.9243 31.546 47.9243 30.9922V18.8601C47.9243 18.3062 47.7043 17.7751 47.3127 17.3835C46.921 16.9919 46.3899 16.7719 45.8361 16.7719L45.8883 16.7301ZM39.4986 16.7301H12.5196V14.0155L26.0091 9.83927L39.4986 14.0155V16.7301ZM26.0091 41.6836C22.3336 39.572 19.2101 36.6203 16.8943 33.0699H35.1239C32.808 36.6203 29.6846 39.572 26.0091 41.6836Z" fill="#2073B5"/>
<path d="M18.3876 27.2243C17.8771 27.4017 17.3216 27.4017 16.8111 27.2243C16.5345 27.1029 16.2777 26.9411 16.0489 26.744C15.8965 26.6252 15.7056 26.567 15.5128 26.5805C15.3201 26.594 15.1392 26.6782 15.0048 26.8171C14.8572 26.9834 14.7802 27.2006 14.7899 27.4228C14.7997 27.6449 14.8954 27.8545 15.057 28.0073C15.0768 28.0304 15.1019 28.0483 15.1301 28.0595C15.4739 28.3759 15.8842 28.6113 16.3308 28.7486C17.2494 29.04 18.2397 29.0106 19.1393 28.6651C19.5713 28.5093 19.9461 28.2265 20.2145 27.8539C20.4828 27.4812 20.6321 27.036 20.6428 26.5769C20.672 26.0997 20.5304 25.6276 20.2435 25.245C19.9566 24.8625 19.5431 24.5944 19.0767 24.4888C18.2728 24.2278 17.7612 24.2173 17.1138 23.9981C16.7588 23.8728 16.5083 23.6848 16.5083 23.309C16.5133 23.163 16.5661 23.0227 16.6585 22.9096C16.7509 22.7964 16.8778 22.7167 17.0199 22.6825C17.4301 22.5471 17.873 22.5471 18.2832 22.6825C18.6616 22.766 19.0177 22.9298 19.3273 23.1628C19.5005 23.2619 19.705 23.2912 19.899 23.2446C20.0931 23.1981 20.262 23.0792 20.3713 22.9122C20.4504 22.7876 20.4903 22.6421 20.4862 22.4946C20.4834 22.3577 20.4489 22.2233 20.3855 22.102C20.3221 21.9806 20.2315 21.8756 20.1208 21.7951C19.8118 21.5423 19.4575 21.351 19.0767 21.2313C18.1795 20.9294 17.2054 20.9478 16.3203 21.2835C15.897 21.4436 15.533 21.7296 15.2772 22.1029C15.0215 22.4763 14.8863 22.9191 14.8899 23.3716C14.8675 23.8296 14.9965 24.2822 15.2569 24.6596C15.5173 25.037 15.8947 25.3182 16.3308 25.4598C17.1452 25.7834 17.6463 25.6895 18.3354 25.9609C18.7217 26.1071 19.0036 26.3055 19.0036 26.7127C19.0036 27.1199 18.6799 27.2451 18.3876 27.3496V27.2243Z" fill="#2073B5"/>
<path d="M26.8751 27.2236C26.3646 27.401 25.8091 27.401 25.2985 27.2236C25.022 27.1022 24.7652 26.9404 24.5364 26.7433C24.384 26.6245 24.1931 26.5663 24.0003 26.5798C23.8076 26.5933 23.6267 26.6775 23.4923 26.8164C23.4131 26.895 23.3502 26.9885 23.3073 27.0916C23.2643 27.1946 23.2422 27.3051 23.2422 27.4167C23.2422 27.5283 23.2643 27.6389 23.3073 27.7419C23.3502 27.8449 23.4131 27.9384 23.4923 28.0171C23.5121 28.0401 23.5372 28.058 23.5654 28.0693C23.9092 28.3856 24.3195 28.6211 24.7661 28.7584C25.6846 29.0498 26.675 29.0203 27.5746 28.6748C28.0066 28.5191 28.3814 28.2363 28.6498 27.8636C28.9181 27.4909 29.0674 27.0458 29.0781 26.5867C29.1073 26.1094 28.9657 25.6373 28.6788 25.2548C28.3919 24.8722 27.9783 24.6042 27.512 24.4985C26.6976 24.2271 26.2069 24.2375 25.5491 24.0078C25.1941 23.8825 24.9436 23.6946 24.9436 23.3187C24.9486 23.1727 25.0014 23.0324 25.0938 22.9193C25.1862 22.8062 25.3131 22.7264 25.4552 22.6923C25.8654 22.5569 26.3083 22.5569 26.7185 22.6923C27.0961 22.7781 27.4517 22.9417 27.7626 23.1726C27.9075 23.273 28.0843 23.3169 28.2594 23.2957C28.4346 23.2745 28.5958 23.1898 28.7127 23.0577C28.8644 22.9051 28.9496 22.6987 28.9496 22.4835C28.9496 22.2683 28.8644 22.0618 28.7127 21.9092L28.5874 21.8048C28.2785 21.5521 27.9241 21.3607 27.5433 21.241C26.6461 20.9391 25.6721 20.9576 24.7869 21.2932C24.3636 21.4533 23.9996 21.7393 23.7438 22.1127C23.4881 22.486 23.3529 22.9288 23.3566 23.3814C23.3342 23.8393 23.4631 24.2919 23.7235 24.6693C23.9839 25.0467 24.3613 25.3279 24.7974 25.4695C25.6118 25.7932 26.1129 25.6992 26.802 25.9707C27.1779 26.1168 27.4702 26.3152 27.4702 26.7224C27.4702 27.1296 27.1466 27.2549 26.8542 27.3593L26.8751 27.2236Z" fill="#2073B5"/>
<path d="M33.556 21.229C33.3963 21.0746 33.1829 20.9883 32.9608 20.9883C32.7387 20.9883 32.5254 21.0746 32.3657 21.229C32.2862 21.3036 32.2236 21.3944 32.1822 21.4952C32.1407 21.5961 32.1214 21.7047 32.1256 21.8137V28.005C32.1228 28.1115 32.1412 28.2174 32.1797 28.3167C32.2182 28.416 32.276 28.5066 32.3499 28.5833C32.4237 28.6601 32.512 28.7214 32.6097 28.7637C32.7074 28.806 32.8126 28.8285 32.9191 28.8298H36.4167C36.6275 28.8328 36.8311 28.754 36.985 28.6099C37.1388 28.4658 37.2308 28.2677 37.2415 28.0572C37.2457 27.9522 37.229 27.8473 37.1923 27.7488C37.1556 27.6502 37.0997 27.5599 37.0278 27.4832C36.9559 27.4064 36.8695 27.3448 36.7735 27.3017C36.6776 27.2586 36.574 27.2351 36.4689 27.2324H33.8065V21.8241C33.8102 21.7127 33.7896 21.6018 33.7464 21.4991C33.7031 21.3964 33.6382 21.3042 33.556 21.229Z" fill="#2073B5"/>
</svg>
