<svg width="41" height="41" viewBox="0 0 41 41" fill="none" xmlns="http://www.w3.org/2000/svg">
<path d="M20.6836 2.98438C10.8936 2.98438 2.93359 10.9444 2.93359 20.7344C2.93359 30.5244 10.8936 38.4844 20.6836 38.4844C30.4736 38.4844 38.4336 30.5244 38.4336 20.7344C38.4336 10.9444 30.4636 2.98438 20.6836 2.98438ZM11.0936 32.9244C13.8236 30.7844 17.1736 29.6044 20.6836 29.6044C24.1936 29.6044 27.5336 30.7844 30.2636 32.9244C27.6236 35.0144 24.2936 36.2644 20.6836 36.2644C17.0736 36.2644 13.7336 35.0144 11.0936 32.9244ZM31.9136 31.4244C28.7536 28.8244 24.8036 27.3944 20.6836 27.3944C16.5636 27.3944 12.6136 28.8244 9.44359 31.4244C6.78359 28.6344 5.14359 24.8744 5.14359 20.7344C5.14359 12.1744 12.1136 5.20438 20.6836 5.20438C29.2536 5.20438 36.2136 12.1744 36.2136 20.7344C36.2136 24.8744 34.5736 28.6344 31.9136 31.4244Z" fill="#2073B5"/>
<path d="M25.8956 14.1436C24.7556 14.4636 18.9956 16.1336 17.5656 17.5636C16.7256 18.4036 16.2656 19.5136 16.2656 20.7036C16.2656 21.8936 16.7256 23.0036 17.5656 23.8436C18.4056 24.6836 19.5156 25.1436 20.7056 25.1436C21.8956 25.1436 23.0056 24.6836 23.8356 23.8436C25.2756 22.4036 26.9356 16.6536 27.2656 15.5136C27.3656 15.1236 27.2656 14.7136 26.9756 14.4236C26.6956 14.1436 26.2856 14.0336 25.8956 14.1436Z" fill="white"/>
<path d="M19.5938 8.50258C19.5938 7.88258 20.0836 7.39258 20.7036 7.39258C21.3236 7.39258 21.8036 7.88258 21.8036 8.50258C21.8036 9.12258 21.3136 9.61258 20.7036 9.61258C20.0936 9.61258 19.5938 9.11258 19.5938 8.50258Z" fill="white"/>
<path d="M12.8534 11.2931C13.2834 11.7231 13.2834 12.4231 12.8534 12.8631C12.4234 13.2931 11.7234 13.2931 11.2834 12.8631C10.8534 12.4231 10.8534 11.7231 11.2834 11.2931C11.7134 10.8631 12.4234 10.8531 12.8534 11.2931Z" fill="white"/>
<path d="M8.49281 21.8137C9.10585 21.8137 9.60281 21.3167 9.60281 20.7036C9.60281 20.0906 9.10585 19.5938 8.49281 19.5938C7.87978 19.5938 7.38281 20.0906 7.38281 20.7036C7.38281 21.3167 7.87978 21.8137 8.49281 21.8137Z" fill="white"/>
<path d="M32.903 21.8137C33.516 21.8137 34.013 21.3167 34.013 20.7036C34.013 20.0906 33.516 19.5938 32.903 19.5938C32.2899 19.5938 31.793 20.0906 31.793 20.7036C31.793 21.3167 32.2899 21.8137 32.903 21.8137Z" fill="white"/>
<path d="M30.1152 11.2948C30.5452 11.7248 30.5452 12.4248 30.1152 12.8648C29.6852 13.2948 28.9752 13.2948 28.5452 12.8648C28.1152 12.4248 28.1152 11.7248 28.5452 11.2948C28.9752 10.8548 29.6852 10.8548 30.1152 11.2948Z" fill="white"/>
</svg>
