<svg width="40" height="41" viewBox="0 0 40 41" fill="none" xmlns="http://www.w3.org/2000/svg">
<path d="M35.9326 24.92C38.0826 24.21 39.2426 21.9 38.5326 19.76C38.1226 18.53 37.1626 17.57 35.9326 17.16C35.4526 17.01 35.0826 16.63 34.9426 16.15C34.7726 15.63 34.8526 15.06 35.1726 14.62C36.2726 13.17 36.2726 11.17 35.1726 9.71995C34.1726 8.31995 32.3526 7.77995 30.7426 8.39995C30.3026 8.55995 29.8226 8.48995 29.4426 8.21995C29.0126 7.89995 28.7626 7.37995 28.7826 6.83995C28.8626 5.03995 27.7226 3.40995 26.0026 2.86995C24.3426 2.31995 22.5126 2.97995 21.5926 4.46995C21.1426 5.14995 20.2326 5.32995 19.5526 4.87995C19.3926 4.76995 19.2526 4.62995 19.1426 4.46995C18.2226 2.98995 16.4026 2.32995 14.7426 2.86995C13.0326 3.41995 11.9026 5.04995 11.9826 6.83995C12.0026 7.37995 11.7526 7.89995 11.3226 8.21995C10.9426 8.48995 10.4526 8.55995 10.0226 8.39995C8.41256 7.77995 6.59256 8.31995 5.58256 9.71995C4.49256 11.17 4.49256 13.17 5.58256 14.62C5.89256 15.06 5.97256 15.63 5.79256 16.15C5.65256 16.62 5.27256 16.99 4.80256 17.14C2.66256 17.85 1.49256 20.16 2.21256 22.31C2.61256 23.53 3.57256 24.49 4.80256 24.9C5.29256 25.05 5.66256 25.45 5.79256 25.94C5.96256 26.46 5.88256 27.03 5.56256 27.47C4.46256 28.92 4.46256 30.92 5.56256 32.37C6.56256 33.76 8.39256 34.31 9.99256 33.69C10.4326 33.53 10.9226 33.6 11.2926 33.87C11.7226 34.19 11.9726 34.7 11.9526 35.24C11.8726 37.04 13.0126 38.67 14.7326 39.22C15.1326 39.34 15.5426 39.41 15.9626 39.4C17.2526 39.39 18.4626 38.72 19.1426 37.62C19.5926 36.94 20.5026 36.76 21.1826 37.2C21.3426 37.31 21.4826 37.45 21.5926 37.62C22.5126 39.1 24.3326 39.76 25.9926 39.22C27.7126 38.67 28.8526 37.04 28.7726 35.24C28.7526 34.7 29.0026 34.19 29.4326 33.87C29.8026 33.6 30.2926 33.53 30.7326 33.69C32.3326 34.31 34.1626 33.76 35.1626 32.37C36.2626 30.92 36.2626 28.92 35.1626 27.47C34.8526 27.02 34.7626 26.46 34.9426 25.94C35.0826 25.46 35.4526 25.07 35.9326 24.92ZM32.6126 25.16C32.2026 26.43 32.4226 27.82 33.2126 28.9C33.6626 29.49 33.6626 30.31 33.2126 30.9C32.8526 31.41 32.1826 31.62 31.5826 31.4C30.3926 30.95 29.0526 31.13 28.0126 31.88C26.9126 32.67 26.2826 33.96 26.3226 35.32C26.3726 36.02 25.9426 36.67 25.2726 36.88C24.6526 37.08 23.9826 36.83 23.6526 36.27C22.4926 34.47 20.1026 33.95 18.3026 35.1C17.8326 35.4 17.4326 35.8 17.1326 36.27C16.8026 36.83 16.1326 37.08 15.5226 36.87C14.8426 36.66 14.4026 36.01 14.4526 35.3C14.4926 33.95 13.8626 32.66 12.7626 31.86C12.1126 31.39 11.3226 31.14 10.5226 31.14C10.0626 31.14 9.61256 31.23 9.18256 31.39C8.59256 31.6 7.92256 31.4 7.56256 30.88C7.11256 30.29 7.11256 29.48 7.56256 28.89C8.33256 27.81 8.54256 26.42 8.12256 25.16C7.73256 23.92 6.76256 22.96 5.52256 22.57C4.68256 22.27 4.24256 21.33 4.55256 20.49C4.71256 20.03 5.07256 19.68 5.52256 19.51C6.76256 19.13 7.73256 18.17 8.12256 16.93C8.54256 15.66 8.31256 14.26 7.52256 13.18C7.11256 12.6 7.11256 11.83 7.53256 11.25C7.90256 10.74 8.57256 10.53 9.16256 10.75C10.3626 11.19 11.7026 11.01 12.7426 10.27C13.8426 9.47995 14.4726 8.18995 14.4326 6.82995C14.3426 6.10995 14.7726 5.42995 15.4726 5.19995C16.0826 4.99995 16.7626 5.25995 17.0826 5.81995C18.2426 7.60995 20.6326 8.13995 22.4326 6.97995C22.9026 6.67995 23.3026 6.27995 23.6026 5.81995C23.9326 5.22995 24.6326 4.96995 25.2726 5.19995C25.9426 5.40995 26.3926 6.05995 26.3326 6.76995C26.2926 8.12995 26.9226 9.41995 28.0226 10.21C29.0626 10.95 30.4026 11.13 31.6026 10.69C32.2026 10.5 32.8526 10.73 33.2026 11.25C33.6526 11.84 33.6526 12.66 33.2026 13.25C32.4326 14.31 32.2126 15.68 32.6126 16.93C33.0026 18.17 33.9726 19.13 35.2126 19.51C36.0626 19.82 36.4926 20.75 36.1826 21.6C36.0226 22.05 35.6626 22.41 35.2126 22.57C33.9726 22.96 33.0026 23.92 32.6126 25.16ZM20.3726 8.79995C13.6026 8.79995 8.12256 14.28 8.12256 21.04C8.12256 27.8 13.6026 33.28 20.3726 33.28C27.1326 33.28 32.6126 27.8 32.6126 21.04C32.6126 14.28 27.1326 8.79995 20.3726 8.79995ZM20.3726 30.84C14.9526 30.84 10.5726 26.45 10.5726 21.04C10.5726 15.63 14.9526 11.25 20.3726 11.25C25.7826 11.25 30.1626 15.63 30.1626 21.04C30.1626 26.45 25.7826 30.84 20.3726 30.84Z" fill="white"/>
<path d="M18.8236 23.1505L25.6236 16.3405H25.5836C26.0636 15.8605 26.8436 15.8605 27.3236 16.3405C27.8036 16.8205 27.8036 17.6005 27.3236 18.0805L19.6636 25.7405C19.4236 25.9705 19.1136 26.1005 18.7936 26.1005C18.4636 26.1005 18.1536 25.9705 17.9236 25.7405L13.4136 21.2005C12.9336 20.7205 12.9436 19.9505 13.4236 19.4705C13.9036 18.9905 14.6736 19.0005 15.1536 19.4805L18.8236 23.1505Z" fill="#2073B5"/>
</svg>
