<svg width="60" height="60" viewBox="0 0 60 60" fill="none" xmlns="http://www.w3.org/2000/svg">
<path fill-rule="evenodd" clip-rule="evenodd" d="M40.498 20.279C35.6259 23.2691 31.2331 26.9775 27.468 31.279L22.606 27.54C21.6174 28.2101 20.7029 28.9834 19.878 29.847L28.734 38.686C28.7759 38.7267 28.8268 38.757 28.8826 38.7743C28.9383 38.7917 28.9974 38.7957 29.055 38.786C29.1123 38.7743 29.1658 38.7486 29.2107 38.711C29.2556 38.6735 29.2904 38.6254 29.312 38.571C30.738 34.991 35.45 27.494 41.464 22.06C41.5171 22.0118 41.5539 21.9482 41.5693 21.8782C41.5847 21.8082 41.578 21.735 41.55 21.669C41.242 21.1749 40.8899 20.7096 40.498 20.279ZM46.306 12.456C32.896 12.456 30.628 7.456 30.606 7.413C30.5548 7.291 30.4687 7.18678 30.3587 7.11333C30.2486 7.03989 30.1193 7.00047 29.987 7H29.98C29.8494 7.00074 29.7218 7.03879 29.6121 7.10966C29.5025 7.18053 29.4153 7.28126 29.361 7.4C29.344 7.455 27.027 12.456 13.668 12.456C13.5811 12.4551 13.4949 12.4713 13.4143 12.5037C13.3337 12.5362 13.2602 12.5842 13.1982 12.645C13.1361 12.7058 13.0867 12.7783 13.0527 12.8583C13.0187 12.9382 13.0008 13.0241 13 13.111V35.498C13 44.662 29.036 51.663 29.716 51.957C29.889 52.0279 30.083 52.0279 30.256 51.957C30.941 51.663 46.975 44.662 46.975 35.498V13.106C46.9708 12.9316 46.8984 12.7659 46.7733 12.6443C46.6482 12.5228 46.4804 12.4552 46.306 12.456ZM43.287 34.196C43.287 41.366 30.731 46.853 30.196 47.08C30.1303 47.1092 30.0589 47.1235 29.987 47.122C29.9141 47.1236 29.8418 47.1093 29.775 47.08C29.247 46.853 16.687 41.366 16.687 34.196V16.673C16.6875 16.6047 16.7015 16.5372 16.7281 16.4743C16.7547 16.4114 16.7935 16.3544 16.8421 16.3065C16.8908 16.2586 16.9484 16.2207 17.0117 16.195C17.075 16.1694 17.1427 16.1565 17.211 16.157C27.671 16.157 29.483 12.243 29.5 12.205C29.5416 12.1107 29.6099 12.0305 29.6964 11.9744C29.7829 11.9183 29.8839 11.8886 29.987 11.889C30.0903 11.8893 30.1911 11.9203 30.2766 11.9782C30.3621 12.0361 30.4284 12.1182 30.467 12.214C30.487 12.249 32.266 16.158 42.761 16.158C42.8292 16.1575 42.8969 16.1704 42.9601 16.1961C43.0234 16.2217 43.0809 16.2596 43.1295 16.3075C43.1781 16.3555 43.2167 16.4125 43.2433 16.4754C43.2698 16.5383 43.2836 16.6058 43.284 16.674V34.196H43.287Z" fill="white"/>
</svg>
