<svg width="34" height="36" viewBox="0 0 34 36" fill="none" xmlns="http://www.w3.org/2000/svg">
<mask id="mask0_1623_8747" style="mask-type:luminance" maskUnits="userSpaceOnUse" x="2" y="3" width="30" height="30">
<path d="M32 3H2V33H32V3Z" fill="white"/>
</mask>
<g mask="url(#mask0_1623_8747)">
<path d="M24.4993 18C23.1168 18 21.8093 18.385 20.6568 19.0812L19.8493 18.275C19.5818 18.0063 19.1781 17.9275 18.8281 18.0713C18.4781 18.2163 18.2493 18.5587 18.2493 18.9375V22.0625C18.2493 22.58 18.6693 23 19.1868 23H22.3118C22.6918 23 23.0331 22.7712 23.1781 22.4212C23.3218 22.0712 23.2431 21.6675 22.9743 21.4L22.5018 20.9275C23.1243 20.6562 23.7956 20.5 24.4993 20.5C27.2568 20.5 29.4993 22.7425 29.4993 25.5C29.4993 28.2575 27.2568 30.5 24.4993 30.5C22.1231 30.5 20.0668 28.8213 19.6143 26.51C19.4818 25.8325 18.8218 25.39 18.1468 25.5237C17.4693 25.6562 17.0268 26.3138 17.1606 26.9913C17.8443 30.4725 20.9306 33 24.4993 33C28.6356 33 31.9993 29.6362 31.9993 25.5C31.9993 21.3637 28.6356 18 24.4993 18Z" fill="#2073B5"/>
<path d="M2 14.25V21.75H15.75V18.9375C15.75 17.5375 16.5875 16.3 17.875 15.7625C18.9625 15.3125 20.175 15.4625 21.1125 16.1C22.1875 15.7125 23.325 15.5 24.5 15.5V14.25H2Z" fill="#2073B5"/>
<path d="M14.7125 27.475C14.475 26.275 14.85 25.1 15.6125 24.25H2V29.5625C2 31.4625 3.5375 33 5.4375 33H17.9125C16.3 31.6 15.15 29.6875 14.7125 27.475Z" fill="#2073B5"/>
<path d="M21.0625 3H5.4375C3.5375 3 2 4.5375 2 6.4375V11.75H24.5V6.4375C24.5 4.5375 22.9625 3 21.0625 3ZM6.375 9.25C5.3375 9.25 4.5 8.4125 4.5 7.375C4.5 6.3375 5.3375 5.5 6.375 5.5C7.4125 5.5 8.25 6.3375 8.25 7.375C8.25 8.4125 7.4125 9.25 6.375 9.25ZM12.625 9.25C11.5875 9.25 10.75 8.4125 10.75 7.375C10.75 6.3375 11.5875 5.5 12.625 5.5C13.6625 5.5 14.5 6.3375 14.5 7.375C14.5 8.4125 13.6625 9.25 12.625 9.25ZM18.875 9.25C17.8375 9.25 17 8.4125 17 7.375C17 6.3375 17.8375 5.5 18.875 5.5C19.9125 5.5 20.75 6.3375 20.75 7.375C20.75 8.4125 19.9125 9.25 18.875 9.25Z" fill="#2073B5"/>
</g>
</svg>
