<svg width="40" height="40" viewBox="0 0 40 40" fill="none" xmlns="http://www.w3.org/2000/svg">
<path d="M33.6581 12.2965C33.459 10.6417 32.764 9.08527 31.6639 7.8308C30.5638 6.57633 29.1099 5.68218 27.4922 5.26525C25.8745 4.84832 24.1683 4.92801 22.5967 5.49392C21.0252 6.05982 19.6614 7.08559 18.6836 8.43711H19.2162C22.2035 8.43687 25.1083 9.41527 27.4839 11.2219C29.8596 13.0286 31.5748 15.5635 32.3658 18.4371C34.1494 18.838 35.7803 19.7409 37.0649 21.0387L37.4095 21.3902C38.1543 20.6465 38.662 19.6996 38.8685 18.6688C39.075 17.6379 38.9713 16.5691 38.5702 15.5969C38.1692 14.6248 37.4888 13.7927 36.6147 13.2054C35.7406 12.6181 34.7119 12.3019 33.6581 12.2965Z" fill="#F19620"/>
<path d="M30.2582 20.7114C29.9285 18.0204 28.623 15.5428 26.588 13.7459C24.553 11.949 21.9292 10.957 19.2115 10.957C16.4937 10.957 13.8699 11.949 11.8349 13.7459C9.79998 15.5428 8.49448 18.0204 8.1647 20.7114C7.20422 20.6798 6.24716 20.8411 5.35046 21.1859C4.45376 21.5307 3.63575 22.0518 2.94507 22.7184C2.2544 23.385 1.70518 24.1833 1.33009 25.0659C0.955012 25.9485 0.761719 26.8973 0.761719 27.856C0.761719 28.8146 0.955012 29.7634 1.33009 30.646C1.70518 31.5287 2.2544 32.327 2.94507 32.9935C3.63575 33.6601 4.45376 34.1813 5.35046 34.5261C6.24716 34.8708 7.20422 35.0322 8.1647 35.0005H30.2582C31.2187 35.0322 32.1758 34.8708 33.0725 34.5261C33.9692 34.1813 34.7872 33.6601 35.4779 32.9935C36.1685 32.327 36.7178 31.5287 37.0929 30.646C37.4679 29.7634 37.6612 28.8146 37.6612 27.856C37.6612 26.8973 37.4679 25.9485 37.0929 25.0659C36.7178 24.1833 36.1685 23.385 35.4779 22.7184C34.7872 22.0518 33.9692 21.5307 33.0725 21.1859C32.1758 20.8411 31.2187 20.6798 30.2582 20.7114Z" fill="#F19620"/>
</svg>
