<svg width="60" height="60" viewBox="0 0 60 60" fill="none" xmlns="http://www.w3.org/2000/svg">
<path fill-rule="evenodd" clip-rule="evenodd" d="M22.2325 3L20.5557 5.6182L22.7696 7.028C18.2343 8.39406 14.2176 11.0821 11.2412 14.743C8.26473 18.4039 6.46615 22.8685 6.07899 27.5569C5.69183 32.2453 6.73399 36.941 9.07011 41.0341C11.4062 45.1271 14.9284 48.4284 19.1791 50.5092L20.5504 47.7193C16.8776 45.9182 13.8325 43.0665 11.8078 39.5319C9.783 35.9972 8.87137 31.9416 9.19039 27.888C9.50941 23.8343 11.0445 19.9684 13.5976 16.7887C16.1508 13.6089 19.6051 11.2611 23.5151 10.0479L22.0445 12.3439L24.6717 14.0166L28.9789 7.29194L22.2325 3ZM53 29.5297C53.0049 25.1514 51.7734 20.8594 49.4453 17.1405C47.1172 13.4216 43.7856 10.4247 39.8285 8.48974L38.4573 11.2797C42.1294 13.081 45.1738 15.9325 47.1981 19.4668C49.2225 23.0012 50.1339 27.0562 49.8151 31.1094C49.4962 35.1626 47.9615 39.028 45.409 42.2076C42.8564 45.3872 39.4029 47.7352 35.4936 48.9489L36.9642 46.654L34.337 44.9813L30.0298 51.7059L36.7763 56L38.4541 53.3818L36.2391 51.972C41.0906 50.5136 45.3401 47.5437 48.3587 43.5019C51.3774 39.46 53.0048 34.5609 53 29.5297ZM41.0471 26.32H30.5157L32.0878 9.8794L17.9616 32.9598H28.4011L26.5621 49.11L41.0471 26.32Z" fill="white"/>
</svg>
