<svg width="48" height="48" viewBox="0 0 48 48" fill="none" xmlns="http://www.w3.org/2000/svg">
<g clip-path="url(#clip0_1623_7844)">
<mask id="mask0_1623_7844" style="mask-type:luminance" maskUnits="userSpaceOnUse" x="0" y="0" width="48" height="48">
<path d="M48 0H0V48H48V0Z" fill="white"/>
</mask>
<g mask="url(#mask0_1623_7844)">
<mask id="mask1_1623_7844" style="mask-type:luminance" maskUnits="userSpaceOnUse" x="0" y="0" width="48" height="48">
<path d="M48 0H0V48H48V0Z" fill="white"/>
</mask>
<g mask="url(#mask1_1623_7844)">
<path d="M39.8043 33.9374C40.3848 35.5742 41.948 36.7501 43.7813 36.7501C46.1075 36.7501 48 34.8574 48 32.5312C48 30.205 46.1075 28.3125 43.7813 28.3125C41.948 28.3125 40.3848 29.4883 39.8043 31.125H28.125V28.3125H39.0254L40.4483 25.4667C40.619 25.4878 40.7925 25.5 40.9688 25.5C43.295 25.5 45.1875 23.6075 45.1875 21.2813C45.1875 18.955 43.295 17.0626 40.9688 17.0626C38.6426 17.0626 36.7501 18.955 36.7501 21.2813C36.7501 22.4166 37.2016 23.4478 37.9338 24.207L37.287 25.5H28.125V19.875H25.3125V11.25C25.3125 5.04675 20.2658 0 14.0625 0C7.85925 0 2.8125 5.04675 2.8125 11.25V19.875H0V45.1875H28.125V39.5626H37.287L37.9336 40.8555C37.2016 41.6147 36.7501 42.6459 36.7501 43.7813C36.7501 46.1075 38.6426 48 40.9688 48C43.295 48 45.1875 46.1075 45.1875 43.7813C45.1875 41.455 43.295 39.5626 40.9688 39.5626C40.7925 39.5626 40.619 39.5747 40.4483 39.5958L39.0254 36.7501H28.125V33.9374H39.8043ZM43.7813 31.125C44.5566 31.125 45.1875 31.7558 45.1875 32.5312C45.1875 33.3067 44.5566 33.9374 43.7813 33.9374C43.0059 33.9374 42.375 33.3067 42.375 32.5312C42.375 31.7558 43.0059 31.125 43.7813 31.125ZM40.9688 19.875C41.7442 19.875 42.375 20.5059 42.375 21.2813C42.375 22.0566 41.7442 22.6875 40.9688 22.6875C40.1933 22.6875 39.5626 22.0566 39.5626 21.2813C39.5626 20.5059 40.1933 19.875 40.9688 19.875ZM5.62499 11.25C5.62499 6.59757 9.41006 2.8125 14.0625 2.8125C18.7149 2.8125 22.5 6.59757 22.5 11.25V19.875H19.6875V11.25C19.6875 8.14837 17.1642 5.62499 14.0625 5.62499C10.9609 5.62499 8.4375 8.14837 8.4375 11.25V19.875H5.62499V11.25ZM16.875 11.25V19.875H11.25V11.25C11.25 9.69918 12.5117 8.4375 14.0625 8.4375C15.6133 8.4375 16.875 9.69918 16.875 11.25ZM25.3125 31.125H22.5V28.3125H21.0938C20.3184 28.3125 19.6875 27.6816 19.6875 26.9062V25.5H8.4375V26.9062C8.4375 27.6816 7.80666 28.3125 7.03125 28.3125H5.62499V36.7501H7.03125C7.80666 36.7501 8.4375 37.3808 8.4375 38.1563V39.5626H19.6875V38.1563C19.6875 37.3808 20.3184 36.7501 21.0938 36.7501H22.5V33.9374H25.3125C25.3125 34.8285 25.3125 41.4994 25.3125 42.375H2.8125V22.6875H25.3125C25.3125 23.5784 25.3125 30.2493 25.3125 31.125ZM19.6875 30.884V31.125V33.9374V34.1784C18.4906 34.6029 17.5403 35.553 17.116 36.7501H11.0091C10.5847 35.553 9.6345 34.6029 8.4375 34.1784V30.884C9.6345 30.4597 10.5847 29.5094 11.0091 28.3125H17.116C17.5405 29.5094 18.4906 30.4597 19.6875 30.884ZM40.9688 42.375C41.7442 42.375 42.375 43.0059 42.375 43.7813C42.375 44.5566 41.7442 45.1875 40.9688 45.1875C40.1933 45.1875 39.5626 44.5566 39.5626 43.7813C39.5626 43.0059 40.1933 42.375 40.9688 42.375Z" fill="#F19620"/>
</g>
</g>
</g>
<defs>
<clipPath id="clip0_1623_7844">
<rect width="48" height="48" fill="white"/>
</clipPath>
</defs>
</svg>
