<svg width="15" height="15" viewBox="0 0 15 15" fill="none" xmlns="http://www.w3.org/2000/svg">
<mask id="mask0_1623_7824" style="mask-type:luminance" maskUnits="userSpaceOnUse" x="0" y="0" width="15" height="15">
<path d="M14.582 0.130859H0.582031V14.1309H14.582V0.130859Z" fill="white"/>
</mask>
<g mask="url(#mask0_1623_7824)">
<path d="M5.01562 8.29766H7.34895V4.09766H5.01562V8.29766ZM5.4823 4.56433H6.88229V7.83099H5.4823V4.56433Z" fill="#F19620"/>
<path d="M7.81641 8.29766H10.1497V4.09766H7.81641V8.29766ZM8.28307 4.56433H9.68307V7.83099H8.28307V4.56433Z" fill="#F19620"/>
<path d="M2.21484 8.29766H4.54817V4.09766H2.21484V8.29766ZM2.6815 4.56433H4.0815V7.83099H2.6815V4.56433Z" fill="#F19620"/>
<path d="M10.6133 8.29766H12.9466V4.09766H10.6133V8.29766ZM11.08 4.56433H12.48V7.83099H11.08V4.56433Z" fill="#F19620"/>
<path d="M14.3487 5.49727C14.4775 5.49727 14.582 5.39279 14.582 5.26393V3.39727C14.582 3.01066 14.2686 2.69727 13.882 2.69727H1.28203C0.895427 2.69727 0.582031 3.01066 0.582031 3.39727V5.26393C0.582031 5.39279 0.686506 5.49727 0.815364 5.49727C0.944222 5.49727 1.04869 5.60174 1.04869 5.7306C1.04869 5.85946 0.944222 5.96393 0.815364 5.96393C0.686506 5.96393 0.582031 6.06841 0.582031 6.19727V9.46393C0.582031 9.59279 0.686506 9.69727 0.815364 9.69727H1.74869V11.3306C1.74869 11.4595 1.85317 11.5639 1.98203 11.5639H5.71536C5.84422 11.5639 5.94869 11.4595 5.94869 11.3306V10.8639C5.94869 10.7351 6.05317 10.6306 6.18203 10.6306C6.24497 10.6304 6.3052 10.6562 6.34839 10.702C6.39168 10.7447 6.41583 10.8031 6.41536 10.8639V11.3306C6.41536 11.4595 6.51984 11.5639 6.64869 11.5639H13.182C13.3109 11.5639 13.4153 11.4595 13.4153 11.3306V9.69727H14.3487C14.4775 9.69727 14.582 9.59279 14.582 9.46393V6.19727C14.582 6.06841 14.4775 5.96393 14.3487 5.96393C14.2198 5.96393 14.1153 5.85946 14.1153 5.7306C14.1153 5.60174 14.2198 5.49727 14.3487 5.49727ZM12.9487 11.0973H12.482V10.1639H12.0153V11.0973H11.5487V10.1639H11.082V11.0973H10.6153V10.1639H10.1487V11.0973H9.68203V10.1639H9.21536V11.0973H8.74869V10.1639H8.28203V11.0973H7.81536V10.1639H7.34869V11.0973H6.88203V10.8639C6.88037 10.478 6.56793 10.1656 6.18203 10.1639C5.79542 10.1639 5.48203 10.4773 5.48203 10.8639V11.0973H5.01536V10.1639H4.54869V11.0973H4.08203V10.1639H3.61536V11.0973H3.14869V10.1639H2.68203V11.0973H2.21536V9.69727H12.9487V11.0973ZM14.1153 5.0705C13.7508 5.19915 13.5595 5.599 13.6882 5.96355C13.7587 6.1632 13.9157 6.32023 14.1153 6.3907V9.2306H1.04869V6.3907C1.41325 6.26205 1.60449 5.8622 1.47584 5.49765C1.40537 5.298 1.24834 5.14097 1.04869 5.0705V3.39727C1.04869 3.26841 1.15317 3.16393 1.28203 3.16393H13.882C14.0109 3.16393 14.1153 3.26841 14.1153 3.39727V5.0705Z" fill="#F19620"/>
</g>
</svg>
