<svg width="48" height="48" viewBox="0 0 48 48" fill="none" xmlns="http://www.w3.org/2000/svg">
<g clip-path="url(#clip0_1623_7775)">
<mask id="mask0_1623_7775" style="mask-type:luminance" maskUnits="userSpaceOnUse" x="0" y="0" width="48" height="48">
<path d="M48 0H0V48H48V0Z" fill="white"/>
</mask>
<g mask="url(#mask0_1623_7775)">
<mask id="mask1_1623_7775" style="mask-type:luminance" maskUnits="userSpaceOnUse" x="0" y="0" width="48" height="48">
<path d="M48 0H0V48H48V0Z" fill="white"/>
</mask>
<g mask="url(#mask1_1623_7775)">
<path d="M14.8368 0.0667776C7.32634 0.639787 1.84181 2.8909 0.347898 6.04245L0 6.77917V24.0309V41.2826L0.368363 42.0192C1.84181 45.048 6.97843 47.2378 14.182 47.8925C15.7168 48.0358 19.8507 48.0358 21.3854 47.8925C25.3147 47.5446 28.9779 46.6442 31.3722 45.4573C32.3546 44.9661 33.6438 44.0453 34.2578 43.3904C34.8922 42.6946 35.4856 41.6509 35.588 40.996L35.6493 40.6072H33.9712H32.2931L31.7202 41.1802C30.083 42.8173 25.9696 44.1475 21.099 44.5773C19.5027 44.7205 16.0238 44.7205 14.4276 44.5773C9.22954 44.1066 4.64547 42.5309 3.49944 40.8323C3.25387 40.4843 3.25387 40.423 3.25387 37.3533V34.2222L4.19525 34.693C4.72733 34.9589 5.64822 35.3477 6.26218 35.5728C7.28539 35.9208 9.33186 36.4938 9.57744 36.4938C9.6593 36.4938 9.70022 35.9208 9.70022 34.7952V33.0966L9.14768 32.9739C7.32634 32.5442 4.95243 31.48 4.07246 30.7022C3.25387 29.9861 3.27434 30.0474 3.27434 26.6094V23.5397L4.05198 23.949C5.07522 24.5014 6.67146 25.095 8.32909 25.5248L9.70022 25.8726L9.74115 24.3378C9.78208 23.5192 9.84347 22.7416 9.86394 22.6392C9.92533 22.496 9.84347 22.4346 9.4751 22.3528C7.28539 21.8002 5.01382 20.8179 4.11339 20.0198C3.23341 19.2421 3.27434 19.324 3.27434 15.9064C3.27434 14.2488 3.2948 12.8981 3.33573 12.8981C3.37666 12.8981 3.76549 13.0823 4.23618 13.3074C6.77378 14.5762 10.2732 15.4152 14.5708 15.8041C16.4331 15.9678 21.0376 15.8655 22.8386 15.6403C26.1742 15.1901 29.2235 14.392 31.229 13.3892C31.7816 13.1232 32.2317 12.8981 32.2522 12.8981C32.3546 12.8981 32.2931 19.0579 32.1909 19.2421C32.0885 19.4262 32.1294 19.4467 33.9099 19.4467H35.7312V13.7371C35.7312 7.96611 35.6698 7.00427 35.3219 6.1857C34.0326 3.21832 29.3258 1.04908 22.4088 0.230494C20.6283 0.0258483 16.5763 -0.0764745 14.8368 0.0667776ZM20.0349 3.40251C25.4374 3.72994 30.0421 5.10107 31.7611 6.90195C32.2114 7.3931 32.2931 7.53635 32.2931 7.88426C32.2931 8.68237 31.495 9.4805 29.8784 10.2581C23.6366 13.3074 11.7467 13.2869 5.64822 10.2172C4.17478 9.4805 3.27434 8.64144 3.27434 7.98658C3.27434 6.32894 7.24446 4.44621 12.3197 3.70947C15.0006 3.32066 17.2722 3.23878 20.0349 3.40251Z" fill="#F19620"/>
<path d="M13.2618 21.5742C12.7539 21.7584 12.2664 22.1676 12.0429 22.6179C11.8398 23.0272 11.8398 23.2523 11.8398 29.9441C11.8398 36.452 11.8601 36.8817 12.0429 37.291C12.2867 37.823 12.7946 38.2323 13.3837 38.3961C13.9728 38.5598 45.8465 38.5598 46.4559 38.3961C47.0247 38.2323 47.5326 37.8435 47.7966 37.332C47.9998 36.9227 47.9998 36.6976 47.9998 29.9646C47.9998 23.2523 47.9794 23.0067 47.7966 22.5974C47.5326 22.0857 47.045 21.6969 46.4559 21.5332C45.8465 21.39 13.729 21.4105 13.2618 21.5742ZM28.8431 25.2169C29.2087 25.5443 32.0529 33.7302 31.9513 34.16C31.87 34.4668 31.4028 34.7534 30.9964 34.7534C30.5495 34.7534 30.3058 34.4259 30.0214 33.4232L29.7369 32.4819H28.1524H26.5679L26.2834 33.4232C26.1209 33.9553 25.8975 34.4464 25.7756 34.5488C25.3084 34.958 24.3129 34.6102 24.3129 34.0371C24.3129 33.8939 24.902 32.1339 25.613 30.108C27.3194 25.2374 27.279 25.3192 27.5633 25.135C27.8681 24.9099 28.4978 24.9508 28.8431 25.2169ZM35.1609 25.2577C35.3641 25.5443 35.3844 25.6467 35.3844 29.8828V34.2212L35.1204 34.4873C34.9578 34.6715 34.7546 34.7534 34.4703 34.7534C34.1858 34.7534 34.003 34.6715 33.8406 34.4873L33.5764 34.2212V29.8419C33.5764 25.4828 33.5764 25.4625 33.8202 25.2169C34.1655 24.8689 34.8766 24.8894 35.1609 25.2577ZM21.4282 25.4011C22.5455 25.8513 23.0535 26.6494 23.0535 27.9387C23.0738 29.0643 22.8097 29.5758 22.058 30.0056L21.5298 30.3126L22.3628 31.9907C22.83 32.932 23.1956 33.812 23.1956 33.9553C23.1956 34.5692 22.2612 34.999 21.794 34.6305C21.7127 34.5692 21.2658 33.6892 20.7985 32.7068L19.9657 30.906H19.0718H18.178V32.666C18.178 34.3646 18.1577 34.4464 17.9342 34.6102C17.6092 34.8556 17.0809 34.8148 16.7356 34.5488L16.4511 34.3441V29.9238V25.5238L16.7559 25.2987C17.0404 25.0736 17.1215 25.0531 18.9092 25.1145C20.5548 25.1555 20.9204 25.1964 21.4282 25.4011ZM41.6617 25.2987C42.9212 25.708 43.7337 26.547 44.0791 27.8363C44.2822 28.6753 44.3025 31.1516 44.0791 32.0112C43.7337 33.3822 42.8196 34.2417 41.3772 34.5488C41.0726 34.6102 40.199 34.6715 39.427 34.6715C38.0863 34.6715 38.0254 34.651 37.7815 34.4054L37.5175 34.1395V29.8419V25.5443L37.8018 25.3396C38.066 25.135 38.2284 25.1145 39.5489 25.1145C40.6865 25.094 41.174 25.135 41.6617 25.2987Z" fill="#F19620"/>
<path d="M28.0937 27.6923C27.8499 28.388 27.0781 30.8848 27.0781 30.9461C27.0781 30.987 27.5656 31.028 28.1547 31.028C28.7438 31.028 29.2313 30.987 29.2313 30.9461C29.2313 30.8438 28.2563 27.6513 28.2157 27.5899C28.175 27.5489 28.1141 27.5899 28.0937 27.6923Z" fill="#F19620"/>
<path d="M18.2399 28.0214L18.2805 29.4539L19.3165 29.4129C20.8808 29.3721 21.3074 29.0651 21.3074 28.0419C21.3074 26.9982 20.6776 26.6094 19.0119 26.6094H18.1992L18.2399 28.0214Z" fill="#F19620"/>
<path d="M39.3438 29.8849V33.0774L40.2377 33.0161C41.2941 32.9547 41.8832 32.6886 42.2285 32.0747C42.4317 31.7063 42.452 31.5017 42.452 29.9668C42.452 28.5343 42.4111 28.1863 42.2486 27.8385C41.883 27.0404 41.2736 26.7129 40.0751 26.7129H39.3438V29.8849Z" fill="#F19620"/>
</g>
</g>
</g>
<defs>
<clipPath id="clip0_1623_7775">
<rect width="48" height="48" fill="white"/>
</clipPath>
</defs>
</svg>
