<svg width="64" height="64" viewBox="0 0 64 64" fill="none" xmlns="http://www.w3.org/2000/svg">
<g clip-path="url(#clip0_4269_267894)">
<path d="M1.14369 20.556H4.57347V31.9886C4.57347 32.2918 4.69392 32.5826 4.90832 32.797C5.12272 33.0114 5.41351 33.1318 5.71672 33.1318H14.8628C15.166 33.1318 15.4568 33.0114 15.6712 32.797C15.8856 32.5826 16.0061 32.2918 16.0061 31.9886V20.556H19.4358C19.6513 20.5561 19.8623 20.4953 20.0447 20.3806C20.2271 20.266 20.3734 20.1021 20.4667 19.908C20.56 19.7138 20.5966 19.4972 20.5722 19.2832C20.5477 19.0691 20.4634 18.8663 20.3287 18.6982L11.1826 7.26559C11.0715 7.13803 10.9343 7.03577 10.7802 6.9657C10.6262 6.89563 10.459 6.85938 10.2898 6.85938C10.1206 6.85938 9.95331 6.89563 9.79929 6.9657C9.64527 7.03577 9.50805 7.13803 9.39688 7.26559L0.250803 18.6982C0.116162 18.8663 0.0317742 19.0691 0.00736387 19.2832C-0.0170465 19.4972 0.019514 19.7138 0.112833 19.908C0.206151 20.1021 0.35243 20.266 0.534813 20.3806C0.717197 20.4953 0.928263 20.5561 1.14369 20.556Z" fill="#683EE6"/>
<path d="M44.589 20.556H48.0188V31.9886C48.0188 32.2918 48.1392 32.5826 48.3536 32.797C48.568 33.0114 48.8588 33.1318 49.162 33.1318H58.3081C58.6113 33.1318 58.9021 33.0114 59.1165 32.797C59.3309 32.5826 59.4514 32.2918 59.4514 31.9886V20.556H62.8811C63.0966 20.5561 63.3076 20.4953 63.49 20.3806C63.6724 20.266 63.8187 20.1021 63.912 19.908C64.0053 19.7138 64.0419 19.4972 64.0175 19.2832C63.9931 19.0691 63.9087 18.8663 63.774 18.6982L54.628 7.26559C54.5168 7.13803 54.3796 7.03577 54.2255 6.9657C54.0715 6.89563 53.9043 6.85938 53.7351 6.85938C53.5659 6.85938 53.3986 6.89563 53.2446 6.9657C53.0906 7.03577 52.9534 7.13803 52.8422 7.26559L43.6961 18.6982C43.5615 18.8663 43.4771 19.0691 43.4527 19.2832C43.4283 19.4972 43.4648 19.7138 43.5581 19.908C43.6515 20.1021 43.7977 20.266 43.9801 20.3806C44.1625 20.4953 44.3736 20.5561 44.589 20.556Z" fill="#683EE6"/>
<path d="M41.724 47.4219H40.5808C39.9494 47.4219 39.4375 47.9337 39.4375 48.5651V53.1382C39.4375 53.7696 39.9494 54.2814 40.5808 54.2814H41.724C42.3554 54.2814 42.8673 53.7696 42.8673 53.1382V48.5651C42.8673 47.9337 42.3554 47.4219 41.724 47.4219Z" fill="#683EE6"/>
<path d="M52.5899 41.1334H50.1891C48.7972 37.4373 46.3118 34.2533 43.064 32.006C39.8163 29.7586 35.9607 28.5547 32.0113 28.5547C28.0618 28.5547 24.2062 29.7586 20.9585 32.006C17.7107 34.2533 15.2253 37.4373 13.8334 41.1334H11.4326C8.40048 41.1334 5.49255 42.3379 3.34853 44.4819C1.2045 46.626 0 49.5339 0 52.566C0 55.5981 1.2045 58.506 3.34853 60.6501C5.49255 62.7941 8.40048 63.9986 11.4326 63.9986H52.5899C55.622 63.9986 58.53 62.7941 60.674 60.6501C62.818 58.506 64.0225 55.5981 64.0225 52.566C64.0225 49.5339 62.818 46.626 60.674 44.4819C58.53 42.3379 55.622 41.1334 52.5899 41.1334ZM24.5801 49.7078C24.8833 49.7078 25.1741 49.8283 25.3885 50.0427C25.6029 50.2571 25.7233 50.5479 25.7233 50.8511V55.4241C25.7233 55.7274 25.6029 56.0181 25.3885 56.2325C25.1741 56.4469 24.8833 56.5674 24.5801 56.5674H20.007C19.7038 56.5674 19.413 56.4469 19.1986 56.2325C18.9842 56.0181 18.8638 55.7274 18.8638 55.4241C18.8638 55.1209 18.9842 54.8301 19.1986 54.6157C19.413 54.4013 19.7038 54.2809 20.007 54.2809H23.4368V51.9944H20.007C19.7038 51.9944 19.413 51.8739 19.1986 51.6595C18.9842 51.4451 18.8638 51.1543 18.8638 50.8511V46.2781C18.8638 45.9749 18.9842 45.6841 19.1986 45.4697C19.413 45.2553 19.7038 45.1348 20.007 45.1348H24.5801C24.8833 45.1348 25.1741 45.2553 25.3885 45.4697C25.6029 45.6841 25.7233 45.9749 25.7233 46.2781C25.7233 46.5813 25.6029 46.8721 25.3885 47.0865C25.1741 47.3009 24.8833 47.4213 24.5801 47.4213H21.1503V49.7078H24.5801ZM32.5829 49.7078C32.8861 49.7078 33.1769 49.8283 33.3913 50.0427C33.6057 50.2571 33.7261 50.5479 33.7261 50.8511C33.7261 51.1543 33.6057 51.4451 33.3913 51.6595C33.1769 51.8739 32.8861 51.9944 32.5829 51.9944H30.2964V54.2809H33.7261C34.0294 54.2809 34.3201 54.4013 34.5345 54.6157C34.749 54.8301 34.8694 55.1209 34.8694 55.4241C34.8694 55.7274 34.749 56.0181 34.5345 56.2325C34.3201 56.4469 34.0294 56.5674 33.7261 56.5674H29.1531C28.8499 56.5674 28.5591 56.4469 28.3447 56.2325C28.1303 56.0181 28.0098 55.7274 28.0098 55.4241V46.2781C28.0098 45.9749 28.1303 45.6841 28.3447 45.4697C28.5591 45.2553 28.8499 45.1348 29.1531 45.1348H33.7261C34.0294 45.1348 34.3201 45.2553 34.5345 45.4697C34.749 45.6841 34.8694 45.9749 34.8694 46.2781C34.8694 46.5813 34.749 46.8721 34.5345 47.0865C34.3201 47.3009 34.0294 47.4213 33.7261 47.4213H30.2964V49.7078H32.5829ZM45.1587 53.1376C45.1587 54.0473 44.7974 54.9196 44.1542 55.5628C43.511 56.206 42.6386 56.5674 41.729 56.5674H40.5857C39.6761 56.5674 38.8037 56.206 38.1605 55.5628C37.5173 54.9196 37.1559 54.0473 37.1559 53.1376V48.5646C37.1559 47.655 37.5173 46.7826 38.1605 46.1394C38.8037 45.4962 39.6761 45.1348 40.5857 45.1348H41.729C42.6386 45.1348 43.511 45.4962 44.1542 46.1394C44.7974 46.7826 45.1587 47.655 45.1587 48.5646V53.1376Z" fill="#683EE6"/>
<path d="M22.8624 13.6966H26.2922V27.0441C30.0336 26.0152 33.9834 26.0152 37.7248 27.0441V13.6966H41.1546C41.37 13.6967 41.5811 13.6359 41.7635 13.5212C41.9458 13.4066 42.0921 13.2427 42.1854 13.0486C42.2788 12.8544 42.3153 12.6378 42.2909 12.4238C42.2665 12.2098 42.1821 12.007 42.0475 11.8388L32.9014 0.406215C32.7902 0.278655 32.653 0.176397 32.499 0.106326C32.345 0.036256 32.1777 0 32.0085 0C31.8393 0 31.6721 0.036256 31.518 0.106326C31.364 0.176397 31.2268 0.278655 31.1156 0.406215L21.9696 11.8388C21.8349 12.007 21.7505 12.2098 21.7261 12.4238C21.7017 12.6378 21.7383 12.8544 21.8316 13.0486C21.9249 13.2427 22.0712 13.4066 22.2536 13.5212C22.4359 13.6359 22.647 13.6967 22.8624 13.6966Z" fill="#683EE6"/>
</g>
<defs>
<clipPath id="clip0_4269_267894">
<rect width="64" height="64" fill="white"/>
</clipPath>
</defs>
</svg>
