<svg width="64" height="64" viewBox="0 0 64 64" fill="none" xmlns="http://www.w3.org/2000/svg">
<g clip-path="url(#clip0_4269_267877)">
<path d="M51.1212 35.204C51.1212 36.2892 50.3218 36.9276 49.4855 36.9276H49.2013V33.5684H49.4855C50.3875 33.5683 51.1212 34.3021 51.1212 35.204ZM0 14.4515V10.3225C0 6.90181 2.7729 4.12891 6.19355 4.12891H57.8064C61.2271 4.12891 64 6.90181 64 10.3225V14.4515C64 15.5917 63.0757 16.516 61.9355 16.516H2.06452C0.924258 16.516 0 15.5917 0 14.4515ZM18.5806 11.0966C18.5806 13.0443 21.0457 13.892 22.2413 12.405C22.952 11.544 22.8485 10.2382 21.9548 9.50052C20.5803 8.39433 18.5806 9.37587 18.5806 11.0966ZM12.3871 11.0966C12.3871 13.0516 14.8312 13.8822 16.0477 12.4063C16.7832 11.4929 16.6246 10.2132 15.7613 9.50052C14.3854 8.39329 12.3871 9.3782 12.3871 11.0966ZM6.19355 11.0966C6.19355 12.967 8.47419 13.8329 9.71742 12.556C10.5319 11.741 10.5146 10.4134 9.71742 9.63729C8.4671 8.35304 6.19355 9.2342 6.19355 11.0966ZM64 22.7096V53.6773C64 57.0979 61.2271 59.8708 57.8064 59.8708H6.19355C2.7729 59.8708 0 57.0979 0 53.6773V22.7096C0 21.5693 0.924258 20.645 2.06452 20.645H61.9355C63.0757 20.645 64 21.5693 64 22.7096ZM18.8387 31.5037C18.8387 30.3635 17.9143 29.4392 16.7742 29.4392C15.6341 29.4392 14.7097 30.3635 14.7097 31.5037V35.2257H12.9032V31.5037C12.9032 30.3635 11.9788 29.4392 10.8387 29.4392C9.69858 29.4392 8.77419 30.3635 8.77419 31.5037V43.0765C8.77419 44.2168 9.69858 45.141 10.8387 45.141C11.9788 45.141 12.9032 44.2168 12.9032 43.0765V39.3547H14.7097V43.0766C14.7097 44.2169 15.6341 45.1412 16.7742 45.1412C17.9143 45.1412 18.8387 44.2169 18.8387 43.0766V31.5037ZM31.0968 31.4837C31.0968 30.3436 30.1724 29.4192 29.0323 29.4192H22.8387C21.6986 29.4192 20.7742 30.3436 20.7742 31.4837C20.7742 32.6239 21.6986 33.5483 22.8387 33.5483H23.871V43.0966C23.871 44.2369 24.7954 45.1612 25.9355 45.1612C27.0756 45.1612 28 44.2369 28 43.0966V33.5483H29.0323C30.1724 33.5483 31.0968 32.6239 31.0968 31.4837ZM43.2258 31.4837C43.2258 30.3436 42.3014 29.4192 41.1613 29.4192H34.9677C33.8276 29.4192 32.9032 30.3436 32.9032 31.4837C32.9032 32.6239 33.8276 33.5483 34.9677 33.5483H36V43.0966C36 44.2369 36.9244 45.1612 38.0645 45.1612C39.2046 45.1612 40.129 44.2369 40.129 43.0966V33.5483H41.1613C42.3014 33.5483 43.2258 32.6239 43.2258 31.4837ZM55.2502 35.204C55.2502 32.0253 52.6641 29.4392 49.4855 29.4392H47.1368C45.9966 29.4392 45.0723 30.3635 45.0723 31.5037V43.0765C45.0723 44.2168 45.9966 45.141 47.1368 45.141C48.2769 45.141 49.2013 44.2168 49.2013 43.0765V41.0566C52.9615 41.0566 55.2502 38.3081 55.2502 35.204Z" fill="#683EE6"/>
</g>
<defs>
<clipPath id="clip0_4269_267877">
<rect width="64" height="64" fill="white"/>
</clipPath>
</defs>
</svg>
